<svg xmlns="http://www.w3.org/2000/svg" viewBox="0 0 648 648"><g id="Main_Grid" data-name="Main Grid"><path d="M571.68,169.2h0a31,31,0,1,1,0-61.92h0a31,31,0,1,0-31-31h0a31,31,0,0,1-61.92,0h0a31,31,0,0,0-61.92,0h0a31,31,0,1,1-61.92,0h0a31,31,0,1,0-61.92,0h0a31,31,0,0,1-61.92,0h0a31,31,0,0,0-61.92,0h0a31,31,0,1,1-61.92,0,31,31,0,1,0-31,31h0a31,31,0,1,1,0,61.92h0a31,31,0,1,0,0,61.92h0a31,31,0,0,1,0,61.92h0a31,31,0,0,0,0,61.92h0a31,31,0,0,1,0,61.92h0a31,31,0,1,0,0,61.92h0a31,31,0,0,1,0,61.92h0a31,31,0,1,0,31,31,31,31,0,0,1,61.92,0h0a31,31,0,1,0,61.92,0h0a31,31,0,0,1,61.92,0h0a31,31,0,0,0,61.92,0h0a31,31,0,1,1,61.92,0h0a31,31,0,0,0,61.92,0h0a31,31,0,0,1,61.92,0h0a31,31,0,1,0,31-31h0a31,31,0,1,1,0-61.92h0a31,31,0,1,0,0-61.92h0a31,31,0,1,1,0-61.92h0a31,31,0,1,0,0-61.92h0a31,31,0,1,1,0-61.92h0a31,31,0,1,0,0-61.92Z"/></g></svg>