<svg xmlns="http://www.w3.org/2000/svg" viewBox="0 0 648 648"><defs><style>.cls-1{fill:#fde5da;}.cls-2{fill:#4d7123;stroke:#000;stroke-linejoin:round;stroke-width:9px;}</style></defs><g id="Layer_1" data-name="Layer 1"><rect class="cls-1" width="648" height="648"/><polygon class="cls-2" points="367.09 214.88 466.35 145.7 440.15 275.97 545.14 309.97 429.75 354.74 488.87 446.46 372.79 415.04 334.65 532.79 282.15 439.56 179.65 473.69 229.58 360.44 102.86 327.44 227.23 277.53 163.98 184.3 284.18 217.24 322.32 99.48 367.09 214.88"/><path d="M289.55,252.51c-5.32,1.44-8.49,9.08-7.06,17.06s6.89,13.29,12.22,11.85,8.49-9.08,7.06-17.06S294.88,251.08,289.55,252.51Z"/><path d="M361,281.42c5.33-1.44,8.49-9.08,7.07-17.06s-6.89-13.28-12.22-11.85-8.49,9.08-7.07,17.06S355.66,282.86,361,281.42Z"/><path d="M303.3,326.27a10.06,10.06,0,0,0,10,9.07c.33,0,.67,0,1,0L347.94,332l-11.58-52a10.07,10.07,0,1,0-19.66,4.38l6.65,29.84-11,1.09A10.08,10.08,0,0,0,303.3,326.27Z"/><path d="M296.57,358.82a10.08,10.08,0,0,0,3.57,13.79,53.58,53.58,0,0,0,73.29-19,10.07,10.07,0,1,0-17.35-10.22,33.43,33.43,0,0,1-45.73,11.85A10.06,10.06,0,0,0,296.57,358.82Z"/></g></svg>