<svg xmlns="http://www.w3.org/2000/svg" viewBox="0 0 648 648"><defs><style>.cls-1{stroke:#ff966b;stroke-miterlimit:10;}</style></defs><g id="Layer_1" data-name="Layer 1"><line class="cls-1" x1="602.64" y1="94.93" x2="45.36" y2="94.93"/><line class="cls-1" x1="602.64" y1="190.53" x2="45.36" y2="190.53"/><line class="cls-1" x1="602.64" y1="276.91" x2="45.36" y2="276.91"/><line class="cls-1" x1="602.64" y1="347.08" x2="45.36" y2="347.08"/><line class="cls-1" x1="602.64" y1="407.44" x2="45.36" y2="407.44"/><line class="cls-1" x1="602.64" y1="460.8" x2="45.36" y2="460.8"/><line class="cls-1" x1="602.64" y1="512.16" x2="45.36" y2="512.16"/><line class="cls-1" x1="602.64" y1="557.52" x2="45.36" y2="557.52"/><line class="cls-1" x1="602.64" y1="602.64" x2="45.36" y2="602.64"/><path d="M49.33,190.29a1.32,1.32,0,0,1-1.47-1.48V152.07a1.32,1.32,0,0,1,1.47-1.48H52.9a1.32,1.32,0,0,1,1.48,1.48v14.68h6.74V152.07a1.32,1.32,0,0,1,1.48-1.48h3.57a1.32,1.32,0,0,1,1.47,1.48v36.74a1.32,1.32,0,0,1-1.47,1.48H62.6a1.32,1.32,0,0,1-1.48-1.48V172.48H54.38v16.33a1.32,1.32,0,0,1-1.48,1.48Z"/><path d="M73.14,190.29a1.32,1.32,0,0,1-1.47-1.48V185a16.25,16.25,0,0,1,2.15-8.62,24.75,24.75,0,0,1,2-2.89c.63-.74,1.42-1.59,2.44-2.61a35.73,35.73,0,0,0,2.72-3,12.52,12.52,0,0,0,2.67-7.43V158.7c0-2.55-1-3.8-3.12-3.8s-3.17,1.25-3.17,3.8V164a1.33,1.33,0,0,1-1.48,1.48H73.54A1.32,1.32,0,0,1,72.07,164V159.5q0-9.52,8.67-9.53c5.84,0,8.73,3.18,8.73,9.53v.68a16.18,16.18,0,0,1-1.13,6.06,17.88,17.88,0,0,1-2.21,4.2c-.74.91-1.87,2.1-3.29,3.57-1.19,1.25-2.1,2.21-2.72,3a12.69,12.69,0,0,0-2.72,7.37v.23H87.66A1.32,1.32,0,0,1,89.13,186v2.78a1.32,1.32,0,0,1-1.47,1.48Z"/><path d="M114.7,173.16a1.32,1.32,0,0,1,1.48,1.48v2a1.32,1.32,0,0,1-1.48,1.47h-9.86a1.32,1.32,0,0,1-1.48-1.47v-2a1.32,1.32,0,0,1,1.48-1.48Z"/><path d="M134.78,190.29a1.32,1.32,0,0,1-1.48-1.48V157.63h-1.93a1.32,1.32,0,0,1-1.47-1.48v-2a1.32,1.32,0,0,1,1.47-1.48h1.31a3.05,3.05,0,0,0,3-1.47,1.83,1.83,0,0,1,1.65-1.25h.28a1.32,1.32,0,0,1,1.47,1.47v37.37a1.32,1.32,0,0,1-1.47,1.48Z"/><path d="M144.92,190.29a1.32,1.32,0,0,1-1.47-1.48V185a16.25,16.25,0,0,1,2.15-8.62,23.55,23.55,0,0,1,2.05-2.89c.62-.74,1.41-1.59,2.43-2.61a38.07,38.07,0,0,0,2.73-3,12.58,12.58,0,0,0,2.66-7.43V158.7c0-2.55-1-3.8-3.12-3.8s-3.17,1.25-3.17,3.8V164a1.32,1.32,0,0,1-1.48,1.48h-2.38a1.32,1.32,0,0,1-1.47-1.48V159.5q0-9.52,8.67-9.53c5.84,0,8.73,3.18,8.73,9.53v.68a16.18,16.18,0,0,1-1.13,6.06,17.51,17.51,0,0,1-2.21,4.2c-.74.91-1.87,2.1-3.29,3.57-1.19,1.25-2.1,2.21-2.72,3a12.69,12.69,0,0,0-2.72,7.37v.23h10.26a1.32,1.32,0,0,1,1.47,1.47v2.78a1.32,1.32,0,0,1-1.47,1.48Z"/><path d="M164.71,177.64a1.32,1.32,0,0,1,1.48-1.47h2.38a1.32,1.32,0,0,1,1.47,1.47v4.54c0,2.55,1,3.8,3.12,3.8s3.18-1.25,3.18-3.8V169.53c0-2.72-1-3.63-2.84-3.63-2,0-3.46,1.7-3.46,4v.8a1.32,1.32,0,0,1-1.47,1.47h-2.38a1.32,1.32,0,0,1-1.48-1.47v-18.6a1.32,1.32,0,0,1,1.48-1.48h14a1.32,1.32,0,0,1,1.48,1.48v2.78a1.32,1.32,0,0,1-1.48,1.47H170v8.22a5.91,5.91,0,0,1,5.73-3.63c4.19,0,6.29,2.73,6.29,8.23v12.24q0,9.52-8.67,9.53t-8.68-9.53Z"/><path d="M198.11,170.1c0,4.37-2.1,6.52-6.35,6.52s-6.35-2.15-6.35-6.52V156.43c0-4.36,2.43-6.46,6.35-6.46s6.35,2.1,6.35,6.46Zm-4.37-14c0-1.58-.68-2.38-2-2.38s-2,.8-2,2.38v14.35c0,1.59.68,2.38,2,2.38s2-.79,2-2.38Zm-.17,34.2c-.9,0-1.36-.51-1-1.37l16-37.42a1.39,1.39,0,0,1,1.36-.91h1.59c.9,0,1.36.51,1,1.37l-16,37.42a1.4,1.4,0,0,1-1.36.91Zm26.14-5.9c0,4.36-2.1,6.52-6.35,6.52s-6.35-2.16-6.35-6.52V170.72c0-4.36,2.44-6.46,6.35-6.46s6.35,2.1,6.35,6.46Zm-4.36-14c0-1.58-.68-2.38-2-2.38s-2,.8-2,2.38v14.35c0,1.59.68,2.38,2,2.38s2-.79,2-2.38Z"/><path d="M50.92,94.93a1.85,1.85,0,0,1-2.07-2.07V41.43a1.85,1.85,0,0,1,2.07-2.07h5A1.85,1.85,0,0,1,58,41.43V62h9.45V41.43a1.85,1.85,0,0,1,2.06-2.07h5a1.85,1.85,0,0,1,2.06,2.07V92.86a1.85,1.85,0,0,1-2.06,2.07h-5a1.85,1.85,0,0,1-2.06-2.07V70H58V92.86a1.85,1.85,0,0,1-2.06,2.07Z"/><path d="M88.46,94.93a1.85,1.85,0,0,1-2.06-2.07V49.2H83.7a1.84,1.84,0,0,1-2.06-2.06V44.36A1.84,1.84,0,0,1,83.7,42.3h1.82c2.15,0,3.5-.72,4.21-2.07A2.54,2.54,0,0,1,92,38.49h.4a1.84,1.84,0,0,1,2.06,2.06V92.86a1.85,1.85,0,0,1-2.06,2.07Z"/><path d="M132,71A1.85,1.85,0,0,1,134,73v2.86A1.84,1.84,0,0,1,132,77.94H118.15a1.85,1.85,0,0,1-2.07-2.06V73A1.85,1.85,0,0,1,118.15,71Z"/><path d="M160.06,94.93A1.85,1.85,0,0,1,158,92.86V49.2h-2.7a1.84,1.84,0,0,1-2.06-2.06V44.36a1.84,1.84,0,0,1,2.06-2.06h1.82c2.15,0,3.5-.72,4.21-2.07a2.54,2.54,0,0,1,2.3-1.74h.4a1.84,1.84,0,0,1,2.06,2.06V92.86A1.85,1.85,0,0,1,164,94.93Z"/><path d="M174,47.38a1.85,1.85,0,0,1-2.06-2.07V41.43A1.85,1.85,0,0,1,174,39.36h20.16a1.85,1.85,0,0,1,2.07,2.07v3.09a10.33,10.33,0,0,1-.4,2.46l-14.45,46.2A2.19,2.19,0,0,1,179,94.93h-4.6c-1.51,0-2.22-.88-1.67-2.39l15.64-45.16Z"/><path d="M200.31,77.22a1.84,1.84,0,0,1,2.06-2.06h3.33a1.85,1.85,0,0,1,2.07,2.06v6.35c0,3.58,1.43,5.32,4.36,5.32s4.45-1.74,4.45-5.32V65.87c0-3.81-1.35-5.08-4-5.08-2.86,0-4.84,2.38-4.84,5.56v1.11a1.85,1.85,0,0,1-2.07,2.06h-3.33a1.84,1.84,0,0,1-2.06-2.06v-26a1.85,1.85,0,0,1,2.06-2.07H222A1.85,1.85,0,0,1,224,41.43v3.88A1.85,1.85,0,0,1,222,47.38h-14.2V58.89a8.27,8.27,0,0,1,8-5.08c5.88,0,8.81,3.81,8.81,11.51V82.46q0,13.33-12.14,13.34T200.31,82.46Z"/><path d="M247.06,66.67c0,6.11-2.94,9.13-8.89,9.13s-8.89-3-8.89-9.13V47.54c0-6.11,3.41-9,8.89-9s8.89,2.94,8.89,9ZM241,47.06c0-2.22-.95-3.33-2.78-3.33s-2.78,1.11-2.78,3.33V67.14c0,2.23,1,3.34,2.78,3.34S241,69.37,241,67.14Zm-.24,47.87c-1.27,0-1.91-.72-1.35-1.91l22.38-52.39a2,2,0,0,1,1.91-1.27h2.22c1.27,0,1.91.72,1.35,1.91L244.84,93.66a2,2,0,0,1-1.91,1.27Zm36.59-8.26c0,6.11-2.94,9.13-8.89,9.13s-8.89-3-8.89-9.13V67.54c0-6.11,3.41-9.05,8.89-9.05s8.89,2.94,8.89,9.05Zm-6.11-19.61c0-2.22-.95-3.33-2.78-3.33s-2.78,1.11-2.78,3.33V87.15c0,2.22,1,3.33,2.78,3.33s2.78-1.11,2.78-3.33Z"/><path d="M48.67,276.48a.87.87,0,0,1-1-1V245.72c0-.68.32-1,1-1h1.86c.68,0,1,.31,1,1v12.52h6.58V245.72a.86.86,0,0,1,1-1H61c.69,0,1,.31,1,1v29.76a.87.87,0,0,1-1,1H59.1c-.68,0-1-.32-1-1V261.6H51.53v13.88a.87.87,0,0,1-1,1Z"/><path d="M65.73,266.14c0-.68.31-1,1-1H68a.87.87,0,0,1,1,1v4.13c0,2.49,1,3.71,3,3.71s3-1.22,3-3.71v-5.13c0-2.54-.87-3.77-3-3.77H70.67c-.68,0-1-.31-1-1v-1a.87.87,0,0,1,1-1H72c2.17,0,3-1.22,3-3.76v-3.72c0-2.5-1-3.72-3-3.72s-3,1.22-3,3.72v2.72a.87.87,0,0,1-1,1H66.72c-.68,0-1-.32-1-1V251.3c0-4.72,2.13-7.07,6.35-7.07s6.35,2.35,6.35,7.07v2.54c0,3.36-1.09,5.4-3.22,6.08,2.13.68,3.22,2.72,3.22,6v3.9c0,4.76-2.13,7.12-6.35,7.12s-6.35-2.36-6.35-7.12Z"/><path d="M90.67,266.32c-.68,0-1-.32-1-1v-1.09c0-.68.31-1,1-1h7.62a.87.87,0,0,1,1,1v1.09a.87.87,0,0,1-1,1Z"/><path d="M113.94,276.48c-.68,0-1-.32-1-1V249h-1.77c-.68,0-1-.31-1-1v-.91a.87.87,0,0,1,1-1h1a2,2,0,0,0,2-1,1.21,1.21,0,0,1,1.13-.86h.05a.86.86,0,0,1,1,1v30.26c0,.68-.31,1-1,1Z"/><path d="M120.66,270V251.21c0-4.67,2.17-7,6.48-7s6.44,2.31,6.44,7V270c0,4.68-2.13,7-6.44,7S120.66,274.67,120.66,270Zm9.48.41V250.8c0-2.4-1-3.58-3-3.58s-3,1.18-3,3.58v19.6c0,2.41,1,3.58,3,3.58S130.14,272.81,130.14,270.4Z"/><path d="M136.94,270V251.21c0-4.67,2.18-7,6.49-7s6.44,2.31,6.44,7V270c0,4.68-2.13,7-6.44,7S136.94,274.67,136.94,270Zm9.48.41V250.8c0-2.4-1-3.58-3-3.58s-3,1.18-3,3.58v19.6c0,2.41,1,3.58,3,3.58S146.42,272.81,146.42,270.4Z"/><path d="M162.21,260.65c0,3.26-1.55,4.9-4.63,4.9s-4.67-1.64-4.67-4.9V249.13c0-3.27,1.54-4.9,4.67-4.9s4.63,1.63,4.63,4.9Zm-2.77-11.71c0-1.49-.64-2.26-1.86-2.26s-1.91.77-1.91,2.26v11.89c0,1.54.64,2.31,1.91,2.31s1.86-.77,1.86-2.31Zm-.55,27.54a.63.63,0,0,1-.63-1l12.25-30.17a1,1,0,0,1,1-.63h.86a.63.63,0,0,1,.64,1l-12.25,30.16a1,1,0,0,1-1,.64Zm19.42-4.4q0,4.91-4.63,4.9c-3.13,0-4.67-1.63-4.67-4.9V260.56c0-3.27,1.54-4.9,4.67-4.9s4.63,1.63,4.63,4.9Zm-2.77-11.7c0-1.5-.63-2.27-1.86-2.27s-1.9.77-1.9,2.27v11.88c0,1.54.63,2.31,1.9,2.31s1.86-.77,1.86-2.31Z"/><path d="M47.72,346.84V325.4H51v9.32H61.64V325.4h3.25v21.44H61.64v-9.35H51v9.35Z"/><path d="M68.86,342.65V340l9.26-14.63h2.06v3.85h-1.3l-6.63,10.49v.17H85v2.74ZM79,346.84v-5l0-1.2V325.4h3.07v21.44Z"/><path d="M105.92,334.76v2.72H96.41v-2.72Z"/><path d="M125.35,347.13a8.67,8.67,0,0,1-2.82-.52,6.61,6.61,0,0,1-2.52-1.68,8.37,8.37,0,0,1-1.8-3.15,15.45,15.45,0,0,1-.68-4.94,20.2,20.2,0,0,1,.56-5,11,11,0,0,1,1.62-3.68,6.94,6.94,0,0,1,5.91-3.08,7.48,7.48,0,0,1,3.41.76,6.39,6.39,0,0,1,2.41,2.08,7.05,7.05,0,0,1,1.18,3h-3.2a4.05,4.05,0,0,0-1.28-2.19,3.66,3.66,0,0,0-2.52-.85A4.13,4.13,0,0,0,122,330a10.69,10.69,0,0,0-1.32,5.71h.16a5.84,5.84,0,0,1,1.36-1.56,6.29,6.29,0,0,1,1.82-1,6.62,6.62,0,0,1,2.14-.35,6.47,6.47,0,0,1,3.37.9,6.83,6.83,0,0,1,2.42,2.5,7.29,7.29,0,0,1,.9,3.65,7.49,7.49,0,0,1-.93,3.71,6.94,6.94,0,0,1-2.6,2.64A7.57,7.57,0,0,1,125.35,347.13Zm0-2.72a4,4,0,0,0,2.21-.61,4.39,4.39,0,0,0,1.54-1.63,4.62,4.62,0,0,0,.56-2.29,4.68,4.68,0,0,0-.54-2.25A4.28,4.28,0,0,0,127.6,336a4.13,4.13,0,0,0-2.19-.59,4.26,4.26,0,0,0-1.72.35,4.53,4.53,0,0,0-1.39,1,4.75,4.75,0,0,0-.93,1.44,4.31,4.31,0,0,0-.34,1.71,4.53,4.53,0,0,0,.56,2.23,4.43,4.43,0,0,0,1.54,1.65A4.07,4.07,0,0,0,125.34,344.41Z"/><path d="M143.68,347.13a7.92,7.92,0,0,1-3.53-.76,6.39,6.39,0,0,1-2.5-2.08,5.53,5.53,0,0,1-1-3h3.14a3.15,3.15,0,0,0,1.23,2.27,4.1,4.1,0,0,0,2.65.89,4.22,4.22,0,0,0,2.2-.57,4.1,4.1,0,0,0,1.51-1.58,4.76,4.76,0,0,0,.55-2.29,4.7,4.7,0,0,0-.57-2.33,4.31,4.31,0,0,0-1.55-1.62,4.39,4.39,0,0,0-2.27-.59,6.16,6.16,0,0,0-2,.33,4.62,4.62,0,0,0-1.59.88l-3-.44,1.2-10.8H150v2.77h-9.1l-.68,6h.13a4.88,4.88,0,0,1,1.67-1,5.89,5.89,0,0,1,2.23-.41,6.56,6.56,0,0,1,5.91,3.47,7.51,7.51,0,0,1,.88,3.69,7.29,7.29,0,0,1-.94,3.72,7,7,0,0,1-2.62,2.57A7.73,7.73,0,0,1,143.68,347.13Z"/><path d="M155.3,330.55v-1.13a4.87,4.87,0,0,1,.5-2.23,4,4,0,0,1,1.49-1.63,5,5,0,0,1,4.76,0,3.87,3.87,0,0,1,1.45,1.63,5,5,0,0,1,.5,2.23v1.13a5,5,0,0,1-.5,2.22A3.92,3.92,0,0,1,162,334.4a4.39,4.39,0,0,1-2.37.61,4.46,4.46,0,0,1-2.39-.61,3.92,3.92,0,0,1-1.47-1.63A4.83,4.83,0,0,1,155.3,330.55Zm1,16.29L171,325.4h2.51l-14.75,21.44Zm1.46-17.42v1.13a3.22,3.22,0,0,0,.42,1.63,1.57,1.57,0,0,0,1.49.73,1.55,1.55,0,0,0,1.47-.73,3.13,3.13,0,0,0,.43-1.63v-1.13a3.35,3.35,0,0,0-.41-1.64,1.57,1.57,0,0,0-1.49-.73,1.59,1.59,0,0,0-1.48.73A3.16,3.16,0,0,0,157.75,329.42Zm8.33,13.4v-1.13a4.91,4.91,0,0,1,.51-2.23,4,4,0,0,1,1.49-1.62,4.93,4.93,0,0,1,4.75,0,3.81,3.81,0,0,1,1.46,1.62,4.9,4.9,0,0,1,.5,2.23v1.13a5,5,0,0,1-.5,2.22,4.05,4.05,0,0,1-1.47,1.63,4.95,4.95,0,0,1-4.76,0,4,4,0,0,1-1.48-1.63A5,5,0,0,1,166.08,342.82Zm2.44-1.13v1.13a3.13,3.13,0,0,0,.43,1.63,1.59,1.59,0,0,0,1.5.74,1.55,1.55,0,0,0,1.47-.74,3.22,3.22,0,0,0,.42-1.63v-1.13a3.28,3.28,0,0,0-.4-1.63,1.56,1.56,0,0,0-1.49-.74,1.6,1.6,0,0,0-1.49.74A3.11,3.11,0,0,0,168.52,341.69Z"/><path d="M47,407.2V392.35h2.24v6.46h7.4v-6.46h2.25V407.2H56.63v-6.47h-7.4v6.47Z"/><path d="M66.84,407.4a5.54,5.54,0,0,1-2.45-.52,4.39,4.39,0,0,1-1.73-1.45,3.81,3.81,0,0,1-.69-2.1h2.18A2.13,2.13,0,0,0,65,404.9a2.84,2.84,0,0,0,1.84.62,2.88,2.88,0,0,0,1.52-.4,2.73,2.73,0,0,0,1-1.09,3.52,3.52,0,0,0,0-3.2,2.84,2.84,0,0,0-1.08-1.12,3,3,0,0,0-1.57-.41,4.25,4.25,0,0,0-1.35.23,3.19,3.19,0,0,0-1.1.61l-2.05-.3.83-7.49h8.16v1.93h-6.3l-.47,4.15h.09a3.3,3.3,0,0,1,1.15-.7,4.19,4.19,0,0,1,1.55-.29,4.55,4.55,0,0,1,4.09,2.41A5.17,5.17,0,0,1,72,402.4,5,5,0,0,1,71.3,405a4.69,4.69,0,0,1-1.81,1.78A5.26,5.26,0,0,1,66.84,407.4Z"/><path d="M86.59,398.84v1.88H80v-1.88Z"/><path d="M94.55,404.3v-1.81L101,392.35h1.43V395h-.9l-4.59,7.27v.11h8.79v1.9Zm7,2.9V392.35h2.13V407.2Z"/><path d="M113.11,407.4a5.5,5.5,0,0,1-2.44-.52,4.32,4.32,0,0,1-1.73-1.45,3.81,3.81,0,0,1-.69-2.1h2.17a2.2,2.2,0,0,0,.85,1.57,3.06,3.06,0,0,0,3.36.22,2.73,2.73,0,0,0,1-1.09,3.17,3.17,0,0,0,.38-1.59,3.28,3.28,0,0,0-.39-1.61,2.88,2.88,0,0,0-1.07-1.12,3,3,0,0,0-1.57-.41,4.36,4.36,0,0,0-1.36.23,3.29,3.29,0,0,0-1.1.61l-2-.3.83-7.49h8.16v1.93h-6.29l-.48,4.15h.09a3.35,3.35,0,0,1,1.16-.7,4.15,4.15,0,0,1,1.55-.29,4.58,4.58,0,0,1,4.09,2.41,5.06,5.06,0,0,1,.6,2.55,4.89,4.89,0,0,1-.65,2.57,4.62,4.62,0,0,1-1.81,1.78A5.23,5.23,0,0,1,113.11,407.4Z"/><path d="M121.15,395.92v-.78a3.49,3.49,0,0,1,.35-1.55,2.84,2.84,0,0,1,1-1.12,3.45,3.45,0,0,1,3.3,0,2.7,2.7,0,0,1,1,1.12,3.49,3.49,0,0,1,.34,1.55v.78a3.41,3.41,0,0,1-.34,1.54,2.82,2.82,0,0,1-1,1.13,3.45,3.45,0,0,1-3.3,0,2.77,2.77,0,0,1-1-1.13A3.42,3.42,0,0,1,121.15,395.92Zm.69,11.28,10.21-14.85h1.73L123.57,407.2Zm1-12.06v.78a2.26,2.26,0,0,0,.29,1.13,1.09,1.09,0,0,0,1,.51,1.07,1.07,0,0,0,1-.51,2.17,2.17,0,0,0,.3-1.13v-.78a2.26,2.26,0,0,0-.29-1.13,1.07,1.07,0,0,0-1-.51,1.09,1.09,0,0,0-1,.51A2.17,2.17,0,0,0,122.85,395.14Zm5.77,9.28v-.79a3.32,3.32,0,0,1,.35-1.54,2.77,2.77,0,0,1,1-1.12,3.05,3.05,0,0,1,1.64-.42,3,3,0,0,1,1.65.42,2.66,2.66,0,0,1,1,1.12,3.45,3.45,0,0,1,.35,1.54v.79a3.45,3.45,0,0,1-.35,1.54,2.75,2.75,0,0,1-1,1.12,3,3,0,0,1-1.64.42,3.06,3.06,0,0,1-1.65-.42,2.84,2.84,0,0,1-1-1.12A3.44,3.44,0,0,1,128.62,404.42Zm1.69-.79v.79a2.29,2.29,0,0,0,.29,1.13,1.1,1.1,0,0,0,1,.5,1.06,1.06,0,0,0,1-.5,2.19,2.19,0,0,0,.29-1.13v-.79a2.28,2.28,0,0,0-.28-1.13,1.06,1.06,0,0,0-1-.5,1.1,1.1,0,0,0-1,.5A2.2,2.2,0,0,0,130.31,403.63Z"/><path d="M46.36,460.56V449H48.8v4.77h5V449H56.2v11.55H53.76v-4.77h-5v4.77Z"/><path d="M62.57,460.72a5.49,5.49,0,0,1-1.71-.3,3.84,3.84,0,0,1-1.48-.95,4.55,4.55,0,0,1-1-1.75,8.29,8.29,0,0,1-.38-2.67,9.49,9.49,0,0,1,.34-2.61,5.75,5.75,0,0,1,.94-1.94,4.11,4.11,0,0,1,1.48-1.22,4.38,4.38,0,0,1,1.94-.42,4.57,4.57,0,0,1,2,.44,3.84,3.84,0,0,1,1.42,1.22,3.61,3.61,0,0,1,.65,1.72h-2.4a1.67,1.67,0,0,0-.6-.95,1.77,1.77,0,0,0-1.11-.34,1.85,1.85,0,0,0-1.71,1,5.28,5.28,0,0,0-.6,2.67h.08a2.63,2.63,0,0,1,.7-.88,3.32,3.32,0,0,1,1-.56,3.68,3.68,0,0,1,1.2-.19,3.52,3.52,0,0,1,1.83.48,3.48,3.48,0,0,1,1.26,1.32,3.9,3.9,0,0,1,.46,1.92,4,4,0,0,1-.54,2.09,3.88,3.88,0,0,1-1.52,1.43A4.8,4.8,0,0,1,62.57,460.72Zm0-1.92a1.91,1.91,0,0,0,1.71-1,2.13,2.13,0,0,0,.25-1,2.07,2.07,0,0,0-.25-1,1.94,1.94,0,0,0-2.47-.84,1.84,1.84,0,0,0-.63.44,2,2,0,0,0-.42.65,2.09,2.09,0,0,0-.15.79,2,2,0,0,0,.26,1,2,2,0,0,0,.69.73A1.85,1.85,0,0,0,62.56,458.8Z"/><path d="M77.72,453.83v1.91H72.46v-1.91Z"/><path d="M87.7,460.72a5.47,5.47,0,0,1-2.25-.44,3.71,3.71,0,0,1-1.55-1.21,3,3,0,0,1-.59-1.77h2.46a1.32,1.32,0,0,0,.28.74,1.7,1.7,0,0,0,.69.49,2.6,2.6,0,0,0,2,0,1.66,1.66,0,0,0,.67-.55,1.38,1.38,0,0,0,.24-.81,1.4,1.4,0,0,0-.26-.82,1.76,1.76,0,0,0-.73-.56,3,3,0,0,0-1.13-.2H86.4v-1.79h1.08a2.52,2.52,0,0,0,1-.19,1.61,1.61,0,0,0,.66-.54,1.32,1.32,0,0,0,.24-.79,1.38,1.38,0,0,0-.78-1.28,1.84,1.84,0,0,0-.86-.19,2.24,2.24,0,0,0-.91.18,1.66,1.66,0,0,0-.66.5,1.38,1.38,0,0,0-.27.77H83.55a3,3,0,0,1,.57-1.76,3.54,3.54,0,0,1,1.49-1.19,5,5,0,0,1,2.12-.43,4.73,4.73,0,0,1,2.09.43,3.52,3.52,0,0,1,1.4,1.17,2.88,2.88,0,0,1,.49,1.65,2.3,2.3,0,0,1-.6,1.62,2.81,2.81,0,0,1-1.58.82v.09a3.07,3.07,0,0,1,1.94.88,2.53,2.53,0,0,1,.67,1.8,2.85,2.85,0,0,1-.57,1.75A3.94,3.94,0,0,1,90,460.28,5.75,5.75,0,0,1,87.7,460.72Z"/><path d="M98.11,460.72a5,5,0,0,1-2.13-.44,3.86,3.86,0,0,1-1.48-1.21,3.13,3.13,0,0,1-.56-1.77H96.3a1.44,1.44,0,0,0,.57,1.08,2.08,2.08,0,0,0,2.26.16,1.75,1.75,0,0,0,.69-.71,2.16,2.16,0,0,0,.26-1.06,2.2,2.2,0,0,0-.26-1.07,1.82,1.82,0,0,0-.71-.72,2.16,2.16,0,0,0-1-.27,2.37,2.37,0,0,0-1,.21,1.83,1.83,0,0,0-.75.57l-2.17-.39.55-6.09h7.06v2H96.74l-.3,2.89h.07a2.28,2.28,0,0,1,.92-.71,3.24,3.24,0,0,1,1.38-.28,3.54,3.54,0,0,1,1.86.49,3.69,3.69,0,0,1,1.29,1.34,4.07,4.07,0,0,1,.47,2,3.94,3.94,0,0,1-.54,2.07,3.86,3.86,0,0,1-1.52,1.42A4.68,4.68,0,0,1,98.11,460.72Z"/><path d="M104.52,451.79v-.61a2.74,2.74,0,0,1,.3-1.28,2.38,2.38,0,0,1,.87-.94,2.56,2.56,0,0,1,1.37-.35,2.64,2.64,0,0,1,1.4.35,2.43,2.43,0,0,1,.86.94,2.87,2.87,0,0,1,.29,1.28v.61a2.77,2.77,0,0,1-.3,1.28,2.24,2.24,0,0,1-.86.92,2.54,2.54,0,0,1-1.39.35,2.63,2.63,0,0,1-1.39-.35,2.4,2.4,0,0,1-.86-.93A2.85,2.85,0,0,1,104.52,451.79Zm.75,8.77L113.21,449h1.47l-7.94,11.55Zm.9-9.38v.61a1.54,1.54,0,0,0,.2.76.73.73,0,0,0,.69.35.74.74,0,0,0,.71-.35,1.65,1.65,0,0,0,.19-.76v-.61a1.68,1.68,0,0,0-.18-.77.74.74,0,0,0-.72-.35.71.71,0,0,0-.69.36A1.57,1.57,0,0,0,106.17,451.18Zm4.28,7.22v-.61a2.87,2.87,0,0,1,.29-1.28,2.38,2.38,0,0,1,.87-.94,2.59,2.59,0,0,1,1.38-.35,2.67,2.67,0,0,1,1.4.35,2.24,2.24,0,0,1,.85.93,2.78,2.78,0,0,1,.29,1.29v.61a2.73,2.73,0,0,1-.29,1.27,2.36,2.36,0,0,1-.86.94,2.94,2.94,0,0,1-2.78,0,2.36,2.36,0,0,1-.86-.94A2.85,2.85,0,0,1,110.45,458.4Zm1.64-.61v.61a1.55,1.55,0,0,0,.19.75.74.74,0,0,0,.71.36.72.72,0,0,0,.7-.35,1.56,1.56,0,0,0,.19-.76v-.61a1.68,1.68,0,0,0-.18-.77.87.87,0,0,0-1.41,0A1.48,1.48,0,0,0,112.09,457.79Z"/><path d="M47.33,511.92V497.07h5a5.16,5.16,0,0,1,2.42.51A3.42,3.42,0,0,1,56.21,499a4,4,0,0,1,.49,2,3.82,3.82,0,0,1-.31,1.59,2.89,2.89,0,0,1-.85,1.06,3.54,3.54,0,0,1-1.2.59v.12a2.8,2.8,0,0,1,1.39.5,3.42,3.42,0,0,1,1.11,1.26,4.1,4.1,0,0,1,.44,1.95,4,4,0,0,1-.5,2,3.49,3.49,0,0,1-1.54,1.39,6.06,6.06,0,0,1-2.62.5Zm1.36-8.14h3.77a3.16,3.16,0,0,0,1.54-.36,2.68,2.68,0,0,0,1-1A2.83,2.83,0,0,0,55.4,501a2.55,2.55,0,0,0-.77-1.92,3.14,3.14,0,0,0-2.29-.75H48.69Zm0,6.92h3.93a3.64,3.64,0,0,0,2.54-.76A2.48,2.48,0,0,0,56,508a2.95,2.95,0,0,0-1.56-2.64,3.62,3.62,0,0,0-1.75-.41h-4Z"/><path d="M64.61,512.15a4.46,4.46,0,0,1-2.55-.73,4.86,4.86,0,0,1-1.73-2,6.74,6.74,0,0,1-.62-3,6.83,6.83,0,0,1,.62-3,4.86,4.86,0,0,1,1.73-2,4.54,4.54,0,0,1,2.55-.73,4.46,4.46,0,0,1,2.54.74,4.94,4.94,0,0,1,1.73,2,7.54,7.54,0,0,1,0,6,4.86,4.86,0,0,1-1.73,2A4.45,4.45,0,0,1,64.61,512.15Zm0-1.18a3.14,3.14,0,0,0,2-.62,3.9,3.9,0,0,0,1.22-1.66,6,6,0,0,0,.42-2.29,6.1,6.1,0,0,0-.42-2.29,3.93,3.93,0,0,0-1.22-1.67,3.38,3.38,0,0,0-3.93,0,4,4,0,0,0-1.22,1.67A6.1,6.1,0,0,0,61,506.4a6,6,0,0,0,.42,2.29,3.9,3.9,0,0,0,1.22,1.66A3.15,3.15,0,0,0,64.61,511Z"/><path d="M76.35,512.15a4.05,4.05,0,0,1-2.4-.72,4.83,4.83,0,0,1-1.61-2,8.26,8.26,0,0,1,0-6,4.72,4.72,0,0,1,1.62-2,4,4,0,0,1,2.41-.73,3.55,3.55,0,0,1,1.69.36,3.31,3.31,0,0,1,1.08.89,5.29,5.29,0,0,1,.63,1h.11v-5.84h1.3v14.85H79.92v-2.07h-.15a4.72,4.72,0,0,1-.64,1,3.25,3.25,0,0,1-1.09.9A3.58,3.58,0,0,1,76.35,512.15ZM76.5,511a2.94,2.94,0,0,0,1.84-.59,3.6,3.6,0,0,0,1.16-1.63,7.17,7.17,0,0,0,0-4.75,3.67,3.67,0,0,0-1.16-1.61,3.24,3.24,0,0,0-3.73,0,3.74,3.74,0,0,0-1.16,1.64,6.47,6.47,0,0,0-.4,2.31,6.6,6.6,0,0,0,.4,2.34,3.85,3.85,0,0,0,1.17,1.66A2.88,2.88,0,0,0,76.5,511Z"/><path d="M85.76,516.1A3.24,3.24,0,0,1,85,516a2.84,2.84,0,0,1-.53-.16l.35-1.13a3,3,0,0,0,1.17.14,1.45,1.45,0,0,0,.92-.46,3.67,3.67,0,0,0,.71-1.25l.4-1.13L84,500.79h1.4l3.3,9.43h.1l3.31-9.43h1.4l-4.72,12.89A4.54,4.54,0,0,1,88,515a2.81,2.81,0,0,1-1,.8A2.92,2.92,0,0,1,85.76,516.1Z"/><path d="M100.52,497.07v14.85H99.17V498.5h-.09l-3.48,2.31V499.4l3.51-2.33Z"/><path d="M116.84,503.89v1.22h-6.18v-1.22Z"/><path d="M130.11,512.12a4.65,4.65,0,0,1-2.21-.5,4.11,4.11,0,0,1-1.56-1.39,3.93,3.93,0,0,1-.61-2H127a2.73,2.73,0,0,0,.93,1.94,3.16,3.16,0,0,0,2.14.76,3.29,3.29,0,0,0,3-1.78,4,4,0,0,0,.44-1.88,3.9,3.9,0,0,0-.47-1.92,3.49,3.49,0,0,0-1.26-1.3,3.45,3.45,0,0,0-1.78-.47,4.35,4.35,0,0,0-1.46.25,4,4,0,0,0-1.2.65l-1.35-.17.89-7.22h7.33v1.22H128l-.6,5h.07a4.09,4.09,0,0,1,1.2-.68,4.42,4.42,0,0,1,1.5-.26,4.48,4.48,0,0,1,2.36.63,4.56,4.56,0,0,1,1.66,1.74,5.13,5.13,0,0,1,.61,2.54,5,5,0,0,1-.61,2.51,4.63,4.63,0,0,1-1.68,1.75A4.72,4.72,0,0,1,130.11,512.12Z"/><path d="M142.27,512.12a4.71,4.71,0,0,1-2.22-.5,4,4,0,0,1-1.55-1.39,3.84,3.84,0,0,1-.61-2h1.31a2.65,2.65,0,0,0,.93,1.94,3.15,3.15,0,0,0,2.14.76,3.31,3.31,0,0,0,1.77-.48,3.37,3.37,0,0,0,1.21-1.3,4.2,4.2,0,0,0,0-3.8A3.49,3.49,0,0,0,144,504a3.45,3.45,0,0,0-1.78-.47,4.37,4.37,0,0,0-1.47.25,4.08,4.08,0,0,0-1.19.65l-1.36-.17.89-7.22h7.34v1.22h-6.2l-.59,5h.07a4.09,4.09,0,0,1,1.2-.68,4.38,4.38,0,0,1,1.5-.26,4.51,4.51,0,0,1,2.36.63,4.63,4.63,0,0,1,1.66,1.74,5.24,5.24,0,0,1,.61,2.54,5.15,5.15,0,0,1-.61,2.51,4.63,4.63,0,0,1-1.68,1.75A4.74,4.74,0,0,1,142.27,512.12Z"/><path d="M150.11,500.5v-.67a3.31,3.31,0,0,1,.33-1.5,2.57,2.57,0,0,1,.95-1.06,2.61,2.61,0,0,1,1.47-.4,2.58,2.58,0,0,1,1.46.4,2.46,2.46,0,0,1,.93,1.06,3.31,3.31,0,0,1,.33,1.5v.67a3.38,3.38,0,0,1-.33,1.51,2.54,2.54,0,0,1-2.39,1.45,2.7,2.7,0,0,1-1.48-.39,2.61,2.61,0,0,1-.94-1.06A3.38,3.38,0,0,1,150.11,500.5Zm.67,11.42L161,497.07h1.29l-10.2,14.85Zm.47-12.09v.67a2.38,2.38,0,0,0,.4,1.4,1.39,1.39,0,0,0,1.21.58,1.36,1.36,0,0,0,1.18-.58,2.46,2.46,0,0,0,.4-1.4v-.67a2.38,2.38,0,0,0-.4-1.4,1.33,1.33,0,0,0-1.18-.57,1.38,1.38,0,0,0-1.2.57A2.32,2.32,0,0,0,151.25,499.83Zm6.34,9.34v-.68a3.34,3.34,0,0,1,.33-1.5,2.57,2.57,0,0,1,1-1.06,2.61,2.61,0,0,1,1.47-.4,2.58,2.58,0,0,1,1.46.4,2.54,2.54,0,0,1,.94,1.06,3.47,3.47,0,0,1,.32,1.5v.68a3.37,3.37,0,0,1-.33,1.5,2.67,2.67,0,0,1-.94,1.06,2.62,2.62,0,0,1-1.45.39,2.54,2.54,0,0,1-2.42-1.45A3.37,3.37,0,0,1,157.59,509.17Zm1.14-.68v.68a2.35,2.35,0,0,0,.4,1.39,1.37,1.37,0,0,0,1.21.58,1.34,1.34,0,0,0,1.18-.58,2.42,2.42,0,0,0,.4-1.39v-.68a2.42,2.42,0,0,0-.39-1.39,1.34,1.34,0,0,0-1.19-.58,1.36,1.36,0,0,0-1.2.58A2.29,2.29,0,0,0,158.73,508.49Z"/><path d="M46.76,557.28V545.73h4a4.24,4.24,0,0,1,2,.42A2.65,2.65,0,0,1,54,547.26a3.09,3.09,0,0,1,.39,1.54,2.49,2.49,0,0,1-.27,1.23,2.12,2.12,0,0,1-.68.77,3.51,3.51,0,0,1-.93.41v.12a2.19,2.19,0,0,1,1.07.37,2.64,2.64,0,0,1,.9,1,3.05,3.05,0,0,1,.36,1.54,3,3,0,0,1-.4,1.56,2.69,2.69,0,0,1-1.24,1.1,5.21,5.21,0,0,1-2.22.41Zm1.4-6.47h2.59a2.51,2.51,0,0,0,1.14-.25,2,2,0,0,0,.81-.7,1.86,1.86,0,0,0,.3-1.06,1.75,1.75,0,0,0-.52-1.29,2.3,2.3,0,0,0-1.69-.54H48.16Zm0,5.23h2.77a2.9,2.9,0,0,0,2-.53,1.73,1.73,0,0,0,.58-1.3,2,2,0,0,0-.3-1.08,2.26,2.26,0,0,0-.85-.8A2.72,2.72,0,0,0,51,552H48.16Z"/><path d="M60.42,557.46A3.68,3.68,0,0,1,57,555.34,5.37,5.37,0,0,1,56.5,553a5.48,5.48,0,0,1,.49-2.37,3.75,3.75,0,0,1,1.38-1.56,3.79,3.79,0,0,1,5.48,1.56,5.34,5.34,0,0,1,.5,2.37,5.24,5.24,0,0,1-.5,2.34,3.66,3.66,0,0,1-1.37,1.56A3.78,3.78,0,0,1,60.42,557.46Zm0-1.19a2.31,2.31,0,0,0,1.47-.46,2.75,2.75,0,0,0,.85-1.2,4.8,4.8,0,0,0,0-3.23,2.67,2.67,0,0,0-.85-1.21,2.52,2.52,0,0,0-2.93,0,2.67,2.67,0,0,0-.85,1.21,4.8,4.8,0,0,0,0,3.23,2.75,2.75,0,0,0,.85,1.2A2.3,2.3,0,0,0,60.42,556.27Z"/><path d="M69.65,557.46a3.34,3.34,0,0,1-1.91-.55,3.59,3.59,0,0,1-1.3-1.56,6.24,6.24,0,0,1,0-4.75,3.75,3.75,0,0,1,1.3-1.55,3.48,3.48,0,0,1,1.93-.54,2.7,2.7,0,0,1,1.34.28,2.17,2.17,0,0,1,.75.63,6.07,6.07,0,0,1,.41.58h.12v-4.27h1.33v11.55H72.33V556h-.16a5,5,0,0,1-.41.59,2.31,2.31,0,0,1-.78.64A2.68,2.68,0,0,1,69.65,557.46Zm.18-1.19a2.17,2.17,0,0,0,1.35-.42,2.57,2.57,0,0,0,.84-1.17,5.3,5.3,0,0,0,0-3.43,2.48,2.48,0,0,0-.84-1.14,2.24,2.24,0,0,0-1.36-.41,2.3,2.3,0,0,0-1.41.43,2.68,2.68,0,0,0-.84,1.17A4.76,4.76,0,0,0,67.3,553a4.7,4.7,0,0,0,.29,1.68,2.68,2.68,0,0,0,.84,1.19A2.18,2.18,0,0,0,69.83,556.27Z"/><path d="M77.09,560.53a2.64,2.64,0,0,1-.6-.06,1.64,1.64,0,0,1-.37-.1l.34-1.17a2.68,2.68,0,0,0,.85.09A1.15,1.15,0,0,0,78,559a2.79,2.79,0,0,0,.53-1l.25-.67-3.2-8.71H77l2.39,6.9h.09l2.39-6.9h1.44l-3.67,9.92a3.85,3.85,0,0,1-.62,1.12,2.23,2.23,0,0,1-.85.65A2.51,2.51,0,0,1,77.09,560.53Z"/><path d="M85.05,557.28v-1l3.81-4.18c.45-.49.82-.91,1.11-1.27a5.29,5.29,0,0,0,.64-1,2.5,2.5,0,0,0,.21-1,1.85,1.85,0,0,0-.29-1.06,1.88,1.88,0,0,0-.79-.68,2.44,2.44,0,0,0-1.13-.25,2.29,2.29,0,0,0-1.16.28,1.85,1.85,0,0,0-.76.76,2.35,2.35,0,0,0-.26,1.15H85.09a3.26,3.26,0,0,1,1.75-3,3.9,3.9,0,0,1,1.82-.42,3.79,3.79,0,0,1,1.8.42,3.35,3.35,0,0,1,1.23,1.16,3.1,3.1,0,0,1,.44,1.62A3.54,3.54,0,0,1,91.9,550a5.31,5.31,0,0,1-.79,1.35c-.37.49-.89,1.1-1.55,1.81L87,556V556h5.36v1.24Z"/><path d="M104.11,550.89v1.24H99.05v-1.24Z"/><path d="M119.26,557.44a4.84,4.84,0,0,1-2-.39,3.37,3.37,0,0,1-1.38-1.06,2.85,2.85,0,0,1-.55-1.6h1.42a1.59,1.59,0,0,0,.38,1,2.25,2.25,0,0,0,.89.63,3.46,3.46,0,0,0,2.53,0,2.23,2.23,0,0,0,.9-.72,1.81,1.81,0,0,0,.33-1.07,2,2,0,0,0-.32-1.13,2.09,2.09,0,0,0-.93-.76,3.46,3.46,0,0,0-1.48-.28h-.93v-1.24h.93a2.73,2.73,0,0,0,1.21-.25,1.91,1.91,0,0,0,.81-.7,1.86,1.86,0,0,0,.3-1.06,2,2,0,0,0-.26-1,1.75,1.75,0,0,0-.73-.67,2.28,2.28,0,0,0-1.11-.25,3,3,0,0,0-1.12.22,2.12,2.12,0,0,0-.86.63,1.65,1.65,0,0,0-.36,1h-1.36a2.82,2.82,0,0,1,.55-1.59,3.34,3.34,0,0,1,1.35-1.07,4.21,4.21,0,0,1,1.82-.38,3.66,3.66,0,0,1,1.84.43,3,3,0,0,1,1.18,1.13,2.93,2.93,0,0,1,.41,1.53,2.71,2.71,0,0,1-.51,1.66,2.62,2.62,0,0,1-1.38.95v.09a2.68,2.68,0,0,1,1.71.93,2.81,2.81,0,0,1,.61,1.85,2.9,2.9,0,0,1-.51,1.68,3.5,3.5,0,0,1-1.39,1.18A4.45,4.45,0,0,1,119.26,557.44Z"/><path d="M129.07,557.44a3.89,3.89,0,0,1-1.79-.4A3.27,3.27,0,0,1,126,556a3,3,0,0,1-.53-1.57h1.36a1.84,1.84,0,0,0,.71,1.3,2.51,2.51,0,0,0,2.78.17,2.27,2.27,0,0,0,.88-.91,2.74,2.74,0,0,0,.32-1.32,2.7,2.7,0,0,0-.33-1.35,2.42,2.42,0,0,0-.91-.94A2.49,2.49,0,0,0,129,551a3.47,3.47,0,0,0-1.09.16,3.15,3.15,0,0,0-.92.42l-1.31-.15.7-5.69h6V547h-4.82l-.41,3.41h.07a3,3,0,0,1,.89-.47,3.49,3.49,0,0,1,1.11-.18,3.51,3.51,0,0,1,3.2,1.88,4.07,4.07,0,0,1,.48,2,3.87,3.87,0,0,1-.49,2,3.58,3.58,0,0,1-1.36,1.37A3.86,3.86,0,0,1,129.07,557.44Z"/><path d="M135.25,548.51v-.61a2.5,2.5,0,0,1,.26-1.16,2.1,2.1,0,0,1,.77-.85,2.58,2.58,0,0,1,2.45,0,2.12,2.12,0,0,1,.75.85,2.63,2.63,0,0,1,.26,1.16v.61a2.66,2.66,0,0,1-.26,1.16,2,2,0,0,1-.76.84,2.5,2.5,0,0,1-2.45,0,2,2,0,0,1-.76-.84A2.53,2.53,0,0,1,135.25,548.51Zm.43,8.77,7.93-11.55h1.29L137,557.28Zm.72-9.38v.61a1.76,1.76,0,0,0,.25.94.92.92,0,0,0,.85.41.9.9,0,0,0,.84-.41,1.85,1.85,0,0,0,.24-.94v-.61a1.85,1.85,0,0,0-.23-.94.89.89,0,0,0-.85-.41.93.93,0,0,0-.85.41A1.76,1.76,0,0,0,136.4,547.9Zm4.6,7.22v-.61a2.5,2.5,0,0,1,.26-1.16,2,2,0,0,1,.77-.85,2.5,2.5,0,0,1,2.45,0,2.05,2.05,0,0,1,.75.85,2.63,2.63,0,0,1,.26,1.16v.61a2.59,2.59,0,0,1-.26,1.15,2,2,0,0,1-.76.85,2.5,2.5,0,0,1-2.45,0,2,2,0,0,1-.76-.85A2.46,2.46,0,0,1,141,555.12Zm1.15-.61v.61a1.73,1.73,0,0,0,.25.93.9.9,0,0,0,.85.42.89.89,0,0,0,.84-.42,1.82,1.82,0,0,0,.25-.93v-.61a1.83,1.83,0,0,0-.24-.94.89.89,0,0,0-.85-.42.93.93,0,0,0-.85.42A1.74,1.74,0,0,0,142.15,554.51Z"/><path d="M46.36,602.64v-8.25h2.88a3,3,0,0,1,1.42.3,2,2,0,0,1,.84.79,2.27,2.27,0,0,1,.27,1.1,1.77,1.77,0,0,1-.19.88,1.45,1.45,0,0,1-.49.55,2.47,2.47,0,0,1-.66.3v.08a1.57,1.57,0,0,1,.77.26,2.08,2.08,0,0,1,.64.7,2.44,2.44,0,0,1,0,2.21,1.87,1.87,0,0,1-.89.79,3.72,3.72,0,0,1-1.58.29Zm1-4.62h1.85a1.86,1.86,0,0,0,.82-.18,1.48,1.48,0,0,0,.58-.5,1.35,1.35,0,0,0,.21-.76,1.26,1.26,0,0,0-.38-.92,1.64,1.64,0,0,0-1.2-.38H47.36Zm0,3.73h2a2,2,0,0,0,1.39-.38,1.18,1.18,0,0,0,.41-.92,1.52,1.52,0,0,0-.21-.78,1.68,1.68,0,0,0-.61-.57,1.94,1.94,0,0,0-.93-.21h-2Z"/><path d="M56.12,602.77a2.61,2.61,0,0,1-2.45-1.52,3.64,3.64,0,0,1-.35-1.67,3.75,3.75,0,0,1,.35-1.69,2.68,2.68,0,0,1,1-1.12,2.71,2.71,0,0,1,3.92,1.12,3.75,3.75,0,0,1,.35,1.69,3.64,3.64,0,0,1-.35,1.67,2.75,2.75,0,0,1-1,1.12A2.66,2.66,0,0,1,56.12,602.77Zm0-.85a1.65,1.65,0,0,0,1.05-.33,2,2,0,0,0,.61-.86,3.3,3.3,0,0,0,.19-1.15,3.4,3.4,0,0,0-.19-1.16,2.08,2.08,0,0,0-.61-.86,1.84,1.84,0,0,0-2.1,0,2.08,2.08,0,0,0-.61.86,3.4,3.4,0,0,0-.19,1.16,3.3,3.3,0,0,0,.19,1.15,2,2,0,0,0,.61.86A1.65,1.65,0,0,0,56.12,601.92Z"/><path d="M62.71,602.77a2.44,2.44,0,0,1-1.37-.39,2.69,2.69,0,0,1-.92-1.12,4.4,4.4,0,0,1,0-3.39,2.61,2.61,0,0,1,.93-1.11,2.42,2.42,0,0,1,1.37-.39,2,2,0,0,1,1,.2,1.79,1.79,0,0,1,.54.45c.13.17.22.31.29.42h.08v-3.05h1v8.25h-.92v-.95h-.11q-.11.16-.3.42a1.5,1.5,0,0,1-.55.46A2,2,0,0,1,62.71,602.77Zm.13-.85a1.53,1.53,0,0,0,1-.3,1.75,1.75,0,0,0,.6-.84,3.34,3.34,0,0,0,.21-1.23,3.51,3.51,0,0,0-.2-1.22,1.78,1.78,0,0,0-.6-.81,1.62,1.62,0,0,0-1-.29,1.58,1.58,0,0,0-1,.31,1.92,1.92,0,0,0-.6.83,3.36,3.36,0,0,0-.2,1.18,3.29,3.29,0,0,0,.21,1.2,1.88,1.88,0,0,0,.6.85A1.58,1.58,0,0,0,62.84,601.92Z"/><path d="M68,605a1.91,1.91,0,0,1-.43,0,1.28,1.28,0,0,1-.26-.07l.24-.84a1.7,1.7,0,0,0,.61.06.73.73,0,0,0,.48-.23,2,2,0,0,0,.38-.68l.18-.49-2.29-6.22h1l1.71,4.93h.06l1.71-4.93h1l-2.63,7.09a2.63,2.63,0,0,1-.43.8,1.82,1.82,0,0,1-.61.47A1.94,1.94,0,0,1,68,605Z"/><path d="M76.5,602.75a3.49,3.49,0,0,1-1.42-.27,2.39,2.39,0,0,1-1-.76,2.15,2.15,0,0,1-.4-1.14h1a1.17,1.17,0,0,0,.27.68,1.43,1.43,0,0,0,.64.45,2.35,2.35,0,0,0,.86.16,2.16,2.16,0,0,0,.94-.19,1.52,1.52,0,0,0,.65-.51,1.34,1.34,0,0,0,.23-.77,1.44,1.44,0,0,0-.22-.8,1.57,1.57,0,0,0-.66-.55,2.65,2.65,0,0,0-1.07-.2h-.66V598h.66a2,2,0,0,0,.87-.18,1.41,1.41,0,0,0,.58-.5,1.32,1.32,0,0,0,.21-.75,1.41,1.41,0,0,0-.18-.73,1.32,1.32,0,0,0-.53-.49,1.74,1.74,0,0,0-.79-.17,2.15,2.15,0,0,0-.8.15,1.57,1.57,0,0,0-.61.45,1.16,1.16,0,0,0-.26.7h-1a2,2,0,0,1,.39-1.13,2.6,2.6,0,0,1,1-.77,3.13,3.13,0,0,1,1.31-.27,2.57,2.57,0,0,1,1.31.31,2.05,2.05,0,0,1,.84.81,2.11,2.11,0,0,1,.3,1.09,1.89,1.89,0,0,1-1.36,1.87v.06a1.93,1.93,0,0,1,1.22.66,2,2,0,0,1,.44,1.32,2.13,2.13,0,0,1-.36,1.21,2.56,2.56,0,0,1-1,.84A3.3,3.3,0,0,1,76.5,602.75Z"/><path d="M87.68,598.07V599H84.07v-.89Z"/><path d="M92.52,602.64v-.72l2.73-3c.32-.35.58-.66.79-.92a3.61,3.61,0,0,0,.46-.73,1.79,1.79,0,0,0,.15-.72,1.38,1.38,0,0,0-.21-.76,1.44,1.44,0,0,0-.57-.49,1.88,1.88,0,0,0-.8-.17,1.6,1.6,0,0,0-.83.2,1.4,1.4,0,0,0-.54.54,1.66,1.66,0,0,0-.19.82h-1a2.4,2.4,0,0,1,.33-1.27,2.26,2.26,0,0,1,.91-.85,2.69,2.69,0,0,1,1.3-.31,2.62,2.62,0,0,1,1.29.31,2.29,2.29,0,0,1,.87.82,2.11,2.11,0,0,1,.32,1.16,2.5,2.5,0,0,1-.16.89,4.27,4.27,0,0,1-.57,1,16.9,16.9,0,0,1-1.1,1.29l-1.86,2v.06h3.84v.89Z"/><path d="M102,602.75a2.79,2.79,0,0,1-1.27-.28,2.29,2.29,0,0,1-.91-.77,2.09,2.09,0,0,1-.38-1.12h1a1.32,1.32,0,0,0,.51.92,1.63,1.63,0,0,0,1.08.37,1.74,1.74,0,0,0,.91-.24,1.71,1.71,0,0,0,.62-.66,1.92,1.92,0,0,0,.23-.94,1.9,1.9,0,0,0-.24-1,1.65,1.65,0,0,0-.64-.67,1.76,1.76,0,0,0-.94-.25,2.41,2.41,0,0,0-.78.11,2.52,2.52,0,0,0-.66.3l-.93-.11.5-4.06h4.29v.89h-3.45l-.29,2.43h0a2.19,2.19,0,0,1,.63-.33,2.4,2.4,0,0,1,.8-.14,2.57,2.57,0,0,1,1.35.36,2.46,2.46,0,0,1,.93,1,2.9,2.9,0,0,1,.35,1.42,2.74,2.74,0,0,1-.36,1.41,2.54,2.54,0,0,1-1,1A2.8,2.8,0,0,1,102,602.75Z"/><path d="M106.38,596.37v-.43a1.9,1.9,0,0,1,.18-.83,1.51,1.51,0,0,1,.55-.6,1.8,1.8,0,0,1,1.76,0,1.47,1.47,0,0,1,.53.6,1.9,1.9,0,0,1,.18.83v.43a1.9,1.9,0,0,1-.18.83,1.51,1.51,0,0,1-.54.61,1.85,1.85,0,0,1-1.75,0,1.53,1.53,0,0,1-.55-.61A1.9,1.9,0,0,1,106.38,596.37Zm.3,6.27,5.67-8.25h.92l-5.67,8.25Zm.52-6.7v.43a1.24,1.24,0,0,0,.18.67.64.64,0,0,0,.61.3.62.62,0,0,0,.59-.3,1.24,1.24,0,0,0,.18-.67v-.43a1.36,1.36,0,0,0-.17-.67.62.62,0,0,0-.6-.3.66.66,0,0,0-.61.3A1.27,1.27,0,0,0,107.2,595.94Zm3.28,5.15v-.43a1.91,1.91,0,0,1,.19-.83,1.51,1.51,0,0,1,.55-.6,1.78,1.78,0,0,1,1.75,0,1.42,1.42,0,0,1,.54.6,1.9,1.9,0,0,1,.18.83v.43a1.9,1.9,0,0,1-.18.83,1.67,1.67,0,0,1-.54.61,1.62,1.62,0,0,1-.88.22,1.64,1.64,0,0,1-.88-.22,1.51,1.51,0,0,1-.54-.61A1.78,1.78,0,0,1,110.48,601.09Zm.83-.43v.43a1.24,1.24,0,0,0,.17.67.65.65,0,0,0,.61.3.62.62,0,0,0,.6-.3,1.24,1.24,0,0,0,.18-.67v-.43a1.36,1.36,0,0,0-.17-.67.76.76,0,0,0-1.21,0A1.27,1.27,0,0,0,111.31,600.66Z"/><path d="M328,190.29V179.38h3.52a4.2,4.2,0,0,1,1.95.41,2.79,2.79,0,0,1,1.17,1.16,3.46,3.46,0,0,1,.4,1.69,3.37,3.37,0,0,1-.4,1.68,2.69,2.69,0,0,1-1.17,1.14,4,4,0,0,1-1.93.41h-3V185h3a3.12,3.12,0,0,0,1.42-.28,1.89,1.89,0,0,0,.85-.8,2.55,2.55,0,0,0,.28-1.24,2.65,2.65,0,0,0-.28-1.25,2,2,0,0,0-.85-.83,3.19,3.19,0,0,0-1.43-.29H329v10Zm4.81-4.93,2.69,4.93h-1.15l-2.66-4.93Z"/><path d="M337.53,190.29h-1l4-10.91h1.07l4,10.91h-1L341,180.67H341Zm.75-4.19h5.41v.9h-5.41Z"/><path d="M347.35,179.38h1.15l4,9.5h.1l4-9.5h1.15v10.91h-.94v-8.81h-.09L353,190.29h-.9l-3.68-8.81h-.09v8.81h-.94Z"/><path d="M360.58,190.29h-1l4-10.91h1.07l4,10.91h-1.05l-3.42-9.62H364Zm.75-4.19h5.41v.9h-5.41Z"/><path d="M382.17,182.79a3.86,3.86,0,0,0-.43-1,3.6,3.6,0,0,0-.71-.84,3.17,3.17,0,0,0-1-.56,3.41,3.41,0,0,0-1.23-.21,3.37,3.37,0,0,0-1.9.56,3.72,3.72,0,0,0-1.33,1.6,6.67,6.67,0,0,0,0,5,3.76,3.76,0,0,0,1.35,1.6,3.51,3.51,0,0,0,1.95.56,3.46,3.46,0,0,0,1.78-.45,3.11,3.11,0,0,0,1.21-1.28,4.06,4.06,0,0,0,.42-2l.32.1h-3.49V185h4.14v.9a5,5,0,0,1-.56,2.41,4,4,0,0,1-1.55,1.57,4.91,4.91,0,0,1-4.77-.14,4.52,4.52,0,0,1-1.66-1.94,6.85,6.85,0,0,1-.59-3,7.3,7.3,0,0,1,.34-2.32,5.32,5.32,0,0,1,1-1.76,4.31,4.31,0,0,1,1.49-1.13,4.58,4.58,0,0,1,4.84.66,4.23,4.23,0,0,1,.93,1.14,4.18,4.18,0,0,1,.5,1.37Z"/><path d="M394.69,184.83a6.7,6.7,0,0,1-.61,3,4.61,4.61,0,0,1-1.67,1.94,4.66,4.66,0,0,1-4.88,0,4.68,4.68,0,0,1-1.67-1.94,7.63,7.63,0,0,1,0-5.93,4.71,4.71,0,0,1,1.67-2,4.4,4.4,0,0,1,2.44-.69,4.36,4.36,0,0,1,2.44.69,4.64,4.64,0,0,1,1.67,2A6.66,6.66,0,0,1,394.69,184.83Zm-1,0a5.82,5.82,0,0,0-.49-2.51,3.67,3.67,0,0,0-1.34-1.6,3.41,3.41,0,0,0-1.92-.56,3.45,3.45,0,0,0-1.92.56,3.81,3.81,0,0,0-1.34,1.6,5.94,5.94,0,0,0-.49,2.51,5.82,5.82,0,0,0,.49,2.51,3.74,3.74,0,0,0,1.34,1.6,3.59,3.59,0,0,0,3.85,0,3.81,3.81,0,0,0,1.34-1.6A5.83,5.83,0,0,0,393.72,184.83Z"/><path d="M396,180.27v-.89h7.91v.89h-3.46v10h-1v-10Z"/><path d="M406.14,190.29V179.38h1v5h6.19v-5h1v10.91h-1v-5h-6.19v5Z"/><path d="M418.21,179.38v10.91h-1V179.38Z"/><path d="M429.66,182.79h-1a2.92,2.92,0,0,0-.4-1,3,3,0,0,0-.72-.83,3.39,3.39,0,0,0-1-.56,3.54,3.54,0,0,0-1.19-.2,3.47,3.47,0,0,0-1.89.54,3.86,3.86,0,0,0-1.36,1.58,6.78,6.78,0,0,0,0,5.11,3.83,3.83,0,0,0,1.36,1.57,3.47,3.47,0,0,0,1.89.54,3.54,3.54,0,0,0,1.19-.2,3.6,3.6,0,0,0,1-.55,3.21,3.21,0,0,0,.72-.84,2.87,2.87,0,0,0,.4-1h1a4.44,4.44,0,0,1-.5,1.39,4.27,4.27,0,0,1-.93,1.14,4.13,4.13,0,0,1-1.29.75,4.59,4.59,0,0,1-1.6.27,4.38,4.38,0,0,1-2.44-.69,4.61,4.61,0,0,1-1.67-1.94,7.54,7.54,0,0,1,0-5.94,4.67,4.67,0,0,1,1.67-1.94,4.38,4.38,0,0,1,2.44-.69,4.59,4.59,0,0,1,1.6.27,4.13,4.13,0,0,1,1.29.75,4.39,4.39,0,0,1,.93,1.13A4.47,4.47,0,0,1,429.66,182.79Z"/><path d="M436.22,190.29V179.38h3.52a4.19,4.19,0,0,1,1.94.41,2.87,2.87,0,0,1,1.18,1.16,3.57,3.57,0,0,1,.39,1.69,3.47,3.47,0,0,1-.39,1.68,2.77,2.77,0,0,1-1.18,1.14,4,4,0,0,1-1.93.41h-3V185h3a3.15,3.15,0,0,0,1.42-.28,1.81,1.81,0,0,0,.84-.8,2.55,2.55,0,0,0,.28-1.24,2.65,2.65,0,0,0-.28-1.25,2,2,0,0,0-.85-.83,3.16,3.16,0,0,0-1.43-.29h-2.5v10Zm4.81-4.93,2.68,4.93h-1.15l-2.66-4.93Z"/><path d="M454.63,184.83a6.7,6.7,0,0,1-.61,3,4.61,4.61,0,0,1-1.67,1.94,4.68,4.68,0,0,1-4.89,0,4.66,4.66,0,0,1-1.66-1.94,7.51,7.51,0,0,1,0-5.93,4.64,4.64,0,0,1,1.67-2,4.66,4.66,0,0,1,4.88,0,4.64,4.64,0,0,1,1.67,2A6.66,6.66,0,0,1,454.63,184.83Zm-1,0a6,6,0,0,0-.49-2.51,3.81,3.81,0,0,0-1.34-1.6,3.57,3.57,0,0,0-3.84,0,3.81,3.81,0,0,0-1.34,1.6,6.67,6.67,0,0,0,0,5,3.72,3.72,0,0,0,1.33,1.6,3.59,3.59,0,0,0,3.85,0,3.67,3.67,0,0,0,1.34-1.6A5.82,5.82,0,0,0,453.66,184.83Z"/><path d="M464.3,179.38h1v7.22a3.71,3.71,0,0,1-2,3.37,4.92,4.92,0,0,1-4.32,0,3.71,3.71,0,0,1-1.45-1.38,3.81,3.81,0,0,1-.52-2v-7.22h1v7.15a3.08,3.08,0,0,0,.39,1.55,2.8,2.8,0,0,0,1.09,1.07,3.51,3.51,0,0,0,1.66.38,3.46,3.46,0,0,0,1.65-.38,2.76,2.76,0,0,0,1.1-1.07,3.07,3.07,0,0,0,.38-1.55Z"/><path d="M476.7,179.38v10.91h-1l-6.45-9.14h-.08v9.14h-1V179.38h1l6.47,9.14h.08v-9.14Z"/><path d="M482.79,190.29h-3.2V179.38H483a5.13,5.13,0,0,1,2.67.65,4.21,4.21,0,0,1,1.7,1.86,6.51,6.51,0,0,1,.6,2.91,6.66,6.66,0,0,1-.61,2.95,4.27,4.27,0,0,1-1.76,1.88A5.54,5.54,0,0,1,482.79,190.29Zm-2.2-.9h2.14a4.57,4.57,0,0,0,2.35-.55,3.46,3.46,0,0,0,1.43-1.59,6.61,6.61,0,0,0,0-4.87,3.51,3.51,0,0,0-1.37-1.57,4.26,4.26,0,0,0-2.23-.54h-2.33Z"/><path d="M490.35,190.29V179.38h6.33v.89h-5.33v4.11h5v.89h-5v4.12h5.44v.9Z"/><path d="M502.45,190.29h-3.2V179.38h3.39a5.13,5.13,0,0,1,2.67.65,4.29,4.29,0,0,1,1.71,1.86,7.45,7.45,0,0,1,0,5.86,4.27,4.27,0,0,1-1.76,1.88A5.54,5.54,0,0,1,502.45,190.29Zm-2.2-.9h2.14a4.63,4.63,0,0,0,2.36-.55,3.49,3.49,0,0,0,1.42-1.59,6.61,6.61,0,0,0,0-4.87,3.51,3.51,0,0,0-1.37-1.57,4.26,4.26,0,0,0-2.23-.54h-2.33Z"/><path d="M518.45,185.16v.9h-4.54v-.9Z"/><path d="M525.25,190.29V179.38h6.33v.89h-5.34v4.11h5v.89h-5v4.12h5.44v.9Z"/><path d="M544.29,182.1a2,2,0,0,0-.8-1.45,3,3,0,0,0-1.8-.53,3.14,3.14,0,0,0-1.34.26,2.09,2.09,0,0,0-.9.72,1.77,1.77,0,0,0-.33,1.05,1.51,1.51,0,0,0,.18.75,1.94,1.94,0,0,0,.51.56,3.65,3.65,0,0,0,.7.4,6,6,0,0,0,.78.27l1.15.33a8.77,8.77,0,0,1,1,.37,4.75,4.75,0,0,1,1,.56,2.67,2.67,0,0,1,.7.83,2.35,2.35,0,0,1,.26,1.17A2.85,2.85,0,0,1,545,189a3.08,3.08,0,0,1-1.3,1.1,4.51,4.51,0,0,1-2,.41,4.58,4.58,0,0,1-1.93-.37,3.16,3.16,0,0,1-1.29-1,3,3,0,0,1-.53-1.52h1a1.93,1.93,0,0,0,.43,1.09,2.37,2.37,0,0,0,1,.68,3.75,3.75,0,0,0,1.33.23,3.64,3.64,0,0,0,1.45-.27,2.38,2.38,0,0,0,1-.77,1.84,1.84,0,0,0,.37-1.15,1.49,1.49,0,0,0-.29-.93,2.24,2.24,0,0,0-.8-.63,7.06,7.06,0,0,0-1.19-.45l-1.3-.39a4.68,4.68,0,0,1-2-1.06,2.28,2.28,0,0,1-.71-1.72,2.65,2.65,0,0,1,.47-1.55,3.29,3.29,0,0,1,1.28-1,4.56,4.56,0,0,1,3.62,0,3.15,3.15,0,0,1,1.24,1,2.65,2.65,0,0,1,.49,1.48Z"/><path d="M550.92,190.46a3.48,3.48,0,0,1-3.28-2,5,5,0,0,1-.45-2.19,5.1,5.1,0,0,1,.45-2.19,3.64,3.64,0,0,1,1.27-1.51,3.19,3.19,0,0,1,1.86-.55,3.56,3.56,0,0,1,1.29.24,3.37,3.37,0,0,1,1.11.74,3.55,3.55,0,0,1,.78,1.26,5,5,0,0,1,.28,1.78v.47h-6.39v-.84h5.43a3.12,3.12,0,0,0-.32-1.42,2.51,2.51,0,0,0-.88-1,2.36,2.36,0,0,0-1.3-.37,2.32,2.32,0,0,0-1.37.42,2.83,2.83,0,0,0-.92,1.1,3.36,3.36,0,0,0-.34,1.49v.5a3.91,3.91,0,0,0,.34,1.7,2.67,2.67,0,0,0,1,1.13,3,3,0,0,0,2.5.22,2.28,2.28,0,0,0,.74-.49,2.08,2.08,0,0,0,.45-.67l.9.29a2.53,2.53,0,0,1-.61,1,3,3,0,0,1-1,.7A3.68,3.68,0,0,1,550.92,190.46Z"/><path d="M556.32,190.29V182.1h.92v1.26h.08a2.11,2.11,0,0,1,.82-1,2.53,2.53,0,0,1,1.38-.36,2.33,2.33,0,0,1,1.39.39,2.38,2.38,0,0,1,.82,1.09h.07a2.31,2.31,0,0,1,.9-1.08,2.73,2.73,0,0,1,1.52-.4,2.35,2.35,0,0,1,1.8.71,3,3,0,0,1,.66,2.09v5.49h-.95V184.8a1.94,1.94,0,0,0-.49-1.45,1.8,1.8,0,0,0-1.3-.48,1.84,1.84,0,0,0-1.45.57,2.11,2.11,0,0,0-.51,1.46v5.39h-1v-5.57a1.9,1.9,0,0,0-.47-1.34,1.67,1.67,0,0,0-1.3-.51,1.94,1.94,0,0,0-1,.27,2,2,0,0,0-.71.77,2.44,2.44,0,0,0-.25,1.13v5.25Z"/><path d="M569.68,180.7a.72.72,0,0,1-.5-.2.67.67,0,0,1,0-1,.72.72,0,0,1,.5-.2.7.7,0,0,1,.5.2.67.67,0,0,1,0,1A.7.7,0,0,1,569.68,180.7Zm-.48,9.59V182.1h.95v8.19Z"/><path d="M572.86,190.29V179.38h3.68a3.79,3.79,0,0,1,1.78.37,2.57,2.57,0,0,1,1.07,1,3,3,0,0,1,.35,1.46,2.78,2.78,0,0,1-.22,1.17,2.22,2.22,0,0,1-.63.78,2.49,2.49,0,0,1-.88.43v.09a2,2,0,0,1,1,.37,2.47,2.47,0,0,1,.81.93,3,3,0,0,1,.32,1.43,2.87,2.87,0,0,1-.37,1.47,2.54,2.54,0,0,1-1.12,1,4.52,4.52,0,0,1-1.93.37Zm1-6h2.77a2.39,2.39,0,0,0,1.13-.26,1.93,1.93,0,0,0,.76-.74,2.1,2.1,0,0,0,.27-1.07,1.88,1.88,0,0,0-.56-1.41,2.32,2.32,0,0,0-1.69-.55h-2.68Zm0,5.09h2.89a2.67,2.67,0,0,0,1.86-.56,1.81,1.81,0,0,0,.61-1.4,2.21,2.21,0,0,0-.3-1.14,2.18,2.18,0,0,0-.85-.8,2.6,2.6,0,0,0-1.28-.3h-2.93Z"/><path d="M585.56,190.46a3.32,3.32,0,0,1-1.88-.54,3.71,3.71,0,0,1-1.27-1.49,5.63,5.63,0,0,1,0-4.41,3.58,3.58,0,0,1,1.27-1.49,3.53,3.53,0,0,1,3.75,0A3.79,3.79,0,0,1,588.7,184a5.51,5.51,0,0,1,0,4.41,3.71,3.71,0,0,1-1.27,1.49A3.31,3.31,0,0,1,585.56,190.46Zm0-.87a2.32,2.32,0,0,0,1.44-.46,3,3,0,0,0,.9-1.22,4.85,4.85,0,0,0,0-3.36,3,3,0,0,0-.9-1.23,2.44,2.44,0,0,0-2.88,0,2.92,2.92,0,0,0-.91,1.23,4.85,4.85,0,0,0,0,3.36,3,3,0,0,0,.9,1.22A2.35,2.35,0,0,0,585.56,189.59Z"/><path d="M592.19,179.38v10.91h-1V179.38Z"/><path d="M597.64,190.46a3,3,0,0,1-1.77-.54,3.58,3.58,0,0,1-1.18-1.48,6.08,6.08,0,0,1,0-4.44,3.59,3.59,0,0,1,1.19-1.48,3.06,3.06,0,0,1,1.77-.53,2.56,2.56,0,0,1,1.24.27,2.36,2.36,0,0,1,.8.65,3.89,3.89,0,0,1,.46.75h.09v-4.28h1v10.91h-.93v-1.52h-.11a3.74,3.74,0,0,1-.47.76,2.51,2.51,0,0,1-.8.66A2.58,2.58,0,0,1,597.64,190.46Zm.11-.87a2.12,2.12,0,0,0,1.35-.44A2.77,2.77,0,0,0,600,188a4.94,4.94,0,0,0,.29-1.75,4.86,4.86,0,0,0-.29-1.73,2.72,2.72,0,0,0-.85-1.19,2.23,2.23,0,0,0-1.36-.43,2.12,2.12,0,0,0-1.38.45,2.81,2.81,0,0,0-.86,1.2,4.81,4.81,0,0,0-.29,1.7,4.67,4.67,0,0,0,.3,1.72,2.8,2.8,0,0,0,.85,1.22A2.16,2.16,0,0,0,597.75,189.59Z"/><path d="M328,94.93V84h3.52a4.2,4.2,0,0,1,1.95.41,2.79,2.79,0,0,1,1.17,1.16,3.46,3.46,0,0,1,.4,1.69,3.37,3.37,0,0,1-.4,1.68,2.69,2.69,0,0,1-1.17,1.14,4,4,0,0,1-1.93.41h-3V89.6h3a3.12,3.12,0,0,0,1.42-.28,1.89,1.89,0,0,0,.85-.8,2.55,2.55,0,0,0,.28-1.24,2.65,2.65,0,0,0-.28-1.25,2,2,0,0,0-.85-.83,3.19,3.19,0,0,0-1.43-.29H329v10ZM332.85,90l2.69,4.93h-1.15L331.73,90Z"/><path d="M337.53,94.93h-1l4-10.91h1.07l4,10.91h-1L341,85.31H341Zm.75-4.19h5.41v.9h-5.41Z"/><path d="M347.35,84h1.15l4,9.5h.1l4-9.5h1.15V94.93h-.94V86.12h-.09L353,94.93h-.9l-3.68-8.81h-.09v8.81h-.94Z"/><path d="M360.58,94.93h-1l4-10.91h1.07l4,10.91h-1.05l-3.42-9.62H364Zm.75-4.19h5.41v.9h-5.41Z"/><path d="M382.17,87.43a3.86,3.86,0,0,0-.43-1,3.6,3.6,0,0,0-.71-.84,3.17,3.17,0,0,0-1-.56,3.41,3.41,0,0,0-1.23-.21,3.37,3.37,0,0,0-1.9.56,3.72,3.72,0,0,0-1.33,1.6,6.67,6.67,0,0,0,0,5,3.76,3.76,0,0,0,1.35,1.6,3.51,3.51,0,0,0,1.95.56,3.46,3.46,0,0,0,1.78-.45,3.11,3.11,0,0,0,1.21-1.28,4.06,4.06,0,0,0,.42-2l.32.1h-3.49v-.9h4.14v.9a5,5,0,0,1-.56,2.41,4,4,0,0,1-1.55,1.57,4.56,4.56,0,0,1-6.43-2.08,6.85,6.85,0,0,1-.59-3,7.3,7.3,0,0,1,.34-2.32,5.32,5.32,0,0,1,1-1.76,4.31,4.31,0,0,1,1.49-1.13,4.58,4.58,0,0,1,4.84.66,4.23,4.23,0,0,1,.93,1.14,4.18,4.18,0,0,1,.5,1.37Z"/><path d="M394.69,89.47a6.7,6.7,0,0,1-.61,3,4.67,4.67,0,0,1-1.67,1.94,4.66,4.66,0,0,1-4.88,0,4.74,4.74,0,0,1-1.67-1.94,7.63,7.63,0,0,1,0-5.93,4.71,4.71,0,0,1,1.67-2,4.4,4.4,0,0,1,2.44-.69,4.36,4.36,0,0,1,2.44.69,4.64,4.64,0,0,1,1.67,2A6.66,6.66,0,0,1,394.69,89.47Zm-1,0a5.82,5.82,0,0,0-.49-2.51,3.67,3.67,0,0,0-1.34-1.6A3.41,3.41,0,0,0,390,84.8a3.45,3.45,0,0,0-1.92.56,3.81,3.81,0,0,0-1.34,1.6,5.94,5.94,0,0,0-.49,2.51,5.82,5.82,0,0,0,.49,2.51,3.74,3.74,0,0,0,1.34,1.6,3.59,3.59,0,0,0,3.85,0,3.81,3.81,0,0,0,1.34-1.6A5.83,5.83,0,0,0,393.72,89.47Z"/><path d="M396,84.91V84h7.91v.89h-3.46v10h-1v-10Z"/><path d="M406.14,94.93V84h1v5h6.19V84h1V94.93h-1v-5h-6.19v5Z"/><path d="M418.21,84V94.93h-1V84Z"/><path d="M429.66,87.43h-1a2.92,2.92,0,0,0-.4-1,3,3,0,0,0-.72-.83,3.39,3.39,0,0,0-1-.56,3.54,3.54,0,0,0-1.19-.2,3.47,3.47,0,0,0-1.89.54,3.86,3.86,0,0,0-1.36,1.58,6.78,6.78,0,0,0,0,5.11,3.83,3.83,0,0,0,1.36,1.57,3.47,3.47,0,0,0,1.89.54,3.54,3.54,0,0,0,1.19-.2,3.6,3.6,0,0,0,1-.55,3.21,3.21,0,0,0,.72-.84,2.87,2.87,0,0,0,.4-1h1a4.44,4.44,0,0,1-.5,1.39,4.27,4.27,0,0,1-.93,1.14,4.13,4.13,0,0,1-1.29.75,4.59,4.59,0,0,1-1.6.27,4.38,4.38,0,0,1-2.44-.69,4.61,4.61,0,0,1-1.67-1.94,7.54,7.54,0,0,1,0-5.94,4.67,4.67,0,0,1,1.67-1.94,4.38,4.38,0,0,1,2.44-.69,4.59,4.59,0,0,1,1.6.27,4.13,4.13,0,0,1,1.29.75,4.39,4.39,0,0,1,.93,1.13A4.47,4.47,0,0,1,429.66,87.43Z"/><path d="M436.22,94.93V84h3.52a4.19,4.19,0,0,1,1.94.41,2.87,2.87,0,0,1,1.18,1.16,3.57,3.57,0,0,1,.39,1.69,3.47,3.47,0,0,1-.39,1.68,2.77,2.77,0,0,1-1.18,1.14,4,4,0,0,1-1.93.41h-3V89.6h3a3.15,3.15,0,0,0,1.42-.28,1.81,1.81,0,0,0,.84-.8,2.55,2.55,0,0,0,.28-1.24A2.65,2.65,0,0,0,442,86a2,2,0,0,0-.85-.83,3.16,3.16,0,0,0-1.43-.29h-2.5v10ZM441,90l2.68,4.93h-1.15L439.9,90Z"/><path d="M454.63,89.47a6.7,6.7,0,0,1-.61,3,4.67,4.67,0,0,1-1.67,1.94,4.68,4.68,0,0,1-4.89,0,4.72,4.72,0,0,1-1.66-1.94,7.51,7.51,0,0,1,0-5.93,4.64,4.64,0,0,1,1.67-2,4.66,4.66,0,0,1,4.88,0,4.64,4.64,0,0,1,1.67,2A6.66,6.66,0,0,1,454.63,89.47Zm-1,0a6,6,0,0,0-.49-2.51,3.81,3.81,0,0,0-1.34-1.6,3.57,3.57,0,0,0-3.84,0,3.81,3.81,0,0,0-1.34,1.6,6.67,6.67,0,0,0,0,5,3.72,3.72,0,0,0,1.33,1.6,3.59,3.59,0,0,0,3.85,0,3.67,3.67,0,0,0,1.34-1.6A5.82,5.82,0,0,0,453.66,89.47Z"/><path d="M464.3,84h1v7.22a3.71,3.71,0,0,1-2,3.37,4.92,4.92,0,0,1-4.32,0,3.71,3.71,0,0,1-1.45-1.38,3.81,3.81,0,0,1-.52-2V84h1v7.15a3.08,3.08,0,0,0,.39,1.55,2.8,2.8,0,0,0,1.09,1.07,3.51,3.51,0,0,0,1.66.38,3.46,3.46,0,0,0,1.65-.38,2.76,2.76,0,0,0,1.1-1.07,3.07,3.07,0,0,0,.38-1.55Z"/><path d="M476.7,84V94.93h-1l-6.45-9.14h-.08v9.14h-1V84h1l6.47,9.14h.08V84Z"/><path d="M482.79,94.93h-3.2V84H483a5.13,5.13,0,0,1,2.67.65,4.21,4.21,0,0,1,1.7,1.86,6.51,6.51,0,0,1,.6,2.91,6.66,6.66,0,0,1-.61,3,4.27,4.27,0,0,1-1.76,1.88A5.54,5.54,0,0,1,482.79,94.93Zm-2.2-.9h2.14a4.57,4.57,0,0,0,2.35-.55,3.46,3.46,0,0,0,1.43-1.59,6.61,6.61,0,0,0,0-4.87,3.51,3.51,0,0,0-1.37-1.57,4.26,4.26,0,0,0-2.23-.54h-2.33Z"/><path d="M490.35,94.93V84h6.33v.89h-5.33V89h5v.89h-5V94h5.44v.9Z"/><path d="M502.45,94.93h-3.2V84h3.39a5.13,5.13,0,0,1,2.67.65A4.29,4.29,0,0,1,507,86.53a7.45,7.45,0,0,1,0,5.86,4.27,4.27,0,0,1-1.76,1.88A5.54,5.54,0,0,1,502.45,94.93Zm-2.2-.9h2.14a4.63,4.63,0,0,0,2.36-.55,3.49,3.49,0,0,0,1.42-1.59,6.61,6.61,0,0,0,0-4.87,3.51,3.51,0,0,0-1.37-1.57,4.26,4.26,0,0,0-2.23-.54h-2.33Z"/><path d="M518.45,89.8v.9h-4.54v-.9Z"/><path d="M525.25,94.93V84h6.33v.89h-5.34V89h5v.89h-5V94h5.44v.9Z"/><path d="M544.29,86.74a2,2,0,0,0-.8-1.45,3,3,0,0,0-1.8-.53,3.14,3.14,0,0,0-1.34.26,2.09,2.09,0,0,0-.9.72,1.77,1.77,0,0,0-.33,1.05,1.51,1.51,0,0,0,.18.75,1.94,1.94,0,0,0,.51.56,3.65,3.65,0,0,0,.7.4,6,6,0,0,0,.78.27l1.15.33a8.77,8.77,0,0,1,1,.37,4.75,4.75,0,0,1,1,.56,2.67,2.67,0,0,1,.7.83A2.35,2.35,0,0,1,545.4,92,2.85,2.85,0,0,1,545,93.6a3.08,3.08,0,0,1-1.3,1.1,4.51,4.51,0,0,1-2,.41,4.58,4.58,0,0,1-1.93-.37,3.16,3.16,0,0,1-1.29-1,3,3,0,0,1-.53-1.52h1a1.93,1.93,0,0,0,.43,1.09,2.37,2.37,0,0,0,1,.68,3.75,3.75,0,0,0,1.33.23,3.64,3.64,0,0,0,1.45-.27,2.38,2.38,0,0,0,1-.77,1.84,1.84,0,0,0,.37-1.15,1.49,1.49,0,0,0-.29-.93,2.24,2.24,0,0,0-.8-.63,7.06,7.06,0,0,0-1.19-.45l-1.3-.39a4.68,4.68,0,0,1-2-1.06,2.28,2.28,0,0,1-.71-1.72,2.65,2.65,0,0,1,.47-1.55,3.29,3.29,0,0,1,1.28-1,4.56,4.56,0,0,1,3.62,0,3.15,3.15,0,0,1,1.24,1,2.65,2.65,0,0,1,.49,1.48Z"/><path d="M550.92,95.1a3.48,3.48,0,0,1-3.28-2,5,5,0,0,1-.45-2.19,5.1,5.1,0,0,1,.45-2.19,3.64,3.64,0,0,1,1.27-1.51,3.19,3.19,0,0,1,1.86-.55,3.56,3.56,0,0,1,1.29.24,3.37,3.37,0,0,1,1.11.74,3.55,3.55,0,0,1,.78,1.26,5,5,0,0,1,.28,1.78v.47h-6.39v-.84h5.43a3.12,3.12,0,0,0-.32-1.42,2.51,2.51,0,0,0-.88-1,2.36,2.36,0,0,0-1.3-.37,2.32,2.32,0,0,0-1.37.42,2.83,2.83,0,0,0-.92,1.1,3.36,3.36,0,0,0-.34,1.49V91a3.91,3.91,0,0,0,.34,1.7,2.67,2.67,0,0,0,1,1.13,3,3,0,0,0,2.5.22,2.28,2.28,0,0,0,.74-.49,2.19,2.19,0,0,0,.45-.67l.9.29a2.53,2.53,0,0,1-.61.95,3,3,0,0,1-1,.7A3.68,3.68,0,0,1,550.92,95.1Z"/><path d="M556.32,94.93V86.74h.92V88h.08a2.11,2.11,0,0,1,.82-1,2.53,2.53,0,0,1,1.38-.36,2.33,2.33,0,0,1,1.39.39,2.38,2.38,0,0,1,.82,1.09h.07a2.31,2.31,0,0,1,.9-1.08,2.73,2.73,0,0,1,1.52-.4,2.35,2.35,0,0,1,1.8.71,3,3,0,0,1,.66,2.09v5.49h-.95V89.44a1.94,1.94,0,0,0-.49-1.45,1.8,1.8,0,0,0-1.3-.48,1.84,1.84,0,0,0-1.45.57,2.11,2.11,0,0,0-.51,1.46v5.39h-1V89.36a1.9,1.9,0,0,0-.47-1.34,1.67,1.67,0,0,0-1.3-.51,1.94,1.94,0,0,0-1,.27,2,2,0,0,0-.71.77,2.44,2.44,0,0,0-.25,1.13v5.25Z"/><path d="M569.68,85.34a.72.72,0,0,1-.5-.2.67.67,0,0,1,0-1,.72.72,0,0,1,.5-.2.7.7,0,0,1,.5.2.67.67,0,0,1,0,1A.7.7,0,0,1,569.68,85.34Zm-.48,9.59V86.74h.95v8.19Z"/><path d="M572.86,94.93V84h3.68a3.79,3.79,0,0,1,1.78.37,2.57,2.57,0,0,1,1.07,1,3,3,0,0,1,.35,1.46,2.78,2.78,0,0,1-.22,1.17,2.22,2.22,0,0,1-.63.78,2.49,2.49,0,0,1-.88.43v.09a2,2,0,0,1,1,.37,2.47,2.47,0,0,1,.81.93,3,3,0,0,1,.32,1.42,2.88,2.88,0,0,1-.37,1.48,2.54,2.54,0,0,1-1.12,1,4.52,4.52,0,0,1-1.93.37Zm1-6h2.77a2.39,2.39,0,0,0,1.13-.26,1.93,1.93,0,0,0,.76-.74,2.1,2.1,0,0,0,.27-1.07,1.88,1.88,0,0,0-.56-1.41,2.32,2.32,0,0,0-1.69-.55h-2.68Zm0,5.09h2.89a2.67,2.67,0,0,0,1.86-.56,1.81,1.81,0,0,0,.61-1.41,2.13,2.13,0,0,0-1.15-1.93,2.6,2.6,0,0,0-1.28-.3h-2.93Z"/><path d="M585.56,95.1a3.32,3.32,0,0,1-1.88-.54,3.71,3.71,0,0,1-1.27-1.49,5.63,5.63,0,0,1,0-4.41,3.58,3.58,0,0,1,1.27-1.49,3.53,3.53,0,0,1,3.75,0,3.79,3.79,0,0,1,1.27,1.49,5.51,5.51,0,0,1,0,4.41,3.71,3.71,0,0,1-1.27,1.49A3.31,3.31,0,0,1,585.56,95.1Zm0-.87a2.32,2.32,0,0,0,1.44-.46,3,3,0,0,0,.9-1.22,4.85,4.85,0,0,0,0-3.36A3,3,0,0,0,587,88a2.44,2.44,0,0,0-2.88,0,2.92,2.92,0,0,0-.91,1.23,4.85,4.85,0,0,0,0,3.36,3,3,0,0,0,.9,1.22A2.35,2.35,0,0,0,585.56,94.23Z"/><path d="M592.19,84V94.93h-1V84Z"/><path d="M597.64,95.1a3,3,0,0,1-1.77-.54,3.58,3.58,0,0,1-1.18-1.48,6.08,6.08,0,0,1,0-4.44,3.59,3.59,0,0,1,1.19-1.48,3.06,3.06,0,0,1,1.77-.53,2.56,2.56,0,0,1,1.24.27,2.36,2.36,0,0,1,.8.65,3.89,3.89,0,0,1,.46.75h.09V84h1V94.93h-.93V93.41h-.11a3.74,3.74,0,0,1-.47.76,2.51,2.51,0,0,1-.8.66A2.58,2.58,0,0,1,597.64,95.1Zm.11-.87a2.12,2.12,0,0,0,1.35-.44,2.77,2.77,0,0,0,.86-1.2,4.94,4.94,0,0,0,.29-1.75,4.86,4.86,0,0,0-.29-1.73,2.72,2.72,0,0,0-.85-1.19,2.23,2.23,0,0,0-1.36-.43,2.12,2.12,0,0,0-1.38.45,2.81,2.81,0,0,0-.86,1.2,4.81,4.81,0,0,0-.29,1.7,4.67,4.67,0,0,0,.3,1.72,2.8,2.8,0,0,0,.85,1.22A2.16,2.16,0,0,0,597.75,94.23Z"/><path d="M340.87,276.48V265.57h3.52a4.06,4.06,0,0,1,1.94.42,2.81,2.81,0,0,1,1.18,1.16,3.84,3.84,0,0,1,0,3.37,2.77,2.77,0,0,1-1.18,1.14,4.14,4.14,0,0,1-1.93.41h-3v-.91h3a3.25,3.25,0,0,0,1.41-.28,1.86,1.86,0,0,0,.85-.81,2.54,2.54,0,0,0,.28-1.23,2.59,2.59,0,0,0-.28-1.25,1.9,1.9,0,0,0-.85-.83,3,3,0,0,0-1.43-.29h-2.5v10Zm4.81-4.92,2.68,4.92h-1.15l-2.66-4.92Z"/><path d="M350.35,276.48H349.3l4-10.91h1.07l4,10.91h-1l-3.42-9.61h-.07Zm.75-4.18h5.41v.89H351.1Z"/><path d="M360.18,265.57h1.15l3.95,9.5h.1l4-9.5h1.15v10.91h-.94v-8.81h-.09l-3.68,8.81h-.9l-3.68-8.81h-.09v8.81h-.93Z"/><path d="M373.4,276.48h-1l4-10.91h1.06l4,10.91h-1.05l-3.42-9.61h-.07Zm.75-4.18h5.41v.89h-5.41Z"/><path d="M395,269a4.2,4.2,0,0,0-.44-1,3.2,3.2,0,0,0-1.69-1.4,3.6,3.6,0,0,0-1.23-.2,3.36,3.36,0,0,0-1.9.55,3.78,3.78,0,0,0-1.33,1.6,5.87,5.87,0,0,0-.49,2.52,5.78,5.78,0,0,0,.49,2.5,3.76,3.76,0,0,0,1.35,1.6,3.43,3.43,0,0,0,1.95.56,3.46,3.46,0,0,0,1.78-.45A3,3,0,0,0,394.7,274a4.13,4.13,0,0,0,.42-2l.32.1H392v-.89h4.14v.89a4.93,4.93,0,0,1-.56,2.41,4.06,4.06,0,0,1-1.55,1.58,4.65,4.65,0,0,1-2.27.55,4.48,4.48,0,0,1-2.49-.69,4.57,4.57,0,0,1-1.67-1.95,6.83,6.83,0,0,1-.59-3,7.3,7.3,0,0,1,.34-2.32,5.21,5.21,0,0,1,1-1.77,4.18,4.18,0,0,1,1.48-1.13,4.5,4.5,0,0,1,1.89-.39,4.74,4.74,0,0,1,1.64.28,4.3,4.3,0,0,1,1.31.78,4.6,4.6,0,0,1,.94,1.13A4.49,4.49,0,0,1,396,269Z"/><path d="M407.51,271a6.83,6.83,0,0,1-.6,3,4.78,4.78,0,0,1-1.67,1.95,4.68,4.68,0,0,1-4.89,0,4.71,4.71,0,0,1-1.67-1.95,7.63,7.63,0,0,1,0-5.93,4.71,4.71,0,0,1,1.67-1.95,4.68,4.68,0,0,1,4.89,0,4.78,4.78,0,0,1,1.67,1.95A6.84,6.84,0,0,1,407.51,271Zm-1,0a5.87,5.87,0,0,0-.49-2.52,3.78,3.78,0,0,0-1.33-1.6,3.46,3.46,0,0,0-1.93-.55,3.39,3.39,0,0,0-1.91.55,3.8,3.8,0,0,0-1.34,1.6A5.87,5.87,0,0,0,399,271a5.93,5.93,0,0,0,.49,2.5,3.81,3.81,0,0,0,1.34,1.6,3.38,3.38,0,0,0,1.92.56,3.46,3.46,0,0,0,1.93-.55,3.8,3.8,0,0,0,1.34-1.6A5.86,5.86,0,0,0,406.54,271Z"/><path d="M408.81,266.47v-.9h7.91v.9h-3.45v10h-1v-10Z"/><path d="M419,276.48V265.57h1v5h6.19v-5h1v10.91h-1v-5H420v5Z"/><path d="M431,265.57v10.91h-1V265.57Z"/><path d="M442.48,269h-1a3,3,0,0,0-.4-1,3.34,3.34,0,0,0-.72-.83,3.44,3.44,0,0,0-1-.55,3.36,3.36,0,0,0-1.2-.2,3.47,3.47,0,0,0-1.89.54,3.71,3.71,0,0,0-1.35,1.58,6.63,6.63,0,0,0,0,5.1,3.77,3.77,0,0,0,1.35,1.58,3.55,3.55,0,0,0,1.89.53,3.36,3.36,0,0,0,1.2-.2,3.44,3.44,0,0,0,1-.55,3.2,3.2,0,0,0,1.12-1.87h1a4.5,4.5,0,0,1-.5,1.4,4,4,0,0,1-.93,1.13,4.15,4.15,0,0,1-1.29.76,4.59,4.59,0,0,1-1.6.27,4.38,4.38,0,0,1-2.44-.69,4.64,4.64,0,0,1-1.67-1.95,7.51,7.51,0,0,1,0-5.93,4.64,4.64,0,0,1,1.67-1.95,4.38,4.38,0,0,1,2.44-.69,4.59,4.59,0,0,1,1.6.27,4,4,0,0,1,1.29.76,4,4,0,0,1,.93,1.13A4.5,4.5,0,0,1,442.48,269Z"/><path d="M449,276.48V265.57h3.52a4.06,4.06,0,0,1,1.94.42,2.81,2.81,0,0,1,1.18,1.16,3.75,3.75,0,0,1,0,3.37,2.77,2.77,0,0,1-1.18,1.14,4.1,4.1,0,0,1-1.92.41h-3v-.91h3a3.29,3.29,0,0,0,1.42-.28,1.91,1.91,0,0,0,.85-.81,2.66,2.66,0,0,0,.28-1.23,2.59,2.59,0,0,0-.29-1.25,1.9,1.9,0,0,0-.85-.83,3,3,0,0,0-1.43-.29H450v10Zm4.81-4.92,2.68,4.92h-1.15l-2.66-4.92Z"/><path d="M467.45,271a6.69,6.69,0,0,1-.61,3,4.64,4.64,0,0,1-1.67,1.95,4.66,4.66,0,0,1-4.88,0,4.64,4.64,0,0,1-1.67-1.95,7.63,7.63,0,0,1,0-5.93,4.64,4.64,0,0,1,1.67-1.95,4.66,4.66,0,0,1,4.88,0,4.64,4.64,0,0,1,1.67,1.95A6.7,6.7,0,0,1,467.45,271Zm-1,0a5.87,5.87,0,0,0-.49-2.52,3.8,3.8,0,0,0-1.34-1.6,3.4,3.4,0,0,0-1.92-.55,3.45,3.45,0,0,0-1.92.55,3.87,3.87,0,0,0-1.34,1.6A5.87,5.87,0,0,0,459,271a5.78,5.78,0,0,0,.49,2.5,3.67,3.67,0,0,0,1.34,1.6,3.33,3.33,0,0,0,1.92.56,3.4,3.4,0,0,0,1.92-.55,3.73,3.73,0,0,0,1.34-1.6A5.85,5.85,0,0,0,466.48,271Z"/><path d="M477.13,265.57h1v7.22a3.76,3.76,0,0,1-.52,2,3.64,3.64,0,0,1-1.45,1.38,4.83,4.83,0,0,1-4.32,0,3.71,3.71,0,0,1-2-3.37v-7.22h1v7.15a3.05,3.05,0,0,0,.39,1.55,2.83,2.83,0,0,0,1.1,1.07,3.35,3.35,0,0,0,1.65.39,3.42,3.42,0,0,0,1.66-.39,2.8,2.8,0,0,0,1.09-1.07,3.05,3.05,0,0,0,.39-1.55Z"/><path d="M489.52,265.57v10.91h-1l-6.45-9.14H482v9.14h-1V265.57h1l6.47,9.15h.09v-9.15Z"/><path d="M495.61,276.48h-3.2V265.57h3.39a5.23,5.23,0,0,1,2.67.65,4.34,4.34,0,0,1,1.71,1.86,7.45,7.45,0,0,1,0,5.86,4.22,4.22,0,0,1-1.76,1.88A5.54,5.54,0,0,1,495.61,276.48Zm-2.2-.9h2.14a4.63,4.63,0,0,0,2.36-.55,3.52,3.52,0,0,0,1.42-1.58,5.92,5.92,0,0,0,.47-2.45,6,6,0,0,0-.46-2.43A3.43,3.43,0,0,0,498,267a4.26,4.26,0,0,0-2.23-.54h-2.33Z"/><path d="M503.17,276.48V265.57h6.33v.9h-5.33v4.1h5v.9h-5v4.11h5.44v.9Z"/><path d="M515.27,276.48h-3.19V265.57h3.38a5.23,5.23,0,0,1,2.67.65,4.28,4.28,0,0,1,1.71,1.86,6.7,6.7,0,0,1,.59,2.92,6.51,6.51,0,0,1-.61,2.94,4.22,4.22,0,0,1-1.76,1.88A5.49,5.49,0,0,1,515.27,276.48Zm-2.2-.9h2.14a4.61,4.61,0,0,0,2.36-.55,3.52,3.52,0,0,0,1.42-1.58,5.92,5.92,0,0,0,.47-2.45,6,6,0,0,0-.46-2.43,3.37,3.37,0,0,0-1.37-1.56,4.26,4.26,0,0,0-2.23-.54h-2.33Z"/><path d="M531.27,271.36v.89h-4.54v-.89Z"/><path d="M538.07,276.48V265.57h6.33v.9h-5.33v4.1h5v.9h-5v4.11h5.43v.9Z"/><path d="M551.19,276.48V265.57h3.52a4.06,4.06,0,0,1,1.94.42,2.81,2.81,0,0,1,1.18,1.16,3.84,3.84,0,0,1,0,3.37,2.77,2.77,0,0,1-1.18,1.14,4.14,4.14,0,0,1-1.93.41h-3v-.91h3a3.29,3.29,0,0,0,1.42-.28,1.83,1.83,0,0,0,.84-.81,2.54,2.54,0,0,0,.28-1.23,2.59,2.59,0,0,0-.28-1.25,1.85,1.85,0,0,0-.85-.83,3,3,0,0,0-1.43-.29h-2.49v10Zm4.81-4.92,2.68,4.92h-1.15l-2.65-4.92Z"/><path d="M563.68,276.65a3.66,3.66,0,0,1-2-.53,3.54,3.54,0,0,1-1.29-1.49,5.47,5.47,0,0,1,0-4.39,3.67,3.67,0,0,1,1.26-1.51,3.28,3.28,0,0,1,1.87-.54,3.5,3.5,0,0,1,1.28.24,3.23,3.23,0,0,1,1.11.74,3.5,3.5,0,0,1,.78,1.25,5,5,0,0,1,.29,1.78v.47h-6.39v-.84H566a3.11,3.11,0,0,0-.32-1.41,2.38,2.38,0,0,0-.88-1,2.25,2.25,0,0,0-1.29-.37,2.36,2.36,0,0,0-1.37.41,2.84,2.84,0,0,0-.93,1.1,3.54,3.54,0,0,0-.34,1.49v.5a4.14,4.14,0,0,0,.34,1.71,2.78,2.78,0,0,0,3.46,1.34,2.13,2.13,0,0,0,.74-.49,2,2,0,0,0,.45-.67l.9.29a2.58,2.58,0,0,1-.6,1,3.32,3.32,0,0,1-1.06.7A3.83,3.83,0,0,1,563.68,276.65Z"/><path d="M572.2,279.72a4.31,4.31,0,0,1-1.46-.22,3,3,0,0,1-1.06-.59,2.64,2.64,0,0,1-.67-.83l.77-.51a2.87,2.87,0,0,0,.48.6,2.19,2.19,0,0,0,.77.5,3.11,3.11,0,0,0,1.17.2,2.67,2.67,0,0,0,1.76-.55,2.05,2.05,0,0,0,.66-1.69v-1.84h-.08a3.16,3.16,0,0,1-.47.74,2.43,2.43,0,0,1-.81.62,2.81,2.81,0,0,1-1.23.24,3.16,3.16,0,0,1-1.74-.48,3.28,3.28,0,0,1-1.2-1.39,4.91,4.91,0,0,1-.43-2.15,5.35,5.35,0,0,1,.42-2.19,3.62,3.62,0,0,1,1.19-1.47,3,3,0,0,1,1.77-.52,2.6,2.6,0,0,1,1.25.26,2.44,2.44,0,0,1,.79.65,3.81,3.81,0,0,1,.48.76h.09V268.3h.93v8.39a3.05,3.05,0,0,1-.44,1.71,2.7,2.7,0,0,1-1.21,1A4.45,4.45,0,0,1,572.2,279.72Zm-.06-4.19a2.4,2.4,0,0,0,1.35-.38,2.44,2.44,0,0,0,.85-1.1,4.34,4.34,0,0,0,.3-1.7,4.73,4.73,0,0,0-.29-1.7,2.66,2.66,0,0,0-.85-1.17,2.15,2.15,0,0,0-1.36-.43,2.22,2.22,0,0,0-1.39.44,2.76,2.76,0,0,0-.85,1.19,4.68,4.68,0,0,0-.29,1.67,4.28,4.28,0,0,0,.3,1.66,2.46,2.46,0,0,0,.85,1.11A2.32,2.32,0,0,0,572.14,275.53Z"/><path d="M583.29,273.35V268.3h1v8.18h-1v-1.36h-.07a2.54,2.54,0,0,1-.91,1.05,2.7,2.7,0,0,1-1.53.42,2.79,2.79,0,0,1-1.39-.35,2.38,2.38,0,0,1-.95-1,3.51,3.51,0,0,1-.35-1.63v-5.3H579v5.24a2.11,2.11,0,0,0,.57,1.54,1.9,1.9,0,0,0,1.44.59,2.27,2.27,0,0,0,1.07-.27,2.24,2.24,0,0,0,.84-.78A2.31,2.31,0,0,0,583.29,273.35Z"/><path d="M587.69,265.57v10.91h-1V265.57Z"/><path d="M592.48,276.67a3.17,3.17,0,0,1-1.35-.29,2.29,2.29,0,0,1-1.34-2.19,2.13,2.13,0,0,1,.23-1,1.92,1.92,0,0,1,.65-.68,3.38,3.38,0,0,1,1-.42,10.1,10.1,0,0,1,1.26-.24l1.17-.15a2,2,0,0,0,.72-.2.47.47,0,0,0,.25-.45v-.19a1.75,1.75,0,0,0-.49-1.32,2,2,0,0,0-1.43-.48,2.45,2.45,0,0,0-1.44.39,2,2,0,0,0-.78.91L590,270a2.51,2.51,0,0,1,.76-1.07,3.09,3.09,0,0,1,1.1-.59,4.68,4.68,0,0,1,1.23-.17,4.3,4.3,0,0,1,1,.12,2.74,2.74,0,0,1,.94.42,2.19,2.19,0,0,1,.71.84,3,3,0,0,1,.27,1.35v5.56h-.95v-1.29H595a2.89,2.89,0,0,1-.51.7,2.57,2.57,0,0,1-.84.56A3.08,3.08,0,0,1,592.48,276.67Zm.13-.87a2.44,2.44,0,0,0,1.31-.34,2.27,2.27,0,0,0,.85-.89,2.54,2.54,0,0,0,.3-1.23v-1.18a.81.81,0,0,1-.35.18,5.29,5.29,0,0,1-.57.14l-.64.11-.58.07a5.57,5.57,0,0,0-1.18.27,1.6,1.6,0,0,0-.75.5,1.25,1.25,0,0,0-.26.81,1.38,1.38,0,0,0,.53,1.15A2.16,2.16,0,0,0,592.61,275.8Z"/><path d="M598.54,276.48V268.3h.92v1.26h.07a2,2,0,0,1,.86-1,2.49,2.49,0,0,1,1.38-.38h.5v1l-.22,0-.35,0a2.4,2.4,0,0,0-1.14.27,2.06,2.06,0,0,0-.78.74,2.09,2.09,0,0,0-.29,1.09v5.28Z"/><path d="M493.81,335.93v10.91h-1V335.93Z"/><path d="M505.2,335.93v10.91h-1l-6.44-9.14h-.09v9.14h-1V335.93h1l6.47,9.15h.08v-9.15Z"/><path d="M507.44,336.83v-.9h7.91v.9h-3.46v10h-1v-10Z"/><path d="M517.59,346.84V335.93h6.33v.9h-5.34v4.1h5v.9h-5V346H524v.89Z"/><path d="M526.49,346.84V335.93H530a4.06,4.06,0,0,1,1.94.42,2.85,2.85,0,0,1,1.18,1.15,3.62,3.62,0,0,1,.4,1.7,3.53,3.53,0,0,1-.4,1.68A2.77,2.77,0,0,1,532,342a4.1,4.1,0,0,1-1.92.41h-3v-.91h3a3.29,3.29,0,0,0,1.42-.28,1.91,1.91,0,0,0,.85-.81,2.65,2.65,0,0,0,.27-1.23,2.59,2.59,0,0,0-.28-1.25,1.85,1.85,0,0,0-.85-.83,3,3,0,0,0-1.43-.29h-2.49v10Zm4.81-4.92,2.68,4.92h-1.15l-2.66-4.92Z"/><path d="M544.39,341.72v.89h-4.54v-.89Z"/><path d="M551.19,346.84V335.93h3.52a4.06,4.06,0,0,1,1.94.42,2.85,2.85,0,0,1,1.18,1.15,3.62,3.62,0,0,1,.4,1.7,3.53,3.53,0,0,1-.4,1.68,2.77,2.77,0,0,1-1.18,1.14,4.1,4.1,0,0,1-1.92.41h-3v-.91h3a3.29,3.29,0,0,0,1.42-.28,1.91,1.91,0,0,0,.85-.81,2.66,2.66,0,0,0,.28-1.23A2.59,2.59,0,0,0,557,338a1.85,1.85,0,0,0-.85-.83,3,3,0,0,0-1.43-.29h-2.49v10Zm4.81-4.92,2.68,4.92h-1.15l-2.65-4.92Z"/><path d="M563.68,347a3.66,3.66,0,0,1-2-.53,3.54,3.54,0,0,1-1.29-1.49,5.47,5.47,0,0,1,0-4.39,3.67,3.67,0,0,1,1.26-1.51,3.28,3.28,0,0,1,1.87-.54,3.5,3.5,0,0,1,1.28.24,3.23,3.23,0,0,1,1.11.74,3.5,3.5,0,0,1,.78,1.25,5,5,0,0,1,.29,1.78V343h-6.39v-.83H566a3.12,3.12,0,0,0-.32-1.42,2.38,2.38,0,0,0-.88-1,2.25,2.25,0,0,0-1.29-.37,2.36,2.36,0,0,0-1.37.41,2.84,2.84,0,0,0-.93,1.1,3.54,3.54,0,0,0-.34,1.49v.5a4.14,4.14,0,0,0,.34,1.71A2.78,2.78,0,0,0,564.7,346a2.13,2.13,0,0,0,.74-.49,2.29,2.29,0,0,0,.46-.67l.9.29a2.74,2.74,0,0,1-.61,1,3.32,3.32,0,0,1-1.06.7A3.83,3.83,0,0,1,563.68,347Z"/><path d="M572.2,350.08a4.31,4.31,0,0,1-1.46-.22,3,3,0,0,1-1.06-.59,2.64,2.64,0,0,1-.67-.83l.77-.51a3.15,3.15,0,0,0,.48.6,2.19,2.19,0,0,0,.77.5,3.11,3.11,0,0,0,1.17.2,2.67,2.67,0,0,0,1.76-.55,2.06,2.06,0,0,0,.67-1.69v-1.84h-.09a3.16,3.16,0,0,1-.47.74,2.43,2.43,0,0,1-.81.62,2.81,2.81,0,0,1-1.23.24,3.16,3.16,0,0,1-1.74-.48,3.28,3.28,0,0,1-1.2-1.39,4.91,4.91,0,0,1-.43-2.15,5.35,5.35,0,0,1,.42-2.19,3.62,3.62,0,0,1,1.19-1.47,3,3,0,0,1,1.77-.52,2.6,2.6,0,0,1,1.25.26,2.44,2.44,0,0,1,.79.65,3.81,3.81,0,0,1,.48.76h.09v-1.56h.93v8.39a3.05,3.05,0,0,1-.44,1.71,2.7,2.7,0,0,1-1.21,1A4.45,4.45,0,0,1,572.2,350.08Zm-.06-4.19a2.4,2.4,0,0,0,1.35-.38,2.44,2.44,0,0,0,.85-1.1,4.34,4.34,0,0,0,.3-1.7,4.73,4.73,0,0,0-.29-1.7,2.66,2.66,0,0,0-.85-1.17,2.15,2.15,0,0,0-1.36-.43,2.22,2.22,0,0,0-1.39.44,2.76,2.76,0,0,0-.85,1.19,4.68,4.68,0,0,0-.29,1.67,4.28,4.28,0,0,0,.3,1.66,2.46,2.46,0,0,0,.85,1.11A2.32,2.32,0,0,0,572.14,345.89Z"/><path d="M583.29,343.71v-5h1v8.18h-1v-1.36h-.07a2.54,2.54,0,0,1-.91,1,2.7,2.7,0,0,1-1.53.42,2.79,2.79,0,0,1-1.39-.35,2.38,2.38,0,0,1-.95-1,3.51,3.51,0,0,1-.35-1.63v-5.3H579v5.24a2.11,2.11,0,0,0,.57,1.54,1.92,1.92,0,0,0,1.45.59,2.27,2.27,0,0,0,1.9-1A2.31,2.31,0,0,0,583.29,343.71Z"/><path d="M587.69,335.93v10.91h-1V335.93Z"/><path d="M592.48,347a3.17,3.17,0,0,1-1.35-.29,2.29,2.29,0,0,1-1.34-2.19,2.13,2.13,0,0,1,.23-1,1.92,1.92,0,0,1,.65-.68,3.38,3.38,0,0,1,1-.42,10.1,10.1,0,0,1,1.26-.24l1.17-.15a2,2,0,0,0,.72-.2.47.47,0,0,0,.25-.45v-.19a1.75,1.75,0,0,0-.49-1.32,2,2,0,0,0-1.43-.48,2.45,2.45,0,0,0-1.44.39,2.12,2.12,0,0,0-.79.91l-.9-.32a2.62,2.62,0,0,1,.77-1.07,3.09,3.09,0,0,1,1.1-.59,4.62,4.62,0,0,1,1.23-.17,4.3,4.3,0,0,1,1,.12,2.74,2.74,0,0,1,.94.42,2.19,2.19,0,0,1,.71.84,3,3,0,0,1,.27,1.35v5.56h-.95v-1.29H595a2.89,2.89,0,0,1-.51.7,2.57,2.57,0,0,1-.84.56A3.12,3.12,0,0,1,592.48,347Zm.13-.87a2.44,2.44,0,0,0,1.31-.34,2.27,2.27,0,0,0,.85-.89,2.54,2.54,0,0,0,.3-1.23v-1.18a.81.81,0,0,1-.35.18,5.29,5.29,0,0,1-.57.14l-.64.11-.58.07a5.57,5.57,0,0,0-1.18.27,1.6,1.6,0,0,0-.75.5,1.25,1.25,0,0,0-.26.81,1.38,1.38,0,0,0,.53,1.15A2.16,2.16,0,0,0,592.61,346.16Z"/><path d="M598.54,346.84v-8.18h.92v1.26h.07a2,2,0,0,1,.86-1,2.49,2.49,0,0,1,1.38-.38h.5v1l-.22,0-.35,0a2.4,2.4,0,0,0-1.14.27,2.06,2.06,0,0,0-.78.74,2.09,2.09,0,0,0-.29,1.09v5.28Z"/><path d="M490.59,396.29V407.2h-1V396.29Z"/><path d="M502,396.29V407.2h-1l-6.45-9.14h-.08v9.14h-1V396.29h1l6.47,9.15H501v-9.15Z"/><path d="M504.22,397.19v-.9h7.91v.9h-3.45v10h-1v-10Z"/><path d="M514.37,407.2V396.29h6.33v.9h-5.33v4.1h5v.9h-5v4.12h5.44v.89Z"/><path d="M523.27,407.2V396.29h3.52a4,4,0,0,1,1.94.42,2.79,2.79,0,0,1,1.18,1.15,3.5,3.5,0,0,1,.4,1.7,3.42,3.42,0,0,1-.4,1.68,2.74,2.74,0,0,1-1.17,1.14,4.14,4.14,0,0,1-1.93.41h-3v-.91h3a3.29,3.29,0,0,0,1.42-.28,1.91,1.91,0,0,0,.85-.81,2.66,2.66,0,0,0,.28-1.23,2.59,2.59,0,0,0-.29-1.25,1.87,1.87,0,0,0-.84-.83,3.06,3.06,0,0,0-1.43-.29h-2.5v10Zm4.81-4.92,2.69,4.92h-1.15L527,402.28Z"/><path d="M541.17,402.08V403h-4.53v-.89Z"/><path d="M548,396.29h1.15l4,9.5h.1l4-9.5h1.15V407.2h-.93v-8.8h-.09l-3.68,8.8h-.91L549,398.4h-.08v8.8H548Z"/><path d="M564.29,407.37a3.66,3.66,0,0,1-2-.53,3.54,3.54,0,0,1-1.29-1.49,5.47,5.47,0,0,1,0-4.39,3.67,3.67,0,0,1,1.26-1.51,3.28,3.28,0,0,1,1.87-.54,3.5,3.5,0,0,1,1.28.24,3.23,3.23,0,0,1,1.11.74,3.5,3.5,0,0,1,.78,1.25,5,5,0,0,1,.29,1.78v.47h-6.39v-.83h5.42a3,3,0,0,0-.32-1.42,2.43,2.43,0,0,0-.87-1,2.3,2.3,0,0,0-1.3-.37,2.36,2.36,0,0,0-1.37.41,2.82,2.82,0,0,0-.92,1.1,3.26,3.26,0,0,0-.34,1.49v.5a4,4,0,0,0,.34,1.71,2.51,2.51,0,0,0,1,1.12,2.61,2.61,0,0,0,1.47.4,2.66,2.66,0,0,0,1-.18,2,2,0,0,0,.74-.49,2,2,0,0,0,.46-.67l.9.29a2.74,2.74,0,0,1-.61,1,3.21,3.21,0,0,1-1.06.7A3.83,3.83,0,0,1,564.29,407.37Z"/><path d="M572.64,407.37a3,3,0,0,1-1.76-.53,3.46,3.46,0,0,1-1.18-1.49,5.92,5.92,0,0,1,0-4.43,3.38,3.38,0,0,1,1.18-1.48,3,3,0,0,1,1.78-.53,2.59,2.59,0,0,1,1.24.26,2.44,2.44,0,0,1,.79.65,3.67,3.67,0,0,1,.46.76h.09v-4.29h1V407.2h-.93v-1.52h-.11a3.39,3.39,0,0,1-.47.77,2.36,2.36,0,0,1-.8.65A2.56,2.56,0,0,1,572.64,407.37Zm.11-.87a2.12,2.12,0,0,0,1.35-.43,2.69,2.69,0,0,0,.86-1.2,4.78,4.78,0,0,0,.29-1.76,4.65,4.65,0,0,0-.29-1.73,2.61,2.61,0,0,0-.85-1.18,2.15,2.15,0,0,0-1.36-.43,2.17,2.17,0,0,0-1.38.44,2.69,2.69,0,0,0-.85,1.21,4.54,4.54,0,0,0-.29,1.69,4.67,4.67,0,0,0,.29,1.72,2.74,2.74,0,0,0,.85,1.22A2.16,2.16,0,0,0,572.75,406.5Z"/><path d="M579.39,397.61a.66.66,0,0,1-.5-.2.65.65,0,0,1,0-1,.66.66,0,0,1,.5-.2.68.68,0,0,1,.5.2.65.65,0,0,1,0,1A.68.68,0,0,1,579.39,397.61Zm-.49,9.59V399h1v8.18Z"/><path d="M587.57,404.07V399h.95v8.18h-.95v-1.36h-.07a2.57,2.57,0,0,1-.92,1.05,2.64,2.64,0,0,1-1.52.42,2.79,2.79,0,0,1-1.39-.35,2.38,2.38,0,0,1-.95-1,3.51,3.51,0,0,1-.35-1.63V399h1v5.24a2.14,2.14,0,0,0,.56,1.54,1.94,1.94,0,0,0,1.45.59,2.27,2.27,0,0,0,1.07-.27,2.24,2.24,0,0,0,.84-.78A2.31,2.31,0,0,0,587.57,404.07Z"/><path d="M591,407.2V399h.92v1.26H592a1.92,1.92,0,0,1,.82-1,2.44,2.44,0,0,1,1.37-.37,2.3,2.3,0,0,1,1.4.4,2.38,2.38,0,0,1,.81,1.09h.07a2.31,2.31,0,0,1,.91-1.09,2.79,2.79,0,0,1,1.52-.4,2.32,2.32,0,0,1,1.8.72,3,3,0,0,1,.66,2.09v5.48h-.95v-5.48a2,2,0,0,0-.5-1.46,2,2,0,0,0-2.74.1,2.1,2.1,0,0,0-.51,1.45v5.39h-1v-5.57a1.91,1.91,0,0,0-.46-1.34,1.69,1.69,0,0,0-1.31-.51,1.83,1.83,0,0,0-1,.28,1.89,1.89,0,0,0-.71.77A2.41,2.41,0,0,0,592,402v5.24Z"/><path d="M515.48,449.65v10.91h-1V449.65Z"/><path d="M526.88,449.65v10.91h-1l-6.45-9.14h-.08v9.14h-1V449.65h1l6.46,9.15h.09v-9.15Z"/><path d="M529.11,450.55v-.9H537v.9h-3.45v10h-1v-10Z"/><path d="M539.26,460.56V449.65h6.33v.9h-5.33v4.1h5v.9h-5v4.12h5.44v.89Z"/><path d="M548.16,460.56V449.65h3.52a4,4,0,0,1,1.94.42,2.73,2.73,0,0,1,1.18,1.15,3.5,3.5,0,0,1,.4,1.7,3.42,3.42,0,0,1-.4,1.68,2.69,2.69,0,0,1-1.17,1.14,4.14,4.14,0,0,1-1.93.41h-3v-.91h3a3.29,3.29,0,0,0,1.42-.28,1.91,1.91,0,0,0,.85-.81,2.54,2.54,0,0,0,.28-1.23,2.71,2.71,0,0,0-.28-1.25,1.9,1.9,0,0,0-.85-.83,3.06,3.06,0,0,0-1.43-.29h-2.5v10Zm4.81-4.92,2.69,4.92h-1.15l-2.66-4.92Z"/><path d="M566.07,455.44v.89h-4.54v-.89Z"/><path d="M572.86,460.56V449.65h3.68a3.91,3.91,0,0,1,1.78.37,2.57,2.57,0,0,1,1.07,1,3,3,0,0,1,.36,1.47,2.73,2.73,0,0,1-.23,1.16,2.07,2.07,0,0,1-.63.79,2.67,2.67,0,0,1-.88.43V455a2.15,2.15,0,0,1,1,.37,2.47,2.47,0,0,1,.81.93,3,3,0,0,1,.32,1.43,2.87,2.87,0,0,1-.37,1.47,2.54,2.54,0,0,1-1.12,1,4.37,4.37,0,0,1-1.93.37Zm1-6h2.77a2.28,2.28,0,0,0,1.13-.27,1.91,1.91,0,0,0,.76-.73,2.13,2.13,0,0,0,.27-1.07,1.92,1.92,0,0,0-.56-1.42,2.37,2.37,0,0,0-1.69-.54h-2.68Zm0,5.09h2.89a2.67,2.67,0,0,0,1.86-.56,1.84,1.84,0,0,0,.61-1.41,2.17,2.17,0,0,0-.3-1.13,2.21,2.21,0,0,0-.85-.81,2.6,2.6,0,0,0-1.28-.3h-2.93Z"/><path d="M585.56,460.73a3.32,3.32,0,0,1-1.88-.54,3.65,3.65,0,0,1-1.27-1.49,5,5,0,0,1-.45-2.19,5.18,5.18,0,0,1,.45-2.22,3.71,3.71,0,0,1,1.27-1.49,3.31,3.31,0,0,1,1.88-.53,3.38,3.38,0,0,1,1.87.53,3.75,3.75,0,0,1,1.27,1.5,5.1,5.1,0,0,1,.46,2.21,5,5,0,0,1-.46,2.19,3.65,3.65,0,0,1-1.27,1.49A3.31,3.31,0,0,1,585.56,460.73Zm0-.87a2.26,2.26,0,0,0,1.44-.46,2.89,2.89,0,0,0,.9-1.22,4.47,4.47,0,0,0,.3-1.67,4.62,4.62,0,0,0-.3-1.69,3,3,0,0,0-.9-1.23,2.48,2.48,0,0,0-2.88,0,2.92,2.92,0,0,0-.91,1.23,4.62,4.62,0,0,0-.3,1.69,4.47,4.47,0,0,0,.3,1.67,2.89,2.89,0,0,0,.9,1.22A2.29,2.29,0,0,0,585.56,459.86Z"/><path d="M592.19,449.65v10.91h-1V449.65Z"/><path d="M597.64,460.73a3.06,3.06,0,0,1-1.77-.53,3.62,3.62,0,0,1-1.18-1.49,6.05,6.05,0,0,1,0-4.43,3.47,3.47,0,0,1,1.19-1.48,3,3,0,0,1,1.77-.53,2.56,2.56,0,0,1,1.24.26,2.48,2.48,0,0,1,.8.65,3.67,3.67,0,0,1,.46.76h.09v-4.29h1v10.91h-.93V459h-.11a3.79,3.79,0,0,1-.47.77,2.36,2.36,0,0,1-.8.65A2.58,2.58,0,0,1,597.64,460.73Zm.11-.87a2.12,2.12,0,0,0,1.35-.43,2.77,2.77,0,0,0,.86-1.2,5,5,0,0,0,.29-1.76,4.86,4.86,0,0,0-.29-1.73,2.69,2.69,0,0,0-.85-1.18,2.37,2.37,0,0,0-2.74,0,2.78,2.78,0,0,0-.86,1.21,4.75,4.75,0,0,0-.29,1.69,4.67,4.67,0,0,0,.3,1.72,2.74,2.74,0,0,0,.85,1.22A2.16,2.16,0,0,0,597.75,459.86Z"/><path d="M520.79,501v10.91h-1V501Z"/><path d="M532.19,501v10.91h-1l-6.45-9.14h-.08v9.14h-1V501h1l6.46,9.15h.09V501Z"/><path d="M534.42,501.91V501h7.91v.9h-3.45v10h-1v-10Z"/><path d="M544.57,511.92V501h6.33v.9h-5.33V506h5v.9h-5V511H551v.89Z"/><path d="M553.47,511.92V501H557a4.08,4.08,0,0,1,2,.42,2.76,2.76,0,0,1,1.17,1.15,3.5,3.5,0,0,1,.4,1.7,3.42,3.42,0,0,1-.4,1.68,2.69,2.69,0,0,1-1.17,1.14,4.14,4.14,0,0,1-1.93.41h-3v-.91h3a3.26,3.26,0,0,0,1.42-.28,1.91,1.91,0,0,0,.85-.81,2.54,2.54,0,0,0,.28-1.23,2.59,2.59,0,0,0-.28-1.25,1.9,1.9,0,0,0-.85-.83,3.06,3.06,0,0,0-1.43-.29h-2.5v10Zm4.81-4.92,2.69,4.92h-1.15L557.16,507Z"/><path d="M571.38,506.8v.89h-4.54v-.89Z"/><path d="M578.17,511.92V501h1v10h5.2v.89Z"/><path d="M586.91,502.33a.66.66,0,0,1-.5-.2.65.65,0,0,1,0-1,.66.66,0,0,1,.5-.2.68.68,0,0,1,.5.2.65.65,0,0,1,0,1A.68.68,0,0,1,586.91,502.33Zm-.49,9.59v-8.18h1v8.18Z"/><path d="M593.11,503.74v.82h-3.9v-.82Zm-2.68-2h1v8a1.57,1.57,0,0,0,.18.81,1,1,0,0,0,.46.41,1.53,1.53,0,0,0,.6.12,1.51,1.51,0,0,0,.32,0l.23,0,.21.86c-.1,0-.21.07-.35.1a2.35,2.35,0,0,1-.5,0,2.22,2.22,0,0,1-1-.23,1.92,1.92,0,0,1-.79-.68,1.9,1.9,0,0,1-.31-1.12Z"/><path d="M598.49,512.09a3.66,3.66,0,0,1-2-.53,3.54,3.54,0,0,1-1.29-1.49,5.47,5.47,0,0,1,0-4.39,3.67,3.67,0,0,1,1.26-1.51,3.28,3.28,0,0,1,1.87-.54,3.5,3.5,0,0,1,1.28.24,3.23,3.23,0,0,1,1.11.74,3.5,3.5,0,0,1,.78,1.25,5,5,0,0,1,.29,1.78v.47h-6.39v-.83h5.42a3.12,3.12,0,0,0-.32-1.42,2.38,2.38,0,0,0-.88-1,2.25,2.25,0,0,0-1.29-.37,2.36,2.36,0,0,0-1.37.41,2.84,2.84,0,0,0-.93,1.1,3.54,3.54,0,0,0-.34,1.49v.5a4.14,4.14,0,0,0,.34,1.71,2.78,2.78,0,0,0,3.46,1.34,2.13,2.13,0,0,0,.74-.49,2.29,2.29,0,0,0,.46-.67l.9.29a2.74,2.74,0,0,1-.61,1,3.32,3.32,0,0,1-1.06.7A3.83,3.83,0,0,1,598.49,512.09Z"/><path d="M493.73,546.37v10.91h-1V546.37Z"/><path d="M505.12,546.37v10.91h-1l-6.44-9.14h-.09v9.14h-1V546.37h1l6.47,9.15h.08v-9.15Z"/><path d="M507.36,547.27v-.9h7.91v.9h-3.46v10h-1v-10Z"/><path d="M517.51,557.28V546.37h6.33v.9H518.5v4.1h5v.9h-5v4.12h5.44v.89Z"/><path d="M526.41,557.28V546.37h3.52a4.06,4.06,0,0,1,1.94.42,2.85,2.85,0,0,1,1.18,1.15,3.62,3.62,0,0,1,.4,1.7,3.53,3.53,0,0,1-.4,1.68,2.77,2.77,0,0,1-1.18,1.14,4.1,4.1,0,0,1-1.92.41h-3V552h3a3.29,3.29,0,0,0,1.42-.28,1.91,1.91,0,0,0,.85-.81,2.65,2.65,0,0,0,.27-1.23,2.59,2.59,0,0,0-.28-1.25,1.85,1.85,0,0,0-.85-.83,3,3,0,0,0-1.43-.29h-2.49v10Zm4.81-4.92,2.68,4.92h-1.15l-2.66-4.92Z"/><path d="M544.31,552.16v.89h-4.54v-.89Z"/><path d="M551.11,557.28V546.37h3.52a4.06,4.06,0,0,1,1.94.42,2.85,2.85,0,0,1,1.18,1.15,3.62,3.62,0,0,1,.4,1.7,3.53,3.53,0,0,1-.4,1.68,2.77,2.77,0,0,1-1.18,1.14,4.1,4.1,0,0,1-1.92.41h-3V552h3a3.29,3.29,0,0,0,1.42-.28,1.91,1.91,0,0,0,.85-.81,2.66,2.66,0,0,0,.28-1.23,2.59,2.59,0,0,0-.29-1.25,1.85,1.85,0,0,0-.85-.83,3,3,0,0,0-1.43-.29h-2.49v10Zm4.81-4.92,2.68,4.92h-1.15l-2.66-4.92Z"/><path d="M563.6,557.45a3.66,3.66,0,0,1-2-.53,3.54,3.54,0,0,1-1.29-1.49,5.47,5.47,0,0,1,0-4.39,3.67,3.67,0,0,1,1.26-1.51,3.28,3.28,0,0,1,1.87-.54,3.5,3.5,0,0,1,1.28.24,3.23,3.23,0,0,1,1.11.74,3.5,3.5,0,0,1,.78,1.25,5,5,0,0,1,.29,1.78v.47h-6.39v-.83H566a3.12,3.12,0,0,0-.32-1.42,2.38,2.38,0,0,0-.88-1,2.25,2.25,0,0,0-1.29-.37,2.36,2.36,0,0,0-1.37.41,2.84,2.84,0,0,0-.93,1.1,3.54,3.54,0,0,0-.34,1.49v.5a4.14,4.14,0,0,0,.34,1.71,2.78,2.78,0,0,0,3.46,1.34,2.13,2.13,0,0,0,.74-.49,2.29,2.29,0,0,0,.46-.67l.9.29a2.74,2.74,0,0,1-.61,1,3.32,3.32,0,0,1-1.06.7A3.83,3.83,0,0,1,563.6,557.45Z"/><path d="M572.12,560.52a4.31,4.31,0,0,1-1.46-.22,3,3,0,0,1-1.06-.59,2.64,2.64,0,0,1-.67-.83l.77-.51a2.87,2.87,0,0,0,.48.6,2.19,2.19,0,0,0,.77.5,3.11,3.11,0,0,0,1.17.2,2.67,2.67,0,0,0,1.76-.55,2.06,2.06,0,0,0,.67-1.69v-1.84h-.09a3.16,3.16,0,0,1-.47.74,2.43,2.43,0,0,1-.81.62,2.81,2.81,0,0,1-1.23.24,3.16,3.16,0,0,1-1.74-.48,3.28,3.28,0,0,1-1.2-1.39,4.91,4.91,0,0,1-.43-2.15A5.35,5.35,0,0,1,569,551a3.62,3.62,0,0,1,1.19-1.47A3,3,0,0,1,572,549a2.6,2.6,0,0,1,1.25.26,2.44,2.44,0,0,1,.79.65,3.81,3.81,0,0,1,.48.76h.09V549.1h.93v8.39a3.05,3.05,0,0,1-.44,1.71,2.7,2.7,0,0,1-1.21,1A4.45,4.45,0,0,1,572.12,560.52Zm-.06-4.19a2.4,2.4,0,0,0,1.35-.38,2.44,2.44,0,0,0,.85-1.1,4.34,4.34,0,0,0,.3-1.7,4.73,4.73,0,0,0-.29-1.7,2.66,2.66,0,0,0-.85-1.17,2.15,2.15,0,0,0-1.36-.43,2.22,2.22,0,0,0-1.39.44,2.76,2.76,0,0,0-.85,1.19,4.68,4.68,0,0,0-.29,1.67,4.28,4.28,0,0,0,.3,1.66,2.46,2.46,0,0,0,.85,1.11A2.32,2.32,0,0,0,572.06,556.33Z"/><path d="M583.21,554.15v-5h.95v8.18h-.95v-1.36h-.07a2.54,2.54,0,0,1-.91,1.05,2.7,2.7,0,0,1-1.53.42,2.79,2.79,0,0,1-1.39-.35,2.38,2.38,0,0,1-.95-1,3.51,3.51,0,0,1-.35-1.63v-5.3h1v5.24a2.11,2.11,0,0,0,.57,1.54,1.92,1.92,0,0,0,1.45.59,2.27,2.27,0,0,0,1.9-1.05A2.31,2.31,0,0,0,583.21,554.15Z"/><path d="M587.61,546.37v10.91h-1V546.37Z"/><path d="M592.4,557.47a3.17,3.17,0,0,1-1.35-.29,2.29,2.29,0,0,1-1.34-2.19,2.13,2.13,0,0,1,.23-1,1.92,1.92,0,0,1,.65-.68,3.44,3.44,0,0,1,1-.42,10.64,10.64,0,0,1,1.27-.24l1.17-.15a2.09,2.09,0,0,0,.72-.2.47.47,0,0,0,.25-.45v-.19a1.75,1.75,0,0,0-.49-1.32,2,2,0,0,0-1.43-.48,2.51,2.51,0,0,0-1.45.39,2.16,2.16,0,0,0-.78.91l-.9-.32a2.62,2.62,0,0,1,.77-1.07,3.09,3.09,0,0,1,1.1-.59A4.62,4.62,0,0,1,593,549a4.3,4.3,0,0,1,1,.12,2.74,2.74,0,0,1,.94.42,2.19,2.19,0,0,1,.71.84,3,3,0,0,1,.27,1.35v5.56h-1V556h0a2.89,2.89,0,0,1-.51.7,2.57,2.57,0,0,1-.84.56A3.12,3.12,0,0,1,592.4,557.47Zm.13-.87a2.44,2.44,0,0,0,1.31-.34,2.27,2.27,0,0,0,.85-.89,2.54,2.54,0,0,0,.3-1.23V553a.81.81,0,0,1-.35.18,5.29,5.29,0,0,1-.57.14l-.64.11-.58.07a5.57,5.57,0,0,0-1.18.27,1.6,1.6,0,0,0-.75.5,1.25,1.25,0,0,0-.26.81,1.38,1.38,0,0,0,.53,1.15A2.16,2.16,0,0,0,592.53,556.6Z"/><path d="M598.46,557.28V549.1h.92v1.26h.07a2,2,0,0,1,.86-1,2.49,2.49,0,0,1,1.38-.38h.5v1l-.22,0-.35,0a2.4,2.4,0,0,0-1.14.27,2.06,2.06,0,0,0-.78.74,2.09,2.09,0,0,0-.29,1.09v5.28Z"/><path d="M493.73,591.73v10.91h-1V591.73Z"/><path d="M505.12,591.73v10.91h-1l-6.44-9.14h-.09v9.14h-1V591.73h1l6.47,9.15h.08v-9.15Z"/><path d="M507.36,592.63v-.9h7.91v.9h-3.46v10h-1v-10Z"/><path d="M517.51,602.64V591.73h6.33v.9H518.5v4.1h5v.9h-5v4.12h5.44v.89Z"/><path d="M526.41,602.64V591.73h3.52a4.06,4.06,0,0,1,1.94.42,2.85,2.85,0,0,1,1.18,1.15,3.62,3.62,0,0,1,.4,1.7,3.53,3.53,0,0,1-.4,1.68,2.77,2.77,0,0,1-1.18,1.14,4.1,4.1,0,0,1-1.92.41h-3v-.91h3a3.29,3.29,0,0,0,1.42-.28,1.91,1.91,0,0,0,.85-.81,2.65,2.65,0,0,0,.27-1.23,2.59,2.59,0,0,0-.28-1.25,1.85,1.85,0,0,0-.85-.83,3,3,0,0,0-1.43-.29h-2.49v10Zm4.81-4.92,2.68,4.92h-1.15l-2.66-4.92Z"/><path d="M544.31,597.52v.89h-4.54v-.89Z"/><path d="M551.11,602.64V591.73h3.52a4.06,4.06,0,0,1,1.94.42,2.85,2.85,0,0,1,1.18,1.15,3.62,3.62,0,0,1,.4,1.7,3.53,3.53,0,0,1-.4,1.68,2.77,2.77,0,0,1-1.18,1.14,4.1,4.1,0,0,1-1.92.41h-3v-.91h3A3.29,3.29,0,0,0,556,597a1.91,1.91,0,0,0,.85-.81,2.66,2.66,0,0,0,.28-1.23,2.59,2.59,0,0,0-.29-1.25,1.85,1.85,0,0,0-.85-.83,3,3,0,0,0-1.43-.29h-2.49v10Zm4.81-4.92,2.68,4.92h-1.15l-2.66-4.92Z"/><path d="M563.6,602.81a3.66,3.66,0,0,1-2-.53,3.54,3.54,0,0,1-1.29-1.49,5.47,5.47,0,0,1,0-4.39,3.67,3.67,0,0,1,1.26-1.51,3.28,3.28,0,0,1,1.87-.54,3.5,3.5,0,0,1,1.28.24,3.23,3.23,0,0,1,1.11.74,3.5,3.5,0,0,1,.78,1.25,5,5,0,0,1,.29,1.78v.47h-6.39V598H566a3.12,3.12,0,0,0-.32-1.42,2.38,2.38,0,0,0-.88-1,2.25,2.25,0,0,0-1.29-.37,2.36,2.36,0,0,0-1.37.41,2.84,2.84,0,0,0-.93,1.1,3.54,3.54,0,0,0-.34,1.49v.5a4.14,4.14,0,0,0,.34,1.71,2.78,2.78,0,0,0,3.46,1.34,2.13,2.13,0,0,0,.74-.49,2.29,2.29,0,0,0,.46-.67l.9.29a2.74,2.74,0,0,1-.61,1,3.32,3.32,0,0,1-1.06.7A3.83,3.83,0,0,1,563.6,602.81Z"/><path d="M572.12,605.88a4.31,4.31,0,0,1-1.46-.22,3,3,0,0,1-1.06-.59,2.64,2.64,0,0,1-.67-.83l.77-.51a2.87,2.87,0,0,0,.48.6,2.19,2.19,0,0,0,.77.5,3.11,3.11,0,0,0,1.17.2,2.67,2.67,0,0,0,1.76-.55,2.06,2.06,0,0,0,.67-1.69V601h-.09a3.16,3.16,0,0,1-.47.74,2.43,2.43,0,0,1-.81.62,2.81,2.81,0,0,1-1.23.24,3.16,3.16,0,0,1-1.74-.48,3.28,3.28,0,0,1-1.2-1.39,4.91,4.91,0,0,1-.43-2.15,5.35,5.35,0,0,1,.42-2.19,3.62,3.62,0,0,1,1.19-1.47,3,3,0,0,1,1.77-.52,2.6,2.6,0,0,1,1.25.26,2.44,2.44,0,0,1,.79.65,3.81,3.81,0,0,1,.48.76h.09v-1.56h.93v8.39a3.05,3.05,0,0,1-.44,1.71,2.7,2.7,0,0,1-1.21,1A4.45,4.45,0,0,1,572.12,605.88Zm-.06-4.19a2.4,2.4,0,0,0,1.35-.38,2.44,2.44,0,0,0,.85-1.1,4.34,4.34,0,0,0,.3-1.7,4.73,4.73,0,0,0-.29-1.7,2.66,2.66,0,0,0-.85-1.17,2.15,2.15,0,0,0-1.36-.43,2.22,2.22,0,0,0-1.39.44,2.76,2.76,0,0,0-.85,1.19,4.68,4.68,0,0,0-.29,1.67,4.28,4.28,0,0,0,.3,1.66,2.46,2.46,0,0,0,.85,1.11A2.32,2.32,0,0,0,572.06,601.69Z"/><path d="M583.21,599.51v-5h.95v8.18h-.95v-1.36h-.07a2.54,2.54,0,0,1-.91,1.05,2.7,2.7,0,0,1-1.53.42,2.79,2.79,0,0,1-1.39-.35,2.38,2.38,0,0,1-.95-1,3.51,3.51,0,0,1-.35-1.63v-5.3h1v5.24a2.11,2.11,0,0,0,.57,1.54,1.92,1.92,0,0,0,1.45.59,2.27,2.27,0,0,0,1.9-1.05A2.31,2.31,0,0,0,583.21,599.51Z"/><path d="M587.61,591.73v10.91h-1V591.73Z"/><path d="M592.4,602.83a3.17,3.17,0,0,1-1.35-.29,2.29,2.29,0,0,1-1.34-2.19,2.13,2.13,0,0,1,.23-1,1.92,1.92,0,0,1,.65-.68,3.44,3.44,0,0,1,1-.42,10.64,10.64,0,0,1,1.27-.24l1.17-.15a2.09,2.09,0,0,0,.72-.2.47.47,0,0,0,.25-.45V597a1.75,1.75,0,0,0-.49-1.32,2,2,0,0,0-1.43-.48,2.51,2.51,0,0,0-1.45.39,2.16,2.16,0,0,0-.78.91l-.9-.32a2.62,2.62,0,0,1,.77-1.07,3.09,3.09,0,0,1,1.1-.59,4.62,4.62,0,0,1,1.23-.17,4.3,4.3,0,0,1,1,.12,2.74,2.74,0,0,1,.94.42,2.19,2.19,0,0,1,.71.84,3,3,0,0,1,.27,1.35v5.56h-1v-1.29h0a2.89,2.89,0,0,1-.51.7,2.57,2.57,0,0,1-.84.56A3.12,3.12,0,0,1,592.4,602.83Zm.13-.87a2.44,2.44,0,0,0,1.31-.34,2.27,2.27,0,0,0,.85-.89,2.54,2.54,0,0,0,.3-1.23v-1.18a.81.81,0,0,1-.35.18,5.29,5.29,0,0,1-.57.14l-.64.11-.58.07a5.57,5.57,0,0,0-1.18.27,1.6,1.6,0,0,0-.75.5,1.25,1.25,0,0,0-.26.81,1.38,1.38,0,0,0,.53,1.15A2.16,2.16,0,0,0,592.53,602Z"/><path d="M598.46,602.64v-8.18h.92v1.26h.07a2,2,0,0,1,.86-1,2.49,2.49,0,0,1,1.38-.38h.5v1l-.22,0-.35,0a2.4,2.4,0,0,0-1.14.27,2.06,2.06,0,0,0-.78.74,2.09,2.09,0,0,0-.29,1.09v5.28Z"/></g></svg>