<svg xmlns="http://www.w3.org/2000/svg" viewBox="0 0 648 648"><defs><style>.cls-1{fill:#fde5da;}.cls-2{fill:#fff;stroke:#000;stroke-linejoin:round;stroke-width:7.72px;}</style></defs><g id="Layer_1" data-name="Layer 1"><rect class="cls-1" width="648" height="648"/><path class="cls-2" d="M471.59,323.37c24.33-10.85,38.84-24.43,38.84-39.19C510.43,248.73,427,220,324,220s-186.43,28.73-186.43,64.18c0,14.76,14.51,28.34,38.84,39.19C112.39,339.2,70.64,365,70.64,394.24c0,48.17,113.44,87.22,253.36,87.22s253.36-39,253.36-87.22C577.36,365,535.61,339.2,471.59,323.37Z"/><path d="M230.48,327.25a4.26,4.26,0,0,1,.77,2.35,9.49,9.49,0,0,1-2.23,5.62,16.94,16.94,0,0,1-6.33,5,21.19,21.19,0,0,1-9.43,2q-8.28,0-12.11-4.17a15.41,15.41,0,0,1-3.83-10.84,32.93,32.93,0,0,1,2.6-12.3,1.54,1.54,0,0,1,1.42-1.11,1.17,1.17,0,0,1,.86.37,1.22,1.22,0,0,1,.37.92,3.43,3.43,0,0,1-.12.68,28.27,28.27,0,0,0-1.42,8,8.57,8.57,0,0,0,2.87,6.89q2.88,2.43,9.67,2.44a30.25,30.25,0,0,0,7.88-1,12.54,12.54,0,0,0,5.41-2.57,18.1,18.1,0,0,0-4.85-3.61,56.1,56.1,0,0,0-7.63-3.49l1.85-7.17c.21-.87.6-1.3,1.17-1.3a3.69,3.69,0,0,1,.62.12c3.55.7,6.22,1.15,8,1.33a47.14,47.14,0,0,0,4.88.28v9.15h-.62a11.55,11.55,0,0,1-2.16-.25A18.17,18.17,0,0,1,230.48,327.25Z"/><path d="M260.35,315.63v9.15h-4.63a23.29,23.29,0,0,1-5.9-.59,13.13,13.13,0,0,1-4.54-2.5,37.09,37.09,0,0,1-6.65,2.28,26.21,26.21,0,0,1-6.09.81h-1.79v-9.15h1.3c2.14,0,4.35-.1,6.61-.31l-5.31-5.62,2.28-8.9a32.68,32.68,0,0,1,5.41-1.33,36.69,36.69,0,0,1,6.09-.53,19,19,0,0,1,7.42,1.27,5,5,0,0,1,3.33,4.11c.08.82.13,1.42.13,1.79a14,14,0,0,1-4,9.52Zm-14.58-1.36a22.61,22.61,0,0,0,5.93-2.16c1.4-.83,2.1-1.67,2.1-2.54s-.53-1.36-1.6-1.73a13.93,13.93,0,0,0-4.39-.55,41.82,41.82,0,0,0-7.54.74A62.65,62.65,0,0,0,245.77,314.27Z"/><path d="M256,332.62c0-.12.12-.3.37-.55l3.21-3.22a.87.87,0,0,1,.56-.3.67.67,0,0,1,.49.3l3.28,3.22c.25.25.37.43.37.55a1.69,1.69,0,0,1-.37.62l-3.21,3.22a.73.73,0,0,1-.5.24.9.9,0,0,1-.49-.24l-3.34-3.22A1,1,0,0,1,256,332.62Zm25-17v9.15h-.31a11.36,11.36,0,0,1-5.63-1.18,7.91,7.91,0,0,1-3.21-3.77,11.39,11.39,0,0,1-4.64,3.43,16.84,16.84,0,0,1-7.16,1.52h-.25v-9.15h.25a41.92,41.92,0,0,0,5.84-.4,11.26,11.26,0,0,0,4.17-1.21l-1.24-5.74,4.14-3.47a.79.79,0,0,1,.56-.24c.2,0,.35.16.43.49l1,6.49a6.85,6.85,0,0,0,.74,2.44,3,3,0,0,0,1.64,1.24,10.65,10.65,0,0,0,3.37.4Zm-16,17c0-.12.12-.3.37-.55l3.21-3.22a.87.87,0,0,1,.56-.3.67.67,0,0,1,.49.3l3.28,3.22c.25.25.37.43.37.55a1.69,1.69,0,0,1-.37.62l-3.21,3.22a.73.73,0,0,1-.5.24.9.9,0,0,1-.49-.24l-3.34-3.22A1,1,0,0,1,265,332.62Z"/><path d="M299.72,315.63v9.15h-.25a11.52,11.52,0,0,1-5.47-1.09,7.84,7.84,0,0,1-3.24-3.55,8.51,8.51,0,0,1-3.61,3.28,13.65,13.65,0,0,1-6.4,1.36h-.25v-9.15h.25a34.53,34.53,0,0,0,4.54-.31,9.08,9.08,0,0,0,3.55-1.05l-.74-3.34-.55-2.47,4.32-3.65a.79.79,0,0,1,.56-.24c.2,0,.35.16.43.49l1.05,6.49a11.2,11.2,0,0,0,.65,2.53,2.36,2.36,0,0,0,1.42,1.15,10.88,10.88,0,0,0,3.49.4Zm-17.8,17.24a1.08,1.08,0,0,1,.37-.68l3.46-3.52a.9.9,0,0,1,.62-.31.71.71,0,0,1,.56.31l3.52,3.52c.29.25.43.45.43.62s-.14.37-.43.62L287,337a.75.75,0,0,1-.56.25.89.89,0,0,1-.55-.25l-3.59-3.58C282.05,333.22,281.92,333,281.92,332.87Z"/><path d="M330.74,301.45a11.39,11.39,0,0,1,2.35,7.26,13.88,13.88,0,0,1-.92,5.19,14.56,14.56,0,0,1-8.22,8.25q-6.06,2.63-15.27,2.63h-9.76v-9.15h3.27l1.05-1.61q-.12-4.57-.74-13.07t-1.23-14.43l6.55-5.13a1.63,1.63,0,0,1,.92-.37c.62,0,.93.41.93,1.24q.12,5-.43,18.78a21.51,21.51,0,0,1-1.55,6.86q7.79-9.45,15.45-9.45C326.64,298.45,329.18,299.45,330.74,301.45Zm-12.91,13.81a26.37,26.37,0,0,0,7.54-1.58,7.47,7.47,0,0,0,4.2-3.61,4.64,4.64,0,0,0-2.35-2.29,9.25,9.25,0,0,0-4.51-1,17,17,0,0,0-10.2,2.9,29.82,29.82,0,0,0-6.36,6Q313.32,315.63,317.83,315.26Z"/><path d="M349.56,323.14a6.34,6.34,0,0,1-1.64-4.48,12.64,12.64,0,0,1,1.83-6.55,16.26,16.26,0,0,1,4.6-5.07,2.52,2.52,0,0,1,1.18-.37,1.22,1.22,0,0,1,.92.37,1.18,1.18,0,0,1,.37.86,1.87,1.87,0,0,1-.68,1.3,12.73,12.73,0,0,0-2.47,3.06,6.24,6.24,0,0,0-.93,3.06l1-.06a4.74,4.74,0,0,1,3.31,8.09,4.48,4.48,0,0,1-3.31,1.43A5.1,5.1,0,0,1,349.56,323.14Z"/><path d="M397.33,327.25a4.2,4.2,0,0,1,.78,2.35,9.55,9.55,0,0,1-2.23,5.62,16.94,16.94,0,0,1-6.33,5,21.22,21.22,0,0,1-9.43,2q-8.28,0-12.11-4.17a15.36,15.36,0,0,1-3.83-10.84,33.1,33.1,0,0,1,2.59-12.3,1.56,1.56,0,0,1,1.42-1.11,1.19,1.19,0,0,1,.87.37,1.22,1.22,0,0,1,.37.92,3.43,3.43,0,0,1-.12.68,28.33,28.33,0,0,0-1.43,8,8.55,8.55,0,0,0,2.88,6.89q2.87,2.43,9.67,2.44a30.25,30.25,0,0,0,7.88-1,12.6,12.6,0,0,0,5.41-2.57,18.1,18.1,0,0,0-4.85-3.61,55.69,55.69,0,0,0-7.64-3.49l1.86-7.17c.2-.87.59-1.3,1.17-1.3a3.88,3.88,0,0,1,.62.12c3.54.7,6.22,1.15,8,1.33a47.32,47.32,0,0,0,4.89.28v9.15h-.62a11.74,11.74,0,0,1-2.17-.25A17.59,17.59,0,0,1,397.33,327.25Z"/><path d="M416.83,315.63v9.15h-.25a11.52,11.52,0,0,1-5.47-1.09,7.79,7.79,0,0,1-3.24-3.55,8.48,8.48,0,0,1-3.62,3.28,13.61,13.61,0,0,1-6.39,1.36h-.25v-9.15h.25a34.65,34.65,0,0,0,4.54-.31,9.08,9.08,0,0,0,3.55-1.05l-.74-3.34-.55-2.47,4.32-3.65a.79.79,0,0,1,.56-.24c.2,0,.35.16.43.49l1,6.49a11.2,11.2,0,0,0,.65,2.53,2.36,2.36,0,0,0,1.42,1.15,10.88,10.88,0,0,0,3.49.4ZM399,332.87a1.08,1.08,0,0,1,.37-.68l3.46-3.52a.88.88,0,0,1,.62-.31.71.71,0,0,1,.56.31l3.52,3.52c.29.25.43.45.43.62s-.14.37-.43.62L404.1,337a.76.76,0,0,1-.56.25A.89.89,0,0,1,403,337l-3.59-3.58C399.16,333.22,399,333,399,332.87Z"/><path d="M447.85,301.45a11.39,11.39,0,0,1,2.35,7.26,13.88,13.88,0,0,1-.92,5.19,14.56,14.56,0,0,1-8.22,8.25q-6.06,2.63-15.27,2.63H416v-9.15h3.27l1.05-1.61q-.12-4.57-.74-13.07t-1.23-14.43l6.55-5.13a1.58,1.58,0,0,1,.92-.37c.62,0,.93.41.93,1.24q.12,5-.43,18.78a21.78,21.78,0,0,1-1.55,6.86q7.79-9.45,15.45-9.45C443.75,298.45,446.29,299.45,447.85,301.45Zm-12.91,13.81a26.37,26.37,0,0,0,7.54-1.58,7.47,7.47,0,0,0,4.2-3.61,4.64,4.64,0,0,0-2.35-2.29,9.25,9.25,0,0,0-4.51-1,17,17,0,0,0-10.2,2.9,29.82,29.82,0,0,0-6.36,6Q430.43,315.63,434.94,315.26Z"/><path d="M184.59,359a5,5,0,0,1,1.67-4,5.89,5.89,0,0,1,4-1.43,6,6,0,0,1,4.24,1.67,5.23,5.23,0,0,1,1.45,4.58l-2.66,24.78h-5.87l-2.72-24.78Zm2,39.4a5.19,5.19,0,0,1-1.45-3.74,4.79,4.79,0,0,1,1.45-3.58,5.38,5.38,0,0,1,7.32,0,4.77,4.77,0,0,1,1.48,3.55,5.14,5.14,0,0,1-1.48,3.74,5.19,5.19,0,0,1-7.32,0Z"/><path d="M234.12,401.41a4.18,4.18,0,0,1,.77,2.35,9.54,9.54,0,0,1-2.22,5.62,17,17,0,0,1-6.34,5,21.18,21.18,0,0,1-9.42,2q-8.28,0-12.11-4.17A15.36,15.36,0,0,1,201,401.35a33.1,33.1,0,0,1,2.59-12.3,1.56,1.56,0,0,1,1.42-1.11,1.19,1.19,0,0,1,.87.37,1.22,1.22,0,0,1,.37.92,3.43,3.43,0,0,1-.12.68,28.33,28.33,0,0,0-1.43,8,8.56,8.56,0,0,0,2.88,6.9q2.87,2.43,9.67,2.44a30.25,30.25,0,0,0,7.88-1,12.66,12.66,0,0,0,5.41-2.57,18.1,18.1,0,0,0-4.85-3.61,55.69,55.69,0,0,0-7.64-3.49l1.86-7.17c.2-.87.59-1.3,1.17-1.3a3.88,3.88,0,0,1,.62.12c3.54.7,6.22,1.15,8,1.33a47.29,47.29,0,0,0,4.88.28v9.15H234a11.74,11.74,0,0,1-2.17-.25A17.59,17.59,0,0,1,234.12,401.41Z"/><path d="M247,379.25a33.4,33.4,0,0,1,.89,7.45,23.7,23.7,0,0,1-.18,3,10.24,10.24,0,0,1-3.92,6.64q-3.32,2.63-8.87,2.63h-.62v-9.15h.25a35.13,35.13,0,0,0,5.87-.43,6,6,0,0,0,3.33-1.3,104.89,104.89,0,0,0-5.25-9.33l4.76-5.13a1.52,1.52,0,0,1,1-.62.84.84,0,0,1,.8.62A23.38,23.38,0,0,1,247,379.25Zm-11.28-14.43a1,1,0,0,1,.37-.68l3.46-3.52a.88.88,0,0,1,.62-.31.71.71,0,0,1,.56.31l3.52,3.52c.29.25.43.46.43.62s-.14.37-.43.62L240.83,369a.76.76,0,0,1-.56.25.94.94,0,0,1-.56-.25l-3.58-3.58C235.88,365.17,235.76,365,235.76,364.82Z"/><path d="M261.47,358.64q0,8.28-.25,19c-.16,7.14-.45,12.37-.86,15.66a69.14,69.14,0,0,1-2.17,6.86,1.75,1.75,0,0,1-.52.77,1,1,0,0,1-.65.28.8.8,0,0,1-.65-.34,1.68,1.68,0,0,1-.34-1q-.61-9.63-2.47-32.5c-.25-2.31-.44-4.51-.56-6.62l6.49-5.12a1.7,1.7,0,0,1,1-.44c.62,0,.95.44,1,1.3Z"/><path d="M282.91,389.79v9.15h-.31a8,8,0,0,1-3.52-.81A25.69,25.69,0,0,1,279,401a14.93,14.93,0,0,1-3.34,8.19,20.88,20.88,0,0,1-6.3,5.25,13.86,13.86,0,0,1-5.38,1.88c-.7,0-2-.5-3.8-1.63a29.88,29.88,0,0,1-4.6-3.43,1,1,0,0,1-.43-.75c0-.53.41-.84,1.23-.92a36.73,36.73,0,0,0,8.1-1.92,34.1,34.1,0,0,0,6.79-3.24A10.62,10.62,0,0,0,275,401a126.5,126.5,0,0,0-6.79-14.83l4.82-5.13c.45-.46.8-.68,1.05-.68s.57.24.86.74q.68,1.42.93,2l.55,1.23a33.38,33.38,0,0,0,1.73,3.53,3.8,3.8,0,0,0,1.52,1.42,6.61,6.61,0,0,0,2.75.43Z"/><path d="M300.19,379.25a33.4,33.4,0,0,1,.89,7.45,23.7,23.7,0,0,1-.18,3,9.89,9.89,0,0,1-4.39,6.64q-3.7,2.56-11.19,2.63h-2.84v-9.15h2.41a63.39,63.39,0,0,0,7.66-.37,9.05,9.05,0,0,0,4.33-1.42q-2.53-5-5.19-9.27l4.69-5.13a1.74,1.74,0,0,1,1.06-.62,1.06,1.06,0,0,1,.86.62A23.38,23.38,0,0,1,300.19,379.25Zm-9.31,27.6a1,1,0,0,1-.37.61l-3.15,3.22a.87.87,0,0,1-.49.31,2.53,2.53,0,0,1-.5-.31L283,407.46a.67.67,0,0,1-.37-.55c0-.13.12-.31.37-.56l3.21-3.27a.84.84,0,0,1,.56-.31c.12,0,.28.1.49.31l3.21,3.27C290.76,406.56,290.88,406.72,290.88,406.85Zm9,.06c0,.12-.13.31-.38.55l-3.21,3.22c-.21.2-.35.31-.43.31a1.68,1.68,0,0,1-.56-.31l-3.34-3.22a.85.85,0,0,1-.3-.55,1.49,1.49,0,0,1,.3-.56l3.22-3.27a.82.82,0,0,1,.56-.31c.12,0,.28.1.49.31l3.27,3.27C299.72,406.6,299.85,406.78,299.85,406.91Z"/><path d="M314.62,358.64q0,8.28-.25,19c-.17,7.14-.46,12.37-.87,15.66a65.18,65.18,0,0,1-2.16,6.86,1.69,1.69,0,0,1-.53.77,1,1,0,0,1-.64.28.8.8,0,0,1-.65-.34,1.68,1.68,0,0,1-.34-1q-.63-9.63-2.47-32.5c-.25-2.31-.44-4.51-.56-6.62l6.49-5.12a1.7,1.7,0,0,1,1-.44c.61,0,.94.44,1,1.3Z"/><path d="M359,389.79v9.15h-.44c-3.25,0-5.8-.75-7.63-2.23s-3.16-3.85-4-7.11c-1.69,2.44-2.93,4.12-3.71,5.07a14.32,14.32,0,0,1-1.55.06,11.63,11.63,0,0,1-7.81-2.59q-3.06-2.59-3.06-7.91a23.14,23.14,0,0,1,.31-3.46q.67-1.54,4.69-3.93t8.65-4.6c0-.45-.12-1.16-.24-2.1l5.44-5.13a1.47,1.47,0,0,1,1-.44.83.83,0,0,1,.68.31,1.45,1.45,0,0,1,.25.93q0,1.11.31,6.86l.37,7.48a32.22,32.22,0,0,0,.68,6,4.52,4.52,0,0,0,1.76,2.79,7.34,7.34,0,0,0,3.93.83Zm-22-4.6a26.29,26.29,0,0,0,6.39.71c.79,0,1.71,0,2.78-.13l-.12-.8c-.25-1.69-.43-3.19-.56-4.51l-.3-2.47a56.81,56.81,0,0,0-6.25,2.28,25.94,25.94,0,0,0-4.82,2.66C334.18,384,335.14,384.71,337,385.19Z"/><path d="M379.63,389.79v9.15h-.31a11.3,11.3,0,0,1-5.62-1.18,7.87,7.87,0,0,1-3.22-3.77,11.42,11.42,0,0,1-4.63,3.43,16.91,16.91,0,0,1-7.17,1.52h-.25v-9.15h.25a41.82,41.82,0,0,0,5.84-.4,11.26,11.26,0,0,0,4.17-1.21l-1.24-5.74,4.14-3.47a.79.79,0,0,1,.56-.24c.21,0,.35.16.43.49l1,6.49a7.06,7.06,0,0,0,.74,2.44,3,3,0,0,0,1.64,1.24,10.65,10.65,0,0,0,3.37.4ZM359,370.94c0-.12.12-.31.37-.56l3.21-3.21a.84.84,0,0,1,.56-.31.65.65,0,0,1,.49.31l3.28,3.21c.24.25.37.44.37.56a2,2,0,0,1-.37.62l-3.22,3.21a.69.69,0,0,1-.49.25.91.91,0,0,1-.5-.25l-3.33-3.21A1,1,0,0,1,359,370.94Zm8.9,0c0-.12.12-.31.37-.56l3.21-3.21a.84.84,0,0,1,.56-.31.65.65,0,0,1,.49.31l3.28,3.21c.24.25.37.44.37.56a2,2,0,0,1-.37.62l-3.22,3.21a.69.69,0,0,1-.49.25.88.88,0,0,1-.5-.25l-3.33-3.21A1,1,0,0,1,367.89,370.94Z"/><path d="M377.16,407.22a1,1,0,0,1,.37-.68L381,403a.88.88,0,0,1,.61-.3.71.71,0,0,1,.56.3l3.52,3.53c.29.24.44.45.44.62s-.15.37-.44.61l-3.46,3.59a.77.77,0,0,1-.55.24,1,1,0,0,1-.56-.24l-3.58-3.59A.8.8,0,0,1,377.16,407.22Zm21.19-17.43v9.15h-.24a11.46,11.46,0,0,1-5.47-1.09,7.8,7.8,0,0,1-3.25-3.55,8.45,8.45,0,0,1-3.61,3.28,13.65,13.65,0,0,1-6.4,1.36h-.25v-9.15h.25a34.53,34.53,0,0,0,4.54-.31,9.2,9.2,0,0,0,3.56-1.05l-.75-3.34-.55-2.47L390.5,379a.79.79,0,0,1,.56-.24c.21,0,.35.16.43.49l1.05,6.49a11.2,11.2,0,0,0,.65,2.53,2.36,2.36,0,0,0,1.42,1.15,10.91,10.91,0,0,0,3.5.4Z"/><path d="M410.9,367.29q-.25,9.4-.62,18.48-.18,6.56-3,9.86t-8.84,3.31h-.55v-9.15h.74a22.17,22.17,0,0,0,4.11-.28,3,3,0,0,0,1.88-.93,3.05,3.05,0,0,0,.5-1.88,11.9,11.9,0,0,0-.06-1.36q-.69-9.51-2.35-24.54l6.49-5.12a1.7,1.7,0,0,1,1-.44c.61,0,.92.44.92,1.3S411.06,361,410.9,367.29Z"/><path d="M425.11,358.64q0,8.28-.25,19c-.16,7.14-.45,12.37-.86,15.66a69.14,69.14,0,0,1-2.17,6.86,1.67,1.67,0,0,1-.52.77,1,1,0,0,1-.65.28.82.82,0,0,1-.65-.34,1.76,1.76,0,0,1-.34-1q-.62-9.63-2.47-32.5c-.25-2.31-.43-4.51-.56-6.62l6.49-5.12a1.7,1.7,0,0,1,1-.44c.62,0,.95.44,1,1.3Z"/><path d="M458.33,377.21a18.56,18.56,0,0,1,3.67,7.7A44.84,44.84,0,0,1,463.24,396a21.45,21.45,0,0,1-2.78,11.31,19.62,19.62,0,0,1-6.49,6.8,13.63,13.63,0,0,1-6.43,2.28c-.7,0-2-.5-3.83-1.63a29.3,29.3,0,0,1-4.63-3.43,1,1,0,0,1-.44-.75c0-.49.41-.8,1.24-.92a38.51,38.51,0,0,0,12.27-3.87q5.52-2.86,7-7.44a15.08,15.08,0,0,1-6.18,1.05,12.8,12.8,0,0,1-5.66-1.24,8.82,8.82,0,0,1-4-3.83,11.38,11.38,0,0,1-1.11-6.49,19.49,19.49,0,0,1,1.42-6.18,13.87,13.87,0,0,1,3.49-5.16,7.55,7.55,0,0,1,5.28-2.07A7.63,7.63,0,0,1,458.33,377.21Zm-9.89,12.27a14.94,14.94,0,0,0,10.16-.31,11,11,0,0,0-3.12-4.73,6.77,6.77,0,0,0-3.8-1.82,5.46,5.46,0,0,0-4.11,1.27,5.52,5.52,0,0,0-2,3.37A4.28,4.28,0,0,0,448.44,389.48Z"/><ellipse class="cls-2" cx="396.89" cy="151.55" rx="86.5" ry="42.47"/></g></svg>