<svg xmlns="http://www.w3.org/2000/svg" viewBox="0 0 1152 648"><defs><style>.cls-1{fill:#fde5da;}.cls-2{fill:#fff;}.cls-3{fill:#ff5c39;}.cls-4{fill:#337211;}.cls-5{fill:#29316d;}.cls-6{fill:#f6e4d9;}.cls-7{fill:#ecda37;}.cls-8{fill:#ff5c36;}</style></defs><g id="Layer_1" data-name="Layer 1"><rect class="cls-1" y="0.01" width="1152" height="648"/><path class="cls-2" d="M419.59,442.28c20.09-8.95,32.07-20.17,32.07-32.36,0-29.26-68.9-53-153.9-53s-153.91,23.72-153.91,53c0,12.19,12,23.41,32.07,32.36-52.86,13.06-87.32,34.39-87.32,58.5,0,39.77,93.64,72,209.16,72s209.15-32.24,209.15-72C506.91,476.67,472.45,455.34,419.59,442.28Z"/><path d="M297.76,577C178.14,577,84.43,543.5,84.43,500.78c0-23.9,28.9-45.4,79.76-59.72-16.08-9.08-24.51-19.73-24.51-31.14,0-16.07,17-30.77,47.89-41.4,29.5-10.16,68.63-15.75,110.19-15.75s80.69,5.59,110.18,15.75c30.88,10.63,47.89,25.33,47.89,41.4,0,11.41-8.43,22.06-24.51,31.14,50.86,14.32,79.76,35.82,79.76,59.72C511.08,543.5,417.38,577,297.76,577Zm0-215.85C208.19,361.1,148,386.35,148,409.92c0,9.91,10.51,20.05,29.59,28.55a4.16,4.16,0,0,1-.69,7.85c-52.7,13-84.15,33.39-84.15,54.46,0,17.07,21.3,34.19,58.45,47,39.08,13.45,91.12,20.86,146.54,20.86s107.46-7.41,146.54-20.86c37.14-12.79,58.45-29.91,58.45-47,0-21.07-31.46-41.43-84.16-54.46a4.17,4.17,0,0,1-.69-7.85c19.09-8.5,29.6-18.64,29.6-28.55C447.5,386.35,387.33,361.1,297.76,361.1Z"/><path d="M225.25,444.9a4.23,4.23,0,0,1,.13,1.13v3.51a4.23,4.23,0,0,1-.13,1.13c-.08.33-.17.49-.28.49h-1.61a4.82,4.82,0,0,1,0,.69,8,8,0,0,1-2,5.55,11.9,11.9,0,0,1-5.34,3.33,23.51,23.51,0,0,1-7.37,1.1q-5.66,0-8.12-2.15c-1.65-1.42-2.47-3.57-2.47-6.42a57.38,57.38,0,0,1,.93-6.91l1-6.42,4.12.89a109.14,109.14,0,0,0-1.57,11.43,2.28,2.28,0,0,0,1.84,2.2,13.09,13.09,0,0,0,4.26.63,32.38,32.38,0,0,0,6.3-.51,9.66,9.66,0,0,0,4-1.67,1.24,1.24,0,0,0-.93-1.42,13.07,13.07,0,0,0-3.47-.32h-2.06l1.13-6.75H225C225.08,444.41,225.17,444.57,225.25,444.9Z"/><path d="M248.47,444.9a6.16,6.16,0,0,1,.1,1.13v3.51a6,6,0,0,1-.1,1.15c-.07.31-.16.47-.27.47h-4.72a9.53,9.53,0,0,1-4.08-.75,6.63,6.63,0,0,1-2.59-2.16q-2.34,2.91-7.11,2.91H225c-.11,0-.19-.16-.26-.47a5.28,5.28,0,0,1-.1-1.15V446a5.39,5.39,0,0,1,.1-1.13c.07-.33.15-.49.26-.49h5.17a12.43,12.43,0,0,1,1.82.12q-1.25-2.17-2.1-3.51a15.82,15.82,0,0,0-1.17-1.68q-.33-.34-.57-.3l-1,.12.21-5.38a68.54,68.54,0,0,1,11.07-1,12.6,12.6,0,0,1,5.79,1,3.59,3.59,0,0,1,1.76,3.42v1.45a6.88,6.88,0,0,1-1,2.71,15.39,15.39,0,0,1-2.06,3.11c.65-.05,1.25-.08,1.82-.08h3.47C248.31,444.41,248.4,444.57,248.47,444.9Zm-8.95-3a7.67,7.67,0,0,0,1.82-2.93,5,5,0,0,0-1.38-.35,16.46,16.46,0,0,0-2.26-.14,24.57,24.57,0,0,0-4.61.33,2.33,2.33,0,0,1,.73.66c.27.34.77,1,1.5,2.08l1.53,2.27A6.12,6.12,0,0,0,239.52,441.93Z"/><path d="M263.94,444.9A5.39,5.39,0,0,1,264,446v3.51a5.28,5.28,0,0,1-.1,1.15c-.07.31-.15.47-.26.47a14,14,0,0,1-5.17-.71,3.67,3.67,0,0,1-2.18-2.36,4.61,4.61,0,0,1-2.63,2.38,16.43,16.43,0,0,1-5.5.69c-.1,0-.19-.16-.26-.47a6,6,0,0,1-.1-1.15V446a6.16,6.16,0,0,1,.1-1.13c.07-.33.16-.49.26-.49a13.14,13.14,0,0,0,5.82-1l-.89-7.23,5.14-.57.36,8a13.69,13.69,0,0,0,5.05.73C263.79,444.41,263.87,444.57,263.94,444.9ZM251.28,455l4,3.27-3.28,4L248,459Zm6.74,0,4,3.27-3.27,4-4-3.27Z"/><path d="M279.42,444.9a6.16,6.16,0,0,1,.1,1.13v3.51a6,6,0,0,1-.1,1.15c-.07.31-.16.47-.27.47a14.07,14.07,0,0,1-5.17-.71,3.7,3.7,0,0,1-2.18-2.36,4.58,4.58,0,0,1-2.63,2.38,16.4,16.4,0,0,1-5.49.69c-.11,0-.2-.16-.26-.47a5.28,5.28,0,0,1-.1-1.15V446a5.39,5.39,0,0,1,.1-1.13c.06-.33.15-.49.26-.49a13.14,13.14,0,0,0,5.82-1l-.89-7.23,5.13-.57.36,8a13.72,13.72,0,0,0,5,.73C279.26,444.41,279.35,444.57,279.42,444.9ZM269.94,455l4.53,3.63L271,462.8l-4.52-3.64Z"/><path d="M303.9,434.45q2.16,2.69,2.16,7.94a6.71,6.71,0,0,1-1.33,4.57,10.88,10.88,0,0,1-5.31,3.11,30,30,0,0,1-8.63,1.09H279.15c-.1,0-.19-.16-.26-.47a6,6,0,0,1-.1-1.15V446a6.16,6.16,0,0,1,.1-1.13c.07-.33.16-.49.26-.49h3.72l.65-.91a13.14,13.14,0,0,0,.73-1.15,2.77,2.77,0,0,0,.38-1.13,22.54,22.54,0,0,0,.1-2.67q0-3-.36-17.33l5-.89.08,12.89a15.27,15.27,0,0,1-.24,3.15q4.6-4.61,8.24-4.61Q301.74,431.76,303.9,434.45ZM296,444.13a30.6,30.6,0,0,0,5.4-1.09,7.15,7.15,0,0,0-1-4.16,3.28,3.28,0,0,0-2.83-1.42,8.22,8.22,0,0,0-4.57,1.86,28.06,28.06,0,0,0-5.21,5.09h2.51A53.51,53.51,0,0,0,296,444.13Z"/><path d="M321.24,445.28a3.67,3.67,0,0,1,1.11,2.69,3.53,3.53,0,0,1-1.11,2.62,4,4,0,0,1-5.64-.14,5,5,0,0,1-1-3.29,13.16,13.16,0,0,1,1.05-4.85,17.62,17.62,0,0,1,2.79-4.73l2.58,2.67a12.49,12.49,0,0,0-2.58,3.92h.16A3.64,3.64,0,0,1,321.24,445.28Z"/><path d="M354.75,444.9a4.72,4.72,0,0,1,.12,1.13v3.51a4.72,4.72,0,0,1-.12,1.13c-.08.33-.17.49-.28.49h-1.62a3.67,3.67,0,0,1,0,.69,8,8,0,0,1-2,5.55,11.81,11.81,0,0,1-5.33,3.33,23.51,23.51,0,0,1-7.37,1.1c-3.78,0-6.48-.72-8.13-2.15s-2.46-3.57-2.46-6.42a57.38,57.38,0,0,1,.93-6.91l1-6.42,4.12.89a110.49,110.49,0,0,0-1.58,11.43,2.29,2.29,0,0,0,1.84,2.2,13.19,13.19,0,0,0,4.27.63,32.38,32.38,0,0,0,6.3-.51,9.66,9.66,0,0,0,4-1.67,1.25,1.25,0,0,0-.93-1.42,13.07,13.07,0,0,0-3.47-.32h-2.07l1.14-6.75h11.27C354.58,444.41,354.67,444.57,354.75,444.9Z"/><path d="M370.21,444.9a6.16,6.16,0,0,1,.1,1.13v3.51a6,6,0,0,1-.1,1.15c-.07.31-.16.47-.27.47a14.07,14.07,0,0,1-5.17-.71,3.7,3.7,0,0,1-2.18-2.36,4.58,4.58,0,0,1-2.63,2.38,16.4,16.4,0,0,1-5.49.69c-.11,0-.2-.16-.26-.47a5.28,5.28,0,0,1-.1-1.15V446a5.39,5.39,0,0,1,.1-1.13c.06-.33.15-.49.26-.49a13.14,13.14,0,0,0,5.82-1l-.89-7.23,5.13-.57.36,8a13.72,13.72,0,0,0,5.05.73C370.05,444.41,370.14,444.57,370.21,444.9ZM360.73,455l4.53,3.63-3.48,4.21-4.52-3.64Z"/><path d="M394.69,434.45q2.16,2.69,2.16,7.94a6.71,6.71,0,0,1-1.33,4.57,10.88,10.88,0,0,1-5.31,3.11,30,30,0,0,1-8.63,1.09H369.94c-.1,0-.19-.16-.26-.47a5.28,5.28,0,0,1-.1-1.15V446a5.39,5.39,0,0,1,.1-1.13c.07-.33.16-.49.26-.49h3.72l.65-.91a13.14,13.14,0,0,0,.73-1.15,2.77,2.77,0,0,0,.38-1.13,22.54,22.54,0,0,0,.1-2.67q0-3-.36-17.33l5-.89.08,12.89a14.46,14.46,0,0,1-.25,3.15c3.08-3.07,5.82-4.61,8.25-4.61Q392.53,431.76,394.69,434.45Zm-7.88,9.68a30.6,30.6,0,0,0,5.4-1.09,7.15,7.15,0,0,0-1-4.16,3.28,3.28,0,0,0-2.83-1.42,8.22,8.22,0,0,0-4.57,1.86,28.06,28.06,0,0,0-5.21,5.09h2.51A53.51,53.51,0,0,0,386.81,444.13Z"/><path d="M195.21,499.1a4,4,0,0,1,0-5.54,3.79,3.79,0,0,1,2.75-1.11,3.73,3.73,0,0,1,2.77,1.13,3.79,3.79,0,0,1,1.11,2.75,3.73,3.73,0,0,1-1.13,2.77,4,4,0,0,1-5.5,0Zm5-30.32,0,20-4.48.68-.85-19.75Z"/><path d="M234.29,493.38a4.78,4.78,0,0,1,.12,1.13V498a4.72,4.72,0,0,1-.12,1.13c-.09.32-.18.49-.29.49h-1.61a4.76,4.76,0,0,1,0,.68,8.08,8.08,0,0,1-2,5.56,12,12,0,0,1-5.34,3.33,23.51,23.51,0,0,1-7.37,1.09q-5.66,0-8.12-2.14t-2.47-6.42a57.13,57.13,0,0,1,.93-6.91l1-6.43,4.12.89a109.17,109.17,0,0,0-1.57,11.44,2.28,2.28,0,0,0,1.84,2.2,13.1,13.1,0,0,0,4.26.62,32.47,32.47,0,0,0,6.3-.5,9.8,9.8,0,0,0,4-1.68,1.23,1.23,0,0,0-.93-1.41,12.65,12.65,0,0,0-3.47-.32H221.6l1.13-6.75H234C234.11,492.9,234.2,493.06,234.29,493.38Z"/><path d="M245.56,492.57a6.87,6.87,0,0,1-.61,2.89,5.34,5.34,0,0,1-1.9,2.25q-2.87,1.94-9.05,1.94c-.11,0-.19-.16-.26-.47a5.34,5.34,0,0,1-.1-1.15v-3.52a5.46,5.46,0,0,1,.1-1.13c.07-.32.15-.48.26-.48a35.53,35.53,0,0,0,4.08-.2,9.54,9.54,0,0,0,2.87-.77l-1-8.65,5.17-.89Q245.55,488.62,245.56,492.57ZM241.4,470.8l4.52,3.63-3.47,4.2L237.92,475Z"/><path d="M250.16,469.71l5.34-.89.08,30.83-4.45.56Z"/><path d="M274.39,493.38a6.24,6.24,0,0,1,.1,1.13V498a6.06,6.06,0,0,1-.1,1.15c-.07.31-.16.47-.27.47h-1.33a5.43,5.43,0,0,1-2.22-.47,4.82,4.82,0,0,1-1.78-1.35,13,13,0,0,1-3.09,7.88q-2.9,3.46-9.48,6.58l-3.55-5.13a37.23,37.23,0,0,0,8-4.46,12.8,12.8,0,0,0,3.59-4.31l-1.69-12.32,5.33-1.09.61,5.37a2.38,2.38,0,0,0,1.17,2,6.8,6.8,0,0,0,3.15.55h1.33Q274.29,492.9,274.39,493.38Z"/><path d="M274.41,503.44l4,3.28-3.28,4-4-3.28Zm11.27-10.87a6.87,6.87,0,0,1-.61,2.89,5.27,5.27,0,0,1-1.9,2.25q-2.87,1.94-9.05,1.94c-.1,0-.19-.16-.26-.47a5.34,5.34,0,0,1-.1-1.15v-3.52a5.46,5.46,0,0,1,.1-1.13c.07-.32.16-.48.26-.48a35.53,35.53,0,0,0,4.08-.2,9.54,9.54,0,0,0,2.87-.77l-1-8.65,5.18-.89C285.54,486.54,285.68,489.93,285.68,492.57Zm-4.53,10.87,4,3.28-3.27,4-4-3.28Z"/><path d="M290.29,469.71l5.33-.89.08,30.83-4.45.56Z"/><path d="M324.49,493.38a6.24,6.24,0,0,1,.1,1.13V498a6.06,6.06,0,0,1-.1,1.15c-.07.31-.16.47-.27.47h-2.1a6,6,0,0,1-3.47-1,5.15,5.15,0,0,1-2-2.61l-.2.48a2.6,2.6,0,0,1-1.84,1.5,16.32,16.32,0,0,1-3.94.36,6.06,6.06,0,0,1-4-1.23,4.53,4.53,0,0,1-1.46-3.66,13.06,13.06,0,0,1,.79-4.87,8.52,8.52,0,0,1,2.63-3.39,24.08,24.08,0,0,1,5.23-3l-.4-2.95,4.84-1.41,1.14,11a13.11,13.11,0,0,0,.4,2.3,2.22,2.22,0,0,0,.89,1.25,3.49,3.49,0,0,0,2,.45h1.57Q324.39,492.9,324.49,493.38Zm-9.19-1.82-.65-4.48q-4.81,1.82-5.37,4.93a6.32,6.32,0,0,0,2.06.32A12.68,12.68,0,0,0,315.3,491.56Z"/><path d="M340,493.38a5.46,5.46,0,0,1,.1,1.13V498a5.34,5.34,0,0,1-.1,1.15c-.07.31-.15.47-.26.47a14,14,0,0,1-5.17-.71,3.67,3.67,0,0,1-2.18-2.37,4.59,4.59,0,0,1-2.63,2.39,16.43,16.43,0,0,1-5.5.69c-.1,0-.19-.16-.26-.47a5.34,5.34,0,0,1-.1-1.15v-3.52a5.46,5.46,0,0,1,.1-1.13c.07-.32.16-.48.26-.48a13.29,13.29,0,0,0,5.82-1l-.89-7.23,5.14-.57.36,8a13.69,13.69,0,0,0,5.05.73C339.81,492.9,339.89,493.06,340,493.38Zm-12.3-20.32,4,3.27-3.27,4-4-3.27Zm6.75,0,4,3.27-3.28,4-4-3.27Z"/><path d="M355.44,493.38a6.24,6.24,0,0,1,.1,1.13V498a6.06,6.06,0,0,1-.1,1.15c-.07.31-.16.47-.27.47a14.07,14.07,0,0,1-5.17-.71,3.69,3.69,0,0,1-2.18-2.37,4.56,4.56,0,0,1-2.63,2.39,16.4,16.4,0,0,1-5.49.69c-.11,0-.2-.16-.26-.47a5.34,5.34,0,0,1-.1-1.15v-3.52a5.46,5.46,0,0,1,.1-1.13c.06-.32.15-.48.26-.48a13.29,13.29,0,0,0,5.82-1l-.89-7.23,5.13-.57.36,8a13.72,13.72,0,0,0,5.05.73Q355.33,492.9,355.44,493.38ZM346,503.44l4.53,3.64-3.48,4.2-4.52-3.63Z"/><path d="M366.16,495.44a5.27,5.27,0,0,1-1.93,2.27c-1.92,1.29-4.93,1.94-9.06,1.94-.1,0-.19-.16-.26-.47a5.34,5.34,0,0,1-.1-1.15v-3.52a5.46,5.46,0,0,1,.1-1.13c.07-.32.16-.48.26-.48a36.74,36.74,0,0,0,4.15-.2,9,9,0,0,0,2.88-.81L361,469.71l5.34-.89.4,23.75A6.44,6.44,0,0,1,366.16,495.44Z"/><path d="M371.5,469.71l5.33-.89.08,30.83-4.44.56Z"/><path d="M397.7,484.86a10.1,10.1,0,0,1,2.57,4.26,18.81,18.81,0,0,1,.88,5.92,17.64,17.64,0,0,1-3,10q-3,4.5-9.81,7.25l-3.52-5.13a25.22,25.22,0,0,0,6.57-3.41,17.89,17.89,0,0,0,4.34-4.31,25,25,0,0,1-3.23.21,17.39,17.39,0,0,1-2.67-.15,3.49,3.49,0,0,1-1.49-.56,5.9,5.9,0,0,1-1.3-1.36,7.29,7.29,0,0,1-.91-1.57,5.24,5.24,0,0,1-.22-1.66,17,17,0,0,1,.85-5.47,9.16,9.16,0,0,1,2.59-4.06,6.25,6.25,0,0,1,4.32-1.54A5.68,5.68,0,0,1,397.7,484.86Zm-4.18,9.25a17,17,0,0,0,3.19-.24,6.39,6.39,0,0,0-.93-3.78,2.9,2.9,0,0,0-2.46-1.27,2.55,2.55,0,0,0-2.23,1.31,6.87,6.87,0,0,0-.84,3.7A22.28,22.28,0,0,0,393.52,494.11Z"/><path class="cls-1" d="M261.24,313.38a336.81,336.81,0,0,0,476.34,0L499.41,75.21Z"/><path d="M499.41,416.44A339,339,0,0,1,258.12,316.5a4.42,4.42,0,0,1,0-6.24L496.29,72.09a4.42,4.42,0,0,1,6.24,0L740.7,310.26a4.42,4.42,0,0,1,0,6.24A339,339,0,0,1,499.41,416.44ZM267.49,313.36a332.42,332.42,0,0,0,463.84,0L499.41,81.44Z"/><path d="M345.55,337.53l-2.48,2.52a2.06,2.06,0,0,1-2.73.36l-1.91-1.09a1.75,1.75,0,0,1-.74-2.68L362,293.94a1.77,1.77,0,0,1,2.69-.74l3.29,1.88a1.76,1.76,0,0,1,.74,2.69l-7.79,13.7a7.93,7.93,0,0,1,9-.36q7.32,4.15,1.92,13.64l-9.45,16.61q-5.4,9.48-12.71,5.32A8.19,8.19,0,0,1,345.55,337.53Zm19.3-16.14c1.77-3.09,1.41-4.78-.89-6.09s-5.12-.21-6.62,2.43L349,332.49c-1.5,2.63-1,5.61,1.29,6.93s3.93.75,5.69-2.35Z"/><path d="M368,345l.24-.56c1.58-3.61,3.74-5.89,6.78-6.79a23.51,23.51,0,0,1,7.79-1c1.5,0,2.58,0,3.36-.1,1.45-.11,3.45-.89,4.09-2.35l.18-.42c1.31-3,.8-5-1.63-6.09s-4.35-.08-5.66,2.9l-.37.83a1.75,1.75,0,0,1-2.59,1l-3-1.31a1.78,1.78,0,0,1-1-2.66c3.28-7.5,8.46-9.7,15.48-6.63s8.74,8.38,5.43,15.95l-6,13.61a86.23,86.23,0,0,0-3.87,10c-.37,1.41-1.13,1.82-2.45,1.25l-3.19-1.4a1.94,1.94,0,0,1-1.35-2.41,18.77,18.77,0,0,1,.83-3,8.22,8.22,0,0,1-9.54,1.95Q363.92,354.34,368,345Zm15.39,4.91,3.31-7.57-1.93.07a18.15,18.15,0,0,0-5.23.61,6,6,0,0,0-4,3.8l-.21.48C374,350.39,374.73,352,377,353,379.52,354,382.2,352.65,383.42,349.87Z"/><path d="M397,355.44a1.77,1.77,0,0,1,2.48-1.27l3,1a1.77,1.77,0,0,1,1.27,2.48l-.23.72c-1,3.18-.24,5.18,2.29,6s4.38-.26,5.33-3.22l.21-.65c.84-2.6-.49-4.14-3.78-7a20,20,0,0,1-4.83-5.54c-1.51-2.48-1.56-5.52-.35-9.28l0-.14c2.3-7.14,7.41-9.4,14.41-7.14,7.21,2.32,9.66,7.09,7.31,14.38a1.76,1.76,0,0,1-2.48,1.27l-3-1a1.76,1.76,0,0,1-1.27-2.48l.09-.28c1-3.18.24-5.19-2.29-6s-4.38.26-5.33,3.22l-.14.43a4.21,4.21,0,0,0,.56,3.93,19.59,19.59,0,0,0,3.17,3.25,18.64,18.64,0,0,1,4,4.25c2.09,2.66,2.48,5.66,1.16,10.49l-.07.21c-2.3,7.15-7.36,9.5-14.36,7.24C397,367.93,394.58,363,397,355.44Z"/><path d="M424.29,365.7l.13-.59c.82-3.86,2.48-6.53,5.28-8a23.93,23.93,0,0,1,7.44-2.52c1.46-.3,2.52-.54,3.26-.77,1.41-.4,3.21-1.56,3.54-3.12l.1-.44c.68-3.19-.23-5.09-2.83-5.65s-4.28.79-5,4l-.19.89a1.76,1.76,0,0,1-2.34,1.51l-3.19-.68a1.78,1.78,0,0,1-1.49-2.41c1.71-8,6.35-11.2,13.83-9.6s10.25,6.46,8.52,14.54l-3.11,14.53a86.05,86.05,0,0,0-1.79,10.54c-.08,1.46-.74,2-2.15,1.72l-3.41-.73a1.93,1.93,0,0,1-1.8-2.1,18.53,18.53,0,0,1,.2-3.13,8.21,8.21,0,0,1-8.95,3.82Q422.15,375.7,424.29,365.7Zm16.06,1.73,1.73-8.08-1.88.45a18.46,18.46,0,0,0-5,1.65,6,6,0,0,0-3.14,4.52l-.11.52c-.71,3.33.31,4.72,2.76,5.24C437.37,372.3,439.72,370.4,440.35,367.43Z"/><path d="M461.81,380.1a1.76,1.76,0,0,1-2.22,1.69l-3.75-.51a1.76,1.76,0,0,1-1.69-2.21l6.56-48.68a1.77,1.77,0,0,1,2.22-1.69l3.76.51a1.75,1.75,0,0,1,1.68,2.21Z"/><path d="M469.43,373.7l0-.61c.23-3.93,1.46-6.82,4-8.72a24,24,0,0,1,7-3.62c1.4-.53,2.41-.92,3.11-1.26,1.33-.61,2.93-2,3-3.62l0-.46c.19-3.25-1-5-3.65-5.14s-4.11,1.43-4.3,4.68l-.05.91a1.76,1.76,0,0,1-2.08,1.85l-3.26-.19a1.78,1.78,0,0,1-1.84-2.15c.47-8.18,4.57-12,12.21-11.59s11.11,4.82,10.63,13.06l-.86,14.84a86.21,86.21,0,0,0-.17,10.69c.14,1.45-.42,2.1-1.86,2l-3.48-.2a1.94,1.94,0,0,1-2.1-1.8,18.41,18.41,0,0,1-.27-3.12,8.23,8.23,0,0,1-8.27,5.13Q468.84,383.92,469.43,373.7Zm16.14-.73.48-8.25-1.79.73a18.28,18.28,0,0,0-4.7,2.39,6,6,0,0,0-2.41,4.94l0,.53c-.2,3.41,1,4.62,3.52,4.76C483.36,378.23,485.39,376,485.57,373Z"/><path d="M504.73,384.76a1.76,1.76,0,0,1-2.11-1.83l-2.54-35.23a1.77,1.77,0,0,1,1.83-2.11l3.25-.23a1.76,1.76,0,0,1,2.1,1.82l.24,3.25a8,8,0,0,1,7.5-6.62c4-.28,6.64,1.43,7.9,5.21a8.27,8.27,0,0,1,7.6-6.32q8.16-.6,9,10.3l2,27.14a1.77,1.77,0,0,1-1.83,2.11l-3.78.27a1.77,1.77,0,0,1-2.11-1.82l-1.91-26.62c-.26-3.63-1.41-4.76-3.91-4.58s-4.14,2.58-3.92,5.68l1.88,26.08a1.76,1.76,0,0,1-1.82,2.11l-3.71.27a1.77,1.77,0,0,1-2.11-1.83l-1.91-26.61c-.26-3.63-1.41-4.76-3.91-4.58s-4.14,2.57-3.92,5.67l1.88,26.09a1.77,1.77,0,0,1-1.82,2.11Z"/><path d="M552.79,379.74a1.76,1.76,0,0,1-2.29-1.59l-1.35-7.46a1.76,1.76,0,0,1,1.59-2.29l3.73-.67a1.76,1.76,0,0,1,2.29,1.58l1.35,7.46a1.76,1.76,0,0,1-1.59,2.29Z"/><path d="M559.64,350.52q-3.15-12.11,8.07-15t14.38,9.17l.4,1.54c.27,1-.26,1.72-1.51,2l-3.08.81a1.76,1.76,0,0,1-2.4-1.41l-.58-2.2c-.82-3.16-2.54-4.35-5.26-3.65s-3.7,2.62-2.88,5.77L571.33,365c.83,3.15,2.62,4.33,5.34,3.62s3.63-2.59,2.81-5.75l-.77-2.93a1.77,1.77,0,0,1,1.41-2.41l3.08-.8a1.77,1.77,0,0,1,2.41,1.41l.49,1.91q3.17,12.1-8.06,15t-14.38-9.18Z"/><path d="M592.43,358.07l-5.57-14.91c-2.92-7.81-.69-13.09,6.77-15.88s12.53-.23,15.45,7.58l5.58,14.91q4.37,11.72-6.7,15.85C600.5,368.41,595.35,365.88,592.43,358.07Zm15.43-4.63-6.32-16.9c-1.14-3.05-3-4.06-5.6-3.08s-3.42,3-2.28,6L600,356.38c1.15,3.06,3,4,5.68,3.06S609,356.49,607.86,353.44Z"/><path d="M629.71,356.14a1.77,1.77,0,0,1-2.67-.81l-16.65-31.15a1.76,1.76,0,0,1,.81-2.67l2.87-1.54a1.76,1.76,0,0,1,2.67.81l1.54,2.88a8,8,0,0,1,4.16-9.11c3.54-1.89,6.64-1.4,9.33,1.55a8.28,8.28,0,0,1,4.37-8.87q7.22-3.86,12.37,5.77l12.83,24a1.77,1.77,0,0,1-.81,2.67l-3.35,1.79a1.75,1.75,0,0,1-2.66-.81l-12.58-23.53c-1.72-3.21-3.22-3.78-5.43-2.6s-2.74,4-1.27,6.78l12.33,23.07a1.76,1.76,0,0,1-.81,2.66l-3.28,1.75a1.76,1.76,0,0,1-2.67-.8l-12.58-23.54c-1.71-3.2-3.22-3.77-5.42-2.59s-2.74,4-1.28,6.78l12.33,23.06a1.76,1.76,0,0,1-.81,2.67Z"/><path d="M570,283.53c-3.1-5.38-11.35-5.67-15.42,1.79a21,21,0,0,1-6.65,7.81l-3.62-6.06,7-3.88-22.92-55.41a33.21,33.21,0,0,0,3.42-3.19c5.45-6,11.35-16.72,8.47-34.12-1-5.28-1.61-10,1-14.1,4.65-7.43,2.39-13-.95-15.52-6.11-4.6-13.07-1-17,3l-1.61-22.74c-.32-4.58-2-8.53-4.72-10.85a10.29,10.29,0,0,0-12-.92l-.07-.93c-.32-4.51-2.15-8.6-4.92-11a9.66,9.66,0,0,0-7.29-2.3c-5.56.51-9.26,5.76-10.12,11.33a9.82,9.82,0,0,0-5.06-.84c-7.38.7-10.75,8-10.27,14.84l.76,10.78a8.06,8.06,0,0,0-3.56-.41c-6.12.68-9.7,6.36-9.12,14.45l2.4,34h0l0,.68a1.2,1.2,0,0,0,0,.2c1.36,16.25,8.11,25.65,14.34,30.93a35.13,35.13,0,0,1-1.39,12.22c-2.9,9.79-9.71,16.94-20.14,21.24l-2.79,1.05-19.82,6.08,6,20.08,5.66-.69c-1.73,3.69-3.07,9.47-.83,17.3,2,6.95,8.08,7.76,11.5,6.08,4.51-2.22,6.93-6.94,2.71-13.49-4.52-7-3.16-10.08-1.85-11.31l.76-.1,1.74,5.52,2.28.14c1.59.1,3.12.14,4.6.14,31.16,0,39.19-20.39,39.53-21.3a3.34,3.34,0,0,0-6.25-2.34c-.07.18-7,17.76-35.19,16.94l-2.72-8.6L453,270.79h0c21-8.67,25.13-25.79,25.7-35.23a24.29,24.29,0,0,0,4.56,1.85,3.51,3.51,0,0,0,.71.08,3.34,3.34,0,0,0,.72-6.6c-.19,0-18.49-5.24-20.38-32l-2.4-34c-.05-.71-.39-7,3.21-7.35a1.54,1.54,0,0,1,1.24.42c1.28,1.07,2.31,3.72,2.5,6.44l1.46,20.58a3.33,3.33,0,1,0,6.65-.47l-1.2-17h0L473.84,140c-.21-2.93.75-7.39,4.24-7.73a3,3,0,0,1,2.38.73c1.36,1.15,2.36,3.64,2.55,6.35v0l2.27,32.22a3.35,3.35,0,0,0,3.33,3.1h.24a3.34,3.34,0,0,0,3.09-3.56L489,129.48c-.25-3.6,1.88-7.5,4.23-7.72a3,3,0,0,1,2.36.74c1.38,1.18,2.4,3.67,2.59,6.34l2.94,41.63a3.33,3.33,0,1,0,6.65-.47l-1.95-27.71a.4.4,0,0,1,0-.11c-.2-2.85.75-7.47,4.17-7.71a3.29,3.29,0,0,1,2.57.79c1.31,1.13,2.24,3.54,2.44,6.28l2.93,41.5h0v0l.59,8.42a2.2,2.2,0,0,0,.07.37,2.08,2.08,0,0,0,0,.23,4.76,4.76,0,0,0,.19.53l0,.06a3.35,3.35,0,0,0,2.45,1.86h.17a2.58,2.58,0,0,0,.39,0h.24l.29-.05a3,3,0,0,0,.32-.06,2.81,2.81,0,0,0,.31-.1l.31-.12.27-.17.28-.17.23-.21a2.55,2.55,0,0,0,.24-.23l.18-.24a2.22,2.22,0,0,0,.19-.27,1.83,1.83,0,0,0,.14-.28c0-.1.1-.2.14-.3a1.87,1.87,0,0,0,.08-.32c0-.11.06-.21.08-.32s0-.23,0-.35a2.44,2.44,0,0,0,0-.27c-.05-1.38-.29-4.42-.45-6.64l-.15-1.91v0c-.41-5.81.5-10.36,2.63-13.17,1-1.35,5.54-5.84,9-3.23,1.48,1.11,1.22,3.6-.69,6.65-4.16,6.66-2.78,14-1.88,18.8,2.43,14.69-2.37,23.59-6.83,28.46a26.5,26.5,0,0,1-4.14,3.66,3.39,3.39,0,0,0-.66.46c-4.6,3.09-9.55,4.32-13.13,4.06a3.33,3.33,0,0,0-.5,6.65c.51,0,1,.06,1.55.06a27.76,27.76,0,0,0,12.73-3.43l14.82,35.83c-.61,1.26-2.54,4.09-8,5.19a3.33,3.33,0,0,0,.66,6.6,3.77,3.77,0,0,0,.66-.06,19,19,0,0,0,9.56-4.69l2.41,5.83-1.94,1.09h0L532,286.25l-5.56,3.11-32.15-42.94a3.33,3.33,0,1,0-5.34,4l31.61,42.23h0l17.22,23,17.64-9.84-2.54-4.25a30.71,30.71,0,0,0,11.88-4.63C571.57,292.31,571.64,286.42,570,283.53Z"/><path d="M485.24,266.59a4,4,0,0,1-3.26,4.12,3.34,3.34,0,0,0,.6,6.62,3.15,3.15,0,0,0,.61-.06,10.7,10.7,0,0,0,8.72-10.78,3.29,3.29,0,0,0-3.39-3.29A3.34,3.34,0,0,0,485.24,266.59Z"/><path d="M487.41,183.71c-1.76.47-2.81,3-2.34,5.65s2.28,4.4,4.05,3.92,2.81-3,2.34-5.65S489.17,183.23,487.41,183.71Z"/><path d="M511.07,193.28c1.77-.47,2.82-3,2.34-5.65s-2.28-4.4-4-3.92-2.82,3-2.35,5.65S509.31,193.76,511.07,193.28Z"/><path d="M492,208.14a3.34,3.34,0,0,0,3.32,3l.33,0,11.14-1.1-3.84-17.24a3.33,3.33,0,0,0-6.51,1.45l2.2,9.89-3.65.36A3.34,3.34,0,0,0,492,208.14Z"/><path d="M489.73,218.92a3.34,3.34,0,0,0,1.19,4.57,17.74,17.74,0,0,0,24.28-6.29,3.33,3.33,0,1,0-5.75-3.38,11.07,11.07,0,0,1-15.15,3.92A3.35,3.35,0,0,0,489.73,218.92Z"/><polygon class="cls-3" points="394.73 162.74 424.21 144.17 409.26 173.51 447 174.78 414.67 190.77 435.07 208.89 408.92 207.91 422.02 240.26 394.18 218.39 386.39 243.88 376.1 218.21 354.69 238.37 361.57 207.44 329.58 208.01 356.16 190.19 332.23 173.24 361.92 173.04 345.12 141.7 376.65 162.56 389.79 130.65 394.73 162.74"/><ellipse class="cls-2" cx="846.14" cy="166.27" rx="161.66" ry="64.04" transform="translate(-12.36 247.4) rotate(-16.52)"/><path d="M768,247.22c-43.21,0-74.31-11.69-80.87-33.81-10.87-36.66,50.45-86.09,139.6-112.53s167.5-18.42,178.37,18.25-50.44,86.1-139.59,112.53C830.14,242.15,796.45,247.22,768,247.22ZM924.49,93.84c-27.89,0-61.2,4.9-95.37,15-81.85,24.27-143.21,71.06-134,102.17s86.17,36.9,168,12.63,143.19-71.06,134-102.17h0C991.76,103.37,963.41,93.84,924.49,93.84Z"/><ellipse class="cls-4" cx="903.21" cy="262.12" rx="161.66" ry="64.04" transform="matrix(0.99, -0.15, 0.15, 0.99, -28.71, 135.52)"/><path d="M855.8,334c-21.89,0-42.29-2.08-60-6.21-33.76-7.9-53.88-22.56-56.66-41.28-5.62-37.83,62-78.16,154-91.82,43.22-6.42,84.91-5.77,117.39,1.82,33.76,7.9,53.88,22.56,56.66,41.28,5.62,37.83-62,78.16-154,91.82A392.8,392.8,0,0,1,855.8,334ZM950.65,198.6a385.28,385.28,0,0,0-56.24,4.3c-84.44,12.54-151.76,50.25-147,82.36,2.21,14.89,20.55,27.43,50.32,34.39,31.48,7.36,72.06,8,114.26,1.69,84.45-12.54,151.77-50.25,147-82.35-2.21-14.9-20.55-27.43-50.32-34.4C991.62,200.6,971.87,198.6,950.65,198.6Z"/><ellipse class="cls-2" cx="883.09" cy="259.59" rx="19.4" ry="25.31" transform="translate(-35.72 204.62) rotate(-12.96)"/><ellipse class="cls-2" cx="948.27" cy="252.61" rx="16.76" ry="26.77" transform="translate(-32.49 219.05) rotate(-12.96)"/><ellipse cx="892.98" cy="251.1" rx="9.11" ry="13.52" transform="translate(-21.1 93.24) rotate(-5.91)"/><ellipse cx="957.44" cy="246.15" rx="9.06" ry="13.45" transform="translate(-20.25 99.85) rotate(-5.91)"/><path d="M785.53,168.09a5.39,5.39,0,0,1,.1,1.13v3.51a5.28,5.28,0,0,1-.1,1.15c-.07.31-.16.47-.26.47h-3.4a12.49,12.49,0,0,1-3.67-.49,6.86,6.86,0,0,1-3-2,5.43,5.43,0,0,1-1.94,1.34,25.12,25.12,0,0,1-4.45,1,45.4,45.4,0,0,1-6.06.34,35.38,35.38,0,0,1-7.6-.69,9.09,9.09,0,0,1-4.82-2.56,7.32,7.32,0,0,1-1.76-5.23,22.54,22.54,0,0,1,.32-2.91c.22-1.38.55-3.4,1-6.06L754,158a58.43,58.43,0,0,0-1,6.86,2.19,2.19,0,0,0,.81,1.84,5.8,5.8,0,0,0,2.77.87,51.77,51.77,0,0,0,5.8.24q4.61,0,6.91-.12a3.36,3.36,0,0,1-1-1.27,4.05,4.05,0,0,1-.37-1.76,8.48,8.48,0,0,1,1.24-3.72,15,15,0,0,1,3.09-4,5.44,5.44,0,0,1,3.59-1.69,5.34,5.34,0,0,1,3.42,1.31,9.25,9.25,0,0,1,2.54,3.46,10.88,10.88,0,0,1,.95,4.52,5.42,5.42,0,0,1-.28,1.94,2.54,2.54,0,0,1-1.21,1.25,17.35,17.35,0,0,1,2.26-.12h1.7C785.37,167.6,785.46,167.76,785.53,168.09ZM775,143.6l4.53,3.64-3.48,4.2-4.52-3.64Zm3.36,21.5a5.3,5.3,0,0,0-.81-2.85,2.26,2.26,0,0,0-1.86-1.32,2.83,2.83,0,0,0-1.51.55,5.14,5.14,0,0,0-1.4,1.35,2.79,2.79,0,0,0-.56,1.62,2.08,2.08,0,0,0,.9,1.49,7.49,7.49,0,0,0,2.41,1.3Z"/><path d="M801,168.09a5.34,5.34,0,0,1,.11,1.13v3.51a5.2,5.2,0,0,1-.11,1.15c-.06.31-.15.47-.26.47a14,14,0,0,1-5.17-.71,3.7,3.7,0,0,1-2.18-2.36,4.61,4.61,0,0,1-2.63,2.38,16.4,16.4,0,0,1-5.49.69c-.11,0-.2-.16-.27-.47a6,6,0,0,1-.1-1.15v-3.51a6.16,6.16,0,0,1,.1-1.13c.07-.33.16-.49.27-.49a13.06,13.06,0,0,0,5.81-1l-.88-7.23,5.13-.57.36,8a13.72,13.72,0,0,0,5,.73C800.85,167.6,800.94,167.76,801,168.09Zm-12.66,10.06,4,3.27-3.27,4-4.05-3.27Zm6.75,0,4,3.27-3.28,4-4-3.27Z"/><path d="M820.7,168.09a4.72,4.72,0,0,1,.12,1.13v3.51a4.72,4.72,0,0,1-.12,1.13c-.08.33-.17.49-.28.49h-3.35a12.35,12.35,0,0,1-3.72-.51,7.3,7.3,0,0,1-3.07-2,7.35,7.35,0,0,1-3.07,2,12.93,12.93,0,0,1-4,.55h-2.47c-.11,0-.19-.16-.26-.47a5.28,5.28,0,0,1-.1-1.15v-3.51a5.39,5.39,0,0,1,.1-1.13c.07-.33.15-.49.26-.49h2.59a4.26,4.26,0,0,0,.5,0,2.56,2.56,0,0,1,.55,0,3.45,3.45,0,0,1-.91-1.27,4.17,4.17,0,0,1-.34-1.68,8.39,8.39,0,0,1,1.25-3.72,15.45,15.45,0,0,1,3.09-4,4.86,4.86,0,0,1,7-.38,9.21,9.21,0,0,1,2.57,3.46,11,11,0,0,1,.94,4.52,5.42,5.42,0,0,1-.28,1.94,2.54,2.54,0,0,1-1.21,1.25,16.58,16.58,0,0,1,2.22-.12h1.7C820.53,167.6,820.62,167.76,820.7,168.09ZM810.2,143.6l4.52,3.64-3.47,4.2-4.53-3.64Zm3.35,21.5a5.3,5.3,0,0,0-.81-2.85,2.28,2.28,0,0,0-1.9-1.32,2.75,2.75,0,0,0-1.49.55,5.37,5.37,0,0,0-1.38,1.35,2.86,2.86,0,0,0-.56,1.62,2.15,2.15,0,0,0,.89,1.52,6.76,6.76,0,0,0,2.38,1.27Z"/><path d="M851.31,168.09a5.39,5.39,0,0,1,.1,1.13v3.51a5.28,5.28,0,0,1-.1,1.15c-.07.31-.16.47-.26.47h-6.79a18.36,18.36,0,0,1-5.3-.77,4.66,4.66,0,0,1-3.31-3l-1.17.65a26.92,26.92,0,0,1-12.85,3.07h-1.21c-.11,0-.2-.16-.26-.47a5.28,5.28,0,0,1-.1-1.15v-3.51a5.39,5.39,0,0,1,.1-1.13c.06-.33.15-.49.26-.49h1.29A29.35,29.35,0,0,0,831.93,166a23.92,23.92,0,0,0,3-1.34c.87-.43,1.59-.77,2.17-1a9.35,9.35,0,0,1,1.79-.58,30.32,30.32,0,0,1-5-1.42c-1.07-.38-2-.66-2.66-.85a7.34,7.34,0,0,0-1.9-.28,1.86,1.86,0,0,0-1.6.63,4.28,4.28,0,0,0-.66,1.92l-4-.69q1.17-7.72,5.9-7.72a10.74,10.74,0,0,1,3.15.49q1.61.48,4.64,1.57,3.48,1.34,6,2.06a19.38,19.38,0,0,0,5.36.73L847,165.14a22,22,0,0,0-7.16,2.91l1.54-.13,2.71-.18c1.48-.09,3-.14,4.44-.14h2.51C851.15,167.6,851.24,167.76,851.31,168.09Zm-19-25.9,4.52,3.63L833.39,150l-4.53-3.64Z"/><path d="M862.6,167.28a7.09,7.09,0,0,1-.6,2.89,5.39,5.39,0,0,1-1.9,2.24c-1.92,1.29-4.93,1.94-9.05,1.94-.11,0-.2-.16-.27-.47a6,6,0,0,1-.1-1.15v-3.51a6.16,6.16,0,0,1,.1-1.13c.07-.33.16-.49.27-.49a35.78,35.78,0,0,0,4.08-.2,9.62,9.62,0,0,0,2.87-.77L857,158l5.17-.89C862.47,161.24,862.6,164.64,862.6,167.28ZM855.21,146l4,3.27-3.27,4-4.05-3.27Zm6.75,0,4,3.27-3.28,4-4-3.27Z"/><path d="M882.82,143.86a6.8,6.8,0,0,1,2.47,2.47,6.6,6.6,0,0,1,.91,3.41,6.8,6.8,0,0,1-3.38,5.92,6.57,6.57,0,0,1-3.41.91,6.48,6.48,0,0,1-3.39-.91,6.83,6.83,0,0,1-2.47-2.48,6.84,6.84,0,0,1,0-6.85,6.8,6.8,0,0,1,2.47-2.47,6.84,6.84,0,0,1,6.82,0Zm-5.53,3.8a2.83,2.83,0,0,0-.87,2.08,3,3,0,1,0,6,0,2.83,2.83,0,0,0-.87-2.08,3,3,0,0,0-4.24,0ZM882,176.05,877,173.82,895,142.23l5,2.22Zm11.82-.79a6.8,6.8,0,0,1-2.47-2.47,6.57,6.57,0,0,1-.91-3.41,6.8,6.8,0,0,1,3.38-5.92,6.57,6.57,0,0,1,3.41-.91,6.4,6.4,0,0,1,3.39.93,7.1,7.1,0,0,1,2.47,2.49,6.5,6.5,0,0,1,.93,3.41,6.67,6.67,0,0,1-.91,3.41,6.8,6.8,0,0,1-2.47,2.47,6.84,6.84,0,0,1-6.82,0Zm5.53-3.78a2.83,2.83,0,0,0,.87-2.1,3,3,0,1,0-6,0,2.83,2.83,0,0,0,.87,2.1,3.07,3.07,0,0,0,4.24,0Z"/><path d="M925.33,158.13a9.24,9.24,0,0,1-6,1.83,7.31,7.31,0,0,1-3.64-1q.49,6.66.49,15.35l-4.24.36a130.92,130.92,0,0,0-.77-14.34q-.76-6.94-2.34-14.59l5.13-1.05c.37,2.08.75,4.19,1.13,6.35a2.29,2.29,0,0,0,.93,1.67,5.21,5.21,0,0,0,2.62.47,10.09,10.09,0,0,0,4.33-.73l-.93-7.39,5-.77.4,8.44A6.09,6.09,0,0,1,925.33,158.13Z"/><path d="M931.92,171a7.87,7.87,0,0,1-3-3,8.87,8.87,0,0,1,0-8.52,8,8,0,0,1,3-3,8.73,8.73,0,0,1,8.52,0,8.16,8.16,0,0,1,3,3,8.73,8.73,0,0,1,0,8.52,8.06,8.06,0,0,1-3,3,8.87,8.87,0,0,1-8.52,0Zm6.68-4.89a3.23,3.23,0,0,0,1-2.39,3.2,3.2,0,0,0-1-2.4,3.56,3.56,0,0,0-4.84,0,3.2,3.2,0,0,0-1,2.4,3.23,3.23,0,0,0,1,2.39,3.5,3.5,0,0,0,4.84,0Z"/><polygon class="cls-4" points="219.8 155.58 268.06 130.93 246.2 180.52 297.76 197.22 247.23 216.82 271.88 265.08 222.29 243.22 205.59 294.78 185.99 244.25 137.73 268.9 159.59 219.31 108.03 202.61 158.56 183.01 133.91 134.75 183.5 156.61 200.2 105.06 219.8 155.58"/><path d="M205.59,297.64a2.86,2.86,0,0,1-2.66-1.83l-18.46-47.57L139,271.45a2.86,2.86,0,0,1-3.92-3.7l20.58-46.69-48.54-15.72A2.86,2.86,0,0,1,107,200l47.57-18.46-23.21-45.44a2.86,2.86,0,0,1,3.7-3.92l46.69,20.58,15.72-48.54a2.89,2.89,0,0,1,2.65-2,2.84,2.84,0,0,1,2.74,1.83l18.46,47.57,45.44-23.21a2.86,2.86,0,0,1,3.92,3.71L250.1,178.77l48.54,15.72a2.89,2.89,0,0,1,2,2.65,2.85,2.85,0,0,1-1.83,2.74l-47.57,18.46,23.21,45.44a2.86,2.86,0,0,1-3.7,3.92L224,247.12l-15.72,48.54a2.88,2.88,0,0,1-2.64,2ZM186,241.39a2.75,2.75,0,0,1,1,.19,2.84,2.84,0,0,1,1.65,1.64l16.69,43,14.22-43.9a2.87,2.87,0,0,1,3.88-1.74l42.22,18.62-21-41.1a2.87,2.87,0,0,1,1.52-4l43-16.69-43.9-14.22a2.87,2.87,0,0,1-1.74-3.88l18.62-42.22-41.1,21a2.87,2.87,0,0,1-4-1.52l-16.69-43-14.22,43.9a2.87,2.87,0,0,1-3.88,1.74l-42.22-18.62,21,41.1a2.87,2.87,0,0,1-1.52,4l-43,16.69,43.9,14.22a2.87,2.87,0,0,1,1.74,3.88l-18.62,42.22,41.1-21A3,3,0,0,1,186,241.39Z"/><path d="M185.85,172.06c-2.33.63-3.72,4-3.1,7.47s3,5.81,5.36,5.18,3.71-4,3.09-7.46S188.18,171.43,185.85,172.06Z"/><path d="M217.13,184.71c2.33-.63,3.71-4,3.09-7.46s-3-5.82-5.35-5.19-3.72,4-3.1,7.47S214.79,185.34,217.13,184.71Z"/><path d="M191.87,204.35a4.4,4.4,0,0,0,4.38,4,3.25,3.25,0,0,0,.44,0l14.72-1.45-5.07-22.78a4.4,4.4,0,1,0-8.6,1.91l2.91,13.07-4.83.48A4.41,4.41,0,0,0,191.87,204.35Z"/><path d="M188.92,218.61a4.41,4.41,0,0,0,1.56,6,23.48,23.48,0,0,0,32.1-8.31,4.41,4.41,0,0,0-7.6-4.48A14.63,14.63,0,0,1,195,217,4.42,4.42,0,0,0,188.92,218.61Z"/><ellipse class="cls-5" cx="833.22" cy="484.75" rx="188.28" ry="74.58" transform="matrix(0.99, -0.15, 0.15, 0.99, -62.17, 127.65)"/><path d="M778,567.74c-25.44,0-49.14-2.41-69.67-7.22-39-9.12-62.27-26-65.47-47.5S657,468.61,691.7,448.53c33.55-19.41,79.7-34.21,129.95-41.67s98.71-6.72,136.46,2.11c39,9.13,62.27,26,65.46,47.51s-14.15,44.41-48.83,64.48c-33.55,19.41-79.7,34.22-130,41.68A457.8,457.8,0,0,1,778,567.74ZM888.46,410.08a448.93,448.93,0,0,0-65.59,5c-49.23,7.31-94.34,21.74-127,40.64-31.07,18-47.39,38.41-44.77,56.05s24.17,32.45,59.12,40.62c36.75,8.59,84.1,9.3,133.34,2s94.34-21.75,127-40.65c31.07-18,47.38-38.41,44.76-56.05s-24.17-32.44-59.12-40.62C936.28,412.42,913.24,410.08,888.46,410.08Z"/><path class="cls-6" d="M724.35,500.27l-.67,2.52a1.54,1.54,0,0,1-1.62,1.23h-1.63a1.3,1.3,0,0,1-1.45-1.46V466.32a1.3,1.3,0,0,1,1.45-1.46h2.8a1.3,1.3,0,0,1,1.45,1.46V478a5.88,5.88,0,0,1,5.65-3.52q6.21,0,6.21,8.05v14.1q0,8.06-6.21,8.05A6,6,0,0,1,724.35,500.27Zm6.49-17.4c0-2.62-.84-3.58-2.8-3.58s-3.36,1.74-3.36,4v12.52c0,2.24,1.4,4,3.36,4s2.8-.95,2.8-3.58Z"/><path class="cls-6" d="M739.69,497.08v-.45c0-2.9.78-5.09,2.57-6.6a17.39,17.39,0,0,1,5-3c1-.45,1.73-.78,2.23-1.06a3.67,3.67,0,0,0,2.07-2.8v-.34c0-2.4-.95-3.63-2.9-3.63s-3,1.23-3,3.63v.68a1.3,1.3,0,0,1-1.45,1.45h-2.41a1.31,1.31,0,0,1-1.45-1.51c0-6,2.85-9.06,8.5-9.06s8.39,3.07,8.39,9.17v11a62,62,0,0,0,.34,7.89c.16,1.06-.23,1.57-1.29,1.57h-2.57a1.43,1.43,0,0,1-1.63-1.23,13.52,13.52,0,0,1-.33-2.3,6.07,6.07,0,0,1-5.87,4.14Q739.69,504.63,739.69,497.08Zm11.85-1.23v-6.1l-1.28.62a13.53,13.53,0,0,0-3.36,2,4.41,4.41,0,0,0-1.57,3.74v.4c0,2.51,1,3.35,2.8,3.35C750.15,499.82,751.54,498.09,751.54,495.85Z"/><path class="cls-6" d="M760.78,495.85a1.3,1.3,0,0,1,1.46-1.45h2.35a1.3,1.3,0,0,1,1.45,1.45v.56c0,2.46,1,3.69,3,3.69s3-1.17,3-3.47v-.5c0-2-1.29-2.8-4.26-4.08a14.62,14.62,0,0,1-4.64-2.8c-1.62-1.4-2.35-3.52-2.35-6.43v-.11c0-5.54,3.08-8.28,8.51-8.28,5.59,0,8.38,2.8,8.38,8.44a1.3,1.3,0,0,1-1.45,1.46h-2.35a1.3,1.3,0,0,1-1.45-1.46v-.22c0-2.46-1-3.69-3-3.69s-3,1.17-3,3.47v.33a3.1,3.1,0,0,0,1.29,2.63,14.14,14.14,0,0,0,3,1.57,13.93,13.93,0,0,1,3.81,2.07c2.07,1.39,3,3.41,3.18,7.1v.17c0,5.54-3,8.33-8.44,8.33C763.58,504.63,760.78,501.72,760.78,495.85Z"/><path class="cls-6" d="M780.54,497.08v-.45c0-2.9.78-5.09,2.57-6.6a17.39,17.39,0,0,1,5-3c1-.45,1.73-.78,2.24-1.06a3.7,3.7,0,0,0,2.07-2.8v-.34c0-2.4-1-3.63-2.91-3.63s-3,1.23-3,3.63v.68a1.3,1.3,0,0,1-1.45,1.45h-2.41a1.31,1.31,0,0,1-1.45-1.51c0-6,2.85-9.06,8.5-9.06s8.39,3.07,8.39,9.17v11a62,62,0,0,0,.34,7.89c.16,1.06-.23,1.57-1.29,1.57h-2.57a1.44,1.44,0,0,1-1.63-1.23,14.6,14.6,0,0,1-.33-2.3,6.07,6.07,0,0,1-5.87,4.14Q780.54,504.63,780.54,497.08Zm11.86-1.23v-6.1l-1.29.62a13.53,13.53,0,0,0-3.36,2,4.43,4.43,0,0,0-1.56,3.74v.4c0,2.51.95,3.35,2.79,3.35C791,499.82,792.4,498.09,792.4,495.85Z"/><path class="cls-6" d="M808.12,502.56a1.3,1.3,0,0,1-1.45,1.46h-2.8a1.3,1.3,0,0,1-1.45-1.46V466.32a1.3,1.3,0,0,1,1.45-1.46h2.8a1.3,1.3,0,0,1,1.45,1.46Z"/><path class="cls-6" d="M811.76,497.08v-.45c0-2.9.79-5.09,2.58-6.6a17.47,17.47,0,0,1,5-3c1-.45,1.74-.78,2.24-1.06a3.7,3.7,0,0,0,2.07-2.8v-.34c0-2.4-1-3.63-2.91-3.63s-3,1.23-3,3.63v.68a1.3,1.3,0,0,1-1.46,1.45h-2.4a1.31,1.31,0,0,1-1.45-1.51c0-6,2.85-9.06,8.5-9.06s8.39,3.07,8.39,9.17v11a64.54,64.54,0,0,0,.33,7.89c.17,1.06-.22,1.57-1.28,1.57H825.8a1.43,1.43,0,0,1-1.62-1.23,12.59,12.59,0,0,1-.33-2.3,6.08,6.08,0,0,1-5.88,4.14Q811.76,504.63,811.76,497.08Zm11.86-1.23v-6.1l-1.28.62a13.53,13.53,0,0,0-3.36,2,4.41,4.41,0,0,0-1.57,3.74v.4c0,2.51,1,3.35,2.8,3.35C822.22,499.82,823.62,498.09,823.62,495.85Z"/><path class="cls-6" d="M835.1,504a1.31,1.31,0,0,1-1.46-1.46V476.5A1.31,1.31,0,0,1,835.1,475h2.4A1.31,1.31,0,0,1,839,476.5v2.4a5.91,5.91,0,0,1,5.87-4.47,5.17,5.17,0,0,1,5.54,4.25,6.1,6.1,0,0,1,5.93-4.25q6,0,6,8.05v20.08a1.31,1.31,0,0,1-1.46,1.46h-2.79a1.31,1.31,0,0,1-1.46-1.46V482.87c0-2.68-.78-3.58-2.63-3.58s-3.19,1.68-3.19,4v19.29a1.3,1.3,0,0,1-1.45,1.46h-2.74a1.3,1.3,0,0,1-1.45-1.46V482.87c0-2.68-.79-3.58-2.63-3.58s-3.19,1.68-3.19,4v19.29A1.3,1.3,0,0,1,837.9,504Z"/><path class="cls-6" d="M868.23,504a1.31,1.31,0,0,1-1.46-1.46V497a1.3,1.3,0,0,1,1.46-1.45H871a1.3,1.3,0,0,1,1.45,1.45v5.59A1.31,1.31,0,0,1,871,504Z"/><path class="cls-6" d="M876.73,483.66q0-9.24,8.56-9.23t8.56,9.23v1.17c0,.79-.5,1.18-1.46,1.18H890a1.3,1.3,0,0,1-1.45-1.46v-1.68c0-2.4-1-3.58-3.08-3.58s-3.13,1.18-3.13,3.58v13.32c0,2.4,1.07,3.58,3.13,3.58s3.08-1.18,3.08-3.58V494a1.3,1.3,0,0,1,1.45-1.46h2.35a1.31,1.31,0,0,1,1.46,1.46v1.45q0,9.24-8.56,9.23t-8.56-9.23Z"/><path class="cls-6" d="M897.16,495.4V483.66c0-6.16,2.91-9.23,8.78-9.23s8.72,3.07,8.72,9.23V495.4q0,9.24-8.72,9.23C900.07,504.63,897.16,501.56,897.16,495.4Zm11.86.79V482.87c0-2.4-1-3.58-3.08-3.58s-3.13,1.18-3.13,3.58v13.32c0,2.4,1.06,3.58,3.13,3.58S909,498.59,909,496.19Z"/><path class="cls-6" d="M920.22,504a1.31,1.31,0,0,1-1.46-1.46V476.5a1.31,1.31,0,0,1,1.46-1.46h2.4a1.3,1.3,0,0,1,1.45,1.46v2.4a5.92,5.92,0,0,1,5.88-4.47,5.17,5.17,0,0,1,5.54,4.25,6.1,6.1,0,0,1,5.93-4.25q6,0,6,8.05v20.08A1.31,1.31,0,0,1,946,504h-2.79a1.31,1.31,0,0,1-1.46-1.46V482.87c0-2.68-.78-3.58-2.63-3.58s-3.19,1.68-3.19,4v19.29a1.3,1.3,0,0,1-1.45,1.46h-2.74a1.3,1.3,0,0,1-1.45-1.46V482.87c0-2.68-.79-3.58-2.64-3.58s-3.18,1.68-3.18,4v19.29A1.31,1.31,0,0,1,923,504Z"/><polygon class="cls-3" points="977.57 381.69 1006.96 363.18 992.05 392.43 1029.67 393.69 997.45 409.62 1017.78 427.69 991.71 426.71 1004.78 458.96 977.02 437.16 969.26 462.57 959 436.98 937.66 457.07 944.53 426.24 912.64 426.81 939.13 409.05 915.28 392.15 944.87 391.96 928.13 360.72 959.55 381.51 972.65 349.7 977.57 381.69"/><path class="cls-7" d="M565.9,438.91a5.83,5.83,0,0,0-.59,0c-1.39.16-8.3,1.58-7.39,14.41l4.45,61.25a56,56,0,0,0,20.32,38.54,58.1,58.1,0,0,0,94.88-50.54c-.14-1.63-.34-3.42-.56-5.32-1.13-9.91-2.54-22.24,2.32-30,3.81-6.1,4-11.34.45-14-7.07-5.32-15.49,2.47-17.88,5.63-3.77,5-5.39,12.78-4.69,22.62l.94,13.41a2.68,2.68,0,1,1-5.35.38h0l0-.3-5.56-78.87c-.36-5.08-2.14-9.46-4.76-11.73a7.74,7.74,0,0,0-6-1.88c-4.86.35-9.67,5.72-9,15l3.09,44.06a2.68,2.68,0,0,1-5.35.38l-4.65-66c-.36-5-2.27-9.5-5-11.83a7.27,7.27,0,0,0-5.66-1.78c-5.17.47-9.57,7.76-9.06,15l4.65,65.95a2.68,2.68,0,0,1-5.35.38v0l-3.61-51.06c-.36-5-2.26-9.57-5-11.86a7.29,7.29,0,0,0-5.69-1.75c-6.61.62-9.56,8-9.07,15l2.66,37.73v.07l2.3,32.61a2.68,2.68,0,0,1-5.35.37l-2.31-32.67c-.37-5.09-2.29-9.77-4.9-11.94A5,5,0,0,0,565.9,438.91Z"/><path d="M610.73,382.37a7.24,7.24,0,0,1,4.84,1.82c2.74,2.33,4.65,6.86,5,11.83l4.65,66a2.67,2.67,0,0,0,2.66,2.49h.2a2.68,2.68,0,0,0,2.49-2.86l-3.09-44.06c-.66-9.28,4.15-14.65,9-15l.76,0a7.61,7.61,0,0,1,5.2,1.91c2.62,2.27,4.4,6.65,4.76,11.73L652.78,495l0,.3a2.68,2.68,0,0,0,2.66,2.5h.21a2.69,2.69,0,0,0,2.48-2.87l-.94-13.41c-.7-9.84.92-17.66,4.69-22.62,1.81-2.39,7.07-7.44,12.59-7.44a8.64,8.64,0,0,1,5.29,1.81c3.53,2.66,3.36,7.9-.45,14-4.86,7.77-3.45,20.1-2.32,30,.22,1.9.42,3.69.56,5.32a58,58,0,0,1-51.64,63.57,61.21,61.21,0,0,1-6.18.32,57.9,57.9,0,0,1-37.06-13.35,56,56,0,0,1-20.32-38.54l-4.45-61.25c-.91-12.83,6-14.25,7.39-14.41a5.83,5.83,0,0,1,.59,0,5,5,0,0,1,3.32,1.29c2.61,2.17,4.53,6.85,4.9,11.94l2.31,32.67a2.68,2.68,0,0,0,2.66,2.5h.2a2.68,2.68,0,0,0,2.49-2.86l-2.3-32.61v-.07L576.81,414c-.49-7,2.46-14.38,9.07-15a8.19,8.19,0,0,1,.85,0,7.19,7.19,0,0,1,4.84,1.79c2.71,2.29,4.61,6.84,5,11.86l3.61,51.06v0a2.69,2.69,0,0,0,2.66,2.49h.2a2.68,2.68,0,0,0,2.49-2.86l-4.65-65.95c-.51-7.24,3.89-14.53,9.06-15a7.63,7.63,0,0,1,.82,0m0-8.1h0c-.52,0-1.05,0-1.58.07-5,.46-9.72,3.69-12.84,8.84a25.22,25.22,0,0,0-3.28,9,15.31,15.31,0,0,0-6.3-1.33c-.52,0-1.06,0-1.6.08-10.41,1-17.3,10.93-16.4,23.64l1.19,16.85a13.33,13.33,0,0,0-5.54-.56c-5.94.67-15.73,6.27-14.54,23l4.45,61.27v.12a64,64,0,0,0,23.23,44.07,65.54,65.54,0,0,0,42.22,15.21,68.76,68.76,0,0,0,7-.36,66.1,66.1,0,0,0,58.87-72.39c-.15-1.73-.36-3.55-.58-5.48-.94-8.2-2.22-19.43,1.13-24.79a25,25,0,0,0,4.22-12.33,14.53,14.53,0,0,0-5.76-12.44,16.79,16.79,0,0,0-10.16-3.44c-6.88,0-13,4.22-16.67,7.94l-2.52-35.73c-.52-7.28-3.26-13.58-7.53-17.28a15.8,15.8,0,0,0-10.51-3.89c-.45,0-.91,0-1.37.05a16,16,0,0,0-7.14,2.34l-.09-1.34c-.51-7.17-3.44-13.69-7.85-17.43a15.34,15.34,0,0,0-10.08-3.75Z"/><path d="M613.37,526.67a5.37,5.37,0,0,1-.52-10.71l5.69-.56-3.47-15.57a5.37,5.37,0,0,1,10.48-2.33l6.09,27.38-17.73,1.76Z"/><path d="M620.66,550.1a28.06,28.06,0,0,1-14.24-3.89,5.37,5.37,0,0,1,5.44-9.25,17.46,17.46,0,0,0,23.88-6.19,5.37,5.37,0,0,1,9.25,5.45A28.2,28.2,0,0,1,620.66,550.1Z"/><path class="cls-8" d="M650.41,477.7A9,9,0,0,0,637.69,479a9,9,0,0,0-11.41,14l14,11.4,11.41-14A9,9,0,0,0,650.41,477.7Z"/><path class="cls-8" d="M612.83,481a9.06,9.06,0,0,0-12.73,1.31,9,9,0,1,0-11.4,14l14,11.41,11.4-14A9,9,0,0,0,612.83,481Z"/></g></svg>