<svg xmlns="http://www.w3.org/2000/svg" viewBox="0 0 648 648"><defs><style>.cls-1{fill:#ff5c39;}</style></defs><g id="Layer_6" data-name="Layer 6"><rect class="cls-1" width="648" height="648"/><path d="M529.49,493.35c16.82-7.5,26.86-16.9,26.86-27.1,0-24.51-57.71-44.38-128.9-44.38s-128.91,19.87-128.91,44.38c0,10.2,10,19.6,26.86,27.1-44.27,10.94-73.13,28.8-73.13,49,0,33.31,78.43,60.31,175.18,60.31s175.17-27,175.17-60.31C602.62,522.15,573.76,504.29,529.49,493.35Z"/><polygon points="186.88 373.17 250.55 341.01 214.39 397.94 291.06 407.81 222.09 434.14 260.17 475.03 207.04 467.97 227.5 536.45 174.99 486.48 154.19 536.93 138.17 482.62 90.63 519.57 110.65 457.85 45.34 452.82 102.95 421.64 57.46 382.48 118 387.82 89.83 320.69 150.06 369.31 183.01 306.81 186.88 373.17"/><ellipse cx="324.23" cy="163.3" rx="281.74" ry="111.6" transform="translate(-20.47 49.4) rotate(-8.45)"/></g><g id="Layer_1" data-name="Layer 1"><polygon points="446.84 284.85 291.06 343.06 446.84 401.28 602.62 343.06 446.84 284.85"/></g></svg>