<svg xmlns="http://www.w3.org/2000/svg" viewBox="0 0 648 648"><defs><style>.cls-1{fill:#29316d;}.cls-2{fill:#fce4d9;stroke:#000;stroke-linejoin:round;stroke-width:8.82px;}.cls-3{fill:#ff5c35;}</style></defs><g id="Layer_1" data-name="Layer 1"><rect class="cls-1" width="648" height="648"/><path class="cls-2" d="M55.46,402.65a379.76,379.76,0,0,0,537.08,0L324,134.11Z"/><path d="M150.33,429.77l-2.8,2.83a2.31,2.31,0,0,1-3.08.41l-2.16-1.23a2,2,0,0,1-.83-3l27.42-48.12a2,2,0,0,1,3-.83l3.71,2.11a2,2,0,0,1,.84,3l-8.81,15.44a9,9,0,0,1,10.17-.4q8.25,4.69,2.15,15.39l-10.66,18.71q-6.09,10.7-14.34,6A9.23,9.23,0,0,1,150.33,429.77Zm21.77-18.19c2-3.49,1.59-5.39-1-6.87s-5.76-.23-7.46,2.74l-9.47,16.63c-1.7,3-1.15,6.33,1.45,7.81s4.43.86,6.42-2.63Z"/><path d="M175.69,438.17l.28-.62c1.78-4.07,4.21-6.65,7.65-7.66s4.92-1,8.78-1.1c1.68,0,2.91,0,3.78-.11,1.64-.12,3.9-1,4.62-2.64l.2-.47c1.48-3.37.9-5.68-1.84-6.88s-4.9-.09-6.38,3.27l-.41.94a2,2,0,0,1-2.93,1.14l-3.36-1.47a2,2,0,0,1-1.11-3c3.71-8.45,9.55-10.93,17.46-7.46s9.85,9.45,6.11,18l-6.73,15.35a95.6,95.6,0,0,0-4.36,11.24c-.42,1.59-1.28,2.05-2.77,1.4l-3.6-1.58a2.17,2.17,0,0,1-1.51-2.71,20.13,20.13,0,0,1,.94-3.42,9.27,9.27,0,0,1-10.76,2.19Q171.07,448.74,175.69,438.17ZM193,443.73l3.74-8.54-2.18.08a20.38,20.38,0,0,0-5.89.68c-2.12.56-3.5,2-4.5,4.28l-.24.55c-1.54,3.52-.72,5.28,1.86,6.41C188.65,448.43,191.67,446.86,193,443.73Z"/><path d="M208.41,450a2,2,0,0,1,2.8-1.43l3.42,1.1a2,2,0,0,1,1.43,2.8l-.26.81c-1.16,3.58-.27,5.84,2.58,6.76s4.94-.29,6-3.63l.23-.73c1-2.93-.56-4.67-4.26-7.93a22.32,22.32,0,0,1-5.44-6.25c-1.71-2.79-1.77-6.22-.4-10.45l.05-.17c2.6-8.05,8.36-10.59,16.25-8.05,8.13,2.63,10.89,8,8.24,16.22a2,2,0,0,1-2.8,1.44l-3.41-1.11a2,2,0,0,1-1.44-2.79l.11-.33c1.15-3.58.26-5.84-2.58-6.76s-4.95.29-6,3.63l-.16.49a4.76,4.76,0,0,0,.64,4.42,21.69,21.69,0,0,0,3.57,3.67,20.62,20.62,0,0,1,4.56,4.8c2.36,3,2.8,6.37,1.31,11.82l-.08.25c-2.6,8.05-8.3,10.7-16.19,8.15C208.36,464.11,205.66,458.57,208.41,450Z"/><path d="M239.21,461.62l.14-.67c.93-4.34,2.8-7.35,6-9s4.62-2,8.38-2.84c1.65-.35,2.85-.61,3.69-.87,1.58-.45,3.61-1.76,4-3.52l.1-.5c.77-3.59-.25-5.73-3.18-6.36s-4.82.89-5.59,4.48l-.22,1a2,2,0,0,1-2.64,1.71l-3.59-.77a2,2,0,0,1-1.69-2.72c1.94-9,7.17-12.63,15.61-10.82s11.55,7.29,9.59,16.4l-3.51,16.38a97.75,97.75,0,0,0-2,11.89c-.09,1.64-.84,2.27-2.43,1.92l-3.84-.82a2.17,2.17,0,0,1-2-2.36,21.35,21.35,0,0,1,.23-3.53,9.25,9.25,0,0,1-10.1,4.3Q236.79,472.91,239.21,461.62Zm18.11,2,1.95-9.11-2.12.51a20.64,20.64,0,0,0-5.64,1.85c-2,1-3,2.67-3.54,5.1l-.13.58c-.8,3.76.35,5.32,3.11,5.91C254,469.07,256.6,466.92,257.32,463.58Z"/><path d="M281.54,477.87a2,2,0,0,1-2.5,1.91l-4.24-.57a2,2,0,0,1-1.9-2.5l7.41-54.89a2,2,0,0,1,2.5-1.9l4.24.57A2,2,0,0,1,289,423Z"/><path d="M290.16,470.66l0-.68c.26-4.44,1.65-7.7,4.51-9.84s4.27-2.67,7.86-4.08c1.58-.6,2.72-1,3.51-1.43,1.49-.68,3.3-2.29,3.4-4.08l0-.51c.22-3.67-1.13-5.63-4.11-5.8s-4.63,1.61-4.85,5.28l-.06,1a2,2,0,0,1-2.34,2.09l-3.67-.21a2,2,0,0,1-2.09-2.43c.54-9.22,5.16-13.57,13.78-13.07s12.52,5.43,12,14.73l-1,16.73a97.21,97.21,0,0,0-.19,12.06c.16,1.64-.48,2.37-2.1,2.27l-3.92-.22a2.18,2.18,0,0,1-2.37-2,19.9,19.9,0,0,1-.31-3.53,9.27,9.27,0,0,1-9.32,5.79Q289.49,482.18,290.16,470.66Zm18.2-.82.54-9.31-2,.83a20.67,20.67,0,0,0-5.3,2.69,6.76,6.76,0,0,0-2.72,5.58l0,.59c-.23,3.84,1.15,5.21,4,5.37C305.88,475.77,308.16,473.25,308.36,469.84Z"/><path d="M330,483.13a2,2,0,0,1-2.38-2.05l-2.86-39.73a2,2,0,0,1,2.06-2.38l3.66-.26a2,2,0,0,1,2.38,2.06l.26,3.66a9,9,0,0,1,8.46-7.46c4.52-.33,7.49,1.6,8.91,5.87a9.35,9.35,0,0,1,8.57-7.14q9.21-.66,10.09,11.62l2.21,30.6a2,2,0,0,1-2.06,2.38l-4.26.31a2,2,0,0,1-2.38-2.06l-2.16-30c-.3-4.09-1.59-5.37-4.4-5.17-3,.22-4.68,2.91-4.42,6.41l2.12,29.41a2,2,0,0,1-2.06,2.38l-4.18.3a2,2,0,0,1-2.37-2.06l-2.17-30c-.29-4.09-1.59-5.37-4.4-5.17-3,.22-4.67,2.91-4.42,6.41l2.12,29.41a2,2,0,0,1-2.06,2.38Z"/><path d="M384.29,477.46a2,2,0,0,1-2.58-1.79l-1.52-8.42a2,2,0,0,1,1.79-2.58l4.2-.76a2,2,0,0,1,2.58,1.79l1.53,8.41a2,2,0,0,1-1.8,2.59Z"/><path d="M392,444.51q-3.57-13.65,9.09-16.95t16.21,10.34l.46,1.74c.3,1.15-.29,1.93-1.7,2.29l-3.47.91a2,2,0,0,1-2.72-1.59l-.64-2.48c-.93-3.56-2.87-4.9-5.93-4.1s-4.18,2.94-3.25,6.5l5.14,19.68c.92,3.56,2.95,4.88,6,4.08s4.09-2.92,3.17-6.48l-.87-3.3a2,2,0,0,1,1.59-2.72l3.47-.9a2,2,0,0,1,2.72,1.59l.56,2.15q3.56,13.64-9.09,17t-16.22-10.35Z"/><path d="M429,453l-6.3-16.81c-3.29-8.8-.78-14.76,7.63-17.91s14.13-.27,17.43,8.53l6.29,16.81q4.95,13.22-7.54,17.88C438.14,464.64,432.33,461.8,429,453Zm17.39-5.23-7.14-19.05c-1.28-3.44-3.35-4.59-6.32-3.48s-3.85,3.36-2.56,6.8l7.13,19.06c1.29,3.44,3.44,4.55,6.4,3.44S447.72,451.2,446.43,447.76Z"/><path d="M471.13,450.76a2,2,0,0,1-3-.91l-18.8-35.11a2,2,0,0,1,.91-3l3.24-1.73a2,2,0,0,1,3,.91l1.73,3.24a9,9,0,0,1,4.69-10.26c4-2.14,7.48-1.59,10.52,1.73a9.35,9.35,0,0,1,4.92-10q8.15-4.35,14,6.5l14.48,27.05a2,2,0,0,1-.91,3l-3.76,2a2,2,0,0,1-3-.91l-14.2-26.52c-1.94-3.62-3.64-4.26-6.13-2.93s-3.08,4.56-1.43,7.65l13.92,26a2,2,0,0,1-.91,3l-3.69,2a2,2,0,0,1-3-.91L469.44,415c-1.94-3.62-3.64-4.26-6.12-2.93-2.64,1.42-3.09,4.56-1.43,7.65l13.91,26a2,2,0,0,1-.9,3Z"/><path d="M403.56,369c-3.49-6.06-12.79-6.38-17.38,2-2.51,4.59-5.12,7.26-7.51,8.81L374.6,373l7.84-4.37L356.6,306.14a37.38,37.38,0,0,0,3.85-3.6c6.15-6.73,12.8-18.85,9.55-38.47-1.12-5.95-1.81-11.26,1.1-15.9,5.24-8.37,2.69-14.66-1.08-17.5-6.88-5.19-14.73-1.18-19.12,3.34l-1.81-25.65c-.36-5.15-2.3-9.61-5.32-12.23a11.65,11.65,0,0,0-13.57-1l-.07-1.05c-.36-5.07-2.44-9.69-5.55-12.34a10.88,10.88,0,0,0-8.22-2.59c-6.27.57-10.45,6.5-11.41,12.78a11,11,0,0,0-5.71-.95c-8.32.79-12.12,9-11.58,16.72l.86,12.17a8.93,8.93,0,0,0-4-.47c-6.89.77-10.93,7.17-10.28,16.29l2.7,38.38h0l.06.76a1.85,1.85,0,0,0,0,.23c1.53,18.32,9.15,28.91,16.16,34.87a39.69,39.69,0,0,1-1.56,13.78c-3.27,11-10.95,19.1-22.71,23.95l-3.15,1.18-22.34,6.86,6.77,22.64,6.39-.78c-1.95,4.16-3.47,10.68-.94,19.5,2.24,7.85,9.11,8.76,13,6.86,5.09-2.5,7.82-7.82,3.06-15.21-5.09-7.9-3.56-11.36-2.09-12.75l.86-.11,2,6.22,2.58.16c1.79.11,3.52.16,5.19.16,35.13,0,44.17-23,44.56-24a3.76,3.76,0,0,0-7-2.64c-.08.21-7.94,20-39.69,19.11l-3.06-9.71-3.3-10.46h0c23.72-9.77,28.33-29.08,29-39.72a26.07,26.07,0,0,0,5.14,2.08,3.72,3.72,0,0,0,.81.09,3.76,3.76,0,0,0,.8-7.43c-.21-.05-20.84-5.92-23-36.14l-2.71-38.38c-.06-.8-.44-7.83,3.62-8.28a1.67,1.67,0,0,1,1.39.47c1.45,1.21,2.61,4.19,2.83,7.26l1.64,23.21a3.76,3.76,0,1,0,7.5-.53l-1.35-19.18h0l-2.18-30.93c-.24-3.3.85-8.34,4.78-8.71a3.38,3.38,0,0,1,2.68.81c1.54,1.3,2.67,4.12,2.88,7.16a.43.43,0,0,0,0,0l2.57,36.33a3.75,3.75,0,0,0,3.74,3.49h.27a3.75,3.75,0,0,0,3.49-4l-3.31-46.95c-.29-4.06,2.12-8.46,4.77-8.7a3.4,3.4,0,0,1,2.66.83c1.56,1.33,2.7,4.13,2.91,7.14l3.32,47a3.76,3.76,0,0,0,7.5-.53l-2.2-31.24a.56.56,0,0,1,0-.13c-.23-3.21.85-8.42,4.7-8.7a3.79,3.79,0,0,1,2.9.89c1.48,1.28,2.53,4,2.75,7.08l3.3,46.8h0v.06l.67,9.49c0,.14.05.28.07.42s0,.17.05.26a3.19,3.19,0,0,0,.21.59l0,.08a3.78,3.78,0,0,0,2.77,2.09l.19,0c.14,0,.28,0,.43,0h.27l.33-.06c.12,0,.25,0,.37-.06a3.4,3.4,0,0,0,.34-.12l.35-.14a3,3,0,0,0,.3-.18l.32-.2c.09-.07.17-.16.26-.24l.27-.25.21-.28a2.46,2.46,0,0,0,.37-.62,3.49,3.49,0,0,0,.15-.34c0-.11.07-.24.1-.36a3.59,3.59,0,0,0,.08-.35,2.68,2.68,0,0,0,0-.4,1.56,1.56,0,0,0,0-.31c-.06-1.55-.32-5-.51-7.48l-.16-2.15v0c-.46-6.55.57-11.68,3-14.85,1.15-1.52,6.25-6.58,10.14-3.64,1.67,1.25,1.37,4.06-.78,7.5-4.7,7.51-3.14,15.8-2.13,21.2,2.75,16.56-2.67,26.59-7.69,32.09a30.72,30.72,0,0,1-4.67,4.12,3.52,3.52,0,0,0-.74.52c-5.19,3.48-10.78,4.87-14.81,4.58a3.76,3.76,0,1,0-.56,7.5q.86.06,1.74.06a31.4,31.4,0,0,0,14.36-3.86l16.7,40.39c-.68,1.42-2.86,4.62-9,5.85a3.76,3.76,0,0,0,.74,7.45,3.88,3.88,0,0,0,.75-.07,21.31,21.31,0,0,0,10.78-5.29l2.72,6.58-2.19,1.22h0l-9.94,5.55-6.28,3.5-36.25-48.42a3.76,3.76,0,1,0-6,4.51l35.64,47.61h0L367.3,405.2l19.9-11.09-2.86-4.8a34.65,34.65,0,0,0,13.39-5.21C405.36,378.9,405.44,372.25,403.56,369Z"/><path d="M308,349.9a4.51,4.51,0,0,1-3.67,4.64A3.76,3.76,0,0,0,305,362a4,4,0,0,0,.68-.06,12.06,12.06,0,0,0,9.83-12.16,3.69,3.69,0,0,0-3.82-3.7A3.76,3.76,0,0,0,308,349.9Z"/><path d="M310.47,256.44c-2,.54-3.17,3.39-2.64,6.37s2.58,5,4.57,4.43,3.17-3.39,2.64-6.37S312.46,255.91,310.47,256.44Z"/><path d="M337.15,267.24c2-.54,3.17-3.39,2.64-6.37s-2.57-5-4.56-4.43-3.17,3.39-2.64,6.37S335.16,267.78,337.15,267.24Z"/><path d="M315.61,284a3.75,3.75,0,0,0,3.73,3.39,2.42,2.42,0,0,0,.38,0l12.56-1.24L328,266.69a3.76,3.76,0,1,0-7.34,1.63l2.48,11.15-4.11.41A3.75,3.75,0,0,0,315.61,284Z"/><path d="M313.09,296.15a3.76,3.76,0,0,0,1.33,5.15,20,20,0,0,0,27.38-7.09,3.76,3.76,0,1,0-6.48-3.82,12.49,12.49,0,0,1-17.08,4.43A3.76,3.76,0,0,0,313.09,296.15Z"/><polygon class="cls-3" points="205.97 232.8 239.21 211.86 222.35 244.95 264.9 246.37 228.46 264.4 251.46 284.84 221.97 283.73 236.75 320.21 205.35 295.55 196.57 324.3 184.96 295.35 160.82 318.08 168.59 283.2 132.52 283.84 162.48 263.75 135.5 244.64 168.97 244.42 150.04 209.08 185.59 232.6 200.4 196.62 205.97 232.8"/></g></svg>