<svg xmlns="http://www.w3.org/2000/svg" viewBox="0 0 648 648"><defs><style>.cls-1{fill:#ff5c39;}</style></defs><g id="Layer_6" data-name="Layer 6"><rect class="cls-1" width="648" height="648"/></g><g id="Layer_1" data-name="Layer 1"><path d="M588,258a249.8,249.8,0,0,1,11.59,76.47A218.92,218.92,0,0,1,595,378.23q-6.71,31.42-28.59,52.27T511,451.36H509a60.75,60.75,0,0,1-35.28-12.1Q458,427.67,451.78,403q-7.21,24.72-24.72,36.57t-34.5,11.84h-4.12q-13.9,0-24.2-3.6Q361.15,491,339.52,526t-59.74,55.36q-38.11,20.34-88.57,20.34t-82.65-22.4a130.54,130.54,0,0,1-47.12-58.71q-15-36.3-14.94-80.07,0-56.13,21.12-105.57,3.09-7.22,8-10.56a17.57,17.57,0,0,1,10-3.35,16.28,16.28,0,0,1,11.84,5.15q5.14,5.16,5.15,13.39a27.85,27.85,0,0,1-1,6.18Q91.3,390.6,91.3,412.22q0,34,22.15,51.5t77.76,17.51a266.91,266.91,0,0,0,55.62-5.92q27.79-5.93,47.63-16.48t25-23.43q-20.61-46.35-62.32-113.3l56.65-53q6.69-5.65,9.79-5.66,4.11,0,7.21,5.66,4.11,6.18,9.26,18.54,1.55,3.61,7.73,17.77t16,20.85q9.78,6.7,24.21,6.7h4.63q17,0,25.24-5.41a27.53,27.53,0,0,0,11.32-14.93q3.09-9.52,8.24-35.8,2.06-8.22,7-12.61a16.19,16.19,0,0,1,11.07-4.38A16.9,16.9,0,0,1,468,265.46q5.42,5.67,4.9,15.44-1,29.88,7.21,40.94T510,332.92h1q14.93,0,25.49-4.12T552.2,318Q541.39,293.79,512,250l38.11-44.81q4.64-5.65,8.76-5.66c2.06,0,4.45,1.89,7.21,5.66Q576.4,221.7,588,258Z"/><path d="M533.75,144.45q0,18.86-6.65,31.42t-23.14,20q-18.45,8.66-50.44,13.79t-75.58,5.17q-44,0-73.82-6.6t-46.94-24.89q-17.1-18.24-17.13-50.83,0-8.25,3.11-28.27t9.77-58.91L293,54q-9.37,53.42-9.36,66.76,0,11.78,7.87,17.86t26.9,8.41q19,2.34,56.35,2.31,73-.07,114.64-9.93l-9.51-85.58,49.86-8.69Q533.7,103.23,533.75,144.45ZM382.61,221.93l44,35.3-33.73,40.86-44-35.29Z"/><path d="M108.41,393.11l-4.86-21.06c-1.84-7.95,1.4-13.14,9.35-15l25.74-5.95c8-1.84,13.15,1.4,15,9.36l6.6,28.55c5.08,22,15,30.56,33.67,26.23,19.19-4.43,24.3-16.46,19.21-38.46l-1.62-7c-3.57-15.44-10.13-26.75-22.44-35.24-12.43-9-18.55-12-36-19.29-17.57-7.77-23.58-10.32-39.36-21C92,279.56,79.31,260.8,69.14,223.22l-.21-.94c-12.45-53.82,7.6-86.56,60-98.68,52-12,84.87,11,98.18,68.52l2.92,12.64c1.84,8-1.4,13.14-9.36,15L195,225.69c-8,1.84-13.14-1.4-15-9.36l-4.66-20.12c-5.08-22-14.95-30.56-33.67-26.24-19.19,4.44-24.3,16.47-19.21,38.46l.64,2.81a58.4,58.4,0,0,0,13.52,26.46q9.93,11,18.58,16.41c6.12,3,15,7.38,26.47,12.13,17.57,7.77,23.59,10.32,39.36,21,7.71,5.61,13.9,11.08,18.7,16.88,9.94,11,20.42,30.77,25.72,53.71l1.3,5.61q18.51,80-60.13,98.21C154.64,473.64,121.72,450.68,108.41,393.11Z"/><path d="M547.88,602.66H366.2V540.52a131.51,131.51,0,0,1,4-34q4-15,13.8-24t27.3-8.92a48.9,48.9,0,0,1,23.55,6.27q11.57,6.27,15.74,17.42h1.12a46,46,0,0,1,14.07-23.27q10.46-9.33,28.56-9.33,18.67,0,30.37,9.47t17.42,25.36q5.72,15.88,5.71,35.67Zm-108.95-41V542.47q0-15-5.85-21.87t-15.61-6.83q-10.58,0-15,7T398,542.19V561.7Zm77.18,0V538.57q0-33.72-24.52-33.72-12,0-17.13,8.36t-5.16,25.36V561.7Z"/></g></svg>