<svg xmlns="http://www.w3.org/2000/svg" viewBox="0 0 648 648"><defs><style>.cls-1{fill:#fdeae2;}.cls-2{fill:#ff5c35;}.cls-3,.cls-5{fill:none;stroke-miterlimit:10;stroke-width:2px;}.cls-3{stroke:#ff5c35;}.cls-4{fill:#fff;}.cls-5{stroke:#fff;}</style></defs><g id="Layer_1" data-name="Layer 1"><rect width="648" height="648"/><rect class="cls-1" x="98.56" y="149.82" width="449.64" height="348.36"/><rect class="cls-2" x="98.56" y="149.82" width="24.39" height="24.39"/><polygon points="109.02 160.27 105.53 160.27 105.53 153.3 102.05 153.3 102.05 170.72 105.53 170.72 105.53 163.75 109.02 163.75 109.02 170.72 112.5 170.72 112.5 153.3 109.02 153.3 109.02 160.27"/><rect x="115.98" y="153.3" width="3.48" height="17.42"/><rect class="cls-2" x="523.82" y="149.82" width="24.39" height="24.39"/><polygon points="534.27 160.27 530.79 160.27 530.79 153.3 527.3 153.3 527.3 170.72 530.79 170.72 530.79 163.75 534.27 163.75 534.27 170.72 537.75 170.72 537.75 153.3 534.27 153.3 534.27 160.27"/><rect x="541.24" y="153.3" width="3.48" height="17.42"/><rect class="cls-2" x="98.56" y="473.79" width="24.39" height="24.39"/><polygon points="109.02 484.25 105.53 484.25 105.53 477.28 102.05 477.28 102.05 494.7 105.53 494.7 105.53 487.73 109.02 487.73 109.02 494.7 112.5 494.7 112.5 477.28 109.02 477.28 109.02 484.25"/><rect x="115.98" y="477.28" width="3.48" height="17.42"/><rect class="cls-2" x="523.82" y="473.79" width="24.39" height="24.39"/><polygon points="534.27 484.25 530.79 484.25 530.79 477.28 527.3 477.28 527.3 494.7 530.79 494.7 530.79 487.73 534.27 487.73 534.27 494.7 537.75 494.7 537.75 477.28 534.27 477.28 534.27 484.25"/><rect x="541.24" y="477.28" width="3.48" height="17.42"/><line class="cls-3" x1="110.82" y1="123.43" x2="369.99" y2="123.43"/><rect class="cls-4" x="122.95" y="174.21" width="400.87" height="299.59"/><path d="M523.46,276.91a153.41,153.41,0,1,1-19.07-74.15A152.78,152.78,0,0,1,523.46,276.91Z"/><path class="cls-1" d="M523.46,276.91a152.78,152.78,0,0,1-19.07,74.14H444.14V202.76h60.25A152.81,152.81,0,0,1,523.46,276.91Z"/><path class="cls-1" d="M444.14,351.05V411.3a153.62,153.62,0,0,1-148.3,0V351.05Z"/><path class="cls-4" d="M504.39,351.05a154.1,154.1,0,0,1-60.25,60.25V351.05Z"/><rect class="cls-2" x="295.84" y="202.76" width="148.3" height="148.3"/><polygon points="359.39 266.31 338.21 266.31 338.21 223.94 317.02 223.94 317.02 329.87 338.21 329.87 338.21 287.5 359.39 287.5 359.39 329.87 380.58 329.87 380.58 223.94 359.39 223.94 359.39 266.31"/><rect x="401.77" y="223.94" width="21.19" height="105.93"/><line class="cls-5" x1="295.84" y1="188.36" x2="444.14" y2="188.36"/><path class="cls-4" d="M322.93,177.46l3.91-7.72v-.07h-4.5v-.94h5.59v1L324,177.46Z"/><path class="cls-4" d="M329.62,170.83v-.46a2,2,0,0,1,.19-.88,1.63,1.63,0,0,1,.58-.64,1.74,1.74,0,0,1,.93-.24,1.69,1.69,0,0,1,.93.24,1.53,1.53,0,0,1,.57.64,2.14,2.14,0,0,1,.19.88v.46a2,2,0,0,1-.2.87,1.47,1.47,0,0,1-.57.64,1.9,1.9,0,0,1-1.85,0,1.49,1.49,0,0,1-.58-.64A2,2,0,0,1,329.62,170.83Zm.32,6.63,6-8.73h1l-6,8.73Zm.55-7.09v.46a1.41,1.41,0,0,0,.18.71.71.71,0,0,0,.65.31.68.68,0,0,0,.63-.31,1.33,1.33,0,0,0,.19-.71v-.46a1.36,1.36,0,0,0-.18-.71.67.67,0,0,0-.64-.32.69.69,0,0,0-.64.32A1.28,1.28,0,0,0,330.49,170.37Zm3.47,5.45v-.46a2,2,0,0,1,.2-.88,1.6,1.6,0,0,1,.58-.63,1.85,1.85,0,0,1,1.86,0,1.48,1.48,0,0,1,.56.63,2,2,0,0,1,.19.88v.46a2,2,0,0,1-.19.88,1.56,1.56,0,0,1-1.49.88,1.75,1.75,0,0,1-.94-.24,1.67,1.67,0,0,1-.57-.64A2,2,0,0,1,334,175.82Zm.87-.46v.46a1.33,1.33,0,0,0,.19.71.68.68,0,0,0,.65.31.66.66,0,0,0,.63-.31,1.42,1.42,0,0,0,.19-.71v-.46a1.41,1.41,0,0,0-.18-.71.68.68,0,0,0-.64-.31.69.69,0,0,0-.64.31A1.33,1.33,0,0,0,334.83,175.36Z"/><path class="cls-4" d="M347.56,170.91a1.29,1.29,0,0,0-.62-1,2.37,2.37,0,0,0-1.34-.36,2.46,2.46,0,0,0-1,.19,1.52,1.52,0,0,0-.67.51,1.24,1.24,0,0,0-.24.75,1,1,0,0,0,.17.6,1.41,1.41,0,0,0,.43.41,3.11,3.11,0,0,0,.55.27l.54.17.88.23c.23.06.48.15.76.25a4,4,0,0,1,.81.43,2.23,2.23,0,0,1,.64.69,2.08,2.08,0,0,1,.25,1,2.36,2.36,0,0,1-.37,1.28,2.54,2.54,0,0,1-1.08.9,3.86,3.86,0,0,1-1.71.34,4,4,0,0,1-1.62-.3,2.6,2.6,0,0,1-1.07-.85,2.36,2.36,0,0,1-.44-1.25h1.09a1.35,1.35,0,0,0,.33.81,1.7,1.7,0,0,0,.74.48,3.08,3.08,0,0,0,1,.16,2.86,2.86,0,0,0,1.09-.2,1.76,1.76,0,0,0,.76-.56,1.26,1.26,0,0,0,.28-.83,1,1,0,0,0-.24-.71,1.69,1.69,0,0,0-.64-.44,8.42,8.42,0,0,0-.85-.3l-1.08-.31a4,4,0,0,1-1.62-.83,1.84,1.84,0,0,1-.59-1.43,2.13,2.13,0,0,1,.39-1.28,2.72,2.72,0,0,1,1.08-.86,3.67,3.67,0,0,1,1.51-.3,3.59,3.59,0,0,1,1.5.3,2.59,2.59,0,0,1,1,.82,2.08,2.08,0,0,1,.41,1.18Z"/><path class="cls-4" d="M350.31,177.46v-6.55h1v1h.09a1.56,1.56,0,0,1,.66-.81,1.93,1.93,0,0,1,1.09-.29,1.85,1.85,0,0,1,1.08.29,1.88,1.88,0,0,1,.68.81H355a1.86,1.86,0,0,1,.75-.8,2.34,2.34,0,0,1,1.21-.3,2,2,0,0,1,1.43.54,2.33,2.33,0,0,1,.56,1.71v4.38h-1v-4.38a1.25,1.25,0,0,0-.39-1,1.48,1.48,0,0,0-.94-.31,1.37,1.37,0,0,0-1.06.41,1.48,1.48,0,0,0-.38,1.06v4.26h-1V173a1.19,1.19,0,0,0-.36-.9,1.29,1.29,0,0,0-.93-.34,1.35,1.35,0,0,0-.73.21,1.54,1.54,0,0,0-.55.58,1.65,1.65,0,0,0-.21.85v4.09Z"/><path class="cls-4" d="M362.67,177.61a2.6,2.6,0,0,1-1.13-.24,1.86,1.86,0,0,1-.81-.68,1.94,1.94,0,0,1-.3-1.09,1.69,1.69,0,0,1,.23-.92,1.57,1.57,0,0,1,.59-.55,3.47,3.47,0,0,1,.82-.3c.3-.06.6-.12.9-.16l1-.11a1.72,1.72,0,0,0,.55-.14.37.37,0,0,0,.17-.34v0a1.33,1.33,0,0,0-.34-1,1.42,1.42,0,0,0-1-.35,1.81,1.81,0,0,0-1.13.32,1.84,1.84,0,0,0-.57.67l-1-.34a2.23,2.23,0,0,1,.69-.93,2.56,2.56,0,0,1,.93-.47,3.88,3.88,0,0,1,1.73-.06,2.25,2.25,0,0,1,.8.31,1.72,1.72,0,0,1,.64.69,2.57,2.57,0,0,1,.26,1.24v4.32h-1v-.89h-.05a2,2,0,0,1-.34.46,1.91,1.91,0,0,1-.64.41A2.46,2.46,0,0,1,362.67,177.61Zm.15-.9a2,2,0,0,0,1-.24,1.63,1.63,0,0,0,.62-.6,1.58,1.58,0,0,0,.21-.78v-.92a.64.64,0,0,1-.28.14,4.67,4.67,0,0,1-.49.1l-.54.08-.43,0a4.1,4.1,0,0,0-.73.17,1.18,1.18,0,0,0-.54.33.85.85,0,0,0-.21.61.9.9,0,0,0,.39.79A1.7,1.7,0,0,0,362.82,176.71Z"/><path class="cls-4" d="M368.51,168.73v8.73h-1v-8.73Z"/><path class="cls-4" d="M371.36,168.73v8.73h-1v-8.73Z"/><path class="cls-4" d="M376,177.59a3,3,0,0,1-1.63-.42,2.8,2.8,0,0,1-1.06-1.17,4.07,4.07,0,0,1-.37-1.76,4.13,4.13,0,0,1,.37-1.78,3,3,0,0,1,1-1.2,2.78,2.78,0,0,1,1.55-.43,2.94,2.94,0,0,1,1,.17,2.32,2.32,0,0,1,.91.55,2.63,2.63,0,0,1,.65,1,4.28,4.28,0,0,1,.25,1.54v.42h-5.05v-.86h4a2.12,2.12,0,0,0-.22-1,1.65,1.65,0,0,0-.62-.69,1.73,1.73,0,0,0-1-.25,1.76,1.76,0,0,0-1,.3,1.92,1.92,0,0,0-.68.76,2.38,2.38,0,0,0-.23,1v.58a2.78,2.78,0,0,0,.26,1.25,1.71,1.71,0,0,0,.72.78,2,2,0,0,0,1.07.27,2.25,2.25,0,0,0,.71-.11,1.59,1.59,0,0,0,.56-.34,1.54,1.54,0,0,0,.36-.57l1,.27a2.13,2.13,0,0,1-.51.87,2.45,2.45,0,0,1-.9.58A3.41,3.41,0,0,1,376,177.59Z"/><path class="cls-4" d="M384.83,172.38l-.91.25a1.64,1.64,0,0,0-.25-.44,1.2,1.2,0,0,0-.44-.35,1.54,1.54,0,0,0-.72-.14,1.73,1.73,0,0,0-1,.27.81.81,0,0,0-.4.7.72.72,0,0,0,.27.59,2.45,2.45,0,0,0,.85.36l1,.24a2.65,2.65,0,0,1,1.3.65,1.53,1.53,0,0,1,.44,1.12,1.65,1.65,0,0,1-.33,1,2.18,2.18,0,0,1-.89.7,3.3,3.3,0,0,1-1.34.25,3,3,0,0,1-1.66-.43,1.92,1.92,0,0,1-.83-1.27l1-.24a1.37,1.37,0,0,0,.52.79,1.71,1.71,0,0,0,1,.27,1.88,1.88,0,0,0,1.12-.3.87.87,0,0,0,.42-.73.78.78,0,0,0-.24-.57,1.65,1.65,0,0,0-.74-.35l-1.09-.25a2.64,2.64,0,0,1-1.32-.66,1.7,1.7,0,0,1-.1-2.11,2,2,0,0,1,.85-.67,3.08,3.08,0,0,1,1.24-.24,2.5,2.5,0,0,1,1.53.42A2.35,2.35,0,0,1,384.83,172.38Z"/><path class="cls-4" d="M389.31,170.91v.85h-3.39v-.85Zm-2.4-1.57h1v6.24a1.2,1.2,0,0,0,.13.64.62.62,0,0,0,.32.28,1.16,1.16,0,0,0,.42.07l.27,0,.17,0,.21.9a1.85,1.85,0,0,1-.29.08,2,2,0,0,1-.46,0,2,2,0,0,1-.83-.18,1.61,1.61,0,0,1-.68-.56,1.57,1.57,0,0,1-.26-1Z"/><path class="cls-4" d="M399.11,170.91a1.32,1.32,0,0,0-.62-1,2.39,2.39,0,0,0-1.34-.36,2.43,2.43,0,0,0-1,.19,1.55,1.55,0,0,0-.68.51,1.24,1.24,0,0,0-.24.75,1.08,1.08,0,0,0,.17.6,1.53,1.53,0,0,0,.43.41,3.2,3.2,0,0,0,.56.27l.53.17.89.23c.22.06.48.15.76.25a3.64,3.64,0,0,1,.8.43,2.23,2.23,0,0,1,.64.69,2,2,0,0,1,.25,1,2.28,2.28,0,0,1-.37,1.28,2.46,2.46,0,0,1-1.07.9,3.86,3.86,0,0,1-1.71.34,4,4,0,0,1-1.62-.3,2.57,2.57,0,0,1-1.08-.85,2.44,2.44,0,0,1-.44-1.25h1.09a1.3,1.3,0,0,0,.34.81,1.64,1.64,0,0,0,.74.48,3,3,0,0,0,1,.16,2.94,2.94,0,0,0,1.09-.2,1.82,1.82,0,0,0,.76-.56,1.26,1.26,0,0,0,.28-.83,1,1,0,0,0-.24-.71,1.87,1.87,0,0,0-.64-.44,8.63,8.63,0,0,0-.86-.3l-1.07-.31a3.86,3.86,0,0,1-1.62-.83,1.85,1.85,0,0,1-.6-1.43,2.08,2.08,0,0,1,.4-1.28,2.62,2.62,0,0,1,1.07-.86,3.7,3.7,0,0,1,1.51-.3,3.52,3.52,0,0,1,1.5.3,2.62,2.62,0,0,1,1.05.82,2.07,2.07,0,0,1,.4,1.18Z"/><path class="cls-4" d="M402.37,169.82a.73.73,0,0,1-.51-.2.65.65,0,0,1,0-1,.69.69,0,0,1,.51-.2.68.68,0,0,1,.5.2.65.65,0,0,1,0,1A.72.72,0,0,1,402.37,169.82Zm-.52,7.64v-6.55h1v6.55Z"/><path class="cls-4" d="M407.17,177.59a2.61,2.61,0,0,1-1.44-.41,2.73,2.73,0,0,1-1-1.18,4.19,4.19,0,0,1-.36-1.8,4.14,4.14,0,0,1,.36-1.79,2.7,2.7,0,0,1,1-1.17,2.57,2.57,0,0,1,1.46-.41,2.05,2.05,0,0,1,1,.21,1.84,1.84,0,0,1,.57.47c.13.18.24.33.31.44h.09v-3.22h1v8.73h-1v-1h-.12c-.07.12-.18.27-.31.45a1.82,1.82,0,0,1-.59.48A2.08,2.08,0,0,1,407.17,177.59Zm.14-.9a1.65,1.65,0,0,0,1-.32,2,2,0,0,0,.64-.88,3.75,3.75,0,0,0,.21-1.31,3.62,3.62,0,0,0-.21-1.28,1.81,1.81,0,0,0-.63-.86,1.87,1.87,0,0,0-2.09,0,1.87,1.87,0,0,0-.64.88,3.47,3.47,0,0,0-.21,1.24,3.64,3.64,0,0,0,.21,1.27,2.18,2.18,0,0,0,.64.91A1.7,1.7,0,0,0,407.31,176.69Z"/><path class="cls-4" d="M414.89,177.59a3.07,3.07,0,0,1-1.63-.42,2.84,2.84,0,0,1-1.05-1.17,4.07,4.07,0,0,1-.37-1.76,4.13,4.13,0,0,1,.37-1.78,3,3,0,0,1,1-1.2,2.76,2.76,0,0,1,1.55-.43,2.94,2.94,0,0,1,1,.17,2.39,2.39,0,0,1,.91.55,2.63,2.63,0,0,1,.65,1,4.29,4.29,0,0,1,.24,1.54v.42h-5v-.86h4a2.12,2.12,0,0,0-.22-1,1.65,1.65,0,0,0-.62-.69,1.73,1.73,0,0,0-.95-.25,1.79,1.79,0,0,0-1,.3,2,2,0,0,0-.67.76,2.38,2.38,0,0,0-.23,1v.58a2.66,2.66,0,0,0,.26,1.25,1.75,1.75,0,0,0,.71.78,2.1,2.1,0,0,0,1.07.27,2.27,2.27,0,0,0,.72-.11,1.59,1.59,0,0,0,.56-.34,1.85,1.85,0,0,0,.36-.57l1,.27a2.13,2.13,0,0,1-.51.87,2.54,2.54,0,0,1-.9.58A3.43,3.43,0,0,1,414.89,177.59Z"/><line class="cls-5" x1="281.44" y1="351.05" x2="281.44" y2="202.76"/><path class="cls-4" d="M270.54,324l-7.72-3.9h-.07v4.5h-.94V319h1l7.74,3.88Z"/><path class="cls-4" d="M263.91,317.28h-.46a2,2,0,0,1-.88-.2,1.62,1.62,0,0,1-.64-.58,1.69,1.69,0,0,1-.24-.93,1.66,1.66,0,0,1,.24-.92,1.6,1.6,0,0,1,.64-.57,2,2,0,0,1,.88-.19h.46a1.92,1.92,0,0,1,.87.19,1.53,1.53,0,0,1,.64.57,1.68,1.68,0,0,1,.24.92,1.75,1.75,0,0,1-.24.94,1.53,1.53,0,0,1-.64.57A1.92,1.92,0,0,1,263.91,317.28Zm6.63-.33-8.73-6v-1l8.73,6Zm-7.09-.54h.46a1.33,1.33,0,0,0,.71-.19.68.68,0,0,0,.31-.65.67.67,0,0,0-.31-.63,1.41,1.41,0,0,0-.71-.18h-.46a1.49,1.49,0,0,0-.71.17.68.68,0,0,0-.32.64.71.71,0,0,0,.32.65A1.39,1.39,0,0,0,263.45,316.41Zm5.45-3.48h-.46a1.8,1.8,0,0,1-.87-.2,1.49,1.49,0,0,1-.64-.58,1.9,1.9,0,0,1,0-1.85,1.53,1.53,0,0,1,.64-.57,1.92,1.92,0,0,1,.87-.19h.46a2,2,0,0,1,.88.19,1.6,1.6,0,0,1,.64.57,1.72,1.72,0,0,1,.24.93,1.69,1.69,0,0,1-.24.93,1.62,1.62,0,0,1-.64.58A2,2,0,0,1,268.9,312.93Zm-.46-.87h.46a1.39,1.39,0,0,0,.71-.18.7.7,0,0,0,.31-.65.69.69,0,0,0-.31-.64,1.39,1.39,0,0,0-.71-.18h-.46a1.41,1.41,0,0,0-.71.18.67.67,0,0,0-.31.64.69.69,0,0,0,.31.64A1.33,1.33,0,0,0,268.44,312.06Z"/><path class="cls-4" d="M264,299.33a1.34,1.34,0,0,0-1,.62,2.39,2.39,0,0,0-.36,1.34,2.43,2.43,0,0,0,.19,1,1.61,1.61,0,0,0,.51.68,1.24,1.24,0,0,0,.75.24,1.08,1.08,0,0,0,.6-.17,1.53,1.53,0,0,0,.41-.43,3.2,3.2,0,0,0,.27-.56c.07-.19.12-.37.17-.53l.24-.89c.06-.22.14-.48.24-.76a3.64,3.64,0,0,1,.43-.8,2.23,2.23,0,0,1,.69-.64,2,2,0,0,1,1-.25,2.28,2.28,0,0,1,1.28.37,2.46,2.46,0,0,1,.9,1.07,3.86,3.86,0,0,1,.34,1.71,4,4,0,0,1-.3,1.62,2.55,2.55,0,0,1-.84,1.08,2.48,2.48,0,0,1-1.26.44v-1.09a1.3,1.3,0,0,0,.81-.34,1.64,1.64,0,0,0,.48-.74,2.78,2.78,0,0,0,.16-1,2.94,2.94,0,0,0-.2-1.09,1.82,1.82,0,0,0-.56-.76,1.26,1.26,0,0,0-.83-.28,1.05,1.05,0,0,0-.71.24,2,2,0,0,0-.44.64,8.63,8.63,0,0,0-.3.86l-.3,1.07a4.13,4.13,0,0,1-.84,1.62,1.85,1.85,0,0,1-1.43.6,2.08,2.08,0,0,1-1.28-.4,2.58,2.58,0,0,1-.85-1.07,3.87,3.87,0,0,1,0-3,2.71,2.71,0,0,1,.82-1.05,2.07,2.07,0,0,1,1.18-.4Z"/><path class="cls-4" d="M270.54,296.59H264v-1h1v-.08a1.68,1.68,0,0,1-.82-.66,2,2,0,0,1-.29-1.1,1.85,1.85,0,0,1,.29-1.08A1.89,1.89,0,0,1,265,292V292a1.91,1.91,0,0,1-.81-.76,2.27,2.27,0,0,1-.3-1.2,1.94,1.94,0,0,1,.55-1.44,2.29,2.29,0,0,1,1.7-.56h4.38v1h-4.38a1.23,1.23,0,0,0-1,.4,1.43,1.43,0,0,0-.31.93,1.36,1.36,0,0,0,.42,1.07,1.49,1.49,0,0,0,1,.38h4.26v1h-4.48a1.2,1.2,0,0,0-.91.36,1.43,1.43,0,0,0-.13,1.67,1.51,1.51,0,0,0,.58.54,1.67,1.67,0,0,0,.85.21h4.09Z"/><path class="cls-4" d="M270.69,284.23a2.78,2.78,0,0,1-.23,1.13,2,2,0,0,1-.69.8,1.91,1.91,0,0,1-1.09.3,1.54,1.54,0,0,1-1.47-.81,3.47,3.47,0,0,1-.3-.82c-.06-.3-.12-.61-.16-.91s-.09-.72-.11-1a1.58,1.58,0,0,0-.14-.54.36.36,0,0,0-.34-.18h0a1.35,1.35,0,0,0-1,.35,1.39,1.39,0,0,0-.35,1,1.81,1.81,0,0,0,.32,1.13,1.78,1.78,0,0,0,.67.58l-.34.95a2.3,2.3,0,0,1-.93-.68,2.68,2.68,0,0,1-.47-.94,3.87,3.87,0,0,1-.13-1,4.14,4.14,0,0,1,.07-.73,2.33,2.33,0,0,1,.31-.8,1.79,1.79,0,0,1,.69-.64,2.62,2.62,0,0,1,1.25-.25h4.31v1h-.89v0a1.95,1.95,0,0,1,.87,1A2.51,2.51,0,0,1,270.69,284.23Zm-.9-.16a2,2,0,0,0-.24-1,1.52,1.52,0,0,0-.6-.63,1.58,1.58,0,0,0-.78-.21h-.92a.65.65,0,0,1,.14.28,4.9,4.9,0,0,1,.1.5c0,.18.06.36.08.54s0,.31.05.42a3.9,3.9,0,0,0,.17.73,1.31,1.31,0,0,0,.33.55.87.87,0,0,0,.61.21.9.9,0,0,0,.79-.4A1.68,1.68,0,0,0,269.79,284.07Z"/><path class="cls-4" d="M261.81,278.38h8.73v1h-8.73Z"/><path class="cls-4" d="M261.81,275.53h8.73v1h-8.73Z"/><path class="cls-4" d="M270.67,271a3.07,3.07,0,0,1-.42,1.63,2.66,2.66,0,0,1-1.17,1.05,3.93,3.93,0,0,1-1.76.37,4,4,0,0,1-1.78-.37,2.88,2.88,0,0,1-1.2-1,2.76,2.76,0,0,1-.43-1.55,2.94,2.94,0,0,1,.17-1,2.51,2.51,0,0,1,1.56-1.56,4.33,4.33,0,0,1,1.54-.24h.43v5h-.87v-4a2.12,2.12,0,0,0-1,.22,1.72,1.72,0,0,0-.69.62,1.75,1.75,0,0,0-.25.95,1.79,1.79,0,0,0,.3,1,1.93,1.93,0,0,0,.77.67,2.17,2.17,0,0,0,1,.23h.58a2.86,2.86,0,0,0,1.26-.25,1.79,1.79,0,0,0,.77-.72,2.07,2.07,0,0,0,.27-1.07,2.31,2.31,0,0,0-.11-.72,1.68,1.68,0,0,0-.34-.56,1.64,1.64,0,0,0-.57-.36l.27-1a2.15,2.15,0,0,1,.87.52,2.5,2.5,0,0,1,.58.89A3.29,3.29,0,0,1,270.67,271Z"/><path class="cls-4" d="M265.46,262.07l.25.9a2,2,0,0,0-.44.25,1.24,1.24,0,0,0-.35.45,1.49,1.49,0,0,0-.14.72,1.76,1.76,0,0,0,.27,1,.83.83,0,0,0,.7.39.71.71,0,0,0,.59-.27,2.06,2.06,0,0,0,.36-.85l.24-1a2.69,2.69,0,0,1,.65-1.31,1.52,1.52,0,0,1,1.12-.43,1.71,1.71,0,0,1,1,.32,2.13,2.13,0,0,1,.7.9,3.27,3.27,0,0,1,.25,1.34,2.91,2.91,0,0,1-.43,1.65A1.89,1.89,0,0,1,269,267l-.24-.95a1.28,1.28,0,0,0,.79-.52,1.67,1.67,0,0,0,.27-1,1.88,1.88,0,0,0-.3-1.12.88.88,0,0,0-.72-.41.78.78,0,0,0-.58.24,1.6,1.6,0,0,0-.35.73l-.25,1.09a2.56,2.56,0,0,1-.66,1.32,1.72,1.72,0,0,1-2.11.11,2.15,2.15,0,0,1-.67-.86,3,3,0,0,1-.24-1.23,2.48,2.48,0,0,1,.42-1.53A2.35,2.35,0,0,1,265.46,262.07Z"/><path class="cls-4" d="M262.42,260v-1h6.24a1.32,1.32,0,0,0,.64-.12.64.64,0,0,0,.28-.33,1.16,1.16,0,0,0,.07-.42,1.06,1.06,0,0,0,0-.27c0-.07,0-.13,0-.17l.9-.2a1.07,1.07,0,0,1,.08.28,2.22,2.22,0,0,1-.14,1.3,1.64,1.64,0,0,1-.56.67,1.56,1.56,0,0,1-.94.27Zm1.57-2.4h.85V261H264Z"/><path class="cls-4" d="M264,247.78a1.35,1.35,0,0,0-1,.63,2.37,2.37,0,0,0-.36,1.34,2.46,2.46,0,0,0,.19,1,1.52,1.52,0,0,0,.51.67,1.24,1.24,0,0,0,.75.24,1,1,0,0,0,.6-.17,1.41,1.41,0,0,0,.41-.43,3.11,3.11,0,0,0,.27-.55c.07-.2.12-.37.17-.54l.24-.88c.06-.23.14-.48.24-.76a4,4,0,0,1,.43-.81,2.23,2.23,0,0,1,.69-.64,2.08,2.08,0,0,1,1-.25,2.36,2.36,0,0,1,1.28.37,2.58,2.58,0,0,1,.9,1.07,3.94,3.94,0,0,1,.34,1.72,4,4,0,0,1-.3,1.62,2.58,2.58,0,0,1-.84,1.07,2.39,2.39,0,0,1-1.26.44v-1.09a1.35,1.35,0,0,0,.81-.33,1.7,1.7,0,0,0,.48-.74,2.82,2.82,0,0,0,.16-1,2.86,2.86,0,0,0-.2-1.09A1.76,1.76,0,0,0,269,248a1.26,1.26,0,0,0-.83-.28,1.05,1.05,0,0,0-.71.24,1.81,1.81,0,0,0-.44.64,8.42,8.42,0,0,0-.3.85l-.3,1.08a4.13,4.13,0,0,1-.84,1.62,1.84,1.84,0,0,1-1.43.59,2.13,2.13,0,0,1-1.28-.39,2.62,2.62,0,0,1-.85-1.08,3.52,3.52,0,0,1-.31-1.51,3.59,3.59,0,0,1,.3-1.5,2.68,2.68,0,0,1,.82-1,2.08,2.08,0,0,1,1.18-.41Z"/><path class="cls-4" d="M262.9,244.53a.7.7,0,0,1-.2.5.63.63,0,0,1-1,0,.66.66,0,0,1-.2-.5.69.69,0,0,1,.2-.51.65.65,0,0,1,1,0A.73.73,0,0,1,262.9,244.53Zm7.64.51H264v-1h6.55Z"/><path class="cls-4" d="M270.67,239.72a2.54,2.54,0,0,1-.41,1.45,2.87,2.87,0,0,1-1.18,1,4.28,4.28,0,0,1-1.8.35,4.33,4.33,0,0,1-1.79-.35,2.85,2.85,0,0,1-1.17-1,2.62,2.62,0,0,1-.41-1.45,2.09,2.09,0,0,1,.21-1,1.73,1.73,0,0,1,.48-.57l.43-.31v-.08h-3.22v-1h8.73v1h-1v.12c.12.08.27.18.45.32a1.77,1.77,0,0,1,.48.58A2.11,2.11,0,0,1,270.67,239.72Zm-.9-.13a1.6,1.6,0,0,0-.32-1,1.87,1.87,0,0,0-.88-.63,3.47,3.47,0,0,0-1.3-.22,3.63,3.63,0,0,0-1.29.21,2,2,0,0,0-.86.63,1.88,1.88,0,0,0,0,2.1,1.92,1.92,0,0,0,.88.63,3.52,3.52,0,0,0,1.25.22,3.62,3.62,0,0,0,1.26-.22,2.09,2.09,0,0,0,.91-.64A1.65,1.65,0,0,0,269.77,239.59Z"/><path class="cls-4" d="M270.67,232a3.07,3.07,0,0,1-.42,1.63,2.66,2.66,0,0,1-1.17,1.05,3.93,3.93,0,0,1-1.76.37,4,4,0,0,1-1.78-.37,2.88,2.88,0,0,1-1.2-1,2.76,2.76,0,0,1-.43-1.55,3,3,0,0,1,.17-1,2.49,2.49,0,0,1,.55-.9,2.65,2.65,0,0,1,1-.66,4.33,4.33,0,0,1,1.54-.24h.43v5.05h-.87v-4a2.25,2.25,0,0,0-1,.22,1.8,1.8,0,0,0-.69.62,1.75,1.75,0,0,0-.25.95,1.79,1.79,0,0,0,.3,1,1.85,1.85,0,0,0,.77.67,2.18,2.18,0,0,0,1,.24h.58a2.86,2.86,0,0,0,1.26-.26,1.74,1.74,0,0,0,.77-.72,2.07,2.07,0,0,0,.27-1.07,2.36,2.36,0,0,0-.11-.72,1.55,1.55,0,0,0-.34-.55,1.52,1.52,0,0,0-.57-.37l.27-1a2.27,2.27,0,0,1,.87.52,2.5,2.5,0,0,1,.58.89A3.29,3.29,0,0,1,270.67,232Z"/><path class="cls-3" d="M523.46,276.91a153.41,153.41,0,1,1-19.07-74.15A152.78,152.78,0,0,1,523.46,276.91Z"/><line class="cls-3" x1="252.52" y1="374.5" x2="83.97" y2="189.84"/><path class="cls-3" d="M149.38,162a38.42,38.42,0,0,1-4.8,18.66,38.86,38.86,0,0,1-15.16,15.17,38.66,38.66,0,1,1,20-33.83Z"/><line class="cls-5" x1="65.2" y1="498.18" x2="65.2" y2="149.84"/><path class="cls-4" d="M47.75,356.42a1.34,1.34,0,0,0-1,.62,2.72,2.72,0,0,0-.17,2.35,1.55,1.55,0,0,0,.51.68,1.24,1.24,0,0,0,.75.24,1.08,1.08,0,0,0,.6-.17,1.53,1.53,0,0,0,.41-.43,2.89,2.89,0,0,0,.27-.56,5.31,5.31,0,0,0,.17-.53l.24-.89c.06-.22.14-.48.24-.76a3.64,3.64,0,0,1,.43-.8,2.23,2.23,0,0,1,.69-.64,2,2,0,0,1,1-.25,2.28,2.28,0,0,1,1.28.37,2.54,2.54,0,0,1,.91,1.07,4,4,0,0,1,.33,1.71,4,4,0,0,1-.3,1.62,2.55,2.55,0,0,1-.84,1.08,2.36,2.36,0,0,1-1.26.44v-1.09a1.35,1.35,0,0,0,.82-.34,1.71,1.71,0,0,0,.47-.74,2.78,2.78,0,0,0,.16-1,2.85,2.85,0,0,0-.2-1.08,1.93,1.93,0,0,0-.55-.77,1.37,1.37,0,0,0-.84-.28,1,1,0,0,0-.7.24,1.89,1.89,0,0,0-.45.64,8.63,8.63,0,0,0-.3.86l-.3,1.07a4,4,0,0,1-.84,1.62,1.85,1.85,0,0,1-1.43.6,2.08,2.08,0,0,1-1.28-.4,2.52,2.52,0,0,1-.85-1.07,3.55,3.55,0,0,1-.31-1.51,3.59,3.59,0,0,1,.3-1.5,2.61,2.61,0,0,1,.82-1,2,2,0,0,1,1.18-.41Z"/><path class="cls-4" d="M54.3,353.68H47.75v-1h1v-.09A1.68,1.68,0,0,1,48,352a2,2,0,0,1-.29-1.1,1.93,1.93,0,0,1,.29-1.08,2,2,0,0,1,.82-.67V349a2,2,0,0,1-.81-.75,2.34,2.34,0,0,1-.3-1.21,2,2,0,0,1,.55-1.44,2.29,2.29,0,0,1,1.7-.55H54.3v1H49.92a1.24,1.24,0,0,0-1,.4,1.49,1.49,0,0,0-.31.93,1.36,1.36,0,0,0,.42,1.07,1.49,1.49,0,0,0,1,.38H54.3v1H49.82a1.17,1.17,0,0,0-.91.37,1.33,1.33,0,0,0-.34.93,1.37,1.37,0,0,0,.21.73,1.44,1.44,0,0,0,.58.54,1.67,1.67,0,0,0,.85.21H54.3Z"/><path class="cls-4" d="M54.45,341.32a2.78,2.78,0,0,1-.23,1.13,1.86,1.86,0,0,1-.69.8,1.91,1.91,0,0,1-1.09.3,1.66,1.66,0,0,1-.91-.22,1.49,1.49,0,0,1-.55-.59,3.09,3.09,0,0,1-.31-.82c-.06-.3-.12-.6-.16-.91s-.09-.72-.11-1a1.58,1.58,0,0,0-.14-.54.35.35,0,0,0-.34-.17h0a1.34,1.34,0,0,0-1,.34,1.4,1.4,0,0,0-.35,1,1.8,1.8,0,0,0,1,1.7l-.34.95a2.21,2.21,0,0,1-.93-.68,2.6,2.6,0,0,1-.47-.94,3.87,3.87,0,0,1-.13-1,4.14,4.14,0,0,1,.07-.73,2.21,2.21,0,0,1,.31-.79,1.72,1.72,0,0,1,.69-.64,2.5,2.5,0,0,1,1.25-.26H54.3v1h-.89v.05a1.59,1.59,0,0,1,.46.34,2,2,0,0,1,.41.63A2.37,2.37,0,0,1,54.45,341.32Zm-.9-.15a2,2,0,0,0-.24-1,1.5,1.5,0,0,0-.6-.62,1.58,1.58,0,0,0-.78-.21H51a.55.55,0,0,1,.14.27,4.9,4.9,0,0,1,.1.5c0,.18.06.36.08.54s0,.32.05.42a3.73,3.73,0,0,0,.17.73,1.31,1.31,0,0,0,.33.55.87.87,0,0,0,.61.21.9.9,0,0,0,.79-.39A1.7,1.7,0,0,0,53.55,341.17Z"/><path class="cls-4" d="M45.57,335.47H54.3v1H45.57Z"/><path class="cls-4" d="M45.57,332.63H54.3v1H45.57Z"/><path class="cls-4" d="M54.44,328a3,3,0,0,1-.42,1.63,2.74,2.74,0,0,1-1.18,1.05,3.93,3.93,0,0,1-1.76.37,4,4,0,0,1-1.78-.37,2.88,2.88,0,0,1-1.2-1,2.76,2.76,0,0,1-.43-1.55,3.24,3.24,0,0,1,.17-1,2.49,2.49,0,0,1,.55-.9,2.73,2.73,0,0,1,1-.66,4.33,4.33,0,0,1,1.54-.24h.43v5.05H50.5v-4a2.25,2.25,0,0,0-1,.22,1.75,1.75,0,0,0-.69.63,1.92,1.92,0,0,0,0,2,1.92,1.92,0,0,0,.77.67,2.18,2.18,0,0,0,1,.24h.58a2.83,2.83,0,0,0,1.26-.26,1.82,1.82,0,0,0,.78-.72,2.17,2.17,0,0,0,.26-1.07,2.36,2.36,0,0,0-.11-.72,1.55,1.55,0,0,0-.34-.55,1.52,1.52,0,0,0-.57-.37l.27-1a2.27,2.27,0,0,1,.87.52,2.5,2.5,0,0,1,.58.89A3.29,3.29,0,0,1,54.44,328Z"/><path class="cls-4" d="M49.22,319.16l.26.9a1.83,1.83,0,0,0-.45.25,1.24,1.24,0,0,0-.35.45,1.54,1.54,0,0,0-.14.72,1.76,1.76,0,0,0,.27,1,.85.85,0,0,0,.7.4.69.69,0,0,0,.59-.28,2.06,2.06,0,0,0,.36-.85l.24-1a2.69,2.69,0,0,1,.65-1.31,1.53,1.53,0,0,1,1.13-.43,1.68,1.68,0,0,1,1,.32,2.19,2.19,0,0,1,.7.9,3.27,3.27,0,0,1,.26,1.34,3,3,0,0,1-.44,1.66,2,2,0,0,1-1.27.83l-.24-1a1.28,1.28,0,0,0,.79-.52,1.66,1.66,0,0,0,.27-1,1.86,1.86,0,0,0-.3-1.12.87.87,0,0,0-.72-.42.78.78,0,0,0-.58.24,1.51,1.51,0,0,0-.34.73l-.26,1.09a2.56,2.56,0,0,1-.66,1.32,1.72,1.72,0,0,1-2.11.11,2.15,2.15,0,0,1-.67-.86,3,3,0,0,1-.24-1.23,2.48,2.48,0,0,1,.42-1.53A2.35,2.35,0,0,1,49.22,319.16Z"/><path class="cls-4" d="M46.19,317.08v-1h6.23a1.3,1.3,0,0,0,.64-.13.58.58,0,0,0,.28-.32,1.23,1.23,0,0,0,.07-.42,1.14,1.14,0,0,0,0-.28c0-.07,0-.12,0-.17l.9-.2a1.2,1.2,0,0,1,.08.28,2.11,2.11,0,0,1,0,.47,2,2,0,0,1-.18.83,1.58,1.58,0,0,1-.56.67,1.56,1.56,0,0,1-.94.27Zm1.56-2.4h.86v3.39h-.86Z"/><path class="cls-4" d="M47.75,304.88a1.34,1.34,0,0,0-1,.62,2.37,2.37,0,0,0-.36,1.34,2.46,2.46,0,0,0,.19,1,1.52,1.52,0,0,0,.51.67,1.24,1.24,0,0,0,.75.24,1,1,0,0,0,.6-.17,1.41,1.41,0,0,0,.41-.43,2.81,2.81,0,0,0,.27-.55,5.31,5.31,0,0,0,.17-.53l.24-.89c.06-.23.14-.48.24-.76a4,4,0,0,1,.43-.81,2.2,2.2,0,0,1,.69-.63,2,2,0,0,1,1-.26,2.36,2.36,0,0,1,1.28.37,2.64,2.64,0,0,1,.91,1.08,4.56,4.56,0,0,1,0,3.33,2.52,2.52,0,0,1-.84,1.07,2.36,2.36,0,0,1-1.26.44v-1.09a1.41,1.41,0,0,0,.82-.33,1.78,1.78,0,0,0,.47-.74,2.82,2.82,0,0,0,.16-1,2.86,2.86,0,0,0-.2-1.09,1.89,1.89,0,0,0-.55-.76,1.31,1.31,0,0,0-.84-.28,1,1,0,0,0-.7.24,1.8,1.8,0,0,0-.45.64,7.82,7.82,0,0,0-.3.86l-.3,1.07a4.13,4.13,0,0,1-.84,1.62,1.85,1.85,0,0,1-1.43.6,2.14,2.14,0,0,1-1.28-.4,2.62,2.62,0,0,1-.85-1.08,3.52,3.52,0,0,1-.31-1.51,3.59,3.59,0,0,1,.3-1.5,2.76,2.76,0,0,1,.82-1,2.08,2.08,0,0,1,1.18-.41Z"/><path class="cls-4" d="M46.66,301.62a.69.69,0,0,1-.2.51.65.65,0,0,1-1,0,.73.73,0,0,1-.2-.51.7.7,0,0,1,.2-.5.63.63,0,0,1,1,0A.66.66,0,0,1,46.66,301.62Zm7.64.51H47.75v-1H54.3Z"/><path class="cls-4" d="M54.44,296.81a2.55,2.55,0,0,1-.42,1.45,2.8,2.8,0,0,1-1.18,1,4.28,4.28,0,0,1-1.8.35,4.33,4.33,0,0,1-1.79-.35,2.85,2.85,0,0,1-1.17-1,2.62,2.62,0,0,1-.41-1.45,2.09,2.09,0,0,1,.21-1,2,2,0,0,1,.48-.57l.43-.31v-.08H45.57v-1H54.3v1h-1v.11c.12.08.27.18.45.32a1.88,1.88,0,0,1,.48.58A2,2,0,0,1,54.44,296.81Zm-.91-.13a1.6,1.6,0,0,0-.32-1,2,2,0,0,0-.88-.63,3.69,3.69,0,0,0-1.3-.22,3.42,3.42,0,0,0-1.29.22,1.86,1.86,0,0,0-.86.63,1.64,1.64,0,0,0-.31,1,1.68,1.68,0,0,0,.33,1.06,2,2,0,0,0,.88.64,3.52,3.52,0,0,0,1.25.21,3.4,3.4,0,0,0,1.26-.22,2,2,0,0,0,.91-.64A1.65,1.65,0,0,0,53.53,296.68Z"/><path class="cls-4" d="M54.44,289.09a3,3,0,0,1-.42,1.63,2.74,2.74,0,0,1-1.18,1,3.93,3.93,0,0,1-1.76.37,4,4,0,0,1-1.78-.37,2.81,2.81,0,0,1-1.2-1,2.73,2.73,0,0,1-.43-1.55,3.14,3.14,0,0,1,.17-1,2.44,2.44,0,0,1,.55-.91,2.73,2.73,0,0,1,1-.66,4.33,4.33,0,0,1,1.54-.24h.43v5.05H50.5v-4a2.25,2.25,0,0,0-1,.21,1.75,1.75,0,0,0-.69.63,1.81,1.81,0,0,0-.25.94,1.77,1.77,0,0,0,.3,1,1.92,1.92,0,0,0,.77.67,2.18,2.18,0,0,0,1,.24h.58a2.83,2.83,0,0,0,1.26-.26,1.82,1.82,0,0,0,.78-.72,2.15,2.15,0,0,0,.26-1.07,2.36,2.36,0,0,0-.11-.72,1.55,1.55,0,0,0-.34-.55,1.39,1.39,0,0,0-.57-.36l.27-1a2.27,2.27,0,0,1,.87.52,2.45,2.45,0,0,1,.58.9A3.19,3.19,0,0,1,54.44,289.09Z"/></g></svg>