<svg xmlns="http://www.w3.org/2000/svg" viewBox="0 0 648 648"><defs><style>.cls-1{fill:#fce4d9;}.cls-2{fill:#ff5c35;stroke:#000;stroke-linejoin:round;stroke-width:4.54px;}</style></defs><g id="Layer_6" data-name="Layer 6"><rect width="648" height="648"/></g><g id="Layer_1" data-name="Layer 1"><rect class="cls-1" x="45.36" y="191.72" width="557.28" height="264.55" transform="translate(648 0) rotate(90)"/><path d="M250.34,546c-.69-1.2-2.53-1.27-3.44.4a4.57,4.57,0,0,1-1.48,1.73l-.8-1.34,1.54-.87-5.1-12.34a7.33,7.33,0,0,0,.76-.71c1.22-1.33,2.53-3.73,1.89-7.6a4.27,4.27,0,0,1,.21-3.15c1-1.65.54-2.89-.21-3.45-1.36-1-2.91-.24-3.78.66l-.35-5.07a3.55,3.55,0,0,0-1.06-2.42,2.2,2.2,0,0,0-1.65-.53,2.09,2.09,0,0,0-1,.33v-.21a3.54,3.54,0,0,0-1.1-2.44,2.13,2.13,0,0,0-1.62-.51,2.76,2.76,0,0,0-2.25,2.52,2.16,2.16,0,0,0-1.13-.18c-1.65.15-2.4,1.78-2.29,3.3l.17,2.4a1.94,1.94,0,0,0-.8-.09c-1.36.15-2.15,1.42-2,3.22l.54,7.58h0v.15a.09.09,0,0,0,0,0,9.65,9.65,0,0,0,3.19,6.89,7.93,7.93,0,0,1-.31,2.72,7.25,7.25,0,0,1-4.49,4.73l-.62.24-4.41,1.35,1.34,4.48,1.26-.16a5.33,5.33,0,0,0-.19,3.85,1.84,1.84,0,0,0,2.56,1.36c1-.49,1.55-1.55.61-3s-.71-2.24-.41-2.52l.16,0,.39,1.23.51,0c.36,0,.7,0,1,0,6.94,0,8.73-4.55,8.8-4.75a.74.74,0,1,0-1.39-.52s-1.57,3.95-7.84,3.77l-.61-1.91-.65-2.07h0A8.73,8.73,0,0,0,230,535.3a5.53,5.53,0,0,0,1,.41l.16,0a.74.74,0,0,0,.16-1.47s-4.12-1.17-4.54-7.14l-.53-7.58c0-.16-.09-1.55.71-1.64a.36.36,0,0,1,.28.09,2.26,2.26,0,0,1,.55,1.44l.33,4.58a.74.74,0,0,0,1.48-.1l-.27-3.79h0l-.43-6.11c0-.65.17-1.65,1-1.72a.69.69,0,0,1,.53.16,2.17,2.17,0,0,1,.57,1.41h0l.5,7.18a.75.75,0,0,0,.75.69h.05a.75.75,0,0,0,.69-.8l-.66-9.27c-.05-.81.42-1.67.95-1.72a.65.65,0,0,1,.52.16,2.14,2.14,0,0,1,.58,1.41l.65,9.28a.74.74,0,1,0,1.48-.11l-.43-6.17v0c-.05-.64.17-1.67.93-1.72a.75.75,0,0,1,.57.17,2.13,2.13,0,0,1,.54,1.4l.66,9.25h0l.13,1.88s0,0,0,.08a.11.11,0,0,1,0,0l0,.12h0a.74.74,0,0,0,.55.42h.24l.07,0,.07,0,.07,0,.06,0,.06,0,.05,0s0,0,0-.05l.05,0,0-.06,0-.07,0-.06a.64.64,0,0,1,0-.07.14.14,0,0,1,0-.07v-.14c0-.31-.06-1-.1-1.48l0-.43h0a4.39,4.39,0,0,1,.59-2.94c.22-.3,1.23-1.3,2-.72.33.25.27.81-.16,1.49a5.64,5.64,0,0,0-.42,4.18c.55,3.28-.52,5.26-1.52,6.34a5.82,5.82,0,0,1-.92.82.71.71,0,0,0-.14.1,5,5,0,0,1-2.93.91.74.74,0,0,0-.8.68.75.75,0,0,0,.69.8H237a6.26,6.26,0,0,0,2.84-.76l3.3,8a2.34,2.34,0,0,1-1.78,1.15.75.75,0,0,0,.15,1.48l.15,0a4.24,4.24,0,0,0,2.13-1l.54,1.3-.44.24h0l-2,1.09-1.24.7-7.16-9.57a.74.74,0,0,0-1.19.89l7,9.41h0l3.84,5.12,3.93-2.19-.57-1a6.83,6.83,0,0,0,2.65-1C250.7,547.94,250.71,546.63,250.34,546Z"/><path d="M231.46,542.21a.89.89,0,0,1-.72.92.75.75,0,0,0,.13,1.48l.14,0a2.38,2.38,0,0,0,1.94-2.4.75.75,0,0,0-1.49,0Z"/><path d="M232,523.75c-.4.1-.63.67-.53,1.26s.51,1,.91.87.62-.67.52-1.26S232.34,523.64,232,523.75Z"/><path d="M237.22,525.88c.39-.1.62-.67.52-1.26s-.51-1-.9-.87-.63.67-.52,1.26S236.82,526,237.22,525.88Z"/><path d="M233,529.19a.74.74,0,0,0,.74.67h.07l2.48-.25-.85-3.84a.74.74,0,0,0-1.45.33l.49,2.2-.81.08A.74.74,0,0,0,233,529.19Z"/><path d="M232.46,531.59a.75.75,0,0,0,.27,1,3.88,3.88,0,0,0,2,.55,4,4,0,0,0,3.42-1.95.75.75,0,0,0-.27-1,.73.73,0,0,0-1,.27,2.47,2.47,0,0,1-3.38.87A.75.75,0,0,0,232.46,531.59Z"/><path d="M240.28,582.09l-1.26.3-.09,5.13a.57.57,0,0,0,.55.57h0a.56.56,0,0,0,.56-.55v-.43l1.45-.35.2.38a.55.55,0,0,0,1-.52Zm-.2,3.87,0-1.83.86,1.61Z"/><path d="M246.75,579.05l-1,.56.56,3.18-2.49-2.06-1,.56,2.56,4.42a.55.55,0,0,0,.48.28.57.57,0,0,0,.28-.08.54.54,0,0,0,.2-.76l-.94-1.63,1.31,1.09.91-.52-.29-1.68.94,1.62a.55.55,0,0,0,.76.2.56.56,0,0,0,.21-.76Z"/><path d="M235.7,587.23H234v-4.46h-1.12v5.58h2.79a.56.56,0,0,0,0-1.12Z"/><path d="M225.71,585.92a.56.56,0,0,0,.17.77.55.55,0,0,0,.77-.17l.23-.36,1.42.47,0,.43a.56.56,0,0,0,.52.59h0a.57.57,0,0,0,.56-.52l.33-5.12-1.23-.41Zm2.67-.44-.87-.29,1-1.54Z"/><path d="M224.31,579.34a1.6,1.6,0,0,0-1.18-.26,1.56,1.56,0,0,0-1,.66L222,580a1.6,1.6,0,0,0-.26,1.18,1.58,1.58,0,0,0,.66,1,.45.45,0,0,1,.12.64l-.16.23a.45.45,0,0,1-.64.12.45.45,0,0,1-.12-.64.56.56,0,0,0-.92-.64,1.58,1.58,0,0,0,2.6,1.8l.16-.23a1.59,1.59,0,0,0-.41-2.2.46.46,0,0,1-.19-.3.45.45,0,0,1,.08-.35l.15-.23a.46.46,0,0,1,.3-.19.47.47,0,0,1,.54.37.47.47,0,0,1-.07.35.56.56,0,1,0,.92.63,1.53,1.53,0,0,0,.25-1.18A1.58,1.58,0,0,0,224.31,579.34Z"/><circle cx="255.21" cy="577.59" r="1.49"/><path d="M256.32,565v4.83a1.12,1.12,0,1,1-2.23,0V559h-3.71v10.77a4.83,4.83,0,0,0,9.66,0V565Z"/><path d="M244.06,574.61a4.83,4.83,0,0,0,4.83-4.83V565h-3.72v4.83a1.11,1.11,0,1,1-2.22,0V565h-3.72v4.83a1.12,1.12,0,1,1-2.23,0V565h-3.72V567a5.74,5.74,0,0,0-.63-1.2h0l-2.3-3.28,1.76-2.52-3-2.13-1,1.41-1.71-2.45L223.32,559l2.49,3.56-2.29,3.28h0a5.56,5.56,0,0,0-.88,2,5.2,5.2,0,0,0-10.16,1.56,5.06,5.06,0,0,0,.46,2.13,5.17,5.17,0,0,0-2.69,4.55V578H214v-1.86a1.49,1.49,0,0,1,1.49-1.49h2.23a5.2,5.2,0,0,0,5.06-4,5.57,5.57,0,0,0,10.64.16,4.84,4.84,0,0,0,4.74,3.85,4.76,4.76,0,0,0,3-1A4.76,4.76,0,0,0,244.06,574.61Zm-26.38-3.71h-.11a1.41,1.41,0,1,1,.11,0Zm10.4,0a1.86,1.86,0,0,1-1.52-2.93l1.52-2.17L229.6,568a1.86,1.86,0,0,1-1.52,2.93Z"/><rect x="297.56" y="476.28" width="140.2" height="16.73"/><rect x="354.26" y="498.13" width="83.5" height="16.73"/><rect x="331.53" y="526.78" width="106.24" height="6.87"/><rect x="375.73" y="537.89" width="62.04" height="6.87"/><rect x="391.78" y="581.48" width="45.98" height="6.87"/><rect class="cls-2" x="126.26" y="147.87" width="395.49" height="227.51" transform="translate(62.38 585.63) rotate(-90)"/></g></svg>