<svg xmlns="http://www.w3.org/2000/svg" viewBox="0 0 648 648"><defs><style>.cls-1{fill:#ff966b;}</style></defs><g id="Layer_1" data-name="Layer 1"><rect class="cls-1" x="45.36" y="94.43" width="557.28" height="1"/><rect class="cls-1" x="45.36" y="190.03" width="557.28" height="1"/><rect class="cls-1" x="45.36" y="276.41" width="557.28" height="1"/><rect class="cls-1" x="45.36" y="346.58" width="557.28" height="1"/><rect class="cls-1" x="45.36" y="406.94" width="557.28" height="1"/><rect class="cls-1" x="45.36" y="460.3" width="557.28" height="1"/><rect class="cls-1" x="45.36" y="511.66" width="557.28" height="1"/><rect class="cls-1" x="45.36" y="557.02" width="557.28" height="1"/><rect class="cls-1" x="45.36" y="602.14" width="557.28" height="1"/><path d="M310.3,158.19l4.65-4.7a.62.62,0,0,1,.39-.2.41.41,0,0,1,.4.2l4.65,4.7a.56.56,0,0,1,.14.34.47.47,0,0,1-.14.4l-4.65,4.71a1.06,1.06,0,0,1-.45.11.48.48,0,0,1-.34-.11l-4.65-4.71A.48.48,0,0,1,310.3,158.19Zm1.5,29.86a4,4,0,0,1-.59-2.07,2.91,2.91,0,0,1,.22-1.19,308.16,308.16,0,0,1,15.25-30.28c.31-.53.65-.8,1-.8a1,1,0,0,1,.79.46c.11.15.44.56,1,1.24a9.37,9.37,0,0,1,1.22,1.88,3.8,3.8,0,0,1,.4,1.58,3,3,0,0,1-.34,1.31l-2.27,4.36q-.79,1.53-4.93,9.64t-8,16.28c-.26.56-.6.85-1,.85a1.23,1.23,0,0,1-.85-.51C312.83,189.62,312.2,188.71,311.8,188.05Zm9.56-2.36L326,181a.61.61,0,0,1,.45-.17.58.58,0,0,1,.4.17l4.59,4.65a.56.56,0,0,1,0,.8l-4.59,4.65a.56.56,0,0,1-.85,0l-4.59-4.65C321.05,186.18,321.05,185.92,321.36,185.69Z"/><path d="M346.93,192a1.52,1.52,0,0,1-.85.34,1,1,0,0,1-.83-.4,1.74,1.74,0,0,1-.25-1.19l.06-1.87a61.53,61.53,0,0,0-1.88-14.94,66.39,66.39,0,0,0-5.27-14.21l6-6.23a1.68,1.68,0,0,1,1.07-.63c.46,0,.83.4,1.14,1.19A67.63,67.63,0,0,1,349,165.48a73.16,73.16,0,0,1,1,12.22,52.59,52.59,0,0,1-.85,9.75,12.63,12.63,0,0,1-1.47,3.57A3,3,0,0,1,346.93,192Z"/><path d="M384.23,156.49a19.84,19.84,0,0,1-1,6.07,12.87,12.87,0,0,1-3,5.13,8.12,8.12,0,0,1-5.3,2.41,12.13,12.13,0,0,1-1.42.06,10.21,10.21,0,0,1-3.57-.57,78.86,78.86,0,0,1,.45,8,53,53,0,0,1-.85,9.81,12.42,12.42,0,0,1-1.48,3.57,2.89,2.89,0,0,1-.79,1,1.5,1.5,0,0,1-.85.34,1,1,0,0,1-.82-.4,1.68,1.68,0,0,1-.26-1.19l.06-1.87a61.52,61.52,0,0,0-1.87-14.94,67.48,67.48,0,0,0-5.27-14.21l6-6.23a1.68,1.68,0,0,1,1.08-.63c.45,0,.83.4,1.13,1.19l.45,1.25a8.37,8.37,0,0,0,3.07,3.91,8.72,8.72,0,0,0,4.87,1.25,6.62,6.62,0,0,0,5-1.67,5.9,5.9,0,0,0,1.62-4.28,1.52,1.52,0,0,1,.42-1.11,1.39,1.39,0,0,1,1-.42,1.23,1.23,0,0,1,.85.37,1.62,1.62,0,0,1,.45,1.1C384.2,155.28,384.23,156,384.23,156.49Z"/><path d="M389.62,189.46a14,14,0,0,1-2-7.68,20.31,20.31,0,0,1,.22-3.17,24.24,24.24,0,0,1,2.27-7.06,69,69,0,0,1,4.14-7l1.25-1.92-1.82-1.08q.63-1.59,2.1-4.71c.57-1.17,1-2.19,1.36-3.06q.45-1,1-1a2.3,2.3,0,0,1,1.19.68,66.06,66.06,0,0,1,9.7,10.35,26.92,26.92,0,0,1,5.72,13.8,21.73,21.73,0,0,1,.17,2.73,16.1,16.1,0,0,1-2.18,8.84,6.76,6.76,0,0,1-6,3.4,5.23,5.23,0,0,1-5.44-3.8,5.68,5.68,0,0,1-2.1,2.7,6.66,6.66,0,0,1-4,1.1A6.34,6.34,0,0,1,389.62,189.46Zm9.1-7.65a6.92,6.92,0,0,0,1.22-3.2,1.68,1.68,0,0,1,.57-1.08,1.37,1.37,0,0,1,1.9,0,1.58,1.58,0,0,1,.48,1.11,6.22,6.22,0,0,0,1.19,3.23,3.7,3.7,0,0,0,3,1.07,5.29,5.29,0,0,0,3.07-.9,3.18,3.18,0,0,0,1.3-2.78,9.11,9.11,0,0,0-2.16-5.36,29,29,0,0,0-5.1-5.24,41.2,41.2,0,0,0-5.21-3.69,27.62,27.62,0,0,0-3.35,3.91,32.73,32.73,0,0,0-3.06,5.11,10.72,10.72,0,0,0-1.25,4.42,4.15,4.15,0,0,0,1.36,3.43,5,5,0,0,0,3.23,1.1A3.37,3.37,0,0,0,398.72,181.81Z"/><path d="M435.26,215.12a1.1,1.1,0,0,1-.73.28.78.78,0,0,1-.66-.34,2,2,0,0,1-.31-1q-.63-7.87-2.83-29a6.61,6.61,0,0,1,1-4,11.12,11.12,0,0,1,3.17-3.45,6.59,6.59,0,0,1,3.83-1.39,3.91,3.91,0,0,1,2.15.62q4.54-8.73,10-8.73a6.39,6.39,0,0,1,1.36.11,7.7,7.7,0,0,1,5.59,3.83,14.84,14.84,0,0,1,1.73,7.34,19.73,19.73,0,0,1-.23,3.18q-1.08,7.42-5.44,8.33A9.43,9.43,0,0,1,452,191a18.19,18.19,0,0,1-7.17-1.73,34.79,34.79,0,0,1-8.2-5.18,186.93,186.93,0,0,1,1.59,19.5,25.16,25.16,0,0,1-.23,3.86,54.25,54.25,0,0,1-2.15,6.86A2.09,2.09,0,0,1,435.26,215.12Zm20-35.83a7.38,7.38,0,0,0-2.44-2.47,6.47,6.47,0,0,0-3.54-1,6.11,6.11,0,0,0-2.95.73,5,5,0,0,0-2.1,2.22,19.48,19.48,0,0,0,5,2.49,16.28,16.28,0,0,0,5.27,1.08,5.11,5.11,0,0,0,1.7-.23A6,6,0,0,0,455.25,179.29Z"/><path d="M480.42,169a17.8,17.8,0,0,1,3.58,7.46,45.32,45.32,0,0,1,1.21,11.08,21.19,21.19,0,0,1-2.46,10.55,18.25,18.25,0,0,1-5.87,6.55,11.54,11.54,0,0,1-5.95,2.18c-.76,0-2.07-.6-3.94-1.81a27.86,27.86,0,0,1-4.63-3.63,1,1,0,0,1-.34-.68.84.84,0,0,1,.34-.63,1.74,1.74,0,0,1,.91-.34,38.74,38.74,0,0,0,11.06-3.48q5.1-2.53,6.58-6.44a15.9,15.9,0,0,1-5.56.85,11.4,11.4,0,0,1-7.37-2.46q-3.06-2.47-3.06-7.57a20.91,20.91,0,0,1,1-6.21,14.71,14.71,0,0,1,3.29-5.7,7.36,7.36,0,0,1,5.59-2.38A7.24,7.24,0,0,1,480.42,169Zm-9.21,11.48a15.68,15.68,0,0,0,4,.54,15.09,15.09,0,0,0,5.1-.79,9,9,0,0,0-2.81-3.86,7,7,0,0,0-3.32-1.53,5.46,5.46,0,0,0-3.91,1,4.94,4.94,0,0,0-1.87,2.87A4.38,4.38,0,0,0,471.21,180.5Z"/><path d="M492,187.34a12.87,12.87,0,0,1-2-8,1.83,1.83,0,0,1,.46-1.16,1.27,1.27,0,0,1,1-.43,1.25,1.25,0,0,1,.77.29,1.69,1.69,0,0,1,.54.79,2.93,2.93,0,0,0,2.18,1.73,25,25,0,0,0,6.32.54,38.77,38.77,0,0,0,5.67-.34c1.51-.23,2.27-.76,2.27-1.59,0-.68-.62-1.61-1.84-2.8a33.86,33.86,0,0,0-4.88-3.78A51.9,51.9,0,0,0,496,169c-.6-.26-.9-.62-.9-1.07a1.76,1.76,0,0,1,.17-.74l2.89-5.44a1.88,1.88,0,0,1,1.7-1.2c.94,0,2.48.81,4.62,2.41a24.52,24.52,0,0,1,5.73,6.27,14.76,14.76,0,0,1,2.52,8.22q0,6.18-2.55,9.53-3,3.8-9.41,3.8Q494.23,190.8,492,187.34Z"/><path d="M547.07,180.65v9.64h-.22a7.18,7.18,0,0,1-2.9-.57c0,.49,0,1.23-.11,2.21a14.65,14.65,0,0,1-3,8,19.92,19.92,0,0,1-5.84,5.16,11.43,11.43,0,0,1-5,1.78c-.76,0-2-.59-3.89-1.78a29,29,0,0,1-4.62-3.66,1,1,0,0,1-.34-.68.81.81,0,0,1,.34-.63,1.74,1.74,0,0,1,.91-.34,37.13,37.13,0,0,0,7.74-1.9,31.3,31.3,0,0,0,6.18-2.94,10.5,10.5,0,0,0,3.37-3q-2-4.87-6.35-13.43l4.93-5.28c.46-.45.82-.68,1.08-.68s.55.25.85.74a9.26,9.26,0,0,1,.8,1.7l0,.11.68,1.53a19.64,19.64,0,0,0,1.34,2.73,2.63,2.63,0,0,0,1.21,1,6.36,6.36,0,0,0,2.33.32Z"/><path d="M566.29,180.65v9.64H566a10.31,10.31,0,0,1-5.19-1.11,7.67,7.67,0,0,1-3-3.6,11.57,11.57,0,0,1-4.42,3.26,15.15,15.15,0,0,1-6.52,1.45h-.23v-9.64h.23a40.94,40.94,0,0,0,5.3-.34,10.83,10.83,0,0,0,3.71-1l-.51-2.5-.51-2.38,4.08-3.46a.66.66,0,0,1,.46-.23q.39,0,.51.51l.85,5.73a4.39,4.39,0,0,0,1.36,2.89c.68.53,2,.8,3.91.8ZM547,163.52a.93.93,0,0,1,.34-.62l3-3.06a.93.93,0,0,1,.57-.34.77.77,0,0,1,.57.34l3.06,3.06c.3.23.45.43.45.62s-.15.32-.45.63l-3,3c-.22.23-.39.34-.51.34a.93.93,0,0,1-.57-.34l-3.17-3A1,1,0,0,1,547,163.52Zm8.39,0a.93.93,0,0,1,.34-.62l3-3.06a.89.89,0,0,1,.56-.34.77.77,0,0,1,.57.34l3.06,3.06c.3.23.46.43.46.62s-.16.32-.46.63l-2.95,3c-.22.23-.39.34-.51.34a.89.89,0,0,1-.56-.34l-3.18-3A1,1,0,0,1,555.35,163.52Z"/><path d="M562.15,197.77a1,1,0,0,1,.34-.62l3-3.07a1,1,0,0,1,.57-.34.8.8,0,0,1,.56.34l3.07,3.07c.3.22.45.43.45.62s-.15.32-.45.62l-3,3c-.23.23-.4.34-.51.34a.9.9,0,0,1-.57-.34l-3.18-3A1,1,0,0,1,562.15,197.77Zm23.31-17.12v9.64h-.29a10.25,10.25,0,0,1-5.18-1.11,7.69,7.69,0,0,1-3-3.6,11.5,11.5,0,0,1-4.42,3.26,15.12,15.12,0,0,1-6.52,1.45h-.23v-9.64H566a40.82,40.82,0,0,0,5.3-.34,11,11,0,0,0,3.72-1l-.52-2.5-.51-2.38,4.09-3.46a.66.66,0,0,1,.45-.23q.39,0,.51.51l.85,5.73a4.44,4.44,0,0,0,1.36,2.89c.68.53,2,.8,3.91.8Zm-14.91,17.12a.91.91,0,0,1,.34-.62l3-3.07a1,1,0,0,1,.57-.34.8.8,0,0,1,.57.34l3.06,3.07c.3.22.45.43.45.62s-.15.32-.45.62l-3,3c-.23.23-.4.34-.51.34a.93.93,0,0,1-.57-.34l-3.17-3A.91.91,0,0,1,570.55,197.77Z"/><path d="M599.24,170.7a34.27,34.27,0,0,1,.85,7.34,20.1,20.1,0,0,1-.29,3.34q-1.63,8.91-14.63,8.91H585l0-9.64h.22q4.2,0,6.72-.26a9.49,9.49,0,0,0,4-1.16q-2-3.57-5.16-8.39l4.93-5.28a1.75,1.75,0,0,1,1-.62,1,1,0,0,1,.86.62A17.92,17.92,0,0,1,599.24,170.7Zm-14-12.34a.93.93,0,0,1,.34-.62l3-3.06a.89.89,0,0,1,.56-.34.77.77,0,0,1,.57.34l3.06,3.06c.31.23.46.43.46.62s-.15.32-.46.63l-2.95,3c-.22.23-.39.34-.51.34a.89.89,0,0,1-.56-.34l-3.18-3A1,1,0,0,1,585.23,158.36Zm8.39,0a1,1,0,0,1,.34-.62l3-3.06a.9.9,0,0,1,.57-.34.77.77,0,0,1,.56.34l3.06,3.06c.31.23.46.43.46.62s-.15.32-.46.63l-2.94,3c-.23.23-.4.34-.51.34a.9.9,0,0,1-.57-.34L594,159A1,1,0,0,1,593.62,158.36Z"/><path d="M272.85,56.41l5.58-5.64a.79.79,0,0,1,.48-.24.5.5,0,0,1,.47.24L285,56.41a.7.7,0,0,1,.17.41.53.53,0,0,1-.17.48L279.38,63a1.19,1.19,0,0,1-.54.13.56.56,0,0,1-.41-.13l-5.58-5.65A.59.59,0,0,1,272.85,56.41Zm1.81,35.83a4.75,4.75,0,0,1-.72-2.49,3.46,3.46,0,0,1,.27-1.42A369.85,369.85,0,0,1,292.52,52c.36-.63.77-1,1.22-1a1.18,1.18,0,0,1,.95.54c.14.19.54.68,1.19,1.5a11.53,11.53,0,0,1,1.47,2.25,4.61,4.61,0,0,1,.47,1.9,3.55,3.55,0,0,1-.4,1.57L294.69,64q-.94,1.83-5.92,11.56t-9.59,19.53c-.32.68-.73,1-1.22,1a1.49,1.49,0,0,1-1-.61C275.89,94.13,275.13,93,274.66,92.24Zm11.46-2.83,5.51-5.58a.77.77,0,0,1,.55-.2.65.65,0,0,1,.47.2l5.51,5.58a.65.65,0,0,1,0,1L292.65,96a.68.68,0,0,1-1,0l-5.51-5.58C285.76,90,285.76,89.69,286.12,89.41Z"/><path d="M315.65,97a1.81,1.81,0,0,1-1.09.4,1,1,0,0,1-.88-.51,2.17,2.17,0,0,1-.28-1.39c.05-.82.07-2,.07-3.61a68.44,68.44,0,0,0-2-17,76.47,76.47,0,0,0-6.12-16l8.3-8.78a2.08,2.08,0,0,1,1.29-.74c.5,0,1,.47,1.36,1.43a69.9,69.9,0,0,1,5.45,26.6,55.89,55.89,0,0,1-1,10.61,14,14,0,0,1-2.07,4.6c-1.16,1.83-1.83,2.89-2,3.16A4.55,4.55,0,0,1,315.65,97Z"/><path d="M339.8,78.29a125.7,125.7,0,0,0-11.63-18q6.12-7.55,7.62-9.32c.5-.63.93-.95,1.29-.95s.93.38,1.43,1.16a66.94,66.94,0,0,1,5.24,11.09,61.16,61.16,0,0,1,3.81,12.79,113.94,113.94,0,0,1,4.25-13.3,61.36,61.36,0,0,1,4.8-10.58c.5-.78.95-1.16,1.36-1.16s.86.32,1.36.95l6,7.28,1.63,2a133.78,133.78,0,0,0-11.63,18.1,43.72,43.72,0,0,0-4.9,16.88,3.18,3.18,0,0,1-.92,2.24,2.7,2.7,0,0,1-1.94.82,2.8,2.8,0,0,1-2-.82,3.22,3.22,0,0,1-.92-2.24A43.12,43.12,0,0,0,339.8,78.29Z"/><path d="M372.73,93.46a17.7,17.7,0,0,1-2.38-9.35,23.11,23.11,0,0,1,.41-4.36,34.27,34.27,0,0,1,2-6.77,36.25,36.25,0,0,1,2.48-4.9c.82-1.29,2-3.14,3.68-5.54l-2.18-1.29c.54-1.37,1.72-3.86,3.54-7.49l1.63-3.4c.32-.77.75-1.16,1.29-1.16a2.81,2.81,0,0,1,1.5.75q3.87,3.19,7,6.36a48.73,48.73,0,0,1,6.5,8.44,31.43,31.43,0,0,1,4.42,11.46,34.35,34.35,0,0,1,.55,5.79,21.51,21.51,0,0,1-2.56,11,7.92,7.92,0,0,1-7.17,4.38A6.3,6.3,0,0,1,387,92.82a6.66,6.66,0,0,1-2.34,3.3,8.19,8.19,0,0,1-4.94,1.25A7.64,7.64,0,0,1,372.73,93.46Zm12.52-15.61a2.14,2.14,0,0,1,.68-1.3,1.78,1.78,0,0,1,1.16-.47,1.69,1.69,0,0,1,1.12.44,1.86,1.86,0,0,1,.58,1.33,4.83,4.83,0,0,0,1.67,3.37,7.26,7.26,0,0,0,4.25,1,3.35,3.35,0,0,0,2.62-1,3.64,3.64,0,0,0,.92-2.52,4.55,4.55,0,0,0-.68-2.31,25.16,25.16,0,0,0-5.82-5.85,63.9,63.9,0,0,0-8-5.44,13.53,13.53,0,0,0-4.32,4.42,23.68,23.68,0,0,0-3.1,5.85,7.77,7.77,0,0,0-.41,2.45A4.64,4.64,0,0,0,377,80.94a4.26,4.26,0,0,0,3.4,1.26Q384.58,82.2,385.25,77.85Z"/><path d="M445.47,46.34c.77,0,1.15.57,1.15,1.71q0,10.68-.78,26.16t-1.6,22.14a20.2,20.2,0,0,1-2.72,8.3,17.2,17.2,0,0,1-6.09,6.13,17,17,0,0,1-8.94,2.31,19.64,19.64,0,0,1-10.82-2.72,15.89,15.89,0,0,1-6.16-7.21,25.05,25.05,0,0,1-1.94-10,34.28,34.28,0,0,1,2.79-13.61,3.12,3.12,0,0,1,1.05-1.4,2.37,2.37,0,0,1,1.33-.44,2.19,2.19,0,0,1,1.57.68,2.43,2.43,0,0,1,.68,1.77,3.94,3.94,0,0,1-.14.82q-.75,3.33-1.09,5.34a22,22,0,0,0-.34,3.71q0,4.43,2.89,6.63t10.18,2.21a40.43,40.43,0,0,0,7.75-.61Q437.3,97.64,438,96q-.81-12.12-1.56-21.1t-1.84-20.68l9.6-7.28A2.32,2.32,0,0,1,445.47,46.34Z"/><path d="M472,66.08q3.3,3.12,5.24,9.52a55.27,55.27,0,0,1,1.94,15.79,23.55,23.55,0,0,1-3,11.94,24.2,24.2,0,0,1-7.25,8.06,18.7,18.7,0,0,1-8.3,3.4Q459,114.92,452,107l-1.29-1.43a1.83,1.83,0,0,1-.62-1.3c0-.72.62-1.2,1.84-1.42a50.48,50.48,0,0,0,8.64-2,42,42,0,0,0,8.17-3.53,11.25,11.25,0,0,0,4.63-4.22A13.81,13.81,0,0,1,466,94.93q-13.14,0-13.13-14.09a31.25,31.25,0,0,1,.2-3.54,23.29,23.29,0,0,1,1.7-6.73,14.88,14.88,0,0,1,3.81-5.45,8.71,8.71,0,0,1,6-2.17A10.53,10.53,0,0,1,472,66.08Zm-11.53,13a18.87,18.87,0,0,0,4.83.64,17.44,17.44,0,0,0,6.26-1,9,9,0,0,0-3.64-3.5A11.26,11.26,0,0,0,464,74.1a6.26,6.26,0,0,0-1-.06,7.16,7.16,0,0,0-3.64.88A6.24,6.24,0,0,0,457.1,77,5.3,5.3,0,0,0,460.44,79.11Z"/><path d="M494.18,46.28c.82,0,1.23.54,1.23,1.63q0,4.77-.58,19.39t-1.46,20.75a13.63,13.63,0,0,1-1.7,3.81q-1.5,2.6-2.79,4.63a2,2,0,0,1-1.57,1.09.93.93,0,0,1-.78-.41,2.35,2.35,0,0,1-.37-1.22q-1.23-20.22-2.79-41.85L493,46.75A1.83,1.83,0,0,1,494.18,46.28Z"/><path d="M535.76,79.28V94.93H534.4a10.12,10.12,0,0,1-3.88-.68,21.23,21.23,0,0,1-4.08,11.43,24.75,24.75,0,0,1-7.76,6.9c-2.81,1.52-5,2.28-6.46,2.28q-1.17,0-3.64-2.48t-6.3-6.7a1.82,1.82,0,0,1-.61-1.3,1.22,1.22,0,0,1,.48-.95,2.34,2.34,0,0,1,1.36-.48,37.1,37.1,0,0,0,9-2.28,32.21,32.21,0,0,0,7.58-4c2.07-1.52,3.3-3,3.71-4.46q-3.06-6.53-7.48-14.35l7.48-7a2.6,2.6,0,0,1,1.29-.75c.37,0,.68.25,1,.75a7.67,7.67,0,0,1,.81,1.5l.82,1.56c.91,1.63,1.59,2.78,2,3.44a4.34,4.34,0,0,0,1.63,1.46,6.22,6.22,0,0,0,2.72.48Z"/><path d="M555.69,59a1.47,1.47,0,0,1-.54.88l-3.88,4a1.13,1.13,0,0,1-.68.41,1.73,1.73,0,0,1-.75-.41l-4.15-4-.27-.34-.34.34-3.88,4a1.13,1.13,0,0,1-.68.41,1.73,1.73,0,0,1-.75-.41l-4.15-4a1.24,1.24,0,0,1-.47-.81,1.32,1.32,0,0,1,.47-.89l4-3.94c.36-.36.61-.55.75-.55s.47.19.74.55l4,3.94.34.34.27-.34,3.95-3.94c.36-.36.61-.55.75-.55s.47.19.74.55l4,3.94C555.51,58.5,555.69,58.77,555.69,59Zm3.13,20.28V94.93h-.34a11.34,11.34,0,0,1-5.58-1.33A9.9,9.9,0,0,1,549,88.87a8.91,8.91,0,0,1-4.25,4.29q-3.24,1.77-9.22,1.77h-.28V79.28h.28a49.83,49.83,0,0,0,6.19-.38,13.07,13.07,0,0,0,4.49-1.19c-.37-1.63-.73-3.61-1.09-5.92l4.9-4.15a.84.84,0,0,1,.61-.27c.27,0,.45.2.54.61l1,6.87a5.27,5.27,0,0,0,1.63,3.47c.81.64,2.38,1,4.69,1Z"/><path d="M573.93,103.43c0,.23-.18.5-.55.82l-3.88,4a1.13,1.13,0,0,1-.68.41,1.78,1.78,0,0,1-.74-.41l-4.15-4-.28-.34-.34.34-3.88,4a1.1,1.1,0,0,1-.68.41,1.35,1.35,0,0,1-.74-.41l-4.15-4a1,1,0,0,1,0-1.7l3.94-4c.37-.36.61-.54.75-.54s.48.18.75.54l4,4,.34.34.28-.34,3.94-4q.54-.54.75-.54t.75.54l4,4C573.75,102.91,573.93,103.2,573.93,103.43Zm7.89-24.15V94.93h-.34a11.34,11.34,0,0,1-5.58-1.33A9.92,9.92,0,0,1,572,88.87a8.87,8.87,0,0,1-4.25,4.29c-2.15,1.18-5.23,1.77-9.22,1.77h-.27V79.28h.27a49.71,49.71,0,0,0,6.19-.38,13.07,13.07,0,0,0,4.5-1.19c-.37-1.63-.73-3.61-1.09-5.92L573,67.64a.87.87,0,0,1,.62-.27c.27,0,.45.2.54.61l1,6.87a5.27,5.27,0,0,0,1.64,3.47c.81.64,2.38,1,4.69,1Z"/><path d="M601.62,52.88a1.49,1.49,0,0,1-.54.88l-3.88,4a1.1,1.1,0,0,1-.68.4,1.67,1.67,0,0,1-.75-.4l-4.15-4-.27-.34-.34.34-3.88,4a1.1,1.1,0,0,1-.68.4,1.67,1.67,0,0,1-.75-.4l-4.15-4a1.3,1.3,0,0,1-.48-.82,1.33,1.33,0,0,1,.48-.88l4-4c.36-.36.61-.54.74-.54s.48.18.75.54l4,4,.34.34.27-.34,3.94-4q.56-.54.75-.54.35,0,.75.54l4,4C601.44,52.38,601.62,52.65,601.62,52.88Zm-3.16,15.24a35.14,35.14,0,0,1,1.46,10.07,25.71,25.71,0,0,1-.68,6,15.87,15.87,0,0,1-2.48,5.48,11.85,11.85,0,0,1-5.35,3.74,27.36,27.36,0,0,1-9.93,1.47h-.2l-.07-15.65h.27a49.69,49.69,0,0,0,7.14-.45,8.66,8.66,0,0,0,4-1.25q-1.77-2.79-5.85-8.24L586,68.19l7.49-7a2.56,2.56,0,0,1,1.29-.75c.36,0,.68.25,1,.75A30.36,30.36,0,0,1,598.46,68.12Z"/><path d="M367.64,250.81l3.71-3.77a.61.61,0,0,1,.32-.16.35.35,0,0,1,.32.16l3.72,3.77a.42.42,0,0,1,.11.27.36.36,0,0,1-.11.32L372,255.16a.8.8,0,0,1-.36.09.41.41,0,0,1-.28-.09l-3.71-3.76A.38.38,0,0,1,367.64,250.81Zm1.2,23.88a3.16,3.16,0,0,1-.48-1.66,2.33,2.33,0,0,1,.18-.95,246.72,246.72,0,0,1,12.2-24.22c.25-.43.52-.64.82-.64a.8.8,0,0,1,.64.37c.09.12.35.45.79,1a7.63,7.63,0,0,1,1,1.5,2.9,2.9,0,0,1,.32,1.27,2.33,2.33,0,0,1-.27,1l-1.81,3.5c-.43.81-1.74,3.38-3.95,7.71s-4.34,8.66-6.4,13c-.21.45-.48.68-.81.68a1,1,0,0,1-.68-.41C369.66,276,369.16,275.22,368.84,274.69Zm7.64-1.88,3.67-3.72a.53.53,0,0,1,.37-.14.43.43,0,0,1,.31.14l3.68,3.72a.43.43,0,0,1,.14.31.45.45,0,0,1-.14.32l-3.68,3.72a.45.45,0,0,1-.68,0l-3.67-3.72Q376.12,273.08,376.48,272.81Z"/><path d="M396.94,277.84a1.16,1.16,0,0,1-.68.27.81.81,0,0,1-.66-.31,1.37,1.37,0,0,1-.2-1l0-1.49a49.24,49.24,0,0,0-1.5-12A53.45,53.45,0,0,0,389.73,252l4.76-5a1.38,1.38,0,0,1,.86-.5c.36,0,.67.32.91,1a53.15,53.15,0,0,1,2.33,9.13,58.74,58.74,0,0,1,.84,9.78,41.8,41.8,0,0,1-.68,7.8,10,10,0,0,1-1.18,2.86A2.35,2.35,0,0,1,396.94,277.84Z"/><path d="M410,273.62a7.14,7.14,0,0,1-2.56-2.56,6.79,6.79,0,0,1,0-7,7.16,7.16,0,0,1,2.56-2.54,6.55,6.55,0,0,1,3.42-1,7,7,0,0,1,6.08,3.47,6.76,6.76,0,0,1,.95,3.52,6.64,6.64,0,0,1-.95,3.47,7.14,7.14,0,0,1-2.56,2.56,6.76,6.76,0,0,1-3.52.95A6.54,6.54,0,0,1,410,273.62Zm5.46-4a2.78,2.78,0,0,0,0-4,2.81,2.81,0,0,0-2-.84,2.86,2.86,0,0,0,0,5.72A2.81,2.81,0,0,0,415.44,269.61Z"/><path d="M430.3,273.62a7.14,7.14,0,0,1-2.56-2.56,6.79,6.79,0,0,1,0-7,7.16,7.16,0,0,1,2.56-2.54,6.55,6.55,0,0,1,3.42-1,6.89,6.89,0,0,1,3.52.93,7,7,0,0,1,2.56,2.54,6.77,6.77,0,0,1,1,3.52,6.65,6.65,0,0,1-1,3.47,7.14,7.14,0,0,1-2.56,2.56,6.71,6.71,0,0,1-3.52.95A6.54,6.54,0,0,1,430.3,273.62Zm5.47-4a2.8,2.8,0,0,0,0-4,2.85,2.85,0,0,0-2-.84,2.86,2.86,0,0,0,0,5.72A2.85,2.85,0,0,0,435.77,269.61Z"/><path d="M458.81,296.35a.9.9,0,0,1-.59.22.62.62,0,0,1-.52-.27,1.52,1.52,0,0,1-.25-.81q-.51-6.32-2.27-23.23a5.36,5.36,0,0,1,.84-3.2,8.82,8.82,0,0,1,2.54-2.76,5.28,5.28,0,0,1,3.06-1.11,3.11,3.11,0,0,1,1.72.49q3.63-7,8-7a5,5,0,0,1,1.09.09,6.12,6.12,0,0,1,4.46,3.06,11.79,11.79,0,0,1,1.39,5.88,15.86,15.86,0,0,1-.18,2.54q-.87,5.94-4.36,6.66a7.93,7.93,0,0,1-1.54.14,14.73,14.73,0,0,1-5.74-1.38,28.07,28.07,0,0,1-6.55-4.15,151.69,151.69,0,0,1,1.27,15.6,20,20,0,0,1-.18,3.08,45.8,45.8,0,0,1-1.73,5.49A1.74,1.74,0,0,1,458.81,296.35Zm16-28.67a5.92,5.92,0,0,0-1.95-2,5.2,5.2,0,0,0-2.84-.8,5,5,0,0,0-2.36.59,4.11,4.11,0,0,0-1.68,1.77,15.36,15.36,0,0,0,4,2,13.16,13.16,0,0,0,4.21.86,4.2,4.2,0,0,0,1.37-.18A4.83,4.83,0,0,0,474.8,267.68Z"/><path d="M500.45,276.48h-1.77a15.91,15.91,0,0,1-2.43,7.21,14.7,14.7,0,0,1-4.42,4.52,8.4,8.4,0,0,1-4.17,1.52,7.64,7.64,0,0,1-3.38-1.43,21.48,21.48,0,0,1-3.79-2.93.78.78,0,0,1-.27-.54.65.65,0,0,1,.27-.5,1.23,1.23,0,0,1,.72-.27,30.64,30.64,0,0,0,8.58-2.66,10.53,10.53,0,0,0,5.35-4.92h-3.9q-8.67,0-8.66-7.76a15.71,15.71,0,0,1,.88-5,12.15,12.15,0,0,1,2.65-4.54,5.76,5.76,0,0,1,4.36-1.88,6.1,6.1,0,0,1,5.19,3.08,19.49,19.49,0,0,1,2.75,8.35h2Zm-12.66-8a31.42,31.42,0,0,0,4.22.25h3a7.27,7.27,0,0,0-2.31-3.33,5.61,5.61,0,0,0-2.77-1.3,4.27,4.27,0,0,0-3.08.84,4.15,4.15,0,0,0-1.54,2.29A3.27,3.27,0,0,0,487.79,268.52Z"/><path d="M530.27,261.94a24.08,24.08,0,0,1,.66,5.47,12.76,12.76,0,0,1-.23,2.63,10.14,10.14,0,0,1-2.22,4.47,6,6,0,0,1-4.81,2h-.18a5.16,5.16,0,0,1-3.13-1,5.48,5.48,0,0,1-2-3.22,5.6,5.6,0,0,1-2.18,3.22,5.45,5.45,0,0,1-3,1h-.09c-3.32,0-5.37-1.42-6.12-4.26a6.25,6.25,0,0,1-2.72,3.15,7.51,7.51,0,0,1-3.81,1.11h-.37v-7.71h.37a9.18,9.18,0,0,0,3.69-.61,4.73,4.73,0,0,0,2.05-1.68,14.05,14.05,0,0,0,1.38-3.06,1.62,1.62,0,0,1,.52-.77,1.15,1.15,0,0,1,.75-.28,1.1,1.1,0,0,1,.79.34,1.19,1.19,0,0,1,.34.89,1.44,1.44,0,0,1,0,.41,6.9,6.9,0,0,0-.18,1.58c0,2.12,1.14,3.18,3.44,3.18a4.27,4.27,0,0,0,2.34-.52,3.1,3.1,0,0,0,1.18-1.54,22.18,22.18,0,0,0,.79-3.07,1.7,1.7,0,0,1,.48-.9,1.06,1.06,0,0,1,.75-.32,1.08,1.08,0,0,1,.86.43,1.45,1.45,0,0,1,.32,1.07,9.24,9.24,0,0,0,0,1.08q0,3.76,3.68,3.77h.13a9.33,9.33,0,0,0,2.47-.32,2.44,2.44,0,0,0,1.57-1,43.26,43.26,0,0,0-3.54-5.39l3.36-3.95a1.1,1.1,0,0,1,.77-.5c.18,0,.39.17.63.5A12.41,12.41,0,0,1,530.27,261.94Z"/><path d="M558.19,268.77v7.71H558a5.73,5.73,0,0,1-2.31-.45c0,.39,0,1-.1,1.77a11.8,11.8,0,0,1-2.42,6.37,15.9,15.9,0,0,1-4.67,4.13,9.22,9.22,0,0,1-4,1.43,7.34,7.34,0,0,1-3.11-1.43,23,23,0,0,1-3.7-2.93.78.78,0,0,1-.27-.54.65.65,0,0,1,.27-.5,1.26,1.26,0,0,1,.73-.27,30.62,30.62,0,0,0,6.19-1.52,25.62,25.62,0,0,0,4.94-2.36,8.36,8.36,0,0,0,2.7-2.43q-1.62-3.9-5.08-10.75l3.95-4.22a1.49,1.49,0,0,1,.86-.54c.21,0,.44.19.68.59a6.87,6.87,0,0,1,.64,1.36l0,.09.55,1.22a16.55,16.55,0,0,0,1.06,2.18,2.2,2.2,0,0,0,1,.84,5,5,0,0,0,1.86.25Z"/><path d="M573.57,268.77v7.71h-.23a8.23,8.23,0,0,1-4.15-.88,6.17,6.17,0,0,1-2.43-2.88,9.24,9.24,0,0,1-3.54,2.6,12.06,12.06,0,0,1-5.21,1.16h-.18v-7.71H558a32,32,0,0,0,4.24-.27,8.89,8.89,0,0,0,3-.82l-.41-2-.41-1.9,3.27-2.77a.52.52,0,0,1,.36-.18c.21,0,.35.14.41.41l.68,4.58a3.54,3.54,0,0,0,1.09,2.31,5.36,5.36,0,0,0,3.13.64Zm-15.47-13.7a.76.76,0,0,1,.27-.5l2.4-2.45a.78.78,0,0,1,.46-.27.61.61,0,0,1,.45.27l2.45,2.45c.24.18.36.35.36.5s-.12.26-.36.5l-2.36,2.4c-.18.18-.31.28-.41.28a.76.76,0,0,1-.45-.28l-2.54-2.4A.76.76,0,0,1,558.1,255.07Zm6.71,0a.76.76,0,0,1,.27-.5l2.41-2.45a.74.74,0,0,1,.45-.27.65.65,0,0,1,.46.27l2.44,2.45c.25.18.37.35.37.5s-.12.26-.37.5l-2.35,2.4c-.19.18-.32.28-.41.28a.81.81,0,0,1-.46-.28l-2.54-2.4A.76.76,0,0,1,564.81,255.07Z"/><path d="M570.25,282.47a.78.78,0,0,1,.28-.5l2.4-2.45a.74.74,0,0,1,.45-.27.61.61,0,0,1,.46.27l2.45,2.45c.24.18.36.35.36.5s-.12.25-.36.5l-2.36,2.4c-.18.18-.32.27-.41.27a.74.74,0,0,1-.45-.27l-2.54-2.4A.78.78,0,0,1,570.25,282.47Zm18.65-13.7v7.71h-.23a8.26,8.26,0,0,1-4.15-.88,6.17,6.17,0,0,1-2.43-2.88,9.28,9.28,0,0,1-3.53,2.6,12.14,12.14,0,0,1-5.22,1.16h-.18v-7.71h.18a31.93,31.93,0,0,0,4.24-.27,8.75,8.75,0,0,0,3-.82l-.41-2-.4-1.9L583,261a.52.52,0,0,1,.36-.18c.22,0,.35.14.41.41l.68,4.58a3.54,3.54,0,0,0,1.09,2.31,5.38,5.38,0,0,0,3.13.64ZM577,282.47a.76.76,0,0,1,.27-.5l2.4-2.45a.78.78,0,0,1,.46-.27.61.61,0,0,1,.45.27L583,282c.24.18.36.35.36.5s-.12.25-.36.5l-2.36,2.4c-.18.18-.31.27-.41.27a.74.74,0,0,1-.45-.27l-2.54-2.4A.76.76,0,0,1,577,282.47Z"/><path d="M599.92,260.81a27.29,27.29,0,0,1,.68,5.87,16.44,16.44,0,0,1-.23,2.68q-1.3,7.13-11.7,7.12h-.13l0-7.71h.18c2.24,0,4-.07,5.38-.21a7.35,7.35,0,0,0,3.19-.93c-1.08-1.9-2.46-4.14-4.12-6.71l3.94-4.22a1.38,1.38,0,0,1,.82-.5.8.8,0,0,1,.68.5A14.21,14.21,0,0,1,599.92,260.81Zm-11.2-9.87a.76.76,0,0,1,.27-.5l2.4-2.45a.73.73,0,0,1,.46-.27.61.61,0,0,1,.45.27l2.45,2.45c.24.18.36.35.36.5s-.12.26-.36.5l-2.36,2.41c-.18.18-.32.27-.41.27a.74.74,0,0,1-.45-.27L589,251.44A.76.76,0,0,1,588.72,250.94Zm6.71,0a.76.76,0,0,1,.27-.5l2.41-2.45a.74.74,0,0,1,.45-.27.61.61,0,0,1,.45.27l2.45,2.45c.24.18.37.35.37.5s-.13.26-.37.5l-2.36,2.41c-.18.18-.31.27-.4.27a.73.73,0,0,1-.46-.27l-2.54-2.41A.76.76,0,0,1,595.43,250.94Z"/><path d="M422.85,324.18a4.14,4.14,0,0,1,1.53,1.55,4.28,4.28,0,0,1,.56,2.15,4.17,4.17,0,0,1-.56,2.12,4.11,4.11,0,0,1-1.53,1.54,4.31,4.31,0,0,1-4.25,0,4.11,4.11,0,0,1-1.53-1.54,4.17,4.17,0,0,1-.56-2.12,4.28,4.28,0,0,1,.56-2.15,4.22,4.22,0,0,1,5.78-1.55Zm-3.72,2.11a2.16,2.16,0,0,0-.65,1.59,2.13,2.13,0,0,0,.65,1.58,2.22,2.22,0,0,0,1.59.63,2.17,2.17,0,0,0,2.22-2.21,2.2,2.2,0,0,0-.64-1.59,2.13,2.13,0,0,0-1.58-.65A2.2,2.2,0,0,0,419.13,326.29Zm-.47,20.08,12.68-22,2.74,1.21-12.62,22ZM429.84,348a4.11,4.11,0,0,1-1.54-1.53,4.29,4.29,0,0,1-.56-2.16,4.23,4.23,0,0,1,.56-2.12,4.11,4.11,0,0,1,1.54-1.53,4.17,4.17,0,0,1,2.12-.56,4.23,4.23,0,0,1,2.12.56,4,4,0,0,1,1.53,1.53,4.13,4.13,0,0,1,.56,2.12,4.19,4.19,0,0,1-.56,2.16,4,4,0,0,1-1.53,1.53,4.23,4.23,0,0,1-2.12.56A4.17,4.17,0,0,1,429.84,348Zm3.71-2.11a2.23,2.23,0,0,0,0-3.15,2.16,2.16,0,0,0-1.59-.64,2.12,2.12,0,0,0-1.58.64,2.22,2.22,0,0,0,1.58,3.79A2.2,2.2,0,0,0,433.55,345.88Z"/><path d="M457.08,333.66a69.69,69.69,0,0,0-6.61,4.22,26,26,0,0,0-3.43,3.4,33.52,33.52,0,0,0-4,5.88l-1.82-1.62a39.16,39.16,0,0,1,5.8-8.61,7,7,0,0,1-2.18-1.82,8.63,8.63,0,0,1-1.38-2.44,6.66,6.66,0,0,1-.47-2.34,4.47,4.47,0,0,1,1.57-3.6,6.59,6.59,0,0,1,4.12-1.41,13.19,13.19,0,0,1,2.21.06l-.27,2.91c-.59,0-1-.05-1.27-.05s-.51,0-.94.05a6.75,6.75,0,0,0-3.12.83,5.78,5.78,0,0,0,.47,2.24,6.25,6.25,0,0,0,1.4,2.09,5.55,5.55,0,0,0,2.25,1.39,7.57,7.57,0,0,1,1-.71l5.51-3.42Z"/><path d="M460.53,336.51a82.94,82.94,0,0,1,4.77-7.83L464,327.47l1.74-2.27a33.88,33.88,0,0,1,6.88,8.4A18.89,18.89,0,0,1,475,343a3.31,3.31,0,0,1-1.47,3,7,7,0,0,1-3.77.93,5.06,5.06,0,0,1-1.68-.24,3.28,3.28,0,0,1-1.24-.76,7.82,7.82,0,0,1-3.69,1,3.84,3.84,0,0,1-3.17-1.43,5.52,5.52,0,0,1-1.13-3.52A12.35,12.35,0,0,1,460.53,336.51Zm1.41,6.57a2.7,2.7,0,0,0,1.8.61,4.44,4.44,0,0,0,2.13-.54l-.12-2.8,2.33-.06.11,3a3.39,3.39,0,0,0,1.63.33,7.78,7.78,0,0,0,1.63-.19,5.41,5.41,0,0,0,1.43-.52,16,16,0,0,0-1.55-6.34,20.88,20.88,0,0,0-4.46-6.34q-3,4.6-4.32,7a9,9,0,0,0-1.31,4.06A2.21,2.21,0,0,0,461.94,343.08Z"/><path d="M484.53,347a12,12,0,0,1,.65-4.51,20.32,20.32,0,0,1,2.77-4.59,4.67,4.67,0,0,1,3.59-2.05,3.66,3.66,0,0,1,3.29,1.77A7.86,7.86,0,0,1,496,342a10.9,10.9,0,0,1-.42,3.12,2.53,2.53,0,0,1-.38.81,5.08,5.08,0,0,1-.85.87,2.11,2.11,0,0,1-1.3.62,1.5,1.5,0,0,1-.68-.18L487,344.57a83.73,83.73,0,0,0,.76,9.94l-2.59,1C484.72,351.52,484.53,348.68,484.53,347Zm9.26-4.66a5.06,5.06,0,0,0-.61-2.57,2.08,2.08,0,0,0-1.93-1,2.28,2.28,0,0,0-1.64.83,12.74,12.74,0,0,0-1.69,2.44l5.54,2.57A7,7,0,0,0,493.79,342.33Z"/><path d="M495.61,352.53a25.27,25.27,0,0,0,5.27-3,8.16,8.16,0,0,0,2.49-3l-1-8.64,2.62-.65c.08.8.13,1.33.15,1.56.15,1.53.29,2.89.39,4.07s.17,2.09.17,2.74a7.65,7.65,0,0,1-2.05,5.16,20.09,20.09,0,0,1-6.44,4.42Z"/><path d="M517.11,343.86a3.85,3.85,0,0,1,.09.92v.79a3.79,3.79,0,0,1-.09.9c-.06.25-.13.37-.21.37h-.71a5.78,5.78,0,0,1-4.24-1.33c-.89-.88-1.36-2.4-1.42-4.57l-.44-14.89,2.68-.64L513,341a2.62,2.62,0,0,0,.71,1.86,2.56,2.56,0,0,0,1.89.68h1.29C517,343.51,517.05,343.63,517.11,343.86Z"/><path d="M531.64,343.86a3.85,3.85,0,0,1,.09.92v.79a3.79,3.79,0,0,1-.09.9c-.06.25-.12.37-.2.37h-1.77a19.83,19.83,0,0,1-2.1-.06,2.7,2.7,0,0,1,.77,1.92v2a1.7,1.7,0,0,1-.25.9,5.74,5.74,0,0,1-1,1.11,6,6,0,0,1-1.16.84,1.83,1.83,0,0,1-.93.19q-5.49-.49-6-6.87H516.9c-.08,0-.15-.12-.22-.37a3.29,3.29,0,0,1-.1-.9v-.79a3.79,3.79,0,0,1,.09-.9c.05-.25.13-.37.23-.37h2.39a15.33,15.33,0,0,1,1.25-3.79,10.32,10.32,0,0,1,2.05-3,3.47,3.47,0,0,1,2.42-1.15h2l.24,7.9h4.19C531.52,343.51,531.58,343.63,531.64,343.86Zm-5.57,5.63a3,3,0,0,0-.74-2.16,2.85,2.85,0,0,0-2.18-.78h-1.83a5,5,0,0,0,1.08,3.11,3.45,3.45,0,0,0,2.73,1.13,5,5,0,0,0,.94-.09Zm-2.93-10.14a8,8,0,0,0-1.15,2.24,11.55,11.55,0,0,0-.55,2.18h2.12a5.28,5.28,0,0,1,1.3.12l-.12-5.6A2.31,2.31,0,0,0,523.14,339.35Z"/><path d="M546.64,337.33a12.18,12.18,0,0,0,3.4.52l-.65,3a7.89,7.89,0,0,0-2.68.61,35.14,35.14,0,0,0-3.18,1.63l-1,.56a33.26,33.26,0,0,1-5,2.37,15.25,15.25,0,0,1-5.29.84h-.82c-.08,0-.16-.12-.22-.37a3.25,3.25,0,0,1-.11-.9v-.79a3.79,3.79,0,0,1,.09-.9c.06-.25.14-.37.24-.37h.82a14.61,14.61,0,0,0,3.83-.53,37.78,37.78,0,0,0,4.07-1.39l2.19-1c1.1-.51,1.76-.81,2-.89a4.36,4.36,0,0,1,.59-.17.42.42,0,0,0-.18,0,16.78,16.78,0,0,1-3.68-1.18,11.55,11.55,0,0,0-3.69-1,1.17,1.17,0,0,0-1.09.54,5.11,5.11,0,0,0-.53,1.43l-2-.35a7.83,7.83,0,0,1,1.21-3.32,2.81,2.81,0,0,1,2.44-1.13,6.41,6.41,0,0,1,1.87.34c.74.22,1.76.57,3.06,1C544,336.5,545.43,337,546.64,337.33Zm-9.25,17.15-2.24-1.86,1.89-2.27,2.24,1.89Zm1.8,0,2.27,1.91-1.89,2.21-2.24-1.85Zm2.21-4.16,2.27,1.89-1.91,2.24-2.22-1.89Z"/><path d="M569.91,343.86a3.85,3.85,0,0,1,.09.92v.79a3.79,3.79,0,0,1-.09.9c-.06.25-.13.37-.2.37h-.83a4.47,4.47,0,0,1-3.69-1.39v.12a7.64,7.64,0,0,1-2,5.16,20,20,0,0,1-6.45,4.42l-1.62-2.62a24.9,24.9,0,0,0,5.26-3,8.3,8.3,0,0,0,2.5-3l-1-8.64,2.63-.65.41,4a2.62,2.62,0,0,0,.6,1.56,2.16,2.16,0,0,0,1.26.62,15.32,15.32,0,0,0,2.21.12h.74C569.78,343.51,569.85,343.63,569.91,343.86Z"/><path d="M580.79,343.86a3.85,3.85,0,0,1,.09.92v.79a3.79,3.79,0,0,1-.09.9c-.06.25-.13.37-.2.37a10.93,10.93,0,0,1-3.73-.47,2.38,2.38,0,0,1-1.52-1.56,3.41,3.41,0,0,1-2,1.56,11.72,11.72,0,0,1-3.65.47c-.08,0-.16-.12-.22-.37a3.25,3.25,0,0,1-.11-.9v-.79a3.79,3.79,0,0,1,.09-.9c.06-.25.14-.37.24-.37a9.72,9.72,0,0,0,4.39-.77l-.56-5.87,2.65-.23.36,6.28a3.71,3.71,0,0,0,1.41.46,20.86,20.86,0,0,0,2.63.13C580.66,343.51,580.73,343.63,580.79,343.86ZM572.39,333l-2.3-1.94,1.92-2.27,2.3,1.91Zm4.42-.06-2.27-1.91,1.92-2.27,2.27,1.88Z"/><path d="M591.67,343.86a3.85,3.85,0,0,1,.09.92v.79a3.79,3.79,0,0,1-.09.9c-.06.25-.13.37-.21.37a11,11,0,0,1-3.73-.47,2.39,2.39,0,0,1-1.51-1.56,3.41,3.41,0,0,1-2,1.56,11.75,11.75,0,0,1-3.66.47c-.07,0-.15-.12-.22-.37a3.29,3.29,0,0,1-.1-.9v-.79a3.79,3.79,0,0,1,.09-.9c.06-.25.14-.37.23-.37a9.77,9.77,0,0,0,4.4-.77l-.56-5.87,2.65-.23.35,6.28a3.82,3.82,0,0,0,1.42.46,20.68,20.68,0,0,0,2.62.13C591.54,343.51,591.61,343.63,591.67,343.86Zm-8.79,6.49,2.3,1.92-1.94,2.29L581,352.65Zm4.46,0,2.3,1.92-1.95,2.27-2.27-1.92Z"/><path d="M598.87,335.4l0,.88c.12,2.56.18,4.63.18,6.23a3.4,3.4,0,0,1-1.8,3.06,8.77,8.77,0,0,1-2.72,1,16.25,16.25,0,0,1-3.12.31c-.07,0-.15-.12-.22-.37a3.29,3.29,0,0,1-.1-.9v-.79a3.79,3.79,0,0,1,.09-.9c.06-.25.14-.37.23-.37a20.15,20.15,0,0,0,3.14-.21,7.07,7.07,0,0,0,2.26-.71l-.68-6.75Zm-4.66-4.13-2.27-1.91,1.91-2.27,2.3,1.88Zm4.45-.06-2.27-1.91,1.89-2.27,2.3,1.91Z"/><path d="M484.7,391.51a3,3,0,0,1,1.06,1.08,2.88,2.88,0,0,1,.39,1.49,2.83,2.83,0,0,1-.39,1.46,2.86,2.86,0,0,1-1.06,1.07,3,3,0,0,1-2.94,0,2.86,2.86,0,0,1-1.06-1.07,2.83,2.83,0,0,1-.39-1.46,2.88,2.88,0,0,1,.39-1.49,3,3,0,0,1,1.06-1.08,3,3,0,0,1,2.94,0ZM482.13,393a1.51,1.51,0,0,0-.45,1.11,1.48,1.48,0,0,0,.45,1.09,1.53,1.53,0,0,0,1.1.44,1.5,1.5,0,0,0,1.53-1.53,1.5,1.5,0,0,0-.44-1.11,1.45,1.45,0,0,0-1.09-.45A1.5,1.5,0,0,0,482.13,393Zm-.33,13.9,8.78-15.24,1.9.83-8.74,15.25Zm7.74,1.13a3,3,0,0,1-1.06-4,2.91,2.91,0,0,1,1.06-1.06,3,3,0,0,1,2.94,0,2.9,2.9,0,0,1,1.45,2.53,2.94,2.94,0,0,1-1.45,2.56,3,3,0,0,1-2.94,0Zm2.57-1.46a1.56,1.56,0,0,0,0-2.19,1.53,1.53,0,0,0-1.1-.44,1.54,1.54,0,1,0,0,3.07A1.53,1.53,0,0,0,492.11,406.54Z"/><path d="M499.91,397a1.37,1.37,0,0,0,.43.86,2,2,0,0,0,1.16.25l.61,0a5.85,5.85,0,0,1-.53-2.56,2.93,2.93,0,0,1,1-2.46,4.33,4.33,0,0,1,2.7-.8,8.41,8.41,0,0,1,2.12.28l-.47,2a6.29,6.29,0,0,0-1.82-.22,5.49,5.49,0,0,0-1.89.26,8.3,8.3,0,0,0,.2,1.89A5.63,5.63,0,0,0,504,398a39.52,39.52,0,0,0,5.17-1l.18,2.15q-3.84.82-5,1a16.1,16.1,0,0,1-2.61.2,2.54,2.54,0,0,1-1.45-.41,50.17,50.17,0,0,1,.38,5.9c0,.61,0,1.07,0,1.37l-1.55.22A54.24,54.24,0,0,0,497.42,394l1.77-.55Z"/><path d="M511.58,400.05a58.79,58.79,0,0,1,3.31-5.42c-.5-.47-.81-.75-.92-.84l1.21-1.57a23.45,23.45,0,0,1,4.76,5.82,13,13,0,0,1,1.67,6.47,2.29,2.29,0,0,1-1,2.09,4.84,4.84,0,0,1-2.62.64,3.53,3.53,0,0,1-1.16-.16,2.51,2.51,0,0,1-.86-.53,5.38,5.38,0,0,1-2.55.69,2.63,2.63,0,0,1-2.19-1,3.76,3.76,0,0,1-.79-2.44A8.61,8.61,0,0,1,511.58,400.05Zm1,4.55a1.87,1.87,0,0,0,1.25.42,3.14,3.14,0,0,0,1.47-.37l-.08-1.94,1.61,0,.08,2.06A2.35,2.35,0,0,0,518,405a5,5,0,0,0,1.14-.13,4.09,4.09,0,0,0,1-.36,11.29,11.29,0,0,0-1.07-4.38,14.5,14.5,0,0,0-3.1-4.39c-1.39,2.12-2.38,3.74-3,4.87a6.3,6.3,0,0,0-.91,2.8A1.56,1.56,0,0,0,512.56,404.6Z"/><path d="M539,405.14a2.68,2.68,0,0,1,.06.63v.55a2.71,2.71,0,0,1-.06.62c0,.18-.09.26-.15.26a3.59,3.59,0,0,1-3.08-1.12l-.1.51a1.77,1.77,0,0,1-.21.6,2.21,2.21,0,0,1-.53.54,1.54,1.54,0,0,1-1,.49,1,1,0,0,1-.47-.12l-3.68-1.76c0,1,0,2,.11,3.07s.22,2.31.38,3.75l-1.77.69a57.41,57.41,0,0,1-.41-5.87,8.19,8.19,0,0,1,.45-3.15,14.35,14.35,0,0,1,1.9-3.15,3.25,3.25,0,0,1,2.51-1.44,2.4,2.4,0,0,1,2,.9,5.21,5.21,0,0,1,1,2.16,1.74,1.74,0,0,0,.88,1.18,4.18,4.18,0,0,0,2,.41C538.91,404.89,539,405,539,405.14Zm-4.47-.41a3.47,3.47,0,0,0-.43-1.78,1.48,1.48,0,0,0-1.35-.71,1.56,1.56,0,0,0-1.12.58,8.39,8.39,0,0,0-1.17,1.69l3.82,1.79A4.74,4.74,0,0,0,534.53,404.73Z"/><path d="M553.39,405.14a2.68,2.68,0,0,1,.06.63v.55a2.71,2.71,0,0,1-.06.62c0,.18-.09.26-.15.26h-2.91c-2,0-3.13-.78-3.56-2.35-.83.49-1.57.9-2.23,1.22a11.92,11.92,0,0,1-5.12,1.13h-.57c-.05,0-.1-.08-.15-.26a2.21,2.21,0,0,1-.07-.62v-.55a2.77,2.77,0,0,1,.06-.62c0-.17.1-.26.16-.26h.57a10.26,10.26,0,0,0,2.66-.36,27.7,27.7,0,0,0,2.82-1c.42-.18,1-.43,1.61-.76s1.15-.53,1.28-.57l.41-.14h-.12a15.14,15.14,0,0,1-2.65-.84,8.22,8.22,0,0,0-2.45-.65.81.81,0,0,0-.76.37,3.88,3.88,0,0,0-.37,1l-1.4-.24a5.52,5.52,0,0,1,.83-2.3,2,2,0,0,1,1.7-.78,4.69,4.69,0,0,1,1.28.22c.52.15,1.18.38,2,.68,1.15.42,2.16.75,3,1a9.38,9.38,0,0,0,2.46.36l-.45,2a6.06,6.06,0,0,0-1.6.36,12.67,12.67,0,0,0-1.68.81,1.64,1.64,0,0,0,1.09.63,12.34,12.34,0,0,0,2.21.14h1.94C553.3,404.89,553.35,405,553.39,405.14Zm-8.21,4,1.76,1.47-1.47,1.73-1.72-1.45Z"/><path d="M560.92,405.14a2.68,2.68,0,0,1,.06.63v.55a2.71,2.71,0,0,1-.06.62c0,.18-.09.26-.14.26a7.46,7.46,0,0,1-2.59-.33,1.62,1.62,0,0,1-1.05-1.08,2.27,2.27,0,0,1-1.37,1.08,8,8,0,0,1-2.53.33s-.1-.08-.15-.26a2.21,2.21,0,0,1-.07-.62v-.55a2.77,2.77,0,0,1,.06-.62c0-.17.09-.26.16-.26a6.62,6.62,0,0,0,3-.53l-.38-4.06,1.83-.16.25,4.35a2.57,2.57,0,0,0,1,.31,13.54,13.54,0,0,0,1.82.09C560.83,404.89,560.88,405,560.92,405.14ZM556.67,398l-1.73-1.47,1.45-1.73,1.75,1.47Z"/><path d="M561.88,412.3l-1.55-1.3,1.3-1.58,1.57,1.33Zm-1.26-5.36a2.65,2.65,0,0,1-.07-.62v-.55a2.77,2.77,0,0,1,.06-.62c0-.17.1-.26.17-.26a13.69,13.69,0,0,0,2.17-.14,4.85,4.85,0,0,0,1.56-.49l-.47-4.67,1.86-.31,0,.61c.08,1.77.12,3.21.12,4.31a2.35,2.35,0,0,1-1.24,2.12,6.26,6.26,0,0,1-1.89.67,11.59,11.59,0,0,1-2.15.21C560.72,407.2,560.67,407.12,560.62,406.94Zm2.52,5.36,1.57,1.31-1.3,1.55-1.55-1.31Zm3.09-1.59-1.31,1.57-1.55-1.3,1.3-1.58Z"/><path d="M580,405.14a2.68,2.68,0,0,1,.06.63v.55a2.71,2.71,0,0,1-.06.62c0,.18-.09.26-.14.26h-.57a3.07,3.07,0,0,1-2.55-1v.08a5.29,5.29,0,0,1-1.42,3.57,13.85,13.85,0,0,1-4.46,3.07l-1.12-1.82a17.6,17.6,0,0,0,3.64-2.09,5.66,5.66,0,0,0,1.72-2.09l-.67-6,1.82-.44.28,2.77a1.86,1.86,0,0,0,.42,1.08,1.47,1.47,0,0,0,.87.43,10,10,0,0,0,1.53.08h.51S579.94,405,580,405.14Z"/><path d="M587.51,405.14a2.19,2.19,0,0,1,.07.63v.55a2.21,2.21,0,0,1-.07.62c0,.18-.08.26-.14.26a7.44,7.44,0,0,1-2.58-.33,1.62,1.62,0,0,1-1-1.08,2.27,2.27,0,0,1-1.37,1.08,8,8,0,0,1-2.53.33c-.05,0-.11-.08-.15-.26a2.21,2.21,0,0,1-.07-.62v-.55a2.77,2.77,0,0,1,.06-.62c0-.17.09-.26.16-.26a6.65,6.65,0,0,0,3-.53l-.39-4.06,1.84-.16.25,4.35a2.57,2.57,0,0,0,1,.31,13.37,13.37,0,0,0,1.81.09C587.43,404.89,587.47,405,587.51,405.14Zm-5.81-7.49-1.59-1.35,1.32-1.57,1.59,1.33Zm3.06,0-1.57-1.33,1.32-1.57,1.58,1.3Z"/><path d="M595.05,405.14a2.68,2.68,0,0,1,.06.63v.55a2.71,2.71,0,0,1-.06.62c0,.18-.09.26-.15.26a7.44,7.44,0,0,1-2.58-.33,1.62,1.62,0,0,1-1.05-1.08,2.27,2.27,0,0,1-1.37,1.08,8,8,0,0,1-2.53.33s-.1-.08-.15-.26a2.21,2.21,0,0,1-.07-.62v-.55a2.77,2.77,0,0,1,.06-.62c0-.17.09-.26.16-.26a6.62,6.62,0,0,0,3-.53L590,400.3l1.84-.16.25,4.35a2.57,2.57,0,0,0,1,.31,13.47,13.47,0,0,0,1.81.09C595,404.89,595,405,595.05,405.14ZM589,409.63l1.6,1.33-1.35,1.59-1.55-1.33Zm3.09,0,1.59,1.33-1.35,1.57-1.57-1.33Z"/><path d="M600,399.28l0,.61c.08,1.77.12,3.21.12,4.31a2.37,2.37,0,0,1-1.24,2.12,6.26,6.26,0,0,1-1.89.67,11.69,11.69,0,0,1-2.16.21s-.1-.08-.15-.26a2.21,2.21,0,0,1-.07-.62v-.55a2.77,2.77,0,0,1,.06-.62c0-.17.09-.26.16-.26a13.74,13.74,0,0,0,2.18-.14,4.93,4.93,0,0,0,1.56-.49l-.47-4.67Zm-3.23-2.86-1.57-1.32,1.33-1.58,1.59,1.31Zm3.08,0-1.57-1.33,1.31-1.57,1.59,1.33Z"/><path d="M506.45,448.58a2.65,2.65,0,0,1,1,1,2.59,2.59,0,0,1,.36,1.34,2.62,2.62,0,0,1-.36,1.35,2.68,2.68,0,0,1-1,1,2.72,2.72,0,0,1-2.67,0,2.76,2.76,0,0,1-1-1,2.62,2.62,0,0,1-.36-1.35,2.58,2.58,0,0,1,.35-1.34,2.65,2.65,0,0,1,1-1,2.61,2.61,0,0,1,1.34-.36A2.56,2.56,0,0,1,506.45,448.58Zm-2.17,1.49a1.11,1.11,0,0,0-.34.82,1.14,1.14,0,0,0,.34.84,1.2,1.2,0,0,0,1.67,0,1.18,1.18,0,0,0,0-1.66,1.18,1.18,0,0,0-.84-.34A1.16,1.16,0,0,0,504.28,450.07Zm1.86,11.16-2-.88,7.1-12.41,2,.87Zm4.65-.31a2.65,2.65,0,0,1-1-1,2.69,2.69,0,0,1,0-2.69,2.68,2.68,0,0,1,1-1,2.59,2.59,0,0,1,1.34-.36,2.54,2.54,0,0,1,1.33.37,2.68,2.68,0,0,1,1,1,2.57,2.57,0,0,1,.37,1.34,2.61,2.61,0,0,1-.36,1.34,2.65,2.65,0,0,1-1,1,2.74,2.74,0,0,1-2.68,0Zm2.17-1.49a1.08,1.08,0,0,0,.34-.82,1.14,1.14,0,0,0-.33-.84,1.18,1.18,0,0,0-2,.84,1.08,1.08,0,0,0,.34.82,1.18,1.18,0,0,0,1.66,0Z"/><path d="M526.73,453.56a2.64,2.64,0,0,1-1.07,1,3.08,3.08,0,0,1-1.43.35,2.47,2.47,0,0,1-1.86-.56,2.74,2.74,0,0,1-1.92.56,1.84,1.84,0,0,1-1.07-.34q.2,2.61.2,6l-1.67.14a51.57,51.57,0,0,0-.3-5.63q-.3-2.73-.92-5.73l2-.42c.13.67.28,1.5.45,2.5a1.19,1.19,0,0,0,.27.65.89.89,0,0,0,.63.19,3.85,3.85,0,0,0,1.34-.21l-.13-2.7,1.82-.14.07,3a3.07,3.07,0,0,0,.89.1,2.89,2.89,0,0,0,1.3-.29l-.38-2.9,2-.31.15,3.32A2.56,2.56,0,0,1,526.73,453.56Z"/><path d="M534.38,453.32a8.74,8.74,0,0,1,1.28,4.29,3.15,3.15,0,0,1-.7,2.24,2.31,2.31,0,0,1-1.7.71,2.91,2.91,0,0,1-1.17-.21,1.64,1.64,0,0,1-.81-.74,2.54,2.54,0,0,1-2.2.95,2,2,0,0,1-1.69-.89,3.62,3.62,0,0,1-.64-2.19,5.37,5.37,0,0,1,.82-2.67,28.15,28.15,0,0,1,2.53-3.57c-.24-.24-.51-.48-.79-.71l1.33-1.75A19.35,19.35,0,0,1,534.38,453.32Zm-.53,4.26a6.6,6.6,0,0,0-.63-2.55,7.47,7.47,0,0,0-1.91-2.58c-1,1.32-1.76,2.3-2.15,2.93a3.16,3.16,0,0,0-.6,1.59.92.92,0,0,0,.26.72,1,1,0,0,0,.66.22,2.25,2.25,0,0,0,1-.24l0-1.05,1.56-.08v1.24a2.2,2.2,0,0,0,.88.13A1.37,1.37,0,0,0,533.85,457.58Z"/><path d="M549.45,458.1a2.76,2.76,0,0,1,0,.44v1.39a2.68,2.68,0,0,1,0,.45c0,.12-.07.18-.11.18a3.51,3.51,0,0,1-1.41-.28,2.06,2.06,0,0,1-1-.86l-.08.49a1,1,0,0,1-.19.48,3.1,3.1,0,0,1-.55.54,1.66,1.66,0,0,1-.86.41.8.8,0,0,1-.36-.08l-2.77-1.32a13,13,0,0,0,.23,1.72q.17.93.54,2.55c.06.23.14.59.25,1.08l-2.37.84a31.32,31.32,0,0,1-.5-5.16,7.52,7.52,0,0,1,.39-2.79,9.42,9.42,0,0,1,1.83-3,2.92,2.92,0,0,1,2.08-.92q1.58,0,2.28,2.07a3.46,3.46,0,0,0,.42.9,1.34,1.34,0,0,0,.7.49,4.21,4.21,0,0,0,1.39.18S549.42,458,549.45,458.1Zm-4.16-.11a2.12,2.12,0,0,0-.25-1.11.82.82,0,0,0-.76-.43,1,1,0,0,0-.71.28,5.77,5.77,0,0,0-.75,1l2.35,1.08A2.54,2.54,0,0,0,545.29,458Z"/><path d="M562.81,458.1a1.94,1.94,0,0,1,0,.44v1.39a1.92,1.92,0,0,1,0,.45c0,.12-.06.18-.1.18h-.38a2.77,2.77,0,0,1-1.23-.27,1.69,1.69,0,0,1-.82-.78,2.32,2.32,0,0,1-.94.79,3.05,3.05,0,0,1-1.23.26,3.6,3.6,0,0,1-1.35-.22,1.54,1.54,0,0,1-.83-.78,1.61,1.61,0,0,1-.8.79,2.58,2.58,0,0,1-1,.21,1.73,1.73,0,0,0-3.08-.21,6.35,6.35,0,0,1-1.73.21s-.07-.06-.1-.18a1.92,1.92,0,0,1,0-.45v-1.39a1.94,1.94,0,0,1,0-.44c0-.13.06-.19.1-.19a5.79,5.79,0,0,0,1.94-.29V455.4h1.83l0,1.68a.83.83,0,0,0,.18.64.84.84,0,0,0,.61.19,3.53,3.53,0,0,0,1.21-.19l-.13-2.89,1.83-.06.06,3a1.86,1.86,0,0,0,.78.13,3.61,3.61,0,0,0,1.35-.21l-.38-3.57,2-.35.23,3.1a1.45,1.45,0,0,0,.15.59.75.75,0,0,0,.43.33,2.94,2.94,0,0,0,.91.11h.38S562.79,458,562.81,458.1Zm-8.72-7.45,1.52,1.23-1.22,1.52-1.52-1.22ZM555.3,448l1.5,1.22-1.22,1.53-1.52-1.23Zm1.31,2.68,1.53,1.23-1.22,1.52-1.53-1.22Z"/><path d="M574.14,457.81a2.92,2.92,0,0,1-.37,1.53,2.37,2.37,0,0,1-1,.92,2.9,2.9,0,0,1-1.31.3,3.6,3.6,0,0,1-1.35-.22,1.52,1.52,0,0,1-.82-.78,1.61,1.61,0,0,1-.8.79,2.62,2.62,0,0,1-1,.21,2,2,0,0,1-1.94-1,2,2,0,0,1-1.14.81,6.4,6.4,0,0,1-1.73.21s-.08-.06-.1-.18a1.92,1.92,0,0,1,0-.45v-1.39a1.94,1.94,0,0,1,0-.44c0-.13.06-.19.1-.19a5.79,5.79,0,0,0,1.94-.29V455.4h1.82v1.68a.83.83,0,0,0,.18.64.84.84,0,0,0,.61.19,3.53,3.53,0,0,0,1.21-.19l-.13-2.89,1.83-.06.06,3a1.86,1.86,0,0,0,.78.13,3.61,3.61,0,0,0,1.35-.21l-.38-3.57,2-.35C574.09,455.29,574.14,456.64,574.14,457.81Zm-6.68-7.16,1.52,1.23-1.22,1.52-1.53-1.22Zm1.2-2.68,1.51,1.22L569,450.72l-1.53-1.23Zm1.32,2.68,1.52,1.23-1.22,1.52-1.52-1.22Z"/><path d="M585,458.1a2.76,2.76,0,0,1,0,.44v1.39a2.68,2.68,0,0,1,0,.45c0,.12-.06.18-.11.18h-.52a2.12,2.12,0,0,1-.87-.18,1.84,1.84,0,0,1-.7-.53,5.11,5.11,0,0,1-1.22,3.09,10.86,10.86,0,0,1-3.72,2.59l-1.4-2a14.58,14.58,0,0,0,3.13-1.75,5,5,0,0,0,1.41-1.69l-.66-4.84,2.09-.43.24,2.11a.93.93,0,0,0,.46.78,2.64,2.64,0,0,0,1.24.22h.52S585,458,585,458.1Z"/><path d="M591.06,458.1a2.76,2.76,0,0,1,0,.44v1.39a2.68,2.68,0,0,1,0,.45c0,.12-.06.18-.11.18a5.38,5.38,0,0,1-2-.28,1.45,1.45,0,0,1-.86-.93,1.77,1.77,0,0,1-1,.94,6.52,6.52,0,0,1-2.16.27s-.07-.06-.1-.18a1.92,1.92,0,0,1,0-.45v-1.39a1.94,1.94,0,0,1,0-.44c0-.13.06-.19.1-.19a5.26,5.26,0,0,0,2.29-.38l-.35-2.84,2-.23.14,3.16a5.41,5.41,0,0,0,2,.29S591,458,591.06,458.1Zm-4.84-8,1.59,1.29L586.52,453l-1.58-1.29Zm2.65,0,1.59,1.29L589.17,453l-1.58-1.29Z"/><path d="M597.14,458.1a2.76,2.76,0,0,1,0,.44v1.39a2.68,2.68,0,0,1,0,.45c0,.12-.06.18-.11.18a5.42,5.42,0,0,1-2-.28,1.45,1.45,0,0,1-.86-.93,1.77,1.77,0,0,1-1,.94,6.44,6.44,0,0,1-2.16.27s-.07-.06-.1-.18a1.92,1.92,0,0,1,0-.45v-1.39a1.94,1.94,0,0,1,0-.44c0-.13.06-.19.1-.19a5.26,5.26,0,0,0,2.29-.38l-.35-2.84,2-.23.14,3.16a5.41,5.41,0,0,0,2,.29C597.08,457.91,597.11,458,597.14,458.1Zm-5,3.95,1.59,1.29-1.29,1.59-1.59-1.29Zm2.65,0,1.59,1.29-1.29,1.59-1.58-1.29Z"/><path d="M601.57,457.78a2.94,2.94,0,0,1-.23,1.14,2.11,2.11,0,0,1-.75.88,6.47,6.47,0,0,1-3.56.76s-.07-.06-.1-.18a1.92,1.92,0,0,1,0-.45v-1.39a1.94,1.94,0,0,1,0-.44c0-.13.06-.19.1-.19a14.36,14.36,0,0,0,1.61-.08,3.52,3.52,0,0,0,1.12-.3l-.38-3.4,2-.35C601.52,455.41,601.57,456.74,601.57,457.78Zm-2.9-8.35,1.59,1.29L599,452.3,597.38,451Zm2.65,0,1.59,1.29-1.29,1.58L600,451Z"/><path d="M498.82,497.13a2.43,2.43,0,0,1,.76,1.81,2.56,2.56,0,0,1-4.39,1.82,2.53,2.53,0,0,1-.75-1.82,2.45,2.45,0,0,1,.74-1.81,2.49,2.49,0,0,1,1.81-.74A2.52,2.52,0,0,1,498.82,497.13Zm-2.94.71a1.46,1.46,0,0,0-.46,1.1,1.52,1.52,0,0,0,.46,1.13,1.48,1.48,0,0,0,1.11.46,1.51,1.51,0,0,0,1.14-.46,1.55,1.55,0,0,0,.45-1.13,1.46,1.46,0,0,0-.46-1.1,1.55,1.55,0,0,0-1.13-.45A1.51,1.51,0,0,0,495.88,497.84Zm1,14.22-1.28-.55,8.35-14.37,1.24.55Zm5.13.15a2.59,2.59,0,0,1,1.83-4.43,2.61,2.61,0,0,1,1.81.78,2.46,2.46,0,0,1,.75,1.81,2.66,2.66,0,0,1-.34,1.31,2.42,2.42,0,0,1-.93.92,2.49,2.49,0,0,1-1.29.34A2.43,2.43,0,0,1,502,512.21Zm3-.72a1.62,1.62,0,0,0,0-2.24,1.54,1.54,0,0,0-1.13-.45,1.51,1.51,0,0,0-1.13.45,1.65,1.65,0,0,0,0,2.24,1.51,1.51,0,0,0,1.13.45A1.54,1.54,0,0,0,504.93,511.49Z"/><path d="M517.86,503.53a12.53,12.53,0,0,1,1.54,6.12,1.86,1.86,0,0,1-.88,1.76,3.77,3.77,0,0,1-1.94.51,3.67,3.67,0,0,1-1.33-.21,1.67,1.67,0,0,1-.85-.81,2.09,2.09,0,0,1-1,.76,3.61,3.61,0,0,1-1.43.26,2.38,2.38,0,0,1-1.89-.8,3.25,3.25,0,0,1-.68-2.18,8.36,8.36,0,0,1,1.26-3.9,45.92,45.92,0,0,1,3.19-4.84c-.21-.2-.41-.38-.61-.55l-.41-.36.81-1A20.9,20.9,0,0,1,517.86,503.53Zm.5,6.37a14.47,14.47,0,0,0-.92-4.59,12,12,0,0,0-2.8-4.33,57.14,57.14,0,0,0-3.17,4.77,6.47,6.47,0,0,0-1,3.11A1.3,1.3,0,0,0,511,510a2.21,2.21,0,0,0,1.31.38,1.83,1.83,0,0,0,1.61-.65l-.08-1.45,1-.11L515,510a2.36,2.36,0,0,0,1.59.41A3.91,3.91,0,0,0,518.36,509.9Z"/><path d="M529.88,503.53a12.53,12.53,0,0,1,1.54,6.12,1.86,1.86,0,0,1-.88,1.76,4.08,4.08,0,0,1-3.27.3,1.71,1.71,0,0,1-.85-.81,2.09,2.09,0,0,1-1,.76,3.61,3.61,0,0,1-1.43.26,2.38,2.38,0,0,1-1.89-.8,3.25,3.25,0,0,1-.68-2.18,8.28,8.28,0,0,1,1.27-3.9,44.21,44.21,0,0,1,3.18-4.84c-.2-.2-.41-.38-.61-.55l-.41-.36.82-1A20.86,20.86,0,0,1,529.88,503.53Zm.5,6.37a14.2,14.2,0,0,0-.92-4.59,12.07,12.07,0,0,0-2.79-4.33c-1.45,2-2.5,3.59-3.18,4.77a6.47,6.47,0,0,0-1,3.11A1.3,1.3,0,0,0,523,510a2.23,2.23,0,0,0,1.31.38,1.83,1.83,0,0,0,1.61-.65l-.08-1.45,1-.11L527,510a2.37,2.37,0,0,0,1.6.41A3.91,3.91,0,0,0,530.38,509.9Z"/><path d="M538.36,515.44a3.25,3.25,0,0,1-1.12-2.72c0-.25.06-.78.17-1.61s.27-1.84.46-3.07l.21-1.28,1,.18a48.77,48.77,0,0,0-.76,5.65,1.8,1.8,0,0,0,.95,1.68,5.54,5.54,0,0,0,2.66.53,13.18,13.18,0,0,0,2.93-.28,4.3,4.3,0,0,0,2-.91L546.28,498l1.23-.21.36,16a1.57,1.57,0,0,1-.8,1.35,6.4,6.4,0,0,1-2.21.91,12.46,12.46,0,0,1-2.93.33A5.78,5.78,0,0,1,538.36,515.44Z"/><path d="M556.27,506.88a9.25,9.25,0,0,1,.67,3.61,5.8,5.8,0,0,1-1.69,4.13,10.94,10.94,0,0,1-4.13,2.73l-.8-1.16a13.05,13.05,0,0,0,3.51-2,5.39,5.39,0,0,0,1.88-2.51,11.57,11.57,0,0,1-2.32.2,5.57,5.57,0,0,1-1.37-.15,1.72,1.72,0,0,1-.92-.56,2.1,2.1,0,0,1-.31-.51,2.28,2.28,0,0,1-.08-.68A7.17,7.17,0,0,1,551,508a4.9,4.9,0,0,1,1.05-1.9,2.38,2.38,0,0,1,1.85-.79A2.34,2.34,0,0,1,556.27,506.88Zm-2.76,3.69a9.08,9.08,0,0,0,2.32-.22q0-3.78-2-3.78a1.62,1.62,0,0,0-1.43,1,5.64,5.64,0,0,0-.55,2.66A4,4,0,0,0,553.51,510.57Z"/><path d="M559.84,498l1.22-.21.18,14.17-1,.16Z"/><path d="M568,515.44a3.25,3.25,0,0,1-1.12-2.72c0-.25.06-.78.17-1.61s.27-1.84.46-3.07l.2-1.28,1,.18a50.21,50.21,0,0,0-.75,5.65,1.8,1.8,0,0,0,.95,1.68,5.54,5.54,0,0,0,2.66.53,14.65,14.65,0,0,0,3.12-.28,4.18,4.18,0,0,0,2.09-1.07,3.57,3.57,0,0,0,.26-1.18,1.27,1.27,0,0,0-1.2-1.41l-1-.1c-.6-.06-1-.12-1.33-.18a1.39,1.39,0,0,1-.67-.31.88.88,0,0,1-.25-.7,9.1,9.1,0,0,1,.52-3,6.56,6.56,0,0,1,1.42-2.4,2.69,2.69,0,0,1,2-.93,2.31,2.31,0,0,1,1.34.44,4.31,4.31,0,0,1,1,1.08l-.67.77a2.6,2.6,0,0,0-1.74-.92,1.88,1.88,0,0,0-1.34.65,4.76,4.76,0,0,0-1,1.69,7.81,7.81,0,0,0-.43,2.23,16.25,16.25,0,0,1,2.54.32,2.4,2.4,0,0,1,1.37.81,2.69,2.69,0,0,1,.49,1.77,3.41,3.41,0,0,1-1.83,3.29,10.13,10.13,0,0,1-4.7,1A5.78,5.78,0,0,1,568,515.44Z"/><path d="M589.19,509.86q0,1.08-1.44,1.62a9.63,9.63,0,0,1-3.38.54,7.23,7.23,0,0,1-2.1-.23,1.5,1.5,0,0,1-.95-.79,4,4,0,0,1-.26-1.63c0-.33,0-.58,0-.76l1,.06V509a2.53,2.53,0,0,0,.14,1,.72.72,0,0,0,.58.36,11.42,11.42,0,0,0,1.63.08,13.12,13.12,0,0,0,2.19-.18,4.61,4.61,0,0,0,1.55-.49,7.16,7.16,0,0,0-1-3.15,14.19,14.19,0,0,0-2.57-3.1l.8-1C587.91,505,589.19,507.44,589.19,509.86Z"/><path d="M596.15,510.82v.67c0,.29,0,.43-.12.43h-.33a3.28,3.28,0,0,1-3.8-3.65L591.66,498l1.22-.21.12,10.5c0,1.41.88,2.12,2.58,2.12H596Q596.15,510.37,596.15,510.82Z"/><path d="M601.09,509.57a1.68,1.68,0,0,1-.26.89,1.88,1.88,0,0,1-.74.68,7.13,7.13,0,0,1-1.86.59,12.17,12.17,0,0,1-2.2.19c-.09,0-.13-.14-.13-.43v-.67c0-.3,0-.45.13-.45a7.83,7.83,0,0,0,4-.76l-.35-4.73,1.2-.23Q601.09,508.21,601.09,509.57Zm-3.17,4.62,1.27,1-1,1.22-1.27-1Z"/><path d="M517.89,545.42a2,2,0,0,1,.78.79,2.13,2.13,0,0,1,.29,1.08,2.21,2.21,0,0,1-.29,1.11,2.09,2.09,0,0,1-.78.78,2.24,2.24,0,0,1-1.11.29,2.13,2.13,0,0,1-1.52-.64,2.18,2.18,0,0,1-.64-1.54,2,2,0,0,1,.3-1.08,2.13,2.13,0,0,1,1.86-1.08A2.24,2.24,0,0,1,517.89,545.42Zm-2,1a1.16,1.16,0,0,0-.34.85,1.21,1.21,0,0,0,.34.87,1.16,1.16,0,0,0,.86.36,1.19,1.19,0,0,0,.88-.36,1.21,1.21,0,0,0,.34-.87,1.16,1.16,0,0,0-.34-.85,1.26,1.26,0,0,0-.88-.34A1.23,1.23,0,0,0,515.92,546.44Zm1,11.09L515.7,557l6.65-11.49,1.23.54Zm4.45.24a2.1,2.1,0,0,1-1.07-1.89,2.12,2.12,0,0,1,.28-1.08,2.24,2.24,0,0,1,.79-.8,2.18,2.18,0,0,1,1.1-.29,2.1,2.1,0,0,1,1.08.29,2.24,2.24,0,0,1,.79.8,2,2,0,0,1,.29,1.08,2.12,2.12,0,0,1-.29,1.11,2.19,2.19,0,0,1-.79.78,2.1,2.1,0,0,1-1.08.29A2.18,2.18,0,0,1,521.41,557.77Zm2-1a1.18,1.18,0,0,0,.35-.86,1.15,1.15,0,0,0-.35-.85,1.14,1.14,0,0,0-.86-.35,1.12,1.12,0,0,0-.86.35,1.15,1.15,0,0,0-.34.85,1.21,1.21,0,0,0,2.06.86Z"/><path d="M535.05,550.69a2,2,0,0,1-.92.68,2.94,2.94,0,0,1-1.11.23,1.8,1.8,0,0,1-1.5-.51,1.58,1.58,0,0,1-.75.39,4,4,0,0,1-1,.12,2.15,2.15,0,0,1-1.25-.37c.17,1.75.25,3.76.25,6l-1,.11a48.14,48.14,0,0,0-1.12-10.7l1.2-.27c.13.56.31,1.5.54,2.83a.77.77,0,0,0,.38.59,1.8,1.8,0,0,0,.88.18,3.32,3.32,0,0,0,1.33-.25l-.1-3,1.12-.11.08,3.22a1.82,1.82,0,0,0,.87.17,2,2,0,0,0,1.41-.44l-.28-3.05,1.15-.22.16,3.24A1.67,1.67,0,0,1,535.05,550.69Z"/><path d="M543.57,555.22a1.79,1.79,0,0,1-.69,1.58,3,3,0,0,1-2.63.3,1.46,1.46,0,0,1-.7-.65,1.66,1.66,0,0,1-.8.62,3.06,3.06,0,0,1-1.15.21,1.91,1.91,0,0,1-1.54-.68,2.83,2.83,0,0,1-.56-1.83,6.22,6.22,0,0,1,1-2.95,33.12,33.12,0,0,1,2.5-3.7,6.2,6.2,0,0,0-.48-.43l-.32-.28.81-1Q543.56,550.65,543.57,555.22Zm-1.07.14a10,10,0,0,0-.7-3.32,8.85,8.85,0,0,0-2.11-3.17,42,42,0,0,0-2.38,3.5,4.55,4.55,0,0,0-.75,2.23,1,1,0,0,0,.38.83,1.78,1.78,0,0,0,2.12-.15l0-1.11,1-.08,0,1.35a1.82,1.82,0,0,0,1.16.27A2.6,2.6,0,0,0,542.5,555.36Z"/><path d="M548.11,557.74a6.73,6.73,0,0,1,.39-2.6q1.5-3.45,3.21-3.45a1.83,1.83,0,0,1,1.61.91,4.13,4.13,0,0,1,.6,2.33,6.07,6.07,0,0,1-.24,1.67,1.72,1.72,0,0,1-.57.73,1.09,1.09,0,0,1-.65.24,1.12,1.12,0,0,1-.43-.1l-2.69-1.24a8.09,8.09,0,0,0,0,.89,14.53,14.53,0,0,0,.12,1.79c.08.64.19,1.43.35,2.39l.07.39-1.38.51A34.35,34.35,0,0,1,548.11,557.74Zm4.62-2.15a3.42,3.42,0,0,0,.07-.71,2.51,2.51,0,0,0-.32-1.36,1,1,0,0,0-.88-.53,1.14,1.14,0,0,0-.88.45,7.55,7.55,0,0,0-.93,1.51l2.76,1.22A2.21,2.21,0,0,0,552.73,555.59Z"/><path d="M560.43,553.06A7.16,7.16,0,0,1,561,556a5.06,5.06,0,0,1-1.29,3.39,8.55,8.55,0,0,1-3.36,2.31l-.83-1.19a9.8,9.8,0,0,0,2.72-1.47,4.72,4.72,0,0,0,1.54-1.89,9.89,9.89,0,0,1-1.72.14,4,4,0,0,1-1.14-.13,1.3,1.3,0,0,1-.72-.49,2.47,2.47,0,0,1-.26-.44,1.66,1.66,0,0,1-.07-.56,6.06,6.06,0,0,1,.27-1.75,3.72,3.72,0,0,1,.86-1.5,2.08,2.08,0,0,1,3.4.65ZM558.27,556a6.83,6.83,0,0,0,1.66-.16,4.12,4.12,0,0,0-.39-2,1.22,1.22,0,0,0-1.13-.67,1.16,1.16,0,0,0-1,.74,4.07,4.07,0,0,0-.4,1.91A3.49,3.49,0,0,0,558.27,556Z"/><path d="M569.11,552.7a6.59,6.59,0,0,1,.68,2.72,1.55,1.55,0,0,1-1.13,1.46,7.1,7.1,0,0,1-2.76.48,5.44,5.44,0,0,1-1.67-.2,1.26,1.26,0,0,1-.8-.66,3,3,0,0,1-.23-1.32,5.72,5.72,0,0,1,0-.79l1,.08v.3a1.68,1.68,0,0,0,.1.71.55.55,0,0,0,.44.25,7.91,7.91,0,0,0,1.2.06,9.62,9.62,0,0,0,1.58-.13,4.57,4.57,0,0,0,1.22-.32,5.21,5.21,0,0,0-.8-2.31,11.56,11.56,0,0,0-2-2.37l.81-1A10.8,10.8,0,0,1,569.11,552.7Z"/><path d="M574.94,560.06a2.69,2.69,0,0,1-.89-2.22,9.31,9.31,0,0,1,.14-1.26c.09-.62.21-1.38.35-2.27l.09-.63c0-.2.07-.41.1-.62l1,.19a41.42,41.42,0,0,0-.6,4.41,1.26,1.26,0,0,0,.74,1.2,4.38,4.38,0,0,0,2,.37,11.8,11.8,0,0,0,2.43-.21,3.43,3.43,0,0,0,1.62-.79,2.4,2.4,0,0,0,.16-.76.87.87,0,0,0-.81-1l-.52,0q-.84-.08-1.26-.15a1.36,1.36,0,0,1-.65-.31.82.82,0,0,1-.24-.65A6.91,6.91,0,0,1,579,553a5.6,5.6,0,0,1,1.16-2,2.15,2.15,0,0,1,1.56-.76,1.86,1.86,0,0,1,1.1.36,3.34,3.34,0,0,1,.9,1l-.66.76a2.08,2.08,0,0,0-1.35-.73,1.35,1.35,0,0,0-1,.45,3.37,3.37,0,0,0-.72,1.2,6,6,0,0,0-.36,1.61,11.36,11.36,0,0,1,2,.27,1.9,1.9,0,0,1,1.07.67,2.42,2.42,0,0,1,.39,1.5,2.81,2.81,0,0,1-1.49,2.67,7.77,7.77,0,0,1-3.77.81A4.55,4.55,0,0,1,574.94,560.06Z"/><path d="M591.26,552.7a6.59,6.59,0,0,1,.68,2.72,1.55,1.55,0,0,1-1.14,1.46,7,7,0,0,1-2.75.48,5.55,5.55,0,0,1-1.68-.2,1.31,1.31,0,0,1-.8-.66,3.05,3.05,0,0,1-.22-1.32c0-.32,0-.59,0-.79l1,.08v.3a1.65,1.65,0,0,0,.11.71.53.53,0,0,0,.43.25,8.16,8.16,0,0,0,1.21.06,9.5,9.5,0,0,0,1.57-.13,4.66,4.66,0,0,0,1.23-.32,5.33,5.33,0,0,0-.8-2.31,11.89,11.89,0,0,0-2-2.37l.81-1A10.8,10.8,0,0,1,591.26,552.7Z"/><path d="M597.46,555.84a1.26,1.26,0,0,1,0,.3v.73a1.23,1.23,0,0,1,0,.29c0,.08,0,.12-.08.12h-.31a3.16,3.16,0,0,1-2.28-.71,3.5,3.5,0,0,1-.79-2.4l-.21-8L595,546l.08,8.16a1.4,1.4,0,0,0,.5,1.19,2.14,2.14,0,0,0,1.31.37h.46S597.44,555.75,597.46,555.84Z"/><path d="M601.46,555.22a1.72,1.72,0,0,1-.2.8,1.78,1.78,0,0,1-.62.63,5,5,0,0,1-1.45.47,9.38,9.38,0,0,1-1.81.16s0,0-.08-.12a1.23,1.23,0,0,1,0-.29v-.73a1.26,1.26,0,0,1,0-.3c0-.09.05-.13.08-.13a14.69,14.69,0,0,0,1.73-.1,3.33,3.33,0,0,0,1.29-.43l-.3-3.62,1.2-.22C601.41,553.14,601.46,554.43,601.46,555.22ZM598.83,559l1.19.94-.91,1.12-1.19-.93Z"/><path d="M542,594.17a1.58,1.58,0,0,1,.56.56,1.62,1.62,0,0,1,.2.78,1.51,1.51,0,0,1-.76,1.35,1.63,1.63,0,0,1-.79.2,1.51,1.51,0,0,1-1.09-.46,1.53,1.53,0,0,1-.46-1.09,1.63,1.63,0,0,1,.21-.78,1.53,1.53,0,0,1,.57-.56,1.46,1.46,0,0,1,.77-.21A1.53,1.53,0,0,1,542,594.17Zm-1.4.73a.81.81,0,0,0-.25.61.84.84,0,0,0,.25.62.81.81,0,0,0,.61.25.83.83,0,0,0,.62-.25.84.84,0,0,0,.25-.62.81.81,0,0,0-.25-.61.86.86,0,0,0-.62-.24A.84.84,0,0,0,540.56,594.9Zm.73,7.92-.89-.38,4.75-8.21.87.38Zm3.18.17a1.5,1.5,0,0,1-.56-.56,1.63,1.63,0,0,1-.2-.79,1.55,1.55,0,0,1,.2-.77,1.61,1.61,0,0,1,.56-.57,1.53,1.53,0,0,1,.79-.21,1.46,1.46,0,0,1,.77.21,1.53,1.53,0,0,1,.56.57,1.46,1.46,0,0,1,.21.77,1.53,1.53,0,0,1-.21.79,1.44,1.44,0,0,1-.56.56,1.46,1.46,0,0,1-.77.21A1.53,1.53,0,0,1,544.47,603Zm1.4-.74a.81.81,0,0,0,.25-.61.82.82,0,0,0-.25-.61.81.81,0,0,0-.61-.25.83.83,0,0,0-.62.25.85.85,0,0,0-.24.61.84.84,0,0,0,.86.86A.81.81,0,0,0,545.87,602.25Z"/><path d="M552.05,598.23a2.68,2.68,0,0,1-1.41.35,2,2,0,0,1-1.07-.28c.12,1.26.18,2.71.18,4.34l-.75.08a34.12,34.12,0,0,0-.8-7.64l.86-.2q0,.21.3,1.5l.09.52a.52.52,0,0,0,.3.43,1.86,1.86,0,0,0,.81.13,2,2,0,0,0,1.3-.32l-.21-2.18.84-.16.11,2.32A1.15,1.15,0,0,1,552.05,598.23Z"/><path d="M558.44,601.17a1.27,1.27,0,0,1-.5,1.13,2.09,2.09,0,0,1-1.87.21,1.05,1.05,0,0,1-.5-.46,1.26,1.26,0,0,1-.57.44,2.19,2.19,0,0,1-.83.15,1.33,1.33,0,0,1-1.09-.49,2,2,0,0,1-.4-1.3,4.34,4.34,0,0,1,.68-2.11,22.3,22.3,0,0,1,1.78-2.64,4.57,4.57,0,0,0-.34-.31l-.23-.2.58-.74Q558.44,597.9,558.44,601.17Zm-.76.1a7.14,7.14,0,0,0-.5-2.37,6.4,6.4,0,0,0-1.51-2.27c-.78,1.06-1.34,1.89-1.7,2.5a3.23,3.23,0,0,0-.53,1.59.71.71,0,0,0,.26.6,1.11,1.11,0,0,0,.67.2,1.05,1.05,0,0,0,.85-.31l0-.79.72-.06,0,1a1.31,1.31,0,0,0,.83.2A1.93,1.93,0,0,0,557.68,601.27Z"/><path d="M561.68,603a4.69,4.69,0,0,1,.29-1.86c.71-1.64,1.47-2.46,2.29-2.46a1.32,1.32,0,0,1,1.15.64,3,3,0,0,1,.42,1.67,4.12,4.12,0,0,1-.17,1.19,1.06,1.06,0,0,1-.41.52.71.71,0,0,1-.46.17.89.89,0,0,1-.31-.06l-1.91-.89a4.14,4.14,0,0,0,0,.64,9.83,9.83,0,0,0,.09,1.27c0,.46.14,1,.25,1.71l0,.28-1,.37A24.87,24.87,0,0,1,561.68,603Zm3.31-1.54a2.92,2.92,0,0,0,0-.5,1.89,1.89,0,0,0-.23-1,.72.72,0,0,0-.63-.37.79.79,0,0,0-.63.32,5.48,5.48,0,0,0-.67,1.07l2,.88A2.35,2.35,0,0,0,565,601.43Z"/><path d="M571.84,601.61a.68.68,0,0,1,0,.21v.53a.59.59,0,0,1,0,.2c0,.06,0,.09-.05.09h-1a3.9,3.9,0,0,1-1.12,1.85,6.34,6.34,0,0,1-2.08,1.3l-.59-.85a6.91,6.91,0,0,0,1.94-1.05,3.37,3.37,0,0,0,1.1-1.35,6.51,6.51,0,0,1-1.23.1,3,3,0,0,1-.81-.09,1,1,0,0,1-.51-.35,1.26,1.26,0,0,1-.19-.32,1.3,1.3,0,0,1,0-.4,4.2,4.2,0,0,1,.19-1.24,2.61,2.61,0,0,1,.61-1.08,1.4,1.4,0,0,1,1.08-.44,1.36,1.36,0,0,1,1.31.83,4.93,4.93,0,0,1,.47,2h.88S571.83,601.55,571.84,601.61Zm-2.9.08a4.47,4.47,0,0,0,1.19-.12,2.9,2.9,0,0,0-.28-1.45.88.88,0,0,0-.81-.47.84.84,0,0,0-.75.52,2.9,2.9,0,0,0-.28,1.37A2.44,2.44,0,0,0,568.94,601.69Z"/><path d="M578.94,601.27a1.18,1.18,0,0,1-.5,1,2.13,2.13,0,0,1-1.19.33c-.64,0-1-.2-1.22-.59a1,1,0,0,1-.53.45,2,2,0,0,1-.68.14,1.81,1.81,0,0,1-.76-.15,1,1,0,0,1-.46-.44,1.36,1.36,0,0,1-.72.45,4.11,4.11,0,0,1-1.09.14s0,0-.06-.09a.59.59,0,0,1,0-.2v-.53a.68.68,0,0,1,0-.21q0-.09.06-.09a6,6,0,0,0,.8,0,1.73,1.73,0,0,0,.6-.22l0-1.79h.8l0,1.42c0,.43.25.64.76.64a1.84,1.84,0,0,0,.93-.2L575.6,599l.79,0,0,2.33a1,1,0,0,0,.67.18,2.14,2.14,0,0,0,1.08-.21l-.2-2.75.85-.16C578.9,599.68,578.94,600.64,578.94,601.27Z"/><path d="M582.86,604.62a1.89,1.89,0,0,1-.64-1.58,7,7,0,0,1,.1-.9c.07-.44.15-1,.25-1.62,0-.15,0-.3.07-.45s0-.3.07-.45l.7.14a28.48,28.48,0,0,0-.43,3.15.89.89,0,0,0,.52.86,3.19,3.19,0,0,0,1.42.26,8.49,8.49,0,0,0,1.73-.15,2.47,2.47,0,0,0,1.16-.56,2,2,0,0,0,.11-.54.62.62,0,0,0-.58-.7l-.37,0-.9-.11a.9.9,0,0,1-.46-.22.6.6,0,0,1-.17-.46,4.92,4.92,0,0,1,.31-1.72,4,4,0,0,1,.83-1.39,1.52,1.52,0,0,1,1.12-.54,1.34,1.34,0,0,1,.78.25,2.33,2.33,0,0,1,.64.71l-.47.54a1.49,1.49,0,0,0-1-.52,1,1,0,0,0-.69.32,2.48,2.48,0,0,0-.51.86,4.29,4.29,0,0,0-.26,1.15,8.59,8.59,0,0,1,1.41.19,1.32,1.32,0,0,1,.76.48,1.71,1.71,0,0,1,.28,1.07,2,2,0,0,1-1.06,1.91,5.64,5.64,0,0,1-2.69.58A3.24,3.24,0,0,1,582.86,604.62Z"/><path d="M594.51,599.37a4.59,4.59,0,0,1,.49,1.94,1.12,1.12,0,0,1-.81,1.05,5.23,5.23,0,0,1-2,.34,3.73,3.73,0,0,1-1.2-.15.94.94,0,0,1-.57-.47,2.12,2.12,0,0,1-.16-.94c0-.23,0-.42,0-.56l.69,0v.22a1.17,1.17,0,0,0,.07.5.36.36,0,0,0,.31.18,5.67,5.67,0,0,0,.86,0,7.37,7.37,0,0,0,1.13-.09,3.61,3.61,0,0,0,.87-.22,3.79,3.79,0,0,0-.57-1.65,8,8,0,0,0-1.42-1.7l.58-.74A7.53,7.53,0,0,1,594.51,599.37Z"/><path d="M598.94,601.61a.66.66,0,0,1,0,.21v.53a.56.56,0,0,1,0,.2c0,.06,0,.09-.05.09h-.23a2.26,2.26,0,0,1-1.63-.51,2.5,2.5,0,0,1-.56-1.71l-.15-5.7.89-.14.06,5.83a1,1,0,0,0,.35.84,1.5,1.5,0,0,0,.94.27h.33S598.93,601.55,598.94,601.61Z"/><path d="M601.8,601.17a1.16,1.16,0,0,1-.15.57,1.12,1.12,0,0,1-.44.45,3.89,3.89,0,0,1-1,.34,7.47,7.47,0,0,1-1.29.11s0,0-.06-.09a1,1,0,0,1,0-.2v-.53a1.25,1.25,0,0,1,0-.21q0-.09.06-.09a9,9,0,0,0,1.23-.08,2.43,2.43,0,0,0,.92-.3l-.21-2.58.86-.16C601.76,599.68,601.8,600.61,601.8,601.17Zm-1.88,2.68.85.67-.65.81-.85-.67Z"/><path d="M46.81,190.29V179.38h6.31v.89H47.8v4.11h4.82v.89H47.8v5Z"/><path d="M54.25,190.29h-1l4-10.91h1.06l4,10.91h-1l-3.42-9.62h-.08ZM55,186.1h5.42v.9H55Z"/><path d="M64.08,190.29V179.38H67.6a4.16,4.16,0,0,1,1.94.41A2.81,2.81,0,0,1,70.72,181a3.46,3.46,0,0,1,.4,1.69,3.37,3.37,0,0,1-.4,1.68,2.69,2.69,0,0,1-1.17,1.14,4,4,0,0,1-1.93.41h-3V185h3a3.15,3.15,0,0,0,1.42-.28,1.89,1.89,0,0,0,.85-.8,2.67,2.67,0,0,0,.28-1.24,2.77,2.77,0,0,0-.28-1.25,2.06,2.06,0,0,0-.85-.83,3.19,3.19,0,0,0-1.43-.29h-2.5v10Zm4.81-4.93,2.69,4.93H70.43l-2.66-4.93Z"/><path d="M73.55,190.29V179.38h1v5h6.19v-5h1v10.91h-1v-5H74.54v5Z"/><path d="M84.64,190.29h-1l4-10.91h1.06l4,10.91h-1l-3.42-9.62h-.08Zm.75-4.19h5.42v.9H85.39Z"/><path d="M103,179.38v10.91h-1l-6.45-9.14h-.08v9.14h-1V179.38h1l6.47,9.14H102v-9.14Z"/><path d="M113.41,182.79a3.58,3.58,0,0,0-.44-1,3.17,3.17,0,0,0-.71-.84,3,3,0,0,0-1-.56,3.6,3.6,0,0,0-3.14.35,3.7,3.7,0,0,0-1.32,1.6,6.67,6.67,0,0,0,0,5,3.67,3.67,0,0,0,1.34,1.6,3.54,3.54,0,0,0,2,.56,3.49,3.49,0,0,0,1.78-.45,3.18,3.18,0,0,0,1.21-1.28,4.06,4.06,0,0,0,.42-2l.32.1h-3.49V185h4.14v.9a4.85,4.85,0,0,1-.57,2.41,3.9,3.9,0,0,1-1.55,1.57A4.56,4.56,0,0,1,106,187.8a6.84,6.84,0,0,1-.6-3,7.59,7.59,0,0,1,.34-2.32,5.16,5.16,0,0,1,1-1.76,4.22,4.22,0,0,1,1.49-1.13,4.5,4.5,0,0,1,1.89-.39,4.55,4.55,0,0,1,1.64.28,4.62,4.62,0,0,1,1.31.77,4.23,4.23,0,0,1,.93,1.14,4.16,4.16,0,0,1,.49,1.37Z"/><path d="M125.42,184.38v.9h-4.54v-.9Z"/><path d="M132.22,190.29V179.38h6.33v.89h-5.33v4.11h5v.89h-5v4.12h5.44v.9Z"/><path d="M141.29,179.38l3,4.73h.07l3-4.73h1.18l-3.51,5.45,3.51,5.46H147.4l-3-4.69h-.07l-3,4.69h-1.17l3.56-5.46-3.56-5.45Z"/><path d="M149.81,180.27v-.89h7.91v.89h-3.46v10h-1v-10Z"/><path d="M160,190.29V179.38h3.52a4.19,4.19,0,0,1,1.94.41A2.87,2.87,0,0,1,166.6,181a3.57,3.57,0,0,1,.39,1.69,3.47,3.47,0,0,1-.39,1.68,2.77,2.77,0,0,1-1.18,1.14,4,4,0,0,1-1.93.41h-3V185h3a3.15,3.15,0,0,0,1.42-.28,1.86,1.86,0,0,0,.84-.8,2.55,2.55,0,0,0,.28-1.24,2.65,2.65,0,0,0-.28-1.25,2,2,0,0,0-.85-.83,3.16,3.16,0,0,0-1.43-.29H161v10Zm4.81-4.93,2.68,4.93H166.3l-2.66-4.93Z"/><path d="M169.44,190.29h-1.05l4-10.91h1.07l4,10.91h-1.05l-3.42-9.62h-.07Zm.75-4.19h5.41v.9h-5.41Z"/><path d="M179.27,190.29V179.38H183a3.74,3.74,0,0,1,1.77.37,2.52,2.52,0,0,1,1.07,1,2.93,2.93,0,0,1,.36,1.46,2.77,2.77,0,0,1-.23,1.17,2,2,0,0,1-.63.78,2.53,2.53,0,0,1-.87.43v.09a2,2,0,0,1,1,.37,2.47,2.47,0,0,1,.81.93,2.91,2.91,0,0,1,.32,1.43,3,3,0,0,1-.36,1.47,2.62,2.62,0,0,1-1.13,1,4.52,4.52,0,0,1-1.93.37Zm1-6H183a2.41,2.41,0,0,0,1.13-.26,2,2,0,0,0,.75-.74,2.1,2.1,0,0,0,.27-1.07,1.85,1.85,0,0,0-.56-1.41,2.31,2.31,0,0,0-1.68-.55h-2.69Zm0,5.09h2.89a2.71,2.71,0,0,0,1.87-.56,1.83,1.83,0,0,0,.6-1.4,2.21,2.21,0,0,0-.3-1.14,2.05,2.05,0,0,0-.85-.8,2.6,2.6,0,0,0-1.28-.3h-2.93Z"/><path d="M197.92,184.83a6.7,6.7,0,0,1-.61,3,4.61,4.61,0,0,1-1.67,1.94,4.66,4.66,0,0,1-4.88,0,4.61,4.61,0,0,1-1.67-1.94,7.63,7.63,0,0,1,0-5.93,4.64,4.64,0,0,1,1.67-2,4.66,4.66,0,0,1,4.88,0,4.64,4.64,0,0,1,1.67,2A6.66,6.66,0,0,1,197.92,184.83Zm-1,0a5.82,5.82,0,0,0-.49-2.51,3.74,3.74,0,0,0-1.34-1.6,3.41,3.41,0,0,0-1.92-.56,3.45,3.45,0,0,0-1.92.56,3.81,3.81,0,0,0-1.34,1.6,6.67,6.67,0,0,0,0,5,3.74,3.74,0,0,0,1.34,1.6,3.41,3.41,0,0,0,1.92.56,3.46,3.46,0,0,0,1.93-.56,3.81,3.81,0,0,0,1.34-1.6A6,6,0,0,0,197,184.83Z"/><path d="M200.33,190.29V179.38h1v10h5.2v.9Z"/><path d="M212,190.29h-3.2V179.38h3.39a5.13,5.13,0,0,1,2.67.65,4.29,4.29,0,0,1,1.71,1.86,6.65,6.65,0,0,1,.59,2.91,6.52,6.52,0,0,1-.61,2.95,4.27,4.27,0,0,1-1.76,1.88A5.51,5.51,0,0,1,212,190.29Zm-2.2-.9h2.14a4.63,4.63,0,0,0,2.36-.55,3.49,3.49,0,0,0,1.42-1.59,6.61,6.61,0,0,0,0-4.87,3.51,3.51,0,0,0-1.37-1.57,4.26,4.26,0,0,0-2.23-.54h-2.33Z"/><path d="M46.81,94.93V84h6.31v.89H47.8V89h4.82v.89H47.8v5Z"/><path d="M54.25,94.93h-1l4-10.91h1.06l4,10.91h-1l-3.42-9.62h-.08ZM55,90.74h5.42v.9H55Z"/><path d="M64.08,94.93V84H67.6a4.16,4.16,0,0,1,1.94.41,2.81,2.81,0,0,1,1.18,1.16,3.46,3.46,0,0,1,.4,1.69,3.37,3.37,0,0,1-.4,1.68,2.69,2.69,0,0,1-1.17,1.14,4,4,0,0,1-1.93.41h-3V89.6h3A3.15,3.15,0,0,0,69,89.32a1.89,1.89,0,0,0,.85-.8,2.67,2.67,0,0,0,.28-1.24A2.77,2.77,0,0,0,69.86,86,2.06,2.06,0,0,0,69,85.2a3.19,3.19,0,0,0-1.43-.29h-2.5v10ZM68.89,90l2.69,4.93H70.43L67.77,90Z"/><path d="M73.55,94.93V84h1v5h6.19V84h1V94.93h-1v-5H74.54v5Z"/><path d="M84.64,94.93h-1l4-10.91h1.06l4,10.91h-1l-3.42-9.62h-.08Zm.75-4.19h5.42v.9H85.39Z"/><path d="M103,84V94.93h-1l-6.45-9.14h-.08v9.14h-1V84h1l6.47,9.14H102V84Z"/><path d="M113.41,87.43a3.58,3.58,0,0,0-.44-1,3.17,3.17,0,0,0-.71-.84,3,3,0,0,0-1-.56,3.6,3.6,0,0,0-3.14.35,3.7,3.7,0,0,0-1.32,1.6,6.67,6.67,0,0,0,0,5,3.67,3.67,0,0,0,1.34,1.6,3.54,3.54,0,0,0,2,.56,3.49,3.49,0,0,0,1.78-.45,3.18,3.18,0,0,0,1.21-1.28,4.06,4.06,0,0,0,.42-2l.32.1h-3.49v-.9h4.14v.9a4.85,4.85,0,0,1-.57,2.41,3.9,3.9,0,0,1-1.55,1.57,4.89,4.89,0,0,1-4.76-.14A4.58,4.58,0,0,1,106,92.44a6.84,6.84,0,0,1-.6-3,7.59,7.59,0,0,1,.34-2.32,5.16,5.16,0,0,1,1-1.76,4.22,4.22,0,0,1,1.49-1.13,4.5,4.5,0,0,1,1.89-.39,4.55,4.55,0,0,1,1.64.28,4.62,4.62,0,0,1,1.31.77,4.23,4.23,0,0,1,.93,1.14,4.16,4.16,0,0,1,.49,1.37Z"/><path d="M125.42,89v.9h-4.54V89Z"/><path d="M132.22,94.93V84h3.68a3.81,3.81,0,0,1,1.78.37,2.57,2.57,0,0,1,1.07,1,3,3,0,0,1,.35,1.46,2.63,2.63,0,0,1-.23,1.17,2.09,2.09,0,0,1-.62.78,2.58,2.58,0,0,1-.88.43v.09a2,2,0,0,1,1,.37,2.49,2.49,0,0,1,.82.93,3,3,0,0,1,.32,1.42,2.88,2.88,0,0,1-.37,1.48,2.51,2.51,0,0,1-1.13,1,4.48,4.48,0,0,1-1.93.37Zm1-6H136a2.39,2.39,0,0,0,1.13-.26,2,2,0,0,0,.76-.74,2.1,2.1,0,0,0,.27-1.07,1.85,1.85,0,0,0-.57-1.41,2.28,2.28,0,0,0-1.68-.55h-2.68Zm0,5.09h2.88a2.68,2.68,0,0,0,1.87-.56,1.85,1.85,0,0,0,.61-1.41,2.2,2.2,0,0,0-.31-1.13,2.09,2.09,0,0,0-.84-.8,2.63,2.63,0,0,0-1.28-.3h-2.93Z"/><path d="M141.93,94.93V84h1V94h5.2v.9Z"/><path d="M151.07,94.93h-1L154,84h1.07l4,10.91h-1l-3.42-9.62h-.07Zm.75-4.19h5.41v.9h-5.41Z"/><path d="M168.93,87.43h-1a2.92,2.92,0,0,0-.4-1,3,3,0,0,0-.72-.83,3.39,3.39,0,0,0-1-.56,3.6,3.6,0,0,0-3.08.34,3.77,3.77,0,0,0-1.35,1.58,6.66,6.66,0,0,0,0,5.11,3.74,3.74,0,0,0,1.35,1.57,3.6,3.6,0,0,0,3.08.34,3.6,3.6,0,0,0,1-.55,3.21,3.21,0,0,0,.72-.84,2.87,2.87,0,0,0,.4-1h1a4.44,4.44,0,0,1-.5,1.39,4.14,4.14,0,0,1-2.22,1.89,4.59,4.59,0,0,1-1.6.27,4.38,4.38,0,0,1-2.44-.69,4.61,4.61,0,0,1-1.67-1.94,7.54,7.54,0,0,1,0-5.94,4.67,4.67,0,0,1,1.67-1.94,4.38,4.38,0,0,1,2.44-.69,4.59,4.59,0,0,1,1.6.27,4.13,4.13,0,0,1,1.29.75,4.19,4.19,0,0,1,.93,1.13A4.47,4.47,0,0,1,168.93,87.43Z"/><path d="M171.27,94.93V84h1v5.87h.09L177.69,84H179l-4.66,5L179,94.93h-1.22l-4-5.18-1.45,1.63v3.55Z"/><path d="M46.83,276.48h-1l4-10.91h1.06l4,10.91h-1l-3.42-9.61h-.07Zm.75-4.18H53v.89H47.58Z"/><path d="M65.15,265.57v10.91h-1l-6.45-9.14h-.08v9.14h-1V265.57h1l6.46,9.15h.09v-9.15Z"/><path d="M72.18,265.57h1v7.87a3.86,3.86,0,0,1-.39,1.77,2.5,2.5,0,0,1-1,1.07,3.32,3.32,0,0,1-1.53.35,3.49,3.49,0,0,1-1.51-.32,2.35,2.35,0,0,1-1.43-2.22h1a1.41,1.41,0,0,0,.26.86,1.67,1.67,0,0,0,.7.58,2.29,2.29,0,0,0,1,.2,2.08,2.08,0,0,0,1-.24,1.74,1.74,0,0,0,.69-.75,2.93,2.93,0,0,0,.25-1.3Z"/><path d="M85,271a6.69,6.69,0,0,1-.61,3,4.71,4.71,0,0,1-1.67,1.95,4.66,4.66,0,0,1-4.88,0A4.64,4.64,0,0,1,76.19,274a7.51,7.51,0,0,1,0-5.93,4.64,4.64,0,0,1,1.67-1.95,4.66,4.66,0,0,1,4.88,0,4.71,4.71,0,0,1,1.67,1.95A6.7,6.7,0,0,1,85,271Zm-1,0a6,6,0,0,0-.49-2.52,3.8,3.8,0,0,0-1.34-1.6,3.63,3.63,0,0,0-3.84,0,3.87,3.87,0,0,0-1.34,1.6,5.87,5.87,0,0,0-.49,2.52,5.78,5.78,0,0,0,.49,2.5,3.67,3.67,0,0,0,1.34,1.6,3.33,3.33,0,0,0,1.92.56,3.4,3.4,0,0,0,1.92-.55,3.73,3.73,0,0,0,1.34-1.6A5.85,5.85,0,0,0,84.05,271Z"/><path d="M87.43,265.57h1.15l4,9.5h.1l4-9.5h1.15v10.91H96.8v-8.81h-.09L93,276.48h-.9l-3.68-8.81h-.09v8.81h-.93Z"/><path d="M100.65,276.48h-1l4-10.91h1.06l4,10.91h-1l-3.42-9.61h-.08Zm.75-4.18h5.41v.89H101.4Z"/><path d="M119,265.57v10.91h-1l-6.45-9.14h-.08v9.14h-1V265.57h1l6.47,9.15H118v-9.15Z"/><path d="M130.31,270.58v.89h-4.54v-.89Z"/><path d="M137.11,276.48V265.57h6.33v.9H138.1v4.1h5v.9h-5v4.11h5.44v.9Z"/><path d="M146.18,265.57l3,4.74h.07l3-4.74h1.18L150,271l3.51,5.45h-1.18l-3-4.68h-.07l-3,4.68H145l3.57-5.45L145,265.57Z"/><path d="M154.7,266.47v-.9h7.91v.9h-3.46v10h-1v-10Z"/><path d="M164.84,276.48V265.57h3.52a4,4,0,0,1,1.94.42,2.7,2.7,0,0,1,1.18,1.16,3.75,3.75,0,0,1,0,3.37,2.69,2.69,0,0,1-1.17,1.14,4.14,4.14,0,0,1-1.93.41h-3v-.91h3a3.29,3.29,0,0,0,1.42-.28,1.91,1.91,0,0,0,.85-.81,2.54,2.54,0,0,0,.28-1.23,2.71,2.71,0,0,0-.28-1.25,1.9,1.9,0,0,0-.85-.83,3.06,3.06,0,0,0-1.43-.29h-2.5v10Zm4.81-4.92,2.69,4.92h-1.15l-2.66-4.92Z"/><path d="M174.32,276.48h-1l4-10.91h1.06l4,10.91h-1l-3.42-9.61h-.08Zm.76-4.18h5.41v.89h-5.41Z"/><path d="M184.15,276.48V265.57h3.68a3.94,3.94,0,0,1,1.78.37,2.57,2.57,0,0,1,1.07,1,3,3,0,0,1,.35,1.47,2.58,2.58,0,0,1-.23,1.16,2,2,0,0,1-.62.79,2.67,2.67,0,0,1-.88.43v.08a2.18,2.18,0,0,1,1,.37,2.47,2.47,0,0,1,.81.93,3,3,0,0,1,.32,1.43,2.87,2.87,0,0,1-.37,1.47,2.54,2.54,0,0,1-1.12,1,4.37,4.37,0,0,1-1.93.37Zm1-6h2.77a2.28,2.28,0,0,0,1.13-.27,1.91,1.91,0,0,0,.76-.73,2.13,2.13,0,0,0,.27-1.07,1.92,1.92,0,0,0-.56-1.42,2.37,2.37,0,0,0-1.69-.54h-2.68Zm0,5.08H188a2.67,2.67,0,0,0,1.86-.55,1.88,1.88,0,0,0,.61-1.41,2.17,2.17,0,0,0-.3-1.13,2.28,2.28,0,0,0-.85-.81,2.6,2.6,0,0,0-1.28-.3h-2.93Z"/><path d="M202.81,271a6.83,6.83,0,0,1-.61,3,4.71,4.71,0,0,1-1.67,1.95,4.68,4.68,0,0,1-4.89,0A4.69,4.69,0,0,1,194,274a7.51,7.51,0,0,1,0-5.93,4.64,4.64,0,0,1,1.67-1.95,4.66,4.66,0,0,1,4.88,0,4.71,4.71,0,0,1,1.67,1.95A6.84,6.84,0,0,1,202.81,271Zm-1,0a6,6,0,0,0-.49-2.52,3.87,3.87,0,0,0-1.34-1.6,3.63,3.63,0,0,0-3.84,0,3.8,3.8,0,0,0-1.34,1.6,5.87,5.87,0,0,0-.49,2.52,5.78,5.78,0,0,0,.49,2.5,3.72,3.72,0,0,0,1.33,1.6,3.39,3.39,0,0,0,1.93.56,3.42,3.42,0,0,0,1.92-.55,3.73,3.73,0,0,0,1.34-1.6A5.85,5.85,0,0,0,201.84,271Z"/><path d="M205.21,276.48V265.57h1v10h5.2v.9Z"/><path d="M216.85,276.48h-3.2V265.57H217a5.23,5.23,0,0,1,2.67.65,4.26,4.26,0,0,1,1.7,1.86A6.56,6.56,0,0,1,222,271a6.65,6.65,0,0,1-.6,2.94,4.22,4.22,0,0,1-1.76,1.88A5.54,5.54,0,0,1,216.85,276.48Zm-2.2-.9h2.14a4.57,4.57,0,0,0,2.35-.55,3.54,3.54,0,0,0,1.43-1.58A5.92,5.92,0,0,0,221,271a5.82,5.82,0,0,0-.47-2.43,3.35,3.35,0,0,0-1.36-1.56,4.28,4.28,0,0,0-2.23-.54h-2.33Z"/><path d="M46.82,346.84h-1l4-10.91h1.06l4,10.91h-1l-3.42-9.61h-.08Zm.76-4.18H53v.89H47.58Z"/><path d="M65.15,335.93v10.91h-1l-6.45-9.14h-.08v9.14h-1V335.93h1l6.46,9.15h.09v-9.15Z"/><path d="M72.18,335.93h1v7.87a3.74,3.74,0,0,1-.38,1.77,2.5,2.5,0,0,1-1,1.07,3.32,3.32,0,0,1-1.53.35,3.46,3.46,0,0,1-1.51-.32,2.35,2.35,0,0,1-1.43-2.22h1a1.47,1.47,0,0,0,.25.86,1.74,1.74,0,0,0,.7.58,2.37,2.37,0,0,0,1,.2,2.08,2.08,0,0,0,1-.24,1.74,1.74,0,0,0,.69-.75,2.93,2.93,0,0,0,.25-1.3Z"/><path d="M85,341.39a6.83,6.83,0,0,1-.61,3,4.71,4.71,0,0,1-1.67,1.95,4.68,4.68,0,0,1-4.89,0,4.69,4.69,0,0,1-1.66-1.95,7.51,7.51,0,0,1,0-5.93,4.64,4.64,0,0,1,1.67-1.95,4.66,4.66,0,0,1,4.88,0,4.71,4.71,0,0,1,1.67,1.95A6.84,6.84,0,0,1,85,341.39Zm-1,0a6,6,0,0,0-.49-2.52,3.87,3.87,0,0,0-1.34-1.6,3.63,3.63,0,0,0-3.84,0,3.8,3.8,0,0,0-1.34,1.6,5.87,5.87,0,0,0-.49,2.52,5.78,5.78,0,0,0,.49,2.5,3.72,3.72,0,0,0,1.33,1.6,3.39,3.39,0,0,0,1.93.56,3.42,3.42,0,0,0,1.92-.55,3.73,3.73,0,0,0,1.34-1.6A5.85,5.85,0,0,0,84.05,341.39Z"/><path d="M87.42,335.93h1.16l4,9.5h.1l4-9.5h1.15v10.91H96.8V338h-.09L93,346.84h-.9L88.45,338h-.09v8.81h-.94Z"/><path d="M100.65,346.84h-1l4-10.91h1.06l4,10.91h-1l-3.42-9.61h-.07Zm.75-4.18h5.41v.89H101.4Z"/><path d="M119,335.93v10.91h-1l-6.44-9.14h-.09v9.14h-1V335.93h1l6.47,9.15H118v-9.15Z"/><path d="M130.31,340.94v.89h-4.54v-.89Z"/><path d="M137.11,335.93h1.15l4,9.5h.1l4-9.5h1.15v10.91h-.94V338h-.08l-3.69,8.81h-.9L138.13,338H138v8.81h-.93Z"/><path d="M150.32,346.84V335.93h6.32v.9h-5.33v4.1h5v.9h-5V346h5.44v.89Z"/><path d="M162.41,346.84h-3.19V335.93h3.39a5.23,5.23,0,0,1,2.67.65,4.29,4.29,0,0,1,1.7,1.87,6.62,6.62,0,0,1,.59,2.91,6.51,6.51,0,0,1-.61,2.94,4.2,4.2,0,0,1-1.75,1.88A5.55,5.55,0,0,1,162.41,346.84Zm-2.2-.89h2.14a4.61,4.61,0,0,0,2.36-.56,3.46,3.46,0,0,0,1.42-1.58,5.76,5.76,0,0,0,.48-2.45,6,6,0,0,0-.47-2.43,3.41,3.41,0,0,0-1.36-1.56,4.31,4.31,0,0,0-2.23-.54h-2.34Z"/><path d="M171,335.93v10.91h-1V335.93Z"/><path d="M181.14,335.93h1v7.22a3.86,3.86,0,0,1-.52,2,3.66,3.66,0,0,1-1.46,1.38,4.81,4.81,0,0,1-4.31,0,3.81,3.81,0,0,1-1.46-1.38,3.76,3.76,0,0,1-.52-2v-7.22h1v7.15a3.05,3.05,0,0,0,.39,1.55,2.74,2.74,0,0,0,1.09,1.07,3.71,3.71,0,0,0,3.31,0,2.83,2.83,0,0,0,1.1-1.07,3.15,3.15,0,0,0,.38-1.55Z"/><path d="M185,335.93h1.15l3.95,9.5h.1l4-9.5h1.15v10.91h-.94V338h-.09l-3.68,8.81h-.9L186.06,338H186v8.81H185Z"/><path d="M46.83,407.2h-1l4-10.91h1.06l4,10.91h-1l-3.42-9.61h-.07Zm.75-4.18H53v.89H47.58Z"/><path d="M65.15,396.29V407.2h-1l-6.45-9.14h-.08v9.14h-1V396.29h1l6.46,9.15h.09v-9.15Z"/><path d="M72.18,396.29h1v7.87a3.86,3.86,0,0,1-.39,1.77,2.5,2.5,0,0,1-1,1.07,3.32,3.32,0,0,1-1.53.35,3.49,3.49,0,0,1-1.51-.32,2.4,2.4,0,0,1-1-.88,2.37,2.37,0,0,1-.38-1.34h1a1.41,1.41,0,0,0,.26.86,1.67,1.67,0,0,0,.7.58,2.29,2.29,0,0,0,1,.2,2.08,2.08,0,0,0,1-.24,1.74,1.74,0,0,0,.69-.75,2.93,2.93,0,0,0,.25-1.3Z"/><path d="M85,401.75a6.69,6.69,0,0,1-.61,3,4.71,4.71,0,0,1-1.67,2,4.66,4.66,0,0,1-4.88,0,4.64,4.64,0,0,1-1.67-2,7.51,7.51,0,0,1,0-5.93,4.64,4.64,0,0,1,1.67-1.95,4.66,4.66,0,0,1,4.88,0,4.71,4.71,0,0,1,1.67,1.95A6.7,6.7,0,0,1,85,401.75Zm-1,0a6,6,0,0,0-.49-2.52,3.8,3.8,0,0,0-1.34-1.6,3.63,3.63,0,0,0-3.84,0,3.87,3.87,0,0,0-1.34,1.6,5.87,5.87,0,0,0-.49,2.52,5.78,5.78,0,0,0,.49,2.5,3.76,3.76,0,0,0,1.34,1.61,3.63,3.63,0,0,0,3.84,0,3.73,3.73,0,0,0,1.34-1.6A5.85,5.85,0,0,0,84.05,401.75Z"/><path d="M87.43,396.29h1.15l4,9.5h.1l4-9.5h1.15V407.2H96.8v-8.8h-.09L93,407.2h-.9l-3.68-8.8h-.09v8.8h-.93Z"/><path d="M100.65,407.2h-1l4-10.91h1.06l4,10.91h-1l-3.42-9.61h-.08Zm.75-4.18h5.41v.89H101.4Z"/><path d="M119,396.29V407.2h-1l-6.45-9.14h-.08v9.14h-1V396.29h1l6.47,9.15H118v-9.15Z"/><path d="M130.31,401.3v.89h-4.54v-.89Z"/><path d="M137.11,396.29h1.15l4,9.5h.09l4-9.5h1.15V407.2h-.94v-8.8h-.08l-3.68,8.8h-.91l-3.68-8.8H138v8.8h-.93Z"/><path d="M150.32,407.2V396.29h6.33v.9h-5.34v4.1h5v.9h-5v4.12h5.44v.89Z"/><path d="M162.41,407.2h-3.19V396.29h3.39a5.23,5.23,0,0,1,2.67.65,4.29,4.29,0,0,1,1.7,1.87,7.49,7.49,0,0,1,0,5.85,4.27,4.27,0,0,1-1.76,1.88A5.55,5.55,0,0,1,162.41,407.2Zm-2.2-.89h2.15a4.59,4.59,0,0,0,2.35-.56,3.46,3.46,0,0,0,1.42-1.58,5.76,5.76,0,0,0,.48-2.45,6,6,0,0,0-.47-2.43,3.41,3.41,0,0,0-1.36-1.56,4.31,4.31,0,0,0-2.23-.54h-2.34Z"/><path d="M171,396.29V407.2h-1V396.29Z"/><path d="M181.14,396.29h1v7.22a3.86,3.86,0,0,1-.52,2,3.64,3.64,0,0,1-1.45,1.38,4.83,4.83,0,0,1-4.32,0,3.81,3.81,0,0,1-1.46-1.38,3.86,3.86,0,0,1-.52-2v-7.22h1v7.15a3.05,3.05,0,0,0,.39,1.55,2.8,2.8,0,0,0,1.09,1.07,3.71,3.71,0,0,0,3.31,0,2.83,2.83,0,0,0,1.1-1.07,3.15,3.15,0,0,0,.38-1.55Z"/><path d="M185,396.29h1.15l3.95,9.5h.1l4-9.5h1.15V407.2h-.94v-8.8h-.08l-3.69,8.8h-.9l-3.68-8.8H186v8.8H185Z"/><path d="M46.82,460.56h-1l4-10.91h1.06l4,10.91h-1L50.32,451h-.08Zm.76-4.18H53v.89H47.58Z"/><path d="M65.15,449.65v10.91h-1l-6.45-9.14h-.08v9.14h-1V449.65h1l6.46,9.15h.09v-9.15Z"/><path d="M72.18,449.65h1v7.87a3.74,3.74,0,0,1-.38,1.77,2.5,2.5,0,0,1-1,1.07,3.32,3.32,0,0,1-1.53.35,3.46,3.46,0,0,1-1.51-.32,2.4,2.4,0,0,1-1-.88,2.37,2.37,0,0,1-.38-1.34h1a1.47,1.47,0,0,0,.25.86,1.74,1.74,0,0,0,.7.58,2.37,2.37,0,0,0,1,.2,2.08,2.08,0,0,0,1-.24,1.74,1.74,0,0,0,.69-.75,2.93,2.93,0,0,0,.25-1.3Z"/><path d="M85,455.11a6.83,6.83,0,0,1-.61,3A4.71,4.71,0,0,1,82.74,460a4.68,4.68,0,0,1-4.89,0,4.69,4.69,0,0,1-1.66-1.95,7.51,7.51,0,0,1,0-5.93,4.64,4.64,0,0,1,1.67-1.95,4.66,4.66,0,0,1,4.88,0,4.71,4.71,0,0,1,1.67,1.95A6.84,6.84,0,0,1,85,455.11Zm-1,0a6,6,0,0,0-.49-2.52,3.87,3.87,0,0,0-1.34-1.6,3.63,3.63,0,0,0-3.84,0,3.8,3.8,0,0,0-1.34,1.6,5.87,5.87,0,0,0-.49,2.52,5.78,5.78,0,0,0,.49,2.5,3.81,3.81,0,0,0,1.33,1.61,3.64,3.64,0,0,0,3.85,0,3.73,3.73,0,0,0,1.34-1.6A5.85,5.85,0,0,0,84.05,455.11Z"/><path d="M87.42,449.65h1.16l4,9.5h.1l4-9.5h1.15v10.91H96.8v-8.8h-.09L93,460.56h-.9l-3.68-8.8h-.09v8.8h-.94Z"/><path d="M100.65,460.56h-1l4-10.91h1.06l4,10.91h-1L104.14,451h-.07Zm.75-4.18h5.41v.89H101.4Z"/><path d="M119,449.65v10.91h-1l-6.44-9.14h-.09v9.14h-1V449.65h1l6.47,9.15H118v-9.15Z"/><path d="M130.31,454.66v.89h-4.54v-.89Z"/><path d="M137.11,460.56V449.65h3.68a3.87,3.87,0,0,1,1.77.37,2.52,2.52,0,0,1,1.07,1,3,3,0,0,1,.36,1.47,2.73,2.73,0,0,1-.23,1.16,2,2,0,0,1-.62.79,2.88,2.88,0,0,1-.88.43V455a2.15,2.15,0,0,1,1,.37,2.47,2.47,0,0,1,.81.93,2.93,2.93,0,0,1,.32,1.43,3,3,0,0,1-.36,1.47,2.56,2.56,0,0,1-1.13,1,4.37,4.37,0,0,1-1.93.37Zm1-6h2.78a2.3,2.3,0,0,0,1.13-.27,2,2,0,0,0,.75-.73,2.13,2.13,0,0,0,.28-1.07,1.89,1.89,0,0,0-.57-1.42,2.36,2.36,0,0,0-1.68-.54H138.1Zm0,5.09H141a2.71,2.71,0,0,0,1.87-.56,1.87,1.87,0,0,0,.6-1.41,2.17,2.17,0,0,0-.3-1.13,2.14,2.14,0,0,0-.85-.81,2.6,2.6,0,0,0-1.28-.3H138.1Z"/><path d="M155.76,455.11a6.69,6.69,0,0,1-.61,3,4.64,4.64,0,0,1-1.67,1.95,4.66,4.66,0,0,1-4.88,0,4.64,4.64,0,0,1-1.67-1.95,7.63,7.63,0,0,1,0-5.93,4.64,4.64,0,0,1,1.67-1.95,4.66,4.66,0,0,1,4.88,0,4.64,4.64,0,0,1,1.67,1.95A6.7,6.7,0,0,1,155.76,455.11Zm-1,0a5.87,5.87,0,0,0-.49-2.52A3.8,3.8,0,0,0,153,451a3.4,3.4,0,0,0-1.92-.55,3.45,3.45,0,0,0-1.92.55,3.87,3.87,0,0,0-1.34,1.6,6,6,0,0,0-.49,2.52,5.78,5.78,0,0,0,.49,2.5,3.83,3.83,0,0,0,1.34,1.61,3.4,3.4,0,0,0,1.92.55,3.46,3.46,0,0,0,1.93-.55,3.87,3.87,0,0,0,1.34-1.6A6,6,0,0,0,154.79,455.11Z"/><path d="M158.17,460.56V449.65h1v10h5.2v.89Z"/><path d="M169.8,460.56h-3.19V449.65H170a5.23,5.23,0,0,1,2.67.65,4.31,4.31,0,0,1,1.71,1.87,6.62,6.62,0,0,1,.59,2.91,6.51,6.51,0,0,1-.61,2.94,4.22,4.22,0,0,1-1.76,1.88A5.51,5.51,0,0,1,169.8,460.56Zm-2.2-.89h2.14a4.63,4.63,0,0,0,2.36-.56,3.52,3.52,0,0,0,1.42-1.58,5.92,5.92,0,0,0,.47-2.45,6,6,0,0,0-.46-2.43,3.37,3.37,0,0,0-1.37-1.56,4.26,4.26,0,0,0-2.23-.54H167.6Z"/><path d="M46.83,511.92h-1l4-10.91h1.06l4,10.91h-1l-3.42-9.61h-.07Zm.75-4.18H53v.89H47.58Z"/><path d="M65.15,501v10.91h-1l-6.45-9.14h-.08v9.14h-1V501h1l6.46,9.15h.09V501Z"/><path d="M72.18,501h1v7.87a3.86,3.86,0,0,1-.39,1.77,2.5,2.5,0,0,1-1,1.07,3.32,3.32,0,0,1-1.53.35,3.49,3.49,0,0,1-1.51-.32,2.4,2.4,0,0,1-1-.88,2.37,2.37,0,0,1-.38-1.34h1a1.41,1.41,0,0,0,.26.86,1.67,1.67,0,0,0,.7.58,2.29,2.29,0,0,0,1,.2,2.08,2.08,0,0,0,1-.24,1.74,1.74,0,0,0,.69-.75,2.93,2.93,0,0,0,.25-1.3Z"/><path d="M85,506.47a6.69,6.69,0,0,1-.61,3,4.71,4.71,0,0,1-1.67,1.95,4.66,4.66,0,0,1-4.88,0,4.64,4.64,0,0,1-1.67-1.95,7.51,7.51,0,0,1,0-5.93,4.64,4.64,0,0,1,1.67-1.95,4.66,4.66,0,0,1,4.88,0,4.71,4.71,0,0,1,1.67,1.95A6.7,6.7,0,0,1,85,506.47Zm-1,0a6,6,0,0,0-.49-2.52,3.8,3.8,0,0,0-1.34-1.6,3.63,3.63,0,0,0-3.84,0A3.87,3.87,0,0,0,77,504a5.87,5.87,0,0,0-.49,2.52A5.78,5.78,0,0,0,77,509a3.76,3.76,0,0,0,1.34,1.61,3.63,3.63,0,0,0,3.84,0,3.73,3.73,0,0,0,1.34-1.6A5.85,5.85,0,0,0,84.05,506.47Z"/><path d="M87.43,501h1.15l4,9.5h.1l4-9.5h1.15v10.91H96.8v-8.81h-.09L93,511.92h-.9l-3.68-8.81h-.09v8.81h-.93Z"/><path d="M100.65,511.92h-1l4-10.91h1.06l4,10.91h-1l-3.42-9.61h-.08Zm.75-4.18h5.41v.89H101.4Z"/><path d="M119,501v10.91h-1l-6.45-9.14h-.08v9.14h-1V501h1l6.47,9.15H118V501Z"/><path d="M130.31,506v.89h-4.54V506Z"/><path d="M137.11,511.92V501h1v10h5.2v.89Z"/><path d="M146.54,501v10.91h-1V501Z"/><path d="M148.78,501.91V501h7.91v.9h-3.46v10h-1v-10Z"/><path d="M158.93,511.92V501h6.32v.9h-5.33V506h5v.9h-5V511h5.44v.89Z"/><path d="M46.82,557.28h-1l4-10.91h1.06l4,10.91h-1l-3.42-9.61h-.08Zm.76-4.18H53V554H47.58Z"/><path d="M65.15,546.37v10.91h-1l-6.45-9.14h-.08v9.14h-1V546.37h1l6.46,9.15h.09v-9.15Z"/><path d="M72.18,546.37h1v7.87a3.74,3.74,0,0,1-.38,1.77,2.5,2.5,0,0,1-1,1.07,3.32,3.32,0,0,1-1.53.35,3.46,3.46,0,0,1-1.51-.32,2.4,2.4,0,0,1-1-.88,2.37,2.37,0,0,1-.38-1.34h1a1.47,1.47,0,0,0,.25.86,1.74,1.74,0,0,0,.7.58,2.37,2.37,0,0,0,1,.2,2.08,2.08,0,0,0,1-.24,1.74,1.74,0,0,0,.69-.75,2.93,2.93,0,0,0,.25-1.3Z"/><path d="M85,551.83a6.83,6.83,0,0,1-.61,3,4.71,4.71,0,0,1-1.67,2,4.68,4.68,0,0,1-4.89,0,4.69,4.69,0,0,1-1.66-2,7.51,7.51,0,0,1,0-5.93,4.64,4.64,0,0,1,1.67-2,4.66,4.66,0,0,1,4.88,0,4.71,4.71,0,0,1,1.67,2A6.84,6.84,0,0,1,85,551.83Zm-1,0a6,6,0,0,0-.49-2.52,3.87,3.87,0,0,0-1.34-1.6,3.63,3.63,0,0,0-3.84,0,3.8,3.8,0,0,0-1.34,1.6,5.87,5.87,0,0,0-.49,2.52,5.78,5.78,0,0,0,.49,2.5,3.81,3.81,0,0,0,1.33,1.61,3.64,3.64,0,0,0,3.85,0,3.73,3.73,0,0,0,1.34-1.6A5.85,5.85,0,0,0,84.05,551.83Z"/><path d="M87.42,546.37h1.16l4,9.5h.1l4-9.5h1.15v10.91H96.8v-8.81h-.09L93,557.28h-.9l-3.68-8.81h-.09v8.81h-.94Z"/><path d="M100.65,557.28h-1l4-10.91h1.06l4,10.91h-1l-3.42-9.61h-.07Zm.75-4.18h5.41V554H101.4Z"/><path d="M119,546.37v10.91h-1l-6.44-9.14h-.09v9.14h-1V546.37h1l6.47,9.15H118v-9.15Z"/><path d="M130.31,551.38v.89h-4.54v-.89Z"/><path d="M137.11,557.28V546.37h3.52a4.06,4.06,0,0,1,1.94.42,2.85,2.85,0,0,1,1.18,1.15,3.61,3.61,0,0,1,.39,1.7,3.53,3.53,0,0,1-.39,1.68,2.77,2.77,0,0,1-1.18,1.14,4.14,4.14,0,0,1-1.93.41h-3V552h3a3.32,3.32,0,0,0,1.42-.28,1.88,1.88,0,0,0,.84-.81,2.54,2.54,0,0,0,.28-1.23,2.59,2.59,0,0,0-.28-1.25,1.9,1.9,0,0,0-.85-.83,3,3,0,0,0-1.43-.29h-2.5v10Zm4.81-4.92,2.68,4.92h-1.15l-2.66-4.92Z"/><path d="M146.57,557.28V546.37h6.33v.9h-5.33v4.1h5v.9h-5v4.12H153v.89Z"/><path d="M163,549.78a3.84,3.84,0,0,0-.44-1,3.37,3.37,0,0,0-.71-.84,3.33,3.33,0,0,0-1-.56,3.69,3.69,0,0,0-1.23-.2,3.39,3.39,0,0,0-1.91.55,3.85,3.85,0,0,0-1.33,1.6,6,6,0,0,0-.48,2.52,5.78,5.78,0,0,0,.49,2.5,3.76,3.76,0,0,0,1.34,1.61,3.76,3.76,0,0,0,3.74.1,3,3,0,0,0,1.2-1.27,4.13,4.13,0,0,0,.43-2l.32.1H160V552h4.15v.89a4.83,4.83,0,0,1-.57,2.41,3.93,3.93,0,0,1-1.55,1.58,4.61,4.61,0,0,1-2.26.55,4.39,4.39,0,0,1-4.16-2.64,6.83,6.83,0,0,1-.6-3,7.59,7.59,0,0,1,.34-2.32,5.21,5.21,0,0,1,1-1.77,4.27,4.27,0,0,1,1.48-1.13,4.55,4.55,0,0,1,1.9-.39,4.78,4.78,0,0,1,1.64.28,4.42,4.42,0,0,1,1.31.78,4.35,4.35,0,0,1,.93,1.13,4.24,4.24,0,0,1,.49,1.37Z"/><path d="M173.87,546.37h1v7.22a3.76,3.76,0,0,1-.52,2,3.64,3.64,0,0,1-1.45,1.38,4.83,4.83,0,0,1-4.32,0,3.71,3.71,0,0,1-1.45-1.38,3.77,3.77,0,0,1-.53-2v-7.22h1v7.15a3.05,3.05,0,0,0,.39,1.55,2.8,2.8,0,0,0,1.09,1.07,3.39,3.39,0,0,0,1.66.39,3.35,3.35,0,0,0,1.65-.39,2.76,2.76,0,0,0,1.1-1.07,3.05,3.05,0,0,0,.39-1.55Z"/><path d="M177.76,557.28V546.37h1v10H184v.89Z"/><path d="M186.89,557.28h-1l4-10.91h1.06l4,10.91h-1l-3.42-9.61h-.08Zm.76-4.18h5.41V554h-5.41Z"/><path d="M196.72,557.28V546.37h3.52a4,4,0,0,1,1.94.42,2.73,2.73,0,0,1,1.18,1.15,3.5,3.5,0,0,1,.4,1.7,3.42,3.42,0,0,1-.4,1.68,2.69,2.69,0,0,1-1.17,1.14,4.14,4.14,0,0,1-1.93.41h-3V552h3a3.29,3.29,0,0,0,1.42-.28,1.91,1.91,0,0,0,.85-.81,2.54,2.54,0,0,0,.28-1.23,2.71,2.71,0,0,0-.28-1.25,1.9,1.9,0,0,0-.85-.83,3.06,3.06,0,0,0-1.43-.29h-2.5v10Zm4.81-4.92,2.69,4.92h-1.15l-2.66-4.92Z"/><path d="M46.83,602.64h-1l4-10.91h1.06l4,10.91h-1L50.32,593h-.07Zm.75-4.18H53v.89H47.58Z"/><path d="M65.15,591.73v10.91h-1l-6.45-9.14h-.08v9.14h-1V591.73h1l6.46,9.15h.09v-9.15Z"/><path d="M72.18,591.73h1v7.87a3.86,3.86,0,0,1-.39,1.77,2.5,2.5,0,0,1-1,1.07,3.32,3.32,0,0,1-1.53.35,3.49,3.49,0,0,1-1.51-.32,2.4,2.4,0,0,1-1-.88,2.37,2.37,0,0,1-.38-1.34h1a1.41,1.41,0,0,0,.26.86,1.67,1.67,0,0,0,.7.58,2.29,2.29,0,0,0,1,.2,2.08,2.08,0,0,0,1-.24,1.74,1.74,0,0,0,.69-.75,2.93,2.93,0,0,0,.25-1.3Z"/><path d="M85,597.19a6.69,6.69,0,0,1-.61,3,4.71,4.71,0,0,1-1.67,2,4.66,4.66,0,0,1-4.88,0,4.64,4.64,0,0,1-1.67-2,7.51,7.51,0,0,1,0-5.93,4.64,4.64,0,0,1,1.67-2,4.66,4.66,0,0,1,4.88,0,4.71,4.71,0,0,1,1.67,2A6.7,6.7,0,0,1,85,597.19Zm-1,0a6,6,0,0,0-.49-2.52,3.8,3.8,0,0,0-1.34-1.6,3.63,3.63,0,0,0-3.84,0,3.87,3.87,0,0,0-1.34,1.6,5.87,5.87,0,0,0-.49,2.52,5.78,5.78,0,0,0,.49,2.5,3.76,3.76,0,0,0,1.34,1.61,3.63,3.63,0,0,0,3.84,0,3.73,3.73,0,0,0,1.34-1.6A5.85,5.85,0,0,0,84.05,597.19Z"/><path d="M87.43,591.73h1.15l4,9.5h.1l4-9.5h1.15v10.91H96.8v-8.81h-.09L93,602.64h-.9l-3.68-8.81h-.09v8.81h-.93Z"/><path d="M100.65,602.64h-1l4-10.91h1.06l4,10.91h-1L104.15,593h-.08Zm.75-4.18h5.41v.89H101.4Z"/><path d="M119,591.73v10.91h-1l-6.45-9.14h-.08v9.14h-1V591.73h1l6.47,9.15H118v-9.15Z"/><path d="M130.31,596.74v.89h-4.54v-.89Z"/><path d="M137.11,602.64V591.73h3.52a4.06,4.06,0,0,1,1.94.42,2.85,2.85,0,0,1,1.18,1.15,3.61,3.61,0,0,1,.39,1.7,3.53,3.53,0,0,1-.39,1.68,2.77,2.77,0,0,1-1.18,1.14,4.14,4.14,0,0,1-1.93.41h-3v-.91h3A3.29,3.29,0,0,0,142,597a1.83,1.83,0,0,0,.84-.81,2.54,2.54,0,0,0,.28-1.23,2.59,2.59,0,0,0-.28-1.25,1.9,1.9,0,0,0-.85-.83,3,3,0,0,0-1.43-.29h-2.5v10Zm4.81-4.92,2.68,4.92h-1.15l-2.66-4.92Z"/><path d="M146.57,602.64V591.73h6.33v.9h-5.33v4.1h5v.9h-5v4.12H153v.89Z"/><path d="M163,595.14a3.84,3.84,0,0,0-.44-1,3.23,3.23,0,0,0-1.68-1.4,3.69,3.69,0,0,0-1.23-.2,3.41,3.41,0,0,0-1.91.55,3.85,3.85,0,0,0-1.33,1.6,6,6,0,0,0-.48,2.52,5.78,5.78,0,0,0,.49,2.5,3.76,3.76,0,0,0,1.34,1.61,3.76,3.76,0,0,0,3.74.1,3.09,3.09,0,0,0,1.21-1.27,4.25,4.25,0,0,0,.42-2l.32.1H160v-.89h4.15v.89a4.83,4.83,0,0,1-.57,2.41,3.93,3.93,0,0,1-1.55,1.58,4.61,4.61,0,0,1-2.26.55,4.39,4.39,0,0,1-4.16-2.64,6.83,6.83,0,0,1-.6-3,7.59,7.59,0,0,1,.34-2.32,5.21,5.21,0,0,1,1-1.77,4.27,4.27,0,0,1,1.48-1.13,4.58,4.58,0,0,1,1.9-.39,4.78,4.78,0,0,1,1.64.28,4.42,4.42,0,0,1,1.31.78,4.35,4.35,0,0,1,.93,1.13,4.24,4.24,0,0,1,.49,1.37Z"/><path d="M173.87,591.73h1V599a3.76,3.76,0,0,1-.52,2,3.64,3.64,0,0,1-1.45,1.38,4.83,4.83,0,0,1-4.32,0,3.71,3.71,0,0,1-2-3.37v-7.22h1v7.15a3.05,3.05,0,0,0,.39,1.55,2.76,2.76,0,0,0,1.1,1.07,3.35,3.35,0,0,0,1.65.39,3.42,3.42,0,0,0,1.66-.39,2.8,2.8,0,0,0,1.09-1.07,3.05,3.05,0,0,0,.39-1.55Z"/><path d="M177.76,602.64V591.73h1v10H184v.89Z"/><path d="M186.9,602.64h-1.05l4-10.91h1.06l4,10.91h-1L190.39,593h-.07Zm.75-4.18h5.41v.89h-5.41Z"/><path d="M196.72,602.64V591.73h3.52a4.08,4.08,0,0,1,1.95.42,2.76,2.76,0,0,1,1.17,1.15,3.5,3.5,0,0,1,.4,1.7,3.42,3.42,0,0,1-.4,1.68,2.69,2.69,0,0,1-1.17,1.14,4.14,4.14,0,0,1-1.93.41h-3v-.91h3a3.26,3.26,0,0,0,1.42-.28,1.91,1.91,0,0,0,.85-.81,2.54,2.54,0,0,0,.28-1.23,2.59,2.59,0,0,0-.28-1.25,1.9,1.9,0,0,0-.85-.83,3.06,3.06,0,0,0-1.43-.29h-2.5v10Zm4.81-4.92,2.69,4.92h-1.15l-2.66-4.92Z"/></g></svg>