<svg xmlns="http://www.w3.org/2000/svg" viewBox="0 0 648 648"><defs><style>.cls-1{fill:#f7e436;}.cls-2,.cls-3{fill:none;stroke-width:29.14px;}.cls-2{stroke:#000;stroke-linecap:round;stroke-miterlimit:10;}.cls-3{stroke:#8abdec;stroke-linejoin:round;}</style></defs><g id="Main_Grid" data-name="Main Grid"><path class="cls-1" d="M358.4,608.71a183.64,183.64,0,0,1-118.28-42.62,179,179,0,0,1-65-123.32L162.11,264c-28.86-2-50.41-6.16-65.82-12.77-19.27-8.26-30.2-20.81-32.51-37.3s4.77-31.56,21-44.79c13.28-10.8,33.4-20.93,61.5-31A676.57,676.57,0,0,1,222,116.59c6.73-16.55,19.64-27,35.9-28.54,1.36-.13,2.68-.19,4-.19a36.63,36.63,0,0,1,24.28,9c.41.34.81.7,1.2,1.06C286.32,68.61,305,41.61,328.21,39.48c1.26-.12,2.56-.19,3.83-.19a36.57,36.57,0,0,1,24.29,9.07c11.1,9.42,18.56,26,20.06,44.55,25.07-2.08,48.85-3.12,70.89-3.12,13,0,25.4.37,36.8,1.11,29.77,1.93,51.9,6.15,67.63,12.9,19.27,8.26,30.2,20.81,32.51,37.3s-4.77,31.55-21,44.78c-13.28,10.81-33.4,20.93-61.5,31-12.7,4.53-26.75,8.91-41.93,13.07l3.42,48.48a69.74,69.74,0,0,1,5.9-9.25c7.87-10.38,27.11-27.94,49.3-27.94a40.58,40.58,0,0,1,24.88,8.46c13.52,10.18,21.29,31.75,2.53,61.75-11.28,18-7.51,51.06-4.48,77.58.65,5.62,1.25,10.93,1.68,15.87A185.1,185.1,0,0,1,378.08,607.68,190.91,190.91,0,0,1,358.4,608.71ZM149,202c7.44.92,16.52,1.72,27.54,2.21,6.65.29,13.88.46,21.52.49,1-.1,2-.15,3-.15s1.85,0,2.82.14c5.65,0,11.46-.13,17.36-.3l-1.76-24.93c-16.25,4.07-31.2,8.38-44.61,12.85C164.38,195.78,155.87,199,149,202Zm305.15-51.64q.11,1.11.18,2.22l1.11,15.7c6.23-1.84,12.16-3.69,17.75-5.56,10.45-3.49,19-6.75,25.86-9.68-7.43-.93-16.51-1.72-27.53-2.21C466,150.56,460.17,150.4,454.12,150.33Z"/><path d="M332,55a21.16,21.16,0,0,1,14.14,5.33c8,6.8,13.61,20,14.63,34.57L361.88,110c30.37-3,59.3-4.49,85.4-4.49,12.64,0,24.63.35,35.78,1.08,55.42,3.59,82.63,15.26,85.63,36.72s-20,40.14-72.27,58.8c-15.88,5.67-33.8,11-53.21,16l11.72,166.07.06.88h0a7.81,7.81,0,0,0,7.78,7.28c.19,0,.39,0,.59,0a7.82,7.82,0,0,0,7.26-8.36l-2.76-39.21c-2-28.75,2.71-51.6,13.71-66.11,5.29-7,20.68-21.73,36.81-21.73a25.13,25.13,0,0,1,15.44,5.3c10.33,7.78,9.84,23.07-1.32,40.92-14.19,22.68-10.07,58.72-6.76,87.67.63,5.56,1.23,10.81,1.64,15.56,9.61,92.82-58.1,176.15-150.92,185.76a174.11,174.11,0,0,1-18.06.94,169.14,169.14,0,0,1-108.3-39,163.57,163.57,0,0,1-59.37-112.6l-13-179a80.33,80.33,0,0,1,.08-13.34c-4.38-.17-8.7-.37-12.86-.64-55.42-3.59-82.63-15.26-85.63-36.72s20-40.15,72.27-58.81c23.63-8.42,51.78-16.21,82.66-23,3.18-13.71,11.5-25,25.19-26.26.85-.08,1.67-.12,2.49-.12a21.19,21.19,0,0,1,14.15,5.23,35.47,35.47,0,0,1,8.5,11.47q9.84-1.65,19.87-3.16l-1.28-18.14c-1.49-21.15,11.38-42.46,26.49-43.85.81-.08,1.61-.12,2.39-.12M441.12,188.5c13.19-3.48,25.62-7.13,37-10.94,40.94-13.67,56.57-25.11,60.71-30.12-5.36-3.67-23.52-10.39-66.64-12.3-7.79-.35-16-.52-24.52-.52q-6.37,0-13,.12a67.66,67.66,0,0,1,4,18.92l2.46,34.84m-72.58,15.79q7.84-1.39,15.54-2.88L381,157.73A57.83,57.83,0,0,1,383,137.35q-9.4.75-19,1.7l4.61,65.24m-72.93,10.44q7.75-.84,15.59-1.82l-4.7-66.67q-7.83,1.19-15.56,2.47l4.67,66m-96.7,5.62.4,0a14.41,14.41,0,0,1,1.72-.1,13.84,13.84,0,0,1,1.94.15c11.17,0,22.88-.37,35-1l-4.2-59.49c-23.4,5.32-45.06,11.23-63.91,17.52-40.94,13.68-56.57,25.11-60.71,30.12,5.36,3.68,23.52,10.39,66.64,12.31,7.36.33,15.09.49,23.1.51M382.2,294.87l.58,0a7.84,7.84,0,0,0,7.27-8.36l-3.92-55.8q-7.68,1.45-15.53,2.83l3.81,54.06a7.81,7.81,0,0,0,7.79,7.29M308.9,300c.2,0,.4,0,.6,0a7.83,7.83,0,0,0,7.26-8.37L313.26,242q-7.85,1-15.59,1.81l3.45,48.83v.1A7.84,7.84,0,0,0,308.9,300m-69.32,61.6.59,0a7.84,7.84,0,0,0,7.27-8.37L240.71,258c0-.07,0-.15,0-.22l-.66-9.28q-8.31.42-16.37.67a71.31,71.31,0,0,1,1.39,9.72l6.74,95.49a7.83,7.83,0,0,0,7.78,7.29M332,23.62h0c-1.73,0-3.5.08-5.26.24h0c-17.23,1.59-33.06,12.35-43.44,29.53a81,81,0,0,0-8.7,20.31,53.23,53.23,0,0,0-12.72-1.52c-1.78,0-3.6.09-5.41.25-19.4,1.85-35.58,13.09-45.3,30.58A677,677,0,0,0,141,123.37C111.23,134,89.6,145,74.91,156.93,49,178,46.11,200.72,48.25,216.05s11.15,36.37,41.86,49.54c14.44,6.19,33.29,10.43,57.33,12.86l12,165.23,0,.22,0,.22c4.57,52.59,29.65,100.2,70.64,134.06a200.48,200.48,0,0,0,128.27,46.2,208.28,208.28,0,0,0,21.3-1.1c109.92-11.38,190.13-110,178.9-219.9-.44-5.12-1.06-10.49-1.71-16.17-2.46-21.54-6.18-54.09,2.19-67.48,8.53-13.64,13.07-27.05,13.48-39.85.56-17.24-6.68-32.82-19.88-42.75a56.81,56.81,0,0,0-30-11.45c21.88-8.79,38.48-17.89,50.46-27.64,25.92-21.09,28.8-43.79,26.66-59.12s-11.15-36.36-41.86-49.53c-17.4-7.46-41.21-12.09-72.8-14.13-11.73-.77-24.45-1.15-37.81-1.15-18.19,0-37.53.7-57.77,2.08-4-16.3-12.15-30.54-23-39.79A52.6,52.6,0,0,0,332,23.62Z"/><polyline class="cls-2" points="339.78 460.98 374.01 457.59 360.04 394.82"/><path class="cls-2" d="M327.4,520.25a66.61,66.61,0,0,0,91.25-23.64"/><path class="cls-2" d="M394.38,377.61a28.37,28.37,0,0,1,39.5-7"/><path class="cls-2" d="M279.91,390.77a28.37,28.37,0,0,1,39.5-7"/><ellipse class="cls-3" cx="324" cy="177.49" rx="232.5" ry="48.03" transform="translate(-21.46 46.58) rotate(-7.96)"/><path class="cls-1" d="M236.51,198.44q7.49,1,15,2.05a335.69,335.69,0,0,0,43.3,2.22l-4.19-59.27c-1-14.68-6.59-28-14.5-34.67a21.46,21.46,0,0,0-16.64-5.11c-19.31,1.83-28,23.45-26.51,43.85Z"/><path class="cls-1" d="M383,186.4a207,207,0,0,1,21-4.53,219.7,219.7,0,0,1,36.47-2.81l-1.8-25.4c-1-14.83-6.23-27.64-13.88-34.27-4.84-4.2-10.55-6-17.43-5.5-14.2,1-28.25,16.74-26.34,43.84Z"/><path class="cls-1" d="M310.45,202.27q9.66-.48,19.33-1.38c12.82-2.5,25.29-6.37,37.8-10.1l-6.77-95.92c-1-14.52-6.63-27.77-14.63-34.57a21.25,21.25,0,0,0-16.53-5.21c-15.11,1.39-28,22.7-26.49,43.85Z"/></g></svg>