<svg xmlns="http://www.w3.org/2000/svg" viewBox="0 0 1152 648"><defs><style>.cls-1{fill:#fdeae2;}.cls-2{fill:#fff;}.cls-3{fill:#ff5c35;}.cls-4,.cls-5{fill:none;stroke-miterlimit:10;}.cls-4{stroke:#000;stroke-width:2px;}.cls-5{stroke:#fff;}</style></defs><g id="Layer_1" data-name="Layer 1"><rect class="cls-1" x="0.08" width="648" height="648"/><rect class="cls-2" x="648.08" width="504" height="648" transform="translate(1800.16 648) rotate(180)"/><rect class="cls-3" x="486.07" y="485.99" width="162.01" height="162.01"/><rect x="648.08" width="504" height="162.01" transform="translate(1800.16 162.01) rotate(180)"/><line class="cls-4" x1="567.08" y1="485.97" x2="567.08" y2="0.01"/><rect x="496.8" y="207.15" width="140.54" height="71.67" transform="translate(810.06 -324.09) rotate(90)"/><path class="cls-3" d="M580.73,222.93H552.81v-5.6h11.88v-12H552.81v-5.6h27.92v5.6H569.25v12h11.48Z"/><path class="cls-3" d="M580.73,234.05H552.81v-5.6h27.92Z"/><path class="cls-2" d="M574.31,257.67a9,9,0,0,1,1,4.34,9.72,9.72,0,0,1-1.4,5.14,9.83,9.83,0,0,1-4,3.64,12.83,12.83,0,0,1-6,1.34,13.08,13.08,0,0,1-6-1.34,10.06,10.06,0,0,1-4.06-3.64,9.49,9.49,0,0,1-1.44-5.14,8.89,8.89,0,0,1,1-4.3,9.27,9.27,0,0,1,2.52-3H542.25v-5.6H575v5.6h-3.2A8.51,8.51,0,0,1,574.31,257.67Zm-6.88,7.92a5.68,5.68,0,0,0,3-5.06,5.59,5.59,0,0,0-.78-2.86,5.81,5.81,0,0,0-2.26-2.16,7.79,7.79,0,0,0-7,0,5.81,5.81,0,0,0-2.26,2.16,5.64,5.64,0,0,0,0,5.76,5.94,5.94,0,0,0,2.28,2.16,7.13,7.13,0,0,0,3.52.82A6.92,6.92,0,0,0,567.43,265.59Z"/><path class="cls-2" d="M570.37,282.73H559.65a2.11,2.11,0,0,0-1.62.54,2.66,2.66,0,0,0-.5,1.82v2.6h-4.72v-3.52q0-7.08,6.88-7.08h10.68v-2.64H575v2.64h5.48v5.64H575v5h-4.6Z"/><polygon class="cls-2" points="705.1 45.29 705.1 64.84 715.93 64.84 716.71 56.31 729.7 56.31 729.7 106.6 722.05 108.07 722.05 116.65 751.71 116.65 751.71 108.07 744.01 106.6 744.01 56.31 757.1 56.31 757.88 64.84 768.76 64.84 768.76 45.29 705.1 45.29"/><polygon class="cls-2" points="722.33 73.91 684.82 73.91 684.82 85.43 691.2 85.43 691.66 80.41 699.31 80.41 699.31 110.03 694.81 110.9 694.81 115.95 712.28 115.95 712.28 110.9 707.75 110.03 707.75 80.41 715.46 80.41 715.92 85.43 722.33 85.43 722.33 73.91"/><rect class="cls-5" x="803.79" y="45.36" width="302.93" height="71.29"/><rect class="cls-5" x="803.79" y="45.36" width="35.64" height="35.64"/><rect class="cls-5" x="803.79" y="80.66" width="35.64" height="35.64"/><line class="cls-4" x1="486.06" y1="566.98" x2="0.09" y2="566.98"/><rect x="172.8" y="531.14" width="140.54" height="71.67"/><path class="cls-3" d="M223,553.32v27.92h-5.6V569.36h-12v11.88h-5.6V553.32h5.6V564.8h12V553.32Z"/><path class="cls-3" d="M234.13,553.32v27.92h-5.59V553.32Z"/><path class="cls-2" d="M257.75,559.74a9.06,9.06,0,0,1,4.34-1,9.7,9.7,0,0,1,5.14,1.4,9.92,9.92,0,0,1,3.65,4,12.85,12.85,0,0,1,1.33,6,13,13,0,0,1-1.33,6,10.08,10.08,0,0,1-3.65,4.06,9.46,9.46,0,0,1-5.14,1.44,9,9,0,0,1-4.3-1,9.13,9.13,0,0,1-3-2.52V591.8h-5.6V559.08h5.6v3.2A8.6,8.6,0,0,1,257.75,559.74Zm7.92,6.88a5.63,5.63,0,0,0-2.16-2.22,5.83,5.83,0,0,0-2.89-.76,5.63,5.63,0,0,0-2.87.78,5.88,5.88,0,0,0-2.16,2.26,7.79,7.79,0,0,0,0,7,5.81,5.81,0,0,0,2.16,2.26,5.63,5.63,0,0,0,2.87.78,5.48,5.48,0,0,0,2.89-.8,5.8,5.8,0,0,0,2.16-2.28,7.1,7.1,0,0,0,.82-3.52A7,7,0,0,0,265.67,566.62Z"/><path class="cls-2" d="M282.81,563.68V574.4a2.11,2.11,0,0,0,.54,1.62,2.62,2.62,0,0,0,1.82.5h2.6v4.72h-3.52q-7.08,0-7.08-6.88V563.68h-2.64v-4.6h2.64V553.6h5.64v5.48h5v4.6Z"/><polyline class="cls-5" points="830.37 67.56 821.61 58.8 812.85 67.56"/><polyline class="cls-5" points="812.85 95.89 821.61 104.65 830.37 95.89"/><path class="cls-3" d="M869.41,70.46V65.3h9.64V94.46h-5.76v-24Z"/><path class="cls-3" d="M885.19,93.8a3.28,3.28,0,0,1,0-4.68,3.48,3.48,0,0,1,2.5-.94,3.38,3.38,0,0,1,2.44.94,3.33,3.33,0,0,1,0,4.68,3.34,3.34,0,0,1-2.44.94A3.43,3.43,0,0,1,885.19,93.8Z"/><path class="cls-3" d="M913.53,69.54,902.89,94.46h-5.68l10.72-24.28H894.25v-4.8h19.28Z"/><path class="cls-3" d="M936.49,70.14h-13V77a6.06,6.06,0,0,1,2.4-1.7,8.41,8.41,0,0,1,3.32-.66,9.1,9.1,0,0,1,5.24,1.4,8.2,8.2,0,0,1,3,3.58,12,12,0,0,1,.92,4.66,10.41,10.41,0,0,1-2.62,7.4q-2.62,2.81-7.46,2.8A11,11,0,0,1,921,92.18a8.52,8.52,0,0,1-3.08-6h5.44A4.29,4.29,0,0,0,925,88.78a5.16,5.16,0,0,0,3.22,1,4.31,4.31,0,0,0,3.56-1.48,6,6,0,0,0,1.2-3.92,5.35,5.35,0,0,0-1.22-3.78,4.72,4.72,0,0,0-3.58-1.3,4.52,4.52,0,0,0-2.8.84,4.58,4.58,0,0,0-1.6,2.24h-5.36V65.22h18.08Z"/><path class="cls-2" d="M965.05,94.46l-4.56-6.88-4,6.88h-6l7.24-11.12-7.32-11h6.32l4.52,6.84,4.08-6.84h6l-7.28,11,7.36,11.12Z"/><path class="cls-3" d="M1007.09,66.54V94.46h-5.6V82.58h-12V94.46h-5.6V66.54h5.6V78h12V66.54Z"/><path class="cls-3" d="M1018.21,66.54V94.46h-5.6V66.54Z"/><path class="cls-2" d="M1041.83,73a9,9,0,0,1,4.34-1,9.69,9.69,0,0,1,5.13,1.4,9.92,9.92,0,0,1,3.65,4,12.85,12.85,0,0,1,1.34,6,13.05,13.05,0,0,1-1.34,6,10.08,10.08,0,0,1-3.65,4.06,9.45,9.45,0,0,1-5.13,1.44,9,9,0,0,1-7.32-3.52V105h-5.6V72.3h5.6v3.2A8.51,8.51,0,0,1,1041.83,73Zm7.92,6.88a5.77,5.77,0,0,0-2.16-2.22,5.87,5.87,0,0,0-2.9-.76,5.57,5.57,0,0,0-2.86.78,5.74,5.74,0,0,0-2.16,2.26,7.79,7.79,0,0,0,0,7,5.68,5.68,0,0,0,2.16,2.26,5.64,5.64,0,0,0,5.76,0,5.94,5.94,0,0,0,2.16-2.28,7.21,7.21,0,0,0,.82-3.52A7.05,7.05,0,0,0,1049.75,79.84Z"/><path class="cls-2" d="M1066.88,76.9V87.62a2.11,2.11,0,0,0,.55,1.62,2.61,2.61,0,0,0,1.82.5h2.6v4.72h-3.52q-7.08,0-7.08-6.88V76.9h-2.64V72.3h2.64V66.82h5.63V72.3h5v4.6Z"/><rect class="cls-3" x="0.08" width="485.99" height="485.99"/><polygon points="208.36 208.28 138.93 208.28 138.93 69.42 69.5 69.42 69.5 416.57 138.93 416.57 138.93 277.71 208.36 277.71 208.36 416.57 277.79 416.57 277.79 69.42 208.36 69.42 208.36 208.28"/><rect x="347.22" y="69.42" width="69.43" height="347.16"/><path d="M828,420.79V486h-5.67a41.92,41.92,0,0,1-16.16-2.83q-2.26,28.33-17,47.62t-32.32,28.78q-17.58,9.5-26.93,9.5-4.82,0-15.16-10.35t-26.23-27.93A7.57,7.57,0,0,1,686,525.4a5.09,5.09,0,0,1,2-4,9.7,9.7,0,0,1,5.67-2A155.38,155.38,0,0,0,731.37,510q18.71-7.23,31.61-16.73t15.45-18.57q-12.75-27.21-31.18-59.82l31.18-29.2q3.68-3.12,5.39-3.12,2.26,0,4,3.12a33.3,33.3,0,0,1,3.4,6.24l3.4,6.52q5.67,10.2,8.51,14.32a18,18,0,0,0,6.8,6.09q4,2,11.34,2Z"/><path d="M911.11,336.3c0,.95-.76,2.18-2.27,3.69l-16.16,16.72c-1.13,1.14-2.08,1.71-2.83,1.71q-.86,0-3.12-1.71L869.43,340l-1.13-1.42L866.88,340l-16.16,16.72c-1.13,1.14-2.08,1.71-2.83,1.71q-.85,0-3.12-1.71L827.48,340c-1.32-1.32-2-2.46-2-3.4,0-1.14.67-2.36,2-3.69l16.44-16.44c1.51-1.51,2.55-2.27,3.12-2.27.94,0,2,.76,3.12,2.27l16.72,16.44,1.42,1.42,1.13-1.42,16.45-16.44c1.51-1.51,2.55-2.27,3.12-2.27.94,0,2,.76,3.11,2.27l16.73,16.44C910.35,334.23,911.11,335.36,911.11,336.3Zm13,84.49V486h-1.42q-13.32,0-23.25-5.53T883,460.76q-4.24,10.49-17.72,17.86T826.91,486h-1.14v-65.2h1.14a207.91,207.91,0,0,0,25.8-1.56q12.46-1.56,18.71-5-2.28-10.22-4.54-24.67l20.41-17.29a3.53,3.53,0,0,1,2.56-1.14c1.13,0,1.88.85,2.26,2.56l4.26,28.63q1.7,10.49,6.8,14.46t19.56,4Z"/><path d="M987.08,521.43c0,.94-.75,2.08-2.26,3.4l-16.16,16.73c-1.14,1.13-2.08,1.7-2.84,1.7-.56,0-1.61-.57-3.12-1.7l-17.29-16.73-1.13-1.42-1.42,1.42L926.7,541.56c-1.13,1.13-2.08,1.7-2.84,1.7s-1.79-.57-3.11-1.7l-17.3-16.73c-1.32-1.32-2-2.46-2-3.4a5.55,5.55,0,0,1,2-3.69L919.9,501.3c1.51-1.51,2.55-2.27,3.11-2.27,1,0,2,.76,3.12,2.27l16.73,16.44,1.42,1.42,1.13-1.42,16.44-16.44c1.51-1.51,2.56-2.27,3.12-2.27.95,0,2,.76,3.12,2.27l16.73,16.44C986.33,519.25,987.08,520.48,987.08,521.43ZM1020,420.79V486h-1.42q-13.32,0-23.24-5.53t-16.45-19.7q-4.25,10.49-17.72,17.86T922.73,486H921.6v-65.2h1.13a207.91,207.91,0,0,0,25.8-1.56q12.47-1.56,18.71-5Q965,404.05,962.7,389.6l20.42-17.29a3.5,3.5,0,0,1,2.55-1.14c1.13,0,1.88.85,2.27,2.56l4.25,28.63q1.69,10.49,6.8,14.46t19.56,4Z"/><path d="M1102.47,310.79c0,.95-.76,2.17-2.27,3.68L1084,331.2c-1.13,1.13-2.08,1.7-2.83,1.7-.57,0-1.61-.57-3.12-1.7l-17.3-16.73-1.13-1.41-1.42,1.41-16.16,16.73c-1.13,1.13-2.08,1.7-2.83,1.7-.57,0-1.61-.57-3.12-1.7l-17.29-16.73c-1.32-1.32-2-2.45-2-3.4a5.55,5.55,0,0,1,2-3.68l16.44-16.45c1.51-1.51,2.55-2.27,3.12-2.27.94,0,2,.76,3.12,2.27l16.72,16.45,1.42,1.41,1.13-1.41,16.45-16.45c1.51-1.51,2.55-2.27,3.12-2.27.94,0,2,.76,3.12,2.27l16.72,16.45C1101.71,308.71,1102.47,309.84,1102.47,310.79Zm-13.18,63.5a146,146,0,0,1,6.09,42,106.87,106.87,0,0,1-2.83,25.23,65.76,65.76,0,0,1-10.35,22.82q-6.95,9.51-22.25,15.6t-41.4,6.09h-.85l-.28-65.2h1.13a210.51,210.51,0,0,0,29.77-1.85q12.77-1.83,16.73-5.24-7.38-11.62-24.38-34.3l-3.41-4.82,31.19-29.2q3.67-3.12,5.39-3.12,2.27,0,4,3.12Q1083.18,353.89,1089.29,374.29Z"/></g></svg>