<svg xmlns="http://www.w3.org/2000/svg" viewBox="0 0 648 648"><g id="Layer_1" data-name="Layer 1"><path d="M557.28,324a75,75,0,0,0-34.44-63.13A31.07,31.07,0,0,1,509.24,228,75.09,75.09,0,0,0,420,138.76a31.07,31.07,0,0,1-32.83-13.6,75.08,75.08,0,0,0-126.26,0A31.07,31.07,0,0,1,228,138.76,75.09,75.09,0,0,0,138.76,228a31.07,31.07,0,0,1-13.6,32.83,75.08,75.08,0,0,0,0,126.26A31.07,31.07,0,0,1,138.76,420,75.09,75.09,0,0,0,228,509.24a31.07,31.07,0,0,1,32.83,13.6,75.08,75.08,0,0,0,126.26,0A31.07,31.07,0,0,1,420,509.24,75.09,75.09,0,0,0,509.24,420a31.07,31.07,0,0,1,13.6-32.83A75,75,0,0,0,557.28,324Z"/></g></svg>