<svg xmlns="http://www.w3.org/2000/svg" viewBox="0 0 1152 648"><defs><style>.cls-1{fill:#fde5da;}.cls-2{fill:#fff;}.cls-3{fill:#ff5c39;}</style></defs><g id="Layer_1" data-name="Layer 1"><rect class="cls-1" width="1152" height="648"/><path class="cls-2" d="M1013.76,498.88c-1.7-2.93-6.2-3.09-8.42,1a11.4,11.4,0,0,1-3.63,4.26l-2-3.3,3.79-2.12L991,468.46a19.07,19.07,0,0,0,1.86-1.74c3-3.25,6.2-9.12,4.62-18.62-.54-2.88-.87-5.44.53-7.69,2.54-4.05,1.31-7.1-.52-8.47-3.33-2.51-7.13-.57-9.25,1.62l-.88-12.42a8.59,8.59,0,0,0-2.57-5.92,5.49,5.49,0,0,0-4.05-1.31,5.4,5.4,0,0,0-2.52.81l0-.51a8.73,8.73,0,0,0-2.69-6,5.29,5.29,0,0,0-4-1.26c-3,.28-5,3.15-5.52,6.19a5.37,5.37,0,0,0-2.76-.46c-4,.38-5.87,4.36-5.61,8.1l.42,5.88a4.41,4.41,0,0,0-2-.22c-3.33.37-5.29,3.47-5,7.88l1.31,18.57h0l0,.37a.52.52,0,0,1,0,.11c.75,8.87,4.43,14,7.82,16.88a19,19,0,0,1-.75,6.67c-1.59,5.34-5.3,9.24-11,11.59l-1.52.57-10.82,3.32,3.28,11,3.09-.38a13.2,13.2,0,0,0-.46,9.44c1.09,3.8,4.41,4.24,6.28,3.32,2.46-1.21,3.78-3.79,1.48-7.36-2.47-3.83-1.72-5.5-1-6.18l.41-.05.95,3,1.25.07c.87.05,1.7.08,2.51.08,17,0,21.38-11.13,21.57-11.62a1.82,1.82,0,1,0-3.41-1.28c0,.1-3.84,9.69-19.21,9.24L951.5,497l-1.59-5.06h0c11.48-4.73,13.72-14.08,14-19.23a12.47,12.47,0,0,0,2.49,1,1.72,1.72,0,0,0,.39,0,1.82,1.82,0,0,0,.39-3.59c-.1,0-10.09-2.87-11.12-17.49l-1.31-18.57c0-.39-.21-3.8,1.75-4a.84.84,0,0,1,.67.23,5.46,5.46,0,0,1,1.37,3.52l.8,11.23a1.82,1.82,0,1,0,3.63-.26l-.66-9.28h0l-1.05-15c-.12-1.59.41-4,2.31-4.21a1.64,1.64,0,0,1,1.3.39,5.23,5.23,0,0,1,1.39,3.47v0l1.24,17.58a1.81,1.81,0,0,0,1.81,1.69h.13a1.83,1.83,0,0,0,1.69-1.95l-1.6-22.72c-.14-2,1-4.09,2.31-4.21a1.63,1.63,0,0,1,1.28.4,5.2,5.2,0,0,1,1.41,3.46l1.61,22.72a1.82,1.82,0,1,0,3.63-.26l-1.07-15.12v-.06c-.11-1.55.41-4.07,2.28-4.21a1.85,1.85,0,0,1,1.4.43,5.15,5.15,0,0,1,1.33,3.43l1.6,22.65h0v0l.33,4.6a1.38,1.38,0,0,0,0,.2s0,.08,0,.12a2.47,2.47,0,0,0,.1.29l0,0a1.82,1.82,0,0,0,1.34,1h.09l.21,0h.13l.16,0,.18,0,.16-.06.17-.07.15-.09.15-.09.13-.12.13-.12a1.13,1.13,0,0,0,.1-.13l.1-.15.08-.15c0-.06.05-.11.07-.17a1.09,1.09,0,0,0,0-.17c0-.06,0-.12,0-.17a1.34,1.34,0,0,0,0-.2c0-.05,0-.1,0-.15,0-.75-.16-2.41-.25-3.62l-.08-1h0c-.22-3.17.27-5.66,1.44-7.19.55-.73,3-3.18,4.9-1.76.81.6.67,2-.37,3.63-2.28,3.63-1.52,7.64-1,10.26,1.33,8-1.29,12.87-3.73,15.53a13.9,13.9,0,0,1-2.26,2,1.83,1.83,0,0,0-.35.25,12.05,12.05,0,0,1-7.17,2.22,1.82,1.82,0,0,0-.27,3.63l.84,0a15.13,15.13,0,0,0,7-1.87L996,490.07c-.33.69-1.38,2.24-4.34,2.83a1.82,1.82,0,0,0,.35,3.61,1.61,1.61,0,0,0,.37,0,10.28,10.28,0,0,0,5.21-2.56l1.32,3.19-1.06.59h0l-4.81,2.68-3,1.7-17.54-23.44a1.83,1.83,0,0,0-2.55-.36,1.81,1.81,0,0,0-.37,2.54l17.25,23.05h0l9.4,12.55,9.63-5.37-1.39-2.32a16.85,16.85,0,0,0,6.48-2.53C1014.63,503.68,1014.66,500.46,1013.76,498.88Z"/><path class="cls-2" d="M967.52,489.64a2.19,2.19,0,0,1-1.78,2.25,1.82,1.82,0,0,0,.33,3.61l.33,0a5.85,5.85,0,0,0,4.76-5.89,1.8,1.8,0,0,0-1.85-1.79A1.82,1.82,0,0,0,967.52,489.64Z"/><path class="cls-2" d="M968.7,444.41c-1,.26-1.53,1.64-1.28,3.09s1.25,2.4,2.21,2.14,1.54-1.64,1.28-3.08S969.66,444.15,968.7,444.41Z"/><path class="cls-2" d="M981.61,449.64c1-.26,1.54-1.64,1.28-3.08s-1.24-2.41-2.21-2.15-1.53,1.64-1.27,3.09S980.65,449.9,981.61,449.64Z"/><path class="cls-2" d="M971.19,457.75a1.81,1.81,0,0,0,1.81,1.64h.18l6.08-.6-2.1-9.41a1.82,1.82,0,1,0-3.55.79l1.2,5.4-2,.2A1.81,1.81,0,0,0,971.19,457.75Z"/><path class="cls-2" d="M970,463.63a1.82,1.82,0,0,0,.65,2.49,9.54,9.54,0,0,0,4.89,1.34,9.7,9.7,0,0,0,8.36-4.77,1.82,1.82,0,0,0-3.14-1.85,6.05,6.05,0,0,1-8.27,2.15A1.82,1.82,0,0,0,970,463.63Z"/><path class="cls-2" d="M989.12,587.31l-3.08.74-.22,12.57a1.36,1.36,0,0,0,1.34,1.39h0a1.36,1.36,0,0,0,1.36-1.34l0-1.06,3.55-.85.5.93a1.36,1.36,0,1,0,2.41-1.28Zm-.5,9.48.07-4.47,2.11,3.95Z"/><path class="cls-2" d="M1005,579.87l-2.36,1.37L1004,589,997.88,584l-2.36,1.37,6.28,10.83a1.35,1.35,0,0,0,1.18.68,1.38,1.38,0,0,0,.68-.18,1.36,1.36,0,0,0,.5-1.87l-2.31-4,3.21,2.67,2.24-1.3-.72-4.11,2.31,4a1.36,1.36,0,1,0,2.36-1.37Z"/><path class="cls-2" d="M977.9,599.91h-4.1V589h-2.73v13.65h6.83a1.37,1.37,0,0,0,0-2.73Z"/><path class="cls-2" d="M953.44,596.7a1.36,1.36,0,0,0,2.29,1.47l.58-.89,3.47,1.15-.07,1.05a1.36,1.36,0,0,0,1.27,1.45h.09a1.37,1.37,0,0,0,1.36-1.28l.82-12.55-3-1Zm6.52-1.09-2.13-.7,2.42-3.76Z"/><path class="cls-2" d="M950,580.57a3.87,3.87,0,0,0-5.38,1l-.38.56a3.89,3.89,0,0,0,1,5.39,1.14,1.14,0,0,1,.3,1.58l-.39.56a1.14,1.14,0,1,1-1.87-1.29,1.37,1.37,0,1,0-2.25-1.55,3.87,3.87,0,0,0,6.37,4.39l.38-.56a3.87,3.87,0,0,0-1-5.38,1.16,1.16,0,0,1-.47-.73,1.19,1.19,0,0,1,.18-.86l.39-.56a1.1,1.1,0,0,1,.73-.47,1.11,1.11,0,0,1,.85.18,1.13,1.13,0,0,1,.29,1.59A1.36,1.36,0,0,0,951,586a3.87,3.87,0,0,0-1-5.38Z"/><circle class="cls-2" cx="1025.68" cy="576.28" r="3.64"/><path class="cls-2" d="M1028.41,545.34v11.83a2.73,2.73,0,0,1-5.46,0V530.78h-9.1v26.39a11.83,11.83,0,1,0,23.66,0V545.34Z"/><path class="cls-2" d="M998.38,569a11.85,11.85,0,0,0,11.83-11.83V545.34h-9.1v11.83a2.74,2.74,0,0,1-5.47,0V545.34h-9.1v11.83a2.73,2.73,0,0,1-5.46,0V545.34H972v5.12a13.18,13.18,0,0,0-1.56-2.94h0l-5.63-8,4.32-6.17-7.45-5.22-2.42,3.46-4.2-6-7.46,5.22,6.1,8.71-5.62,8h0a13.47,13.47,0,0,0-2.15,4.91,12.75,12.75,0,0,0-24.9,3.83,12.59,12.59,0,0,0,1.13,5.21,12.75,12.75,0,0,0-6.59,11.15v4.55h9.1v-4.55a3.65,3.65,0,0,1,3.64-3.64h5l.51,0a12.77,12.77,0,0,0,12.39-9.82,13.64,13.64,0,0,0,26.07.37,11.82,11.82,0,0,0,18.87,6.93A11.81,11.81,0,0,0,998.38,569Zm-64.62-9.1v0h-.26a3.39,3.39,0,1,1,.26,0Zm25.48,0a4.61,4.61,0,0,1-4.55-4.55,4.51,4.51,0,0,1,.82-2.61l3.73-5.32,3.73,5.32a4.51,4.51,0,0,1,.82,2.61A4.61,4.61,0,0,1,959.24,559.9Z"/><rect class="cls-3" y="602.64" width="45.36" height="45.36"/><polygon points="19.44 622.08 12.96 622.08 12.96 609.12 6.48 609.12 6.48 641.52 12.96 641.52 12.96 628.56 19.44 628.56 19.44 641.52 25.92 641.52 25.92 609.12 19.44 609.12 19.44 622.08"/><rect x="32.4" y="609.12" width="6.48" height="32.4"/><rect class="cls-3" width="45.36" height="45.36"/><polygon points="19.44 19.44 12.96 19.44 12.96 6.48 6.48 6.48 6.48 38.88 12.96 38.88 12.96 25.92 19.44 25.92 19.44 38.88 25.92 38.88 25.92 6.48 19.44 6.48 19.44 19.44"/><rect x="32.4" y="6.48" width="6.48" height="32.4"/><rect class="cls-3" x="1106.64" y="602.64" width="45.36" height="45.36"/><polygon points="1126.08 622.08 1119.6 622.08 1119.6 609.12 1113.12 609.12 1113.12 641.52 1119.6 641.52 1119.6 628.56 1126.08 628.56 1126.08 641.52 1132.56 641.52 1132.56 609.12 1126.08 609.12 1126.08 622.08"/><rect x="1139.04" y="609.12" width="6.48" height="32.4"/><rect class="cls-3" x="801.06" y="602.64" width="45.36" height="45.36"/><polygon points="820.5 622.08 814.02 622.08 814.02 609.12 807.54 609.12 807.54 641.52 814.02 641.52 814.02 628.56 820.5 628.56 820.5 641.52 826.98 641.52 826.98 609.12 820.5 609.12 820.5 622.08"/><rect x="833.46" y="609.12" width="6.48" height="32.4"/><rect class="cls-3" x="801.06" width="45.36" height="45.36"/><polygon points="820.5 19.44 814.02 19.44 814.02 6.48 807.54 6.48 807.54 38.88 814.02 38.88 814.02 25.92 820.5 25.92 820.5 38.88 826.98 38.88 826.98 6.48 820.5 6.48 820.5 19.44"/><rect x="833.46" y="6.48" width="6.48" height="32.4"/><rect class="cls-3" x="1106.64" width="45.36" height="45.36"/><polygon points="1126.08 19.44 1119.6 19.44 1119.6 6.48 1113.12 6.48 1113.12 38.88 1119.6 38.88 1119.6 25.92 1126.08 25.92 1126.08 38.88 1132.56 38.88 1132.56 6.48 1126.08 6.48 1126.08 19.44"/><rect x="1139.04" y="6.48" width="6.48" height="32.4"/><rect class="cls-2" x="846.42" y="45.36" width="260.22" height="40.97"/><rect class="cls-2" x="902.12" y="98.86" width="204.52" height="40.97"/><rect class="cls-2" x="846.42" y="169.05" width="260.22" height="16.82"/><rect class="cls-2" x="954.69" y="196.25" width="151.95" height="16.82"/><path d="M1106.64,604.91H846.42a2.27,2.27,0,0,1-2.26-2.27V45.36a2.27,2.27,0,0,1,2.26-2.27h260.22a2.27,2.27,0,0,1,2.27,2.27V602.64A2.27,2.27,0,0,1,1106.64,604.91Zm-258-4.54h255.68V47.63H848.69Z"/><rect class="cls-2" x="420.94" y="-145.48" width="4.54" height="938.96" transform="translate(-88.73 472.32) rotate(-53.59)"/><rect class="cls-2" x="-46.27" y="321.73" width="938.96" height="4.54" transform="translate(-109.7 314.34) rotate(-36.4)"/><path d="M801.06,604.91H45.36a2.27,2.27,0,0,1-2.27-2.27V45.36a2.27,2.27,0,0,1,2.27-2.27h755.7a2.27,2.27,0,0,1,2.27,2.27V602.64A2.27,2.27,0,0,1,801.06,604.91ZM47.63,600.37H798.8V47.63H47.63Z"/></g></svg>