<svg xmlns="http://www.w3.org/2000/svg" viewBox="0 0 648 648"><defs><style>.cls-1{fill:#fde5da;}.cls-2,.cls-4{fill:#fff;}.cls-2,.cls-3{stroke:#000;stroke-linejoin:round;stroke-width:9px;}.cls-3{fill:#4d7123;}</style></defs><g id="Layer_1" data-name="Layer 1"><rect class="cls-1" width="648" height="648"/><ellipse class="cls-2" cx="286.1" cy="270.22" rx="200.29" ry="79.34" transform="translate(-65.01 92.48) rotate(-16.52)"/><ellipse class="cls-3" cx="356.8" cy="388.97" rx="200.29" ry="79.34" transform="matrix(0.99, -0.15, 0.15, 0.99, -53.27, 56.63)"/><ellipse class="cls-4" cx="329.6" cy="367.63" rx="24.04" ry="31.36" transform="translate(-74.04 83.26) rotate(-12.96)"/><ellipse class="cls-4" cx="410.35" cy="358.98" rx="20.77" ry="33.17" transform="translate(-70.04 101.15) rotate(-12.96)"/><ellipse cx="344.33" cy="364.24" rx="11.28" ry="16.75" transform="translate(-35.66 37.37) rotate(-5.91)"/><ellipse cx="421.71" cy="350.98" rx="11.22" ry="16.66" transform="translate(-33.88 45.27) rotate(-5.91)"/><path d="M220.71,274.9a19.18,19.18,0,0,1-9.17-2.31,25.55,25.55,0,0,1-13.07,3.2H198a35.45,35.45,0,0,1-13.76-2.4q-5.72-2.4-5.71-9.85a26.55,26.55,0,0,1,1.95-9.11c.28-.79.73-1.18,1.36-1.18a1.07,1.07,0,0,1,.86.38,1.54,1.54,0,0,1,.33,1,2.49,2.49,0,0,1-.06.59,14.19,14.19,0,0,0-.53,3.67A6.28,6.28,0,0,0,185,264.4a12.45,12.45,0,0,0,5.71,2.22,59.9,59.9,0,0,0,7.45.41h.54c1.61,0,3.57-.08,5.85-.23a11.87,11.87,0,0,1-2.42-7,13.39,13.39,0,0,1,1.18-5.08,13.54,13.54,0,0,1,3.34-4.83,7,7,0,0,1,4.83-2,6.84,6.84,0,0,1,4.37,1.63,11.25,11.25,0,0,1,3.2,4.35,14.36,14.36,0,0,1,1.18,5.8,13.08,13.08,0,0,1-2,6.39c.55,0,1.48.05,2.78.05h2.48l.06,8.76Zm-13.87-12.48a11.32,11.32,0,0,0,5.3,2.72c2.8-1.1,4.39-2.64,4.79-4.62a5.64,5.64,0,0,0-1.93-2.95,5.83,5.83,0,0,0-3.69-1.6,6.91,6.91,0,0,0-3,.41,5.61,5.61,0,0,0-2.16,1.42,2.65,2.65,0,0,0-.8,1.72A4.68,4.68,0,0,0,206.84,262.42Zm.15-22.37a1,1,0,0,1,.35-.65l3.32-3.37a.81.81,0,0,1,.59-.29.66.66,0,0,1,.53.29l3.37,3.37q.42.36.42.6c0,.15-.14.35-.42.59L211.84,244a.73.73,0,0,1-.53.23.84.84,0,0,1-.53-.23l-3.44-3.43A.81.81,0,0,1,207,240.05Z"/><path d="M219.41,282.41c0-.11.12-.29.36-.53l3.07-3.07a.83.83,0,0,1,.54-.3.65.65,0,0,1,.47.3l3.13,3.07c.24.24.36.42.36.53a1.76,1.76,0,0,1-.36.6l-3.07,3.07a.69.69,0,0,1-.48.24.89.89,0,0,1-.47-.24L219.77,283A1,1,0,0,1,219.41,282.41Zm23.9-16.27v8.76H243a10.84,10.84,0,0,1-5.39-1.12,7.64,7.64,0,0,1-3.07-3.61,11,11,0,0,1-4.44,3.28,16.1,16.1,0,0,1-6.86,1.45H223v-8.76h.24a39.87,39.87,0,0,0,5.59-.38,10.93,10.93,0,0,0,4-1.15l-1.18-5.51,4-3.31a.74.74,0,0,1,.53-.24q.3,0,.42.48l.94,6.21a6.91,6.91,0,0,0,.71,2.34,2.86,2.86,0,0,0,1.57,1.18,10.23,10.23,0,0,0,3.23.38ZM228,282.41c0-.11.12-.29.35-.53l3.08-3.07a.83.83,0,0,1,.53-.3.65.65,0,0,1,.48.3l3.13,3.07c.24.24.36.42.36.53a1.76,1.76,0,0,1-.36.6l-3.07,3.07a.69.69,0,0,1-.48.24.86.86,0,0,1-.47-.24l-3.2-3.07A1,1,0,0,1,228,282.41Z"/><path d="M265.68,274.9a20.24,20.24,0,0,1-9.65-2.54,21.13,21.13,0,0,1-10.35,2.54h-2.84l.06-8.76h3.55c1.18,0,2,0,2.54-.05a11.62,11.62,0,0,1-2-6.28,13.39,13.39,0,0,1,1.18-5.08,13.57,13.57,0,0,1,3.35-4.83,6.78,6.78,0,0,1,9.2-.35A11.23,11.23,0,0,1,264,253.9a14.36,14.36,0,0,1,1.18,5.8,9.42,9.42,0,0,1-.56,3A14.76,14.76,0,0,1,263,266c1.27.08,2.27.11,3,.11h2.49l.06,8.76Zm-14-12.6a10.28,10.28,0,0,0,4.8,2.66,11.63,11.63,0,0,0,3.84-2,4.3,4.3,0,0,0,1.6-2.46,5.68,5.68,0,0,0-1.92-2.95,5.88,5.88,0,0,0-3.7-1.6,6.91,6.91,0,0,0-3,.41,5.61,5.61,0,0,0-2.16,1.42,2.65,2.65,0,0,0-.8,1.72A4.68,4.68,0,0,0,251.65,262.3Zm.06-21.65a1,1,0,0,1,.36-.65l3.31-3.38a.89.89,0,0,1,.59-.29.7.7,0,0,1,.54.29l3.37,3.38c.27.23.41.43.41.59s-.14.35-.41.59l-3.32,3.43a.71.71,0,0,1-.53.24.88.88,0,0,1-.53-.24l-3.43-3.43C251.83,241,251.71,240.8,251.71,240.65Z"/><path d="M304.43,266.14v8.76H304a10,10,0,0,1-6.45-1.83c-1.5-1.23-2.38-3.26-2.66-6.1-2.17,1-3.49,1.6-4,1.84q-4.26,2-7.31,3.19a47.29,47.29,0,0,1-6.92,2,38.47,38.47,0,0,1-8.31.86H268v-8.76h.3a56.05,56.05,0,0,0,10.94-.88q4.32-.88,9.47-2.49c2.25-.75,3.92-1.24,5-1.48q-5.26-1.41-9.11-2.3a28.25,28.25,0,0,0-6-.89,5.64,5.64,0,0,0-2.9.59,10.92,10.92,0,0,0-2.13,1.89,1.39,1.39,0,0,1-1,.48,1.34,1.34,0,0,1-1-.51,1.49,1.49,0,0,1-.32-1.27q1.89-9.34,8.87-9.35a16.09,16.09,0,0,1,4.38.68q2.37.69,6.09,2.1,3.56,1.31,5.83,2a26.7,26.7,0,0,0,4.53,1c.63.12.94.4.94.83a4.08,4.08,0,0,1-.29,1l-2.13,7.63-.3.12c.47.55,1.76.82,3.85.82Zm-28.34-23.31a1,1,0,0,1,.35-.65l3.32-3.37a.85.85,0,0,1,.59-.29.7.7,0,0,1,.53.29l3.37,3.37q.42.36.42.6c0,.15-.14.35-.42.59l-3.31,3.43a.74.74,0,0,1-.53.24.91.91,0,0,1-.54-.24l-3.43-3.43A.81.81,0,0,1,276.09,242.83Z"/><path d="M318.89,256.06a31.6,31.6,0,0,1,.86,7.13,21.75,21.75,0,0,1-.18,2.84,9.35,9.35,0,0,1-4.32,6.42q-3.67,2.44-11,2.45h-.18l-.06-8.76h.24a60.73,60.73,0,0,0,7.33-.35,8.59,8.59,0,0,0,4.14-1.36c-1.61-3.2-3.27-6.15-5-8.88l4.5-4.91a1.62,1.62,0,0,1,1-.59,1,1,0,0,1,.82.59A22,22,0,0,1,318.89,256.06ZM304.54,243c0-.12.12-.29.36-.53l3.07-3.08a.85.85,0,0,1,.54-.29.67.67,0,0,1,.47.29l3.14,3.08c.23.24.35.41.35.53a1.74,1.74,0,0,1-.35.59L309,246.62a.69.69,0,0,1-.47.24.88.88,0,0,1-.48-.24l-3.19-3.08A.94.94,0,0,1,304.54,243Zm8.52,0c0-.12.12-.29.36-.53l3.07-3.08a.85.85,0,0,1,.54-.29.67.67,0,0,1,.47.29l3.13,3.08c.24.24.36.41.36.53a1.66,1.66,0,0,1-.36.59l-3.07,3.08a.69.69,0,0,1-.48.24.89.89,0,0,1-.47-.24l-3.19-3.08A.94.94,0,0,1,313.06,243Z"/><path d="M334.48,241.71l4.67-4.67a.4.4,0,0,1,.36-.18.57.57,0,0,1,.41.18l4.61,4.67a.6.6,0,0,1,.15.36.47.47,0,0,1-.15.41l-4.61,4.67c-.32.2-.57.2-.77,0l-4.67-4.67A.5.5,0,0,1,334.48,241.71ZM335.75,273a4,4,0,0,1-.62-2.07,3,3,0,0,1,.23-1.19q3.5-8,7.31-15.5t8.61-16.27c.24-.47.53-.71.89-.71a1.16,1.16,0,0,1,.71.42,21.75,21.75,0,0,1,1.8,2.42,4,4,0,0,1,.62,2.07,2.62,2.62,0,0,1-.29,1.25l-2.61,5.09-5.5,10.79q-4.2,8.25-7.75,15.89c-.27.47-.57.71-.89.71a1,1,0,0,1-.77-.42A22,22,0,0,1,335.75,273Zm9.79-2.66,4.56-4.62a.65.65,0,0,1,.41-.21.42.42,0,0,1,.41.21l4.62,4.62a.54.54,0,0,1,.18.41.38.38,0,0,1-.18.35l-4.62,4.68a.56.56,0,0,1-.82,0l-4.56-4.68C345.22,270.82,345.22,270.56,345.54,270.29Z"/><path d="M388.08,240.29a19.52,19.52,0,0,1-1,6.07,12.44,12.44,0,0,1-3.11,5.08,8.45,8.45,0,0,1-5.32,2.4,10.09,10.09,0,0,1-1.3.06,13,13,0,0,1-3.85-.59,69.56,69.56,0,0,1,.77,9.94,47.37,47.37,0,0,1-.83,9.05,8.7,8.7,0,0,1-.56,1.65c-.26.6-.52,1.17-.8,1.72a1.74,1.74,0,0,1-1.54,1.18.92.92,0,0,1-.76-.38,1.54,1.54,0,0,1-.24-1.1l.06-2.07a63.56,63.56,0,0,0-2-15.67A65.53,65.53,0,0,0,362.05,243l5.44-5.74a1.92,1.92,0,0,1,1.06-.53c.4,0,.73.34,1,1l.06.17.12.24a11.1,11.1,0,0,0,3.43,5.24,8.73,8.73,0,0,0,5.44,1.62,6.35,6.35,0,0,0,5.15-2,7.37,7.37,0,0,0,1.65-4.88,1.47,1.47,0,0,1,.39-1.06,1.19,1.19,0,0,1,.92-.42c.71,0,1.12.48,1.24,1.42A14.55,14.55,0,0,1,388.08,240.29Z"/><path d="M397.93,270.76a8.84,8.84,0,0,1-3.17-3.2,8.42,8.42,0,0,1,0-8.6,8.75,8.75,0,0,1,3.17-3.14,8.25,8.25,0,0,1,4.23-1.15,8.46,8.46,0,0,1,4.34,1.15,8.75,8.75,0,0,1,3.17,3.14,8.42,8.42,0,0,1,0,8.6,8.77,8.77,0,0,1-3.2,3.2,8.35,8.35,0,0,1-4.31,1.18A8.09,8.09,0,0,1,397.93,270.76Zm6.89-4.82a3.66,3.66,0,0,0,0-5.27,3.69,3.69,0,0,0-2.66-1.09,3.73,3.73,0,0,0,0,7.45A3.69,3.69,0,0,0,404.82,265.94Z"/><ellipse cx="376.12" cy="421.58" rx="14.39" ry="24.13" transform="translate(-57.85 59.82) rotate(-8.45)"/></g></svg>