<svg xmlns="http://www.w3.org/2000/svg" viewBox="0 0 1152 648"><defs><style>.cls-1,.cls-6{fill:#fce4d9;}.cls-2{fill:#29316d;stroke-width:8.19px;}.cls-10,.cls-2,.cls-5,.cls-6,.cls-8,.cls-9{stroke:#000;}.cls-10,.cls-2,.cls-5,.cls-6,.cls-9{stroke-linejoin:round;}.cls-3{fill:#f6e4d9;}.cls-4{fill:#ff5c35;}.cls-10,.cls-11,.cls-5{fill:#fff;}.cls-5{stroke-width:8.33px;}.cls-6{stroke-width:8.82px;}.cls-7{fill:#ecda37;}.cls-8{fill:none;stroke-linecap:round;stroke-miterlimit:10;stroke-width:10.73px;}.cls-9{fill:#4d7123;}.cls-10,.cls-9{stroke-width:9px;}</style></defs><g id="Layer_1" data-name="Layer 1"><rect class="cls-1" y="0.01" width="1152" height="648"/><path class="cls-2" d="M1007,433.49c-36.46-15.19-87.16-24.62-143.25-24.62s-106.8,9.43-143.26,24.62a154.44,154.44,0,0,0,0,115.58c36.46,15.19,87.16,24.62,143.26,24.62s106.79-9.43,143.25-24.62a154.44,154.44,0,0,0,0-115.58Z"/><path class="cls-3" d="M759.45,506.14l-.65,2.42a1.45,1.45,0,0,1-1.55,1.17H755.7a1.25,1.25,0,0,1-1.4-1.39V473.63a1.25,1.25,0,0,1,1.4-1.39h2.68a1.24,1.24,0,0,1,1.39,1.39v11.14a5.62,5.62,0,0,1,5.41-3.38q5.94,0,6,7.72v13.5q0,7.71-6,7.71A5.78,5.78,0,0,1,759.45,506.14Zm6.21-16.66c0-2.51-.8-3.42-2.68-3.42s-3.21,1.66-3.21,3.8v12c0,2.14,1.34,3.8,3.21,3.8s2.68-.91,2.68-3.43Z"/><path class="cls-3" d="M774.14,503.09v-.43c0-2.78.75-4.87,2.46-6.32a16.67,16.67,0,0,1,4.77-2.84c1-.43,1.66-.75,2.14-1a3.52,3.52,0,0,0,2-2.67v-.33c0-2.3-.91-3.48-2.78-3.48s-2.84,1.18-2.84,3.48v.65a1.24,1.24,0,0,1-1.39,1.39h-2.31a1.26,1.26,0,0,1-1.39-1.45c0-5.78,2.73-8.68,8.14-8.68s8,2.95,8,8.79v10.5a59.71,59.71,0,0,0,.32,7.55c.16,1-.22,1.5-1.23,1.5h-2.47a1.36,1.36,0,0,1-1.55-1.17,12.63,12.63,0,0,1-.32-2.2,5.81,5.81,0,0,1-5.63,4Q774.14,510.32,774.14,503.09Zm11.35-1.18v-5.84l-1.23.59a13,13,0,0,0-3.21,1.88,4.23,4.23,0,0,0-1.5,3.59v.37c0,2.41.91,3.22,2.67,3.22C784.15,505.72,785.49,504.05,785.49,501.91Z"/><path class="cls-3" d="M794.34,501.91a1.25,1.25,0,0,1,1.4-1.39H798a1.25,1.25,0,0,1,1.4,1.39v.54c0,2.35,1,3.53,2.84,3.53s2.89-1.12,2.89-3.32v-.48c0-1.93-1.23-2.68-4.07-3.91a14.12,14.12,0,0,1-4.45-2.68c-1.55-1.34-2.25-3.37-2.25-6.16v-.11c0-5.3,2.95-7.93,8.15-7.93s8,2.69,8,8.09a1.25,1.25,0,0,1-1.39,1.4h-2.25a1.25,1.25,0,0,1-1.4-1.4v-.21c0-2.36-1-3.54-2.84-3.54s-2.89,1.13-2.89,3.33v.32A3,3,0,0,0,801,491.9a14.07,14.07,0,0,0,2.84,1.49,13.34,13.34,0,0,1,3.65,2c2,1.34,2.89,3.27,3,6.8v.16c0,5.3-2.89,8-8.09,8C797,510.32,794.34,507.54,794.34,501.91Z"/><path class="cls-3" d="M813.26,503.09v-.43c0-2.78.75-4.87,2.47-6.32a16.75,16.75,0,0,1,4.76-2.84c1-.43,1.67-.75,2.15-1a3.52,3.52,0,0,0,2-2.67v-.33c0-2.3-.91-3.48-2.79-3.48s-2.84,1.18-2.84,3.48v.65a1.24,1.24,0,0,1-1.39,1.39h-2.3a1.27,1.27,0,0,1-1.4-1.45c0-5.78,2.74-8.68,8.15-8.68s8,2.95,8,8.79v10.5a59.2,59.2,0,0,0,.33,7.55c.15,1-.22,1.5-1.24,1.5h-2.46a1.37,1.37,0,0,1-1.56-1.17,13.66,13.66,0,0,1-.32-2.2,5.79,5.79,0,0,1-5.62,4Q813.26,510.32,813.26,503.09Zm11.36-1.18v-5.84l-1.23.59a13.08,13.08,0,0,0-3.22,1.88,4.23,4.23,0,0,0-1.5,3.59v.37c0,2.41.91,3.22,2.68,3.22C823.28,505.72,824.62,504.05,824.62,501.91Z"/><path class="cls-3" d="M839.68,508.34a1.24,1.24,0,0,1-1.39,1.39h-2.68a1.24,1.24,0,0,1-1.39-1.39V473.63a1.24,1.24,0,0,1,1.39-1.39h2.68a1.24,1.24,0,0,1,1.39,1.39Z"/><path class="cls-3" d="M843.17,503.09v-.43c0-2.78.75-4.87,2.46-6.32a16.81,16.81,0,0,1,4.77-2.84c1-.43,1.66-.75,2.14-1a3.53,3.53,0,0,0,2-2.67v-.33c0-2.3-.92-3.48-2.79-3.48s-2.84,1.18-2.84,3.48v.65a1.24,1.24,0,0,1-1.39,1.39h-2.3a1.26,1.26,0,0,1-1.4-1.45c0-5.78,2.73-8.68,8.15-8.68s8,2.95,8,8.79v10.5a61.72,61.72,0,0,0,.32,7.55c.16,1-.21,1.5-1.23,1.5h-2.46a1.36,1.36,0,0,1-1.56-1.17,12.63,12.63,0,0,1-.32-2.2,5.8,5.8,0,0,1-5.62,4Q843.17,510.32,843.17,503.09Zm11.36-1.18v-5.84l-1.24.59a13,13,0,0,0-3.21,1.88,4.23,4.23,0,0,0-1.5,3.59v.37c0,2.41.91,3.22,2.68,3.22C853.19,505.72,854.53,504.05,854.53,501.91Z"/><path class="cls-3" d="M865.52,509.73a1.25,1.25,0,0,1-1.4-1.39v-25a1.25,1.25,0,0,1,1.4-1.39h2.3a1.24,1.24,0,0,1,1.39,1.39v2.3a5.68,5.68,0,0,1,5.63-4.29,5,5,0,0,1,5.3,4.08,5.86,5.86,0,0,1,5.68-4.08q5.79,0,5.78,7.72v19.23a1.24,1.24,0,0,1-1.39,1.39h-2.68a1.24,1.24,0,0,1-1.39-1.39V489.48c0-2.57-.75-3.42-2.52-3.42s-3,1.6-3,3.8v18.48a1.24,1.24,0,0,1-1.39,1.39h-2.63a1.24,1.24,0,0,1-1.39-1.39V489.48c0-2.57-.75-3.42-2.52-3.42s-3,1.6-3,3.8v18.48a1.24,1.24,0,0,1-1.39,1.39Z"/><path class="cls-3" d="M897.25,509.73a1.25,1.25,0,0,1-1.4-1.39V503a1.25,1.25,0,0,1,1.4-1.39h2.68a1.25,1.25,0,0,1,1.39,1.39v5.36a1.25,1.25,0,0,1-1.39,1.39Z"/><path class="cls-3" d="M905.39,490.23q0-8.84,8.2-8.84t8.19,8.84v1.13c0,.75-.48,1.12-1.39,1.12h-2.25a1.24,1.24,0,0,1-1.39-1.39v-1.61c0-2.3-1-3.42-3-3.42s-3,1.12-3,3.42v12.75c0,2.31,1,3.43,3,3.43s3-1.12,3-3.43v-2.14a1.24,1.24,0,0,1,1.39-1.39h2.25a1.24,1.24,0,0,1,1.39,1.39v1.39q0,8.85-8.19,8.84t-8.2-8.84Z"/><path class="cls-3" d="M925,501.48V490.23c0-5.89,2.79-8.84,8.41-8.84s8.36,2.95,8.36,8.84v11.25q0,8.85-8.36,8.84C927.74,510.32,925,507.38,925,501.48Zm11.36.75V489.48c0-2.3-1-3.42-2.95-3.42s-3,1.12-3,3.42v12.75c0,2.31,1,3.43,3,3.43S936.31,504.54,936.31,502.23Z"/><path class="cls-3" d="M947,509.73a1.24,1.24,0,0,1-1.39-1.39v-25A1.24,1.24,0,0,1,947,482h2.3a1.24,1.24,0,0,1,1.39,1.39v2.3a5.68,5.68,0,0,1,5.63-4.29,4.94,4.94,0,0,1,5.3,4.08,5.87,5.87,0,0,1,5.68-4.08q5.79,0,5.79,7.72v19.23a1.24,1.24,0,0,1-1.39,1.39h-2.68a1.25,1.25,0,0,1-1.4-1.39V489.48c0-2.57-.75-3.42-2.52-3.42s-3,1.6-3,3.8v18.48a1.24,1.24,0,0,1-1.39,1.39h-2.63a1.24,1.24,0,0,1-1.39-1.39V489.48c0-2.57-.75-3.42-2.52-3.42s-3,1.6-3,3.8v18.48a1.24,1.24,0,0,1-1.39,1.39Z"/><polygon class="cls-4" points="800.49 382.54 828.63 364.81 814.36 392.82 850.38 394.03 819.53 409.29 839 426.59 814.03 425.65 826.54 456.54 799.97 435.66 792.53 460 782.7 435.49 762.26 454.74 768.84 425.21 738.3 425.75 763.67 408.74 740.83 392.56 769.16 392.37 753.13 362.45 783.23 382.37 795.77 351.9 800.49 382.54"/><path class="cls-5" d="M419.59,442.28c20.09-8.95,32.07-20.17,32.07-32.36,0-29.26-68.9-53-153.9-53s-153.91,23.72-153.91,53c0,12.19,12,23.41,32.07,32.36-52.86,13.06-87.32,34.39-87.32,58.5,0,39.77,93.64,72,209.16,72s209.15-32.24,209.15-72C506.91,476.67,472.45,455.34,419.59,442.28Z"/><path d="M222.08,453.16a3.48,3.48,0,0,1,.62,1.9,7.71,7.71,0,0,1-1.8,4.55,13.83,13.83,0,0,1-5.12,4,17.08,17.08,0,0,1-7.63,1.63q-6.71,0-9.8-3.38a12.43,12.43,0,0,1-3.1-8.77,26.83,26.83,0,0,1,2.1-9.95,1.26,1.26,0,0,1,1.15-.9,1,1,0,0,1,.7.3,1,1,0,0,1,.3.75,2.56,2.56,0,0,1-.1.55,22.79,22.79,0,0,0-1.15,6.45,6.9,6.9,0,0,0,2.33,5.57c1.55,1.32,4.15,2,7.82,2a24.54,24.54,0,0,0,6.38-.83,10.21,10.21,0,0,0,4.37-2.07,14.83,14.83,0,0,0-3.92-2.93,47.07,47.07,0,0,0-6.18-2.82l1.5-5.8c.17-.7.48-1.05.95-1.05a2.67,2.67,0,0,1,.5.1c2.87.57,5,.92,6.5,1.07a39.33,39.33,0,0,0,3.95.23v7.4H222a9.38,9.38,0,0,1-1.75-.2A15.21,15.21,0,0,1,222.08,453.16Z"/><path d="M246.25,443.76v7.4H242.5a18.6,18.6,0,0,1-4.77-.48,10.54,10.54,0,0,1-3.68-2,29.7,29.7,0,0,1-5.37,1.85,21.65,21.65,0,0,1-4.93.65H222.3v-7.4h1c1.73,0,3.52-.08,5.35-.25L224.4,439l1.85-7.2a27.49,27.49,0,0,1,4.38-1.08,29.9,29.9,0,0,1,4.92-.42,15.39,15.39,0,0,1,6,1,4.09,4.09,0,0,1,2.7,3.33c.07.67.1,1.15.1,1.45a11.32,11.32,0,0,1-3.25,7.7Zm-11.8-1.1a17.89,17.89,0,0,0,4.8-1.75c1.13-.67,1.7-1.35,1.7-2.05s-.43-1.1-1.3-1.4a11.23,11.23,0,0,0-3.55-.45,34.24,34.24,0,0,0-6.1.6A49.55,49.55,0,0,0,234.45,442.66Z"/><path d="M242.75,457.51q0-.15.3-.45l2.6-2.6a.69.69,0,0,1,.45-.25.53.53,0,0,1,.4.25l2.65,2.6q.3.3.3.45a1.46,1.46,0,0,1-.3.5l-2.6,2.6a.59.59,0,0,1-.4.2.77.77,0,0,1-.4-.2l-2.7-2.6A.83.83,0,0,1,242.75,457.51ZM263,443.76v7.4h-.25a9.2,9.2,0,0,1-4.55-1,6.39,6.39,0,0,1-2.6-3,9.15,9.15,0,0,1-3.75,2.77,13.62,13.62,0,0,1-5.8,1.23h-.2v-7.4h.2a33.65,33.65,0,0,0,4.73-.33,9,9,0,0,0,3.37-1l-1-4.65,3.35-2.8a.62.62,0,0,1,.45-.2c.17,0,.28.13.35.4l.8,5.25a5.47,5.47,0,0,0,.6,2,2.36,2.36,0,0,0,1.33,1,8.5,8.5,0,0,0,2.72.33ZM250,457.51q0-.15.3-.45l2.6-2.6a.69.69,0,0,1,.45-.25.53.53,0,0,1,.4.25l2.65,2.6q.3.3.3.45a1.46,1.46,0,0,1-.3.5l-2.6,2.6a.59.59,0,0,1-.4.2.77.77,0,0,1-.4-.2l-2.7-2.6A.83.83,0,0,1,250,457.51Z"/><path d="M278.1,443.76v7.4h-.2a9.27,9.27,0,0,1-4.42-.88,6.32,6.32,0,0,1-2.63-2.87,6.87,6.87,0,0,1-2.92,2.65,11,11,0,0,1-5.18,1.1h-.2v-7.4h.2a28.09,28.09,0,0,0,3.68-.25,7.31,7.31,0,0,0,2.87-.85l-.6-2.7-.45-2,3.5-2.95a.62.62,0,0,1,.45-.2c.17,0,.28.13.35.4l.85,5.25a8.91,8.91,0,0,0,.53,2.05,1.85,1.85,0,0,0,1.15.92,8.66,8.66,0,0,0,2.82.33Zm-14.4,13.95a.83.83,0,0,1,.3-.55l2.8-2.85a.71.71,0,0,1,.5-.25.55.55,0,0,1,.45.25l2.85,2.85c.23.2.35.37.35.5s-.12.3-.35.5l-2.8,2.9a.62.62,0,0,1-.45.2.79.79,0,0,1-.45-.2l-2.9-2.9Q263.7,457.91,263.7,457.71Z"/><path d="M303.2,432.28a9.24,9.24,0,0,1,1.9,5.88,11.08,11.08,0,0,1-.75,4.2A11.73,11.73,0,0,1,297.7,449a31.1,31.1,0,0,1-12.35,2.13h-7.9v-7.4h2.65l.85-1.3c-.07-2.47-.27-6-.6-10.58s-.67-8.47-1-11.67l5.3-4.15a1.29,1.29,0,0,1,.75-.3c.5,0,.75.33.75,1q.11,4-.35,15.2a17.54,17.54,0,0,1-1.25,5.55q6.3-7.65,12.5-7.65Q301.29,429.86,303.2,432.28Zm-10.45,11.18a21.38,21.38,0,0,0,6.1-1.28,6,6,0,0,0,3.4-2.92,3.77,3.77,0,0,0-1.9-1.85,7.43,7.43,0,0,0-3.65-.85,13.72,13.72,0,0,0-8.25,2.35,24.22,24.22,0,0,0-5.15,4.85Q289.11,443.76,292.75,443.46Z"/><path d="M318.42,449.83a5.11,5.11,0,0,1-1.32-3.62,10.29,10.29,0,0,1,1.47-5.3,13.26,13.26,0,0,1,3.73-4.1,2.06,2.06,0,0,1,.95-.3,1,1,0,0,1,.75.3,1,1,0,0,1,.3.7,1.55,1.55,0,0,1-.55,1.05,10.39,10.39,0,0,0-2,2.47,5.1,5.1,0,0,0-.75,2.48l.8-.05a3.81,3.81,0,0,1,3.8,3.85,3.75,3.75,0,0,1-1.13,2.7,3.6,3.6,0,0,1-2.67,1.15A4.12,4.12,0,0,1,318.42,449.83Z"/><path d="M357.07,453.16a3.42,3.42,0,0,1,.63,1.9,7.71,7.71,0,0,1-1.8,4.55,13.79,13.79,0,0,1-5.13,4,17,17,0,0,1-7.62,1.63q-6.7,0-9.8-3.38a12.43,12.43,0,0,1-3.1-8.77,26.83,26.83,0,0,1,2.1-9.95,1.26,1.26,0,0,1,1.15-.9,1,1,0,0,1,.7.3,1,1,0,0,1,.3.75,2.56,2.56,0,0,1-.1.55,22.79,22.79,0,0,0-1.15,6.45,6.89,6.89,0,0,0,2.32,5.57q2.32,2,7.83,2a24.46,24.46,0,0,0,6.37-.83,10.26,10.26,0,0,0,4.38-2.07,14.74,14.74,0,0,0-3.93-2.93,46.32,46.32,0,0,0-6.17-2.82l1.5-5.8c.17-.7.48-1.05.95-1.05a2.67,2.67,0,0,1,.5.1c2.87.57,5,.92,6.5,1.07a39.33,39.33,0,0,0,3.95.23v7.4H357a9.38,9.38,0,0,1-1.75-.2A14.45,14.45,0,0,1,357.07,453.16Z"/><path d="M372.85,443.76v7.4h-.2a9.34,9.34,0,0,1-4.43-.88,6.36,6.36,0,0,1-2.62-2.87,6.84,6.84,0,0,1-2.93,2.65,11,11,0,0,1-5.17,1.1h-.2v-7.4h.2a27.83,27.83,0,0,0,3.67-.25,7.31,7.31,0,0,0,2.88-.85l-.6-2.7-.45-2,3.5-2.95a.62.62,0,0,1,.45-.2c.17,0,.28.13.35.4l.85,5.25a9.6,9.6,0,0,0,.52,2.05,1.9,1.9,0,0,0,1.15.92,8.77,8.77,0,0,0,2.83.33Zm-14.4,13.95a.83.83,0,0,1,.3-.55l2.8-2.85a.71.71,0,0,1,.5-.25.55.55,0,0,1,.45.25l2.85,2.85c.23.2.35.37.35.5s-.12.3-.35.5l-2.8,2.9a.62.62,0,0,1-.45.2.79.79,0,0,1-.45-.2l-2.9-2.9Q358.45,457.91,358.45,457.71Z"/><path d="M398,432.28a9.24,9.24,0,0,1,1.9,5.88,11.08,11.08,0,0,1-.75,4.2,11.73,11.73,0,0,1-6.65,6.67,31.1,31.1,0,0,1-12.35,2.13h-7.9v-7.4h2.65l.85-1.3c-.07-2.47-.27-6-.6-10.58s-.67-8.47-1-11.67l5.3-4.15a1.29,1.29,0,0,1,.75-.3c.5,0,.75.33.75,1q.11,4-.35,15.2a17.54,17.54,0,0,1-1.25,5.55q6.3-7.65,12.5-7.65Q396,429.86,398,432.28ZM387.5,443.46a21.38,21.38,0,0,0,6.1-1.28,6,6,0,0,0,3.4-2.92,3.77,3.77,0,0,0-1.9-1.85,7.43,7.43,0,0,0-3.65-.85,13.72,13.72,0,0,0-8.25,2.35,24.22,24.22,0,0,0-5.15,4.85Q383.86,443.76,387.5,443.46Z"/><path d="M185,478.86a4,4,0,0,1,1.35-3.25,5,5,0,0,1,6.63.2,4.18,4.18,0,0,1,1.17,3.7L192,499.56H187.2L185,479.51Zm1.63,31.87a4.16,4.16,0,0,1-1.18-3,3.87,3.87,0,0,1,1.18-2.9,4.36,4.36,0,0,1,5.92,0,3.9,3.9,0,0,1,1.2,2.88,4.13,4.13,0,0,1-1.2,3,4.18,4.18,0,0,1-5.92,0Z"/><path d="M225,513.16a3.48,3.48,0,0,1,.62,1.9,7.71,7.71,0,0,1-1.8,4.55,13.83,13.83,0,0,1-5.12,4,17.08,17.08,0,0,1-7.63,1.63q-6.69,0-9.8-3.38a12.48,12.48,0,0,1-3.1-8.77,26.83,26.83,0,0,1,2.1-9.95,1.26,1.26,0,0,1,1.15-.9,1,1,0,0,1,.7.3,1,1,0,0,1,.3.75,2.56,2.56,0,0,1-.1.55,23.15,23.15,0,0,0-1.15,6.45,6.9,6.9,0,0,0,2.33,5.57q2.33,2,7.82,2a24.54,24.54,0,0,0,6.38-.83A10.15,10.15,0,0,0,222.1,515a14.83,14.83,0,0,0-3.92-2.93,47.07,47.07,0,0,0-6.18-2.82l1.5-5.8c.17-.7.49-1.05.95-1.05a2.53,2.53,0,0,1,.5.1c2.87.57,5,.92,6.5,1.07a39.5,39.5,0,0,0,4,.23v7.4h-.5a9.38,9.38,0,0,1-1.75-.2A14.6,14.6,0,0,1,225,513.16Z"/><path d="M235.48,495.23a26.93,26.93,0,0,1,.72,6,18.63,18.63,0,0,1-.15,2.4,8.23,8.23,0,0,1-3.17,5.37,11.22,11.22,0,0,1-7.18,2.13h-.5v-7.4h.2a28.82,28.82,0,0,0,4.75-.35,4.86,4.86,0,0,0,2.7-1.05,84.06,84.06,0,0,0-4.25-7.55l3.85-4.15a1.25,1.25,0,0,1,.85-.5.68.68,0,0,1,.65.5A18.94,18.94,0,0,1,235.48,495.23Zm-9.13-11.67a.83.83,0,0,1,.3-.55l2.8-2.85a.73.73,0,0,1,.5-.25.55.55,0,0,1,.45.25l2.85,2.85c.24.2.35.37.35.5s-.11.3-.35.5l-2.8,2.9a.62.62,0,0,1-.45.2.79.79,0,0,1-.45-.2l-2.9-2.9Q226.35,483.76,226.35,483.56Z"/><path d="M247.15,478.56q0,6.7-.2,15.37t-.7,12.68a55.27,55.27,0,0,1-1.75,5.55,1.42,1.42,0,0,1-.42.62.87.87,0,0,1-.53.23.64.64,0,0,1-.52-.28,1.38,1.38,0,0,1-.28-.77q-.5-7.8-2-26.3c-.2-1.87-.35-3.65-.45-5.35l5.25-4.15a1.4,1.4,0,0,1,.8-.35c.5,0,.77.35.8,1.05Z"/><path d="M264.5,503.76v7.4h-.25a6.53,6.53,0,0,1-2.85-.65,18.08,18.08,0,0,1,0,2.35,12,12,0,0,1-2.7,6.62,16.73,16.73,0,0,1-5.1,4.25,11,11,0,0,1-4.35,1.53,6.93,6.93,0,0,1-3.07-1.33,23.32,23.32,0,0,1-3.73-2.77.84.84,0,0,1-.35-.6c0-.43.34-.68,1-.75a29.6,29.6,0,0,0,6.55-1.55,26.84,26.84,0,0,0,5.5-2.63,8.44,8.44,0,0,0,3-2.77,100.84,100.84,0,0,0-5.5-12l3.9-4.15c.37-.37.65-.55.85-.55s.47.2.7.6q.56,1.15.75,1.65l.45,1a25.16,25.16,0,0,0,1.4,2.85,3,3,0,0,0,1.23,1.15,5.39,5.39,0,0,0,2.22.35Z"/><path d="M278.48,495.23a26.93,26.93,0,0,1,.72,6,18.63,18.63,0,0,1-.15,2.4A8,8,0,0,1,275.5,509q-3,2.09-9.05,2.13h-2.3v-7.4h2a51.88,51.88,0,0,0,6.2-.3,7.23,7.23,0,0,0,3.5-1.15q-2.06-4.05-4.2-7.5l3.8-4.15a1.38,1.38,0,0,1,.85-.5.85.85,0,0,1,.7.5A19.39,19.39,0,0,1,278.48,495.23ZM271,517.56a.83.83,0,0,1-.3.5l-2.55,2.6c-.17.17-.3.25-.4.25a1.62,1.62,0,0,1-.4-.25l-2.7-2.6a.55.55,0,0,1-.3-.45q0-.15.3-.45l2.6-2.65a.69.69,0,0,1,.45-.25c.1,0,.23.08.4.25l2.6,2.65C270.85,517.33,271,517.46,271,517.56Zm7.25.05q0,.15-.3.45l-2.6,2.6c-.17.17-.28.25-.35.25a1.13,1.13,0,0,1-.45-.25l-2.7-2.6a.69.69,0,0,1-.25-.45,1.13,1.13,0,0,1,.25-.45l2.6-2.65a.69.69,0,0,1,.45-.25c.1,0,.23.08.4.25l2.65,2.65Q278.2,517.46,278.2,517.61Z"/><path d="M290.15,478.56q0,6.7-.2,15.37t-.7,12.68a55.27,55.27,0,0,1-1.75,5.55,1.42,1.42,0,0,1-.42.62.87.87,0,0,1-.53.23.64.64,0,0,1-.52-.28,1.38,1.38,0,0,1-.28-.77q-.5-7.8-2-26.3c-.2-1.87-.35-3.65-.45-5.35l5.25-4.15a1.4,1.4,0,0,1,.8-.35c.5,0,.77.35.8,1.05Z"/><path d="M326.05,503.76v7.4h-.35a9.55,9.55,0,0,1-6.17-1.8,10.42,10.42,0,0,1-3.23-5.75c-1.37,2-2.37,3.33-3,4.1a12,12,0,0,1-1.25.05,9.42,9.42,0,0,1-6.32-2.1q-2.48-2.1-2.48-6.4a18.69,18.69,0,0,1,.25-2.8c.37-.83,1.63-1.89,3.8-3.18s4.5-2.52,7-3.72c0-.37-.1-.93-.2-1.7l4.4-4.15a1.24,1.24,0,0,1,.8-.35.66.66,0,0,1,.55.25,1.22,1.22,0,0,1,.2.75c0,.6.08,2.45.25,5.55l.3,6a26.13,26.13,0,0,0,.55,4.87,3.61,3.61,0,0,0,1.43,2.25,5.85,5.85,0,0,0,3.17.68ZM308.28,500a20.79,20.79,0,0,0,5.17.58c.63,0,1.38,0,2.25-.1l-.1-.65c-.2-1.37-.35-2.58-.45-3.65l-.25-2a44.24,44.24,0,0,0-5,1.85,20.83,20.83,0,0,0-3.9,2.15C306,499,306.76,499.65,308.28,500Z"/><path d="M342.75,503.76v7.4h-.25a9.2,9.2,0,0,1-4.55-1,6.39,6.39,0,0,1-2.6-3,9.15,9.15,0,0,1-3.75,2.77,13.62,13.62,0,0,1-5.8,1.23h-.2v-7.4h.2a33.65,33.65,0,0,0,4.73-.33,9,9,0,0,0,3.37-1l-1-4.65,3.35-2.8a.62.62,0,0,1,.45-.2c.17,0,.28.13.35.4l.8,5.25a5.47,5.47,0,0,0,.6,2,2.36,2.36,0,0,0,1.33,1,8.5,8.5,0,0,0,2.72.33Zm-16.7-15.25q0-.15.3-.45l2.6-2.6a.69.69,0,0,1,.45-.25.53.53,0,0,1,.4.25l2.65,2.6q.3.3.3.45a1.46,1.46,0,0,1-.3.5l-2.6,2.6a.59.59,0,0,1-.4.2.77.77,0,0,1-.4-.2l-2.7-2.6A.83.83,0,0,1,326.05,488.51Zm7.2,0q0-.15.3-.45l2.6-2.6a.69.69,0,0,1,.45-.25.53.53,0,0,1,.4.25l2.65,2.6q.3.3.3.45a1.46,1.46,0,0,1-.3.5l-2.6,2.6a.59.59,0,0,1-.4.2.77.77,0,0,1-.4-.2l-2.7-2.6A.83.83,0,0,1,333.25,488.51Z"/><path d="M340.75,517.86a.83.83,0,0,1,.3-.55l2.8-2.85a.71.71,0,0,1,.5-.25.55.55,0,0,1,.45.25l2.85,2.85c.23.2.35.37.35.5s-.12.3-.35.5l-2.8,2.9a.62.62,0,0,1-.45.2.79.79,0,0,1-.45-.2l-2.9-2.9Q340.75,518.06,340.75,517.86Zm17.15-14.1v7.4h-.2a9.27,9.27,0,0,1-4.42-.88,6.32,6.32,0,0,1-2.63-2.87,6.87,6.87,0,0,1-2.92,2.65,11,11,0,0,1-5.18,1.1h-.2v-7.4h.2a28.09,28.09,0,0,0,3.68-.25,7.31,7.31,0,0,0,2.87-.85l-.6-2.7-.45-2,3.5-2.95a.62.62,0,0,1,.45-.2c.17,0,.28.13.35.4l.85,5.25a8.91,8.91,0,0,0,.53,2.05,1.85,1.85,0,0,0,1.15.92,8.66,8.66,0,0,0,2.82.33Z"/><path d="M368.05,485.56q-.19,7.6-.5,14.95-.15,5.3-2.45,8c-1.53,1.79-3.92,2.68-7.15,2.68h-.45v-7.4h.6a18.08,18.08,0,0,0,3.32-.23,2.5,2.5,0,0,0,1.53-.75,2.44,2.44,0,0,0,.4-1.52,10.17,10.17,0,0,0-.05-1.1q-.56-7.7-1.9-19.85l5.25-4.15a1.4,1.4,0,0,1,.8-.35q.75,0,.75,1.05T368.05,485.56Z"/><path d="M379.55,478.56q0,6.7-.2,15.37t-.7,12.68a55.27,55.27,0,0,1-1.75,5.55,1.36,1.36,0,0,1-.43.62.83.83,0,0,1-.52.23.66.66,0,0,1-.53-.28,1.38,1.38,0,0,1-.27-.77q-.5-7.8-2-26.3c-.2-1.87-.35-3.65-.45-5.35l5.25-4.15a1.4,1.4,0,0,1,.8-.35c.5,0,.77.35.8,1.05Z"/><path d="M406.42,493.58a15,15,0,0,1,3,6.23,36.89,36.89,0,0,1,1,8.95,17.34,17.34,0,0,1-2.25,9.15,15.74,15.74,0,0,1-5.25,5.5,11,11,0,0,1-5.2,1.85,7,7,0,0,1-3.1-1.33,23.1,23.1,0,0,1-3.75-2.77.8.8,0,0,1-.35-.6c0-.4.33-.65,1-.75a31.08,31.08,0,0,0,9.92-3.13c3-1.55,4.86-3.55,5.63-6a12.13,12.13,0,0,1-5,.85,10.38,10.38,0,0,1-4.58-1,7.15,7.15,0,0,1-3.22-3.1,9.2,9.2,0,0,1-.9-5.25,15.89,15.89,0,0,1,1.15-5,11.24,11.24,0,0,1,2.82-4.18,6.28,6.28,0,0,1,9.1.6Zm-8,9.93a12.1,12.1,0,0,0,8.23-.25,8.9,8.9,0,0,0-2.53-3.83,5.55,5.55,0,0,0-3.07-1.47,4.42,4.42,0,0,0-3.33,1,4.51,4.51,0,0,0-1.62,2.73A3.48,3.48,0,0,0,398.42,503.51Z"/><path class="cls-6" d="M261.24,313.38a336.81,336.81,0,0,0,476.34,0L499.41,75.21Z"/><path d="M345.55,337.53l-2.48,2.52a2.06,2.06,0,0,1-2.73.36l-1.91-1.09a1.75,1.75,0,0,1-.74-2.68L362,293.94a1.77,1.77,0,0,1,2.69-.74l3.29,1.88a1.76,1.76,0,0,1,.74,2.69l-7.79,13.7a7.93,7.93,0,0,1,9-.36q7.32,4.15,1.92,13.64l-9.45,16.61q-5.4,9.48-12.71,5.32A8.19,8.19,0,0,1,345.55,337.53Zm19.3-16.14c1.77-3.09,1.41-4.78-.89-6.09s-5.12-.21-6.62,2.43L349,332.49c-1.5,2.63-1,5.61,1.29,6.93s3.93.75,5.69-2.35Z"/><path d="M368,345l.24-.56c1.58-3.61,3.74-5.89,6.78-6.79a23.51,23.51,0,0,1,7.79-1c1.5,0,2.58,0,3.36-.1,1.45-.11,3.45-.89,4.09-2.35l.18-.42c1.31-3,.8-5-1.63-6.09s-4.35-.08-5.66,2.9l-.37.83a1.75,1.75,0,0,1-2.59,1l-3-1.31a1.78,1.78,0,0,1-1-2.66c3.28-7.5,8.46-9.7,15.48-6.63s8.74,8.38,5.43,15.95l-6,13.61a86.23,86.23,0,0,0-3.87,10c-.37,1.41-1.13,1.82-2.45,1.25l-3.19-1.4a1.94,1.94,0,0,1-1.35-2.41,18.77,18.77,0,0,1,.83-3,8.22,8.22,0,0,1-9.54,1.95Q363.92,354.34,368,345Zm15.39,4.91,3.31-7.57-1.93.07a18.15,18.15,0,0,0-5.23.61,6,6,0,0,0-4,3.8l-.21.48C374,350.39,374.73,352,377,353,379.52,354,382.2,352.65,383.42,349.87Z"/><path d="M397,355.44a1.77,1.77,0,0,1,2.48-1.27l3,1a1.77,1.77,0,0,1,1.27,2.48l-.23.72c-1,3.18-.24,5.18,2.29,6s4.38-.26,5.33-3.22l.21-.65c.84-2.6-.49-4.14-3.78-7a20,20,0,0,1-4.83-5.54c-1.51-2.48-1.56-5.52-.35-9.28l0-.14c2.3-7.14,7.41-9.4,14.41-7.14,7.21,2.32,9.66,7.09,7.31,14.38a1.76,1.76,0,0,1-2.48,1.27l-3-1a1.76,1.76,0,0,1-1.27-2.48l.09-.28c1-3.18.24-5.19-2.29-6s-4.38.26-5.33,3.22l-.14.43a4.21,4.21,0,0,0,.56,3.93,19.59,19.59,0,0,0,3.17,3.25,18.64,18.64,0,0,1,4,4.25c2.09,2.66,2.48,5.66,1.16,10.49l-.07.21c-2.3,7.15-7.36,9.5-14.36,7.24C397,367.93,394.58,363,397,355.44Z"/><path d="M424.29,365.7l.13-.59c.82-3.86,2.48-6.53,5.28-8a23.93,23.93,0,0,1,7.44-2.52c1.46-.3,2.52-.54,3.26-.77,1.41-.4,3.21-1.56,3.54-3.12l.1-.44c.68-3.19-.23-5.09-2.83-5.65s-4.28.79-5,4l-.19.89a1.76,1.76,0,0,1-2.34,1.51l-3.19-.68a1.78,1.78,0,0,1-1.49-2.41c1.71-8,6.35-11.2,13.83-9.6s10.25,6.46,8.52,14.54l-3.11,14.53a86.05,86.05,0,0,0-1.79,10.54c-.08,1.46-.74,2-2.15,1.72l-3.41-.73a1.93,1.93,0,0,1-1.8-2.1,18.53,18.53,0,0,1,.2-3.13,8.21,8.21,0,0,1-8.95,3.82Q422.15,375.7,424.29,365.7Zm16.06,1.73,1.73-8.08-1.88.45a18.46,18.46,0,0,0-5,1.65,6,6,0,0,0-3.14,4.52l-.11.52c-.71,3.33.31,4.72,2.76,5.24C437.37,372.3,439.72,370.4,440.35,367.43Z"/><path d="M461.81,380.1a1.76,1.76,0,0,1-2.22,1.69l-3.75-.51a1.76,1.76,0,0,1-1.69-2.21l6.56-48.68a1.77,1.77,0,0,1,2.22-1.69l3.76.51a1.75,1.75,0,0,1,1.68,2.21Z"/><path d="M469.43,373.7l0-.61c.23-3.93,1.46-6.82,4-8.72a24,24,0,0,1,7-3.62c1.4-.53,2.41-.92,3.11-1.26,1.33-.61,2.93-2,3-3.62l0-.46c.19-3.25-1-5-3.65-5.14s-4.11,1.43-4.3,4.68l-.05.91a1.76,1.76,0,0,1-2.08,1.85l-3.26-.19a1.78,1.78,0,0,1-1.84-2.15c.47-8.18,4.57-12,12.21-11.59s11.11,4.82,10.63,13.06l-.86,14.84a86.21,86.21,0,0,0-.17,10.69c.14,1.45-.42,2.1-1.86,2l-3.48-.2a1.94,1.94,0,0,1-2.1-1.8,18.41,18.41,0,0,1-.27-3.12,8.23,8.23,0,0,1-8.27,5.13Q468.84,383.92,469.43,373.7Zm16.14-.73.48-8.25-1.79.73a18.28,18.28,0,0,0-4.7,2.39,6,6,0,0,0-2.41,4.94l0,.53c-.2,3.41,1,4.62,3.52,4.76C483.36,378.23,485.39,376,485.57,373Z"/><path d="M504.73,384.76a1.76,1.76,0,0,1-2.11-1.83l-2.54-35.23a1.77,1.77,0,0,1,1.83-2.11l3.25-.23a1.76,1.76,0,0,1,2.1,1.82l.24,3.25a8,8,0,0,1,7.5-6.62c4-.28,6.64,1.43,7.9,5.21a8.27,8.27,0,0,1,7.6-6.32q8.16-.6,9,10.3l2,27.14a1.77,1.77,0,0,1-1.83,2.11l-3.78.27a1.77,1.77,0,0,1-2.11-1.82l-1.91-26.62c-.26-3.63-1.41-4.76-3.91-4.58s-4.14,2.58-3.92,5.68l1.88,26.08a1.76,1.76,0,0,1-1.82,2.11l-3.71.27a1.77,1.77,0,0,1-2.11-1.83l-1.91-26.61c-.26-3.63-1.41-4.76-3.91-4.58s-4.14,2.57-3.92,5.67l1.88,26.09a1.77,1.77,0,0,1-1.82,2.11Z"/><path d="M552.79,379.74a1.76,1.76,0,0,1-2.29-1.59l-1.35-7.46a1.76,1.76,0,0,1,1.59-2.29l3.73-.67a1.76,1.76,0,0,1,2.29,1.58l1.35,7.46a1.76,1.76,0,0,1-1.59,2.29Z"/><path d="M559.64,350.52q-3.15-12.11,8.07-15t14.38,9.17l.4,1.54c.27,1-.26,1.72-1.51,2l-3.08.81a1.76,1.76,0,0,1-2.4-1.41l-.58-2.2c-.82-3.16-2.54-4.35-5.26-3.65s-3.7,2.62-2.88,5.77L571.33,365c.83,3.15,2.62,4.33,5.34,3.62s3.63-2.59,2.81-5.75l-.77-2.93a1.77,1.77,0,0,1,1.41-2.41l3.08-.8a1.77,1.77,0,0,1,2.41,1.41l.49,1.91q3.17,12.1-8.06,15t-14.38-9.18Z"/><path d="M592.43,358.07l-5.57-14.91c-2.92-7.81-.69-13.09,6.77-15.88s12.53-.23,15.45,7.58l5.58,14.91q4.37,11.72-6.7,15.85C600.5,368.41,595.35,365.88,592.43,358.07Zm15.43-4.63-6.32-16.9c-1.14-3.05-3-4.06-5.6-3.08s-3.42,3-2.28,6L600,356.38c1.15,3.06,3,4,5.68,3.06S609,356.49,607.86,353.44Z"/><path d="M629.71,356.14a1.77,1.77,0,0,1-2.67-.81l-16.65-31.15a1.76,1.76,0,0,1,.81-2.67l2.87-1.54a1.76,1.76,0,0,1,2.67.81l1.54,2.88a8,8,0,0,1,4.16-9.11c3.54-1.89,6.64-1.4,9.33,1.55a8.28,8.28,0,0,1,4.37-8.87q7.22-3.86,12.37,5.77l12.83,24a1.77,1.77,0,0,1-.81,2.67l-3.35,1.79a1.75,1.75,0,0,1-2.66-.81l-12.58-23.53c-1.72-3.21-3.22-3.78-5.43-2.6s-2.74,4-1.27,6.78l12.33,23.07a1.76,1.76,0,0,1-.81,2.66l-3.28,1.75a1.76,1.76,0,0,1-2.67-.8l-12.58-23.54c-1.71-3.2-3.22-3.77-5.42-2.59s-2.74,4-1.28,6.78l12.33,23.06a1.76,1.76,0,0,1-.81,2.67Z"/><path d="M570,283.53c-3.1-5.38-11.35-5.67-15.42,1.79a21,21,0,0,1-6.65,7.81l-3.62-6.06,7-3.88-22.92-55.41a33.21,33.21,0,0,0,3.42-3.19c5.45-6,11.35-16.72,8.47-34.12-1-5.28-1.61-10,1-14.1,4.65-7.43,2.39-13-.95-15.52-6.11-4.6-13.07-1-17,3l-1.61-22.74c-.32-4.58-2-8.53-4.72-10.85a10.29,10.29,0,0,0-12-.92l-.07-.93c-.32-4.51-2.15-8.6-4.92-11a9.66,9.66,0,0,0-7.29-2.3c-5.56.51-9.26,5.76-10.12,11.33a9.82,9.82,0,0,0-5.06-.84c-7.38.7-10.75,8-10.27,14.84l.76,10.78a8.06,8.06,0,0,0-3.56-.41c-6.12.68-9.7,6.36-9.12,14.45l2.4,34h0l0,.68a1.2,1.2,0,0,0,0,.2c1.36,16.25,8.11,25.65,14.34,30.93a35.13,35.13,0,0,1-1.39,12.22c-2.9,9.79-9.71,16.94-20.14,21.24l-2.79,1.05-19.82,6.08,6,20.08,5.66-.69c-1.73,3.69-3.07,9.47-.83,17.3,2,6.95,8.08,7.76,11.5,6.08,4.51-2.22,6.93-6.94,2.71-13.49-4.52-7-3.16-10.08-1.85-11.31l.76-.1,1.74,5.52,2.28.14c1.59.1,3.12.14,4.6.14,31.16,0,39.19-20.39,39.53-21.3a3.34,3.34,0,0,0-6.25-2.34c-.07.18-7,17.76-35.19,16.94l-2.72-8.6L453,270.79h0c21-8.67,25.13-25.79,25.7-35.23a24.29,24.29,0,0,0,4.56,1.85,3.51,3.51,0,0,0,.71.08,3.34,3.34,0,0,0,.72-6.6c-.19,0-18.49-5.24-20.38-32l-2.4-34c-.05-.71-.39-7,3.21-7.35a1.54,1.54,0,0,1,1.24.42c1.28,1.07,2.31,3.72,2.5,6.44l1.46,20.58a3.33,3.33,0,1,0,6.65-.47l-1.2-17h0L473.84,140c-.21-2.93.75-7.39,4.24-7.73a3,3,0,0,1,2.38.73c1.36,1.15,2.36,3.64,2.55,6.35v0l2.27,32.22a3.35,3.35,0,0,0,3.33,3.1h.24a3.34,3.34,0,0,0,3.09-3.56L489,129.48c-.25-3.6,1.88-7.5,4.23-7.72a3,3,0,0,1,2.36.74c1.38,1.18,2.4,3.67,2.59,6.34l2.94,41.63a3.33,3.33,0,1,0,6.65-.47l-1.95-27.71a.4.4,0,0,1,0-.11c-.2-2.85.75-7.47,4.17-7.71a3.29,3.29,0,0,1,2.57.79c1.31,1.13,2.24,3.54,2.44,6.28l2.93,41.5h0v0l.59,8.42a2.2,2.2,0,0,0,.07.37,2.08,2.08,0,0,0,0,.23,4.76,4.76,0,0,0,.19.53l0,.06a3.35,3.35,0,0,0,2.45,1.86h.17a2.58,2.58,0,0,0,.39,0h.24l.29-.05a3,3,0,0,0,.32-.06,2.81,2.81,0,0,0,.31-.1l.31-.12.27-.17.28-.17.23-.21a2.55,2.55,0,0,0,.24-.23l.18-.24a2.22,2.22,0,0,0,.19-.27,1.83,1.83,0,0,0,.14-.28c0-.1.1-.2.14-.3a1.87,1.87,0,0,0,.08-.32c0-.11.06-.21.08-.32s0-.23,0-.35a2.44,2.44,0,0,0,0-.27c-.05-1.38-.29-4.42-.45-6.64l-.15-1.91v0c-.41-5.81.5-10.36,2.63-13.17,1-1.35,5.54-5.84,9-3.23,1.48,1.11,1.22,3.6-.69,6.65-4.16,6.66-2.78,14-1.88,18.8,2.43,14.69-2.37,23.59-6.83,28.46a26.5,26.5,0,0,1-4.14,3.66,3.39,3.39,0,0,0-.66.46c-4.6,3.09-9.55,4.32-13.13,4.06a3.33,3.33,0,0,0-.5,6.65c.51,0,1,.06,1.55.06a27.76,27.76,0,0,0,12.73-3.43l14.82,35.83c-.61,1.26-2.54,4.09-8,5.19a3.33,3.33,0,0,0,.66,6.6,3.77,3.77,0,0,0,.66-.06,19,19,0,0,0,9.56-4.69l2.41,5.83-1.94,1.09h0L532,286.25l-5.56,3.11-32.15-42.94a3.33,3.33,0,1,0-5.34,4l31.61,42.23h0l17.22,23,17.64-9.84-2.54-4.25a30.71,30.71,0,0,0,11.88-4.63C571.57,292.31,571.64,286.42,570,283.53Z"/><path d="M485.24,266.59a4,4,0,0,1-3.26,4.12,3.34,3.34,0,0,0,.6,6.62,3.15,3.15,0,0,0,.61-.06,10.7,10.7,0,0,0,8.72-10.78,3.29,3.29,0,0,0-3.39-3.29A3.34,3.34,0,0,0,485.24,266.59Z"/><path d="M487.41,183.71c-1.76.47-2.81,3-2.34,5.65s2.28,4.4,4.05,3.92,2.81-3,2.34-5.65S489.17,183.23,487.41,183.71Z"/><path d="M511.07,193.28c1.77-.47,2.82-3,2.34-5.65s-2.28-4.4-4-3.92-2.82,3-2.35,5.65S509.31,193.76,511.07,193.28Z"/><path d="M492,208.14a3.34,3.34,0,0,0,3.32,3l.33,0,11.14-1.1-3.84-17.24a3.33,3.33,0,0,0-6.51,1.45l2.2,9.89-3.65.36A3.34,3.34,0,0,0,492,208.14Z"/><path d="M489.73,218.92a3.34,3.34,0,0,0,1.19,4.57,17.74,17.74,0,0,0,24.28-6.29,3.33,3.33,0,1,0-5.75-3.38,11.07,11.07,0,0,1-15.15,3.92A3.35,3.35,0,0,0,489.73,218.92Z"/><polygon class="cls-4" points="394.73 162.74 424.21 144.17 409.26 173.51 447 174.78 414.67 190.77 435.07 208.89 408.92 207.91 422.02 240.26 394.18 218.39 386.39 243.88 376.1 218.21 354.69 238.37 361.57 207.44 329.58 208.01 356.16 190.19 332.23 173.24 361.92 173.04 345.12 141.7 376.65 162.56 389.79 130.65 394.73 162.74"/><path class="cls-7" d="M653.42,548.79a61.52,61.52,0,0,1-39.64-14.28A60,60,0,0,1,592,493.21l-4.46-61.31c-1.19-16.88,9.73-18.59,11-18.73a9.2,9.2,0,0,1,1-.06,9,9,0,0,1,5.92,2.23,14,14,0,0,1,2.79,3.25l-1.84-26c-.63-8.94,3.54-18.45,12.73-19.32.43,0,.84-.06,1.24-.06a11.3,11.3,0,0,1,7.46,2.75,14.81,14.81,0,0,1,2.84,3.3l-.23-3.29c-.68-9.61,5.27-18.64,12.73-19.32.4,0,.8-.06,1.19-.06a11.23,11.23,0,0,1,7.46,2.79c3.6,3.05,6,8.52,6.43,14.63l.76,10.75c2.39-4.91,6.61-7.69,10.83-8,.35,0,.71,0,1.06,0a11.68,11.68,0,0,1,7.85,2.9c3.47,3,5.7,8.29,6.14,14.51l3.44,48.67a25.42,25.42,0,0,1,4-8.08c.28-.37,6.95-9,15.82-9a12.59,12.59,0,0,1,7.72,2.62c4.16,3.14,6.49,9.88.55,19.39-4.11,6.56-2.79,18.11-1.73,27.39.22,1.93.43,3.75.58,5.44A62,62,0,0,1,660,548.45,63.42,63.42,0,0,1,653.42,548.79Z"/><path d="M644.4,360.62a7.22,7.22,0,0,1,4.84,1.83c2.74,2.32,4.66,6.86,5,11.82l4.65,66a2.68,2.68,0,0,0,2.67,2.5h.2a2.68,2.68,0,0,0,2.48-2.86l-3.09-44.07c-.65-9.27,4.16-14.65,9-15l.77,0a7.68,7.68,0,0,1,5.2,1.91c2.62,2.27,4.39,6.66,4.75,11.73l5.57,78.88,0,.3h0a2.67,2.67,0,0,0,2.66,2.49h.2a2.68,2.68,0,0,0,2.49-2.86l-1-13.42c-.69-9.83.93-17.66,4.69-22.62,1.81-2.38,7.08-7.43,12.6-7.43a8.59,8.59,0,0,1,5.28,1.81c3.54,2.66,3.37,7.89-.45,14-4.86,7.76-3.45,20.1-2.31,30,.21,1.9.42,3.7.56,5.33a58,58,0,0,1-51.64,63.56,58.6,58.6,0,0,1-6.19.32,57.9,57.9,0,0,1-37.06-13.35,56,56,0,0,1-20.31-38.53l-4.46-61.25c-.9-12.83,6-14.26,7.39-14.41a4,4,0,0,1,.59,0,5.1,5.1,0,0,1,3.33,1.29c2.6,2.17,4.52,6.85,4.9,11.94l2.3,32.68a2.67,2.67,0,0,0,2.66,2.49H613a2.69,2.69,0,0,0,2.48-2.87l-2.3-32.6V430l-2.67-37.72c-.49-7,2.47-14.38,9.08-15a8.19,8.19,0,0,1,.85,0,7.24,7.24,0,0,1,4.84,1.79c2.71,2.3,4.61,6.84,5,11.87L633.82,442v0a2.68,2.68,0,0,0,2.66,2.5h.2a2.69,2.69,0,0,0,2.49-2.87l-4.66-65.94c-.51-7.24,3.9-14.53,9.07-15,.27,0,.55,0,.81,0m0-8.1h0c-.52,0-1,0-1.57.08-5,.46-9.73,3.68-12.84,8.84a25.19,25.19,0,0,0-3.29,9,15.42,15.42,0,0,0-6.29-1.32h0c-.52,0-1.06,0-1.6.08-10.4,1-17.29,10.93-16.4,23.64l1.19,16.85a12.68,12.68,0,0,0-4-.65,12.41,12.41,0,0,0-1.49.09c-6,.66-15.75,6.27-14.57,23L588,493.45v.11a64,64,0,0,0,23.22,44.08,65.58,65.58,0,0,0,42.22,15.21,68.78,68.78,0,0,0,7-.37,66.06,66.06,0,0,0,58.87-72.38c-.14-1.72-.35-3.53-.57-5.45-.94-8.23-2.22-19.46,1.13-24.82a25,25,0,0,0,4.21-12.33,14.52,14.52,0,0,0-5.75-12.44,16.88,16.88,0,0,0-10.16-3.45c-6.89,0-13,4.23-16.68,7.95L689,393.82c-.51-7.28-3.26-13.58-7.52-17.28a15.87,15.87,0,0,0-10.51-3.89c-.45,0-.91,0-1.37.05a16,16,0,0,0-7.14,2.35l-.1-1.35c-.5-7.17-3.44-13.69-7.84-17.43a15.44,15.44,0,0,0-10.09-3.75Z"/><polyline class="cls-8" points="647.05 499.56 658.77 498.4 653.99 476.92"/><path class="cls-8" d="M642.82,519.84A22.79,22.79,0,0,0,674,511.75"/><path class="cls-4" d="M684.09,456a9.06,9.06,0,0,0-12.73,1.31,9,9,0,1,0-11.4,14l14,11.41,11.4-14A9,9,0,0,0,684.09,456Z"/><path class="cls-4" d="M646.5,459.26a9,9,0,0,0-12.72,1.32,9,9,0,0,0-11.41,14l14,11.4,11.41-14A9,9,0,0,0,646.5,459.26Z"/><polygon class="cls-9" points="213.46 137.87 258.1 106.76 246.32 165.34 293.53 180.64 241.64 200.77 268.23 242.02 216.02 227.89 198.87 280.84 175.26 238.92 129.16 254.27 151.62 203.33 94.63 188.5 150.56 166.05 122.12 124.12 176.18 138.93 193.33 85.98 213.46 137.87"/><path d="M178.59,154.8c-2.39.64-3.82,4.08-3.18,7.67s3.1,6,5.5,5.33,3.82-4.08,3.18-7.67S181,154.15,178.59,154.8Z"/><path d="M210.72,167.8c2.39-.65,3.81-4.08,3.17-7.67s-3.1-6-5.49-5.33-3.82,4.08-3.18,7.67S208.32,168.44,210.72,167.8Z"/><path d="M184.77,188a4.53,4.53,0,0,0,4.5,4.08l.46,0,15.12-1.5-5.21-23.4a4.53,4.53,0,0,0-8.84,2l3,13.42-5,.49A4.55,4.55,0,0,0,184.77,188Z"/><path d="M181.75,202.61a4.53,4.53,0,0,0,1.6,6.2,24.09,24.09,0,0,0,33-8.54,4.53,4.53,0,1,0-7.8-4.6A15,15,0,0,1,187.94,201,4.51,4.51,0,0,0,181.75,202.61Z"/><ellipse class="cls-10" cx="851.77" cy="140.31" rx="161.31" ry="63.9" transform="translate(-4.75 247.93) rotate(-16.52)"/><ellipse class="cls-9" cx="908.72" cy="235.96" rx="161.31" ry="63.9" transform="matrix(0.99, -0.15, 0.15, 0.99, -24.8, 136.04)"/><ellipse class="cls-11" cx="886.81" cy="218.77" rx="19.36" ry="25.26" transform="translate(-26.47 204.41) rotate(-12.96)"/><ellipse class="cls-11" cx="951.85" cy="211.8" rx="16.73" ry="26.71" transform="matrix(0.97, -0.22, 0.22, 0.97, -23.25, 218.82)"/><ellipse cx="898.67" cy="216.04" rx="9.09" ry="13.49" transform="translate(-17.46 93.64) rotate(-5.91)"/><ellipse cx="960.99" cy="205.36" rx="9.04" ry="13.42" transform="translate(-16.03 100) rotate(-5.91)"/><path d="M799.11,144.08a15.46,15.46,0,0,1-7.39-1.85,20.64,20.64,0,0,1-10.53,2.57h-.38a28.54,28.54,0,0,1-11.08-1.93q-4.59-1.94-4.59-7.93a21.28,21.28,0,0,1,1.57-7.34c.22-.64.59-.95,1.1-.95a.86.86,0,0,1,.69.31,1.25,1.25,0,0,1,.26.83,2.14,2.14,0,0,1,0,.48,11.42,11.42,0,0,0-.43,2.95,5.07,5.07,0,0,0,2,4.41,9.89,9.89,0,0,0,4.59,1.78,46,46,0,0,0,6,.34h.43c1.3,0,2.87-.07,4.71-.19a9.54,9.54,0,0,1-1.95-5.63,11.87,11.87,0,0,1,3.65-8,5.61,5.61,0,0,1,3.88-1.59,5.47,5.47,0,0,1,3.53,1.31,9.15,9.15,0,0,1,2.57,3.5,11.68,11.68,0,0,1,.95,4.67,10.52,10.52,0,0,1-1.57,5.15c.44,0,1.19,0,2.24,0h2l0,7.05ZM787.94,134a9,9,0,0,0,4.26,2.19c2.26-.89,3.54-2.12,3.86-3.71a4.55,4.55,0,0,0-1.55-2.39,4.7,4.7,0,0,0-3-1.28,5.51,5.51,0,0,0-2.43.33,4.63,4.63,0,0,0-1.74,1.14,2.17,2.17,0,0,0-.64,1.39A3.79,3.79,0,0,0,787.94,134Zm.12-18a.77.77,0,0,1,.28-.52l2.67-2.72a.69.69,0,0,1,.48-.24.55.55,0,0,1,.43.24l2.71,2.72c.22.19.33.35.33.47s-.11.29-.33.48L792,119.21a.57.57,0,0,1-.43.19.68.68,0,0,1-.42-.19l-2.77-2.76C788.15,116.29,788.06,116.15,788.06,116Z"/><path d="M798.06,150.14c0-.1.1-.24.29-.43l2.47-2.48a.68.68,0,0,1,.43-.24.5.5,0,0,1,.38.24l2.53,2.48c.19.19.29.33.29.43a1.45,1.45,0,0,1-.29.47l-2.48,2.48a.52.52,0,0,1-.38.19.69.69,0,0,1-.38-.19l-2.57-2.48A.8.8,0,0,1,798.06,150.14ZM817.31,137v7.05h-.24a8.75,8.75,0,0,1-4.33-.9,6.06,6.06,0,0,1-2.48-2.91,8.79,8.79,0,0,1-3.57,2.65,13,13,0,0,1-5.53,1.16H801V137h.19a32,32,0,0,0,4.5-.31,8.45,8.45,0,0,0,3.22-.93l-1-4.43,3.2-2.67a.61.61,0,0,1,.43-.19c.15,0,.27.13.33.39l.76,5a5.59,5.59,0,0,0,.57,1.88,2.26,2.26,0,0,0,1.27.95,8.11,8.11,0,0,0,2.59.31ZM805,150.14c0-.1.1-.24.29-.43l2.47-2.48a.68.68,0,0,1,.43-.24.5.5,0,0,1,.38.24l2.53,2.48c.19.19.29.33.29.43a1.45,1.45,0,0,1-.29.47l-2.48,2.48a.53.53,0,0,1-.38.19.69.69,0,0,1-.38-.19l-2.57-2.48A.8.8,0,0,1,805,150.14Z"/><path d="M835.32,144.08a16.28,16.28,0,0,1-7.76-2,17.05,17.05,0,0,1-8.34,2h-2.29L817,137h2.86c.95,0,1.63,0,2,0a9.36,9.36,0,0,1-1.58-5.06,12,12,0,0,1,3.65-8,5.61,5.61,0,0,1,3.88-1.59,5.47,5.47,0,0,1,3.53,1.31,9,9,0,0,1,2.57,3.5,11.51,11.51,0,0,1,.95,4.67,7.81,7.81,0,0,1-.45,2.41,12.11,12.11,0,0,1-1.31,2.69q1.53.09,2.43.09h2l.05,7.05ZM824,133.94a8.28,8.28,0,0,0,3.86,2.14,9.32,9.32,0,0,0,3.1-1.6,3.4,3.4,0,0,0,1.28-2,4.55,4.55,0,0,0-1.55-2.39,4.7,4.7,0,0,0-3-1.28,5.51,5.51,0,0,0-2.43.33,4.63,4.63,0,0,0-1.74,1.14,2.13,2.13,0,0,0-.65,1.39A3.76,3.76,0,0,0,824,133.94Zm.05-17.44a.79.79,0,0,1,.28-.53l2.67-2.71a.69.69,0,0,1,.48-.24.55.55,0,0,1,.43.24l2.71,2.71c.22.19.34.35.34.48s-.12.28-.34.48L828,119.69a.57.57,0,0,1-.42.19.7.7,0,0,1-.43-.19l-2.77-2.76A.64.64,0,0,1,824.08,116.5Z"/><path d="M866.53,137v7.05h-.38a8,8,0,0,1-5.19-1.47c-1.21-1-1.93-2.62-2.15-4.91-1.74.79-2.81,1.29-3.19,1.48q-3.43,1.62-5.88,2.57a38,38,0,0,1-5.58,1.64,30.94,30.94,0,0,1-6.69.69h-.24V137h.24a45.54,45.54,0,0,0,8.81-.71q3.48-.72,7.63-2a40.08,40.08,0,0,1,4.05-1.19q-4.25-1.15-7.34-1.86a23,23,0,0,0-4.86-.72,4.49,4.49,0,0,0-2.34.48,8.8,8.8,0,0,0-1.71,1.52,1.15,1.15,0,0,1-.81.39,1.1,1.1,0,0,1-.84-.41,1.19,1.19,0,0,1-.26-1Q841.33,124,847,124a12.61,12.61,0,0,1,3.52.55q1.9.54,4.91,1.69c1.91.7,3.47,1.24,4.7,1.62a21.84,21.84,0,0,0,3.64.81c.51.09.76.31.76.66a3,3,0,0,1-.24.81l-1.71,6.15-.24.1c.38.44,1.41.66,3.1.66Zm-22.82-18.77a.77.77,0,0,1,.28-.52l2.67-2.72a.69.69,0,0,1,.48-.24.55.55,0,0,1,.43.24l2.71,2.72c.23.19.34.35.34.47s-.11.29-.34.48l-2.66,2.76a.59.59,0,0,1-.43.19.7.7,0,0,1-.43-.19L844,118.69C843.8,118.53,843.71,118.39,843.71,118.26Z"/><path d="M878.18,128.91a25.39,25.39,0,0,1,.69,5.74,18.65,18.65,0,0,1-.14,2.29,7.54,7.54,0,0,1-3.48,5.17c-2,1.32-4.92,2-8.86,2h-.14l0-7.05h.19a49.85,49.85,0,0,0,5.91-.28,6.93,6.93,0,0,0,3.33-1.1q-1.95-3.85-4-7.15l3.62-4a1.31,1.31,0,0,1,.81-.48.81.81,0,0,1,.67.48A17.86,17.86,0,0,1,878.18,128.91Zm-11.55-10.56c0-.09.09-.23.28-.42l2.48-2.48a.65.65,0,0,1,.43-.24.51.51,0,0,1,.38.24l2.53,2.48c.19.19.28.33.28.42a1.26,1.26,0,0,1-.28.48l-2.48,2.48a.55.55,0,0,1-.38.19.64.64,0,0,1-.38-.19l-2.58-2.48A.77.77,0,0,1,866.63,118.35Zm6.86,0c0-.09.09-.23.28-.42l2.48-2.48a.65.65,0,0,1,.43-.24.51.51,0,0,1,.38.24l2.53,2.48c.19.19.28.33.28.42a1.26,1.26,0,0,1-.28.48l-2.48,2.48a.55.55,0,0,1-.38.19.66.66,0,0,1-.38-.19l-2.58-2.48A.77.77,0,0,1,873.49,118.35Z"/><path d="M890.74,117.35l3.76-3.76a.31.31,0,0,1,.29-.14.45.45,0,0,1,.33.14l3.72,3.76a.55.55,0,0,1,.12.29.4.4,0,0,1-.12.33l-3.72,3.77c-.26.16-.46.16-.62,0L890.74,118A.41.41,0,0,1,890.74,117.35Zm1,25.16a3.31,3.31,0,0,1-.5-1.67,2.3,2.3,0,0,1,.19-1q2.81-6.44,5.88-12.48t6.94-13.11c.19-.38.43-.57.71-.57a.88.88,0,0,1,.57.34,18.07,18.07,0,0,1,1.46,2,3.18,3.18,0,0,1,.5,1.67,2,2,0,0,1-.24,1l-2.1,4.1q-1,2-4.43,8.69t-6.24,12.8c-.22.38-.46.57-.71.57a.79.79,0,0,1-.62-.34A16.59,16.59,0,0,1,891.76,142.51Zm7.89-2.14,3.66-3.72a.57.57,0,0,1,.34-.16.35.35,0,0,1,.33.16l3.72,3.72a.47.47,0,0,1,.14.33.34.34,0,0,1-.14.29L904,144.75a.44.44,0,0,1-.33.15.46.46,0,0,1-.34-.15L899.65,141C899.39,140.8,899.39,140.59,899.65,140.37Z"/><path d="M933.9,116.21a15.71,15.71,0,0,1-.78,4.88,10,10,0,0,1-2.5,4.1,6.83,6.83,0,0,1-4.29,1.93,8.41,8.41,0,0,1-1.05,0,10.28,10.28,0,0,1-3.1-.48,55.88,55.88,0,0,1,.62,8,39.06,39.06,0,0,1-.66,7.29,7.82,7.82,0,0,1-.46,1.33c-.2.48-.42.94-.64,1.38-.32.64-.73,1-1.24,1a.77.77,0,0,1-.62-.31,1.25,1.25,0,0,1-.19-.88l0-1.67a51.25,51.25,0,0,0-1.62-12.63,52.49,52.49,0,0,0-4.48-11.77l4.38-4.62a1.52,1.52,0,0,1,.86-.43q.48,0,.81.81l0,.14.09.2a8.93,8.93,0,0,0,2.77,4.21,7,7,0,0,0,4.38,1.31,5.13,5.13,0,0,0,4.15-1.59,5.94,5.94,0,0,0,1.33-3.93,1.2,1.2,0,0,1,.31-.86,1,1,0,0,1,.74-.34c.57,0,.9.39,1,1.15A12.44,12.44,0,0,1,933.9,116.21Z"/><path d="M941.84,140.75a7.14,7.14,0,0,1-2.55-2.57,6.63,6.63,0,0,1-.95-3.43,6.7,6.7,0,0,1,.95-3.51,7,7,0,0,1,2.55-2.52,6.64,6.64,0,0,1,3.4-.93,6.85,6.85,0,0,1,3.51.93,7.16,7.16,0,0,1,2.55,2.52,6.8,6.8,0,0,1,1,3.51,6.73,6.73,0,0,1-1,3.43,7.22,7.22,0,0,1-2.58,2.57,6.7,6.7,0,0,1-3.48.95A6.47,6.47,0,0,1,941.84,140.75Zm5.55-3.88a2.87,2.87,0,0,0,.9-2.12,2.84,2.84,0,0,0-.9-2.12,3,3,0,0,0-2.15-.89,2.88,2.88,0,0,0-2.09.91,3,3,0,0,0,2.09,5.1A3,3,0,0,0,947.39,136.87Z"/><ellipse cx="924.27" cy="262.23" rx="11.59" ry="19.43" transform="translate(-28.49 138.61) rotate(-8.45)"/></g></svg>