<svg xmlns="http://www.w3.org/2000/svg" viewBox="0 0 648 648"><defs><style>.cls-1{fill:#ff5c35;}.cls-2{fill:#fff;}</style></defs><g id="Layer_1" data-name="Layer 1"><rect width="648" height="648"/><rect class="cls-1" width="45.36" height="45.36"/><polygon points="19.44 19.44 12.96 19.44 12.96 6.48 6.48 6.48 6.48 38.88 12.96 38.88 12.96 25.92 19.44 25.92 19.44 38.88 25.92 38.88 25.92 6.48 19.44 6.48 19.44 19.44"/><rect x="32.4" y="6.48" width="6.48" height="32.4"/><rect class="cls-1" x="602.64" width="45.36" height="45.36"/><polygon points="622.08 19.44 615.6 19.44 615.6 6.48 609.12 6.48 609.12 38.88 615.6 38.88 615.6 25.92 622.08 25.92 622.08 38.88 628.56 38.88 628.56 6.48 622.08 6.48 622.08 19.44"/><rect x="635.04" y="6.48" width="6.48" height="32.4"/><rect class="cls-1" y="602.64" width="45.36" height="45.36"/><polygon points="19.44 622.08 12.96 622.08 12.96 609.12 6.48 609.12 6.48 641.52 12.96 641.52 12.96 628.56 19.44 628.56 19.44 641.52 25.92 641.52 25.92 609.12 19.44 609.12 19.44 622.08"/><rect x="32.4" y="609.12" width="6.48" height="32.4"/><rect class="cls-1" x="602.64" y="602.64" width="45.36" height="45.36"/><polygon points="622.08 622.08 615.6 622.08 615.6 609.12 609.12 609.12 609.12 641.52 615.6 641.52 615.6 628.56 622.08 628.56 622.08 641.52 628.56 641.52 628.56 609.12 622.08 609.12 622.08 622.08"/><rect x="635.04" y="609.12" width="6.48" height="32.4"/><path class="cls-1" d="M600.64,47.36V600.64H47.36V47.36H600.64m2-2H45.36V602.64H602.64V45.36Z"/><path class="cls-2" d="M192.33,312.55a6.5,6.5,0,0,0-3-4.89,11.55,11.55,0,0,0-6.51-1.75,12.32,12.32,0,0,0-4.93.92,7.74,7.74,0,0,0-3.27,2.5,6,6,0,0,0-1.17,3.63,5,5,0,0,0,.82,2.91,6.87,6.87,0,0,0,2.1,2,14.58,14.58,0,0,0,2.7,1.3c.94.34,1.8.61,2.59.82l4.31,1.16c1.1.29,2.34.69,3.7,1.2a17.46,17.46,0,0,1,3.92,2.09,10.87,10.87,0,0,1,3.1,3.36,9.75,9.75,0,0,1,1.22,5,11.25,11.25,0,0,1-1.79,6.22,12.47,12.47,0,0,1-5.23,4.42,19.23,19.23,0,0,1-8.32,1.63,19.42,19.42,0,0,1-7.89-1.47,12.47,12.47,0,0,1-5.22-4.1,11.69,11.69,0,0,1-2.15-6.12h5.31a6.53,6.53,0,0,0,1.63,4,8.41,8.41,0,0,0,3.6,2.32,14.2,14.2,0,0,0,4.72.76,13.8,13.8,0,0,0,5.28-1,9,9,0,0,0,3.72-2.7,6.33,6.33,0,0,0,1.36-4.05,5,5,0,0,0-1.18-3.44,8.56,8.56,0,0,0-3.11-2.16,33.73,33.73,0,0,0-4.16-1.45l-5.23-1.49a19.51,19.51,0,0,1-7.87-4.09,8.93,8.93,0,0,1-2.91-6.94,10.32,10.32,0,0,1,1.94-6.23,12.74,12.74,0,0,1,5.23-4.14,17.6,17.6,0,0,1,7.34-1.49,17.27,17.27,0,0,1,7.3,1.47,12.7,12.7,0,0,1,5.07,4,10,10,0,0,1,2,5.74Z"/><path class="cls-2" d="M208.09,344.39H202.7l15.58-42.46h5.31l15.59,42.46h-5.39L221.1,308.65h-.33Zm2-16.59H231.8v4.56H210.08Z"/><path class="cls-2" d="M245.81,344.39V301.93h25.46v4.56H251v14.35h18.41v4.56H251v19Z"/><path class="cls-2" d="M280.06,344.39V301.93h25.62v4.56H285.2v14.35h19.15v4.56H285.2v14.43H306v4.56Z"/><path class="cls-2" d="M330,344.39v-3.73l22.88-34.17H329.72v-4.56H359v3.74L336.1,339.83h23.14v4.56Z"/><path class="cls-2" d="M401.69,323.16a26,26,0,0,1-2.42,11.61,18.17,18.17,0,0,1-6.66,7.54,18.87,18.87,0,0,1-19.32,0,18.15,18.15,0,0,1-6.65-7.54,28.95,28.95,0,0,1,0-23.22,18.21,18.21,0,0,1,6.65-7.54,18.87,18.87,0,0,1,19.32,0,18.23,18.23,0,0,1,6.66,7.54A26,26,0,0,1,401.69,323.16Zm-5,0a21.31,21.31,0,0,0-1.84-9.31,13.42,13.42,0,0,0-4.95-5.74,13.45,13.45,0,0,0-13.95,0,13.51,13.51,0,0,0-5,5.74,24.6,24.6,0,0,0,0,18.62,13.51,13.51,0,0,0,5,5.74,13.45,13.45,0,0,0,13.95,0,13.42,13.42,0,0,0,4.95-5.74A21.31,21.31,0,0,0,396.72,323.16Z"/><path class="cls-2" d="M444,301.93v42.46h-5l-23.13-33.33h-.42v33.33h-5.14V301.93h5l23.21,33.42h.42V301.93Z"/><path class="cls-2" d="M454.26,344.39V301.93h25.62v4.56H459.4v14.35h19.15v4.56H459.4v14.43h20.81v4.56Z"/></g></svg>