<svg xmlns="http://www.w3.org/2000/svg" xmlns:xlink="http://www.w3.org/1999/xlink" viewBox="0 0 648 648"><defs><style>.cls-1{fill:none;}.cls-2{fill:#ff5e3f;}.cls-3{clip-path:url(#clip-path);}.cls-4{fill:#fff;}.cls-5{fill:#fd5d41;}</style><clipPath id="clip-path"><rect class="cls-1" x="924" width="1152" height="648"/></clipPath></defs><g id="Layer_1" data-name="Layer 1"><rect width="648" height="648"/><rect class="cls-2" x="322.63" y="184.64" width="280.04" height="418"/><rect class="cls-2" x="45.36" y="45.36" width="417.29" height="98.64" rx="25.76"/><circle class="cls-2" cx="159.97" cy="488.03" r="114.61"/><g class="cls-3"><path class="cls-4" d="M455.05,324h-1.49V684.33h1075V324H455.05Z"/><path d="M570.48,429.67c.08,0,.15.09.21.29a2.12,2.12,0,0,1,.08.62V432a2.17,2.17,0,0,1-.08.62c-.06.17-.13.25-.21.25h-1q-4.79,0-6.16-2.5c.17,2.67.25,4.73.25,6.2a3.42,3.42,0,0,1-1.7,2.79,12,12,0,0,1-4.54,1.83,26.56,26.56,0,0,1-6.16.67q-5,0-7.28-1.83c-1.53-1.2-2.29-3-2.29-5.54a32.35,32.35,0,0,1,.33-3.24c.25-1.7.57-3.79,1-6.29l.42-2.62,2,.38a101.78,101.78,0,0,0-1.53,11.52,3.64,3.64,0,0,0,1.91,3.42,11.37,11.37,0,0,0,5.45,1.08q7.49,0,10.28-2.42L560,420.35l2.45-.5.58,6.57a3.19,3.19,0,0,0,.92,2.17,4.4,4.4,0,0,0,2,.87,20.62,20.62,0,0,0,3.29.21Zm-18.27-16.36,2.58,2-2,2.5-2.58-2Zm49.54,16.36c.06,0,.11.09.17.29a2.12,2.12,0,0,1,.08.62V432a2.17,2.17,0,0,1-.08.62c-.06.17-.11.25-.17.25h-2.49a5.41,5.41,0,0,1-2.71-.62,3.61,3.61,0,0,1-1.5-1.75,4.17,4.17,0,0,1-2.24,1.83,9.41,9.41,0,0,1-3.21.54,6.44,6.44,0,0,1-2.62-.5,2.68,2.68,0,0,1-1.46-1.46,3.12,3.12,0,0,1-1.91,1.5,7.51,7.51,0,0,1-2.46.46,6.19,6.19,0,0,1-2.7-.54,3.24,3.24,0,0,1-1.58-1.46,5,5,0,0,1-2.54,1.5,14,14,0,0,1-3.83.5c-.17,0-.25-.29-.25-.87v-1.38c0-.61.08-.91.25-.91a22.31,22.31,0,0,0,3-.17,5.71,5.71,0,0,0,2.2-.87l.17-6.83h2.29l-.17,5.45c-.06,1.61.94,2.42,3,2.42a6.89,6.89,0,0,0,3.53-.75l-.25-8.74,2.29,0,.17,8.74a3.49,3.49,0,0,0,2.58.79,7.91,7.91,0,0,0,4.12-.84l-.67-10.36,2.37-.45.21,4.07.25,4.12a4,4,0,0,0,.88,2.67,4.07,4.07,0,0,0,2.83.79Zm-17.31-23.56,2.41,1.88-1.91,2.41-2.41-1.87Zm-2.37,5.16,2.41,1.92-1.87,2.41-2.41-1.91Zm4.78,0,2.42,1.92-1.87,2.41L585,413.69Zm28.88,18.4c.06,0,.11.09.17.29a2.12,2.12,0,0,1,.08.62V432a2.17,2.17,0,0,1-.08.62c-.06.17-.11.25-.17.25a13.62,13.62,0,0,1-4.62-.62,3.64,3.64,0,0,1-2.12-1.84c-.94,1.64-3.36,2.46-7.24,2.46-.17,0-.25-.29-.25-.87v-1.38c0-.61.08-.91.25-.91a18.34,18.34,0,0,0,3.54-.29,7.21,7.21,0,0,0,2.58-1.09l-.75-8.4,2.37-.29.58,8.82Q611.78,429.67,615.73,429.67Zm-9.86,7.78,2.41,1.91-1.91,2.46-2.46-1.92Zm4.83,0,2.45,1.91-1.95,2.46-2.42-1.92Zm24-7.78c.08,0,.15.09.2.29a1.81,1.81,0,0,1,.09.62V432a1.85,1.85,0,0,1-.09.62c0,.17-.12.25-.2.25h-2.17q-3.66,0-4.53-2.46-2.5,2.46-12.28,2.46c-.17,0-.25-.29-.25-.87v-1.38c0-.61.08-.91.25-.91a55.89,55.89,0,0,0,6.45-.34,16.87,16.87,0,0,0,4.54-1.08,18,18,0,0,0-1.17-5.91,15.69,15.69,0,0,0-3.25-5,32.06,32.06,0,0,0-5.95-4.91l.21-2.83c2.44-1.19,4.72-2.24,6.83-3.12s4.37-1.75,6.7-2.5l.33,2.66a66,66,0,0,0-11.15,4.58,2.07,2.07,0,0,1,.54.38q5.21,3.82,7,7.74a19.77,19.77,0,0,1,2,7.86,2.89,2.89,0,0,0,1.08,2,5.29,5.29,0,0,0,2.46.46Zm14,0c.06,0,.11.09.17.29a2.12,2.12,0,0,1,.08.62V432a2.17,2.17,0,0,1-.08.62c-.06.17-.11.25-.17.25a13.54,13.54,0,0,1-4.62-.62,3.64,3.64,0,0,1-2.12-1.84c-.94,1.64-3.36,2.46-7.24,2.46-.17,0-.25-.29-.25-.87v-1.38c0-.61.08-.91.25-.91a18.41,18.41,0,0,0,3.54-.29,7.21,7.21,0,0,0,2.58-1.09l-.75-8.4,2.37-.29.58,8.82C644.17,429.25,646.05,429.67,648.69,429.67Zm-9.86,7.78,2.41,1.91-1.91,2.46-2.46-1.92Zm4.82,0,2.46,1.91-2,2.46-2.41-1.92Zm20.93-7.78c.09,0,.16.09.21.29a1.83,1.83,0,0,1,.08.62V432a1.87,1.87,0,0,1-.08.62c0,.17-.12.25-.21.25a15.41,15.41,0,0,1-5.36-.71,3.4,3.4,0,0,1-2.17-2,4.75,4.75,0,0,1-2.87,2.09,19.94,19.94,0,0,1-5.49.62c-.17,0-.25-.29-.25-.87v-1.38c0-.61.08-.91.25-.91a33,33,0,0,0,4.45-.25,5.23,5.23,0,0,0,2.7-1.17L655,404.37l2.54-.42.46,22.26a3,3,0,0,0,1.41,2.67,8.6,8.6,0,0,0,4.08.79Zm9.9-11.65c.28,4.82.42,8.17.42,10a3.48,3.48,0,0,1-.54,1.84,3.92,3.92,0,0,1-1.5,1.37,15.2,15.2,0,0,1-3.79,1.21,27.3,27.3,0,0,1-4.49.37c-.17,0-.25-.29-.25-.87v-1.38c0-.61.08-.91.25-.91,3.8,0,6.52-.52,8.15-1.54l-.7-9.66Zm-8.41,19.43,2.42,1.91-1.87,2.42-2.42-1.92Zm4.79,0,2.41,1.91-1.87,2.42L669,439.86Zm-2.33,5.2,2.41,1.91L669,446.94l-2.41-1.88Zm12.28-38.28,2.5-.42.38,28.88-2.13.33Zm43.28,25.3c.08,0,.15.09.21.29a2.12,2.12,0,0,1,.08.62V432a2.17,2.17,0,0,1-.08.62c-.06.17-.13.25-.21.25h-1q-4.78,0-6.16-2.5c.17,2.67.25,4.73.25,6.2a3.42,3.42,0,0,1-1.7,2.79,12,12,0,0,1-4.54,1.83,26.56,26.56,0,0,1-6.16.67q-5,0-7.28-1.83c-1.53-1.2-2.29-3-2.29-5.54a32.35,32.35,0,0,1,.33-3.24c.25-1.7.57-3.79,1-6.29l.42-2.62,2,.38a101.78,101.78,0,0,0-1.53,11.52,3.64,3.64,0,0,0,1.91,3.42,11.37,11.37,0,0,0,5.45,1.08q7.49,0,10.28-2.42l-1.37-15.93,2.45-.5.58,6.57a3.19,3.19,0,0,0,.92,2.17,4.4,4.4,0,0,0,2,.87,20.62,20.62,0,0,0,3.29.21Zm-18.27-16.36,2.58,2-2,2.5-2.58-2ZM734,418c.28,4.82.42,8.17.42,10a3.48,3.48,0,0,1-.54,1.84,3.78,3.78,0,0,1-1.5,1.37,15.07,15.07,0,0,1-3.79,1.21,27.3,27.3,0,0,1-4.49.37c-.17,0-.25-.29-.25-.87v-1.38c0-.61.08-.91.25-.91,3.8,0,6.52-.52,8.16-1.54l-.71-9.66Zm-8.4,19.43,2.41,1.91-1.91,2.46-2.46-1.92Zm4.83,0,2.45,1.91-1.95,2.46-2.42-1.92Zm9.91-33.08,2.5-.42.37,28.88-2.12.33ZM757,433a2,2,0,0,1-1.5-.63,2.33,2.33,0,0,1,0-3.08,2.08,2.08,0,0,1,1.5-.62,2,2,0,0,1,1.54.62,2,2,0,0,1,.63,1.54A2.15,2.15,0,0,1,757,433Zm42.72-3.33s.11.09.16.29a1.81,1.81,0,0,1,.09.62V432a1.85,1.85,0,0,1-.09.62c0,.17-.11.25-.16.25a14.48,14.48,0,0,1-5-.67,3.59,3.59,0,0,1-2.21-1.74,3,3,0,0,1-1.16.87,15.58,15.58,0,0,1-2,.67,34.81,34.81,0,0,1-4.79.79,54.54,54.54,0,0,1-5.57.29,39,39,0,0,1-7.12-.54,8.93,8.93,0,0,1-4.45-2.13,5.81,5.81,0,0,1-1.58-4.36,22.5,22.5,0,0,1,.25-2.67c.19-1.27.47-3,.83-5.32l2,.41a65.12,65.12,0,0,0-.92,7.12,3.19,3.19,0,0,0,1.38,2.79,8.5,8.5,0,0,0,3.7,1.24,45.86,45.86,0,0,0,5.78.3,66.85,66.85,0,0,0,7.37-.38,24.61,24.61,0,0,0,5.49-1.21l-.62-7.82,2.37-.29.46,8.36a4.55,4.55,0,0,0,2.12.92A24.32,24.32,0,0,0,799.71,429.67Zm-22.06-16.4,2.42,1.92-1.92,2.45-2.45-1.91Zm4.83,0,2.46,1.92-2,2.45-2.41-1.91ZM824.29,418c.28,4.49.42,8,.42,10.48a3.53,3.53,0,0,1-1.79,3.29,8.11,8.11,0,0,1-4.12,1,6.49,6.49,0,0,1-2.63-.5,2.66,2.66,0,0,1-1.45-1.46,3.11,3.11,0,0,1-1.92,1.5,7.41,7.41,0,0,1-2.45.46,6.21,6.21,0,0,1-2.71-.54,3.33,3.33,0,0,1-1.58-1.46,4.91,4.91,0,0,1-2.54,1.5,14,14,0,0,1-3.82.5c-.17,0-.25-.29-.25-.87v-1.38c0-.61.08-.91.25-.91a22.14,22.14,0,0,0,2.95-.17,5.75,5.75,0,0,0,2.21-.87l.16-6.83h2.29l-.17,5.45c0,1.61,1,2.42,3,2.42a6.9,6.9,0,0,0,3.54-.75l-.25-8.74,2.29,0,.16,8.74a3.49,3.49,0,0,0,2.58.79,7.91,7.91,0,0,0,4.12-.84l-.66-10.36Zm6.32-13.65,2.49-.42.38,28.88-2.13.33ZM850.78,433a7.41,7.41,0,0,1-4.16-1.13,4.27,4.27,0,0,1-1.66-3.78,8.6,8.6,0,0,1,1.37-4.25,25.83,25.83,0,0,1,3.37-4.53L848,418.1l1.41-2.12a21.58,21.58,0,0,1,6.37,5.91,11.91,11.91,0,0,1,2.29,6.94,4.75,4.75,0,0,1-.5,2.34,9.58,9.58,0,0,1-.58.79,1.27,1.27,0,0,1-.59.45,6.74,6.74,0,0,1-2.16.5C853.35,433,852.2,433,850.78,433Zm.09-3.16c1.39,0,2.43,0,3.12-.05a10.85,10.85,0,0,0,1.91-.29,11.72,11.72,0,0,0-.79-4.45,10.47,10.47,0,0,0-3.74-4.45,16.22,16.22,0,0,0-3,3.62,7.33,7.33,0,0,0-1.33,3.24C847.08,429.08,848.34,429.88,850.87,429.88Zm34.08-.21s.11.09.16.29a1.81,1.81,0,0,1,.09.62V432a1.85,1.85,0,0,1-.09.62c-.05.17-.11.25-.16.25h-1q-4.5,0-5.37-3.16a3.09,3.09,0,0,1-1.33,1.54,13.47,13.47,0,0,1-4,1.58,19.35,19.35,0,0,1-4.78.66,6.53,6.53,0,0,1-2.88-.5,2.66,2.66,0,0,1-1.41-1.62,10.1,10.1,0,0,1-.42-3.29c0-.66,0-1.17,0-1.54l2,.13v.71a8.5,8.5,0,0,0,.17,2,1.13,1.13,0,0,0,.79.74,8,8,0,0,0,2,.17,19,19,0,0,0,4.95-.66,10.91,10.91,0,0,0,3.79-1.71l-3.08-12.86,2.37-1.33L879.08,425a13.61,13.61,0,0,0,1,3.33,2.42,2.42,0,0,0,1.5,1.17A18.1,18.1,0,0,0,885,429.67ZM909.55,418c.27,4.49.41,8,.41,10.48a3.51,3.51,0,0,1-1.79,3.29,8,8,0,0,1-4.11,1,6.49,6.49,0,0,1-2.63-.5,2.66,2.66,0,0,1-1.45-1.46,3.14,3.14,0,0,1-1.92,1.5,7.46,7.46,0,0,1-2.45.46,6.21,6.21,0,0,1-2.71-.54,3.24,3.24,0,0,1-1.58-1.46,4.91,4.91,0,0,1-2.54,1.5,14,14,0,0,1-3.83.5q-.24,0-.24-.87v-1.38c0-.61.08-.91.24-.91a22.31,22.31,0,0,0,3-.17,5.71,5.71,0,0,0,2.2-.87l.17-6.83h2.29l-.17,5.45c0,1.61,1,2.42,3,2.42a7,7,0,0,0,3.54-.75l-.25-8.74,2.29,0,.16,8.74a3.49,3.49,0,0,0,2.58.79,7.91,7.91,0,0,0,4.12-.84l-.66-10.36Zm-10.7-11.91,2.42,1.88-1.92,2.41-2.41-1.87Zm-2.37,5.16,2.42,1.92L897,415.6l-2.41-1.91Zm4.79,0,2.41,1.92-1.87,2.41-2.42-1.91Zm41.67,18.4c.09,0,.15.09.21.29a2.12,2.12,0,0,1,.08.62V432a2.17,2.17,0,0,1-.08.62c-.06.17-.12.25-.21.25H939.2a8.39,8.39,0,0,1-4.66-1.08,8,8,0,0,1-2.46-2.75,19.77,19.77,0,0,0-4.41,2.54,11.72,11.72,0,0,0-2.91,3,9.74,9.74,0,0,0-.5,1.41,8.26,8.26,0,0,0-.13,1.46,7.22,7.22,0,0,0,2.54,5.91,10.8,10.8,0,0,0,7,2.08,21.82,21.82,0,0,0,7.53-1.29l-.37,3.08a18.53,18.53,0,0,1-7.16,1.37,14.33,14.33,0,0,1-6.12-1.25,10,10,0,0,1-4.12-3.49,9.45,9.45,0,0,1-1.45-5.25,11.28,11.28,0,0,1,2-6.57,15.11,15.11,0,0,1,5.74-4.83c-1.64-2.47-2.8-4.2-3.5-5.2a10.82,10.82,0,0,0-1.45-1.83.84.84,0,0,0-.79-.29l-1,.21.2-2.63a50.7,50.7,0,0,1,10.49-.87q6.45,0,6.45,2.66v.88a5.32,5.32,0,0,1-.92,2.37,18.32,18.32,0,0,1-2.16,2.95,12,12,0,0,1-2.29,2.17,6.74,6.74,0,0,0,1.71,1.5,6.12,6.12,0,0,0,2.87.54Zm-10.69-2.87a15.68,15.68,0,0,0,3.49-3.08,8.91,8.91,0,0,0,2.21-3.67c-.31-.49-1.87-.74-4.7-.74-1.25,0-2.49,0-3.71.12a21.65,21.65,0,0,0-2.66.25,6.78,6.78,0,0,1,1.5,1.62Q929.37,422.59,932.25,426.8Zm41,2.87c.05,0,.11.09.16.29a1.81,1.81,0,0,1,.09.62V432a1.85,1.85,0,0,1-.09.62c-.05.17-.11.25-.16.25a8.12,8.12,0,0,1-3.41-.62A5.09,5.09,0,0,1,967.7,430a14.27,14.27,0,0,1-5.12,2,35.24,35.24,0,0,1-7.94.79h-11.7c-.16,0-.25-.29-.25-.87v-1.38c0-.61.09-.91.25-.91h3.75a26,26,0,0,0,1.75-2.25,4.06,4.06,0,0,0,.7-1.75,23.86,23.86,0,0,0,.21-4q0-3.33-.46-17.31l2.42-.42.29,15.52a17.63,17.63,0,0,1-.33,4.54,36.22,36.22,0,0,1,5.57-4.95,9.29,9.29,0,0,1,5.29-2,6.2,6.2,0,0,1,5.28,2.29c1.2,1.52,1.79,3.76,1.79,6.7a8.76,8.76,0,0,1-.17,1.83,2.68,2.68,0,0,0,1.54,1.41A8.42,8.42,0,0,0,973.28,429.67Zm-18.6,0q7.58,0,12.19-2.08a21.79,21.79,0,0,0-.33-4.16,4.9,4.9,0,0,0-1.38-2.67,4.22,4.22,0,0,0-3-1q-2.42,0-5.87,2.71a46.27,46.27,0,0,0-7.12,7.2Zm27.61-17.06a4.76,4.76,0,0,1,4.74,3.28,18.87,18.87,0,0,1,1.38,7.37,39.79,39.79,0,0,1-.21,4.74,6.06,6.06,0,0,1-.75,2.46,3.69,3.69,0,0,1-1.66,1.25,16,16,0,0,1-4.08.87c-1.64.17-4.45.25-8.45.25-.17,0-.25-.29-.25-.87v-1.38c0-.61.08-.91.25-.91q5.63,0,8.41-.21a14.24,14.24,0,0,0,4.28-.83,19.19,19.19,0,0,0,.17-2.92,23.82,23.82,0,0,1-5,.46,12.14,12.14,0,0,1-2.79-.29,3.48,3.48,0,0,1-1.87-1.16,3.82,3.82,0,0,1-.63-1.05,4.28,4.28,0,0,1-.16-1.37,15,15,0,0,1,.66-4.2,9.86,9.86,0,0,1,2.12-3.87A4.94,4.94,0,0,1,982.29,412.61ZM978,422.8a7.8,7.8,0,0,0,3.46.63,18.76,18.76,0,0,0,4.74-.46q0-7.7-4.16-7.7a3.36,3.36,0,0,0-3,2.12A11.92,11.92,0,0,0,978,422.8Zm1.46-19.22,2.41,1.91L979.92,408,977.46,406Zm4.83,0,2.45,1.91-2,2.46L982.33,406Zm49.94,26.09s.11.09.16.29a1.81,1.81,0,0,1,.09.62V432a1.85,1.85,0,0,1-.09.62c0,.17-.11.25-.16.25a14.48,14.48,0,0,1-5-.67,3.59,3.59,0,0,1-2.21-1.74,3,3,0,0,1-1.16.87,16.17,16.17,0,0,1-2,.67,35.07,35.07,0,0,1-4.79.79,54.54,54.54,0,0,1-5.57.29,39,39,0,0,1-7.12-.54,8.89,8.89,0,0,1-4.45-2.13,5.77,5.77,0,0,1-1.58-4.36,22.5,22.5,0,0,1,.25-2.67c.19-1.27.47-3,.83-5.32l2,.41a65.12,65.12,0,0,0-.92,7.12,3.19,3.19,0,0,0,1.38,2.79,8.5,8.5,0,0,0,3.7,1.24,45.75,45.75,0,0,0,5.78.3,66.85,66.85,0,0,0,7.37-.38,24.61,24.61,0,0,0,5.49-1.21l-.62-7.82,2.37-.29.46,8.36a4.46,4.46,0,0,0,2.12.92A24.32,24.32,0,0,0,1034.19,429.67Zm-22.06-16.4,2.42,1.92-1.92,2.45-2.45-1.91Zm4.83,0,2.45,1.92-1.95,2.45-2.41-1.91Zm27.12,4.75c.28,4.82.42,8.17.42,10a3.49,3.49,0,0,1-.55,1.84,3.82,3.82,0,0,1-1.49,1.37,15.34,15.34,0,0,1-3.79,1.21,27.3,27.3,0,0,1-4.49.37c-.17,0-.25-.29-.25-.87v-1.38c0-.61.08-.91.25-.91,3.8,0,6.51-.52,8.15-1.54l-.71-9.66Zm-1.91-8.78,2.58,2-2,2.5-2.58-2Zm20.56,20.43s.11.09.17.29a2.12,2.12,0,0,1,.08.62V432a2.17,2.17,0,0,1-.08.62c-.06.17-.12.25-.17.25h-1.91a6.56,6.56,0,0,1-2.71-.54,4.72,4.72,0,0,1-1.87-1.5v.87a9.67,9.67,0,0,1-3,6.58,24.82,24.82,0,0,1-8.57,5.66l-1.62-2.37a28.64,28.64,0,0,0,7.65-4.54,10.48,10.48,0,0,0,3.46-4.74l-1.21-11.16,2.46-.49.62,5.95a3,3,0,0,0,1.46,2.37,6.78,6.78,0,0,0,3.37.75Zm14,0c.06,0,.12.09.17.29a1.83,1.83,0,0,1,.08.62V432a1.87,1.87,0,0,1-.08.62c-.05.17-.11.25-.17.25a13.52,13.52,0,0,1-4.61-.62,3.66,3.66,0,0,1-2.13-1.84q-1.41,2.46-7.24,2.46c-.16,0-.25-.29-.25-.87v-1.38c0-.61.09-.91.25-.91a18.27,18.27,0,0,0,3.54-.29,7.13,7.13,0,0,0,2.58-1.09l-.75-8.4,2.37-.29.59,8.82C1072.2,429.25,1074.09,429.67,1076.72,429.67Zm-10.4-18.9,2.42,1.92-1.92,2.45-2.45-1.91Zm4.83,0,2.45,1.92-1.95,2.45-2.42-1.91Zm19.55,18.9c.06,0,.12.09.17.29a1.83,1.83,0,0,1,.08.62V432a1.87,1.87,0,0,1-.08.62c0,.17-.11.25-.17.25a13.62,13.62,0,0,1-4.62-.62,3.67,3.67,0,0,1-2.12-1.84q-1.41,2.46-7.24,2.46c-.16,0-.25-.29-.25-.87v-1.38c0-.61.09-.91.25-.91a18.27,18.27,0,0,0,3.54-.29,7.21,7.21,0,0,0,2.58-1.09l-.75-8.4,2.37-.29.58,8.82Q1086.75,429.67,1090.7,429.67Zm-8-19.06,2.58,2-2,2.49-2.58-2ZM1100.6,418c.28,4.82.42,8.17.42,10a3.48,3.48,0,0,1-.54,1.84,3.78,3.78,0,0,1-1.5,1.37,15.07,15.07,0,0,1-3.79,1.21,27.21,27.21,0,0,1-4.49.37c-.17,0-.25-.29-.25-.87v-1.38c0-.61.08-.91.25-.91,3.8,0,6.52-.52,8.16-1.54l-.71-9.66Zm-8.4,19.43,2.41,1.91-1.91,2.46-2.46-1.92Zm4.83,0,2.45,1.91-2,2.46-2.42-1.92Zm9.91-33.08,2.5-.42.37,28.88-2.12.33Zm8.48,37.16a28.55,28.55,0,0,0,7.66-4.54,10.38,10.38,0,0,0,3.45-4.74l-1.2-11.16,2.45-.49q.42,4.15.63,6.9c.16,1.83.24,3.22.24,4.16a9.7,9.7,0,0,1-3,6.58,24.87,24.87,0,0,1-8.58,5.66Zm10.32-30.09,2.58,2-2,2.5-2.58-2Zm8.83-7.07,2.5-.42.37,28.88-2.12.33Zm22.85,25.3c.16,0,.25.3.25.91V432c0,.58-.09.87-.25.87h-.67c-2.61,0-4.53-.6-5.78-1.79s-1.87-3.08-2-5.66l-.5-21,2.5-.42.25,21.39c0,2.88,1.77,4.33,5.24,4.33Zm22.73,0c.08,0,.15.09.21.29a2.12,2.12,0,0,1,.08.62V432a2.17,2.17,0,0,1-.08.62c-.06.17-.13.25-.21.25a11.36,11.36,0,0,1-4-.54,4.06,4.06,0,0,1-2.08-1.92l-.21,1.42a3.8,3.8,0,0,1-.46,1.37,4.73,4.73,0,0,1-1,1.17,2.23,2.23,0,0,1-1.41.5,2.77,2.77,0,0,1-1.25-.29l-7.28-3.21a5.07,5.07,0,0,1-4,1.5h-1c-.17,0-.25-.29-.25-.87v-1.38c0-.61.08-.91.25-.91h1.46a5,5,0,0,0,1.49-.17,1.9,1.9,0,0,0,.88-.62,7.72,7.72,0,0,0,.91-1.63,34.2,34.2,0,0,1,2.21-4.16,6.45,6.45,0,0,1,2-2,4.8,4.8,0,0,1,2.5-.62,4,4,0,0,1,3.32,1.46,7.85,7.85,0,0,1,1.67,3.32,9.21,9.21,0,0,0,.91,2.71,3.37,3.37,0,0,0,1.75,1.33A11.53,11.53,0,0,0,1180.15,429.67Zm-8.86,2.49a4.2,4.2,0,0,0,.54-1.62,11.46,11.46,0,0,0,.21-2.12,6.92,6.92,0,0,0-.92-3.79,2.69,2.69,0,0,0-2.41-1.45,2.84,2.84,0,0,0-1.67.49,6.06,6.06,0,0,0-1.45,1.71,34.56,34.56,0,0,0-1.88,3.5ZM1204.74,418c.28,4.49.41,8,.41,10.48a3.51,3.51,0,0,1-1.79,3.29,8.06,8.06,0,0,1-4.12,1,6.48,6.48,0,0,1-2.62-.5,2.66,2.66,0,0,1-1.45-1.46,3.11,3.11,0,0,1-1.92,1.5,7.41,7.41,0,0,1-2.45.46,6.24,6.24,0,0,1-2.71-.54,3.28,3.28,0,0,1-1.58-1.46,4.91,4.91,0,0,1-2.54,1.5,14,14,0,0,1-3.83.5c-.16,0-.25-.29-.25-.87v-1.38c0-.61.09-.91.25-.91a22.2,22.2,0,0,0,3-.17,5.71,5.71,0,0,0,2.2-.87l.17-6.83h2.29l-.17,5.45c0,1.61,1,2.42,3,2.42a6.93,6.93,0,0,0,3.54-.75l-.25-8.74,2.29,0,.16,8.74a3.49,3.49,0,0,0,2.58.79,7.88,7.88,0,0,0,4.12-.84l-.66-10.36ZM1194,406.11l2.42,1.88-1.92,2.41-2.41-1.87Zm-2.37,5.16,2.41,1.92-1.87,2.41-2.41-1.91Zm4.79,0,2.41,1.92L1197,415.6l-2.42-1.91Zm30.23,30.55q-5,0-7.28-1.83c-1.53-1.2-2.29-3-2.29-5.54a32.35,32.35,0,0,1,.33-3.24c.25-1.7.57-3.79,1-6.29l.41-2.62,2,.38a102.83,102.83,0,0,0-1.54,11.52,3.65,3.65,0,0,0,1.92,3.42,11.37,11.37,0,0,0,5.45,1.08,26.41,26.41,0,0,0,6-.59,9,9,0,0,0,4-1.83l-1.13-31.91,2.5-.42.75,32.58a3.21,3.21,0,0,1-1.67,2.75,12.49,12.49,0,0,1-4.49,1.87A25.22,25.22,0,0,1,1226.69,441.82Zm27-12.15c.16,0,.25.3.25.91V432c0,.58-.09.87-.25.87H1253c-2.61,0-4.53-.6-5.78-1.79s-1.87-3.08-2-5.66l-.5-21,2.5-.42.25,21.39c0,2.88,1.77,4.33,5.24,4.33Zm35.59,0c.17,0,.25.3.25.91V432c0,.58-.08.87-.25.87a8,8,0,0,1-3.37-.62,5.15,5.15,0,0,1-2.17-2.17,14.77,14.77,0,0,1-5.11,2,36.83,36.83,0,0,1-7.91.75,39,39,0,0,1-5.91-.46,8.81,8.81,0,0,1-4.41-1.66,5.81,5.81,0,0,1-2.87,1.58,14.11,14.11,0,0,1-3.83.54c-.17,0-.25-.29-.25-.87v-1.38c0-.61.08-.91.25-.91a19.44,19.44,0,0,0,2.83-.17,8.26,8.26,0,0,0,2.41-.79l0-6.62h2.29l-.17,6.16a3.3,3.3,0,0,0,.88.5,6.64,6.64,0,0,0,1.12.29,52.14,52.14,0,0,1,3.87-4.7,37,37,0,0,1,5.58-5,9.79,9.79,0,0,1,5.74-2.29q7.07,0,7.07,9a10.1,10.1,0,0,1-.16,1.95C1285.69,429.11,1287.07,429.67,1289.24,429.67Zm-18.48,0a30.55,30.55,0,0,0,12.2-2.08,21.69,21.69,0,0,0-.34-4.16,5,5,0,0,0-1.37-2.67,4.27,4.27,0,0,0-3-1q-2.42,0-5.87,2.67a45.12,45.12,0,0,0-7,6.9A34,34,0,0,0,1270.76,429.67Zm28.4-11.65c.28,4.82.42,8.17.42,10a3.48,3.48,0,0,1-.54,1.84,3.92,3.92,0,0,1-1.5,1.37,15.07,15.07,0,0,1-3.79,1.21,27.3,27.3,0,0,1-4.49.37c-.17,0-.25-.29-.25-.87v-1.38c0-.61.08-.91.25-.91,3.8,0,6.52-.52,8.15-1.54l-.7-9.66Zm-4.29-8.62,2.42,1.92-1.92,2.45-2.45-1.91Zm4.83,0,2.46,1.92-2,2.45-2.41-1.91Zm5.84-5L1308,404l.38,28.88-2.12.33ZM591,498.39a2,2,0,0,1-1.5-.63,2.33,2.33,0,0,1,0-3.08,2.06,2.06,0,0,1,1.5-.62,2.12,2.12,0,0,1,2.16,2.16,2.13,2.13,0,0,1-2.16,2.17Zm17.29-19.31Q616,486.61,616,494q0,2.21-2.95,3.33a19.78,19.78,0,0,1-6.87,1.08,14.81,14.81,0,0,1-4.29-.46,3.21,3.21,0,0,1-1.95-1.62,8.43,8.43,0,0,1-.5-3.33c0-.67,0-1.18,0-1.54l2,.12v.71a5.84,5.84,0,0,0,.25,2.08,1.57,1.57,0,0,0,1.2.71,21.92,21.92,0,0,0,3.33.17,25.94,25.94,0,0,0,4.45-.38,8.78,8.78,0,0,0,3.17-1,14.35,14.35,0,0,0-2-6.4,28.16,28.16,0,0,0-5.2-6.33Zm28.69,16c.06,0,.11.1.17.29a2.17,2.17,0,0,1,.08.62v1.38a2.12,2.12,0,0,1-.08.62c-.06.17-.11.25-.17.25h-3.74a13.32,13.32,0,0,1-4.12,6.62,22.81,22.81,0,0,1-7.37,4.45l-1.62-2.37a26.76,26.76,0,0,0,7.16-4,11,11,0,0,0,3.83-5.11,23.43,23.43,0,0,1-4.75.41,12.27,12.27,0,0,1-2.79-.29,3.47,3.47,0,0,1-1.87-1.17,3.82,3.82,0,0,1-.62-1,4.23,4.23,0,0,1-.17-1.37,14.65,14.65,0,0,1,.67-4.2,9.86,9.86,0,0,1,2.12-3.87,4.94,4.94,0,0,1,3.79-1.62,4.79,4.79,0,0,1,4.7,3.2,18.78,18.78,0,0,1,1.41,7.2Zm-13.81-.21a7.77,7.77,0,0,0,3.45.62,19,19,0,0,0,4.75-.45c0-5.14-1.39-7.7-4.17-7.7a3.34,3.34,0,0,0-2.95,2.12A11.92,11.92,0,0,0,623.12,494.85Zm38.42-11.44c.27,4.49.41,8,.41,10.48a3.51,3.51,0,0,1-1.79,3.29,8.06,8.06,0,0,1-4.12,1,6.44,6.44,0,0,1-2.62-.5,2.67,2.67,0,0,1-1.45-1.45,3.16,3.16,0,0,1-1.92,1.49,7.46,7.46,0,0,1-2.45.46,6.21,6.21,0,0,1-2.71-.54,3.24,3.24,0,0,1-1.58-1.46,5,5,0,0,1-2.54,1.5,14,14,0,0,1-3.83.5c-.16,0-.25-.29-.25-.87V496c0-.61.09-.91.25-.91a22.31,22.31,0,0,0,3-.17,5.71,5.71,0,0,0,2.2-.87l.17-6.83h2.29l-.17,5.46c0,1.6,1,2.41,3,2.41a7,7,0,0,0,3.54-.75l-.25-8.74,2.28,0,.17,8.74a3.45,3.45,0,0,0,2.58.79,8,8,0,0,0,4.12-.83l-.67-10.37Zm-10.7-11.9,2.42,1.87-1.92,2.41-2.41-1.87Zm-2.37,5.16,2.41,1.91L649,481l-2.41-1.91Zm4.79,0,2.41,1.91L653.8,481l-2.42-1.91Zm39.39,18.39c.09,0,.16.1.21.29a1.87,1.87,0,0,1,.08.62v1.38a1.83,1.83,0,0,1-.08.62c-.05.17-.12.25-.21.25h-1.83a5.37,5.37,0,0,1,.33,1.92,6.37,6.37,0,0,1-3.78,6.15,21.43,21.43,0,0,1-9.53,1.88q-5,0-7.28-1.83a6.7,6.7,0,0,1-2.29-5.58c0-.5.11-1.58.33-3.25s.57-3.78,1-6.28l.41-2.62,2,.41a103.58,103.58,0,0,0-1.54,11.49,3.64,3.64,0,0,0,1.92,3.41,11.37,11.37,0,0,0,5.45,1.08,30.24,30.24,0,0,0,6.45-.58,8.3,8.3,0,0,0,4.33-2.2,11.05,11.05,0,0,0,.2-1.67,1.85,1.85,0,0,0-.66-1.58,5.1,5.1,0,0,0-2.21-.62c-1-.09-2.56-.13-4.7-.13l.83-3.16Zm11.49-9.24a4.48,4.48,0,0,1,3.91,2.21,9.81,9.81,0,0,1,1.5,5.7,13.68,13.68,0,0,1-.62,4.28,3.58,3.58,0,0,1-1.29,1.71,2.24,2.24,0,0,1-1.42.5,2.83,2.83,0,0,1-1.25-.29l-7.28-3.21a5,5,0,0,1-4,1.5h-1c-.17,0-.25-.29-.25-.87V496c0-.61.08-.91.25-.91h1.45a5,5,0,0,0,1.5-.17,2,2,0,0,0,.88-.62,7.59,7.59,0,0,0,.91-1.62,32.4,32.4,0,0,1,2.21-4.17,6.35,6.35,0,0,1,2-2A4.79,4.79,0,0,1,704.14,485.82Zm2.37,11.74a4.43,4.43,0,0,0,.55-1.63,11.45,11.45,0,0,0,.2-2.12,6.93,6.93,0,0,0-.91-3.79,2.69,2.69,0,0,0-2.42-1.45,2.76,2.76,0,0,0-1.66.5,5.87,5.87,0,0,0-1.46,1.7,34.89,34.89,0,0,0-1.87,3.5Zm14.17-27.8,2.5-.42.37,28.88-2.12.33Zm20.57,25.3s.11.1.16.29a1.85,1.85,0,0,1,.09.62v1.38a1.81,1.81,0,0,1-.09.62c0,.17-.11.25-.16.25h-1.92a6.51,6.51,0,0,1-2.7-.54,4.82,4.82,0,0,1-1.88-1.5v.88a9.67,9.67,0,0,1-3,6.57,24.87,24.87,0,0,1-8.58,5.66l-1.62-2.37a28.55,28.55,0,0,0,7.66-4.54,10.38,10.38,0,0,0,3.45-4.74l-1.2-11.15,2.45-.5.62,5.95a3,3,0,0,0,1.46,2.37,6.81,6.81,0,0,0,3.37.75Zm7.67-12.69a7.35,7.35,0,0,1,2.45.5c.94.3,2.28.81,4,1.54,2.38,1,4.41,1.72,6.07,2.24a15.78,15.78,0,0,0,4.79.79l-.46,2.92a15.65,15.65,0,0,0-5,1,34.48,34.48,0,0,0-5.33,2.74,35.89,35.89,0,0,1-6.24,3.08,20,20,0,0,1-6.7,1h-1.25c-.17,0-.25-.29-.25-.87V496c0-.61.08-.91.25-.91h1.58a19.15,19.15,0,0,0,5.29-.75,33.75,33.75,0,0,0,5.78-2.46l1.66-.87c1.31-.67,2.28-1.14,2.92-1.41a11.5,11.5,0,0,1,1.91-.63,44.89,44.89,0,0,1-6.12-2.08q-2.16-.87-3.45-1.29a6.26,6.26,0,0,0-2-.46,1.92,1.92,0,0,0-1.66.75,6.6,6.6,0,0,0-.79,2.42l-2-.34a11.06,11.06,0,0,1,1.54-4.16A3.39,3.39,0,0,1,748.92,482.37Zm5,20.47,2.58,2-2,2.5-2.58-2Zm17.61-33.08,2.5-.42.37,28.88-2.12.33Zm22.84,25.3c.17,0,.25.3.25.91v1.38c0,.58-.08.87-.25.87h-.67q-3.9,0-5.78-1.79t-2-5.66l-.49-21,2.49-.42.25,21.39q0,4.33,5.25,4.33Zm22.73,0c.09,0,.15.1.21.29a1.87,1.87,0,0,1,.08.62v1.38a1.83,1.83,0,0,1-.08.62c-.06.17-.12.25-.21.25a11.4,11.4,0,0,1-4-.54,4.12,4.12,0,0,1-2.08-1.91l-.21,1.41a3.56,3.56,0,0,1-.46,1.37,4.33,4.33,0,0,1-1,1.17,2.21,2.21,0,0,1-1.41.5,2.83,2.83,0,0,1-1.25-.29l-7.28-3.21a5.05,5.05,0,0,1-4,1.5h-1c-.16,0-.25-.29-.25-.87V496c0-.61.09-.91.25-.91h1.46a5.13,5.13,0,0,0,1.5-.17,1.93,1.93,0,0,0,.87-.62,7.54,7.54,0,0,0,.92-1.62,32.56,32.56,0,0,1,2.2-4.17,6.55,6.55,0,0,1,2-2,4.83,4.83,0,0,1,2.5-.62,4.11,4.11,0,0,1,3.33,1.46,7.81,7.81,0,0,1,1.66,3.33,9.2,9.2,0,0,0,.92,2.7,3.35,3.35,0,0,0,1.74,1.33A11.57,11.57,0,0,0,817.09,495.06Zm-8.86,2.5a4.26,4.26,0,0,0,.54-1.63,10.66,10.66,0,0,0,.21-2.12,6.92,6.92,0,0,0-.92-3.79,2.68,2.68,0,0,0-2.41-1.45,2.74,2.74,0,0,0-1.66.5,5.72,5.72,0,0,0-1.46,1.7,34.89,34.89,0,0,0-1.87,3.5Zm33.45-14.15c.28,4.49.42,8,.42,10.48a3.53,3.53,0,0,1-1.79,3.29,8.08,8.08,0,0,1-4.12,1,6.44,6.44,0,0,1-2.62-.5,2.69,2.69,0,0,1-1.46-1.45,3.14,3.14,0,0,1-1.91,1.49,7.51,7.51,0,0,1-2.46.46,6.19,6.19,0,0,1-2.7-.54,3.24,3.24,0,0,1-1.58-1.46,5,5,0,0,1-2.54,1.5,14,14,0,0,1-3.83.5c-.17,0-.25-.29-.25-.87V496c0-.61.08-.91.25-.91a22,22,0,0,0,2.95-.17,5.75,5.75,0,0,0,2.21-.87l.17-6.83h2.29l-.17,5.46c-.06,1.6.94,2.41,3,2.41a6.89,6.89,0,0,0,3.53-.75l-.25-8.74,2.29,0,.17,8.74a3.45,3.45,0,0,0,2.58.79,8,8,0,0,0,4.12-.83l-.67-10.37ZM831,471.51l2.41,1.87-1.91,2.41-2.42-1.87Zm-2.37,5.16,2.41,1.91L829.16,481l-2.42-1.91Zm4.78,0,2.42,1.91L833.94,481l-2.41-1.91Zm26.49,21.76a7.44,7.44,0,0,1-4.16-1.12,4.31,4.31,0,0,1-1.67-3.79,8.52,8.52,0,0,1,1.38-4.25,25.34,25.34,0,0,1,3.37-4.53l-1.71-1.25,1.42-2.12a21.66,21.66,0,0,1,6.36,5.91,11.94,11.94,0,0,1,2.29,7,4.74,4.74,0,0,1-.5,2.33,6.75,6.75,0,0,1-.58.79,1.4,1.4,0,0,1-.58.46,7.19,7.19,0,0,1-2.17.49C862.45,498.39,861.3,498.43,859.89,498.43Zm.08-3.16c1.39,0,2.43,0,3.12,0a12.12,12.12,0,0,0,1.92-.3,12.16,12.16,0,0,0-.79-4.45,10.58,10.58,0,0,0-3.75-4.45,16.15,16.15,0,0,0-3,3.62,7.2,7.2,0,0,0-1.33,3.24Q856.19,495.28,860,495.27Zm21.76-.21c.17,0,.25.3.25.91v1.38c0,.58-.08.87-.25.87h-.66q-3.92,0-5.79-1.79t-1.95-5.66l-.5-21,2.49-.42.25,21.39q0,4.33,5.25,4.33ZM890.65,469q-3.28,1.41-8.07,3.79l.21-2.29q3.94-2.08,7.61-3.62Zm10.07,26.05c.08,0,.15.1.21.29a2.17,2.17,0,0,1,.08.62v1.38a2.12,2.12,0,0,1-.08.62c-.06.17-.13.25-.21.25h-2.16q-3.67,0-4.54-2.45-2.49,2.44-12.28,2.45-.24,0-.24-.87V496c0-.61.08-.91.24-.91a58.21,58.21,0,0,0,6.45-.33,16.36,16.36,0,0,0,4.54-1.09,17.8,17.8,0,0,0-1.16-5.91,15.69,15.69,0,0,0-3.25-5,32.06,32.06,0,0,0-6-4.91l.21-2.83q3.66-1.79,6.82-3.12t6.7-2.5l.33,2.67a65.1,65.1,0,0,0-11.15,4.57,2.07,2.07,0,0,1,.54.38q5.2,3.82,7,7.74a19.92,19.92,0,0,1,2,7.86,2.93,2.93,0,0,0,1.09,2,5.12,5.12,0,0,0,2.45.46Zm14.15,0s.11.1.16.29a1.85,1.85,0,0,1,.09.62v1.38a1.81,1.81,0,0,1-.09.62c0,.17-.11.25-.16.25a13.54,13.54,0,0,1-4.62-.62,3.65,3.65,0,0,1-2.13-1.83q-1.41,2.44-7.24,2.45c-.16,0-.25-.29-.25-.87V496c0-.61.09-.91.25-.91a18.27,18.27,0,0,0,3.54-.29,7.29,7.29,0,0,0,2.58-1.08l-.75-8.41,2.37-.29.59,8.82Q910.91,495.05,914.87,495.06Zm-10.41-18.89,2.42,1.91L905,480.54l-2.45-1.92Zm4.83,0,2.45,1.91-2,2.46-2.41-1.92Zm30.17,7.24c.28,4.49.41,8,.41,10.48a3.51,3.51,0,0,1-1.79,3.29,8.06,8.06,0,0,1-4.12,1,6.44,6.44,0,0,1-2.62-.5,2.69,2.69,0,0,1-1.46-1.45,3.08,3.08,0,0,1-1.91,1.49,7.5,7.5,0,0,1-2.45.46,6.21,6.21,0,0,1-2.71-.54,3.28,3.28,0,0,1-1.58-1.46,4.91,4.91,0,0,1-2.54,1.5,14,14,0,0,1-3.83.5c-.16,0-.25-.29-.25-.87V496c0-.61.09-.91.25-.91a22.31,22.31,0,0,0,3-.17A5.71,5.71,0,0,0,920,494l.17-6.83h2.29l-.17,5.46c0,1.6,1,2.41,3,2.41a6.86,6.86,0,0,0,3.53-.75l-.25-8.74,2.29,0,.17,8.74a3.45,3.45,0,0,0,2.58.79,8,8,0,0,0,4.12-.83l-.67-10.37Zm15.09-4.33q7.79,7.53,7.78,14.94,0,2.21-3,3.33a19.74,19.74,0,0,1-6.87,1.08,14.68,14.68,0,0,1-4.28-.46,3.2,3.2,0,0,1-2-1.62,8.62,8.62,0,0,1-.5-3.33c0-.67,0-1.18,0-1.54l2,.12v.71a5.84,5.84,0,0,0,.25,2.08,1.57,1.57,0,0,0,1.21.71,21.83,21.83,0,0,0,3.33.17,26.12,26.12,0,0,0,4.45-.38,8.71,8.71,0,0,0,3.16-1,14.35,14.35,0,0,0-2-6.4,27.89,27.89,0,0,0-5.2-6.33ZM983,507.21q-5,0-7.29-1.83c-1.52-1.19-2.29-3-2.29-5.54a30.46,30.46,0,0,1,.34-3.24q.38-2.53,1-6.29l.42-2.62,2,.38a100.61,100.61,0,0,0-1.54,11.52,3.65,3.65,0,0,0,1.91,3.42,11.44,11.44,0,0,0,5.46,1.08,29.78,29.78,0,0,0,6.32-.58,8.44,8.44,0,0,0,4.29-2.17,7,7,0,0,0,.54-2.41,2.6,2.6,0,0,0-2.46-2.87l-2-.21q-1.83-.17-2.7-.33a3,3,0,0,1-1.37-.67,1.8,1.8,0,0,1-.5-1.41,18.39,18.39,0,0,1,1-6.12,13.3,13.3,0,0,1,2.91-4.87,5.44,5.44,0,0,1,4-1.91,4.47,4.47,0,0,1,2.71.91,8,8,0,0,1,2.16,2.17l-1.37,1.58a5.27,5.27,0,0,0-3.54-1.88,3.8,3.8,0,0,0-2.74,1.34,9.45,9.45,0,0,0-2,3.45,16.26,16.26,0,0,0-.88,4.54,29.16,29.16,0,0,1,5.16.66,5,5,0,0,1,2.83,1.62,5.58,5.58,0,0,1,1,3.62q0,4.76-3.74,6.7A20.54,20.54,0,0,1,983,507.21Zm25.76-22.55a4.77,4.77,0,0,1,4.74,3.28,18.87,18.87,0,0,1,1.37,7.37,11.79,11.79,0,0,1-3.45,8.4,22,22,0,0,1-8.41,5.58l-1.62-2.37a26.76,26.76,0,0,0,7.16-4,11,11,0,0,0,3.83-5.11,23.43,23.43,0,0,1-4.75.41,12.11,12.11,0,0,1-2.78-.29,3.5,3.5,0,0,1-1.88-1.17,3.82,3.82,0,0,1-.62-1,4.23,4.23,0,0,1-.17-1.37,15,15,0,0,1,.67-4.2,9.86,9.86,0,0,1,2.12-3.87A4.94,4.94,0,0,1,1008.75,484.66Zm-4.33,10.19a7.77,7.77,0,0,0,3.45.62,18.94,18.94,0,0,0,4.75-.45c0-5.14-1.39-7.7-4.16-7.7a3.35,3.35,0,0,0-3,2.12A11.92,11.92,0,0,0,1004.42,494.85Zm10.71,12.07a21.64,21.64,0,0,0,6.28-4.45,11.73,11.73,0,0,0,3-4.83l-1.21-11.15,2.46-.5q.4,4.15.62,6.9c.17,1.84.25,3.22.25,4.17a10.5,10.5,0,0,1-2.58,6.57,21.24,21.24,0,0,1-7.24,5.66Zm37.28-11.86s.11.1.16.29a1.85,1.85,0,0,1,.09.62v1.38a1.81,1.81,0,0,1-.09.62c0,.17-.11.25-.16.25h-1.92a6.54,6.54,0,0,1-2.7-.54,4.72,4.72,0,0,1-1.87-1.5v.88c0,2.22-1,4.41-3,6.57a24.82,24.82,0,0,1-8.57,5.66l-1.63-2.37a28.55,28.55,0,0,0,7.66-4.54,10.38,10.38,0,0,0,3.45-4.74l-1.2-11.15,2.45-.5.63,5.95a3,3,0,0,0,1.45,2.37,6.83,6.83,0,0,0,3.37.75Zm9.92-11.65c.27,4.82.41,8.17.41,10a3.47,3.47,0,0,1-.54,1.83,3.78,3.78,0,0,1-1.5,1.37,15.12,15.12,0,0,1-3.78,1.21,26.45,26.45,0,0,1-4.5.37c-.16,0-.25-.29-.25-.87V496c0-.61.09-.91.25-.91q5.7,0,8.16-1.54l-.71-9.66Zm-6,19.43,2.58,2-2,2.5-2.58-2Zm47.36-7.78c.08,0,.15.1.2.29a1.85,1.85,0,0,1,.09.62v1.38a1.81,1.81,0,0,1-.09.62c0,.17-.12.25-.2.25h-1c-3.19,0-5.25-.83-6.16-2.5.16,2.67.25,4.73.25,6.2a3.41,3.41,0,0,1-1.71,2.79,11.88,11.88,0,0,1-4.54,1.83,26.41,26.41,0,0,1-6.15.67q-5,0-7.29-1.83c-1.52-1.19-2.29-3-2.29-5.54a30.46,30.46,0,0,1,.34-3.24q.38-2.53,1-6.29l.42-2.62,2,.38a100.61,100.61,0,0,0-1.54,11.52,3.65,3.65,0,0,0,1.91,3.42,11.44,11.44,0,0,0,5.46,1.08q7.48,0,10.27-2.41l-1.37-15.94,2.46-.5.58,6.57a3.17,3.17,0,0,0,.91,2.17,4.49,4.49,0,0,0,2,.87,20.71,20.71,0,0,0,3.29.21Zm-18.27-16.36,2.58,2-2,2.5-2.58-2Zm28.19,4.71c.28,4.82.42,8.17.42,10a3.56,3.56,0,0,1-.54,1.83,3.92,3.92,0,0,1-1.5,1.37,15.2,15.2,0,0,1-3.79,1.21,26.25,26.25,0,0,1-4.49.37c-.17,0-.25-.29-.25-.87V496c0-.61.08-.91.25-.91q5.68,0,8.15-1.54l-.71-9.66Zm-8.41,19.43,2.42,1.91-1.92,2.46-2.45-1.91Zm4.83,0,2.46,1.91-2,2.46-2.41-1.91Zm29.93-7.78c.08,0,.15.1.21.29a2.17,2.17,0,0,1,.08.62v1.38a2.12,2.12,0,0,1-.08.62c-.06.17-.13.25-.21.25h-1.08a15.29,15.29,0,0,1-5-.62,4,4,0,0,1-2.28-2.29,11.62,11.62,0,0,1-5,3.37,34.35,34.35,0,0,1-7.53,2.08l-.37-3.16a36.61,36.61,0,0,0,7.86-2.29c2.08-.92,3.38-1.8,3.91-2.66l-.83-22.89,2.5-.42.54,22.47a3,3,0,0,0,.75,2.13,3.75,3.75,0,0,0,2,.91,22.66,22.66,0,0,0,3.49.21Zm-17.06-1a59.92,59.92,0,0,0-1.12-10.78,28.09,28.09,0,0,0-3.75-10.19l1.91-1.67a35.12,35.12,0,0,1,3.87,10.78,56.64,56.64,0,0,1,1.21,11.32Zm26.08-16a4.77,4.77,0,0,1,4.75,3.28,19.09,19.09,0,0,1,1.37,7.37,39.79,39.79,0,0,1-.21,4.74,6,6,0,0,1-.75,2.46,3.57,3.57,0,0,1-1.66,1.25,15.53,15.53,0,0,1-4.08.87c-1.64.17-4.45.25-8.45.25-.16,0-.25-.29-.25-.87V496c0-.61.09-.91.25-.91q5.63,0,8.41-.21a14.31,14.31,0,0,0,4.29-.83,19.4,19.4,0,0,0,.16-2.91,24.43,24.43,0,0,1-5,.45,11.72,11.72,0,0,1-2.79-.29,3.51,3.51,0,0,1-1.87-1.16,3.86,3.86,0,0,1-.62-1,4.34,4.34,0,0,1-.17-1.38,15,15,0,0,1,.66-4.2,10,10,0,0,1,2.13-3.87A4.93,4.93,0,0,1,1148.94,478Zm-4.32,10.19a7.76,7.76,0,0,0,3.45.63,18.76,18.76,0,0,0,4.74-.46c0-5.13-1.38-7.7-4.16-7.7a3.34,3.34,0,0,0-3,2.12A11.92,11.92,0,0,0,1144.62,488.19Zm3.82-19.39,2.58,2-2,2.5-2.58-2Zm12.55,6.78,2.49-.41.38,23.05-2.12.33Zm5.16-4a27.8,27.8,0,0,1-4.21-.34c-1-.11-1.6-.16-1.83-.16a2,2,0,0,0-1.33.33,3.41,3.41,0,0,0-.66,1.46l-1.75-.46a6.28,6.28,0,0,1,1.33-3,3.31,3.31,0,0,1,2.41-.79c.34,0,1.11.06,2.33.17,1.81.19,3.11.29,3.92.29h1.74l-.5,2.5Zm37.44,11.86c.28,5,.42,8.44.42,10.19,0,1.5-.85,2.58-2.54,3.25a22.12,22.12,0,0,1-5.16,1.16,59.08,59.08,0,0,1-7.49.42,39,39,0,0,1-7.12-.54,9,9,0,0,1-4.45-2.12,5.81,5.81,0,0,1-1.58-4.37,22.5,22.5,0,0,1,.25-2.67c.19-1.27.47-3.05.83-5.32l2,.41a65.42,65.42,0,0,0-.92,7.12,3.35,3.35,0,0,0,1,2.58,7.05,7.05,0,0,0,3.37,1.33,39,39,0,0,0,6.45.42q9.49,0,13.07-1.63l-.66-9.78Zm-16.19-4.75,2.42,1.92L1187.9,483l-2.45-1.91Zm4.83,0,2.46,1.92-2,2.45-2.41-1.91Zm10.24,28.26a28.48,28.48,0,0,0,7.65-4.54,10.48,10.48,0,0,0,3.46-4.74l-1.21-11.15,2.46-.5q.4,4.15.62,6.9c.17,1.84.25,3.22.25,4.17a9.64,9.64,0,0,1-3,6.57,24.72,24.72,0,0,1-8.57,5.66Zm35-11.86s.11.1.16.29a1.85,1.85,0,0,1,.09.62v1.38a1.81,1.81,0,0,1-.09.62c0,.17-.11.25-.16.25h-3.75a13.32,13.32,0,0,1-4.12,6.62,22.76,22.76,0,0,1-7.36,4.45l-1.63-2.37a26.76,26.76,0,0,0,7.16-4,11,11,0,0,0,3.83-5.11,23.4,23.4,0,0,1-4.74.41,12.14,12.14,0,0,1-2.79-.29,3.43,3.43,0,0,1-1.87-1.17,3.64,3.64,0,0,1-.63-1,4.23,4.23,0,0,1-.17-1.37,14.65,14.65,0,0,1,.67-4.2,9.86,9.86,0,0,1,2.12-3.87,4.94,4.94,0,0,1,3.79-1.62,4.77,4.77,0,0,1,4.7,3.2,18.6,18.6,0,0,1,1.42,7.2Zm-13.82-.21a7.79,7.79,0,0,0,3.46.62,18.85,18.85,0,0,0,4.74-.45c0-5.14-1.39-7.7-4.16-7.7a3.36,3.36,0,0,0-3,2.12A11.92,11.92,0,0,0,1223.7,494.85Zm38.34-12.4q7.07,0,7.07,9,0,2.63-1,3.54a12.06,12.06,0,0,1-5.12,2.33,34.18,34.18,0,0,1-8.48.91,38.92,38.92,0,0,1-5.91-.46,8.81,8.81,0,0,1-4.41-1.66,5.8,5.8,0,0,1-2.88,1.58,14,14,0,0,1-3.82.54c-.17,0-.25-.29-.25-.87V496c0-.61.08-.91.25-.91a19.54,19.54,0,0,0,2.83-.17,8.35,8.35,0,0,0,2.41-.79l0-6.61H1245l-.17,6.15a3.07,3.07,0,0,0,.87.5,6.73,6.73,0,0,0,1.13.29,48.91,48.91,0,0,1,3.87-4.7,36.93,36.93,0,0,1,5.57-5A9.84,9.84,0,0,1,1262,482.45Zm-7.41,12.61q7.48,0,12.19-2.08a21.86,21.86,0,0,0-.33-4.16,5,5,0,0,0-1.37-2.67,4.27,4.27,0,0,0-3-1q-2.41,0-5.87,2.67a45.22,45.22,0,0,0-7,6.91A35.3,35.3,0,0,0,1254.63,495.06Zm43,0c.09,0,.15.1.21.29a1.87,1.87,0,0,1,.08.62v1.38a1.83,1.83,0,0,1-.08.62c-.06.17-.12.25-.21.25h-.83a7.76,7.76,0,0,1-3.37-.66,3.77,3.77,0,0,1-1.87-2.33,2.74,2.74,0,0,1-1.88,1.16,13.48,13.48,0,0,1-3.62.42,6.81,6.81,0,0,1-3.45-.88,2.9,2.9,0,0,1-1.54-2.7,9,9,0,0,1,2.29-6.24,11.44,11.44,0,0,1,6.37-3.37l-.34-2.63,2.38-.7.91,10a17.91,17.91,0,0,0,.42,2.83,2.56,2.56,0,0,0,1,1.46,4.5,4.5,0,0,0,2.37.5Zm-11.32-1.17a13.94,13.94,0,0,0,2.33-.16,19.23,19.23,0,0,0,2.13-.59L1290,486a8.12,8.12,0,0,0-3.87,1.5,7.26,7.26,0,0,0-2.29,2.62A7.42,7.42,0,0,0,1283,493a3.52,3.52,0,0,0,1.33.66A6.79,6.79,0,0,0,1286.28,493.89Zm21.21-10.48c.28,4.82.42,8.17.42,10a3.47,3.47,0,0,1-.54,1.83,3.92,3.92,0,0,1-1.5,1.37,15.2,15.2,0,0,1-3.79,1.21,26.25,26.25,0,0,1-4.49.37c-.17,0-.25-.29-.25-.87V496c0-.61.08-.91.25-.91q5.7,0,8.15-1.54l-.7-9.66Zm-6,19.43,2.58,2-2,2.5-2.58-2Z"/><path class="cls-5" d="M564.18,581.33l-5.41,29.8h-8.11l-2.92-13.32q-.5-2.2-1.49-7.61-.79,4.74-1.5,7.61L542,611.13h-8l-5.62-29.8H535l2.2,14c.2,1.24.42,2.8.67,4.66s.46,3.46.62,4.91q.25-1.08,1.21-6.2c.17-.78.29-1.45.38-2s.2-1,.29-1.37l3.28-14h5.62l3.29,14c.33,1.6.62,3.09.87,4.45.53,2.72.88,4.42,1,5.12.67-5,1.11-8.23,1.34-9.62l2.16-13.94ZM575,611.13h-6.49v-29.8H575Zm7.12,0v-29.8H601v5.21H588.63V594h10.53v5.2H588.63v11.9Zm30.43,0h-6.49v-29.8h6.49ZM636.22,621c-3.88,0-6.67-.73-8.36-2.21s-2.54-3.66-2.54-6.57a56.52,56.52,0,0,1,1-7.08l1-6.69,4.24.91a112.35,112.35,0,0,0-1.62,11.82,2.31,2.31,0,0,0,1.87,2.25,14.18,14.18,0,0,0,4.41.62,33.59,33.59,0,0,0,5-.33,12.46,12.46,0,0,0,3.74-1.13L643.17,597l5.33-1.08q1.2,12.07,1.2,18a4.74,4.74,0,0,1-2.24,4,14.85,14.85,0,0,1-5.41,2.29A26.53,26.53,0,0,1,636.22,621Zm.09-34.16,4.66,3.74-3.58,4.33-4.66-3.75Zm29.28,1.58a32.23,32.23,0,0,1,6.37,8.15,16.67,16.67,0,0,1,2.21,7.83,5.69,5.69,0,0,1-3.13,5.41,17.68,17.68,0,0,1-8.15,1.62,16.26,16.26,0,0,1-4.79-.58,4.76,4.76,0,0,1-2.58-2,8,8,0,0,1-.83-4c0-.52.06-1.73.17-3.62l4.24.34v1.08a2.11,2.11,0,0,0,.29,1.25,1.64,1.64,0,0,0,1,.5c.53,0,1.4.08,2.62.08.86,0,1.93-.06,3.21-.17a22,22,0,0,0,3.16-.54q-.66-4.41-7.28-10.78Zm27.69,15.85c.11,0,.19.17.25.5a5,5,0,0,1,.12,1.17v3.62a5.17,5.17,0,0,1-.12,1.2c-.06.31-.14.46-.25.46H691.9a5.78,5.78,0,0,1-2.29-.46,5.06,5.06,0,0,1-1.83-1.41,13.2,13.2,0,0,1-3.2,8.11q-3,3.58-9.74,6.79l-3.66-5.29a36.81,36.81,0,0,0,8.2-4.62,13.16,13.16,0,0,0,3.7-4.41l-1.75-12.69,5.5-1.13.62,5.54a2.51,2.51,0,0,0,1.21,2.08,7.34,7.34,0,0,0,3.24.54Zm8.16-15.1a22.67,22.67,0,0,1,5.74,7.4,18.32,18.32,0,0,1,1.87,7.91,5.13,5.13,0,0,1-1.7,4,10.62,10.62,0,0,1-5.08,2.08,52.64,52.64,0,0,1-9,.62c-.11,0-.19-.15-.25-.46a5.17,5.17,0,0,1-.12-1.2v-3.62a5,5,0,0,1,.12-1.17c.06-.33.14-.5.25-.5a59.7,59.7,0,0,0,11-.75,13.78,13.78,0,0,0-3.17-6.66,26.67,26.67,0,0,0-7.19-6.2l.2-5.57c2.44-1.14,4.89-2.15,7.33-3s5.14-1.75,8-2.58l.75,5.7a79.9,79.9,0,0,0-9.86,3.16Zm50,15.1c.11,0,.2.17.29.5a5,5,0,0,1,.12,1.17v3.62a5,5,0,0,1-.12,1.16c-.09.33-.18.5-.29.5h-.55a7.25,7.25,0,0,1-3.2-.71,5.78,5.78,0,0,1-2.33-2.41c.14,2.5.21,4.45.21,5.87a4.75,4.75,0,0,1-2.25,4,14.85,14.85,0,0,1-5.41,2.29,26.52,26.52,0,0,1-5.82.71c-3.89,0-6.68-.73-8.37-2.21s-2.54-3.66-2.54-6.57a56.52,56.52,0,0,1,1-7.08l1-6.69,4.25.91a110.73,110.73,0,0,0-1.63,11.82,2.32,2.32,0,0,0,1.87,2.25,14.2,14.2,0,0,0,4.42.62,33.45,33.45,0,0,0,5-.33,12.46,12.46,0,0,0,3.74-1.13L739,597l5.32-1.08.63,5.12a4.07,4.07,0,0,0,.74,2.2,2.6,2.6,0,0,0,1.63.84c.72.08,1.9.12,3.53.12Zm-19.27-17.43,4.66,3.74-3.58,4.33-4.66-3.75ZM781,593.4q.42,6,.42,10.57a7.58,7.58,0,0,1-1,4,6,6,0,0,1-2.58,2.41,7.54,7.54,0,0,1-3.42.79,9.49,9.49,0,0,1-3.53-.58,4,4,0,0,1-2.17-2,4.16,4.16,0,0,1-2.12,2.08,6.75,6.75,0,0,1-2.54.54q-3.62,0-5.07-2.66a5.38,5.38,0,0,1-3,2.12,17.13,17.13,0,0,1-4.54.54c-.11,0-.19-.15-.25-.46a5.17,5.17,0,0,1-.12-1.2v-3.62a5,5,0,0,1,.12-1.17c.06-.33.14-.5.25-.5a15.08,15.08,0,0,0,5.08-.75v-5.82h4.79l0,4.41a2.22,2.22,0,0,0,.46,1.66,2.34,2.34,0,0,0,1.63.5,9.56,9.56,0,0,0,3.16-.5l-.33-7.57L771,596l.17,7.91a5.13,5.13,0,0,0,2,.33,9.59,9.59,0,0,0,3.53-.54l-1-9.36ZM767,578.17l4,3.21-3.2,4-4-3.2Zm-3.16,7,4,3.21-3.2,4-4-3.2Zm6.61,0,4,3.21-3.21,4-4-3.2Zm24,9.12a5.77,5.77,0,0,1,4.12,1.62,10.25,10.25,0,0,1,2.66,4.41,19.16,19.16,0,0,1,.91,6.08,18.1,18.1,0,0,1-3.07,10.27Q796,621.36,789,624.2l-3.62-5.29a25,25,0,0,0,6.74-3.54,17.84,17.84,0,0,0,4.5-4.41,26.59,26.59,0,0,1-3.33.21,23.2,23.2,0,0,1-2.75-.12,4.2,4.2,0,0,1-1.54-.59,6.56,6.56,0,0,1-1.33-1.41,9.23,9.23,0,0,1-1-1.62,6,6,0,0,1-.2-1.71,17.47,17.47,0,0,1,.87-5.62,9.41,9.41,0,0,1,2.66-4.2A6.47,6.47,0,0,1,794.51,594.32ZM791,605.18a23.93,23.93,0,0,0,3.37.29,17.11,17.11,0,0,0,3.29-.25,6.45,6.45,0,0,0-1-3.87,3,3,0,0,0-2.54-1.33,2.65,2.65,0,0,0-2.29,1.37A6.92,6.92,0,0,0,791,605.18Zm9.11,13.73a36.81,36.81,0,0,0,8.2-4.62,13.16,13.16,0,0,0,3.7-4.41l-1.74-12.69,5.49-1.13q.54,4.71.75,7.5c.16,1.85.25,3.48.25,4.86a13.69,13.69,0,0,1-3,8.66q-3,3.78-10,7.12Z"/></g></g></svg>