<svg xmlns="http://www.w3.org/2000/svg" viewBox="0 0 648 648"><defs><style>.cls-1{fill:#ff6c40;}.cls-2{fill:#fff;}.cls-3{fill:none;}</style></defs><g id="Layer_1" data-name="Layer 1"><path class="cls-1" d="M37.62,253.62,324,540,610.38,253.62C452.22,95.46,195.78,95.46,37.62,253.62Z"/><path d="M108,567a27,27,0,0,1-19.09-46.09l432-432a27,27,0,1,1,38.18,38.18l-432,432A26.92,26.92,0,0,1,108,567Z"/><path class="cls-2" d="M146.18,605.18a27,27,0,0,1-19.09-46.09l432-432a27,27,0,1,1,38.18,38.18l-432,432A26.92,26.92,0,0,1,146.18,605.18Z"/><rect class="cls-3" width="648" height="648"/></g></svg>