<svg xmlns="http://www.w3.org/2000/svg" viewBox="0 0 648 648"><defs><style>.cls-1{fill:#ff5e3f;}.cls-2{fill:#fff;}.cls-3{fill:none;}</style></defs><g id="Background"><rect class="cls-1" width="648" height="648"/></g><g id="Layer_1" data-name="Layer 1"><circle class="cls-2" cx="272.89" cy="162" r="55.97"/><circle class="cls-2" cx="466.83" cy="504.98" r="71.95"/><circle class="cls-2" cx="188.95" cy="459" r="54"/><path d="M405,567H189A108.11,108.11,0,0,1,81,459V243A108.11,108.11,0,0,1,189,135h81a27,27,0,0,1,0,54H189a54.07,54.07,0,0,0-54,54V459a54.07,54.07,0,0,0,54,54H405a54.07,54.07,0,0,0,54-54V378a27,27,0,0,1,54,0v81A108.11,108.11,0,0,1,405,567Z"/><path d="M297,459H189V351L462.4,76.86a76.38,76.38,0,1,1,108,108Zm-54-54h31.61L532.2,146.71A22.38,22.38,0,0,0,500.58,115L243,373.33Z"/><rect class="cls-3" width="648" height="648"/></g></svg>