<svg xmlns="http://www.w3.org/2000/svg" viewBox="0 0 648 648"><defs><style>.cls-1{fill:#ff5e3f;}.cls-2{fill:#fff;}</style></defs><g id="Layer_1" data-name="Layer 1"><rect class="cls-1" width="648" height="648"/><circle class="cls-2" cx="318.84" cy="89.31" r="39.98"/><circle class="cls-2" cx="230.99" cy="283.74" r="30.61"/><circle class="cls-2" cx="346.11" cy="308.88" r="15.12"/><circle class="cls-2" cx="182.72" cy="499.7" r="55.06"/><circle class="cls-2" cx="433.42" cy="591.71" r="15.12"/><circle class="cls-2" cx="313.09" cy="341.25" r="15.12"/><path d="M517.14,507.07c-8.16-14.17-29.91-14.93-40.64,4.71-5.85,10.73-12,17-17.54,20.59l-9.53-16,18.33-10.23-60.4-146a87,87,0,0,0,9-8.39c14.38-15.74,29.93-44.08,22.33-89.94-2.62-13.92-4.23-26.32,2.56-37.17,12.25-19.58,6.3-34.28-2.51-40.92-16.1-12.12-34.45-2.74-44.7,7.81l-4.23-59.95c-.86-12.06-5.39-22.48-12.45-28.6a27.2,27.2,0,0,0-31.71-2.42l-.18-2.45c-.83-11.87-5.68-22.66-13-28.85a25.47,25.47,0,0,0-19.21-6.07c-14.67,1.35-24.42,15.19-26.67,29.88a25.73,25.73,0,0,0-13.35-2.22c-19.45,1.85-28.34,21.07-27.07,39.1l2,28.43a21.1,21.1,0,0,0-9.4-1.09c-16.11,1.81-25.55,16.76-24,38.09l6.33,89.7h0l.13,1.79a4.18,4.18,0,0,0,.09.53c3.59,42.83,21.39,67.6,37.79,81.52a92.85,92.85,0,0,1-3.65,32.21c-7.66,25.8-25.6,44.67-53.09,56L195,459.87l-52.23,16,15.83,52.94L173.54,527c-4.56,9.74-8.11,25-2.2,45.6,5.25,18.34,21.3,20.47,30.31,16,11.9-5.86,18.28-18.29,7.15-35.56-11.91-18.48-8.33-26.56-4.88-29.82l2-.25,4.59,14.55,6,.37c4.19.25,8.22.37,12.13.37,82.13,0,103.27-53.75,104.17-56.14A8.79,8.79,0,1,0,316.37,476c-.18.48-18.56,46.81-92.77,44.66l-7.15-22.69-7.71-24.45.08,0c55.45-22.84,66.23-68,67.74-92.86a63.19,63.19,0,0,0,12,4.88,8.9,8.9,0,0,0,1.9.2,8.79,8.79,0,0,0,1.88-17.37c-.49-.11-48.72-13.84-53.71-84.49l-6.33-89.7c-.13-1.87-1-18.31,8.46-19.37a3.94,3.94,0,0,1,3.26,1.11c3.39,2.82,6.11,9.8,6.61,17l3.83,54.25A8.79,8.79,0,1,0,272,245.85L268.85,201h0l-5.1-72.32c-.55-7.7,2-19.48,11.18-20.35a7.93,7.93,0,0,1,6.27,1.9c3.59,3,6.23,9.61,6.73,16.74a.5.5,0,0,1,0,.12L294,212a8.8,8.8,0,0,0,8.76,8.17l.63,0a8.8,8.8,0,0,0,8.15-9.39L303.74,101c-.67-9.51,5-19.78,11.16-20.35a7.87,7.87,0,0,1,6.21,2c3.65,3.09,6.33,9.65,6.82,16.68l7.75,109.74a8.79,8.79,0,1,0,17.54-1.23l-5.16-73a2.81,2.81,0,0,0,0-.29c-.53-7.52,2-19.69,11-20.34a8.77,8.77,0,0,1,6.78,2.08c3.45,3,5.91,9.34,6.42,16.55L380,242.21v.15l1.57,22.19a7.85,7.85,0,0,0,.16,1c0,.2,0,.41.1.6a8.34,8.34,0,0,0,.51,1.4,1.15,1.15,0,0,0,.06.17,8.79,8.79,0,0,0,6.47,4.89,3.27,3.27,0,0,0,.44,0,8.59,8.59,0,0,0,1,.1H391c.26,0,.51-.09.77-.13s.58-.08.86-.15.54-.19.8-.29a7.34,7.34,0,0,0,.82-.32c.25-.12.48-.28.71-.42a7,7,0,0,0,.73-.47,7.84,7.84,0,0,0,.61-.54c.22-.2.44-.39.63-.6a7.89,7.89,0,0,0,.49-.65c.17-.23.36-.46.51-.71s.24-.49.36-.74.26-.51.36-.79a8,8,0,0,0,.22-.84,7.72,7.72,0,0,0,.2-.83c0-.3,0-.62.05-.93a6,6,0,0,0,0-.73c-.15-3.62-.76-11.64-1.2-17.49l-.38-5V241c-1.08-15.3,1.32-27.31,6.94-34.72,2.69-3.54,14.59-15.37,23.69-8.51,3.9,2.93,3.22,9.49-1.82,17.54-11,17.56-7.34,36.93-5,49.56,6.42,38.71-6.24,62.16-18,75a69.94,69.94,0,0,1-10.91,9.62,9,9,0,0,0-1.74,1.22c-12.13,8.14-25.19,11.38-34.61,10.71A8.79,8.79,0,0,0,354.81,379c1.34.11,2.7.15,4.06.15,11,0,22.69-3.3,33.57-9l39.05,94.44c-1.6,3.32-6.69,10.79-21,13.68a8.79,8.79,0,0,0,1.73,17.41,9.52,9.52,0,0,0,1.75-.17c11.93-2.41,19.88-7.3,25.2-12.36l6.36,15.38-5.12,2.85h0l-23.24,13-14.68,8.19L317.76,409.25a8.79,8.79,0,0,0-14.08,10.53L387,531.09h0l45.38,60.62,46.52-25.93-6.69-11.21c9.62-1.71,21-5.19,31.29-12.2C521.36,530.23,521.53,514.69,517.14,507.07Z"/><path d="M293.79,462.43a10.54,10.54,0,0,1-8.57,10.86,8.79,8.79,0,1,0,3.18,17.29,28.2,28.2,0,0,0,23-28.43,8.66,8.66,0,0,0-8.94-8.65A8.8,8.8,0,0,0,293.79,462.43Z"/><path d="M299.52,244c-4.65,1.25-7.41,7.92-6.17,14.89s6,11.6,10.67,10.35,7.42-7.93,6.17-14.9S304.17,242.7,299.52,244Z"/><path d="M361.9,269.2c4.65-1.26,7.41-7.93,6.17-14.9s-6-11.6-10.67-10.34-7.42,7.92-6.17,14.89S357.25,270.45,361.9,269.2Z"/><path d="M311.53,308.36a8.78,8.78,0,0,0,8.74,7.92,8.44,8.44,0,0,0,.87,0l29.37-2.9-10.12-45.43a8.79,8.79,0,1,0-17.16,3.82l5.8,26.06-9.62.95A8.8,8.8,0,0,0,311.53,308.36Z"/><path d="M305.65,336.78a8.79,8.79,0,0,0,3.12,12,46.77,46.77,0,0,0,64-16.58,8.79,8.79,0,0,0-15.16-8.92,29.19,29.19,0,0,1-39.93,10.35A8.79,8.79,0,0,0,305.65,336.78Z"/></g></svg>