<svg xmlns="http://www.w3.org/2000/svg" xmlns:xlink="http://www.w3.org/1999/xlink" viewBox="0 0 647 648"><defs><style>.cls-1{fill:none;}.cls-2{fill:#dfdddd;}.cls-3{clip-path:url(#clip-path);}.cls-4{fill:#fff;}.cls-5{fill:#837f7f;}.cls-6{fill:#f4f4f4;}.cls-7{fill:#565453;}.cls-8,.cls-9{fill:#fd5d41;}.cls-9{isolation:isolate;opacity:0.13;}.cls-10{fill:#d8d8d8;}</style><clipPath id="clip-path"><rect class="cls-1" width="648" height="648"/></clipPath></defs><g id="Layer_1" data-name="Layer 1"><rect class="cls-2" width="648" height="648"/><g class="cls-3"><rect class="cls-4" x="94.1" y="-246.99" width="458.8" height="849.63"/><path d="M287,265a12.43,12.43,0,0,1,1.34,3.53,21.06,21.06,0,0,1,.66,5.39l0,.95a9.37,9.37,0,0,1-1.7,5.2,10.27,10.27,0,0,1-3.45,3.12,6.67,6.67,0,0,1-2.88,1.05c-.34,0-.87-.37-1.61-1.1s-1.62-1.69-2.73-2.92a.8.8,0,0,1-.27-.56.54.54,0,0,1,.21-.42,1,1,0,0,1,.59-.21,15.8,15.8,0,0,0,4-1,13.27,13.27,0,0,0,3.3-1.75,4,4,0,0,0,1.63-1.94q-1.33-2.85-3.27-6.27L286,265a1.14,1.14,0,0,1,.57-.33C286.73,264.68,286.87,264.79,287,265Zm8.56-10.53a.8.8,0,0,1,.54-.21c.36,0,.53.24.53.71q0,2.09-.26,8.48t-.63,9.07a5.91,5.91,0,0,1-.74,1.66c-.44.76-.84,1.43-1.22,2a.9.9,0,0,1-.69.47.45.45,0,0,1-.35-.18,1.08,1.08,0,0,1-.15-.53q-.54-8.84-1.22-18.29Zm11.73,14.21v6.84h-.6a4.52,4.52,0,0,1-1.69-.29,9.26,9.26,0,0,1-1.79,5,10.5,10.5,0,0,1-3.39,3,6.61,6.61,0,0,1-2.82,1c-.34,0-.88-.37-1.61-1.1s-1.62-1.69-2.73-2.92a.8.8,0,0,1-.27-.56.54.54,0,0,1,.21-.42,1,1,0,0,1,.59-.21,15.8,15.8,0,0,0,4-1,13.45,13.45,0,0,0,3.3-1.75,4,4,0,0,0,1.63-1.94q-1.33-2.85-3.27-6.27l3.27-3.06a1.14,1.14,0,0,1,.57-.33c.16,0,.29.11.41.33a3.12,3.12,0,0,1,.36.65l.36.68c.39.72.69,1.22.89,1.52a1.89,1.89,0,0,0,.71.62,2.73,2.73,0,0,0,1.19.21ZM313.84,256a4.36,4.36,0,0,1,3,1.18,7.69,7.69,0,0,1,2.08,3.39,15.53,15.53,0,0,1,.75,5.06c0,.54,0,.94,0,1.22q-.3,5.2-4.25,7a20.29,20.29,0,0,1-8.24,1.72H307v-6.84h2.94a33,33,0,0,0,5.15-.32c1.27-.22,2-.7,2.32-1.43a6.69,6.69,0,0,1-3.3.74,6,6,0,0,1-3.93-1.19,4.55,4.55,0,0,1-1.46-3.74q0-.27.06-1a8.34,8.34,0,0,1,1.52-4.07A4.18,4.18,0,0,1,313.84,256Zm-3.09,5.85c.25.44,1.14.66,2.64.66.64,0,1.06,0,1.28,0a6.62,6.62,0,0,0,1.85-.33,3.22,3.22,0,0,0-1.64-1.25,5.44,5.44,0,0,0-1.78-.33,2.77,2.77,0,0,0-1.46.39A2.16,2.16,0,0,0,310.75,261.85Zm6.75-9.27c.16.13.24.25.24.35a.66.66,0,0,1-.24.39l-1.7,1.75a.49.49,0,0,1-.3.18.81.81,0,0,1-.32-.18l-1.82-1.75-.12-.15-.14.15-1.7,1.75a.49.49,0,0,1-.3.18.75.75,0,0,1-.32-.18L309,253.32a.57.57,0,0,1-.21-.36.55.55,0,0,1,.21-.38l1.73-1.73c.16-.16.27-.24.32-.24s.21.08.33.24l1.76,1.73.14.14.12-.14,1.73-1.73q.24-.24.33-.24c.1,0,.2.08.32.24Zm16.66,16.11v6.84H334a5.73,5.73,0,0,1-4.46-1.66,8.32,8.32,0,0,1-1.79-5q-.39-4.54-1.07-11.21l4.2-3.21a.76.76,0,0,1,.53-.21.46.46,0,0,1,.39.21,1,1,0,0,1,.15.56l-.06,3.25-.21,8.11a2.75,2.75,0,0,0,.41,1.82,2.49,2.49,0,0,0,1.73.47Zm18,0v6.84h-.24a3.87,3.87,0,0,1-3.15-1.34,5.52,5.52,0,0,1-1.1-3.56q0-.57,0-.87a20.82,20.82,0,0,0-3.24,2c-1.17.81-2.19,1.46-3.06,2a14.63,14.63,0,0,1-3.13,1.28,15.55,15.55,0,0,1-4.1.5h-.27v-6.84h.27a28.87,28.87,0,0,0,5.35-.41,44.65,44.65,0,0,0,4.61-1.22l2.23-.63c-1.76-.43-3.28-.78-4.55-1a16,16,0,0,0-2.88-.38,2.52,2.52,0,0,0-1.19.23,2.17,2.17,0,0,0-.8.78,1.15,1.15,0,0,1-1,.56.8.8,0,0,1-.62-.27,1,1,0,0,1-.24-.74,3.68,3.68,0,0,1,.06-.48c.93-3.76,2.56-5.65,4.88-5.65a8.5,8.5,0,0,1,2.44.42c.93.26,2.08.64,3.45,1.13,1.21.44,2.17.76,2.88,1a12.11,12.11,0,0,0,2,.45c.36.06.54.22.54.47a3.19,3.19,0,0,1-.09.42l-1.19,4.55a.63.63,0,0,0,.18.62,1.79,1.79,0,0,0,1,.21Zm-12.82,10.47a.68.68,0,0,1-.23-.39.69.69,0,0,1,.23-.41l1.91-1.94c.16-.15.27-.23.35-.23a.5.5,0,0,1,.36.23l2,1.94a.57.57,0,0,1,.24.38.66.66,0,0,1-.24.42l-1.9,1.9q-.21.21-.33.21c-.06,0-.17-.07-.35-.21Zm21.93-10.47v6.84h-.12a4.15,4.15,0,0,1-2.46-.68,5,5,0,0,1-1.58-2.05,3.74,3.74,0,0,1-1.66,1.9,6.37,6.37,0,0,1-3.42.83h-.12v-6.84H352a9.47,9.47,0,0,0,3.74-.5l-.53-2.68,2.26-1.9a.37.37,0,0,1,.26-.12q.18,0,.24.27l.51,3a6.42,6.42,0,0,0,.3,1.19,1.15,1.15,0,0,0,.68.56,5.63,5.63,0,0,0,1.66.18Zm-8.41-8.56a.66.66,0,0,1-.24-.39.64.64,0,0,1,.24-.41l1.9-1.94c.16-.16.28-.23.36-.23a.47.47,0,0,1,.36.23l2,1.94a.53.53,0,0,1,.24.38.66.66,0,0,1-.24.42l-1.91,1.9c-.13.14-.24.21-.32.21a.88.88,0,0,1-.36-.21Zm14.5.65a13,13,0,0,1,1.19,3,15.12,15.12,0,0,1,.65,4.4,11.54,11.54,0,0,1-.29,2.64,6.94,6.94,0,0,1-1.1,2.41,5.23,5.23,0,0,1-2.32,1.64,12.46,12.46,0,0,1-4.35.62h-.08l0-6.84h.11a23.93,23.93,0,0,0,3.13-.18A3.74,3.74,0,0,0,366,268c-.51-.81-1.37-2-2.56-3.6l-.35-.5,3.27-3.07a1.08,1.08,0,0,1,.56-.32C367.09,260.46,367.23,260.56,367.35,260.78Zm.59,18.08a.66.66,0,0,1,.24.39q0,.15-.24.36l-1.69,1.75a.49.49,0,0,1-.3.18.76.76,0,0,1-.33-.18l-1.81-1.75-.12-.15-.15.15-1.69,1.75a.49.49,0,0,1-.3.18.6.6,0,0,1-.33-.18l-1.81-1.75a.57.57,0,0,1-.21-.36.59.59,0,0,1,.21-.39l1.72-1.72q.24-.24.33-.24t.33.24l1.75,1.72.15.15.12-.15,1.73-1.72c.15-.16.26-.24.32-.24s.21.08.33.24Zm7.81-24.38a.8.8,0,0,1,.54-.21c.35,0,.53.24.53.71q0,2.09-.26,8.48t-.63,9.07a5.91,5.91,0,0,1-.74,1.66c-.44.76-.85,1.43-1.22,2a.9.9,0,0,1-.69.47.42.42,0,0,1-.35-.18,1.08,1.08,0,0,1-.15-.53q-.54-8.84-1.22-18.29ZM390.25,265a12.75,12.75,0,0,1,1.34,3.53,21.52,21.52,0,0,1,.65,5.39l0,.95a9.37,9.37,0,0,1-1.69,5.2,10.27,10.27,0,0,1-3.45,3.12,6.65,6.65,0,0,1-2.89,1.05c-.33,0-.87-.37-1.6-1.1s-1.63-1.69-2.74-2.92a.79.79,0,0,1-.26-.56.53.53,0,0,1,.2-.42,1,1,0,0,1,.6-.21,15.62,15.62,0,0,0,3.95-1,13.1,13.1,0,0,0,3.3-1.75,3.92,3.92,0,0,0,1.64-1.94q-1.33-2.85-3.27-6.27l3.27-3.06a1.17,1.17,0,0,1,.56-.33Q390.07,264.68,390.25,265Zm10,10.79q-3.15,0-4.46-2a8.52,8.52,0,0,1-1.28-4.73c0-.44,0-.76,0-1a1.19,1.19,0,0,1,.32-.8,1,1,0,0,1,.69-.3.83.83,0,0,1,.53.18,1,1,0,0,1,.39.53,1.43,1.43,0,0,0,.53.8,2.61,2.61,0,0,0,1.11.33q.74.06,2.37.06c1.25,0,2.32,0,3.19-.12s1.36-.25,1.42-.53c.1-.56-.58-1.25-2.05-2.08a41.37,41.37,0,0,0-5.59-2.59c-.32-.14-.47-.33-.47-.57a.9.9,0,0,1,.08-.38l1.91-3.84a1,1,0,0,1,.86-.65,4.62,4.62,0,0,1,2.32,1.16,12.69,12.69,0,0,1,2.94,3.06,10.14,10.14,0,0,1,1.76,4.28,11.17,11.17,0,0,1,.18,2,7.59,7.59,0,0,1-1.49,4.82,6.11,6.11,0,0,1-2.23,1.76A7.56,7.56,0,0,1,400.27,275.8ZM428,254.48a.8.8,0,0,1,.54-.21.45.45,0,0,1,.35.18.72.72,0,0,1,.15.47q0,3.9-.47,13a8.49,8.49,0,0,1-2.06,5.08,13.66,13.66,0,0,1-4.4,3.51,7.94,7.94,0,0,1-4.1,1.1c-.44,0-1.08-.51-1.93-1.42a20.27,20.27,0,0,1-2.17-2.71,1.29,1.29,0,0,1-.24-.62c0-.3.26-.46.77-.48a26.17,26.17,0,0,0,6.19-1.16,8.31,8.31,0,0,0-2-3.69A52,52,0,0,0,413.9,263l2.46-4.61c.18-.33.38-.5.6-.5s.39.15.56.45l.21.35.27.48q2,3.33,3.15,5.62a12.26,12.26,0,0,1,1.37,3.6,8.52,8.52,0,0,1,.09,1.16,4.12,4.12,0,0,1-.09.86,4.75,4.75,0,0,0,2.56-4.28,5.52,5.52,0,0,0-.06-.93c-.18-1.24-.35-2.3-.51-3.15-.26-1.37-.49-2.8-.71-4.31Zm11.67,14.21v6.84h-.15a5.73,5.73,0,0,1-4.46-1.66,8.32,8.32,0,0,1-1.79-5q-.37-4.54-1.07-11.21l4.2-3.21a.77.77,0,0,1,.53-.21.46.46,0,0,1,.39.21,1,1,0,0,1,.15.56l-.06,3.25-.21,8.11a2.75,2.75,0,0,0,.41,1.82,2.49,2.49,0,0,0,1.73.47Zm12.07-14.6a1.07,1.07,0,0,1,.48-.12.52.52,0,0,1,.48.24.84.84,0,0,1,.09.6l-1,5.29-5.8,2.32a11.06,11.06,0,0,1,1.79,3.36,10.8,10.8,0,0,1,.65,3.66,8.06,8.06,0,0,1-.32,2.38,4.33,4.33,0,0,1-2.8,3,16.67,16.67,0,0,1-5.44.74h-.51v-6.84h.6q2.09,0,3.15-.09a4.42,4.42,0,0,0,1.73-.44c-.72-1-1.38-1.78-2-2.47s-1.41-1.6-2.41-2.65l.6-4.28ZM462,265a.46.46,0,0,1,0-.81l1.9-1.93q.24-.24.36-.24a.48.48,0,0,1,.36.24l2,1.93a.57.57,0,0,1,.24.39.66.66,0,0,1-.24.42l-1.9,1.9q-.21.21-.33.21a.88.88,0,0,1-.36-.21Zm9.76,0a11,11,0,0,1,.89,2.17,22.33,22.33,0,0,1,1.07,7.7,9.8,9.8,0,0,1-1.34,4.7A8.92,8.92,0,0,1,469,283a10.57,10.57,0,0,1-5.23,1.25,8.21,8.21,0,0,1-4.79-1.31,7.48,7.48,0,0,1-2.71-3.39,12.05,12.05,0,0,1-.86-4.61,15.45,15.45,0,0,1,1.22-6.1,1.28,1.28,0,0,1,.45-.59,1,1,0,0,1,.59-.21.91.91,0,0,1,.68.3,1,1,0,0,1,.3.77,1.64,1.64,0,0,1-.06.36,19.42,19.42,0,0,0-.59,3.83,3.56,3.56,0,0,0,1.28,3c.85.67,2.35,1,4.49,1a14.63,14.63,0,0,0,3.21-.36,9.49,9.49,0,0,0,2.73-.95,2.85,2.85,0,0,0,1.46-1.34,55.24,55.24,0,0,0-3.6-6.54l3.27-3.06a1.14,1.14,0,0,1,.57-.33Q471.6,264.68,471.78,265ZM480,254.48a.76.76,0,0,1,.53-.21c.36,0,.54.24.54.71q0,2.09-.27,8.48t-.63,9.07a5.63,5.63,0,0,1-.74,1.66c-.44.76-.84,1.43-1.22,2a.89.89,0,0,1-.68.47.45.45,0,0,1-.36-.18A1.08,1.08,0,0,1,477,276q-.52-8.84-1.22-18.29Zm16.67,21h-1.6a9.62,9.62,0,0,1-1.67,4.43,10.21,10.21,0,0,1-3,3,8.1,8.1,0,0,1-3.3,1.25c-.48,0-1.73-1.09-3.78-3.39l-.56-.63a.8.8,0,0,1-.27-.56c0-.32.27-.53.8-.63a21.76,21.76,0,0,0,4.94-1.34,10.92,10.92,0,0,0,3.81-2.14h-2.59A5.59,5.59,0,0,1,485,274a6.88,6.88,0,0,1-1.37-4.58,14,14,0,0,1,.09-1.55,10.41,10.41,0,0,1,.74-2.94,6.4,6.4,0,0,1,1.67-2.38,3.75,3.75,0,0,1,2.61-.95,4.72,4.72,0,0,1,3.66,1.81,11.08,11.08,0,0,1,2.29,5.32h2Zm-11.15-7.82a2.18,2.18,0,0,0,1.64.83,22.72,22.72,0,0,0,2.76.15H492a3.94,3.94,0,0,0-1.64-1.69,4.49,4.49,0,0,0-1.78-.57,2.49,2.49,0,0,0-.45,0,3.23,3.23,0,0,0-1.61.39A2.81,2.81,0,0,0,485.53,267.71Zm19.8,1v6.84h-.12a4.21,4.21,0,0,1-2.47-.68,5,5,0,0,1-1.57-2.05,3.72,3.72,0,0,1-1.67,1.9,6.32,6.32,0,0,1-3.42.83H496v-6.84h.12a9.5,9.5,0,0,0,3.75-.5l-.54-2.68,2.26-1.9a.39.39,0,0,1,.27-.12q.18,0,.24.27l.51,3a7.59,7.59,0,0,0,.29,1.19,1.21,1.21,0,0,0,.69.56,5.58,5.58,0,0,0,1.66.18Zm-8.41-8.56a.66.66,0,0,1-.24-.39.64.64,0,0,1,.24-.41l1.9-1.94c.16-.16.28-.23.36-.23a.47.47,0,0,1,.35.23l2,1.94a.55.55,0,0,1,.23.38.68.68,0,0,1-.23.42l-1.91,1.9c-.14.14-.24.21-.33.21a.94.94,0,0,1-.35-.21Zm21.66,7a1,1,0,0,1,.27-.06.38.38,0,0,1,.33.18.47.47,0,0,1,.09.44c-.22.87-.44,1.66-.66,2.35s-.48,1.56-.86,2.65c-.1.31-.67.7-1.72,1.16a22.84,22.84,0,0,1-4.26,1.16,32.87,32.87,0,0,1-6,.5h-.72v-6.84h1.7a5.85,5.85,0,0,1-.45-2.11,7.59,7.59,0,0,1,.86-3.51,7.31,7.31,0,0,1,2.41-2.67,6.06,6.06,0,0,1,3.39-1,4.37,4.37,0,0,1,2.5.71,5.28,5.28,0,0,1,1.73,1.69,6.44,6.44,0,0,1,.89,1.94,2.32,2.32,0,0,1,.06.41.92.92,0,0,1-.21.63.77.77,0,0,1-.57.21,1.38,1.38,0,0,1-.56-.12,8.39,8.39,0,0,0-3-.57c-.2,0-.58,0-1.13.06a9.65,9.65,0,0,0-2.8.63,3.44,3.44,0,0,0-1.52,1,2.65,2.65,0,0,0,.84,1.13,5.13,5.13,0,0,0,1.75.92,8.47,8.47,0,0,0,2.56.36,11,11,0,0,0,1.93-.18A14.62,14.62,0,0,0,518.58,267.15Z"/><path class="cls-5" d="M361.64,322.35v2h-.2a3.57,3.57,0,0,1-2-.64,3.82,3.82,0,0,1-1.41-2c-.37.3-.84.65-1.42,1a6.45,6.45,0,0,1-1,.08,4.44,4.44,0,0,1-2.65-.77,2.7,2.7,0,0,1-1.07-2.34,4.77,4.77,0,0,1,.1-1,7.1,7.1,0,0,1,2-1.79,32.84,32.84,0,0,1,3.08-1.88l-.15-1,1.45-1.37a.33.33,0,0,1,.23-.11.16.16,0,0,1,.15.08.25.25,0,0,1,.08.18c0,.48.07,1.87.2,4.18l.11,1.68a6.75,6.75,0,0,0,.56,2.83,1.82,1.82,0,0,0,1.76.82Zm-8.76-3.16c0,.59.43,1,1.24,1.32a9.12,9.12,0,0,0,2.81.41c.25,0,.55,0,.89-.05l-.08-.43-.45-3.78c-1,.44-1.92.87-2.68,1.28A6.84,6.84,0,0,0,352.88,319.19Zm13.35-6.48a3,3,0,0,1,2.29,1A5.38,5.38,0,0,1,369.8,316a10.29,10.29,0,0,1,.4,2.86,4.76,4.76,0,0,1-1.93,4.2,8.81,8.81,0,0,1-5,1.33h-1.78v-2h1.78a12.45,12.45,0,0,0,3.95-.56,2.66,2.66,0,0,0,1.94-1.79,5.57,5.57,0,0,1-2.75.61,3.5,3.5,0,0,1-2.63-.94,3.44,3.44,0,0,1-.92-2.5,4.86,4.86,0,0,1,.49-2.14,4.53,4.53,0,0,1,1.27-1.68A2.59,2.59,0,0,1,366.23,312.71Zm0,5.86a4.92,4.92,0,0,0,2.73-.63,5.18,5.18,0,0,0-1.18-2.27,2.29,2.29,0,0,0-1.76-.89,2.26,2.26,0,0,0-2.16,2.16,1.47,1.47,0,0,0,.74,1.2A3.05,3.05,0,0,0,366.23,318.57ZM365,309.7a.13.13,0,0,1,0-.2l1.3-1.3a.13.13,0,0,1,.21,0l1.3,1.3a.12.12,0,0,1,0,.2l-1.3,1.33a.13.13,0,0,1-.21,0ZM379,322.35v2h-.21a3.22,3.22,0,0,1-1.86-.64c0,.47.05.81.05,1a6.9,6.9,0,0,1-.05.81,4.8,4.8,0,0,1-1.37,2.81,8,8,0,0,1-2.45,1.73,9,9,0,0,1-2.22.72,2.36,2.36,0,0,1-1.09-.34,7.32,7.32,0,0,1-1.38-.74.34.34,0,0,1-.2-.3c0-.15.1-.23.3-.23a9.35,9.35,0,0,0,2.88-.54,11.84,11.84,0,0,0,2.91-1.37,3.74,3.74,0,0,0,1.58-1.66,8.12,8.12,0,0,0-.79-2.73c-.48-1.05-1.07-2.25-1.79-3.59l1.28-1.33a.52.52,0,0,1,.3-.17.24.24,0,0,1,.23.17c.27.55.5,1,.67,1.48a13.17,13.17,0,0,0,.89,1.76,2.52,2.52,0,0,0,.81.84,2.83,2.83,0,0,0,1.3.26Zm10.34-2c.07,0,.11,0,.13.13a.5.5,0,0,1,0,.3,5.54,5.54,0,0,1-.66,1.51,3.35,3.35,0,0,1-1.43.89,15.74,15.74,0,0,1-3.24.89,27.72,27.72,0,0,1-4.74.36h-.61v-2h.26c1,0,1.86,0,2.67-.1a3.93,3.93,0,0,1-1-1.41,4.12,4.12,0,0,1-.28-1.32,3.9,3.9,0,0,1,.59-2,5,5,0,0,1,1.66-1.68,4.2,4.2,0,0,1,2.29-.67,3.22,3.22,0,0,1,3,1.76.73.73,0,0,1,.12.41.35.35,0,0,1-.12.28.35.35,0,0,1-.26.1.47.47,0,0,1-.25-.07,4.28,4.28,0,0,0-2-.49,4.84,4.84,0,0,0-2.24.59,4.43,4.43,0,0,0-1.73,1.55,2.69,2.69,0,0,0,.58,1,4.36,4.36,0,0,0,1.23,1,4.21,4.21,0,0,0,1.83.38,5.91,5.91,0,0,0,1.12-.13,15.27,15.27,0,0,0,2.94-1.12Zm-6.11-8.26a.12.12,0,0,1,0-.2l1.3-1.3a.12.12,0,0,1,.2,0l1.3,1.3a.12.12,0,0,1,0,.2l-1.3,1.33a.13.13,0,0,1-.2,0Zm16.46,22.71a.27.27,0,0,1-.26.18c-.1,0-.17-.08-.2-.23q-.36-4.92-1.07-12.57a1.19,1.19,0,0,1,.26-.71,3.29,3.29,0,0,1,.79-.79,2.16,2.16,0,0,1,.94-.48,1.16,1.16,0,0,1,.33-.06,1,1,0,0,1,.56.18,7.92,7.92,0,0,0,.51-.79,14.38,14.38,0,0,1,1.76-2.29,2.54,2.54,0,0,1,1.86-.79,2.91,2.91,0,0,1,.64.07,2.71,2.71,0,0,1,1.27.85,4.37,4.37,0,0,1,1,1.63,5.72,5.72,0,0,1,.38,2.11,5.56,5.56,0,0,1-.2,1.56,3.34,3.34,0,0,1-.84,1.5,2.06,2.06,0,0,1-1.51.56,6.55,6.55,0,0,1-2.7-.76,23.59,23.59,0,0,1-3.36-2.07c.17,2,.3,3.78.38,5.23s.15,2.75.15,3.92c0,.43,0,1-.05,1.66a6.58,6.58,0,0,1-.28,1.1A8.36,8.36,0,0,1,399.71,334.76Zm7.54-12.34a3.29,3.29,0,0,0,.13-1,3.77,3.77,0,0,0-.69-2.24,2,2,0,0,0-1.63-1,1.69,1.69,0,0,0-1.27.64,15.77,15.77,0,0,0-1.53,2.14,12.25,12.25,0,0,0,2.11,1.1,5.84,5.84,0,0,0,2.12.48A2.25,2.25,0,0,0,407.25,322.42Zm8.37-.07v2h-.2a3.81,3.81,0,0,1-2.63-.84,4.06,4.06,0,0,1-1-3c-.06-1.85-.17-4.25-.34-7.18s-.28-4.62-.33-5l1.43-1.37a.3.3,0,0,1,.23-.1c.12,0,.2.08.23.25.05.66.09,2.08.13,4.26s.05,4.23.05,6.17V319l0,1.09a4.49,4.49,0,0,0,.15,1.28,1.41,1.41,0,0,0,.67.76,3.45,3.45,0,0,0,1.5.26Zm3.22-6.45a15.2,15.2,0,0,1,1,2.67,8,8,0,0,1,.25,2.55,3,3,0,0,1-1.4,2.4,5.56,5.56,0,0,1-3.16.87h-.1v-2h.1a8.25,8.25,0,0,0,2.06-.26,2,2,0,0,0,1.28-.76,13.91,13.91,0,0,0-.67-1.84c-.34-.8-.68-1.53-1-2.19l1.15-1.4q.15-.21.3-.21C418.71,315.69,418.79,315.76,418.84,315.9ZM416,312.36a.13.13,0,0,1,0-.21l1.3-1.3a.12.12,0,0,1,.2,0l1.3,1.3a.13.13,0,0,1,0,.21l-1.3,1.32a.12.12,0,0,1-.2,0Zm13.6,13.43h-1.88l6.55-20.49h1.91Zm21.32-3.44v2h-.21a3.22,3.22,0,0,1-1.86-.64c0,.47.05.81.05,1a6.9,6.9,0,0,1-.05.81,4.8,4.8,0,0,1-1.37,2.81,8,8,0,0,1-2.45,1.73,9,9,0,0,1-2.22.72,2.39,2.39,0,0,1-1.09-.34,7.32,7.32,0,0,1-1.38-.74.34.34,0,0,1-.2-.3c0-.15.1-.23.3-.23a9.25,9.25,0,0,0,2.88-.54,11.84,11.84,0,0,0,2.91-1.37,3.68,3.68,0,0,0,1.58-1.66,8.12,8.12,0,0,0-.79-2.73c-.48-1.05-1.07-2.25-1.79-3.59l1.28-1.33a.52.52,0,0,1,.3-.17.24.24,0,0,1,.23.17,16,16,0,0,1,.67,1.48,13.17,13.17,0,0,0,.89,1.76,2.52,2.52,0,0,0,.81.84,2.83,2.83,0,0,0,1.3.26Zm9.55,2a12.76,12.76,0,0,1-2.26-.21l.28.44a4.75,4.75,0,0,1,.84,2.39,2.19,2.19,0,0,1-.36,1.25,5.17,5.17,0,0,1-1.1,1.2,2,2,0,0,1-1.3.46,2.86,2.86,0,0,1-1.45-.44,4.69,4.69,0,0,1-1.32-1.09,5.59,5.59,0,0,1-1-1.68,8.79,8.79,0,0,1-.54-2.37c-.61,0-1.1.05-1.48.05h-.1v-2h.13c.37,0,.87,0,1.48-.05a17.27,17.27,0,0,1,.69-3.37,18.15,18.15,0,0,1,1.14-3c.41-.82.73-1.22.95-1.22s.66.24,1.12.74a6.07,6.07,0,0,1,1.22,1.86,5.47,5.47,0,0,1,.54,2.37,4.22,4.22,0,0,1-.69,2.39,15.16,15.16,0,0,0,3.18.26Zm-5.65-7.24a9.7,9.7,0,0,0-.84,2.11,14.37,14.37,0,0,0-.62,3q3.71-.44,3.6-2.24a2.86,2.86,0,0,0-.51-1.41,3.53,3.53,0,0,0-.92-1A2.19,2.19,0,0,0,454.78,317.15ZM458,328.08a4.19,4.19,0,0,0-.28-1.63,8,8,0,0,0-.89-1.78,3.79,3.79,0,0,0-1.2-1.2,7.53,7.53,0,0,1-2.22.71,5.61,5.61,0,0,0,.92,1.91,5.85,5.85,0,0,0,1.55,1.48,3,3,0,0,0,1.66.56A2.48,2.48,0,0,0,458,328.08Zm16.8-11.67a10.57,10.57,0,0,1,.66,2.06,9.39,9.39,0,0,1,.25,2.07,4.81,4.81,0,0,1-.05.71,3.71,3.71,0,0,1-.46,1.3,3.6,3.6,0,0,1-1.14,1.28,3.39,3.39,0,0,1-2,.56H472a2.33,2.33,0,0,1-1.25-.36,2.8,2.8,0,0,1-.89-.89,2.11,2.11,0,0,1-.28-1.15,3.62,3.62,0,0,1-1.3,1.94,3.73,3.73,0,0,1-1.87.46h-.05a2.46,2.46,0,0,1-1.83-.72A2.25,2.25,0,0,1,464,322a3.45,3.45,0,0,1-3.65,2.4h-.1v-2h.1a3.88,3.88,0,0,0,2-.44,3.35,3.35,0,0,0,1.12-1.09,12.36,12.36,0,0,0,.79-1.74l.28-.71c.1-.22.24-.33.41-.33a.4.4,0,0,1,.35.18.46.46,0,0,1,.05.43,7.56,7.56,0,0,0-.46,2.14,1.39,1.39,0,0,0,1.58,1.56,2.66,2.66,0,0,0,1.76-.51,2.78,2.78,0,0,0,.84-1.23,18,18,0,0,0,.54-2.09.48.48,0,0,1,.15-.3.44.44,0,0,1,.28-.1.4.4,0,0,1,.33.15.42.42,0,0,1,.11.36,6.94,6.94,0,0,0-.13,1.4c0,1.54.59,2.32,1.76,2.32a2.59,2.59,0,0,0,2.39-1,14,14,0,0,0-1.27-3.49l1.07-1.43a.41.41,0,0,1,.31-.18C474.66,316.23,474.73,316.29,474.79,316.41ZM469,312.05c-.06-.05-.06-.09,0-.13l1.08-1.09s0-.05.07-.05,0,0,.08.05l1.09,1.09c.06,0,.06.08,0,.13l-1.09,1.1s-.06.05-.08.05,0,0-.07-.05Zm1.76,2.29a.14.14,0,0,1,0-.1.08.08,0,0,1,0-.07L472,313a.14.14,0,0,1,.1-.05.14.14,0,0,1,.11.05l1.19,1.22a.09.09,0,0,1,0,.15l-1.19,1.23a.18.18,0,0,1-.11.05.19.19,0,0,1-.1-.05Zm-3.79,0a.12.12,0,0,1-.06-.1.07.07,0,0,1,.06-.07l1.19-1.2a.14.14,0,0,1,.11-.05.14.14,0,0,1,.1.05l1.2,1.22a.09.09,0,0,1,0,.15l-1.2,1.23a.19.19,0,0,1-.1.05.18.18,0,0,1-.11-.05Z"/><path class="cls-5" d="M514.67,315.89l-2.13-6.37H491.3l-2.12,6.37a4.11,4.11,0,0,0,2.12,3.61V335h21.24V319.5A4.1,4.1,0,0,0,514.67,315.89Zm-4.25,10.62h-17v-6.37a4.26,4.26,0,0,0,4.24-4.25,4.25,4.25,0,0,0,8.5,0,4.26,4.26,0,0,0,4.25,4.25Z"/><path class="cls-6" d="M406.34,415.72h88.3a25.49,25.49,0,0,1,25.49,25.49h0a25.49,25.49,0,0,1-25.49,25.49h-88.3a25.49,25.49,0,0,1-25.49-25.49h0A25.49,25.49,0,0,1,406.34,415.72Z"/><path class="cls-7" d="M416.76,428.28q0,2.3.1,6.45t.05,7.54c0,2.38,0,3.84-.05,4.39a4.65,4.65,0,0,1-1.07,2.57,6.71,6.71,0,0,1-2.42,1.94,7,7,0,0,1-3.14.74,6,6,0,0,1-4.49-1.51,5.57,5.57,0,0,1-1.45-4,13.18,13.18,0,0,1,.92-4.52c.07-.22.19-.33.38-.33a.26.26,0,0,1,.21.11.36.36,0,0,1,.1.25l0,.2a12.19,12.19,0,0,0-.64,3.62,4.61,4.61,0,0,0,1.2,3.37,5.15,5.15,0,0,0,3.82,1.25,6.94,6.94,0,0,0,2.68-.54,6.51,6.51,0,0,0,2.16-1.4,3.09,3.09,0,0,0,1-1.73q-.06-2.37-.54-14.66l-.13-2.91,1.05-.91a.22.22,0,0,1,.15-.08.14.14,0,0,1,.1,0A.18.18,0,0,1,416.76,428.28Zm7.37,15.62v1.56h-.2a2.78,2.78,0,0,1-2.48-1,5.34,5.34,0,0,1-.79-2.8L420.23,429l1-.94a.27.27,0,0,1,.18-.08.14.14,0,0,1,.1,0,.21.21,0,0,1,.06.16c0,1.14.06,2.87.1,5.2s.09,4.69.13,7.08V441a10.19,10.19,0,0,0,.1,1.71,1.36,1.36,0,0,0,.56.89,2.62,2.62,0,0,0,1.5.33Zm13.61-6a13.7,13.7,0,0,1,.71,2.35,9.05,9.05,0,0,1,.29,2.45,2.5,2.5,0,0,1-.49,1.3,3.18,3.18,0,0,1-1.25,1,4.16,4.16,0,0,1-1.88.41h-.06a2.24,2.24,0,0,1-1.73-.69,2.41,2.41,0,0,1-.58-1.71,3.33,3.33,0,0,1-1.3,1.94,3.51,3.51,0,0,1-1.76.46h-.05a2.3,2.3,0,0,1-1.76-.69,2.48,2.48,0,0,1-.54-1.71,3.45,3.45,0,0,1-3.24,2.4h-.17V443.9h.17a2.79,2.79,0,0,0,1.64-.43,3,3,0,0,0,1-1.15,13.84,13.84,0,0,0,.79-1.93l.26-.72a.41.41,0,0,1,.38-.3.32.32,0,0,1,.28.15.38.38,0,0,1,0,.36,8.28,8.28,0,0,0-.44,2.26c0,1.18.57,1.76,1.69,1.76a2.59,2.59,0,0,0,1.65-.48,3.27,3.27,0,0,0,1-1.35,13.42,13.42,0,0,0,.58-2.27q.08-.36.39-.36a.33.33,0,0,1,.25.13.46.46,0,0,1,.08.33,11.39,11.39,0,0,0-.16,1.81,2.84,2.84,0,0,0,.39,1.66,1.44,1.44,0,0,0,1.27.53h0a5.16,5.16,0,0,0,1.6-.23,2,2,0,0,0,1.1-.84,16.36,16.36,0,0,0-1.3-3.92l.84-1a.22.22,0,0,1,.2-.13Q437.67,437.76,437.74,437.91Zm5.83,1.51c.2.39.48,1,.82,1.91a22.9,22.9,0,0,1,.86,2.8,7.17,7.17,0,0,1,.28,2.5,4.15,4.15,0,0,1-1.27,2.63,8.28,8.28,0,0,1-2.65,1.81,6.7,6.7,0,0,1-2.6.66,2.3,2.3,0,0,1-.84-.26,4.21,4.21,0,0,1-.95-.51.19.19,0,0,1-.12-.2c0-.12.07-.18.22-.18a8.67,8.67,0,0,0,3.09-.64,10.92,10.92,0,0,0,2.93-1.52,3.35,3.35,0,0,0,1.43-1.76,22.42,22.42,0,0,0-2.47-6.3l.86-.92a.42.42,0,0,1,.26-.15C443.47,439.29,443.52,439.33,443.57,439.42Zm5.94-11.12q.08,2.11.15,6.5c.07,2.93.1,5.38.1,7.37l0,1.78a8.08,8.08,0,0,1-.31,1.1,9.56,9.56,0,0,1-.33.94.29.29,0,0,1-.08.13.13.13,0,0,1-.12.05c-.11,0-.16-.07-.16-.23q0-2.26-.23-7.85t-.33-8.94l1-.95a.24.24,0,0,1,.18-.07.14.14,0,0,1,.1.05A.17.17,0,0,1,449.51,428.3Zm11.36,8.77a9.86,9.86,0,0,1,3.31,2.35,3.94,3.94,0,0,1,1.07,2.67,3.31,3.31,0,0,1-1,2.6,3.55,3.55,0,0,1-2.45.87,3.42,3.42,0,0,1-2.27-.76,2.62,2.62,0,0,1-.92-2.12,4.55,4.55,0,0,1,.1-.92,8.41,8.41,0,0,1,.69-1.83,7.32,7.32,0,0,1,.89-1.35l-.33-.16a.23.23,0,0,1-.07-.1.51.51,0,0,1,0-.13l.54-1.07a.24.24,0,0,1,.18-.1Zm3.54,5.79a2.57,2.57,0,0,0-.79-2.07A9.6,9.6,0,0,0,461.1,439a15.41,15.41,0,0,0-1.05,1.4,4.12,4.12,0,0,0-.53,1.43,1.31,1.31,0,0,0,0,.33,1.74,1.74,0,0,0,.67,1.38,2.8,2.8,0,0,0,1.81.56,4.12,4.12,0,0,0,1.65-.33C464.13,443.49,464.4,443.2,464.41,442.86Zm6.78,2.73c-2.65,0-3.89-1-3.72-3,0-.21.11-.31.25-.31s.21.08.23.23a1.43,1.43,0,0,0,.76,1.17,6.18,6.18,0,0,0,2.48.34c2.1,0,3.38-.51,3.82-1.51a1.4,1.4,0,0,0,.1-.58,5,5,0,0,0-1.37-2.91,14.22,14.22,0,0,0-3.22-3c-.08-.08-.1-.16,0-.23l.64-1.09a.22.22,0,0,1,.2-.13,4.83,4.83,0,0,1,1.43,1,11.22,11.22,0,0,1,2.17,2.62,6,6,0,0,1,1,3.29,4.4,4.4,0,0,1-.69,2.6,3.1,3.1,0,0,1-1.6,1.12A8.42,8.42,0,0,1,471.19,445.59Zm11.24-1.69v1.56h-.21a2.77,2.77,0,0,1-2.47-1,5.34,5.34,0,0,1-.79-2.8L478.53,429l1-.94a.25.25,0,0,1,.18-.08.16.16,0,0,1,.1,0,.21.21,0,0,1,.05.16c0,1.14.07,2.87.11,5.2s.09,4.69.12,7.08V441a11.41,11.41,0,0,0,.1,1.71,1.37,1.37,0,0,0,.57.89,2.6,2.6,0,0,0,1.5.33Zm7-5.91a2.35,2.35,0,0,1,1.61.64,4,4,0,0,1,1.09,1.68,6,6,0,0,1,.41,2.19,5.89,5.89,0,0,1-.25,1.71,2.1,2.1,0,0,1-1.46,1.43,3,3,0,0,1-.84.1,5.86,5.86,0,0,1-2.24-.49,6.32,6.32,0,0,1-2.12-1.47,3.29,3.29,0,0,1-1.37,1.37,4.65,4.65,0,0,1-1.89.31h-.18V443.9h.41a3.26,3.26,0,0,0,1.32-.2,2,2,0,0,0,.77-.59c.2-.27.53-.79,1-1.55a17.72,17.72,0,0,1,1.84-2.63A2.5,2.5,0,0,1,489.46,438Zm2,6.09a4.06,4.06,0,0,0,.18-1.25,4.33,4.33,0,0,0-.54-2.16,2.14,2.14,0,0,0-1.4-1.2,1.19,1.19,0,0,0-.33-.05,1.47,1.47,0,0,0-.94.38,4.14,4.14,0,0,0-.79.87c-.23.32-.61.9-1.15,1.73a4.58,4.58,0,0,0,1.78,1.33,6,6,0,0,0,2.27.48A3.25,3.25,0,0,0,491.45,444.08Zm5.77,1.91q-.08.18-.21.18c-.1,0-.15-.07-.15-.23q-.12-4.89-.59-14.42l1-.95a.25.25,0,0,1,.16-.05.16.16,0,0,1,.18.18c0,.8,0,2,.07,3.7q.15,5,.15,8.15V444a8,8,0,0,1-.3,1.1A9.56,9.56,0,0,1,497.22,446Zm-3.16-16.26a.25.25,0,0,1-.23.18.16.16,0,0,1-.13-.08.34.34,0,0,1,0-.2,3.19,3.19,0,0,1,.74-1.48,1.85,1.85,0,0,1,1.38-.56,5,5,0,0,1,1.15.18,9.9,9.9,0,0,0,1.73.23,3,3,0,0,0,1-.15,2.33,2.33,0,0,0,.79-.51.32.32,0,0,1,.2-.13c.05,0,.09,0,.11.1a.23.23,0,0,1,0,.2,3.82,3.82,0,0,1-.9,1.33,2.19,2.19,0,0,1-1.58.56,6.41,6.41,0,0,1-1.58-.23l-.53-.1a4.29,4.29,0,0,0-.77-.08,2,2,0,0,0-.84.18A1,1,0,0,0,494.06,429.73Z"/><path class="cls-6" d="M152.36,416.78h96.49a24.43,24.43,0,0,1,24.43,24.43h0a24.43,24.43,0,0,1-24.43,24.43H152.36a24.43,24.43,0,0,1-24.43-24.43h0A24.43,24.43,0,0,1,152.36,416.78Z"/><path class="cls-6" d="M248.85,466.14H152.36a24.93,24.93,0,1,1,0-49.86h96.49a24.93,24.93,0,0,1,0,49.86Zm-96.49-48.86a23.93,23.93,0,1,0,0,47.86h96.49a23.93,23.93,0,0,0,0-47.86Z"/><path class="cls-7" d="M156.21,439.32a.15.15,0,0,1,0-.16l1.13-1.12a.13.13,0,0,1,.15,0l1.15,1.12a.15.15,0,0,1,0,.16l-1.15,1.09s-.09,0-.15,0Zm6.12.1a11.2,11.2,0,0,1,.64,1.83,24,24,0,0,1,.66,2.86,10,10,0,0,1,.21,2.52,4.61,4.61,0,0,1-1.1,2.65,6.55,6.55,0,0,1-2.52,1.91,7.71,7.71,0,0,1-3.27.72,6,6,0,0,1-4.48-1.51,5.52,5.52,0,0,1-1.45-4,13.15,13.15,0,0,1,.91-4.52.4.4,0,0,1,.39-.33.24.24,0,0,1,.2.11.32.32,0,0,1,.1.25l-.05.2a12.52,12.52,0,0,0-.64,3.62,4.61,4.61,0,0,0,1.2,3.37,5.17,5.17,0,0,0,3.82,1.25,7.66,7.66,0,0,0,2.78-.51,6.48,6.48,0,0,0,2.25-1.38,3.34,3.34,0,0,0,1.07-1.78,16.23,16.23,0,0,0-.82-3.32,20.74,20.74,0,0,0-1.2-3l.89-.92c.11-.1.18-.15.23-.15A.21.21,0,0,1,162.33,439.42Zm7.11,4.48v1.56h-.21a2.77,2.77,0,0,1-2.47-1,5.25,5.25,0,0,1-.79-2.8L165.54,429l1-.94a.25.25,0,0,1,.18-.08.16.16,0,0,1,.1,0,.21.21,0,0,1,.05.16c0,1.14.07,2.87.1,5.2s.1,4.69.13,7.08V441a11.41,11.41,0,0,0,.1,1.71,1.39,1.39,0,0,0,.56.89,2.66,2.66,0,0,0,1.51.33Zm12.46,0v1.56h-.2a3.67,3.67,0,0,1-1.71-.36,4.8,4.8,0,0,1-1.28-1c-.39-.48-1-1.32-1.91-2.53a3.2,3.2,0,0,1-.18.82,3.35,3.35,0,0,1-1.68,1.89,9.53,9.53,0,0,1-2.73,1,14.86,14.86,0,0,1-2.54.26h-.44V443.9h.51a11.57,11.57,0,0,0,3.6-.51,5.18,5.18,0,0,0,2.6-1.6q.27-2.48-5.56-7.09l.31-1.53,9.68-4.25a.13.13,0,0,1,.1,0,.13.13,0,0,1,.13.08.27.27,0,0,1,0,.18l-.31,1.35L172,434.06c.88.79,1.64,1.51,2.27,2.17a11.73,11.73,0,0,1,1.66,2.09c.66.89,1.12,1.51,1.37,1.89.9,1.2,1.54,2,1.91,2.5a3.77,3.77,0,0,0,1.12.94,3.33,3.33,0,0,0,1.41.25Zm-10.78-13.3,9-3.9a.21.21,0,0,1,.12,0c.16,0,.22.08.18.23l-.13.84-9.38,4.13Zm15.71,6.86a19.15,19.15,0,0,1,.84,2.44,9.64,9.64,0,0,1,.43,2.55,2.66,2.66,0,0,1,0,.59,2.94,2.94,0,0,1-2,1.81,12.63,12.63,0,0,1-4.25.61h-.11V443.9h.11c2.93,0,4.69-.35,5.27-1.07a18.72,18.72,0,0,0-1.5-4.38l.89-1c.08-.11.15-.16.2-.16S186.78,437.35,186.83,437.46ZM181,448.31a.1.1,0,0,1,0-.18l1.1-1.07q0-.09.15,0l1.1,1.07a.11.11,0,0,1,0,.18l-1.1,1.07a.09.09,0,0,1-.15,0Zm3.16,0a.1.1,0,0,1,0-.18l1.1-1.07q0-.09.15,0l1.1,1.07a.11.11,0,0,1,0,.18l-1.1,1.07a.09.09,0,0,1-.15,0Zm7.8-20q.08,2.11.16,6.5c.06,2.93.1,5.38.1,7.37l0,1.78a9.68,9.68,0,0,1-.3,1.1,9.56,9.56,0,0,1-.33.94.41.41,0,0,1-.08.13.17.17,0,0,1-.13.05c-.1,0-.15-.07-.15-.23q0-2.26-.23-7.85t-.33-8.94l1-.95a.24.24,0,0,1,.18-.07.12.12,0,0,1,.1.05A.13.13,0,0,1,192,428.3Zm5.49,11.12a19.39,19.39,0,0,1,.81,1.91,22.91,22.91,0,0,1,.87,2.8,7.17,7.17,0,0,1,.28,2.5,4.15,4.15,0,0,1-1.27,2.63,8.28,8.28,0,0,1-2.65,1.81,6.7,6.7,0,0,1-2.6.66,2.3,2.3,0,0,1-.84-.26,4.21,4.21,0,0,1-1-.51.19.19,0,0,1-.12-.2c0-.12.07-.18.22-.18a8.67,8.67,0,0,0,3.09-.64,10.92,10.92,0,0,0,2.93-1.52,3.35,3.35,0,0,0,1.43-1.76,22.23,22.23,0,0,0-2.48-6.3l.87-.92a.42.42,0,0,1,.26-.15S197.44,439.33,197.49,439.42Zm23.14-11.14c0,1.53.07,3.68.1,6.45s.05,5.28.05,7.54,0,3.84-.05,4.39a4.58,4.58,0,0,1-1.07,2.57,6.63,6.63,0,0,1-2.42,1.94,7,7,0,0,1-3.14.74,6,6,0,0,1-4.48-1.51,5.52,5.52,0,0,1-1.45-4,13.15,13.15,0,0,1,.91-4.52.4.4,0,0,1,.39-.33.24.24,0,0,1,.2.11.32.32,0,0,1,.1.25l-.05.2a12.52,12.52,0,0,0-.64,3.62,4.61,4.61,0,0,0,1.2,3.37,5.17,5.17,0,0,0,3.82,1.25,6.94,6.94,0,0,0,2.68-.54,6.55,6.55,0,0,0,2.17-1.4,3,3,0,0,0,1-1.73q0-2.37-.53-14.66l-.13-2.91,1-.91a.27.27,0,0,1,.16-.08.16.16,0,0,1,.1,0A.21.21,0,0,1,220.63,428.28ZM228,443.9v1.56h-.21a2.77,2.77,0,0,1-2.47-1,5.25,5.25,0,0,1-.79-2.8L224.11,429l1-.94a.25.25,0,0,1,.18-.08.16.16,0,0,1,.1,0,.21.21,0,0,1,.05.16c0,1.14.07,2.87.1,5.2s.1,4.69.13,7.08V441a11.41,11.41,0,0,0,.1,1.71,1.39,1.39,0,0,0,.56.89,2.66,2.66,0,0,0,1.51.33Zm13.61-6a14.66,14.66,0,0,1,.71,2.35,9,9,0,0,1,.28,2.45,2.57,2.57,0,0,1-.48,1.3,3.25,3.25,0,0,1-1.25,1,4.21,4.21,0,0,1-1.89.41h-.05a2.23,2.23,0,0,1-1.73-.69,2.42,2.42,0,0,1-.59-1.71,3.24,3.24,0,0,1-1.3,1.94,3.48,3.48,0,0,1-1.76.46h-.05a2.32,2.32,0,0,1-1.76-.69,2.52,2.52,0,0,1-.53-1.71,3.47,3.47,0,0,1-3.24,2.4h-.18V443.9H228a2.76,2.76,0,0,0,1.63-.43,3,3,0,0,0,1-1.15,15.2,15.2,0,0,0,.79-1.93l.26-.72a.41.41,0,0,1,.38-.3.32.32,0,0,1,.28.15.38.38,0,0,1,0,.36,8.19,8.19,0,0,0-.43,2.26c0,1.18.56,1.76,1.68,1.76a2.62,2.62,0,0,0,1.66-.48,3.25,3.25,0,0,0,.94-1.35,13.32,13.32,0,0,0,.59-2.27c.05-.24.18-.36.38-.36a.35.35,0,0,1,.26.13.45.45,0,0,1,.07.33,12.56,12.56,0,0,0-.15,1.81,2.93,2.93,0,0,0,.38,1.66,1.46,1.46,0,0,0,1.28.53h0a5.22,5.22,0,0,0,1.61-.23,2,2,0,0,0,1.09-.84,15.45,15.45,0,0,0-1.3-3.92l.84-1a.24.24,0,0,1,.21-.13Q241.55,437.76,241.62,437.91Zm5.83,1.51c.2.39.47,1,.81,1.91a22.91,22.91,0,0,1,.87,2.8,7.42,7.42,0,0,1,.28,2.5,4.16,4.16,0,0,1-1.28,2.63,8.06,8.06,0,0,1-2.65,1.81,6.66,6.66,0,0,1-2.6.66,2.41,2.41,0,0,1-.84-.26,4.13,4.13,0,0,1-.94-.51.19.19,0,0,1-.13-.2c0-.12.08-.18.23-.18a8.71,8.71,0,0,0,3.09-.64,11.08,11.08,0,0,0,2.93-1.52,3.28,3.28,0,0,0,1.42-1.76c-.13-1.24-1-3.34-2.47-6.3l.87-.92a.43.43,0,0,1,.25-.15C247.34,439.29,247.4,439.33,247.45,439.42Zm5.94-11.12q.08,2.11.15,6.5c.07,2.93.1,5.38.1,7.37l0,1.78a8,8,0,0,1-.3,1.1,9.56,9.56,0,0,1-.33.94.29.29,0,0,1-.08.13.15.15,0,0,1-.13.05c-.1,0-.15-.07-.15-.23,0-1.51-.09-4.13-.23-7.85s-.23-6.7-.33-8.94l1-.95a.26.26,0,0,1,.18-.07.11.11,0,0,1,.1.05A.14.14,0,0,1,253.39,428.3Z"/><path class="cls-6" d="M308,416.78h39.15a24.43,24.43,0,0,1,24.43,24.43h0a24.43,24.43,0,0,1-24.43,24.43H308a24.42,24.42,0,0,1-24.42-24.43h0A24.42,24.42,0,0,1,308,416.78Z"/><path class="cls-6" d="M347.17,466.14H308a24.93,24.93,0,0,1,0-49.86h39.15a24.93,24.93,0,0,1,0,49.86ZM308,417.28a23.93,23.93,0,0,0,0,47.86h39.15a23.93,23.93,0,0,0,0-47.86Z"/><path class="cls-7" d="M301.53,455.45c0,.12-.12.18-.2.18s-.16-.08-.16-.23q-.1-3.11-.84-12.24c0-.1.05-.26.2-.48a3.59,3.59,0,0,1,.62-.61,2,2,0,0,1,.74-.41l.28-.05a.76.76,0,0,1,.51.18l.38-.64a14.24,14.24,0,0,1,1.71-2.34,2.35,2.35,0,0,1,1.78-.82,2.3,2.3,0,0,1,1.58.64,4.1,4.1,0,0,1,1.15,1.71,6,6,0,0,1,.41,2.19,5.28,5.28,0,0,1-.26,1.68,2.55,2.55,0,0,1-.76,1.12,1.72,1.72,0,0,1-1.2.46,6.62,6.62,0,0,1-2.63-.76,18.55,18.55,0,0,1-3.18-2l.12,1.71q.39,5.07.39,7.44c0,.56,0,1,0,1.25a5.74,5.74,0,0,1-.28,1.1C301.74,454.9,301.63,455.21,301.53,455.45Zm7.06-11.37a4.91,4.91,0,0,0,.15-1.22,4.49,4.49,0,0,0-.53-2.19,2.16,2.16,0,0,0-1.41-1.2,1,1,0,0,0-.3-.05,1.47,1.47,0,0,0-.94.38,4.52,4.52,0,0,0-.82.87c-.22.3-.61.89-1.17,1.76a10.67,10.67,0,0,0,2.16,1.24,6,6,0,0,0,2.22.54A1.56,1.56,0,0,0,308.59,444.08Zm9.63-.18v1.56h-.13a2.65,2.65,0,0,1-1.73-.64,6.19,6.19,0,0,1,.12,1.81,4.15,4.15,0,0,1-1.27,2.63,8.17,8.17,0,0,1-2.65,1.81,6.66,6.66,0,0,1-2.6.66,2.3,2.3,0,0,1-.84-.26,4.21,4.21,0,0,1-.95-.51.19.19,0,0,1-.12-.2c0-.12.07-.18.23-.18a8.66,8.66,0,0,0,3.08-.64,10.78,10.78,0,0,0,2.93-1.52,3.35,3.35,0,0,0,1.43-1.76,22.42,22.42,0,0,0-2.47-6.3l.86-.92a.44.44,0,0,1,.26-.15c.05,0,.1,0,.15.13a17.12,17.12,0,0,1,.74,1.73,13.49,13.49,0,0,0,.84,1.73,2.25,2.25,0,0,0,.77.79,2.63,2.63,0,0,0,1.22.23Zm10.92-15a.13.13,0,0,1,.1,0,.13.13,0,0,1,.13.08.22.22,0,0,1,0,.18l-.3,1.35-8.36,3.56c.92.84,1.69,1.59,2.32,2.25a11.22,11.22,0,0,1,1.73,2.27,4.91,4.91,0,0,1,.79,2.6,3.68,3.68,0,0,1-.18,1.17,3.35,3.35,0,0,1-1.68,1.89,9.53,9.53,0,0,1-2.73,1,15.07,15.07,0,0,1-2.55.26H318V443.9h.51a11.51,11.51,0,0,0,3.59-.51,5.14,5.14,0,0,0,2.6-1.6q.29-2.48-5.55-7.09l.3-1.53Zm-9.25,1.68,9-3.9a.28.28,0,0,1,.13,0c.15,0,.21.08.18.23l-.13.84-9.38,4.13Zm15.38,15.16a.32.32,0,0,1-.29.23.23.23,0,0,1-.17-.07.21.21,0,0,1-.05-.21c.05-.51.07-1,.07-1.58a26,26,0,0,0-.94-6.75,23,23,0,0,0-2.42-6c.17-.18.37-.39.61-.61s.5-.51.59-.61a.4.4,0,0,1,.25-.15c.05,0,.1,0,.15.13a22.35,22.35,0,0,1,2,5.32,24.3,24.3,0,0,1,.84,6.2,15.24,15.24,0,0,1-.31,3.13,1.23,1.23,0,0,1-.18.54Zm7.63-2.62a2.52,2.52,0,0,1-1.84-.79,2.65,2.65,0,0,1-.79-1.89,2.6,2.6,0,0,1,.77-1.88,2.54,2.54,0,0,1,1.86-.79,2.59,2.59,0,0,1,1.91.79,2.51,2.51,0,0,1,.79,1.88,2.7,2.7,0,0,1-2.7,2.68Zm0-1.25a1.49,1.49,0,0,0,1.05-.41,1.45,1.45,0,0,0,0-2.06,1.44,1.44,0,0,0-1.05-.44,1.35,1.35,0,0,0-1,.46,1.39,1.39,0,0,0-.43,1,1.47,1.47,0,0,0,1.42,1.43Zm8.86,1.25a2.51,2.51,0,0,1-1.83-.79,2.68,2.68,0,0,1,0-3.77,2.54,2.54,0,0,1,1.86-.79,2.61,2.61,0,0,1,1.92.79,2.54,2.54,0,0,1,.79,1.88,2.65,2.65,0,0,1-.79,1.89A2.61,2.61,0,0,1,351.78,443.14Zm0-1.25a1.45,1.45,0,0,0,1-.41,1.47,1.47,0,0,0-1-2.5,1.34,1.34,0,0,0-1,.46,1.4,1.4,0,0,0-.44,1,1.37,1.37,0,0,0,.44,1A1.34,1.34,0,0,0,351.81,441.89Z"/><path class="cls-8" d="M143.9,507.16a9.1,9.1,0,0,1,.07,1.26,11.21,11.21,0,0,1-.58,3.5,7.12,7.12,0,0,1-1.77,2.92,4.87,4.87,0,0,1-3.06,1.36,6.69,6.69,0,0,1-.75,0,7.21,7.21,0,0,1-2.2-.34,41.41,41.41,0,0,1,.44,5.71,27.32,27.32,0,0,1-.48,5.2,4.76,4.76,0,0,1-.34,1c-.13.34-.28.67-.44,1s-.52.68-.88.68a.54.54,0,0,1-.45-.24.85.85,0,0,1-.13-.61l0-1.19a36.56,36.56,0,0,0-1.15-9A37.52,37.52,0,0,0,129,510l3.13-3.3a1.09,1.09,0,0,1,.61-.3c.23,0,.42.19.58.57l0,.11.07.13a6.58,6.58,0,0,0,2,3,5.09,5.09,0,0,0,3.13.91,3.67,3.67,0,0,0,3-1.12,4.31,4.31,0,0,0,.95-2.82.88.88,0,0,1,.2-.61.75.75,0,0,1,.54-.24C143.59,506.34,143.83,506.61,143.9,507.16Zm21.92,0a13.74,13.74,0,0,1,.14,2.11,11.35,11.35,0,0,1-1,4.93,3.31,3.31,0,0,1-3.19,2c-1.43,0-2.43-.84-3-2.52A4,4,0,0,1,155,516.2a6.13,6.13,0,0,1-1.16-.14,38.39,38.39,0,0,1,.41,5.58,24.82,24.82,0,0,1-.48,5.16,4.76,4.76,0,0,1-.34,1c-.13.34-.28.67-.44,1s-.52.68-.88.68a.51.51,0,0,1-.44-.24.8.8,0,0,1-.14-.61l0-1.19a36.56,36.56,0,0,0-1.15-9,37.52,37.52,0,0,0-3.2-8.39l3.13-3.3a1.09,1.09,0,0,1,.61-.3c.23,0,.42.19.58.57v0h0a1,1,0,0,0,.07.17c.41,1,.74,1.73,1,2.21a4.36,4.36,0,0,0,1,1.26,2.73,2.73,0,0,0,1.66.5,2.83,2.83,0,0,0,2.24-.78,4.44,4.44,0,0,0,.82-2.55,1.06,1.06,0,0,1,.24-.64.71.71,0,0,1,.54-.27.59.59,0,0,1,.44.23.83.83,0,0,1,.21.62v.34a4.75,4.75,0,0,0,.61,2.31,1.82,1.82,0,0,0,1.63.74,1.77,1.77,0,0,0,1.84-1,7.81,7.81,0,0,0,.44-3,.93.93,0,0,1,.2-.61.75.75,0,0,1,.55-.24C165.48,506.31,165.73,506.58,165.82,507.12Zm6.38,21.18a2.87,2.87,0,0,1-2.31-.89,3.56,3.56,0,0,1-.89-2.48,7,7,0,0,1,1-3.6,9.24,9.24,0,0,1,2.55-2.79,1.45,1.45,0,0,1,.64-.2.69.69,0,0,1,.51.2.66.66,0,0,1,.21.48,1,1,0,0,1-.38.71,7,7,0,0,0-1.36,1.7,3.38,3.38,0,0,0-.51,1.67l.55,0a2.45,2.45,0,0,1,1.8.75,2.48,2.48,0,0,1,.78,1.87,2.53,2.53,0,0,1-.78,1.84A2.41,2.41,0,0,1,172.2,528.3Zm11.93-1.7a4.79,4.79,0,0,1-2.45-.68,5.12,5.12,0,0,1-1.8-1.84,4.76,4.76,0,0,1-.68-2.44,4.69,4.69,0,0,1,.68-2.48,4.88,4.88,0,0,1,1.8-1.81,4.79,4.79,0,0,1,2.45-.68,4.74,4.74,0,0,1,2.48.68,4.82,4.82,0,0,1,1.83,1.81,4.6,4.6,0,0,1,.68,2.48,4.66,4.66,0,0,1-.68,2.44,5,5,0,0,1-1.83,1.84A4.85,4.85,0,0,1,184.13,526.6Zm0-2.82a2.18,2.18,0,0,0,1.53-.61,2.12,2.12,0,0,0,.64-1.53,2,2,0,0,0-.64-1.5,2.09,2.09,0,0,0-1.53-.64,2.14,2.14,0,0,0,0,4.28Zm14.67,2.82a4.79,4.79,0,0,1-2.45-.68,5.12,5.12,0,0,1-1.8-1.84,4.76,4.76,0,0,1-.68-2.44,4.69,4.69,0,0,1,.68-2.48,4.88,4.88,0,0,1,1.8-1.81,4.79,4.79,0,0,1,2.45-.68,4.74,4.74,0,0,1,2.48.68,4.82,4.82,0,0,1,1.83,1.81,4.6,4.6,0,0,1,.68,2.48,4.66,4.66,0,0,1-.68,2.44,5,5,0,0,1-1.83,1.84A4.85,4.85,0,0,1,198.8,526.6Zm0-2.82a2.18,2.18,0,0,0,1.53-.61,2.12,2.12,0,0,0,.64-1.53,2,2,0,0,0-.64-1.5,2.09,2.09,0,0,0-1.53-.64,2.14,2.14,0,0,0,0,4.28Zm14.67,2.82a4.79,4.79,0,0,1-2.45-.68,5.12,5.12,0,0,1-1.8-1.84,4.66,4.66,0,0,1-.68-2.44,4.6,4.6,0,0,1,.68-2.48,4.88,4.88,0,0,1,1.8-1.81,4.79,4.79,0,0,1,2.45-.68,4.74,4.74,0,0,1,2.48.68,4.82,4.82,0,0,1,1.83,1.81,4.6,4.6,0,0,1,.68,2.48,4.66,4.66,0,0,1-.68,2.44,5,5,0,0,1-1.83,1.84A4.85,4.85,0,0,1,213.47,526.6Zm0-2.82a2.18,2.18,0,0,0,1.53-.61,2.12,2.12,0,0,0,.64-1.53,2,2,0,0,0-.64-1.5,2.09,2.09,0,0,0-1.53-.64,2.14,2.14,0,0,0,0,4.28Z"/><path class="cls-5" d="M142.51,551.08c0,.44.06.78.06,1A7.85,7.85,0,0,1,142,555a5.07,5.07,0,0,1-1.66,2.23,4.29,4.29,0,0,1-2.71.86,4.55,4.55,0,0,1-1.9-.39,28.52,28.52,0,0,1,.8,6.51,16.53,16.53,0,0,1-.35,3.63,3.85,3.85,0,0,1-.21.63,4.06,4.06,0,0,0-.21.53q-.12.36-.39.36a.34.34,0,0,1-.26-.12.37.37,0,0,1-.09-.33c0-.24,0-.6,0-1.1a30.13,30.13,0,0,0-1.16-8.06,27.81,27.81,0,0,0-2.92-7.13c.24-.26.79-.83,1.67-1.7a.56.56,0,0,1,.35-.21.29.29,0,0,1,.27.21,19.33,19.33,0,0,1,.86,1.82,5.14,5.14,0,0,0,1.73,2.14,4.39,4.39,0,0,0,2.38.62,2.73,2.73,0,0,0,2.56-1.31,6.17,6.17,0,0,0,.77-3.12.53.53,0,0,1,.15-.39.45.45,0,0,1,.32-.15.34.34,0,0,1,.27.15A.55.55,0,0,1,142.51,551.08ZM151,568.77a25.16,25.16,0,0,0-2-8.41,32.38,32.38,0,0,0-4.64-7.91,19.55,19.55,0,0,1,1.37-1.91c.16-.17.29-.26.39-.26s.29.14.5.41a29.77,29.77,0,0,1,2,3,22.36,22.36,0,0,1,1.78,4.19,23.15,23.15,0,0,1,1.13,5.92,24.46,24.46,0,0,1,1.16-5.92,23.43,23.43,0,0,1,1.84-4.13,35.13,35.13,0,0,1,2.09-3.1c.21-.23.35-.35.41-.35s.23.11.39.32a18.26,18.26,0,0,1,1.31,1.85,31.79,31.79,0,0,0-4.58,7.85,26.37,26.37,0,0,0-2.08,8.47.91.91,0,0,1-.18.51.42.42,0,0,1-.33.21.44.44,0,0,1-.36-.21A.91.91,0,0,1,151,568.77Zm12.35-.12a2.08,2.08,0,0,1-1.64-.65,2.53,2.53,0,0,1-.62-1.75,4.67,4.67,0,0,1,.74-2.5,6.62,6.62,0,0,1,1.88-2,.53.53,0,0,1,.35-.12.45.45,0,0,1,.33.12.37.37,0,0,1,.12.29.58.58,0,0,1-.24.42,3.59,3.59,0,0,0-1.63,2.62,3.13,3.13,0,0,1,.71-.12,1.86,1.86,0,0,1,1.84,1.84,1.85,1.85,0,0,1-.56,1.34A1.73,1.73,0,0,1,163.37,568.65Zm9.24-2.23a3.43,3.43,0,0,1-1.75-.47,4.09,4.09,0,0,1-1.31-1.34,3.5,3.5,0,0,1-.48-1.78,3.43,3.43,0,0,1,.48-1.79,3.82,3.82,0,0,1,1.31-1.31,3.37,3.37,0,0,1,1.75-.5,3.55,3.55,0,0,1,2.59,1,3.44,3.44,0,0,1,1.07,2.56,3.34,3.34,0,0,1-.51,1.78,3.64,3.64,0,0,1-1.33,1.34A3.58,3.58,0,0,1,172.61,566.42Zm0-1.72a1.91,1.91,0,0,0,1.37-.54,1.79,1.79,0,0,0,.56-1.33,1.7,1.7,0,0,0-.56-1.31,1.86,1.86,0,0,0-1.37-.57,1.77,1.77,0,0,0-1.28.57,1.8,1.8,0,0,0,0,2.61A1.77,1.77,0,0,0,172.61,564.7ZM184,566.42a3.47,3.47,0,0,1-1.76-.47,4.19,4.19,0,0,1-1.31-1.34,3.59,3.59,0,0,1-.47-1.78,3.52,3.52,0,0,1,.47-1.79,3.91,3.91,0,0,1,1.31-1.31,3.4,3.4,0,0,1,1.76-.5,3.53,3.53,0,0,1,2.58,1,3.41,3.41,0,0,1,1.07,2.56,3.33,3.33,0,0,1-.5,1.78,3.66,3.66,0,0,1-1.34,1.34A3.54,3.54,0,0,1,184,566.42Zm0-1.72a1.89,1.89,0,0,0,1.36-.54,1.8,1.8,0,0,0,.57-1.33,1.71,1.71,0,0,0-.57-1.31A1.84,1.84,0,0,0,184,561a1.74,1.74,0,0,0-1.28.57,1.78,1.78,0,0,0,0,2.61A1.74,1.74,0,0,0,184,564.7Zm11.35,1.72a3.43,3.43,0,0,1-1.75-.47,4.09,4.09,0,0,1-1.31-1.34,3.5,3.5,0,0,1-.48-1.78,3.43,3.43,0,0,1,.48-1.79,3.82,3.82,0,0,1,1.31-1.31,3.37,3.37,0,0,1,1.75-.5,3.57,3.57,0,0,1,2.59,1,3.44,3.44,0,0,1,1.07,2.56,3.34,3.34,0,0,1-.51,1.78,3.64,3.64,0,0,1-1.33,1.34A3.58,3.58,0,0,1,195.32,566.42Zm0-1.72a1.91,1.91,0,0,0,1.37-.54,1.79,1.79,0,0,0,.56-1.33,1.7,1.7,0,0,0-.56-1.31,1.86,1.86,0,0,0-1.37-.57,1.77,1.77,0,0,0-1.28.57,1.8,1.8,0,0,0,0,2.61A1.77,1.77,0,0,0,195.32,564.7Z"/><path class="cls-5" d="M128.92,561.07h72.14V562H128.92Z"/><path class="cls-8" d="M263.18,532.85c-.06.21-.18.31-.33.31a.37.37,0,0,1-.23-.1.32.32,0,0,1-.07-.29c0-.2,0-.51,0-.94a25.86,25.86,0,0,0-1-6.91,23.8,23.8,0,0,0-2.5-6.11c.2-.22.68-.71,1.43-1.46a.52.52,0,0,1,.3-.17.25.25,0,0,1,.23.17,23.11,23.11,0,0,1,2,5.33,23.63,23.63,0,0,1,.84,6.07,13.61,13.61,0,0,1-.33,3.11,2.55,2.55,0,0,1-.18.53C263.28,532.58,263.22,532.73,263.18,532.85Zm8.06-2.22a3,3,0,0,1-1.5-.4,3.52,3.52,0,0,1-1.12-1.15,3,3,0,0,1-.41-1.53,2.88,2.88,0,0,1,.41-1.53,3.16,3.16,0,0,1,1.12-1.12,2.83,2.83,0,0,1,1.5-.43,3,3,0,0,1,2.22.89,3,3,0,0,1,.48,3.72,3,3,0,0,1-2.7,1.55Zm0-1.47a1.66,1.66,0,0,0,1.17-.46,1.57,1.57,0,0,0,.49-1.15,1.46,1.46,0,0,0-.49-1.12,1.6,1.6,0,0,0-1.17-.49,1.61,1.61,0,0,0,0,3.22Zm6-10.23a.33.33,0,0,1,0-.12.15.15,0,0,1,0-.13l1.78-1.73a.19.19,0,0,1,.26,0l1.73,1.73a.19.19,0,0,1,.05.13.17.17,0,0,1-.05.12l-1.73,1.76a.16.16,0,0,1-.26,0ZM278,532.8a2.22,2.22,0,0,1-.74-1.45.72.72,0,0,1,.07-.33c1-2.23,2-4.4,3.09-6.5s2.32-4.58,3.8-7.42c0-.09.06-.14.1-.15s.08,0,.15.07a2.27,2.27,0,0,1,.74,1.46.87.87,0,0,1-.05.33L283.52,522q-3.58,7-5.27,10.78c-.05.08-.1.13-.13.13A.31.31,0,0,1,278,532.8Zm3.46-1.73a.19.19,0,0,1,0-.26l1.74-1.73a.17.17,0,0,1,.12-.05.25.25,0,0,1,.16.05l1.73,1.73a.19.19,0,0,1,0,.26l-1.73,1.76a.19.19,0,0,1-.28,0Z"/><rect class="cls-9" x="247.03" y="500.68" width="49.16" height="50.98" rx="16.99"/><path class="cls-5" d="M449.32,371.42c-.11.21-.22.31-.34.31a.34.34,0,0,1-.2-.1.4.4,0,0,1-.08-.23,28.73,28.73,0,0,0-.89-7.55,22.86,22.86,0,0,0-2.65-6.5l.61-.64.84-.81a.65.65,0,0,1,.33-.15.23.23,0,0,1,.21.15,33.33,33.33,0,0,1,1.55,3.52,9.12,9.12,0,0,1,1.74-2.86,3.44,3.44,0,0,1,2.62-1.3,3.22,3.22,0,0,1,1.81.56,4,4,0,0,1,1.4,1.63.44.44,0,0,1,.05.26.39.39,0,0,1-.07.25.25.25,0,0,1-.21.11.65.65,0,0,1-.3-.11,3.78,3.78,0,0,0-2.42-.56,3.21,3.21,0,0,0-1.69.74,5.33,5.33,0,0,0-1.19,1.38,3.68,3.68,0,0,0-.49,1.22,3.44,3.44,0,0,0,1.3.84,6.13,6.13,0,0,0,2.12.33,6.94,6.94,0,0,0,2.06-.22,5.58,5.58,0,0,0,1.2-.59.48.48,0,0,1,.18-.08.21.21,0,0,1,.18.1.38.38,0,0,1,0,.26l-.51,1.78a4.93,4.93,0,0,1-1.3.67,5.57,5.57,0,0,1-1.71.25,7.7,7.7,0,0,1-2.32-.33,6,6,0,0,1-1.66-.79,22.46,22.46,0,0,1,.44,4.28,15.86,15.86,0,0,1-.36,3.42A4.94,4.94,0,0,1,449.32,371.42Zm11.34-.3a1.57,1.57,0,0,1-1.6-1.61,1.5,1.5,0,0,1,.46-1.12,1.58,1.58,0,0,1,1.14-.46,1.61,1.61,0,0,1,1.58,1.58,1.6,1.6,0,0,1-.48,1.15A1.53,1.53,0,0,1,460.66,371.12ZM470,356a.74.74,0,0,1,.16-.43.35.35,0,0,1,.3-.18.35.35,0,0,1,.28.18.74.74,0,0,1,.16.43,22.9,22.9,0,0,0,1.78,7.29,27.5,27.5,0,0,0,3.92,6.7,13,13,0,0,1-1.12,1.58c-.13.19-.24.28-.33.28s-.17-.1-.35-.3c-.67-.89-1.26-1.76-1.79-2.63a20.3,20.3,0,0,1-1.58-3.54,20.88,20.88,0,0,1-1-5.1,20.45,20.45,0,0,1-1,5.1,18.82,18.82,0,0,1-1.53,3.57,25.75,25.75,0,0,1-1.71,2.55c-.19.24-.33.35-.43.35s-.2-.07-.33-.23a14.29,14.29,0,0,1-1.18-1.63,28,28,0,0,0,4-6.75A21.72,21.72,0,0,0,470,356Z"/><path class="cls-5" d="M505.79,354.55l1.84,5.95h5.94a2.11,2.11,0,0,1,1.23,3.82l-4.91,3.61,1.84,5.95c.62,1.91-1.64,3.61-3.07,2.33l-4.92-3.61-4.91,3.61a2,2,0,0,1-3.08-2.33l1.85-5.95-4.92-3.61a2.11,2.11,0,0,1,1.23-3.82h5.94l1.84-5.95A2.18,2.18,0,0,1,505.79,354.55Z"/><path class="cls-8" d="M503.74,530.42a8.2,8.2,0,1,0-16.38,0h-8.2v23.37a8.37,8.37,0,0,0,8.2,8.49h6.14a2.13,2.13,0,0,0,0-4.25h-6.14a4.18,4.18,0,0,1-4.1-4.24V534.67h4.1v4.25a2,2,0,1,0,4.09,0v-4.25h8.2v4.25a2,2,0,1,0,4.09,0v-4.25h4.1v8.5a2.05,2.05,0,1,0,4.1,0V530.42Zm-12.29,0a4.1,4.1,0,1,1,8.2,0Z"/><path class="cls-8" d="M509.89,551.66h-4.1v-4.25a2.05,2.05,0,1,0-4.1,0v4.25H497.6a2.13,2.13,0,0,0,0,4.25h4.09v4.25a2.05,2.05,0,1,0,4.1,0v-4.25h4.1a2.13,2.13,0,0,0,0-4.25Z"/><path class="cls-10" d="M94.1-247H552.9V228.8H94.1Z"/><path class="cls-4" d="M427.78,82.56c-4.4-7.64-16.11-8-21.89,2.54-3.15,5.77-6.45,9.13-9.45,11.08l-5.13-8.6,9.87-5.51L368.65,3.41a48.15,48.15,0,0,0,4.84-4.53c7.75-8.47,16.12-23.74,12-48.44-1.41-7.5-2.28-14.17,1.38-20,6.6-10.55,3.4-18.47-1.35-22-8.67-6.53-18.56-1.48-24.08,4.21l-2.28-32.3c-.46-6.49-2.9-12.1-6.71-15.4A14.13,14.13,0,0,0,342-138.52a14.1,14.1,0,0,0-6.55,2.11l-.09-1.33c-.45-6.39-3.06-12.2-7-15.54A13.7,13.7,0,0,0,318-156.54c-7.9.72-13.16,8.18-14.37,16.09a13.84,13.84,0,0,0-7.19-1.2c-10.48,1-15.26,11.35-14.58,21.06l1.08,15.32a11.35,11.35,0,0,0-5.06-.59c-8.68,1-13.76,9-12.95,20.52L268.32-37h0l.07,1a1.47,1.47,0,0,0,.05.29C270.37-12.71,280,.63,288.79,8.13a49.83,49.83,0,0,1-2,17.35c-4.13,13.9-13.79,24.06-28.6,30.16l-4,1.49-28.14,8.63,8.53,28.52,8-1c-2.45,5.24-4.37,13.45-1.19,24.56,2.83,9.88,11.48,11,16.33,8.64,6.41-3.16,9.85-9.85,3.85-19.16-6.41-10-4.48-14.3-2.62-16.06l1.07-.13L262.61,99l3.25.2c2.25.14,4.43.2,6.53.2,44.24,0,55.63-28.95,56.11-30.24a4.74,4.74,0,1,0-8.87-3.32c-.09.25-10,25.21-50,24l-3.86-12.22-4.15-13.17,0,0c29.87-12.3,35.68-36.61,36.49-50a33.93,33.93,0,0,0,6.47,2.62,4.55,4.55,0,0,0,1,.11,4.74,4.74,0,0,0,1-9.36c-.27-.06-26.25-7.45-28.93-45.5L274.36-86c-.07-1-.55-9.86,4.56-10.44a2.18,2.18,0,0,1,1.75.6c1.82,1.52,3.29,5.28,3.56,9.14l2.06,29.23a4.76,4.76,0,0,0,5.06,4.39,4.74,4.74,0,0,0,4.39-5.06L294-82.29h0l-2.75-38.95c-.29-4.15,1.07-10.49,6-11a4.26,4.26,0,0,1,3.37,1c1.93,1.64,3.36,5.18,3.63,9,0,0,0,0,0,.06l3.23,45.74a4.73,4.73,0,0,0,4.72,4.4h.33A4.75,4.75,0,0,0,317-77l-4.18-59.11c-.36-5.12,2.68-10.66,6-11a4.23,4.23,0,0,1,3.35,1.05c2,1.67,3.41,5.2,3.67,9L330-78a4.76,4.76,0,0,0,5.06,4.39,4.73,4.73,0,0,0,4.39-5.06L336.71-118c0-.06,0-.11,0-.16-.28-4,1.07-10.6,5.92-11a4.74,4.74,0,0,1,3.65,1.13c1.86,1.61,3.19,5,3.46,8.91l4.16,58.93h0V-60l.84,12a3.15,3.15,0,0,0,.09.52,3.06,3.06,0,0,0,.05.32,4.89,4.89,0,0,0,.27.76.36.36,0,0,0,0,.09,4.72,4.72,0,0,0,3.48,2.63,2,2,0,0,0,.24,0,4.89,4.89,0,0,0,.55,0h.34c.14,0,.27,0,.41-.07l.47-.09a3.66,3.66,0,0,0,.43-.15,3.34,3.34,0,0,0,.44-.17l.38-.23c.13-.08.27-.16.39-.25s.22-.2.33-.29a3.55,3.55,0,0,0,.34-.33,3.85,3.85,0,0,0,.26-.34,3.48,3.48,0,0,0,.28-.39c.07-.13.13-.26.19-.4s.14-.27.2-.42.08-.3.12-.46.08-.29.1-.44a4.36,4.36,0,0,0,0-.51,2.42,2.42,0,0,0,0-.38c-.08-2-.41-6.28-.65-9.43l-.2-2.7v0c-.58-8.24.71-14.71,3.74-18.7,1.45-1.91,7.86-8.28,12.76-4.58,2.1,1.58,1.73,5.11-1,9.44-5.92,9.46-4,19.89-2.68,26.7,3.46,20.85-3.36,33.48-9.69,40.41a37.2,37.2,0,0,1-5.88,5.18,4.69,4.69,0,0,0-.93.65c-6.54,4.39-13.57,6.13-18.64,5.77a4.74,4.74,0,1,0-.71,9.45c.72,0,1.45.08,2.19.08a39.46,39.46,0,0,0,18.08-4.87l21,50.86c-.86,1.79-3.6,5.82-11.31,7.37a4.74,4.74,0,0,0,.93,9.38,5,5,0,0,0,.94-.09,26.86,26.86,0,0,0,13.58-6.66l3.42,8.29-2.75,1.53h0l-12.52,7L366,90.84l-45.64-61a4.73,4.73,0,1,0-7.58,5.67l44.88,60h0l24.44,32.66,25.06-14-3.61-6a43.51,43.51,0,0,0,16.86-6.57C430.05,95,430.14,86.66,427.78,82.56Z"/><path class="cls-4" d="M307.48,58.51a5.68,5.68,0,0,1-4.62,5.85,4.73,4.73,0,0,0,.85,9.39,5.07,5.07,0,0,0,.86-.07,15.19,15.19,0,0,0,12.37-15.32,4.66,4.66,0,0,0-4.81-4.66A4.73,4.73,0,0,0,307.48,58.51Z"/><path class="cls-4" d="M313.86-9.17a4.74,4.74,0,0,0,1.68,6.49A25.06,25.06,0,0,0,328.27.79,25.21,25.21,0,0,0,350-11.61a4.73,4.73,0,0,0-1.68-6.49,4.74,4.74,0,0,0-6.48,1.68,15.73,15.73,0,0,1-21.51,5.58A4.73,4.73,0,0,0,313.86-9.17Z"/></g></g></svg>