<svg xmlns="http://www.w3.org/2000/svg" viewBox="0 0 648 648"><defs><style>.cls-1{fill:#ff5e3f;}.cls-2{fill:#ff956d;}</style></defs><g id="Background"><rect class="cls-1" width="648" height="648"/></g><g id="Layer_1" data-name="Layer 1"><path d="M432,162a108,108,0,0,0-216,0H108V459A108.12,108.12,0,0,0,216,567H432A108.12,108.12,0,0,0,540,459V162ZM324,108a54.06,54.06,0,0,1,54,54H270A54.06,54.06,0,0,1,324,108ZM486,459a54.06,54.06,0,0,1-54,54H216a54.06,54.06,0,0,1-54-54V216h54v54a27,27,0,0,0,27,27h0a27,27,0,0,0,27-27V216H378v54a27,27,0,0,0,27,27h0a27,27,0,0,0,27-27V216h54Z"/><path class="cls-2" d="M108,648.5a.5.5,0,0,1-.5-.5V0a.5.5,0,0,1,.5-.5.5.5,0,0,1,.5.5V648A.5.5,0,0,1,108,648.5Z"/><path class="cls-2" d="M162,648.5a.5.5,0,0,1-.5-.5V0a.5.5,0,0,1,.5-.5.5.5,0,0,1,.5.5V648A.5.5,0,0,1,162,648.5Z"/><path class="cls-2" d="M135,648.5a.5.5,0,0,1-.5-.5V0a.5.5,0,0,1,.5-.5.5.5,0,0,1,.5.5V648A.5.5,0,0,1,135,648.5Z"/><path class="cls-2" d="M189,648.5a.5.5,0,0,1-.5-.5V0a.5.5,0,0,1,.5-.5.5.5,0,0,1,.5.5V648A.5.5,0,0,1,189,648.5Z"/><path class="cls-2" d="M243,648.5a.5.5,0,0,1-.5-.5V0a.5.5,0,0,1,.5-.5.5.5,0,0,1,.5.5V648A.5.5,0,0,1,243,648.5Z"/><path class="cls-2" d="M216,648.5a.5.5,0,0,1-.5-.5V0a.5.5,0,0,1,.5-.5.5.5,0,0,1,.5.5V648A.5.5,0,0,1,216,648.5Z"/><path class="cls-2" d="M270,648.5a.5.5,0,0,1-.5-.5V0a.5.5,0,0,1,.5-.5.5.5,0,0,1,.5.5V648A.5.5,0,0,1,270,648.5Z"/><path class="cls-2" d="M324,648.5a.5.5,0,0,1-.5-.5V0a.5.5,0,0,1,.5-.5.5.5,0,0,1,.5.5V648A.5.5,0,0,1,324,648.5Z"/><path class="cls-2" d="M297,648.5a.5.5,0,0,1-.5-.5V0a.5.5,0,0,1,.5-.5.5.5,0,0,1,.5.5V648A.5.5,0,0,1,297,648.5Z"/><path class="cls-2" d="M351,648.5a.5.5,0,0,1-.5-.5V0a.5.5,0,0,1,.5-.5.5.5,0,0,1,.5.5V648A.5.5,0,0,1,351,648.5Z"/><path class="cls-2" d="M405,648.5a.5.5,0,0,1-.5-.5V0a.5.5,0,0,1,.5-.5.5.5,0,0,1,.5.5V648A.5.5,0,0,1,405,648.5Z"/><path class="cls-2" d="M378,648.5a.5.5,0,0,1-.5-.5V0a.5.5,0,0,1,.5-.5.5.5,0,0,1,.5.5V648A.5.5,0,0,1,378,648.5Z"/><path class="cls-2" d="M432,648.5a.5.5,0,0,1-.5-.5V0a.5.5,0,0,1,.5-.5.5.5,0,0,1,.5.5V648A.5.5,0,0,1,432,648.5Z"/><path class="cls-2" d="M486,648.5a.5.5,0,0,1-.5-.5V0a.5.5,0,0,1,.5-.5.5.5,0,0,1,.5.5V648A.5.5,0,0,1,486,648.5Z"/><path class="cls-2" d="M459,648.5a.5.5,0,0,1-.5-.5V0a.5.5,0,0,1,.5-.5.5.5,0,0,1,.5.5V648A.5.5,0,0,1,459,648.5Z"/><path class="cls-2" d="M513,648.5a.5.5,0,0,1-.5-.5V0a.5.5,0,0,1,.5-.5.5.5,0,0,1,.5.5V648A.5.5,0,0,1,513,648.5Z"/><path class="cls-2" d="M567,648.5a.5.5,0,0,1-.5-.5V0a.5.5,0,0,1,.5-.5.5.5,0,0,1,.5.5V648A.5.5,0,0,1,567,648.5Z"/><path class="cls-2" d="M540,648.5a.5.5,0,0,1-.5-.5V0a.5.5,0,0,1,.5-.5.5.5,0,0,1,.5.5V648A.5.5,0,0,1,540,648.5Z"/><path class="cls-2" d="M594,648.5a.5.5,0,0,1-.5-.5V0a.5.5,0,0,1,.5-.5.5.5,0,0,1,.5.5V648A.5.5,0,0,1,594,648.5Z"/><path class="cls-2" d="M621,648.5a.5.5,0,0,1-.5-.5V0a.5.5,0,0,1,.5-.5.5.5,0,0,1,.5.5V648A.5.5,0,0,1,621,648.5Z"/><path class="cls-2" d="M27,648.5a.5.5,0,0,1-.5-.5V0A.5.5,0,0,1,27-.5a.5.5,0,0,1,.5.5V648A.5.5,0,0,1,27,648.5Z"/><path class="cls-2" d="M81,648.5a.5.5,0,0,1-.5-.5V0A.5.5,0,0,1,81-.5a.5.5,0,0,1,.5.5V648A.5.5,0,0,1,81,648.5Z"/><path class="cls-2" d="M54,648.5a.5.5,0,0,1-.5-.5V0A.5.5,0,0,1,54-.5a.5.5,0,0,1,.5.5V648A.5.5,0,0,1,54,648.5Z"/><path class="cls-2" d="M648,108.5H0a.5.5,0,0,1-.5-.5.51.51,0,0,1,.5-.5H648a.5.5,0,0,1,.5.5A.5.5,0,0,1,648,108.5Z"/><path class="cls-2" d="M648,162.5H0a.5.5,0,0,1-.5-.5.51.51,0,0,1,.5-.5H648a.5.5,0,0,1,.5.5A.5.5,0,0,1,648,162.5Z"/><path class="cls-2" d="M648,135.5H0a.5.5,0,0,1-.5-.5.51.51,0,0,1,.5-.5H648a.5.5,0,0,1,.5.5A.5.5,0,0,1,648,135.5Z"/><path class="cls-2" d="M648,189.5H0a.5.5,0,0,1-.5-.5.51.51,0,0,1,.5-.5H648a.5.5,0,0,1,.5.5A.5.5,0,0,1,648,189.5Z"/><path class="cls-2" d="M648,243.5H0a.5.5,0,0,1-.5-.5.51.51,0,0,1,.5-.5H648a.5.5,0,0,1,.5.5A.5.5,0,0,1,648,243.5Z"/><path class="cls-2" d="M648,216.5H0a.5.5,0,0,1-.5-.5.51.51,0,0,1,.5-.5H648a.5.5,0,0,1,.5.5A.5.5,0,0,1,648,216.5Z"/><path class="cls-2" d="M648,270.5H0a.5.5,0,0,1-.5-.5.51.51,0,0,1,.5-.5H648a.5.5,0,0,1,.5.5A.5.5,0,0,1,648,270.5Z"/><path class="cls-2" d="M648,324.5H0a.5.5,0,0,1,0-1H648a.5.5,0,0,1,0,1Z"/><path class="cls-2" d="M648,297.5H0a.5.5,0,0,1,0-1H648a.5.5,0,0,1,0,1Z"/><path class="cls-2" d="M648,351.5H0a.5.5,0,0,1,0-1H648a.5.5,0,0,1,0,1Z"/><path class="cls-2" d="M648,405.5H0a.5.5,0,0,1,0-1H648a.5.5,0,0,1,0,1Z"/><path class="cls-2" d="M648,378.5H0a.5.5,0,0,1,0-1H648a.5.5,0,0,1,0,1Z"/><path class="cls-2" d="M648,432.5H0a.5.5,0,0,1,0-1H648a.5.5,0,0,1,0,1Z"/><path class="cls-2" d="M648,486.5H0a.5.5,0,0,1,0-1H648a.5.5,0,0,1,0,1Z"/><path class="cls-2" d="M648,459.5H0a.5.5,0,0,1,0-1H648a.5.5,0,0,1,0,1Z"/><path class="cls-2" d="M648,513.5H0a.5.5,0,0,1,0-1H648a.5.5,0,0,1,0,1Z"/><path class="cls-2" d="M648,567.5H0a.5.5,0,0,1,0-1H648a.5.5,0,0,1,0,1Z"/><path class="cls-2" d="M648,540.5H0a.5.5,0,0,1,0-1H648a.5.5,0,0,1,0,1Z"/><path class="cls-2" d="M648,594.5H0a.5.5,0,0,1,0-1H648a.5.5,0,0,1,0,1Z"/><path class="cls-2" d="M648,621.5H0a.51.51,0,0,1-.5-.5.5.5,0,0,1,.5-.5H648a.5.5,0,0,1,.5.5A.5.5,0,0,1,648,621.5Z"/><path class="cls-2" d="M648,27.5H0A.5.5,0,0,1-.5,27a.51.51,0,0,1,.5-.5H648a.5.5,0,0,1,.5.5A.5.5,0,0,1,648,27.5Z"/><path class="cls-2" d="M648,81.5H0A.5.5,0,0,1-.5,81a.51.51,0,0,1,.5-.5H648a.5.5,0,0,1,.5.5A.5.5,0,0,1,648,81.5Z"/><path class="cls-2" d="M648,54.5H0A.5.5,0,0,1-.5,54a.51.51,0,0,1,.5-.5H648a.5.5,0,0,1,.5.5A.5.5,0,0,1,648,54.5Z"/></g></svg>