<svg xmlns="http://www.w3.org/2000/svg" xmlns:xlink="http://www.w3.org/1999/xlink" viewBox="0 0 1152 648"><defs><style>.cls-1{fill:none;}.cls-2{fill:#dfdddd;}.cls-3{fill:#fff;}.cls-4{fill:#403e3e;}.cls-5{fill:#ff5c39;}.cls-6{fill:#f4f4f4;}.cls-7{fill:#afacab;}.cls-8{clip-path:url(#clip-path);}.cls-9{fill:#fd5d41;}</style><clipPath id="clip-path"><rect class="cls-1" x="851.32" y="94" width="128" height="80"/></clipPath></defs><g id="Layer_1" data-name="Layer 1"><rect class="cls-2" width="1152" height="648"/><rect class="cls-3" y="46" width="1107.32" height="288"/><path class="cls-4" d="M907.7,266.84c.08,0,.14.11.2.33a5,5,0,0,1,.08.87v.76a5.14,5.14,0,0,1-.08.86c-.06.23-.12.34-.2.34h-2.64a3.92,3.92,0,0,1,.12,1.06,5,5,0,0,1-2.46,4.48c-1.66,1-4,1.54-7.12,1.54-2.66,0-4.46-.53-5.44-1.59a5.16,5.16,0,0,1-1.42-3.53,89.87,89.87,0,0,1,1.34-9l2,.45a76.12,76.12,0,0,0-1.08,7.67,2,2,0,0,0,1.42,2.24,10.64,10.64,0,0,0,3.56.56,18.25,18.25,0,0,0,4-.39,6.6,6.6,0,0,0,2.9-1.35,2.62,2.62,0,0,0-.28-1.56,1.72,1.72,0,0,0-1.18-.54c-.58-.05-1.66-.08-3.26-.08h0l.64-3.16Zm0,3.16c-.06,0-.14-.11-.18-.34a2.75,2.75,0,0,1-.12-.86V268a3.32,3.32,0,0,1,.08-.84c.06-.24.14-.36.22-.36a19.4,19.4,0,0,0,3-.2,6.78,6.78,0,0,0,2.16-.67l-.66-6.41,2.56-.42.06.84c.1,2.42.16,4.39.16,5.9a3.28,3.28,0,0,1-1.7,2.92,8.74,8.74,0,0,1-2.62.92A15.72,15.72,0,0,1,907.68,270Zm7.76,5.12-1.84,2.16-2.16-1.82,1.82-2.16Zm-6.4-1.79,2.18,1.82-1.86,2.19-2.12-1.82Zm12.4-23.69.22,20.36-2.18.31-.56-20.05Zm12,2.8-2.36-2,2-2.38,2.42,2Zm6.92,14.4c.06,0,.14.11.18.33a3.47,3.47,0,0,1,.1.87v.76a3.56,3.56,0,0,1-.1.86c0,.23-.12.34-.18.34h-.68c-1.92,0-3.2-.7-3.86-2.1a4.31,4.31,0,0,1-.34.76,1,1,0,0,1-.36.36,9.57,9.57,0,0,1-2.64,1,14.63,14.63,0,0,1-3.1.36,4.19,4.19,0,0,1-2.78-.81,3.73,3.73,0,0,1-.94-2.91c0-.62,0-1.09,0-1.43l2,.06v.67a1.64,1.64,0,0,0,.18.9.87.87,0,0,0,.62.3,12.78,12.78,0,0,0,1.54.06,12.1,12.1,0,0,0,2.7-.31,6.61,6.61,0,0,0,2.22-.89l-2.12-8.63,2.34-1.43,1.72,8a9.13,9.13,0,0,0,.56,2,1.25,1.25,0,0,0,.84.68A10.61,10.61,0,0,0,940.36,266.84Zm6.94-11.46-2.34-2,2-2.38,2.4,2Zm6.42,12.91q-3.42.84-5,1.18c-1.08.2-2.1.34-3,.42s-2.18.11-3.72.11h-1.58c-.08,0-.14-.11-.2-.34a3.56,3.56,0,0,1-.1-.86V268a3.32,3.32,0,0,1,.08-.84c.06-.24.12-.36.22-.36h3.76a8.26,8.26,0,0,1-.74-3.5,3.93,3.93,0,0,1,1.44-3.36,5.79,5.79,0,0,1,3.72-1.12,11.44,11.44,0,0,1,2.88.39l-.64,2.71a8.14,8.14,0,0,0-2.5-.33,7.46,7.46,0,0,0-2.62.39,11.09,11.09,0,0,0,.28,2.58,7.43,7.43,0,0,0,.78,2.12,52,52,0,0,0,6.84-1.4Zm15.62-12.12a20.52,20.52,0,0,1,4.18,5.37,10.78,10.78,0,0,1,1.26,4.74,5,5,0,0,1-.2,1.4,2.83,2.83,0,0,1-.68,1.06,5.42,5.42,0,0,1-2.38,1.2,14.72,14.72,0,0,1-3.78.42,10.18,10.18,0,0,1-3.08-.36,2.53,2.53,0,0,1-1.46-1.29,6.23,6.23,0,0,1-.42-2.57c0-.47,0-.83,0-1.1l2,.12v.42a2,2,0,0,0,.22,1.12,1.11,1.11,0,0,0,.8.42,18.35,18.35,0,0,0,2,.08c.74,0,1.56,0,2.5-.11a8.06,8.06,0,0,0,2.2-.48,7.38,7.38,0,0,0-1.28-4.06,20.74,20.74,0,0,0-3.64-4.17Zm11.38-6.53.22,20.36-2.18.31-.56-20.05Zm15.76,17.2c.08,0,.14.11.2.33a3.58,3.58,0,0,1,.08.87v.76a3.65,3.65,0,0,1-.08.86c-.06.23-.12.34-.2.34h-2.32a10,10,0,0,1-2.84,4.51,16.67,16.67,0,0,1-5.2,3.27l-1.54-2.52a18.59,18.59,0,0,0,4.62-2.43,10.12,10.12,0,0,0,2.88-3.05,15,15,0,0,1-2.94.28,15.31,15.31,0,0,1-2-.14,1.76,1.76,0,0,1-.76-.34,4,4,0,0,1-.66-.78,3.48,3.48,0,0,1-.5-.9,2.73,2.73,0,0,1-.1-.81,13.44,13.44,0,0,1,1.24-5,3.88,3.88,0,0,1,6.94-.09,12,12,0,0,1,1.16,4.88Zm-9.24.16a8.91,8.91,0,0,0,2.24.2,14.21,14.21,0,0,0,2.88-.22,6.27,6.27,0,0,0-.66-3.31,2.2,2.2,0,0,0-2-1,2,2,0,0,0-1.82,1.12A6.65,6.65,0,0,0,987.24,267Zm17.36-6.55a3.52,3.52,0,0,1,3.16,1.74,7.68,7.68,0,0,1,1.12,4.23,10.79,10.79,0,0,1-.36,2.82,2.57,2.57,0,0,1-.38.76,3.32,3.32,0,0,1-.78.78,2,2,0,0,1-1.26.62,1.47,1.47,0,0,1-.66-.17l-5.22-2.41a3,3,0,0,1-1.22.87,5.09,5.09,0,0,1-2,.31h-.56c-.08,0-.14-.11-.2-.34a2.75,2.75,0,0,1-.12-.86V268a4.6,4.6,0,0,1,.08-.84q.09-.36.24-.36h1a4,4,0,0,0,1.16-.12,1.29,1.29,0,0,0,.7-.53,6.83,6.83,0,0,0,.8-1.51,11.6,11.6,0,0,1,1.84-3.08A3.38,3.38,0,0,1,1004.6,260.45Zm1.9,8.26a5.49,5.49,0,0,0,.34-2,4.34,4.34,0,0,0-.66-2.44,2,2,0,0,0-1.9-1,1.91,1.91,0,0,0-1.46.84,9.53,9.53,0,0,0-1.3,2.41Z"/><path class="cls-4" d="M735.7,255.55a16.93,16.93,0,0,1,4.5,5.27,12.34,12.34,0,0,1,1.28,5.62c0,1.31-.86,2.25-2.56,2.83a28.78,28.78,0,0,1-8.22.84,24.15,24.15,0,0,1-5.12-.45,6,6,0,0,1-3.08-1.59,4.53,4.53,0,0,1-1.06-3.17,10.68,10.68,0,0,1,.14-1.59l.72-4.34,2,.42-.64,3.83a5.15,5.15,0,0,0-.08.9,2.25,2.25,0,0,0,.78,1.88,4.25,4.25,0,0,0,2.14.78,32.91,32.91,0,0,0,3.78.17c2.1,0,4-.08,5.6-.23a13.71,13.71,0,0,0,3.58-.72,9.1,9.1,0,0,0-2-5.16,23.53,23.53,0,0,0-5.26-4.7l.08-2.63a63.59,63.59,0,0,1,9.44-4.2L742,252c-2.58,1-4.94,2-7.1,3A7.29,7.29,0,0,1,735.7,255.55Zm17.5,11.29c.08,0,.14.11.2.33a5,5,0,0,1,.08.87v.76a5.14,5.14,0,0,1-.08.86c-.06.23-.12.34-.2.34h-.68a5.5,5.5,0,0,1-4-1.26c-.84-.84-1.3-2.29-1.36-4.34l-.42-14.14,2.56-.62.22,14.79a2.44,2.44,0,0,0,.68,1.76,2.39,2.39,0,0,0,1.78.65Zm11.22-13.25-2.1-1.76,1.78-2.16,2.14,1.82Zm0,2.16,1.8-2.13,2.12,1.79-1.78,2.13Zm-2,1.85-2.12-1.8,1.78-2.15,2.16,1.79Zm9.7,1.51q.18,3.86.18,7.19a3.12,3.12,0,0,1-1.36,2.8,5.91,5.91,0,0,1-3.34.9,3,3,0,0,1-3-1.65,3.19,3.19,0,0,1-1.54,1.23A5.5,5.5,0,0,1,761,270a2.86,2.86,0,0,1-3-1.68c-.76,1.12-2.36,1.68-4.78,1.68-.08,0-.14-.11-.2-.34a2.75,2.75,0,0,1-.12-.86V268a4.6,4.6,0,0,1,.08-.84q.09-.36.24-.36a8.15,8.15,0,0,0,3.66-.68l.06-4.31,2.3.06-.1,3.36c0,.67.16,1.1.52,1.29a3.9,3.9,0,0,0,1.7.28,3.1,3.1,0,0,0,2.12-.59l-.1-5.49,2.32-.06.12,5.69a2.36,2.36,0,0,0,1.58.45,6,6,0,0,0,2.8-.59l-.6-6.69Zm15.38,7.73c.08,0,.14.11.2.33a3.58,3.58,0,0,1,.08.87v.76a3.65,3.65,0,0,1-.08.86c-.06.23-.12.34-.2.34h-2.32a9.94,9.94,0,0,1-2.82,4.51,16.77,16.77,0,0,1-5.22,3.27l-1.54-2.52a18.59,18.59,0,0,0,4.62-2.43,10,10,0,0,0,2.9-3.05,14.81,14.81,0,0,1-4.9.14,1.66,1.66,0,0,1-.76-.34,4,4,0,0,1-.68-.78,4.2,4.2,0,0,1-.5-.9,2.19,2.19,0,0,1-.08-.81,13.07,13.07,0,0,1,1.22-5,3.9,3.9,0,0,1,7-.09,12.3,12.3,0,0,1,1.14,4.88Zm-9.24.16a9,9,0,0,0,2.24.2,14.57,14.57,0,0,0,2.9-.22,6.24,6.24,0,0,0-.68-3.31,2.18,2.18,0,0,0-2-1,2,2,0,0,0-1.82,1.12A6.89,6.89,0,0,0,778.26,267Zm9.24,3c-.08,0-.14-.11-.2-.34a2.78,2.78,0,0,1-.1-.86V268a3.32,3.32,0,0,1,.08-.84c.06-.24.12-.36.22-.36a19.12,19.12,0,0,0,3-.2,6.78,6.78,0,0,0,2.16-.67l-.64-6.41,2.54-.42.06.84q.18,3.63.18,5.9A3.26,3.26,0,0,1,793,268.8a8.61,8.61,0,0,1-2.6.92A15.72,15.72,0,0,1,787.5,270Zm7.48,4.82-1.8,2.15-2.12-1.79,1.78-2.16ZM789,277l-2.14-1.79,1.8-2.16,2.16,1.82Zm1.72,0,2.16,1.79-1.78,2.13L789,279.13ZM808,259.86a3.65,3.65,0,0,1,3.7,2.38,13.55,13.55,0,0,1,1,5.24,9,9,0,0,1-2.24,6,15.73,15.73,0,0,1-6.12,4.28l-1.54-2.52a19.33,19.33,0,0,0,4.62-2.43,10.12,10.12,0,0,0,2.88-3.05,14.81,14.81,0,0,1-4.9.14,1.66,1.66,0,0,1-.76-.34,4.82,4.82,0,0,1-.68-.78,4.2,4.2,0,0,1-.5-.9,2.72,2.72,0,0,1-.08-.81,13.07,13.07,0,0,1,1.24-5A3.57,3.57,0,0,1,808,259.86ZM805.4,267a8.8,8.8,0,0,0,2.24.2,14.48,14.48,0,0,0,2.88-.22,6.06,6.06,0,0,0-.68-3.31,2.18,2.18,0,0,0-2-1,2,2,0,0,0-1.82,1.12A6.92,6.92,0,0,0,805.4,267Zm31.06-.16c.08,0,.14.11.2.33a3.58,3.58,0,0,1,.08.87v.76a3.65,3.65,0,0,1-.08.86c-.06.23-.12.34-.2.34h-.66c-1.94,0-3.22-.7-3.88-2.1a4.45,4.45,0,0,1-.32.76.88.88,0,0,1-.38.36,9.17,9.17,0,0,1-2.62,1,14.66,14.66,0,0,1-3.12.36,4.13,4.13,0,0,1-2.76-.81,3.66,3.66,0,0,1-1-2.91c0-.62,0-1.09,0-1.43l2,.06v.67a1.89,1.89,0,0,0,.16.9.92.92,0,0,0,.62.3,13,13,0,0,0,1.54.06,12.41,12.41,0,0,0,2.72-.31A6.79,6.79,0,0,0,831,266l-2.14-8.63,2.36-1.43,1.7,8a10.41,10.41,0,0,0,.56,2,1.25,1.25,0,0,0,.84.68A10.9,10.9,0,0,0,836.46,266.84Zm8.14-6.39a3.52,3.52,0,0,1,3.16,1.74,7.68,7.68,0,0,1,1.12,4.23,10.79,10.79,0,0,1-.36,2.82,2.57,2.57,0,0,1-.38.76,3.32,3.32,0,0,1-.78.78,2,2,0,0,1-1.26.62,1.47,1.47,0,0,1-.66-.17l-5.22-2.41a3,3,0,0,1-1.22.87,5.09,5.09,0,0,1-2,.31h-.56c-.08,0-.14-.11-.2-.34a2.75,2.75,0,0,1-.12-.86V268a4.6,4.6,0,0,1,.08-.84q.09-.36.24-.36h1a4,4,0,0,0,1.16-.12,1.29,1.29,0,0,0,.7-.53,6.83,6.83,0,0,0,.8-1.51A11.6,11.6,0,0,1,842,261.6,3.38,3.38,0,0,1,844.6,260.45Zm1.9,8.26a5.49,5.49,0,0,0,.34-2,4.34,4.34,0,0,0-.66-2.44,2,2,0,0,0-1.9-1,1.91,1.91,0,0,0-1.46.84,9.53,9.53,0,0,0-1.3,2.41Z"/><path class="cls-4" d="M512,266.84c.08,0,.14.11.2.33a3.58,3.58,0,0,1,.08.87v.76a3.65,3.65,0,0,1-.08.86c-.06.23-.12.34-.2.34h-1a4.27,4.27,0,0,1-2.42-.67,2.86,2.86,0,0,1-1.2-2.05l-.26.54a1.54,1.54,0,0,1-1.26,1.06,20.39,20.39,0,0,1-2.28.17,4.86,4.86,0,0,1-2.86-.65,2.79,2.79,0,0,1-.88-2.35,6.43,6.43,0,0,1,1.46-4.25,8.85,8.85,0,0,1,4.42-2.58l-.24-2.13,2.38-.67.72,7.45a11.77,11.77,0,0,0,.32,2,1.21,1.21,0,0,0,.72.75,5.6,5.6,0,0,0,1.9.23Zm-8.54-.76a10.6,10.6,0,0,0,3.12-.45l-.46-3.95a5.59,5.59,0,0,0-3.22,1.68,4.2,4.2,0,0,0-1.08,2.52A5.93,5.93,0,0,0,503.44,266.08Zm13.88-9.8-2.38-2,2-2.38,2.42,2Zm1.7,2.86.06.84c.12,2.42.16,4.39.16,5.9a3.24,3.24,0,0,1-1.7,2.92,8.61,8.61,0,0,1-2.6.92A16,16,0,0,1,512,270c-.08,0-.14-.11-.2-.34a2.75,2.75,0,0,1-.12-.86V268a3.22,3.22,0,0,1,.1-.84c0-.24.12-.36.22-.36a19.12,19.12,0,0,0,3-.2,6.78,6.78,0,0,0,2.16-.67l-.64-6.41Zm11.14,7.7c.08,0,.14.11.2.33a3.58,3.58,0,0,1,.08.87v.76a3.65,3.65,0,0,1-.08.86c-.06.23-.12.34-.2.34h-.66a5.52,5.52,0,0,1-4-1.26c-.84-.84-1.28-2.29-1.34-4.34l-.42-14.14,2.54-.62.24,14.79a2.26,2.26,0,0,0,2.46,2.41Zm8.68-11.09-2.36-2,2-2.38,2.4,2Zm1.68,3.83c1.58.6,2.94,1.07,4.08,1.4a12.23,12.23,0,0,0,3.24.48l-.6,2.83a7.38,7.38,0,0,0-2.56.59,33.75,33.75,0,0,0-3,1.54l-1,.53a33.26,33.26,0,0,1-4.72,2.27,14.78,14.78,0,0,1-5,.78h-.78c-.08,0-.14-.11-.2-.34a2.78,2.78,0,0,1-.1-.86V268a3.32,3.32,0,0,1,.08-.84c.06-.24.12-.36.22-.36H531a13.55,13.55,0,0,0,3.64-.51,33.22,33.22,0,0,0,3.86-1.31c1-.43,1.7-.76,2.16-1l1.82-.79a5,5,0,0,1,.56-.17l-.16,0a16.46,16.46,0,0,1-3.5-1.12,10.9,10.9,0,0,0-3.5-1,1.1,1.1,0,0,0-1,.53,4.38,4.38,0,0,0-.5,1.34l-1.94-.33a7.22,7.22,0,0,1,1.16-3.14,2.64,2.64,0,0,1,2.32-1.09,6,6,0,0,1,1.76.33C538.3,258.81,539.28,259.14,540.52,259.58Zm12.94-2.21-2.38-2,2-2.38,2.38,2Zm7.16,9.47c.08,0,.14.11.2.33a3.58,3.58,0,0,1,.08.87v.76a3.65,3.65,0,0,1-.08.86c-.06.23-.12.34-.2.34h-.78a4.26,4.26,0,0,1-3.5-1.32v.12a7.26,7.26,0,0,1-2,4.9,18.85,18.85,0,0,1-6.1,4.2l-1.54-2.5a23.28,23.28,0,0,0,5-2.88,7.51,7.51,0,0,0,2.38-2.86l-.92-8.2,2.5-.62.38,3.81a2.59,2.59,0,0,0,.56,1.49,2.13,2.13,0,0,0,1.2.58,14.1,14.1,0,0,0,2.1.12Zm10.32,0c.08,0,.14.11.2.33a3.58,3.58,0,0,1,.08.87v.76a3.65,3.65,0,0,1-.08.86c-.06.23-.12.34-.2.34a10.51,10.51,0,0,1-3.56-.45,2.25,2.25,0,0,1-1.42-1.48,3.21,3.21,0,0,1-1.88,1.48,10.91,10.91,0,0,1-3.46.45c-.08,0-.14-.11-.2-.34a2.75,2.75,0,0,1-.12-.86V268a4.6,4.6,0,0,1,.08-.84q.09-.36.24-.36a9.22,9.22,0,0,0,4.16-.73l-.52-5.57,2.52-.23.32,6a4,4,0,0,0,1.36.44A18.9,18.9,0,0,0,570.94,266.84Zm-3.58,6.46,2.12,1.8-1.78,2.12-2.14-1.79Zm-3.84,3.95-2.12-1.76,1.78-2.16,2.16,1.79Zm1.74,0,2.16,1.82-1.82,2.1-2.1-1.76Zm16.88-23.66-2.1-1.76,1.8-2.16,2.12,1.82Zm.06,2.16,1.8-2.13,2.12,1.79-1.78,2.13Zm-2,1.85L578,255.8l1.78-2.15,2.16,1.79Zm9.68,1.51c.14,2.57.2,5,.2,7.19a3.12,3.12,0,0,1-1.36,2.8,5.91,5.91,0,0,1-3.34.9,2.51,2.51,0,0,0-4.6-.42,5.32,5.32,0,0,1-2,.42,2.86,2.86,0,0,1-3-1.68q-1.14,1.68-4.8,1.68c-.06,0-.14-.11-.18-.34a2.75,2.75,0,0,1-.12-.86V268a3.32,3.32,0,0,1,.08-.84c.06-.24.14-.36.22-.36a8.18,8.18,0,0,0,3.68-.68l.06-4.31,2.28.06-.08,3.36c0,.67.16,1.1.5,1.29a4.06,4.06,0,0,0,1.72.28,3.1,3.1,0,0,0,2.12-.59l-.1-5.49,2.32-.06.1,5.69a2.46,2.46,0,0,0,1.6.45,6,6,0,0,0,2.8-.59l-.62-6.69Zm8.86-7.65c-1-.05-2-.15-2.84-.28s-1.2-.11-1.36-.11a1.3,1.3,0,0,0-.86.25,2.22,2.22,0,0,0-.4,1l-1.76-.42a8.24,8.24,0,0,1,.74-2,2.18,2.18,0,0,1,.88-1,3,3,0,0,1,1.38-.28,14.55,14.55,0,0,1,1.76.14c1.34.13,2.32.21,2.92.25l1.48,0-.56,2.43Zm-1,18.54-2.2.31L595,254l2.42-.62ZM611,259.86a3.66,3.66,0,0,1,3.7,2.38,13.55,13.55,0,0,1,1,5.24,9,9,0,0,1-2.24,6,15.81,15.81,0,0,1-6.14,4.28l-1.54-2.52a18.59,18.59,0,0,0,4.62-2.43,10,10,0,0,0,2.9-3.05,14.81,14.81,0,0,1-4.9.14,1.66,1.66,0,0,1-.76-.34,4,4,0,0,1-.68-.78,4.2,4.2,0,0,1-.5-.9,2.19,2.19,0,0,1-.08-.81,13.07,13.07,0,0,1,1.22-5A3.62,3.62,0,0,1,611,259.86ZM608.44,267a9,9,0,0,0,2.24.2,14.57,14.57,0,0,0,2.9-.22,6.24,6.24,0,0,0-.68-3.31,2.18,2.18,0,0,0-2-1,2,2,0,0,0-1.82,1.12A6.89,6.89,0,0,0,608.44,267Zm28.8-.16c.08,0,.14.11.2.33a3.58,3.58,0,0,1,.08.87v.76a3.65,3.65,0,0,1-.08.86c-.06.23-.12.34-.2.34h-1a4.27,4.27,0,0,1-2.42-.67,2.86,2.86,0,0,1-1.2-2.05l-.26.54a1.54,1.54,0,0,1-1.26,1.06,20.07,20.07,0,0,1-2.28.17,4.86,4.86,0,0,1-2.86-.65,2.79,2.79,0,0,1-.88-2.35,6.43,6.43,0,0,1,1.46-4.25,8.85,8.85,0,0,1,4.42-2.58l-.24-2.13,2.38-.67.72,7.45a11.77,11.77,0,0,0,.32,2,1.21,1.21,0,0,0,.72.75,5.6,5.6,0,0,0,1.9.23Zm-8.54-.76a10.51,10.51,0,0,0,3.12-.45l-.46-3.95a5.59,5.59,0,0,0-3.22,1.68,4.2,4.2,0,0,0-1.08,2.52A5.93,5.93,0,0,0,628.7,266.08Zm13.88-9.8-2.38-2,2-2.38,2.42,2Zm1.7,2.86.06.84c.12,2.42.16,4.39.16,5.9a3.24,3.24,0,0,1-1.7,2.92,8.61,8.61,0,0,1-2.6.92,16,16,0,0,1-2.94.28c-.08,0-.14-.11-.2-.34a2.75,2.75,0,0,1-.12-.86V268a3.22,3.22,0,0,1,.1-.84c0-.24.12-.36.22-.36a19.12,19.12,0,0,0,3-.2,6.78,6.78,0,0,0,2.16-.67l-.64-6.41Zm11.14,7.7c.08,0,.14.11.2.33a3.58,3.58,0,0,1,.08.87v.76a3.65,3.65,0,0,1-.08.86c-.06.23-.12.34-.2.34h-.66a5.52,5.52,0,0,1-4-1.26c-.84-.84-1.28-2.29-1.34-4.34L649,250.26l2.54-.62.24,14.79a2.52,2.52,0,0,0,.66,1.76,2.47,2.47,0,0,0,1.8.65Zm8.68-11.09-2.36-2,2-2.38,2.4,2Zm1.68,3.83c1.58.6,2.94,1.07,4.08,1.4a12.23,12.23,0,0,0,3.24.48l-.6,2.83a7.38,7.38,0,0,0-2.56.59,33.75,33.75,0,0,0-3,1.54l-1,.53a32.25,32.25,0,0,1-4.72,2.27,14.78,14.78,0,0,1-5,.78h-.78c-.08,0-.14-.11-.2-.34a3.56,3.56,0,0,1-.1-.86V268a3.32,3.32,0,0,1,.08-.84c.06-.24.12-.36.22-.36h.78a13.55,13.55,0,0,0,3.64-.51,33.22,33.22,0,0,0,3.86-1.31c1-.43,1.7-.76,2.16-1l1.82-.79a5,5,0,0,1,.56-.17l-.16,0a16.46,16.46,0,0,1-3.5-1.12,10.9,10.9,0,0,0-3.5-1,1.1,1.1,0,0,0-1,.53,4.38,4.38,0,0,0-.5,1.34l-1.94-.33a7.48,7.48,0,0,1,1.16-3.14,2.67,2.67,0,0,1,2.32-1.09,5.93,5.93,0,0,1,1.76.33C663.58,258.81,664.54,259.14,665.78,259.58Z"/><path class="cls-4" d="M344.8,266.84c.06,0,.14.11.18.33a3.47,3.47,0,0,1,.1.87v.76a3.56,3.56,0,0,1-.1.86c0,.23-.12.34-.18.34h-1a5.08,5.08,0,0,1,.1,1.06,5,5,0,0,1-2.46,4.48c-1.64,1-4,1.54-7.1,1.54-2.66,0-4.48-.53-5.44-1.59a5.07,5.07,0,0,1-1.42-3.53,89.87,89.87,0,0,1,1.34-9l2,.45c-.58,3.19-.94,5.75-1.1,7.67a2,2,0,0,0,1.44,2.24,10.52,10.52,0,0,0,3.54.56,18.32,18.32,0,0,0,4-.39,6.42,6.42,0,0,0,2.88-1.35,2.48,2.48,0,0,0-.28-1.56,1.68,1.68,0,0,0-1.18-.54c-.58-.05-1.66-.08-3.24-.08h-.06l.64-3.16Zm6.74-10L349.38,255l1.82-2.16,2.16,1.8Zm-4.2.06-2.18-1.85,1.82-2.16,2.18,1.82Zm7.78,9.94c.08,0,.14.11.2.33a3.58,3.58,0,0,1,.08.87v.76a3.65,3.65,0,0,1-.08.86c-.06.23-.12.34-.2.34a10.51,10.51,0,0,1-3.56-.45,2.25,2.25,0,0,1-1.42-1.48,3.21,3.21,0,0,1-1.88,1.48,11,11,0,0,1-3.46.45c-.08,0-.14-.11-.2-.34a2.75,2.75,0,0,1-.12-.86V268a4.6,4.6,0,0,1,.08-.84q.09-.36.24-.36a9.28,9.28,0,0,0,4.16-.73l-.52-5.57,2.52-.23.32,6a4,4,0,0,0,1.36.44A18.9,18.9,0,0,0,355.12,266.84Zm18.9-7.73c.14,2.57.2,5,.2,7.19a3.12,3.12,0,0,1-1.36,2.8,5.91,5.91,0,0,1-3.34.9,3,3,0,0,1-3.06-1.65,3,3,0,0,1-1.54,1.23,5.32,5.32,0,0,1-2,.42,2.86,2.86,0,0,1-3-1.68q-1.14,1.68-4.8,1.68c-.06,0-.14-.11-.18-.34a2.75,2.75,0,0,1-.12-.86V268a3.32,3.32,0,0,1,.08-.84c.06-.24.14-.36.22-.36a8.18,8.18,0,0,0,3.68-.68l.06-4.31,2.28.06-.08,3.36c0,.67.16,1.1.5,1.29a4.06,4.06,0,0,0,1.72.28,3.1,3.1,0,0,0,2.12-.59l-.1-5.49,2.32-.06.1,5.69a2.46,2.46,0,0,0,1.6.45,6,6,0,0,0,2.8-.59l-.62-6.69Zm10.58-2.94a20.39,20.39,0,0,1,4.16,5.37,10.78,10.78,0,0,1,1.26,4.74,5,5,0,0,1-.18,1.4,2.83,2.83,0,0,1-.68,1.06,5.42,5.42,0,0,1-2.38,1.2,14.72,14.72,0,0,1-3.78.42,10.09,10.09,0,0,1-3.08-.36,2.47,2.47,0,0,1-1.46-1.29,6.23,6.23,0,0,1-.42-2.57c0-.47,0-.83,0-1.1l2,.12v.42a2,2,0,0,0,.24,1.12,1.11,1.11,0,0,0,.8.42,18.09,18.09,0,0,0,2,.08c.72,0,1.56,0,2.5-.11a8.06,8.06,0,0,0,2.2-.48,7.38,7.38,0,0,0-1.28-4.06,20.74,20.74,0,0,0-3.64-4.17Zm29.56,10.67c.08,0,.14.11.2.33a3.58,3.58,0,0,1,.08.87v.76a3.65,3.65,0,0,1-.08.86c-.06.23-.12.34-.2.34h-1.78a12.44,12.44,0,0,1-3.22-.34,5.2,5.2,0,0,1-2.06-1.09,6.24,6.24,0,0,1-1.4-2,17.44,17.44,0,0,0-2.2,1.57,10,10,0,0,0-1.74,1.85,13.57,13.57,0,0,0-.26,2.38,5.37,5.37,0,0,0,1.6,4.25,7.14,7.14,0,0,0,4.9,1.43h5.46l-.58,3.17h-5.1a9.14,9.14,0,0,1-5.1-1.29,7.42,7.42,0,0,1-2.82-3.19,10.05,10.05,0,0,1-.84-4,7.93,7.93,0,0,1,1.26-4.53,16.17,16.17,0,0,1,3.8-3.78l-.78-1.26q-1-1.6-1.62-2.52a5.78,5.78,0,0,0-.82-1.07.41.41,0,0,0-.42-.11l-.64.06.08-2.75,4.42-.42c1.1-.09,2.1-.14,3-.14a8.83,8.83,0,0,1,3.5.54,1.81,1.81,0,0,1,1.2,1.76v.87a4.24,4.24,0,0,1-.6,1.76,12.41,12.41,0,0,1-1.58,2.35,9.81,9.81,0,0,1-2.16,2,2.88,2.88,0,0,0,1.54,1.07,7.65,7.65,0,0,0,2.06.28ZM403,259.16a1.47,1.47,0,0,1,.6.54c.2.28.6.87,1.18,1.79.2.3.42.64.66,1s.56.83.88,1.32a10.17,10.17,0,0,0,2-2,7.23,7.23,0,0,0,1.4-2.44c-.2-.28-1.24-.42-3.08-.42A25.77,25.77,0,0,0,403,259.16ZM414.16,270c-.08,0-.14-.11-.2-.34a3.56,3.56,0,0,1-.1-.86V268a3.32,3.32,0,0,1,.08-.84c.06-.24.14-.36.22-.36a19.4,19.4,0,0,0,3-.2,6.49,6.49,0,0,0,2.14-.67l-.64-6.41,2.56-.42,0,.84q.18,3.63.18,5.9a3.26,3.26,0,0,1-1.72,2.92,8.41,8.41,0,0,1-2.6.92A15.72,15.72,0,0,1,414.16,270Zm7.76,5.12-1.84,2.16-2.16-1.82,1.82-2.16Zm-6.42-1.79,2.2,1.82-1.86,2.19-2.12-1.82Zm16.84-6.49c.06,0,.14.11.2.33a5,5,0,0,1,.08.87v.76a5.14,5.14,0,0,1-.08.86c-.06.23-.14.34-.2.34h-.68a5.5,5.5,0,0,1-4-1.26c-.84-.84-1.3-2.29-1.36-4.34l-.42-14.14,2.56-.62.22,14.79a2.44,2.44,0,0,0,.68,1.76,2.39,2.39,0,0,0,1.78.65Zm4.72-9.52-2.38-2,2-2.38,2.4,2Zm5.62,9.52c.08,0,.14.11.2.33a3.58,3.58,0,0,1,.08.87v.76a3.65,3.65,0,0,1-.08.86c-.06.23-.12.34-.2.34a10.44,10.44,0,0,1-3.56-.45,2.25,2.25,0,0,1-1.42-1.48,3.21,3.21,0,0,1-1.88,1.48,11,11,0,0,1-3.48.45c-.06,0-.14-.11-.18-.34a2.75,2.75,0,0,1-.12-.86V268a3.32,3.32,0,0,1,.08-.84c.06-.24.14-.36.22-.36a9.31,9.31,0,0,0,4.18-.73l-.54-5.57,2.52-.23.34,6a3.83,3.83,0,0,0,1.34.44A19.25,19.25,0,0,0,442.68,266.84Zm17.16-8.68a4.42,4.42,0,0,1,3.78,1.68,8,8,0,0,1,1.26,4.92,5.44,5.44,0,0,1-.16,1.49,2.83,2.83,0,0,1-.58,1.06,7.3,7.3,0,0,1-3.5,2.05,20.7,20.7,0,0,1-5.8.72c-3.5,0-5.92-.52-7.28-1.56a7,7,0,0,1-2.3,1.09,9.29,9.29,0,0,1-2.58.39c-.08,0-.14-.11-.2-.34a3.56,3.56,0,0,1-.1-.86V268a3.32,3.32,0,0,1,.08-.84c.06-.24.12-.36.22-.36a8.76,8.76,0,0,0,3.62-.68v-4.53l2.24,0-.12,4.51a2.82,2.82,0,0,0,1.12.42,37.69,37.69,0,0,1,4.8-5.6C456.24,259.08,458.08,258.16,459.84,258.16Zm2.94,7.56a6.93,6.93,0,0,0-.64-3.5,2.38,2.38,0,0,0-2.26-1.29,6.67,6.67,0,0,0-3.78,1.62,21.51,21.51,0,0,0-4.2,4.26c.88.07,1.84.11,2.88.11A25.25,25.25,0,0,0,462.78,265.72Z"/><path class="cls-4" d="M225.56,276.38q-4,0-5.44-1.59a5.15,5.15,0,0,1-1.42-3.56,24.43,24.43,0,0,1,.36-3.16c.24-1.53.57-3.46,1-5.77l2,.42c-.58,3.25-.94,5.81-1.09,7.7a2,2,0,0,0,1.43,2.24,10.58,10.58,0,0,0,3.55.56,19.07,19.07,0,0,0,4-.36,6.84,6.84,0,0,0,2.88-1.32,10.88,10.88,0,0,0,.09-1.26,1.66,1.66,0,0,0-.25-1,1.53,1.53,0,0,0-.82-.42l-1.59-.22a20.5,20.5,0,0,1-2.07-.36,1.91,1.91,0,0,1-1-.56,1.77,1.77,0,0,1-.34-1.18,12.67,12.67,0,0,1,.78-4.34,10.06,10.06,0,0,1,2.16-3.56,4,4,0,0,1,2.86-1.4,3,3,0,0,1,1.93.7,7.76,7.76,0,0,1,1.71,2l-1.38,1.37a3.24,3.24,0,0,0-2.21-1.14,2.84,2.84,0,0,0-2.35,1.56,8.85,8.85,0,0,0-1.26,3.81l.92.14a20.71,20.71,0,0,1,3,.59,3,3,0,0,1,1.59,1.15,4.34,4.34,0,0,1,.59,2.52,5.51,5.51,0,0,1-1.06,3.61,6.87,6.87,0,0,1-3.33,2.16A16.66,16.66,0,0,1,225.56,276.38Zm10.57-1.09c3.24-1.77,5.29-3.65,6.13-5.63l-1-8.2,2.52-.62a5.07,5.07,0,0,1,0,.65c.25,2.11.41,3.68.51,4.73s.14,1.89.14,2.58a7.71,7.71,0,0,1-1.74,4.87,16.56,16.56,0,0,1-5.12,4.11Zm18.73-8.45c.07,0,.14.11.19.33a3.52,3.52,0,0,1,.09.87v.76a3.6,3.6,0,0,1-.09.86c-.05.23-.12.34-.19.34h-.67a5.54,5.54,0,0,1-4-1.26c-.84-.84-1.28-2.29-1.34-4.34l-.42-14.14,2.55-.62.22,14.79a2.48,2.48,0,0,0,.67,1.76,2.44,2.44,0,0,0,1.8.65Zm20.68,0c.06,0,.14.11.2.33a5,5,0,0,1,.08.87v.76a5.14,5.14,0,0,1-.08.86c-.06.23-.14.34-.2.34a6.62,6.62,0,0,1-2.58-.42,3.55,3.55,0,0,1-1.63-1.48q-2.79,1.9-9.8,1.9h-6.66c-.07,0-.14-.11-.2-.34a3.1,3.1,0,0,1-.11-.86V268a3.26,3.26,0,0,1,.09-.84c0-.24.13-.36.22-.36h2.55l.39-.54a6.17,6.17,0,0,0,.64-.86,3.24,3.24,0,0,0,.31-1.18,22.83,22.83,0,0,0,.11-2.88c0-2.49-.07-6.19-.22-11.12l2.52-.62.14,9.89a15.77,15.77,0,0,1-.17,2.71,18.12,18.12,0,0,1,3.42-2.94,6.2,6.2,0,0,1,3.36-1.14,4.42,4.42,0,0,1,3.78,1.68,7.9,7.9,0,0,1,1.29,4.92,5.15,5.15,0,0,1-.17,1.4A4,4,0,0,0,275.54,266.84Zm-4.68-1.12c.05-3.2-.92-4.79-2.91-4.79a6.61,6.61,0,0,0-3.78,1.62,22,22,0,0,0-4.2,4.29h2.91A27.68,27.68,0,0,0,270.86,265.72Zm18,2.57q-3.42.84-5,1.18c-1.08.2-2.1.34-3,.42s-2.18.11-3.72.11h-1.58c-.08,0-.14-.11-.2-.34a3.1,3.1,0,0,1-.11-.86V268a3.26,3.26,0,0,1,.09-.84c.06-.24.12-.36.22-.36h3.76a8.26,8.26,0,0,1-.74-3.5A3.93,3.93,0,0,1,280,260a5.79,5.79,0,0,1,3.72-1.12,11.44,11.44,0,0,1,2.88.39L286,262a8.14,8.14,0,0,0-2.5-.33,7.46,7.46,0,0,0-2.62.39,11.09,11.09,0,0,0,.28,2.58,7.43,7.43,0,0,0,.78,2.12,52,52,0,0,0,6.84-1.4Z"/><path class="cls-4" d="M2.65,266.84c.08,0,.14.11.2.33a4.16,4.16,0,0,1,.08.87v.76a4.27,4.27,0,0,1-.08.86c-.06.23-.12.34-.2.34h-1a3.92,3.92,0,0,1,.12,1.06,5,5,0,0,1-2.47,4.48q-2.46,1.54-7.11,1.54-4,0-5.43-1.59A5.12,5.12,0,0,1-14.71,272c0-.88.45-3.86,1.34-9l2,.45c-.57,3.19-.94,5.75-1.09,7.67a2,2,0,0,0,1.43,2.24,10.64,10.64,0,0,0,3.56.56,18.28,18.28,0,0,0,4-.39A6.42,6.42,0,0,0-.6,272.18a2.41,2.41,0,0,0-.28-1.56A1.65,1.65,0,0,0-2,270.08C-2.63,270-3.71,270-5.3,270h-.06l.65-3.16Zm6.75-10L7.24,255l1.82-2.16,2.16,1.8Zm-4.2.06L3,255.05l1.82-2.16L7,254.71ZM13,266.84c.08,0,.14.11.2.33a3.58,3.58,0,0,1,.08.87v.76a3.65,3.65,0,0,1-.08.86c-.06.23-.12.34-.2.34a10.37,10.37,0,0,1-3.55-.45A2.26,2.26,0,0,1,8,268.07a3.18,3.18,0,0,1-1.88,1.48,10.94,10.94,0,0,1-3.47.45c-.07,0-.14-.11-.19-.34a2.75,2.75,0,0,1-.12-.86V268a3.26,3.26,0,0,1,.09-.84c0-.24.13-.36.22-.36a9.27,9.27,0,0,0,4.17-.73l-.53-5.57,2.52-.23.34,6a3.76,3.76,0,0,0,1.34.44A19.07,19.07,0,0,0,13,266.84Zm11.21-13.25-2.1-1.76,1.79-2.16L26,251.49Zm0,2.16,1.8-2.13,2.12,1.79-1.79,2.13Zm-2,1.85-2.13-1.8,1.79-2.15L24,255.44Zm9.69,1.51q.2,3.86.19,7.19a3.08,3.08,0,0,1-1.37,2.8,5.83,5.83,0,0,1-3.33.9,3,3,0,0,1-3.05-1.65,3.15,3.15,0,0,1-1.54,1.23,5.41,5.41,0,0,1-2.05.42,2.85,2.85,0,0,1-3-1.68Q16.63,270,13,270c-.08,0-.14-.11-.2-.34a3.1,3.1,0,0,1-.11-.86V268a3.85,3.85,0,0,1,.08-.84c.06-.24.13-.36.23-.36a8.17,8.17,0,0,0,3.67-.68l.05-4.31,2.3.06-.09,3.36c0,.67.15,1.1.51,1.29a4,4,0,0,0,1.71.28,3.1,3.1,0,0,0,2.12-.59l-.11-5.49,2.33-.06.11,5.69a2.39,2.39,0,0,0,1.59.45,6,6,0,0,0,2.8-.59l-.61-6.69Zm6.79-9.47L38.91,270l-2.19.31-.56-20.05Zm18.92,17.2c.08,0,.14.11.2.33a3.58,3.58,0,0,1,.08.87v.76a3.65,3.65,0,0,1-.08.86c-.06.23-.12.34-.2.34h-.67c-1.92,0-3.21-.7-3.86-2.1a4.31,4.31,0,0,1-.34.76.83.83,0,0,1-.36.36,9.49,9.49,0,0,1-2.63,1,14.72,14.72,0,0,1-3.11.36,4.14,4.14,0,0,1-2.77-.81,3.66,3.66,0,0,1-1-2.91c0-.62,0-1.09,0-1.43l2,.06v.67a1.75,1.75,0,0,0,.17.9.87.87,0,0,0,.61.3,13,13,0,0,0,1.54.06,12.34,12.34,0,0,0,2.72-.31,6.64,6.64,0,0,0,2.21-.89L50,257.37l2.36-1.43,1.7,8a11.19,11.19,0,0,0,.56,2,1.29,1.29,0,0,0,.84.68A10.9,10.9,0,0,0,57.6,266.84Zm13.82,0c.07,0,.14.11.19.33a3.52,3.52,0,0,1,.09.87v.76a3.6,3.6,0,0,1-.09.86c0,.23-.12.34-.19.34H69.74a17.71,17.71,0,0,1-2-.06,2.63,2.63,0,0,1,.73,1.82v1.88a1.51,1.51,0,0,1-.26.84,4.43,4.43,0,0,1-.89,1.06,4.58,4.58,0,0,1-1.12.79,1.58,1.58,0,0,1-.87.19q-5.21-.47-5.66-6.52H57.61c-.07,0-.14-.11-.19-.34a2.75,2.75,0,0,1-.12-.86V268a3.26,3.26,0,0,1,.09-.84c0-.24.13-.36.22-.36h2.27a15,15,0,0,1,1.18-3.59,9.9,9.9,0,0,1,2-2.83,3.32,3.32,0,0,1,2.29-1.09h1.91l.22,7.51Zm-6.36-5a2.26,2.26,0,0,0-1.54,1A7.91,7.91,0,0,0,62.43,265a12.33,12.33,0,0,0-.51,2.07h2a5.36,5.36,0,0,1,1.23.11Zm1.26,10.64a2.9,2.9,0,0,0-.7-2.07,2.74,2.74,0,0,0-2.07-.73H61.81a4.67,4.67,0,0,0,1,2.94,3.27,3.27,0,0,0,2.6,1.09,5.47,5.47,0,0,0,.9-.08ZM78.51,260q.17,3.63.16,5.9A3.26,3.26,0,0,1,77,268.8a8.67,8.67,0,0,1-2.61.92,15.88,15.88,0,0,1-2.94.28c-.07,0-.14-.11-.19-.34a2.75,2.75,0,0,1-.12-.86V268a3.26,3.26,0,0,1,.09-.84c0-.24.13-.36.22-.36a19.26,19.26,0,0,0,3-.2,6.78,6.78,0,0,0,2.16-.67l-.65-6.41,2.55-.42Zm-4.46,13.35,2.41,2-2,2.38-2.36-2Zm17.84-13.47a3.67,3.67,0,0,1,3.7,2.38,13.73,13.73,0,0,1,1,5.24,9,9,0,0,1-2.24,6,15.85,15.85,0,0,1-6.13,4.28l-1.54-2.52a19,19,0,0,0,4.62-2.43,10.12,10.12,0,0,0,2.88-3.05,15,15,0,0,1-2.94.28,15.18,15.18,0,0,1-2-.14,1.71,1.71,0,0,1-.76-.34,4,4,0,0,1-.67-.78,3.81,3.81,0,0,1-.5-.9,2.2,2.2,0,0,1-.09-.81,13.25,13.25,0,0,1,1.24-5A3.58,3.58,0,0,1,91.89,259.86ZM89.32,267a8.85,8.85,0,0,0,2.24.2,14.35,14.35,0,0,0,2.88-.22,6.16,6.16,0,0,0-.67-3.31,2.19,2.19,0,0,0-2-1A2,2,0,0,0,90,263.76,6.67,6.67,0,0,0,89.32,267Zm33.73-.16c.07,0,.14.11.19.33a3.52,3.52,0,0,1,.09.87v.76a3.6,3.6,0,0,1-.09.86c0,.23-.12.34-.19.34h-1a4.42,4.42,0,0,1,.11,1.06,5,5,0,0,1-2.46,4.48q-2.47,1.54-7.11,1.54-4,0-5.44-1.59a5.11,5.11,0,0,1-1.42-3.53,89.87,89.87,0,0,1,1.34-9l2,.45q-.87,4.79-1.09,7.67a2,2,0,0,0,1.43,2.24,10.58,10.58,0,0,0,3.55.56,18.28,18.28,0,0,0,4-.39,6.51,6.51,0,0,0,2.89-1.35,2.55,2.55,0,0,0-.28-1.56,1.7,1.7,0,0,0-1.18-.54c-.58-.05-1.66-.08-3.25-.08h0l.64-3.16Zm11.2-13.25-2.1-1.76,1.79-2.16,2.13,1.82Zm.05,2.16,1.79-2.13,2.13,1.79-1.79,2.13Zm-2,1.85-2.13-1.8,1.79-2.15,2.16,1.79Zm14.05,9.24c.08,0,.14.11.2.33a3.58,3.58,0,0,1,.08.87v.76a3.65,3.65,0,0,1-.08.86c-.06.23-.12.34-.2.34h-1.37a4.92,4.92,0,0,1-2.1-.42,2.85,2.85,0,0,1-1.29-1.23,3.72,3.72,0,0,1-1.7,1.26,7.12,7.12,0,0,1-2.41.39,3,3,0,0,1-3.05-1.65,3.15,3.15,0,0,1-1.54,1.23,5.45,5.45,0,0,1-2,.42,2.88,2.88,0,0,1-3-1.68c-.76,1.12-2.36,1.68-4.78,1.68-.08,0-.14-.11-.2-.34a3.1,3.1,0,0,1-.11-.86V268a3.85,3.85,0,0,1,.08-.84c.06-.24.13-.36.23-.36a8.12,8.12,0,0,0,3.66-.68l.06-4.31,2.3.06-.09,3.36q0,1,.51,1.29a3.93,3.93,0,0,0,1.7.28,3.13,3.13,0,0,0,2.13-.59l-.11-5.49,2.32-.06.12,5.69a2.39,2.39,0,0,0,1.59.45,6,6,0,0,0,2.8-.59l-.61-6.69,2.52-.45.3,5.6a3.34,3.34,0,0,0,.31,1.37,1.34,1.34,0,0,0,.76.59,5.86,5.86,0,0,0,1.34.17Zm0,3.16c-.08,0-.14-.11-.2-.34a3.1,3.1,0,0,1-.11-.86V268a3.85,3.85,0,0,1,.08-.84c.06-.24.13-.36.23-.36a19.21,19.21,0,0,0,3-.2,6.78,6.78,0,0,0,2.16-.67l-.64-6.41,2.54-.42.06.84q.16,3.63.17,5.9a3.25,3.25,0,0,1-1.71,2.92,8.71,8.71,0,0,1-2.6.92A15.88,15.88,0,0,1,146.32,270Zm7.75,5.12-1.85,2.16-2.15-1.82,1.82-2.16Zm-6.41-1.79,2.18,1.82L148,277.34l-2.13-1.82Zm12.4-23.69.23,20.36-2.19.31-.56-20.05Zm-.41,25.76a23.28,23.28,0,0,0,5-2.88,7.6,7.6,0,0,0,2.38-2.86l-.92-8.2,2.49-.62c.08.77.12,1.26.14,1.49.15,1.45.27,2.74.36,3.86a25.6,25.6,0,0,1,.17,2.61,7.22,7.22,0,0,1-2,4.9,19,19,0,0,1-6.1,4.2Zm18.15-23.94c-1-.05-2-.15-2.86-.28s-1.19-.11-1.34-.11a1.29,1.29,0,0,0-.87.25,2,2,0,0,0-.39,1l-1.77-.42a8.73,8.73,0,0,1,.73-2,2.1,2.1,0,0,1,.9-1,2.88,2.88,0,0,1,1.37-.28,14.7,14.7,0,0,1,1.76.14c1.35.13,2.32.21,2.91.25l1.49,0-.56,2.43Zm-1,18.54-2.18.31L174.1,254l2.44-.62Z"/><rect class="cls-5" x="885.32" y="330" width="126" height="4"/><path class="cls-6" d="M0,78H981.58c16.42,0,29.74,14.33,29.74,32v48c0,17.67-13.32,32-29.74,32H0Z"/><path class="cls-7" d="M408.74,122.26l2.52-.62.42,21.73a3.81,3.81,0,0,1-2.3,3.67,13.64,13.64,0,0,1-6.28,1.23c-2.56,0-4.3-.53-5.24-1.59a5.32,5.32,0,0,1-1.36-3.56,20.27,20.27,0,0,1,.28-2.38c.18-1.19.38-2.42.58-3.67l.48-2.88,2,.45c-.62,3.54-1,6.1-1.1,7.67a2,2,0,0,0,1.32,2.24,9.44,9.44,0,0,0,3.3.56,17.79,17.79,0,0,0,3.46-.34,8,8,0,0,0,2.76-.92Zm18.48,16.58c.06,0,.14.11.18.33a3.47,3.47,0,0,1,.1.87v.76a3.56,3.56,0,0,1-.1.86c0,.23-.12.34-.18.34h-2.34a9.94,9.94,0,0,1-2.82,4.51,16.9,16.9,0,0,1-5.2,3.27l-1.54-2.52a19.33,19.33,0,0,0,4.62-2.43,10.12,10.12,0,0,0,2.88-3.05,14.81,14.81,0,0,1-4.9.14,1.66,1.66,0,0,1-.76-.34,4.82,4.82,0,0,1-.68-.78,4.2,4.2,0,0,1-.5-.9,2.19,2.19,0,0,1-.08-.81,13.07,13.07,0,0,1,1.24-5,3.57,3.57,0,0,1,3.4-2.19,3.61,3.61,0,0,1,3.54,2.1,12.3,12.3,0,0,1,1.14,4.88ZM418,139a8.8,8.8,0,0,0,2.24.2,14.48,14.48,0,0,0,2.88-.22,6.06,6.06,0,0,0-.68-3.31,2.18,2.18,0,0,0-2-1,2,2,0,0,0-1.82,1.12A6.92,6.92,0,0,0,418,139Zm34-.16c.08,0,.14.11.2.33a3.58,3.58,0,0,1,.08.87v.76a3.65,3.65,0,0,1-.08.86c-.06.23-.12.34-.2.34a6.68,6.68,0,0,1-2.58-.42,3.62,3.62,0,0,1-1.62-1.48,9.75,9.75,0,0,1-3.46,1.48,21.78,21.78,0,0,1-5,.5c-3.5,0-5.92-.52-7.28-1.56a7,7,0,0,1-2.3,1.09,9.29,9.29,0,0,1-2.58.39c-.08,0-.14-.11-.2-.34a3.56,3.56,0,0,1-.1-.86V140a3.32,3.32,0,0,1,.08-.84c.06-.24.12-.36.22-.36a8.76,8.76,0,0,0,3.62-.68v-4.53l2.24,0-.12,4.51a2.82,2.82,0,0,0,1.12.42,37.69,37.69,0,0,1,4.8-5.6c1.9-1.85,3.74-2.77,5.5-2.77a4.42,4.42,0,0,1,3.78,1.68,8,8,0,0,1,1.26,4.92,6.58,6.58,0,0,1-.14,1.4,2.16,2.16,0,0,0,1,.54A8.79,8.79,0,0,0,452,138.84Zm-4.68-1.12a6.93,6.93,0,0,0-.64-3.5,2.38,2.38,0,0,0-2.26-1.29,6.67,6.67,0,0,0-3.78,1.62,21.51,21.51,0,0,0-4.2,4.26c.88.07,1.84.11,2.88.11A25.25,25.25,0,0,0,447.3,137.72Zm24.42,1.12c.08,0,.14.11.2.33a5,5,0,0,1,.08.87v.76a5.14,5.14,0,0,1-.08.86c-.06.23-.12.34-.2.34h-4c-2.68,0-4.3-1.07-4.88-3.22-1.14.67-2.16,1.23-3.08,1.68a17.23,17.23,0,0,1-3.1,1.09,15.82,15.82,0,0,1-3.9.45H452c-.08,0-.14-.11-.2-.34a2.75,2.75,0,0,1-.12-.86V140a3.22,3.22,0,0,1,.1-.84c0-.24.12-.36.22-.36h.78a13.66,13.66,0,0,0,3.64-.51,33.22,33.22,0,0,0,3.86-1.31c.58-.25,1.32-.59,2.22-1a18.11,18.11,0,0,1,1.76-.78l.56-.2h-.16a19.21,19.21,0,0,1-3.64-1.15,11.46,11.46,0,0,0-3.36-.89,1.08,1.08,0,0,0-1,.53,4.38,4.38,0,0,0-.5,1.34l-1.94-.33a7.49,7.49,0,0,1,1.14-3.14,2.7,2.7,0,0,1,2.34-1.09,6.52,6.52,0,0,1,1.76.31c.7.2,1.62.51,2.72.92,1.56.58,2.94,1,4.14,1.37a12.5,12.5,0,0,0,3.38.51l-.62,2.8a7.46,7.46,0,0,0-2.2.5,15.64,15.64,0,0,0-2.3,1.09,2.27,2.27,0,0,0,1.48.87,17.88,17.88,0,0,0,3.06.2Zm8.12-6.39a3.5,3.5,0,0,1,3.16,1.74,7.68,7.68,0,0,1,1.12,4.23,10.79,10.79,0,0,1-.36,2.82,3.16,3.16,0,0,1-.36.76,4.36,4.36,0,0,1-.78.78,2.1,2.1,0,0,1-1.26.62,1.49,1.49,0,0,1-.68-.17l-5.2-2.41a3.1,3.1,0,0,1-1.24.87,5,5,0,0,1-2,.31h-.56c-.08,0-.14-.11-.2-.34a2.78,2.78,0,0,1-.1-.86V140a3.32,3.32,0,0,1,.08-.84c.06-.24.12-.36.22-.36h1a4.14,4.14,0,0,0,1.18-.12,1.37,1.37,0,0,0,.7-.53,8,8,0,0,0,.78-1.51,12.15,12.15,0,0,1,1.84-3.08A3.41,3.41,0,0,1,479.84,132.45Zm1.9,8.26a5.49,5.49,0,0,0,.34-2,4.5,4.5,0,0,0-.64-2.44,2.09,2.09,0,0,0-1.9-1,1.86,1.86,0,0,0-1.46.84,8.92,8.92,0,0,0-1.32,2.41Zm7.42,6.69a23.28,23.28,0,0,0,5-2.88,7.7,7.7,0,0,0,2.38-2.86l-.92-8.2,2.48-.62c.08.77.12,1.26.14,1.49.16,1.45.28,2.74.36,3.86s.18,2,.18,2.61a7.26,7.26,0,0,1-2,4.9,19.08,19.08,0,0,1-6.1,4.2ZM505,121.64l.22,20.36-2.18.31-.56-20Zm6.3,7.73-2.38-2,2-2.38,2.38,2Zm7.18,9.47c.06,0,.14.11.2.33a5,5,0,0,1,.08.87v.76a5.14,5.14,0,0,1-.08.86c-.06.23-.14.34-.2.34h-.78a4.21,4.21,0,0,1-3.5-1.32v.12a7.26,7.26,0,0,1-2,4.9,19.2,19.2,0,0,1-6.12,4.2l-1.54-2.5a23,23,0,0,0,5-2.88,7.9,7.9,0,0,0,2.38-2.86l-.94-8.2,2.5-.62.4,3.81a2.46,2.46,0,0,0,.56,1.49,2,2,0,0,0,1.2.58,13.73,13.73,0,0,0,2.1.12Zm11.9-6.72a6.74,6.74,0,0,1,2.84,2.12,4.67,4.67,0,0,1,.9,2.86,10.08,10.08,0,0,1-.54,3,1.82,1.82,0,0,1-.4.75,4.59,4.59,0,0,1-.8.76,2.28,2.28,0,0,1-1.34.62,1.63,1.63,0,0,1-.62-.14l-3.84-1.54c-.7,1-3.42,1.48-8.12,1.48-.08,0-.14-.11-.2-.34a3.56,3.56,0,0,1-.1-.86V140a3.32,3.32,0,0,1,.08-.84c.06-.24.12-.36.22-.36h3l1.6,0a4.06,4.06,0,0,1-1.82-1.14,2.68,2.68,0,0,1-.66-1.82,4.78,4.78,0,0,1,.52-2.13,12.13,12.13,0,0,1,1.4-2.13L521.1,131l1.18-2.55Zm-3.08,1.62-2.82-1.32c-1.22,1.25-1.82,2.27-1.82,3.06a1.38,1.38,0,0,0,.7,1.2,9.31,9.31,0,0,0,2.4.81Zm4.18,5.82a3.46,3.46,0,0,0,.56-2,2.69,2.69,0,0,0-.72-1.82,4.59,4.59,0,0,0-2.14-1.28l-1.46,3.64Zm18.08-.72c.08,0,.14.11.2.33a3.58,3.58,0,0,1,.08.87v.76a3.65,3.65,0,0,1-.08.86c-.06.23-.12.34-.2.34h-.66a5.52,5.52,0,0,1-4-1.26c-.84-.84-1.28-2.29-1.34-4.34l-.42-14.14,2.54-.62.22,14.79a2.53,2.53,0,0,0,.68,1.76,2.44,2.44,0,0,0,1.8.65Zm11.94-6.72a6.74,6.74,0,0,1,2.84,2.12,4.67,4.67,0,0,1,.9,2.86,10.08,10.08,0,0,1-.54,3,1.82,1.82,0,0,1-.4.75,5.45,5.45,0,0,1-.8.76,2.28,2.28,0,0,1-1.34.62,1.63,1.63,0,0,1-.62-.14l-3.84-1.54c-.72,1-3.42,1.48-8.12,1.48-.08,0-.14-.11-.2-.34a2.78,2.78,0,0,1-.1-.86V140a3.32,3.32,0,0,1,.08-.84c.06-.24.12-.36.22-.36h3l1.6,0a4.06,4.06,0,0,1-1.82-1.14,2.68,2.68,0,0,1-.66-1.82,4.78,4.78,0,0,1,.52-2.13,12.13,12.13,0,0,1,1.4-2.13l-1.36-.67,1.18-2.55Zm-3.08,1.62-2.82-1.32c-1.22,1.25-1.82,2.27-1.82,3.06a1.38,1.38,0,0,0,.7,1.2,9.31,9.31,0,0,0,2.4.81Zm4.18,5.82a3.46,3.46,0,0,0,.56-2,2.69,2.69,0,0,0-.72-1.82,4.59,4.59,0,0,0-2.14-1.28l-1.46,3.64Zm20.52-.72c.08,0,.14.11.2.33a3.58,3.58,0,0,1,.08.87v.76a3.65,3.65,0,0,1-.08.86c-.06.23-.12.34-.2.34h-.68c-1.92,0-3.2-.7-3.86-2.1a3.22,3.22,0,0,1-.34.76.74.74,0,0,1-.36.36,9.17,9.17,0,0,1-2.62,1,14.66,14.66,0,0,1-3.12.36,4.13,4.13,0,0,1-2.76-.81,3.66,3.66,0,0,1-1-2.91c0-.62,0-1.09,0-1.43l2,.06v.67a1.89,1.89,0,0,0,.16.9.92.92,0,0,0,.62.3,13,13,0,0,0,1.54.06,12.41,12.41,0,0,0,2.72-.31,6.66,6.66,0,0,0,2.2-.89l-2.12-8.63,2.36-1.43,1.7,8a10.41,10.41,0,0,0,.56,2,1.25,1.25,0,0,0,.84.68A10.9,10.9,0,0,0,583.08,138.84Zm17.18-8.68a4.42,4.42,0,0,1,3.78,1.68,8,8,0,0,1,1.26,4.92,5.38,5.38,0,0,1-.18,1.49,2.58,2.58,0,0,1-.58,1.06,7.3,7.3,0,0,1-3.5,2.05,20.6,20.6,0,0,1-5.8.72c-3.48,0-5.92-.52-7.28-1.56a7,7,0,0,1-2.3,1.09,9.19,9.19,0,0,1-2.58.39c-.06,0-.14-.11-.18-.34a2.75,2.75,0,0,1-.12-.86V140a3.32,3.32,0,0,1,.08-.84c.06-.24.14-.36.22-.36a8.69,8.69,0,0,0,3.62-.68v-4.53l2.24,0-.12,4.51a2.82,2.82,0,0,0,1.12.42,40.23,40.23,0,0,1,4.8-5.6Q597.59,130.16,600.26,130.16Zm2.94,7.56a6.71,6.71,0,0,0-.66-3.5,2.38,2.38,0,0,0-2.26-1.29,6.67,6.67,0,0,0-3.78,1.62,21.51,21.51,0,0,0-4.2,4.26c.88.07,1.84.11,2.88.11A25.38,25.38,0,0,0,603.2,137.72Zm21-8.8-2,2.41-2.38-2,2-2.38Zm-9.84,14.2a24.43,24.43,0,0,1,.36-3.16c.24-1.53.56-3.46,1-5.77l2,.45c-.58,3.19-.94,5.75-1.1,7.67a2,2,0,0,0,1.4,2.21,9.85,9.85,0,0,0,3.48.59,19.13,19.13,0,0,0,3.52-.31,7.94,7.94,0,0,0,2.8-1l-1.06-10.69,2.52-.56q.54,6.24.72,10.83a3.74,3.74,0,0,1-2.42,3.67,14.2,14.2,0,0,1-6.3,1.23c-2.64,0-4.44-.53-5.42-1.59A5.2,5.2,0,0,1,614.38,143.12Zm26.42-4.28c.08,0,.14.11.2.33a3.58,3.58,0,0,1,.08.87v.76a3.65,3.65,0,0,1-.08.86c-.06.23-.12.34-.2.34h-.68a5.5,5.5,0,0,1-4-1.26c-.84-.84-1.3-2.29-1.34-4.34l-.42-14.14,2.54-.62.22,14.79a2.44,2.44,0,0,0,.68,1.76,2.39,2.39,0,0,0,1.78.65Zm10.34,0c.08,0,.14.11.2.33a3.58,3.58,0,0,1,.08.87v.76a3.65,3.65,0,0,1-.08.86c-.06.23-.12.34-.2.34a10.51,10.51,0,0,1-3.56-.45,2.25,2.25,0,0,1-1.42-1.48,3.21,3.21,0,0,1-1.88,1.48,11,11,0,0,1-3.46.45c-.08,0-.14-.11-.2-.34a2.75,2.75,0,0,1-.12-.86V140a4.6,4.6,0,0,1,.08-.84q.09-.36.24-.36a9.28,9.28,0,0,0,4.16-.73l-.52-5.57,2.52-.23.32,6a4,4,0,0,0,1.36.44A18.9,18.9,0,0,0,651.14,138.84Zm-3.92,6.46,2.18,1.82-1.84,2.16-2.16-1.82Zm-4.22,0,2.18,1.82-1.84,2.19-2.14-1.82Zm16.26-12.88a3.55,3.55,0,0,1,3.18,1.74,7.68,7.68,0,0,1,1.12,4.23,10,10,0,0,1-.38,2.82,2.14,2.14,0,0,1-.36.76,3.32,3.32,0,0,1-.78.78,2,2,0,0,1-1.26.62,1.62,1.62,0,0,1-.68-.17l-5.2-2.41a3,3,0,0,1-1.24.87,5,5,0,0,1-2,.31h-.56c-.06,0-.14-.11-.18-.34a2.75,2.75,0,0,1-.12-.86V140a3.32,3.32,0,0,1,.08-.84c.06-.24.14-.36.22-.36h1a4.14,4.14,0,0,0,1.18-.12,1.29,1.29,0,0,0,.7-.53,8,8,0,0,0,.78-1.51,11.61,11.61,0,0,1,1.86-3.08A3.34,3.34,0,0,1,659.26,132.45Zm1.92,8.26a5.51,5.51,0,0,0,.32-2,4.33,4.33,0,0,0-.64-2.44,2,2,0,0,0-1.9-1,1.91,1.91,0,0,0-1.46.84,10.17,10.17,0,0,0-1.32,2.41Zm7.4,6.69a23.28,23.28,0,0,0,5-2.88,7.51,7.51,0,0,0,2.38-2.86l-.92-8.2,2.5-.62c.06.77.12,1.26.14,1.49.14,1.45.26,2.74.36,3.86a25,25,0,0,1,.16,2.61,7.17,7.17,0,0,1-2,4.9,18.85,18.85,0,0,1-6.1,4.2Zm20.24-19.23a20.52,20.52,0,0,1,4.18,5.37,10.78,10.78,0,0,1,1.26,4.74,5,5,0,0,1-.2,1.4,2.83,2.83,0,0,1-.68,1.06,5.42,5.42,0,0,1-2.38,1.2,14.72,14.72,0,0,1-3.78.42,10.18,10.18,0,0,1-3.08-.36,2.53,2.53,0,0,1-1.46-1.29,6.23,6.23,0,0,1-.42-2.57c0-.47,0-.83,0-1.1l2,.12v.42a2,2,0,0,0,.22,1.12,1.11,1.11,0,0,0,.8.42,18.35,18.35,0,0,0,2,.08c.74,0,1.56,0,2.5-.11a8.06,8.06,0,0,0,2.2-.48,7.38,7.38,0,0,0-1.28-4.06,20.74,20.74,0,0,0-3.64-4.17Zm25.28,10.67c.08,0,.14.11.2.33a3.58,3.58,0,0,1,.08.87v.76a3.65,3.65,0,0,1-.08.86c-.06.23-.12.34-.2.34h-2.32a9.94,9.94,0,0,1-2.82,4.51,16.77,16.77,0,0,1-5.22,3.27l-1.54-2.52a18.59,18.59,0,0,0,4.62-2.43,9.87,9.87,0,0,0,2.88-3.05,14.68,14.68,0,0,1-2.94.28,15.56,15.56,0,0,1-2-.14,1.58,1.58,0,0,1-.74-.34,3.44,3.44,0,0,1-.68-.78,3.48,3.48,0,0,1-.5-.9,2.19,2.19,0,0,1-.08-.81,13.07,13.07,0,0,1,1.22-5A3.88,3.88,0,0,1,711,134a12,12,0,0,1,1.16,4.88Zm-9.24.16a9,9,0,0,0,2.24.2A14.21,14.21,0,0,0,710,139a6.27,6.27,0,0,0-.66-3.31,2.2,2.2,0,0,0-2-1,2,2,0,0,0-1.82,1.12A6.65,6.65,0,0,0,704.86,139Zm29-.16c.06,0,.14.11.18.33a3.47,3.47,0,0,1,.1.87v.76a3.56,3.56,0,0,1-.1.86c0,.23-.12.34-.18.34h-4q-4,0-4.86-3.22c-1.14.67-2.16,1.23-3.08,1.68a16.93,16.93,0,0,1-3.12,1.09,15.54,15.54,0,0,1-3.88.45h-.78c-.08,0-.14-.11-.2-.34a2.75,2.75,0,0,1-.12-.86V140a4.6,4.6,0,0,1,.08-.84q.09-.36.24-.36h.78a13.66,13.66,0,0,0,3.64-.51,34.54,34.54,0,0,0,3.86-1.31c.58-.25,1.32-.59,2.22-1a18.11,18.11,0,0,1,1.76-.78l.56-.2h-.18a20.14,20.14,0,0,1-3.64-1.15,11.17,11.17,0,0,0-3.36-.89,1.06,1.06,0,0,0-1,.53,4.35,4.35,0,0,0-.52,1.34l-1.92-.33a7.49,7.49,0,0,1,1.14-3.14,2.67,2.67,0,0,1,2.32-1.09,6.51,6.51,0,0,1,1.78.31c.7.2,1.6.51,2.7.92,1.58.58,3,1,4.16,1.37a12.5,12.5,0,0,0,3.38.51l-.62,2.8a7.46,7.46,0,0,0-2.2.5,15.64,15.64,0,0,0-2.3,1.09,2.22,2.22,0,0,0,1.48.87,17.72,17.72,0,0,0,3.06.2Zm-11.06,5.82,2.4,2-2,2.38-2.34-2Zm17.8-15.82L738.42,127l1.82-2.16,2.16,1.8Zm-4.2.06-2.18-1.85,1.82-2.16,2.18,1.82Zm7.78,9.94c.08,0,.14.11.2.33a3.58,3.58,0,0,1,.08.87v.76a3.65,3.65,0,0,1-.08.86c-.06.23-.12.34-.2.34a10.3,10.3,0,0,1-3.54-.45,2.23,2.23,0,0,1-1.44-1.48,3.15,3.15,0,0,1-1.88,1.48,10.83,10.83,0,0,1-3.46.45c-.08,0-.14-.11-.2-.34a2.75,2.75,0,0,1-.12-.86V140a3.22,3.22,0,0,1,.1-.84c0-.24.12-.36.22-.36a9.22,9.22,0,0,0,4.16-.73l-.52-5.57,2.52-.23.34,6a3.69,3.69,0,0,0,1.34.44A18.9,18.9,0,0,0,744.16,138.84Zm23.28,0c.08,0,.14.11.2.33a3.58,3.58,0,0,1,.08.87v.76a3.65,3.65,0,0,1-.08.86c-.06.23-.12.34-.2.34h-1.38a4.92,4.92,0,0,1-2.1-.42,2.83,2.83,0,0,1-1.28-1.23,3.77,3.77,0,0,1-1.7,1.26,7.23,7.23,0,0,1-2.42.39,3,3,0,0,1-3-1.65,3.19,3.19,0,0,1-1.54,1.23,5.5,5.5,0,0,1-2.06.42,2.86,2.86,0,0,1-3-1.68c-.76,1.12-2.36,1.68-4.78,1.68-.08,0-.14-.11-.2-.34a2.75,2.75,0,0,1-.12-.86V140a4.6,4.6,0,0,1,.08-.84q.09-.36.24-.36a8.15,8.15,0,0,0,3.66-.68l.06-4.31,2.3.06-.1,3.36c0,.67.16,1.1.52,1.29a3.9,3.9,0,0,0,1.7.28,3.1,3.1,0,0,0,2.12-.59l-.1-5.49,2.32-.06.12,5.69a2.36,2.36,0,0,0,1.58.45,6,6,0,0,0,2.8-.59l-.6-6.69,2.52-.45.3,5.6a3.53,3.53,0,0,0,.3,1.37,1.38,1.38,0,0,0,.76.59,5.86,5.86,0,0,0,1.34.17Zm10.34-7.26c1.58.6,2.94,1.07,4.08,1.4a12.23,12.23,0,0,0,3.24.48l-.6,2.83a7.38,7.38,0,0,0-2.56.59,33.75,33.75,0,0,0-3,1.54l-1,.53a32.25,32.25,0,0,1-4.72,2.27,14.78,14.78,0,0,1-5,.78h-.78c-.08,0-.14-.11-.2-.34a3.56,3.56,0,0,1-.1-.86V140a3.32,3.32,0,0,1,.08-.84c.06-.24.12-.36.22-.36h.78a13.55,13.55,0,0,0,3.64-.51,33.22,33.22,0,0,0,3.86-1.31c1-.43,1.7-.76,2.16-1l1.82-.79a5,5,0,0,1,.56-.17l-.16,0a16.46,16.46,0,0,1-3.5-1.12,10.9,10.9,0,0,0-3.5-1,1.1,1.1,0,0,0-1,.53,4.38,4.38,0,0,0-.5,1.34l-1.94-.33a7.48,7.48,0,0,1,1.16-3.14,2.67,2.67,0,0,1,2.32-1.09,5.93,5.93,0,0,1,1.76.33C775.58,130.81,776.54,131.14,777.78,131.58Zm-1.66,13,2.4,2-2,2.38-2.36-2Z"/><g class="cls-8"><path d="M969.32,126v11a3,3,0,1,1-6,0V110h-10v27a13,13,0,1,0,26,0V126Z"/><path d="M939.32,137a3,3,0,1,1-6,0V126h-10v11a3,3,0,1,1-6,0V126h-10v5a21.86,21.86,0,0,0-1.6-3l-5.4-7.6,5.2-7.6-8.2-5.8-3.2,4.6-5.4-7.6-8.2,6,7.6,10.4-5.2,7.6a15.91,15.91,0,0,0-2.2,5,13,13,0,0,0-25.4,4,13.42,13.42,0,0,0,1.2,5.6,13,13,0,0,0-5.2,10.4v5h10v-5a3.08,3.08,0,0,1,3-3h4.6a13,13,0,0,0,12-9.8,14,14,0,0,0,26.8,0,13.26,13.26,0,0,0,12.6,10,12.56,12.56,0,0,0,8-2.8,12.56,12.56,0,0,0,8,2.8,13,13,0,0,0,13-13V126h-10Zm-71,3a3,3,0,1,1,3-3A3.08,3.08,0,0,1,868.32,140Zm26,0a4,4,0,0,1-4-4,3,3,0,0,1,.8-2.2l3.2-4.6,3.4,4.6a4.19,4.19,0,0,1,.8,2.2A4.33,4.33,0,0,1,894.32,140Z"/><path d="M966.32,162a4,4,0,1,0-4-4A4,4,0,0,0,966.32,162Z"/></g><rect class="cls-3" x="399" y="493.4" width="708" height="110.13"/><path d="M477.67,566.17H461.93a7.89,7.89,0,0,1-7.86-7.87V536.67h31.46V558.3A7.89,7.89,0,0,1,477.67,566.17ZM458,540.6v17.7a3.94,3.94,0,0,0,3.93,3.93h15.74a3.94,3.94,0,0,0,3.93-3.93V540.6Z"/><path d="M475.7,546.5a1.86,1.86,0,0,1-2-2v-7.86a3.93,3.93,0,1,0-7.86,0v7.86a2,2,0,0,1-3.94,0v-7.86a7.87,7.87,0,1,1,15.74,0v7.86A1.86,1.86,0,0,1,475.7,546.5Z"/><path d="M1067.67,550.43H1036.2a2,2,0,1,1,0-3.93h31.47a2,2,0,0,1,0,3.93Z"/><path d="M1067.67,562.23H1036.2a2,2,0,1,1,0-3.93h31.47a2,2,0,0,1,0,3.93Z"/><path d="M1067.67,538.63H1036.2a2,2,0,1,1,0-3.93h31.47a2,2,0,0,1,0,3.93Z"/><path class="cls-9" d="M446.2,532.73h0a15.74,15.74,0,0,1,15.73,15.74h0A15.73,15.73,0,0,1,446.2,564.2h0a15.73,15.73,0,0,1-15.73-15.73h0A15.74,15.74,0,0,1,446.2,532.73Z"/><path class="cls-3" d="M445.34,538.58a23.72,23.72,0,0,1,4.84,6.09,14.38,14.38,0,0,1,1.79,7.08,2.17,2.17,0,0,1-1,2,4.78,4.78,0,0,1-3.8.35,2,2,0,0,1-1-.94,2.47,2.47,0,0,1-1.13.89,4.53,4.53,0,0,1-1.65.29,2.79,2.79,0,0,1-2.2-.92,3.81,3.81,0,0,1-.78-2.53,9.63,9.63,0,0,1,1.47-4.51,50.69,50.69,0,0,1,3.68-5.59,8.2,8.2,0,0,0-.71-.64l-.47-.42Zm3.33,14a4.5,4.5,0,0,0,2.1-.54,16.87,16.87,0,0,0-1.06-5.31,13.87,13.87,0,0,0-3.24-5q-2.49,3.46-3.68,5.52a7.46,7.46,0,0,0-1.15,3.59,1.53,1.53,0,0,0,.61,1.32,2.61,2.61,0,0,0,1.51.42,2.09,2.09,0,0,0,1.86-.75l-.09-1.68,1.2-.12.1,2.08A2.66,2.66,0,0,0,448.67,552.57Z"/><path d="M545.52,560.27a14.75,14.75,0,1,1,14.75-14.75A14.86,14.86,0,0,1,545.52,560.27Zm0-25.57a10.82,10.82,0,1,0,10.81,10.82A10.92,10.92,0,0,0,545.52,534.7Z"/><path d="M564.2,566.17a1.81,1.81,0,0,1-1.38-.59l-3.93-3.94a1.94,1.94,0,0,1,2.75-2.75l3.94,3.93a1.92,1.92,0,0,1,0,2.76A1.81,1.81,0,0,1,564.2,566.17Z"/><path d="M999.82,578a3.94,3.94,0,1,0-3.94-3.94A3.93,3.93,0,0,0,999.82,578Z"/><path d="M1002.77,540.6v12.78a2.95,2.95,0,0,1-5.9,0V524.87H987v28.51a12.79,12.79,0,1,0,25.57,0V540.6Z"/><path d="M973.27,553.38a2.95,2.95,0,0,1-5.9,0V540.6h-9.84v12.78a2.95,2.95,0,0,1-5.9,0V540.6H941.8v5.7A13.52,13.52,0,0,0,940,543l-6.1-8.65,4.72-6.69-8.06-5.7L928,525.65l-4.52-6.49-8.06,5.71,6.68,9.44L916,543a14.16,14.16,0,0,0-2.36,5.31,14,14,0,0,0-13.18-9.64,13.69,13.69,0,0,0-13.77,13.77,14.19,14.19,0,0,0,1.18,5.7,14,14,0,0,0-7.08,12V575h9.84V570.1a3.94,3.94,0,0,1,3.93-3.93h5.9a13.71,13.71,0,0,0,13.37-10.62A14.82,14.82,0,0,0,928,566.17a14.65,14.65,0,0,0,14-10.23,12.69,12.69,0,0,0,12.58,10.23,12.36,12.36,0,0,0,7.87-2.76,12.36,12.36,0,0,0,7.87,2.76,12.76,12.76,0,0,0,12.78-12.79V540.6h-9.83Zm-72.77,3h-.2a4,4,0,0,1-3.73-3.93,3.93,3.93,0,1,1,3.93,3.93Zm27.53,0a4.86,4.86,0,0,1-4.91-4.91,4.71,4.71,0,0,1,1-2.76L928,543l3.94,5.7a4.71,4.71,0,0,1,1,2.76A4.86,4.86,0,0,1,928,556.33Z"/></g></svg>