<svg xmlns="http://www.w3.org/2000/svg" viewBox="0 0 1152 648"><defs><style>.cls-1{fill:#dfdddd;}.cls-2{fill:#fff;}.cls-3{fill:#ed5539;}</style></defs><g id="Layer_1" data-name="Layer 1"><rect class="cls-1" width="1152" height="648"/><rect class="cls-2" x="133.8" y="255.21" width="884.4" height="137.57"/><path d="M222.24,304.35a12.29,12.29,0,1,1,12.28-12.29A12.17,12.17,0,0,1,222.24,304.35Zm0-19.66a7.37,7.37,0,1,0,7.37,7.37A7.24,7.24,0,0,0,222.24,284.69Z"/><path d="M237,328.91a2.32,2.32,0,0,1-2.46-2.45,12.28,12.28,0,1,0-24.56,0,2.46,2.46,0,0,1-4.92,0,17.2,17.2,0,1,1,34.4,0A2.32,2.32,0,0,1,237,328.91Z"/><path d="M237,328.91a2.32,2.32,0,0,1-2.46-2.45,12.28,12.28,0,1,0-24.56,0,2.46,2.46,0,0,1-4.92,0,17.2,17.2,0,1,1,34.4,0A2.32,2.32,0,0,1,237,328.91Z"/><path d="M345.28,360.39c.06,0,.11.08.15.23a2.38,2.38,0,0,1,.05.56v1.36a2.33,2.33,0,0,1-.05.56q-.06.21-.15.21h-.59a5.91,5.91,0,0,1-4.25-1.33c-.88-.88-1.36-2.37-1.44-4.45l-.38-14.8,2.3-.38.14,15.15a2.62,2.62,0,0,0,.92,2.21,4,4,0,0,0,2.44.68Zm11.94-7.11a7.68,7.68,0,0,1,3,2.21,5,5,0,0,1,.94,3.07,8,8,0,0,1-.68,3.33,3.26,3.26,0,0,1-1.09,1.18,1.74,1.74,0,0,1-1.06.47,1.13,1.13,0,0,1-.41-.09l-4.37-1.65a4.17,4.17,0,0,1-2.68,1.21,40,40,0,0,1-5.63.3q-.09,0-.15-.21a2.29,2.29,0,0,1-.06-.56v-1.36a2.34,2.34,0,0,1,.06-.56c0-.15.09-.23.15-.23h2.18a12.84,12.84,0,0,0,3.27-.33,4.74,4.74,0,0,1-2.09-.94,2.21,2.21,0,0,1-.8-1.71,4.8,4.8,0,0,1,.59-2.3,17.09,17.09,0,0,1,1.63-2.36l-1.45-.68,1-2.18Zm-2.51,1.57-2.94-1.27q-2,2.21-2,3.54c0,1,1.08,1.67,3.24,1.88Zm3.92,6.28a6.16,6.16,0,0,0,.51-1.1,3.89,3.89,0,0,0,.2-1.17,2.74,2.74,0,0,0-.68-1.86,5.43,5.43,0,0,0-2.35-1.48l-1.69,4.1Zm31-.74c.06,0,.11.08.14.23a2.34,2.34,0,0,1,.06.56v1.36a2.29,2.29,0,0,1-.06.56c0,.14-.08.21-.14.21a10.74,10.74,0,0,1-3.6-.48,2.59,2.59,0,0,1-1.59-1.32,2.57,2.57,0,0,1-.86.68,7.19,7.19,0,0,1-1.35.47,28.8,28.8,0,0,1-3.33.59,35.8,35.8,0,0,1-3.89.2,26.5,26.5,0,0,1-5.16-.41,6.42,6.42,0,0,1-3.25-1.59,4.39,4.39,0,0,1-1.17-3.27,14.72,14.72,0,0,1,.2-2c.14-.92.35-2.23.62-3.92l1.83.38a48.79,48.79,0,0,0-.68,5,2.08,2.08,0,0,0,.89,1.82,5.61,5.61,0,0,0,2.47.83,38.2,38.2,0,0,0,4.13.18,29.91,29.91,0,0,0,8.9-1l-.47-5.36,2.18-.24.3,5.81a3.79,3.79,0,0,0,1.5.53A18.43,18.43,0,0,0,389.63,360.39Zm-15.86-11.82,2,1.62-1.62,2-2-1.62Zm3.8,0,2,1.62-1.65,2-2-1.62Zm34.86,11.82s.08.08.12.23a1.6,1.6,0,0,1,.09.56v1.36a1.57,1.57,0,0,1-.09.56q-.06.21-.12.21h-1.5a4.17,4.17,0,0,1-2-.45,2.6,2.6,0,0,1-1.15-1.32,3.34,3.34,0,0,1-1.66,1.35,6.07,6.07,0,0,1-2.27.42c-1.67,0-2.73-.51-3.18-1.54a2.36,2.36,0,0,1-1.38,1.18,4.92,4.92,0,0,1-1.74.36,4.6,4.6,0,0,1-2-.39,2.6,2.6,0,0,1-1.21-1.15,3.44,3.44,0,0,1-1.88,1.18,10.38,10.38,0,0,1-2.83.36q-.09,0-.15-.21a2.29,2.29,0,0,1-.06-.56v-1.36a2.34,2.34,0,0,1,.06-.56c0-.15.09-.23.15-.23a15.41,15.41,0,0,0,2.09-.12,4.21,4.21,0,0,0,1.56-.59l.06-4.63h2.06l-.09,3.69c0,1.1.64,1.65,2,1.65a5,5,0,0,0,2.42-.5l-.18-6,2.06-.06.12,6.05a2.57,2.57,0,0,0,1.74.47,5.78,5.78,0,0,0,2.8-.53l-.53-7.17,2.21-.41.36,5.81a2.58,2.58,0,0,0,.62,1.8,3.11,3.11,0,0,0,2,.5Zm7.3-8.11q.28,5,.29,7.19a3.19,3.19,0,0,1-.38,1.51,3.33,3.33,0,0,1-1.15,1.15,9.48,9.48,0,0,1-2.68.88,18,18,0,0,1-3.37.3c-.05,0-.1-.07-.14-.21a2.29,2.29,0,0,1-.06-.56v-1.36a2.34,2.34,0,0,1,.06-.56c0-.15.09-.23.14-.23a25,25,0,0,0,3.19-.18,6.76,6.76,0,0,0,2.42-.79l-.56-6.73Zm-6.4,14.18,2,1.59-1.56,2-2-1.59Zm3.71,0,2,1.59-1.56,2-2-1.59Zm-1.79,4,2,1.59L415.66,374l-2-1.56Z"/><path d="M196.69,360.39c.06,0,.11.08.15.23a2.34,2.34,0,0,1,.06.56v1.36a2.29,2.29,0,0,1-.06.56q-.06.21-.15.21h-1.21a3.69,3.69,0,0,1-3-1.27l.08,3.71a2.57,2.57,0,0,1-1.26,2.19,9.27,9.27,0,0,1-3.33,1.41,19,19,0,0,1-4.22.47q-3.69,0-5.37-1.35a5,5,0,0,1-1.65-4.13A19.07,19.07,0,0,1,177,362c.18-1.16.39-2.57.65-4.22.06-.39.12-.77.17-1.15l.18-1.18,1.83.36a75.89,75.89,0,0,0-1.12,8.19,2.31,2.31,0,0,0,1.35,2.22,8.22,8.22,0,0,0,3.69.7,20.66,20.66,0,0,0,4-.35,6.73,6.73,0,0,0,2.8-1.21l-.86-22.64,2.3-.38.36,16.18a2.88,2.88,0,0,0,.53,1.3,1.65,1.65,0,0,0,.88.47,9.1,9.1,0,0,0,1.48.09Zm7.28-8.11q.3,5,.3,7.19a3.09,3.09,0,0,1-.39,1.51,3.24,3.24,0,0,1-1.15,1.15,9.37,9.37,0,0,1-2.68.88,17.79,17.79,0,0,1-3.36.3q-.09,0-.15-.21a2.29,2.29,0,0,1-.06-.56v-1.36a2.34,2.34,0,0,1,.06-.56c0-.15.09-.23.15-.23a24.85,24.85,0,0,0,3.18-.18,6.7,6.7,0,0,0,2.42-.79l-.56-6.73Zm-6.43,14.18,2,1.62-1.62,2-2-1.62Zm3.81,0,2,1.62-1.65,2-2-1.62ZM215,360.39c.06,0,.11.08.15.23a2.38,2.38,0,0,1,0,.56v1.36a2.33,2.33,0,0,1,0,.56q-.06.21-.15.21h-.59a5.91,5.91,0,0,1-4.25-1.33c-.88-.88-1.36-2.37-1.44-4.45l-.38-14.8,2.3-.38.14,15.15a2.62,2.62,0,0,0,.92,2.21,4,4,0,0,0,2.44.68ZM221.54,348a3.6,3.6,0,0,1,3.51,2.39,12.73,12.73,0,0,1,1.09,5.42,30.83,30.83,0,0,1-.17,3.66,4.89,4.89,0,0,1-.59,2,2.77,2.77,0,0,1-1.24,1.06,9.74,9.74,0,0,1-2.92.68q-1.77.18-6.22.18-.09,0-.15-.21a2.29,2.29,0,0,1-.06-.56v-1.36a2.34,2.34,0,0,1,.06-.56c0-.15.09-.23.15-.23,2.75,0,4.78,0,6.07-.12a11.68,11.68,0,0,0,2.92-.5,11.27,11.27,0,0,0,.12-1.95,15.32,15.32,0,0,1-3.39.33,8.94,8.94,0,0,1-2.15-.21,2.54,2.54,0,0,1-1.33-.94,4.61,4.61,0,0,1-.5-.86,3.23,3.23,0,0,1-.12-1,11.25,11.25,0,0,1,.5-3.24,7,7,0,0,1,1.59-2.8A3.78,3.78,0,0,1,221.54,348Zm-2.94,7.34a6.64,6.64,0,0,0,2.44.38,12.69,12.69,0,0,0,3.1-.29,7.62,7.62,0,0,0-.74-3.78,2.23,2.23,0,0,0-4.07.15A7.39,7.39,0,0,0,218.6,355.29ZM221,341l2.21,1.74-1.68,2.09-2.21-1.74Zm14,12.15a3.61,3.61,0,0,1,3.51,2.38,13.09,13.09,0,0,1,1.12,5.43,9.37,9.37,0,0,1-2.39,6.28,15.63,15.63,0,0,1-6.25,4.3l-1.53-2.21a18.12,18.12,0,0,0,5-2.74,8.62,8.62,0,0,0,2.86-3.51,17.07,17.07,0,0,1-3.18.27,7.81,7.81,0,0,1-2.13-.24,2.42,2.42,0,0,1-1.32-.91,3.56,3.56,0,0,1-.5-.83,3.36,3.36,0,0,1-.12-1,10.92,10.92,0,0,1,.5-3.24,6.79,6.79,0,0,1,1.59-2.8A3.68,3.68,0,0,1,235,353.11Zm-2.92,7.34a6.64,6.64,0,0,0,2.42.38,12.69,12.69,0,0,0,3.1-.29,7.62,7.62,0,0,0-.74-3.78,2.29,2.29,0,0,0-2.1-1.24,2.21,2.21,0,0,0-1.94,1.39A7.39,7.39,0,0,0,232.1,360.45Zm20.73-.06c.06,0,.11.08.15.23a3.06,3.06,0,0,1,.05.56v1.36a3,3,0,0,1-.05.56q-.06.21-.15.21h-1.09a3.88,3.88,0,0,1-3.33-1.42v.33a8.2,8.2,0,0,1-1.83,5,15.87,15.87,0,0,1-5.34,4.27l-1.5-2.21a16.17,16.17,0,0,0,4.48-3.12,9.15,9.15,0,0,0,2.21-3.39l-.94-8.2,2.27-.44.09.91.14,1.36.18,1.86c.16,1.41,1.27,2.12,3.33,2.12Zm7.28-8.11c.2,3.34.29,5.74.29,7.19A3.08,3.08,0,0,1,260,361a3.24,3.24,0,0,1-1.15,1.15,9.37,9.37,0,0,1-2.68.88,17.79,17.79,0,0,1-3.36.3q-.09,0-.15-.21a2.29,2.29,0,0,1-.06-.56v-1.36a2.34,2.34,0,0,1,.06-.56c0-.15.09-.23.15-.23a24.85,24.85,0,0,0,3.18-.18,6.7,6.7,0,0,0,2.42-.79l-.56-6.73Zm-6.4,14.18,2,1.59-1.56,2-2-1.59Zm3.72,0,2,1.59-1.56,2-2-1.59Zm-1.8,4,2,1.59L256,374l-2-1.56Z"/><path d="M500.79,369.82q-3.68,0-5.36-1.35a5,5,0,0,1-1.65-4.13A20.56,20.56,0,0,1,494,362c.18-1.16.4-2.57.65-4.22l.18-1.15.18-1.18,1.82.36a78.8,78.8,0,0,0-1.12,8.19,2.32,2.32,0,0,0,1.36,2.22,8.15,8.15,0,0,0,3.68.7,20.52,20.52,0,0,0,4.51-.41,6.42,6.42,0,0,0,3-1.44,4.74,4.74,0,0,0,.3-1.42,1.6,1.6,0,0,0-1.51-1.8l-1-.09c-1-.09-1.82-.19-2.33-.29a2.48,2.48,0,0,1-1.21-.56,1.6,1.6,0,0,1-.44-1.21,13.07,13.07,0,0,1,.8-4.45,10.62,10.62,0,0,1,2.15-3.63,4,4,0,0,1,2.92-1.41,3.37,3.37,0,0,1,2,.68,6.06,6.06,0,0,1,1.68,1.82l-1.24,1.42a3.75,3.75,0,0,0-2.5-1.36,2.48,2.48,0,0,0-1.8.86,6.26,6.26,0,0,0-1.36,2.21,12.12,12.12,0,0,0-.65,3,21.18,21.18,0,0,1,3.66.5,3.45,3.45,0,0,1,2,1.26,4.33,4.33,0,0,1,.74,2.78,5.19,5.19,0,0,1-2.77,4.95A14.48,14.48,0,0,1,500.79,369.82Zm29.3-9.43s.08.08.12.23a1.89,1.89,0,0,1,.08.56v1.36a1.84,1.84,0,0,1-.08.56q-.06.21-.12.21h-.74q-3.18,0-3.83-2.33a2.1,2.1,0,0,1-.41.79,2.66,2.66,0,0,1-.62.5,9.66,9.66,0,0,1-2.72,1,13.79,13.79,0,0,1-3.27.44,5.51,5.51,0,0,1-2.24-.38,2.2,2.2,0,0,1-1.15-1.21,7,7,0,0,1-.35-2.45,14.3,14.3,0,0,1,.06-1.47l1.77.14v.56a4,4,0,0,0,.14,1.3.81.81,0,0,0,.59.5,8.7,8.7,0,0,0,1.51.09,13.82,13.82,0,0,0,3.18-.38,7.84,7.84,0,0,0,2.54-1l-2.25-9.08,2.16-1.18,1.68,8.16a8.78,8.78,0,0,0,.65,2.18,1.5,1.5,0,0,0,1,.74A11.81,11.81,0,0,0,530.09,360.39Zm10.26,0s.08.08.11.23a1.6,1.6,0,0,1,.09.56v1.36a1.57,1.57,0,0,1-.09.56c0,.14-.07.21-.11.21a9.84,9.84,0,0,1-3.42-.45,2.61,2.61,0,0,1-1.54-1.41,3.06,3.06,0,0,1-1.82,1.41,11,11,0,0,1-3.48.45q-.09,0-.15-.21a2.29,2.29,0,0,1-.06-.56v-1.36a2.34,2.34,0,0,1,.06-.56c0-.15.09-.23.15-.23a14.2,14.2,0,0,0,2.47-.18,5.62,5.62,0,0,0,1.86-.71l-.59-5.8,2.21-.24.39,6.13A7.24,7.24,0,0,0,540.35,360.39Zm-5.9-13.83,2.21,1.74L535,350.39l-2.21-1.73Zm13.17,5.72q.28,5,.29,7.19a3.19,3.19,0,0,1-.38,1.51,3.33,3.33,0,0,1-1.15,1.15,9.44,9.44,0,0,1-2.69.88,17.79,17.79,0,0,1-3.36.3c-.05,0-.1-.07-.14-.21a2.29,2.29,0,0,1-.06-.56v-1.36a2.34,2.34,0,0,1,.06-.56c0-.15.09-.23.14-.23a25.13,25.13,0,0,0,3.19-.18,6.76,6.76,0,0,0,2.42-.79l-.56-6.73ZM543,366.46l2.21,1.74-1.68,2.09-2.21-1.74Zm21.52-6.07c.06,0,.11.08.15.23a1.6,1.6,0,0,1,.09.56v1.36a1.57,1.57,0,0,1-.09.56q-.06.21-.15.21h-.83q-3.06,0-3.77-2.3l0,.06c-.14.43-.57.75-1.3,1a10.05,10.05,0,0,1-2.68.29,4.74,4.74,0,0,1-2.56-.67,2.37,2.37,0,0,1-1.09-2.13q0-5.44,6.16-7.16l-.24-1.92,2.12-.65.71,7.32a11.81,11.81,0,0,0,.3,1.91,1.78,1.78,0,0,0,.73,1,2.89,2.89,0,0,0,1.6.36Zm-8.34-.71a7.24,7.24,0,0,0,1.56-.15c.45-.1,1-.23,1.5-.41l-.5-4.57a5.85,5.85,0,0,0-3.45,1.8,4.94,4.94,0,0,0-1.24,2.77A3.66,3.66,0,0,0,556.2,359.68Zm18.61.71s.07.08.11.23a1.6,1.6,0,0,1,.09.56v1.36a1.57,1.57,0,0,1-.09.56c0,.14-.07.21-.11.21a9.84,9.84,0,0,1-3.42-.45,2.61,2.61,0,0,1-1.54-1.41,3.06,3.06,0,0,1-1.82,1.41,11,11,0,0,1-3.48.45q-.09,0-.15-.21a2.29,2.29,0,0,1-.06-.56v-1.36a2.34,2.34,0,0,1,.06-.56c0-.15.09-.23.15-.23a14.2,14.2,0,0,0,2.47-.18,5.62,5.62,0,0,0,1.86-.71l-.59-5.8,2.21-.24.39,6.13A7.24,7.24,0,0,0,574.81,360.39Zm-7.73-13.65,2,1.62-1.62,2-2-1.62Zm3.81,0,2,1.62-1.65,2-2-1.62Zm22.21,5.54q.3,5,.3,7.46a3,3,0,0,1-1.33,2.71,5.44,5.44,0,0,1-3.06.86c-1.67,0-2.74-.51-3.19-1.54a2.36,2.36,0,0,1-1.38,1.18,4.92,4.92,0,0,1-1.74.36,4.6,4.6,0,0,1-2-.39,2.6,2.6,0,0,1-1.21-1.15,3.44,3.44,0,0,1-1.88,1.18,10.38,10.38,0,0,1-2.83.36q-.09,0-.15-.21a2.29,2.29,0,0,1-.06-.56v-1.36a2.34,2.34,0,0,1,.06-.56c0-.15.09-.23.15-.23a15.41,15.41,0,0,0,2.09-.12,4.21,4.21,0,0,0,1.56-.59l.06-4.63h2.06l-.08,3.69c0,1.1.63,1.65,2,1.65a5,5,0,0,0,2.42-.5l-.18-6,2.07-.06.11,6.05a2.57,2.57,0,0,0,1.74.47,5.78,5.78,0,0,0,2.8-.53l-.53-7.17Zm11-3.18a19.67,19.67,0,0,1,4.37,5.72,12,12,0,0,1,1.26,5,2.89,2.89,0,0,1-2.12,2.71,13.06,13.06,0,0,1-5.1.88,10.44,10.44,0,0,1-3.12-.35,2.51,2.51,0,0,1-1.48-1.24,5.84,5.84,0,0,1-.41-2.44,14.51,14.51,0,0,1,.06-1.48l1.77.15v.56a3.72,3.72,0,0,0,.17,1.33,1.18,1.18,0,0,0,.83.47,18.35,18.35,0,0,0,2.24.09,18.54,18.54,0,0,0,2.92-.24,9,9,0,0,0,2.27-.59,9.64,9.64,0,0,0-1.48-4.27,21.65,21.65,0,0,0-3.68-4.43Z"/><path d="M726.15,360.39c.06,0,.11.08.15.23a2.34,2.34,0,0,1,.06.56v1.36a2.29,2.29,0,0,1-.06.56q-.06.21-.15.21h-.59a5.91,5.91,0,0,1-4.25-1.33c-.88-.88-1.36-2.37-1.44-4.45l-.38-14.8,2.3-.38.14,15.15a2.62,2.62,0,0,0,.92,2.21,4,4,0,0,0,2.44.68Zm11.94-7.11a7.56,7.56,0,0,1,3,2.21,4.93,4.93,0,0,1,1,3.07,8,8,0,0,1-.68,3.33,3.26,3.26,0,0,1-1.09,1.18,1.74,1.74,0,0,1-1.06.47,1.13,1.13,0,0,1-.41-.09l-4.37-1.65a4.17,4.17,0,0,1-2.68,1.21,40,40,0,0,1-5.63.3q-.09,0-.15-.21a2.29,2.29,0,0,1-.06-.56v-1.36a2.34,2.34,0,0,1,.06-.56c0-.15.09-.23.15-.23h2.18a12.84,12.84,0,0,0,3.27-.33,4.74,4.74,0,0,1-2.09-.94,2.21,2.21,0,0,1-.8-1.71,4.8,4.8,0,0,1,.59-2.3,17.88,17.88,0,0,1,1.62-2.36l-1.44-.68,1-2.18Zm-2.51,1.57-3-1.27c-1.31,1.47-2,2.65-2,3.54,0,1,1.08,1.67,3.24,1.88Zm3.92,6.28a5.51,5.51,0,0,0,.5-1.1,3.62,3.62,0,0,0,.21-1.17,2.79,2.79,0,0,0-.68-1.86,5.47,5.47,0,0,0-2.36-1.48l-1.68,4.1Zm7.44,11.32a66.76,66.76,0,0,1-.64-8.29,12.35,12.35,0,0,1,.73-4.83q2.78-6.4,6-6.4a3.39,3.39,0,0,1,3,1.68,7.71,7.71,0,0,1,1.12,4.33,11.12,11.12,0,0,1-.45,3.1,2.93,2.93,0,0,1-1.06,1.36,2,2,0,0,1-1.21.44,2,2,0,0,1-.79-.18l-5-2.3a13.67,13.67,0,0,0-.09,1.65,30.32,30.32,0,0,0,.2,3.3c.16,1.2.39,2.69.68,4.46l.12.73Zm7.61-11.21a3.6,3.6,0,0,0,.32-1.06,6.07,6.07,0,0,0,.15-1.32,4.6,4.6,0,0,0-.62-2.54,1.8,1.8,0,0,0-1.62-1,2.17,2.17,0,0,0-1.65.82,15.49,15.49,0,0,0-1.71,2.8Zm13-.85c.06,0,.11.08.15.23a2.34,2.34,0,0,1,.06.56v1.36a2.29,2.29,0,0,1-.06.56q-.06.21-.15.21h-.59a5.91,5.91,0,0,1-4.25-1.33c-.88-.88-1.36-2.37-1.44-4.45l-.38-14.8,2.3-.38.14,15.15a2.62,2.62,0,0,0,.92,2.21,4,4,0,0,0,2.44.68Zm10.88,0c.06,0,.11.08.14.23a2.34,2.34,0,0,1,.06.56v1.36a2.29,2.29,0,0,1-.06.56c0,.14-.08.21-.14.21a12.56,12.56,0,0,1-3.92-.45,2.48,2.48,0,0,1-1.65-1.41,3.12,3.12,0,0,1-1.83,1.41,11,11,0,0,1-3.48.45q-.09,0-.15-.21a2.29,2.29,0,0,1-.06-.56v-1.36a2.34,2.34,0,0,1,.06-.56c0-.15.09-.23.15-.23a14.41,14.41,0,0,0,2.48-.18,5.65,5.65,0,0,0,1.85-.71l-.59-5.8,2.21-.24.36,6.13A9.36,9.36,0,0,0,778.4,360.39Zm-9.14,6.07,2,1.62-1.62,2-2-1.62Zm3.8,0,2,1.62-1.66,2-2-1.62Zm12.62-14.18q.3,5,.3,7.19a3.19,3.19,0,0,1-.38,1.51,3.33,3.33,0,0,1-1.15,1.15,9.55,9.55,0,0,1-2.69.88,17.79,17.79,0,0,1-3.36.3q-.09,0-.15-.21a3,3,0,0,1,0-.56v-1.36a3.06,3.06,0,0,1,0-.56c0-.15.09-.23.15-.23a25.13,25.13,0,0,0,3.19-.18,6.64,6.64,0,0,0,2.41-.79l-.56-6.73Zm-6.39,14.18,2,1.59-1.56,2-2-1.59Zm3.71,0,2,1.59-1.57,2-2-1.59Zm-1.8,4,2,1.59L781.62,374l-2-1.56Z"/><path d="M917.78,360.39c.06,0,.1.08.14.23a1.6,1.6,0,0,1,.09.56v1.36a1.57,1.57,0,0,1-.09.56c0,.14-.08.21-.14.21H917q-3.06,0-3.77-2.3l0,.06c-.14.43-.57.75-1.3,1a10.1,10.1,0,0,1-2.68.29,4.8,4.8,0,0,1-2.57-.67,2.39,2.39,0,0,1-1.09-2.13q0-5.44,6.16-7.16l-.23-1.92,2.12-.65.71,7.32a13.33,13.33,0,0,0,.29,1.91,1.85,1.85,0,0,0,.74,1,2.83,2.83,0,0,0,1.59.36Zm-8.35-.71a7.41,7.41,0,0,0,1.57-.15c.45-.1,1-.23,1.5-.41l-.5-4.57a5.85,5.85,0,0,0-3.45,1.8,4.88,4.88,0,0,0-1.24,2.77A3.64,3.64,0,0,0,909.43,359.68Zm15.64-7.4q.28,5,.29,7.19A3.19,3.19,0,0,1,925,361a3.33,3.33,0,0,1-1.15,1.15,9.44,9.44,0,0,1-2.69.88,17.79,17.79,0,0,1-3.36.3c-.06,0-.1-.07-.14-.21a2.29,2.29,0,0,1-.06-.56v-1.36a2.34,2.34,0,0,1,.06-.56c0-.15.08-.23.14-.23a25.13,25.13,0,0,0,3.19-.18,6.64,6.64,0,0,0,2.41-.79l-.56-6.73Zm-1.71-6.75,2.21,1.74-1.68,2.09-2.21-1.74Zm12.76,14.86c.06,0,.11.08.15.23a2.34,2.34,0,0,1,.06.56v1.36a2.29,2.29,0,0,1-.06.56q-.06.21-.15.21h-.59a5.87,5.87,0,0,1-4.24-1.33c-.89-.88-1.37-2.37-1.45-4.45l-.38-14.8,2.3-.38.14,15.15a2.62,2.62,0,0,0,.92,2.21,4,4,0,0,0,2.45.68Zm5.63-9.11a6.07,6.07,0,0,1,1.92.38c.73.24,1.71.61,3,1.12,1.69.69,3.13,1.22,4.33,1.59a11.57,11.57,0,0,0,3.51.56l-.47,2.72a11.25,11.25,0,0,0-3.72.82,34.93,34.93,0,0,0-4,2.1,23.35,23.35,0,0,1-4.39,2,15.24,15.24,0,0,1-4.83.71h-.89c-.06,0-.11-.07-.14-.21a2.29,2.29,0,0,1-.06-.56v-1.36a2.34,2.34,0,0,1,.06-.56c0-.15.08-.23.14-.23h1.06a15.29,15.29,0,0,0,3.72-.47,26.68,26.68,0,0,0,4-1.51l1.8-.85c.74-.36,1.32-.62,1.73-.8a9,9,0,0,1,1.24-.41,28.39,28.39,0,0,1-4.15-1.39c-1-.41-1.84-.7-2.39-.88a4.61,4.61,0,0,0-1.39-.27,1.34,1.34,0,0,0-1.15.53,3.83,3.83,0,0,0-.56,1.63l-1.77-.33a8.56,8.56,0,0,1,1.15-3.21A2.62,2.62,0,0,1,941.75,351.28Zm2.16-6.63,2.21,1.74-1.68,2.09-2.21-1.74Z"/><path d="M542.83,301.89a11.06,11.06,0,1,1,11.06-11.06A11,11,0,0,1,542.83,301.89Zm0-17.2a6.15,6.15,0,1,0,6.15,6.14A6.09,6.09,0,0,0,542.83,284.69Z"/><path d="M580.91,301.89H558.8V279.78h22.11ZM563.72,297H576V284.69H563.72Z"/><path d="M582.63,328.91H557.08l12.78-22.11ZM565.44,324H574l-4.42-7.37Z"/><path d="M549.22,328.91H536.45l-6.39-11.05,6.39-11.06h12.77l6.39,11.06ZM539.4,324h7.12l3.44-6.14-3.69-6.14H539.4L536,317.86Z"/><path class="cls-3" d="M949.41,326.46h-39.3v-27l19.65-19.65,19.65,19.65Z"/><path d="M954.33,310.24a2.22,2.22,0,0,1-1.72-.73l-22.85-22.85-22.85,22.85a2.43,2.43,0,0,1-3.44-3.44l26.29-26.29,26.29,26.29a2.38,2.38,0,0,1,0,3.44A2.24,2.24,0,0,1,954.33,310.24Z"/><path d="M777.45,328.91l-13-7.37h-14a11.53,11.53,0,0,1-8.59-3.68,2.43,2.43,0,0,1,3.43-3.44,6.72,6.72,0,0,0,5.16,2.21H765.9l6.63,3.93V304.35a6.67,6.67,0,0,0-2.21-5.16,2.43,2.43,0,1,1,3.44-3.44,11.51,11.51,0,0,1,3.69,8.6Z"/><path d="M728.31,319.09V289.61a7.24,7.24,0,0,1,7.37-7.37h24.57a7.23,7.23,0,0,1,7.37,7.37v14.74a7.24,7.24,0,0,1-7.37,7.37H741.33Zm7.37-31.94a2.32,2.32,0,0,0-2.45,2.46v21.12l6.63-3.93h20.39a2.32,2.32,0,0,0,2.46-2.45V289.61a2.33,2.33,0,0,0-2.46-2.46Z"/><path d="M386.84,326.46H367.18a9.86,9.86,0,0,1-9.82-9.83V297a9.85,9.85,0,0,1,9.82-9.83h7.37a2.46,2.46,0,1,1,0,4.91h-7.37a4.93,4.93,0,0,0-4.91,4.92v19.65a4.93,4.93,0,0,0,4.91,4.91h19.66a4.93,4.93,0,0,0,4.91-4.91v-7.37a2.46,2.46,0,1,1,4.91,0v7.37A9.86,9.86,0,0,1,386.84,326.46Z"/><path d="M377,316.63h-9.83V306.8l22.6-22.6a7,7,0,0,1,9.83,0,7.12,7.12,0,0,1,0,9.83Zm-4.91-4.91H375l21.13-21.13a2.47,2.47,0,0,0,0-2.95,2.23,2.23,0,0,0-2.95,0L372.1,308.77Z"/></g></svg>