<svg xmlns="http://www.w3.org/2000/svg" viewBox="0 0 1152 648"><defs><style>.cls-1{fill:#ff5e3f;}</style></defs><g id="Layer_1" data-name="Layer 1"><rect class="cls-1" width="1152" height="648"/><path d="M107.47,124.33a28.45,28.45,0,0,0,7.92-9.48l-3.74-27.14L123.4,85.3q1.16,10.07,1.65,16c.32,4,.49,7.45.49,10.42a29.29,29.29,0,0,1-6.32,18.51q-6.33,8.1-21.45,15.22l-7.83-11.3Q102,128.83,107.47,124.33ZM115,59l10,8-7.65,9.26-10-8Z"/><path d="M169.77,124.33a28.45,28.45,0,0,0,7.92-9.48L174,87.71,185.7,85.3q1.16,10.07,1.65,16t.48,10.42a29.28,29.28,0,0,1-6.31,18.51q-6.33,8.1-21.45,15.22l-7.83-11.3Q164.26,128.83,169.77,124.33Z"/><path d="M263.44,86.28q4.68,8.82,4.67,16.74t-6.67,11.52q-6.67,3.52-17.45,3.52a32.82,32.82,0,0,1-10.19-1.29,9.81,9.81,0,0,1-5.56-4.37c-1.19-2-1.78-4.85-1.78-8.41q0-1.68.36-7.74l9.07.71v2.32a4.4,4.4,0,0,0,.63,2.67,3.34,3.34,0,0,0,2.27,1,47.15,47.15,0,0,0,5.56.22q2.76,0,6.85-.4a42,42,0,0,0,6.77-1.11q-1.43-9.44-15.58-23.05l7.39-9.79A70.26,70.26,0,0,1,263.44,86.28ZM244.62,42.67l10,8-7.65,9.26-10-8Z"/><path d="M328.14,86.28q4.68,8.82,4.67,16.74t-6.67,11.52q-6.67,3.52-17.44,3.52a32.89,32.89,0,0,1-10.2-1.29,9.81,9.81,0,0,1-5.56-4.37c-1.19-2-1.78-4.85-1.78-8.41q0-1.68.36-7.74l9.08.71v2.32a4.41,4.41,0,0,0,.62,2.67,3.34,3.34,0,0,0,2.27,1,47.27,47.27,0,0,0,5.56.22c1.84,0,4.12-.13,6.86-.4a42,42,0,0,0,6.76-1.11q-1.43-9.44-15.58-23.05l7.39-9.79A70.26,70.26,0,0,1,328.14,86.28Z"/><path d="M393.56,100.39a82.18,82.18,0,0,0-15.76,8.68q-7.16,5.07-9.83,10.05a20,20,0,0,0-1,6.15q0,7.47,4.81,11t14.86,3.51a69.7,69.7,0,0,0,22.07-3.47l-2.31,14.86a51.7,51.7,0,0,1-19.76,3.48q-14,0-21.94-7.44t-8-21a29.21,29.21,0,0,1,4-14.47,43.07,43.07,0,0,1,11.57-13,65.21,65.21,0,0,1,18.11-9.61c-1.61-.41-4.45-1.33-8.55-2.76q-4.19-1.52-6.67-2.22a17,17,0,0,0-4.72-.71A4.14,4.14,0,0,0,367,84.81a9.45,9.45,0,0,0-1.51,4.32l-8.64-1.6Q358,79.7,361,75.11a9.82,9.82,0,0,1,8.72-4.58,25.91,25.91,0,0,1,7.79,1.25q4,1.25,10.28,3.91,7.56,3.12,12.81,4.72A37.24,37.24,0,0,0,411.58,82l-2.76,14A58.52,58.52,0,0,0,393.56,100.39Zm-8.68-53.53,10,8-7.66,9.25-10-8Z"/><path d="M471.88,100.39a82.18,82.18,0,0,0-15.76,8.68q-7.15,5.07-9.83,10.05a19.67,19.67,0,0,0-1,6.15q0,7.47,4.81,11T465,139.77a69.7,69.7,0,0,0,22.07-3.47l-2.31,14.86A51.7,51.7,0,0,1,465,154.64q-14,0-21.94-7.44t-8-21a29.21,29.21,0,0,1,4-14.47,43.17,43.17,0,0,1,11.56-13,65.27,65.27,0,0,1,18.12-9.61c-1.61-.41-4.45-1.33-8.55-2.76q-4.19-1.52-6.67-2.22a17,17,0,0,0-4.72-.71,4.14,4.14,0,0,0-3.47,1.37,9.45,9.45,0,0,0-1.51,4.32l-8.64-1.6q1.15-7.83,4.19-12.42a9.82,9.82,0,0,1,8.72-4.58,26,26,0,0,1,7.79,1.25q4,1.25,10.28,3.91,7.56,3.12,12.81,4.72A37.24,37.24,0,0,0,489.9,82l-2.76,14A58.52,58.52,0,0,0,471.88,100.39Z"/><path d="M565.46,96a58.68,58.68,0,0,0-15.27,4.41,82.39,82.39,0,0,0-15.75,8.68q-7.17,5.07-9.83,10.05a19.67,19.67,0,0,0-1,6.15q0,7.47,4.8,11t14.87,3.51a69.7,69.7,0,0,0,22.07-3.47l-2.32,14.86a51.61,51.61,0,0,1-19.75,3.48q-14,0-21.94-7.44t-8-21a29.31,29.31,0,0,1,4-14.47,43.34,43.34,0,0,1,11.57-13A65.27,65.27,0,0,1,547,89.13q-2.41-.61-8.55-2.76-4.18-1.52-6.67-2.22a17.07,17.07,0,0,0-4.72-.71,4.14,4.14,0,0,0-3.47,1.37,9.56,9.56,0,0,0-1.52,4.32l-8.63-1.6q1.15-7.83,4.19-12.42a9.82,9.82,0,0,1,8.72-4.58,25.84,25.84,0,0,1,7.78,1.25q4,1.25,10.28,3.91,7.57,3.12,12.82,4.72a37.24,37.24,0,0,0,11,1.6Zm-23,15.13,6.67,5.43-5.43,6.68-6.67-5.43ZM555,128.38l-5.42,6.68-6.68-5.34,5.43-6.77Zm-1.42-17.27,6.68,5.43L555,123.22l-6.77-5.43Z"/><path d="M643.78,96a58.68,58.68,0,0,0-15.27,4.41,82.39,82.39,0,0,0-15.75,8.68q-7.17,5.07-9.83,10.05a19.67,19.67,0,0,0-1,6.15q0,7.47,4.8,11t14.87,3.51a69.7,69.7,0,0,0,22.07-3.47l-2.32,14.86a51.61,51.61,0,0,1-19.75,3.48q-14,0-21.94-7.44t-8-21a29.31,29.31,0,0,1,4-14.47,43.34,43.34,0,0,1,11.57-13,65.35,65.35,0,0,1,18.11-9.61q-2.4-.61-8.54-2.76c-2.79-1-5-1.75-6.68-2.22a17,17,0,0,0-4.71-.71A4.14,4.14,0,0,0,602,84.81a9.56,9.56,0,0,0-1.52,4.32l-8.63-1.6Q593,79.7,596,75.11a9.84,9.84,0,0,1,8.73-4.58,25.84,25.84,0,0,1,7.78,1.25q4,1.25,10.28,3.91,7.58,3.12,12.82,4.72A37.24,37.24,0,0,0,646.54,82Zm-18,32-9.17-7.29,6.94-8.46,9.17,7.3Z"/><path d="M736.6,102.13a15.07,15.07,0,0,1-1.51,7.12,10.54,10.54,0,0,1-5.25,4.53,43.81,43.81,0,0,1-11.44,3.12,110.31,110.31,0,0,1-17.13,1.16,78,78,0,0,1-16.73-1.52,20.07,20.07,0,0,1-10.64-5.65Q670,106.75,670,99.37a48.72,48.72,0,0,1,.71-6.41q.72-4.54,2.23-13.35l9.08,2q-2.14,12.11-2.14,15.13a4.8,4.8,0,0,0,1.78,4c1.19.92,3.22,1.55,6.1,1.91a111.84,111.84,0,0,0,12.77.53q16.55,0,26-2.22l-2.14-19.4,11.3-2Q736.61,92.78,736.6,102.13ZM696.11,65.81l8.54,6.86-6.85,8.54-8.55-6.85Zm6.76-15,8.46,6.86-6.86,8.54-8.54-6.85Zm7.39,15,8.54,6.86L712,81.21l-8.54-6.85Z"/><path d="M829,102.13a15.07,15.07,0,0,1-1.52,7.12,10.54,10.54,0,0,1-5.25,4.53,43.84,43.84,0,0,1-11.43,3.12,110.54,110.54,0,0,1-17.14,1.16,78.07,78.07,0,0,1-16.73-1.52,20,20,0,0,1-10.63-5.65q-3.88-4.14-3.88-11.52a48.72,48.72,0,0,1,.71-6.41q.72-4.54,2.23-13.35l9.08,2q-2.14,12.11-2.14,15.13a4.8,4.8,0,0,0,1.78,4c1.19.92,3.22,1.55,6.1,1.91a112,112,0,0,0,12.77.53q16.56,0,26-2.22l-2.14-19.4,11.3-2Q829,92.78,829,102.13Zm-40.86-37,8.9,7.21-7.2,8.9L780.92,74Zm14.87,0,8.9,7.21-7.21,8.9L795.79,74Z"/><path d="M921.37,102.13a15.07,15.07,0,0,1-1.52,7.12,10.54,10.54,0,0,1-5.25,4.53,43.84,43.84,0,0,1-11.43,3.12A110.54,110.54,0,0,1,886,118.06a78.07,78.07,0,0,1-16.73-1.52,20,20,0,0,1-10.63-5.65q-3.88-4.14-3.88-11.52a47.49,47.49,0,0,1,.72-6.41q.71-4.54,2.22-13.35l9.08,2q-2.14,12.11-2.14,15.13a4.83,4.83,0,0,0,1.78,4c1.19.92,3.22,1.55,6.1,1.91a112,112,0,0,0,12.77.53q16.56,0,26-2.22l-2.14-19.4,11.31-2Q921.37,92.78,921.37,102.13Zm-43.17,24.2,8.55,6.86-6.86,8.54-8.54-6.85Zm7.48,15,8.54,6.86-6.94,8.54-8.46-6.85Zm6.67-15,8.55,6.86L894,141.73l-8.54-6.85Z"/><path d="M1013.75,102.13a15.19,15.19,0,0,1-1.51,7.12,10.52,10.52,0,0,1-5.26,4.53,43.84,43.84,0,0,1-11.43,3.12,110.5,110.5,0,0,1-17.13,1.16,78.1,78.1,0,0,1-16.74-1.52,20,20,0,0,1-10.63-5.65q-3.87-4.14-3.87-11.52a47,47,0,0,1,.71-6.41q.71-4.54,2.22-13.35l9.08,2q-2.13,12.11-2.14,15.13a4.83,4.83,0,0,0,1.78,4c1.19.92,3.22,1.55,6.1,1.91a112.08,112.08,0,0,0,12.77.53q16.56,0,26-2.22l-2.14-19.4,11.31-2Q1013.75,92.78,1013.75,102.13Zm-36.4,24.2,10,8-7.65,9.26-10-8Z"/><path d="M1038.67,51.66l11.75-2,.17,67.91-9.79,1.25Z"/><path d="M1092.69,55.76a26.28,26.28,0,0,0-2.94-.36,2.88,2.88,0,0,0-2.22.85,8.73,8.73,0,0,0-1.52,3.51l-7.83-2a37.05,37.05,0,0,1,2.76-8.36,9.7,9.7,0,0,1,3.6-4.14,10.35,10.35,0,0,1,5.21-1.2,37.61,37.61,0,0,1,4.81.44,89.56,89.56,0,0,0,11,.8h5.34l-2.31,11.4h-4.9A58.48,58.48,0,0,1,1092.69,55.76Zm-4.36,8.36,11.75-2,.17,55.45-9.79,1.25Z"/><path d="M120,199.41a22.59,22.59,0,0,1,5.65,9.44,43.19,43.19,0,0,1,2,13,98.33,98.33,0,0,1-1,16.6,15.69,15.69,0,0,1-4,8.5q-4.35,4.72-13,6.63a78.27,78.27,0,0,1-17,1.92q-12.47,0-17.89-4.72t-5.43-14.06q0-3.3,2-15.13l2.22-14.33,9.08,2q-3.47,20.82-3.47,25.27,0,3.48,4,4.81a29.88,29.88,0,0,0,9.43,1.33,86.55,86.55,0,0,0,12.9-.89,50.61,50.61,0,0,0,11.66-3.2q.09-.72.45-5.34a44.87,44.87,0,0,1-9.17.8,40.24,40.24,0,0,1-5.87-.31,7.65,7.65,0,0,1-3.29-1.25,13,13,0,0,1-2.85-3,14.09,14.09,0,0,1-2-3.51,12,12,0,0,1-.45-3.61,38.39,38.39,0,0,1,1.83-12.06,20.21,20.21,0,0,1,5.65-9,13.77,13.77,0,0,1,9.52-3.42A12.41,12.41,0,0,1,120,199.41Zm-18.65-28,8.9,7.21-7.21,8.9-8.9-7.21Zm9.44,48.33q2,0,3.78-.09a18.07,18.07,0,0,0,3.25-.45c0-3.67-.68-6.45-2.05-8.32a6.39,6.39,0,0,0-5.43-2.8,5.6,5.6,0,0,0-4.89,2.89c-1.25,1.93-1.87,4.64-1.87,8.15A37.47,37.47,0,0,0,110.76,219.75Zm5.43-48.33,8.9,7.21-7.21,8.9-8.9-7.21Z"/><path d="M225.66,218.55a24.66,24.66,0,0,1-2.27,8.27,11.47,11.47,0,0,1-4.68,4.85q-3.65,2.06-11,2.72t-23.05.67a78.1,78.1,0,0,1-16.74-1.52,20,20,0,0,1-10.63-5.65q-3.87-4.14-3.87-11.52a47,47,0,0,1,.71-6.41q.71-4.54,2.22-13.35l9.08,2q-2.13,12.1-2.13,15.13a4.8,4.8,0,0,0,1.78,4.05c1.18.92,3.21,1.55,6.09,1.91a112.08,112.08,0,0,0,12.77.53q27.15,0,32-1.24c.11-.77.23-2.32.35-4.63a50.77,50.77,0,0,1-9.08.71,40.24,40.24,0,0,1-5.87-.31,7.7,7.7,0,0,1-3.29-1.25,13,13,0,0,1-2.85-3,16.3,16.3,0,0,1-2-3.47,11.1,11.1,0,0,1-.48-3.65,37.82,37.82,0,0,1,1.86-12.06,20.3,20.3,0,0,1,5.7-8.94,13.83,13.83,0,0,1,9.52-3.38,12.46,12.46,0,0,1,8.86,3.47,22.14,22.14,0,0,1,5.65,9.39,41.15,41.15,0,0,1,2,13A110,110,0,0,1,225.66,218.55ZM207,153.27l10,8-7.65,9.25-10-8Zm2.41,49.57a36.85,36.85,0,0,0,7-.54c0-3.67-.68-6.45-2.05-8.32a6.39,6.39,0,0,0-5.43-2.8,5.61,5.61,0,0,0-4.89,2.89q-1.87,2.9-1.87,8.15A50.68,50.68,0,0,0,209.37,202.84Z"/><path d="M301.13,253.3l-2.32,14.86a44.8,44.8,0,0,1-9.21,2.67,57.08,57.08,0,0,1-9.92.81A31.92,31.92,0,0,1,265,268.43a22.8,22.8,0,0,1-9.66-9.08,27,27,0,0,1-3.38-13.7,29.46,29.46,0,0,1,10.23-23.05,51,51,0,0,1-3.38-8.55,27.79,27.79,0,0,1-1.07-7.47q0-7,4.9-11t12.82-4a44,44,0,0,1,10.14,1.69L282.79,205a43.81,43.81,0,0,0-8.54-.89,17.3,17.3,0,0,0-6.41,1.07q0,5.07,3,11.84L291,212.18l.44,13.71q-9,1.79-14.06,3.16a47.76,47.76,0,0,0-8.5,3.07,20.12,20.12,0,0,0-5.83,4.27,21.51,21.51,0,0,0-.89,6.05q0,7.4,4.28,10.86t13.26,3.47A67.79,67.79,0,0,0,301.13,253.3Zm-31.06-87.4,10,8-7.65,9.26-10-8Z"/><path d="M370.55,253.3l-2.32,14.86a44.8,44.8,0,0,1-9.21,2.67,57.08,57.08,0,0,1-9.92.81,31.92,31.92,0,0,1-14.73-3.21,22.8,22.8,0,0,1-9.66-9.08,27,27,0,0,1-3.38-13.7,29.46,29.46,0,0,1,10.23-23.05,51,51,0,0,1-3.38-8.55,27.79,27.79,0,0,1-1.07-7.47q0-7,4.9-11t12.82-4A44,44,0,0,1,355,193.23L352.21,205a43.81,43.81,0,0,0-8.54-.89,17.3,17.3,0,0,0-6.41,1.07q0,5.07,3,11.84l20.11-4.81.44,13.71q-9,1.79-14.06,3.16a47.76,47.76,0,0,0-8.5,3.07,20.12,20.12,0,0,0-5.83,4.27,21.51,21.51,0,0,0-.89,6.05q0,7.4,4.28,10.86t13.26,3.47A67.79,67.79,0,0,0,370.55,253.3Z"/><path d="M444.1,197.81q4.77,5.92,4.77,17.49,0,6.67-2.85,10.06-3.82,4.44-11.79,6.85a66.37,66.37,0,0,1-19,2.4H392.44l-2.85-14.86h8.19c1.19-1.6,2.22-3.12,3.12-4.54a6.49,6.49,0,0,0,.84-2.54,44.69,44.69,0,0,0,.22-5.47q0-3.64-.44-22.52.09,1.88-.45-16l10.95-2,.18,28.4c0,1.36,0,2.64-.09,3.82a15,15,0,0,1-.45,3.12q10.15-10.15,18.16-10.15Q439.35,191.89,444.1,197.81Zm-17.35,21.32a69.77,69.77,0,0,0,11.88-2.41c0-4-.74-7.09-2.22-9.16a7.14,7.14,0,0,0-6.15-3.12q-4.44,0-10.1,4.09a64.15,64.15,0,0,0-11.52,11.22h5.61A117.85,117.85,0,0,0,426.75,219.13Zm3.51-53.67,10,8-7.65,9.25-10-8Z"/><path d="M528,197.81q4.76,5.92,4.76,17.49,0,6.67-2.85,10.06-3.83,4.44-11.79,6.85a66.3,66.3,0,0,1-19,2.4H476.37l-2.85-14.86h8.19c1.18-1.6,2.22-3.12,3.11-4.54a6.33,6.33,0,0,0,.85-2.54,46.88,46.88,0,0,0,.22-5.47q0-3.64-.45-22.52.09,1.88-.44-16l10.95-2,.17,28.4c0,1.36,0,2.64-.08,3.82a15,15,0,0,1-.45,3.12q10.14-10.15,18.16-10.15Q523.26,191.89,528,197.81Zm-17.35,21.32a70.16,70.16,0,0,0,11.88-2.41c0-4-.75-7.09-2.23-9.16a7.13,7.13,0,0,0-6.14-3.12q-4.46,0-10.1,4.09a64.17,64.17,0,0,0-11.53,11.22h5.61A117.9,117.9,0,0,0,510.68,219.13Z"/><path d="M658.33,197.81q4.75,5.92,4.76,17.49,0,6.76-2.94,10.06-3.82,4.35-11.79,6.8a64.49,64.49,0,0,1-18.91,2.45q-12,0-19-3c.18,3.32.27,6.28.27,8.9q0,5.25-4.81,8.63A32.11,32.11,0,0,1,594.42,254a57,57,0,0,1-12.5,1.52q-12.46,0-17.89-4.72t-5.43-14.06q0-3.3,2-15.13l2.22-14.33,9.08,2q-3.47,20.82-3.47,25.27,0,3.48,4,4.81a29.88,29.88,0,0,0,9.43,1.33A70.37,70.37,0,0,0,592.6,240a27.25,27.25,0,0,0,8-2.4l-3.83-33.2L608.17,202q.9,8.72,1.25,13.61l.18,2.14a12.82,12.82,0,0,0,3,.62,88.73,88.73,0,0,1,8-11.12A63.81,63.81,0,0,1,632,196.52c4.19-3.08,8.2-4.63,12.06-4.63Q653.57,191.89,658.33,197.81ZM626.51,170l10,8-7.66,9.25-10-8ZM641,219.13a67.51,67.51,0,0,0,11.88-2.41c0-4-.74-7.09-2.22-9.16a7.22,7.22,0,0,0-6.23-3.12q-4.36,0-10,4.05A61.8,61.8,0,0,0,623,219.57q2.67.18,5.43.18A120.3,120.3,0,0,0,641,219.13Z"/><path d="M788.53,197.81q4.77,5.92,4.76,17.49,0,6.76-2.93,10.06-3.83,4.35-11.79,6.8a64.56,64.56,0,0,1-18.92,2.45q-12,0-18.95-3c.17,3.32.26,6.28.26,8.9q0,5.25-4.8,8.63A32.18,32.18,0,0,1,724.63,254a57.1,57.1,0,0,1-12.5,1.52q-12.46,0-17.89-4.72t-5.43-14.06q0-3.3,2.05-15.13l2.22-14.33,9.08,2q-3.48,20.82-3.47,25.27,0,3.48,4,4.81a30,30,0,0,0,9.44,1.33,70.37,70.37,0,0,0,10.68-.71,27.25,27.25,0,0,0,8-2.4L727,204.35,738.38,202q.89,8.72,1.25,13.61l.18,2.14a12.71,12.71,0,0,0,3,.62,88.73,88.73,0,0,1,8-11.12,63.47,63.47,0,0,1,11.35-10.77q6.27-4.62,12.06-4.63Q783.78,191.89,788.53,197.81Zm-17.35,21.32a67.87,67.87,0,0,0,11.88-2.41c0-4-.74-7.09-2.23-9.16a7.21,7.21,0,0,0-6.23-3.12q-4.35,0-10,4.05a61.49,61.49,0,0,0-11.43,11.08c1.78.12,3.59.18,5.42.18A120.5,120.5,0,0,0,771.18,219.13Z"/><path d="M915.58,219.21a16.34,16.34,0,0,1-2.09,8.55,13.28,13.28,0,0,1-5.52,5.16,16.51,16.51,0,0,1-7.43,1.69q-8,0-10.59-5.61a9.17,9.17,0,0,1-4.58,4.41,15.86,15.86,0,0,1-11,.4,7.31,7.31,0,0,1-3.43-2.67q.27,5.34.27,9.35,0,5.25-4.81,8.63A32.06,32.06,0,0,1,854.84,254a57.12,57.12,0,0,1-12.51,1.52q-12.45,0-17.89-4.72T819,236.75q0-3.3,2-15.13l2.23-14.33,9.08,2q-3.48,20.82-3.48,25.27,0,3.48,4,4.81a29.88,29.88,0,0,0,9.43,1.33A70.18,70.18,0,0,0,853,240a27.06,27.06,0,0,0,8-2.4l-3.82-33.2L868.59,202l.44,4.63.8,8.18q.36,2.85,1.83,3.87c1,.69,2.63,1,4.94,1a22.5,22.5,0,0,0,7.12-1.07l-.8-16.2,10.23-.35.36,16.91a13.07,13.07,0,0,0,4.45.71,20.89,20.89,0,0,0,7.56-1.16l-2.22-20,11.39-2Q915.58,211.74,915.58,219.21Zm-37.47-40.85,8.55,6.86-6.86,8.54-8.54-6.85Zm6.77-15,8.45,6.86-6.85,8.54-8.55-6.85Zm7.38,15,8.55,6.86L894,193.76l-8.54-6.85Z"/><path d="M1037.87,219.21a16.25,16.25,0,0,1-2.1,8.55,13.2,13.2,0,0,1-5.51,5.16,16.54,16.54,0,0,1-7.43,1.69q-8,0-10.6-5.61a9.1,9.1,0,0,1-4.58,4.41,14.89,14.89,0,0,1-5.74,1.2,15.09,15.09,0,0,1-5.3-.8,7.33,7.33,0,0,1-3.42-2.67q.27,5.34.27,9.35,0,5.25-4.81,8.63A32.11,32.11,0,0,1,977.12,254a57.1,57.1,0,0,1-12.5,1.52q-12.47,0-17.89-4.72t-5.43-14.06q0-3.3,2.05-15.13l2.22-14.33,9.08,2q-3.46,20.82-3.47,25.27,0,3.48,4,4.81a30,30,0,0,0,9.44,1.33A70.37,70.37,0,0,0,975.3,240a27.25,27.25,0,0,0,8-2.4l-3.83-33.2L990.87,202l.45,4.63.8,8.18c.24,1.9.85,3.19,1.82,3.87s2.63,1,4.94,1a22.45,22.45,0,0,0,7.12-1.07l-.8-16.2,10.24-.35.35,16.91a13.11,13.11,0,0,0,4.45.71,21,21,0,0,0,7.57-1.16l-2.23-20,11.4-2Q1037.86,211.74,1037.87,219.21Z"/><path d="M1082.1,241.33a28.45,28.45,0,0,0,7.92-9.48l-3.74-27.14L1098,202.3q1.15,10.06,1.64,16t.49,10.42a29.28,29.28,0,0,1-6.31,18.51q-6.33,8.1-21.45,15.22l-7.84-11.3Q1076.57,245.83,1082.1,241.33Zm.8-63.5,8.54,6.85-6.85,8.55-8.55-6.86Zm6.76-15,8.46,6.85-6.86,8.55-8.54-6.86Zm7.39,15,8.54,6.85-6.85,8.55-8.54-6.86Z"/><path d="M528.44,367.81Q523,363.09,523,353.75q0-3.3,2-15.13l2.23-14.33,9.08,2q-3.48,20.82-3.47,25.27,0,3.48,4,4.81a30,30,0,0,0,9.44,1.33,72.24,72.24,0,0,0,13.83-1.11A21.58,21.58,0,0,0,569,353a7.62,7.62,0,0,0,.27-1.78,3.12,3.12,0,0,0-.67-2.05,2.54,2.54,0,0,0-1.83-.89,75.87,75.87,0,0,1-10.1-1.34,11.33,11.33,0,0,1-5.43-2.62,7.13,7.13,0,0,1-1.91-5.39,40.46,40.46,0,0,1,2.89-14.68,37.51,37.51,0,0,1,7.52-12.37q4.63-4.89,9.44-4.9a11.43,11.43,0,0,1,7,2.41q3.21,2.4,6.76,8.27l-6.32,6.68q-4-4-7.38-4c-2.38,0-4.39,1.18-6,3.52a24.07,24.07,0,0,0-3.65,9.39,58,58,0,0,1,10.81,2,11.35,11.35,0,0,1,6,4.67q2.31,3.48,2.31,10.51a18,18,0,0,1-4.4,12.37,26.16,26.16,0,0,1-11.75,7.38,51.79,51.79,0,0,1-16.24,2.41Q533.87,372.53,528.44,367.81Z"/><path d="M609.83,348.36q-4.23-3.69-4.23-10.19a20,20,0,0,1,2-8.85,55.57,55.57,0,0,1,6.85-10.19l-4-2.67,6.68-10.15q22.16,13.53,22.16,33.64a11.54,11.54,0,0,1-2.31,6.68,25.68,25.68,0,0,1-2.36,3,4.33,4.33,0,0,1-1.74,1.11q-4.09,1.33-12,1.34Q614.06,352.06,609.83,348.36Zm20.07-11.7a23.21,23.21,0,0,0-2.54-6.45,18.08,18.08,0,0,0-5.47-5.57,29,29,0,0,0-4.23,5.17c-1.28,1.95-1.91,3.47-1.91,4.54a2.23,2.23,0,0,0,1.37,2.22,12,12,0,0,0,4.59.62A49.07,49.07,0,0,0,629.9,336.66Z"/><path d="M688.5,319a22,22,0,0,1,5.65,9.39,41.15,41.15,0,0,1,2,13,39,39,0,0,1-6.59,22q-6.59,9.93-21.62,16l-7.75-11.3a55.54,55.54,0,0,0,14.47-7.52,39.21,39.21,0,0,0,9.56-9.48,58.53,58.53,0,0,1-7.12.44,40.33,40.33,0,0,1-5.87-.31,7.7,7.7,0,0,1-3.29-1.25,13,13,0,0,1-2.85-3,15.75,15.75,0,0,1-2-3.47,10.81,10.81,0,0,1-.49-3.65,37.55,37.55,0,0,1,1.87-12.06,20.2,20.2,0,0,1,5.69-8.94,13.84,13.84,0,0,1,9.53-3.38A12.44,12.44,0,0,1,688.5,319Zm-9.21,20.38a36.77,36.77,0,0,0,7-.54c0-3.67-.68-6.45-2.05-8.32a6.39,6.39,0,0,0-5.43-2.8,5.63,5.63,0,0,0-4.89,2.89c-1.25,1.93-1.87,4.64-1.87,8.15A50.68,50.68,0,0,0,679.29,339.42Z"/><path d="M727.35,367.81q-5.43-4.72-5.43-14.06,0-3.3,2.05-15.13l2.22-14.33,9.08,2q-3.46,20.82-3.47,25.27,0,3.48,4,4.81a30,30,0,0,0,9.44,1.33,70.37,70.37,0,0,0,10.68-.71,27.25,27.25,0,0,0,8-2.4l-3.83-33.2L771.49,319q2.58,25.82,2.58,38.45,0,5.25-4.8,8.63A32.18,32.18,0,0,1,757.74,371a57.1,57.1,0,0,1-12.5,1.52Q732.77,372.53,727.35,367.81Zm18.07-68.35,10,8-7.65,9.25-10-8Z"/><path d="M799.44,351.26q0-10.51,2.22-15.67,5-11.56,10.24-16.73t11.66-5.16a11.16,11.16,0,0,1,7.69,2.89,18.35,18.35,0,0,1,5,7.88A33.57,33.57,0,0,1,838,335.59a38.72,38.72,0,0,1-1.33,10.06,6.75,6.75,0,0,1-1.29,2.49,19.15,19.15,0,0,1-3.16,2.85q-3.12,2.31-5,2.31a5.06,5.06,0,0,1-1.87-.44l-15.49-7.39a76.72,76.72,0,0,0,1.25,9.66q1,5.21,3,14.28c.36,1.31.83,3.32,1.43,6l-13.27,4.72A176.8,176.8,0,0,1,799.44,351.26Zm28.3-16.74a12.12,12.12,0,0,0-1.43-6.23,4.64,4.64,0,0,0-4.27-2.4,5.47,5.47,0,0,0-4,1.6,32.83,32.83,0,0,0-4.23,5.79L827,339.33A13.38,13.38,0,0,0,827.74,334.52Z"/><path d="M868.23,367.81q-5.43-4.72-5.43-14.06,0-3.3,2.05-15.13l2.23-14.33,9.07,2q-3.46,20.82-3.47,25.27,0,3.48,4,4.81a29.88,29.88,0,0,0,9.43,1.33,68.4,68.4,0,0,0,10.59-.71,27,27,0,0,0,7.92-2.4l-2.93-68.89,11.74-2,1.34,73.79q.09,5.25-4.67,8.63A31.73,31.73,0,0,1,898.58,371a57.33,57.33,0,0,1-12.46,1.52Q873.66,372.53,868.23,367.81Z"/><path d="M1003.6,320.33a39.3,39.3,0,0,1,4,16.86,11,11,0,0,1-3.83,8.73q-3.82,3.29-11.57,4.71a114.36,114.36,0,0,1-20,1.43,78.07,78.07,0,0,1-16.73-1.52,20,20,0,0,1-10.63-5.65Q941,340.75,941,333.37a47,47,0,0,1,.71-6.41q.71-4.54,2.22-13.35l9.08,2q-2.13,12.1-2.14,15.13a4.83,4.83,0,0,0,1.78,4.05c1.19.92,3.22,1.55,6.1,1.91a112,112,0,0,0,12.77.53q16.47,0,25.81-2-.79-6.86-6.67-14.24a58.22,58.22,0,0,0-15.49-13.26l.45-11.93q7.83-3.64,15.71-6.5t17.13-5.52l1.6,12.2a166.74,166.74,0,0,0-21,6.76,21.1,21.1,0,0,1,2.22,1.78A49.56,49.56,0,0,1,1003.6,320.33Zm-9.25-37.07q-11.22,4.1-18.43,7.3l.45-8.81q6.5-3.12,17.17-7.3Z"/><path d="M1096.07,320.33a39.3,39.3,0,0,1,4,16.86,11,11,0,0,1-3.83,8.73q-3.82,3.29-11.57,4.71a114.36,114.36,0,0,1-20,1.43,78.07,78.07,0,0,1-16.73-1.52,20,20,0,0,1-10.63-5.65q-3.87-4.14-3.87-11.52a47,47,0,0,1,.71-6.41q.7-4.54,2.22-13.35l9.08,2q-2.13,12.1-2.14,15.13a4.83,4.83,0,0,0,1.78,4.05c1.19.92,3.22,1.55,6.1,1.91a112,112,0,0,0,12.77.53q16.47,0,25.81-2-.8-6.86-6.67-14.24a58.22,58.22,0,0,0-15.49-13.26l.45-11.93q7.83-3.64,15.71-6.5t17.13-5.52l1.6,12.2a166.74,166.74,0,0,0-21,6.76,21.1,21.1,0,0,1,2.22,1.78A49.56,49.56,0,0,1,1096.07,320.33Z"/><path d="M650.23,461.14a17.4,17.4,0,0,1-6.63-6.64,19.48,19.48,0,0,1,0-18.77,17.65,17.65,0,0,1,6.63-6.68,19.22,19.22,0,0,1,18.78,0,18,18,0,0,1,6.67,6.68,19.2,19.2,0,0,1,0,18.77,17.79,17.79,0,0,1-6.67,6.64,19.57,19.57,0,0,1-18.78,0ZM665,450.37a7.6,7.6,0,0,0,0-10.55,7.87,7.87,0,0,0-10.68,0,7.57,7.57,0,0,0,0,10.55,7.76,7.76,0,0,0,10.68,0Z"/><path d="M695.71,434.75q1.11,15.79,1.11,33.86l-9.35.8a286.84,286.84,0,0,0-1.69-31.59q-1.68-15.31-5.16-32.13l11.3-2.32Q694.59,419,695.71,434.75Z"/><path d="M740.83,432.88q-5,4-13.13,4.05a15.82,15.82,0,0,1-8-2.14q1.06,14.68,1.07,33.82l-9.35.8a286.84,286.84,0,0,0-1.69-31.59q-1.68-15.31-5.16-32.13l11.3-2.32q1.25,6.86,2.5,14a5.06,5.06,0,0,0,2,3.69q1.61,1,5.79,1c4.21,0,7.39-.53,9.52-1.6l-2.05-16.28,11-1.7.89,18.61Q745.86,428.83,740.83,432.88Z"/><path d="M808.83,429.36a14.66,14.66,0,0,1-6,5.61,17.31,17.31,0,0,1-8.05,2q-7.57,0-10.42-3.12-3.28,3.12-10.76,3.12a10.49,10.49,0,0,1-6-1.87q1.08,14.6,1.07,33.55l-9.34.8a289.32,289.32,0,0,0-1.69-31.59q-1.69-15.31-5.17-32.13l11.31-2.32q1.06,5.61,2.49,14a6.76,6.76,0,0,0,1.51,3.65,4.92,4.92,0,0,0,3.56,1.06,21.58,21.58,0,0,0,7.48-1.15l-.71-15.13,10.23-.8.36,16.55a18.53,18.53,0,0,0,5,.53,16.09,16.09,0,0,0,7.3-1.6l-2.14-16.28,11-1.7.89,18.61A14.68,14.68,0,0,1,808.83,429.36Z"/><path d="M852.44,441.6a64.22,64.22,0,0,1-11.71.93,18.44,18.44,0,0,1-7.47-1.51q.71,11.75.71,27.59l-9.35.8a251.74,251.74,0,0,0-6.85-60.25l11.3-2.4q1.88,9.6,2.94,19.67a11.24,11.24,0,0,0,3.2,1.06,24.15,24.15,0,0,0,3.92.27,16.46,16.46,0,0,1-1.65-4.54,29.89,29.89,0,0,1-.49-5.78q0-7,4.9-10.95t12.64-3.92a44.57,44.57,0,0,1,10,1.69L861.74,416a43.09,43.09,0,0,0-8.37-.89,21,21,0,0,0-6.14.8,27.85,27.85,0,0,0,2.49,11.4A95.74,95.74,0,0,0,869,423.76l.45,13.61Q857.38,440.67,852.44,441.6Z"/><path d="M912.15,428q7.17,12.63,7.17,24,0,8.54-3.92,12.55a12.8,12.8,0,0,1-9.52,4,16.85,16.85,0,0,1-6.59-1.16,9.57,9.57,0,0,1-4.54-4.18q-3.82,5.34-12.28,5.34a11.14,11.14,0,0,1-9.52-5,20.61,20.61,0,0,1-3.56-12.28q0-6.94,4.58-15a159.8,159.8,0,0,1,14.2-20c-1.37-1.37-2.85-2.7-4.45-4l7.47-9.79Q905,415.4,912.15,428Zm-3,23.85a37.74,37.74,0,0,0-3.51-14.29,42.25,42.25,0,0,0-10.73-14.46q-8.71,11.13-12.06,16.42t-3.33,8.95a5,5,0,0,0,1.46,4,5.52,5.52,0,0,0,3.7,1.25,12.57,12.57,0,0,0,5.69-1.34l-.09-5.87,8.73-.45.09,7a12.73,12.73,0,0,0,4.89.71A7.53,7.53,0,0,0,909.17,451.88Z"/><path d="M965.69,438.17a88.05,88.05,0,0,0-14.6,7.48,55.37,55.37,0,0,0-11,9.52A95.06,95.06,0,0,0,930,469.41l-7.83-7.12q8.36-15,16.19-22.87-11-5-11-18.51a17.8,17.8,0,0,1,2.27-9,16.28,16.28,0,0,1,6.36-6.23,19.15,19.15,0,0,1,9.43-2.27,33.57,33.57,0,0,1,11,2.41l-2.67,10.59c-2.14-.36-3.77-.59-4.89-.71a35.65,35.65,0,0,0-3.74-.18,16.4,16.4,0,0,0-4.63.71,11.14,11.14,0,0,0-3.74,1.78q0,5.7,3.07,9t10.82,3.43l.17-.09,11.31-5.07Z"/><path d="M1016.33,412a102.53,102.53,0,0,0-10.77,18.33,144,144,0,0,0-7.74,20.12q-2.85,9.6-2.85,14.86v3.29l-9.53.8v-4.54a62.93,62.93,0,0,0-2.09-14.19,114.56,114.56,0,0,0-6.67-19.09,121,121,0,0,0-11.53-20.38l9-8.64a98.12,98.12,0,0,1,9.7,18.43,104.13,104.13,0,0,1,6.68,22.07.37.37,0,0,0,.09.27v-.27A76.4,76.4,0,0,1,997,421.22a92.88,92.88,0,0,1,10.81-18.65Z"/><path d="M1043.87,421.31a116.26,116.26,0,0,0,6.68,19.13,119.45,119.45,0,0,0,11.52,20.43l-9,8.54a100,100,0,0,1-9.74-18.42,103,103,0,0,1-6.72-22,79.22,79.22,0,0,1-6.45,21.89,89.9,89.9,0,0,1-10.73,18.51L1010.9,460a103.48,103.48,0,0,0,10.77-18.34,146.39,146.39,0,0,0,7.74-20.11q2.85-9.61,2.85-14.86v-3.3l9.52-.8v4.54A63.59,63.59,0,0,0,1043.87,421.31Z"/><path d="M1097.9,448.23a146.07,146.07,0,0,0,3.16,17.62l-11,3.56a101.1,101.1,0,0,1-2.49-12.28,84.7,84.7,0,0,1-.89-11.93v-2.13a35.77,35.77,0,0,1-9.44,1.42,34.43,34.43,0,0,1-9.61-1,10.36,10.36,0,0,1-5.43-4,12.57,12.57,0,0,1-2.31-7.21,54,54,0,0,1,1.82-14.15,26.09,26.09,0,0,1,5.92-11.17,13.69,13.69,0,0,1,10.5-4.41,15.75,15.75,0,0,1,10.24,3.47,21,21,0,0,1,6.41,9.39,39.12,39.12,0,0,1,2.13,13.31A174.55,174.55,0,0,0,1097.9,448.23Zm-25.37-18.87a46.71,46.71,0,0,0,5.12.27q2.76,0,5.52-.27a18.25,18.25,0,0,0,4-.71,17.88,17.88,0,0,0-1.25-7,11.08,11.08,0,0,0-3.29-4.58,7.05,7.05,0,0,0-4.45-1.6,6.89,6.89,0,0,0-4.36,1.64,11.47,11.47,0,0,0-3.29,4.68,17.83,17.83,0,0,0-1.25,6.85A10,10,0,0,0,1072.53,429.36Z"/><path d="M87.45,542.71,81,550.46l-9-6.5,5.16-8.46-8.63-3.73,3.2-10.33L81,523.67l.89-9.79H92.7l.8,9.79,9.43-2.23,3.47,10.33-8.9,3.65,5.08,8.54-8.72,6.5Z"/><path d="M117.08,585.52l2.23-18.6h-7.39v-8.45h8.37L121.71,547h-7.83v-8.64h9l2-16.46h7.74l-2,16.46h10.77l2.14-16.46h7.65l-2,16.46h7.66V547h-8.73l-1.42,11.48h8.19v8.45h-9.17l-2.31,18.6h-7.83l2.31-18.6H127.14l-2.22,18.6Zm11-27h10.59L140.22,547H129.45Z"/><path d="M186.1,599.27a31.79,31.79,0,0,1-11.52-6.81,32.38,32.38,0,0,1-8.24-11.65,40.39,40.39,0,0,1-2.89-15.76,47.82,47.82,0,0,1,3.43-18.33,43.58,43.58,0,0,1,9.57-14.51A41.44,41.44,0,0,1,190.33,523a44.55,44.55,0,0,1,16.82-3.2,39.1,39.1,0,0,1,14.11,2.45,30.36,30.36,0,0,1,10.9,7.07,31.76,31.76,0,0,1,6.9,11.08,39.89,39.89,0,0,1,2.36,13.93,31.94,31.94,0,0,1-1.92,11.39,24.37,24.37,0,0,1-5.29,8.55,22.12,22.12,0,0,1-7,5,18.81,18.81,0,0,1-7.7,1.73,13.12,13.12,0,0,1-7.3-2,8.22,8.22,0,0,1-3.73-5.51h-.27a17.07,17.07,0,0,1-5.52,4.71,13.27,13.27,0,0,1-6.32,1.78,11.61,11.61,0,0,1-9.21-3.91q-3.43-3.91-3.43-10.59a26.67,26.67,0,0,1,1.47-8.73,25.86,25.86,0,0,1,4-7.56,22,22,0,0,1,6.45-5.43,16,16,0,0,1,7.7-2q5,0,7.39,4.9h.27l1.33-4.19h8.28l-4.36,21.28a15.76,15.76,0,0,0-.54,3.82q0,5.16,5.17,5.16a8.33,8.33,0,0,0,4.4-1.33,13.74,13.74,0,0,0,3.87-3.65q3.74-5,3.74-13.17a34,34,0,0,0-1.56-10.46,22.8,22.8,0,0,0-4.76-8.41q-7.2-7.92-20.65-7.92a31.26,31.26,0,0,0-12.41,2.62A32.8,32.8,0,0,0,182.85,538a34.83,34.83,0,0,0-7.65,11.7,39.33,39.33,0,0,0-2.76,14.91,32.47,32.47,0,0,0,2.27,12.5,25.41,25.41,0,0,0,6.36,9.21,26.42,26.42,0,0,0,9.08,5.39,33,33,0,0,0,11,1.82,30,30,0,0,0,7.83-1.07,31.78,31.78,0,0,0,7.21-2.84l2.94,7.29a38.8,38.8,0,0,1-19,4.63A43.07,43.07,0,0,1,186.1,599.27Zm16.47-28.57a17.07,17.07,0,0,0,3.6-3.6l2.49-13.62a5.44,5.44,0,0,0-4.89-3.11,6.92,6.92,0,0,0-4.1,1.33,11.47,11.47,0,0,0-3.2,3.65,18.46,18.46,0,0,0-2,4.59,18.07,18.07,0,0,0-.71,4.85q0,7,5.43,7A5.86,5.86,0,0,0,202.57,570.7Z"/><path d="M258.81,584.41a17.75,17.75,0,0,1-7.43-6.36,17.06,17.06,0,0,1-2.67-9.53,16.76,16.76,0,0,1,3-10,32.67,32.67,0,0,1,8.81-8.1q-4.1-7.92-4.09-13.53a16.43,16.43,0,0,1,2.18-8.46,15.2,15.2,0,0,1,6.09-5.83,18.28,18.28,0,0,1,8.73-2.09q7,0,11.08,3.78t4,10.28a14,14,0,0,1-1.69,6.9,21.38,21.38,0,0,1-4.49,5.61,81.09,81.09,0,0,1-7.34,5.74,75,75,0,0,0,13.44,12.82,43.67,43.67,0,0,0,7.65-15.94h12.19a68.63,68.63,0,0,1-10.68,21.72q6.76,3.64,11.13,4.36l-3.21,10.86a55.94,55.94,0,0,1-16-6.68,33.15,33.15,0,0,1-19.93,6.68A24.91,24.91,0,0,1,258.81,584.41ZM280,573.51a90.69,90.69,0,0,1-13.71-14.33,19.49,19.49,0,0,0-3.78,4.14,8,8,0,0,0-1.29,4.4,8.08,8.08,0,0,0,2.81,6.37,10.74,10.74,0,0,0,7.34,2.44A15.74,15.74,0,0,0,280,573.51Zm-10.23-28.3a32.37,32.37,0,0,0,6.45-5,7.84,7.84,0,0,0,2.18-5.48,6,6,0,0,0-1.2-4,4.35,4.35,0,0,0-3.52-1.43,5.68,5.68,0,0,0-4.45,2.05,8.12,8.12,0,0,0-1.78,5.52A19.83,19.83,0,0,0,269.81,545.21Z"/><path d="M340.61,518.46a14.93,14.93,0,0,1,5.42,5.43,14.58,14.58,0,0,1,2,7.52,14.88,14.88,0,0,1-15,15,14.41,14.41,0,0,1-7.47-2,15.23,15.23,0,0,1-5.43-5.47,15.07,15.07,0,0,1-.05-15.09,15,15,0,0,1,5.43-5.43,15.16,15.16,0,0,1,15.05,0Zm-12.2,8.37a6.25,6.25,0,0,0-1.91,4.58,6.59,6.59,0,1,0,13.17,0,6.25,6.25,0,0,0-1.91-4.58,6.65,6.65,0,0,0-9.35,0Zm10.46,62.52-11.21-4.9,39.78-69.59,11,4.89Zm26-1.74a14.93,14.93,0,0,1-5.43-5.42,14.73,14.73,0,0,1-2-7.53,15,15,0,0,1,7.43-13,14.61,14.61,0,0,1,7.52-2,14.23,14.23,0,0,1,7.48,2,15.88,15.88,0,0,1,5.43,5.47,14.48,14.48,0,0,1,2.05,7.52,15,15,0,0,1-22.48,13Zm12.19-8.32a6.19,6.19,0,0,0,1.92-4.63A6.64,6.64,0,0,0,367.75,570a6.29,6.29,0,0,0-1.91,4.71,6.19,6.19,0,0,0,1.91,4.63,6.77,6.77,0,0,0,9.34,0Z"/><path d="M405.62,601.81q-5.43-4.72-5.43-14.06,0-3.3,2.05-15.13l2.22-14.33,9.08,2q-3.46,20.82-3.47,25.27,0,3.48,4,4.81a30,30,0,0,0,9.44,1.33A68.58,68.58,0,0,0,434.1,591a27.1,27.1,0,0,0,7.92-2.4l-2.94-68.89,11.75-2,1.34,73.79c.05,3.5-1.5,6.37-4.68,8.63A31.61,31.61,0,0,1,436,605a57.4,57.4,0,0,1-12.46,1.52Q411,606.53,405.62,601.81Z"/><path d="M487.63,571.82a12.19,12.19,0,0,1,.22,2.49v7.74a12.11,12.11,0,0,1-.22,2.54c-.15.68-.34,1-.58,1h-2.76a24,24,0,0,1-10.5-2,12.61,12.61,0,0,1-6.05-6.72c-1.36-3.17-2.17-7.64-2.4-13.39l-1.69-43.88,11.74-2,.09,45.66a8,8,0,0,0,1.92,5.39,6.92,6.92,0,0,0,5.38,2h4.27C487.29,570.75,487.48,571.1,487.63,571.82Z"/><path d="M487.68,596.29l8.9,7.21-7.21,8.9-8.9-7.21ZM521.85,570a15.86,15.86,0,0,1-1.29,6.36,11.21,11.21,0,0,1-4.23,4.94q-3.29,2.22-9.7,3.25a136.33,136.33,0,0,1-19.58,1c-.23,0-.43-.34-.58-1a12.82,12.82,0,0,1-.22-2.54v-7.74a12.94,12.94,0,0,1,.22-2.49c.15-.72.35-1.07.58-1.07q11.13,0,16.42-.4a25.17,25.17,0,0,0,8.24-1.74l-2-19,11.3-2Q521.84,561.32,521.85,570Zm-19.31,26.25,8.9,7.21-7.21,8.9-8.9-7.21Z"/><path d="M534.76,592.33a28.57,28.57,0,0,0,7.92-9.48l-3.74-27.14,11.75-2.41q1.15,10.07,1.64,16t.49,10.42a29.24,29.24,0,0,1-6.32,18.51q-6.32,8.1-21.44,15.22l-7.84-11.3Q529.24,596.83,534.76,592.33Z"/><path d="M569.82,582.67l-6.58-6.58,12-12.11-12-12.1,6.67-6.59,12,12,12.11-12,6.67,6.59-12,12.1,12,12.11L594,582.67l-12.11-12Z"/><path d="M653.12,568.7H609.6v-9.43h43.52Zm-26.47-15.17a6.76,6.76,0,0,1-2.09-5.12,7.14,7.14,0,0,1,12.19-5,7,7,0,0,1,2,5,6.81,6.81,0,0,1-2.09,5.07,6.94,6.94,0,0,1-5,2A7,7,0,0,1,626.65,553.53Zm0,30.84a6.81,6.81,0,0,1-2.09-5.08,7.12,7.12,0,1,1,12.15,5.08,7.22,7.22,0,0,1-10.06,0Z"/><path d="M698.25,560.87H662v-9.52h36.23Zm0,17.18H662v-9.44h36.23Z"/><path d="M711.78,584.41a8.68,8.68,0,0,1,0-12.19,8.31,8.31,0,0,1,6.05-2.45,8.19,8.19,0,0,1,6.09,2.49,8.32,8.32,0,0,1,2.45,6,8.2,8.2,0,0,1-2.49,6.1,8.69,8.69,0,0,1-12.1,0Zm10.94-66.79.09,44.14-9.88,1.51-1.87-43.52Z"/><path d="M743.55,581.07A76.91,76.91,0,0,1,740.17,558a78.19,78.19,0,0,1,3.33-23,88.1,88.1,0,0,1,9.93-21.27l8.81,4.54a77.67,77.67,0,0,0,0,79.48l-8.81,4.45A87.92,87.92,0,0,1,743.55,581.07Z"/><path d="M780,578.62a81.15,81.15,0,0,0,0-41.29,71,71,0,0,0-8.19-19.09l8.72-4.54a89.81,89.81,0,0,1,10,21.27,80.29,80.29,0,0,1,0,46.1,86.77,86.77,0,0,1-10,21.1l-8.72-4.45A71,71,0,0,0,780,578.62Z"/><path d="M825.34,599.94H805.22v-7h10.24v-70H805.22v-7.12h20.12Z"/><path d="M862.36,599.94H842.25V515.75h20.11v7.12H852.12v70h10.24Z"/><path d="M879.94,596.87q-2.9-3.07-2.9-10.64c0-2.13.18-5.16.54-9.07.06-.66.15-1.83.26-3.52s.18-3.19.18-4.49a6.66,6.66,0,0,0-2.18-5.3,9.93,9.93,0,0,0-6.27-2.09v-7.83a9.35,9.35,0,0,0,6.23-2.09,6.8,6.8,0,0,0,2.22-5.3c0-1.54-.06-3.14-.18-4.81s-.2-2.81-.26-3.47c-.36-3.56-.54-6.46-.54-8.72q0-7.65,2.9-10.72t9.48-3.07h5.87v7.12h-2c-2.08,0-3.5.49-4.27,1.46s-1.16,2.9-1.16,5.75l.18,7.38q.27,5.16.27,8.9,0,5.34-1.65,7.88a8.48,8.48,0,0,1-5.47,3.43v.44a8.51,8.51,0,0,1,5.47,3.38q1.65,2.49,1.65,7.92,0,3.48-.27,8.46l-.18,7.83q0,4.18,1.16,5.7c.77,1,2.19,1.51,4.27,1.51h2v7h-5.87Q882.82,599.94,879.94,596.87Z"/><path d="M903.57,592.91h1.95c2.08,0,3.5-.51,4.27-1.51s1.16-2.91,1.16-5.7l-.18-7.83-.17-8.46c0-3.56.54-6.18,1.64-7.87a8.38,8.38,0,0,1,5.39-3.43v-.44a8.42,8.42,0,0,1-5.39-3.43c-1.1-1.69-1.64-4.32-1.64-7.88l.17-8.9.18-7.38c0-2.85-.38-4.77-1.16-5.75s-2.19-1.46-4.27-1.46h-1.95v-7.12h5.78q6.58,0,9.48,3.07t2.89,10.72c0,2.26-.18,5.16-.53,8.72-.06.66-.15,1.81-.27,3.47s-.18,3.27-.18,4.81a6.77,6.77,0,0,0,2.23,5.3,9.47,9.47,0,0,0,6.32,2.09v7.83a10.13,10.13,0,0,0-6.37,2.09,6.7,6.7,0,0,0-2.18,5.3c0,1.36.06,2.87.18,4.54s.21,2.84.27,3.56c.35,3.79.53,6.79.53,9q0,7.49-2.89,10.6t-9.48,3.11h-5.78Z"/><path d="M942.77,584.41a8.48,8.48,0,0,1-2.63-6.36,8.67,8.67,0,0,1,2.54-6.32,8.55,8.55,0,0,1,6.36-2.58,8.45,8.45,0,0,1,6.28,2.58,9.16,9.16,0,0,1,0,12.64A8.45,8.45,0,0,1,949,587,8.72,8.72,0,0,1,942.77,584.41Z"/><path d="M986.29,572.66a8.08,8.08,0,0,1,2.45,5.92,7.84,7.84,0,0,1-2.45,5.79,8.82,8.82,0,0,1-12.42-.32,11.09,11.09,0,0,1-2.22-7.25A29,29,0,0,1,974,566.12a38.69,38.69,0,0,1,6.14-10.41l5.7,5.87a27.61,27.61,0,0,0-5.7,8.63h.36A8,8,0,0,1,986.29,572.66Z"/><path d="M1005.47,559a8.75,8.75,0,0,1,6.23-15,8.19,8.19,0,0,1,6.18,2.54,9,9,0,0,1-.08,12.46,8.34,8.34,0,0,1-6.1,2.53A8.57,8.57,0,0,1,1005.47,559Zm0,25.49a8.29,8.29,0,0,1-2.58-6.23,8.66,8.66,0,0,1,8.81-8.81,8.23,8.23,0,0,1,6.18,2.54,8.64,8.64,0,0,1,2.45,6.27,8.59,8.59,0,0,1-8.63,8.73A8.66,8.66,0,0,1,1005.47,584.45Z"/><path d="M1047.61,547.92a8.06,8.06,0,0,1,2.45,5.92,7.82,7.82,0,0,1-2.45,5.78,8.8,8.8,0,0,1-12.42-.31,11.11,11.11,0,0,1-2.22-7.25,29,29,0,0,1,2.31-10.68,39,39,0,0,1,6.14-10.41l5.7,5.87a27.5,27.5,0,0,0-5.7,8.63h.36A8,8,0,0,1,1047.61,547.92ZM1036,584.41a8.47,8.47,0,0,1-2.62-6.36,8.66,8.66,0,0,1,2.53-6.32,8.55,8.55,0,0,1,6.37-2.58,8.44,8.44,0,0,1,6.27,2.58,9.13,9.13,0,0,1,0,12.64,8.44,8.44,0,0,1-6.27,2.58A8.72,8.72,0,0,1,1036,584.41Z"/><path d="M1090.46,533.81a7.78,7.78,0,0,0-2.44-6,9.8,9.8,0,0,0-6.81-2.22,9,9,0,0,0-6.5,2.22,7.68,7.68,0,0,0-2.31,5.79,8.22,8.22,0,0,0,1.2,4.31,17.8,17.8,0,0,0,2.89,3.65c1.13,1.1,3,2.84,5.79,5.21a25.28,25.28,0,0,1,4.62,5.12,12.69,12.69,0,0,1,1.83,4.54,38.08,38.08,0,0,1,.4,6.18L1080,564a35.12,35.12,0,0,0-.36-4.58,7.61,7.61,0,0,0-1.29-3.07,29.94,29.94,0,0,0-3.51-4,37.16,37.16,0,0,0-3.29-2.94,60.59,60.59,0,0,1-4.77-4.59,16.64,16.64,0,0,1-3.07-5.16,20.74,20.74,0,0,1-1.24-7.61,18,18,0,0,1,9.21-15.79,19,19,0,0,1,9.57-2.45q8.54,0,13.44,4.67t4.89,12.68a32.83,32.83,0,0,1-.44,4.81l-8.9.18A11.6,11.6,0,0,0,1090.46,533.81Zm-12.41,50.6a8.48,8.48,0,0,1-2.63-6.36,8.81,8.81,0,0,1,9-9,8.4,8.4,0,0,1,6.28,2.62,8.82,8.82,0,0,1,2.53,6.37,8.67,8.67,0,0,1-2.53,6.32,8.48,8.48,0,0,1-6.28,2.58A8.82,8.82,0,0,1,1078.05,584.41Z"/></g></svg>