<svg xmlns="http://www.w3.org/2000/svg" viewBox="0 0 1152 648"><defs><style>.cls-1{fill:#a3a3a3;}.cls-2{fill:none;}</style></defs><g id="Layer_1" data-name="Layer 1"><path class="cls-1" d="M164,111H116a3,3,0,0,1,0-6h48a3,3,0,0,1,0,6Z"/><path class="cls-1" d="M164,129H116a3,3,0,0,1,0-6h48a3,3,0,0,1,0,6Z"/><path class="cls-1" d="M164,93H116a3,3,0,0,1,0-6h48a3,3,0,0,1,0,6Z"/><rect class="cls-2" x="103.99" y="72" width="72" height="72"/><path d="M298.39,130.67a9,9,0,0,1-9-9V94.34a9,9,0,0,1,13.47-7.82l23.91,13.67a9,9,0,0,1,0,15.62l-23.91,13.66A9,9,0,0,1,298.39,130.67Z"/><rect class="cls-2" x="274.39" y="72" width="72" height="72"/><path d="M471.8,138V109.24l-12-12V90a9,9,0,0,1,9-9h24a9,9,0,0,1,9,9v7.24l-12,12v18.5Z"/><rect class="cls-2" x="444.8" y="72" width="72" height="72"/><rect class="cls-2" x="805.61" y="504" width="72" height="72"/><path d="M841.61,513a21,21,0,0,0-21,21v12l21,21,21-21V534A21,21,0,0,0,841.61,513Zm0,27a6,6,0,1,1,6-6A6,6,0,0,1,841.61,540Z"/><path d="M859.61,99a8.94,8.94,0,0,0-6.23,2.53L832.5,91.09a9.81,9.81,0,0,0,.11-1.09,9,9,0,1,0-2.77,6.47l20.88,10.44a5.46,5.46,0,0,0,0,2.18l-20.88,10.44a9,9,0,1,0,2.77,6.47,9.81,9.81,0,0,0-.11-1.09l20.88-10.44A9,9,0,1,0,859.61,99Z"/><rect class="cls-2" x="805.61" y="72" width="72" height="72"/><path d="M820.61,423V381a12,12,0,0,1,12-12h18a12,12,0,0,1,12,12v42l-21-9Z"/><rect class="cls-2" x="805.61" y="360" width="72" height="72"/><path class="cls-1" d="M134,414a24,24,0,1,1,24-24A24,24,0,0,1,134,414Zm0-42a18,18,0,1,0,18,18A18,18,0,0,0,134,372Z"/><path class="cls-1" d="M167,426a3,3,0,0,1-2.12-.88l-9-9a3,3,0,0,1,4.24-4.24l9,9a3,3,0,0,1,0,4.24A3,3,0,0,1,167,426Z"/><rect class="cls-2" x="103.99" y="360" width="72" height="72"/><path d="M334.36,369H286.43l-6,14.4v.6a12,12,0,0,0,6,10.33V423h48V394.33a12,12,0,0,0,6-10.33v-.6Zm-6,36h-36v-9a11.91,11.91,0,0,0,9-4.15,11.83,11.83,0,0,0,18,0,11.94,11.94,0,0,0,9,4.15Z"/><rect class="cls-2" x="274.39" y="360" width="72" height="72"/><path d="M512.92,398.13,504.8,390h0l-24-24-24,24h0l-8.12,8.12a3,3,0,0,0,4.24,4.24l3.88-3.88V414a9,9,0,0,0,9,9h30a9,9,0,0,0,9-9V398.49l3.88,3.88a3,3,0,0,0,4.24,0A3,3,0,0,0,512.92,398.13Z"/><rect class="cls-2" x="444.8" y="360" width="72" height="72"/><rect class="cls-2" x="635.2" y="360" width="72" height="72"/><path d="M693,378.12l-4.9-13.47L646.87,378.7a9,9,0,0,0-5.67,8.35v27a9,9,0,0,0,9,9h42a9,9,0,0,0,9-9v-27A9,9,0,0,0,693,378.12Zm-8.53-5.89,2.12,5.82H667.38ZM684.7,405a4.5,4.5,0,1,1,4.5-4.5A4.5,4.5,0,0,1,684.7,405Z"/><path d="M322.39,516a15,15,0,0,0-12,6,15,15,0,0,0-27,9,15.14,15.14,0,0,0,4.4,10.61l22.6,22.6L333,541.61A15,15,0,0,0,322.39,516Z"/><rect class="cls-2" x="274.39" y="504" width="72" height="72"/><path d="M489.8,567h-24a12,12,0,0,1-12-12V531a12,12,0,0,1,12-12h9a3,3,0,0,1,0,6h-9a6,6,0,0,0-6,6v24a6,6,0,0,0,6,6h24a6,6,0,0,0,6-6v-9a3,3,0,0,1,6,0v9A12,12,0,0,1,489.8,567Z"/><path d="M477.8,555h-12V543l30.39-30.46a8.49,8.49,0,0,1,12,12Z"/><rect class="cls-2" x="444.8" y="504" width="72" height="72"/><rect class="cls-2" x="635.2" y="504" width="72" height="72"/><path d="M1042,426l-15.8-9H1009a14.91,14.91,0,0,1-10.61-4.39,3,3,0,0,1,4.25-4.25A8.87,8.87,0,0,0,1009,411h18.79l8.21,4.69V396a8.93,8.93,0,0,0-2.64-6.36,3,3,0,1,1,4.24-4.25A14.88,14.88,0,0,1,1042,396Z"/><path d="M982,414V378a9,9,0,0,1,9-9h30a9,9,0,0,1,9,9v18a9,9,0,0,1-9,9H997.8Z"/><rect class="cls-2" x="976.01" y="360" width="72" height="72"/><path d="M1009,558l-12-6.93L985,558V537a9,9,0,0,1,9-9h6a9,9,0,0,1,9,9Z"/><path d="M1027,567h-24a9,9,0,0,1-9-9,3,3,0,0,1,6,0,3,3,0,0,0,3,3h24a3,3,0,0,0,3-3V527.49l-8.49-8.49H1003a3,3,0,0,0-3,3,3,3,0,0,1-6,0,9,9,0,0,1,9-9h21l12,12v33A9,9,0,0,1,1027,567Z"/><rect class="cls-2" x="976.01" y="504" width="72" height="72"/><path d="M1012,273.27a33.1,33.1,0,0,1-28.55-16.5l-.87-1.5.87-1.51a33,33,0,0,1,57.1,0l.87,1.51-.87,1.5A33.12,33.12,0,0,1,1012,273.27Zm0-27a9,9,0,1,0,9,9A9,9,0,0,0,1012,246.27Z"/><rect class="cls-2" x="976.01" y="219.27" width="72" height="72"/><rect class="cls-2" x="103.99" y="504" width="72" height="72"/><polygon points="698.2 87 644.26 87 671.2 109.23 698.2 87"/><path d="M644.2,94.77V120a9,9,0,0,0,9,9h36a9,9,0,0,0,9-9V94.74L671.2,117Z"/><rect class="cls-2" x="635.2" y="72" width="72" height="72"/><rect class="cls-2" x="635.2" y="72" width="72" height="72"/><rect class="cls-2" x="635.2" y="72" width="72" height="72"/><rect class="cls-2" x="635.2" y="72" width="72" height="72"/><rect class="cls-2" x="635.2" y="72" width="72" height="72"/><path d="M1030,81H994a9,9,0,0,0-9,9v36a9,9,0,0,0,9,9h36a9,9,0,0,0,9-9V90A9,9,0,0,0,1030,81Zm-3.88,20.12L1006,121.24l-8-8a3,3,0,0,1,4.24-4.25l3.79,3.79,15.88-15.88a3,3,0,0,1,4.24,4.24Z"/><rect class="cls-2" x="976.01" y="72" width="72" height="72"/><path d="M853.61,237.27a12,12,0,0,0-24,0h-12v33a12,12,0,0,0,12,12h24a12,12,0,0,0,12-12v-33Zm-12-6a6,6,0,0,1,6,6h-12A6,6,0,0,1,841.61,231.27Zm18,39h-6v6a3,3,0,1,1-6,0v-6h-6a3,3,0,0,1,0-6h6v-6a3,3,0,0,1,6,0v6h6a3,3,0,1,1,0,6Z"/><rect class="cls-2" x="805.61" y="219.27" width="72" height="72"/><path d="M683.2,237.27h0a12,12,0,1,0-24,0h-12v33a12,12,0,0,0,12,12h24a12,12,0,0,0,12-12v-33Zm-18,0a6,6,0,1,1,12,0h-12Z"/><rect class="cls-2" x="635.2" y="219.27" width="72" height="72"/><path d="M131,255.27a15,15,0,1,1,15-15A15,15,0,0,1,131,255.27Zm0-24a9,9,0,1,0,9,9A9,9,0,0,0,131,231.27Z"/><path d="M167,261.27H149a3,3,0,1,1,0-6h18a3,3,0,1,1,0,6Z"/><path d="M158,270.27a3,3,0,0,1-3-3v-18a3,3,0,1,1,6,0v18A3,3,0,0,1,158,270.27Z"/><path d="M152,285.27H110v-3a21,21,0,1,1,42,0Z"/><rect class="cls-2" x="103.99" y="219.27" width="72" height="72"/><path d="M310.4,255.27a15,15,0,1,1,15-15A15,15,0,0,1,310.4,255.27Zm0-24a9,9,0,1,0,9,9A9,9,0,0,0,310.4,231.27Z"/><path d="M331.4,285.27h-42v-3a21,21,0,0,1,42,0Z"/><rect class="cls-2" x="274.39" y="219.27" width="72" height="72"/><path d="M465.8,255.27a12,12,0,1,1,12-12A12,12,0,0,1,465.8,255.27Zm0-18a6,6,0,1,0,6,6A6,6,0,0,0,465.8,237.27Z"/><path d="M495.8,255.27a12,12,0,1,1,12-12A12,12,0,0,1,495.8,255.27Zm0-18a6,6,0,1,0,6,6A6,6,0,0,0,495.8,237.27Z"/><path d="M486.8,282.27h-42v-3a21,21,0,0,1,42,0Z"/><path d="M495.8,258.27a20.93,20.93,0,0,0-10.23,2.67,26.88,26.88,0,0,1,7.23,18.33v3h24v-3A21,21,0,0,0,495.8,258.27Z"/><rect class="cls-2" x="444.8" y="219.27" width="72" height="72"/><path d="M689.2,522h-3.55a8.77,8.77,0,0,0,.55-3,9,9,0,0,0-15-6.66,8.9,8.9,0,0,0-6-2.34,9,9,0,0,0-9,9,8.78,8.78,0,0,0,.56,3H653.2a9,9,0,0,0-9,9v9h6v18a9,9,0,0,0,9,9h24a9,9,0,0,0,9-9V540h6v-9A9,9,0,0,0,689.2,522Zm-24,0a3,3,0,1,1,3-3v3Zm9,39h-6V540h6Zm3-39h-3v-3a3,3,0,1,1,3,3Z"/><path d="M149,513H128a9,9,0,0,0-9,9v36a9,9,0,0,0,9,9h24a9,9,0,0,0,9-9V525Zm0,36H137a3,3,0,0,1,0-6h12a3,3,0,0,1,0,6Zm0-12H131a3,3,0,0,1,0-6h18a3,3,0,0,1,0,6Z"/></g></svg>