<svg xmlns="http://www.w3.org/2000/svg" viewBox="0 0 1152 648"><defs><style>.cls-1{fill:#dfdddd;}.cls-2{fill:#fff;}.cls-3{fill:#555;}.cls-4{fill:#f4f4f4;}.cls-5{fill:#565453;}.cls-6,.cls-7{fill:none;}.cls-6{stroke:#fd5d41;}.cls-7{stroke:#f4f4f4;}</style></defs><g id="Layer_1" data-name="Layer 1"><rect class="cls-1" width="1152" height="648"/><rect class="cls-2" x="145.66" y="64.53" width="860.67" height="518.93" rx="25.31"/><path class="cls-3" d="M186.8,118.32a12.66,12.66,0,1,1,12.66-12.65A12.69,12.69,0,0,1,186.8,118.32Zm0-22.14a9.49,9.49,0,1,0,9.49,9.49A9.52,9.52,0,0,0,186.8,96.18Z"/><path class="cls-3" d="M204.2,124.65a1.4,1.4,0,0,1-1.1-.47l-6.33-6.33a1.56,1.56,0,0,1,2.21-2.21l6.33,6.32a1.54,1.54,0,0,1,0,2.22A1.42,1.42,0,0,1,204.2,124.65Z"/><path d="M949,113.24s.07.06.1.17a1.09,1.09,0,0,1,0,.38v.84a1.06,1.06,0,0,1,0,.38c0,.1-.06.15-.1.15h-1.19a3,3,0,0,1-2.48-1l.08,3.29a2,2,0,0,1-1,1.67,7.67,7.67,0,0,1-2.74,1.14,15.56,15.56,0,0,1-3.62.41,7.05,7.05,0,0,1-4.43-1.12,4,4,0,0,1-1.39-3.36c0-.31.07-1,.2-2s.35-2.3.58-3.82l.26-1.59,1.24.22a60.69,60.69,0,0,0-.94,7,2.21,2.21,0,0,0,1.17,2.07,6.86,6.86,0,0,0,3.31.66,16.5,16.5,0,0,0,3.62-.35,5.5,5.5,0,0,0,2.46-1.12l-.69-19.41,1.52-.26.33,13.93a2.82,2.82,0,0,0,.41,1.21,1.18,1.18,0,0,0,.73.43,9,9,0,0,0,1.37.08Zm19,0s.07.06.1.17a1.4,1.4,0,0,1,0,.38v.84a1.35,1.35,0,0,1,0,.38c0,.1-.07.15-.1.15H966.5a3.24,3.24,0,0,1-1.64-.38,2.16,2.16,0,0,1-.92-1.06,2.5,2.5,0,0,1-1.36,1.11,5.7,5.7,0,0,1-2,.33,4,4,0,0,1-1.6-.3,1.63,1.63,0,0,1-.88-.89,1.91,1.91,0,0,1-1.17.91,4.47,4.47,0,0,1-1.49.28,3.79,3.79,0,0,1-1.65-.33,2,2,0,0,1-1-.88,3.06,3.06,0,0,1-1.54.91,8.59,8.59,0,0,1-2.33.3c-.1,0-.15-.18-.15-.53v-.84c0-.37,0-.55.15-.55a14.92,14.92,0,0,0,1.8-.1,3.57,3.57,0,0,0,1.34-.54l.1-4.15h1.39l-.1,3.32c0,1,.57,1.47,1.82,1.47a4.22,4.22,0,0,0,2.15-.46l-.15-5.31,1.4,0,.1,5.32a2.09,2.09,0,0,0,1.57.48,4.79,4.79,0,0,0,2.5-.51l-.4-6.3,1.44-.28.13,2.48.15,2.51a2.38,2.38,0,0,0,.53,1.62,2.47,2.47,0,0,0,1.72.48Zm11.11.5c-1.57.44-2.78.75-3.64.94a24.91,24.91,0,0,1-2.71.38c-.93.07-2.19.1-3.77.1h-1c-.1,0-.15-.18-.15-.53v-.84c0-.37,0-.55.15-.55h3.64a7.27,7.27,0,0,1-1-3.42,2.82,2.82,0,0,1,1.06-2.3,4.45,4.45,0,0,1,2.86-.86,10.52,10.52,0,0,1,2.81.37l-.4,1.52a12.64,12.64,0,0,0-2.51-.25,4.27,4.27,0,0,0-1.39.23,2.58,2.58,0,0,0-1.06.71,8,8,0,0,0,1.11,3.92,41.71,41.71,0,0,0,6-1.14Z"/><rect class="cls-4" x="158.32" y="507.53" width="835.36" height="63.28" rx="12.66"/><path d="M879.89,543.57q.08,0,.12.18a1.06,1.06,0,0,1,0,.38V545a1,1,0,0,1,0,.38c0,.11-.07.16-.12.16h-1.12a3.11,3.11,0,0,1,.21,1.16,3.88,3.88,0,0,1-2.31,3.75,13,13,0,0,1-5.8,1.14,7.11,7.11,0,0,1-4.43-1.12,4.1,4.1,0,0,1-1.39-3.39,19,19,0,0,1,.21-2c.15-1,.34-2.31.58-3.83l.25-1.59,1.24.25a63.65,63.65,0,0,0-.94,7,2.2,2.2,0,0,0,1.17,2.07,6.88,6.88,0,0,0,3.31.66,18.87,18.87,0,0,0,3.93-.35,5,5,0,0,0,2.63-1.34,5.79,5.79,0,0,0,.13-1,1.13,1.13,0,0,0-.41-1,3.12,3.12,0,0,0-1.34-.38c-.61-.05-1.56-.07-2.86-.07l.51-1.93Zm19,0s.07.06.1.18a1.35,1.35,0,0,1,0,.38V545a1.3,1.3,0,0,1,0,.38c0,.11-.07.16-.1.16h-1.52a3.24,3.24,0,0,1-1.64-.38,2.18,2.18,0,0,1-.92-1.07,2.51,2.51,0,0,1-1.36,1.12,5.7,5.7,0,0,1-2,.33,3.81,3.81,0,0,1-1.6-.31,1.65,1.65,0,0,1-.88-.88,1.94,1.94,0,0,1-1.17.91,4.74,4.74,0,0,1-1.49.28,3.79,3.79,0,0,1-1.65-.33,2,2,0,0,1-1-.89,3,3,0,0,1-1.54.91,8.21,8.21,0,0,1-2.33.31q-.15,0-.15-.54v-.83c0-.37,0-.56.15-.56a13.11,13.11,0,0,0,1.8-.1,3.4,3.4,0,0,0,1.34-.53l.1-4.15h1.39l-.1,3.31c0,1,.58,1.47,1.82,1.47a4.29,4.29,0,0,0,2.16-.45l-.16-5.32,1.4,0,.1,5.31a2.09,2.09,0,0,0,1.57.48,4.91,4.91,0,0,0,2.5-.5l-.4-6.31,1.44-.28L895,539l.15,2.5a2.38,2.38,0,0,0,.53,1.62,2.47,2.47,0,0,0,1.72.48Zm-10.53-14.33,1.47,1.14-1.17,1.47-1.46-1.14Zm-1.44,3.14,1.47,1.17L887.26,535l-1.47-1.17Zm2.91,0,1.47,1.17L890.17,535l-1.47-1.17Zm13.72,3.47a4.41,4.41,0,0,1,1.49.31q.86.27,2.43.93c1.45.59,2.69,1,3.7,1.37a9.62,9.62,0,0,0,2.91.48l-.28,1.77a9.84,9.84,0,0,0-3,.61,21,21,0,0,0-3.24,1.67,21.35,21.35,0,0,1-3.79,1.87,12,12,0,0,1-4.08.64h-.76q-.15,0-.15-.54v-.83c0-.37,0-.56.15-.56h1a11.86,11.86,0,0,0,3.22-.45,20.2,20.2,0,0,0,3.52-1.5l1-.53c.79-.4,1.38-.69,1.77-.86a7.81,7.81,0,0,1,1.16-.38,27.54,27.54,0,0,1-3.72-1.26c-.87-.36-1.58-.62-2.1-.79a3.85,3.85,0,0,0-1.19-.28,1.16,1.16,0,0,0-1,.46,4,4,0,0,0-.48,1.47l-1.22-.21a6.84,6.84,0,0,1,.94-2.53A2.07,2.07,0,0,1,903.56,535.85Zm17.65,1.39a2.9,2.9,0,0,1,2.88,2,11.5,11.5,0,0,1,.84,4.48,7.19,7.19,0,0,1-2.1,5.12,13.59,13.59,0,0,1-5.12,3.39l-1-1.44a16.34,16.34,0,0,0,4.36-2.43,6.73,6.73,0,0,0,2.33-3.12,13.78,13.78,0,0,1-2.89.26,7.06,7.06,0,0,1-1.69-.18,2.15,2.15,0,0,1-1.14-.71,2.23,2.23,0,0,1-.38-.63,2.59,2.59,0,0,1-.1-.84,9,9,0,0,1,.4-2.55,6,6,0,0,1,1.29-2.36A3,3,0,0,1,921.21,537.24Zm-2.64,6.21a4.84,4.84,0,0,0,2.1.38,11.58,11.58,0,0,0,2.89-.28c0-3.12-.84-4.69-2.53-4.69a2,2,0,0,0-1.8,1.3A7.19,7.19,0,0,0,918.57,543.45Zm30.43.12s.07.06.1.18a1.06,1.06,0,0,1,0,.38V545a1,1,0,0,1,0,.38c0,.11-.06.16-.1.16h-1.19a3,3,0,0,1-2.48-1l.08,3.29a2,2,0,0,1-1,1.67,7.67,7.67,0,0,1-2.74,1.14,15.57,15.57,0,0,1-3.62.4,7.12,7.12,0,0,1-4.43-1.11,4,4,0,0,1-1.39-3.37c0-.3.07-1,.2-2s.35-2.3.58-3.82l.26-1.6,1.24.23a60.63,60.63,0,0,0-.94,7,2.22,2.22,0,0,0,1.17,2.08,6.86,6.86,0,0,0,3.31.66,15.86,15.86,0,0,0,3.62-.36,5.5,5.5,0,0,0,2.46-1.11l-.69-19.42,1.52-.25.33,13.92a2.88,2.88,0,0,0,.41,1.22,1.23,1.23,0,0,0,.73.43,9.28,9.28,0,0,0,1.37.07Zm19,0s.07.06.1.18a1.35,1.35,0,0,1,0,.38V545a1.3,1.3,0,0,1,0,.38c0,.11-.07.16-.1.16H966.5a3.24,3.24,0,0,1-1.64-.38,2.18,2.18,0,0,1-.92-1.07,2.51,2.51,0,0,1-1.36,1.12,5.7,5.7,0,0,1-2,.33,3.81,3.81,0,0,1-1.6-.31,1.61,1.61,0,0,1-.88-.88,1.94,1.94,0,0,1-1.17.91,4.74,4.74,0,0,1-1.49.28,3.79,3.79,0,0,1-1.65-.33,2,2,0,0,1-1-.89,3,3,0,0,1-1.54.91,8.21,8.21,0,0,1-2.33.31q-.15,0-.15-.54v-.83c0-.37,0-.56.15-.56a13.11,13.11,0,0,0,1.8-.1,3.4,3.4,0,0,0,1.34-.53l.1-4.15h1.39l-.1,3.31c0,1,.57,1.47,1.82,1.47a4.22,4.22,0,0,0,2.15-.45l-.15-5.32,1.4,0,.1,5.31a2.09,2.09,0,0,0,1.57.48,4.91,4.91,0,0,0,2.5-.5l-.4-6.31,1.44-.28.13,2.49.15,2.5a2.38,2.38,0,0,0,.53,1.62,2.47,2.47,0,0,0,1.72.48Zm11.11.51c-1.57.44-2.78.75-3.64.94s-1.77.29-2.71.38-2.19.1-3.77.1h-1q-.15,0-.15-.54v-.83c0-.37,0-.56.15-.56h3.64a7.23,7.23,0,0,1-1-3.41,2.84,2.84,0,0,1,1.06-2.31,4.51,4.51,0,0,1,2.86-.86,10.53,10.53,0,0,1,2.81.38l-.4,1.52a12.64,12.64,0,0,0-2.51-.25,4.26,4.26,0,0,0-1.39.22,2.68,2.68,0,0,0-1.06.71,8,8,0,0,0,1.11,3.93,41.71,41.71,0,0,0,6-1.14Z"/><path d="M879.89,480.29c.05,0,.09.06.12.17a1.09,1.09,0,0,1,0,.38v.84a1.06,1.06,0,0,1,0,.38q0,.15-.12.15h-1.12a3.16,3.16,0,0,1,.21,1.17,3.88,3.88,0,0,1-2.31,3.74,13,13,0,0,1-5.8,1.14,7.12,7.12,0,0,1-4.43-1.11,4.11,4.11,0,0,1-1.39-3.39,18.77,18.77,0,0,1,.21-2c.15-1,.34-2.3.58-3.82l.25-1.6,1.24.26a63.29,63.29,0,0,0-.94,7,2.22,2.22,0,0,0,1.17,2.08,6.88,6.88,0,0,0,3.31.66,18.15,18.15,0,0,0,3.93-.36,5,5,0,0,0,2.63-1.34,5.6,5.6,0,0,0,.13-1,1.12,1.12,0,0,0-.41-1,3,3,0,0,0-1.34-.38c-.61-.05-1.56-.08-2.86-.08l.51-1.92Zm19,0s.07.06.1.17a1.4,1.4,0,0,1,0,.38v.84a1.35,1.35,0,0,1,0,.38c0,.1-.07.15-.1.15h-1.52a3.14,3.14,0,0,1-1.64-.38,2.16,2.16,0,0,1-.92-1.06,2.46,2.46,0,0,1-1.36,1.11,5.7,5.7,0,0,1-2,.33,4,4,0,0,1-1.6-.3A1.63,1.63,0,0,1,889,481a1.91,1.91,0,0,1-1.17.91,4.47,4.47,0,0,1-1.49.28,3.79,3.79,0,0,1-1.65-.33,2,2,0,0,1-1-.88,3.06,3.06,0,0,1-1.54.91,8.59,8.59,0,0,1-2.33.3c-.1,0-.15-.18-.15-.53v-.84c0-.37,0-.55.15-.55a14.92,14.92,0,0,0,1.8-.1,3.41,3.41,0,0,0,1.34-.54l.1-4.15h1.39l-.1,3.32c0,1,.58,1.47,1.82,1.47a4.18,4.18,0,0,0,2.16-.46l-.16-5.31,1.4,0,.1,5.32a2.09,2.09,0,0,0,1.57.48,4.79,4.79,0,0,0,2.5-.51l-.4-6.3,1.44-.28.13,2.48.15,2.51a2.38,2.38,0,0,0,.53,1.62,2.47,2.47,0,0,0,1.72.48ZM888.37,466l1.47,1.14-1.17,1.47-1.46-1.14Zm-1.44,3.14,1.47,1.16-1.14,1.47-1.47-1.16Zm2.91,0,1.47,1.16-1.14,1.47-1.47-1.16Zm13.72,3.47a4.62,4.62,0,0,1,1.49.3c.57.19,1.38.5,2.43.94,1.45.59,2.69,1,3.7,1.36a9.35,9.35,0,0,0,2.91.49l-.28,1.77a9.84,9.84,0,0,0-3,.6,22.17,22.17,0,0,0-3.24,1.68,22.05,22.05,0,0,1-3.79,1.87,12.22,12.22,0,0,1-4.08.63h-.76c-.1,0-.15-.18-.15-.53v-.84c0-.37,0-.55.15-.55h1a11.5,11.5,0,0,0,3.22-.46,20.88,20.88,0,0,0,3.52-1.49l1-.53c.79-.41,1.38-.69,1.77-.86a6.8,6.8,0,0,1,1.16-.38,29.63,29.63,0,0,1-3.72-1.27c-.87-.35-1.58-.61-2.1-.78a3.58,3.58,0,0,0-1.19-.28,1.17,1.17,0,0,0-1,.45,4.18,4.18,0,0,0-.48,1.47l-1.22-.2a6.77,6.77,0,0,1,.94-2.53A2,2,0,0,1,903.56,472.57ZM921.21,474a2.9,2.9,0,0,1,2.88,2,11.47,11.47,0,0,1,.84,4.48,7.18,7.18,0,0,1-2.1,5.11,13.49,13.49,0,0,1-5.12,3.4l-1-1.45a16.34,16.34,0,0,0,4.36-2.43,6.71,6.71,0,0,0,2.33-3.11,13.86,13.86,0,0,1-2.89.25,7.06,7.06,0,0,1-1.69-.18,2.18,2.18,0,0,1-1.52-1.34,2.48,2.48,0,0,1-.1-.83,9,9,0,0,1,.4-2.56A6,6,0,0,1,918.9,475,3,3,0,0,1,921.21,474Zm-2.64,6.2a4.84,4.84,0,0,0,2.1.38,11.12,11.12,0,0,0,2.89-.28q0-4.68-2.53-4.68a2,2,0,0,0-1.8,1.29A7.21,7.21,0,0,0,918.57,480.16Zm30.43.13s.07.06.1.17a1.09,1.09,0,0,1,0,.38v.84a1.06,1.06,0,0,1,0,.38c0,.1-.06.15-.1.15h-1.19a2.93,2.93,0,0,1-2.48-1l.08,3.29a2,2,0,0,1-1,1.68,7.85,7.85,0,0,1-2.74,1.13,15.56,15.56,0,0,1-3.62.41,7.12,7.12,0,0,1-4.43-1.11,4,4,0,0,1-1.39-3.37c0-.3.07-1,.2-2s.35-2.3.58-3.82l.26-1.59,1.24.23a60.35,60.35,0,0,0-.94,7,2.21,2.21,0,0,0,1.17,2.07,6.86,6.86,0,0,0,3.31.66,16.5,16.5,0,0,0,3.62-.35,5.4,5.4,0,0,0,2.46-1.12l-.69-19.41,1.52-.26.33,13.93a2.82,2.82,0,0,0,.41,1.21,1.18,1.18,0,0,0,.73.43,9,9,0,0,0,1.37.08Zm19,0s.07.06.1.17a1.4,1.4,0,0,1,0,.38v.84a1.35,1.35,0,0,1,0,.38c0,.1-.07.15-.1.15H966.5a3.14,3.14,0,0,1-1.64-.38,2.16,2.16,0,0,1-.92-1.06,2.46,2.46,0,0,1-1.36,1.11,5.7,5.7,0,0,1-2,.33,4,4,0,0,1-1.6-.3,1.6,1.6,0,0,1-.88-.89,1.91,1.91,0,0,1-1.17.91,4.47,4.47,0,0,1-1.49.28,3.79,3.79,0,0,1-1.65-.33,2,2,0,0,1-1-.88,3.06,3.06,0,0,1-1.54.91,8.59,8.59,0,0,1-2.33.3c-.1,0-.15-.18-.15-.53v-.84c0-.37,0-.55.15-.55a14.92,14.92,0,0,0,1.8-.1,3.41,3.41,0,0,0,1.34-.54l.1-4.15h1.39l-.1,3.32c0,1,.57,1.47,1.82,1.47a4.11,4.11,0,0,0,2.15-.46l-.15-5.31,1.4,0,.1,5.32a2.09,2.09,0,0,0,1.57.48,4.79,4.79,0,0,0,2.5-.51l-.4-6.3,1.44-.28.13,2.48.15,2.51a2.38,2.38,0,0,0,.53,1.62,2.47,2.47,0,0,0,1.72.48Zm11.11.5c-1.57.44-2.78.76-3.64.94a24.91,24.91,0,0,1-2.71.38c-.93.07-2.19.1-3.77.1h-1c-.1,0-.15-.18-.15-.53v-.84c0-.37,0-.55.15-.55h3.64a7.24,7.24,0,0,1-1-3.42,2.82,2.82,0,0,1,1.06-2.3,4.45,4.45,0,0,1,2.86-.86,10.14,10.14,0,0,1,2.81.38l-.4,1.51a13.43,13.43,0,0,0-2.51-.25,4.27,4.27,0,0,0-1.39.23,2.58,2.58,0,0,0-1.06.71,7.92,7.92,0,0,0,1.11,3.92,41.71,41.71,0,0,0,6-1.14Z"/><path d="M879.89,417q.08,0,.12.18a1.06,1.06,0,0,1,0,.38v.84a1.09,1.09,0,0,1,0,.38q0,.15-.12.15h-1.12a3.11,3.11,0,0,1,.21,1.16,3.88,3.88,0,0,1-2.31,3.75,13,13,0,0,1-5.8,1.14,7.05,7.05,0,0,1-4.43-1.12,4.1,4.1,0,0,1-1.39-3.39,19,19,0,0,1,.21-2c.15-1,.34-2.31.58-3.83l.25-1.59,1.24.25a63.65,63.65,0,0,0-.94,7,2.2,2.2,0,0,0,1.17,2.07,6.88,6.88,0,0,0,3.31.66,18.87,18.87,0,0,0,3.93-.35,5,5,0,0,0,2.63-1.34,5.79,5.79,0,0,0,.13-1,1.14,1.14,0,0,0-.41-1,3.12,3.12,0,0,0-1.34-.38c-.61-.05-1.56-.07-2.86-.07l.51-1.93Zm19,0s.07.06.1.18a1.35,1.35,0,0,1,0,.38v.84a1.4,1.4,0,0,1,0,.38c0,.1-.07.15-.1.15h-1.52a3.24,3.24,0,0,1-1.64-.38,2.18,2.18,0,0,1-.92-1.07,2.51,2.51,0,0,1-1.36,1.12,5.7,5.7,0,0,1-2,.33,3.81,3.81,0,0,1-1.6-.31,1.65,1.65,0,0,1-.88-.88,1.94,1.94,0,0,1-1.17.91,4.74,4.74,0,0,1-1.49.28,3.79,3.79,0,0,1-1.65-.33,2,2,0,0,1-1-.89,3,3,0,0,1-1.54.91,8.21,8.21,0,0,1-2.33.31c-.1,0-.15-.18-.15-.53v-.84c0-.37,0-.56.15-.56a13.11,13.11,0,0,0,1.8-.1,3.4,3.4,0,0,0,1.34-.53l.1-4.15h1.39l-.1,3.31c0,1,.58,1.47,1.82,1.47a4.29,4.29,0,0,0,2.16-.45l-.16-5.32,1.4,0,.1,5.31a2.09,2.09,0,0,0,1.57.48,4.91,4.91,0,0,0,2.5-.5l-.4-6.31,1.44-.27.13,2.48.15,2.5a2.38,2.38,0,0,0,.53,1.62,2.47,2.47,0,0,0,1.72.48Zm-10.53-14.32,1.47,1.13-1.17,1.47-1.46-1.14Zm-1.44,3.13L888.4,407l-1.14,1.47-1.47-1.17Zm2.91,0,1.47,1.17-1.14,1.47-1.47-1.17Zm13.72,3.47a4.41,4.41,0,0,1,1.49.31q.86.27,2.43.93c1.45.59,2.69,1.05,3.7,1.37a9.62,9.62,0,0,0,2.91.48l-.28,1.77a9.84,9.84,0,0,0-3,.61,21,21,0,0,0-3.24,1.67,21.35,21.35,0,0,1-3.79,1.87,12,12,0,0,1-4.08.64h-.76c-.1,0-.15-.18-.15-.53v-.84c0-.37,0-.56.15-.56h1a11.86,11.86,0,0,0,3.22-.45,20.2,20.2,0,0,0,3.52-1.5l1-.53c.79-.4,1.38-.69,1.77-.86a7.81,7.81,0,0,1,1.16-.38,27.54,27.54,0,0,1-3.72-1.26c-.87-.36-1.58-.62-2.1-.79a3.85,3.85,0,0,0-1.19-.28,1.16,1.16,0,0,0-1,.46,4,4,0,0,0-.48,1.47l-1.22-.21a6.84,6.84,0,0,1,.94-2.53A2.07,2.07,0,0,1,903.56,409.28Zm17.65,1.39a2.9,2.9,0,0,1,2.88,2,11.52,11.52,0,0,1,.84,4.49,7.18,7.18,0,0,1-2.1,5.11,13.59,13.59,0,0,1-5.12,3.39l-1-1.44a16.34,16.34,0,0,0,4.36-2.43,6.69,6.69,0,0,0,2.33-3.12,13.78,13.78,0,0,1-2.89.26,7.06,7.06,0,0,1-1.69-.18,2.23,2.23,0,0,1-1.52-1.34,2.59,2.59,0,0,1-.1-.84,9,9,0,0,1,.4-2.55,6,6,0,0,1,1.29-2.36A3,3,0,0,1,921.21,410.67Zm-2.64,6.21a4.84,4.84,0,0,0,2.1.38,11.58,11.58,0,0,0,2.89-.28c0-3.12-.84-4.69-2.53-4.69a2.06,2.06,0,0,0-1.8,1.3A7.19,7.19,0,0,0,918.57,416.88ZM949,417s.07.06.1.18a1.06,1.06,0,0,1,0,.38v.84a1.09,1.09,0,0,1,0,.38c0,.1-.06.15-.1.15h-1.19a3,3,0,0,1-2.48-1l.08,3.29a2,2,0,0,1-1,1.67,7.67,7.67,0,0,1-2.74,1.14,15.57,15.57,0,0,1-3.62.4,7.12,7.12,0,0,1-4.43-1.11,4,4,0,0,1-1.39-3.37c0-.3.07-1,.2-2s.35-2.3.58-3.82l.26-1.6,1.24.23a60.63,60.63,0,0,0-.94,7,2.22,2.22,0,0,0,1.17,2.08,6.86,6.86,0,0,0,3.31.66,15.86,15.86,0,0,0,3.62-.36,5.5,5.5,0,0,0,2.46-1.11l-.69-19.42,1.52-.25.33,13.92a2.88,2.88,0,0,0,.41,1.22,1.23,1.23,0,0,0,.73.43,9.28,9.28,0,0,0,1.37.07Zm19,0s.07.06.1.18a1.35,1.35,0,0,1,0,.38v.84a1.4,1.4,0,0,1,0,.38c0,.1-.07.15-.1.15H966.5a3.24,3.24,0,0,1-1.64-.38,2.18,2.18,0,0,1-.92-1.07,2.51,2.51,0,0,1-1.36,1.12,5.7,5.7,0,0,1-2,.33,3.81,3.81,0,0,1-1.6-.31,1.61,1.61,0,0,1-.88-.88,1.94,1.94,0,0,1-1.17.91,4.74,4.74,0,0,1-1.49.28,3.79,3.79,0,0,1-1.65-.33,2,2,0,0,1-1-.89,3,3,0,0,1-1.54.91,8.21,8.21,0,0,1-2.33.31c-.1,0-.15-.18-.15-.53v-.84c0-.37,0-.56.15-.56a13.11,13.11,0,0,0,1.8-.1,3.4,3.4,0,0,0,1.34-.53l.1-4.15h1.39l-.1,3.31c0,1,.57,1.47,1.82,1.47a4.22,4.22,0,0,0,2.15-.45l-.15-5.32,1.4,0,.1,5.31a2.09,2.09,0,0,0,1.57.48,4.91,4.91,0,0,0,2.5-.5l-.4-6.31,1.44-.27.13,2.48.15,2.5a2.38,2.38,0,0,0,.53,1.62,2.47,2.47,0,0,0,1.72.48Zm11.11.51c-1.57.44-2.78.75-3.64.94s-1.77.29-2.71.38-2.19.1-3.77.1h-1c-.1,0-.15-.18-.15-.53v-.84c0-.37,0-.56.15-.56h3.64a7.23,7.23,0,0,1-1-3.41,2.84,2.84,0,0,1,1.06-2.31,4.51,4.51,0,0,1,2.86-.86,10.53,10.53,0,0,1,2.81.38l-.4,1.52a12.64,12.64,0,0,0-2.51-.25,4.26,4.26,0,0,0-1.39.22A2.68,2.68,0,0,0,972,413a8,8,0,0,0,1.11,3.93,41.71,41.71,0,0,0,6-1.14Z"/><path d="M584.23,263.54s.06.06.1.18a1.27,1.27,0,0,1,0,.37v.84a1.35,1.35,0,0,1,0,.38c0,.1-.07.15-.1.15H583a2.94,2.94,0,0,1-2.49-1l.08,3.29a2,2,0,0,1-1,1.68,7.85,7.85,0,0,1-2.74,1.13,15,15,0,0,1-3.62.41,7.12,7.12,0,0,1-4.43-1.11,4,4,0,0,1-1.39-3.37c0-.3.07-1,.2-2s.35-2.3.59-3.82l.25-1.59,1.24.23a62.84,62.84,0,0,0-.94,7,2.21,2.21,0,0,0,1.17,2.07,6.88,6.88,0,0,0,3.31.66,16.5,16.5,0,0,0,3.62-.35,5.4,5.4,0,0,0,2.46-1.12l-.68-19.41,1.52-.26.32,13.93a2.82,2.82,0,0,0,.41,1.21,1.21,1.21,0,0,0,.73.43,9.08,9.08,0,0,0,1.37.08Zm19,0s.07.06.1.18a1,1,0,0,1,0,.37v.84a1.06,1.06,0,0,1,0,.38c0,.1-.06.15-.1.15h-1.52a3.19,3.19,0,0,1-1.64-.38,2.14,2.14,0,0,1-.91-1.06,2.51,2.51,0,0,1-1.37,1.11,5.7,5.7,0,0,1-1.95.33,3.89,3.89,0,0,1-1.59-.3,1.62,1.62,0,0,1-.89-.89,1.91,1.91,0,0,1-1.16.91,4.53,4.53,0,0,1-1.5.28,3.72,3.72,0,0,1-1.64-.33,2,2,0,0,1-1-.88,3,3,0,0,1-1.54.91,8.54,8.54,0,0,1-2.33.3c-.1,0-.15-.18-.15-.53v-.84c0-.37,0-.55.15-.55a14.92,14.92,0,0,0,1.8-.1,3.35,3.35,0,0,0,1.34-.54l.1-4.15h1.39l-.1,3.32q0,1.47,1.83,1.47a4.16,4.16,0,0,0,2.15-.46l-.15-5.31,1.39,0,.1,5.32a2.11,2.11,0,0,0,1.57.48,4.79,4.79,0,0,0,2.5-.51l-.4-6.3,1.44-.28.13,2.48.15,2.51a2.38,2.38,0,0,0,.53,1.62,2.47,2.47,0,0,0,1.72.48Zm11.12.5c-1.57.44-2.79.76-3.65.94a24.57,24.57,0,0,1-2.71.38c-.93.07-2.19.1-3.77.1h-1c-.1,0-.15-.18-.15-.53v-.84c0-.37,0-.55.15-.55h3.65a7.12,7.12,0,0,1-1-3.42,2.8,2.8,0,0,1,1.06-2.3,4.43,4.43,0,0,1,2.86-.86,10.19,10.19,0,0,1,2.81.38l-.41,1.51a13.41,13.41,0,0,0-2.5-.25,4.22,4.22,0,0,0-1.39.23,2.55,2.55,0,0,0-1.07.71,7.83,7.83,0,0,0,1.12,3.92,41.85,41.85,0,0,0,5.94-1.14Zm13.07,6.89a7.1,7.1,0,0,1-4.43-1.11,4,4,0,0,1-1.4-3.37,19.31,19.31,0,0,1,.21-2c.15-1,.34-2.3.58-3.82l.25-1.59,1.24.23a61.78,61.78,0,0,0-.93,7,2.22,2.22,0,0,0,1.16,2.07,6.9,6.9,0,0,0,3.32.66,18.09,18.09,0,0,0,3.84-.35,5.07,5.07,0,0,0,2.61-1.32,4.2,4.2,0,0,0,.33-1.47,1.58,1.58,0,0,0-1.49-1.74l-1.24-.13c-.75-.07-1.29-.14-1.65-.2a1.85,1.85,0,0,1-.83-.41,1.08,1.08,0,0,1-.31-.86,11,11,0,0,1,.64-3.72,8.1,8.1,0,0,1,1.77-3,3.31,3.31,0,0,1,2.43-1.17,2.71,2.71,0,0,1,1.64.56,4.74,4.74,0,0,1,1.32,1.32l-.84,1a3.18,3.18,0,0,0-2.15-1.14,2.31,2.31,0,0,0-1.67.81,5.9,5.9,0,0,0-1.24,2.1,9.87,9.87,0,0,0-.53,2.76,18.18,18.18,0,0,1,3.14.4,3,3,0,0,1,1.72,1,3.42,3.42,0,0,1,.61,2.2,4.21,4.21,0,0,1-2.28,4.08A12.57,12.57,0,0,1,627.43,270.93Zm17.19-7.39c.1,0,.15.18.15.55v.84c0,.35,0,.53-.15.53h-.41a4.05,4.05,0,0,1-4.71-4.53l-.3-12.78,1.52-.26.15,13c0,1.75,1.08,2.63,3.19,2.63Zm9.83-6.15a6.9,6.9,0,0,1,2.6,1.82,3.88,3.88,0,0,1,.81,2.51,6.49,6.49,0,0,1-.55,2.68,2.94,2.94,0,0,1-.81.91,1.54,1.54,0,0,1-.79.35,1,1,0,0,1-.35-.07l-3.8-1.42a3.41,3.41,0,0,1-2.25,1.06,34.66,34.66,0,0,1-4.69.23c-.1,0-.15-.18-.15-.53v-.84c0-.37,0-.55.15-.55h2a15.74,15.74,0,0,0,1.75-.1,7.2,7.2,0,0,0,1.29-.31,4.55,4.55,0,0,1-2.05-.76,1.87,1.87,0,0,1-.78-1.54,4.22,4.22,0,0,1,.55-2.1,15.12,15.12,0,0,1,1.45-2l-1.32-.6.66-1.45Zm-1.75,1L650,257.26c-1.23,1.38-1.85,2.49-1.85,3.32a1.27,1.27,0,0,0,.74,1.19,7.77,7.77,0,0,0,2.17.53Zm3.21,5.67a5.13,5.13,0,0,0,.46-1,3.53,3.53,0,0,0,.2-1.11,2.65,2.65,0,0,0-.58-1.7,5.1,5.1,0,0,0-2.18-1.34l-1.57,3.82Zm9.21,1.52a4.47,4.47,0,0,1-2.53-.69,2.62,2.62,0,0,1-1-2.3,5.21,5.21,0,0,1,.83-2.58,15.9,15.9,0,0,1,2.05-2.76l-1-.76.86-1.29a13.2,13.2,0,0,1,3.87,3.59,7.3,7.3,0,0,1,1.39,4.23,2.91,2.91,0,0,1-.3,1.42,4,4,0,0,1-.36.48.84.84,0,0,1-.35.28,4.29,4.29,0,0,1-1.32.3C666.68,265.56,666,265.59,665.12,265.59Zm0-1.93c.85,0,1.48,0,1.9,0a6.26,6.26,0,0,0,1.17-.18,7.37,7.37,0,0,0-.49-2.71,6.37,6.37,0,0,0-2.27-2.71,9.84,9.84,0,0,0-1.8,2.21,4.41,4.41,0,0,0-.81,2C662.87,263.18,663.64,263.66,665.17,263.66Zm13.16-9.84q4.74,4.57,4.74,9.08c0,.9-.6,1.57-1.8,2a12,12,0,0,1-4.18.66,9.21,9.21,0,0,1-2.6-.28,1.93,1.93,0,0,1-1.19-1,5,5,0,0,1-.31-2c0-.41,0-.72,0-.94l1.19.08v.43a3.62,3.62,0,0,0,.15,1.26.94.94,0,0,0,.73.43,13.2,13.2,0,0,0,2,.1,16.07,16.07,0,0,0,2.71-.22,5.59,5.59,0,0,0,1.92-.61,8.74,8.74,0,0,0-1.24-3.9,17.07,17.07,0,0,0-3.16-3.85Zm3.26,16.93a17.25,17.25,0,0,0,4.66-2.76,6.36,6.36,0,0,0,2.1-2.88l-.74-6.79,1.5-.3c.17,1.69.29,3.09.38,4.2s.15,2,.15,2.53a5.89,5.89,0,0,1-1.85,4,15.1,15.1,0,0,1-5.21,3.45Zm15.55-13.54a2.9,2.9,0,0,1,2.88,2,11.47,11.47,0,0,1,.84,4.48,7.18,7.18,0,0,1-2.1,5.11,13.49,13.49,0,0,1-5.12,3.4l-1-1.45a16.43,16.43,0,0,0,4.35-2.43,6.64,6.64,0,0,0,2.33-3.11,13.86,13.86,0,0,1-2.89.25,7.12,7.12,0,0,1-1.69-.18,2.14,2.14,0,0,1-1.14-.7,2.37,2.37,0,0,1-.38-.64,2.48,2.48,0,0,1-.1-.83,9,9,0,0,1,.4-2.56,6,6,0,0,1,1.29-2.35A3,3,0,0,1,697.14,257.21Zm-2.63,6.2a4.77,4.77,0,0,0,2.1.38,11.09,11.09,0,0,0,2.88-.28q0-4.68-2.53-4.68a2,2,0,0,0-1.8,1.29A7.35,7.35,0,0,0,694.51,263.41Zm10-11.72,1.52-.25.23,14-1.29.2Zm3.14-2.45a16.83,16.83,0,0,1-2.55-.21c-.61-.07-1-.1-1.12-.1a1.26,1.26,0,0,0-.81.2,2.11,2.11,0,0,0-.4.89l-1.07-.28a3.82,3.82,0,0,1,.81-1.82,2,2,0,0,1,1.47-.48c.2,0,.68,0,1.42.1,1.1.12,1.89.18,2.38.18h1.06l-.3,1.52Zm9.57,14.3s.07.06.1.18a1,1,0,0,1,.05.37v.84a1.06,1.06,0,0,1-.05.38c0,.1-.07.15-.1.15H716a4,4,0,0,1-1.65-.33,2.94,2.94,0,0,1-1.14-.91v.53a5.85,5.85,0,0,1-1.85,4,15.1,15.1,0,0,1-5.21,3.45l-1-1.45a17.1,17.1,0,0,0,4.66-2.76,6.36,6.36,0,0,0,2.1-2.88l-.73-6.79,1.49-.3.38,3.62a1.81,1.81,0,0,0,.89,1.44,4.07,4.07,0,0,0,2,.46Zm5.5-10.38a2.91,2.91,0,0,1,2.89,2,11.65,11.65,0,0,1,.83,4.48,25.87,25.87,0,0,1-.12,2.89,3.74,3.74,0,0,1-.46,1.49,2.24,2.24,0,0,1-1,.76,9.52,9.52,0,0,1-2.48.53c-1,.1-2.71.15-5.14.15-.1,0-.15-.18-.15-.53v-.84c0-.37.05-.55.15-.55,2.28,0,4,0,5.11-.13a8.18,8.18,0,0,0,2.61-.51,11.2,11.2,0,0,0,.1-1.77,14.34,14.34,0,0,1-3,.28,7.21,7.21,0,0,1-1.7-.18,2.14,2.14,0,0,1-1.14-.7,2.66,2.66,0,0,1-.38-.64,2.77,2.77,0,0,1-.1-.83,9,9,0,0,1,.41-2.56,6,6,0,0,1,1.29-2.35A3,3,0,0,1,722.67,253.16Zm-2.63,6.2a4.84,4.84,0,0,0,2.1.38,11.12,11.12,0,0,0,2.89-.28q0-4.68-2.54-4.68a2,2,0,0,0-1.79,1.29A7.21,7.21,0,0,0,720,259.36Zm2.33-11.8,1.57,1.25-1.22,1.51-1.57-1.24Zm15,9.65a2.91,2.91,0,0,1,2.89,2,11.46,11.46,0,0,1,.83,4.48,7.18,7.18,0,0,1-2.1,5.11,13.45,13.45,0,0,1-5.11,3.4l-1-1.45a16.34,16.34,0,0,0,4.36-2.43,6.78,6.78,0,0,0,2.33-3.11,13.86,13.86,0,0,1-2.89.25,7.21,7.21,0,0,1-1.7-.18,2.18,2.18,0,0,1-1.14-.7,2.66,2.66,0,0,1-.38-.64,2.77,2.77,0,0,1-.1-.83,9,9,0,0,1,.41-2.56A6,6,0,0,1,735,258.2,3,3,0,0,1,737.33,257.21Zm-2.63,6.2a4.84,4.84,0,0,0,2.1.38,11.12,11.12,0,0,0,2.89-.28c0-3.12-.85-4.68-2.53-4.68a2,2,0,0,0-1.8,1.29A7.21,7.21,0,0,0,734.7,263.41Zm19.47,7.52a7.1,7.1,0,0,1-4.43-1.11,4,4,0,0,1-1.39-3.37,18.24,18.24,0,0,1,.2-2c.15-1,.35-2.3.58-3.82l.26-1.59,1.24.23a60.35,60.35,0,0,0-.94,7,2.22,2.22,0,0,0,1.16,2.07,6.93,6.93,0,0,0,3.32.66q4.56,0,6.25-1.47l-.83-9.69,1.49-.31q.63,7.79.63,10.15a2.07,2.07,0,0,1-1,1.7,7.36,7.36,0,0,1-2.76,1.11A15.85,15.85,0,0,1,754.17,270.93Zm.66-17.34,1.57,1.24-1.22,1.52-1.57-1.24Zm20.19,10s.07.06.1.18a1.27,1.27,0,0,1,0,.37v.84a1.35,1.35,0,0,1,0,.38c0,.1-.07.15-.1.15h-2.28a8.09,8.09,0,0,1-2.51,4,14,14,0,0,1-4.48,2.71l-1-1.45a16.43,16.43,0,0,0,4.35-2.43,6.64,6.64,0,0,0,2.33-3.11,13.86,13.86,0,0,1-2.89.25,7.12,7.12,0,0,1-1.69-.18,2.14,2.14,0,0,1-1.14-.7,2.37,2.37,0,0,1-.38-.64,2.48,2.48,0,0,1-.1-.83,9,9,0,0,1,.4-2.56,6,6,0,0,1,1.29-2.35,3,3,0,0,1,2.31-1,2.91,2.91,0,0,1,2.86,2,11.51,11.51,0,0,1,.86,4.38Zm-8.41-.13a4.85,4.85,0,0,0,2.11.38,11.09,11.09,0,0,0,2.88-.28q0-4.68-2.53-4.68a2,2,0,0,0-1.8,1.29A7.21,7.21,0,0,0,766.61,263.41Zm24.89.13s.07.06.11.18a1.27,1.27,0,0,1,0,.37v.84a1.35,1.35,0,0,1,0,.38c0,.1-.07.15-.11.15h-2q-4,0-4.43-3.31l-.48.27a8.69,8.69,0,0,0-.91.54,22.12,22.12,0,0,1-3.8,1.87,12.14,12.14,0,0,1-4.08.63H775c-.11,0-.16-.18-.16-.53v-.84c0-.37,0-.55.16-.55h1a11.77,11.77,0,0,0,3.26-.46,17.1,17.1,0,0,0,3.47-1.49l1-.53c.76-.41,1.33-.7,1.72-.89a4.89,4.89,0,0,1,1.19-.43,9.05,9.05,0,0,1-1.54-.43l-2.23-.83c-1-.36-1.67-.61-2.1-.76a3.32,3.32,0,0,0-1.09-.23,1.16,1.16,0,0,0-1,.45,4,4,0,0,0-.49,1.47l-1.21-.2a6.6,6.6,0,0,1,.94-2.53,2,2,0,0,1,1.79-.86,4.83,4.83,0,0,1,1.52.3c.61.2,1.41.51,2.41.91,1.52.61,2.76,1.07,3.74,1.37a9.78,9.78,0,0,0,2.86.45l-.27,1.6a11.07,11.07,0,0,0-3.88,1.14,2.16,2.16,0,0,0,1.24,1.54,7.94,7.94,0,0,0,2.89.41Zm-8.78,4.73,1.57,1.24L783.08,271l-1.57-1.24Zm21.83-4.73c.1,0,.15.18.15.55v.84c0,.35-.05.53-.15.53h-2.63a7.27,7.27,0,0,1-2.31-.3,3,3,0,0,1-1.29-.86,4.9,4.9,0,0,1-3.59,1.16h-3.22c-.1,0-.15-.18-.15-.53v-.84c0-.37,0-.55.15-.55h3.09a8.44,8.44,0,0,0,2.36-.26c-1-1.55-1.78-2.65-2.26-3.29a6.14,6.14,0,0,0-1-1.19.55.55,0,0,0-.5-.17l-.64.1.13-1.6a32.81,32.81,0,0,1,6.4-.53A8.9,8.9,0,0,1,802,257c.72.25,1.09.68,1.09,1.27v.5a3.21,3.21,0,0,1-.53,1.42,11.47,11.47,0,0,1-1.27,1.77,7.84,7.84,0,0,1-1.37,1.32,5.5,5.5,0,0,0,2.05.28ZM795,258.48a3.22,3.22,0,0,1,.91,1c.41.52,1.2,1.64,2.38,3.36a9.54,9.54,0,0,0,2.1-1.87,5.53,5.53,0,0,0,1.35-2.2c-.09-.15-.39-.26-.91-.33a13,13,0,0,0-1.93-.13c-.74,0-1.49,0-2.25.08A14.63,14.63,0,0,0,795,258.48Zm16.5-.56a2.74,2.74,0,0,1,2.38,1.34,6,6,0,0,1,.91,3.47,8.34,8.34,0,0,1-.38,2.61,2.08,2.08,0,0,1-.79,1,1.3,1.3,0,0,1-.86.31,1.67,1.67,0,0,1-.76-.18l-4.43-1.95a3,3,0,0,1-2.45.91h-.61c-.1,0-.15-.18-.15-.53v-.84c0-.37.05-.55.15-.55h.89a3.36,3.36,0,0,0,.91-.1,1.22,1.22,0,0,0,.53-.38,4.78,4.78,0,0,0,.56-1,19,19,0,0,1,1.34-2.53A3.83,3.83,0,0,1,810,258.3,2.84,2.84,0,0,1,811.53,257.92Zm1.44,7.14a2.73,2.73,0,0,0,.33-1,6.88,6.88,0,0,0,.13-1.29,4.25,4.25,0,0,0-.56-2.31,1.63,1.63,0,0,0-1.47-.88,1.72,1.72,0,0,0-1,.3,3.72,3.72,0,0,0-.89,1,22.24,22.24,0,0,0-1.14,2.13Z"/><path d="M676.2,335.8a7.11,7.11,0,0,1-4.43-1.12,4,4,0,0,1-1.39-3.36c0-.31.07-1,.2-2s.35-2.3.58-3.82l.26-1.6,1.24.23a60.91,60.91,0,0,0-.94,7,2.22,2.22,0,0,0,1.17,2.08,6.86,6.86,0,0,0,3.31.66,17.55,17.55,0,0,0,3.85-.36,5.14,5.14,0,0,0,2.61-1.31,4.3,4.3,0,0,0,.33-1.47,1.59,1.59,0,0,0-1.5-1.75l-1.24-.12c-.74-.07-1.29-.14-1.64-.21a1.83,1.83,0,0,1-.84-.4,1.14,1.14,0,0,1-.3-.86,11.27,11.27,0,0,1,.63-3.72,8.15,8.15,0,0,1,1.77-3,3.33,3.33,0,0,1,2.43-1.16,2.76,2.76,0,0,1,1.65.56,4.8,4.8,0,0,1,1.31,1.31l-.83,1a3.2,3.2,0,0,0-2.15-1.14,2.31,2.31,0,0,0-1.67.81,5.76,5.76,0,0,0-1.24,2.1,9.87,9.87,0,0,0-.54,2.76,18,18,0,0,1,3.14.4,3,3,0,0,1,1.72,1,3.36,3.36,0,0,1,.61,2.2,4.23,4.23,0,0,1-2.28,4.08A12.55,12.55,0,0,1,676.2,335.8Zm8.33-.18a13.08,13.08,0,0,0,3.82-2.71A7,7,0,0,0,690.2,330l-.73-6.78,1.49-.3c.17,1.68.3,3.08.38,4.2s.15,2,.15,2.53a6.39,6.39,0,0,1-1.57,4,12.87,12.87,0,0,1-4.4,3.44ZM695.09,313l1.52-.25.23,17.57-1.29.2Zm10.39,5.67q4.72,4.59,4.73,9.09c0,.9-.6,1.57-1.8,2a11.93,11.93,0,0,1-4.17.66,9.24,9.24,0,0,1-2.61-.28,2,2,0,0,1-1.19-1,5.29,5.29,0,0,1-.3-2c0-.4,0-.71,0-.93l1.19.07v.43a3.68,3.68,0,0,0,.15,1.27,1,1,0,0,0,.74.43,13,13,0,0,0,2,.1,15.1,15.1,0,0,0,2.71-.23,5.27,5.27,0,0,0,1.92-.6,8.54,8.54,0,0,0-1.24-3.9,16.86,16.86,0,0,0-3.16-3.85Zm3.25,16.94a17.1,17.1,0,0,0,4.66-2.76,6.33,6.33,0,0,0,2.1-2.89l-.73-6.78,1.49-.3c.17,1.68.3,3.08.38,4.2s.15,2,.15,2.53a5.87,5.87,0,0,1-1.85,4,15.09,15.09,0,0,1-5.21,3.44Zm21.32-7.22s.07.06.1.18a1.06,1.06,0,0,1,.05.38v.84a1.06,1.06,0,0,1-.05.38c0,.1-.06.15-.1.15h-2.28a8,8,0,0,1-2.5,4,13.85,13.85,0,0,1-4.48,2.71l-1-1.44a16.27,16.27,0,0,0,4.35-2.43,6.64,6.64,0,0,0,2.33-3.11,14.47,14.47,0,0,1-2.88.25,7.21,7.21,0,0,1-1.7-.18,2.09,2.09,0,0,1-1.14-.71,2.63,2.63,0,0,1-.38-.63,2.55,2.55,0,0,1-.1-.84,9,9,0,0,1,.41-2.55,6.09,6.09,0,0,1,1.29-2.36,3,3,0,0,1,2.3-1,2.91,2.91,0,0,1,2.86,1.95,11.24,11.24,0,0,1,.86,4.37Zm-8.4-.12a4.81,4.81,0,0,0,2.1.38,11.49,11.49,0,0,0,2.88-.28q0-4.68-2.53-4.68a2,2,0,0,0-1.79,1.29A7.19,7.19,0,0,0,721.65,328.28Zm16.91.12s.07.06.11.18a1.35,1.35,0,0,1,.05.38v.84a1.35,1.35,0,0,1-.05.38c0,.1-.07.15-.11.15a8.25,8.25,0,0,1-2.81-.38,2.21,2.21,0,0,1-1.29-1.12c-.57,1-2,1.5-4.4,1.5-.1,0-.15-.18-.15-.53V329c0-.37.05-.56.15-.56a10.81,10.81,0,0,0,2.15-.17,4.37,4.37,0,0,0,1.57-.66l-.46-5.11,1.45-.18.35,5.37A6,6,0,0,0,738.56,328.4ZM734,333.14l1.57,1.24-1.22,1.52-1.57-1.24Zm10.58-11.82c.17,2.93.25,5,.25,6.1a2.08,2.08,0,0,1-.33,1.11,2.32,2.32,0,0,1-.91.84,9.42,9.42,0,0,1-2.3.73,16.25,16.25,0,0,1-2.74.23c-.1,0-.15-.18-.15-.53V329c0-.37.05-.56.15-.56a9.82,9.82,0,0,0,5-.93l-.43-5.87ZM743.42,316l1.57,1.24-1.21,1.51-1.57-1.24Zm.51,19.64a17.1,17.1,0,0,0,4.66-2.76,6.33,6.33,0,0,0,2.1-2.89l-.73-6.78,1.49-.3c.17,1.68.3,3.08.38,4.2s.15,2,.15,2.53a5.89,5.89,0,0,1-1.84,4,15.14,15.14,0,0,1-5.22,3.44Zm6.28-18.3,1.57,1.24-1.21,1.52L749,318.84Zm12.71,4.76a2.88,2.88,0,0,1,2.88,2,11.43,11.43,0,0,1,.84,4.48,7.18,7.18,0,0,1-2.1,5.11,13.39,13.39,0,0,1-5.11,3.39l-1-1.44a16.43,16.43,0,0,0,4.35-2.43,6.64,6.64,0,0,0,2.33-3.11,14.54,14.54,0,0,1-2.88.25,7.15,7.15,0,0,1-1.7-.18,2.09,2.09,0,0,1-1.14-.71,2.63,2.63,0,0,1-.38-.63,2.55,2.55,0,0,1-.1-.84,9,9,0,0,1,.4-2.55,6.24,6.24,0,0,1,1.3-2.36A3,3,0,0,1,762.92,322.08Zm-2.63,6.2a4.77,4.77,0,0,0,2.1.38,11.49,11.49,0,0,0,2.88-.28q0-4.68-2.53-4.68a2,2,0,0,0-1.8,1.29A7.32,7.32,0,0,0,760.29,328.28Zm17.29-6.2a2.89,2.89,0,0,1,2.88,2,11.43,11.43,0,0,1,.84,4.48,7.18,7.18,0,0,1-2.1,5.11,13.39,13.39,0,0,1-5.11,3.39l-1-1.44a16.43,16.43,0,0,0,4.35-2.43,6.64,6.64,0,0,0,2.33-3.11,14.54,14.54,0,0,1-2.88.25,7.15,7.15,0,0,1-1.7-.18,2.09,2.09,0,0,1-1.14-.71,2.33,2.33,0,0,1-.38-.63,2.55,2.55,0,0,1-.1-.84,9,9,0,0,1,.4-2.55,6,6,0,0,1,1.3-2.36A3,3,0,0,1,777.58,322.08Zm-2.63,6.2a4.77,4.77,0,0,0,2.1.38,11.49,11.49,0,0,0,2.88-.28q0-4.68-2.53-4.68a2,2,0,0,0-1.8,1.29A7.19,7.19,0,0,0,775,328.28Zm22.86.12s.07.06.1.18a1.06,1.06,0,0,1,.05.38v.84a1.06,1.06,0,0,1-.05.38c0,.1-.06.15-.1.15h-.63c-1.82,0-2.91-.64-3.27-1.93a1.75,1.75,0,0,1-.81.94,7.93,7.93,0,0,1-2.43,1,11.64,11.64,0,0,1-2.91.41,3.84,3.84,0,0,1-1.74-.31,1.59,1.59,0,0,1-.86-1,6.17,6.17,0,0,1-.26-2c0-.41,0-.72,0-.94l1.19.08V327a5.06,5.06,0,0,0,.1,1.24.66.66,0,0,0,.48.45,5.06,5.06,0,0,0,1.24.1,11.42,11.42,0,0,0,3-.4,6.56,6.56,0,0,0,2.31-1l-1.88-7.82,1.45-.81,1.41,6.83a9.18,9.18,0,0,0,.61,2,1.46,1.46,0,0,0,.91.71A11.76,11.76,0,0,0,797.81,328.4Zm8.51,0s.07.06.1.18a1.06,1.06,0,0,1,.05.38v.84a1.06,1.06,0,0,1-.05.38c0,.1-.06.15-.1.15a8.25,8.25,0,0,1-2.81-.38,2.21,2.21,0,0,1-1.29-1.12c-.57,1-2,1.5-4.4,1.5-.1,0-.15-.18-.15-.53V329c0-.37.05-.56.15-.56a10.87,10.87,0,0,0,2.15-.17,4.37,4.37,0,0,0,1.57-.66l-.46-5.11,1.45-.18.35,5.37A6,6,0,0,0,806.32,328.4Zm-4.88-11.59,1.57,1.24-1.22,1.52-1.57-1.24Zm7.36.58a14.73,14.73,0,0,1,3.62,3.62,10.26,10.26,0,0,1,1.55,3.42,14.44,14.44,0,0,1,.35,3.16q0,2.75-8,2.74c-.1,0-.15-.18-.15-.53V329c0-.37.05-.56.15-.56a34.16,34.16,0,0,0,3.93-.2,10,10,0,0,0,2.75-.66,10.81,10.81,0,0,0-.7-3.59,9.63,9.63,0,0,0-2-3.06,19.38,19.38,0,0,0-3.62-3l.13-1.72c1.48-.73,2.87-1.36,4.15-1.9s2.66-1.06,4.07-1.52l.21,1.62a39.54,39.54,0,0,0-6.79,2.79A1.05,1.05,0,0,1,808.8,317.39Z"/><path class="cls-5" d="M835.53,271.06a7.31,7.31,0,0,1-4.61-1.17,4.34,4.34,0,0,1-1.42-3.54,17,17,0,0,1,.23-2c.15-1,.34-2.2.56-3.62q.08-.51.15-1l.15-1,1.57.3a66.28,66.28,0,0,0-1,7,2,2,0,0,0,1.16,1.9,7.1,7.1,0,0,0,3.17.61,17.56,17.56,0,0,0,3.87-.36A5.38,5.38,0,0,0,842,267a4.12,4.12,0,0,0,.26-1.21,1.38,1.38,0,0,0-1.29-1.55l-.84-.07c-.89-.09-1.56-.17-2-.26a2,2,0,0,1-1-.48,1.35,1.35,0,0,1-.38-1,11.14,11.14,0,0,1,.69-3.82,9.32,9.32,0,0,1,1.84-3.11,3.47,3.47,0,0,1,2.51-1.22,3,3,0,0,1,1.75.58,5.36,5.36,0,0,1,1.44,1.57l-1.06,1.22a3.26,3.26,0,0,0-2.15-1.17,2.13,2.13,0,0,0-1.55.74,5.25,5.25,0,0,0-1.16,1.9,9.88,9.88,0,0,0-.56,2.55,21,21,0,0,1,3.14.43,3,3,0,0,1,1.69,1.09,3.71,3.71,0,0,1,.64,2.38,4.47,4.47,0,0,1-2.38,4.26A12.4,12.4,0,0,1,835.53,271.06Zm25.15-8.1s.07.06.1.2a1.34,1.34,0,0,1,.08.48v1.16a1.34,1.34,0,0,1-.08.48c0,.12-.06.18-.1.18h-.63c-1.82,0-2.92-.66-3.29-2a1.73,1.73,0,0,1-.36.69,2.41,2.41,0,0,1-.53.43,8.37,8.37,0,0,1-2.33.88,11.72,11.72,0,0,1-2.81.38,4.6,4.6,0,0,1-1.92-.33,1.87,1.87,0,0,1-1-1,5.84,5.84,0,0,1-.3-2.1c0-.52,0-.94.05-1.26l1.52.12v.49a3.25,3.25,0,0,0,.13,1.11.69.69,0,0,0,.5.43,7.56,7.56,0,0,0,1.29.08,11.66,11.66,0,0,0,2.74-.33,6.57,6.57,0,0,0,2.17-.89l-1.92-7.8,1.85-1,1.44,7a8,8,0,0,0,.56,1.88,1.31,1.31,0,0,0,.86.63A10.59,10.59,0,0,0,860.68,263Zm8.81,0s.07.06.1.2a1.34,1.34,0,0,1,.08.48v1.16a1.34,1.34,0,0,1-.08.48c0,.12-.06.18-.1.18a8.38,8.38,0,0,1-2.93-.38,2.24,2.24,0,0,1-1.32-1.21,2.67,2.67,0,0,1-1.57,1.21,9.33,9.33,0,0,1-3,.38s-.09-.06-.13-.18a2.14,2.14,0,0,1,0-.48v-1.16a2.14,2.14,0,0,1,0-.48c0-.14.08-.2.13-.2a12.6,12.6,0,0,0,2.13-.16,4.81,4.81,0,0,0,1.59-.6l-.5-5,1.9-.2.33,5.26A6.15,6.15,0,0,0,869.49,263Zm-5.06-11.88,1.9,1.5-1.45,1.79L863,252.88ZM875.74,256c.16,2.87.25,4.93.25,6.18a2.63,2.63,0,0,1-.33,1.29,2.76,2.76,0,0,1-1,1,8.17,8.17,0,0,1-2.3.76,15.55,15.55,0,0,1-2.89.25q-.08,0-.12-.18a1.68,1.68,0,0,1-.05-.48v-1.16a1.68,1.68,0,0,1,.05-.48c0-.14.07-.2.12-.2a22.11,22.11,0,0,0,2.74-.16,5.43,5.43,0,0,0,2.07-.68l-.48-5.77Zm-4,12.18,1.89,1.49-1.44,1.8-1.9-1.49ZM890.27,263c.05,0,.09.06.12.2a1.34,1.34,0,0,1,.08.48v1.16a1.34,1.34,0,0,1-.08.48q0,.18-.12.18h-.71c-1.76,0-2.84-.66-3.24-2l0,.05c-.12.37-.49.65-1.11.83a8.73,8.73,0,0,1-2.3.26,4.1,4.1,0,0,1-2.21-.59,2,2,0,0,1-.93-1.82q0-4.68,5.29-6.15l-.21-1.65,1.83-.55.6,6.28a10.64,10.64,0,0,0,.26,1.64,1.59,1.59,0,0,0,.63.86,2.5,2.5,0,0,0,1.37.31Zm-7.17-.61a5.91,5.91,0,0,0,1.34-.13c.39-.08.82-.2,1.3-.35l-.43-3.93a5,5,0,0,0-3,1.55,4.21,4.21,0,0,0-1.06,2.38A3.11,3.11,0,0,0,883.1,262.35Zm16,.61s.07.06.1.2a1.34,1.34,0,0,1,.08.48v1.16a1.34,1.34,0,0,1-.08.48c0,.12-.06.18-.1.18a8.38,8.38,0,0,1-2.93-.38,2.24,2.24,0,0,1-1.32-1.21,2.67,2.67,0,0,1-1.57,1.21,9.33,9.33,0,0,1-3,.38s-.09-.06-.12-.18a1.68,1.68,0,0,1,0-.48v-1.16a1.68,1.68,0,0,1,0-.48c0-.14.07-.2.12-.2a12.51,12.51,0,0,0,2.13-.16,4.81,4.81,0,0,0,1.59-.6l-.5-5,1.9-.2.33,5.26A6.15,6.15,0,0,0,899.08,263Zm-6.63-11.72,1.72,1.39-1.39,1.74L891,253Zm3.27,0,1.74,1.39L896,254.37,894.32,253ZM914.79,256q.26,4.31.26,6.41a2.62,2.62,0,0,1-1.14,2.33,4.69,4.69,0,0,1-2.64.73c-1.43,0-2.34-.44-2.73-1.31a2,2,0,0,1-1.19,1,4.34,4.34,0,0,1-1.49.3,4,4,0,0,1-1.7-.33,2.25,2.25,0,0,1-1-1,3,3,0,0,1-1.62,1,9.08,9.08,0,0,1-2.43.3q-.08,0-.12-.18a1.68,1.68,0,0,1-.05-.48v-1.16a1.68,1.68,0,0,1,.05-.48c0-.14.07-.2.12-.2a12.93,12.93,0,0,0,1.8-.11,3.61,3.61,0,0,0,1.34-.5l0-4H904l-.07,3.17c0,.94.55,1.42,1.69,1.42a4.32,4.32,0,0,0,2.08-.43l-.15-5.12,1.77-.05.1,5.19a2.19,2.19,0,0,0,1.5.41,4.94,4.94,0,0,0,2.4-.46l-.46-6.15Zm9.42-2.73a17,17,0,0,1,3.75,4.91,10.39,10.39,0,0,1,1.09,4.33,2.49,2.49,0,0,1-1.83,2.33,11.13,11.13,0,0,1-4.38.76,8.88,8.88,0,0,1-2.68-.31,2.08,2.08,0,0,1-1.26-1.06,4.9,4.9,0,0,1-.36-2.1c0-.52,0-.94.05-1.27l1.52.13v.48a3,3,0,0,0,.15,1.14,1,1,0,0,0,.71.41,16.67,16.67,0,0,0,1.92.07,16.84,16.84,0,0,0,2.51-.2,7.26,7.26,0,0,0,2-.51,8.24,8.24,0,0,0-1.27-3.67,18.22,18.22,0,0,0-3.16-3.79Z"/><path class="cls-5" d="M835.53,335.92a7.31,7.31,0,0,1-4.61-1.16,4.35,4.35,0,0,1-1.42-3.55,17.45,17.45,0,0,1,.23-2c.15-1,.34-2.2.56-3.62l.15-1,.15-1,1.57.31a65.93,65.93,0,0,0-1,7,2,2,0,0,0,1.16,1.89,7,7,0,0,0,3.17.61,18.26,18.26,0,0,0,3.87-.35,5.47,5.47,0,0,0,2.58-1.24,4.11,4.11,0,0,0,.26-1.22,1.37,1.37,0,0,0-1.29-1.54l-.84-.08c-.89-.08-1.56-.17-2-.25a2.1,2.1,0,0,1-1-.48,1.37,1.37,0,0,1-.38-1,11.09,11.09,0,0,1,.69-3.82,9.27,9.27,0,0,1,1.84-3.12,3.46,3.46,0,0,1,2.51-1.21,2.92,2.92,0,0,1,1.75.58,5.24,5.24,0,0,1,1.44,1.57l-1.06,1.22a3.26,3.26,0,0,0-2.15-1.17,2.13,2.13,0,0,0-1.55.74,5.29,5.29,0,0,0-1.16,1.89,10.05,10.05,0,0,0-.56,2.56,19.75,19.75,0,0,1,3.14.43,3,3,0,0,1,1.69,1.09,3.7,3.7,0,0,1,.64,2.38,4.46,4.46,0,0,1-2.38,4.25A12.4,12.4,0,0,1,835.53,335.92Zm25.15-8.1s.07.07.1.2a1.44,1.44,0,0,1,.08.49v1.16a1.34,1.34,0,0,1-.08.48c0,.12-.06.18-.1.18h-.63c-1.82,0-2.92-.67-3.29-2a1.69,1.69,0,0,1-.36.68,2.15,2.15,0,0,1-.53.43,8,8,0,0,1-2.33.89,11.72,11.72,0,0,1-2.81.38,4.6,4.6,0,0,1-1.92-.33,1.87,1.87,0,0,1-1-1,5.92,5.92,0,0,1-.3-2.1c0-.52,0-.94.05-1.27l1.52.13v.48a3.28,3.28,0,0,0,.13,1.12.69.69,0,0,0,.5.43,7.84,7.84,0,0,0,1.29.07,11.66,11.66,0,0,0,2.74-.33,6.57,6.57,0,0,0,2.17-.88l-1.92-7.8,1.85-1,1.44,7a7.91,7.91,0,0,0,.56,1.87,1.32,1.32,0,0,0,.86.64A10.84,10.84,0,0,0,860.68,327.82Zm8.81,0s.07.07.1.2a1.44,1.44,0,0,1,.08.49v1.16a1.34,1.34,0,0,1-.08.48c0,.12-.06.18-.1.18a8.63,8.63,0,0,1-2.93-.38,2.25,2.25,0,0,1-1.32-1.22,2.65,2.65,0,0,1-1.57,1.22,9.62,9.62,0,0,1-3,.38s-.09-.06-.13-.18a2.14,2.14,0,0,1,0-.48v-1.16a2.31,2.31,0,0,1,0-.49c0-.13.08-.2.13-.2a12.72,12.72,0,0,0,2.13-.15,4.83,4.83,0,0,0,1.59-.61l-.5-5,1.9-.21.33,5.27A6.26,6.26,0,0,0,869.49,327.82ZM864.43,316l1.9,1.49-1.45,1.8L863,317.75Zm11.31,4.91c.16,2.87.25,4.93.25,6.18a2.69,2.69,0,0,1-.33,1.29,2.76,2.76,0,0,1-1,1,8.51,8.51,0,0,1-2.3.76,16.46,16.46,0,0,1-2.89.25q-.08,0-.12-.18a1.68,1.68,0,0,1-.05-.48v-1.16a1.8,1.8,0,0,1,.05-.49c0-.13.07-.2.12-.2a22.26,22.26,0,0,0,2.74-.15,5.8,5.8,0,0,0,2.07-.68l-.48-5.77Zm-4,12.18,1.89,1.49-1.44,1.8-1.9-1.5Zm18.48-5.22c.05,0,.09.07.12.2a1.44,1.44,0,0,1,.08.49v1.16a1.34,1.34,0,0,1-.08.48q0,.18-.12.18h-.71q-2.64,0-3.24-2l0,0c-.12.38-.49.65-1.11.84a8.77,8.77,0,0,1-2.3.25,4.09,4.09,0,0,1-2.21-.58,2,2,0,0,1-.93-1.82q0-4.68,5.29-6.15l-.21-1.65,1.83-.56.6,6.28a10.6,10.6,0,0,0,.26,1.65,1.59,1.59,0,0,0,.63.86,2.51,2.51,0,0,0,1.37.3Zm-7.17-.61a6.6,6.6,0,0,0,1.34-.12c.39-.09.82-.2,1.3-.36l-.43-3.92a5,5,0,0,0-3,1.54,4.24,4.24,0,0,0-1.06,2.38A3,3,0,0,0,883.1,327.21Zm16,.61s.07.07.1.2a1.44,1.44,0,0,1,.08.49v1.16a1.34,1.34,0,0,1-.08.48c0,.12-.06.18-.1.18a8.63,8.63,0,0,1-2.93-.38,2.25,2.25,0,0,1-1.32-1.22,2.65,2.65,0,0,1-1.57,1.22,9.62,9.62,0,0,1-3,.38s-.09-.06-.12-.18a1.68,1.68,0,0,1,0-.48v-1.16a1.8,1.8,0,0,1,0-.49c0-.13.07-.2.12-.2a12.63,12.63,0,0,0,2.13-.15,4.83,4.83,0,0,0,1.59-.61l-.5-5,1.9-.21.33,5.27A6.26,6.26,0,0,0,899.08,327.82Zm-6.63-11.72,1.72,1.39-1.39,1.75L891,317.85Zm3.27,0,1.74,1.39L896,319.24l-1.72-1.39Zm19.07,4.76q.26,4.31.26,6.41a2.59,2.59,0,0,1-1.14,2.32,4.7,4.7,0,0,1-2.64.74q-2.14,0-2.73-1.32a2,2,0,0,1-1.19,1,4.14,4.14,0,0,1-1.49.31,4,4,0,0,1-1.7-.33,2.32,2.32,0,0,1-1-1,2.91,2.91,0,0,1-1.62,1,8.68,8.68,0,0,1-2.43.31q-.08,0-.12-.18a1.68,1.68,0,0,1-.05-.48v-1.16A1.8,1.8,0,0,1,899,328c0-.13.07-.2.12-.2a13.11,13.11,0,0,0,1.8-.1,3.46,3.46,0,0,0,1.34-.51l0-4H904L904,326.4c0,1,.55,1.42,1.69,1.42a4.21,4.21,0,0,0,2.08-.43l-.15-5.11,1.77,0,.1,5.19a2.19,2.19,0,0,0,1.5.4,5,5,0,0,0,2.4-.45l-.46-6.15Zm9.42-2.73A17,17,0,0,1,928,323a10.35,10.35,0,0,1,1.09,4.33,2.5,2.5,0,0,1-1.83,2.33,11.31,11.31,0,0,1-4.38.76,9.21,9.21,0,0,1-2.68-.31,2.08,2.08,0,0,1-1.26-1.06,4.9,4.9,0,0,1-.36-2.1c0-.53,0-.95.05-1.27l1.52.13v.48a3,3,0,0,0,.15,1.14,1,1,0,0,0,.71.4,16,16,0,0,0,1.92.08,16.84,16.84,0,0,0,2.51-.2,8.1,8.1,0,0,0,2-.51,8.2,8.2,0,0,0-1.27-3.67,18.51,18.51,0,0,0-3.16-3.8Z"/><line class="cls-6" x1="923.27" y1="93.01" x2="923.27" y2="124.65"/><line class="cls-7" x1="981.02" y1="153.92" x2="170.98" y2="153.92"/><line class="cls-7" x1="981.02" y1="369.09" x2="170.98" y2="369.09"/><path class="cls-5" d="M953.33,257.55a7.12,7.12,0,1,1,7.12-7.12A7.08,7.08,0,0,1,953.33,257.55Zm0-11.07a4,4,0,1,0,4,4A3.91,3.91,0,0,0,953.33,246.48Z"/><path class="cls-5" d="M976.28,257.55H965.2a1.49,1.49,0,0,1-1.58-1.58V244.89a1.49,1.49,0,0,1,1.58-1.58h11.08a1.5,1.5,0,0,1,1.58,1.58V256A1.5,1.5,0,0,1,976.28,257.55Zm-9.5-3.16h7.91v-7.91h-7.91Z"/><path class="cls-5" d="M956.66,275h-6.33a1.67,1.67,0,0,1-1.43-.79l-3.16-5.53a1.44,1.44,0,0,1,0-1.59l3.16-5.53a1.67,1.67,0,0,1,1.43-.79h6.33a1.65,1.65,0,0,1,1.42.79l3.17,5.53a1.48,1.48,0,0,1,0,1.59l-3.17,5.53A1.65,1.65,0,0,1,956.66,275Zm-5.38-3.16h4.43l2.21-4-2.21-3.95h-4.43l-2.22,3.95Z"/><path class="cls-5" d="M977.07,275H964.25a1.64,1.64,0,0,1-1.42-.79,1.42,1.42,0,0,1,0-1.58l6.33-11.07a1.62,1.62,0,0,1,2.69,0l6.32,11.07a1.42,1.42,0,0,1,0,1.58C978.17,274.64,977.7,275,977.07,275Zm-10-3.16h7.28l-3.64-6.33Z"/><path class="cls-5" d="M953.33,322.42a7.12,7.12,0,1,1,7.12-7.12A7.09,7.09,0,0,1,953.33,322.42Zm0-11.08a4,4,0,1,0,4,4A3.92,3.92,0,0,0,953.33,311.34Z"/><path class="cls-5" d="M976.28,322.42H965.2a1.49,1.49,0,0,1-1.58-1.58V309.76a1.49,1.49,0,0,1,1.58-1.58h11.08a1.5,1.5,0,0,1,1.58,1.58v11.08A1.5,1.5,0,0,1,976.28,322.42Zm-9.5-3.17h7.91v-7.91h-7.91Z"/><path class="cls-5" d="M956.66,339.82h-6.33a1.69,1.69,0,0,1-1.43-.79l-3.16-5.54a1.42,1.42,0,0,1,0-1.58l3.16-5.54a1.69,1.69,0,0,1,1.43-.79h6.33a1.67,1.67,0,0,1,1.42.79l3.17,5.54a1.46,1.46,0,0,1,0,1.58L958.08,339A1.67,1.67,0,0,1,956.66,339.82Zm-5.38-3.16h4.43l2.21-4-2.21-3.95h-4.43l-2.22,3.95Z"/><path class="cls-5" d="M977.07,339.82H964.25a1.66,1.66,0,0,1-1.42-.79,1.42,1.42,0,0,1,0-1.58l6.33-11.08a1.62,1.62,0,0,1,2.69,0l6.32,11.08a1.42,1.42,0,0,1,0,1.58C978.17,339.5,977.7,339.82,977.07,339.82Zm-10-3.16h7.28l-3.64-6.33Z"/><path class="cls-5" d="M835.53,209.35a7.31,7.31,0,0,1-4.61-1.16,4.34,4.34,0,0,1-1.42-3.54,17,17,0,0,1,.23-2c.15-1,.34-2.21.56-3.62q.08-.51.15-1l.15-1,1.57.3a65.93,65.93,0,0,0-1,7,2,2,0,0,0,1.16,1.9,7.11,7.11,0,0,0,3.17.6,18.26,18.26,0,0,0,3.87-.35,5.38,5.38,0,0,0,2.58-1.24,4.11,4.11,0,0,0,.26-1.22,1.37,1.37,0,0,0-1.29-1.54l-.84-.08c-.89-.08-1.56-.17-2-.25a2.1,2.1,0,0,1-1-.48,1.37,1.37,0,0,1-.38-1,11.09,11.09,0,0,1,.69-3.82,9.27,9.27,0,0,1,1.84-3.12,3.46,3.46,0,0,1,2.51-1.21,2.92,2.92,0,0,1,1.75.58,5.24,5.24,0,0,1,1.44,1.57l-1.06,1.22a3.26,3.26,0,0,0-2.15-1.17,2.13,2.13,0,0,0-1.55.74,5.29,5.29,0,0,0-1.16,1.89,10.05,10.05,0,0,0-.56,2.56,19.75,19.75,0,0,1,3.14.43,3,3,0,0,1,1.69,1.09,3.7,3.7,0,0,1,.64,2.38,4.46,4.46,0,0,1-2.38,4.25A12.4,12.4,0,0,1,835.53,209.35Zm25.15-8.1s.07.07.1.21a1.34,1.34,0,0,1,.08.48v1.16a1.34,1.34,0,0,1-.08.48c0,.12-.06.18-.1.18h-.63c-1.82,0-2.92-.67-3.29-2a1.69,1.69,0,0,1-.36.68,2.15,2.15,0,0,1-.53.43,8,8,0,0,1-2.33.89,11.72,11.72,0,0,1-2.81.38,4.6,4.6,0,0,1-1.92-.33,1.87,1.87,0,0,1-1-1,5.84,5.84,0,0,1-.3-2.1c0-.52,0-.94.05-1.26l1.52.12V200a3.28,3.28,0,0,0,.13,1.12.69.69,0,0,0,.5.43,7.84,7.84,0,0,0,1.29.07,11.66,11.66,0,0,0,2.74-.33,6.57,6.57,0,0,0,2.17-.88l-1.92-7.8,1.85-1,1.44,7a7.91,7.91,0,0,0,.56,1.87,1.32,1.32,0,0,0,.86.64A10.84,10.84,0,0,0,860.68,201.25Zm8.81,0s.07.07.1.21a1.34,1.34,0,0,1,.08.48v1.16a1.34,1.34,0,0,1-.08.48c0,.12-.06.18-.1.18a8.63,8.63,0,0,1-2.93-.38,2.25,2.25,0,0,1-1.32-1.22,2.65,2.65,0,0,1-1.57,1.22,9.62,9.62,0,0,1-3,.38s-.09-.06-.13-.18a2.14,2.14,0,0,1,0-.48v-1.16a2.14,2.14,0,0,1,0-.48c0-.14.08-.21.13-.21a12.72,12.72,0,0,0,2.13-.15,4.83,4.83,0,0,0,1.59-.61l-.5-5,1.9-.21.33,5.27A6.16,6.16,0,0,0,869.49,201.25Zm-5.06-11.87,1.9,1.49-1.45,1.8L863,191.18Zm11.31,4.91c.16,2.87.25,4.93.25,6.18a2.69,2.69,0,0,1-.33,1.29,2.76,2.76,0,0,1-1,1,8.51,8.51,0,0,1-2.3.76,16.46,16.46,0,0,1-2.89.25q-.08,0-.12-.18a1.68,1.68,0,0,1-.05-.48v-1.16a1.68,1.68,0,0,1,.05-.48q0-.21.12-.21a22.26,22.26,0,0,0,2.74-.15,5.61,5.61,0,0,0,2.07-.68l-.48-5.77Zm-4,12.18,1.89,1.49-1.44,1.8-1.9-1.49Zm18.48-5.22q.08,0,.12.21a1.34,1.34,0,0,1,.08.48v1.16a1.34,1.34,0,0,1-.08.48q0,.18-.12.18h-.71q-2.64,0-3.24-2l0,.06c-.12.37-.49.65-1.11.83a8.77,8.77,0,0,1-2.3.25,4.09,4.09,0,0,1-2.21-.58,2,2,0,0,1-.93-1.82q0-4.68,5.29-6.15l-.21-1.65,1.83-.55.6,6.27a10.6,10.6,0,0,0,.26,1.65,1.59,1.59,0,0,0,.63.86,2.51,2.51,0,0,0,1.37.3Zm-7.17-.6a6.54,6.54,0,0,0,1.34-.13c.39-.09.82-.2,1.3-.36l-.43-3.92a4.94,4.94,0,0,0-3,1.55,4.19,4.19,0,0,0-1.06,2.37A3,3,0,0,0,883.1,200.65Zm16,.6s.07.07.1.21a1.34,1.34,0,0,1,.08.48v1.16a1.34,1.34,0,0,1-.08.48c0,.12-.06.18-.1.18a8.63,8.63,0,0,1-2.93-.38,2.25,2.25,0,0,1-1.32-1.22,2.65,2.65,0,0,1-1.57,1.22,9.62,9.62,0,0,1-3,.38s-.09-.06-.12-.18a1.68,1.68,0,0,1,0-.48v-1.16a1.68,1.68,0,0,1,0-.48q0-.21.12-.21a12.63,12.63,0,0,0,2.13-.15,4.83,4.83,0,0,0,1.59-.61l-.5-5,1.9-.21.33,5.27A6.16,6.16,0,0,0,899.08,201.25Zm-6.63-11.72,1.72,1.4-1.39,1.74L891,191.28Zm3.27,0,1.74,1.4L896,192.67l-1.72-1.39Zm19.07,4.76q.26,4.31.26,6.41a2.62,2.62,0,0,1-1.14,2.33,4.77,4.77,0,0,1-2.64.73q-2.14,0-2.73-1.32a2.06,2.06,0,0,1-1.19,1,4.34,4.34,0,0,1-1.49.3,4,4,0,0,1-1.7-.33,2.32,2.32,0,0,1-1-1,2.92,2.92,0,0,1-1.62,1,9.08,9.08,0,0,1-2.43.3q-.08,0-.12-.18a1.68,1.68,0,0,1-.05-.48v-1.16a1.68,1.68,0,0,1,.05-.48q0-.21.12-.21a13.11,13.11,0,0,0,1.8-.1,3.61,3.61,0,0,0,1.34-.5l0-4H904l-.07,3.17c0,.94.55,1.41,1.69,1.41a4.21,4.21,0,0,0,2.08-.43l-.15-5.11,1.77-.05.1,5.19a2.19,2.19,0,0,0,1.5.4,5,5,0,0,0,2.4-.45l-.46-6.15Zm9.42-2.73a17,17,0,0,1,3.75,4.91,10.35,10.35,0,0,1,1.09,4.33,2.5,2.5,0,0,1-1.83,2.33,11.31,11.31,0,0,1-4.38.76,9.21,9.21,0,0,1-2.68-.31,2.08,2.08,0,0,1-1.26-1.06,4.9,4.9,0,0,1-.36-2.1c0-.53,0-.95.05-1.27l1.52.13v.48a3,3,0,0,0,.15,1.14,1,1,0,0,0,.71.4,16,16,0,0,0,1.92.08,16.84,16.84,0,0,0,2.51-.2,8.1,8.1,0,0,0,2-.51,8.24,8.24,0,0,0-1.27-3.67,18.51,18.51,0,0,0-3.16-3.8Z"/><path d="M784.46,201.84s.07,0,.1.17a1.06,1.06,0,0,1,.05.38v.84a1.06,1.06,0,0,1-.05.38c0,.1-.06.15-.1.15h-1.19a3,3,0,0,1-2.48-1l.08,3.29a2,2,0,0,1-1,1.67,7.67,7.67,0,0,1-2.74,1.14,15.56,15.56,0,0,1-3.62.41,7.05,7.05,0,0,1-4.43-1.12,4,4,0,0,1-1.39-3.36c0-.31.07-1,.2-2s.35-2.3.58-3.82l.26-1.6,1.24.23a60.91,60.91,0,0,0-.94,7,2.22,2.22,0,0,0,1.17,2.08,6.86,6.86,0,0,0,3.31.66,15.86,15.86,0,0,0,3.62-.36,5.5,5.5,0,0,0,2.46-1.11l-.69-19.42,1.52-.25.33,13.92a2.82,2.82,0,0,0,.41,1.22,1.18,1.18,0,0,0,.73.43,9,9,0,0,0,1.37.08Zm19,0s.07,0,.1.17a1.35,1.35,0,0,1,0,.38v.84a1.35,1.35,0,0,1,0,.38c0,.1-.07.15-.1.15H802a3.24,3.24,0,0,1-1.64-.38,2.16,2.16,0,0,1-.92-1.06,2.54,2.54,0,0,1-1.36,1.11,5.7,5.7,0,0,1-1.95.33,4,4,0,0,1-1.6-.3,1.63,1.63,0,0,1-.88-.89,1.91,1.91,0,0,1-1.17.91,4.47,4.47,0,0,1-1.49.28,3.79,3.79,0,0,1-1.65-.33,2,2,0,0,1-1-.89,3,3,0,0,1-1.54.92,8.59,8.59,0,0,1-2.33.3c-.1,0-.15-.18-.15-.53v-.84c0-.37,0-.55.15-.55a12.93,12.93,0,0,0,1.8-.11,3.4,3.4,0,0,0,1.34-.53l.1-4.15h1.39l-.1,3.32c0,1,.57,1.47,1.82,1.47a4.22,4.22,0,0,0,2.15-.46l-.15-5.32,1.39,0,.11,5.31a2,2,0,0,0,1.57.49,4.79,4.79,0,0,0,2.5-.51L798,195l1.44-.28.13,2.48.15,2.5a2.38,2.38,0,0,0,.53,1.62,2.42,2.42,0,0,0,1.72.49Zm11.11.5c-1.57.44-2.78.75-3.64.94s-1.77.29-2.71.38-2.19.1-3.77.1h-1c-.1,0-.15-.18-.15-.53v-.84c0-.37,0-.55.15-.55h3.64a7.3,7.3,0,0,1-1-3.42,2.86,2.86,0,0,1,1.06-2.31,4.51,4.51,0,0,1,2.86-.86,10.53,10.53,0,0,1,2.81.38l-.4,1.52a12.64,12.64,0,0,0-2.51-.25,4.27,4.27,0,0,0-1.39.23,2.58,2.58,0,0,0-1.06.71,8,8,0,0,0,1.11,3.92,41.71,41.71,0,0,0,5.95-1.14Z"/><path class="cls-5" d="M953.33,195.85a7.12,7.12,0,1,1,7.12-7.12A7.09,7.09,0,0,1,953.33,195.85Zm0-11.08a4,4,0,1,0,4,4A3.92,3.92,0,0,0,953.33,184.77Z"/><path class="cls-5" d="M976.28,195.85H965.2a1.49,1.49,0,0,1-1.58-1.58V183.19a1.49,1.49,0,0,1,1.58-1.58h11.08a1.5,1.5,0,0,1,1.58,1.58v11.08A1.5,1.5,0,0,1,976.28,195.85Zm-9.5-3.17h7.91v-7.91h-7.91Z"/><path class="cls-5" d="M956.66,213.25h-6.33a1.67,1.67,0,0,1-1.43-.79l-3.16-5.54a1.42,1.42,0,0,1,0-1.58l3.16-5.54a1.69,1.69,0,0,1,1.43-.79h6.33a1.67,1.67,0,0,1,1.42.79l3.17,5.54a1.46,1.46,0,0,1,0,1.58l-3.17,5.54A1.65,1.65,0,0,1,956.66,213.25Zm-5.38-3.16h4.43l2.21-4-2.21-3.95h-4.43l-2.22,3.95Z"/><path class="cls-5" d="M977.07,213.25H964.25a1.64,1.64,0,0,1-1.42-.79,1.42,1.42,0,0,1,0-1.58l6.33-11.08a1.62,1.62,0,0,1,2.69,0l6.32,11.08a1.42,1.42,0,0,1,0,1.58C978.17,212.94,977.7,213.25,977.07,213.25Zm-10-3.16h7.28l-3.64-6.33Z"/></g></svg>