<svg xmlns="http://www.w3.org/2000/svg" viewBox="0 0 1152 648"><defs><style>.cls-1{fill:#ff5e3f;}.cls-2{font-size:28px;font-family:Inter-Medium, Inter;font-weight:500;}.cls-3{fill:#ff956d;}.cls-4{fill:none;}</style></defs><g id="Layer_1" data-name="Layer 1"><rect class="cls-1" width="1152" height="648"/><text class="cls-2" transform="translate(309.2 67.97)">24px</text><text class="cls-2" transform="translate(83.21 368.87) rotate(-90)">24px</text><text class="cls-2" transform="translate(836.02 135.88)">16px</text><text class="cls-2" transform="translate(683.26 366.86) rotate(-90)">16px</text><rect class="cls-3" x="152.11" y="98.26" width="1" height="451.48"/><rect class="cls-3" x="170.92" y="98.26" width="1" height="451.48"/><rect class="cls-3" x="189.74" y="98.26" width="1" height="451.48"/><rect class="cls-3" x="208.55" y="98.26" width="1" height="451.48"/><rect class="cls-3" x="227.36" y="98.26" width="1" height="451.48"/><rect class="cls-3" x="246.17" y="98.26" width="1" height="451.48"/><rect class="cls-3" x="264.98" y="98.26" width="1" height="451.48"/><rect class="cls-3" x="283.79" y="98.26" width="1" height="451.48"/><rect class="cls-3" x="302.61" y="98.26" width="1" height="451.48"/><rect class="cls-3" x="321.42" y="98.26" width="1" height="451.48"/><rect class="cls-3" x="340.23" y="98.26" width="1" height="451.48"/><rect class="cls-3" x="359.04" y="98.26" width="1" height="451.48"/><rect class="cls-3" x="377.85" y="98.26" width="1" height="451.48"/><rect class="cls-3" x="396.66" y="98.26" width="1" height="451.48"/><rect class="cls-3" x="415.48" y="98.26" width="1" height="451.48"/><rect class="cls-3" x="434.29" y="98.26" width="1" height="451.48"/><rect class="cls-3" x="453.1" y="98.26" width="1" height="451.48"/><rect class="cls-3" x="471.91" y="98.26" width="1" height="451.48"/><rect class="cls-3" x="509.53" y="98.26" width="1" height="451.48"/><rect class="cls-3" x="490.72" y="98.26" width="1" height="451.48"/><rect class="cls-3" x="528.35" y="98.26" width="1" height="451.48"/><rect class="cls-3" x="565.97" y="98.26" width="1" height="451.48"/><rect class="cls-3" x="547.16" y="98.26" width="1" height="451.48"/><rect class="cls-3" x="133.8" y="116.57" width="451.48" height="1"/><rect class="cls-3" x="133.8" y="135.38" width="451.48" height="1"/><rect class="cls-3" x="133.8" y="154.19" width="451.48" height="1"/><rect class="cls-3" x="133.8" y="173.01" width="451.48" height="1"/><rect class="cls-3" x="133.8" y="191.82" width="451.48" height="1"/><rect class="cls-3" x="133.8" y="210.63" width="451.48" height="1"/><rect class="cls-3" x="133.8" y="229.44" width="451.48" height="1"/><rect class="cls-3" x="133.8" y="248.25" width="451.48" height="1"/><rect class="cls-3" x="133.8" y="267.06" width="451.48" height="1"/><rect class="cls-3" x="133.8" y="285.88" width="451.48" height="1"/><rect class="cls-3" x="133.8" y="304.69" width="451.48" height="1"/><rect class="cls-3" x="133.8" y="323.5" width="451.48" height="1"/><rect class="cls-3" x="133.8" y="342.31" width="451.48" height="1"/><rect class="cls-3" x="133.8" y="361.12" width="451.48" height="1"/><rect class="cls-3" x="133.8" y="379.94" width="451.48" height="1"/><rect class="cls-3" x="133.8" y="398.75" width="451.48" height="1"/><rect class="cls-3" x="133.8" y="417.56" width="451.48" height="1"/><rect class="cls-3" x="133.8" y="436.37" width="451.48" height="1"/><rect class="cls-3" x="133.8" y="473.99" width="451.48" height="1"/><rect class="cls-3" x="133.8" y="455.18" width="451.48" height="1"/><rect class="cls-3" x="717.21" y="191.91" width="300.74" height="0.82"/><rect class="cls-3" x="717.21" y="210.72" width="300.74" height="0.82"/><rect class="cls-3" x="717.21" y="229.53" width="300.74" height="0.82"/><rect class="cls-3" x="717.21" y="248.34" width="300.74" height="0.82"/><rect class="cls-3" x="717.21" y="267.16" width="300.74" height="0.82"/><rect class="cls-3" x="717.21" y="285.97" width="300.74" height="0.82"/><rect class="cls-3" x="717.21" y="304.78" width="300.74" height="0.82"/><rect class="cls-3" x="717.21" y="323.59" width="300.74" height="0.82"/><rect class="cls-3" x="717.21" y="342.4" width="300.74" height="0.82"/><rect class="cls-3" x="717.21" y="361.22" width="300.74" height="0.82"/><rect class="cls-3" x="717.21" y="380.03" width="300.74" height="0.82"/><rect class="cls-3" x="717.21" y="398.84" width="300.74" height="0.82"/><rect class="cls-3" x="717.21" y="417.65" width="300.74" height="0.82"/><rect class="cls-3" x="717.21" y="436.46" width="300.74" height="0.82"/><rect class="cls-3" x="717.21" y="455.27" width="300.74" height="0.82"/><rect class="cls-3" x="133.8" y="492.81" width="451.48" height="1"/><rect class="cls-3" x="133.8" y="530.43" width="451.48" height="1"/><rect class="cls-3" x="133.8" y="511.62" width="451.48" height="1"/><rect class="cls-3" x="998.86" y="173.63" width="0.82" height="300.74"/><rect class="cls-3" x="980.04" y="173.63" width="0.82" height="300.74"/><rect class="cls-3" x="961.23" y="173.63" width="0.82" height="300.74"/><rect class="cls-3" x="942.42" y="173.63" width="0.82" height="300.74"/><rect class="cls-3" x="923.61" y="173.63" width="0.82" height="300.74"/><rect class="cls-3" x="904.8" y="173.63" width="0.82" height="300.74"/><rect class="cls-3" x="885.98" y="173.63" width="0.82" height="300.74"/><rect class="cls-3" x="867.17" y="173.63" width="0.82" height="300.74"/><rect class="cls-3" x="848.36" y="173.63" width="0.82" height="300.74"/><rect class="cls-3" x="829.55" y="173.63" width="0.82" height="300.74"/><rect class="cls-3" x="810.74" y="173.63" width="0.82" height="300.74"/><rect class="cls-3" x="791.93" y="173.63" width="0.82" height="300.74"/><rect class="cls-3" x="773.11" y="173.63" width="0.82" height="300.74"/><rect class="cls-3" x="754.3" y="173.63" width="0.82" height="300.74"/><rect class="cls-3" x="735.49" y="173.63" width="0.82" height="300.74"/><circle cx="359.54" cy="286.38" r="37.62"/><path d="M359.54,493.31,227.86,361.63V286.38c0-72.61,59.07-131.69,131.68-131.69s131.68,59.08,131.68,131.69v75.25ZM265.48,346l94.06,94.06L453.6,346V286.38a94.06,94.06,0,0,0-188.12,0Z"/><path d="M867.71,211.13a94.17,94.17,0,0,0-94.06,94.06v56.43l94.06,94.06,94-94.06V305.19A94.16,94.16,0,0,0,867.71,211.13Zm0,131.68a37.63,37.63,0,1,1,37.62-37.62A37.62,37.62,0,0,1,867.71,342.81Z"/><path d="M585.77,550.22H133.32V97.78H585.77Zm-451.49-1H584.8V98.74H134.28Z"/><rect class="cls-4" x="717.21" y="173.51" width="300.99" height="300.99"/><path d="M1018.68,475H716.73V173h301.95Zm-301-1h300V174h-300Z"/></g></svg>