<svg xmlns="http://www.w3.org/2000/svg" viewBox="0 0 648 648"><defs><style>.cls-1{fill:#dfdddd;}.cls-2{fill:#989594;}.cls-3{fill:#fff;}.cls-4{fill:#fd5d41;}</style></defs><g id="Layer_1" data-name="Layer 1"><rect class="cls-1" width="648" height="648"/><path class="cls-2" d="M259.2,129.6H388.8a64.8,64.8,0,0,1,64.8,64.8h0a64.8,64.8,0,0,1-64.8,64.8H259.2a64.8,64.8,0,0,1-64.8-64.8h0A64.8,64.8,0,0,1,259.2,129.6Z"/><circle class="cls-3" cx="259.2" cy="194.4" r="54"/><path class="cls-4" d="M259.2,388.8H388.8a64.8,64.8,0,0,1,64.8,64.8h0a64.8,64.8,0,0,1-64.8,64.8H259.2a64.8,64.8,0,0,1-64.8-64.8h0A64.8,64.8,0,0,1,259.2,388.8Z"/><circle class="cls-3" cx="388.8" cy="453.6" r="54"/></g></svg>