<svg xmlns="http://www.w3.org/2000/svg" viewBox="0 0 1152 648"><defs><style>.cls-1{fill:none;}</style></defs><g id="Layer_1" data-name="Layer 1"><path d="M164,111H116a3,3,0,0,1,0-6h48a3,3,0,0,1,0,6Z"/><path d="M164,129H116a3,3,0,0,1,0-6h48a3,3,0,0,1,0,6Z"/><path d="M164,93H116a3,3,0,0,1,0-6h48a3,3,0,0,1,0,6Z"/><rect class="cls-1" x="103.99" y="72" width="72" height="72"/><path d="M298.39,130.67a9,9,0,0,1-9-9V94.34a9,9,0,0,1,13.46-7.82l23.91,13.67a9,9,0,0,1,0,15.62l-23.91,13.66A9,9,0,0,1,298.39,130.67Zm0-39.34a3.17,3.17,0,0,0-1.52.41,3,3,0,0,0-1.49,2.6v27.32a3,3,0,0,0,4.48,2.61l23.91-13.67a3,3,0,0,0,0-5.2L299.88,91.73A2.92,2.92,0,0,0,298.41,91.33Z"/><rect class="cls-1" x="274.39" y="72" width="72" height="72"/><path d="M471.8,138V109.24l-12-12V90a9,9,0,0,1,9-9h24a9,9,0,0,1,9,9v7.24l-12,12v18.5Zm-6-43.26,12,12v20.93l6-3.43v-17.5l12-12V90a3,3,0,0,0-3-3h-24a3,3,0,0,0-3,3Z"/><rect class="cls-1" x="444.8" y="72" width="72" height="72"/><path d="M689.2,129h-36a9,9,0,0,1-9-9V87h54v33A9,9,0,0,1,689.2,129Zm-39-36v27a3,3,0,0,0,3,3h36a3,3,0,0,0,3-3V93Z"/><path d="M671.2,117,645.3,95.65A3,3,0,0,1,649.11,91l22.09,18.2L693.29,91a3,3,0,1,1,3.82,4.64Z"/><rect class="cls-1" x="635.2" y="72" width="72" height="72"/><circle cx="841.61" cy="534" r="6"/><path d="M841.61,567l-21-21V534a21,21,0,0,1,42,0v12Zm-15-23.48,15,15,15-15V534a15,15,0,0,0-30,0Z"/><rect class="cls-1" x="805.61" y="504" width="72" height="72"/><path d="M131,255.27a15,15,0,1,1,15-15A15,15,0,0,1,131,255.27Zm0-24a9,9,0,1,0,9,9A9,9,0,0,0,131,231.27Z"/><path d="M149,285.27a3,3,0,0,1-3-3,15,15,0,1,0-30,0,3,3,0,0,1-6,0,21,21,0,1,1,42,0A3,3,0,0,1,149,285.27Z"/><path d="M149,285.27a3,3,0,0,1-3-3,15,15,0,1,0-30,0,3,3,0,0,1-6,0,21,21,0,1,1,42,0A3,3,0,0,1,149,285.27Z"/><path d="M167,261.27H149a3,3,0,1,1,0-6h18a3,3,0,1,1,0,6Z"/><path d="M158,270.27a3,3,0,0,1-3-3v-18a3,3,0,1,1,6,0v18A3,3,0,0,1,158,270.27Z"/><rect class="cls-1" x="103.99" y="219.27" width="72" height="72"/><path d="M310.4,255.27a15,15,0,1,1,15-15A15,15,0,0,1,310.4,255.27Zm0-24a9,9,0,1,0,9,9A9,9,0,0,0,310.4,231.27Z"/><path d="M328.4,285.27a3,3,0,0,1-3-3,15,15,0,0,0-30,0,3,3,0,0,1-6,0,21,21,0,0,1,42,0A3,3,0,0,1,328.4,285.27Z"/><path d="M328.4,285.27a3,3,0,0,1-3-3,15,15,0,0,0-30,0,3,3,0,0,1-6,0,21,21,0,0,1,42,0A3,3,0,0,1,328.4,285.27Z"/><rect class="cls-1" x="274.39" y="219.27" width="72" height="72"/><path d="M465.8,255.27a12,12,0,1,1,12-12A12,12,0,0,1,465.8,255.27Zm0-18a6,6,0,1,0,6,6A6,6,0,0,0,465.8,237.27Z"/><path d="M483.8,282.27a3,3,0,0,1-3-3,15,15,0,0,0-30,0,3,3,0,0,1-6,0,21,21,0,0,1,42,0A3,3,0,0,1,483.8,282.27Z"/><path d="M495.8,255.27a12,12,0,1,1,12-12A12,12,0,0,1,495.8,255.27Zm0-18a6,6,0,1,0,6,6A6,6,0,0,0,495.8,237.27Z"/><path d="M513.8,282.27a3,3,0,0,1-3-3,15,15,0,0,0-22.5-13,3,3,0,1,1-3-5.19,21,21,0,0,1,31.5,18.19A3,3,0,0,1,513.8,282.27Z"/><rect class="cls-1" x="444.8" y="219.27" width="72" height="72"/><path d="M683.2,282.27h-24a12,12,0,0,1-12-12v-33h48v33A12,12,0,0,1,683.2,282.27Zm-30-39v27a6,6,0,0,0,6,6h24a6,6,0,0,0,6-6v-27Z"/><path d="M680.2,252.27a3,3,0,0,1-3-3v-12a6,6,0,1,0-12,0v12a3,3,0,0,1-6,0v-12a12,12,0,1,1,24,0v12A3,3,0,0,1,680.2,252.27Z"/><rect class="cls-1" x="635.2" y="219.27" width="72" height="72"/><path d="M823.61,99a9,9,0,1,1,9-9A9,9,0,0,1,823.61,99Zm0-12a3,3,0,1,0,3,3A3,3,0,0,0,823.61,87Z"/><path d="M823.61,135a9,9,0,1,1,9-9A9,9,0,0,1,823.61,135Zm0-12a3,3,0,1,0,3,3A3,3,0,0,0,823.61,123Z"/><path d="M859.61,117a9,9,0,1,1,9-9A9,9,0,0,1,859.61,117Zm0-12a3,3,0,1,0,3,3A3,3,0,0,0,859.61,105Z"/><rect x="838.61" y="84.87" width="6" height="28.26" transform="translate(376.67 807.48) rotate(-63.43)"/><rect x="827.48" y="114" width="28.26" height="6" transform="translate(36.53 388.73) rotate(-26.57)"/><rect class="cls-1" x="805.61" y="72" width="72" height="72"/><path d="M820.61,423V381a12,12,0,0,1,12-12h18a12,12,0,0,1,12,12v42l-21-9Zm21-15.51,15,6.42V381a6,6,0,0,0-6-6h-18a6,6,0,0,0-6,6v32.9Z"/><rect class="cls-1" x="805.61" y="360" width="72" height="72"/><path d="M1030,135H994a9,9,0,0,1-9-9V90a9,9,0,0,1,9-9h36a9,9,0,0,1,9,9v36A9,9,0,0,1,1030,135ZM994,87a3,3,0,0,0-3,3v36a3,3,0,0,0,3,3h36a3,3,0,0,0,3-3V90a3,3,0,0,0-3-3Z"/><rect class="cls-1" x="976.01" y="72" width="72" height="72"/><path d="M134,414a24,24,0,1,1,24-24A24,24,0,0,1,134,414Zm0-42a18,18,0,1,0,18,18A18,18,0,0,0,134,372Z"/><path d="M167,426a3,3,0,0,1-2.12-.88l-9-9a3,3,0,0,1,4.24-4.24l9,9a3,3,0,0,1,0,4.24A3,3,0,0,1,167,426Z"/><rect class="cls-1" x="103.99" y="360" width="72" height="72"/><path d="M310.4,396a12,12,0,0,1-12-12,3,3,0,0,1,6,0,6,6,0,0,0,12,0,3,3,0,0,1,6,0A12,12,0,0,1,310.4,396Z"/><path d="M328.4,396a12,12,0,0,1-12-12h6a6,6,0,0,0,12,.55l-4-9.55H290.42l-4,9.55a6,6,0,0,0,12-.55h6a12,12,0,0,1-24,0v-.6l6-14.4h47.93l6,14.4v.6A12,12,0,0,1,328.4,396Z"/><path d="M334.4,423h-48V405h48Zm-42-6h36v-6h-36Z"/><rect x="286.4" y="390" width="6" height="15"/><rect x="328.4" y="393" width="6" height="12"/><rect class="cls-1" x="274.39" y="360" width="72" height="72"/><path d="M510.8,403.25a3,3,0,0,1-2.12-.88L480.8,374.49l-27.88,27.88a3,3,0,0,1-4.24-4.24L480.8,366l32.12,32.12a3,3,0,0,1-2.12,5.12Z"/><path d="M495.8,423h-30a9,9,0,0,1-9-9V390h6v24a3,3,0,0,0,3,3h30a3,3,0,0,0,3-3V390h6v24A9,9,0,0,1,495.8,423Z"/><rect class="cls-1" x="444.8" y="360" width="72" height="72"/><path d="M859.61,270.27h-18a3,3,0,0,1,0-6h18a3,3,0,1,1,0,6Z"/><path d="M850.61,279.27a3,3,0,0,1-3-3v-18a3,3,0,0,1,6,0v18A3,3,0,0,1,850.61,279.27Z"/><path d="M838.61,282.27h-9a12,12,0,0,1-12-12v-33h48v18a3,3,0,0,1-6,0v-12h-36v27a6,6,0,0,0,6,6h9a3,3,0,1,1,0,6Z"/><path d="M850.61,252.27a3,3,0,0,1-3-3v-12a6,6,0,0,0-12,0v12a3,3,0,1,1-6,0v-12a12,12,0,0,1,24,0v12A3,3,0,0,1,850.61,252.27Z"/><rect class="cls-1" x="805.61" y="219.27" width="72" height="72"/><rect class="cls-1" x="805.61" y="219.27" width="72" height="72"/><path d="M692.2,423.05h-42a9,9,0,0,1-9-9v-27a9,9,0,0,1,9-9h42a9,9,0,0,1,9,9v27A9,9,0,0,1,692.2,423.05Zm-42-39a3,3,0,0,0-3,3v27a3,3,0,0,0,3,3h42a3,3,0,0,0,3-3v-27a3,3,0,0,0-3-3Z"/><polygon points="648.74 384.4 646.8 378.73 688.04 364.65 693.7 380.18 688.06 382.23 684.42 372.23 648.74 384.4"/><circle cx="684.7" cy="400.5" r="4.5"/><rect class="cls-1" x="635.2" y="360" width="72" height="72"/><path d="M310.4,564.21l-22.61-22.6A15,15,0,1,1,310.4,522a15,15,0,0,1,27,9,15.14,15.14,0,0,1-4.4,10.61ZM298.4,522A9,9,0,0,0,292,537.36l18.37,18.37,18.36-18.37A9,9,0,1,0,313.4,531h-6A9,9,0,0,0,298.4,522Z"/><circle cx="310.4" cy="531" r="3"/><rect class="cls-1" x="274.39" y="504" width="72" height="72"/><path d="M489.8,567h-24a12,12,0,0,1-12-12V531a12,12,0,0,1,12-12h9a3,3,0,0,1,0,6h-9a6,6,0,0,0-6,6v24a6,6,0,0,0,6,6h24a6,6,0,0,0,6-6v-9a3,3,0,0,1,6,0v9A12,12,0,0,1,489.8,567Z"/><path d="M477.8,555h-12V543l30.39-30.46a8.49,8.49,0,0,1,12,12Zm-6-6h3.52l28.62-28.7a2.49,2.49,0,0,0-3.51-3.52l-28.63,28.7Z"/><rect class="cls-1" x="444.8" y="504" width="72" height="72"/><path d="M683.2,567h-24a9,9,0,0,1-9-9V534h42v24A9,9,0,0,1,683.2,567Zm-27-27v18a3,3,0,0,0,3,3h24a3,3,0,0,0,3-3V540Z"/><rect x="668.2" y="540" width="6" height="27"/><path d="M698.2,540h-54v-9a9,9,0,0,1,9-9h36a9,9,0,0,1,9,9Zm-48-6h42v-3a3,3,0,0,0-3-3h-36a3,3,0,0,0-3,3Z"/><path d="M677.2,528a3,3,0,0,1,0-6,3,3,0,1,0-3-3,3,3,0,0,1-6,0,9,9,0,1,1,9,9Z"/><path d="M671.2,528a3,3,0,0,1-3-3v-6a3,3,0,1,0-3,3,3,3,0,0,1,0,6,9,9,0,1,1,9-9v6A3,3,0,0,1,671.2,528Z"/><rect class="cls-1" x="635.2" y="504" width="72" height="72"/><path d="M1042,426l-15.8-9H1009a14.91,14.91,0,0,1-10.61-4.39,3,3,0,0,1,4.25-4.25A8.87,8.87,0,0,0,1009,411h18.8l8.2,4.69V396a8.93,8.93,0,0,0-2.64-6.36,3,3,0,1,1,4.24-4.25A14.88,14.88,0,0,1,1042,396Z"/><path d="M982,414V378a9,9,0,0,1,9-9h30a9,9,0,0,1,9,9v18a9,9,0,0,1-9,9h-23.2Zm9-39a3,3,0,0,0-3,3v25.69l8.2-4.69H1021a3,3,0,0,0,3-3V378a3,3,0,0,0-3-3Z"/><rect class="cls-1" x="976.01" y="360" width="72" height="72"/><path d="M1009,558l-12-6.93L985,558V537a9,9,0,0,1,9-9h6a9,9,0,0,1,9,9Zm-12-13.86,6,3.46V537a3,3,0,0,0-3-3h-6a3,3,0,0,0-3,3v10.61Z"/><path d="M1027,567h-24a9,9,0,0,1-9-9,3,3,0,0,1,6,0,3,3,0,0,0,3,3h24a3,3,0,0,0,3-3V527.49l-8.49-8.49H1003a3,3,0,0,0-3,3,3,3,0,0,1-6,0,9,9,0,0,1,9-9h21l12,12v33A9,9,0,0,1,1027,567Z"/><rect class="cls-1" x="976.01" y="504" width="72" height="72"/><circle cx="1012.01" cy="255.27" r="9"/><path d="M1012,273.27a33.1,33.1,0,0,1-28.55-16.5l-.87-1.5.87-1.51a33,33,0,0,1,57.1,0l.87,1.51-.87,1.5A33.12,33.12,0,0,1,1012,273.27Zm-22.42-18a26.94,26.94,0,0,0,44.84,0,26.94,26.94,0,0,0-44.84,0Z"/><rect class="cls-1" x="976.01" y="219.27" width="72" height="72"/><path d="M149,537H131a3,3,0,0,1,0-6h18a3,3,0,0,1,0,6Z"/><path d="M149,549H137a3,3,0,0,1,0-6h12a3,3,0,0,1,0,6Z"/><path d="M152,567H128a9,9,0,0,1-9-9V522a9,9,0,0,1,9-9h21l12,12v33A9,9,0,0,1,152,567Zm-24-48a3,3,0,0,0-3,3v36a3,3,0,0,0,3,3h24a3,3,0,0,0,3-3V527.49L146.51,519Z"/><rect class="cls-1" x="103.99" y="504" width="72" height="72"/></g></svg>