<svg xmlns="http://www.w3.org/2000/svg" xmlns:xlink="http://www.w3.org/1999/xlink" viewBox="0 0 648 648"><defs><style>.cls-1{fill:none;}.cls-2{fill:#dfdddd;}.cls-3{fill:#fff;}.cls-4{fill:#b7b7b7;}.cls-5{fill:#837f7f;}.cls-11,.cls-6,.cls-7{fill:#fd5d41;}.cls-11,.cls-7{isolation:isolate;}.cls-7{opacity:0.15;}.cls-8{fill:#f4f4f4;}.cls-9{fill:#565453;}.cls-10{clip-path:url(#clip-path);}.cls-11{opacity:0.13;}</style><clipPath id="clip-path"><rect class="cls-1" x="351.16" y="298.11" width="20.71" height="21.15"/></clipPath></defs><g id="Layer_1" data-name="Layer 1"><rect class="cls-2" width="648" height="648"/><rect class="cls-3" x="340.8" y="85.8" width="258.91" height="476.4"/><path class="cls-1" d="M340.8,85.8H599.72V344.71H340.8Z"/><path class="cls-4" d="M340.8,85.8H599.72V344.71H340.8Z"/><path class="cls-3" d="M526.79,269.87c-2.48-4.3-9.09-4.53-12.35,1.44a16.73,16.73,0,0,1-5.33,6.25l-2.9-4.85,5.57-3.11-18.35-44.39a27.38,27.38,0,0,0,2.73-2.55c4.37-4.79,9.1-13.4,6.79-27.34-.8-4.23-1.29-8,.78-11.3,3.72-6,1.91-10.42-.77-12.44-4.89-3.68-10.47-.83-13.59,2.38l-1.28-18.23c-.26-3.66-1.64-6.83-3.79-8.69a8.26,8.26,0,0,0-9.63-.73l-.06-.75a12.72,12.72,0,0,0-3.94-8.77,7.75,7.75,0,0,0-5.84-1.85c-4.46.41-7.42,4.62-8.11,9.09a7.8,7.8,0,0,0-4.05-.68c-5.92.57-8.62,6.41-8.23,11.89l.61,8.64a6.41,6.41,0,0,0-2.86-.33c-4.89.55-7.76,5.09-7.31,11.58l1.93,27.26h0l0,.55c0,.05,0,.1,0,.16,1.1,13,6.51,20.54,11.49,24.78a28.33,28.33,0,0,1-1.11,9.79c-2.33,7.84-7.78,13.57-16.13,17l-2.24.84L413,260.4l4.81,16.09,4.54-.56c-1.38,3-2.46,7.59-.67,13.86,1.6,5.58,6.48,6.22,9.22,4.88,3.61-1.78,5.55-5.56,2.17-10.81-3.62-5.62-2.53-8.08-1.48-9.07l.6-.07,1.4,4.42,1.83.11q1.9.12,3.69.12c25,0,31.39-16.34,31.66-17.07a2.67,2.67,0,1,0-5-1.88c-.06.15-5.64,14.23-28.2,13.58l-2.18-6.9-2.34-7.43h0c16.86-6.94,20.14-20.66,20.59-28.23a20.65,20.65,0,0,0,3.66,1.49,2.76,2.76,0,0,0,.57.06,2.67,2.67,0,0,0,.58-5.28c-.15,0-14.81-4.21-16.33-25.68l-1.92-27.27c0-.57-.31-5.57,2.57-5.89a1.21,1.21,0,0,1,1,.34c1,.86,1.85,3,2,5.16L447,190.85a2.67,2.67,0,1,0,5.33-.38l-1-13.62h0l-1.55-22c-.16-2.34.6-5.92,3.4-6.19a2.47,2.47,0,0,1,1.91.58,7.7,7.7,0,0,1,2,5.09v0L459,180.19a2.67,2.67,0,0,0,2.66,2.48h.2a2.66,2.66,0,0,0,2.47-2.85l-2.35-33.36c-.2-2.89,1.51-6,3.39-6.18a2.41,2.41,0,0,1,1.89.59,7.65,7.65,0,0,1,2.07,5.08l2.36,33.35a2.67,2.67,0,1,0,5.33-.37l-1.57-22.2a.27.27,0,0,0,0-.09c-.16-2.29.61-6,3.34-6.18a2.66,2.66,0,0,1,2.06.63,7.65,7.65,0,0,1,2,5l2.34,33.26h0v0l.47,6.75a2.93,2.93,0,0,0,.05.29l0,.19a2.41,2.41,0,0,0,.16.42.08.08,0,0,0,0,.05,2.66,2.66,0,0,0,2,1.49h.14a3,3,0,0,0,.31,0h.19l.23,0,.26,0a1.84,1.84,0,0,0,.25-.09l.24-.09.22-.13a1.7,1.7,0,0,0,.22-.15l.19-.16.19-.18.15-.2a1.7,1.7,0,0,0,.15-.22.91.91,0,0,0,.11-.22,2.56,2.56,0,0,0,.11-.24,2,2,0,0,0,.07-.26,1.83,1.83,0,0,0,.06-.25c0-.09,0-.19,0-.28s0-.15,0-.22c-.05-1.1-.23-3.54-.37-5.32l-.11-1.53v0c-.33-4.65.4-8.3,2.11-10.55.81-1.08,4.43-4.67,7.2-2.59,1.18.89,1,2.89-.56,5.33-3.33,5.34-2.23,11.23-1.51,15.07,1.95,11.77-1.89,18.89-5.47,22.8A21.4,21.4,0,0,1,488.9,222a2.19,2.19,0,0,0-.53.37,17.69,17.69,0,0,1-10.52,3.25,2.67,2.67,0,1,0-.4,5.33c.41,0,.82,0,1.24,0a22.34,22.34,0,0,0,10.2-2.75l11.87,28.7c-.49,1-2,3.29-6.38,4.16a2.68,2.68,0,0,0,.52,5.3,2.33,2.33,0,0,0,.53-.06,15.15,15.15,0,0,0,7.66-3.75l1.94,4.67-1.56.87h0l-7.06,3.94L492,274.55l-25.76-34.41a2.67,2.67,0,1,0-4.28,3.2l25.33,33.84h0L501,295.6l14.14-7.88-2-3.41a24.72,24.72,0,0,0,9.51-3.7C528.08,276.91,528.13,272.19,526.79,269.87Z"/><path class="cls-3" d="M458.9,256.31a3.2,3.2,0,0,1-2.6,3.3,2.67,2.67,0,0,0,.48,5.3,2.61,2.61,0,0,0,.48-.05,8.57,8.57,0,0,0,7-8.64,2.64,2.64,0,0,0-2.72-2.63A2.68,2.68,0,0,0,458.9,256.31Z"/><path class="cls-3" d="M460.65,189.9c-1.42.38-2.26,2.41-1.88,4.53s1.83,3.52,3.24,3.14,2.26-2.41,1.88-4.53S462.06,189.52,460.65,189.9Z"/><path class="cls-3" d="M479.61,197.57c1.41-.38,2.25-2.41,1.87-4.53s-1.83-3.52-3.24-3.14-2.26,2.41-1.88,4.53S478.19,198,479.61,197.57Z"/><path class="cls-3" d="M464.3,209.47a2.66,2.66,0,0,0,2.65,2.41h.27l8.92-.88-3.07-13.81a2.67,2.67,0,0,0-5.22,1.16l1.77,7.92-2.93.29A2.66,2.66,0,0,0,464.3,209.47Z"/><path class="cls-3" d="M462.51,218.11a2.66,2.66,0,0,0,.95,3.66,14.07,14.07,0,0,0,7.18,2,14.22,14.22,0,0,0,12.27-7A2.67,2.67,0,0,0,478.3,214a8.86,8.86,0,0,1-12.13,3.15A2.67,2.67,0,0,0,462.51,218.11Z"/><path class="cls-5" d="M575.12,392.61l-1.3-3.88H560.88l-1.3,3.88a2.5,2.5,0,0,0,1.3,2.2v9.45h12.94v-9.45A2.5,2.5,0,0,0,575.12,392.61Zm-2.59,6.47H562.17V395.2a2.59,2.59,0,0,1,5.18,0,2.59,2.59,0,1,1,5.18,0Z"/><path d="M431.24,379.46a13.24,13.24,0,0,0,3.37-2,5,5,0,0,0,1.54-2l-.58-5,1.4-.27c.12,1.18.21,2.2.29,3s.1,1.48.1,1.92a4.58,4.58,0,0,1-1.3,3.08,11,11,0,0,1-3.9,2.63Zm8.62-16.33,1.42-.23.12,12.88-1.19.17ZM449.3,374s.05.05.08.14a1.18,1.18,0,0,1,.05.35v.83a1.23,1.23,0,0,1-.05.35c0,.08-.05.12-.08.12h-.78a2.73,2.73,0,0,1-1.12-.22,1.94,1.94,0,0,1-.81-.65v.2a4.59,4.59,0,0,1-1.31,3.08,11,11,0,0,1-3.9,2.63l-.92-1.36a13.07,13.07,0,0,0,3.37-2,5,5,0,0,0,1.54-2l-.58-5,1.4-.27.27,2.53c.08.87.77,1.31,2.06,1.31Zm4-7.65a2.23,2.23,0,0,1,2.16,1.47,8,8,0,0,1,.67,3.33,18.13,18.13,0,0,1-.11,2.25,2.79,2.79,0,0,1-.37,1.21,1.71,1.71,0,0,1-.76.66,6.15,6.15,0,0,1-1.79.41c-.73.08-2,.11-3.83.11t-.09-.12a1.83,1.83,0,0,1,0-.35v-.83a1.75,1.75,0,0,1,0-.35c0-.09.06-.14.09-.14,1.7,0,2.94,0,3.74-.07a7.53,7.53,0,0,0,1.79-.31,6.76,6.76,0,0,0,.08-1.2,9.88,9.88,0,0,1-2.09.2,5.33,5.33,0,0,1-1.32-.13,1.52,1.52,0,0,1-.82-.58,3.18,3.18,0,0,1-.31-.52,2.4,2.4,0,0,1-.07-.62,6.7,6.7,0,0,1,.31-2,4.13,4.13,0,0,1,1-1.72A2.34,2.34,0,0,1,453.33,366.34Zm-1.81,4.51a3.92,3.92,0,0,0,1.5.24,7.58,7.58,0,0,0,1.9-.18,4.66,4.66,0,0,0-.45-2.32,1.39,1.39,0,0,0-1.29-.76,1.38,1.38,0,0,0-1.21.85A4.54,4.54,0,0,0,451.52,370.85Zm.38-8.7,1.23,1-1,1.25-1.25-1Zm2.33,0,1.26,1-1,1.25-1.23-1ZM465.3,374s.07.05.09.14a1.2,1.2,0,0,1,0,.35v.83a1.25,1.25,0,0,1,0,.35q0,.12-.09.12h-.36a3.64,3.64,0,0,1-2.61-.81,4.06,4.06,0,0,1-.89-2.74l-.23-9.1,1.41-.23.09,9.31a1.62,1.62,0,0,0,.56,1.36,2.48,2.48,0,0,0,1.51.42Zm12.29,0s.05.05.07.14a.91.91,0,0,1,.06.35v.83a1,1,0,0,1-.06.35c0,.08,0,.12-.07.12h-1.85a4.45,4.45,0,0,1-2.26-.52,2.28,2.28,0,0,1-1.09-1.69l-.87.53a14.65,14.65,0,0,1-2.7,1.25,9.38,9.38,0,0,1-3,.43h-.55s-.06,0-.09-.12a1.83,1.83,0,0,1,0-.35v-.83a1.75,1.75,0,0,1,0-.35c0-.09.06-.14.09-.14H466a10.49,10.49,0,0,0,4.76-1.22q.58-.28.87-.45c.47-.25.86-.45,1.15-.58a4.67,4.67,0,0,1,.87-.29,7.3,7.3,0,0,1-1.11-.29q-.58-.2-1.47-.54c-.65-.24-1.13-.41-1.45-.51a2.45,2.45,0,0,0-.8-.16.81.81,0,0,0-.7.32,2.35,2.35,0,0,0-.35,1l-1.08-.2a5.16,5.16,0,0,1,.7-2,1.62,1.62,0,0,1,1.42-.7,3.71,3.71,0,0,1,1.17.22c.45.14,1.06.36,1.82.67,1.05.41,1.94.73,2.66,1a7.91,7.91,0,0,0,2.16.32l-.29,1.51a8.63,8.63,0,0,0-3,1,1.45,1.45,0,0,0,1.07.75,10.78,10.78,0,0,0,2.25.18Zm-6.67,3.73,1.36,1.07-1,1.29L469.89,379Zm13-3.73s.05.05.08.14a1.18,1.18,0,0,1,0,.35v.83a1.23,1.23,0,0,1,0,.35c0,.08-.05.12-.08.12a6.2,6.2,0,0,1-2.1-.27,1.59,1.59,0,0,1-.94-.87,1.9,1.9,0,0,1-1.12.87,6.93,6.93,0,0,1-2.14.27s-.07,0-.09-.12a1.25,1.25,0,0,1,0-.35v-.83a1.2,1.2,0,0,1,0-.35c0-.09.05-.14.09-.14a9.21,9.21,0,0,0,1.52-.11,3.34,3.34,0,0,0,1.14-.44l-.36-3.57,1.36-.14.23,3.77A4.45,4.45,0,0,0,483.89,374Zm-3.62-8.5,1.36,1.07-1,1.28-1.36-1.07Zm8.09,3.51c.13,2.06.19,3.53.19,4.43a1.89,1.89,0,0,1-.24.92,2,2,0,0,1-.71.71,5.81,5.81,0,0,1-1.65.54,11.13,11.13,0,0,1-2.06.18s-.07,0-.09-.12a1.25,1.25,0,0,1,0-.35v-.83a1.2,1.2,0,0,1,0-.35c0-.09.05-.14.09-.14a16.13,16.13,0,0,0,2-.11,4,4,0,0,0,1.48-.49l-.34-4.13Zm-3.95,8.72,1.24,1-1,1.25-1.25-1Zm2.34,0,1.25,1L487,380l-1.24-1Zm4.3-14.59,1.41-.23.13,12.88-1.2.17Zm4,16.33a13.24,13.24,0,0,0,3.37-2,5.08,5.08,0,0,0,1.54-2l-.58-5,1.39-.27c.12,1.18.22,2.2.29,3s.11,1.48.11,1.92a4.58,4.58,0,0,1-1.3,3.08,11,11,0,0,1-3.9,2.63Zm12.68-12.41a12.14,12.14,0,0,1,2.68,3.51,7.38,7.38,0,0,1,.78,3.1,1.78,1.78,0,0,1-1.3,1.67,8.14,8.14,0,0,1-3.14.54,6.79,6.79,0,0,1-1.92-.21,1.51,1.51,0,0,1-.91-.77,3.53,3.53,0,0,1-.25-1.5,7.56,7.56,0,0,1,0-.91l1.08.09v.35a2.12,2.12,0,0,0,.11.81.68.68,0,0,0,.51.29,10.38,10.38,0,0,0,1.38.06,11.18,11.18,0,0,0,1.79-.15,5.16,5.16,0,0,0,1.4-.36,6.1,6.1,0,0,0-.91-2.63,13.62,13.62,0,0,0-2.27-2.72Zm7.64,7.92a18.13,18.13,0,0,0,3.41-.87,5.1,5.1,0,0,0,1.89-1.05l-.42-9.92,1.41-.23.22,10a2.77,2.77,0,0,1-1.85,2.53,14,14,0,0,1-4.44,1.29Zm1.85-1.43a23.78,23.78,0,0,0-.47-4.52,11.31,11.31,0,0,0-1.68-4.27l1.07-.93a14.07,14.07,0,0,1,1.75,4.6,24.76,24.76,0,0,1,.49,4.84Zm11.31.45s.06.05.09.14a1.75,1.75,0,0,1,0,.35v.83a1.83,1.83,0,0,1,0,.35q0,.12-.09.12h-.37a3.6,3.6,0,0,1-2.6-.81,4,4,0,0,1-.89-2.74l-.24-9.1,1.42-.23.09,9.31a1.59,1.59,0,0,0,.56,1.36,2.43,2.43,0,0,0,1.5.42Zm2.21-7.56a9,9,0,0,1,3,3.53,9.2,9.2,0,0,1,.76,3.63c0,.79-.51,1.35-1.54,1.68a14.84,14.84,0,0,1-4.47.51s-.07,0-.09-.12a1.25,1.25,0,0,1,0-.35v-.83a1.2,1.2,0,0,1,0-.35c0-.09.05-.14.09-.14a14.47,14.47,0,0,0,4.76-.55,6.67,6.67,0,0,0-1.14-3.48,11.7,11.7,0,0,0-3.35-3.09l.09-1.53A43.94,43.94,0,0,1,535,362.9l.18,1.48a31.29,31.29,0,0,0-4.69,1.83A1.54,1.54,0,0,1,530.72,366.43Zm13.48,13.36a5.23,5.23,0,0,1-3.3-.84,3.07,3.07,0,0,1-1-2.53,12.16,12.16,0,0,1,.17-1.44c.11-.71.24-1.57.4-2.59,0-.24.07-.47.1-.7s.08-.49.11-.73l1.13.22a46.77,46.77,0,0,0-.69,5,1.42,1.42,0,0,0,.83,1.36,5,5,0,0,0,2.27.43q3.06,0,4.29-1l-.63-6.89,1.38-.29q.46,5.63.47,7.42a1.63,1.63,0,0,1-.8,1.34,5.82,5.82,0,0,1-2.07.87A11.93,11.93,0,0,1,544.2,379.79Zm.34-13,1.36,1.07-1,1.28L543.51,368Zm7.68-3.63,1.41-.23.13,12.88-1.2.17Zm11,10.86s.07.05.09.14a1.2,1.2,0,0,1,0,.35v.83a1.25,1.25,0,0,1,0,.35q0,.12-.09.12h-1.59a6.19,6.19,0,0,1-1.8,3,10.09,10.09,0,0,1-3.31,2.08l-.94-1.36a11,11,0,0,0,3.09-1.68,5.31,5.31,0,0,0,1.76-2.16,10.54,10.54,0,0,1-2,.16,5.18,5.18,0,0,1-1.31-.14,1.51,1.51,0,0,1-.81-.56,2.57,2.57,0,0,1-.31-.51,2.08,2.08,0,0,1-.08-.64,7,7,0,0,1,.31-2,4.24,4.24,0,0,1,1-1.72,2.28,2.28,0,0,1,1.72-.71,2.19,2.19,0,0,1,2.09,1.34,7.68,7.68,0,0,1,.76,3.14Zm-6,0a3.92,3.92,0,0,0,1.48.24,7.67,7.67,0,0,0,1.91-.18,4.56,4.56,0,0,0-.46-2.32,1.38,1.38,0,0,0-1.28-.76,1.34,1.34,0,0,0-1.2.85A4.54,4.54,0,0,0,557.2,374Zm12.34,0s.05.05.07.14a.91.91,0,0,1,.06.35v.83a1,1,0,0,1-.06.35c0,.08-.05.12-.07.12a6.2,6.2,0,0,1-2.1-.27,1.57,1.57,0,0,1-.94-.87,1.93,1.93,0,0,1-1.13.87,6.84,6.84,0,0,1-2.14.27s-.06,0-.09-.12a1.83,1.83,0,0,1,0-.35v-.83a1.75,1.75,0,0,1,0-.35c0-.09.06-.14.09-.14a9.34,9.34,0,0,0,1.53-.11,3.34,3.34,0,0,0,1.14-.44l-.37-3.57,1.36-.14.24,3.77A4.43,4.43,0,0,0,569.54,374Zm-3.62-8.5,1.35,1.07-1,1.28-1.36-1.07Zm11.75,9.26c-1.16.31-2,.54-2.68.67a16.43,16.43,0,0,1-1.94.29c-.66.05-1.56.07-2.7.07h-.82s-.06,0-.09-.12a1.83,1.83,0,0,1,0-.35v-.83a1.75,1.75,0,0,1,0-.35c0-.09.06-.14.09-.14h2.52a5,5,0,0,1-.65-2.34,2.16,2.16,0,0,1,.84-1.79,3.33,3.33,0,0,1,2.17-.67,7.48,7.48,0,0,1,2,.29l-.36,1.41a9.19,9.19,0,0,0-1.78-.18,2.3,2.3,0,0,0-1.65.56,5.46,5.46,0,0,0,.75,2.66,35,35,0,0,0,4.24-.79Z"/><path class="cls-5" d="M478.09,400.49s.06,0,.08.11a.75.75,0,0,1,0,.23v.52a.75.75,0,0,1,0,.23c0,.06-.05.09-.08.09h-.31a3,3,0,0,1-1.26-.24,1.4,1.4,0,0,1-.69-.87,1,1,0,0,1-.7.43,5.34,5.34,0,0,1-1.36.16,2.52,2.52,0,0,1-1.28-.33,1.07,1.07,0,0,1-.58-1,3.39,3.39,0,0,1,.85-2.33,4.35,4.35,0,0,1,2.38-1.26l-.12-1,.88-.26.34,3.73a8.54,8.54,0,0,0,.16,1.05,1,1,0,0,0,.39.55,1.73,1.73,0,0,0,.88.18Zm-4.22-.43a5.39,5.39,0,0,0,.87-.06c.25-.06.51-.13.79-.22l-.28-2.66a3,3,0,0,0-1.44.56,2.74,2.74,0,0,0-.86,1,2.86,2.86,0,0,0-.29,1.06,1.4,1.4,0,0,0,.49.24A2.37,2.37,0,0,0,473.87,400.06Zm7.59-5.94a1.78,1.78,0,0,1,1.77,1.23,7.13,7.13,0,0,1,.51,2.75,15.7,15.7,0,0,1-.07,1.77,2.44,2.44,0,0,1-.28.92,1.4,1.4,0,0,1-.63.46,5.48,5.48,0,0,1-1.52.33q-.92.09-3.15.09c-.06,0-.1-.11-.1-.32v-.52c0-.22,0-.34.1-.34,1.4,0,2.44,0,3.14-.07a5.38,5.38,0,0,0,1.6-.32,7.23,7.23,0,0,0,.06-1.08,9.33,9.33,0,0,1-1.85.17,4.61,4.61,0,0,1-1-.11,1.3,1.3,0,0,1-.7-.44,1.48,1.48,0,0,1-.23-.38,1.66,1.66,0,0,1-.07-.52,5.81,5.81,0,0,1,.25-1.57,3.7,3.7,0,0,1,.8-1.44A1.85,1.85,0,0,1,481.46,394.12Zm-1.62,3.81a2.86,2.86,0,0,0,1.29.23,6.63,6.63,0,0,0,1.77-.17c0-1.91-.51-2.87-1.55-2.87a1.23,1.23,0,0,0-1.1.79A4.42,4.42,0,0,0,479.84,397.93Zm1.43-7.24,1,.76-.75.93-1-.76Zm9.27,9.8s0,0,.06.11a.75.75,0,0,1,0,.23v.52a.75.75,0,0,1,0,.23q0,.09-.06.09h-.72a2.37,2.37,0,0,1-1-.2,1.76,1.76,0,0,1-.7-.56v.33a3.56,3.56,0,0,1-1.13,2.45,9.24,9.24,0,0,1-3.2,2.12l-.61-.89a10.57,10.57,0,0,0,2.86-1.69,3.8,3.8,0,0,0,1.29-1.77l-.45-4.17.92-.18.23,2.22a1.09,1.09,0,0,0,.55.88,2.49,2.49,0,0,0,1.25.28Zm6.82.31c-1,.27-1.71.46-2.23.58a16.81,16.81,0,0,1-1.67.23q-.85.06-2.31.06h-.61c-.06,0-.09-.11-.09-.32v-.52c0-.22,0-.34.09-.34h2.24a4.42,4.42,0,0,1-.62-2.09,1.75,1.75,0,0,1,.65-1.42,2.77,2.77,0,0,1,1.76-.53,6.21,6.21,0,0,1,1.72.24l-.25.93a8.14,8.14,0,0,0-1.54-.16,2.66,2.66,0,0,0-.85.14,1.57,1.57,0,0,0-.65.44,4.93,4.93,0,0,0,.68,2.41,26.57,26.57,0,0,0,3.65-.7ZM493.85,393l1,.76-.75.93-1-.76Zm8.26,13.41a36.06,36.06,0,0,1-.3-4.13,6.28,6.28,0,0,1,.39-2.49c.94-2.15,1.92-3.23,2.92-3.23a1.7,1.7,0,0,1,1.48.82,3.7,3.7,0,0,1,.56,2.13,5.39,5.39,0,0,1-.24,1.6,1.38,1.38,0,0,1-.48.64,1,1,0,0,1-.54.17,1.28,1.28,0,0,1-.47-.1l-2.61-1.18a6.75,6.75,0,0,0-.09,1.25,15.28,15.28,0,0,0,.08,1.6c.06.57.15,1.27.26,2.09a3.89,3.89,0,0,1,.06.44Zm3.9-5.5a2,2,0,0,0,.21-.62,3.44,3.44,0,0,0,.08-.78,2.54,2.54,0,0,0-.34-1.41,1,1,0,0,0-.9-.55,1.22,1.22,0,0,0-.93.48,8.18,8.18,0,0,0-.95,1.64Zm6.53-.44c.06,0,.09.12.09.34v.52c0,.21,0,.32-.09.32h-.25a3,3,0,0,1-2.16-.66,3,3,0,0,1-.73-2.12l-.19-7.84.93-.16.1,8c0,1.07.66,1.61,2,1.61Zm3.7-4.35c.1,1.81.15,3.05.15,3.75a1.22,1.22,0,0,1-.2.68,1.33,1.33,0,0,1-.56.51,5.31,5.31,0,0,1-1.41.45,9.22,9.22,0,0,1-1.68.14c-.06,0-.09-.11-.09-.32v-.52c0-.22,0-.34.09-.34a6.08,6.08,0,0,0,3.05-.57l-.27-3.61Zm-.72-3.27,1,.76-.75.93-1-.76Zm5.25,11.43h-.84l4.6-14.57h.84Zm13.29-3.81s0,0,.06.11a.53.53,0,0,1,0,.23v.52a.53.53,0,0,1,0,.23q0,.09-.06.09h-.71a2.37,2.37,0,0,1-1-.2,1.76,1.76,0,0,1-.7-.56v.33a3.58,3.58,0,0,1-1.14,2.45,9.15,9.15,0,0,1-3.2,2.12l-.6-.89a10.9,10.9,0,0,0,2.86-1.69,4,4,0,0,0,1.29-1.77l-.45-4.17.91-.18.24,2.22a1.1,1.1,0,0,0,.54.88,2.5,2.5,0,0,0,1.26.28Zm7.25,0s.05,0,.07.11a.53.53,0,0,1,0,.23v.52a.53.53,0,0,1,0,.23c0,.06,0,.09-.07.09a18.9,18.9,0,0,1-2.19-.07.87.87,0,0,1,.52.51,2.07,2.07,0,0,1,.19.92v.65a1.93,1.93,0,0,1-.06.53.81.81,0,0,1-.23.38.94.94,0,0,1-.42.28,1.74,1.74,0,0,1-.64.08,2.46,2.46,0,0,1-2.24-.95,5.64,5.64,0,0,1-.81-2.33h-1.36c-.06,0-.1-.11-.1-.32v-.52c0-.22,0-.34.1-.34h1.46a6.89,6.89,0,0,1,.53-1.91,4.66,4.66,0,0,1,1-1.5,1.7,1.7,0,0,1,1.21-.59H539l.16,4Zm-3.11-3.09a1.16,1.16,0,0,0-.9.59,6,6,0,0,0-.7,1.38,5.53,5.53,0,0,0-.3,1.26h1.06a3.12,3.12,0,0,1,1,.11ZM539,403a1.59,1.59,0,0,0-.35-1,1.34,1.34,0,0,0-1.12-.44h-1.29c.07,1.63.83,2.44,2.28,2.44l.48,0Zm11.47-6.87c.1,1.68.15,3,.15,3.92a1.31,1.31,0,0,1-.67,1.23,3.08,3.08,0,0,1-1.54.38,2.43,2.43,0,0,1-1-.18,1.05,1.05,0,0,1-.55-.55,1.14,1.14,0,0,1-.71.56,2.69,2.69,0,0,1-.92.17,2.25,2.25,0,0,1-1-.2,1.16,1.16,0,0,1-.59-.54,1.87,1.87,0,0,1-.95.56,5.33,5.33,0,0,1-1.43.18c-.06,0-.09-.11-.09-.32v-.52c0-.22,0-.34.09-.34a8.61,8.61,0,0,0,1.11-.06,2,2,0,0,0,.82-.33l.06-2.54h.86l-.07,2c0,.6.36.9,1.12.9a2.54,2.54,0,0,0,1.32-.28l-.09-3.26h.86l.06,3.26a1.29,1.29,0,0,0,1,.29,3,3,0,0,0,1.54-.31l-.25-3.87Zm-4-4.44.9.7-.71.9-.9-.7Zm-.88,1.93.9.71-.7.9-.9-.71Zm1.78,0,.9.71-.69.9-.91-.71Z"/><path class="cls-6" d="M371.91,509.71a3.15,3.15,0,0,1-1.09,2.76,4.74,4.74,0,0,1-3.05.93,3.71,3.71,0,0,1-1.86-.5c.16,2.28.25,4.9.25,7.87L364,521a67.39,67.39,0,0,0-.39-7.35q-.39-3.57-1.2-7.48l2.63-.54c.19,1.06.38,2.15.58,3.25a1.23,1.23,0,0,0,.47.87,2.83,2.83,0,0,0,1.35.23,5.14,5.14,0,0,0,2.22-.37l-.48-3.79,2.55-.4Zm15.61,0a3.4,3.4,0,0,1-.47,1.93,3.35,3.35,0,0,1-1.39,1.3,3.88,3.88,0,0,1-1.86.46,3.19,3.19,0,0,1-2.43-.73,3.52,3.52,0,0,1-2.5.73,2.44,2.44,0,0,1-1.39-.44c.16,2.27.25,4.87.25,7.81l-2.18.19a67.39,67.39,0,0,0-.39-7.35q-.39-3.57-1.2-7.48l2.63-.54c.16.87.36,2,.58,3.25a1.53,1.53,0,0,0,.35.85,1.13,1.13,0,0,0,.83.25,5,5,0,0,0,1.74-.27l-.17-3.52,2.38-.19.09,3.86a4.48,4.48,0,0,0,1.16.12,3.76,3.76,0,0,0,1.7-.37l-.5-3.79,2.57-.4Zm4.24,7.48a1.78,1.78,0,0,1,1.34.58,1.81,1.81,0,0,1,.58,1.37,1.95,1.95,0,0,1-1.92,1.9,1.85,1.85,0,0,1-1.53-.62,2.6,2.6,0,0,1-.52-1.7,6.66,6.66,0,0,1,.54-2.48,8.7,8.7,0,0,1,1.43-2.43l1.32,1.37a6.37,6.37,0,0,0-1.32,2Zm8.9,2.4a4.3,4.3,0,0,1-2.19-.56,4,4,0,0,1-1.53-1.53,4.31,4.31,0,0,1-.56-2.2,4.2,4.2,0,0,1,.56-2.17,4,4,0,0,1,1.53-1.55,4.22,4.22,0,0,1,2.19-.58,4.16,4.16,0,0,1,2.18.58,4,4,0,0,1,1.55,1.55,4.12,4.12,0,0,1,.58,2.17,4.23,4.23,0,0,1-.58,2.2,4,4,0,0,1-1.55,1.53A4.24,4.24,0,0,1,400.66,519.59Zm0-2.57a1.7,1.7,0,0,0,1.25-.49,1.67,1.67,0,0,0,.49-1.23,1.63,1.63,0,0,0-.49-1.22,1.83,1.83,0,0,0-2.49,0,1.64,1.64,0,0,0-.5,1.22,1.69,1.69,0,0,0,1.74,1.72Zm10.95,2.57a4.34,4.34,0,0,1-2.2-.56,4,4,0,0,1-1.53-1.53,4.42,4.42,0,0,1-.56-2.2,4.3,4.3,0,0,1,.56-2.17,4,4,0,0,1,1.53-1.55,4.26,4.26,0,0,1,2.2-.58,4.12,4.12,0,0,1,2.17.58,4,4,0,0,1,1.56,1.55,4.22,4.22,0,0,1,.58,2.17,4.33,4.33,0,0,1-.58,2.2,4,4,0,0,1-1.56,1.53A4.2,4.2,0,0,1,411.61,519.59Zm0-2.57a1.69,1.69,0,0,0,1.74-1.72,1.64,1.64,0,0,0-.5-1.22,1.69,1.69,0,0,0-1.24-.49,1.71,1.71,0,0,0-1.25.49,1.63,1.63,0,0,0-.49,1.22,1.67,1.67,0,0,0,.49,1.23A1.71,1.71,0,0,0,411.61,517Zm10.6,2.57A4.34,4.34,0,0,1,420,519a4,4,0,0,1-1.53-1.53,4.31,4.31,0,0,1-.56-2.2,4.2,4.2,0,0,1,.56-2.17,4,4,0,0,1,1.53-1.55,4.26,4.26,0,0,1,2.2-.58,4.12,4.12,0,0,1,2.17.58,4,4,0,0,1,1.55,1.55,4.12,4.12,0,0,1,.58,2.17,4.23,4.23,0,0,1-.58,2.2,4,4,0,0,1-1.55,1.53A4.2,4.2,0,0,1,422.21,519.59Zm0-2.57A1.69,1.69,0,0,0,424,515.3a1.64,1.64,0,0,0-.5-1.22,1.83,1.83,0,0,0-2.49,0,1.63,1.63,0,0,0-.49,1.22,1.67,1.67,0,0,0,.49,1.23A1.7,1.7,0,0,0,422.21,517Z"/><path class="cls-5" d="M370.68,532.66a1.85,1.85,0,0,1-.87,1.78,4.34,4.34,0,0,1-2.27.56,3.07,3.07,0,0,1-1.7-.46q.29,3,.29,7l-1.2.12a55.32,55.32,0,0,0-1.28-12.21l1.37-.31c.05.22.21,1,.47,2.39l.15.84a.84.84,0,0,0,.49.68,3,3,0,0,0,1.28.2,3.29,3.29,0,0,0,2.09-.5l-.35-3.48,1.35-.26Zm10.6-2.48a13.7,13.7,0,0,0-2,3.31,22.31,22.31,0,0,0-1.34,3.88,15.29,15.29,0,0,0-.45,3.37v.75l-1.2.12v-1a16.16,16.16,0,0,0-1-5.24,19.54,19.54,0,0,0-2.84-5.36l1.12-1a18.91,18.91,0,0,1,3.28,7.92l0,.21a.59.59,0,0,1,0-.21,16.17,16.17,0,0,1,3.35-7.92Zm2.9,9.06a1.12,1.12,0,0,1,.83.34,1.09,1.09,0,0,1,.37.84,1.18,1.18,0,0,1-1.2,1.17,1.24,1.24,0,0,1-1-.39,1.7,1.7,0,0,1-.36-1.15,4.72,4.72,0,0,1,.41-1.81,8.07,8.07,0,0,1,1-1.76l.73.78a5.32,5.32,0,0,0-1.11,2A1.18,1.18,0,0,1,384.18,539.24Zm6.59,1.14a3.12,3.12,0,0,1-1.58-.4,3.16,3.16,0,0,1-1.12-1.12,3.12,3.12,0,0,1-.4-1.58,3,3,0,0,1,.4-1.56,3,3,0,0,1,1.12-1.1,3.12,3.12,0,0,1,1.58-.4,3,3,0,0,1,1.56.4,2.77,2.77,0,0,1,1.1,1.1,3,3,0,0,1,.4,1.56,3.12,3.12,0,0,1-.4,1.58,3,3,0,0,1-1.1,1.12A3,3,0,0,1,390.77,540.38Zm0-1.41a1.71,1.71,0,0,0,1.23-.47,1.64,1.64,0,0,0,.51-1.22,1.57,1.57,0,0,0-.53-1.18,1.71,1.71,0,0,0-1.21-.49,1.79,1.79,0,0,0-1.25.49,1.58,1.58,0,0,0-.51,1.18,1.66,1.66,0,0,0,.49,1.22A1.81,1.81,0,0,0,390.77,539Zm8.39,1.41a3.12,3.12,0,0,1-1.58-.4,3.16,3.16,0,0,1-1.12-1.12,3.12,3.12,0,0,1-.4-1.58,3,3,0,0,1,.4-1.56,3,3,0,0,1,1.12-1.1,3.12,3.12,0,0,1,1.58-.4,3,3,0,0,1,1.56.4,2.77,2.77,0,0,1,1.1,1.1,3,3,0,0,1,.4,1.56,3.12,3.12,0,0,1-.4,1.58,3,3,0,0,1-1.1,1.12A3,3,0,0,1,399.16,540.38Zm0-1.41a1.73,1.73,0,0,0,1.23-.47,1.64,1.64,0,0,0,.51-1.22,1.57,1.57,0,0,0-.53-1.18,1.71,1.71,0,0,0-1.21-.49,1.79,1.79,0,0,0-1.25.49,1.58,1.58,0,0,0-.51,1.18,1.66,1.66,0,0,0,.49,1.22A1.81,1.81,0,0,0,399.16,539Zm8.26,1.41a3.08,3.08,0,0,1-1.57-.4,3.19,3.19,0,0,1-1.13-1.12,3.22,3.22,0,0,1-.4-1.58,3.12,3.12,0,0,1,.4-1.56,3,3,0,0,1,1.13-1.1,3.08,3.08,0,0,1,1.57-.4,3,3,0,0,1,1.56.4,2.86,2.86,0,0,1,1.11,1.1,3.12,3.12,0,0,1,.4,1.56,3.22,3.22,0,0,1-.4,1.58A3.06,3.06,0,0,1,409,540,3,3,0,0,1,407.42,540.38Zm0-1.41a1.74,1.74,0,0,0,1.24-.47,1.67,1.67,0,0,0,.5-1.22,1.56,1.56,0,0,0-.52-1.18,1.73,1.73,0,0,0-1.22-.49,1.8,1.8,0,0,0-1.25.49,1.57,1.57,0,0,0-.5,1.18,1.69,1.69,0,0,0,.48,1.22A1.83,1.83,0,0,0,407.42,539Z"/><path class="cls-5" d="M362.81,537.43h48.8v1h-48.8Z"/><path class="cls-6" d="M440.37,510.15a41.23,41.23,0,0,1,.73,5c.14,1.74.21,3.6.21,5.6l-1,.11a47.31,47.31,0,0,0-1.1-10.47Zm5.5,9.68a2.66,2.66,0,0,1-1.35-.35,2.63,2.63,0,0,1-1-1,2.76,2.76,0,0,1-.34-1.35,2.72,2.72,0,0,1,.34-1.34,2.5,2.5,0,0,1,1-.94,2.66,2.66,0,0,1,1.35-.35,2.63,2.63,0,0,1,1.34.35,2.43,2.43,0,0,1,.94.94,2.62,2.62,0,0,1,.34,1.34,2.66,2.66,0,0,1-.34,1.35,2.55,2.55,0,0,1-.94,1A2.63,2.63,0,0,1,445.87,519.83Zm0-1.22a1.47,1.47,0,0,0,1.06-.4,1.39,1.39,0,0,0,.43-1,1.34,1.34,0,0,0-.45-1,1.45,1.45,0,0,0-1-.42,1.5,1.5,0,0,0-1.07.42,1.36,1.36,0,0,0-.44,1,1.42,1.42,0,0,0,.42,1A1.53,1.53,0,0,0,445.87,518.61Zm5.83-9.72a2.1,2.1,0,0,1,1.08.28,1.93,1.93,0,0,1,.77.78,2,2,0,0,1,.28,1.05,2.13,2.13,0,0,1-.28,1.09,2,2,0,0,1-.77.76,2.15,2.15,0,0,1-2.57-.34,2.17,2.17,0,0,1-.62-1.51,2,2,0,0,1,.28-1.05,2.16,2.16,0,0,1,.78-.78A2,2,0,0,1,451.7,508.89Zm.17,12.13-1.22-.53,6.51-11.24,1.19.52Zm-.17-11.18a1.14,1.14,0,0,0-.84.34,1.12,1.12,0,0,0-.34.82,1.24,1.24,0,0,0,.34.86,1.18,1.18,0,0,0,.84.34,1.16,1.16,0,0,0,1.2-1.2,1.08,1.08,0,0,0-.34-.82A1.15,1.15,0,0,0,451.7,509.84Zm5.61,11.69a2.19,2.19,0,0,1-1.09-.28,2.05,2.05,0,0,1-.76-.76,2.23,2.23,0,0,1-.28-1.08,2.15,2.15,0,0,1,1-1.84,2.2,2.2,0,0,1,1.09-.29,2,2,0,0,1,1.06.29,2.11,2.11,0,0,1,.76.78,1.94,1.94,0,0,1,.29,1.06,2.1,2.1,0,0,1-2.11,2.12Zm0-.94a1.18,1.18,0,0,0,.84-.34,1.14,1.14,0,0,0,.34-.84,1.12,1.12,0,0,0-.34-.84,1.22,1.22,0,0,0-1.69,0,1.15,1.15,0,0,0-.33.84,1.17,1.17,0,0,0,.33.84A1.19,1.19,0,0,0,457.31,520.59Z"/><rect class="cls-7" x="434.01" y="500.06" width="31.07" height="31.07" rx="10.36"/><path class="cls-5" d="M537.51,421.86c-1.07.3-1.89.51-2.48.62a8.69,8.69,0,0,1-1.73.18,3.1,3.1,0,0,1-1.54-.35q.21,2.43.21,5.25l-1,.11a38.93,38.93,0,0,0-1.1-9.94l1.18-.26a26.41,26.41,0,0,1,.59,3.29,1.21,1.21,0,0,0,.62.33,4.56,4.56,0,0,0,.9.07,4.47,4.47,0,0,1-.54-2.26,1.71,1.71,0,0,1,.7-1.49,2.81,2.81,0,0,1,1.72-.52,6.62,6.62,0,0,1,1.65.25l-.3,1.21a9.23,9.23,0,0,0-1.43-.15,2.73,2.73,0,0,0-.65.09,2,2,0,0,0-.61.23,6.37,6.37,0,0,0,.16,1.39,4.82,4.82,0,0,0,.43,1.18,10.34,10.34,0,0,0,1.51-.19c.45-.1,1-.25,1.66-.43Zm3.29,5.81a1,1,0,0,1-1-1,1,1,0,0,1,.28-.72,1.06,1.06,0,0,1,1.41,0,1,1,0,0,1,.28.72.94.94,0,0,1-.3.71A.9.9,0,0,1,540.8,427.67Zm7.2-10a14.05,14.05,0,0,0,.81,4.49,17.36,17.36,0,0,0,2.45,4.6l-1,.88a16.14,16.14,0,0,1-2.81-6.8l0-.19a.78.78,0,0,1,0,.19,14.36,14.36,0,0,1-1,3.67,14.18,14.18,0,0,1-1.86,3.13l-.89-1a11.36,11.36,0,0,0,1.76-2.83,18.08,18.08,0,0,0,1.13-3.32,12.72,12.72,0,0,0,.41-2.91V417l1-.1Z"/><path class="cls-5" d="M568.65,416.17l1.16,3.63h3.76a1.28,1.28,0,0,1,.77,2.33l-3.1,2.2L572.4,428a1.27,1.27,0,0,1-1.94,1.43l-3.11-2.2-3.1,2.2a1.26,1.26,0,0,1-2-1.43l1.17-3.62-3.11-2.2a1.28,1.28,0,0,1,.78-2.33h3.75l1.17-3.63A1.4,1.4,0,0,1,568.65,416.17Z"/><path class="cls-6" d="M568.65,518.18a5.18,5.18,0,0,0-10.36,0h-5.18v14.24a5.19,5.19,0,0,0,5.18,5.18h3.88a1.3,1.3,0,1,0,0-2.59h-3.88a2.6,2.6,0,0,1-2.59-2.59V520.77h2.59v2.59a1.3,1.3,0,1,0,2.59,0v-2.59h5.18v2.59a1.3,1.3,0,1,0,2.59,0v-2.59h2.59V526a1.29,1.29,0,1,0,2.58,0v-7.77Zm-7.77,0a2.59,2.59,0,1,1,5.18,0Z"/><path class="cls-6" d="M572.53,531.13h-2.59v-2.59a1.3,1.3,0,0,0-2.59,0v2.59h-2.59a1.3,1.3,0,0,0,0,2.59h2.59v2.59a1.3,1.3,0,0,0,2.59,0v-2.59h2.59a1.3,1.3,0,0,0,0-2.59Z"/><path class="cls-8" d="M511.69,448.28h51.78A15.53,15.53,0,0,1,579,463.81h0a15.53,15.53,0,0,1-15.53,15.54H511.69a15.54,15.54,0,0,1-15.54-15.54h0A15.53,15.53,0,0,1,511.69,448.28Z"/><path class="cls-9" d="M510.47,473.12a4.33,4.33,0,0,1-2.72-.68,2.47,2.47,0,0,1-.86-2.07c0-.18.05-.59.13-1.21s.21-1.41.36-2.34l.15-1,.76.14a38.11,38.11,0,0,0-.57,4.3,1.36,1.36,0,0,0,.71,1.27,4.26,4.26,0,0,0,2,.41,9.57,9.57,0,0,0,2.22-.22,3.35,3.35,0,0,0,1.51-.68l-.42-11.92.93-.15.28,12.16a1.22,1.22,0,0,1-.62,1,4.67,4.67,0,0,1-1.68.69A9.32,9.32,0,0,1,510.47,473.12Zm10.06-4.53c.06,0,.09.11.09.34v.51q0,.33-.09.33h-.25a3.07,3.07,0,0,1-2.16-.67,3,3,0,0,1-.73-2.11l-.18-7.85.93-.15.09,8c0,1.08.67,1.62,2,1.62Zm9.19-4.35c.1,1.67.15,3,.15,3.91a1.31,1.31,0,0,1-.67,1.23,3,3,0,0,1-1.53.39,2.29,2.29,0,0,1-1-.19,1,1,0,0,1-.55-.54,1.18,1.18,0,0,1-.71.56,3,3,0,0,1-.92.17,2.39,2.39,0,0,1-1-.2,1.27,1.27,0,0,1-.59-.55,1.77,1.77,0,0,1-.95.56,4.93,4.93,0,0,1-1.42.19c-.07,0-.1-.11-.1-.33v-.51c0-.23,0-.34.1-.34a6.92,6.92,0,0,0,1.1-.07,2.16,2.16,0,0,0,.82-.32l.06-2.55h.86l-.06,2q0,.9,1.11.9a2.71,2.71,0,0,0,1.33-.28l-.1-3.27h.86l.06,3.26a1.28,1.28,0,0,0,1,.3,3,3,0,0,0,1.54-.31l-.25-3.87Zm-.43,8.77a10.47,10.47,0,0,0,2.86-1.69,3.8,3.8,0,0,0,1.29-1.77l-.45-4.16.92-.19c.1,1,.18,1.9.23,2.58s.09,1.2.09,1.55a3.6,3.6,0,0,1-1.13,2.46,9.23,9.23,0,0,1-3.2,2.11Zm7.15-13.87.94-.15.14,10.78-.8.12ZM544,469.85a2.8,2.8,0,0,1-1.56-.42,1.63,1.63,0,0,1-.62-1.42,3.12,3.12,0,0,1,.52-1.58,9.89,9.89,0,0,1,1.25-1.7l-.63-.46.52-.79a7.94,7.94,0,0,1,2.38,2.2,4.47,4.47,0,0,1,.86,2.6,1.81,1.81,0,0,1-.19.87,2.43,2.43,0,0,1-.22.29.46.46,0,0,1-.22.17,2.29,2.29,0,0,1-.8.19C544.94,469.83,544.51,469.85,544,469.85Zm0-1.19h1.16a4.56,4.56,0,0,0,.72-.11,4.39,4.39,0,0,0-.3-1.66,3.79,3.79,0,0,0-1.4-1.66,6,6,0,0,0-1.1,1.35,2.74,2.74,0,0,0-.5,1.21C542.59,468.37,543.07,468.66,544,468.66Zm8.08-6q2.89,2.82,2.9,5.58c0,.55-.37,1-1.1,1.24a7.37,7.37,0,0,1-2.57.41,5.36,5.36,0,0,1-1.6-.18,1.2,1.2,0,0,1-.73-.6,3.31,3.31,0,0,1-.18-1.24c0-.25,0-.44,0-.58l.73.05v.26a2.05,2.05,0,0,0,.1.78.59.59,0,0,0,.45.26,8.36,8.36,0,0,0,1.24.06,9.07,9.07,0,0,0,1.66-.14,3.14,3.14,0,0,0,1.18-.37,5.28,5.28,0,0,0-.76-2.39,10.24,10.24,0,0,0-1.94-2.36Zm8.1,6c.06,0,.09.11.09.34v.51q0,.33-.09.33h-.25a3,3,0,0,1-2.16-.67,3,3,0,0,1-.73-2.11l-.19-7.85.93-.15.1,8q0,1.62,2,1.62Zm4.29-3.45a1.66,1.66,0,0,1,1.46.82,3.7,3.7,0,0,1,.56,2.13,5.23,5.23,0,0,1-.23,1.6,1.4,1.4,0,0,1-.49.64.82.82,0,0,1-.52.18,1,1,0,0,1-.47-.11l-2.72-1.19a1.89,1.89,0,0,1-1.51.56h-.37q-.09,0-.09-.33v-.51c0-.23,0-.34.09-.34h.55a1.56,1.56,0,0,0,.55-.07.63.63,0,0,0,.33-.23,2.52,2.52,0,0,0,.34-.6,11.57,11.57,0,0,1,.83-1.56,2.38,2.38,0,0,1,.76-.76A1.83,1.83,0,0,1,564.48,465.14Zm.88,4.38a1.5,1.5,0,0,0,.21-.61,4.15,4.15,0,0,0,.07-.79,2.54,2.54,0,0,0-.34-1.41,1,1,0,0,0-.9-.55,1.08,1.08,0,0,0-.62.19,2,2,0,0,0-.54.64,12.2,12.2,0,0,0-.7,1.3Zm3.18-8.2.94-.16.14,8.61-.8.12Zm1.93-1.51a11.1,11.1,0,0,1-1.57-.12c-.37-.05-.6-.07-.68-.07a.71.71,0,0,0-.5.13,1.34,1.34,0,0,0-.25.54l-.65-.17a2.29,2.29,0,0,1,.5-1.12,1.23,1.23,0,0,1,.9-.29l.87.06c.67.07,1.16.11,1.46.11h.65l-.19.93Z"/><path class="cls-8" d="M444.37,448.28h31.07A15.53,15.53,0,0,1,491,463.81h0a15.53,15.53,0,0,1-15.53,15.54H444.37a15.54,15.54,0,0,1-15.54-15.54h0A15.53,15.53,0,0,1,444.37,448.28Z"/><path class="cls-9" d="M443.6,474.52a35.91,35.91,0,0,1-.3-4.13,6.28,6.28,0,0,1,.39-2.49q1.43-3.22,2.92-3.23a1.69,1.69,0,0,1,1.48.83,3.64,3.64,0,0,1,.56,2.12,5.68,5.68,0,0,1-.23,1.6,1.47,1.47,0,0,1-.49.64.94.94,0,0,1-.54.17,1.54,1.54,0,0,1-.47-.09l-2.61-1.18a6.63,6.63,0,0,0-.09,1.24c0,.5,0,1,.08,1.6s.15,1.27.26,2.1c0,.08,0,.23.07.43Zm3.9-5.5a2.2,2.2,0,0,0,.22-.62,4.11,4.11,0,0,0,.07-.78,2.54,2.54,0,0,0-.34-1.41,1,1,0,0,0-.9-.54,1.22,1.22,0,0,0-.93.48,7.76,7.76,0,0,0-.95,1.63Zm7.79-.43s0,0,.06.11a.75.75,0,0,1,0,.23v.51a.75.75,0,0,1,0,.23c0,.07,0,.1-.06.1h-.72a2.53,2.53,0,0,1-1-.2,2,2,0,0,1-.7-.56v.32a3.6,3.6,0,0,1-1.13,2.46,9.23,9.23,0,0,1-3.2,2.11l-.61-.89a10.32,10.32,0,0,0,2.86-1.69,3.8,3.8,0,0,0,1.29-1.77l-.45-4.16.92-.19.23,2.22a1.12,1.12,0,0,0,.54.89,2.67,2.67,0,0,0,1.26.28Zm3.33-9.73c-.82.35-1.83.83-3,1.42l.08-.86c1-.52,1.93-1,2.84-1.35Zm-1.81,3a8.84,8.84,0,0,1,2.23,2.22,6.32,6.32,0,0,1,.94,2.1,8.36,8.36,0,0,1,.22,1.94q0,1.68-4.91,1.68-.09,0-.09-.33v-.51c0-.23,0-.34.09-.34a20,20,0,0,0,2.41-.13,6.25,6.25,0,0,0,1.69-.4,6.63,6.63,0,0,0-.43-2.21,5.83,5.83,0,0,0-1.21-1.88,12.16,12.16,0,0,0-2.22-1.83l.07-1.06c.91-.44,1.76-.83,2.55-1.16s1.63-.65,2.5-.93l.13,1a25.35,25.35,0,0,0-4.17,1.71A.64.64,0,0,1,456.81,461.83Zm6.36-2.42a31.2,31.2,0,0,1,.76,4.84c.15,1.71.22,3.55.22,5.52l-.82.09a53,53,0,0,0-.25-5.34,36.71,36.71,0,0,0-.81-4.91Zm5.39,9.38a2.56,2.56,0,0,1-1.26-.31,2.38,2.38,0,0,1-.89-.89,2.56,2.56,0,0,1-.31-1.26,2.48,2.48,0,0,1,.31-1.24,2.32,2.32,0,0,1,.89-.87,2.46,2.46,0,0,1,1.26-.32,2.39,2.39,0,0,1,1.24.32,2.27,2.27,0,0,1,.87.87,2.39,2.39,0,0,1,.32,1.24,2.46,2.46,0,0,1-.32,1.26,2.32,2.32,0,0,1-.87.89A2.48,2.48,0,0,1,468.56,468.79Zm0-1a1.52,1.52,0,0,0,1.1-.42,1.44,1.44,0,0,0,.45-1.08,1.39,1.39,0,0,0-.47-1,1.53,1.53,0,0,0-1.08-.43,1.56,1.56,0,0,0-1.11.43,1.38,1.38,0,0,0-.46,1,1.44,1.44,0,0,0,.45,1.08A1.57,1.57,0,0,0,468.56,467.83Zm5.76,1a2.56,2.56,0,0,1-1.26-.31,2.35,2.35,0,0,1-.88-.89,2.56,2.56,0,0,1-.31-1.26,2.48,2.48,0,0,1,.31-1.24,2.3,2.3,0,0,1,.88-.87,2.46,2.46,0,0,1,1.26-.32,2.36,2.36,0,0,1,1.24.32,2.14,2.14,0,0,1,.87.87,2.4,2.4,0,0,1,.33,1.24,2.47,2.47,0,0,1-.33,1.26,2.19,2.19,0,0,1-.87.89A2.46,2.46,0,0,1,474.32,468.79Zm0-1a1.51,1.51,0,0,0,1.1-.42,1.44,1.44,0,0,0,.45-1.08,1.38,1.38,0,0,0-.46-1,1.61,1.61,0,0,0-2.19,0,1.39,1.39,0,0,0-.47,1,1.44,1.44,0,0,0,.45,1.08A1.57,1.57,0,0,0,474.32,467.83Z"/><path class="cls-3" d="M351.16,313.61V272.22a10.36,10.36,0,0,1,10.36-10.36h0a10.35,10.35,0,0,1,10.35,10.36v41.39A10.35,10.35,0,0,1,361.52,324h0A10.36,10.36,0,0,1,351.16,313.61Z"/><path d="M364.12,286.56s0-.05.1-.07l.25,0h.59l.25,0c.06,0,.09,0,.09.07v.54a2.22,2.22,0,0,1,.51-.06,2.13,2.13,0,0,1,2,1.23,6.47,6.47,0,0,1,.64,3.05,3.8,3.8,0,0,1-.59,2.36,2.23,2.23,0,0,1-1.82.72,8.89,8.89,0,0,1-1-.1l-1.82-.29-1.08-.16.17-.81a34.29,34.29,0,0,0,3.6.5,1,1,0,0,0,1-.6,3.72,3.72,0,0,0,.3-1.62,10.39,10.39,0,0,0-.17-2,2.72,2.72,0,0,0-.64-1.33,2.76,2.76,0,0,0-.37,0,.57.57,0,0,0-.49.21,1.54,1.54,0,0,0-.18.66c0,.29,0,.76,0,1.41l-1.28-.28Zm0-6.24s0-.05.1-.06a.9.9,0,0,1,.25,0h.59a.9.9,0,0,1,.25,0c.06,0,.09,0,.09.06a14.92,14.92,0,0,1-.06,1.75.77.77,0,0,1,.42-.39,1.93,1.93,0,0,1,.69-.13h.61a1.09,1.09,0,0,1,.42.07,1,1,0,0,1,.37.23,1,1,0,0,1,.27.4,1.38,1.38,0,0,1,.08.52,2.28,2.28,0,0,1-.79,1.94,4.84,4.84,0,0,1-2,.79v1.06s0,.05-.09.07l-.25,0h-.59l-.25,0c-.07,0-.1,0-.1-.07v-1.2a6.56,6.56,0,0,1-1.62-.48,3.85,3.85,0,0,1-1.25-.87,1.54,1.54,0,0,1-.5-1.06v-.73l3.37-.11Zm-2.42,2.73a1,1,0,0,0,.49.72,4.31,4.31,0,0,0,1.07.55,4.87,4.87,0,0,0,1,.25v-.83a2.44,2.44,0,0,1,.09-.8Zm4.74-.64a1.29,1.29,0,0,0-.85.29,1.18,1.18,0,0,0-.33.94v1c1.27-.08,1.9-.7,1.9-1.88a2.93,2.93,0,0,0,0-.33Zm-10.35-4.9c.31.73.7,1.58,1.15,2.55l-.85-.07c-.4-.78-.76-1.58-1.1-2.39Zm2.63,1.23a6.4,6.4,0,0,1,2.53-2.18,6.56,6.56,0,0,1,2.58-.54c.56,0,1,.37,1.21,1.1a10.76,10.76,0,0,1,.36,3.2s0,0-.09.06a.9.9,0,0,1-.25,0h-.59a.9.9,0,0,1-.25,0c-.07,0-.1,0-.1-.06q0-1.08-.09-2a6.27,6.27,0,0,0-.3-1.43,4.82,4.82,0,0,0-2.48.82,8.38,8.38,0,0,0-2.22,2.39l-1.09-.06a36.87,36.87,0,0,1-1.74-3.78l1.06-.13a22.89,22.89,0,0,0,1.29,2.79Zm-.54-4.51-.17-1,7.39-.09.12.85ZM357,272.47a9.21,9.21,0,0,1-.1,1.37q-.06.44-.06.54a.55.55,0,0,0,.11.39,1.16,1.16,0,0,0,.46.21l-.18.7a2.66,2.66,0,0,1-1.1-.48,1.07,1.07,0,0,1-.28-.82,5.74,5.74,0,0,1,.06-.71q.09-.89.09-1.32v-.61l1,.21Z"/><g class="cls-10"><path d="M358.93,311.33h5.18a16.83,16.83,0,0,1,3.62-10.58H355.3A16.84,16.84,0,0,1,358.93,311.33Z"/><path d="M358.93,315.3a2.59,2.59,0,1,0,5.18,0h2.59a1.33,1.33,0,0,0,0-2.65h-7.77Z"/></g><rect class="cls-3" x="48.28" y="85.8" width="258.91" height="475.91"/><path d="M138.72,379.46a13.24,13.24,0,0,0,3.37-2,5,5,0,0,0,1.54-2l-.58-5,1.4-.27c.12,1.18.21,2.2.29,3s.1,1.48.1,1.92a4.58,4.58,0,0,1-1.3,3.08,11,11,0,0,1-3.9,2.63Zm8.62-16.33,1.42-.23.12,12.88-1.19.17ZM156.78,374s.05.05.08.14a1.18,1.18,0,0,1,0,.35v.83a1.23,1.23,0,0,1,0,.35c0,.08-.05.12-.08.12H156a2.73,2.73,0,0,1-1.12-.22,1.94,1.94,0,0,1-.81-.65v.2a4.59,4.59,0,0,1-1.31,3.08,11,11,0,0,1-3.9,2.63l-.92-1.36a13.07,13.07,0,0,0,3.37-2,5,5,0,0,0,1.54-2l-.58-5,1.4-.27.27,2.53c.08.87.77,1.31,2.06,1.31Zm4-7.65a2.21,2.21,0,0,1,2.15,1.47,7.8,7.8,0,0,1,.68,3.33,18.13,18.13,0,0,1-.11,2.25,2.79,2.79,0,0,1-.37,1.21,1.71,1.71,0,0,1-.76.66,6.15,6.15,0,0,1-1.79.41c-.73.08-2,.11-3.83.11t-.09-.12a1.83,1.83,0,0,1,0-.35v-.83a1.75,1.75,0,0,1,0-.35c0-.09.06-.14.09-.14,1.7,0,2.94,0,3.74-.07a7.53,7.53,0,0,0,1.79-.31,7,7,0,0,0,.07-1.2,9.72,9.72,0,0,1-2.08.2,5.33,5.33,0,0,1-1.32-.13,1.52,1.52,0,0,1-.82-.58,3.18,3.18,0,0,1-.31-.52,2.4,2.4,0,0,1-.07-.62,6.7,6.7,0,0,1,.31-2,4.13,4.13,0,0,1,1-1.72A2.34,2.34,0,0,1,160.81,366.34ZM159,370.85a3.92,3.92,0,0,0,1.5.24,7.58,7.58,0,0,0,1.9-.18,4.66,4.66,0,0,0-.45-2.32,1.39,1.39,0,0,0-1.29-.76,1.38,1.38,0,0,0-1.21.85A4.54,4.54,0,0,0,159,370.85Zm.38-8.7,1.23,1-1,1.25-1.25-1Zm2.33,0,1.25,1-1,1.25-1.23-1ZM172.78,374s.07.05.09.14a1.2,1.2,0,0,1,0,.35v.83a1.25,1.25,0,0,1,0,.35q0,.12-.09.12h-.36a3.64,3.64,0,0,1-2.61-.81,4.06,4.06,0,0,1-.89-2.74l-.23-9.1,1.41-.23.09,9.31a1.62,1.62,0,0,0,.56,1.36,2.48,2.48,0,0,0,1.51.42Zm12.29,0s.05.05.07.14a.91.91,0,0,1,.06.35v.83a1,1,0,0,1-.06.35c0,.08,0,.12-.07.12h-1.85a4.45,4.45,0,0,1-2.26-.52,2.28,2.28,0,0,1-1.09-1.69l-.87.53a14.65,14.65,0,0,1-2.7,1.25,9.38,9.38,0,0,1-3,.43h-.55s-.06,0-.09-.12a1.83,1.83,0,0,1,0-.35v-.83a1.75,1.75,0,0,1,0-.35c0-.09.06-.14.09-.14h.66a10.49,10.49,0,0,0,4.76-1.22q.59-.28.87-.45c.47-.25.86-.45,1.15-.58a4.67,4.67,0,0,1,.87-.29,7.3,7.3,0,0,1-1.11-.29q-.58-.2-1.47-.54c-.65-.24-1.13-.41-1.45-.51a2.45,2.45,0,0,0-.8-.16.81.81,0,0,0-.7.32,2.35,2.35,0,0,0-.35,1l-1.08-.2a5.16,5.16,0,0,1,.7-2,1.62,1.62,0,0,1,1.42-.7,3.71,3.71,0,0,1,1.17.22c.45.14,1.06.36,1.82.67,1,.41,1.94.73,2.66,1a7.91,7.91,0,0,0,2.16.32l-.29,1.51a8.63,8.63,0,0,0-3,1,1.45,1.45,0,0,0,1.07.75,10.78,10.78,0,0,0,2.25.18Zm-6.67,3.73,1.36,1.07-1,1.29L177.37,379Zm13-3.73s0,.05.08.14a1.18,1.18,0,0,1,.05.35v.83a1.23,1.23,0,0,1-.05.35c0,.08,0,.12-.08.12a6.2,6.2,0,0,1-2.1-.27,1.59,1.59,0,0,1-.94-.87,1.9,1.9,0,0,1-1.12.87,6.93,6.93,0,0,1-2.14.27s-.07,0-.09-.12a1.25,1.25,0,0,1,0-.35v-.83a1.2,1.2,0,0,1,0-.35c0-.09.05-.14.09-.14a9.21,9.21,0,0,0,1.52-.11,3.34,3.34,0,0,0,1.14-.44l-.36-3.57,1.36-.14.23,3.77A4.45,4.45,0,0,0,191.37,374Zm-3.62-8.5,1.36,1.07-1,1.28-1.36-1.07Zm8.09,3.51c.13,2.06.19,3.53.19,4.43a1.89,1.89,0,0,1-.24.92,2,2,0,0,1-.71.71,5.92,5.92,0,0,1-1.65.54,11.13,11.13,0,0,1-2.06.18s-.07,0-.09-.12a1.25,1.25,0,0,1,0-.35v-.83a1.2,1.2,0,0,1,0-.35c0-.09.05-.14.09-.14a16.13,16.13,0,0,0,2-.11,4,4,0,0,0,1.48-.49l-.34-4.13Zm-4,8.72,1.24,1-1,1.25-1.25-1Zm2.34,0,1.25,1-1,1.25-1.24-1Zm4.3-14.59,1.41-.23.13,12.88-1.2.17Zm4,16.33a13.24,13.24,0,0,0,3.37-2,5.08,5.08,0,0,0,1.54-2l-.58-5,1.39-.27c.12,1.18.22,2.2.29,3s.11,1.48.11,1.92a4.58,4.58,0,0,1-1.3,3.08,11,11,0,0,1-3.9,2.63Zm12.68-12.41a12.14,12.14,0,0,1,2.68,3.51,7.38,7.38,0,0,1,.78,3.1,1.78,1.78,0,0,1-1.3,1.67,8.14,8.14,0,0,1-3.14.54,6.79,6.79,0,0,1-1.92-.21,1.51,1.51,0,0,1-.91-.77,3.53,3.53,0,0,1-.25-1.5,7.56,7.56,0,0,1,0-.91l1.08.09v.35a2.12,2.12,0,0,0,.11.81.68.68,0,0,0,.51.29,10.38,10.38,0,0,0,1.38.06,11.18,11.18,0,0,0,1.79-.15,5.16,5.16,0,0,0,1.4-.36,6.1,6.1,0,0,0-.91-2.63,13.62,13.62,0,0,0-2.27-2.72Zm7.64,7.92a18.13,18.13,0,0,0,3.41-.87,5.1,5.1,0,0,0,1.89-1.05l-.42-9.92,1.41-.23.22,10a2.77,2.77,0,0,1-1.85,2.53,14,14,0,0,1-4.44,1.29Zm1.85-1.43a23.78,23.78,0,0,0-.47-4.52,11.31,11.31,0,0,0-1.68-4.27l1.07-.93a14.07,14.07,0,0,1,1.75,4.6,24.76,24.76,0,0,1,.49,4.84ZM236,374s.06.05.09.14a1.75,1.75,0,0,1,0,.35v.83a1.83,1.83,0,0,1,0,.35q0,.12-.09.12h-.37A3.6,3.6,0,0,1,233,375a4,4,0,0,1-.89-2.74l-.24-9.1,1.42-.23.09,9.31a1.59,1.59,0,0,0,.56,1.36,2.43,2.43,0,0,0,1.5.42Zm2.21-7.56a9,9,0,0,1,3,3.53,9.2,9.2,0,0,1,.76,3.63c0,.79-.51,1.35-1.54,1.68a14.84,14.84,0,0,1-4.47.51s-.07,0-.09-.12a1.25,1.25,0,0,1,0-.35v-.83a1.2,1.2,0,0,1,0-.35c0-.09,0-.14.09-.14a14.47,14.47,0,0,0,4.76-.55,6.67,6.67,0,0,0-1.14-3.48,11.7,11.7,0,0,0-3.35-3.09l.09-1.53a43.94,43.94,0,0,1,6.09-2.44l.18,1.48a31.29,31.29,0,0,0-4.69,1.83A1.54,1.54,0,0,1,238.2,366.43Zm13.48,13.36a5.23,5.23,0,0,1-3.3-.84,3.07,3.07,0,0,1-1-2.53,12.16,12.16,0,0,1,.17-1.44c.11-.71.24-1.57.4-2.59,0-.24.07-.47.1-.7s.08-.49.11-.73l1.13.22a46.77,46.77,0,0,0-.69,5,1.42,1.42,0,0,0,.83,1.36,5,5,0,0,0,2.27.43q3.06,0,4.29-1l-.63-6.89,1.38-.29q.46,5.63.47,7.42a1.63,1.63,0,0,1-.8,1.34,5.82,5.82,0,0,1-2.07.87A11.93,11.93,0,0,1,251.68,379.79Zm.34-13,1.36,1.07-1,1.28L251,368Zm7.68-3.63,1.41-.23.13,12.88L260,376Zm11,10.86s.07.05.09.14a1.2,1.2,0,0,1,0,.35v.83a1.25,1.25,0,0,1,0,.35q0,.12-.09.12h-1.59a6.19,6.19,0,0,1-1.8,3,10.09,10.09,0,0,1-3.31,2.08l-.94-1.36a11.13,11.13,0,0,0,3.09-1.68,5.31,5.31,0,0,0,1.76-2.16,10.54,10.54,0,0,1-1.95.16,5.18,5.18,0,0,1-1.31-.14,1.51,1.51,0,0,1-.81-.56,2.57,2.57,0,0,1-.31-.51,2.08,2.08,0,0,1-.08-.64,7,7,0,0,1,.31-2,4.24,4.24,0,0,1,1-1.72,2.28,2.28,0,0,1,1.72-.71,2.19,2.19,0,0,1,2.09,1.34,7.68,7.68,0,0,1,.76,3.14Zm-6,0a3.92,3.92,0,0,0,1.48.24,7.67,7.67,0,0,0,1.91-.18,4.56,4.56,0,0,0-.46-2.32,1.38,1.38,0,0,0-1.28-.76,1.34,1.34,0,0,0-1.2.85A4.54,4.54,0,0,0,264.68,374ZM277,374s.05.05.07.14a.91.91,0,0,1,.06.35v.83a1,1,0,0,1-.06.35c0,.08,0,.12-.07.12a6.2,6.2,0,0,1-2.1-.27,1.57,1.57,0,0,1-.94-.87,1.93,1.93,0,0,1-1.13.87,6.84,6.84,0,0,1-2.14.27s-.06,0-.09-.12a1.83,1.83,0,0,1,0-.35v-.83a1.75,1.75,0,0,1,0-.35c0-.09.06-.14.09-.14a9.34,9.34,0,0,0,1.53-.11,3.34,3.34,0,0,0,1.14-.44l-.37-3.57,1.36-.14.24,3.77A4.43,4.43,0,0,0,277,374Zm-3.62-8.5,1.35,1.07-1,1.28-1.36-1.07Zm11.75,9.26c-1.16.31-2,.54-2.68.67a16.43,16.43,0,0,1-1.94.29c-.66.05-1.56.07-2.7.07H277s-.06,0-.09-.12a1.83,1.83,0,0,1,0-.35v-.83a1.75,1.75,0,0,1,0-.35c0-.09.06-.14.09-.14h2.52a5,5,0,0,1-.65-2.34,2.16,2.16,0,0,1,.84-1.79,3.33,3.33,0,0,1,2.17-.67,7.48,7.48,0,0,1,2,.29l-.36,1.41a9.19,9.19,0,0,0-1.78-.18,2.3,2.3,0,0,0-1.65.56,5.46,5.46,0,0,0,.75,2.66,35,35,0,0,0,4.24-.79Z"/><path class="cls-6" d="M79.39,509.22A3.15,3.15,0,0,1,78.3,512a4.74,4.74,0,0,1-3,.93,3.71,3.71,0,0,1-1.86-.5c.16,2.28.25,4.91.25,7.87l-2.18.19a67.39,67.39,0,0,0-.39-7.35q-.39-3.57-1.2-7.48l2.63-.54c.19,1.06.38,2.15.58,3.25a1.23,1.23,0,0,0,.47.87,2.83,2.83,0,0,0,1.35.23,5.14,5.14,0,0,0,2.22-.37l-.48-3.79,2.55-.4Zm15.61,0a3.4,3.4,0,0,1-.47,1.93,3.29,3.29,0,0,1-1.39,1.3,3.88,3.88,0,0,1-1.86.46,3.23,3.23,0,0,1-2.43-.72,3.57,3.57,0,0,1-2.5.72,2.43,2.43,0,0,1-1.39-.43c.16,2.26.25,4.86.25,7.8l-2.18.19a67.39,67.39,0,0,0-.39-7.35q-.39-3.57-1.2-7.48l2.63-.54c.16.87.36,1.95.58,3.25a1.53,1.53,0,0,0,.35.85,1.13,1.13,0,0,0,.83.25,5,5,0,0,0,1.74-.27l-.17-3.52,2.38-.19.09,3.86a4.48,4.48,0,0,0,1.16.12,3.76,3.76,0,0,0,1.7-.37l-.5-3.79,2.57-.4Zm4.24,7.48a1.78,1.78,0,0,1,1.34.58,1.81,1.81,0,0,1,.58,1.37,1.95,1.95,0,0,1-1.92,1.9,1.88,1.88,0,0,1-1.54-.62,2.65,2.65,0,0,1-.51-1.7,6.66,6.66,0,0,1,.54-2.48,8.91,8.91,0,0,1,1.42-2.43l1.33,1.37a6.61,6.61,0,0,0-1.33,2Zm8.9,2.4a4.3,4.3,0,0,1-2.19-.56,4,4,0,0,1-1.53-1.53,4.3,4.3,0,0,1-.56-2.19,4.22,4.22,0,0,1,.56-2.18,4,4,0,0,1,1.53-1.55,4.22,4.22,0,0,1,2.19-.58,4.16,4.16,0,0,1,2.18.58,4,4,0,0,1,1.55,1.55,4.13,4.13,0,0,1,.58,2.18,4.22,4.22,0,0,1-.58,2.19,4,4,0,0,1-1.55,1.53A4.24,4.24,0,0,1,108.14,519.1Zm0-2.57a1.7,1.7,0,0,0,1.25-.49,1.66,1.66,0,0,0,.49-1.22,1.63,1.63,0,0,0-.49-1.23,1.83,1.83,0,0,0-2.49,0,1.64,1.64,0,0,0-.5,1.23,1.67,1.67,0,0,0,.5,1.22A1.69,1.69,0,0,0,108.14,516.53Zm11,2.57a4.34,4.34,0,0,1-2.2-.56,4,4,0,0,1-1.53-1.53,4.41,4.41,0,0,1-.56-2.19,4.31,4.31,0,0,1,.56-2.18,4,4,0,0,1,1.53-1.55,4.26,4.26,0,0,1,2.2-.58,4.12,4.12,0,0,1,2.17.58,4.07,4.07,0,0,1,1.56,1.55,4.23,4.23,0,0,1,.58,2.18,4.32,4.32,0,0,1-.58,2.19,4.09,4.09,0,0,1-1.56,1.53A4.2,4.2,0,0,1,119.09,519.1Zm0-2.57a1.69,1.69,0,0,0,1.24-.49,1.67,1.67,0,0,0,.5-1.22,1.64,1.64,0,0,0-.5-1.23,1.69,1.69,0,0,0-1.24-.49,1.71,1.71,0,0,0-1.25.49,1.63,1.63,0,0,0-.49,1.23,1.66,1.66,0,0,0,.49,1.22A1.71,1.71,0,0,0,119.09,516.53Zm10.6,2.57a4.34,4.34,0,0,1-2.2-.56A4,4,0,0,1,126,517a4.41,4.41,0,0,1-.56-2.19,4.31,4.31,0,0,1,.56-2.18,4,4,0,0,1,1.53-1.55,4.26,4.26,0,0,1,2.2-.58,4.12,4.12,0,0,1,2.17.58,4,4,0,0,1,1.55,1.55,4.13,4.13,0,0,1,.58,2.18,4.22,4.22,0,0,1-.58,2.19,4,4,0,0,1-1.55,1.53A4.2,4.2,0,0,1,129.69,519.1Zm0-2.57a1.69,1.69,0,0,0,1.24-.49,1.67,1.67,0,0,0,.5-1.22,1.64,1.64,0,0,0-.5-1.23,1.83,1.83,0,0,0-2.49,0,1.63,1.63,0,0,0-.49,1.23,1.66,1.66,0,0,0,.49,1.22A1.7,1.7,0,0,0,129.69,516.53Z"/><path class="cls-5" d="M78.16,532.17a1.85,1.85,0,0,1-.87,1.78,4.34,4.34,0,0,1-2.27.56,3.15,3.15,0,0,1-1.7-.45c.19,2,.29,4.33.29,6.94l-1.2.12a55.32,55.32,0,0,0-1.28-12.21l1.37-.31c0,.22.21,1,.47,2.39l.15.84a.84.84,0,0,0,.49.68,3,3,0,0,0,1.28.2,3.29,3.29,0,0,0,2.09-.5l-.35-3.48,1.35-.26Zm10.6-2.48A13.9,13.9,0,0,0,86.71,533a22.31,22.31,0,0,0-1.34,3.88,15.29,15.29,0,0,0-.45,3.37V541l-1.2.12v-1a16.1,16.1,0,0,0-1-5.23,19.6,19.6,0,0,0-2.84-5.37l1.12-1a18.91,18.91,0,0,1,3.28,7.92l0,.21a.59.59,0,0,1,0-.21,16.17,16.17,0,0,1,3.35-7.92Zm2.9,9.06a1.12,1.12,0,0,1,.83.34,1.13,1.13,0,0,1,.37.84,1.14,1.14,0,0,1-.35.83,1.15,1.15,0,0,1-.85.35,1.25,1.25,0,0,1-1-.4,1.69,1.69,0,0,1-.36-1.14,4.91,4.91,0,0,1,.41-1.82,8.07,8.07,0,0,1,1-1.76l.72.78a5.48,5.48,0,0,0-1.1,2A1.1,1.1,0,0,1,91.66,538.75Zm6.59,1.14a3.12,3.12,0,0,1-1.58-.4,3.16,3.16,0,0,1-1.12-1.12,3.12,3.12,0,0,1-.4-1.58,3,3,0,0,1,.4-1.56,3,3,0,0,1,1.12-1.1,3.12,3.12,0,0,1,1.58-.4,3,3,0,0,1,1.56.4,2.77,2.77,0,0,1,1.1,1.1,3,3,0,0,1,.4,1.56,3.12,3.12,0,0,1-.4,1.58,3,3,0,0,1-1.1,1.12A3,3,0,0,1,98.25,539.89Zm0-1.41a1.73,1.73,0,0,0,1.23-.47,1.64,1.64,0,0,0,.51-1.22,1.57,1.57,0,0,0-.53-1.18,1.71,1.71,0,0,0-1.21-.49,1.79,1.79,0,0,0-1.25.49,1.58,1.58,0,0,0-.51,1.18A1.66,1.66,0,0,0,97,538,1.81,1.81,0,0,0,98.25,538.48Zm8.39,1.41a3.12,3.12,0,0,1-1.58-.4,3.16,3.16,0,0,1-1.12-1.12,3.12,3.12,0,0,1-.4-1.58,3,3,0,0,1,.4-1.56,3,3,0,0,1,1.12-1.1,3.12,3.12,0,0,1,1.58-.4,3,3,0,0,1,1.56.4,2.77,2.77,0,0,1,1.1,1.1,3,3,0,0,1,.4,1.56,3.12,3.12,0,0,1-.4,1.58,3,3,0,0,1-1.1,1.12A3,3,0,0,1,106.64,539.89Zm0-1.41a1.73,1.73,0,0,0,1.23-.47,1.64,1.64,0,0,0,.51-1.22,1.57,1.57,0,0,0-.53-1.18,1.71,1.71,0,0,0-1.21-.49,1.79,1.79,0,0,0-1.25.49,1.58,1.58,0,0,0-.51,1.18,1.66,1.66,0,0,0,.49,1.22A1.81,1.81,0,0,0,106.64,538.48Zm8.26,1.41a3.08,3.08,0,0,1-1.57-.4,3.19,3.19,0,0,1-1.13-1.12,3.22,3.22,0,0,1-.4-1.58,3.12,3.12,0,0,1,.4-1.56,3,3,0,0,1,1.13-1.1,3.08,3.08,0,0,1,1.57-.4,3,3,0,0,1,1.56.4,2.86,2.86,0,0,1,1.11,1.1,3.12,3.12,0,0,1,.4,1.56,3.22,3.22,0,0,1-.4,1.58,3.06,3.06,0,0,1-1.11,1.12A3,3,0,0,1,114.9,539.89Zm0-1.41a1.74,1.74,0,0,0,1.24-.47,1.67,1.67,0,0,0,.5-1.22,1.56,1.56,0,0,0-.52-1.18,1.73,1.73,0,0,0-1.22-.49,1.8,1.8,0,0,0-1.25.49,1.57,1.57,0,0,0-.5,1.18,1.69,1.69,0,0,0,.48,1.22A1.83,1.83,0,0,0,114.9,538.48Z"/><path class="cls-5" d="M70.29,536.94h48.8v1H70.29Z"/><path class="cls-6" d="M147.85,509.66a41.23,41.23,0,0,1,.73,5c.14,1.74.22,3.61.22,5.6l-1,.11a47.31,47.31,0,0,0-1.1-10.47Zm5.5,9.68A2.66,2.66,0,0,1,152,519a2.55,2.55,0,0,1-1-1,2.76,2.76,0,0,1-.34-1.35,2.72,2.72,0,0,1,.34-1.34,2.5,2.5,0,0,1,1-.94,2.66,2.66,0,0,1,1.35-.35,2.63,2.63,0,0,1,1.34.35,2.43,2.43,0,0,1,.94.94,2.62,2.62,0,0,1,.34,1.34,2.66,2.66,0,0,1-.34,1.35,2.48,2.48,0,0,1-.94,1A2.63,2.63,0,0,1,153.35,519.34Zm0-1.22a1.47,1.47,0,0,0,1.06-.4,1.39,1.39,0,0,0,.43-1,1.34,1.34,0,0,0-.45-1,1.45,1.45,0,0,0-1-.42,1.5,1.5,0,0,0-1.07.42,1.36,1.36,0,0,0-.44,1,1.42,1.42,0,0,0,.42,1A1.53,1.53,0,0,0,153.35,518.12Zm5.83-9.72a2.1,2.1,0,0,1,1.08.28,1.93,1.93,0,0,1,.77.78,2,2,0,0,1,.28,1.05,2.13,2.13,0,0,1-.28,1.09,2,2,0,0,1-.77.76,2.15,2.15,0,0,1-2.57-.34,2.15,2.15,0,0,1-.62-1.51,2,2,0,0,1,.28-1.05,2.16,2.16,0,0,1,.78-.78A2,2,0,0,1,159.18,508.4Zm.17,12.13-1.22-.53,6.51-11.24,1.19.53Zm-.17-11.18a1.14,1.14,0,0,0-.84.34,1.12,1.12,0,0,0-.34.82,1.24,1.24,0,0,0,.34.86,1.18,1.18,0,0,0,.84.34,1.16,1.16,0,0,0,1.2-1.2,1.08,1.08,0,0,0-.34-.82A1.15,1.15,0,0,0,159.18,509.35Zm5.61,11.7a2.3,2.3,0,0,1-1.09-.28,2.08,2.08,0,0,1-.76-.77,2.23,2.23,0,0,1-.28-1.08,2.15,2.15,0,0,1,1-1.84,2.2,2.2,0,0,1,1.09-.29,2.06,2.06,0,0,1,1.06.29,2.11,2.11,0,0,1,.76.78,1.94,1.94,0,0,1,.29,1.06,2,2,0,0,1-.29,1.08,2.08,2.08,0,0,1-.76.77A2.15,2.15,0,0,1,164.79,521.05Zm0-.95a1.18,1.18,0,0,0,.84-.34,1.19,1.19,0,0,0-1.69-1.68,1.23,1.23,0,0,0,0,1.68A1.19,1.19,0,0,0,164.79,520.1Z"/><rect class="cls-7" x="141.49" y="499.57" width="31.07" height="31.07" rx="10.36"/><rect class="cls-11" x="69" y="476.27" width="217.49" height="2.59"/><rect class="cls-6" x="173.01" y="476.27" width="113.47" height="2.59"/><path class="cls-5" d="M198.53,463.4A2.8,2.8,0,0,1,197,463a1.61,1.61,0,0,1-.62-1.41,3.2,3.2,0,0,1,.51-1.59,10.45,10.45,0,0,1,1.26-1.69l-.63-.47L198,457a8,8,0,0,1,2.38,2.21,4.46,4.46,0,0,1,.86,2.59,1.81,1.81,0,0,1-.19.87,2.6,2.6,0,0,1-.22.3.46.46,0,0,1-.22.17,2.56,2.56,0,0,1-.8.18A11.72,11.72,0,0,1,198.53,463.4Zm0-1.18c.52,0,.9,0,1.16,0a4.63,4.63,0,0,0,.72-.1,4.44,4.44,0,0,0-.3-1.67,3.85,3.85,0,0,0-1.4-1.66,6,6,0,0,0-1.1,1.35,2.79,2.79,0,0,0-.5,1.21C197.14,461.93,197.62,462.22,198.56,462.22Zm12.72-.08s0,0,.06.11a.75.75,0,0,1,0,.23V463a.75.75,0,0,1,0,.23q0,.09-.06.09h-.39c-1.12,0-1.79-.39-2-1.18a1.18,1.18,0,0,1-.5.58,5,5,0,0,1-1.49.59,7.47,7.47,0,0,1-1.79.25,2.53,2.53,0,0,1-1.07-.19,1,1,0,0,1-.53-.61,3.91,3.91,0,0,1-.15-1.22c0-.25,0-.44,0-.58l.73.05v.26a3.19,3.19,0,0,0,.06.76.42.42,0,0,0,.3.28,3.1,3.1,0,0,0,.76.07,7.29,7.29,0,0,0,1.85-.25,4,4,0,0,0,1.41-.64l-1.15-4.8.89-.5.87,4.2a5.39,5.39,0,0,0,.37,1.24.89.89,0,0,0,.56.43A6.16,6.16,0,0,0,211.28,462.14Zm3.7-4.35q.15,2.7.15,3.75a1.25,1.25,0,0,1-.2.68,1.33,1.33,0,0,1-.56.51,5.31,5.31,0,0,1-1.41.45,9.22,9.22,0,0,1-1.68.14c-.06,0-.09-.11-.09-.32v-.52c0-.22,0-.34.09-.34a6.06,6.06,0,0,0,3.05-.57l-.27-3.61Zm-.72-3.27,1,.76-.75.93-1-.76Zm6.42,7.62c.07,0,.1.12.1.34V463c0,.21,0,.32-.1.32h-.25a3,3,0,0,1-2.15-.66,3,3,0,0,1-.73-2.12l-.19-7.84.93-.16.09,8c0,1.07.67,1.61,2,1.61Zm4.3-3.45a1.69,1.69,0,0,1,1.46.83,3.7,3.7,0,0,1,.56,2.13,4.94,4.94,0,0,1-.24,1.6,1.28,1.28,0,0,1-.48.63.78.78,0,0,1-.53.19,1,1,0,0,1-.46-.11l-2.72-1.2a1.87,1.87,0,0,1-1.51.56h-.37c-.06,0-.09-.11-.09-.32v-.52c0-.22,0-.34.09-.34h.54a1.93,1.93,0,0,0,.56-.06.74.74,0,0,0,.33-.23,3.4,3.4,0,0,0,.34-.61,12.14,12.14,0,0,1,.82-1.55,2.37,2.37,0,0,1,.76-.76A1.75,1.75,0,0,1,225,458.69Zm.88,4.38a1.56,1.56,0,0,0,.2-.6,3.47,3.47,0,0,0,.08-.79,2.57,2.57,0,0,0-.34-1.42,1,1,0,0,0-.9-.54,1,1,0,0,0-.62.19,2.09,2.09,0,0,0-.55.63,14.82,14.82,0,0,0-.7,1.31Zm10.62-.93s0,0,.06.11a.75.75,0,0,1,0,.23V463a.75.75,0,0,1,0,.23q0,.09-.06.09h-.72a2.37,2.37,0,0,1-1-.2,1.76,1.76,0,0,1-.7-.56v.33a3.63,3.63,0,0,1-1.13,2.45,9.24,9.24,0,0,1-3.2,2.12l-.61-.89a10.73,10.73,0,0,0,2.86-1.69,4,4,0,0,0,1.29-1.77l-.45-4.17.92-.18L234,461a1.1,1.1,0,0,0,.54.88,2.5,2.5,0,0,0,1.26.28Zm3.33-9.72c-.82.35-1.83.82-3,1.41l.08-.85c1-.52,1.93-1,2.84-1.35Zm3.75,9.72s.06,0,.08.11a.75.75,0,0,1,0,.23V463a.75.75,0,0,1,0,.23c0,.06,0,.09-.08.09h-.8c-.91,0-1.48-.3-1.7-.91-.62.61-2.15.91-4.58.91-.06,0-.09-.11-.09-.32v-.52c0-.22,0-.34.09-.34a22.45,22.45,0,0,0,2.41-.12,5.94,5.94,0,0,0,1.69-.41,6.57,6.57,0,0,0-.43-2.2,6,6,0,0,0-1.21-1.88,11.92,11.92,0,0,0-2.23-1.83l.08-1.06c.91-.45,1.76-.83,2.55-1.17s1.63-.65,2.5-.93l.12,1a23.62,23.62,0,0,0-4.16,1.71.77.77,0,0,1,.2.13,8.13,8.13,0,0,1,2.63,2.89,7.54,7.54,0,0,1,.76,2.94,1.1,1.1,0,0,0,.4.76,1.91,1.91,0,0,0,.92.17Zm3.76-4.35c.11,1.8.16,3,.16,3.75a1.34,1.34,0,0,1-.2.68,1.39,1.39,0,0,1-.56.51,5.51,5.51,0,0,1-1.42.45,9,9,0,0,1-1.67.14c-.07,0-.1-.11-.1-.32v-.52c0-.22,0-.34.1-.34a6,6,0,0,0,3-.57l-.26-3.61Zm-3.13,7.26.9.71-.72.92-.91-.72Zm1.8,0,.91.71-.73.92-.9-.72Zm7-8.87q2.9,2.81,2.9,5.57c0,.55-.37,1-1.1,1.25a7.38,7.38,0,0,1-2.57.4,5.78,5.78,0,0,1-1.6-.17,1.22,1.22,0,0,1-.73-.61,3.28,3.28,0,0,1-.18-1.24c0-.25,0-.44,0-.57l.73,0v.27a2,2,0,0,0,.1.77.57.57,0,0,0,.45.27,8.36,8.36,0,0,0,1.24.06,10,10,0,0,0,1.66-.14,3.33,3.33,0,0,0,1.18-.37,5.24,5.24,0,0,0-.76-2.39,10.28,10.28,0,0,0-1.94-2.37Zm12.21,6s0,0,.06.11a.75.75,0,0,1,0,.23V463a.75.75,0,0,1,0,.23q0,.09-.06.09h-.72a2.37,2.37,0,0,1-1-.2,1.66,1.66,0,0,1-.69-.56v.33a3.6,3.6,0,0,1-1.14,2.45,9.15,9.15,0,0,1-3.2,2.12l-.6-.89a10.66,10.66,0,0,0,2.85-1.69,3.8,3.8,0,0,0,1.29-1.77l-.45-4.17.92-.18.23,2.22a1.09,1.09,0,0,0,.55.88,2.49,2.49,0,0,0,1.25.28Zm6.78,0s.05,0,.07.11a.53.53,0,0,1,0,.23V463a.53.53,0,0,1,0,.23c0,.06,0,.09-.07.09h-.78a5.28,5.28,0,0,1-1.35-.14,2.93,2.93,0,0,1-1.09-.59,4.15,4.15,0,0,1-2.67.73h-.89c-.06,0-.09-.11-.09-.32v-.52c0-.22,0-.34.09-.34h1.18a4.21,4.21,0,0,0,1.31-.17,4,4,0,0,1-.93-.81,1.47,1.47,0,0,1-.41-.93,2.61,2.61,0,0,1,.38-1.09,4.9,4.9,0,0,1,1-1.25,1.73,1.73,0,0,1,1.18-.55,1.57,1.57,0,0,1,1.07.44,2.91,2.91,0,0,1,.76,1.19,4.44,4.44,0,0,1,.3,1.67.9.9,0,0,1-.25.63,4.52,4.52,0,0,1-1,.72,6.26,6.26,0,0,0,1.4.15Zm-4.85-2a1.2,1.2,0,0,0,.5.83,6.42,6.42,0,0,0,1.18.81l1.41-1a3.53,3.53,0,0,0-.39-1.66,1,1,0,0,0-1.78-.41,3.39,3.39,0,0,0-.66.8A1.54,1.54,0,0,0,267.11,460.15Zm1.62-6.23,1,.77-.75.93-1-.76Zm6.93,3.87c.11,1.8.16,3,.16,3.75a1.34,1.34,0,0,1-.2.68,1.46,1.46,0,0,1-.56.51,5.51,5.51,0,0,1-1.42.45,9.22,9.22,0,0,1-1.68.14c-.06,0-.09-.11-.09-.32v-.52c0-.22,0-.34.09-.34a6.06,6.06,0,0,0,3.05-.57l-.26-3.61Zm-.71-3.27,1,.76-.75.93-1-.76ZM285.51,456a1.3,1.3,0,0,1-.73,1.33,3.8,3.8,0,0,1-1.8.41,2.6,2.6,0,0,1-1.49-.39c.17,1.69.26,3.67.26,6l-.82.1c0-1.89-.09-3.67-.25-5.35a38.68,38.68,0,0,0-.81-4.91l.9-.2c.09.37.29,1.33.58,2.88a.71.71,0,0,0,.43.57,3.29,3.29,0,0,0,1.14.16,5.73,5.73,0,0,0,1-.1,1.58,1.58,0,0,0,.82-.39l-.26-3,.88-.2Z"/><path class="cls-5" d="M73.72,463.4a2.8,2.8,0,0,1-1.56-.42,1.61,1.61,0,0,1-.62-1.41,3.12,3.12,0,0,1,.52-1.59,9.82,9.82,0,0,1,1.25-1.69l-.63-.47.53-.79a8,8,0,0,1,2.37,2.21,4.46,4.46,0,0,1,.86,2.59,1.81,1.81,0,0,1-.19.87,2.6,2.6,0,0,1-.22.3.46.46,0,0,1-.22.17,2.56,2.56,0,0,1-.8.18A11.5,11.5,0,0,1,73.72,463.4Zm0-1.18c.52,0,.91,0,1.16,0a4.63,4.63,0,0,0,.72-.1,4.44,4.44,0,0,0-.3-1.67,3.89,3.89,0,0,0-1.39-1.66,5.81,5.81,0,0,0-1.11,1.35,2.73,2.73,0,0,0-.49,1.21C72.34,461.93,72.81,462.22,73.75,462.22Zm9.38-.08s0,0,.06.11a.75.75,0,0,1,0,.23V463a.75.75,0,0,1,0,.23q0,.09-.06.09h-.71a2.34,2.34,0,0,1-1-.2,1.69,1.69,0,0,1-.7-.56v.33a3.6,3.6,0,0,1-1.14,2.45,9.15,9.15,0,0,1-3.2,2.12l-.6-.89a10.9,10.9,0,0,0,2.86-1.69,4,4,0,0,0,1.29-1.77l-.46-4.17.92-.18.23,2.22a1.13,1.13,0,0,0,.55.88,2.5,2.5,0,0,0,1.26.28Zm6.78,0s.06,0,.08.11a.75.75,0,0,1,0,.23V463a.75.75,0,0,1,0,.23c0,.06,0,.09-.08.09h-.78a5.28,5.28,0,0,1-1.35-.14,3,3,0,0,1-1.09-.59,4.15,4.15,0,0,1-2.67.73h-.88c-.07,0-.1-.11-.1-.32v-.52c0-.22,0-.34.1-.34h1.18a4.18,4.18,0,0,0,1.3-.17,4,4,0,0,1-.93-.81,1.46,1.46,0,0,1-.4-.93,2.56,2.56,0,0,1,.37-1.09,5.14,5.14,0,0,1,1-1.25,1.75,1.75,0,0,1,1.18-.55,1.55,1.55,0,0,1,1.07.44,2.93,2.93,0,0,1,.77,1.19,4.64,4.64,0,0,1,.29,1.67.9.9,0,0,1-.25.63,4.26,4.26,0,0,1-1,.72,6.33,6.33,0,0,0,1.4.15Zm-4.85-2a1.2,1.2,0,0,0,.5.83,6.42,6.42,0,0,0,1.18.81l1.41-1a3.65,3.65,0,0,0-.38-1.66,1.15,1.15,0,0,0-1-.76,1.17,1.17,0,0,0-.74.35,3.13,3.13,0,0,0-.65.8A1.46,1.46,0,0,0,85.06,460.15Zm1.62-6.23,1,.77-.74.93-1-.76Zm6.93,3.87c.11,1.8.16,3,.16,3.75a1.34,1.34,0,0,1-.2.68,1.39,1.39,0,0,1-.56.51,5.51,5.51,0,0,1-1.42.45,9,9,0,0,1-1.67.14c-.06,0-.1-.11-.1-.32v-.52c0-.22,0-.34.1-.34a6,6,0,0,0,3-.57L92.7,458Zm-.71-3.27,1,.76-.74.93-1-.76Zm10,3c-1,.27-1.73.46-2.33.59a8.93,8.93,0,0,1-1.62.17,3,3,0,0,1-1.61-.36c.14,1.6.21,3.39.21,5.39l-.82.1a36.64,36.64,0,0,0-1.06-9.74l.91-.22a29.13,29.13,0,0,1,.62,3.23,1.21,1.21,0,0,0,.62.37,4.75,4.75,0,0,0,1,.11,4.67,4.67,0,0,1-.59-2.44,1.52,1.52,0,0,1,.65-1.35,2.73,2.73,0,0,1,1.57-.45,6.18,6.18,0,0,1,1.6.23l-.23.94a8.44,8.44,0,0,0-1.42-.16,2.53,2.53,0,0,0-.68.11,1.78,1.78,0,0,0-.64.28,6.85,6.85,0,0,0,.16,1.51,4.52,4.52,0,0,0,.48,1.25,8.63,8.63,0,0,0,1.44-.17q.61-.14,1.68-.45Z"/><path class="cls-6" d="M267.06,525.46a6.47,6.47,0,1,0-6.47-6.47A6.41,6.41,0,0,0,267.06,525.46Zm0-10.35a3.88,3.88,0,1,1-3.88,3.88A3.81,3.81,0,0,1,267.06,515.11Z"/><path class="cls-6" d="M267.06,528.05a9,9,0,0,0-9.06,9.06,1.3,1.3,0,1,0,2.59,0,6.48,6.48,0,0,1,13,0,1.3,1.3,0,1,0,2.59,0A9,9,0,0,0,267.06,528.05Z"/><path class="cls-6" d="M282.6,525.46H280v-2.59a1.3,1.3,0,0,0-2.59,0v2.59h-2.59a1.3,1.3,0,0,0,0,2.59h2.59v2.59a1.3,1.3,0,0,0,2.59,0v-2.59h2.59a1.3,1.3,0,0,0,0-2.59Z"/><path class="cls-5" d="M186.87,400.49s0,0,.08.11a.75.75,0,0,1,0,.23v.52a.75.75,0,0,1,0,.23c0,.06,0,.09-.08.09h-.31a3,3,0,0,1-1.26-.24,1.41,1.41,0,0,1-.7-.87,1,1,0,0,1-.7.43,5.2,5.2,0,0,1-1.35.16,2.53,2.53,0,0,1-1.29-.33,1.08,1.08,0,0,1-.57-1,3.35,3.35,0,0,1,.85-2.33,4.32,4.32,0,0,1,2.38-1.26l-.13-1,.89-.26.34,3.73a7.21,7.21,0,0,0,.15,1.05,1.07,1.07,0,0,0,.39.55,1.74,1.74,0,0,0,.89.18Zm-4.23-.43a5.39,5.39,0,0,0,.87-.06c.25-.06.52-.13.79-.22l-.27-2.66a3,3,0,0,0-1.45.56,2.76,2.76,0,0,0-1.15,2,1.46,1.46,0,0,0,.5.24A2.3,2.3,0,0,0,182.64,400.06Zm7.59-5.94a1.78,1.78,0,0,1,1.77,1.23,7,7,0,0,1,.52,2.75,15.21,15.21,0,0,1-.08,1.77,2.27,2.27,0,0,1-.28.92,1.32,1.32,0,0,1-.62.46,5.48,5.48,0,0,1-1.52.33c-.61.06-1.67.09-3.16.09-.06,0-.09-.11-.09-.32v-.52c0-.22,0-.34.09-.34,1.4,0,2.45,0,3.14-.07a5.31,5.31,0,0,0,1.6-.32,7.23,7.23,0,0,0,.06-1.08,9.25,9.25,0,0,1-1.85.17,4.61,4.61,0,0,1-1-.11,1.3,1.3,0,0,1-.7-.44,1.48,1.48,0,0,1-.23-.38,1.72,1.72,0,0,1-.06-.52,5.44,5.44,0,0,1,.25-1.57,3.68,3.68,0,0,1,.79-1.44A1.85,1.85,0,0,1,190.23,394.12Zm-1.61,3.81a2.86,2.86,0,0,0,1.29.23,6.73,6.73,0,0,0,1.77-.17c0-1.91-.52-2.87-1.55-2.87a1.25,1.25,0,0,0-1.11.79A4.43,4.43,0,0,0,188.62,397.93Zm1.43-7.24,1,.76-.75.93-1-.76Zm9.26,9.8s0,0,.06.11a.53.53,0,0,1,0,.23v.52a.53.53,0,0,1,0,.23q0,.09-.06.09h-.71a2.37,2.37,0,0,1-1-.2,1.76,1.76,0,0,1-.7-.56v.33a3.61,3.61,0,0,1-1.13,2.45,9.29,9.29,0,0,1-3.21,2.12l-.6-.89a10.9,10.9,0,0,0,2.86-1.69,4,4,0,0,0,1.29-1.77l-.45-4.17.91-.18.24,2.22a1.1,1.1,0,0,0,.54.88,2.5,2.5,0,0,0,1.26.28Zm6.83.31c-1,.27-1.71.46-2.24.58a16.61,16.61,0,0,1-1.66.23c-.57,0-1.34.06-2.32.06h-.6c-.06,0-.1-.11-.1-.32v-.52c0-.22,0-.34.1-.34h2.23a4.42,4.42,0,0,1-.62-2.09,1.73,1.73,0,0,1,.66-1.42,2.74,2.74,0,0,1,1.75-.53,6.28,6.28,0,0,1,1.73.24l-.25.93a8.14,8.14,0,0,0-1.54-.16,2.72,2.72,0,0,0-.86.14,1.71,1.71,0,0,0-.65.44,4.84,4.84,0,0,0,.69,2.41,26.86,26.86,0,0,0,3.65-.7ZM202.63,393l1,.76-.75.93-1-.76Zm8.25,13.41a38.12,38.12,0,0,1-.29-4.13,6.28,6.28,0,0,1,.39-2.49q1.41-3.22,2.92-3.23a1.67,1.67,0,0,1,1.47.82,3.7,3.7,0,0,1,.56,2.13,5.73,5.73,0,0,1-.23,1.6,1.53,1.53,0,0,1-.48.64,1,1,0,0,1-.55.17,1.24,1.24,0,0,1-.46-.1l-2.61-1.18a5.86,5.86,0,0,0-.1,1.25c0,.49,0,1,.08,1.6s.15,1.27.27,2.09a3.89,3.89,0,0,1,.06.44Zm3.9-5.5a2,2,0,0,0,.22-.62,4.13,4.13,0,0,0,.08-.78,2.54,2.54,0,0,0-.35-1.41,1,1,0,0,0-.9-.55,1.22,1.22,0,0,0-.93.48,8.7,8.7,0,0,0-1,1.64Zm6.53-.44c.06,0,.09.12.09.34v.52c0,.21,0,.32-.09.32h-.25a3.07,3.07,0,0,1-2.16-.66,3,3,0,0,1-.73-2.12l-.18-7.84.93-.16.09,8c0,1.07.66,1.61,2,1.61Zm3.7-4.35c.11,1.81.16,3.05.16,3.75a1.31,1.31,0,0,1-.2.68,1.46,1.46,0,0,1-.56.51,5.51,5.51,0,0,1-1.42.45,9.22,9.22,0,0,1-1.68.14c-.06,0-.09-.11-.09-.32v-.52c0-.22,0-.34.09-.34a6.06,6.06,0,0,0,3.05-.57l-.26-3.61Zm-.71-3.27,1,.76-.74.93-1-.76Zm5.25,11.43h-.84l4.6-14.57h.84Zm13.29-3.81s0,0,.06.11a.75.75,0,0,1,0,.23v.52a.75.75,0,0,1,0,.23q0,.09-.06.09h-.72a2.37,2.37,0,0,1-1-.2,1.76,1.76,0,0,1-.7-.56v.33a3.56,3.56,0,0,1-1.13,2.45,9.24,9.24,0,0,1-3.2,2.12l-.61-.89a10.57,10.57,0,0,0,2.86-1.69,3.8,3.8,0,0,0,1.29-1.77l-.45-4.17.92-.18.23,2.22a1.1,1.1,0,0,0,.54.88,2.53,2.53,0,0,0,1.26.28Zm7.24,0s.06,0,.08.11a.75.75,0,0,1,0,.23v.52a.75.75,0,0,1,0,.23c0,.06,0,.09-.08.09a18.9,18.9,0,0,1-2.19-.07.86.86,0,0,1,.53.51,2.22,2.22,0,0,1,.19.92v.65a1.89,1.89,0,0,1-.07.53.81.81,0,0,1-.23.38.84.84,0,0,1-.42.28,1.71,1.71,0,0,1-.64.08A2.45,2.45,0,0,1,245,404a5.37,5.37,0,0,1-.81-2.33h-1.37c-.06,0-.09-.11-.09-.32v-.52c0-.22,0-.34.09-.34h1.46a7.25,7.25,0,0,1,.53-1.91,4.66,4.66,0,0,1,1-1.5,1.72,1.72,0,0,1,1.22-.59h.73l.15,4ZM247,397.4a1.16,1.16,0,0,0-.9.59,6,6,0,0,0-.7,1.38,5.42,5.42,0,0,0-.29,1.26h1.06a3.09,3.09,0,0,1,1,.11Zm.83,5.61a1.54,1.54,0,0,0-.36-1,1.34,1.34,0,0,0-1.12-.44H245c.08,1.63.84,2.44,2.29,2.44l.48,0Zm11.46-6.87c.1,1.68.16,3,.16,3.92a1.33,1.33,0,0,1-.67,1.23,3.11,3.11,0,0,1-1.54.38,2.48,2.48,0,0,1-1-.18,1,1,0,0,1-.54-.55,1.19,1.19,0,0,1-.72.56,2.64,2.64,0,0,1-.91.17,2.22,2.22,0,0,1-1-.2,1.16,1.16,0,0,1-.59-.54,1.92,1.92,0,0,1-1,.56,5.38,5.38,0,0,1-1.43.18c-.06,0-.09-.11-.09-.32v-.52c0-.22,0-.34.09-.34a8.55,8.55,0,0,0,1.1-.06,2.07,2.07,0,0,0,.83-.33l.06-2.54h.85l-.06,2c0,.6.35.9,1.12.9a2.54,2.54,0,0,0,1.32-.28l-.09-3.26h.85l.06,3.26a1.33,1.33,0,0,0,1,.29,2.93,2.93,0,0,0,1.54-.31l-.25-3.87Zm-4-4.44.9.7-.72.9-.9-.7Zm-.89,1.93.9.71-.7.9-.9-.71Zm1.79,0,.9.71-.7.9-.9-.71Z"/><path class="cls-5" d="M246.29,420.57c-1.07.3-1.9.51-2.49.62a9.45,9.45,0,0,1-1.72.17,3.06,3.06,0,0,1-1.54-.34c.13,1.62.2,3.37.2,5.25l-1,.11a38.38,38.38,0,0,0-1.1-9.94l1.18-.27a25.14,25.14,0,0,1,.59,3.3,1.37,1.37,0,0,0,.62.32,4.47,4.47,0,0,0,.9.08,4.51,4.51,0,0,1-.54-2.27,1.72,1.72,0,0,1,.7-1.49,2.89,2.89,0,0,1,1.72-.51,6.19,6.19,0,0,1,1.65.25l-.29,1.21a8.33,8.33,0,0,0-1.43-.16,2.35,2.35,0,0,0-.66.1,1.93,1.93,0,0,0-.6.23,6.21,6.21,0,0,0,.15,1.38,4.67,4.67,0,0,0,.44,1.18,10.6,10.6,0,0,0,1.51-.18c.44-.11,1-.25,1.66-.44Zm3.28,5.81a1,1,0,0,1-.7-.28,1,1,0,0,1-.28-.72,1,1,0,0,1,.28-.71,1,1,0,0,1,.7-.28.93.93,0,0,1,.71.28,1,1,0,0,1,.28.71,1,1,0,0,1-.29.72A.94.94,0,0,1,249.57,426.38Zm7.21-10a14.35,14.35,0,0,0,.8,4.49,17.06,17.06,0,0,0,2.46,4.59l-1,.89a16.2,16.2,0,0,1-2.82-6.81l0-.18a.87.87,0,0,1,0,.18,15.22,15.22,0,0,1-1,3.67,14.69,14.69,0,0,1-1.87,3.14l-.88-1a11.09,11.09,0,0,0,1.75-2.82,18.22,18.22,0,0,0,1.14-3.33,12.56,12.56,0,0,0,.4-2.9v-.64l1-.09Z"/><path class="cls-5" d="M277.42,414.88l1.17,3.62h3.75a1.28,1.28,0,0,1,.78,2.33L280,423l1.17,3.63a1.27,1.27,0,0,1-1.95,1.42l-3.1-2.2-3.11,2.2a1.25,1.25,0,0,1-1.94-1.42l1.16-3.63-3.1-2.2a1.28,1.28,0,0,1,.77-2.33h3.76l1.16-3.62A1.39,1.39,0,0,1,277.42,414.88Z"/><path class="cls-4" d="M48.28,85.8H307.2V344.71H48.28Z"/><path class="cls-3" d="M234.27,269.87c-2.48-4.3-9.09-4.53-12.35,1.44a16.73,16.73,0,0,1-5.33,6.25l-2.9-4.85,5.57-3.11-18.35-44.39a27.38,27.38,0,0,0,2.73-2.55c4.37-4.79,9.1-13.4,6.79-27.34-.8-4.23-1.29-8,.78-11.3,3.72-6,1.91-10.42-.77-12.44-4.89-3.68-10.47-.83-13.59,2.38l-1.28-18.23c-.26-3.66-1.64-6.83-3.79-8.69a8.26,8.26,0,0,0-9.63-.73l-.06-.75a12.72,12.72,0,0,0-3.94-8.77,7.75,7.75,0,0,0-5.84-1.85c-4.46.41-7.42,4.62-8.11,9.09a7.8,7.8,0,0,0-4-.68c-5.92.57-8.62,6.41-8.23,11.89l.61,8.64a6.41,6.41,0,0,0-2.86-.33c-4.89.55-7.76,5.09-7.31,11.58l1.93,27.26h0l0,.55c0,.05,0,.1,0,.16,1.1,13,6.51,20.54,11.49,24.78a28.33,28.33,0,0,1-1.11,9.79c-2.33,7.84-7.78,13.57-16.13,17l-2.24.84-15.88,4.87,4.81,16.09,4.54-.56c-1.38,3-2.46,7.59-.67,13.86,1.6,5.58,6.48,6.22,9.22,4.88,3.61-1.78,5.55-5.56,2.17-10.81-3.62-5.62-2.53-8.08-1.48-9.07l.6-.07,1.4,4.42,1.83.11q1.9.12,3.69.12c25,0,31.39-16.34,31.66-17.07a2.67,2.67,0,1,0-5-1.88c-.06.15-5.64,14.23-28.2,13.58l-2.18-6.9-2.34-7.43h0c16.86-6.94,20.14-20.66,20.59-28.23a20.65,20.65,0,0,0,3.66,1.49,2.76,2.76,0,0,0,.57.06,2.67,2.67,0,0,0,.58-5.28c-.15,0-14.81-4.21-16.33-25.68l-1.92-27.27c0-.57-.31-5.57,2.57-5.89a1.21,1.21,0,0,1,1,.34c1,.86,1.85,3,2,5.16l1.16,16.49a2.67,2.67,0,1,0,5.33-.38l-1-13.62h0l-1.55-22c-.16-2.34.6-5.92,3.4-6.19a2.47,2.47,0,0,1,1.91.58,7.7,7.7,0,0,1,2,5.09v0l1.82,25.81a2.67,2.67,0,0,0,2.66,2.48h.2a2.66,2.66,0,0,0,2.47-2.85l-2.35-33.36c-.21-2.89,1.51-6,3.39-6.18a2.41,2.41,0,0,1,1.89.59,7.65,7.65,0,0,1,2.07,5.08l2.36,33.35a2.67,2.67,0,1,0,5.33-.37l-1.57-22.2a.27.27,0,0,0,0-.09c-.16-2.29.61-6,3.34-6.18a2.66,2.66,0,0,1,2.06.63,7.65,7.65,0,0,1,2,5l2.34,33.26h0v0l.47,6.75a2.93,2.93,0,0,0,.05.29l0,.19a2.41,2.41,0,0,0,.16.42.43.43,0,0,0,0,.05,2.7,2.7,0,0,0,2,1.49h.14a3,3,0,0,0,.31,0h.19l.23,0,.26,0a1.84,1.84,0,0,0,.25-.09l.24-.09.22-.13a1.7,1.7,0,0,0,.22-.15l.19-.16.19-.18.15-.2a1.7,1.7,0,0,0,.15-.22.91.91,0,0,0,.11-.22,2.56,2.56,0,0,0,.11-.24,2,2,0,0,0,.07-.26,1.83,1.83,0,0,0,.06-.25c0-.09,0-.19,0-.28s0-.15,0-.22c-.05-1.1-.23-3.54-.37-5.32l-.11-1.53v0c-.33-4.65.4-8.3,2.11-10.55.81-1.08,4.43-4.67,7.2-2.59,1.18.89,1,2.89-.56,5.33-3.33,5.34-2.23,11.23-1.51,15.07,2,11.77-1.89,18.89-5.47,22.8a21.4,21.4,0,0,1-3.31,2.93,2.19,2.19,0,0,0-.53.37,17.69,17.69,0,0,1-10.52,3.25,2.67,2.67,0,1,0-.4,5.33c.41,0,.82,0,1.24,0a22.34,22.34,0,0,0,10.2-2.75l11.87,28.7c-.49,1-2,3.29-6.38,4.16a2.68,2.68,0,0,0,.52,5.3,2.39,2.39,0,0,0,.53-.06,15.15,15.15,0,0,0,7.66-3.75l1.94,4.67-1.56.87h0l-7.06,3.94-4.46,2.49-25.76-34.41a2.67,2.67,0,1,0-4.28,3.2l25.33,33.84h0l13.79,18.42,14.14-7.88-2-3.41a24.72,24.72,0,0,0,9.51-3.7C235.56,276.91,235.61,272.19,234.27,269.87Z"/><path class="cls-3" d="M166.38,256.31a3.2,3.2,0,0,1-2.6,3.3,2.67,2.67,0,0,0,.48,5.3,2.61,2.61,0,0,0,.48-.05,8.57,8.57,0,0,0,7-8.64,2.64,2.64,0,0,0-2.72-2.63A2.68,2.68,0,0,0,166.38,256.31Z"/><path class="cls-3" d="M168.13,189.9c-1.42.38-2.26,2.41-1.88,4.53s1.83,3.52,3.24,3.14,2.26-2.41,1.88-4.53S169.54,189.52,168.13,189.9Z"/><path class="cls-3" d="M187.09,197.57c1.41-.38,2.25-2.41,1.87-4.53s-1.83-3.52-3.24-3.14-2.26,2.41-1.88,4.53S185.67,198,187.09,197.57Z"/><path class="cls-3" d="M171.78,209.47a2.66,2.66,0,0,0,2.65,2.41h.27l8.92-.88-3.07-13.81a2.67,2.67,0,0,0-5.22,1.16l1.77,7.92-2.93.29A2.66,2.66,0,0,0,171.78,209.47Z"/><path class="cls-3" d="M170,218.11a2.66,2.66,0,0,0,.95,3.66,14.07,14.07,0,0,0,7.18,2,14.22,14.22,0,0,0,12.27-7,2.67,2.67,0,1,0-4.61-2.71,8.86,8.86,0,0,1-12.13,3.15A2.67,2.67,0,0,0,170,218.11Z"/><path class="cls-5" d="M283.89,392.61l-1.29-3.88h-13l-1.29,3.88a2.51,2.51,0,0,0,1.29,2.2v9.45h13v-9.45A2.49,2.49,0,0,0,283.89,392.61Zm-2.59,6.47H271V395.2a2.6,2.6,0,0,0,2.59-2.59,2.59,2.59,0,1,0,5.18,0,2.59,2.59,0,0,0,2.58,2.59Z"/></g></svg>