<svg xmlns="http://www.w3.org/2000/svg" xmlns:xlink="http://www.w3.org/1999/xlink" viewBox="0 0 1152 648"><defs><style>.cls-1{fill:none;}.cls-2{fill:#dfdddd;}.cls-3{fill:#f4f4f4;}.cls-4{fill:#565453;}.cls-5{fill:#fd5d41;}.cls-6{fill:#fff;}.cls-7{clip-path:url(#clip-path);}.cls-8{fill:#989594;}.cls-9{fill:#837f7f;}</style><clipPath id="clip-path"><rect class="cls-1" width="1152" height="648"/></clipPath></defs><g id="Layer_1" data-name="Layer 1"><rect class="cls-2" width="1152" height="648"/><path class="cls-3" d="M45.36,77A31.59,31.59,0,0,1,77,45.36h998.1A31.59,31.59,0,0,1,1106.64,77V266.5H45.36Z"/><path class="cls-4" d="M155.93,167.78a11.85,11.85,0,1,1,11.85-11.85A11.64,11.64,0,0,1,155.93,167.78Zm0-15.8a4,4,0,1,0,3.95,4A3.73,3.73,0,0,0,155.93,152Z"/><path class="cls-4" d="M155.93,179.63a43.14,43.14,0,0,1-37.51-21.72l-1.19-2,1.19-2a43.26,43.26,0,0,1,75,0l1.18,2-1.18,2A43.16,43.16,0,0,1,155.93,179.63Zm-29.62-23.7a35.66,35.66,0,0,0,59.24,0,35.68,35.68,0,0,0-59.24,0Z"/><path class="cls-4" d="M986.61,166.25q.17,0,.27.45a4,4,0,0,1,.11,1.05v2.54a4,4,0,0,1-.11,1.05q-.11.39-.27.39h-2.27a6.93,6.93,0,0,1-5.69-2.38l.16,7a4.79,4.79,0,0,1-2.38,4.09,17,17,0,0,1-6.24,2.65,34.94,34.94,0,0,1-7.91.89q-6.9,0-10.06-2.55c-2.06-1.69-3.1-4.27-3.1-7.74a37.08,37.08,0,0,1,.5-4.37c.33-2.17.74-4.81,1.22-7.9q.17-1.11.33-2.16l.33-2.21,3.43.66q-2.1,12.62-2.1,15.37a4.32,4.32,0,0,0,2.54,4.15,15.2,15.2,0,0,0,6.91,1.33,37.24,37.24,0,0,0,7.58-.67,12.45,12.45,0,0,0,5.25-2.26l-1.61-42.46,4.32-.72.66,30.35a5.21,5.21,0,0,0,1,2.43,3.06,3.06,0,0,0,1.65.89,17.43,17.43,0,0,0,2.77.16Zm19.24,0c.07,0,.14.15.22.45a3,3,0,0,1,.16,1.05v2.54a3,3,0,0,1-.16,1.05c-.08.26-.15.39-.22.39a19,19,0,0,1-6.42-.83,4.92,4.92,0,0,1-2.87-2.66,5.84,5.84,0,0,1-3.43,2.66,20.88,20.88,0,0,1-6.52.83c-.11,0-.21-.13-.28-.39a4.51,4.51,0,0,1-.11-1.05v-2.54a4.51,4.51,0,0,1,.11-1.05c.07-.3.17-.45.28-.45a27.42,27.42,0,0,0,4.64-.33,10.84,10.84,0,0,0,3.48-1.32l-1.1-10.9,4.14-.44.72,11.5C1000,165.76,1002.42,166.25,1005.85,166.25Zm-10.62,11.39,4.15,3.26-3.15,3.93-4.15-3.26Zm29.84-11.39c.07,0,.14.15.22.45a3,3,0,0,1,.16,1.05v2.54a3,3,0,0,1-.16,1.05c-.08.26-.15.39-.22.39a19,19,0,0,1-6.42-.83,4.92,4.92,0,0,1-2.87-2.66,5.84,5.84,0,0,1-3.43,2.66,20.88,20.88,0,0,1-6.52.83c-.11,0-.21-.13-.28-.39a4.51,4.51,0,0,1-.11-1.05v-2.54a4.51,4.51,0,0,1,.11-1.05c.07-.3.17-.45.28-.45a27.5,27.5,0,0,0,4.64-.33,10.84,10.84,0,0,0,3.48-1.32l-1.1-10.9,4.14-.44.72,11.5C1019.19,165.76,1021.64,166.25,1025.07,166.25ZM1011,177.64l3.76,3-3,3.82-3.82-3Zm7.13,0,3.81,3-3.09,3.82-3.76-3Zm21.21-13.1a5.43,5.43,0,0,1-.77,2.76,5.88,5.88,0,0,1-2.16,2.22q-3.77,2.21-11.33,2.21c-.11,0-.21-.13-.28-.39a4,4,0,0,1-.11-1.05v-2.54a4,4,0,0,1,.11-1.05c.07-.3.17-.45.28-.45a49.26,49.26,0,0,0,6-.33,12.45,12.45,0,0,0,4.54-1.49l-1.17-31.29,4.32-.72Z"/><rect class="cls-4" x="45.36" y="262.55" width="1061.28" height="3.95"/><rect class="cls-5" x="650.67" y="320.25" width="455.8" height="162.79" rx="32.56"/><path class="cls-6" d="M766.75,408.41c.15,0,.29.23.4.68a6.89,6.89,0,0,1,.17,1.6v4.95a6.89,6.89,0,0,1-.17,1.6c-.11.46-.25.68-.4.68H766a9.85,9.85,0,0,1-4.39-1,7.89,7.89,0,0,1-3.19-3.3q.29,5.13.29,8a6.53,6.53,0,0,1-3.08,5.53,20.44,20.44,0,0,1-7.41,3.13,35.9,35.9,0,0,1-8,1q-8,0-11.46-3t-3.47-9a78.73,78.73,0,0,1,1.31-9.69l1.42-9.17,5.82,1.26q-2.24,13.32-2.23,16.18c0,1.48.86,2.5,2.57,3.07a19.12,19.12,0,0,0,6,.86,44.47,44.47,0,0,0,6.83-.46,17.2,17.2,0,0,0,5.13-1.54l-2.45-21.25,7.29-1.48.86,7a5.53,5.53,0,0,0,1,3,3.61,3.61,0,0,0,2.23,1.14c1,.11,2.6.17,4.84.17Zm-26.38-23.87,6.38,5.12-4.9,5.93-6.38-5.13Zm48.08,9q.57,8.78.57,14.36a10,10,0,0,1-.85,4.1,7,7,0,0,1-2.68,3.14,15.93,15.93,0,0,1-6.21,2.11,92.3,92.3,0,0,1-12.53.62c-.15,0-.27-.21-.34-.62a6.63,6.63,0,0,1-.18-1.66v-4.95a6.35,6.35,0,0,1,.18-1.6c.07-.45.19-.68.34-.68q7.13,0,10.48-.23a16.5,16.5,0,0,0,5.3-1.14l-1.31-12.19Zm-14.75-17,5.7,4.61-4.62,5.7-5.7-4.61Zm9.51,0,5.7,4.61-4.61,5.7-5.7-4.61Zm27.86,31.85c.16,0,.27.23.35.68a6.89,6.89,0,0,1,.17,1.6v4.95a7.19,7.19,0,0,1-.17,1.66c-.08.41-.19.62-.35.62h-1.76a15.37,15.37,0,0,1-6.73-1.25,8.15,8.15,0,0,1-3.87-4.27,25.34,25.34,0,0,1-1.54-8.61l-1.08-28.09,7.52-1.25.06,29.23a5.32,5.32,0,0,0,1.19,3.47,4.58,4.58,0,0,0,3.48,1.26Zm15.75-14.82q.57,8.78.57,14.36a10,10,0,0,1-.86,4.1,7.55,7.55,0,0,1-2.68,3.14q-4,2.73-12.76,2.73c-.15,0-.26-.21-.34-.62a7.19,7.19,0,0,1-.17-1.66v-4.95a6.89,6.89,0,0,1,.17-1.6c.08-.45.19-.68.34-.68a48.69,48.69,0,0,0,5.76-.29,13.46,13.46,0,0,0,4-1.08l-1.37-12.19Zm-10.77,29.69,6.38,5.13-4.9,5.92-6.38-5.13Zm69.21-14.87c.16,0,.29.23.4.68a6.38,6.38,0,0,1,.17,1.6v4.95a6.38,6.38,0,0,1-.17,1.6c-.11.46-.24.68-.4.68h-.74a9.84,9.84,0,0,1-4.38-1,7.85,7.85,0,0,1-3.2-3.3c.2,3.42.29,6.1.29,8a6.53,6.53,0,0,1-3.08,5.53,20.46,20.46,0,0,1-7.4,3.13,36,36,0,0,1-8,1q-8,0-11.45-3t-3.48-9a78.73,78.73,0,0,1,1.31-9.69l1.43-9.17,5.81,1.26q-2.22,13.32-2.22,16.18c0,1.48.85,2.5,2.56,3.07a19.12,19.12,0,0,0,6,.86,44.7,44.7,0,0,0,6.84-.46,17.23,17.23,0,0,0,5.12-1.54l-2.45-21.25,7.3-1.48.85,7a5.52,5.52,0,0,0,1,3,3.56,3.56,0,0,0,2.22,1.14c1,.11,2.6.17,4.84.17Zm-26.38-23.87,6.39,5.12-4.9,5.93L854,390.46Zm48.2,23.87c.15,0,.27.23.34.68a6.38,6.38,0,0,1,.17,1.6v4.95a6.67,6.67,0,0,1-.17,1.66c-.07.41-.19.62-.34.62a20.23,20.23,0,0,1-7.29-1,5.29,5.29,0,0,1-3.08-3.36A6.42,6.42,0,0,1,893,417a23.16,23.16,0,0,1-7.75,1c-.15,0-.27-.21-.34-.62a6.67,6.67,0,0,1-.17-1.66v-4.95a6.38,6.38,0,0,1,.17-1.6c.07-.45.19-.68.34-.68,3.72,0,6.46-.46,8.2-1.37l-1.25-10.2,7.24-.8.51,11.34A19.31,19.31,0,0,0,907.08,408.41Zm-17-28,5.7,4.62-4.61,5.7-5.7-4.62Zm9.52,0,5.7,4.62-4.62,5.7-5.7-4.62Zm25.85,14.93a7,7,0,0,1,4.9,1.88,11.19,11.19,0,0,1,3.19,5,21,21,0,0,1,1.14,7.12,24.82,24.82,0,0,1-.85,6.44,3.85,3.85,0,0,1-.8,1.59,10.5,10.5,0,0,1-2,1.82,7.63,7.63,0,0,1-1.71,1.14,3.35,3.35,0,0,1-1.42.34,3.66,3.66,0,0,1-1.26-.28L916,415.7a7.54,7.54,0,0,1-3.08,1.71,17.42,17.42,0,0,1-4.61.51h-1.2c-.15,0-.26-.21-.34-.62a7.19,7.19,0,0,1-.17-1.66v-4.95a6.89,6.89,0,0,1,.17-1.6c.08-.45.19-.68.34-.68h2a11.75,11.75,0,0,0,2.73-.23,2.35,2.35,0,0,0,1.37-.85,14.27,14.27,0,0,0,1.14-2.11q2.28-5.3,4.78-7.58A9.12,9.12,0,0,1,925.47,395.36Zm2.28,16.69a9.73,9.73,0,0,0,.4-3.07,7.73,7.73,0,0,0-.91-4,3,3,0,0,0-2.73-1.54,3.47,3.47,0,0,0-2.57,1,23.26,23.26,0,0,0-2.68,3.7Z"/><path class="cls-6" d="M1065.77,389.44a18.53,18.53,0,0,0-2-8.14L1053.16,363a4.29,4.29,0,0,0-3.67-2h-48.83a4.29,4.29,0,0,0-3.67,2L986.41,381.3a18.53,18.53,0,0,0-2,8.14,15.27,15.27,0,0,0,8.14,13.83v27.27a11.47,11.47,0,0,0,11.39,11.8h42.33A11.64,11.64,0,0,0,1057.63,431V403.68A16.4,16.4,0,0,0,1065.77,389.44ZM1021,434.2V422a4.07,4.07,0,1,1,8.13,0V434.2Zm28.48-3.25a3,3,0,0,1-3.25,3.25h-9V422a12.21,12.21,0,1,0-24.41,0V434.2h-9a3.21,3.21,0,0,1-3.25-3.25V405.71a15.27,15.27,0,0,0,12.21-5.69,16.59,16.59,0,0,0,12.21,5.69,15.23,15.23,0,0,0,12.2-5.69,16.61,16.61,0,0,0,12.21,5.69Zm0-33.38a8.16,8.16,0,0,1-8.14-8.13,4.07,4.07,0,0,0-8.14,0,8.14,8.14,0,0,1-16.27,0,4.07,4.07,0,1,0-8.14,0,8.14,8.14,0,0,1-16.28,0,6.83,6.83,0,0,1,1.22-4.07l9.36-16.28h43.95l9.36,16.28a6.83,6.83,0,0,1,1.22,4.07A8.16,8.16,0,0,1,1049.49,397.57Z"/><g class="cls-7"><path class="cls-6" d="M-468.95,324h-1.49V684.33h1075V324H-468.95Z"/><path d="M-353.52,429.67c.08,0,.15.09.21.29a2.12,2.12,0,0,1,.08.62V432a2.17,2.17,0,0,1-.08.62c-.06.17-.13.25-.21.25h-1q-4.79,0-6.16-2.5c.17,2.67.25,4.73.25,6.2a3.42,3.42,0,0,1-1.7,2.79,12,12,0,0,1-4.54,1.83,26.56,26.56,0,0,1-6.16.67q-5,0-7.28-1.83c-1.53-1.2-2.29-3-2.29-5.54a32.35,32.35,0,0,1,.33-3.24c.25-1.7.57-3.79,1-6.29l.42-2.62,2,.38a101.78,101.78,0,0,0-1.53,11.52,3.64,3.64,0,0,0,1.91,3.42,11.37,11.37,0,0,0,5.45,1.08q7.49,0,10.28-2.42L-364,420.35l2.45-.5.58,6.57a3.19,3.19,0,0,0,.92,2.17,4.4,4.4,0,0,0,2,.87,20.62,20.62,0,0,0,3.29.21Zm-18.27-16.36,2.58,2-2,2.5-2.58-2Zm49.54,16.36c.06,0,.11.09.17.29a2.12,2.12,0,0,1,.08.62V432a2.17,2.17,0,0,1-.08.62c-.06.17-.11.25-.17.25h-2.49a5.41,5.41,0,0,1-2.71-.62,3.61,3.61,0,0,1-1.5-1.75,4.17,4.17,0,0,1-2.24,1.83,9.41,9.41,0,0,1-3.21.54,6.44,6.44,0,0,1-2.62-.5,2.68,2.68,0,0,1-1.46-1.46,3.12,3.12,0,0,1-1.91,1.5,7.51,7.51,0,0,1-2.46.46,6.19,6.19,0,0,1-2.7-.54,3.24,3.24,0,0,1-1.58-1.46,5,5,0,0,1-2.54,1.5,14,14,0,0,1-3.83.5c-.17,0-.25-.29-.25-.87v-1.38c0-.61.08-.91.25-.91a22.31,22.31,0,0,0,3-.17,5.71,5.71,0,0,0,2.2-.87l.17-6.83h2.29l-.17,5.45c-.06,1.61.94,2.42,3,2.42a6.89,6.89,0,0,0,3.53-.75l-.25-8.74,2.29,0,.17,8.74a3.49,3.49,0,0,0,2.58.79,7.91,7.91,0,0,0,4.12-.84l-.67-10.36,2.37-.45.21,4.07.25,4.12a4,4,0,0,0,.88,2.67,4.07,4.07,0,0,0,2.83.79Zm-17.31-23.56,2.41,1.88-1.91,2.41-2.41-1.87Zm-2.37,5.16,2.41,1.92-1.87,2.41-2.41-1.91Zm4.78,0,2.42,1.92-1.87,2.41-2.42-1.91Zm28.88,18.4c.06,0,.11.09.17.29a2.12,2.12,0,0,1,.08.62V432a2.17,2.17,0,0,1-.08.62c-.06.17-.11.25-.17.25a13.62,13.62,0,0,1-4.62-.62,3.64,3.64,0,0,1-2.12-1.84c-.94,1.64-3.36,2.46-7.24,2.46-.17,0-.25-.29-.25-.87v-1.38c0-.61.08-.91.25-.91a18.34,18.34,0,0,0,3.54-.29,7.21,7.21,0,0,0,2.58-1.09l-.75-8.4,2.37-.29.58,8.82Q-312.22,429.67-308.27,429.67Zm-9.86,7.78,2.41,1.91-1.91,2.46-2.46-1.92Zm4.83,0,2.45,1.91-1.95,2.46-2.42-1.92Zm24-7.78c.08,0,.15.09.2.29a1.81,1.81,0,0,1,.09.62V432a1.85,1.85,0,0,1-.09.62c-.05.17-.12.25-.2.25h-2.17q-3.66,0-4.53-2.46-2.5,2.46-12.28,2.46c-.17,0-.25-.29-.25-.87v-1.38c0-.61.08-.91.25-.91a55.89,55.89,0,0,0,6.45-.34,16.87,16.87,0,0,0,4.54-1.08,18,18,0,0,0-1.17-5.91,15.69,15.69,0,0,0-3.25-5,32.06,32.06,0,0,0-5.95-4.91l.21-2.83c2.44-1.19,4.72-2.24,6.83-3.12s4.37-1.75,6.7-2.5l.33,2.66a66,66,0,0,0-11.15,4.58,2.07,2.07,0,0,1,.54.38q5.2,3.82,7,7.74a19.77,19.77,0,0,1,2,7.86,2.89,2.89,0,0,0,1.08,2,5.29,5.29,0,0,0,2.46.46Zm14,0c.06,0,.11.09.17.29a2.12,2.12,0,0,1,.08.62V432a2.17,2.17,0,0,1-.08.62c-.06.17-.11.25-.17.25a13.54,13.54,0,0,1-4.62-.62,3.64,3.64,0,0,1-2.12-1.84c-.94,1.64-3.36,2.46-7.24,2.46-.17,0-.25-.29-.25-.87v-1.38c0-.61.08-.91.25-.91a18.41,18.41,0,0,0,3.54-.29,7.21,7.21,0,0,0,2.58-1.09l-.75-8.4,2.37-.29.58,8.82C-279.83,429.25-277.95,429.67-275.31,429.67Zm-9.86,7.78,2.41,1.91-1.91,2.46-2.46-1.92Zm4.82,0,2.46,1.91-2,2.46-2.41-1.92Zm20.93-7.78c.09,0,.16.09.21.29a1.83,1.83,0,0,1,.08.62V432a1.87,1.87,0,0,1-.08.62c-.05.17-.12.25-.21.25a15.41,15.41,0,0,1-5.36-.71,3.4,3.4,0,0,1-2.17-2,4.75,4.75,0,0,1-2.87,2.09,19.94,19.94,0,0,1-5.49.62c-.17,0-.25-.29-.25-.87v-1.38c0-.61.08-.91.25-.91a33,33,0,0,0,4.45-.25,5.23,5.23,0,0,0,2.7-1.17l-.87-23.88,2.54-.42.46,22.26a3,3,0,0,0,1.41,2.67,8.6,8.6,0,0,0,4.08.79Zm9.9-11.65c.28,4.82.42,8.17.42,10a3.48,3.48,0,0,1-.54,1.84,3.92,3.92,0,0,1-1.5,1.37,15.2,15.2,0,0,1-3.79,1.21,27.3,27.3,0,0,1-4.49.37c-.17,0-.25-.29-.25-.87v-1.38c0-.61.08-.91.25-.91,3.8,0,6.52-.52,8.15-1.54l-.7-9.66Zm-8.41,19.43,2.42,1.91-1.87,2.42-2.42-1.92Zm4.79,0,2.41,1.91-1.87,2.42-2.41-1.92Zm-2.33,5.2,2.41,1.91-1.91,2.38-2.41-1.88Zm12.28-38.28,2.5-.42.38,28.88-2.13.33Zm43.28,25.3c.08,0,.15.09.21.29a2.12,2.12,0,0,1,.08.62V432a2.17,2.17,0,0,1-.08.62c-.06.17-.13.25-.21.25h-1q-4.78,0-6.16-2.5c.17,2.67.25,4.73.25,6.2a3.42,3.42,0,0,1-1.7,2.79,12,12,0,0,1-4.54,1.83,26.56,26.56,0,0,1-6.16.67q-5,0-7.28-1.83c-1.53-1.2-2.29-3-2.29-5.54a32.35,32.35,0,0,1,.33-3.24c.25-1.7.57-3.79,1-6.29l.42-2.62,2,.38a101.78,101.78,0,0,0-1.53,11.52,3.64,3.64,0,0,0,1.91,3.42,11.37,11.37,0,0,0,5.45,1.08q7.48,0,10.28-2.42l-1.37-15.93,2.45-.5.58,6.57a3.19,3.19,0,0,0,.92,2.17,4.4,4.4,0,0,0,2,.87,20.62,20.62,0,0,0,3.29.21Zm-18.27-16.36,2.58,2-2,2.5-2.58-2ZM-190,418c.28,4.82.42,8.17.42,10a3.48,3.48,0,0,1-.54,1.84,3.78,3.78,0,0,1-1.5,1.37,15.07,15.07,0,0,1-3.79,1.21,27.3,27.3,0,0,1-4.49.37c-.17,0-.25-.29-.25-.87v-1.38c0-.61.08-.91.25-.91,3.8,0,6.52-.52,8.16-1.54l-.71-9.66Zm-8.4,19.43,2.41,1.91-1.91,2.46-2.46-1.92Zm4.83,0,2.45,1.91-1.95,2.46-2.42-1.92Zm9.91-33.08,2.5-.42.37,28.88-2.12.33ZM-167,433a2,2,0,0,1-1.5-.63,2.15,2.15,0,0,1-.58-1.54,2.17,2.17,0,0,1,.58-1.54,2.08,2.08,0,0,1,1.5-.62,2,2,0,0,1,1.54.62,2,2,0,0,1,.63,1.54,2.07,2.07,0,0,1-.63,1.54A2.07,2.07,0,0,1-167,433Zm42.72-3.33c.05,0,.11.09.16.29a1.81,1.81,0,0,1,.09.62V432a1.85,1.85,0,0,1-.09.62c-.05.17-.11.25-.16.25a14.48,14.48,0,0,1-5-.67,3.59,3.59,0,0,1-2.21-1.74,3,3,0,0,1-1.16.87,15.58,15.58,0,0,1-2,.67,34.81,34.81,0,0,1-4.79.79,54.54,54.54,0,0,1-5.57.29,39,39,0,0,1-7.12-.54,8.93,8.93,0,0,1-4.45-2.13,5.81,5.81,0,0,1-1.58-4.36,22.5,22.5,0,0,1,.25-2.67c.19-1.27.47-3,.83-5.32l2,.41a65.12,65.12,0,0,0-.92,7.12,3.19,3.19,0,0,0,1.38,2.79,8.5,8.5,0,0,0,3.7,1.24,45.86,45.86,0,0,0,5.78.3,66.85,66.85,0,0,0,7.37-.38,24.61,24.61,0,0,0,5.49-1.21l-.62-7.82,2.37-.29.46,8.36a4.55,4.55,0,0,0,2.12.92A24.32,24.32,0,0,0-124.29,429.67Zm-22.06-16.4,2.42,1.92-1.92,2.45-2.45-1.91Zm4.83,0,2.46,1.92-2,2.45-2.41-1.91ZM-99.71,418c.28,4.49.42,8,.42,10.48a3.53,3.53,0,0,1-1.79,3.29,8.11,8.11,0,0,1-4.12,1,6.49,6.49,0,0,1-2.63-.5,2.66,2.66,0,0,1-1.45-1.46,3.11,3.11,0,0,1-1.92,1.5,7.41,7.41,0,0,1-2.45.46,6.21,6.21,0,0,1-2.71-.54,3.33,3.33,0,0,1-1.58-1.46,4.91,4.91,0,0,1-2.54,1.5,14,14,0,0,1-3.82.5c-.17,0-.25-.29-.25-.87v-1.38c0-.61.08-.91.25-.91a22.14,22.14,0,0,0,3-.17,5.75,5.75,0,0,0,2.21-.87l.16-6.83h2.29l-.17,5.45c0,1.61,1,2.42,3,2.42a6.9,6.9,0,0,0,3.54-.75l-.25-8.74,2.29,0,.16,8.74a3.49,3.49,0,0,0,2.58.79,7.91,7.91,0,0,0,4.12-.84l-.66-10.36Zm6.32-13.65,2.49-.42.38,28.88-2.13.33ZM-73.22,433a7.41,7.41,0,0,1-4.16-1.13A4.27,4.27,0,0,1-79,428.13a8.6,8.6,0,0,1,1.37-4.25,25.83,25.83,0,0,1,3.37-4.53L-76,418.1l1.41-2.12a21.58,21.58,0,0,1,6.37,5.91,11.91,11.91,0,0,1,2.29,6.94,4.75,4.75,0,0,1-.5,2.34A9.58,9.58,0,0,1-67,432a1.27,1.27,0,0,1-.59.45,6.74,6.74,0,0,1-2.16.5C-70.65,433-71.8,433-73.22,433Zm.09-3.16c1.39,0,2.43,0,3.12-.05a10.85,10.85,0,0,0,1.91-.29,11.72,11.72,0,0,0-.79-4.45,10.47,10.47,0,0,0-3.74-4.45,16.22,16.22,0,0,0-3,3.62,7.33,7.33,0,0,0-1.33,3.24C-76.92,429.08-75.66,429.88-73.13,429.88Zm34.08-.21s.11.09.16.29a1.81,1.81,0,0,1,.09.62V432a1.85,1.85,0,0,1-.09.62c0,.17-.11.25-.16.25h-1q-4.5,0-5.37-3.16a3.09,3.09,0,0,1-1.33,1.54,13.47,13.47,0,0,1-4,1.58,19.35,19.35,0,0,1-4.78.66,6.53,6.53,0,0,1-2.88-.5,2.66,2.66,0,0,1-1.41-1.62,10.1,10.1,0,0,1-.42-3.29c0-.66,0-1.17.05-1.54l1.95.13v.71a8.5,8.5,0,0,0,.17,2,1.13,1.13,0,0,0,.79.74,8,8,0,0,0,2,.17,19,19,0,0,0,5-.66,10.91,10.91,0,0,0,3.79-1.71l-3.08-12.86,2.37-1.33L-44.92,425a13.61,13.61,0,0,0,1,3.33,2.42,2.42,0,0,0,1.5,1.17A18.1,18.1,0,0,0-39,429.67ZM-14.45,418c.27,4.49.41,8,.41,10.48a3.51,3.51,0,0,1-1.79,3.29,8,8,0,0,1-4.11,1,6.49,6.49,0,0,1-2.63-.5A2.66,2.66,0,0,1-24,430.87a3.14,3.14,0,0,1-1.92,1.5,7.46,7.46,0,0,1-2.45.46,6.21,6.21,0,0,1-2.71-.54,3.24,3.24,0,0,1-1.58-1.46,4.91,4.91,0,0,1-2.54,1.5,14,14,0,0,1-3.83.5q-.24,0-.24-.87v-1.38c0-.61.08-.91.24-.91a22.31,22.31,0,0,0,3-.17,5.71,5.71,0,0,0,2.2-.87l.17-6.83h2.29l-.17,5.45c0,1.61,1,2.42,3,2.42a7,7,0,0,0,3.54-.75l-.25-8.74,2.29,0,.16,8.74a3.49,3.49,0,0,0,2.58.79,7.91,7.91,0,0,0,4.12-.84l-.66-10.36Zm-10.7-11.91,2.42,1.88-1.92,2.41-2.41-1.87Zm-2.37,5.16,2.42,1.92L-27,415.6l-2.41-1.91Zm4.79,0,2.41,1.92-1.87,2.41-2.42-1.91Zm41.67,18.4c.09,0,.15.09.21.29a2.12,2.12,0,0,1,.08.62V432a2.17,2.17,0,0,1-.08.62c-.06.17-.12.25-.21.25H15.2a8.39,8.39,0,0,1-4.66-1.08A8,8,0,0,1,8.08,429a19.77,19.77,0,0,0-4.41,2.54,11.72,11.72,0,0,0-2.91,3A9.74,9.74,0,0,0,.26,436a8.26,8.26,0,0,0-.13,1.46,7.22,7.22,0,0,0,2.54,5.91,10.8,10.8,0,0,0,7,2.08,21.82,21.82,0,0,0,7.53-1.29l-.37,3.08a18.53,18.53,0,0,1-7.16,1.37,14.33,14.33,0,0,1-6.12-1.25,10,10,0,0,1-4.12-3.49,9.45,9.45,0,0,1-1.45-5.25,11.28,11.28,0,0,1,2-6.57,15.11,15.11,0,0,1,5.74-4.83C4,424.74,2.87,423,2.17,422a10.82,10.82,0,0,0-1.45-1.83.84.84,0,0,0-.79-.29l-1,.21.2-2.63a50.7,50.7,0,0,1,10.49-.87q6.45,0,6.45,2.66v.88a5.32,5.32,0,0,1-.92,2.37A18.32,18.32,0,0,1,13,425.46a12,12,0,0,1-2.29,2.17,6.74,6.74,0,0,0,1.71,1.5,6.12,6.12,0,0,0,2.87.54ZM8.25,426.8a15.68,15.68,0,0,0,3.49-3.08A8.91,8.91,0,0,0,14,420.05c-.31-.49-1.87-.74-4.7-.74-1.25,0-2.49,0-3.71.12a21.65,21.65,0,0,0-2.66.25,6.78,6.78,0,0,1,1.5,1.62Q5.37,422.59,8.25,426.8Zm41,2.87s.11.09.16.29a1.81,1.81,0,0,1,.09.62V432a1.85,1.85,0,0,1-.09.62c0,.17-.11.25-.16.25a8.12,8.12,0,0,1-3.41-.62A5.09,5.09,0,0,1,43.7,430a14.27,14.27,0,0,1-5.12,2,35.24,35.24,0,0,1-7.94.79H18.94c-.16,0-.25-.29-.25-.87v-1.38c0-.61.09-.91.25-.91h3.75a26,26,0,0,0,1.75-2.25,4.06,4.06,0,0,0,.7-1.75,23.86,23.86,0,0,0,.21-4q0-3.33-.46-17.31l2.42-.42.29,15.52a17.63,17.63,0,0,1-.33,4.54,36.22,36.22,0,0,1,5.57-4.95,9.29,9.29,0,0,1,5.29-2,6.2,6.2,0,0,1,5.28,2.29c1.2,1.52,1.79,3.76,1.79,6.7a8.76,8.76,0,0,1-.17,1.83,2.68,2.68,0,0,0,1.54,1.41A8.42,8.42,0,0,0,49.28,429.67Zm-18.6,0q7.57,0,12.19-2.08a21.79,21.79,0,0,0-.33-4.16,4.9,4.9,0,0,0-1.38-2.67,4.22,4.22,0,0,0-3-1q-2.41,0-5.87,2.71a46.27,46.27,0,0,0-7.12,7.2Zm27.61-17.06A4.76,4.76,0,0,1,63,415.89a18.87,18.87,0,0,1,1.38,7.37A39.79,39.79,0,0,1,64.2,428a6.06,6.06,0,0,1-.75,2.46,3.69,3.69,0,0,1-1.66,1.25,16,16,0,0,1-4.08.87c-1.64.17-4.45.25-8.45.25-.17,0-.25-.29-.25-.87v-1.38c0-.61.08-.91.25-.91q5.63,0,8.41-.21a14.24,14.24,0,0,0,4.28-.83,19.19,19.19,0,0,0,.17-2.92,23.82,23.82,0,0,1-4.95.46,12.14,12.14,0,0,1-2.79-.29,3.48,3.48,0,0,1-1.87-1.16,3.82,3.82,0,0,1-.63-1.05,4.28,4.28,0,0,1-.16-1.37,15,15,0,0,1,.66-4.2,9.86,9.86,0,0,1,2.12-3.87A4.94,4.94,0,0,1,58.29,412.61ZM54,422.8a7.8,7.8,0,0,0,3.46.63,18.76,18.76,0,0,0,4.74-.46q0-7.7-4.16-7.7a3.36,3.36,0,0,0-3,2.12A11.92,11.92,0,0,0,54,422.8Zm1.46-19.22,2.41,1.91L55.92,408,53.46,406Zm4.83,0,2.45,1.91-2,2.46L58.33,406Zm49.94,26.09s.11.09.16.29a1.81,1.81,0,0,1,.09.62V432a1.85,1.85,0,0,1-.09.62c0,.17-.11.25-.16.25a14.48,14.48,0,0,1-5-.67,3.59,3.59,0,0,1-2.21-1.74,3,3,0,0,1-1.16.87,16.17,16.17,0,0,1-2,.67,35.07,35.07,0,0,1-4.79.79,54.54,54.54,0,0,1-5.57.29,39,39,0,0,1-7.12-.54A8.89,8.89,0,0,1,78,430.37,5.77,5.77,0,0,1,76.4,426a22.5,22.5,0,0,1,.25-2.67c.19-1.27.47-3,.83-5.32l2,.41a65.12,65.12,0,0,0-.92,7.12A3.19,3.19,0,0,0,80,428.34a8.5,8.5,0,0,0,3.7,1.24,45.75,45.75,0,0,0,5.78.3,66.85,66.85,0,0,0,7.37-.38,24.61,24.61,0,0,0,5.49-1.21l-.62-7.82,2.37-.29.46,8.36a4.46,4.46,0,0,0,2.12.92A24.32,24.32,0,0,0,110.19,429.67Zm-22.06-16.4,2.42,1.92-1.92,2.45-2.45-1.91Zm4.83,0,2.45,1.92-2,2.45-2.41-1.91ZM120.08,418c.28,4.82.42,8.17.42,10a3.49,3.49,0,0,1-.55,1.84,3.82,3.82,0,0,1-1.49,1.37,15.34,15.34,0,0,1-3.79,1.21,27.3,27.3,0,0,1-4.49.37c-.17,0-.25-.29-.25-.87v-1.38c0-.61.08-.91.25-.91,3.8,0,6.51-.52,8.15-1.54l-.71-9.66Zm-1.91-8.78,2.58,2-2,2.5-2.58-2Zm20.56,20.43c.05,0,.11.09.17.29a2.12,2.12,0,0,1,.08.62V432a2.17,2.17,0,0,1-.08.62c-.06.17-.12.25-.17.25h-1.91a6.56,6.56,0,0,1-2.71-.54,4.72,4.72,0,0,1-1.87-1.5v.87a9.67,9.67,0,0,1-3,6.58,24.82,24.82,0,0,1-8.57,5.66L119,441.53a28.64,28.64,0,0,0,7.65-4.54,10.48,10.48,0,0,0,3.46-4.74l-1.21-11.16,2.46-.49.62,5.95a3,3,0,0,0,1.46,2.37,6.78,6.78,0,0,0,3.37.75Zm14,0c.06,0,.12.09.17.29a1.83,1.83,0,0,1,.08.62V432a1.87,1.87,0,0,1-.08.62c0,.17-.11.25-.17.25a13.52,13.52,0,0,1-4.61-.62,3.66,3.66,0,0,1-2.13-1.84q-1.41,2.46-7.24,2.46c-.16,0-.25-.29-.25-.87v-1.38c0-.61.09-.91.25-.91a18.27,18.27,0,0,0,3.54-.29,7.13,7.13,0,0,0,2.58-1.09l-.75-8.4,2.37-.29.59,8.82C148.2,429.25,150.09,429.67,152.72,429.67Zm-10.4-18.9,2.42,1.92-1.92,2.45-2.45-1.91Zm4.83,0,2.45,1.92-1.95,2.45-2.42-1.91Zm19.55,18.9c.06,0,.12.09.17.29a1.83,1.83,0,0,1,.08.62V432a1.87,1.87,0,0,1-.08.62c-.05.17-.11.25-.17.25a13.62,13.62,0,0,1-4.62-.62,3.67,3.67,0,0,1-2.12-1.84q-1.41,2.46-7.24,2.46c-.16,0-.25-.29-.25-.87v-1.38c0-.61.09-.91.25-.91a18.27,18.27,0,0,0,3.54-.29,7.21,7.21,0,0,0,2.58-1.09l-.75-8.4,2.37-.29.58,8.82Q162.75,429.67,166.7,429.67Zm-8-19.06,2.58,2-2,2.49-2.58-2ZM176.6,418c.28,4.82.42,8.17.42,10a3.48,3.48,0,0,1-.54,1.84,3.78,3.78,0,0,1-1.5,1.37,15.07,15.07,0,0,1-3.79,1.21,27.21,27.21,0,0,1-4.49.37c-.17,0-.25-.29-.25-.87v-1.38c0-.61.08-.91.25-.91,3.8,0,6.52-.52,8.16-1.54l-.71-9.66Zm-8.4,19.43,2.41,1.91-1.91,2.46-2.46-1.92Zm4.83,0,2.45,1.91-1.95,2.46-2.42-1.92Zm9.91-33.08,2.5-.42.37,28.88-2.12.33Zm8.48,37.16a28.55,28.55,0,0,0,7.66-4.54,10.38,10.38,0,0,0,3.45-4.74l-1.2-11.16,2.45-.49q.42,4.15.63,6.9c.16,1.83.24,3.22.24,4.16a9.7,9.7,0,0,1-3,6.58A24.87,24.87,0,0,1,193,443.9Zm10.32-30.09,2.58,2-2,2.5-2.58-2Zm8.83-7.07,2.5-.42.37,28.88-2.12.33Zm22.85,25.3c.16,0,.25.3.25.91V432c0,.58-.09.87-.25.87h-.67c-2.61,0-4.53-.6-5.78-1.79s-1.87-3.08-2-5.66l-.5-21L227,404l.25,21.39c0,2.88,1.77,4.33,5.24,4.33Zm22.73,0c.08,0,.15.09.21.29a2.12,2.12,0,0,1,.08.62V432a2.17,2.17,0,0,1-.08.62c-.06.17-.13.25-.21.25a11.36,11.36,0,0,1-4-.54,4.06,4.06,0,0,1-2.08-1.92l-.21,1.42a3.8,3.8,0,0,1-.46,1.37,4.73,4.73,0,0,1-1,1.17,2.23,2.23,0,0,1-1.41.5,2.77,2.77,0,0,1-1.25-.29l-7.28-3.21a5.07,5.07,0,0,1-4,1.5h-1c-.17,0-.25-.29-.25-.87v-1.38c0-.61.08-.91.25-.91h1.46a5,5,0,0,0,1.49-.17,1.9,1.9,0,0,0,.88-.62,7.72,7.72,0,0,0,.91-1.63,34.2,34.2,0,0,1,2.21-4.16,6.45,6.45,0,0,1,2-2,4.8,4.8,0,0,1,2.5-.62,4,4,0,0,1,3.32,1.46,7.85,7.85,0,0,1,1.67,3.32,9.21,9.21,0,0,0,.91,2.71,3.37,3.37,0,0,0,1.75,1.33A11.53,11.53,0,0,0,256.15,429.67Zm-8.86,2.49a4.2,4.2,0,0,0,.54-1.62,11.46,11.46,0,0,0,.21-2.12,6.92,6.92,0,0,0-.92-3.79,2.69,2.69,0,0,0-2.41-1.45,2.84,2.84,0,0,0-1.67.49,6.06,6.06,0,0,0-1.45,1.71,34.56,34.56,0,0,0-1.88,3.5ZM280.74,418c.28,4.49.41,8,.41,10.48a3.51,3.51,0,0,1-1.79,3.29,8.06,8.06,0,0,1-4.12,1,6.48,6.48,0,0,1-2.62-.5,2.66,2.66,0,0,1-1.45-1.46,3.11,3.11,0,0,1-1.92,1.5,7.41,7.41,0,0,1-2.45.46,6.24,6.24,0,0,1-2.71-.54,3.28,3.28,0,0,1-1.58-1.46,4.91,4.91,0,0,1-2.54,1.5,14,14,0,0,1-3.83.5c-.16,0-.25-.29-.25-.87v-1.38c0-.61.09-.91.25-.91a22.2,22.2,0,0,0,3-.17,5.71,5.71,0,0,0,2.2-.87l.17-6.83h2.29l-.17,5.45c0,1.61,1,2.42,3,2.42a6.93,6.93,0,0,0,3.54-.75l-.25-8.74,2.29,0,.16,8.74a3.49,3.49,0,0,0,2.58.79,7.88,7.88,0,0,0,4.12-.84l-.66-10.36ZM270,406.11l2.42,1.88-1.92,2.41-2.41-1.87Zm-2.37,5.16,2.41,1.92-1.87,2.41-2.41-1.91Zm4.79,0,2.41,1.92L273,415.6l-2.42-1.91Zm30.23,30.55q-5,0-7.28-1.83c-1.53-1.2-2.29-3-2.29-5.54a32.35,32.35,0,0,1,.33-3.24c.25-1.7.57-3.79,1-6.29l.41-2.62,2,.38a102.83,102.83,0,0,0-1.54,11.52,3.65,3.65,0,0,0,1.92,3.42,11.37,11.37,0,0,0,5.45,1.08,26.41,26.41,0,0,0,5.95-.59,9,9,0,0,0,4-1.83l-1.13-31.91,2.5-.42.75,32.58a3.21,3.21,0,0,1-1.67,2.75,12.49,12.49,0,0,1-4.49,1.87A25.22,25.22,0,0,1,302.69,441.82Zm27-12.15c.16,0,.25.3.25.91V432c0,.58-.09.87-.25.87H329c-2.61,0-4.53-.6-5.78-1.79s-1.87-3.08-2-5.66l-.5-21,2.5-.42.25,21.39c0,2.88,1.77,4.33,5.24,4.33Zm35.59,0c.17,0,.25.3.25.91V432c0,.58-.08.87-.25.87a8,8,0,0,1-3.37-.62A5.15,5.15,0,0,1,359.7,430a14.77,14.77,0,0,1-5.11,2,36.83,36.83,0,0,1-7.91.75,39,39,0,0,1-5.91-.46,8.81,8.81,0,0,1-4.41-1.66,5.81,5.81,0,0,1-2.87,1.58,14.11,14.11,0,0,1-3.83.54c-.17,0-.25-.29-.25-.87v-1.38c0-.61.08-.91.25-.91a19.44,19.44,0,0,0,2.83-.17,8.26,8.26,0,0,0,2.41-.79l0-6.62h2.29l-.17,6.16a3.3,3.3,0,0,0,.88.5A6.64,6.64,0,0,0,339,429a52.14,52.14,0,0,1,3.87-4.7,37,37,0,0,1,5.58-5,9.79,9.79,0,0,1,5.74-2.29q7.06,0,7.07,9a10.1,10.1,0,0,1-.16,1.95C361.69,429.11,363.07,429.67,365.24,429.67Zm-18.48,0a30.55,30.55,0,0,0,12.2-2.08,21.69,21.69,0,0,0-.34-4.16,5,5,0,0,0-1.37-2.67,4.27,4.27,0,0,0-3-1q-2.41,0-5.87,2.67a45.12,45.12,0,0,0-7,6.9A34,34,0,0,0,346.76,429.67ZM375.16,418c.28,4.82.42,8.17.42,10a3.48,3.48,0,0,1-.54,1.84,3.92,3.92,0,0,1-1.5,1.37,15.07,15.07,0,0,1-3.79,1.21,27.3,27.3,0,0,1-4.49.37c-.17,0-.25-.29-.25-.87v-1.38c0-.61.08-.91.25-.91,3.8,0,6.52-.52,8.15-1.54l-.7-9.66Zm-4.29-8.62,2.42,1.92-1.92,2.45-2.45-1.91Zm4.83,0,2.46,1.92-2,2.45-2.41-1.91Zm5.84-5L384,404l.38,28.88-2.12.33Zm-714.59,94a2,2,0,0,1-1.5-.63,2.15,2.15,0,0,1-.58-1.54,2.17,2.17,0,0,1,.58-1.54,2.06,2.06,0,0,1,1.5-.62,2,2,0,0,1,1.54.62,2,2,0,0,1,.62,1.54,2.1,2.1,0,0,1-.62,1.54A2.09,2.09,0,0,1-333,498.39Zm17.29-19.31Q-308,486.61-308,494q0,2.21-2.95,3.33a19.78,19.78,0,0,1-6.87,1.08,14.81,14.81,0,0,1-4.29-.46,3.21,3.21,0,0,1-2-1.62,8.43,8.43,0,0,1-.5-3.33c0-.67,0-1.18,0-1.54l2,.12v.71a5.84,5.84,0,0,0,.25,2.08,1.57,1.57,0,0,0,1.2.71,21.92,21.92,0,0,0,3.33.17,25.94,25.94,0,0,0,4.45-.38,8.78,8.78,0,0,0,3.17-1,14.35,14.35,0,0,0-2-6.4,28.16,28.16,0,0,0-5.2-6.33Zm28.69,16c.06,0,.11.1.17.29a2.17,2.17,0,0,1,.08.62v1.38a2.12,2.12,0,0,1-.08.62c-.06.17-.11.25-.17.25h-3.74a13.32,13.32,0,0,1-4.12,6.62,22.81,22.81,0,0,1-7.37,4.45l-1.62-2.37a26.76,26.76,0,0,0,7.16-4,11,11,0,0,0,3.83-5.11,23.43,23.43,0,0,1-4.75.41,12.27,12.27,0,0,1-2.79-.29,3.47,3.47,0,0,1-1.87-1.17,3.82,3.82,0,0,1-.62-1,4.23,4.23,0,0,1-.17-1.37,14.65,14.65,0,0,1,.67-4.2,9.86,9.86,0,0,1,2.12-3.87,4.94,4.94,0,0,1,3.79-1.62,4.79,4.79,0,0,1,4.7,3.2,18.78,18.78,0,0,1,1.41,7.2Zm-13.81-.21a7.77,7.77,0,0,0,3.45.62,19,19,0,0,0,4.75-.45c0-5.14-1.39-7.7-4.17-7.7a3.34,3.34,0,0,0-2.95,2.12A11.92,11.92,0,0,0-300.88,494.85Zm38.42-11.44c.27,4.49.41,8,.41,10.48a3.51,3.51,0,0,1-1.79,3.29,8.06,8.06,0,0,1-4.12,1,6.44,6.44,0,0,1-2.62-.5,2.67,2.67,0,0,1-1.45-1.45,3.16,3.16,0,0,1-1.92,1.49,7.46,7.46,0,0,1-2.45.46,6.21,6.21,0,0,1-2.71-.54,3.24,3.24,0,0,1-1.58-1.46,5,5,0,0,1-2.54,1.5,14,14,0,0,1-3.83.5c-.16,0-.25-.29-.25-.87V496c0-.61.09-.91.25-.91a22.31,22.31,0,0,0,3-.17,5.71,5.71,0,0,0,2.2-.87l.17-6.83h2.29l-.17,5.46c-.05,1.6.95,2.41,3,2.41a7,7,0,0,0,3.54-.75l-.25-8.74,2.28,0,.17,8.74a3.45,3.45,0,0,0,2.58.79,8,8,0,0,0,4.12-.83l-.67-10.37Zm-10.7-11.9,2.42,1.87-1.92,2.41-2.41-1.87Zm-2.37,5.16,2.41,1.91L-275,481l-2.41-1.91Zm4.79,0,2.41,1.91L-270.2,481l-2.42-1.91Zm39.39,18.39c.09,0,.16.1.21.29a1.87,1.87,0,0,1,.08.62v1.38a1.83,1.83,0,0,1-.08.62c-.05.17-.12.25-.21.25h-1.83a5.37,5.37,0,0,1,.33,1.92,6.37,6.37,0,0,1-3.78,6.15,21.43,21.43,0,0,1-9.53,1.88q-5,0-7.28-1.83a6.7,6.7,0,0,1-2.29-5.58c0-.5.11-1.58.33-3.25s.57-3.78,1-6.28l.41-2.62,2,.41a103.58,103.58,0,0,0-1.54,11.49,3.64,3.64,0,0,0,1.92,3.41,11.37,11.37,0,0,0,5.45,1.08,30.24,30.24,0,0,0,6.45-.58,8.3,8.3,0,0,0,4.33-2.2,11.05,11.05,0,0,0,.2-1.67,1.85,1.85,0,0,0-.66-1.58,5.1,5.1,0,0,0-2.21-.62c-1-.09-2.56-.13-4.7-.13l.83-3.16Zm11.49-9.24a4.48,4.48,0,0,1,3.91,2.21,9.81,9.81,0,0,1,1.5,5.7,13.68,13.68,0,0,1-.62,4.28,3.58,3.58,0,0,1-1.29,1.71,2.24,2.24,0,0,1-1.42.5,2.83,2.83,0,0,1-1.25-.29l-7.28-3.21a5,5,0,0,1-4,1.5h-1c-.17,0-.25-.29-.25-.87V496c0-.61.08-.91.25-.91h1.45a5,5,0,0,0,1.5-.17,2,2,0,0,0,.88-.62,7.59,7.59,0,0,0,.91-1.62,32.4,32.4,0,0,1,2.21-4.17,6.35,6.35,0,0,1,2-2A4.79,4.79,0,0,1-219.86,485.82Zm2.37,11.74a4.43,4.43,0,0,0,.55-1.63,11.45,11.45,0,0,0,.2-2.12,6.93,6.93,0,0,0-.91-3.79,2.69,2.69,0,0,0-2.42-1.45,2.76,2.76,0,0,0-1.66.5,5.87,5.87,0,0,0-1.46,1.7,34.89,34.89,0,0,0-1.87,3.5Zm14.17-27.8,2.5-.42.37,28.88-2.12.33Zm20.57,25.3c.05,0,.11.1.16.29a1.85,1.85,0,0,1,.09.62v1.38a1.81,1.81,0,0,1-.09.62c0,.17-.11.25-.16.25h-1.92a6.51,6.51,0,0,1-2.7-.54,4.82,4.82,0,0,1-1.88-1.5v.88a9.67,9.67,0,0,1-3,6.57,24.87,24.87,0,0,1-8.58,5.66l-1.62-2.37a28.55,28.55,0,0,0,7.66-4.54,10.38,10.38,0,0,0,3.45-4.74l-1.2-11.15,2.45-.5.62,5.95a3,3,0,0,0,1.46,2.37,6.81,6.81,0,0,0,3.37.75Zm7.67-12.69a7.35,7.35,0,0,1,2.45.5c.94.3,2.28.81,4,1.54,2.38,1,4.41,1.72,6.07,2.24a15.78,15.78,0,0,0,4.79.79l-.46,2.92a15.65,15.65,0,0,0-5,1,34.48,34.48,0,0,0-5.33,2.74,35.89,35.89,0,0,1-6.24,3.08,20,20,0,0,1-6.7,1h-1.25c-.17,0-.25-.29-.25-.87V496c0-.61.08-.91.25-.91h1.58a19.15,19.15,0,0,0,5.29-.75,33.75,33.75,0,0,0,5.78-2.46l1.66-.87c1.31-.67,2.28-1.14,2.92-1.41a11.5,11.5,0,0,1,1.91-.63,44.89,44.89,0,0,1-6.12-2.08q-2.16-.87-3.45-1.29a6.26,6.26,0,0,0-2-.46,1.92,1.92,0,0,0-1.66.75,6.6,6.6,0,0,0-.79,2.42l-2-.34a11.06,11.06,0,0,1,1.54-4.16A3.39,3.39,0,0,1-175.08,482.37Zm5,20.47,2.58,2-2,2.5-2.58-2Zm17.61-33.08,2.5-.42.37,28.88-2.12.33Zm22.84,25.3c.17,0,.25.3.25.91v1.38c0,.58-.08.87-.25.87h-.67q-3.9,0-5.78-1.79t-2-5.66l-.49-21,2.49-.42.25,21.39q0,4.33,5.25,4.33Zm22.73,0c.09,0,.15.1.21.29a1.87,1.87,0,0,1,.08.62v1.38a1.83,1.83,0,0,1-.08.62c-.06.17-.12.25-.21.25a11.4,11.4,0,0,1-4-.54,4.12,4.12,0,0,1-2.08-1.91l-.21,1.41a3.56,3.56,0,0,1-.46,1.37,4.33,4.33,0,0,1-1,1.17,2.21,2.21,0,0,1-1.41.5,2.83,2.83,0,0,1-1.25-.29l-7.28-3.21a5.05,5.05,0,0,1-4,1.5h-1c-.16,0-.25-.29-.25-.87V496c0-.61.09-.91.25-.91h1.46a5.13,5.13,0,0,0,1.5-.17,1.93,1.93,0,0,0,.87-.62,7.54,7.54,0,0,0,.92-1.62,32.56,32.56,0,0,1,2.2-4.17,6.55,6.55,0,0,1,2-2,4.83,4.83,0,0,1,2.5-.62,4.11,4.11,0,0,1,3.33,1.46,7.81,7.81,0,0,1,1.66,3.33,9.2,9.2,0,0,0,.92,2.7,3.35,3.35,0,0,0,1.74,1.33A11.57,11.57,0,0,0-106.91,495.06Zm-8.86,2.5a4.26,4.26,0,0,0,.54-1.63,10.66,10.66,0,0,0,.21-2.12,6.92,6.92,0,0,0-.92-3.79,2.68,2.68,0,0,0-2.41-1.45,2.74,2.74,0,0,0-1.66.5,5.72,5.72,0,0,0-1.46,1.7,34.89,34.89,0,0,0-1.87,3.5Zm33.45-14.15c.28,4.49.42,8,.42,10.48a3.53,3.53,0,0,1-1.79,3.29,8.08,8.08,0,0,1-4.12,1,6.44,6.44,0,0,1-2.62-.5,2.69,2.69,0,0,1-1.46-1.45,3.14,3.14,0,0,1-1.91,1.49,7.51,7.51,0,0,1-2.46.46,6.19,6.19,0,0,1-2.7-.54,3.24,3.24,0,0,1-1.58-1.46,5,5,0,0,1-2.54,1.5,14,14,0,0,1-3.83.5c-.17,0-.25-.29-.25-.87V496c0-.61.08-.91.25-.91a22,22,0,0,0,3-.17,5.75,5.75,0,0,0,2.21-.87l.17-6.83h2.29l-.17,5.46c-.06,1.6.94,2.41,3,2.41a6.89,6.89,0,0,0,3.53-.75l-.25-8.74,2.29,0,.17,8.74a3.45,3.45,0,0,0,2.58.79,8,8,0,0,0,4.12-.83l-.67-10.37ZM-93,471.51l2.41,1.87-1.91,2.41-2.42-1.87Zm-2.37,5.16,2.41,1.91L-94.84,481l-2.42-1.91Zm4.78,0,2.42,1.91L-90.06,481l-2.41-1.91Zm26.49,21.76a7.44,7.44,0,0,1-4.16-1.12,4.31,4.31,0,0,1-1.67-3.79,8.52,8.52,0,0,1,1.38-4.25,25.34,25.34,0,0,1,3.37-4.53l-1.71-1.25,1.42-2.12a21.66,21.66,0,0,1,6.36,5.91,11.94,11.94,0,0,1,2.29,7,4.74,4.74,0,0,1-.5,2.33,6.75,6.75,0,0,1-.58.79,1.4,1.4,0,0,1-.58.46,7.19,7.19,0,0,1-2.17.49C-61.55,498.39-62.7,498.43-64.11,498.43Zm.08-3.16c1.39,0,2.43,0,3.12,0a12.12,12.12,0,0,0,1.92-.3,12.16,12.16,0,0,0-.79-4.45A10.58,10.58,0,0,0-63.53,486a16.15,16.15,0,0,0-3,3.62,7.2,7.2,0,0,0-1.33,3.24Q-67.81,495.28-64,495.27Zm21.76-.21c.17,0,.25.3.25.91v1.38c0,.58-.08.87-.25.87h-.66q-3.91,0-5.79-1.79t-2-5.66l-.5-21,2.49-.42.25,21.39q0,4.33,5.25,4.33ZM-33.35,469q-3.28,1.41-8.07,3.79l.21-2.29q3.95-2.08,7.61-3.62Zm10.07,26.05c.08,0,.15.1.21.29A2.17,2.17,0,0,1-23,496v1.38a2.12,2.12,0,0,1-.08.62c-.06.17-.13.25-.21.25h-2.16q-3.68,0-4.54-2.45-2.49,2.44-12.28,2.45-.24,0-.24-.87V496c0-.61.08-.91.24-.91a58.21,58.21,0,0,0,6.45-.33,16.36,16.36,0,0,0,4.54-1.09,17.8,17.8,0,0,0-1.16-5.91,15.69,15.69,0,0,0-3.25-5,32.06,32.06,0,0,0-6-4.91l.21-2.83q3.66-1.79,6.82-3.12t6.7-2.5l.33,2.67a65.1,65.1,0,0,0-11.15,4.57,2.07,2.07,0,0,1,.54.38q5.2,3.82,7,7.74a19.92,19.92,0,0,1,2,7.86,2.93,2.93,0,0,0,1.09,2,5.12,5.12,0,0,0,2.45.46Zm14.15,0c.05,0,.11.1.16.29a1.85,1.85,0,0,1,.09.62v1.38A1.81,1.81,0,0,1-9,498c0,.17-.11.25-.16.25a13.54,13.54,0,0,1-4.62-.62,3.65,3.65,0,0,1-2.13-1.83q-1.41,2.44-7.24,2.45c-.16,0-.25-.29-.25-.87V496c0-.61.09-.91.25-.91a18.27,18.27,0,0,0,3.54-.29A7.29,7.29,0,0,0-17,493.69l-.75-8.41,2.37-.29.59,8.82Q-13.09,495.05-9.13,495.06Zm-10.41-18.89,2.42,1.91L-19,480.54l-2.45-1.92Zm4.83,0,2.45,1.91-2,2.46-2.41-1.92Zm30.17,7.24c.28,4.49.41,8,.41,10.48a3.51,3.51,0,0,1-1.79,3.29,8.06,8.06,0,0,1-4.12,1,6.44,6.44,0,0,1-2.62-.5,2.69,2.69,0,0,1-1.46-1.45A3.08,3.08,0,0,1,4,497.76a7.5,7.5,0,0,1-2.45.46,6.21,6.21,0,0,1-2.71-.54,3.28,3.28,0,0,1-1.58-1.46,4.91,4.91,0,0,1-2.54,1.5,14,14,0,0,1-3.83.5c-.16,0-.25-.29-.25-.87V496c0-.61.09-.91.25-.91a22.31,22.31,0,0,0,3-.17A5.71,5.71,0,0,0-4,494l.17-6.83h2.29l-.17,5.46c-.05,1.6,1,2.41,3,2.41a6.86,6.86,0,0,0,3.53-.75l-.25-8.74,2.29,0,.17,8.74a3.45,3.45,0,0,0,2.58.79,8,8,0,0,0,4.12-.83l-.67-10.37Zm15.09-4.33q7.79,7.53,7.78,14.94,0,2.21-2.95,3.33a19.74,19.74,0,0,1-6.87,1.08,14.68,14.68,0,0,1-4.28-.46,3.2,3.2,0,0,1-2-1.62,8.62,8.62,0,0,1-.5-3.33c0-.67,0-1.18,0-1.54l2,.12v.71a5.84,5.84,0,0,0,.25,2.08,1.57,1.57,0,0,0,1.21.71,21.83,21.83,0,0,0,3.33.17,26.12,26.12,0,0,0,4.45-.38,8.71,8.71,0,0,0,3.16-1,14.35,14.35,0,0,0-2-6.4,27.89,27.89,0,0,0-5.2-6.33ZM59,507.21q-5,0-7.29-1.83c-1.52-1.19-2.29-3-2.29-5.54a30.46,30.46,0,0,1,.34-3.24q.38-2.53,1-6.29l.42-2.62,2,.38a100.61,100.61,0,0,0-1.54,11.52A3.65,3.65,0,0,0,53.53,503,11.44,11.44,0,0,0,59,504.09a29.78,29.78,0,0,0,6.32-.58,8.44,8.44,0,0,0,4.29-2.17,7,7,0,0,0,.54-2.41,2.6,2.6,0,0,0-2.46-2.87l-2-.21q-1.83-.17-2.7-.33a3,3,0,0,1-1.37-.67,1.8,1.8,0,0,1-.5-1.41,18.39,18.39,0,0,1,1-6.12A13.3,13.3,0,0,1,65,482.45a5.44,5.44,0,0,1,4-1.91,4.47,4.47,0,0,1,2.71.91,8,8,0,0,1,2.16,2.17l-1.37,1.58A5.27,5.27,0,0,0,69,483.32a3.8,3.8,0,0,0-2.74,1.34,9.45,9.45,0,0,0-2,3.45,16.26,16.26,0,0,0-.88,4.54,29.16,29.16,0,0,1,5.16.66,5,5,0,0,1,2.83,1.62,5.58,5.58,0,0,1,1,3.62q0,4.76-3.74,6.7A20.54,20.54,0,0,1,59,507.21Zm25.76-22.55a4.77,4.77,0,0,1,4.74,3.28,18.87,18.87,0,0,1,1.37,7.37,11.79,11.79,0,0,1-3.45,8.4A22,22,0,0,1,79,509.29l-1.62-2.37a26.76,26.76,0,0,0,7.16-4,11,11,0,0,0,3.83-5.11,23.43,23.43,0,0,1-4.75.41,12.11,12.11,0,0,1-2.78-.29A3.5,3.5,0,0,1,79,496.76a3.82,3.82,0,0,1-.62-1,4.23,4.23,0,0,1-.17-1.37,15,15,0,0,1,.67-4.2A9.86,9.86,0,0,1,81,486.28,4.94,4.94,0,0,1,84.75,484.66Zm-4.33,10.19a7.77,7.77,0,0,0,3.45.62,18.94,18.94,0,0,0,4.75-.45c0-5.14-1.39-7.7-4.16-7.7a3.35,3.35,0,0,0-3,2.12A11.92,11.92,0,0,0,80.42,494.85Zm10.71,12.07a21.64,21.64,0,0,0,6.28-4.45,11.73,11.73,0,0,0,3-4.83l-1.21-11.15,2.46-.5q.4,4.15.62,6.9c.17,1.84.25,3.22.25,4.17a10.5,10.5,0,0,1-2.58,6.57,21.24,21.24,0,0,1-7.24,5.66Zm37.28-11.86c.05,0,.11.1.16.29a1.85,1.85,0,0,1,.09.62v1.38a1.81,1.81,0,0,1-.09.62c0,.17-.11.25-.16.25h-1.92a6.54,6.54,0,0,1-2.7-.54,4.72,4.72,0,0,1-1.87-1.5v.88c0,2.22-1,4.41-3,6.57a24.82,24.82,0,0,1-8.57,5.66l-1.63-2.37a28.55,28.55,0,0,0,7.66-4.54,10.38,10.38,0,0,0,3.45-4.74l-1.2-11.15L121,486l.63,5.95a3,3,0,0,0,1.45,2.37,6.83,6.83,0,0,0,3.37.75Zm9.92-11.65c.27,4.82.41,8.17.41,10a3.47,3.47,0,0,1-.54,1.83,3.78,3.78,0,0,1-1.5,1.37,15.12,15.12,0,0,1-3.78,1.21,26.45,26.45,0,0,1-4.5.37c-.16,0-.25-.29-.25-.87V496c0-.61.09-.91.25-.91q5.7,0,8.16-1.54l-.71-9.66Zm-6,19.43,2.58,2-2,2.5-2.58-2Zm47.36-7.78c.08,0,.15.1.2.29a1.85,1.85,0,0,1,.09.62v1.38a1.81,1.81,0,0,1-.09.62c0,.17-.12.25-.2.25h-1c-3.19,0-5.25-.83-6.16-2.5.16,2.67.25,4.73.25,6.2a3.41,3.41,0,0,1-1.71,2.79,11.88,11.88,0,0,1-4.54,1.83,26.41,26.41,0,0,1-6.15.67q-5,0-7.29-1.83c-1.52-1.19-2.29-3-2.29-5.54a30.46,30.46,0,0,1,.34-3.24q.38-2.53.95-6.29l.42-2.62,2,.38a100.61,100.61,0,0,0-1.54,11.52,3.65,3.65,0,0,0,1.91,3.42,11.44,11.44,0,0,0,5.46,1.08q7.48,0,10.27-2.41l-1.37-15.94,2.46-.5.58,6.57a3.17,3.17,0,0,0,.91,2.17,4.49,4.49,0,0,0,2,.87,20.71,20.71,0,0,0,3.29.21ZM161.38,478.7l2.58,2-2,2.5-2.58-2Zm28.19,4.71c.28,4.82.42,8.17.42,10a3.56,3.56,0,0,1-.54,1.83,3.92,3.92,0,0,1-1.5,1.37,15.2,15.2,0,0,1-3.79,1.21,26.25,26.25,0,0,1-4.49.37c-.17,0-.25-.29-.25-.87V496c0-.61.08-.91.25-.91q5.69,0,8.15-1.54l-.71-9.66Zm-8.41,19.43,2.42,1.91-1.92,2.46-2.45-1.91Zm4.83,0,2.46,1.91-2,2.46-2.41-1.91Zm29.93-7.78c.08,0,.15.1.21.29a2.17,2.17,0,0,1,.08.62v1.38a2.12,2.12,0,0,1-.08.62c-.06.17-.13.25-.21.25h-1.08a15.29,15.29,0,0,1-5-.62,4,4,0,0,1-2.28-2.29,11.62,11.62,0,0,1-5,3.37,34.35,34.35,0,0,1-7.53,2.08l-.37-3.16a36.61,36.61,0,0,0,7.86-2.29c2.08-.92,3.38-1.8,3.91-2.66l-.83-22.89,2.5-.42.54,22.47a3,3,0,0,0,.75,2.13,3.75,3.75,0,0,0,2,.91,22.66,22.66,0,0,0,3.49.21Zm-17.06-1a59.92,59.92,0,0,0-1.12-10.78A28.09,28.09,0,0,0,194,473.05l1.91-1.67a35.12,35.12,0,0,1,3.87,10.78A56.64,56.64,0,0,1,201,493.48Zm26.08-16a4.77,4.77,0,0,1,4.75,3.28,19.09,19.09,0,0,1,1.37,7.37,39.79,39.79,0,0,1-.21,4.74,6,6,0,0,1-.75,2.46,3.57,3.57,0,0,1-1.66,1.25,15.53,15.53,0,0,1-4.08.87c-1.64.17-4.45.25-8.45.25-.16,0-.25-.29-.25-.87V496c0-.61.09-.91.25-.91q5.63,0,8.41-.21a14.31,14.31,0,0,0,4.29-.83,19.4,19.4,0,0,0,.16-2.91,24.43,24.43,0,0,1-5,.45,11.72,11.72,0,0,1-2.79-.29,3.51,3.51,0,0,1-1.87-1.16,3.86,3.86,0,0,1-.62-1,4.34,4.34,0,0,1-.17-1.38,15,15,0,0,1,.66-4.2,10,10,0,0,1,2.13-3.87A4.93,4.93,0,0,1,224.94,478Zm-4.32,10.19a7.76,7.76,0,0,0,3.45.63,18.76,18.76,0,0,0,4.74-.46c0-5.13-1.38-7.7-4.16-7.7a3.34,3.34,0,0,0-3,2.12A11.92,11.92,0,0,0,220.62,488.19Zm3.82-19.39,2.58,2-2,2.5-2.58-2ZM237,475.58l2.49-.41.38,23.05-2.12.33Zm5.16-4a27.8,27.8,0,0,1-4.21-.34c-1-.11-1.6-.16-1.83-.16a2,2,0,0,0-1.33.33,3.41,3.41,0,0,0-.66,1.46l-1.75-.46a6.28,6.28,0,0,1,1.33-3,3.31,3.31,0,0,1,2.41-.79c.34,0,1.11.06,2.33.17,1.81.19,3.11.29,3.92.29h1.74l-.5,2.5Zm37.44,11.86c.28,5,.42,8.44.42,10.19,0,1.5-.85,2.58-2.54,3.25a22.12,22.12,0,0,1-5.16,1.16,59.08,59.08,0,0,1-7.49.42,39,39,0,0,1-7.12-.54,9,9,0,0,1-4.45-2.12,5.81,5.81,0,0,1-1.58-4.37,22.5,22.5,0,0,1,.25-2.67c.19-1.27.47-3.05.83-5.32l2,.41a65.42,65.42,0,0,0-.92,7.12,3.35,3.35,0,0,0,1,2.58,7.05,7.05,0,0,0,3.37,1.33,39,39,0,0,0,6.45.42q9.5,0,13.07-1.63l-.66-9.78Zm-16.19-4.75,2.42,1.92L263.9,483l-2.45-1.91Zm4.83,0,2.46,1.92-2,2.45-2.41-1.91Zm10.24,28.26a28.48,28.48,0,0,0,7.65-4.54,10.48,10.48,0,0,0,3.46-4.74l-1.21-11.15,2.46-.5q.41,4.15.62,6.9c.17,1.84.25,3.22.25,4.17a9.64,9.64,0,0,1-3,6.57,24.72,24.72,0,0,1-8.57,5.66Zm35-11.86c.05,0,.11.1.16.29a1.85,1.85,0,0,1,.09.62v1.38a1.81,1.81,0,0,1-.09.62c-.05.17-.11.25-.16.25h-3.75a13.32,13.32,0,0,1-4.12,6.62,22.76,22.76,0,0,1-7.36,4.45l-1.63-2.37a26.76,26.76,0,0,0,7.16-4,11,11,0,0,0,3.83-5.11,23.4,23.4,0,0,1-4.74.41,12.14,12.14,0,0,1-2.79-.29,3.43,3.43,0,0,1-1.87-1.17,3.64,3.64,0,0,1-.63-1,4.23,4.23,0,0,1-.17-1.37,14.65,14.65,0,0,1,.67-4.2,9.86,9.86,0,0,1,2.12-3.87,4.94,4.94,0,0,1,3.79-1.62,4.77,4.77,0,0,1,4.7,3.2,18.6,18.6,0,0,1,1.42,7.2Zm-13.82-.21a7.79,7.79,0,0,0,3.46.62,18.85,18.85,0,0,0,4.74-.45c0-5.14-1.39-7.7-4.16-7.7a3.36,3.36,0,0,0-3,2.12A11.92,11.92,0,0,0,299.7,494.85ZM338,482.45q7.06,0,7.07,9,0,2.63-1,3.54a12.06,12.06,0,0,1-5.12,2.33,34.18,34.18,0,0,1-8.48.91,38.92,38.92,0,0,1-5.91-.46,8.81,8.81,0,0,1-4.41-1.66,5.8,5.8,0,0,1-2.88,1.58,14,14,0,0,1-3.82.54c-.17,0-.25-.29-.25-.87V496c0-.61.08-.91.25-.91a19.54,19.54,0,0,0,2.83-.17,8.35,8.35,0,0,0,2.41-.79l0-6.61H321l-.17,6.15a3.07,3.07,0,0,0,.87.5,6.73,6.73,0,0,0,1.13.29,48.91,48.91,0,0,1,3.87-4.7,36.93,36.93,0,0,1,5.57-5A9.84,9.84,0,0,1,338,482.45Zm-7.41,12.61q7.49,0,12.19-2.08a21.86,21.86,0,0,0-.33-4.16,5,5,0,0,0-1.37-2.67,4.27,4.27,0,0,0-3-1q-2.41,0-5.87,2.67a45.22,45.22,0,0,0-7,6.91A35.3,35.3,0,0,0,330.63,495.06Zm43,0c.09,0,.15.1.21.29a1.87,1.87,0,0,1,.08.62v1.38a1.83,1.83,0,0,1-.08.62c-.06.17-.12.25-.21.25h-.83a7.76,7.76,0,0,1-3.37-.66,3.77,3.77,0,0,1-1.87-2.33,2.74,2.74,0,0,1-1.88,1.16,13.48,13.48,0,0,1-3.62.42,6.81,6.81,0,0,1-3.45-.88,2.9,2.9,0,0,1-1.54-2.7,9,9,0,0,1,2.29-6.24,11.44,11.44,0,0,1,6.37-3.37l-.34-2.63,2.38-.7.91,10a17.91,17.91,0,0,0,.42,2.83,2.56,2.56,0,0,0,1,1.46,4.5,4.5,0,0,0,2.37.5Zm-11.32-1.17a13.94,13.94,0,0,0,2.33-.16,19.23,19.23,0,0,0,2.13-.59L366,486a8.12,8.12,0,0,0-3.87,1.5,7.26,7.26,0,0,0-2.29,2.62A7.42,7.42,0,0,0,359,493a3.52,3.52,0,0,0,1.33.66A6.79,6.79,0,0,0,362.28,493.89Zm21.21-10.48c.28,4.82.42,8.17.42,10a3.47,3.47,0,0,1-.54,1.83,3.92,3.92,0,0,1-1.5,1.37,15.2,15.2,0,0,1-3.79,1.21,26.25,26.25,0,0,1-4.49.37c-.17,0-.25-.29-.25-.87V496c0-.61.08-.91.25-.91q5.7,0,8.15-1.54l-.7-9.66Zm-6,19.43,2.58,2-2,2.5-2.58-2Z"/><circle class="cls-5" cx="494.08" cy="456.61" r="59.45"/><path class="cls-6" d="M462.58,448.88l31.5,31.51,31.51-31.51A44.3,44.3,0,0,0,462.58,448.88Z"/><path d="M470.31,483.36a2.73,2.73,0,0,1-2.09-.89,2.89,2.89,0,0,1,0-4.16l47.56-47.56a2.94,2.94,0,0,1,4.16,4.16l-47.55,47.56A2.72,2.72,0,0,1,470.31,483.36Z"/><path class="cls-5" d="M474.47,487.52a2.69,2.69,0,0,1-2.08-.89,2.87,2.87,0,0,1,0-4.16l47.55-47.56a2.94,2.94,0,0,1,4.16,4.16l-47.55,47.56A2.72,2.72,0,0,1,474.47,487.52Z"/></g><path class="cls-8" d="M688.47,526.83h75.62a37.81,37.81,0,0,1,37.81,37.81h0a37.81,37.81,0,0,1-37.81,37.81H688.47a37.8,37.8,0,0,1-37.8-37.81h0A37.8,37.8,0,0,1,688.47,526.83Z"/><circle class="cls-6" cx="688.47" cy="564.64" r="31.51"/><path class="cls-5" d="M881.06,526.83H830.52a12.41,12.41,0,0,0-12.63,12.64V590a12.41,12.41,0,0,0,12.63,12.63h50.54A12.42,12.42,0,0,0,893.7,590V539.47A12.42,12.42,0,0,0,881.06,526.83Zm-5.47,28.22-25.27,25.27a4.08,4.08,0,0,1-5.9,0L836,571.9a4.17,4.17,0,0,1,5.89-5.9l5.48,5.47,22.32-22.32a4.17,4.17,0,1,1,5.9,5.9Z"/><rect class="cls-3" x="909.69" y="526.83" width="196.95" height="75.75" rx="15.15"/><rect class="cls-3" x="1046.04" y="541.98" width="45.45" height="45.45"/><path class="cls-9" d="M1080.13,562.81h-9.47v-9.47a1.9,1.9,0,0,0-3.79,0v9.47h-9.47a1.9,1.9,0,0,0,0,3.79h9.47v9.47a1.9,1.9,0,0,0,3.79,0V566.6h9.47a1.9,1.9,0,0,0,0-3.79Z"/><rect class="cls-3" x="924.84" y="541.98" width="45.45" height="45.45"/><path class="cls-9" d="M958.93,566.6H936.2a1.9,1.9,0,0,1,0-3.79h22.73a1.9,1.9,0,0,1,0,3.79Z"/><path d="M1007.21,554.07q7.68,7.13,7.68,14.77a3,3,0,0,1-1.16,2.65,4.44,4.44,0,0,1-2.6.79,4.64,4.64,0,0,1-1.78-.29,2.53,2.53,0,0,1-1.16-1.09,2.88,2.88,0,0,1-1.36,1,5,5,0,0,1-1.9.34,3.2,3.2,0,0,1-2.58-1.14,4.66,4.66,0,0,1-.92-3,10.38,10.38,0,0,1,1.59-4.93,55,55,0,0,1,4.16-6.18,10.2,10.2,0,0,0-.8-.71l-.53-.48Zm3.76,15.59a4.33,4.33,0,0,0,2.15-.59,17.1,17.1,0,0,0-1.17-5.54,15,15,0,0,0-3.53-5.3q-2.73,3.72-4,5.86a7.6,7.6,0,0,0-1.25,3.71,1.7,1.7,0,0,0,.61,1.41,2.67,2.67,0,0,0,1.57.45,2.44,2.44,0,0,0,2-.72l-.08-1.85L1009,567l.07,2.26A3.1,3.1,0,0,0,1011,569.66Z"/></g></svg>