<svg xmlns="http://www.w3.org/2000/svg" viewBox="0 0 1152 648"><defs><style>.cls-1{fill:#dfdddd;}.cls-2{fill:#fff;}.cls-3{fill:#fd5d41;}</style></defs><g id="Layer_1" data-name="Layer 1"><rect class="cls-1" width="1152" height="648"/><rect class="cls-2" x="133.8" y="255.21" width="884.4" height="137.57"/><path d="M232.07,346.11H212.41a9.85,9.85,0,0,1-9.82-9.83v-27h39.3v27A9.85,9.85,0,0,1,232.07,346.11ZM207.5,314.17v22.11a4.93,4.93,0,0,0,4.91,4.92h19.66a4.93,4.93,0,0,0,4.91-4.92V314.17Z"/><path d="M229.61,321.54a2.32,2.32,0,0,1-2.46-2.45v-9.83a4.91,4.91,0,0,0-9.82,0v9.83a2.46,2.46,0,0,1-4.92,0v-9.83a9.83,9.83,0,1,1,19.66,0v9.83A2.32,2.32,0,0,1,229.61,321.54Z"/><path d="M969.06,326.46h-39.3a2.46,2.46,0,0,1,0-4.92h39.3a2.46,2.46,0,1,1,0,4.92Z"/><path d="M969.06,341.2h-39.3a2.46,2.46,0,0,1,0-4.92h39.3a2.46,2.46,0,1,1,0,4.92Z"/><path d="M969.06,311.72h-39.3a2.46,2.46,0,0,1,0-4.92h39.3a2.46,2.46,0,1,1,0,4.92Z"/><path class="cls-3" d="M192.76,304.35h0A19.65,19.65,0,0,1,212.41,324h0a19.65,19.65,0,0,1-19.65,19.65h0A19.65,19.65,0,0,1,173.11,324h0A19.65,19.65,0,0,1,192.76,304.35Z"/><path class="cls-2" d="M191.69,311.65a29.72,29.72,0,0,1,6,7.6A18.1,18.1,0,0,1,200,328.1a2.67,2.67,0,0,1-1.27,2.53,5.48,5.48,0,0,1-2.8.74,5.79,5.79,0,0,1-1.94-.29,2.43,2.43,0,0,1-1.21-1.18,3.2,3.2,0,0,1-1.42,1.12,5.78,5.78,0,0,1-2.06.35,3.44,3.44,0,0,1-2.74-1.15,4.73,4.73,0,0,1-1-3.15,12,12,0,0,1,1.82-5.63,62.58,62.58,0,0,1,4.6-7,10.62,10.62,0,0,0-.88-.8l-.59-.53Zm4.15,17.48a5.66,5.66,0,0,0,2.63-.68,20.85,20.85,0,0,0-1.33-6.63,17.41,17.41,0,0,0-4-6.25q-3.12,4.33-4.6,6.9a9.34,9.34,0,0,0-1.44,4.48,1.89,1.89,0,0,0,.77,1.65,3.25,3.25,0,0,0,1.88.53,2.62,2.62,0,0,0,2.33-.94l-.12-2.1,1.51-.14.11,2.59A3.4,3.4,0,0,0,195.84,329.13Z"/><path d="M316.82,338.74a18.43,18.43,0,1,1,18.43-18.42A18.55,18.55,0,0,1,316.82,338.74Zm0-31.94a13.52,13.52,0,1,0,13.51,13.52A13.64,13.64,0,0,0,316.82,306.8Z"/><path d="M340.16,346.11a2.23,2.23,0,0,1-1.72-.74l-4.91-4.91A2.43,2.43,0,0,1,337,337l4.91,4.91a2.38,2.38,0,0,1,0,3.44A2.23,2.23,0,0,1,340.16,346.11Z"/><path d="M884.31,360.85a4.92,4.92,0,1,0-4.91-4.91A4.91,4.91,0,0,0,884.31,360.85Z"/><path d="M888,314.17v16a3.69,3.69,0,1,1-7.37,0V294.52H868.34v35.62a16,16,0,0,0,31.94,0v-16Z"/><path d="M851.14,330.14a3.69,3.69,0,1,1-7.37,0v-16H831.49v16a3.69,3.69,0,1,1-7.37,0v-16H811.84v7.13a17.26,17.26,0,0,0-2.21-4.18L802,306.31l5.9-8.35-10.07-7.12-3.2,4.66L789,287.4l-10.07,7.12,8.35,11.79-7.61,10.81a17.7,17.7,0,0,0-2.95,6.63,17.5,17.5,0,0,0-16.46-12,17.09,17.09,0,0,0-17.2,17.19,17.52,17.52,0,0,0,1.48,7.13,17.47,17.47,0,0,0-8.85,15v6.15H748V351a4.93,4.93,0,0,1,4.91-4.91h7.37A17.12,17.12,0,0,0,777,332.84a18.5,18.5,0,0,0,17.69,13.27,18.28,18.28,0,0,0,17.44-12.77,15.87,15.87,0,0,0,15.73,12.77,15.43,15.43,0,0,0,9.82-3.44,15.45,15.45,0,0,0,9.83,3.44,15.94,15.94,0,0,0,16-16v-16H851.14Zm-90.89,3.69H760a5.06,5.06,0,0,1-4.66-4.92,4.91,4.91,0,1,1,4.91,4.92Zm34.39,0a6.08,6.08,0,0,1-6.14-6.14,5.84,5.84,0,0,1,1.23-3.44l4.91-7.13,4.91,7.13a5.84,5.84,0,0,1,1.23,3.44A6.08,6.08,0,0,1,794.64,333.83Z"/></g></svg>