<svg xmlns="http://www.w3.org/2000/svg" viewBox="0 0 648 648"><g id="Layer_1" data-name="Layer 1"><path d="M526.5,530.06,419.87,469.15H303.75a100.61,100.61,0,0,1-71.61-29.66,20.27,20.27,0,0,1,28.68-28.64,60.17,60.17,0,0,0,42.93,17.8H430.63L486,460.29V327.4a60.19,60.19,0,0,0-17.8-42.93,20.27,20.27,0,1,1,28.64-28.68A100.61,100.61,0,0,1,526.5,327.4Z"/><path d="M121.5,449.06V205.9a60.82,60.82,0,0,1,60.75-60.75h202.5A60.82,60.82,0,0,1,445.5,205.9V327.4a60.82,60.82,0,0,1-60.75,60.75H228.13Zm60.75-263.41A20.27,20.27,0,0,0,162,205.9V379.29l55.37-31.64H384.75A20.27,20.27,0,0,0,405,327.4V205.9a20.27,20.27,0,0,0-20.25-20.25Z"/></g></svg>