<svg xmlns="http://www.w3.org/2000/svg" viewBox="0 0 648 648"><defs><style>.cls-1{fill:#dfdddd;}.cls-2{fill:#ff5e3f;}.cls-3{fill:#fff;}</style></defs><g id="Layer_1" data-name="Layer 1"><rect class="cls-1" width="648" height="648"/><rect class="cls-2" x="96.1" y="242.61" width="455.8" height="162.79" rx="32.56"/><path class="cls-3" d="M212.18,330.76c.15,0,.29.23.4.69a6.3,6.3,0,0,1,.17,1.59v5a6.25,6.25,0,0,1-.17,1.59c-.11.46-.25.69-.4.69h-.74a9.81,9.81,0,0,1-4.38-1,7.91,7.91,0,0,1-3.2-3.3q.28,5.12.29,8a6.54,6.54,0,0,1-3.08,5.53,20.64,20.64,0,0,1-7.4,3.13,36,36,0,0,1-8,1q-8,0-11.45-3t-3.48-9a78.24,78.24,0,0,1,1.31-9.69l1.43-9.17,5.81,1.25q-2.22,13.33-2.22,16.18c0,1.48.85,2.51,2.56,3.08a19.14,19.14,0,0,0,6,.85,46.12,46.12,0,0,0,6.84-.45,17.53,17.53,0,0,0,5.12-1.54l-2.45-21.25,7.3-1.48.85,7a5.46,5.46,0,0,0,1,3,3.56,3.56,0,0,0,2.22,1.14,46,46,0,0,0,4.84.17ZM185.8,306.89l6.38,5.13-4.9,5.92-6.38-5.12ZM233.89,316q.57,8.78.57,14.36a10,10,0,0,1-.86,4.1,7,7,0,0,1-2.68,3.13,15.77,15.77,0,0,1-6.21,2.11,90.31,90.31,0,0,1-12.53.63c-.15,0-.27-.21-.34-.63a6.54,6.54,0,0,1-.17-1.65v-5a6.3,6.3,0,0,1,.17-1.59c.07-.46.19-.69.34-.69q7.13,0,10.48-.22a16.5,16.5,0,0,0,5.3-1.14l-1.31-12.2Zm-14.76-17,5.7,4.62-4.62,5.7-5.69-4.62Zm9.52,0,5.69,4.62-4.61,5.7-5.7-4.62Zm27.86,31.85c.15,0,.26.23.34.69A6.8,6.8,0,0,1,257,333v5a7,7,0,0,1-.17,1.65c-.08.42-.19.63-.34.63h-1.77A15.47,15.47,0,0,1,248,339a8.16,8.16,0,0,1-3.88-4.28,25.57,25.57,0,0,1-1.54-8.6l-1.08-28.09,7.52-1.25L249.1,326a5.34,5.34,0,0,0,1.2,3.48,4.54,4.54,0,0,0,3.47,1.25ZM272.25,316q.57,8.78.57,14.36a10,10,0,0,1-.86,4.1,7.5,7.5,0,0,1-2.67,3.13q-4.05,2.74-12.77,2.74c-.15,0-.26-.21-.34-.63A7,7,0,0,1,256,338v-5a6.8,6.8,0,0,1,.17-1.59c.08-.46.19-.69.34-.69a49,49,0,0,0,5.76-.28,13.38,13.38,0,0,0,4-1.08L265,317.2Zm-10.77,29.68,6.38,5.13-4.9,5.93-6.38-5.13Zm69.22-14.87q.23,0,.39.69a6.27,6.27,0,0,1,.18,1.59v5a6.22,6.22,0,0,1-.18,1.59q-.16.69-.39.69H330a9.85,9.85,0,0,1-4.39-1,7.89,7.89,0,0,1-3.19-3.3q.28,5.12.28,8a6.53,6.53,0,0,1-3.07,5.53,20.69,20.69,0,0,1-7.41,3.13,36,36,0,0,1-8,1q-8,0-11.45-3t-3.48-9a77,77,0,0,1,1.32-9.69l1.42-9.17,5.81,1.25q-2.22,13.33-2.22,16.18c0,1.48.85,2.51,2.56,3.08a19.18,19.18,0,0,0,6,.85,46,46,0,0,0,6.84-.45,17.69,17.69,0,0,0,5.13-1.54l-2.45-21.25,7.29-1.48.85,7a5.54,5.54,0,0,0,1,3,3.56,3.56,0,0,0,2.22,1.14,46.08,46.08,0,0,0,4.85.17Zm-26.38-23.87L310.7,312l-4.9,5.92-6.38-5.12Zm48.19,23.87c.16,0,.27.23.35.69A6.8,6.8,0,0,1,353,333v5a7,7,0,0,1-.17,1.65c-.08.42-.19.63-.35.63a20.23,20.23,0,0,1-7.29-1,5.29,5.29,0,0,1-3.08-3.36,6.46,6.46,0,0,1-3.7,3.36,23.16,23.16,0,0,1-7.75,1c-.15,0-.26-.21-.34-.63a7,7,0,0,1-.17-1.65v-5a6.8,6.8,0,0,1,.17-1.59c.08-.46.19-.69.34-.69,3.73,0,6.46-.45,8.21-1.36l-1.26-10.2,7.24-.8.51,11.34A19.6,19.6,0,0,0,352.51,330.76Zm-17-28,5.69,4.61-4.61,5.7-5.7-4.61Zm9.51,0,5.7,4.61-4.62,5.7-5.69-4.61Zm25.86,14.93a7,7,0,0,1,4.9,1.88,11.18,11.18,0,0,1,3.19,5,21.06,21.06,0,0,1,1.14,7.12,24.78,24.78,0,0,1-.86,6.44,4,4,0,0,1-.8,1.6,10.5,10.5,0,0,1-2.05,1.82,8.13,8.13,0,0,1-1.71,1.14,3.31,3.31,0,0,1-1.42.34,3.57,3.57,0,0,1-1.25-.28l-10.66-4.73a7.54,7.54,0,0,1-3.08,1.71,17.42,17.42,0,0,1-4.61.51h-1.2c-.15,0-.26-.21-.34-.63A7,7,0,0,1,352,338v-5a6.8,6.8,0,0,1,.17-1.59c.08-.46.19-.69.34-.69h2a11.88,11.88,0,0,0,2.73-.22,2.33,2.33,0,0,0,1.37-.86,14.27,14.27,0,0,0,1.14-2.11q2.28-5.29,4.79-7.57A9.1,9.1,0,0,1,370.91,317.72Zm2.28,16.69a10.13,10.13,0,0,0,.39-3.08,7.69,7.69,0,0,0-.91-4,3,3,0,0,0-2.73-1.54,3.51,3.51,0,0,0-2.57,1,23.59,23.59,0,0,0-2.67,3.71Z"/><path class="cls-3" d="M486.79,299.58a16.28,16.28,0,0,0-32.56,0H438v44.77a16.33,16.33,0,0,0,16.28,16.28h32.56a16.32,16.32,0,0,0,16.27-16.28V299.58Zm-16.28-8.14a8.17,8.17,0,0,1,8.14,8.14H462.37A8.17,8.17,0,0,1,470.51,291.44Zm24.42,52.91a8.17,8.17,0,0,1-8.14,8.14H454.23a8.17,8.17,0,0,1-8.14-8.14V307.72h8.14v8.14a4.07,4.07,0,0,0,8.14,0v-8.14h16.28v8.14a4.07,4.07,0,1,0,8.14,0v-8.14h8.14Z"/></g></svg>