<svg xmlns="http://www.w3.org/2000/svg" viewBox="0 0 1152 648"><defs><style>.cls-1{fill:#a3a3a3;}.cls-2{fill:none;}.cls-3{fill:#ff6c40;}</style></defs><g id="Layer_1" data-name="Layer 1"><path class="cls-1" d="M820.61,423V381a12,12,0,0,1,12-12h18a12,12,0,0,1,12,12v42l-21-9Z"/><rect class="cls-2" x="805.61" y="360" width="72" height="72"/><path class="cls-1" d="M322.4,516a15,15,0,0,0-12,6,15,15,0,1,0-22.61,19.6l22.61,22.6,22.6-22.6A15,15,0,0,0,322.4,516Z"/><rect class="cls-2" x="274.39" y="504" width="72" height="72"/><path class="cls-3" d="M841.61,567l-21-21V534a21,21,0,0,1,42,0v12Z"/><circle cx="841.61" cy="534" r="6"/><rect class="cls-2" x="805.61" y="504" width="72" height="72"/><path class="cls-3" d="M644.2,87v33a9,9,0,0,0,9,9h36a9,9,0,0,0,9-9V87Z"/><polygon points="698.2 87 698.2 94.74 671.2 117 644.2 94.77 644.2 87 644.26 87 671.2 109.23 698.2 87"/><rect class="cls-2" x="635.2" y="72" width="72" height="72"/><rect class="cls-2" x="635.2" y="72" width="72" height="72"/><rect class="cls-2" x="635.2" y="72" width="72" height="72"/><rect class="cls-2" x="635.2" y="72" width="72" height="72"/><rect class="cls-2" x="635.2" y="72" width="72" height="72"/><path class="cls-3" d="M1030,135H994a9,9,0,0,1-9-9V90a9,9,0,0,1,9-9h36a9,9,0,0,1,9,9v36A9,9,0,0,1,1030,135Z"/><path d="M1006,121.24l-8-8a3,3,0,0,1,4.24-4.25l3.79,3.79,15.88-15.88a3,3,0,0,1,4.24,4.24Z"/><rect class="cls-2" x="976.01" y="72" width="72" height="72"/><rect x="838.61" y="84.87" width="6" height="28.26" transform="translate(376.69 807.48) rotate(-63.44)"/><rect x="827.48" y="114" width="28.25" height="6" transform="translate(36.54 388.76) rotate(-26.57)"/><path class="cls-3" d="M823.61,99a9,9,0,1,1,9-9A9,9,0,0,1,823.61,99Z"/><path class="cls-3" d="M823.61,135a9,9,0,1,1,9-9A9,9,0,0,1,823.61,135Z"/><path class="cls-3" d="M859.61,117a9,9,0,1,1,9-9A9,9,0,0,1,859.61,117Z"/><rect class="cls-2" x="805.61" y="72" width="72" height="72"/><path class="cls-1" d="M164,111H116a3,3,0,0,1,0-6h48a3,3,0,0,1,0,6Z"/><path class="cls-1" d="M164,129H116a3,3,0,0,1,0-6h48a3,3,0,0,1,0,6Z"/><path class="cls-1" d="M164,93H116a3,3,0,0,1,0-6h48a3,3,0,0,1,0,6Z"/><rect class="cls-2" x="103.99" y="72" width="72" height="72"/><path class="cls-3" d="M1036,525v33a9,9,0,0,1-9,9h-24a9,9,0,0,1-9-9V522a9,9,0,0,1,9-9h21"/><path d="M1009,558l-12-6.93L985,558V537a9,9,0,0,1,9-9h6a9,9,0,0,1,9,9Zm-12-13.86,6,3.46V537a3,3,0,0,0-3-3h-6a3,3,0,0,0-3,3v10.61Z"/><rect class="cls-2" x="976.01" y="504" width="72" height="72"/><path class="cls-3" d="M1042,426l-15.8-9H1003a9,9,0,0,1-9-9V390a9,9,0,0,1,9-9h30a9,9,0,0,1,9,9Z"/><path d="M982,414V378a9,9,0,0,1,9-9h30a9,9,0,0,1,9,9v18a9,9,0,0,1-9,9H997.8Zm9-39a3,3,0,0,0-3,3v25.69l8.2-4.69H1021a3,3,0,0,0,3-3V378a3,3,0,0,0-3-3Z"/><rect class="cls-2" x="976.01" y="360" width="72" height="72"/><path d="M677.2,528a3,3,0,0,1,0-6,3,3,0,1,0-3-3,3,3,0,0,1-6,0,9,9,0,1,1,9,9Z"/><path d="M671.2,528a3,3,0,0,1-3-3v-6a3,3,0,1,0-3,3,3,3,0,0,1,0,6,9,9,0,1,1,9-9v6A3,3,0,0,1,671.2,528Z"/><path class="cls-3" d="M698.2,531a9,9,0,0,0-9-9h-36a9,9,0,0,0-9,9v9h6v18a9,9,0,0,0,9,9h24a9,9,0,0,0,9-9V540h6Z"/><rect x="668.2" y="540" width="6" height="27"/><rect class="cls-2" x="635.2" y="504" width="72" height="72"/><path class="cls-3" d="M489.8,567h-24a12,12,0,0,1-12-12V531a12,12,0,0,1,12-12h24a12,12,0,0,1,12,12v24A12,12,0,0,1,489.8,567Z"/><path d="M477.8,555h-12V543l30.39-30.46a8.49,8.49,0,0,1,12,12Zm-6-6h3.52l28.62-28.7a2.49,2.49,0,0,0-3.51-3.52l-28.63,28.7Z"/><rect class="cls-2" x="444.8" y="504" width="72" height="72"/><path class="cls-1" d="M134,414a24,24,0,1,1,24-24A24,24,0,0,1,134,414Zm0-42a18,18,0,1,0,18,18A18,18,0,0,0,134,372Z"/><path class="cls-1" d="M167,426a3,3,0,0,1-2.12-.88l-9-9a3,3,0,0,1,4.24-4.24l9,9a3,3,0,0,1,0,4.24A3,3,0,0,1,167,426Z"/><rect class="cls-2" x="103.99" y="360" width="72" height="72"/><polygon points="648.74 384.4 646.8 378.73 688.04 364.65 693.7 380.18 688.06 382.23 684.42 372.23 648.74 384.4"/><path class="cls-3" d="M692.2,423h-42a9,9,0,0,1-9-9V387a9,9,0,0,1,9-9h42a9,9,0,0,1,9,9v27A9,9,0,0,1,692.2,423Z"/><circle cx="684.7" cy="400.5" r="4.5"/><rect class="cls-2" x="635.2" y="360" width="72" height="72"/><path class="cls-3" d="M495.8,423h-30a9,9,0,0,1-9-9V394.25l24-24,24,24V414A9,9,0,0,1,495.8,423Z"/><path d="M510.8,403.25a3,3,0,0,1-2.12-.88L480.8,374.49l-27.88,27.88a3,3,0,0,1-4.24-4.24L480.8,366l32.12,32.12a3,3,0,0,1-2.12,5.12Z"/><rect class="cls-2" x="444.8" y="360" width="72" height="72"/><path class="cls-3" d="M334.39,423h-48V405h48Z"/><rect x="286.39" y="390" width="6" height="15"/><rect x="328.39" y="393" width="6" height="12"/><path class="cls-3" d="M334.36,369H286.43l-6,14.4v.6a11.95,11.95,0,0,0,21,7.85,11.83,11.83,0,0,0,18,0,11.95,11.95,0,0,0,21-7.85v-.6Z"/><rect class="cls-2" x="274.39" y="360" width="72" height="72"/><path class="cls-3" d="M149,513H128a9,9,0,0,0-9,9v36a9,9,0,0,0,9,9h24a9,9,0,0,0,9-9V525Z"/><path d="M149,537H131a3,3,0,0,1,0-6h18a3,3,0,0,1,0,6Z"/><path d="M149,549H137a3,3,0,0,1,0-6h12a3,3,0,0,1,0,6Z"/><rect class="cls-2" x="103.99" y="504" width="72" height="72"/><rect class="cls-2" x="103.99" y="504" width="72" height="72"/><path d="M131,255.27a15,15,0,1,1,15-15A15,15,0,0,1,131,255.27Zm0-24a9,9,0,1,0,9,9A9,9,0,0,0,131,231.27Z"/><path d="M167,255.27h-6v-6a3,3,0,1,0-6,0v6h-6a3,3,0,1,0,0,6h6v6a3,3,0,0,0,6,0v-6h6a3,3,0,1,0,0-6Z"/><path class="cls-3" d="M152,285.27H110v-3a21,21,0,1,1,42,0Z"/><rect class="cls-2" x="103.99" y="219.27" width="72" height="72"/><path d="M310.4,255.27a15,15,0,1,1,15-15A15,15,0,0,1,310.4,255.27Zm0-24a9,9,0,1,0,9,9A9,9,0,0,0,310.4,231.27Z"/><path class="cls-3" d="M331.4,285.27h-42v-3a21,21,0,0,1,42,0Z"/><rect class="cls-2" x="274.39" y="219.27" width="72" height="72"/><path d="M465.8,255.27a12,12,0,1,1,12-12A12,12,0,0,1,465.8,255.27Zm0-18a6,6,0,1,0,6,6A6,6,0,0,0,465.8,237.27Z"/><path d="M495.8,255.27a12,12,0,1,1,12-12A12,12,0,0,1,495.8,255.27Zm0-18a6,6,0,1,0,6,6A6,6,0,0,0,495.8,237.27Z"/><path class="cls-3" d="M486.8,282.27h-42v-3a21,21,0,0,1,42,0Z"/><path class="cls-3" d="M495.8,258.27a20.93,20.93,0,0,0-10.23,2.67,26.88,26.88,0,0,1,7.23,18.33v3h24v-3A21,21,0,0,0,495.8,258.27Z"/><rect class="cls-2" x="444.8" y="219.27" width="72" height="72"/><path class="cls-3" d="M1012,273.27a33.12,33.12,0,0,1-28.55-16.5l-.87-1.5.87-1.5a33,33,0,0,1,57.1,0l.87,1.5-.87,1.5A33.1,33.1,0,0,1,1012,273.27Z"/><circle cx="1012.01" cy="255.27" r="9"/><rect class="cls-2" x="976.01" y="219.27" width="72" height="72"/><path class="cls-1" d="M298.39,130.67a9,9,0,0,1-4.51-1.22,8.92,8.92,0,0,1-4.49-7.79V94.34a9,9,0,0,1,13.47-7.82l23.91,13.67a9,9,0,0,1,0,15.62l-23.91,13.67A9.07,9.07,0,0,1,298.39,130.67Z"/><rect class="cls-2" x="274.39" y="72" width="72" height="72"/><path class="cls-1" d="M471.8,138V109.24l-12-12V90a9,9,0,0,1,9-9h24a9,9,0,0,1,9,9v7.24l-12,12v18.5Z"/><rect class="cls-2" x="444.8" y="72" width="72" height="72"/><path class="cls-3" d="M853.61,282.27h-24a12,12,0,0,1-12-12v-33h48v33A12,12,0,0,1,853.61,282.27Z"/><path d="M850.61,252.27a3,3,0,0,1-3-3v-12a6,6,0,0,0-12,0v12a3,3,0,1,1-6,0v-12a12,12,0,0,1,24,0v12A3,3,0,0,1,850.61,252.27Z"/><path d="M859.61,270.27h-18a3,3,0,0,1,0-6h18a3,3,0,1,1,0,6Z"/><path d="M850.61,279.27a3,3,0,0,1-3-3v-18a3,3,0,0,1,6,0v18A3,3,0,0,1,850.61,279.27Z"/><rect class="cls-2" x="805.61" y="219.27" width="72" height="72"/><path class="cls-3" d="M683.2,282.27h-24a12,12,0,0,1-12-12v-33h48v33A12,12,0,0,1,683.2,282.27Z"/><path d="M680.2,252.27a3,3,0,0,1-3-3v-12a6,6,0,1,0-12,0v12a3,3,0,0,1-6,0v-12a12,12,0,1,1,24,0v12A3,3,0,0,1,680.2,252.27Z"/><rect class="cls-2" x="635.2" y="219.27" width="72" height="72"/></g></svg>