<svg xmlns="http://www.w3.org/2000/svg" xmlns:xlink="http://www.w3.org/1999/xlink" viewBox="0 0 648 648"><defs><style>.cls-1{fill:none;}.cls-2{fill:#dfdddd;}.cls-3{fill:#fff;}.cls-4{fill:#f4f4f4;}.cls-5{fill:#565453;}.cls-6{clip-path:url(#clip-path);}.cls-7{fill:#fd5d41;}</style><clipPath id="clip-path"><rect class="cls-1" x="120.09" y="97.93" width="38.23" height="38.23"/></clipPath></defs><g id="Layer_1" data-name="Layer 1"><rect class="cls-2" width="648" height="648"/><rect class="cls-3" x="94.6" y="45.36" width="458.8" height="602.64"/><path d="M265,318.86c.1,0,.19.14.25.43a4.57,4.57,0,0,1,.11,1.07v3.85a4.28,4.28,0,0,1-.13,1.09c-.07.29-.15.44-.23.44h-.54a9.62,9.62,0,0,1-3.72-.61,4.25,4.25,0,0,1-2.11-2.27,13.38,13.38,0,0,1-.77-4.82l-.2-11.78,5.22-.76-.12,11.57a2.11,2.11,0,0,0,.3,1.38,1.77,1.77,0,0,0,1.35.41Zm13.24-6.25a7.1,7.1,0,0,1,3.06,2.55,6.8,6.8,0,0,1,1.12,3.93,13.31,13.31,0,0,1-1,4.46,2.12,2.12,0,0,1-.51.76,12.11,12.11,0,0,1-1.2,1,3,3,0,0,1-1.56.71,1.51,1.51,0,0,1-.48-.07l-4-1.46a14.19,14.19,0,0,1-3.26,1,33.49,33.49,0,0,1-5.4.33c-.09,0-.16-.15-.23-.44a3.88,3.88,0,0,1-.13-1.09v-3.85a4.63,4.63,0,0,1,.1-1.07c.07-.29.15-.43.26-.43h.56c1.05,0,1.74,0,2.06.05a2.53,2.53,0,0,1-.56-1.56,5.57,5.57,0,0,1,1.12-3l-.81-.36,2.42-5.12Zm-4.51,3.67-1.73-.84c-.33.44-.56.79-.72,1.05a1.49,1.49,0,0,0-.2.66,1,1,0,0,0,.48.84,3.35,3.35,0,0,0,1.46.36Zm4.36,4a2.4,2.4,0,0,0,.31-.94,1.58,1.58,0,0,0-.51-1.17,4.48,4.48,0,0,0-1.48-.89l-.74,2.09Zm27-12.41L302,305.3l2.63-3.09,3.08,2.55Zm-2.24,4.59-3.11-2.63,2.62-3.11,2.73,2.3,2.14-2.53,3.09,2.55-2.6,3.09-2.73-2.3Zm13.25,2.06q.15,1.92.18,2.73c0,.54,0,1.33,0,2.34a6.62,6.62,0,0,1-1.43,4.57,5.28,5.28,0,0,1-4.13,1.58,3.66,3.66,0,0,1-1.83-.46A2.89,2.89,0,0,1,307.8,324a3.1,3.1,0,0,1-1.35,1.33,4.36,4.36,0,0,1-1.94.46,3.37,3.37,0,0,1-1.86-.51q0,.48,0,1.35a4.24,4.24,0,0,1-2.6,4.18,13.67,13.67,0,0,1-5.84,1.2c-2.72,0-4.74-.5-6.06-1.48a4.73,4.73,0,0,1-2-4,52.38,52.38,0,0,1,1.38-10.37l4.15.84q-.35,2.08-.66,4.2a25.4,25.4,0,0,0-.3,2.73,1.08,1.08,0,0,0,.28.84,1.57,1.57,0,0,0,.89.33q.62.06,2,.06c.9,0,1.61,0,2.14-.06s1.11-.12,1.76-.23l-1.3-9.07,5-1.15.36,3.24a1.21,1.21,0,0,0,1.33,1.05,2.79,2.79,0,0,0,1-.16l-.05-4,4.56-.26.13,4.28a2,2,0,0,0,.89.16,5.11,5.11,0,0,0,1.63-.26l-.71-5,5.17-.95Zm-1.8,14.89c1.87-1,3.23-1.82,4.1-2.35a11.25,11.25,0,0,0,2-1.42,4.48,4.48,0,0,0,1.05-1.43l-1.33-8.08,5.23-1.07a64.88,64.88,0,0,1,.61,7.95,15.49,15.49,0,0,1-.53,4.41,8.28,8.28,0,0,1-2.25,3.47,25.36,25.36,0,0,1-5.27,3.77Zm21.87-10.55c.11,0,.19.14.26.43a4.63,4.63,0,0,1,.1,1.07v3.85a3.88,3.88,0,0,1-.13,1.09c-.07.29-.14.44-.23.44h-.53a9.55,9.55,0,0,1-3.72-.61,4.23,4.23,0,0,1-2.12-2.27,13.41,13.41,0,0,1-.76-4.82l-.21-11.78,5.23-.76-.13,11.57a2.1,2.1,0,0,0,.31,1.38,1.74,1.74,0,0,0,1.35.41Zm7.46-10.71L340,305.09l3.06-3.67,3.67,3.06Zm6.78,10.71c.1,0,.19.14.26.43a5.26,5.26,0,0,1,.1,1.07v3.85a4.28,4.28,0,0,1-.13,1.09c-.07.29-.14.44-.23.44h-3.24a8.18,8.18,0,0,1-2.32-.26,3.29,3.29,0,0,1-1.5-1.17,4.32,4.32,0,0,1-1.3,1,4.4,4.4,0,0,1-1.35.38,15.81,15.81,0,0,1-1.73.08h-2.81c-.08,0-.16-.15-.23-.44a4.32,4.32,0,0,1-.12-1.09v-3.85a4.63,4.63,0,0,1,.1-1.07c.06-.29.15-.43.25-.43h.56c.38,0,.67,0,.87,0a7.6,7.6,0,0,1,.76.05,1.9,1.9,0,0,1-.43-.58,2.33,2.33,0,0,1-.08-.59,7.14,7.14,0,0,1,1-3.49,10.19,10.19,0,0,1,2.37-2.88,4.18,4.18,0,0,1,2.45-1.12,4,4,0,0,1,2.58,1,7.28,7.28,0,0,1,2,2.72,8.64,8.64,0,0,1,.76,3.62,2,2,0,0,1-.07.56,4.64,4.64,0,0,1-.41.79,2.28,2.28,0,0,1,.64-.1,5.53,5.53,0,0,1,.56,0h.76Zm-5.56-1a3.56,3.56,0,0,0-.58-1.48c-.27-.42-.55-.63-.82-.63a1.3,1.3,0,0,0-.69.35,4.86,4.86,0,0,0-.74.82,1.32,1.32,0,0,0-.28.74,1.38,1.38,0,0,0,.36.63,7.45,7.45,0,0,0,.84.85Zm26.43-4.51c.15,1.87.23,3.09.25,3.67s0,1.42,0,2.57a6.62,6.62,0,0,1-1.43,4.57,5.2,5.2,0,0,1-4.1,1.58,7,7,0,0,1-2.63-.46,3,3,0,0,1-1.55-1.33,2.74,2.74,0,0,1-1.58,1.38,6.62,6.62,0,0,1-2.37.41,5.6,5.6,0,0,1-2.22-.41,3.52,3.52,0,0,1-1.45-1.15c-.63,1-1.91,1.56-3.85,1.56-.08,0-.16-.15-.23-.44a4.28,4.28,0,0,1-.13-1.09v-3.85a5.26,5.26,0,0,1,.1-1.07c.07-.29.16-.43.26-.43q.94,0,1.5,0a2.59,2.59,0,0,0,.95-.23l-.05-3.21,4.61-.05.05,2.52a1.19,1.19,0,0,0,.25.79,1.09,1.09,0,0,0,.74.21,3.68,3.68,0,0,0,1.18-.16l-.05-4,4.56-.26.13,4.28a3,3,0,0,0,1.12.16,4.81,4.81,0,0,0,1.4-.23l-.71-5,5.14-.95Zm21.21,5.94a8.93,8.93,0,0,1,2.78.61,3.85,3.85,0,0,1,1.86,1.66,6.19,6.19,0,0,1,.74,3.29,5.87,5.87,0,0,1-1.33,3.62,8.67,8.67,0,0,1-3.59,2.67,12.89,12.89,0,0,1-5.15,1c-2.74,0-4.76-.5-6.07-1.48a4.73,4.73,0,0,1-2-4,52.49,52.49,0,0,1,1.38-10.35l4.15.82a67,67,0,0,0-1,7,1.12,1.12,0,0,0,.28.84,1.45,1.45,0,0,0,.87.3c.41,0,1.1.05,2.09.05a27.15,27.15,0,0,0,3.47-.23,10.82,10.82,0,0,0,2.72-.58l-1.17-.16a20.68,20.68,0,0,1-2.7-.43,2.81,2.81,0,0,1-1.43-.81,2.52,2.52,0,0,1-.53-1.76,12.43,12.43,0,0,1,1-4.77,12.81,12.81,0,0,1,2.47-3.95,4.11,4.11,0,0,1,2.83-1.58,4.39,4.39,0,0,1,1.53.25,4.53,4.53,0,0,1,1.58,1.18,14.93,14.93,0,0,1,1.94,2.8l-2.91,3.14c-.9-1-1.64-1.43-2.22-1.43C393.36,316.92,392.8,317.71,392.5,319.29Zm18.74-.43c.1,0,.19.14.26.43a5.26,5.26,0,0,1,.1,1.07v3.85a4.28,4.28,0,0,1-.13,1.09c-.07.29-.15.44-.23.44h-.64a2.35,2.35,0,0,1-1.86-.92,11.48,11.48,0,0,1-.71,3.49,9.42,9.42,0,0,1-2,3,24,24,0,0,1-4,3.28l-3.54-5.25a42.61,42.61,0,0,0,4.07-3,6.46,6.46,0,0,0,1.71-2.16l-1.3-8.08,5.2-1.07.15,1.3.13,1a4.45,4.45,0,0,0,.23,1,.91.91,0,0,0,.61.36,12.25,12.25,0,0,0,1.69.08Zm10.43,0c.1,0,.19.14.26.43a5.26,5.26,0,0,1,.1,1.07v3.85a4.28,4.28,0,0,1-.13,1.09c-.07.29-.15.44-.23.44a11.36,11.36,0,0,1-3.34-.38A2.69,2.69,0,0,1,416.7,324a2.52,2.52,0,0,1-.94,1.15,4.43,4.43,0,0,1-1.66.48,25.46,25.46,0,0,1-2.85.13c-.09,0-.17-.15-.23-.44a3.88,3.88,0,0,1-.13-1.09v-3.85a4.63,4.63,0,0,1,.1-1.07c.07-.29.15-.43.26-.43a29.83,29.83,0,0,0,3.59-.16l-.61-4.2,5.07-.59,0,4.82A18.35,18.35,0,0,0,421.67,318.86Zm-3.87,9.68,3.31,2.78-2.78,3.31-3-2.47L413,334.94l-3.31-2.75,2.77-3.37,3,2.47Zm16.95-9.68c.1,0,.19.14.26.43a5.26,5.26,0,0,1,.1,1.07v3.85a4.28,4.28,0,0,1-.13,1.09c-.07.29-.14.44-.23.44h-1.3a3,3,0,0,1-1.45-.36,3.25,3.25,0,0,1-1.07-1,8.51,8.51,0,0,1-3.24,1.07,33.6,33.6,0,0,1-5.07.31h-.95c-.08,0-.16-.15-.23-.44a4.32,4.32,0,0,1-.12-1.09v-3.85a4.63,4.63,0,0,1,.1-1.07c.07-.29.15-.43.25-.43a48.72,48.72,0,0,0,6.25-.28,5.37,5.37,0,0,0-1.05-2.09,10.89,10.89,0,0,0-2.24-2.27,10.68,10.68,0,0,0-3-1.71l-.15-5.28-.08-2.62,6.89-2.93.18,2.39c1.64-.73,2.88-1.26,3.69-1.6l.54,5.71c-.63.23-1.71.66-3.24,1.27l-2,.82a4.9,4.9,0,0,1,1.2.79,11.6,11.6,0,0,1,2.73,3.36,11.91,11.91,0,0,1,1.45,4.44h1.86Zm12.18,0v6.88h-1.76a11.31,11.31,0,0,1-3.34-.38A2.66,2.66,0,0,1,440.2,324a2.48,2.48,0,0,1-.95,1.15,4.37,4.37,0,0,1-1.65.48,25.54,25.54,0,0,1-2.86.13c-.08,0-.16-.15-.23-.44a4.32,4.32,0,0,1-.12-1.09v-3.85a4.63,4.63,0,0,1,.1-1.07c.06-.29.15-.43.25-.43a29.9,29.9,0,0,0,3.6-.16l-.61-4.2,5.07-.59,0,4.82a18.52,18.52,0,0,0,2.35.13Zm-5.64,9.68,3.32,2.78-2.78,3.31-3-2.47-2.32,2.78-3.32-2.75,2.78-3.37,3,2.47Zm5.62-2.8c-.08,0-.16-.15-.23-.44a4.32,4.32,0,0,1-.12-1.09v-3.85a4.63,4.63,0,0,1,.1-1.07c.07-.29.15-.43.25-.43,1.09,0,1.93,0,2.53-.06a9.39,9.39,0,0,0,1.48-.22l-.67-5,5.15-.95c.26,3.28.38,5.72.38,7.32a6.94,6.94,0,0,1-.4,2.37,4.33,4.33,0,0,1-1.51,2Q452,325.74,446.91,325.74Zm5.71,2.24,3.09,2.58-2.6,3.08-2.73-2.32-2.12,2.6-3.08-2.57,2.57-3.11,2.76,2.29Zm-2.16,4.46,3.08,2.55L451,338.1l-3.11-2.65Z"/><path d="M284,229.05q2.81-1.56,4.11-2.35a11.22,11.22,0,0,0,2-1.43,4.44,4.44,0,0,0,1.05-1.42l-1.33-8.08L295,214.7a67,67,0,0,1,.61,8,15.15,15.15,0,0,1-.54,4.41,8.22,8.22,0,0,1-2.24,3.46,24.82,24.82,0,0,1-5.28,3.78Zm21.88-10.56c.1,0,.19.15.26.44a5.19,5.19,0,0,1,.1,1.07v3.85a4.28,4.28,0,0,1-.13,1.09c-.07.29-.14.44-.23.44h-.53a9.44,9.44,0,0,1-3.73-.62,4.2,4.2,0,0,1-2.11-2.26,13.42,13.42,0,0,1-.77-4.82l-.2-11.78,5.23-.76-.13,11.57a2.14,2.14,0,0,0,.3,1.38,1.77,1.77,0,0,0,1.35.4Zm10.41,0c.11,0,.19.15.26.44a4.57,4.57,0,0,1,.1,1.07v3.85a3.88,3.88,0,0,1-.13,1.09c-.06.29-.14.44-.23.44a10.85,10.85,0,0,1-3.33-.39,2.66,2.66,0,0,1-1.64-1.37,2.39,2.39,0,0,1-.94,1.14,4.42,4.42,0,0,1-1.66.49,25.46,25.46,0,0,1-2.85.13c-.09,0-.16-.15-.23-.44a3.88,3.88,0,0,1-.13-1.09V220a5.19,5.19,0,0,1,.1-1.07c.07-.29.16-.44.26-.44a30.24,30.24,0,0,0,3.59-.15l-.61-4.21,5.07-.58,0,4.82A18.61,18.61,0,0,0,316.25,218.49Zm-7.72,9.69,3.67,3.06-3.06,3.67-3.64-3.06Zm10.71-16L316,209.47l2.78-3.31,3,2.49,2.37-2.77,3.26,2.8-2.75,3.26-3-2.47Zm7.44,6.27c.11,0,.19.15.26.44A4.57,4.57,0,0,1,327,220v3.85a3.88,3.88,0,0,1-.13,1.09c-.06.29-.14.44-.23.44a10.85,10.85,0,0,1-3.33-.39,2.66,2.66,0,0,1-1.64-1.37,2.39,2.39,0,0,1-.94,1.14,4.42,4.42,0,0,1-1.66.49,25.46,25.46,0,0,1-2.85.13c-.09,0-.16-.15-.23-.44a3.88,3.88,0,0,1-.13-1.09V220a5.19,5.19,0,0,1,.1-1.07c.07-.29.16-.44.26-.44a30.24,30.24,0,0,0,3.59-.15l-.61-4.21,5.07-.58,0,4.82A18.61,18.61,0,0,0,326.68,218.49Zm13,5q-3.31.93-5,1.3a24.49,24.49,0,0,1-3,.46c-.83.07-2,.11-3.46.11h-1.53c-.09,0-.16-.15-.23-.44a3.88,3.88,0,0,1-.13-1.09V220a5.19,5.19,0,0,1,.1-1.07c.07-.29.16-.44.26-.44h1.63a9.52,9.52,0,0,1-.13-1.88,5.87,5.87,0,0,1,1.61-4.46,6.2,6.2,0,0,1,4.41-1.53,11.61,11.61,0,0,1,3,.41l-1.3,5.19a26.48,26.48,0,0,0-2.9-.38,18.09,18.09,0,0,0,.1,2.32l6.24-1.09Zm8.89-18.37-.25,20.24-4.41.61-.56-20.09Zm17.34,0,.07.79q.51,5.37.77,8.87c.17,2.32.25,4.67.25,7,0,1.19,0,2.37-.07,3.55h-4.19a104.72,104.72,0,0,0-1.93-19.48Zm11.68,19.93a6.55,6.55,0,0,1-3.29-.84,6.46,6.46,0,0,1-2.35-2.35,6.38,6.38,0,0,1-.86-3.26,6.28,6.28,0,0,1,.86-3.24,6.08,6.08,0,0,1,2.35-2.29,6.55,6.55,0,0,1,3.29-.84,6,6,0,0,1,3.13.84,6.24,6.24,0,0,1,2.3,2.29,6,6,0,0,1,.86,3.14,6.74,6.74,0,0,1-.84,3.29,6.41,6.41,0,0,1-2.29,2.39A6,6,0,0,1,377.62,225.07Zm-.13-4.31a2,2,0,0,0,1.5-.61,2.09,2.09,0,0,0,.64-1.53,2.19,2.19,0,0,0-2.14-2.14,2.08,2.08,0,0,0-1.55.64,2,2,0,0,0-.62,1.5,2.1,2.1,0,0,0,2.17,2.14Zm16.21,4.31a6.35,6.35,0,0,1-5.64-3.19,6.38,6.38,0,0,1-.86-3.26,6.28,6.28,0,0,1,.86-3.24,6.08,6.08,0,0,1,2.35-2.29,6.52,6.52,0,0,1,3.29-.84,6,6,0,0,1,3.13.84,6.24,6.24,0,0,1,2.3,2.29,6,6,0,0,1,.86,3.14,6.74,6.74,0,0,1-.84,3.29,6.41,6.41,0,0,1-2.29,2.39A6,6,0,0,1,393.7,225.07Zm-.13-4.31a2,2,0,0,0,1.5-.61,2.09,2.09,0,0,0,.64-1.53,2.19,2.19,0,0,0-2.14-2.14,2.08,2.08,0,0,0-1.55.64,2,2,0,0,0-.62,1.5,2.1,2.1,0,0,0,2.17,2.14ZM408.3,219a2.52,2.52,0,0,1,1.51.49,3.21,3.21,0,0,1,1.12,1.22,3.49,3.49,0,0,1,.41,1.66,3.61,3.61,0,0,1-1,2.72,3.54,3.54,0,0,1-2.6,1,3.68,3.68,0,0,1-2.75-1.1,4.59,4.59,0,0,1-1.05-3.29,8.21,8.21,0,0,1,1-3.51,20.91,20.91,0,0,1,2.42-3.85l2.83,2.06a29.58,29.58,0,0,0-2,2.6Zm13.8,6.12a6.55,6.55,0,0,1-3.29-.84,6.36,6.36,0,0,1-2.34-2.35,6.29,6.29,0,0,1-.87-3.26,6.19,6.19,0,0,1,.87-3.24,6,6,0,0,1,2.34-2.29,6.55,6.55,0,0,1,3.29-.84,6,6,0,0,1,3.13.84,6.24,6.24,0,0,1,2.3,2.29,6,6,0,0,1,.86,3.14,6.74,6.74,0,0,1-.84,3.29,6.41,6.41,0,0,1-2.29,2.39A6,6,0,0,1,422.1,225.07Zm-.13-4.31a2,2,0,0,0,1.51-.61,2.12,2.12,0,0,0,.63-1.53,2.17,2.17,0,0,0-2.14-2.14,2.08,2.08,0,0,0-1.55.64,2,2,0,0,0-.62,1.5,2.1,2.1,0,0,0,2.17,2.14Zm17,4.31a6.35,6.35,0,0,1-5.64-3.19,6.28,6.28,0,0,1-.86-3.26,6.19,6.19,0,0,1,.86-3.24,6.08,6.08,0,0,1,2.35-2.29,6.52,6.52,0,0,1,3.29-.84,6.07,6.07,0,0,1,3.13.84,6.21,6.21,0,0,1,2.29,2.29,5.92,5.92,0,0,1,.87,3.14,6.74,6.74,0,0,1-.84,3.29,6.49,6.49,0,0,1-2.29,2.39A6.06,6.06,0,0,1,439,225.07Zm-.13-4.31a2,2,0,0,0,1.5-.61,2.09,2.09,0,0,0,.64-1.53,2.19,2.19,0,0,0-2.14-2.14,2.12,2.12,0,0,0-1.56.64,2.06,2.06,0,0,0-.61,1.5,2.09,2.09,0,0,0,2.17,2.14Zm17,4.31a6.32,6.32,0,0,1-5.63-3.19,6.29,6.29,0,0,1-.87-3.26,6.19,6.19,0,0,1,.87-3.24,6.12,6.12,0,0,1,2.34-2.29,6.55,6.55,0,0,1,3.29-.84,6.1,6.1,0,0,1,3.14.84,6.29,6.29,0,0,1,2.29,2.29,5.92,5.92,0,0,1,.87,3.14,6.74,6.74,0,0,1-.84,3.29,6.51,6.51,0,0,1-2.3,2.39A6,6,0,0,1,455.85,225.07Zm-.13-4.31a2,2,0,0,0,1.51-.61,2.12,2.12,0,0,0,.63-1.53,2.17,2.17,0,0,0-2.14-2.14,2.08,2.08,0,0,0-1.55.64,2,2,0,0,0-.61,1.5,2.09,2.09,0,0,0,2.16,2.14Z"/><path d="M263,136.11a6.33,6.33,0,0,1,2.08.46,2.83,2.83,0,0,1,1.4,1.24,4.6,4.6,0,0,1,.55,2.46,4.43,4.43,0,0,1-1,2.72,6.6,6.6,0,0,1-2.69,2,9.78,9.78,0,0,1-3.87.74,7.58,7.58,0,0,1-4.55-1.11,3.54,3.54,0,0,1-1.47-3,40.09,40.09,0,0,1,1-7.76l3.12.61a50.94,50.94,0,0,0-.73,5.22.81.81,0,0,0,.21.63,1,1,0,0,0,.65.23c.31,0,.83,0,1.57,0a22.33,22.33,0,0,0,2.6-.17,8.49,8.49,0,0,0,2.05-.44l-.88-.12a16.82,16.82,0,0,1-2-.32,2.18,2.18,0,0,1-1.07-.61,1.91,1.91,0,0,1-.4-1.32,9.41,9.41,0,0,1,.74-3.58,9.73,9.73,0,0,1,1.86-3,3.08,3.08,0,0,1,2.12-1.19,3.27,3.27,0,0,1,1.15.2,3.2,3.2,0,0,1,1.18.88,10.87,10.87,0,0,1,1.46,2.1l-2.18,2.35c-.68-.71-1.23-1.07-1.67-1.07C263.59,134.33,263.18,134.92,263,136.11Zm14.06-.33c.07,0,.14.11.19.33a3.53,3.53,0,0,1,.08.8v2.89a3.28,3.28,0,0,1-.1.82c-.05.21-.11.32-.17.32h-.48a1.79,1.79,0,0,1-1.4-.68,8.68,8.68,0,0,1-.53,2.61,7,7,0,0,1-1.51,2.28,17.85,17.85,0,0,1-3,2.47l-2.66-3.94a33,33,0,0,0,3.06-2.26,5.11,5.11,0,0,0,1.28-1.62l-1-6.06,3.9-.81.12,1,.09.76a3.2,3.2,0,0,0,.18.79.68.68,0,0,0,.46.26,8.6,8.6,0,0,0,1.26.06Zm9-4.64c.19,2.46.29,4.28.29,5.48a5,5,0,0,1-.31,1.78,3.16,3.16,0,0,1-1.12,1.47,4.07,4.07,0,0,1-1.38.69,12.48,12.48,0,0,1-2.24.31c-1,0-2.39.07-4.28.07-.06,0-.12-.11-.17-.32a3.28,3.28,0,0,1-.1-.82v-2.89a3.53,3.53,0,0,1,.08-.8c.05-.22.11-.33.19-.33,1.82,0,3.13,0,3.92,0a9.11,9.11,0,0,0,1.76-.17l-.5-3.73Zm-5.16,11.91,2.75,2.29-2.29,2.75-2.73-2.29Zm3.94.65c1.4-.78,2.42-1.37,3.07-1.76a8.79,8.79,0,0,0,1.47-1.07,3.34,3.34,0,0,0,.79-1.07l-1-6.06,3.92-.81a48.35,48.35,0,0,1,.46,6,11.37,11.37,0,0,1-.4,3.31,6,6,0,0,1-1.68,2.59,18.62,18.62,0,0,1-4,2.83Zm16.4-7.92c.08,0,.14.11.19.33a3,3,0,0,1,.08.8v2.89a3.32,3.32,0,0,1-.09.82c-.06.21-.11.32-.18.32h-.4a7,7,0,0,1-2.79-.46,3.13,3.13,0,0,1-1.59-1.7,10.24,10.24,0,0,1-.57-3.61l-.15-8.83,3.92-.58-.1,8.68a1.67,1.67,0,0,0,.23,1,1.34,1.34,0,0,0,1,.3Zm5.27-5.85a8.85,8.85,0,0,1,2.26,2.95,8.32,8.32,0,0,1,.93,3.82,3.79,3.79,0,0,1-.82,2.62,4.51,4.51,0,0,1-2.47,1.28,22.36,22.36,0,0,1-4.41.34h-.77c-.06,0-.12-.11-.17-.32a3.32,3.32,0,0,1-.09-.82v-2.89a3.6,3.6,0,0,1,.07-.8c.05-.22.12-.33.19-.33a35.67,35.67,0,0,0,4.69-.21,4,4,0,0,0-.79-1.57,8.41,8.41,0,0,0-1.68-1.7,7.93,7.93,0,0,0-2.22-1.28l-.11-4c1.39-.7,3.78-1.77,7.19-3.21l.82-.36.4,4.28-2.43,1-1.49.61A3.69,3.69,0,0,1,306.5,129.93Zm24.58,1.23c0,.4,0,.69,0,.86.1,1.7.15,2.95.15,3.74a7.18,7.18,0,0,1-.4,2.6,3,3,0,0,1-1.32,1.59,6.83,6.83,0,0,1-2.37.8,23.09,23.09,0,0,1-3.78.25,21.17,21.17,0,0,1-4.19-.34,5.08,5.08,0,0,1-2.64-1.38,4.09,4.09,0,0,1-.95-2.92,10.82,10.82,0,0,1,.17-1.65l.44-3,3.13.65-.38,2.41a5,5,0,0,0-.1.65c0,.15.48.27,1.42.34s2,.12,3.1.12,1.93,0,2.56,0a13.14,13.14,0,0,0,1.76-.17l-.54-3.82Zm-8.18,11.77,2.75,2.3L323.36,148l-2.75-2.3Zm16.32-7.15c.08,0,.14.11.19.33a3,3,0,0,1,.08.8v2.89a3.32,3.32,0,0,1-.09.82c-.06.21-.11.32-.18.32h-.4a7,7,0,0,1-2.79-.46,3.13,3.13,0,0,1-1.59-1.7,10.24,10.24,0,0,1-.57-3.61l-.15-8.83,3.92-.58-.1,8.68a1.6,1.6,0,0,0,.23,1,1.34,1.34,0,0,0,1,.3Zm17.83,0c.08,0,.14.11.19.33a3.53,3.53,0,0,1,.08.8v2.89a2.88,2.88,0,0,1-.1.82c-.05.21-.11.32-.17.32h-.38a3.49,3.49,0,0,1-1.55-.34,1.67,1.67,0,0,1-.9-1.07,3.79,3.79,0,0,1-3.27,1.41,5.11,5.11,0,0,1-2-.34,2.25,2.25,0,0,1-1.16-1,2.1,2.1,0,0,1-1.19,1,5,5,0,0,1-1.78.3,4.24,4.24,0,0,1-1.66-.3,2.81,2.81,0,0,1-1.09-.86c-.47.77-1.43,1.16-2.88,1.16-.07,0-.13-.11-.18-.32a3.32,3.32,0,0,1-.09-.82v-2.89a3.6,3.6,0,0,1,.07-.8c.06-.22.12-.33.2-.33.47,0,.84,0,1.12,0a1.85,1.85,0,0,0,.71-.17l0-2.41,3.46,0,0,1.9a.9.9,0,0,0,.19.59.85.85,0,0,0,.56.15,3,3,0,0,0,.88-.11l0-3,3.42-.19.09,3.21a2.48,2.48,0,0,0,.85.11,3.7,3.7,0,0,0,1.05-.17l-.54-3.77,3.86-.7.39,4a.8.8,0,0,0,.15.46.56.56,0,0,0,.38.17,6.65,6.65,0,0,0,.92,0Zm9-4.66a20.72,20.72,0,0,0,2.31.8,9.16,9.16,0,0,0,2.29.27l-1.09,5a2.8,2.8,0,0,0-.93.27c-.31.16-.74.4-1.28.75l-.64.4c-.3.19-.6.36-.89.52a14,14,0,0,1-3.45,1.41,18.7,18.7,0,0,1-4.05.36H357c-.06,0-.12-.11-.17-.32a3.32,3.32,0,0,1-.09-.82v-2.89a3.6,3.6,0,0,1,.07-.8c0-.22.12-.33.19-.33h1.32a31.83,31.83,0,0,0,4.8-.32q1.2-.17,2.37-.42l-.11,0c-.5-.13-1-.3-1.59-.5a5.22,5.22,0,0,0-1.78-.5.8.8,0,0,0-.57.21,1.57,1.57,0,0,0-.4.73l-3-.71a6.94,6.94,0,0,1,1.29-3.13A3,3,0,0,1,361.9,130a5.38,5.38,0,0,1,1.68.25,20.81,20.81,0,0,1,2.07.73A3.06,3.06,0,0,0,366.09,131.12Zm19.4,4.66c.08,0,.14.11.19.33a3.53,3.53,0,0,1,.08.8v2.89a3.28,3.28,0,0,1-.1.82c-.05.21-.11.32-.17.32h-.14a6.57,6.57,0,0,1-2-.23,2.39,2.39,0,0,1-1.17-.72,3.5,3.5,0,0,1-.63-1.36,1,1,0,0,1-.73.65,13,13,0,0,1-2.56.19,2.47,2.47,0,0,1-1.87-.74,2.83,2.83,0,0,1-.71-2,14.23,14.23,0,0,1,.19-2.83,3.3,3.3,0,0,1,1-1.59,20.76,20.76,0,0,1,2.9-2.1l-.15-1.42,3.55-1.09.71,6.71a6.79,6.79,0,0,0,.15.94.63.63,0,0,0,.31.35,2.47,2.47,0,0,0,.73.07Zm-6.5-.5a5.57,5.57,0,0,0,.82,0,5,5,0,0,0,1.09-.09l-.23-1.49a5.94,5.94,0,0,0-1.55.7,1.79,1.79,0,0,0-.57.75A2,2,0,0,0,379,135.28Zm12.87-4.14c.19,2.46.29,4.28.29,5.48a5,5,0,0,1-.31,1.78,3.19,3.19,0,0,1-1.13,1.47c-.91.72-2.65,1.07-5.21,1.07-.07,0-.13-.11-.18-.32a3.32,3.32,0,0,1-.09-.82v-2.89a3.6,3.6,0,0,1,.07-.8c.05-.22.12-.33.2-.33.81,0,1.44,0,1.89,0a5.92,5.92,0,0,0,1.11-.17l-.5-3.73Zm-4.93,11.91,2.75,2.29-2.29,2.75-2.76-2.29Zm17-14.15a14,14,0,0,1,3.29,3.86,8.69,8.69,0,0,1,1.18,4.36,3.79,3.79,0,0,1-1.05,2.85,4,4,0,0,1-1.91,1.05,10.25,10.25,0,0,1-2.79.34,5.23,5.23,0,0,1-3.19-.86,3.41,3.41,0,0,1-1.17-2.92q0-.77.15-2.22l3.16,0v.38a1.12,1.12,0,0,0,0,.4c0,.07.12.11.26.12l.85,0c.34,0,1,0,1.89-.08a6.07,6.07,0,0,0-1-1.49,23.85,23.85,0,0,0-2.31-2.35Zm10.77,2.79a3.77,3.77,0,0,1,2,.59,4.22,4.22,0,0,1,1.6,2,8.88,8.88,0,0,1,.65,3.69,11.9,11.9,0,0,1-.46,3.38,8.1,8.1,0,0,1-1.93,3.24,13.49,13.49,0,0,1-4.38,3l-2.6-3.88a28,28,0,0,0,3.39-1.53,19.64,19.64,0,0,0,2.44-1.47,5.13,5.13,0,0,1-1.41.17,6.78,6.78,0,0,1-1.2-.1,4.13,4.13,0,0,1-1-.27,1,1,0,0,1-.44-.34,6.72,6.72,0,0,1-.53-.94,9.08,9.08,0,0,1-.39-.89,1.59,1.59,0,0,1-.07-.6,8.08,8.08,0,0,1,1.3-4.45A3.57,3.57,0,0,1,414.67,131.69Zm-1.07,5.2c.38,0,.75,0,1.11,0s.58,0,.91,0a1.89,1.89,0,0,0-.28-1.13.85.85,0,0,0-.73-.4.82.82,0,0,0-.69.4A2.2,2.2,0,0,0,413.6,136.89Zm5.14,6.79a33,33,0,0,0,3.06-2.26,5,5,0,0,0,1.28-1.62l-1-6.06,3.89-.81a48.35,48.35,0,0,1,.46,6,13.42,13.42,0,0,1-.34,3.31,6.71,6.71,0,0,1-1.43,2.59,16,16,0,0,1-3.29,2.82Zm14.19-12a3.74,3.74,0,0,1,2,.59,4.23,4.23,0,0,1,1.61,2,8.88,8.88,0,0,1,.65,3.69,11.9,11.9,0,0,1-.46,3.38,8.22,8.22,0,0,1-1.93,3.24,13.49,13.49,0,0,1-4.38,3l-2.6-3.88a28.76,28.76,0,0,0,3.39-1.53,19.64,19.64,0,0,0,2.44-1.47,5.13,5.13,0,0,1-1.41.17,7,7,0,0,1-1.21-.1,4.17,4.17,0,0,1-1-.27.94.94,0,0,1-.44-.34,6.5,6.5,0,0,1-.54-.94,8.48,8.48,0,0,1-.38-.89,1.59,1.59,0,0,1-.07-.6,8.08,8.08,0,0,1,1.3-4.45A3.56,3.56,0,0,1,432.93,131.69Zm-1.08,5.2c.39,0,.76,0,1.11,0s.59,0,.92,0a1.81,1.81,0,0,0-.29-1.13.83.83,0,0,0-.72-.4.82.82,0,0,0-.69.4A2.3,2.3,0,0,0,431.85,136.89Z"/><path d="M333.56,102.63a8.85,8.85,0,0,1,2.77.62,3.7,3.7,0,0,1,1.86,1.65,6.1,6.1,0,0,1,.74,3.29,5.9,5.9,0,0,1-1.32,3.62,8.75,8.75,0,0,1-3.6,2.68,12.84,12.84,0,0,1-5.14,1q-4.11,0-6.07-1.48a4.73,4.73,0,0,1-2-4,52.17,52.17,0,0,1,1.37-10.34l4.16.81a64.07,64.07,0,0,0-1,7,1.08,1.08,0,0,0,.28.84,1.52,1.52,0,0,0,.87.31c.4,0,1.1,0,2.09,0a28.94,28.94,0,0,0,3.46-.23,10.72,10.72,0,0,0,2.73-.59l-1.17-.15a22.57,22.57,0,0,1-2.7-.43,2.85,2.85,0,0,1-1.43-.82,2.52,2.52,0,0,1-.54-1.76,12.18,12.18,0,0,1,1-4.76,12.68,12.68,0,0,1,2.47-4,4.11,4.11,0,0,1,2.83-1.58,4.38,4.38,0,0,1,1.53.26,4.45,4.45,0,0,1,1.58,1.17,15.07,15.07,0,0,1,1.94,2.81l-2.91,3.13c-.9-1-1.64-1.43-2.22-1.43Q334,100.26,333.56,102.63Zm18.74-.43c.1,0,.18.14.25.43a4.69,4.69,0,0,1,.1,1.07v3.85a4.4,4.4,0,0,1-.12,1.1c-.07.29-.15.43-.23.43h-.64a2.32,2.32,0,0,1-1.86-.92,11.61,11.61,0,0,1-.71,3.5,9.32,9.32,0,0,1-2,3,23,23,0,0,1-4,3.29l-3.55-5.25a41.77,41.77,0,0,0,4.08-3,6.65,6.65,0,0,0,1.71-2.17L344,99.47l5.2-1.07.15,1.3.13,1a4.19,4.19,0,0,0,.23,1,.85.85,0,0,0,.61.35,12.18,12.18,0,0,0,1.68.08ZM364.36,96c.25,3.28.38,5.71.38,7.31a7,7,0,0,1-.41,2.37,4.19,4.19,0,0,1-1.5,2,5.39,5.39,0,0,1-1.84.92,15.16,15.16,0,0,1-3,.41c-1.29.07-3.19.1-5.71.1-.08,0-.16-.14-.23-.43a4.4,4.4,0,0,1-.12-1.1V103.7a4.69,4.69,0,0,1,.1-1.07c.06-.29.15-.43.25-.43,2.43,0,4.17,0,5.23,0a12.21,12.21,0,0,0,2.34-.23l-.66-5Zm-6.88,15.88,3.67,3-3.06,3.68-3.65-3.06Zm5.24.86c1.87-1,3.24-1.82,4.1-2.34a11.36,11.36,0,0,0,2-1.43,4.34,4.34,0,0,0,1-1.43l-1.32-8.08,5.22-1.07a64.88,64.88,0,0,1,.61,7.95,15.09,15.09,0,0,1-.53,4.41,8.19,8.19,0,0,1-2.24,3.47,24.84,24.84,0,0,1-5.28,3.77ZM384.6,102.2c.1,0,.18.14.25.43a4.63,4.63,0,0,1,.11,1.07v3.85a4.37,4.37,0,0,1-.13,1.1c-.07.29-.15.43-.23.43h-.54a9.43,9.43,0,0,1-3.72-.61,4.18,4.18,0,0,1-2.11-2.27,13.16,13.16,0,0,1-.77-4.82l-.2-11.77,5.22-.77-.12,11.58a2.1,2.1,0,0,0,.3,1.37,1.77,1.77,0,0,0,1.35.41Zm7-7.8a11.66,11.66,0,0,1,3,3.93,11.1,11.1,0,0,1,1.25,5.09,5.08,5.08,0,0,1-1.1,3.5,6,6,0,0,1-3.29,1.7,29.57,29.57,0,0,1-5.88.46h-1c-.09,0-.17-.14-.23-.43a4,4,0,0,1-.13-1.1V103.7a4.69,4.69,0,0,1,.1-1.07c.07-.29.15-.43.26-.43a46.73,46.73,0,0,0,6.24-.28,5.54,5.54,0,0,0-1-2.09,11.21,11.21,0,0,0-2.25-2.27,10.77,10.77,0,0,0-3-1.71l-.16-5.27q2.79-1.41,9.59-4.28l1.09-.49.54,5.71c-.63.24-1.71.66-3.24,1.27l-2,.82A4.9,4.9,0,0,1,391.62,94.4Zm13.05,23a90.63,90.63,0,0,1-.89-10.22,10.51,10.51,0,0,1,.61-4.1,24,24,0,0,1,2.42-4.44,6.82,6.82,0,0,1,2.32-2.11A5.89,5.89,0,0,1,411.8,96a4.1,4.1,0,0,1,2.55,1,7.14,7.14,0,0,1,2.09,2.68,8.69,8.69,0,0,1,.82,3.84,11.16,11.16,0,0,1-.61,3.6,1.69,1.69,0,0,1-.46.66,11.94,11.94,0,0,1-1.28,1,3.65,3.65,0,0,1-1.83.87,1.61,1.61,0,0,1-.54-.13l-4.05-1.86,1.89,8Zm8-13.38a3,3,0,0,0,.1-.81,2.49,2.49,0,0,0-.38-1.41,1.29,1.29,0,0,0-1.13-.56,1.53,1.53,0,0,0-.91.38,2.65,2.65,0,0,0-.74,1Zm15.11-1.86c.1,0,.19.14.25.43a4.63,4.63,0,0,1,.11,1.07v3.85a4.37,4.37,0,0,1-.13,1.1c-.07.29-.15.43-.23.43h-.54a9.43,9.43,0,0,1-3.72-.61,4.22,4.22,0,0,1-2.11-2.27,13.38,13.38,0,0,1-.77-4.82l-.2-11.77,5.22-.77-.12,11.58a2.1,2.1,0,0,0,.3,1.37,1.77,1.77,0,0,0,1.35.41Zm5.06-8.49-3.67-3.06L432.26,87,435.9,90Zm3.41,2.3c.26,3.28.39,5.71.39,7.31a7,7,0,0,1-.41,2.37,4.32,4.32,0,0,1-1.5,2c-1.23,1-3.55,1.43-7,1.43-.09,0-.16-.14-.23-.43a4,4,0,0,1-.13-1.1V103.7a5.33,5.33,0,0,1,.1-1.07c.07-.29.16-.43.26-.43,1.09,0,1.93,0,2.52,0a9.08,9.08,0,0,0,1.48-.23l-.66-5Z"/><path d="M370.24,382.58c.1,0,.18.14.25.43a4.69,4.69,0,0,1,.1,1.07v3.85a4,4,0,0,1-.13,1.1c-.06.28-.14.43-.22.43h-.54a9.37,9.37,0,0,1-3.72-.61,4.27,4.27,0,0,1-2.12-2.27,13.41,13.41,0,0,1-.76-4.82L362.89,370l5.23-.77L368,380.79a2.1,2.1,0,0,0,.31,1.38,1.77,1.77,0,0,0,1.35.41Zm13.24-6.25a7.1,7.1,0,0,1,3.06,2.55,6.92,6.92,0,0,1,1.12,3.93,13.13,13.13,0,0,1-1.05,4.46,2,2,0,0,1-.51.76,11.45,11.45,0,0,1-1.19,1,3.06,3.06,0,0,1-1.56.71,1.51,1.51,0,0,1-.48-.07l-4-1.45a14.51,14.51,0,0,1-3.26.94,33.54,33.54,0,0,1-5.41.33c-.08,0-.16-.15-.23-.43a4.4,4.4,0,0,1-.12-1.1v-3.85A4.69,4.69,0,0,1,370,383c.07-.29.15-.43.25-.43h.56c1.06,0,1.75,0,2.07.05a2.47,2.47,0,0,1-.56-1.56,5.52,5.52,0,0,1,1.12-3l-.82-.36,2.43-5.12ZM379,380l-1.74-.84c-.32.44-.56.79-.71,1a1.37,1.37,0,0,0-.2.66,1,1,0,0,0,.48.84,3.17,3.17,0,0,0,1.45.36Zm4.36,4a2.42,2.42,0,0,0,.3-.95,1.55,1.55,0,0,0-.51-1.17,4.43,4.43,0,0,0-1.48-.89l-.74,2.09Zm16.51-6.48-3.29-2.78,2.78-3.31,3,2.5,2.35-2.78,3.28,2.8-2.77,3.29-3-2.5Zm13.74,5.05c.1,0,.18.14.25.43a4.69,4.69,0,0,1,.1,1.07v3.85a4.4,4.4,0,0,1-.12,1.1c-.07.28-.15.43-.23.43a6.38,6.38,0,0,1-2.53-.48,3.78,3.78,0,0,1-1.75-1.56,2.83,2.83,0,0,1-1.74,1.4,18.76,18.76,0,0,1-2.47.51,23.11,23.11,0,0,1-3.24.21,28.7,28.7,0,0,1-5.58-.46,6.81,6.81,0,0,1-3.52-1.84,5.47,5.47,0,0,1-1.27-3.9,15.88,15.88,0,0,1,.23-2.19l.58-4,4.18.86-.51,3.22a5.66,5.66,0,0,0-.12.86c0,.21.63.36,1.88.46s2.65.15,4.13.15a41.74,41.74,0,0,0,5.76-.3l-.56-3.62,5.07-.54.16,4.36Zm23.79,0c.1,0,.18.14.25.43a4.69,4.69,0,0,1,.1,1.07v3.85a4,4,0,0,1-.13,1.1c-.06.28-.14.43-.22.43h-.51a4.62,4.62,0,0,1-2.07-.46,2.21,2.21,0,0,1-1.2-1.43,5,5,0,0,1-4.36,1.89,6.67,6.67,0,0,1-2.62-.46,3,3,0,0,1-1.56-1.32,2.76,2.76,0,0,1-1.58,1.37,6.62,6.62,0,0,1-2.37.41,5.52,5.52,0,0,1-2.21-.41,3.62,3.62,0,0,1-1.46-1.14c-.62,1-1.91,1.55-3.85,1.55-.08,0-.16-.15-.23-.43a4.4,4.4,0,0,1-.12-1.1v-3.85a4.69,4.69,0,0,1,.1-1.07c.07-.29.15-.43.25-.43.63,0,1.13,0,1.51,0a2.54,2.54,0,0,0,.94-.23l0-3.21,4.61-.05.05,2.52a1.19,1.19,0,0,0,.26.79,1.07,1.07,0,0,0,.74.21,3.69,3.69,0,0,0,1.17-.15l-.05-4,4.56-.26.13,4.29a3.09,3.09,0,0,0,1.12.15,4.81,4.81,0,0,0,1.4-.23l-.71-5,5.15-.95.51,5.31a1.18,1.18,0,0,0,.2.61.81.81,0,0,0,.51.23,11.05,11.05,0,0,0,1.23.05Zm10.41,0c.1,0,.19.14.26.43a5.33,5.33,0,0,1,.1,1.07v3.85A4,4,0,0,1,448,389c-.07.28-.14.43-.23.43a11.36,11.36,0,0,1-3.34-.38,2.69,2.69,0,0,1-1.63-1.38,2.52,2.52,0,0,1-.94,1.15,4.25,4.25,0,0,1-1.66.48,23.25,23.25,0,0,1-2.85.13c-.09,0-.17-.15-.23-.43a4,4,0,0,1-.13-1.1v-3.85a4.69,4.69,0,0,1,.1-1.07c.07-.29.15-.43.26-.43a30.35,30.35,0,0,0,3.59-.15l-.61-4.21,5.07-.59,0,4.82A18.35,18.35,0,0,0,447.78,382.58Zm-3.87,9.68,3.31,2.78-2.78,3.32-3-2.48-2.32,2.78-3.31-2.75,2.77-3.37,3,2.48Zm12-8.56a5.87,5.87,0,0,1-.39,2.32,4.42,4.42,0,0,1-1.53,2q-1.9,1.43-6.21,1.43c-.09,0-.17-.15-.23-.43a4,4,0,0,1-.13-1.1v-3.85a4.69,4.69,0,0,1,.1-1.07c.07-.29.15-.43.26-.43.83,0,1.5,0,2-.05a8.14,8.14,0,0,0,1.32-.23l-1-12.31,5.17-.77c.07,1.56.13,2.74.18,3.52C455.67,377.68,455.83,381.34,455.92,383.7Z"/><path d="M245.05,443.83l-3.67-3.06,3.06-3.67,3.67,3.06Zm10.4,2.47c.1,0,.19.15.25.43a4.63,4.63,0,0,1,.11,1.07v3.85a4.37,4.37,0,0,1-.13,1.1c-.07.29-.14.43-.23.43h-.26a2.35,2.35,0,0,1-1.47-.51c0,.33,0,.78,0,1.35a4.23,4.23,0,0,1-2.6,4.18,13.64,13.64,0,0,1-5.84,1.2c-2.71,0-4.74-.49-6.06-1.48a4.72,4.72,0,0,1-2-4,52.41,52.41,0,0,1,1.37-10.38l4.16.84c-.24,1.4-.46,2.8-.67,4.21a24.88,24.88,0,0,0-.3,2.73,1.08,1.08,0,0,0,.28.84,1.6,1.6,0,0,0,.89.33c.41,0,1.09,0,2,0s1.62,0,2.14,0,1.11-.13,1.76-.23l-1.3-9.07,5-1.15c.1.92.17,1.56.2,1.94s.15,1.28.26,2.26a15.67,15.67,0,0,0,2,.08Zm7.8-5.53a4.48,4.48,0,0,1,2.78,1,6.4,6.4,0,0,1,2,2.7,9.65,9.65,0,0,1,.74,3.85,13.39,13.39,0,0,1-.48,3.49,1.71,1.71,0,0,1-.41.71,11.91,11.91,0,0,1-1.3,1.1,5.27,5.27,0,0,1-1,.66,1.55,1.55,0,0,1-.74.21,2.41,2.41,0,0,1-.77-.18l-4.79-1.91a3.09,3.09,0,0,1-1.35.68,9.3,9.3,0,0,1-1.71.13h-.76c-.09,0-.16-.14-.23-.43a4,4,0,0,1-.13-1.1V447.8a5.33,5.33,0,0,1,.1-1.07c.07-.28.16-.43.26-.43h.81a2.63,2.63,0,0,0,.92-.1.94.94,0,0,0,.44-.56,11.72,11.72,0,0,1,1.75-3.14,4.74,4.74,0,0,1,1.81-1.4A6.12,6.12,0,0,1,263.25,440.77Zm1.07,8.16a5,5,0,0,0,.1-.82,2.61,2.61,0,0,0-.38-1.43,1.24,1.24,0,0,0-1.1-.58,1.17,1.17,0,0,0-.81.38,3,3,0,0,0-.67,1.17Zm26.43-2.63c.1,0,.19.15.25.43a4.69,4.69,0,0,1,.1,1.07v3.85a4.4,4.4,0,0,1-.12,1.1c-.07.29-.15.43-.23.43h-.56c-1.65,0-2.73-.54-3.24-1.63l-.15.46a1.23,1.23,0,0,1-.74.92,14.08,14.08,0,0,1-1.84.38,11.41,11.41,0,0,1-2,.18c-3.85,0-5.78-1.68-5.78-5,0-.41.05-1.19.15-2.35l0-.61h4.21v.84a.39.39,0,0,0,.07.28.81.81,0,0,0,.44.1h1a15.33,15.33,0,0,0,1.93-.1l-2-6.83,4.95-2.62,1.7,8.3a.93.93,0,0,0,.31.59,1,1,0,0,0,.51.2C290,446.29,290.29,446.3,290.75,446.3Zm12.05-6.19c.26,3.28.38,5.71.38,7.31a6.94,6.94,0,0,1-.4,2.37,4.28,4.28,0,0,1-1.51,2,5.44,5.44,0,0,1-1.83.92,15.28,15.28,0,0,1-3,.41c-1.29.07-3.19.1-5.71.1-.08,0-.16-.14-.22-.43a4,4,0,0,1-.13-1.1V447.8a4.69,4.69,0,0,1,.1-1.07c.07-.28.15-.43.25-.43,2.43,0,4.18,0,5.23-.05a12.43,12.43,0,0,0,2.35-.23l-.67-5Zm-5.3,15.67,3.31,2.78L298,461.87l-3-2.47-2.32,2.78-3.31-2.75,2.78-3.37,2.95,2.47ZM315,446.3c.11,0,.19.15.26.43a4.69,4.69,0,0,1,.1,1.07v3.85a4,4,0,0,1-.13,1.1c-.06.29-.14.43-.23.43h-.38a2.29,2.29,0,0,1-1.83-.89,9.89,9.89,0,0,1-.82,3.49,9.42,9.42,0,0,1-2.39,3,28.09,28.09,0,0,1-4.8,3.31l-3.56-5.25c1.86-1,3.23-1.82,4.1-2.34a11.22,11.22,0,0,0,2-1.43,4.48,4.48,0,0,0,1-1.43L307,443.57l5.23-1.07.15,1.3.13,1a3.43,3.43,0,0,0,.23,1.05.69.69,0,0,0,.51.35,9.6,9.6,0,0,0,1.5.08Zm9.5-8.56-3.65-3,3-3.67,3.67,3.06Zm2.57,2.34a26,26,0,0,0,3.08,1.07,12.35,12.35,0,0,0,3.06.36l-1.45,6.73a3.57,3.57,0,0,0-1.25.35c-.41.21-1,.54-1.71,1l-.84.53q-.62.39-1.2.69a18.25,18.25,0,0,1-4.58,1.89,25.17,25.17,0,0,1-5.41.48H315c-.08,0-.16-.14-.23-.43a4.4,4.4,0,0,1-.12-1.1V447.8a4.69,4.69,0,0,1,.1-1.07c.07-.28.15-.43.25-.43h1.76a41.22,41.22,0,0,0,6.4-.43c1.07-.14,2.12-.33,3.16-.56l-.15,0c-.66-.17-1.37-.39-2.12-.66a6.9,6.9,0,0,0-2.37-.66,1.07,1.07,0,0,0-.76.28,2.1,2.1,0,0,0-.54,1l-4-.94a9.29,9.29,0,0,1,1.7-4.18,4,4,0,0,1,3.37-1.55,7.35,7.35,0,0,1,2.24.33,27.23,27.23,0,0,1,2.75,1A6.11,6.11,0,0,0,327,440.08Zm26.05,6.65a8.91,8.91,0,0,1,2.78.62,3.78,3.78,0,0,1,1.86,1.65,6.19,6.19,0,0,1,.74,3.29,5.85,5.85,0,0,1-1.33,3.62,8.71,8.71,0,0,1-3.59,2.68,12.89,12.89,0,0,1-5.15,1q-4.11,0-6.07-1.48a4.75,4.75,0,0,1-2-4,52.31,52.31,0,0,1,1.38-10.34l4.15.81a67,67,0,0,0-1,7,1.12,1.12,0,0,0,.28.84,1.52,1.52,0,0,0,.87.31c.41,0,1.11.05,2.09.05a29.1,29.1,0,0,0,3.47-.23,10.62,10.62,0,0,0,2.72-.59l-1.17-.15a23.29,23.29,0,0,1-2.7-.43,2.94,2.94,0,0,1-1.43-.82,2.57,2.57,0,0,1-.53-1.76,12.35,12.35,0,0,1,1-4.76,12.86,12.86,0,0,1,2.47-4,4.11,4.11,0,0,1,2.83-1.58,4.38,4.38,0,0,1,1.53.26,4.28,4.28,0,0,1,1.58,1.17,14.6,14.6,0,0,1,1.94,2.81l-2.91,3.13c-.9-1-1.63-1.43-2.21-1.43C353.93,444.36,353.38,445.15,353.07,446.73Zm16.49-.43c.1,0,.19.15.26.43a4.69,4.69,0,0,1,.1,1.07v3.85a4,4,0,0,1-.13,1.1c-.07.29-.14.43-.23.43H369a9.37,9.37,0,0,1-3.72-.61,4.2,4.2,0,0,1-2.12-2.27,13.19,13.19,0,0,1-.76-4.82l-.21-11.77,5.23-.77-.13,11.58a2,2,0,0,0,.31,1.37,1.74,1.74,0,0,0,1.35.41Zm13.25-6.24a6.92,6.92,0,0,1,3.05,2.54,6.85,6.85,0,0,1,1.13,3.93,13.13,13.13,0,0,1-1.05,4.46,2,2,0,0,1-.51.76,9.74,9.74,0,0,1-1.2,1,3,3,0,0,1-1.55.72,1.62,1.62,0,0,1-.49-.08l-4-1.45a14,14,0,0,1-3.26.94,33.54,33.54,0,0,1-5.41.33c-.08,0-.16-.14-.23-.43a4.37,4.37,0,0,1-.13-1.1V447.8a4.63,4.63,0,0,1,.11-1.07c.06-.28.15-.43.25-.43h.56c1.06,0,1.74,0,2.07.05a2.47,2.47,0,0,1-.56-1.55,5.55,5.55,0,0,1,1.12-3l-.82-.35,2.42-5.13Zm-4.52,3.67-1.73-.85c-.32.45-.56.79-.71,1.05a1.43,1.43,0,0,0-.21.66,1,1,0,0,0,.49.84,3,3,0,0,0,1.45.36Zm4.36,4a2.27,2.27,0,0,0,.31-1,1.58,1.58,0,0,0-.51-1.17,4.54,4.54,0,0,0-1.48-.89l-.74,2.09Zm20.7-1.43c.1,0,.18.15.25.43a4.69,4.69,0,0,1,.1,1.07v3.85a4.4,4.4,0,0,1-.12,1.1c-.07.29-.15.43-.23.43h-.18a9.41,9.41,0,0,1-2.63-.3,3.25,3.25,0,0,1-1.55-1,4.68,4.68,0,0,1-.84-1.81,1.3,1.3,0,0,1-1,.86,16.86,16.86,0,0,1-3.42.26,3.27,3.27,0,0,1-2.49-1,3.77,3.77,0,0,1-.95-2.66,19.18,19.18,0,0,1,.26-3.77,4.42,4.42,0,0,1,1.32-2.11,28.22,28.22,0,0,1,3.88-2.81l-.21-1.88,4.74-1.46.95,8.95a9.27,9.27,0,0,0,.2,1.25.81.81,0,0,0,.41.46,3.15,3.15,0,0,0,1,.1Zm-8.67-.66a9.38,9.38,0,0,0,1.1.05,6,6,0,0,0,1.45-.13l-.31-2a7.6,7.6,0,0,0-2.06.95,2.31,2.31,0,0,0-.77,1A4.47,4.47,0,0,0,394.68,445.64Zm20.73-5.53c.26,3.28.38,5.71.38,7.31a6.94,6.94,0,0,1-.4,2.37,4.28,4.28,0,0,1-1.51,2,5.44,5.44,0,0,1-1.83.92,15.28,15.28,0,0,1-3,.41c-1.29.07-3.19.1-5.71.1-.08,0-.16-.14-.23-.43a4.4,4.4,0,0,1-.12-1.1V447.8a4.69,4.69,0,0,1,.1-1.07c.07-.28.15-.43.25-.43,2.43,0,4.18,0,5.23-.05a12.43,12.43,0,0,0,2.35-.23l-.67-5ZM408.53,456,412.2,459l-3.06,3.68-3.64-3.06Zm19-9.69c.1,0,.19.15.26.43a4.69,4.69,0,0,1,.1,1.07v3.85a4,4,0,0,1-.13,1.1c-.07.29-.14.43-.23.43h-.38a2.29,2.29,0,0,1-1.83-.89,9.89,9.89,0,0,1-.82,3.49,9.33,9.33,0,0,1-2.4,3,28,28,0,0,1-4.79,3.31l-3.57-5.25c1.87-1,3.24-1.82,4.11-2.34a11.62,11.62,0,0,0,2-1.43,4.3,4.3,0,0,0,1-1.43l-1.32-8.08,5.22-1.07.16,1.3.13,1a3.88,3.88,0,0,0,.22,1.05.73.73,0,0,0,.51.35,9.84,9.84,0,0,0,1.51.08Zm19.36,0c.08,0,.16.15.23.43a4.69,4.69,0,0,1,.1,1.07v3.85a4.81,4.81,0,0,1-.1,1.07c-.07.31-.15.46-.23.46h-2.85a10.47,10.47,0,0,1-3.19-.51,4.26,4.26,0,0,1-2.35-1.71,14.16,14.16,0,0,1-4.12,1.79,24.26,24.26,0,0,1-5.08.43h-1.76c-.08,0-.16-.14-.23-.43a4.4,4.4,0,0,1-.12-1.1V447.8a4.69,4.69,0,0,1,.1-1.07c.07-.28.15-.43.25-.43h1.76a44.43,44.43,0,0,0,6.4-.43c.82-.11,1.87-.3,3.16-.59l-.15,0a18.15,18.15,0,0,1-2.12-.67,7.66,7.66,0,0,0-2.37-.63,1.07,1.07,0,0,0-.76.28,2.1,2.1,0,0,0-.54,1l-4-.94a9.29,9.29,0,0,1,1.7-4.18,4,4,0,0,1,3.37-1.55,8,8,0,0,1,2.32.33q1.1.33,2.7,1l.53.23a32.41,32.41,0,0,0,3.09,1.05,13.08,13.08,0,0,0,3.08.35l-1.09,4.9a6.49,6.49,0,0,1,1.09-.08Zm-11.42,9.07,3.67,3.06-3.06,3.67L432.44,459Zm14-16.82-3.26-2.78,2.75-3.28,3,2.49,2.34-2.78,3.29,2.81-2.78,3.26-3-2.5Zm5.94,1.56c.26,3.28.38,5.71.38,7.31a6.94,6.94,0,0,1-.4,2.37,4.28,4.28,0,0,1-1.51,2c-1.22,1-3.54,1.43-7,1.43-.08,0-.16-.14-.23-.43a4.4,4.4,0,0,1-.12-1.1V447.8a4.69,4.69,0,0,1,.1-1.07c.07-.28.15-.43.25-.43,1.09,0,1.93,0,2.53-.05a9.26,9.26,0,0,0,1.48-.23l-.67-5Z"/><path d="M241,510c.1,0,.19.15.26.44a5.19,5.19,0,0,1,.1,1.07v3.85a4.28,4.28,0,0,1-.13,1.09c-.07.29-.15.43-.23.43h-.18a9.29,9.29,0,0,1-2.62-.3,3.24,3.24,0,0,1-1.56-1,4.68,4.68,0,0,1-.84-1.81,1.32,1.32,0,0,1-1,.87,17.65,17.65,0,0,1-3.41.25,3.29,3.29,0,0,1-2.5-1,3.75,3.75,0,0,1-.94-2.65,19.44,19.44,0,0,1,.25-3.78,4.45,4.45,0,0,1,1.33-2.11,27.48,27.48,0,0,1,3.87-2.8l-.2-1.89,4.74-1.45.94,8.94a10.87,10.87,0,0,0,.2,1.25.78.78,0,0,0,.41.46,3.15,3.15,0,0,0,1,.1Zm-8.67-.66a9.51,9.51,0,0,0,1.1.05,6,6,0,0,0,1.45-.13l-.3-2a7.44,7.44,0,0,0-2.07.94,2.28,2.28,0,0,0-.76,1A3.16,3.16,0,0,0,232.36,509.36ZM241,516.9c-.09,0-.16-.14-.23-.43a3.88,3.88,0,0,1-.13-1.09v-3.85a4.57,4.57,0,0,1,.1-1.07c.07-.29.15-.44.26-.44,1.08,0,1.93,0,2.52,0a9.26,9.26,0,0,0,1.48-.23l-.66-5,5.14-.94q.39,4.92.39,7.31a6.86,6.86,0,0,1-.41,2.37,4.35,4.35,0,0,1-1.5,2Q246.16,516.91,241,516.9Zm6.32,8.9-3-2.47-2.32,2.78-3.32-2.76,2.78-3.36,3,2.47,2.34-2.75,3.32,2.78ZM266.75,510c.11,0,.19.15.26.44a4.57,4.57,0,0,1,.1,1.07v3.85a3.88,3.88,0,0,1-.13,1.09c-.07.29-.14.43-.23.43h-.56c-1.65,0-2.72-.54-3.23-1.63l-.16.46a1.21,1.21,0,0,1-.74.92,13.9,13.9,0,0,1-1.83.38,11.41,11.41,0,0,1-2,.18q-5.79,0-5.79-5c0-.41.06-1.19.16-2.35l0-.61h4.2v.84a.39.39,0,0,0,.08.28.8.8,0,0,0,.43.11h1a15.31,15.31,0,0,0,1.94-.11l-2-6.83,4.94-2.62,1.71,8.31a.88.88,0,0,0,.31.58,1,1,0,0,0,.5.21ZM280,503.78a7,7,0,0,1,3.06,2.55,6.79,6.79,0,0,1,1.12,3.92,13,13,0,0,1-1,4.46,2.15,2.15,0,0,1-.51.77,12.11,12.11,0,0,1-1.2,1,3.09,3.09,0,0,1-1.55.71,1.62,1.62,0,0,1-.49-.08l-4-1.45a14,14,0,0,1-3.27.94,33.32,33.32,0,0,1-5.4.33c-.09,0-.16-.14-.23-.43a3.88,3.88,0,0,1-.13-1.09v-3.85a5.19,5.19,0,0,1,.1-1.07c.07-.29.16-.44.26-.44h.56c1.05,0,1.74,0,2.07.05a2.47,2.47,0,0,1-.57-1.55,5.57,5.57,0,0,1,1.12-3l-.81-.36,2.42-5.12Zm-4.51,3.67-1.73-.84c-.32.44-.56.79-.71,1a1.46,1.46,0,0,0-.21.66,1,1,0,0,0,.49.85,3.18,3.18,0,0,0,1.45.35Zm4.36,4a2.28,2.28,0,0,0,.31-.94,1.58,1.58,0,0,0-.51-1.18,4.65,4.65,0,0,0-1.48-.89l-.74,2.09Zm23.07-7.57-3.06,3.67-3.67-3.06,3.06-3.67Zm-10.83,13.74a53.17,53.17,0,0,1,1.37-10.38l4.16.85q-.36,2.09-.66,4.2a23.31,23.31,0,0,0-.31,2.73,1.08,1.08,0,0,0,.28.84,1.63,1.63,0,0,0,.89.33c.41,0,1.09,0,2,0s1.62,0,2.14,0,1.12-.13,1.76-.23l-1.3-9.07,5.05-1.15.23,2.12c.29,2.72.49,4.76.61,6.14a36.65,36.65,0,0,1,.2,3.75,4.24,4.24,0,0,1-2.6,4.18,13.77,13.77,0,0,1-5.83,1.19q-4.08,0-6.07-1.47A4.74,4.74,0,0,1,292.09,517.62Zm26.72-7.6c.1,0,.19.15.25.44a4.51,4.51,0,0,1,.11,1.07v3.85a4.28,4.28,0,0,1-.13,1.09c-.07.29-.15.43-.23.43h-.54a9.43,9.43,0,0,1-3.72-.61,4.22,4.22,0,0,1-2.11-2.27,13.32,13.32,0,0,1-.77-4.81l-.2-11.78,5.22-.76-.12,11.57a2.1,2.1,0,0,0,.3,1.37,1.73,1.73,0,0,0,1.35.41Zm7.79-5.53a4.43,4.43,0,0,1,2.77,1,6.46,6.46,0,0,1,2,2.7,9.65,9.65,0,0,1,.74,3.85,13,13,0,0,1-.49,3.49,1.67,1.67,0,0,1-.4.72,13.56,13.56,0,0,1-1.3,1.09,4.45,4.45,0,0,1-1,.66,1.55,1.55,0,0,1-.74.21,2.41,2.41,0,0,1-.77-.18l-4.79-1.91a3.11,3.11,0,0,1-1.35.69,10.56,10.56,0,0,1-1.71.12h-.76c-.09,0-.16-.14-.23-.43a3.88,3.88,0,0,1-.13-1.09v-3.85a5.19,5.19,0,0,1,.1-1.07c.07-.29.16-.44.26-.44h.81a2.63,2.63,0,0,0,.92-.1.87.87,0,0,0,.43-.56,11.71,11.71,0,0,1,1.76-3.14,4.67,4.67,0,0,1,1.81-1.4A6.07,6.07,0,0,1,326.6,504.49Zm1.07,8.16a5,5,0,0,0,.1-.82,2.63,2.63,0,0,0-.38-1.43,1.24,1.24,0,0,0-1.1-.58,1.21,1.21,0,0,0-.81.38,3.19,3.19,0,0,0-.67,1.17ZM347.62,510c.1,0,.18.15.23.44a4.57,4.57,0,0,1,.1,1.07v3.85a4.94,4.94,0,0,1-.1,1.09c-.07.29-.15.43-.23.43h-1.4a11.67,11.67,0,0,1-2.65,4.77,17.6,17.6,0,0,1-5.92,4.05l-3.46-5.17a35.93,35.93,0,0,0,4.51-2,23.87,23.87,0,0,0,3.26-2,6.78,6.78,0,0,1-1.89.23,10.68,10.68,0,0,1-1.6-.13,5.69,5.69,0,0,1-1.33-.36,1.25,1.25,0,0,1-.58-.46,8.46,8.46,0,0,1-.72-1.25,11.18,11.18,0,0,1-.51-1.19,2.48,2.48,0,0,1-.1-.79,10.85,10.85,0,0,1,1.73-5.94,4.77,4.77,0,0,1,4.06-2.09,5,5,0,0,1,3.34,1.3,6.83,6.83,0,0,1,2.06,4.15Zm-8,1.48c.51,0,1,.05,1.48.05s.78,0,1.22-.05a2.51,2.51,0,0,0-.38-1.5,1.11,1.11,0,0,0-1-.54,1.08,1.08,0,0,0-.92.54A3.11,3.11,0,0,0,339.59,511.5Zm10.58-9.23-3.26-2.77,2.75-3.29,3,2.5,2.35-2.78,3.29,2.8L355.5,502l-3-2.49Zm5.94,1.56q.38,4.92.38,7.31a6.64,6.64,0,0,1-.41,2.37,4.21,4.21,0,0,1-1.5,2q-1.83,1.42-7,1.42c-.08,0-.16-.14-.23-.43a4.28,4.28,0,0,1-.13-1.09v-3.85a4.51,4.51,0,0,1,.11-1.07c.07-.29.15-.44.25-.44,1.09,0,1.93,0,2.53,0a9.12,9.12,0,0,0,1.47-.23l-.66-5Zm3.95,16.74c1.87-1,3.23-1.81,4.1-2.34a11.22,11.22,0,0,0,2-1.43,4.44,4.44,0,0,0,1.05-1.42l-1.33-8.08,5.23-1.08a65.17,65.17,0,0,1,.61,8,15.15,15.15,0,0,1-.54,4.41,8,8,0,0,1-2.24,3.46,24.71,24.71,0,0,1-5.27,3.78Zm19.73-23.9-.25,20.23-4.41.62-.56-20.09Zm5.11,7.57-3.67-3.06,3.06-3.67,3.64,3.06Zm6.37,5.78c.1,0,.19.15.26.44a5.19,5.19,0,0,1,.1,1.07v3.85a3.88,3.88,0,0,1-.13,1.09c-.07.29-.14.43-.23.43h-.38a2.29,2.29,0,0,1-1.84-.89,9.68,9.68,0,0,1-.81,3.49,9.23,9.23,0,0,1-2.4,3,27.92,27.92,0,0,1-4.79,3.32l-3.57-5.26q2.81-1.55,4.11-2.34a11.62,11.62,0,0,0,2-1.43,4.26,4.26,0,0,0,1-1.42l-1.32-8.08,5.22-1.08.16,1.3.12,1a4.19,4.19,0,0,0,.23,1,.77.77,0,0,0,.51.36A10.25,10.25,0,0,0,391,510Zm13.27-6.24a6.94,6.94,0,0,1,3,2.55,6.8,6.8,0,0,1,1.13,3.92,13.08,13.08,0,0,1-1.05,4.46,2.15,2.15,0,0,1-.51.77,12.11,12.11,0,0,1-1.2,1,3.09,3.09,0,0,1-1.55.71,1.62,1.62,0,0,1-.49-.08l-4-1.45a14,14,0,0,1-3.27.94,33.32,33.32,0,0,1-5.4.33c-.08,0-.16-.14-.23-.43a4.28,4.28,0,0,1-.13-1.09v-3.85a4.51,4.51,0,0,1,.11-1.07c.06-.29.15-.44.25-.44h.56c1.06,0,1.74,0,2.07.05a2.47,2.47,0,0,1-.56-1.55,5.49,5.49,0,0,1,1.12-3l-.82-.36,2.42-5.12ZM400,507.45l-1.73-.84c-.32.44-.56.79-.71,1a1.46,1.46,0,0,0-.21.66,1,1,0,0,0,.49.85,3.18,3.18,0,0,0,1.45.35Zm4.36,4a2.28,2.28,0,0,0,.31-.94,1.58,1.58,0,0,0-.51-1.18,4.54,4.54,0,0,0-1.48-.89l-.74,2.09Zm17.34-14.78.07.79q.51,5.37.77,8.87c.17,2.32.25,4.67.25,7,0,1.19,0,2.37-.07,3.54h-4.18a105.62,105.62,0,0,0-1.94-19.47ZM433.4,516.6a6.55,6.55,0,0,1-3.29-.84,6.43,6.43,0,0,1-2.34-2.35,6.29,6.29,0,0,1-.87-3.26,6.19,6.19,0,0,1,.87-3.24,6.06,6.06,0,0,1,2.34-2.29,6.55,6.55,0,0,1,3.29-.84,6.1,6.1,0,0,1,3.14.84,6.21,6.21,0,0,1,2.29,2.29,5.92,5.92,0,0,1,.87,3.14,6.64,6.64,0,0,1-.85,3.29,6.41,6.41,0,0,1-2.29,2.39A6,6,0,0,1,433.4,516.6Zm-.13-4.31a2,2,0,0,0,1.51-.61,2.12,2.12,0,0,0,.63-1.53,2.17,2.17,0,0,0-2.14-2.14,2.08,2.08,0,0,0-1.55.64,2,2,0,0,0-.61,1.5,2.09,2.09,0,0,0,2.16,2.14Zm16.21,4.31a6.55,6.55,0,0,1-3.29-.84,6.43,6.43,0,0,1-2.34-2.35,6.29,6.29,0,0,1-.87-3.26,6.19,6.19,0,0,1,.87-3.24,6.06,6.06,0,0,1,2.34-2.29,6.55,6.55,0,0,1,3.29-.84,6,6,0,0,1,3.13.84,6.16,6.16,0,0,1,2.3,2.29,5.91,5.91,0,0,1,.86,3.14,6.74,6.74,0,0,1-.84,3.29,6.41,6.41,0,0,1-2.29,2.39A6,6,0,0,1,449.48,516.6Zm-.13-4.31a2,2,0,0,0,1.51-.61,2.12,2.12,0,0,0,.63-1.53,2.17,2.17,0,0,0-2.14-2.14,2.08,2.08,0,0,0-1.55.64,2,2,0,0,0-.62,1.5,2.1,2.1,0,0,0,2.17,2.14Z"/><path d="M350.05,573.74c.11,0,.19.15.26.44a4.63,4.63,0,0,1,.1,1.07v3.85a3.88,3.88,0,0,1-.13,1.09c-.06.29-.14.44-.23.44h-.17a9.31,9.31,0,0,1-2.63-.31,3.18,3.18,0,0,1-1.55-1,4.55,4.55,0,0,1-.85-1.81,1.32,1.32,0,0,1-1,.87,17.83,17.83,0,0,1-3.42.25,3.29,3.29,0,0,1-2.5-1A3.74,3.74,0,0,1,337,575a19.25,19.25,0,0,1,.25-3.77,4.43,4.43,0,0,1,1.33-2.12,28.78,28.78,0,0,1,3.87-2.8l-.2-1.89L347,563l.94,8.94a8.34,8.34,0,0,0,.21,1.25.73.73,0,0,0,.41.46,3.07,3.07,0,0,0,1,.1Zm-8.66-.66a7.51,7.51,0,0,0,1.09,0,6.79,6.79,0,0,0,1.46-.12l-.31-2a7.65,7.65,0,0,0-2.06.94,2.23,2.23,0,0,0-.77,1A2.48,2.48,0,0,0,341.39,573.08Zm15.37-14.6-3.64-3,3-3.67,3.67,3.06Zm.31,2.16a5.06,5.06,0,0,1,2.68.79,5.78,5.78,0,0,1,2.14,2.65,11.77,11.77,0,0,1,.86,4.92,34.44,34.44,0,0,1-.58,7.17,5.19,5.19,0,0,1-2.22,3.56,4.87,4.87,0,0,1-2,.77,22.33,22.33,0,0,1-3,.15l-4.92,0c-.08,0-.16-.15-.23-.44a4.28,4.28,0,0,1-.13-1.09v-3.85a4.57,4.57,0,0,1,.11-1.07c.06-.29.15-.44.25-.44h2.7c2.42,0,4.27,0,5.56-.15v-.81c-.54.05-1.28.07-2.19.07a10.71,10.71,0,0,1-1.61-.12,7,7,0,0,1-1.3-.34,1.23,1.23,0,0,1-.61-.46,14.35,14.35,0,0,1-1.2-2.47,2.18,2.18,0,0,1-.1-.79,11.08,11.08,0,0,1,1.71-5.94A4.79,4.79,0,0,1,357.07,560.64Zm-1.4,6.94a11.79,11.79,0,0,0,1.45.07,8.81,8.81,0,0,0,1.25-.07,2.47,2.47,0,0,0-.38-1.48,1.18,1.18,0,0,0-1-.54,1.07,1.07,0,0,0-.89.51A3,3,0,0,0,355.67,567.58Zm18.8,6.16c.1,0,.19.15.25.44a4.57,4.57,0,0,1,.11,1.07v3.85a4.28,4.28,0,0,1-.13,1.09c-.07.29-.15.44-.23.44h-.38a2.29,2.29,0,0,1-1.84-.9,9.79,9.79,0,0,1-.81,3.5,9.3,9.3,0,0,1-2.4,3,27.92,27.92,0,0,1-4.79,3.32l-3.57-5.25q2.81-1.56,4.1-2.35a11.36,11.36,0,0,0,2-1.43,4.41,4.41,0,0,0,1-1.42L366.47,571l5.22-1.07.15,1.3.13,1a4.2,4.2,0,0,0,.23,1,.77.77,0,0,0,.51.36,10,10,0,0,0,1.5.07Zm5.82-9.66-3.64-3,3-3.67,3.67,3.06Zm7.22,14.69c-2.21.61-3.9,1-5.05,1.3a24.14,24.14,0,0,1-3,.45c-.84.07-2,.11-3.47.11h-1.53c-.09,0-.16-.15-.23-.44a4.28,4.28,0,0,1-.13-1.09v-3.85a5.26,5.26,0,0,1,.1-1.07c.07-.29.16-.44.26-.44h1.63a10.37,10.37,0,0,1-.13-1.88,5.87,5.87,0,0,1,1.61-4.46,6.2,6.2,0,0,1,4.41-1.53,11.55,11.55,0,0,1,3,.41l-1.3,5.2a24,24,0,0,0-2.9-.39,18.09,18.09,0,0,0,.1,2.32l6.24-1.09Zm15.67-14.2a18.34,18.34,0,0,1,4.38,5.15,11.52,11.52,0,0,1,1.58,5.81,5,5,0,0,1-1.4,3.8,5.38,5.38,0,0,1-2.55,1.4,13.92,13.92,0,0,1-3.72.46,7,7,0,0,1-4.25-1.15,4.56,4.56,0,0,1-1.56-3.9c0-.68.07-1.66.2-3l4.21,0v.51a1.85,1.85,0,0,0,.05.53c.05.09.17.14.36.16l1.12,0c.46,0,1.3,0,2.52-.1a7.9,7.9,0,0,0-1.27-2,30.7,30.7,0,0,0-3.09-3.13Zm16.27,9.17c.1,0,.18.15.25.44a4.63,4.63,0,0,1,.1,1.07v3.85a4.32,4.32,0,0,1-.12,1.09c-.07.29-.15.44-.23.44h-.54a9.35,9.35,0,0,1-3.72-.62,4.21,4.21,0,0,1-2.12-2.26,13.45,13.45,0,0,1-.76-4.82l-.2-11.78,5.22-.76L417.2,572a2.18,2.18,0,0,0,.31,1.38,1.77,1.77,0,0,0,1.35.4Zm19.33,0c.09,0,.16.15.23.44a4.63,4.63,0,0,1,.1,1.07v3.85a4.87,4.87,0,0,1-.1,1.07c-.07.3-.14.46-.23.46h-2.86a10.46,10.46,0,0,1-3.18-.51,4.4,4.4,0,0,1-2.35-1.71,14.05,14.05,0,0,1-4.13,1.78,24,24,0,0,1-5.07.44h-1.76c-.08,0-.16-.15-.23-.44a4.32,4.32,0,0,1-.12-1.09v-3.85a4.63,4.63,0,0,1,.1-1.07c.07-.29.15-.44.25-.44h1.76a44.43,44.43,0,0,0,6.4-.43c.82-.1,1.87-.3,3.16-.58l-.15,0a19.56,19.56,0,0,1-2.12-.66,7.34,7.34,0,0,0-2.37-.64,1.07,1.07,0,0,0-.76.28,2,2,0,0,0-.54,1l-4-.94a9.24,9.24,0,0,1,1.7-4.18,4.05,4.05,0,0,1,3.37-1.56,8,8,0,0,1,2.32.33,28,28,0,0,1,2.7,1l.53.23a29.59,29.59,0,0,0,3.09,1,12.57,12.57,0,0,0,3.08.36l-1.09,4.89a6.49,6.49,0,0,1,1.09-.08Zm-11.42,9.08,3.67,3.06L428,589.55l-3.67-3.06Zm11.41-2.19c-.08,0-.16-.15-.22-.44a3.88,3.88,0,0,1-.13-1.09v-3.85a4.63,4.63,0,0,1,.1-1.07c.07-.29.15-.44.25-.44,1.09,0,1.93,0,2.53,0a8.25,8.25,0,0,0,1.48-.23l-.67-5,5.15-.94c.26,3.28.38,5.72.38,7.32a6.94,6.94,0,0,1-.4,2.37,4.33,4.33,0,0,1-1.51,2Q443.9,580.63,438.77,580.63Zm6.33,8.89-3-2.47-2.32,2.78-3.31-2.75,2.78-3.37,3,2.47,2.34-2.75,3.31,2.78Zm10.69-29.13-.26,20.24-4.41.61-.56-20.09Z"/><rect class="cls-4" x="464.19" y="83.59" width="63.72" height="63.72" rx="12.74"/><path class="cls-5" d="M484.58,98.13c-1.64.39-2.6,2.62-2.19,5s2.05,3.8,3.7,3.41,2.6-2.62,2.18-5S486.09,97.6,484.58,98.13Z"/><path class="cls-5" d="M506.06,106.39c1.64-.39,2.6-2.62,2.19-5s-2.06-3.81-3.7-3.41-2.6,2.62-2.19,5S504.42,106.78,506.06,106.39Z"/><path class="cls-5" d="M489,119.37a2.75,2.75,0,0,0,2.73,2.37H492l9.85-.92-3.42-14.69a2.63,2.63,0,0,0-3.29-2,2.52,2.52,0,0,0-2.05,3.15l2.05,8.92-3.69.39A2.49,2.49,0,0,0,489,119.37Z"/><path class="cls-5" d="M486.91,129a2.49,2.49,0,0,0,.95,3.54,16.17,16.17,0,0,0,8.08,2.1,15.87,15.87,0,0,0,13.67-7.48,2.48,2.48,0,0,0-.95-3.54,2.72,2.72,0,0,0-3.7.92A10.68,10.68,0,0,1,490.74,128,2.91,2.91,0,0,0,486.91,129Z"/><g class="cls-6"><path class="cls-5" d="M141.44,126.61a1.45,1.45,0,0,1-1.12-.48l-8-8a1.54,1.54,0,0,1,0-2.23l8-8a1.58,1.58,0,0,1,2.23,2.23l-6.85,6.85,6.85,6.85a1.54,1.54,0,0,1,0,2.23A1.45,1.45,0,0,1,141.44,126.61Z"/></g><rect class="cls-4" x="116.9" y="262.31" width="411.01" height="1"/><path class="cls-7" d="M159.39,220.06c.05,0,.09.09.14.29a2.77,2.77,0,0,1,.06.6v1.94a2.77,2.77,0,0,1-.06.62c-.05.18-.09.27-.14.27h-.53a3.89,3.89,0,0,1-1.74-.38,2.21,2.21,0,0,1-1.14-1.09,3.33,3.33,0,0,1-1.34,1.12,4.47,4.47,0,0,1-1.74.35,2.62,2.62,0,0,1-2.65-1.4,2.35,2.35,0,0,1-1.16,1.11,3.66,3.66,0,0,1-1.43.29,3.75,3.75,0,0,1-1.34-.2,1.83,1.83,0,0,1-.84-.67c0,.89.06,1.68.06,2.34a2.57,2.57,0,0,1-1.2,2.17,8,8,0,0,1-2.9,1.22,13.81,13.81,0,0,1-3.12.38c-2.08,0-3.58-.39-4.49-1.18a4.44,4.44,0,0,1-1.36-3.52,29.19,29.19,0,0,1,.52-3.79l.55-3.59,2.28.49a60.32,60.32,0,0,0-.87,6.33,1.23,1.23,0,0,0,1,1.2,7.32,7.32,0,0,0,2.37.34,17.52,17.52,0,0,0,2.67-.18,6.8,6.8,0,0,0,2-.6l-1-8.32,2.86-.58.11,1.16.2,2.05a1.41,1.41,0,0,0,.44,1,2.34,2.34,0,0,0,1.25.25,5.61,5.61,0,0,0,1.79-.27l-.2-4.06,2.56-.09.09,4.24a3.25,3.25,0,0,0,1.12.18,5.29,5.29,0,0,0,1.89-.29l-.56-5,2.86-.49.31,4.35a2.53,2.53,0,0,0,.2.85,1.13,1.13,0,0,0,.6.44,4,4,0,0,0,1.3.16ZM149,205.92l2.12,1.71-1.72,2.15-2.14-1.72Zm-1.7,3.77,2.14,1.71-1.71,2.15-2.15-1.72Zm3.55,0L153,211.4l-1.72,2.15-2.14-1.72Zm14.73,4.57c.15,2.29.22,4.16.22,5.62a4,4,0,0,1-.33,1.61,3,3,0,0,1-1,1.22,9.06,9.06,0,0,1-5,1.07c-.06,0-.1-.08-.13-.24a2.49,2.49,0,0,1-.07-.65V221a2.25,2.25,0,0,1,.07-.62c0-.18.07-.27.13-.27a20.08,20.08,0,0,0,2.25-.11,5.42,5.42,0,0,0,1.59-.43l-.54-4.77Zm-6,11.62,2.23,1.81L160,229.92l-2.23-1.81Zm3.72,0,2.23,1.81-1.8,2.23-2.23-1.81Zm5.26-18.62,2.94-.49,0,17-2.45.31ZM182,220.06s.1.09.13.27a2.72,2.72,0,0,1,.07.62v1.94a3,3,0,0,1-.07.65c0,.16-.08.24-.13.24h-.74a3.21,3.21,0,0,1-1.23-.24,2.79,2.79,0,0,1-1-.76,7.11,7.11,0,0,1-1.72,4.35,14.91,14.91,0,0,1-5.21,3.63l-2-2.83a20,20,0,0,0,4.4-2.48,7,7,0,0,0,2-2.36l-.94-6.8,2.95-.6.33,3a1.36,1.36,0,0,0,.65,1.12,4,4,0,0,0,1.74.29Zm-5.56-11,2.5,2L177,213.41l-2.5-2Zm14.95,7.25a27.22,27.22,0,0,1-.14,3.44,5.61,5.61,0,0,1-.58,2.07,2.81,2.81,0,0,1-1.18,1.21,4.66,4.66,0,0,1-1.4.51,16.09,16.09,0,0,1-2.08.18c-.85,0-2.18,0-4,0-.06,0-.11-.08-.14-.24a3.06,3.06,0,0,1-.06-.65V221a2.77,2.77,0,0,1,.06-.62c0-.18.08-.27.14-.27l5,0a9.37,9.37,0,0,0,1.83-.18l.09-1.16a13.17,13.17,0,0,1-2.3.18,12.48,12.48,0,0,1-1.45-.07,2.53,2.53,0,0,1-.84-.31,3.29,3.29,0,0,1-.7-.76,4.27,4.27,0,0,1-.51-.85A3.41,3.41,0,0,1,183,216a9.74,9.74,0,0,1,.45-3,5.09,5.09,0,0,1,1.42-2.25,3.46,3.46,0,0,1,2.39-.85,3.18,3.18,0,0,1,2.23.87,5.56,5.56,0,0,1,1.43,2.37A10.41,10.41,0,0,1,191.38,216.33Zm-6-.67a11.54,11.54,0,0,0,1.78.16,9.23,9.23,0,0,0,1.76-.13,3.48,3.48,0,0,0-.51-2.08,1.61,1.61,0,0,0-1.36-.71,1.42,1.42,0,0,0-1.21.71A3.77,3.77,0,0,0,185.36,215.66Zm1.2-12.26,2.5,2-1.92,2.32-2.5-2Zm7.59,3.86,2.94-.49,0,17-2.46.31Z"/><path class="cls-7" d="M521.54,588.59H496.05V579h25.49Z"/><path d="M499.24,571.07h-3.19v8h3.19Z"/><path d="M521.54,572.66h-3.19V579h3.19Z"/><path class="cls-7" d="M521.54,559.92H496.05l-3.19,7.64v.32a6.39,6.39,0,0,0,6.38,6.37A6,6,0,0,0,504,572a6.45,6.45,0,0,0,4.77,2.23,5.94,5.94,0,0,0,4.78-2.23,6.48,6.48,0,0,0,4.78,2.23,6.38,6.38,0,0,0,6.37-6.37v-.32Z"/><path d="M498.12,211.2,497,208.33l20.71-7.65,3,8.29-3,1.11-1.92-5.26Z"/><path class="cls-7" d="M518.35,231.75H499.24a6.4,6.4,0,0,1-6.38-6.37V214.22a6.4,6.4,0,0,1,6.38-6.37h19.11a6.39,6.39,0,0,1,6.37,6.37v11.16A6.39,6.39,0,0,1,518.35,231.75Z"/><path d="M516,222.19a2.39,2.39,0,1,0-2.39-2.39A2.39,2.39,0,0,0,516,222.19Z"/><path class="cls-7" d="M515.17,333.7H502.42a6.39,6.39,0,0,1-6.37-6.37V309.81h25.49v17.52A6.39,6.39,0,0,1,515.17,333.7Z"/><path d="M513.57,317.77a1.5,1.5,0,0,1-1.59-1.59v-6.37a3.19,3.19,0,1,0-6.37,0v6.37a1.6,1.6,0,0,1-3.19,0v-6.37a6.38,6.38,0,1,1,12.75,0v6.37A1.5,1.5,0,0,1,513.57,317.77Z"/><path class="cls-7" d="M494.46,461.15V438.84a4.69,4.69,0,0,1,4.78-4.77h19.11a4.69,4.69,0,0,1,4.78,4.77v12.75a4.69,4.69,0,0,1-4.78,4.78H502.9Z"/><path d="M515.17,443.62H502.42a1.59,1.59,0,0,1,0-3.18h12.75a1.59,1.59,0,1,1,0,3.18Z"/><path d="M515.17,450h-8a1.6,1.6,0,0,1,0-3.19h8a1.6,1.6,0,0,1,0,3.19Z"/><path class="cls-7" d="M520,507.35H497.64v17.52H520Z"/><path d="M510.39,510.53H507.2v14.34h3.19Z"/><path d="M508.79,504.16a1.45,1.45,0,0,1-1.11-.48,1.54,1.54,0,0,1,0-2.23l6.37-6.37a1.58,1.58,0,0,1,2.23,2.23l-6.37,6.37A1.45,1.45,0,0,1,508.79,504.16Z"/><path d="M508.79,504.16a1.45,1.45,0,0,1-1.11-.48l-6.37-6.37a1.58,1.58,0,0,1,2.23-2.23l6.37,6.37a1.54,1.54,0,0,1,0,2.23A1.45,1.45,0,0,1,508.79,504.16Z"/><path class="cls-7" d="M523.13,510.53H494.46v-4.78a4.69,4.69,0,0,1,4.78-4.78h19.11a4.69,4.69,0,0,1,4.78,4.78Z"/><path class="cls-7" d="M504,368.75h9.55l8,8v15.93a4.7,4.7,0,0,1-4.78,4.78H504a4.7,4.7,0,0,1-4.78-4.78V373.53A4.69,4.69,0,0,1,504,368.75Z"/><path d="M507.2,391.05l-6.37-3.66-6.37,3.66V379.9a4.69,4.69,0,0,1,4.78-4.78h3.18a4.69,4.69,0,0,1,4.78,4.78Zm-6.37-7.33,3.19,1.92V379.9a1.51,1.51,0,0,0-1.6-1.59h-3.18a1.51,1.51,0,0,0-1.6,1.59v5.58Z"/></g></svg>