<svg xmlns="http://www.w3.org/2000/svg" viewBox="0 0 648 648"><defs><style>.cls-1{fill:#ff6c40;}</style></defs><g id="Layer_1" data-name="Layer 1"><path class="cls-1" d="M526.5,530,419.87,469.13H263.25a60.82,60.82,0,0,1-60.75-60.75V286.88a60.82,60.82,0,0,1,60.75-60.75h202.5a60.82,60.82,0,0,1,60.75,60.75Z"/><path d="M121.5,449.05V205.9a60.82,60.82,0,0,1,60.75-60.75h202.5A60.82,60.82,0,0,1,445.5,205.9V327.4a60.82,60.82,0,0,1-60.75,60.75H228.12Zm60.75-263.4A20.27,20.27,0,0,0,162,205.9V379.28l55.37-31.63H384.75A20.28,20.28,0,0,0,405,327.4V205.9a20.27,20.27,0,0,0-20.25-20.25Z"/></g></svg>