<svg xmlns="http://www.w3.org/2000/svg" viewBox="0 0 648 648"><defs><style>.cls-1{fill:#dfdddd;}.cls-2,.cls-4{fill:#fff;}.cls-2{stroke:#f4f4f4;}.cls-3{fill:#fd5d41;}</style></defs><g id="Layer_1" data-name="Layer 1"><rect class="cls-1" width="648" height="648"/><path class="cls-2" d="M45.76,243.68H45v187H603v-187H45.76Z"/><path d="M105.79,298.46s.08.05.11.15a1.06,1.06,0,0,1,0,.33v.71a1,1,0,0,1,0,.32c0,.09-.06.13-.11.13h-.54c-1.66,0-2.72-.43-3.2-1.29.09,1.38.13,2.46.13,3.22a1.79,1.79,0,0,1-.89,1.45,6.15,6.15,0,0,1-2.36.95,14,14,0,0,1-3.2.35,6.12,6.12,0,0,1-3.79-.95A3.44,3.44,0,0,1,90.75,301a16.29,16.29,0,0,1,.18-1.69c.13-.88.29-2,.49-3.27l.22-1.36,1.06.19a53.61,53.61,0,0,0-.8,6,1.87,1.87,0,0,0,1,1.77,5.81,5.81,0,0,0,2.83.57q3.9,0,5.35-1.26l-.72-8.29,1.28-.26.3,3.42a1.61,1.61,0,0,0,.48,1.13,2.27,2.27,0,0,0,1.06.45,11,11,0,0,0,1.71.11ZM96.29,290,97.63,291l-1,1.3-1.35-1.06Zm25.77,8.51s0,.05.08.15a1,1,0,0,1,0,.33v.71a.93.93,0,0,1,0,.32c0,.09-.06.13-.08.13h-1.3a2.75,2.75,0,0,1-1.41-.32,1.87,1.87,0,0,1-.78-.91,2.12,2.12,0,0,1-1.17.95,4.78,4.78,0,0,1-1.66.28,3.25,3.25,0,0,1-1.37-.26,1.38,1.38,0,0,1-.75-.75,1.65,1.65,0,0,1-1,.78,4.18,4.18,0,0,1-1.28.23,3.18,3.18,0,0,1-1.4-.28,1.71,1.71,0,0,1-.83-.75,2.49,2.49,0,0,1-1.32.77,7,7,0,0,1-2,.26c-.08,0-.13-.15-.13-.45v-.71c0-.32,0-.48.13-.48a11.1,11.1,0,0,0,1.54-.09,3,3,0,0,0,1.15-.45l.08-3.55h1.19l-.08,2.83q0,1.26,1.56,1.26a3.62,3.62,0,0,0,1.84-.39l-.13-4.54,1.19,0,.08,4.55a1.82,1.82,0,0,0,1.34.41,4.17,4.17,0,0,0,2.15-.43l-.35-5.39,1.23-.24.11,2.12.13,2.14a2.05,2.05,0,0,0,.46,1.39,2.12,2.12,0,0,0,1.47.41Zm-9-12.25,1.26,1-1,1.26-1.25-1Zm-1.23,2.68,1.26,1-1,1.25-1.25-1Zm2.49,0,1.25,1-1,1.25-1.26-1Zm15,9.57s0,.05.08.15a1,1,0,0,1,.05.33v.71a.93.93,0,0,1-.05.32c0,.09,0,.13-.08.13a7,7,0,0,1-2.41-.32,1.92,1.92,0,0,1-1.1-.95c-.49.85-1.74,1.27-3.76,1.27-.09,0-.13-.15-.13-.45v-.71c0-.32,0-.48.13-.48a9.36,9.36,0,0,0,1.83-.15,3.75,3.75,0,0,0,1.35-.56l-.39-4.38,1.23-.15.3,4.59A5.17,5.17,0,0,0,129.33,298.46Zm-5.13,4.05,1.25,1-1,1.28-1.28-1Zm2.51,0,1.28,1-1,1.28-1.26-1Zm12.48-4.05c.05,0,.08.05.11.15a1,1,0,0,1,0,.33v.71a.93.93,0,0,1,0,.32c0,.09-.06.13-.11.13h-1.12c-1.27,0-2.06-.42-2.36-1.27-.87.85-3,1.27-6.38,1.27-.09,0-.13-.15-.13-.45v-.71c0-.32,0-.48.13-.48a31.36,31.36,0,0,0,3.35-.17,8.55,8.55,0,0,0,2.36-.57,9.16,9.16,0,0,0-.61-3.07,8,8,0,0,0-1.69-2.62,16.64,16.64,0,0,0-3.09-2.55l.11-1.47c1.27-.62,2.45-1.16,3.55-1.63s2.27-.91,3.48-1.29l.17,1.38a33.81,33.81,0,0,0-5.8,2.38,1.06,1.06,0,0,1,.29.2,11.05,11.05,0,0,1,3.65,4,10.18,10.18,0,0,1,1.06,4.09,1.5,1.5,0,0,0,.57,1.06,2.68,2.68,0,0,0,1.27.24Zm7.28,0s.05.05.08.15a1,1,0,0,1,0,.33v.71a.93.93,0,0,1,0,.32c0,.09-.05.13-.08.13a7,7,0,0,1-2.41-.32,1.92,1.92,0,0,1-1.1-.95c-.49.85-1.75,1.27-3.77,1.27-.08,0-.13-.15-.13-.45v-.71c0-.32.05-.48.13-.48a9.4,9.4,0,0,0,1.84-.15,3.83,3.83,0,0,0,1.35-.56l-.39-4.38,1.23-.15.3,4.59A5.15,5.15,0,0,0,146.47,298.46Zm-5.13,4.05,1.25,1-1,1.28-1.28-1Zm2.51,0,1.27,1-1,1.28-1.26-1Zm10.88-4.05s.08.05.11.15a1.06,1.06,0,0,1,0,.33v.71a1,1,0,0,1,0,.32c0,.09-.07.13-.11.13a8.17,8.17,0,0,1-2.79-.36,1.81,1.81,0,0,1-1.13-1,2.45,2.45,0,0,1-1.49,1.08,10.11,10.11,0,0,1-2.86.32c-.08,0-.13-.15-.13-.45v-.71c0-.32,0-.48.13-.48a16.07,16.07,0,0,0,2.32-.13,2.63,2.63,0,0,0,1.41-.61l-.46-12.42,1.32-.21.24,11.57a1.55,1.55,0,0,0,.74,1.39,4.45,4.45,0,0,0,2.12.41Zm5.15-6.06c.14,2.51.22,4.25.22,5.22a1.79,1.79,0,0,1-.29.95,1.93,1.93,0,0,1-.78.71,7.4,7.4,0,0,1-2,.63,13.69,13.69,0,0,1-2.34.19c-.09,0-.13-.15-.13-.45v-.71c0-.32,0-.48.13-.48a8.41,8.41,0,0,0,4.24-.8l-.37-5Zm-4.37,10.11,1.25,1-1,1.26-1.26-1Zm2.49,0,1.25,1-1,1.26-1.26-1Zm-1.22,2.7,1.26,1-1,1.23-1.25-1Zm6.39-19.91,1.3-.21.2,15-1.11.18Zm22.51,13.16s.08.05.11.15a1.06,1.06,0,0,1,0,.33v.71a1,1,0,0,1,0,.32c0,.09-.07.13-.11.13h-.54q-2.49,0-3.21-1.29c.09,1.38.13,2.46.13,3.22a1.77,1.77,0,0,1-.88,1.45,6.22,6.22,0,0,1-2.36.95,14,14,0,0,1-3.2.35,6.08,6.08,0,0,1-3.79-.95,3.41,3.41,0,0,1-1.19-2.88c0-.26.06-.82.17-1.69s.3-2,.5-3.27l.22-1.36,1.06.19a51.16,51.16,0,0,0-.8,6,1.88,1.88,0,0,0,1,1.77,5.85,5.85,0,0,0,2.84.57q3.88,0,5.34-1.26l-.71-8.29,1.27-.26.31,3.42a1.64,1.64,0,0,0,.47,1.13,2.27,2.27,0,0,0,1.06.45,11.18,11.18,0,0,0,1.71.11Zm-9.5-8.51,1.34,1.06-1,1.3-1.34-1.06Zm14.66,2.45c.14,2.51.22,4.25.22,5.22a1.79,1.79,0,0,1-.29.95,2,2,0,0,1-.77.71,7.6,7.6,0,0,1-2,.63,13.69,13.69,0,0,1-2.34.19c-.09,0-.13-.15-.13-.45v-.71c0-.32,0-.48.13-.48a8.38,8.38,0,0,0,4.24-.8l-.37-5Zm-4.37,10.11,1.25,1-1,1.28-1.28-1Zm2.51,0,1.28,1-1,1.28-1.26-1Zm5.15-17.21,1.3-.21.2,15-1.11.18Zm8.66,14.89a1.1,1.1,0,0,1-.78-.32,1.23,1.23,0,0,1,0-1.61,1.1,1.1,0,0,1,.78-.32,1.06,1.06,0,0,1,.8.32,1,1,0,0,1,.32.81,1.09,1.09,0,0,1-.32.8A1.11,1.11,0,0,1,202.79,300.19ZM225,298.46s.06.05.09.15a1.06,1.06,0,0,1,0,.33v.71a1,1,0,0,1,0,.32c0,.09-.06.13-.09.13a7.67,7.67,0,0,1-2.57-.34,1.88,1.88,0,0,1-1.15-.91,1.4,1.4,0,0,1-.6.45,7.39,7.39,0,0,1-1,.35,17.91,17.91,0,0,1-2.49.41,28.16,28.16,0,0,1-2.9.15,20,20,0,0,1-3.7-.28,4.71,4.71,0,0,1-2.32-1.1,3.07,3.07,0,0,1-.82-2.28,11.36,11.36,0,0,1,.13-1.38c.1-.66.25-1.59.43-2.77l1.06.22a34.82,34.82,0,0,0-.47,3.7,1.68,1.68,0,0,0,.71,1.45,4.44,4.44,0,0,0,1.93.65,24.71,24.71,0,0,0,3,.15,34.8,34.8,0,0,0,3.83-.2,12.76,12.76,0,0,0,2.85-.62l-.32-4.07,1.23-.15.24,4.35a2.42,2.42,0,0,0,1.1.47A13,13,0,0,0,225,298.46Zm-11.47-8.53,1.26,1-1,1.28-1.27-1Zm2.51,0,1.28,1-1,1.28-1.25-1Zm21.75,2.47c.14,2.34.21,4.15.21,5.45a1.83,1.83,0,0,1-.93,1.71,4.17,4.17,0,0,1-2.14.54,3.21,3.21,0,0,1-1.36-.26,1.36,1.36,0,0,1-.76-.75,1.65,1.65,0,0,1-1,.78,4.12,4.12,0,0,1-1.27.23,3.2,3.2,0,0,1-1.41-.28,1.68,1.68,0,0,1-.82-.75,2.53,2.53,0,0,1-1.32.77,7,7,0,0,1-2,.26c-.09,0-.13-.15-.13-.45v-.71c0-.32,0-.48.13-.48a10.94,10.94,0,0,0,1.53-.09,3,3,0,0,0,1.15-.45l.09-3.55H229l-.09,2.83q0,1.26,1.56,1.26a3.6,3.6,0,0,0,1.84-.39l-.13-4.54,1.19,0,.09,4.55a1.8,1.8,0,0,0,1.34.41,4.13,4.13,0,0,0,2.14-.43l-.35-5.39Zm3.28-7.1,1.3-.21.2,15-1.11.18Zm10.5,14.91a3.86,3.86,0,0,1-2.17-.58,2.26,2.26,0,0,1-.86-2,4.38,4.38,0,0,1,.71-2.21,13.71,13.71,0,0,1,1.75-2.36l-.88-.65.73-1.1a11.07,11.07,0,0,1,3.31,3.07,6.19,6.19,0,0,1,1.19,3.62,2.36,2.36,0,0,1-.26,1.21,3.64,3.64,0,0,1-.3.41.74.74,0,0,1-.3.24,3.85,3.85,0,0,1-1.13.26C252.9,300.19,252.3,300.21,251.57,300.21Zm0-1.64,1.62,0a5.37,5.37,0,0,0,1-.16,6.23,6.23,0,0,0-.41-2.31,5.53,5.53,0,0,0-1.95-2.32,8.68,8.68,0,0,0-1.54,1.89,3.78,3.78,0,0,0-.69,1.68C249.64,298.16,250.3,298.57,251.61,298.57Zm17.72-.11s.06.05.09.15a1.06,1.06,0,0,1,0,.33v.71a1,1,0,0,1,0,.32c0,.09-.06.13-.09.13h-.54c-1.56,0-2.49-.54-2.79-1.64a1.57,1.57,0,0,1-.69.8,6.84,6.84,0,0,1-2.08.82,10,10,0,0,1-2.49.35,3.43,3.43,0,0,1-1.49-.26,1.4,1.4,0,0,1-.74-.85,5.39,5.39,0,0,1-.21-1.7c0-.35,0-.62,0-.81l1,.07v.37a4.26,4.26,0,0,0,.09,1.06.59.59,0,0,0,.41.39,4.39,4.39,0,0,0,1.06.08,9.83,9.83,0,0,0,2.58-.34,5.57,5.57,0,0,0,2-.89l-1.6-6.69,1.23-.69,1.21,5.84a7.57,7.57,0,0,0,.52,1.74,1.29,1.29,0,0,0,.78.6A9.69,9.69,0,0,0,269.33,298.46Zm12.8-6.06c.14,2.34.21,4.15.21,5.45a1.83,1.83,0,0,1-.93,1.71,4.17,4.17,0,0,1-2.14.54,3.21,3.21,0,0,1-1.36-.26,1.36,1.36,0,0,1-.76-.75,1.65,1.65,0,0,1-1,.78,4.12,4.12,0,0,1-1.27.23,3.2,3.2,0,0,1-1.41-.28,1.68,1.68,0,0,1-.82-.75,2.53,2.53,0,0,1-1.32.77,7,7,0,0,1-2,.26c-.09,0-.13-.15-.13-.45v-.71c0-.32,0-.48.13-.48a11,11,0,0,0,1.53-.09,3,3,0,0,0,1.15-.45l.09-3.55h1.19l-.09,2.83q0,1.26,1.56,1.26a3.6,3.6,0,0,0,1.84-.39l-.13-4.54,1.19,0,.08,4.55a1.83,1.83,0,0,0,1.35.41,4.13,4.13,0,0,0,2.14-.43l-.35-5.39Zm-5.57-6.19,1.26,1-1,1.26-1.25-1Zm-1.23,2.68,1.26,1-1,1.25-1.25-1Zm2.49,0,1.26,1-1,1.25-1.25-1Zm21.67,9.57c.05,0,.08.05.11.15a1.06,1.06,0,0,1,0,.33v.71a1,1,0,0,1,0,.32c0,.09-.06.13-.11.13h-1.94a4.33,4.33,0,0,1-2.43-.56,4.16,4.16,0,0,1-1.28-1.43,10.46,10.46,0,0,0-2.29,1.32A6.13,6.13,0,0,0,290,301a4.43,4.43,0,0,0-.26.74,3.57,3.57,0,0,0-.07.76,3.75,3.75,0,0,0,1.32,3.07,5.62,5.62,0,0,0,3.62,1.08,11.23,11.23,0,0,0,3.91-.67l-.19,1.6a9.49,9.49,0,0,1-3.72.72,7.51,7.51,0,0,1-3.19-.65,5.3,5.3,0,0,1-2.14-1.82,5,5,0,0,1-.76-2.73,5.93,5.93,0,0,1,1-3.42,8,8,0,0,1,3-2.51c-.85-1.28-1.46-2.18-1.82-2.7a5,5,0,0,0-.76-1,.44.44,0,0,0-.41-.16l-.54.11.11-1.36a26.38,26.38,0,0,1,5.45-.46c2.24,0,3.36.47,3.36,1.39v.45a2.76,2.76,0,0,1-.48,1.24,9.62,9.62,0,0,1-1.12,1.53,6.67,6.67,0,0,1-1.19,1.13,3.41,3.41,0,0,0,.88.78,3.2,3.2,0,0,0,1.5.28ZM293.93,297a8,8,0,0,0,1.82-1.61,4.66,4.66,0,0,0,1.15-1.9c-.16-.26-1-.39-2.45-.39-.65,0-1.29,0-1.93.07a8.92,8.92,0,0,0-1.38.13,3.26,3.26,0,0,1,.78.84C292.27,294.56,292.94,295.51,293.93,297Zm21.34,1.49s.06.05.09.15a1.06,1.06,0,0,1,0,.33v.71a1,1,0,0,1,0,.32c0,.09-.06.13-.09.13a4.2,4.2,0,0,1-1.78-.32,2.6,2.6,0,0,1-1.12-1.15,7.22,7.22,0,0,1-2.66,1.06,18.12,18.12,0,0,1-4.14.41h-6.08c-.08,0-.13-.15-.13-.45v-.71c0-.32.05-.48.13-.48h1.95a12.19,12.19,0,0,0,.91-1.17,2.11,2.11,0,0,0,.37-.91,12.71,12.71,0,0,0,.11-2.08q0-1.73-.24-9l1.25-.21.15,8.07a8.61,8.61,0,0,1-.17,2.36,18.35,18.35,0,0,1,2.9-2.58,4.88,4.88,0,0,1,2.75-1,3.25,3.25,0,0,1,2.75,1.19,5.61,5.61,0,0,1,.93,3.49,4.72,4.72,0,0,1-.09.95,1.37,1.37,0,0,0,.8.73A4.39,4.39,0,0,0,315.27,298.46Zm-9.67,0a15.65,15.65,0,0,0,6.34-1.08,10.93,10.93,0,0,0-.18-2.17,2.51,2.51,0,0,0-.71-1.38,2.18,2.18,0,0,0-1.58-.52,5.36,5.36,0,0,0-3.05,1.41,23.41,23.41,0,0,0-3.7,3.74ZM320,289.59a2.47,2.47,0,0,1,2.46,1.71,9.76,9.76,0,0,1,.72,3.83,21.18,21.18,0,0,1-.11,2.46,3,3,0,0,1-.39,1.28,1.92,1.92,0,0,1-.87.65,7.58,7.58,0,0,1-2.12.45c-.85.09-2.31.13-4.39.13-.09,0-.13-.15-.13-.45v-.71c0-.32,0-.48.13-.48,1.95,0,3.4,0,4.37-.11a7.41,7.41,0,0,0,2.23-.43,9.58,9.58,0,0,0,.09-1.52,12.45,12.45,0,0,1-2.58.24,6.27,6.27,0,0,1-1.45-.15,1.83,1.83,0,0,1-1-.61,2.06,2.06,0,0,1-.33-.54,2.15,2.15,0,0,1-.08-.71,7.75,7.75,0,0,1,.34-2.19,5.06,5.06,0,0,1,1.11-2A2.56,2.56,0,0,1,320,289.59Zm-2.25,5.3a4.15,4.15,0,0,0,1.79.32A10.18,10.18,0,0,0,322,295q0-4-2.17-4a1.74,1.74,0,0,0-1.53,1.11A6.09,6.09,0,0,0,317.71,294.89Zm.75-10,1.26,1-1,1.27-1.27-1Zm2.51,0,1.28,1-1,1.27-1.25-1Zm26,13.57s.05.05.08.15a1,1,0,0,1,.05.33v.71a.93.93,0,0,1-.05.32c0,.09-.06.13-.08.13a7.69,7.69,0,0,1-2.58-.34,1.88,1.88,0,0,1-1.15-.91,1.4,1.4,0,0,1-.6.45,7.39,7.39,0,0,1-1,.35,17.91,17.91,0,0,1-2.49.41,28,28,0,0,1-2.9.15,20.05,20.05,0,0,1-3.7-.28,4.63,4.63,0,0,1-2.31-1.1,3,3,0,0,1-.83-2.28c0-.27.05-.73.13-1.38s.25-1.59.44-2.77l1.06.22a33.22,33.22,0,0,0-.48,3.7,1.68,1.68,0,0,0,.71,1.45,4.44,4.44,0,0,0,1.93.65,24.82,24.82,0,0,0,3,.15,34.8,34.8,0,0,0,3.83-.2,13,13,0,0,0,2.86-.62l-.33-4.07,1.23-.15.24,4.35a2.41,2.41,0,0,0,1.11.47A12.93,12.93,0,0,0,347,298.46Zm-11.47-8.53,1.25,1-1,1.28-1.28-1Zm2.51,0,1.27,1-1,1.28-1.26-1Zm14.1,2.47c.14,2.51.22,4.25.22,5.22a1.79,1.79,0,0,1-.29.95,2,2,0,0,1-.77.71,7.6,7.6,0,0,1-2,.63,13.69,13.69,0,0,1-2.34.19c-.09,0-.13-.15-.13-.45v-.71c0-.32,0-.48.13-.48a8.38,8.38,0,0,0,4.24-.8l-.37-5Zm-1-4.57,1.35,1.06-1,1.3-1.34-1.06Zm10.7,10.63s.06.05.09.15a1.49,1.49,0,0,1,0,.33v.71a1.32,1.32,0,0,1,0,.32c0,.09-.06.13-.09.13h-1a3.3,3.3,0,0,1-1.4-.28,2.37,2.37,0,0,1-1-.78v.46a5,5,0,0,1-1.58,3.42,12.86,12.86,0,0,1-4.45,2.94l-.85-1.23a14.71,14.71,0,0,0,4-2.36,5.41,5.41,0,0,0,1.8-2.47l-.63-5.8,1.28-.26.32,3.1a1.56,1.56,0,0,0,.76,1.23,3.54,3.54,0,0,0,1.75.39Zm7.28,0s.06.05.08.15a1,1,0,0,1,.05.33v.71a.93.93,0,0,1-.05.32c0,.09,0,.13-.08.13a6.86,6.86,0,0,1-2.4-.32,1.91,1.91,0,0,1-1.11-.95c-.49.85-1.74,1.27-3.76,1.27-.09,0-.13-.15-.13-.45v-.71c0-.32,0-.48.13-.48a9.47,9.47,0,0,0,1.84-.15,3.78,3.78,0,0,0,1.34-.56l-.39-4.38,1.23-.15.3,4.59A5.17,5.17,0,0,0,369.07,298.46Zm-5.41-9.83,1.25,1-1,1.28-1.28-1Zm2.51,0,1.27,1-1,1.28-1.26-1Zm10.17,9.83s.06.05.08.15a1,1,0,0,1,.05.33v.71a.93.93,0,0,1-.05.32c0,.09-.05.13-.08.13a7,7,0,0,1-2.41-.32,1.92,1.92,0,0,1-1.1-.95c-.49.85-1.74,1.27-3.76,1.27-.09,0-.13-.15-.13-.45v-.71c0-.32,0-.48.13-.48a9.47,9.47,0,0,0,1.84-.15,3.78,3.78,0,0,0,1.34-.56l-.39-4.38,1.23-.15.3,4.59A5.17,5.17,0,0,0,376.34,298.46Zm-4.18-9.91,1.34,1.06-1,1.3-1.34-1.06Zm9.33,3.85q.21,3.77.21,5.22a1.77,1.77,0,0,1-.28.95,1.93,1.93,0,0,1-.78.71,7.47,7.47,0,0,1-2,.63,13.65,13.65,0,0,1-2.33.19c-.09,0-.13-.15-.13-.45v-.71c0-.32,0-.48.13-.48a8.41,8.41,0,0,0,4.24-.8l-.37-5Zm-4.38,10.11,1.26,1-1,1.28-1.27-1Zm2.51,0,1.28,1-1,1.28-1.25-1Zm5.16-17.21,1.3-.21.19,15-1.1.18Zm4.41,19.33a14.71,14.71,0,0,0,4-2.36,5.41,5.41,0,0,0,1.8-2.47l-.63-5.8,1.28-.26c.14,1.44.25,2.64.32,3.59s.13,1.68.13,2.17a5,5,0,0,1-1.58,3.42,12.86,12.86,0,0,1-4.45,2.94ZM394.56,289,395.9,290l-1,1.3-1.34-1.06Zm4.59-3.68,1.3-.21.19,15-1.1.18ZM411,298.46c.09,0,.13.16.13.48v.71c0,.3,0,.45-.13.45h-.34a4.22,4.22,0,0,1-3-.93,4.12,4.12,0,0,1-1-2.94l-.26-10.93,1.3-.21.13,11.12q0,2.25,2.73,2.25Zm11.82,0s.08.05.11.15a1,1,0,0,1,.05.33v.71a.93.93,0,0,1-.05.32c0,.09-.06.13-.11.13a5.84,5.84,0,0,1-2.07-.28,2.15,2.15,0,0,1-1.09-1l-.1.73a2.17,2.17,0,0,1-.24.72,2.43,2.43,0,0,1-.52.6,1.12,1.12,0,0,1-.74.26,1.44,1.44,0,0,1-.65-.15l-3.78-1.67a2.63,2.63,0,0,1-2.1.78H411c-.09,0-.13-.15-.13-.45v-.71c0-.32,0-.48.13-.48h.76a2.48,2.48,0,0,0,.77-.09.9.9,0,0,0,.46-.32,4.23,4.23,0,0,0,.48-.85,18.2,18.2,0,0,1,1.14-2.16,3.42,3.42,0,0,1,1.06-1.06,2.46,2.46,0,0,1,1.3-.32,2.13,2.13,0,0,1,1.73.75,4.11,4.11,0,0,1,.87,1.73,5.11,5.11,0,0,0,.47,1.41,1.78,1.78,0,0,0,.91.69A5.87,5.87,0,0,0,422.85,298.46Zm-4.61,1.3a2.28,2.28,0,0,0,.29-.85,5.7,5.7,0,0,0,.1-1.1,3.66,3.66,0,0,0-.47-2,1.41,1.41,0,0,0-1.26-.76,1.46,1.46,0,0,0-.86.26,3.06,3.06,0,0,0-.76.89,17.74,17.74,0,0,0-1,1.82Zm17.4-7.36c.15,2.34.22,4.15.22,5.45a1.83,1.83,0,0,1-.93,1.71,4.21,4.21,0,0,1-2.15.54,3.21,3.21,0,0,1-1.36-.26,1.4,1.4,0,0,1-.76-.75,1.63,1.63,0,0,1-1,.78,4.18,4.18,0,0,1-1.28.23,3.2,3.2,0,0,1-1.41-.28,1.68,1.68,0,0,1-.82-.75,2.53,2.53,0,0,1-1.32.77,7,7,0,0,1-2,.26c-.09,0-.13-.15-.13-.45v-.71c0-.32,0-.48.13-.48a11.1,11.1,0,0,0,1.54-.09,2.84,2.84,0,0,0,1.14-.45l.09-3.55h1.19l-.09,2.83q0,1.26,1.56,1.26a3.57,3.57,0,0,0,1.84-.39l-.13-4.54,1.19,0,.09,4.55a1.82,1.82,0,0,0,1.34.41,4.11,4.11,0,0,0,2.14-.43l-.34-5.39Zm-5.56-6.19,1.25,1-1,1.26-1.26-1Zm-1.23,2.68,1.25,1-1,1.25-1.26-1Zm2.48,0,1.26,1-1,1.25-1.26-1Zm15.73,15.89a6.1,6.1,0,0,1-3.79-.95,3.44,3.44,0,0,1-1.19-2.88c0-.26.06-.82.17-1.69s.3-2,.5-3.27l.22-1.36,1.06.19a51.16,51.16,0,0,0-.8,6,1.88,1.88,0,0,0,1,1.77,5.85,5.85,0,0,0,2.84.57,13.83,13.83,0,0,0,3.09-.31,4.65,4.65,0,0,0,2.1-1l-.58-16.6,1.29-.21.39,16.94a1.66,1.66,0,0,1-.86,1.43,6.52,6.52,0,0,1-2.34,1A13.36,13.36,0,0,1,447.06,304.78Zm14-6.32c.08,0,.13.16.13.48v.71c0,.3,0,.45-.13.45h-.35a4.22,4.22,0,0,1-3-.93,4.16,4.16,0,0,1-1-2.94l-.26-10.93,1.29-.21.13,11.12q0,2.25,2.73,2.25Zm18.51,0c.08,0,.13.16.13.48v.71c0,.3-.05.45-.13.45a4.1,4.1,0,0,1-1.76-.32,2.65,2.65,0,0,1-1.12-1.13,7.53,7.53,0,0,1-2.66,1.06,19.15,19.15,0,0,1-4.12.39,21.79,21.79,0,0,1-3.07-.23,4.57,4.57,0,0,1-2.29-.87,3,3,0,0,1-1.5.82,7.14,7.14,0,0,1-2,.28c-.08,0-.13-.15-.13-.45v-.71c0-.32.05-.48.13-.48a9.57,9.57,0,0,0,1.47-.09,4.1,4.1,0,0,0,1.26-.41l0-3.44H465l-.09,3.2a1.47,1.47,0,0,0,.46.26,2.49,2.49,0,0,0,.58.15,28.58,28.58,0,0,1,2-2.44,19.49,19.49,0,0,1,2.9-2.6,5.14,5.14,0,0,1,3-1.19q3.68,0,3.68,4.68a4.91,4.91,0,0,1-.09,1C477.74,298.17,478.46,298.46,479.59,298.46Zm-9.61,0a15.85,15.85,0,0,0,6.34-1.08,10.93,10.93,0,0,0-.18-2.17,2.51,2.51,0,0,0-.71-1.38,2.18,2.18,0,0,0-1.58-.52,5.42,5.42,0,0,0-3.05,1.38,23.6,23.6,0,0,0-3.64,3.6A19.1,19.1,0,0,0,470,298.46Zm14.77-6.06q.21,3.77.21,5.22a1.77,1.77,0,0,1-.28.95,1.93,1.93,0,0,1-.78.71,7.47,7.47,0,0,1-2,.63,13.65,13.65,0,0,1-2.33.19c-.09,0-.13-.15-.13-.45v-.71c0-.32,0-.48.13-.48a8.41,8.41,0,0,0,4.24-.8l-.37-5Zm-2.23-4.48,1.25,1-1,1.27-1.28-1Zm2.51,0,1.27,1-1,1.27-1.26-1Zm3-2.62,1.3-.21.19,15-1.1.18ZM116.44,334.2a1,1,0,0,1-.78-.33,1.13,1.13,0,0,1-.31-.8,1.16,1.16,0,0,1,.31-.8,1.11,1.11,0,0,1,1.9.8,1.11,1.11,0,0,1-1.12,1.13Zm9-10q4,3.91,4,7.77c0,.76-.52,1.34-1.54,1.73a10.37,10.37,0,0,1-3.57.56,7.68,7.68,0,0,1-2.23-.24,1.68,1.68,0,0,1-1-.84,4.52,4.52,0,0,1-.26-1.73c0-.35,0-.62,0-.8l1,.06V331a3.22,3.22,0,0,0,.13,1.08.83.83,0,0,0,.63.37,11.33,11.33,0,0,0,1.73.08,13.62,13.62,0,0,0,2.32-.19,4.49,4.49,0,0,0,1.64-.52,7.35,7.35,0,0,0-1.06-3.33,14.6,14.6,0,0,0-2.7-3.29Zm14.92,8.31s.06,0,.09.15a1,1,0,0,1,0,.32v.72a1,1,0,0,1,0,.32c0,.09-.06.13-.09.13H138.4a6.84,6.84,0,0,1-2.14,3.44,11.7,11.7,0,0,1-3.83,2.32l-.84-1.24a13.9,13.9,0,0,0,3.72-2.07,5.74,5.74,0,0,0,2-2.67,11.46,11.46,0,0,1-2.47.22,6.34,6.34,0,0,1-1.45-.15,1.87,1.87,0,0,1-1-.61,1.76,1.76,0,0,1-.32-.54,2.11,2.11,0,0,1-.09-.71,7.75,7.75,0,0,1,.34-2.19,5.19,5.19,0,0,1,1.11-2,2.56,2.56,0,0,1,2-.84,2.48,2.48,0,0,1,2.44,1.66,9.72,9.72,0,0,1,.74,3.75Zm-7.18-.11a4.15,4.15,0,0,0,1.79.32,9.56,9.56,0,0,0,2.47-.24c0-2.66-.72-4-2.16-4a1.74,1.74,0,0,0-1.54,1.1A6.16,6.16,0,0,0,133.17,332.36Zm20-5.95c.14,2.33.21,4.15.21,5.45a1.83,1.83,0,0,1-.93,1.71,4.17,4.17,0,0,1-2.14.54,3.37,3.37,0,0,1-1.36-.26,1.35,1.35,0,0,1-.76-.76,1.65,1.65,0,0,1-1,.78,3.88,3.88,0,0,1-1.27.24,3.2,3.2,0,0,1-1.41-.28,1.7,1.7,0,0,1-.82-.76,2.6,2.6,0,0,1-1.32.78,7.37,7.37,0,0,1-2,.26c-.09,0-.13-.15-.13-.45v-.72c0-.31,0-.47.13-.47a10.94,10.94,0,0,0,1.53-.09,3,3,0,0,0,1.15-.45l.09-3.55h1.19l-.09,2.83q0,1.26,1.56,1.26a3.6,3.6,0,0,0,1.84-.39l-.13-4.55,1.19,0,.09,4.55a1.8,1.8,0,0,0,1.34.41,4.12,4.12,0,0,0,2.14-.44l-.35-5.38Zm-5.56-6.19,1.25,1-1,1.26-1.26-1Zm-1.24,2.68,1.26,1-1,1.25-1.25-1Zm2.49,0,1.26,1-1,1.25-1.25-1Zm20.49,9.57s.08,0,.11.15a1,1,0,0,1,0,.32v.72a1,1,0,0,1,0,.32c0,.09-.07.13-.11.13h-1a2.91,2.91,0,0,1,.17,1,3.33,3.33,0,0,1-2,3.2,11.11,11.11,0,0,1-5,1,6,6,0,0,1-3.79-.95,3.46,3.46,0,0,1-1.19-2.9c0-.26.06-.82.17-1.69s.3-2,.5-3.26l.21-1.37,1.07.22a52.28,52.28,0,0,0-.81,6,1.91,1.91,0,0,0,1,1.78,6,6,0,0,0,2.84.56,15.92,15.92,0,0,0,3.35-.3,4.33,4.33,0,0,0,2.25-1.15,5.61,5.61,0,0,0,.11-.87,1,1,0,0,0-.35-.82,2.48,2.48,0,0,0-1.15-.32c-.51-.05-1.33-.07-2.44-.07l.43-1.64Zm6-4.81a2.33,2.33,0,0,1,2,1.15,5.1,5.1,0,0,1,.78,3,6.93,6.93,0,0,1-.33,2.23,1.78,1.78,0,0,1-.67.89,1.14,1.14,0,0,1-.73.26,1.44,1.44,0,0,1-.65-.15L172,333.33a2.63,2.63,0,0,1-2.1.78h-.52c-.09,0-.13-.15-.13-.45v-.72c0-.31,0-.47.13-.47h.76a2.55,2.55,0,0,0,.78-.09,1.07,1.07,0,0,0,.45-.32,3.64,3.64,0,0,0,.48-.85,15.43,15.43,0,0,1,1.15-2.16A3.22,3.22,0,0,1,174,328,2.43,2.43,0,0,1,175.3,327.66Zm1.24,6.1a2.23,2.23,0,0,0,.28-.84,5.78,5.78,0,0,0,.11-1.1,3.55,3.55,0,0,0-.48-2,1.39,1.39,0,0,0-1.25-.76,1.49,1.49,0,0,0-.87.26,3.08,3.08,0,0,0-.76.89,17.74,17.74,0,0,0-1,1.82Zm7.36-14.45,1.3-.22.2,15-1.11.17Zm10.7,13.16s.06,0,.09.15a1,1,0,0,1,0,.32v.72a1,1,0,0,1,0,.32c0,.09-.06.13-.09.13h-1a3.37,3.37,0,0,1-1.4-.28,2.54,2.54,0,0,1-1-.78v.46a5,5,0,0,1-1.58,3.41,12.78,12.78,0,0,1-4.45,2.95l-.85-1.24a14.71,14.71,0,0,0,4-2.35,5.41,5.41,0,0,0,1.8-2.47l-.63-5.8,1.28-.26.32,3.09a1.58,1.58,0,0,0,.76,1.24,3.54,3.54,0,0,0,1.75.39Zm4-6.6a3.77,3.77,0,0,1,1.28.26c.49.15,1.18.42,2.07.8,1.25.5,2.3.89,3.16,1.16a8.13,8.13,0,0,0,2.49.42l-.24,1.51a8.28,8.28,0,0,0-2.59.52A18.05,18.05,0,0,0,202,332a19.05,19.05,0,0,1-3.25,1.6,10.34,10.34,0,0,1-3.48.54h-.65c-.09,0-.13-.15-.13-.45v-.72c0-.31,0-.47.13-.47h.82a10,10,0,0,0,2.75-.39,17.64,17.64,0,0,0,3-1.28l.86-.45c.68-.35,1.18-.6,1.52-.74a6.29,6.29,0,0,1,1-.32,24,24,0,0,1-3.18-1.09c-.75-.3-1.35-.52-1.8-.67a3.15,3.15,0,0,0-1-.24,1,1,0,0,0-.87.39,3.48,3.48,0,0,0-.41,1.26l-1-.17a5.84,5.84,0,0,1,.8-2.17A1.76,1.76,0,0,1,198.59,325.87Zm2.6,10.64,1.34,1.06-1,1.3-1.34-1.06Zm9.15-17.2,1.3-.22.2,15-1.11.17Zm11.88,13.16c.09,0,.13.16.13.47v.72c0,.3,0,.45-.13.45h-.34a4.22,4.22,0,0,1-3-.93,4.12,4.12,0,0,1-1-2.94l-.26-10.93,1.3-.22.13,11.13c0,1.5.92,2.25,2.73,2.25Zm11.82,0c.05,0,.08,0,.11.15a.93.93,0,0,1,0,.32v.72a1,1,0,0,1,0,.32c0,.09-.06.13-.11.13a5.84,5.84,0,0,1-2.07-.28,2.07,2.07,0,0,1-1.08-1l-.11.74a1.85,1.85,0,0,1-.24.71,2.25,2.25,0,0,1-.52.61,1.17,1.17,0,0,1-.74.26,1.47,1.47,0,0,1-.65-.15l-3.78-1.67a2.63,2.63,0,0,1-2.1.78h-.52c-.09,0-.13-.15-.13-.45v-.72c0-.31,0-.47.13-.47H223a2.6,2.6,0,0,0,.78-.09,1.07,1.07,0,0,0,.45-.32,4.54,4.54,0,0,0,.48-.85,16.72,16.72,0,0,1,1.14-2.16A3.32,3.32,0,0,1,226.9,328a2.46,2.46,0,0,1,1.3-.33,2.11,2.11,0,0,1,1.73.76,4.11,4.11,0,0,1,.87,1.73,5.11,5.11,0,0,0,.47,1.41,1.78,1.78,0,0,0,.91.69A6.18,6.18,0,0,0,234,332.47Zm-4.6,1.29a2.23,2.23,0,0,0,.28-.84,5.77,5.77,0,0,0,.1-1.1,3.55,3.55,0,0,0-.47-2,1.39,1.39,0,0,0-1.26-.76,1.46,1.46,0,0,0-.86.26,2.93,2.93,0,0,0-.76.89,17.74,17.74,0,0,0-1,1.82Zm17.39-7.35c.15,2.33.22,4.15.22,5.45a1.83,1.83,0,0,1-.93,1.71,4.2,4.2,0,0,1-2.14.54,3.42,3.42,0,0,1-1.37-.26,1.36,1.36,0,0,1-.75-.76,1.65,1.65,0,0,1-1,.78,3.93,3.93,0,0,1-1.28.24,3.15,3.15,0,0,1-1.4-.28,1.72,1.72,0,0,1-.83-.76,2.6,2.6,0,0,1-1.32.78,7.32,7.32,0,0,1-2,.26c-.08,0-.13-.15-.13-.45v-.72c0-.31.05-.47.13-.47a11.1,11.1,0,0,0,1.54-.09,3,3,0,0,0,1.15-.45l.08-3.55H238l-.08,2.83q0,1.26,1.56,1.26a3.56,3.56,0,0,0,1.83-.39l-.13-4.55,1.2,0,.08,4.55a1.82,1.82,0,0,0,1.34.41A4.16,4.16,0,0,0,246,332l-.35-5.38Zm-5.56-6.19,1.26,1-1,1.26-1.25-1ZM240,322.9l1.25,1-1,1.25-1.26-1Zm2.49,0,1.25,1-1,1.25-1.26-1Zm13.77,11.32a3.91,3.91,0,0,1-2.16-.58,2.25,2.25,0,0,1-.87-2,4.4,4.4,0,0,1,.72-2.21,13.21,13.21,0,0,1,1.75-2.36l-.89-.65.74-1.1a11.31,11.31,0,0,1,3.31,3.07,6.23,6.23,0,0,1,1.19,3.61,2.51,2.51,0,0,1-.26,1.22,4.85,4.85,0,0,1-.3.41.68.68,0,0,1-.31.23,3.49,3.49,0,0,1-1.12.26A17.55,17.55,0,0,1,256.3,334.22Zm0-1.65c.72,0,1.27,0,1.63,0a6.48,6.48,0,0,0,1-.15,6,6,0,0,0-.41-2.31,5.53,5.53,0,0,0-1.95-2.32,8.58,8.58,0,0,0-1.53,1.88,3.81,3.81,0,0,0-.69,1.69C254.38,332.16,255,332.57,256.34,332.57Zm11.32-.1c.09,0,.13.16.13.47v.72c0,.3,0,.45-.13.45h-.35a4.21,4.21,0,0,1-3-.93,4.12,4.12,0,0,1-1-2.94L263,319.31l1.3-.22.13,11.13c0,1.5.92,2.25,2.72,2.25Zm4.64-13.55q-1.71.74-4.2,2l.11-1.19c1.37-.72,2.69-1.35,4-1.88Zm5.24,13.55s.07,0,.1.15a.93.93,0,0,1,.05.32v.72a1,1,0,0,1-.05.32c0,.09-.06.13-.1.13h-1.13c-1.27,0-2.06-.42-2.36-1.28-.86.86-3,1.28-6.38,1.28-.09,0-.13-.15-.13-.45v-.72c0-.31,0-.47.13-.47a28.83,28.83,0,0,0,3.35-.18,8.6,8.6,0,0,0,2.36-.56,9.16,9.16,0,0,0-.61-3.07,8,8,0,0,0-1.68-2.62,16.68,16.68,0,0,0-3.1-2.55l.11-1.48c1.27-.62,2.45-1.16,3.55-1.62s2.27-.91,3.48-1.3l.18,1.39a33.48,33.48,0,0,0-5.8,2.38,1.24,1.24,0,0,1,.28.19,11.29,11.29,0,0,1,3.66,4,10.47,10.47,0,0,1,1.06,4.09,1.5,1.5,0,0,0,.56,1.06,2.69,2.69,0,0,0,1.28.24Zm7.35,0s.06,0,.09.15a1,1,0,0,1,0,.32v.72a1,1,0,0,1,0,.32c0,.09-.06.13-.09.13a7.11,7.11,0,0,1-2.4-.32,1.87,1.87,0,0,1-1.1-1c-.49.86-1.75,1.28-3.77,1.28-.09,0-.13-.15-.13-.45v-.72c0-.31,0-.47.13-.47a8.61,8.61,0,0,0,1.84-.16,3.54,3.54,0,0,0,1.34-.56l-.39-4.37,1.24-.15.3,4.59A5.11,5.11,0,0,0,284.89,332.47Zm-5.41-9.83,1.26,1-1,1.27-1.28-1Zm2.51,0,1.28,1-1,1.27-1.25-1Zm15.69,3.77c.15,2.33.22,4.15.22,5.45a1.83,1.83,0,0,1-.93,1.71,4.21,4.21,0,0,1-2.15.54,3.37,3.37,0,0,1-1.36-.26,1.38,1.38,0,0,1-.76-.76,1.63,1.63,0,0,1-1,.78,3.93,3.93,0,0,1-1.28.24,3.2,3.2,0,0,1-1.41-.28,1.7,1.7,0,0,1-.82-.76,2.6,2.6,0,0,1-1.32.78,7.32,7.32,0,0,1-2,.26c-.09,0-.13-.15-.13-.45v-.72c0-.31,0-.47.13-.47a11.1,11.1,0,0,0,1.54-.09,2.84,2.84,0,0,0,1.14-.45l.09-3.55h1.19l-.09,2.83q0,1.26,1.56,1.26a3.57,3.57,0,0,0,1.84-.39l-.13-4.55,1.19,0,.09,4.55a1.82,1.82,0,0,0,1.34.41,4.1,4.1,0,0,0,2.14-.44l-.34-5.38Zm7.85-2.25q4.05,3.91,4.05,7.77c0,.76-.52,1.34-1.54,1.73a10.37,10.37,0,0,1-3.57.56,7.73,7.73,0,0,1-2.23-.24,1.68,1.68,0,0,1-1-.84,4.52,4.52,0,0,1-.26-1.73,7.91,7.91,0,0,1,0-.8l1,.06V331a3.22,3.22,0,0,0,.13,1.08.83.83,0,0,0,.63.37,11.33,11.33,0,0,0,1.73.08,13.54,13.54,0,0,0,2.32-.19,4.49,4.49,0,0,0,1.64-.52,7.35,7.35,0,0,0-1.06-3.33,14.6,14.6,0,0,0-2.7-3.29Zm14.79,14.63a6,6,0,0,1-3.79-1,3.43,3.43,0,0,1-1.19-2.87c0-.26.06-.83.17-1.69s.3-2,.5-3.27l.22-1.36,1.06.19a50.89,50.89,0,0,0-.8,6,1.9,1.9,0,0,0,1,1.77,5.89,5.89,0,0,0,2.84.56,15.38,15.38,0,0,0,3.29-.3,4.35,4.35,0,0,0,2.23-1.13,3.76,3.76,0,0,0,.28-1.25,1.35,1.35,0,0,0-1.28-1.49l-1.06-.11q-.94-.09-1.41-.18a1.52,1.52,0,0,1-.71-.34,1,1,0,0,1-.26-.74,9.66,9.66,0,0,1,.54-3.18,6.92,6.92,0,0,1,1.52-2.53,2.84,2.84,0,0,1,2.07-1,2.31,2.31,0,0,1,1.41.48,4.19,4.19,0,0,1,1.13,1.13l-.72.82a2.74,2.74,0,0,0-1.84-1,2,2,0,0,0-1.43.7,5.06,5.06,0,0,0-1.06,1.79,8.23,8.23,0,0,0-.45,2.36,14.87,14.87,0,0,1,2.68.35,2.5,2.5,0,0,1,1.47.84,2.89,2.89,0,0,1,.52,1.88,3.62,3.62,0,0,1-1.94,3.49A10.7,10.7,0,0,1,320.32,338.79Zm13.4-11.73a2.47,2.47,0,0,1,2.46,1.71,9.76,9.76,0,0,1,.72,3.83,6.14,6.14,0,0,1-1.8,4.37,11.55,11.55,0,0,1-4.37,2.9l-.85-1.24a14,14,0,0,0,3.73-2.07,5.74,5.74,0,0,0,2-2.67,11.53,11.53,0,0,1-2.47.22,6.27,6.27,0,0,1-1.45-.15,1.83,1.83,0,0,1-1-.61,2.06,2.06,0,0,1-.33-.54,2.47,2.47,0,0,1-.08-.71,7.75,7.75,0,0,1,.34-2.19,5.06,5.06,0,0,1,1.11-2A2.56,2.56,0,0,1,333.72,327.06Zm-2.26,5.3a4.24,4.24,0,0,0,1.8.32,9.61,9.61,0,0,0,2.47-.24c0-2.66-.72-4-2.17-4a1.74,1.74,0,0,0-1.53,1.1A6.15,6.15,0,0,0,331.46,332.36Zm5.57,6.27a11.08,11.08,0,0,0,3.27-2.31,6.11,6.11,0,0,0,1.58-2.51l-.63-5.8,1.28-.26c.14,1.44.25,2.64.33,3.59s.13,1.67.13,2.17a5.43,5.43,0,0,1-1.35,3.41,11,11,0,0,1-3.76,2.95Zm19.39-6.16s.06,0,.09.15a1,1,0,0,1,0,.32v.72a1,1,0,0,1,0,.32c0,.09-.06.13-.09.13h-1a3.38,3.38,0,0,1-1.41-.28,2.5,2.5,0,0,1-1-.78v.46a5,5,0,0,1-1.58,3.41,12.92,12.92,0,0,1-4.46,2.95l-.85-1.24a14.94,14.94,0,0,0,4-2.35,5.45,5.45,0,0,0,1.79-2.47l-.63-5.8,1.28-.26.33,3.09a1.57,1.57,0,0,0,.75,1.24,3.55,3.55,0,0,0,1.76.39Zm5.16-6.06c.14,2.51.22,4.25.22,5.21a1.76,1.76,0,0,1-.29.95,2,2,0,0,1-.77.72,8.44,8.44,0,0,1-2,.63,13.77,13.77,0,0,1-2.34.19c-.09,0-.13-.15-.13-.45v-.72c0-.31,0-.47.13-.47a8.41,8.41,0,0,0,4.24-.8l-.37-5Zm-3.14,10.1,1.34,1.06-1,1.3-1.34-1.06Zm24.63-4s.08,0,.11.15a1.32,1.32,0,0,1,0,.32v.72a1.39,1.39,0,0,1,0,.32c0,.09-.07.13-.11.13h-.54c-1.66,0-2.73-.43-3.21-1.3.09,1.39.13,2.46.13,3.23a1.77,1.77,0,0,1-.88,1.45,6.38,6.38,0,0,1-2.36.95,14,14,0,0,1-3.21.35,6,6,0,0,1-3.78-1A3.4,3.4,0,0,1,368,335a15,15,0,0,1,.17-1.69c.13-.88.3-2,.5-3.27l.21-1.36,1.06.19a53.32,53.32,0,0,0-.8,6,1.91,1.91,0,0,0,1,1.77,5.85,5.85,0,0,0,2.83.56q3.9,0,5.35-1.25l-.71-8.29,1.27-.26.31,3.42a1.62,1.62,0,0,0,.47,1.12,2.28,2.28,0,0,0,1.06.46,11,11,0,0,0,1.71.11Zm-9.5-8.51,1.34,1.06-1,1.3-1.34-1.06Zm14.66,2.45c.14,2.51.22,4.25.22,5.21a1.76,1.76,0,0,1-.29.95,2,2,0,0,1-.78.72,8.21,8.21,0,0,1-2,.63,13.77,13.77,0,0,1-2.34.19c-.09,0-.13-.15-.13-.45v-.72c0-.31,0-.47.13-.47a8.41,8.41,0,0,0,4.24-.8l-.37-5Zm-4.37,10.1,1.25,1-1,1.28-1.28-1Zm2.51,0,1.27,1-1,1.28-1.26-1Zm15.56-4c.05,0,.08,0,.11.15a1,1,0,0,1,0,.32v.72a1,1,0,0,1,0,.32c0,.09-.06.13-.11.13h-.56a8,8,0,0,1-2.6-.32,2.11,2.11,0,0,1-1.19-1.19,6,6,0,0,1-2.59,1.75,18,18,0,0,1-3.92,1.08l-.2-1.64A19.29,19.29,0,0,0,395,332.6a4.59,4.59,0,0,0,2-1.39l-.43-11.9,1.29-.22.28,11.69a1.6,1.6,0,0,0,.39,1.1,1.93,1.93,0,0,0,1.06.48,12.33,12.33,0,0,0,1.82.11Zm-8.87-.54a30.79,30.79,0,0,0-.59-5.61,14.44,14.44,0,0,0-1.94-5.3l1-.87a18.6,18.6,0,0,1,2,5.61,30.17,30.17,0,0,1,.62,5.88Zm13.56-8.34a2.48,2.48,0,0,1,2.47,1.71,9.79,9.79,0,0,1,.72,3.83,21.25,21.25,0,0,1-.11,2.47,3.07,3.07,0,0,1-.39,1.28,1.92,1.92,0,0,1-.87.65,8.47,8.47,0,0,1-2.12.45c-.85.09-2.31.13-4.39.13-.09,0-.13-.15-.13-.45v-.72c0-.31,0-.47.13-.47,1.95,0,3.4,0,4.37-.11a7.48,7.48,0,0,0,2.23-.43,9.67,9.67,0,0,0,.09-1.52,12.45,12.45,0,0,1-2.58.24,6.27,6.27,0,0,1-1.45-.15,1.83,1.83,0,0,1-1-.61,2.06,2.06,0,0,1-.33-.54,2.51,2.51,0,0,1-.08-.71,7.75,7.75,0,0,1,.34-2.19,5.06,5.06,0,0,1,1.11-2A2.57,2.57,0,0,1,406.62,323.59Zm-2.25,5.31a4.24,4.24,0,0,0,1.8.32,9.67,9.67,0,0,0,2.47-.24q0-4-2.17-4a1.74,1.74,0,0,0-1.53,1.1A6.15,6.15,0,0,0,404.37,328.9Zm2-10.09,1.34,1.06-1,1.3-1.34-1.06Zm6.52,3.53,1.3-.22.19,12-1.1.17Zm2.68-2.1a15.64,15.64,0,0,1-2.18-.17q-.78-.09-1-.09a1.09,1.09,0,0,0-.69.17,1.8,1.8,0,0,0-.34.76l-.91-.24a3.25,3.25,0,0,1,.69-1.56,1.71,1.71,0,0,1,1.25-.41c.18,0,.58,0,1.22.09.93.1,1.61.15,2,.15h.91l-.26,1.3ZM435,326.41c.15,2.62.22,4.39.22,5.3a1.77,1.77,0,0,1-1.32,1.69,11.44,11.44,0,0,1-2.68.6,30,30,0,0,1-3.9.22,20.05,20.05,0,0,1-3.7-.28,4.55,4.55,0,0,1-2.31-1.11,3,3,0,0,1-.83-2.27c0-.27.05-.73.13-1.38s.25-1.59.44-2.77l1.06.21a33.52,33.52,0,0,0-.48,3.7,1.76,1.76,0,0,0,.54,1.35,3.79,3.79,0,0,0,1.75.69,21.08,21.08,0,0,0,3.36.21q4.94,0,6.79-.84l-.34-5.08Zm-8.41-2.47,1.25,1-1,1.27-1.28-1Zm2.51,0,1.27,1-1,1.27-1.26-1Zm5.32,14.69a14.71,14.71,0,0,0,4-2.35,5.41,5.41,0,0,0,1.8-2.47l-.63-5.8,1.28-.26c.14,1.44.25,2.64.32,3.59s.13,1.67.13,2.17a5,5,0,0,1-1.58,3.41,12.83,12.83,0,0,1-4.46,2.95Zm18.23-6.16s.05,0,.08.15a.93.93,0,0,1,.05.32v.72a1,1,0,0,1-.05.32c0,.09,0,.13-.08.13h-1.95a6.91,6.91,0,0,1-2.14,3.44,11.91,11.91,0,0,1-3.83,2.32l-.85-1.24a14,14,0,0,0,3.73-2.07,5.81,5.81,0,0,0,2-2.67,11.53,11.53,0,0,1-2.47.22,6.27,6.27,0,0,1-1.45-.15,1.83,1.83,0,0,1-1-.61,2.06,2.06,0,0,1-.33-.54,2.11,2.11,0,0,1-.09-.71,7.78,7.78,0,0,1,.35-2.19,5.17,5.17,0,0,1,1.1-2,2.58,2.58,0,0,1,2-.84,2.49,2.49,0,0,1,2.45,1.66,9.53,9.53,0,0,1,.73,3.75Zm-7.19-.11a4.2,4.2,0,0,0,1.8.32,9.67,9.67,0,0,0,2.47-.24c0-2.66-.73-4-2.17-4a1.74,1.74,0,0,0-1.53,1.1A6.15,6.15,0,0,0,445.5,332.36Zm19.94-6.45q3.68,0,3.68,4.67a2.55,2.55,0,0,1-.5,1.84,6.29,6.29,0,0,1-2.66,1.22,18.25,18.25,0,0,1-4.42.47,20.44,20.44,0,0,1-3.07-.24,4.57,4.57,0,0,1-2.29-.86,3.06,3.06,0,0,1-1.5.82,7.14,7.14,0,0,1-2,.28c-.08,0-.13-.15-.13-.45v-.72c0-.31.05-.47.13-.47a9.57,9.57,0,0,0,1.47-.09,4.39,4.39,0,0,0,1.26-.41l0-3.44h1.19l-.09,3.2a1.7,1.7,0,0,0,.46.26,4.16,4.16,0,0,0,.58.15,27.1,27.1,0,0,1,2-2.44,19,19,0,0,1,2.9-2.6A5.17,5.17,0,0,1,465.44,325.91Zm-3.85,6.56a15.66,15.66,0,0,0,6.34-1.09,10.9,10.9,0,0,0-.18-2.16,2.47,2.47,0,0,0-.71-1.38,2.18,2.18,0,0,0-1.58-.52,5.42,5.42,0,0,0-3,1.38,23.5,23.5,0,0,0-3.64,3.59A17.63,17.63,0,0,0,461.59,332.47Zm22.35,0s.07,0,.1.15a.93.93,0,0,1,0,.32v.72a1,1,0,0,1,0,.32c0,.09-.06.13-.1.13h-.44a3.87,3.87,0,0,1-1.75-.35,1.91,1.91,0,0,1-1-1.21c-.12.26-.44.46-1,.61a7.24,7.24,0,0,1-1.88.22,3.65,3.65,0,0,1-1.8-.46,1.51,1.51,0,0,1-.8-1.41,4.68,4.68,0,0,1,1.19-3.24,5.93,5.93,0,0,1,3.31-1.75l-.17-1.37,1.23-.37.48,5.2a9.34,9.34,0,0,0,.22,1.47,1.37,1.37,0,0,0,.54.76,2.35,2.35,0,0,0,1.23.26Zm-5.89-.61a6.87,6.87,0,0,0,1.21-.09,8.67,8.67,0,0,0,1.1-.3l-.38-3.7a4.42,4.42,0,0,0-2,.78,3.82,3.82,0,0,0-1.19,1.36,4.08,4.08,0,0,0-.41,1.47,1.86,1.86,0,0,0,.69.35A3.56,3.56,0,0,0,478.05,331.86Zm11-5.45c.14,2.51.21,4.25.21,5.21a1.75,1.75,0,0,1-.28.95,2,2,0,0,1-.78.72,8.36,8.36,0,0,1-2,.63,13.69,13.69,0,0,1-2.34.19c-.09,0-.13-.15-.13-.45v-.72c0-.31,0-.47.13-.47a8.41,8.41,0,0,0,4.24-.8l-.37-5Zm-3.14,10.1,1.34,1.06-1,1.3-1.34-1.06Z"/><circle class="cls-3" cx="546.59" cy="312.47" r="30.92"/><path class="cls-4" d="M530.21,308.45l16.38,16.39L563,308.45A23,23,0,0,0,530.21,308.45Z"/><path d="M534.23,326.38a1.41,1.41,0,0,1-1.09-.46,1.52,1.52,0,0,1,0-2.17L557.88,299a1.53,1.53,0,1,1,2.16,2.17l-24.73,24.73A1.4,1.4,0,0,1,534.23,326.38Z"/><path class="cls-3" d="M536.39,328.55a1.41,1.41,0,0,1-1.08-.47,1.49,1.49,0,0,1,0-2.16L560,301.19a1.53,1.53,0,1,1,2.16,2.16l-24.73,24.73A1.41,1.41,0,0,1,536.39,328.55Z"/><path class="cls-3" d="M102.52,377.33l-2.82,15.5H95.48L94,385.9q-.25-1.14-.78-4-.41,2.47-.78,4L91,392.83H86.78l-2.92-15.5h3.47l1.14,7.28c.1.64.22,1.45.35,2.42s.24,1.8.32,2.55c.09-.37.3-1.45.63-3.22.09-.41.15-.75.2-1s.1-.53.15-.71l1.71-7.28h2.92l1.71,7.28q.26,1.25.45,2.31c.28,1.42.46,2.3.54,2.66.35-2.61.58-4.27.7-5l1.12-7.25Zm5.63,15.5h-3.37v-15.5h3.37Zm3.71,0v-15.5h9.78V380h-6.41v3.89h5.48v2.71h-5.48v6.19Zm15.82,0H124.3v-15.5h3.38Zm12.3,5.11a6.63,6.63,0,0,1-4.35-1.15,4.29,4.29,0,0,1-1.32-3.42,30.19,30.19,0,0,1,.5-3.68l.54-3.48,2.21.47a60.24,60.24,0,0,0-.85,6.15,1.21,1.21,0,0,0,1,1.17,7.45,7.45,0,0,0,2.29.32,18.09,18.09,0,0,0,2.6-.17,6.58,6.58,0,0,0,1.95-.59l-.93-8.07,2.77-.56q.62,6.27.62,9.35a2.49,2.49,0,0,1-1.16,2.1,7.85,7.85,0,0,1-2.82,1.19A14.06,14.06,0,0,1,140,397.94Zm.05-17.77,2.42,1.95-1.86,2.25-2.43-1.95Zm15.23.82a17,17,0,0,1,3.31,4.24,8.71,8.71,0,0,1,1.14,4.07,2.94,2.94,0,0,1-1.62,2.81,9.08,9.08,0,0,1-4.24.85,8.36,8.36,0,0,1-2.49-.3A2.48,2.48,0,0,1,150,391.6a4.15,4.15,0,0,1-.43-2.06c0-.27,0-.9.08-1.88l2.21.17v.56a1.07,1.07,0,0,0,.15.65.81.81,0,0,0,.54.26c.28,0,.73,0,1.37,0,.44,0,1,0,1.66-.08a11.88,11.88,0,0,0,1.65-.28c-.23-1.53-1.5-3.4-3.79-5.61Zm14.39,8.25c.06,0,.1.08.13.26a2.15,2.15,0,0,1,.07.6V392a2.25,2.25,0,0,1-.07.62c0,.16-.07.24-.13.24h-.71a3,3,0,0,1-1.19-.24,2.63,2.63,0,0,1-.95-.73,6.9,6.9,0,0,1-1.67,4.22,14.56,14.56,0,0,1-5.06,3.52l-1.91-2.74a19.52,19.52,0,0,0,4.27-2.41,6.81,6.81,0,0,0,1.92-2.29l-.91-6.6,2.86-.58.32,2.87a1.35,1.35,0,0,0,.63,1.09,3.94,3.94,0,0,0,1.69.28Zm4.25-7.86a11.83,11.83,0,0,1,3,3.85,9.52,9.52,0,0,1,1,4.11,2.66,2.66,0,0,1-.89,2.1,5.49,5.49,0,0,1-2.64,1.09,27.67,27.67,0,0,1-4.67.32c-.06,0-.1-.08-.13-.24a2.25,2.25,0,0,1-.07-.62V390.1a2.15,2.15,0,0,1,.07-.6c0-.18.07-.26.13-.26a31,31,0,0,0,5.71-.39,7.18,7.18,0,0,0-1.65-3.47,13.77,13.77,0,0,0-3.74-3.22l.11-2.9c1.27-.59,2.54-1.12,3.81-1.58s2.67-.91,4.17-1.34l.39,3a41.93,41.93,0,0,0-5.12,1.65Zm26,7.86c.06,0,.11.08.15.26a2.6,2.6,0,0,1,.07.6V392a2.6,2.6,0,0,1-.07.6c0,.17-.09.26-.15.26h-.28a3.72,3.72,0,0,1-1.67-.37,3,3,0,0,1-1.21-1.25c.07,1.3.11,2.31.11,3a2.48,2.48,0,0,1-1.17,2.1,7.88,7.88,0,0,1-2.81,1.19,14.2,14.2,0,0,1-3,.37,6.63,6.63,0,0,1-4.35-1.15,4.29,4.29,0,0,1-1.32-3.42,29.38,29.38,0,0,1,.49-3.68l.55-3.48,2.2.47a58.87,58.87,0,0,0-.84,6.15,1.2,1.2,0,0,0,1,1.17,7.51,7.51,0,0,0,2.3.32,17.94,17.94,0,0,0,2.59-.17,6.58,6.58,0,0,0,1.95-.59l-.93-8.07,2.77-.56.33,2.66a2,2,0,0,0,.38,1.15,1.42,1.42,0,0,0,.85.43,16,16,0,0,0,1.84.07Zm-10-9.07,2.42,1.95-1.86,2.25L188,382.42Zm25.38,3.44c.15,2.06.22,3.9.22,5.5a3.83,3.83,0,0,1-.52,2.07,3.07,3.07,0,0,1-1.34,1.26,4,4,0,0,1-1.78.41,5,5,0,0,1-1.84-.3,2.07,2.07,0,0,1-1.12-1.06,2.18,2.18,0,0,1-1.1,1.08,3.52,3.52,0,0,1-1.32.28,2.74,2.74,0,0,1-2.64-1.38,2.83,2.83,0,0,1-1.56,1.1,8.83,8.83,0,0,1-2.36.28c-.06,0-.1-.08-.13-.24a2.72,2.72,0,0,1-.07-.62V390.1a2.6,2.6,0,0,1,.07-.6c0-.18.07-.26.13-.26a7.82,7.82,0,0,0,2.64-.39v-3H205l0,2.29a1.14,1.14,0,0,0,.23.87,1.23,1.23,0,0,0,.85.26,5,5,0,0,0,1.64-.26l-.17-3.94,2.49-.09.08,4.11a2.61,2.61,0,0,0,1.07.18A5.1,5.1,0,0,0,213,389l-.51-4.87ZM208,375.69l2.06,1.67-1.67,2.07-2.07-1.66Zm-1.64,3.66,2.08,1.66-1.67,2.08-2.08-1.67Zm3.44,0,2.08,1.66-1.67,2.08-2.08-1.67Zm12.49,4.74a3,3,0,0,1,2.14.84,5.32,5.32,0,0,1,1.39,2.29,10.22,10.22,0,0,1,.47,3.16,9.4,9.4,0,0,1-1.6,5.35,11,11,0,0,1-5.26,3.89l-1.88-2.74a13.6,13.6,0,0,0,3.51-1.84,9.43,9.43,0,0,0,2.33-2.3,14.22,14.22,0,0,1-1.73.11,12.57,12.57,0,0,1-1.43-.06,2.12,2.12,0,0,1-.8-.31,3.8,3.8,0,0,1-.69-.73,5,5,0,0,1-.5-.85,2.91,2.91,0,0,1-.11-.88,8.91,8.91,0,0,1,.46-2.93,4.93,4.93,0,0,1,1.38-2.18A3.38,3.38,0,0,1,222.3,384.09Zm-1.84,5.64a11.1,11.1,0,0,0,1.75.16,9.59,9.59,0,0,0,1.71-.13,3.33,3.33,0,0,0-.5-2,1.55,1.55,0,0,0-1.32-.69,1.37,1.37,0,0,0-1.19.72A3.58,3.58,0,0,0,220.46,389.73Zm4.74,7.15a19.17,19.17,0,0,0,4.26-2.41,6.73,6.73,0,0,0,1.93-2.29l-.91-6.6,2.86-.58c.18,1.63.31,2.92.38,3.89s.13,1.81.13,2.53a7.12,7.12,0,0,1-1.53,4.5,14.1,14.1,0,0,1-5.22,3.7Z"/></g></svg>