<svg xmlns="http://www.w3.org/2000/svg" viewBox="0 0 648 648"><defs><style>.cls-1{fill:#e5e5e5;}.cls-2{fill:#ff5c35;}.cls-3{fill:#fff;}</style></defs><g id="Background"><rect class="cls-1" x="135.37" y="55.36" width="397.27" height="557.28"/></g><g id="Graphic"><rect class="cls-2" x="122.76" y="45.36" width="402.48" height="557.28"/><path class="cls-3" d="M339.65,353.05l-5-9.39-2.61.63-.18,10.63A1.16,1.16,0,0,0,333,356.1h0a1.15,1.15,0,0,0,1.15-1.14l0-.89,3-.72.42.79a1.16,1.16,0,1,0,2-1.09Zm-5.42-1.37.06-3.78,1.78,3.34Z"/><path class="cls-3" d="M353.38,346.53l-5.31-9.16-2,1.16,1.15,6.59-5.15-4.27-2,1.15,5.31,9.17a1.14,1.14,0,0,0,1,.57,1.19,1.19,0,0,0,.58-.15,1.16,1.16,0,0,0,.42-1.58l-1.95-3.37,2.71,2.26,1.89-1.1-.6-3.48,1.95,3.37a1.16,1.16,0,0,0,2-1.16Z"/><path class="cls-3" d="M325.16,354.32h-3.47v-9.24h-2.31v11.55h5.78a1.16,1.16,0,0,0,0-2.31Z"/><path class="cls-3" d="M310.21,342.65l-5.75,9a1.15,1.15,0,1,0,1.94,1.25l.49-.75,2.93,1-.06.89a1.15,1.15,0,0,0,1.08,1.23h.08a1.16,1.16,0,0,0,1.15-1.08l.69-10.62Zm-2,7.44,2-3.18-.24,3.77Z"/><path class="cls-3" d="M296.63,348.37a3.24,3.24,0,0,1-1.85-.58,3.28,3.28,0,0,1-.84-4.55,1.15,1.15,0,1,1,1.9,1.31,1,1,0,0,0,1.59,1.09l.33-.48a1,1,0,0,0-.25-1.33,3.29,3.29,0,0,1-.84-4.56l.33-.47a3.27,3.27,0,0,1,5.39,3.71,1.15,1.15,0,1,1-1.9-1.31,1,1,0,0,0,.15-.72,1,1,0,0,0-.4-.62,1,1,0,0,0-1.34.25l-.33.47a1,1,0,0,0-.15.73,1,1,0,0,0,.4.61,3.29,3.29,0,0,1,.84,4.56l-.33.47A3.27,3.27,0,0,1,296.63,348.37Z"/><circle class="cls-3" cx="365.59" cy="334.3" r="3.08"/><path class="cls-3" d="M367.9,308.11v10a2.31,2.31,0,0,1-4.62,0V295.79h-7.7v22.34a10,10,0,1,0,20,0v-10Z"/><path class="cls-3" d="M344.79,318.13a2.31,2.31,0,0,1-4.62,0v-10h-7.7v10a2.31,2.31,0,0,1-4.62,0v-10h-7.7v4.41a11.5,11.5,0,0,0-1.32-2.56h0l-4.76-6.8,3.65-5.22-6.31-4.42-2,2.93-3.56-5.08-6.31,4.41,5.17,7.38-4.76,6.8h0a11.44,11.44,0,0,0-1.8,4.2,10.78,10.78,0,1,0-20.13,7.6,10.79,10.79,0,0,0-5.57,9.44v3.1h7.7v-3.1a3.09,3.09,0,0,1,3.08-3.09h4.18c.15,0,.29,0,.44,0a10.81,10.81,0,0,0,10.49-8.31,11.54,11.54,0,0,0,22.06.31,10,10,0,0,0,16,5.86,10,10,0,0,0,16.18-7.87v-10h-7.71Zm-57,2.31v0h-.22a2.82,2.82,0,1,1,.22,0Zm21.57,0a3.9,3.9,0,0,1-3.85-3.85,3.86,3.86,0,0,1,.69-2.21h0l3.16-4.51,3.15,4.51h0a3.79,3.79,0,0,1,.7,2.21A3.9,3.9,0,0,1,309.37,320.44Z"/></g></svg>