<svg xmlns="http://www.w3.org/2000/svg" viewBox="0 0 648 648"><defs><style>.cls-1{fill:#e5e5e5;}.cls-2{fill:#fde9e1;}.cls-3{fill:#ff5c35;}</style></defs><g id="Background"><rect class="cls-1" x="158.58" y="55.36" width="350.84" height="557.21"/></g><g id="Graphic"><rect class="cls-2" x="148.58" y="45.36" width="350.84" height="557.21"/><rect class="cls-3" x="148.58" y="491.53" width="350.84" height="0.23"/><rect class="cls-3" x="148.58" y="543.12" width="350.84" height="0.23"/><rect class="cls-3" x="148.58" y="517.33" width="350.84" height="0.23"/><path class="cls-3" d="M196.87,117.91a1,1,0,0,1-.84,1,.86.86,0,0,0,.16,1.71h.15a2.76,2.76,0,0,0,2.25-2.78.86.86,0,1,0-1.72,0Z"/><path class="cls-3" d="M197.43,96.57c-.45.12-.72.77-.6,1.45s.58,1.13,1,1,.72-.77.6-1.45S197.88,96.44,197.43,96.57Z"/><path class="cls-3" d="M203.52,99c.46-.12.73-.77.6-1.45s-.58-1.14-1-1-.72.77-.6,1.45S203.07,99.15,203.52,99Z"/><path class="cls-3" d="M198.6,102.86a.86.86,0,0,0,.86.77h.08l2.87-.28-1-4.44a.86.86,0,0,0-1-.66.87.87,0,0,0-.66,1l.57,2.54-.94.1A.85.85,0,0,0,198.6,102.86Z"/><path class="cls-3" d="M198,105.63a.85.85,0,0,0,.3,1.18,4.54,4.54,0,0,0,2.31.63,4.47,4.47,0,0,0,1.15-.14,4.54,4.54,0,0,0,2.79-2.11.85.85,0,0,0-.3-1.18.86.86,0,0,0-1.18.31,2.85,2.85,0,0,1-3.9,1A.85.85,0,0,0,198,105.63Z"/><path class="cls-3" d="M218.68,122.27c-.79-1.39-2.92-1.46-4,.46a5.38,5.38,0,0,1-1.72,2l-.93-1.55,1.79-1L208,107.91a8.45,8.45,0,0,0,.88-.81c1.41-1.54,2.93-4.31,2.18-8.79-.25-1.36-.41-2.57.25-3.63,1.2-1.91.62-3.35-.24-4-1.57-1.18-3.36-.27-4.37.76l-.41-5.85a4.06,4.06,0,0,0-1.22-2.8,2.55,2.55,0,0,0-1.91-.61,2.5,2.5,0,0,0-1.18.38l0-.24a4.12,4.12,0,0,0-1.27-2.82,2.47,2.47,0,0,0-1.88-.59,3.2,3.2,0,0,0-2.6,2.91,2.51,2.51,0,0,0-1.31-.21c-1.9.18-2.76,2.06-2.64,3.82l.2,2.77a2,2,0,0,0-.92-.1c-1.58.17-2.5,1.64-2.35,3.72l.62,8.76h0v.18a.43.43,0,0,1,0,0,11.19,11.19,0,0,0,3.69,8,8.41,8.41,0,0,1-5.54,8.61l-.72.27-5.1,1.57,1.54,5.17,1.5-.18a6.19,6.19,0,0,0-.25,4.52,2.13,2.13,0,0,0,3,1.57c1.16-.58,1.79-1.79.7-3.48-1.27-2-.74-2.72-.39-3l.1,0,.45,1.42.59,0c.41,0,.81,0,1.19,0,8,0,10.09-5.25,10.17-5.49a.86.86,0,0,0-.5-1.11.87.87,0,0,0-1.11.51s-1.79,4.55-9,4.36l-1.46-4.6h0a10.1,10.1,0,0,0,6.62-9.06,5.44,5.44,0,0,0,1.17.47.58.58,0,0,0,.19,0,.86.86,0,0,0,.18-1.7s-4.76-1.35-5.24-8.25l-.62-8.76c0-.18-.1-1.79.82-1.89a.41.41,0,0,1,.32.11,2.55,2.55,0,0,1,.64,1.65l0,.32.35,5a.86.86,0,1,0,1.71-.12l-.3-4.38h0l-.05-.61,0-.31h0l-.43-6.14c-.06-.75.19-1.9,1.09-2a.79.79,0,0,1,.61.19,2.48,2.48,0,0,1,.66,1.63h0l.58,8.3a.86.86,0,0,0,.86.8h.06a.85.85,0,0,0,.8-.91l-.76-10.72c-.06-.93.49-1.93,1.09-2a.79.79,0,0,1,.61.19,2.48,2.48,0,0,1,.66,1.63L201,93.16a.86.86,0,1,0,1.72-.12l-.51-7.13v0c0-.74.2-1.92,1.07-2a.88.88,0,0,1,.67.21,2.47,2.47,0,0,1,.62,1.61l.91,12.87s0,.06,0,.09,0,0,0,.06a.29.29,0,0,0,0,.1s0,0,0,.06l0,.08a.88.88,0,0,0,.25.26l0,0,.1,0,0,0,.09,0h.29l.08,0h.08l.08,0,.08,0,.07,0,.07,0,.06,0,.06-.06L207,99l0-.06,0-.08a.25.25,0,0,0,0-.07s0-.06,0-.09a.19.19,0,0,0,0-.08v-.09a.15.15,0,0,0,0-.07c0-.35-.08-1.13-.12-1.7l0-.5a5.1,5.1,0,0,1,.68-3.39c.26-.35,1.42-1.5,2.31-.83.38.28.32.92-.18,1.71a6.51,6.51,0,0,0-.48,4.84c.63,3.78-.61,6.07-1.76,7.32a6.16,6.16,0,0,1-1.06.94l-.18.12A5.66,5.66,0,0,1,203,108a.86.86,0,1,0-.13,1.71l.4,0a7.13,7.13,0,0,0,3.27-.88l3.82,9.22a2.72,2.72,0,0,1-2,1.33.87.87,0,0,0-.68,1,.88.88,0,0,0,.85.69l.17,0a4.88,4.88,0,0,0,2.46-1.21l.62,1.5-.5.28h0l-3.7,2.06-8.28-11.05a.85.85,0,0,0-1.2-.17.86.86,0,0,0-.18,1.2L207,126h0l3.36,4.49,4.55-2.54-.62-1a7.64,7.64,0,0,0,3-1.19C219.1,124.53,219.11,123,218.68,122.27Z"/><path class="cls-3" d="M306.32,568.43l-.11.41a.26.26,0,0,1-.27.2h-.26a.22.22,0,0,1-.24-.24v-5.89a.22.22,0,0,1,.24-.24h.46a.21.21,0,0,1,.23.24v1.89a1,1,0,0,1,.92-.57c.67,0,1,.43,1,1.31v2.29c0,.87-.34,1.31-1,1.31A1,1,0,0,1,306.32,568.43Zm1.05-2.83c0-.43-.13-.58-.45-.58a.59.59,0,0,0-.55.64v2a.59.59,0,0,0,.55.65c.32,0,.45-.16.45-.59Z"/><path class="cls-3" d="M308.81,567.91v-.07a1.33,1.33,0,0,1,.42-1.08,2.94,2.94,0,0,1,.81-.48l.36-.17a.6.6,0,0,0,.34-.46v0c0-.39-.16-.59-.47-.59s-.49.2-.49.59v.11a.21.21,0,0,1-.23.24h-.39a.22.22,0,0,1-.24-.25q0-1.47,1.38-1.47c.91,0,1.37.5,1.37,1.49v1.78a12,12,0,0,0,.05,1.28c0,.18,0,.26-.21.26h-.42a.24.24,0,0,1-.26-.2,2.06,2.06,0,0,1-.05-.38,1,1,0,0,1-1,.68C309.15,569.14,308.81,568.73,308.81,567.91Zm1.93-.2v-1l-.21.1a2.41,2.41,0,0,0-.55.32.71.71,0,0,0-.25.61v.06c0,.41.15.54.45.54A.59.59,0,0,0,310.74,567.71Z"/><path class="cls-3" d="M312.24,567.71a.21.21,0,0,1,.24-.24h.38a.21.21,0,0,1,.24.24v.09q0,.6.48.6c.33,0,.49-.19.49-.56v-.09c0-.32-.21-.45-.69-.66a2.47,2.47,0,0,1-.76-.45,1.33,1.33,0,0,1-.38-1v0a1.38,1.38,0,0,1,2.75,0,.22.22,0,0,1-.24.24h-.38a.22.22,0,0,1-.24-.24v0q0-.6-.48-.6c-.33,0-.49.19-.49.57v.05a.5.5,0,0,0,.21.43,2.33,2.33,0,0,0,.48.25,2.47,2.47,0,0,1,.62.34,1.29,1.29,0,0,1,.52,1.15v0a1.22,1.22,0,0,1-1.37,1.36A1.24,1.24,0,0,1,312.24,567.71Z"/><path class="cls-3" d="M315.45,567.91v-.07a1.33,1.33,0,0,1,.42-1.08,2.94,2.94,0,0,1,.81-.48l.37-.17a.61.61,0,0,0,.33-.46v0c0-.39-.15-.59-.47-.59s-.48.2-.48.59v.11a.22.22,0,0,1-.24.24h-.39a.22.22,0,0,1-.24-.25c0-1,.47-1.47,1.39-1.47s1.36.5,1.36,1.49v1.78a12,12,0,0,0,.05,1.28c0,.18,0,.26-.2.26h-.42a.24.24,0,0,1-.27-.2,3.53,3.53,0,0,1-.05-.38,1,1,0,0,1-1,.68C315.79,569.14,315.45,568.73,315.45,567.91Zm1.93-.2v-1l-.21.1a2.14,2.14,0,0,0-.54.32.72.72,0,0,0-.26.61v.06c0,.41.16.54.46.54A.58.58,0,0,0,317.38,567.71Z"/><path class="cls-3" d="M319.94,568.8a.21.21,0,0,1-.24.24h-.45a.21.21,0,0,1-.24-.24v-5.89a.21.21,0,0,1,.24-.24h.45a.21.21,0,0,1,.24.24Z"/><path class="cls-3" d="M320.53,567.91v-.07a1.33,1.33,0,0,1,.42-1.08,2.94,2.94,0,0,1,.81-.48l.36-.17a.6.6,0,0,0,.34-.46v0c0-.39-.15-.59-.47-.59s-.48.2-.48.59v.11a.22.22,0,0,1-.24.24h-.39a.22.22,0,0,1-.24-.25c0-1,.47-1.47,1.38-1.47s1.37.5,1.37,1.49v1.78a12,12,0,0,0,.05,1.28c0,.18,0,.26-.21.26h-.41a.24.24,0,0,1-.27-.2,2.06,2.06,0,0,1-.05-.38,1,1,0,0,1-1,.68C320.87,569.14,320.53,568.73,320.53,567.91Zm1.93-.2v-1l-.21.1a2.14,2.14,0,0,0-.54.32.69.69,0,0,0-.26.61v.06c0,.41.16.54.46.54A.59.59,0,0,0,322.46,567.71Z"/><path class="cls-3" d="M324.33,569a.21.21,0,0,1-.24-.24v-4.24a.21.21,0,0,1,.24-.23h.39a.21.21,0,0,1,.23.23V565a1,1,0,0,1,1-.72.84.84,0,0,1,.9.69,1,1,0,0,1,1-.69c.66,0,1,.43,1,1.31v3.26a.22.22,0,0,1-.24.24h-.46a.21.21,0,0,1-.23-.24v-3.2c0-.44-.13-.58-.43-.58s-.52.27-.52.64v3.14a.21.21,0,0,1-.23.24h-.45a.22.22,0,0,1-.24-.24v-3.2c0-.44-.12-.58-.42-.58s-.52.27-.52.64v3.14a.21.21,0,0,1-.24.24Z"/><path class="cls-3" d="M329.71,569a.21.21,0,0,1-.23-.24v-.91a.21.21,0,0,1,.23-.24h.46a.22.22,0,0,1,.24.24v.91a.22.22,0,0,1-.24.24Z"/><path class="cls-3" d="M331.1,565.73c0-1,.46-1.5,1.39-1.5s1.39.5,1.39,1.5v.19c0,.13-.08.19-.24.19h-.38a.21.21,0,0,1-.23-.24v-.27c0-.39-.17-.58-.5-.58s-.51.19-.51.58v2.16c0,.4.17.59.51.59s.5-.19.5-.59v-.36a.21.21,0,0,1,.23-.24h.38a.22.22,0,0,1,.24.24v.24c0,1-.46,1.5-1.39,1.5s-1.39-.5-1.39-1.5Z"/><path class="cls-3" d="M334.42,567.64v-1.91c0-1,.47-1.5,1.43-1.5s1.42.5,1.42,1.5v1.91c0,1-.48,1.5-1.42,1.5S334.42,568.64,334.42,567.64Zm1.93.12V565.6c0-.39-.17-.58-.5-.58s-.51.19-.51.58v2.16c0,.4.17.59.51.59S336.35,568.16,336.35,567.76Z"/><path class="cls-3" d="M338.17,569a.21.21,0,0,1-.24-.24v-4.24a.21.21,0,0,1,.24-.23h.39a.21.21,0,0,1,.24.23V565a1,1,0,0,1,.95-.72.84.84,0,0,1,.9.69,1,1,0,0,1,1-.69c.65,0,1,.43,1,1.31v3.26a.21.21,0,0,1-.24.24h-.45a.21.21,0,0,1-.24-.24v-3.2c0-.44-.13-.58-.43-.58s-.52.27-.52.64v3.14a.21.21,0,0,1-.23.24H340a.21.21,0,0,1-.23-.24v-3.2c0-.44-.13-.58-.43-.58s-.52.27-.52.64v3.14a.21.21,0,0,1-.24.24Z"/><rect class="cls-3" x="461.76" y="181.77" width="0.5" height="10.94" transform="translate(2.91 381.52) rotate(-45)"/><rect class="cls-3" x="456.54" y="186.99" width="10.94" height="0.5" transform="translate(2.92 381.54) rotate(-45)"/><rect class="cls-3" x="461.76" y="223.05" width="0.5" height="10.94" transform="translate(-26.27 393.62) rotate(-45)"/><rect class="cls-3" x="456.54" y="228.27" width="10.94" height="0.5" transform="translate(-26.27 393.62) rotate(-45)"/><rect class="cls-3" x="461.76" y="264.32" width="0.5" height="10.94" transform="translate(-55.46 405.7) rotate(-45)"/><rect class="cls-3" x="456.54" y="269.54" width="10.94" height="0.5" transform="translate(-55.45 405.71) rotate(-45)"/><rect class="cls-3" x="461.76" y="305.6" width="0.5" height="10.94" transform="translate(-84.64 417.79) rotate(-45)"/><rect class="cls-3" x="456.54" y="310.82" width="10.94" height="0.5" transform="translate(-84.64 417.8) rotate(-45)"/><rect class="cls-3" x="461.76" y="346.87" width="0.5" height="10.94" transform="translate(-113.83 429.87) rotate(-45)"/><rect class="cls-3" x="456.54" y="352.09" width="10.94" height="0.5" transform="translate(-113.82 429.89) rotate(-45)"/><rect class="cls-3" x="461.76" y="388.15" width="0.5" height="10.94" transform="translate(-143.01 441.97) rotate(-45)"/><rect class="cls-3" x="456.54" y="393.37" width="10.94" height="0.5" transform="translate(-143.01 441.98) rotate(-45)"/><rect class="cls-3" x="461.76" y="429.42" width="0.5" height="10.94" transform="translate(-172.2 454.05) rotate(-45)"/><rect class="cls-3" x="456.54" y="434.64" width="10.94" height="0.5" transform="translate(-172.2 454.07) rotate(-45)"/><rect class="cls-3" x="148.58" y="130.37" width="350.84" height="0.23"/><rect class="cls-3" x="415.42" y="112.78" width="12.81" height="0.5" transform="translate(43.62 331.38) rotate(-45)"/><rect class="cls-3" x="434.99" y="112.78" width="12.81" height="0.5" transform="translate(49.36 345.22) rotate(-45)"/><path class="cls-3" d="M305.77,116.86a1.18,1.18,0,0,1,0,.22v.2a1.27,1.27,0,0,1,0,.22q0,.09-.06.09h-.26a1.14,1.14,0,0,1-.63-.17.71.71,0,0,1-.31-.53l-.07.13a.41.41,0,0,1-.33.28,4.83,4.83,0,0,1-.59,0,1.22,1.22,0,0,1-.75-.17.71.71,0,0,1-.22-.61,1.62,1.62,0,0,1,.38-1.1,2.23,2.23,0,0,1,1.15-.67l-.07-.55.62-.18.19,1.94a2.57,2.57,0,0,0,.08.51.34.34,0,0,0,.19.2,1.42,1.42,0,0,0,.49.06h.13S305.75,116.8,305.77,116.86Zm-1.47-.4-.11-1a1.46,1.46,0,0,0-.84.43,1.09,1.09,0,0,0-.29.66,1.37,1.37,0,0,0,.43,0A3,3,0,0,0,304.3,116.46Z"/><path class="cls-3" d="M307.54,114.77l0,.21c0,.64,0,1.15,0,1.54a.85.85,0,0,1-.44.76,2.09,2.09,0,0,1-.68.23,3.42,3.42,0,0,1-.77.08s0,0,0-.09a.69.69,0,0,1,0-.22v-.2a.69.69,0,0,1,0-.22c0-.06,0-.09,0-.09a5.67,5.67,0,0,0,.78,0,1.76,1.76,0,0,0,.56-.18l-.17-1.66Zm-.44-.75-.62-.52.52-.62.62.52Z"/><path class="cls-3" d="M309.25,112.3l.06,5.29-.57.08-.14-5.21Z"/><path class="cls-3" d="M309.33,119a6.31,6.31,0,0,0,1.3-.75,2,2,0,0,0,.62-.75l-.24-2.13.65-.16c0,.2,0,.33,0,.39,0,.38.07.71.1,1a6.79,6.79,0,0,1,0,.68,1.87,1.87,0,0,1-.51,1.27,4.62,4.62,0,0,1-1.59,1.09Zm2.27-5.32-.52.63-.62-.53.52-.62Z"/><path class="cls-3" d="M314.92,115.57a3.59,3.59,0,0,1,.26,1.37,2.37,2.37,0,0,1-.58,1.57,4.3,4.3,0,0,1-1.6,1.11l-.4-.66a5.09,5.09,0,0,0,1.21-.63,2.74,2.74,0,0,0,.74-.8,3.55,3.55,0,0,1-.76.08,4.75,4.75,0,0,1-.51,0,.46.46,0,0,1-.2-.09.92.92,0,0,1-.17-.2,1.14,1.14,0,0,1-.13-.23.53.53,0,0,1,0-.22,3.2,3.2,0,0,1,.32-1.31A.93.93,0,0,1,314,115,1,1,0,0,1,314.92,115.57Zm-1,1.29a3.64,3.64,0,0,0,.75-.06,1.6,1.6,0,0,0-.18-.86.58.58,0,0,0-.51-.26.51.51,0,0,0-.47.29,1.81,1.81,0,0,0-.18.84A2.12,2.12,0,0,0,313.88,116.86Z"/><path class="cls-3" d="M315.33,119a3.37,3.37,0,0,0,1.6-1.47l-.26-2.13.66-.16a1.23,1.23,0,0,1,0,.17c.06.55.11,1,.13,1.22a6.21,6.21,0,0,1,0,.68,2,2,0,0,1-.45,1.27,4.41,4.41,0,0,1-1.33,1.07Z"/><path class="cls-3" d="M325.68,116.86a1.18,1.18,0,0,1,0,.22v.2a1.27,1.27,0,0,1,0,.22c0,.06,0,.09-.05.09q-1,0-1.23-.48a.51.51,0,0,1-.22.19,1.55,1.55,0,0,1-.37.13,4.5,4.5,0,0,1-.8.14c-.32,0-.65.05-1,.05a6.1,6.1,0,0,1-1.33-.12,1.49,1.49,0,0,1-.8-.41,1.18,1.18,0,0,1-.28-.82,1.87,1.87,0,0,1,0-.42l.19-1.13.51.11-.17,1a2.15,2.15,0,0,0,0,.23.6.6,0,0,0,.2.49,1.09,1.09,0,0,0,.56.2,8.06,8.06,0,0,0,1,0c.51,0,1,0,1.3,0a5.67,5.67,0,0,0,1-.19l-.12-1.28.64-.06.08,1.4a1.93,1.93,0,0,0,.85.15S325.66,116.8,325.68,116.86Zm-3.82-2.41-.57-.48.48-.56.57.47Zm1.09,0-.56-.47.47-.56.57.47Z"/><path class="cls-3" d="M330.59,116.63a.83.83,0,0,1-.35.73,1.61,1.61,0,0,1-.87.23.76.76,0,0,1-.79-.43.85.85,0,0,1-.4.32,1.49,1.49,0,0,1-.54.11.74.74,0,0,1-.77-.44c-.2.3-.61.44-1.24.44t-.06-.09a1.27,1.27,0,0,1,0-.22v-.2a.72.72,0,0,1,0-.22q0-.09.06-.09a2.09,2.09,0,0,0,.95-.18l0-1.12.59,0,0,.87c0,.18,0,.29.13.34a1.16,1.16,0,0,0,.45.07.82.82,0,0,0,.55-.15l0-1.43.6,0,0,1.48a.64.64,0,0,0,.42.12,1.61,1.61,0,0,0,.73-.15l-.16-1.74.65-.12C330.58,115.43,330.59,116.05,330.59,116.63ZM328,114.37l-.55-.47.47-.56.56.47Zm.52-1.05-.55-.45.47-.56.55.47Zm0,.57.47-.56.55.47-.46.55Z"/><path class="cls-3" d="M332.27,112.3l.05,5.29-.56.08-.15-5.21Z"/><path class="cls-3" d="M336.26,115.39a2.77,2.77,0,0,1,.33,1.23,1.25,1.25,0,0,1,0,.36.62.62,0,0,1-.17.28,1.51,1.51,0,0,1-.62.32,4,4,0,0,1-1,.11,2.57,2.57,0,0,1-.79-.1.68.68,0,0,1-.39-.33,1.69,1.69,0,0,1-.11-.67c0-.12,0-.22,0-.29l.53,0v.11a.65.65,0,0,0,.05.29.28.28,0,0,0,.22.11,3.35,3.35,0,0,0,.52,0l.65,0a1.88,1.88,0,0,0,.57-.12,2,2,0,0,0-.33-1.06,5.32,5.32,0,0,0-.95-1.08l.44-.58A5.62,5.62,0,0,1,336.26,115.39Z"/><path class="cls-3" d="M340.6,115.39a2.89,2.89,0,0,1,.32,1.23,1,1,0,0,1-.05.36.62.62,0,0,1-.17.28,1.45,1.45,0,0,1-.62.32,4,4,0,0,1-1,.11,2.64,2.64,0,0,1-.8-.1.66.66,0,0,1-.38-.33,1.53,1.53,0,0,1-.11-.67v-.29l.53,0v.11a.52.52,0,0,0,.06.29.27.27,0,0,0,.21.11,3.35,3.35,0,0,0,.52,0l.65,0a1.88,1.88,0,0,0,.57-.12,2,2,0,0,0-.33-1.06,5,5,0,0,0-.95-1.08l.44-.58A5.45,5.45,0,0,1,340.6,115.39Z"/><path class="cls-3" d="M343.64,116.86a1.18,1.18,0,0,1,0,.22v.2a1.27,1.27,0,0,1,0,.22c0,.06,0,.09-.05.09h-.18a1.44,1.44,0,0,1-1.05-.33,1.67,1.67,0,0,1-.35-1.12l-.1-3.68.66-.16.06,3.84a.62.62,0,0,0,.17.46.64.64,0,0,0,.47.17h.32S343.62,116.8,343.64,116.86Z"/><path class="cls-3" d="M343.94,118.46l.56.47-.48.57-.55-.47Zm-.41-1a1.27,1.27,0,0,1,0-.22v-.2a.72.72,0,0,1,0-.22q0-.09.06-.09a5.51,5.51,0,0,0,.77,0,1.76,1.76,0,0,0,.56-.18l-.17-1.66.67-.11V115c0,.64,0,1.15,0,1.54a.85.85,0,0,1-.44.76,2.11,2.11,0,0,1-.67.23,3.54,3.54,0,0,1-.77.08S343.55,117.56,343.53,117.5Zm2.07,1.42-.48.56-.56-.47.48-.56Z"/></g></svg>