<svg xmlns="http://www.w3.org/2000/svg" viewBox="0 0 1152 648"><defs><style>.cls-1{fill:#e5e5e5;}.cls-2{fill:#fde9e1;}.cls-3{fill:#222221;}</style></defs><g id="Background"><rect class="cls-1" x="234.17" y="100.72" width="703.66" height="466.56"/></g><g id="Graphic"><rect class="cls-2" x="224.17" y="90.72" width="703.66" height="466.56"/><path class="cls-3" d="M523.58,366.34l-.33,1.21a.74.74,0,0,1-.78.59h-.78a.62.62,0,0,1-.7-.7V350a.62.62,0,0,1,.7-.7H523a.63.63,0,0,1,.7.7v5.61a2.82,2.82,0,0,1,2.72-1.7q3,0,3,3.89v6.79q0,3.88-3,3.89A2.91,2.91,0,0,1,523.58,366.34ZM526.7,358c0-1.27-.4-1.73-1.34-1.73a1.73,1.73,0,0,0-1.62,1.91v6.05a1.73,1.73,0,0,0,1.62,1.91c.94,0,1.34-.46,1.34-1.72Z"/><path class="cls-3" d="M531,364.8v-.22a3.9,3.9,0,0,1,1.24-3.18,8.26,8.26,0,0,1,2.4-1.43c.49-.22.84-.38,1.08-.51a1.8,1.8,0,0,0,1-1.35V358c0-1.16-.46-1.76-1.4-1.76s-1.43.6-1.43,1.76v.32a.63.63,0,0,1-.71.7H532a.64.64,0,0,1-.7-.73c0-2.91,1.38-4.37,4.1-4.37s4.05,1.49,4.05,4.43v5.28a30.51,30.51,0,0,0,.16,3.81c.08.51-.11.75-.62.75h-1.24a.68.68,0,0,1-.78-.59,5.8,5.8,0,0,1-.16-1.11,2.94,2.94,0,0,1-2.84,2Q531,368.44,531,364.8Zm5.72-.6v-2.94l-.62.3a6.52,6.52,0,0,0-1.62.94,2.16,2.16,0,0,0-.76,1.81v.19c0,1.21.46,1.62,1.35,1.62A1.75,1.75,0,0,0,536.69,364.2Z"/><path class="cls-3" d="M541.14,364.2a.63.63,0,0,1,.7-.7H543a.64.64,0,0,1,.71.7v.27c0,1.19.48,1.78,1.43,1.78s1.45-.56,1.45-1.67v-.24c0-1-.62-1.35-2-2a7.31,7.31,0,0,1-2.24-1.35,3.85,3.85,0,0,1-1.13-3.1v-.06c0-2.67,1.48-4,4.1-4s4,1.35,4,4.08a.63.63,0,0,1-.7.7h-1.14a.63.63,0,0,1-.7-.7v-.11c0-1.19-.48-1.78-1.43-1.78s-1.45.56-1.45,1.67v.16a1.48,1.48,0,0,0,.62,1.27,6.62,6.62,0,0,0,1.43.75,7,7,0,0,1,1.83,1c1,.68,1.46,1.65,1.54,3.43v.08c0,2.67-1.46,4-4.08,4S541.14,367,541.14,364.2Z"/><path class="cls-3" d="M550.67,364.8v-.22a3.87,3.87,0,0,1,1.24-3.18,8.26,8.26,0,0,1,2.4-1.43c.48-.22.83-.38,1.08-.51a1.81,1.81,0,0,0,1-1.35V358c0-1.16-.45-1.76-1.4-1.76s-1.43.6-1.43,1.76v.32a.62.62,0,0,1-.7.7h-1.16c-.46,0-.7-.24-.7-.73q0-4.37,4.1-4.37c2.7,0,4,1.49,4,4.43v5.28a30.51,30.51,0,0,0,.16,3.81c.08.51-.11.75-.62.75h-1.24a.7.7,0,0,1-.79-.59,6.72,6.72,0,0,1-.16-1.11,2.92,2.92,0,0,1-2.83,2C551.66,368.44,550.67,367.23,550.67,364.8Zm5.71-.6v-2.94l-.62.3a6.45,6.45,0,0,0-1.61.94,2.16,2.16,0,0,0-.76,1.81v.19c0,1.21.46,1.62,1.35,1.62A1.74,1.74,0,0,0,556.38,364.2Z"/><path class="cls-3" d="M564,367.44a.63.63,0,0,1-.71.7h-1.34a.63.63,0,0,1-.71-.7V350a.63.63,0,0,1,.71-.7h1.34a.63.63,0,0,1,.71.7Z"/><path class="cls-3" d="M565.72,364.8v-.22A3.9,3.9,0,0,1,567,361.4a8.54,8.54,0,0,1,2.4-1.43c.49-.22.84-.38,1.08-.51a1.8,1.8,0,0,0,1-1.35V358c0-1.16-.46-1.76-1.4-1.76s-1.43.6-1.43,1.76v.32a.63.63,0,0,1-.7.7h-1.16a.64.64,0,0,1-.71-.73c0-2.91,1.38-4.37,4.11-4.37s4,1.49,4,4.43v5.28a32.64,32.64,0,0,0,.16,3.81c.08.51-.1.75-.62.75h-1.24a.68.68,0,0,1-.78-.59,6.72,6.72,0,0,1-.16-1.11,2.93,2.93,0,0,1-2.84,2Q565.73,368.44,565.72,364.8Zm5.72-.6v-2.94l-.62.3a6.52,6.52,0,0,0-1.62.94,2.15,2.15,0,0,0-.75,1.81v.19c0,1.21.45,1.62,1.34,1.62A1.74,1.74,0,0,0,571.44,364.2Z"/><path class="cls-3" d="M577,368.14a.62.62,0,0,1-.7-.7V354.87a.62.62,0,0,1,.7-.7h1.16a.62.62,0,0,1,.7.7V356a2.86,2.86,0,0,1,2.84-2.16,2.49,2.49,0,0,1,2.67,2.05,3,3,0,0,1,2.86-2.05q2.91,0,2.91,3.89v9.68a.62.62,0,0,1-.7.7h-1.35a.62.62,0,0,1-.7-.7V358c0-1.3-.38-1.73-1.27-1.73s-1.54.81-1.54,1.91v9.31a.62.62,0,0,1-.7.7h-1.32a.62.62,0,0,1-.7-.7V358c0-1.3-.38-1.73-1.27-1.73S579,357,579,358.13v9.31a.62.62,0,0,1-.7.7Z"/><path class="cls-3" d="M593,368.14a.63.63,0,0,1-.71-.7v-2.7a.63.63,0,0,1,.71-.7h1.34a.63.63,0,0,1,.71.7v2.7a.63.63,0,0,1-.71.7Z"/><path class="cls-3" d="M597.05,358.32c0-3,1.37-4.45,4.12-4.45s4.13,1.49,4.13,4.45v.57c0,.38-.24.57-.7.57h-1.13a.63.63,0,0,1-.7-.71V358c0-1.16-.49-1.73-1.49-1.73s-1.51.57-1.51,1.73v6.42c0,1.16.51,1.72,1.51,1.72s1.49-.56,1.49-1.72v-1.08a.62.62,0,0,1,.7-.7h1.13a.62.62,0,0,1,.7.7v.7c0,3-1.37,4.45-4.13,4.45s-4.12-1.48-4.12-4.45Z"/><path class="cls-3" d="M606.89,364v-5.67c0-3,1.41-4.45,4.24-4.45s4.21,1.49,4.21,4.45V364q0,4.45-4.21,4.45T606.89,364Zm5.72.38V358c0-1.16-.48-1.73-1.48-1.73s-1.51.57-1.51,1.73v6.42c0,1.16.51,1.72,1.51,1.72S612.61,365.53,612.61,364.37Z"/><path class="cls-3" d="M618,368.14a.62.62,0,0,1-.7-.7V354.87a.62.62,0,0,1,.7-.7h1.16a.62.62,0,0,1,.7.7V356a2.86,2.86,0,0,1,2.84-2.16,2.49,2.49,0,0,1,2.67,2.05,3,3,0,0,1,2.86-2.05q2.91,0,2.91,3.89v9.68a.62.62,0,0,1-.7.7H629.1a.62.62,0,0,1-.7-.7V358c0-1.3-.38-1.73-1.27-1.73s-1.54.81-1.54,1.91v9.31a.62.62,0,0,1-.7.7h-1.32a.62.62,0,0,1-.7-.7V358c0-1.3-.38-1.73-1.27-1.73s-1.54.81-1.54,1.91v9.31a.62.62,0,0,1-.7.7Z"/><path class="cls-3" d="M346,466.21v-3.08h14.5v3.08h-5.41v14.58h-3.69V466.21Z"/><path class="cls-3" d="M382.44,481a5.24,5.24,0,0,1-3.32-1.07,6.55,6.55,0,0,1-2.1-3.09,17.07,17.07,0,0,1,0-9.81,6.66,6.66,0,0,1,2.11-3.1,5.6,5.6,0,0,1,6.61,0,6.66,6.66,0,0,1,2.11,3.1,16.84,16.84,0,0,1,0,9.81,6.6,6.6,0,0,1-2.09,3.09A5.28,5.28,0,0,1,382.44,481Zm0-1.9a3.33,3.33,0,0,0,3-1.86,10.88,10.88,0,0,0,1.07-5.32,13.77,13.77,0,0,0-.49-3.9,5.39,5.39,0,0,0-1.4-2.46,3.1,3.1,0,0,0-2.18-.84,3.31,3.31,0,0,0-3,1.88,10.82,10.82,0,0,0-1.07,5.32,13.75,13.75,0,0,0,.48,3.9,5.22,5.22,0,0,0,1.39,2.44A3.13,3.13,0,0,0,382.44,479.14Z"/><path class="cls-3" d="M391.8,480.79v-1.55l5.83-6.38c.69-.75,1.25-1.4,1.69-1.95a6.92,6.92,0,0,0,1-1.57,3.75,3.75,0,0,0,.33-1.55,2.85,2.85,0,0,0-1.66-2.66,3.89,3.89,0,0,0-1.73-.37,3.62,3.62,0,0,0-1.77.41,2.9,2.9,0,0,0-1.16,1.17,3.66,3.66,0,0,0-.41,1.76h-2a5.09,5.09,0,0,1,.72-2.72,4.91,4.91,0,0,1,2-1.83,5.82,5.82,0,0,1,2.78-.66,5.63,5.63,0,0,1,2.76.66,4.93,4.93,0,0,1,1.88,1.77,4.66,4.66,0,0,1,.68,2.47,5.41,5.41,0,0,1-.35,1.9,8.67,8.67,0,0,1-1.21,2.06,34.8,34.8,0,0,1-2.38,2.77l-4,4.24v.14H403v1.89Z"/><path class="cls-3" d="M412,481a6,6,0,0,1-2.73-.61,5,5,0,0,1-1.95-1.65,4.54,4.54,0,0,1-.81-2.4h2.07a2.81,2.81,0,0,0,1.1,2,3.57,3.57,0,0,0,2.32.78,3.72,3.72,0,0,0,1.94-.51,3.66,3.66,0,0,0,1.33-1.4,4.11,4.11,0,0,0,.49-2,4.18,4.18,0,0,0-.51-2.07,3.72,3.72,0,0,0-1.38-1.43,3.87,3.87,0,0,0-2-.54,5.77,5.77,0,0,0-1.66.25,4.62,4.62,0,0,0-1.41.65l-2-.24,1.07-8.7H417V465h-7.39l-.62,5.21h.11a4.47,4.47,0,0,1,1.36-.72,5.11,5.11,0,0,1,1.71-.28,5.5,5.5,0,0,1,2.89.77,5.56,5.56,0,0,1,2,2.11,6.23,6.23,0,0,1,.73,3.05,5.94,5.94,0,0,1-.76,3,5.51,5.51,0,0,1-2.07,2.08A5.88,5.88,0,0,1,412,481Z"/><path class="cls-3" d="M428.79,471v1.89h-7.73V471Z"/><path class="cls-3" d="M437.92,462.89a6.47,6.47,0,0,1,2.17.42,5.28,5.28,0,0,1,2,1.34,6.62,6.62,0,0,1,1.44,2.55,12.86,12.86,0,0,1,.54,4,17.59,17.59,0,0,1-.44,4.18,9.59,9.59,0,0,1-1.28,3.07,5.59,5.59,0,0,1-2,1.9,5.54,5.54,0,0,1-2.68.65,5.76,5.76,0,0,1-2.64-.59,5.14,5.14,0,0,1-1.9-1.65,5.74,5.74,0,0,1-1-2.45h2.11a3.91,3.91,0,0,0,1.13,2,3.17,3.17,0,0,0,2.25.79,3.7,3.7,0,0,0,3.23-1.79,9.08,9.08,0,0,0,1.18-5h-.13a5.72,5.72,0,0,1-1.15,1.25,5.07,5.07,0,0,1-1.48.81,5.13,5.13,0,0,1-1.72.28,5.34,5.34,0,0,1-2.78-.75,5.6,5.6,0,0,1-2-2.08,6,6,0,0,1-.75-3,6.11,6.11,0,0,1,.73-3,5.5,5.5,0,0,1,2.05-2.15A5.75,5.75,0,0,1,437.92,462.89Zm0,1.9a3.63,3.63,0,0,0-2,.54,3.9,3.9,0,0,0-1.37,1.45,4,4,0,0,0-.5,2,4.2,4.2,0,0,0,.48,2,3.84,3.84,0,0,0,1.34,1.43,3.62,3.62,0,0,0,1.94.53,3.55,3.55,0,0,0,1.52-.33,3.89,3.89,0,0,0,1.24-.88,4.39,4.39,0,0,0,.83-1.29,3.86,3.86,0,0,0,.3-1.5,4,4,0,0,0-1.86-3.41A3.54,3.54,0,0,0,437.92,464.79Z"/><path class="cls-3" d="M453.6,463.13v17.66h-2.14V465.38h-.11L447,468.24v-2.17l4.42-2.94Z"/><path class="cls-3" d="M464.38,481a5.24,5.24,0,0,1-3.32-1.07,6.62,6.62,0,0,1-2.1-3.09,14.85,14.85,0,0,1-.72-4.92,14.43,14.43,0,0,1,.73-4.89,6.58,6.58,0,0,1,2.1-3.1,5.6,5.6,0,0,1,6.61,0,6.66,6.66,0,0,1,2.11,3.1,16.84,16.84,0,0,1,0,9.81A6.6,6.6,0,0,1,467.7,480,5.26,5.26,0,0,1,464.38,481Zm0-1.9a3.31,3.31,0,0,0,3-1.86,10.88,10.88,0,0,0,1.07-5.32,13.42,13.42,0,0,0-.49-3.9,5.31,5.31,0,0,0-1.4-2.46,3.09,3.09,0,0,0-2.18-.84,3.29,3.29,0,0,0-3,1.88,10.81,10.81,0,0,0-1.08,5.32,13.75,13.75,0,0,0,.48,3.9,5.31,5.31,0,0,0,1.39,2.44A3.13,3.13,0,0,0,464.38,479.14Z"/><path class="cls-3" d="M479.51,481a5.24,5.24,0,0,1-3.32-1.07,6.55,6.55,0,0,1-2.1-3.09,14.85,14.85,0,0,1-.72-4.92,14.43,14.43,0,0,1,.73-4.89,6.58,6.58,0,0,1,2.1-3.1,5.6,5.6,0,0,1,6.61,0,6.66,6.66,0,0,1,2.11,3.1,16.84,16.84,0,0,1,0,9.81,6.6,6.6,0,0,1-2.09,3.09A5.26,5.26,0,0,1,479.51,481Zm0-1.9a3.33,3.33,0,0,0,3-1.86,10.88,10.88,0,0,0,1.07-5.32,13.42,13.42,0,0,0-.49-3.9,5.39,5.39,0,0,0-1.4-2.46,3.09,3.09,0,0,0-2.18-.84,3.31,3.31,0,0,0-3,1.88,10.93,10.93,0,0,0-1.07,5.32,13.75,13.75,0,0,0,.48,3.9,5.31,5.31,0,0,0,1.39,2.44A3.13,3.13,0,0,0,479.51,479.14Z"/><path class="cls-3" d="M494.84,481a7.49,7.49,0,0,1-3-.59,5.26,5.26,0,0,1-2.11-1.63,4.38,4.38,0,0,1-.85-2.44H491a2.54,2.54,0,0,0,.59,1.47,3.41,3.41,0,0,0,1.35.95,4.85,4.85,0,0,0,1.86.34,4.79,4.79,0,0,0,2-.4,3.37,3.37,0,0,0,1.38-1.1,2.79,2.79,0,0,0,.5-1.64,3.12,3.12,0,0,0-.49-1.72,3.16,3.16,0,0,0-1.41-1.17,5.53,5.53,0,0,0-2.28-.42h-1.41v-1.9h1.41a4.16,4.16,0,0,0,1.85-.38,3,3,0,0,0,1.25-1.07,2.9,2.9,0,0,0,.45-1.62,3,3,0,0,0-.39-1.56,2.72,2.72,0,0,0-1.12-1,3.6,3.6,0,0,0-1.69-.37,4.47,4.47,0,0,0-1.72.33,3.3,3.3,0,0,0-1.32,1,2.53,2.53,0,0,0-.55,1.51h-2.07a4.16,4.16,0,0,1,.84-2.44,5.26,5.26,0,0,1,2.05-1.63,6.63,6.63,0,0,1,2.8-.59,5.64,5.64,0,0,1,2.81.66,4.74,4.74,0,0,1,1.81,1.74,4.62,4.62,0,0,1,.62,2.33,4.15,4.15,0,0,1-.78,2.54,4,4,0,0,1-2.11,1.46v.14a4.07,4.07,0,0,1,2.61,1.42,4.27,4.27,0,0,1,.94,2.82,4.46,4.46,0,0,1-.78,2.58,5.38,5.38,0,0,1-2.13,1.8A6.82,6.82,0,0,1,494.84,481Z"/><path class="cls-3" d="M510.49,463.13v17.66h-2.14V465.38h-.1l-4.32,2.86v-2.17l4.42-2.94Z"/><path class="cls-3" d="M516.06,480.79l7.9-15.62V465h-9.1v-1.9h11.31v2l-7.87,15.66Z"/><path class="cls-3" d="M534.61,481a6,6,0,0,1-2.74-.61,5.07,5.07,0,0,1-2-1.65,4.53,4.53,0,0,1-.8-2.4h2.07a2.84,2.84,0,0,0,1.09,2,3.6,3.6,0,0,0,2.33.78,3.63,3.63,0,0,0,3.27-1.91,4.43,4.43,0,0,0,0-4.09,3.79,3.79,0,0,0-1.38-1.43,3.87,3.87,0,0,0-2-.54,5.83,5.83,0,0,0-1.67.25,4.55,4.55,0,0,0-1.4.65l-2-.24,1.07-8.7h9.17V465h-7.38l-.62,5.21h.1a4.65,4.65,0,0,1,1.37-.72,5.09,5.09,0,0,1,1.7-.28,5.54,5.54,0,0,1,2.9.77,5.64,5.64,0,0,1,2,2.11,6.34,6.34,0,0,1,.73,3.05,6,6,0,0,1-.76,3,5.51,5.51,0,0,1-2.07,2.08A5.88,5.88,0,0,1,534.61,481Z"/><path class="cls-3" d="M563.85,480.79V463.13h11.9v3.08h-8.16v4.21h7.55v3.08h-7.55v4.22h8.2v3.07Z"/><path class="cls-3" d="M593.6,465.34a1.44,1.44,0,0,1-1-.4,1.32,1.32,0,0,1-.42-1,1.3,1.3,0,0,1,.42-1,1.49,1.49,0,0,1,2,0,1.3,1.3,0,0,1,.42,1,1.32,1.32,0,0,1-.42,1A1.45,1.45,0,0,1,593.6,465.34Zm-1,15.45V467.55h2v13.24Z"/><path class="cls-3" d="M600.32,472.83v8h-2V467.55h2v2.07h.17a3.83,3.83,0,0,1,1.41-1.63,4.45,4.45,0,0,1,2.45-.61,5,5,0,0,1,2.36.54,3.83,3.83,0,0,1,1.57,1.66,6.23,6.23,0,0,1,.56,2.8v8.41h-2v-8.27a3.46,3.46,0,0,0-.81-2.44,2.89,2.89,0,0,0-2.22-.88,3.56,3.56,0,0,0-1.74.43,3,3,0,0,0-1.2,1.23A4,4,0,0,0,600.32,472.83Z"/><path class="cls-3" d="M618.34,467.55v1.72H611.2v-1.72Zm-5,13.24V465.72a3.21,3.21,0,0,1,.54-1.9,3.31,3.31,0,0,1,1.38-1.13,4.29,4.29,0,0,1,1.81-.38,5.06,5.06,0,0,1,1.22.12,4.76,4.76,0,0,1,.71.22l-.59,1.76-.42-.13a2.81,2.81,0,0,0-.72-.08,1.84,1.84,0,0,0-1.45.51,2.19,2.19,0,0,0-.44,1.49v14.59Z"/><path class="cls-3" d="M626,481.07a5.57,5.57,0,0,1-5.25-3.24,8.08,8.08,0,0,1-.75-3.59,8.17,8.17,0,0,1,.75-3.61,5.8,5.8,0,0,1,10.49,0,8,8,0,0,1,.76,3.61,7.94,7.94,0,0,1-.76,3.59,5.57,5.57,0,0,1-5.24,3.24Zm0-1.83a3.47,3.47,0,0,0,2.24-.7,4,4,0,0,0,1.3-1.83,7.47,7.47,0,0,0,0-4.94,4.11,4.11,0,0,0-1.3-1.86,3.89,3.89,0,0,0-4.48,0,4.13,4.13,0,0,0-1.31,1.86,7.47,7.47,0,0,0,0,4.94,4,4,0,0,0,1.31,1.83A3.45,3.45,0,0,0,626,479.24Z"/><path class="cls-3" d="M645.22,485.45a13.86,13.86,0,0,1-4.66-.72,8.81,8.81,0,0,1-3.41-2.12,9,9,0,0,1-2.09-3.42,14.1,14.1,0,0,1-.7-4.64,13.27,13.27,0,0,1,.72-4.52,8.89,8.89,0,0,1,5.44-5.51,12.68,12.68,0,0,1,4.46-.73,10.6,10.6,0,0,1,4.25.79,8.72,8.72,0,0,1,3,2.13,9,9,0,0,1,1.84,3,9.74,9.74,0,0,1,.62,3.45c0,.84,0,1.68-.12,2.54a9.58,9.58,0,0,1-.51,2.36,3.81,3.81,0,0,1-1.19,1.72,3.36,3.36,0,0,1-2.18.66,5.19,5.19,0,0,1-1.33-.19,3.57,3.57,0,0,1-1.28-.63,1.74,1.74,0,0,1-.67-1.18h-.1a3.27,3.27,0,0,1-.63.95,3,3,0,0,1-1.12.71,4.16,4.16,0,0,1-1.66.24,4.46,4.46,0,0,1-2-.51,4.22,4.22,0,0,1-1.43-1.26,5.73,5.73,0,0,1-.86-1.85,8.79,8.79,0,0,1-.29-2.28,6.26,6.26,0,0,1,.35-2.13,5.28,5.28,0,0,1,1-1.69,4.65,4.65,0,0,1,1.45-1.16,5.14,5.14,0,0,1,3.36-.47,3.41,3.41,0,0,1,1.17.48,1.42,1.42,0,0,1,.58.69h.1v-1h1.83V477a2.12,2.12,0,0,0,.4,1.28,1.4,1.4,0,0,0,1.18.55,1.6,1.6,0,0,0,1.35-.6,4,4,0,0,0,.65-1.87,23.49,23.49,0,0,0,.18-3.22,8.42,8.42,0,0,0-.32-2.28,7.43,7.43,0,0,0-1-2.11,6.76,6.76,0,0,0-1.6-1.74,7.22,7.22,0,0,0-2.26-1.17,9.23,9.23,0,0,0-2.94-.43,9.87,9.87,0,0,0-3.63.63,7.2,7.2,0,0,0-2.72,1.82,8,8,0,0,0-1.7,2.89,12.2,12.2,0,0,0-.58,3.87,12.32,12.32,0,0,0,.58,3.91,7.58,7.58,0,0,0,1.73,2.88,7.47,7.47,0,0,0,2.83,1.78,11.65,11.65,0,0,0,3.9.61,9,9,0,0,0,1.87-.19c.62-.12,1.16-.25,1.63-.39l1-.32.48,1.59a10.56,10.56,0,0,1-1.39.44,17.85,17.85,0,0,1-1.83.38A13.47,13.47,0,0,1,645.22,485.45Zm-1-6.86a3.36,3.36,0,0,0,1.87-.47,2.66,2.66,0,0,0,1-1.4,7.61,7.61,0,0,0,.32-2.38,5.68,5.68,0,0,0-.36-2.25A2.14,2.14,0,0,0,646,471a4.09,4.09,0,0,0-1.74-.33,2.77,2.77,0,0,0-1.68.51,3.35,3.35,0,0,0-1.06,1.36,4.73,4.73,0,0,0-.36,1.85,7,7,0,0,0,.29,2.08,3.27,3.27,0,0,0,1,1.57A2.54,2.54,0,0,0,644.22,478.59Z"/><path class="cls-3" d="M658,480.79V463.13h2v6.52h.17c.15-.23.36-.52.63-.88a3.65,3.65,0,0,1,1.15-1,4.26,4.26,0,0,1,2-.42,5.3,5.3,0,0,1,3,.83,5.62,5.62,0,0,1,2,2.37,9.54,9.54,0,0,1,0,7.27,5.64,5.64,0,0,1-2,2.38,5.18,5.18,0,0,1-2.92.84,4.14,4.14,0,0,1-2.05-.43,3.77,3.77,0,0,1-1.18-1c-.28-.37-.49-.67-.64-.91H660v2Zm2-6.62a7.47,7.47,0,0,0,.44,2.65,4.06,4.06,0,0,0,1.29,1.78,3.69,3.69,0,0,0,4.2,0,4.19,4.19,0,0,0,1.3-1.83,7.26,7.26,0,0,0,.43-2.57,7.16,7.16,0,0,0-.42-2.52,4,4,0,0,0-1.29-1.79,3.81,3.81,0,0,0-4.24,0,3.8,3.8,0,0,0-1.27,1.74A7.15,7.15,0,0,0,660,474.17Z"/><path class="cls-3" d="M676.65,481.11a5.29,5.29,0,0,1-2.28-.48,3.89,3.89,0,0,1-1.63-1.39,3.84,3.84,0,0,1-.61-2.2,3.4,3.4,0,0,1,.45-1.85,3.15,3.15,0,0,1,1.2-1.12,6.54,6.54,0,0,1,1.66-.61c.61-.13,1.22-.24,1.83-.32.81-.11,1.46-.19,2-.24a3,3,0,0,0,1.11-.28.73.73,0,0,0,.35-.69v-.07a2.67,2.67,0,0,0-.7-2,2.82,2.82,0,0,0-2.1-.71,3.61,3.61,0,0,0-2.28.64,3.84,3.84,0,0,0-1.17,1.36l-1.93-.69a4.7,4.7,0,0,1,1.39-1.88,5.19,5.19,0,0,1,1.89-1,8,8,0,0,1,2-.27,8.32,8.32,0,0,1,1.47.15,4.78,4.78,0,0,1,1.62.61,3.64,3.64,0,0,1,1.3,1.41,5.32,5.32,0,0,1,.51,2.52v8.72h-2V479h-.11a3.1,3.1,0,0,1-.69.92,4,4,0,0,1-1.28.84A5,5,0,0,1,676.65,481.11Zm.31-1.83a4,4,0,0,0,2-.48,3.15,3.15,0,0,0,1.26-1.22,3.21,3.21,0,0,0,.43-1.58v-1.86a1.34,1.34,0,0,1-.57.28,9.11,9.11,0,0,1-1,.21c-.37.06-.74.12-1.09.16l-.86.11a8.23,8.23,0,0,0-1.48.33,2.49,2.49,0,0,0-1.1.68,1.73,1.73,0,0,0-.42,1.23,1.8,1.8,0,0,0,.79,1.6A3.45,3.45,0,0,0,677,479.28Z"/><path class="cls-3" d="M695.78,470.52,694,471a3.46,3.46,0,0,0-.5-.89,2.52,2.52,0,0,0-.9-.72,3.28,3.28,0,0,0-1.46-.28,3.48,3.48,0,0,0-2,.55,1.66,1.66,0,0,0-.81,1.41,1.46,1.46,0,0,0,.55,1.2,4.64,4.64,0,0,0,1.73.73l2,.49a5.36,5.36,0,0,1,2.65,1.31,3.11,3.11,0,0,1,.87,2.27,3.35,3.35,0,0,1-.65,2,4.31,4.31,0,0,1-1.81,1.41,6.55,6.55,0,0,1-2.71.52,6,6,0,0,1-3.36-.88,3.93,3.93,0,0,1-1.68-2.57l1.93-.48a2.71,2.71,0,0,0,1,1.6,3.47,3.47,0,0,0,2,.54,3.84,3.84,0,0,0,2.27-.61,1.77,1.77,0,0,0,.84-1.46,1.55,1.55,0,0,0-.48-1.16,3.14,3.14,0,0,0-1.49-.71l-2.2-.51a5.23,5.23,0,0,1-2.67-1.34,3.21,3.21,0,0,1-.85-2.28,3.3,3.3,0,0,1,.63-2,4.29,4.29,0,0,1,1.73-1.35,6.06,6.06,0,0,1,2.5-.49,4.93,4.93,0,0,1,3.09.86A4.64,4.64,0,0,1,695.78,470.52Z"/><path class="cls-3" d="M702.94,481.11a5.29,5.29,0,0,1-2.28-.48,3.89,3.89,0,0,1-1.63-1.39,3.84,3.84,0,0,1-.61-2.2,3.4,3.4,0,0,1,.45-1.85,3.15,3.15,0,0,1,1.2-1.12,6.54,6.54,0,0,1,1.66-.61c.61-.13,1.22-.24,1.83-.32.81-.11,1.46-.19,2-.24a2.93,2.93,0,0,0,1.1-.28.73.73,0,0,0,.35-.69v-.07a2.67,2.67,0,0,0-.7-2,2.82,2.82,0,0,0-2.1-.71,3.61,3.61,0,0,0-2.28.64,3.84,3.84,0,0,0-1.17,1.36l-1.93-.69a4.7,4.7,0,0,1,1.39-1.88,5.19,5.19,0,0,1,1.89-1,8.06,8.06,0,0,1,2-.27,8.3,8.3,0,0,1,1.46.15,4.78,4.78,0,0,1,1.62.61,3.64,3.64,0,0,1,1.3,1.41,5.32,5.32,0,0,1,.51,2.52v8.72h-2V479h-.1a3.35,3.35,0,0,1-.7.92,4,4,0,0,1-1.28.84A4.94,4.94,0,0,1,702.94,481.11Zm.31-1.83a4,4,0,0,0,2-.48,3.15,3.15,0,0,0,1.26-1.22A3.11,3.11,0,0,0,707,476v-1.86a1.34,1.34,0,0,1-.57.28,9.11,9.11,0,0,1-1,.21c-.37.06-.74.12-1.09.16l-.86.11a8.23,8.23,0,0,0-1.48.33,2.55,2.55,0,0,0-1.1.68,1.73,1.73,0,0,0-.42,1.23,1.8,1.8,0,0,0,.79,1.6A3.45,3.45,0,0,0,703.25,479.28Z"/><path class="cls-3" d="M714.72,463.13v17.66h-2V463.13Z"/><path class="cls-3" d="M722.3,481.11a5.37,5.37,0,0,1-2.29-.48,4,4,0,0,1-1.63-1.39,3.91,3.91,0,0,1-.6-2.2,3.4,3.4,0,0,1,.45-1.85,3.15,3.15,0,0,1,1.2-1.12,6.54,6.54,0,0,1,1.66-.61c.6-.13,1.22-.24,1.83-.32.81-.11,1.46-.19,2-.24a3,3,0,0,0,1.11-.28.73.73,0,0,0,.35-.69v-.07a2.72,2.72,0,0,0-.7-2,2.82,2.82,0,0,0-2.1-.71,3.61,3.61,0,0,0-2.28.64,3.74,3.74,0,0,0-1.17,1.36l-1.93-.69a4.68,4.68,0,0,1,1.38-1.88,5.23,5.23,0,0,1,1.9-1,8,8,0,0,1,2-.27,8.32,8.32,0,0,1,1.47.15,4.78,4.78,0,0,1,1.62.61,3.55,3.55,0,0,1,1.29,1.41,5.19,5.19,0,0,1,.52,2.52v8.72h-2V479h-.11a3.5,3.5,0,0,1-.69.92,4,4,0,0,1-1.28.84A5,5,0,0,1,722.3,481.11Zm.31-1.83a4,4,0,0,0,2-.48,3.29,3.29,0,0,0,1.26-1.22,3.21,3.21,0,0,0,.43-1.58v-1.86a1.34,1.34,0,0,1-.57.28,9.11,9.11,0,0,1-1,.21c-.38.06-.74.12-1.1.16l-.85.11a8,8,0,0,0-1.48.33,2.58,2.58,0,0,0-1.11.68,1.77,1.77,0,0,0-.41,1.23,1.8,1.8,0,0,0,.79,1.6A3.45,3.45,0,0,0,722.61,479.28Z"/><path class="cls-3" d="M732.05,480.79V467.55h2v2.07h.18a3.3,3.3,0,0,1,1.33-1.65,4,4,0,0,1,2.22-.59,3.76,3.76,0,0,1,2.18.59,3.86,3.86,0,0,1,1.37,1.65h.14A3.9,3.9,0,0,1,743,468a4.7,4.7,0,0,1,2.44-.6,4,4,0,0,1,2.9,1.1,4.63,4.63,0,0,1,1.13,3.45v8.86h-2v-8.86a2.53,2.53,0,0,0-.8-2.1,3,3,0,0,0-1.89-.63,2.8,2.8,0,0,0-2.17.85,3,3,0,0,0-.77,2.12v8.62h-2.06v-9.07a2.39,2.39,0,0,0-.74-1.82,2.66,2.66,0,0,0-1.89-.7,2.8,2.8,0,0,0-1.48.43,3.18,3.18,0,0,0-1.1,1.17,3.42,3.42,0,0,0-.42,1.72v8.27Z"/><path class="cls-3" d="M754.59,480.93a1.55,1.55,0,0,1-1.55-1.55,1.57,1.57,0,0,1,1.55-1.55,1.49,1.49,0,0,1,1.1.46,1.5,1.5,0,0,1,.46,1.09,1.44,1.44,0,0,1-.22.78,1.58,1.58,0,0,1-.56.56A1.47,1.47,0,0,1,754.59,480.93Z"/><path class="cls-3" d="M765.13,481.07a5.55,5.55,0,0,1-5.27-3.3,8.86,8.86,0,0,1,0-7.09,5.9,5.9,0,0,1,2.08-2.43,5.65,5.65,0,0,1,3.14-.87,6,6,0,0,1,2.52.51,4.86,4.86,0,0,1,1.83,1.45,4.46,4.46,0,0,1,.89,2.18h-2a3.21,3.21,0,0,0-1-1.61,3.15,3.15,0,0,0-2.15-.71,3.59,3.59,0,0,0-2.08.62,4.08,4.08,0,0,0-1.39,1.73,6.45,6.45,0,0,0-.49,2.62,6.86,6.86,0,0,0,.48,2.68,4.16,4.16,0,0,0,1.38,1.76,3.57,3.57,0,0,0,2.1.63,3.7,3.7,0,0,0,1.44-.27,3,3,0,0,0,1.74-2h2a4.69,4.69,0,0,1-2.63,3.59A5.7,5.7,0,0,1,765.13,481.07Z"/><path class="cls-3" d="M778.64,481.07a5.75,5.75,0,0,1-3.14-.85,5.85,5.85,0,0,1-2.11-2.39,8.08,8.08,0,0,1-.75-3.59,8.17,8.17,0,0,1,.75-3.61,5.82,5.82,0,0,1,2.11-2.4,5.81,5.81,0,0,1,8.39,2.4,8.17,8.17,0,0,1,.75,3.61,8.08,8.08,0,0,1-.75,3.59,5.6,5.6,0,0,1-5.25,3.24Zm0-1.83a3.45,3.45,0,0,0,2.24-.7,4.11,4.11,0,0,0,1.31-1.83,7.47,7.47,0,0,0,0-4.94,4.2,4.2,0,0,0-1.31-1.86,3.89,3.89,0,0,0-4.48,0,4.11,4.11,0,0,0-1.3,1.86,7.31,7.31,0,0,0,0,4.94,4,4,0,0,0,1.3,1.83A3.47,3.47,0,0,0,778.64,479.24Z"/><path class="cls-3" d="M787.7,480.79V467.55h2v2.07h.17a3.3,3.3,0,0,1,1.33-1.65,4,4,0,0,1,2.22-.59,3.62,3.62,0,0,1,3.55,2.24h.14a3.9,3.9,0,0,1,1.53-1.64,4.72,4.72,0,0,1,2.44-.6,4,4,0,0,1,2.9,1.1,4.63,4.63,0,0,1,1.13,3.45v8.86h-2v-8.86a2.53,2.53,0,0,0-.8-2.1,3,3,0,0,0-1.89-.63,2.82,2.82,0,0,0-2.17.85,3,3,0,0,0-.76,2.12v8.62h-2.07v-9.07a2.39,2.39,0,0,0-.74-1.82,2.66,2.66,0,0,0-1.89-.7,2.77,2.77,0,0,0-1.47.43,3.13,3.13,0,0,0-1.11,1.17,3.42,3.42,0,0,0-.42,1.72v8.27Z"/><path class="cls-3" d="M517.08,184.87h-4l6.09-17.66H524l6.08,17.66h-4l-4.42-13.63h-.14Zm-.25-6.94h9.45v2.91h-9.45Z"/><path class="cls-3" d="M546,184.87V167.21h6.18a6.5,6.5,0,0,1,3,.63,4.27,4.27,0,0,1,1.79,1.7,4.8,4.8,0,0,1,.58,2.36,3.91,3.91,0,0,1-.4,1.88,3.31,3.31,0,0,1-1.05,1.17,5,5,0,0,1-1.41.64v.17a3.48,3.48,0,0,1,1.63.57,4.18,4.18,0,0,1,1.37,1.48,5.19,5.19,0,0,1,0,4.75,4.24,4.24,0,0,1-1.91,1.69,8,8,0,0,1-3.39.62Zm2.14-9.9h4a4,4,0,0,0,1.74-.38,3.18,3.18,0,0,0,1.25-1.07,2.9,2.9,0,0,0,.46-1.62,2.69,2.69,0,0,0-.81-2,3.48,3.48,0,0,0-2.57-.82h-4Zm0,8h4.24a4.37,4.37,0,0,0,3-.81,2.62,2.62,0,0,0,.89-2,3.19,3.19,0,0,0-.46-1.66,3.43,3.43,0,0,0-1.3-1.23,4.1,4.1,0,0,0-2-.46h-4.35Z"/><path class="cls-3" d="M565.3,185.18a5.33,5.33,0,0,1-2.29-.48,3.75,3.75,0,0,1-2.23-3.59,3.4,3.4,0,0,1,.45-1.85,3.05,3.05,0,0,1,1.19-1.12,6.69,6.69,0,0,1,1.66-.61c.61-.13,1.22-.24,1.84-.32l2-.24a2.93,2.93,0,0,0,1.1-.28.73.73,0,0,0,.35-.69v-.07a2.71,2.71,0,0,0-.69-2,2.85,2.85,0,0,0-2.1-.71,3.71,3.71,0,0,0-2.29.64,3.79,3.79,0,0,0-1.16,1.36l-1.93-.69a4.59,4.59,0,0,1,1.38-1.88,5.23,5.23,0,0,1,1.9-.95,7.93,7.93,0,0,1,2-.27,8.5,8.5,0,0,1,1.47.15,4.84,4.84,0,0,1,1.61.62,3.68,3.68,0,0,1,1.3,1.4,5.31,5.31,0,0,1,.52,2.52v8.73h-2v-1.8h-.1a3.7,3.7,0,0,1-.69.93,4,4,0,0,1-1.29.83A4.89,4.89,0,0,1,565.3,185.18Zm.31-1.83a4.16,4.16,0,0,0,2-.47,3.28,3.28,0,0,0,1.25-1.23,3.11,3.11,0,0,0,.43-1.58v-1.86a1.14,1.14,0,0,1-.56.28,9.5,9.5,0,0,1-1,.22l-1.1.15-.86.11a8.23,8.23,0,0,0-1.48.33,2.61,2.61,0,0,0-1.1.68,1.73,1.73,0,0,0-.42,1.23,1.82,1.82,0,0,0,.79,1.6A3.5,3.5,0,0,0,565.61,183.35Z"/><path class="cls-3" d="M584.33,174.59l-1.83.52a3.36,3.36,0,0,0-.5-.9,2.61,2.61,0,0,0-.9-.72,3.28,3.28,0,0,0-1.46-.28,3.46,3.46,0,0,0-2,.55,1.68,1.68,0,0,0-.81,1.41,1.44,1.44,0,0,0,.55,1.2,4.55,4.55,0,0,0,1.73.74l2,.48a5.45,5.45,0,0,1,2.65,1.31,3.11,3.11,0,0,1,.87,2.28,3.39,3.39,0,0,1-.65,2,4.38,4.38,0,0,1-1.82,1.42,6.64,6.64,0,0,1-2.7.51,5.93,5.93,0,0,1-3.36-.88,3.91,3.91,0,0,1-1.68-2.57l1.93-.48a2.71,2.71,0,0,0,1.05,1.6,3.45,3.45,0,0,0,2,.54,3.77,3.77,0,0,0,2.27-.61,1.76,1.76,0,0,0,.84-1.46,1.53,1.53,0,0,0-.49-1.16,3.05,3.05,0,0,0-1.48-.7l-2.21-.52a5.24,5.24,0,0,1-2.67-1.34,3.25,3.25,0,0,1-.85-2.28,3.31,3.31,0,0,1,.64-2,4.29,4.29,0,0,1,1.73-1.35,6,6,0,0,1,2.5-.49,5,5,0,0,1,3.09.86A4.73,4.73,0,0,1,584.33,174.59Z"/><path class="cls-3" d="M591.39,185.18a5.29,5.29,0,0,1-2.28-.48,3.82,3.82,0,0,1-1.63-1.39,3.92,3.92,0,0,1-.61-2.2,3.4,3.4,0,0,1,.45-1.85,3.15,3.15,0,0,1,1.2-1.12,6.54,6.54,0,0,1,1.66-.61c.61-.13,1.22-.24,1.83-.32l2-.24a2.93,2.93,0,0,0,1.1-.28.73.73,0,0,0,.35-.69v-.07a2.67,2.67,0,0,0-.7-2,2.82,2.82,0,0,0-2.1-.71,3.68,3.68,0,0,0-2.28.64,3.93,3.93,0,0,0-1.17,1.36l-1.93-.69a4.7,4.7,0,0,1,1.39-1.88,5.19,5.19,0,0,1,1.89-.95,8.06,8.06,0,0,1,2-.27,8.5,8.5,0,0,1,1.47.15,4.84,4.84,0,0,1,1.61.62,3.68,3.68,0,0,1,1.3,1.4,5.32,5.32,0,0,1,.51,2.52v8.73h-2v-1.8h-.1a3.53,3.53,0,0,1-.7.93,4.11,4.11,0,0,1-1.28.83A4.94,4.94,0,0,1,591.39,185.18Zm.31-1.83a4.1,4.1,0,0,0,2-.47,3.24,3.24,0,0,0,1.26-1.23,3.11,3.11,0,0,0,.43-1.58v-1.86a1.24,1.24,0,0,1-.57.28,9,9,0,0,1-1,.22l-1.09.15-.86.11a8.23,8.23,0,0,0-1.48.33,2.55,2.55,0,0,0-1.1.68,1.73,1.73,0,0,0-.42,1.23,1.8,1.8,0,0,0,.79,1.6A3.45,3.45,0,0,0,591.7,183.35Z"/><path class="cls-3" d="M603.08,167.21v17.66h-2V167.21Z"/><path class="cls-3" d="M610.56,185.18a5.33,5.33,0,0,1-2.29-.48,3.75,3.75,0,0,1-2.23-3.59,3.4,3.4,0,0,1,.45-1.85,3.05,3.05,0,0,1,1.19-1.12,6.69,6.69,0,0,1,1.66-.61c.61-.13,1.22-.24,1.84-.32l2-.24a2.93,2.93,0,0,0,1.1-.28.73.73,0,0,0,.35-.69v-.07a2.71,2.71,0,0,0-.69-2,2.85,2.85,0,0,0-2.1-.71,3.71,3.71,0,0,0-2.29.64,3.79,3.79,0,0,0-1.16,1.36l-1.93-.69a4.59,4.59,0,0,1,1.38-1.88,5.23,5.23,0,0,1,1.9-.95,7.93,7.93,0,0,1,2-.27,8.5,8.5,0,0,1,1.47.15,4.84,4.84,0,0,1,1.61.62,3.68,3.68,0,0,1,1.3,1.4,5.31,5.31,0,0,1,.52,2.52v8.73h-2v-1.8h-.1a3.7,3.7,0,0,1-.69.93,4,4,0,0,1-1.29.83A4.89,4.89,0,0,1,610.56,185.18Zm.31-1.83a4.16,4.16,0,0,0,2-.47,3.28,3.28,0,0,0,1.25-1.23,3.11,3.11,0,0,0,.43-1.58v-1.86a1.19,1.19,0,0,1-.56.28,9.5,9.5,0,0,1-1,.22l-1.1.15-.86.11a8.23,8.23,0,0,0-1.48.33,2.61,2.61,0,0,0-1.1.68,1.73,1.73,0,0,0-.42,1.23,1.8,1.8,0,0,0,.79,1.6A3.5,3.5,0,0,0,610.87,183.35Z"/><path class="cls-3" d="M620.21,184.87V171.62h2v2.07h.17a3.37,3.37,0,0,1,1.34-1.65,4.09,4.09,0,0,1,2.22-.59,3.65,3.65,0,0,1,3.55,2.24h.14a3.87,3.87,0,0,1,1.53-1.63,4.6,4.6,0,0,1,2.44-.61,4,4,0,0,1,2.9,1.11,4.64,4.64,0,0,1,1.13,3.44v8.87h-2V176a2.48,2.48,0,0,0-.81-2.09,2.94,2.94,0,0,0-1.88-.63,2.78,2.78,0,0,0-2.17.84,3,3,0,0,0-.77,2.12v8.63h-2.07V175.8a2.39,2.39,0,0,0-.73-1.83,2.65,2.65,0,0,0-1.89-.69,2.79,2.79,0,0,0-1.48.42,3.18,3.18,0,0,0-1.1,1.17,3.45,3.45,0,0,0-.42,1.72v8.28Z"/><path class="cls-3" d="M315.69,205.72a10.82,10.82,0,0,1-1,4.83,7.72,7.72,0,0,1-2.77,3.14,7.9,7.9,0,0,1-8,0,7.72,7.72,0,0,1-2.77-3.14,12.16,12.16,0,0,1,0-9.66,7.59,7.59,0,0,1,2.77-3.14,7.9,7.9,0,0,1,8,0,7.59,7.59,0,0,1,2.77,3.14A10.76,10.76,0,0,1,315.69,205.72Zm-2.07,0a8.81,8.81,0,0,0-.77-3.87,5.53,5.53,0,0,0-2.06-2.39,5.6,5.6,0,0,0-5.8,0,5.53,5.53,0,0,0-2.06,2.39,10.23,10.23,0,0,0,0,7.74A5.59,5.59,0,0,0,305,212a5.6,5.6,0,0,0,5.8,0,5.59,5.59,0,0,0,2.06-2.39A8.81,8.81,0,0,0,313.62,205.72Z"/><path class="cls-3" d="M320.89,196.89v17.66h-2V196.89Z"/><path class="cls-3" d="M332.81,209.13V201.3h2v13.25h-2v-2.24h-.13a4.38,4.38,0,0,1-1.45,1.71,4.16,4.16,0,0,1-2.49.7,4.33,4.33,0,0,1-2.2-.55,3.7,3.7,0,0,1-1.52-1.65,6.24,6.24,0,0,1-.55-2.8V201.3h2v8.28a3.18,3.18,0,0,0,.82,2.31,2.7,2.7,0,0,0,2.08.86,3.61,3.61,0,0,0,1.55-.38,3.5,3.5,0,0,0,1.33-1.19A3.69,3.69,0,0,0,332.81,209.13Z"/><path class="cls-3" d="M338.43,214.55V201.3h2v2.07h.17a3.3,3.3,0,0,1,1.33-1.65,4.09,4.09,0,0,1,2.22-.59,3.89,3.89,0,0,1,2.19.59,3.84,3.84,0,0,1,1.36,1.65h.14a3.87,3.87,0,0,1,1.53-1.63,4.63,4.63,0,0,1,2.44-.61,4,4,0,0,1,2.9,1.11,4.6,4.6,0,0,1,1.13,3.44v8.87h-2v-8.87a2.52,2.52,0,0,0-.8-2.09,3,3,0,0,0-1.89-.63,2.81,2.81,0,0,0-2.17.84,3,3,0,0,0-.76,2.12v8.63h-2.07v-9.07a2.4,2.4,0,0,0-.74-1.83,2.62,2.62,0,0,0-1.89-.69,2.75,2.75,0,0,0-1.47.42,3.13,3.13,0,0,0-1.11,1.17,3.45,3.45,0,0,0-.42,1.72v8.28Z"/><path class="cls-3" d="M376,201.3a2.68,2.68,0,0,0-1.26-2,4.73,4.73,0,0,0-2.7-.73,5.14,5.14,0,0,0-2.05.38,3.1,3.1,0,0,0-1.36,1.05,2.43,2.43,0,0,0-.49,1.5,2.11,2.11,0,0,0,.34,1.22,3,3,0,0,0,.87.83,6.56,6.56,0,0,0,1.13.55c.39.14.75.25,1.07.34l1.8.48c.46.12,1,.29,1.54.5a7.14,7.14,0,0,1,1.63.87,4.45,4.45,0,0,1,1.29,1.4,4.12,4.12,0,0,1,.5,2.09,4.64,4.64,0,0,1-.74,2.59,5.21,5.21,0,0,1-2.17,1.84,8.1,8.1,0,0,1-3.47.68,8.2,8.2,0,0,1-3.28-.61,5.19,5.19,0,0,1-2.17-1.71,4.83,4.83,0,0,1-.89-2.55h2.2a2.8,2.8,0,0,0,.68,1.66,3.53,3.53,0,0,0,1.5,1,6,6,0,0,0,2,.32,5.87,5.87,0,0,0,2.2-.4,3.79,3.79,0,0,0,1.55-1.13,2.68,2.68,0,0,0,.56-1.68,2,2,0,0,0-.49-1.43,3.55,3.55,0,0,0-1.29-.9,13.49,13.49,0,0,0-1.73-.6l-2.18-.62a8.14,8.14,0,0,1-3.27-1.7,3.72,3.72,0,0,1-1.21-2.89,4.33,4.33,0,0,1,.8-2.59,5.37,5.37,0,0,1,2.18-1.73,7.37,7.37,0,0,1,3.06-.61,7.28,7.28,0,0,1,3,.6,5.34,5.34,0,0,1,2.11,1.66,4.15,4.15,0,0,1,.82,2.39Z"/><path class="cls-3" d="M390.46,219.51v-7h-.17c-.15.24-.37.55-.64.91a3.79,3.79,0,0,1-1.18,1,4.31,4.31,0,0,1-2.05.42,5.16,5.16,0,0,1-2.92-.84,5.5,5.5,0,0,1-2-2.38,9.51,9.51,0,0,1,0-7.26,5.43,5.43,0,0,1,2-2.37,5.23,5.23,0,0,1,2.95-.84,4.07,4.07,0,0,1,2,.43,3.55,3.55,0,0,1,1.16,1c.27.36.48.66.63.89h.24V201.3h2v18.21ZM386.7,213a3.34,3.34,0,0,0,2.07-.65,4,4,0,0,0,1.28-1.78,8.14,8.14,0,0,0,0-5.25,3.87,3.87,0,0,0-1.27-1.74,3.47,3.47,0,0,0-2.09-.62,3.42,3.42,0,0,0-2.15.66,3.94,3.94,0,0,0-1.29,1.78,7.66,7.66,0,0,0,0,5.09,4.12,4.12,0,0,0,1.29,1.83A3.38,3.38,0,0,0,386.7,213Z"/><path class="cls-3" d="M397.56,214.69a1.57,1.57,0,0,1-1.56-1.56,1.5,1.5,0,0,1,.46-1.09,1.49,1.49,0,0,1,1.1-.46,1.57,1.57,0,0,1,1.55,1.55,1.5,1.5,0,0,1-.21.78,1.58,1.58,0,0,1-.56.56A1.44,1.44,0,0,1,397.56,214.69Z"/><path class="cls-3" d="M405.65,212.13l-.13.93a19.62,19.62,0,0,1-.45,2.11c-.2.75-.4,1.45-.61,2.11s-.39,1.19-.53,1.58h-1.55c.07-.37.17-.85.29-1.46s.24-1.28.37-2,.22-1.5.3-2.28l.11-1Z"/><path class="cls-3" d="M421.68,214.55h-5.45V196.89h5.69a8.71,8.71,0,0,1,4.4,1.05,7,7,0,0,1,2.8,3,11.85,11.85,0,0,1,0,9.46,6.92,6.92,0,0,1-2.86,3A9.14,9.14,0,0,1,421.68,214.55Zm-3.31-1.9h3.17a7.12,7.12,0,0,0,3.63-.84,5.25,5.25,0,0,0,2.15-2.41,10.06,10.06,0,0,0,0-7.4,5.12,5.12,0,0,0-2.09-2.38,6.59,6.59,0,0,0-3.46-.84h-3.41Z"/><path class="cls-3" d="M437.16,214.86a5.37,5.37,0,0,1-2.29-.48,3.75,3.75,0,0,1-2.23-3.59,3.4,3.4,0,0,1,.45-1.85,3.15,3.15,0,0,1,1.2-1.12,6.54,6.54,0,0,1,1.66-.61c.6-.13,1.21-.24,1.83-.32l2-.24a2.93,2.93,0,0,0,1.1-.28.71.71,0,0,0,.35-.69v-.07a2.71,2.71,0,0,0-.69-2,2.82,2.82,0,0,0-2.1-.71,3.73,3.73,0,0,0-2.29.64,3.79,3.79,0,0,0-1.16,1.36l-1.93-.69a4.68,4.68,0,0,1,1.38-1.88,5.23,5.23,0,0,1,1.9-.95,8,8,0,0,1,2-.27,8.32,8.32,0,0,1,1.47.15,4.75,4.75,0,0,1,1.61.62,3.61,3.61,0,0,1,1.3,1.4,5.19,5.19,0,0,1,.52,2.52v8.73h-2v-1.8h-.1a3.7,3.7,0,0,1-.69.93,4.11,4.11,0,0,1-1.28.83A5,5,0,0,1,437.16,214.86Zm.31-1.83a4.16,4.16,0,0,0,2-.47,3.39,3.39,0,0,0,1.26-1.23,3.2,3.2,0,0,0,.42-1.58v-1.86a1.14,1.14,0,0,1-.56.28,9.5,9.5,0,0,1-1,.22l-1.1.15-.85.11a8,8,0,0,0-1.48.33,2.58,2.58,0,0,0-1.11.68,1.73,1.73,0,0,0-.42,1.23,1.82,1.82,0,0,0,.79,1.6A3.5,3.5,0,0,0,437.47,213Z"/><path class="cls-3" d="M448.84,206.58v8h-2V201.3h2v2.07H449a3.81,3.81,0,0,1,1.41-1.62,4.43,4.43,0,0,1,2.45-.62,4.84,4.84,0,0,1,2.36.55,3.68,3.68,0,0,1,1.56,1.65,6.1,6.1,0,0,1,.56,2.8v8.42h-2v-8.28a3.47,3.47,0,0,0-.81-2.44,2.89,2.89,0,0,0-2.23-.87,3.54,3.54,0,0,0-1.73.42,3.05,3.05,0,0,0-1.21,1.23A4.12,4.12,0,0,0,448.84,206.58Z"/><path class="cls-3" d="M466.43,214.82a6.14,6.14,0,0,1-3.3-.85,5.6,5.6,0,0,1-2.13-2.38,8,8,0,0,1-.75-3.56,8.14,8.14,0,0,1,.75-3.59,5.88,5.88,0,0,1,2.09-2.44,5.62,5.62,0,0,1,3.13-.87,6.34,6.34,0,0,1,2,.34,5.15,5.15,0,0,1,1.83,1.12,5.54,5.54,0,0,1,1.32,2,8.66,8.66,0,0,1,.49,3.12v.86H461.7v-1.75h8.14a4.37,4.37,0,0,0-.44-2,3.42,3.42,0,0,0-3.18-1.89,3.65,3.65,0,0,0-2.1.6,4.06,4.06,0,0,0-1.36,1.55,4.68,4.68,0,0,0-.47,2.06v1.17a5.58,5.58,0,0,0,.52,2.54,3.71,3.71,0,0,0,1.45,1.58,4.29,4.29,0,0,0,2.17.54,4.41,4.41,0,0,0,1.45-.23,3.24,3.24,0,0,0,1.13-.69,3.15,3.15,0,0,0,.73-1.15l2,.55a4.37,4.37,0,0,1-1,1.75,5,5,0,0,1-1.81,1.18A6.82,6.82,0,0,1,466.43,214.82Z"/><path class="cls-3" d="M484.25,204.27l-1.82.52a3.7,3.7,0,0,0-.51-.9,2.52,2.52,0,0,0-.9-.72,3.25,3.25,0,0,0-1.46-.28,3.48,3.48,0,0,0-2,.55,1.68,1.68,0,0,0-.81,1.41,1.44,1.44,0,0,0,.56,1.2,4.5,4.5,0,0,0,1.72.74l2,.48a5.54,5.54,0,0,1,2.64,1.31,3.08,3.08,0,0,1,.88,2.28,3.33,3.33,0,0,1-.66,2,4.35,4.35,0,0,1-1.81,1.42,6.72,6.72,0,0,1-2.71.51,5.9,5.9,0,0,1-3.35-.88,3.84,3.84,0,0,1-1.68-2.57l1.93-.48a2.7,2.7,0,0,0,1,1.61,3.56,3.56,0,0,0,2,.53,3.74,3.74,0,0,0,2.26-.61,1.76,1.76,0,0,0,.84-1.46,1.55,1.55,0,0,0-.48-1.16,3.09,3.09,0,0,0-1.49-.7l-2.2-.52a5.16,5.16,0,0,1-2.67-1.34,3.21,3.21,0,0,1-.85-2.28,3.3,3.3,0,0,1,.63-2,4.33,4.33,0,0,1,1.74-1.35,6,6,0,0,1,2.49-.49,5,5,0,0,1,3.09.86A4.67,4.67,0,0,1,484.25,204.27Z"/><path class="cls-3" d="M489.46,206.58v8h-2V196.89h2v6.48h.17a3.76,3.76,0,0,1,1.4-1.63,4.49,4.49,0,0,1,2.5-.61,5,5,0,0,1,2.37.54,3.72,3.72,0,0,1,1.58,1.65,6.09,6.09,0,0,1,.56,2.81v8.42h-2v-8.28a3.42,3.42,0,0,0-.82-2.45,3,3,0,0,0-2.25-.86,3.75,3.75,0,0,0-1.79.42,3,3,0,0,0-1.24,1.23A4,4,0,0,0,489.46,206.58Z"/><path class="cls-3" d="M507,219.79a7.69,7.69,0,0,1-2.54-.37,5.41,5.41,0,0,1-2.88-2.29l1.63-1.13c.18.24.41.52.69.83a3.74,3.74,0,0,0,1.16.82A4.64,4.64,0,0,0,507,218a4.32,4.32,0,0,0,2.65-.78,2.85,2.85,0,0,0,1-2.43V212.1h-.17a9.58,9.58,0,0,1-.64.89,3.55,3.55,0,0,1-1.17.94,4.4,4.4,0,0,1-2.06.41,5.47,5.47,0,0,1-2.87-.76,5.21,5.21,0,0,1-2-2.21,7.65,7.65,0,0,1-.74-3.51,8.18,8.18,0,0,1,.72-3.55,5.62,5.62,0,0,1,2-2.35,5.3,5.3,0,0,1,3-.83,4.18,4.18,0,0,1,2.06.43,3.59,3.59,0,0,1,1.17,1c.27.36.48.66.63.89h.21V201.3h2v13.63a4.62,4.62,0,0,1-.78,2.78,4.51,4.51,0,0,1-2.07,1.58A8,8,0,0,1,507,219.79Zm-.07-7.28A3.6,3.6,0,0,0,509,212a3.54,3.54,0,0,0,1.29-1.61,6.57,6.57,0,0,0,.44-2.52,6.84,6.84,0,0,0-.44-2.53,3.71,3.71,0,0,0-1.27-1.71,3.41,3.41,0,0,0-2.09-.62,3.48,3.48,0,0,0-2.15.65,4.07,4.07,0,0,0-1.29,1.76,6.85,6.85,0,0,0-.42,2.45,6.4,6.4,0,0,0,.43,2.44,3.49,3.49,0,0,0,3.43,2.25Z"/><path class="cls-3" d="M520.17,214.86a5.29,5.29,0,0,1-2.28-.48,3.82,3.82,0,0,1-1.63-1.39,3.91,3.91,0,0,1-.6-2.2,3.4,3.4,0,0,1,.44-1.85,3.15,3.15,0,0,1,1.2-1.12,6.69,6.69,0,0,1,1.66-.61c.61-.13,1.22-.24,1.83-.32l2-.24a2.93,2.93,0,0,0,1.1-.28.73.73,0,0,0,.35-.69v-.07a2.71,2.71,0,0,0-.69-2,2.85,2.85,0,0,0-2.1-.71,3.69,3.69,0,0,0-2.29.64,3.79,3.79,0,0,0-1.16,1.36l-1.94-.69a4.7,4.7,0,0,1,1.39-1.88,5.23,5.23,0,0,1,1.9-.95,7.93,7.93,0,0,1,2-.27,8.5,8.5,0,0,1,1.47.15,4.84,4.84,0,0,1,1.61.62,3.68,3.68,0,0,1,1.3,1.4,5.31,5.31,0,0,1,.52,2.52v8.73h-2v-1.8h-.1a3.7,3.7,0,0,1-.69.93,4.16,4.16,0,0,1-1.29.83A4.94,4.94,0,0,1,520.17,214.86Zm.31-1.83a4.1,4.1,0,0,0,2-.47,3.24,3.24,0,0,0,1.26-1.23,3.11,3.11,0,0,0,.43-1.58v-1.86a1.24,1.24,0,0,1-.57.28,9,9,0,0,1-1,.22l-1.09.15-.86.11a8.23,8.23,0,0,0-1.48.33,2.55,2.55,0,0,0-1.1.68,1.73,1.73,0,0,0-.42,1.23,1.8,1.8,0,0,0,.79,1.6A3.45,3.45,0,0,0,520.48,213Z"/><path class="cls-3" d="M531.86,206.58v8h-2V196.89h2v6.48H532a3.76,3.76,0,0,1,1.4-1.63,4.51,4.51,0,0,1,2.5-.61,5,5,0,0,1,2.37.54,3.66,3.66,0,0,1,1.58,1.65,6.08,6.08,0,0,1,.57,2.81v8.42h-2v-8.28a3.47,3.47,0,0,0-.81-2.45,3,3,0,0,0-2.26-.86,3.78,3.78,0,0,0-1.79.42,3.06,3.06,0,0,0-1.24,1.23A4,4,0,0,0,531.86,206.58Z"/><path class="cls-3" d="M551.71,214.55h-2.24L556,196.89h2.2l6.49,17.66h-2.24l-5.28-14.87H557Zm.83-6.9h9v1.9h-9Z"/><path class="cls-3" d="M576.16,201.3l-4.9,13.25h-2.07L564.3,201.3h2.2l3.66,10.56h.14L574,201.3Z"/><path class="cls-3" d="M583.78,214.82a6.14,6.14,0,0,1-3.3-.85,5.6,5.6,0,0,1-2.13-2.38,8,8,0,0,1-.75-3.56,8.14,8.14,0,0,1,.75-3.59,5.93,5.93,0,0,1,2.08-2.44,5.65,5.65,0,0,1,3.14-.87,6.24,6.24,0,0,1,2,.34,5.1,5.1,0,0,1,1.84,1.12,5.54,5.54,0,0,1,1.32,2,8.66,8.66,0,0,1,.49,3.12v.86H579.05v-1.75h8.14a4.5,4.5,0,0,0-.44-2,3.42,3.42,0,0,0-3.18-1.89,3.65,3.65,0,0,0-2.1.6,4.06,4.06,0,0,0-1.36,1.55,4.54,4.54,0,0,0-.47,2.06v1.17a5.58,5.58,0,0,0,.52,2.54,3.71,3.71,0,0,0,1.45,1.58,4.24,4.24,0,0,0,2.17.54,4.41,4.41,0,0,0,1.45-.23,3.34,3.34,0,0,0,1.13-.69,3.15,3.15,0,0,0,.73-1.15l2,.55a4.23,4.23,0,0,1-1,1.75,5,5,0,0,1-1.81,1.18A6.86,6.86,0,0,1,583.78,214.82Z"/><path class="cls-3" d="M593.7,214.69a1.5,1.5,0,0,1-1.09-.46,1.49,1.49,0,0,1-.46-1.1,1.57,1.57,0,0,1,1.55-1.55,1.49,1.49,0,0,1,1.1.46,1.5,1.5,0,0,1,.46,1.09,1.42,1.42,0,0,1-.22.78,1.5,1.5,0,0,1-.56.56A1.39,1.39,0,0,1,593.7,214.69Z"/><path class="cls-3" d="M601.8,212.13l-.14.93a17.33,17.33,0,0,1-.44,2.11c-.2.75-.4,1.45-.62,2.11s-.39,1.19-.52,1.58h-1.56c.08-.37.18-.85.3-1.46s.24-1.28.36-2,.23-1.5.31-2.28l.1-1Z"/><path class="cls-3" d="M612.38,214.55V196.89h6a7,7,0,0,1,3.41.74,4.76,4.76,0,0,1,2,2,6.22,6.22,0,0,1,.64,2.82,6.31,6.31,0,0,1-.64,2.84,4.71,4.71,0,0,1-2,2,6.69,6.69,0,0,1-3.38.76H614.1v-1.9h4.21a4.54,4.54,0,0,0,2.28-.49,2.94,2.94,0,0,0,1.26-1.33,4.5,4.5,0,0,0,.39-1.91,4.44,4.44,0,0,0-.39-1.89,2.87,2.87,0,0,0-1.26-1.32,4.85,4.85,0,0,0-2.32-.48h-3.76v15.77Z"/><path class="cls-3" d="M631.27,214.86a5.29,5.29,0,0,1-2.28-.48,3.78,3.78,0,0,1-2.24-3.59,3.4,3.4,0,0,1,.45-1.85,3.15,3.15,0,0,1,1.2-1.12,6.54,6.54,0,0,1,1.66-.61c.61-.13,1.22-.24,1.83-.32l2-.24a3,3,0,0,0,1.11-.28.73.73,0,0,0,.35-.69v-.07a2.72,2.72,0,0,0-.7-2,2.82,2.82,0,0,0-2.1-.71,3.68,3.68,0,0,0-2.28.64,3.83,3.83,0,0,0-1.17,1.36l-1.93-.69a4.78,4.78,0,0,1,1.38-1.88,5.31,5.31,0,0,1,1.9-.95,8,8,0,0,1,2-.27,8.32,8.32,0,0,1,1.47.15,4.8,4.8,0,0,1,1.62.62,3.59,3.59,0,0,1,1.29,1.4,5.19,5.19,0,0,1,.52,2.52v8.73h-2v-1.8h-.11a3.7,3.7,0,0,1-.69.93,4.11,4.11,0,0,1-1.28.83A5,5,0,0,1,631.27,214.86Zm.31-1.83a4.1,4.1,0,0,0,2-.47,3.39,3.39,0,0,0,1.26-1.23,3.21,3.21,0,0,0,.43-1.58v-1.86a1.24,1.24,0,0,1-.57.28,9,9,0,0,1-1,.22l-1.09.15-.86.11a8.23,8.23,0,0,0-1.48.33,2.49,2.49,0,0,0-1.1.68,1.73,1.73,0,0,0-.42,1.23,1.8,1.8,0,0,0,.79,1.6A3.45,3.45,0,0,0,631.58,213Z"/><path class="cls-3" d="M640.92,214.55V201.3h2v2H643a3.15,3.15,0,0,1,1.31-1.59,3.82,3.82,0,0,1,2.13-.62H647l.5,0v2.07a3.14,3.14,0,0,0-.47-.08,4.72,4.72,0,0,0-.77-.06,3.58,3.58,0,0,0-1.72.4,3.1,3.1,0,0,0-1.19,1.11,3,3,0,0,0-.43,1.6v8.38Z"/><path class="cls-3" d="M654.4,214.82a5.16,5.16,0,0,1-2.92-.84,5.59,5.59,0,0,1-2-2.38,9.63,9.63,0,0,1,0-7.26,5.45,5.45,0,0,1,2-2.37,5.22,5.22,0,0,1,2.94-.84,4.09,4.09,0,0,1,2.05.43,3.55,3.55,0,0,1,1.16,1c.27.36.47.66.62.89h.18v-6.52h2v17.66h-2v-2h-.24c-.15.24-.36.55-.63.91a3.72,3.72,0,0,1-1.19,1A4.24,4.24,0,0,1,654.4,214.82Zm.28-1.82a3.34,3.34,0,0,0,2.07-.65,4,4,0,0,0,1.28-1.78,7.39,7.39,0,0,0,.44-2.65,7.2,7.2,0,0,0-.43-2.6,3.82,3.82,0,0,0-1.28-1.74,3.83,3.83,0,0,0-4.24,0,3.92,3.92,0,0,0-1.28,1.78,7.66,7.66,0,0,0,0,5.09,4.12,4.12,0,0,0,1.29,1.83A3.36,3.36,0,0,0,654.68,213Z"/><path class="cls-3" d="M665.36,199.09a1.43,1.43,0,0,1-1-.4,1.32,1.32,0,0,1,0-1.95,1.44,1.44,0,0,1,1-.41,1.42,1.42,0,0,1,1,.41,1.32,1.32,0,0,1,0,1.95A1.41,1.41,0,0,1,665.36,199.09Zm-1,15.46V201.3h2v13.25Z"/><path class="cls-3" d="M679.32,204.27l-1.82.52a3.7,3.7,0,0,0-.51-.9,2.52,2.52,0,0,0-.9-.72,3.25,3.25,0,0,0-1.46-.28,3.48,3.48,0,0,0-2,.55,1.68,1.68,0,0,0-.81,1.41,1.44,1.44,0,0,0,.56,1.2,4.5,4.5,0,0,0,1.72.74l2,.48a5.54,5.54,0,0,1,2.64,1.31,3.08,3.08,0,0,1,.88,2.28,3.39,3.39,0,0,1-.65,2,4.44,4.44,0,0,1-1.82,1.42,6.72,6.72,0,0,1-2.71.51,5.9,5.9,0,0,1-3.35-.88,3.84,3.84,0,0,1-1.68-2.57l1.93-.48a2.7,2.7,0,0,0,1,1.61,3.56,3.56,0,0,0,2,.53,3.74,3.74,0,0,0,2.26-.61,1.76,1.76,0,0,0,.84-1.46,1.55,1.55,0,0,0-.48-1.16,3.1,3.1,0,0,0-1.48-.7l-2.21-.52a5.16,5.16,0,0,1-2.67-1.34,3.21,3.21,0,0,1-.85-2.28,3.3,3.3,0,0,1,.63-2,4.33,4.33,0,0,1,1.74-1.35,6,6,0,0,1,2.49-.49,5,5,0,0,1,3.09.86A4.67,4.67,0,0,1,679.32,204.27Z"/><path class="cls-3" d="M686.39,214.86a5.37,5.37,0,0,1-2.29-.48,3.75,3.75,0,0,1-2.23-3.59,3.4,3.4,0,0,1,.45-1.85,3.15,3.15,0,0,1,1.2-1.12,6.54,6.54,0,0,1,1.66-.61c.6-.13,1.21-.24,1.83-.32l2-.24a2.93,2.93,0,0,0,1.1-.28.71.71,0,0,0,.35-.69v-.07a2.71,2.71,0,0,0-.69-2,2.82,2.82,0,0,0-2.1-.71,3.73,3.73,0,0,0-2.29.64,3.79,3.79,0,0,0-1.16,1.36l-1.93-.69a4.59,4.59,0,0,1,1.38-1.88,5.23,5.23,0,0,1,1.9-.95,8,8,0,0,1,2-.27,8.32,8.32,0,0,1,1.47.15,4.84,4.84,0,0,1,1.61.62,3.61,3.61,0,0,1,1.3,1.4,5.19,5.19,0,0,1,.52,2.52v8.73h-2v-1.8h-.1a3.7,3.7,0,0,1-.69.93,4,4,0,0,1-1.29.83A4.89,4.89,0,0,1,686.39,214.86Zm.31-1.83a4.16,4.16,0,0,0,2-.47,3.39,3.39,0,0,0,1.26-1.23,3.2,3.2,0,0,0,.42-1.58v-1.86a1.14,1.14,0,0,1-.56.28,9.5,9.5,0,0,1-1,.22l-1.1.15-.85.11a8,8,0,0,0-1.48.33,2.58,2.58,0,0,0-1.11.68,1.73,1.73,0,0,0-.42,1.23,1.82,1.82,0,0,0,.79,1.6A3.5,3.5,0,0,0,686.7,213Z"/><path class="cls-3" d="M698.07,206.58v8h-2V201.3h2v2.07h.18a3.81,3.81,0,0,1,1.41-1.62,4.43,4.43,0,0,1,2.45-.62,4.77,4.77,0,0,1,2.35.55,3.64,3.64,0,0,1,1.57,1.65,6.1,6.1,0,0,1,.56,2.8v8.42h-2v-8.28a3.47,3.47,0,0,0-.81-2.44,2.89,2.89,0,0,0-2.23-.87,3.52,3.52,0,0,0-1.73.42,3.05,3.05,0,0,0-1.21,1.23A4.12,4.12,0,0,0,698.07,206.58Z"/><path class="cls-3" d="M713.14,212.13l-.14.93a19.46,19.46,0,0,1-.44,2.11c-.2.75-.41,1.45-.62,2.11s-.39,1.19-.52,1.58h-1.56c.08-.37.18-.85.3-1.46s.24-1.28.36-2,.23-1.5.31-2.28l.1-1Z"/><path class="cls-3" d="M738.62,205.72a10.82,10.82,0,0,1-1,4.83,7.72,7.72,0,0,1-2.77,3.14,7.9,7.9,0,0,1-8,0,7.72,7.72,0,0,1-2.77-3.14,12.05,12.05,0,0,1,0-9.66,7.59,7.59,0,0,1,2.77-3.14,7.9,7.9,0,0,1,8,0,7.59,7.59,0,0,1,2.77,3.14A10.76,10.76,0,0,1,738.62,205.72Zm-2.07,0a8.81,8.81,0,0,0-.77-3.87,5.53,5.53,0,0,0-2.06-2.39,5.6,5.6,0,0,0-5.8,0,5.53,5.53,0,0,0-2.06,2.39,10.11,10.11,0,0,0,0,7.74,5.59,5.59,0,0,0,2.06,2.39,5.6,5.6,0,0,0,5.8,0,5.59,5.59,0,0,0,2.06-2.39A8.81,8.81,0,0,0,736.55,205.72ZM730.13,209h2.35l2,2.59.52.69,2.93,3.89h-2.34l-1.94-2.58-.48-.66Z"/><path class="cls-3" d="M747.16,214.82A5.75,5.75,0,0,1,744,214a5.85,5.85,0,0,1-2.11-2.39,8.08,8.08,0,0,1-.75-3.59,8.17,8.17,0,0,1,.75-3.61A5.82,5.82,0,0,1,744,202a6.22,6.22,0,0,1,6.28,0,5.68,5.68,0,0,1,2.11,2.4,8.17,8.17,0,0,1,.75,3.61,8.08,8.08,0,0,1-.75,3.59,5.6,5.6,0,0,1-5.25,3.24Zm0-1.82a3.51,3.51,0,0,0,2.24-.7,4.2,4.2,0,0,0,1.31-1.84,7.47,7.47,0,0,0,0-4.94,4.26,4.26,0,0,0-1.31-1.86,3.93,3.93,0,0,0-4.48,0,4.16,4.16,0,0,0-1.3,1.86,7.47,7.47,0,0,0,0,4.94,4.1,4.1,0,0,0,1.3,1.84A3.53,3.53,0,0,0,747.16,213Z"/><path class="cls-3" d="M756.12,214.55V201.3h2v2.07h.17a3.32,3.32,0,0,1,1.34-1.65,4,4,0,0,1,2.21-.59,3.84,3.84,0,0,1,2.19.59,3.94,3.94,0,0,1,1.37,1.65h.13a3.87,3.87,0,0,1,1.53-1.63,4.63,4.63,0,0,1,2.44-.61,4,4,0,0,1,2.91,1.11,4.64,4.64,0,0,1,1.13,3.44v8.87h-2v-8.87a2.49,2.49,0,0,0-.8-2.09,3,3,0,0,0-1.89-.63,2.77,2.77,0,0,0-2.16.84,3,3,0,0,0-.77,2.12v8.63h-2.07v-9.07a2.39,2.39,0,0,0-.73-1.83,2.65,2.65,0,0,0-1.89-.69,2.79,2.79,0,0,0-1.48.42,3,3,0,0,0-1.1,1.17,3.45,3.45,0,0,0-.42,1.72v8.28Z"/><path class="cls-3" d="M790,196.06l-5.7,21.14h-1.86l5.69-21.14Z"/><path class="cls-3" d="M801.38,196.89v17.66h-2.14V196.89Z"/><path class="cls-3" d="M805.51,214.55V196.89h6a7.24,7.24,0,0,1,3.4.7,4.51,4.51,0,0,1,2,1.93,5.85,5.85,0,0,1,.64,2.78,5.78,5.78,0,0,1-.64,2.77,4.35,4.35,0,0,1-2,1.89,7.27,7.27,0,0,1-3.37.69h-4.83v-1.93h4.76a5.27,5.27,0,0,0,2.28-.42,2.67,2.67,0,0,0,1.26-1.17,4,4,0,0,0,.39-1.83,4,4,0,0,0-.4-1.85,2.71,2.71,0,0,0-1.27-1.23,5.15,5.15,0,0,0-2.3-.44h-3.76v15.77Zm8.32-7.94,4.34,7.94h-2.48l-4.28-7.94Z"/><path class="cls-3" d="M821.62,214.55h-2.25l6.49-17.66h2.21l6.48,17.66h-2.24L827,199.68h-.14Zm.82-6.9h9v1.9h-9Z"/><path class="cls-3" d="M851.17,196.89v17.66H849.1l-9.62-13.87h-.18v13.87h-2.14V196.89h2.07l9.66,13.9h.17v-13.9Z"/><path class="cls-3" d="M327.26,247a8.91,8.91,0,0,1,.47-3.3,14.81,14.81,0,0,1,2-3.35,3.41,3.41,0,0,1,2.63-1.5,2.69,2.69,0,0,1,2.41,1.29,5.78,5.78,0,0,1,.83,3.17,8.19,8.19,0,0,1-.3,2.29,2.16,2.16,0,0,1-.28.59,4,4,0,0,1-.63.64,1.52,1.52,0,0,1-.95.46,1.16,1.16,0,0,1-.49-.13l-4-1.93a60,60,0,0,0,.56,7.28l-1.9.73Q327.26,248.89,327.26,247Zm6.77-3.41a3.6,3.6,0,0,0-.44-1.87,1.49,1.49,0,0,0-1.41-.76,1.66,1.66,0,0,0-1.2.6,9.48,9.48,0,0,0-1.24,1.8l4.06,1.87A5.41,5.41,0,0,0,334,243.62Z"/><path class="cls-3" d="M340.66,244a27.84,27.84,0,0,0-.6-5.28,13.81,13.81,0,0,0-2.08-5l1.54-1.23q2.67,4.22,2.67,11.27Zm9.63.78a3,3,0,0,1,.06.67V246a3.1,3.1,0,0,1-.06.66q-.07.27-.15.27h-.95a5.2,5.2,0,0,1-2.17-.37,2.21,2.21,0,0,1-1.11-1.23,6.86,6.86,0,0,1-2.94,1.72,22.13,22.13,0,0,1-4.25.91l-.24-2.44a27.28,27.28,0,0,0,4.22-.92,6,6,0,0,0,2.36-1.15l-.49-11.74,2-.48.17,11.53a1.74,1.74,0,0,0,.3,1.12,1.36,1.36,0,0,0,.79.49,6.28,6.28,0,0,0,1.38.12h1C350.19,244.49,350.24,244.57,350.29,244.75Z"/><path class="cls-3" d="M364.86,244.08a2.4,2.4,0,0,1-1.05,2.16,4.6,4.6,0,0,1-2.58.69,2.3,2.3,0,0,1-2.35-1.28,2.38,2.38,0,0,1-1.19.95,4.1,4.1,0,0,1-1.57.33,2.22,2.22,0,0,1-2.29-1.3c-.59.86-1.82,1.3-3.69,1.3-.06,0-.11-.09-.17-.27a2.52,2.52,0,0,1-.07-.66v-.58a3.1,3.1,0,0,1,.06-.66c.05-.18.1-.27.18-.27A6.33,6.33,0,0,0,353,244l.05-3.32,1.77,0-.07,2.59q0,.78.39,1a2.91,2.91,0,0,0,1.32.22,2.36,2.36,0,0,0,1.64-.46L358,239.8l1.79,0,.09,4.38a1.86,1.86,0,0,0,1.23.35,4.54,4.54,0,0,0,2.16-.46l-.48-5.15,1.95-.35C364.81,240.52,364.86,242.36,364.86,244.08Z"/><path class="cls-3" d="M373.49,244.75a2.45,2.45,0,0,1,.07.67V246a2.52,2.52,0,0,1-.07.66q-.06.27-.15.27h-.52a4.31,4.31,0,0,1-3.11-1,4.89,4.89,0,0,1-1-3.35l-.32-10.9,2-.48.17,11.4A1.93,1.93,0,0,0,371,244a1.87,1.87,0,0,0,1.38.5h.95C373.4,244.49,373.45,244.57,373.49,244.75Z"/><path class="cls-3" d="M378.8,239.2c.09,1.87.13,3.39.13,4.55a2.5,2.5,0,0,1-1.31,2.25,6.35,6.35,0,0,1-2,.7,12.16,12.16,0,0,1-2.28.23c-.06,0-.11-.09-.16-.27a2.48,2.48,0,0,1-.08-.66v-.58a2.52,2.52,0,0,1,.07-.66c0-.18.1-.27.17-.27a15.18,15.18,0,0,0,2.3-.15,5.34,5.34,0,0,0,1.65-.52l-.5-4.94,2-.33Zm-3.43,10.3,1.86,1.55-1.56,1.83-1.81-1.53Z"/><path class="cls-3" d="M403.91,244.75a3,3,0,0,1,.06.67V246a3.1,3.1,0,0,1-.06.66c-.05.18-.1.27-.16.27-2.05,0-3.26-.48-3.62-1.43a1.65,1.65,0,0,1-.66.57,4.88,4.88,0,0,1-1.11.38,14.91,14.91,0,0,1-2.36.41,27.75,27.75,0,0,1-2.93.15,18.59,18.59,0,0,1-3.94-.34,4.47,4.47,0,0,1-2.37-1.23,3.41,3.41,0,0,1-.84-2.44,6.62,6.62,0,0,1,.11-1.23l.56-3.35,1.51.33-.49,2.95a4.74,4.74,0,0,0-.07.69,1.75,1.75,0,0,0,.61,1.45,3.17,3.17,0,0,0,1.65.6,24.17,24.17,0,0,0,2.9.13c1.53,0,2.81,0,3.86-.15a14.91,14.91,0,0,0,2.9-.56l-.35-3.78,1.9-.19.24,4.14a5.41,5.41,0,0,0,2.5.46C403.81,244.49,403.86,244.57,403.91,244.75Zm-11.34-7.15-1.66-1.4,1.4-1.69,1.69,1.41Zm3.26,0-1.66-1.4,1.38-1.67,1.69,1.41Z"/><path class="cls-3" d="M410.32,239.84a9.65,9.65,0,0,1,1,4.35c0,1-.62,1.69-1.85,2.11a19,19,0,0,1-5.71.63c-.05,0-.11-.09-.16-.27a2.52,2.52,0,0,1-.07-.66v-.58a3.1,3.1,0,0,1,.06-.66c0-.18.1-.27.17-.27,1.21,0,2.37-.06,3.47-.16a9.64,9.64,0,0,0,2.47-.49,7.09,7.09,0,0,0-1.52-4,17.78,17.78,0,0,0-4.05-3.62l.09-2a47.13,47.13,0,0,1,7.25-3.24l.26,2.06a57.07,57.07,0,0,0-5.46,2.33l.58.43A12.89,12.89,0,0,1,410.32,239.84Z"/><path class="cls-3" d="M421.43,244.75a2.45,2.45,0,0,1,.07.67V246a2.52,2.52,0,0,1-.07.66q-.06.27-.15.27h-.6a3.28,3.28,0,0,1-2.7-1V246a5.6,5.6,0,0,1-1.5,3.78,14.67,14.67,0,0,1-4.72,3.23l-1.18-1.92a18.57,18.57,0,0,0,3.85-2.21,6,6,0,0,0,1.82-2.21l-.71-6.33,1.92-.47.3,2.93a1.94,1.94,0,0,0,.45,1.15,1.58,1.58,0,0,0,.91.45,11.07,11.07,0,0,0,1.62.09h.54C421.34,244.49,421.39,244.57,421.43,244.75Z"/><path class="cls-3" d="M436,244.08a2.41,2.41,0,0,1-1,2.16,4.6,4.6,0,0,1-2.58.69,1.93,1.93,0,0,0-3.54-.33,4.15,4.15,0,0,1-1.58.33,2.23,2.23,0,0,1-2.29-1.3c-.59.86-1.82,1.3-3.69,1.3-.06,0-.11-.09-.16-.27A2.48,2.48,0,0,1,421,246v-.58a3,3,0,0,1,.07-.66c0-.18.1-.27.17-.27a6.41,6.41,0,0,0,2.83-.52l0-3.32,1.77,0-.06,2.59q0,.78.39,1a2.86,2.86,0,0,0,1.31.22,2.35,2.35,0,0,0,1.64-.46l-.08-4.23,1.79,0,.09,4.38a1.86,1.86,0,0,0,1.23.35,4.47,4.47,0,0,0,2.15-.46l-.47-5.15,1.94-.35C436,240.52,436,242.36,436,244.08Zm-7.62-6.72L426.74,236l1.38-1.66,1.67,1.38Zm1.54-3.08-1.62-1.36,1.38-1.66,1.64,1.4Zm0,1.66,1.38-1.64,1.64,1.38-1.38,1.64Z"/><path class="cls-3" d="M445.33,244.4a1.53,1.53,0,0,1,.45,1.12,1.52,1.52,0,0,1-.45,1.12,1.53,1.53,0,0,1-1.1.44,1.7,1.7,0,0,1-1.29-.54,2.17,2.17,0,0,1-.5-1.51,6.12,6.12,0,0,1,.47-2.17,11.35,11.35,0,0,1,1.23-2.34l1.12,1.07c-.34.52-.61,1-.8,1.31A4.21,4.21,0,0,0,444,244l.2,0A1.5,1.5,0,0,1,445.33,244.4Z"/><path class="cls-3" d="M449.08,247a8.88,8.88,0,0,1,.48-3.3,14.81,14.81,0,0,1,2-3.35,3.39,3.39,0,0,1,2.63-1.5,2.7,2.7,0,0,1,2.41,1.29,5.78,5.78,0,0,1,.83,3.17,8.19,8.19,0,0,1-.3,2.29,2.49,2.49,0,0,1-.28.59,4,4,0,0,1-.63.64,1.52,1.52,0,0,1-.95.46,1.24,1.24,0,0,1-.5-.13l-3.95-1.93a60.35,60.35,0,0,0,.57,7.28l-1.9.73Q449.09,248.89,449.08,247Zm6.78-3.41a3.7,3.7,0,0,0-.44-1.87A1.51,1.51,0,0,0,454,241a1.66,1.66,0,0,0-1.2.6,9.48,9.48,0,0,0-1.24,1.8l4.05,1.87A5.1,5.1,0,0,0,455.86,243.62Z"/><path class="cls-3" d="M469.68,244.75a3,3,0,0,1,.06.67V246a3.1,3.1,0,0,1-.06.66q-.07.27-.15.27h-1.8a7.65,7.65,0,0,1-2.18,3.47,13,13,0,0,1-4,2.53l-1.19-2a14.63,14.63,0,0,0,3.57-1.87,7.87,7.87,0,0,0,2.22-2.36,10.73,10.73,0,0,1-2.27.22,11.67,11.67,0,0,1-1.51-.11,1.19,1.19,0,0,1-.58-.26,3,3,0,0,1-.52-.6,2.7,2.7,0,0,1-.38-.69,1.88,1.88,0,0,1-.08-.63,9.94,9.94,0,0,1,1-3.88,2.73,2.73,0,0,1,2.62-1.69,2.8,2.8,0,0,1,2.73,1.62,9.33,9.33,0,0,1,.87,3.76h1.54C469.58,244.49,469.63,244.57,469.68,244.75Zm-5.55,0a11.46,11.46,0,0,0,2.22-.17,4.76,4.76,0,0,0-.52-2.56,1.67,1.67,0,0,0-1.51-.79,1.55,1.55,0,0,0-1.4.86,5.34,5.34,0,0,0-.52,2.51A7,7,0,0,0,464.13,244.77Z"/><path class="cls-3" d="M478.46,244.75a2.92,2.92,0,0,1,.07.67V246a3,3,0,0,1-.07.66q-.06.27-.15.27a8.74,8.74,0,0,1-2.81-.38,2.54,2.54,0,0,1-1.42-1,3.47,3.47,0,0,1-1.81,1.05,10.6,10.6,0,0,1-2.74.31c-.06,0-.12-.09-.17-.27a2.52,2.52,0,0,1-.07-.66v-.58a3.1,3.1,0,0,1,.06-.66c0-.18.1-.27.18-.27a8.2,8.2,0,0,0,3.77-.63l-.51-12.15,1.94-.48.19,11.4a1.81,1.81,0,0,0,.53,1.44,2.64,2.64,0,0,0,1.54.42h1.32C478.37,244.49,478.42,244.57,478.46,244.75Z"/><path class="cls-3" d="M488.61,245.61c-1.76.43-3.05.73-3.89.9a22.07,22.07,0,0,1-2.33.33c-.72.06-1.68.09-2.87.09h-1.21c-.06,0-.11-.09-.16-.27a2.48,2.48,0,0,1-.08-.66v-.58a2.52,2.52,0,0,1,.07-.66c0-.18.1-.27.17-.27h2.89a6.63,6.63,0,0,1-.56-2.7,3.09,3.09,0,0,1,1.1-2.6,4.56,4.56,0,0,1,2.87-.85,9,9,0,0,1,2.23.3l-.5,2.09a6.23,6.23,0,0,0-1.92-.26,5.84,5.84,0,0,0-2,.3,8.65,8.65,0,0,0,.22,2,5.91,5.91,0,0,0,.6,1.65,40.89,40.89,0,0,0,5.27-1.08Z"/><path class="cls-3" d="M495.86,245.35c.19-1.18.44-2.66.76-4.45l1.51.35q-.67,3.69-.85,5.91a1.55,1.55,0,0,0,1.09,1.72,7.79,7.79,0,0,0,2.67.44,15.84,15.84,0,0,0,2.72-.23,6.24,6.24,0,0,0,2.16-.78l-.82-8.25,1.94-.43q.4,4.81.56,8.35a2.89,2.89,0,0,1-1.86,2.83,11,11,0,0,1-4.87.95q-3,0-4.17-1.23a4,4,0,0,1-1.12-2.74A18.08,18.08,0,0,1,495.86,245.35Zm7.32-8.5-1.56,1.85-1.83-1.55,1.53-1.84Z"/><path class="cls-3" d="M512.54,231.23l.18,15.7-1.69.23-.43-15.45Z"/><path class="cls-3" d="M527.29,244.75a3,3,0,0,1,.06.67V246a3.1,3.1,0,0,1-.06.66c0,.18-.1.27-.15.27h-.52a3,3,0,0,1-3-1.62,4.12,4.12,0,0,1-.25.57.67.67,0,0,1-.29.29,7.22,7.22,0,0,1-2,.75,11,11,0,0,1-2.39.29,3.2,3.2,0,0,1-2.14-.63,2.83,2.83,0,0,1-.74-2.24c0-.48,0-.85,0-1.1l1.53,0v.52a1.27,1.27,0,0,0,.14.69.6.6,0,0,0,.46.23,10,10,0,0,0,1.19.05,9,9,0,0,0,2.09-.25,5.07,5.07,0,0,0,1.71-.68l-1.64-6.65,1.81-1.1,1.32,6.2a7.3,7.3,0,0,0,.44,1.57,1,1,0,0,0,.65.52,8,8,0,0,0,1.61.11C527.19,244.49,527.25,244.57,527.29,244.75Z"/><path class="cls-3" d="M535.25,244.75a2.45,2.45,0,0,1,.07.67V246a2.52,2.52,0,0,1-.07.66q-.06.27-.15.27a8,8,0,0,1-2.73-.35,1.75,1.75,0,0,1-1.11-1.14,2.46,2.46,0,0,1-1.45,1.14,8.42,8.42,0,0,1-2.67.35c-.06,0-.11-.09-.16-.27a2.48,2.48,0,0,1-.08-.66v-.58a3.1,3.1,0,0,1,.06-.66q.07-.27.18-.27a7.13,7.13,0,0,0,3.21-.56l-.41-4.3,1.95-.17.26,4.6a2.77,2.77,0,0,0,1,.33,14.69,14.69,0,0,0,1.92.1C535.16,244.49,535.21,244.57,535.25,244.75Zm-6.43,4.75,1.68,1.4-1.42,1.68-1.64-1.4Zm3.26,0,1.68,1.41-1.42,1.66-1.66-1.4Z"/><path class="cls-3" d="M543.81,240.9a6,6,0,0,1,.86,3.26,8.14,8.14,0,0,1-.29,2.18,2.08,2.08,0,0,1-.28.6,3,3,0,0,1-.6.59,1.55,1.55,0,0,1-1,.48,1.25,1.25,0,0,1-.52-.13L538,246a2.48,2.48,0,0,1-.94.67,4.05,4.05,0,0,1-1.53.24h-.43c-.06,0-.11-.09-.16-.27a2.52,2.52,0,0,1-.07-.66v-.58a3.1,3.1,0,0,1,.06-.66c0-.18.1-.27.17-.27h.76a3.42,3.42,0,0,0,.92-.09,1.14,1.14,0,0,0,.54-.42,6.44,6.44,0,0,0,.59-1.15,8.91,8.91,0,0,1,1.43-2.38,2.59,2.59,0,0,1,2-.88A2.73,2.73,0,0,1,543.81,240.9Zm-.72,3.48a3.5,3.5,0,0,0-.49-1.89,1.62,1.62,0,0,0-1.48-.79,1.49,1.49,0,0,0-1.12.64,7.5,7.5,0,0,0-1,1.87l3.84,1.72A4.22,4.22,0,0,0,543.09,244.38Z"/><path class="cls-3" d="M548.53,251.09a18.3,18.3,0,0,0,3.85-2.21,6.07,6.07,0,0,0,1.83-2.21l-.72-6.33,1.92-.47c.06.59.1,1,.11,1.14.12,1.12.21,2.12.29,3s.12,1.53.12,2a5.6,5.6,0,0,1-1.5,3.78,14.73,14.73,0,0,1-4.71,3.23Zm6.71-15.76-1.53,1.86-1.84-1.55,1.54-1.84Z"/><path class="cls-3" d="M560.7,231.23l.18,15.7-1.69.23-.43-15.45Z"/><path class="cls-3" d="M579.35,244.75a2.45,2.45,0,0,1,.07.67V246a2.52,2.52,0,0,1-.07.66q-.06.27-.15.27h-.52a2.94,2.94,0,0,1-3-1.62,4.12,4.12,0,0,1-.25.57.73.73,0,0,1-.29.29,7.35,7.35,0,0,1-2,.75,11,11,0,0,1-2.4.29,3.2,3.2,0,0,1-2.14-.63,2.83,2.83,0,0,1-.73-2.24c0-.48,0-.85,0-1.1l1.53,0v.52a1.27,1.27,0,0,0,.14.69.63.63,0,0,0,.47.23,9.76,9.76,0,0,0,1.18.05,9.11,9.11,0,0,0,2.1-.25,4.93,4.93,0,0,0,1.7-.68l-1.64-6.65,1.82-1.1,1.31,6.2a7.15,7.15,0,0,0,.45,1.57.93.93,0,0,0,.64.52,8.07,8.07,0,0,0,1.61.11C579.26,244.49,579.31,244.57,579.35,244.75Z"/><path class="cls-3" d="M591.14,244.75a3,3,0,0,1,.06.67V246a3.1,3.1,0,0,1-.06.66q-.07.27-.15.27h-3.46a2.78,2.78,0,0,1-2.2-.89,3.76,3.76,0,0,1-2.67.89H579.2c-.06,0-.11-.09-.16-.27A2.48,2.48,0,0,1,579,246v-.58a3,3,0,0,1,.07-.66c0-.18.1-.27.17-.27h4.21q-.45-.68-.78-1.23c-.44-.69-.8-1.24-1.07-1.64a4.16,4.16,0,0,0-.52-.71.41.41,0,0,0-.33,0l-.49,0,.08-2.09a57.27,57.27,0,0,1,5.72-.45,7,7,0,0,1,2.71.4,1.41,1.41,0,0,1,.92,1.39v.65a3.78,3.78,0,0,1-.76,1.79,8.35,8.35,0,0,1-1.53,1.83,3.66,3.66,0,0,0,.8.07H591S591.09,244.57,591.14,244.75Zm-4.29-2.12a5,5,0,0,0,1.07-1.88c-.16-.2-.88-.3-2.18-.3-.55,0-1.11,0-1.68.05s-1,.08-1.32.12a1.17,1.17,0,0,1,.41.38c.14.2.43.62.86,1.29l1.26,1.94A7.94,7.94,0,0,0,586.85,242.63Z"/><path class="cls-3" d="M596.45,239.2c.09,1.87.13,3.39.13,4.55a2.49,2.49,0,0,1-1.32,2.25,6.27,6.27,0,0,1-2,.7,12.06,12.06,0,0,1-2.27.23c-.06,0-.11-.09-.16-.27a2.48,2.48,0,0,1-.08-.66v-.58a3.1,3.1,0,0,1,.06-.66q.08-.27.18-.27a15.18,15.18,0,0,0,2.3-.15,5.34,5.34,0,0,0,1.65-.52l-.5-4.94,2-.33ZM593,249.5l1.85,1.55-1.55,1.83-1.82-1.53Z"/><path class="cls-3" d="M605.84,244.4a1.53,1.53,0,0,1,.45,1.12,1.52,1.52,0,0,1-.45,1.12,1.53,1.53,0,0,1-1.1.44,1.7,1.7,0,0,1-1.29-.54A2.12,2.12,0,0,1,603,245a6.12,6.12,0,0,1,.47-2.17,11.35,11.35,0,0,1,1.23-2.34l1.12,1.07c-.34.52-.61,1-.81,1.31a4.57,4.57,0,0,0-.42,1.07l.2,0A1.5,1.5,0,0,1,605.84,244.4Z"/><path class="cls-3" d="M610.51,246.43a2.59,2.59,0,0,1-.92-2.18q0-2,2.33-4.64L611,239l1.14-1.7a11.82,11.82,0,0,1,3.67,3.35,7.92,7.92,0,0,1,1.19,4,1.68,1.68,0,0,1-.08.65,2.76,2.76,0,0,1-.35.68,4.65,4.65,0,0,1-.39.52.89.89,0,0,1-.32.26,8.67,8.67,0,0,1-3,.43A3.82,3.82,0,0,1,610.51,246.43Zm4.93-1.9a5.14,5.14,0,0,0-2.26-4,7.21,7.21,0,0,0-1.35,1.73,3.58,3.58,0,0,0-.6,1.61.71.71,0,0,0,.39.72,4.6,4.6,0,0,0,1.54.17A9.38,9.38,0,0,0,615.44,244.53Z"/><path class="cls-3" d="M625.78,244.75a2.45,2.45,0,0,1,.07.67V246a2.52,2.52,0,0,1-.07.66q-.06.27-.15.27h-.52a4.31,4.31,0,0,1-3.11-1,4.89,4.89,0,0,1-1-3.35l-.32-10.9,2-.48.17,11.4a1.93,1.93,0,0,0,.52,1.36,1.87,1.87,0,0,0,1.38.5h1C625.69,244.49,625.74,244.57,625.78,244.75Z"/><path class="cls-3" d="M636.36,244.75a3,3,0,0,1,.06.67V246a3.1,3.1,0,0,1-.06.66q-.06.27-.15.27h-1.79a2.27,2.27,0,0,1-1.21-.31,2,2,0,0,1-.8-.86,6,6,0,0,1-2.49.89,27.73,27.73,0,0,1-4.29.28c-.06,0-.11-.09-.16-.27a2.48,2.48,0,0,1-.08-.66v-.58a3,3,0,0,1,.07-.66c0-.18.1-.27.17-.27,1.21,0,2.36-.06,3.47-.16a9.64,9.64,0,0,0,2.47-.49,7.1,7.1,0,0,0-1.53-4,17.49,17.49,0,0,0-4-3.62l.08-2a47.24,47.24,0,0,1,7.26-3.24l.26,2.06a58.42,58.42,0,0,0-5.47,2.33l.59.43a13.85,13.85,0,0,1,3.3,3.72,8.94,8.94,0,0,1,1.14,3.88,1.3,1.3,0,0,0,.42.9,2.15,2.15,0,0,0,1.07.2h1.56C636.27,244.49,636.32,244.57,636.36,244.75Zm-6-13.56q-2.05.88-4.32,2.09l.07-1.68q2.07-1.08,4.12-1.94Z"/><path class="cls-3" d="M654.32,244.75a3,3,0,0,1,.06.67V246a3.1,3.1,0,0,1-.06.66c0,.18-.1.27-.15.27h-1.06a3.58,3.58,0,0,1-1.62-.34,2,2,0,0,1-1-.94,2.77,2.77,0,0,1-1.32,1,5.26,5.26,0,0,1-1.86.32,2.31,2.31,0,0,1-2.35-1.28,2.34,2.34,0,0,1-1.19.95,4.06,4.06,0,0,1-1.57.33,2.22,2.22,0,0,1-2.29-1.3c-.59.86-1.82,1.3-3.69,1.3-.06,0-.11-.09-.16-.27A2.48,2.48,0,0,1,636,246v-.58a2.52,2.52,0,0,1,.07-.66c0-.18.1-.27.17-.27a6.41,6.41,0,0,0,2.83-.52l0-3.32,1.77,0-.06,2.59c0,.52.11.85.38,1a2.94,2.94,0,0,0,1.32.22,2.36,2.36,0,0,0,1.64-.46l-.08-4.23,1.79,0,.08,4.38a1.9,1.9,0,0,0,1.23.35,4.49,4.49,0,0,0,2.16-.46l-.47-5.15,1.94-.35.24,4.32a2.37,2.37,0,0,0,.25,1.05.93.93,0,0,0,.57.46,4.73,4.73,0,0,0,1,.13h1.28C654.22,244.49,654.28,244.57,654.32,244.75Zm-11-7.39L641.69,236l1.38-1.66,1.66,1.38Zm1.53-3.08-1.61-1.36,1.38-1.66,1.64,1.4Zm0,1.66,1.38-1.64,1.64,1.38-1.38,1.64Z"/><path class="cls-3" d="M659.58,238.55l0,.65c.08,1.87.13,3.39.13,4.55a2.49,2.49,0,0,1-1.32,2.25,6.27,6.27,0,0,1-2,.7,12.06,12.06,0,0,1-2.27.23c-.06,0-.11-.09-.17-.27a3,3,0,0,1-.07-.66v-.58a3.1,3.1,0,0,1,.06-.66c0-.18.1-.27.18-.27a15.18,15.18,0,0,0,2.3-.15,5.34,5.34,0,0,0,1.65-.52l-.5-4.94Zm-1.31-2.2-1.84-1.55L658,233l1.85,1.53Z"/><path class="cls-3" d="M664.77,231.23l.17,15.7-1.69.23-.43-15.45Z"/><path class="cls-3" d="M676.72,240.41a8.27,8.27,0,0,1,1,3.65,3.15,3.15,0,0,1-.16,1.06,2.16,2.16,0,0,1-.51.84,4.12,4.12,0,0,1-1.84.92,11.16,11.16,0,0,1-2.91.33,7.5,7.5,0,0,1-2.37-.29,1.93,1.93,0,0,1-1.13-1,4.74,4.74,0,0,1-.32-2c0-.36,0-.64,0-.84l1.55.08v.33a1.55,1.55,0,0,0,.18.86.83.83,0,0,0,.62.32,11.17,11.17,0,0,0,1.56.07c.56,0,1.2,0,1.92-.1a5.57,5.57,0,0,0,1.7-.36,5.84,5.84,0,0,0-1-3.14,16.11,16.11,0,0,0-2.82-3.2l1.3-1.71A15.78,15.78,0,0,1,676.72,240.41Z"/><path class="cls-3" d="M685,245.35c.19-1.18.44-2.66.75-4.45l1.51.35q-.66,3.69-.84,5.91a1.55,1.55,0,0,0,1.09,1.72,7.79,7.79,0,0,0,2.67.44,15.84,15.84,0,0,0,2.72-.23,6.24,6.24,0,0,0,2.16-.78l-.82-8.25,1.94-.43q.4,4.81.56,8.35a2.9,2.9,0,0,1-1.87,2.83,10.88,10.88,0,0,1-4.86.95q-3,0-4.17-1.23a4,4,0,0,1-1.12-2.74A18.08,18.08,0,0,1,685,245.35Zm7.32-8.5-1.56,1.85-1.83-1.55,1.53-1.84Z"/><path class="cls-3" d="M705.2,244.75a3,3,0,0,1,.06.67V246a3.1,3.1,0,0,1-.06.66c-.05.18-.1.27-.16.27h-.51a4.29,4.29,0,0,1-3.11-1,4.84,4.84,0,0,1-1-3.35l-.32-10.9,2-.48.18,11.4a1.74,1.74,0,0,0,1.89,1.86H705C705.1,244.49,705.15,244.57,705.2,244.75Z"/><path class="cls-3" d="M710.51,239.2c.08,1.87.13,3.39.13,4.55a2.49,2.49,0,0,1-1.32,2.25,6.27,6.27,0,0,1-2,.7,12.08,12.08,0,0,1-2.28.23s-.11-.09-.16-.27a2.52,2.52,0,0,1-.07-.66v-.58a3.1,3.1,0,0,1,.06-.66c0-.18.1-.27.17-.27a15.09,15.09,0,0,0,2.3-.15,5.49,5.49,0,0,0,1.66-.52l-.5-4.94,2-.33Zm-3.44,10.3,1.86,1.55-1.55,1.83-1.82-1.53Z"/><path class="cls-3" d="M719.2,244.75a2.45,2.45,0,0,1,.07.67V246a2.52,2.52,0,0,1-.07.66q-.06.27-.15.27h-.51a4.27,4.27,0,0,1-3.11-1,4.84,4.84,0,0,1-1-3.35l-.32-10.9,2-.48.17,11.4a1.93,1.93,0,0,0,.52,1.36,1.87,1.87,0,0,0,1.38.5h.95C719.11,244.49,719.16,244.57,719.2,244.75Z"/><path class="cls-3" d="M727.17,244.75a3,3,0,0,1,.06.67V246a3.1,3.1,0,0,1-.06.66q-.06.27-.15.27a7.92,7.92,0,0,1-2.73-.35,1.73,1.73,0,0,1-1.11-1.14,2.46,2.46,0,0,1-1.45,1.14,8.53,8.53,0,0,1-2.68.35s-.11-.09-.16-.27a2.52,2.52,0,0,1-.07-.66v-.58a3.1,3.1,0,0,1,.06-.66c0-.18.1-.27.17-.27a7.2,7.2,0,0,0,3.22-.56l-.41-4.3,1.94-.17.26,4.6a2.89,2.89,0,0,0,1,.33,14.69,14.69,0,0,0,1.92.1C727.08,244.49,727.13,244.57,727.17,244.75Zm-6.43,4.75,1.68,1.4L721,252.58l-1.64-1.4Zm3.26,0,1.68,1.41-1.42,1.66-1.67-1.4Z"/><path class="cls-3" d="M738.15,240a9.11,9.11,0,0,0,2.49.37l-.48,2.18a6,6,0,0,0-2,.46c-.6.26-1.38.65-2.33,1.18l-.74.41a24,24,0,0,1-3.63,1.74,11.24,11.24,0,0,1-3.88.62H727c-.06,0-.11-.09-.16-.27a2.48,2.48,0,0,1-.08-.66v-.58a2.52,2.52,0,0,1,.07-.66c0-.18.1-.27.17-.27h.6a10.63,10.63,0,0,0,2.81-.39,27,27,0,0,0,3-1l1.66-.75,1.4-.61a3.66,3.66,0,0,1,.44-.13l-.13,0a11.8,11.8,0,0,1-2.7-.86,8.63,8.63,0,0,0-2.7-.76.86.86,0,0,0-.8.4,3.73,3.73,0,0,0-.39,1.05l-1.49-.26a5.89,5.89,0,0,1,.89-2.43,2.08,2.08,0,0,1,1.79-.83,4.7,4.7,0,0,1,1.37.25c.54.17,1.28.42,2.23.77C736.21,239.36,737.26,239.71,738.15,240Zm-4.46-4-1.81-1.55,1.51-1.84,1.85,1.53Z"/><path class="cls-3" d="M749.73,244.4a1.53,1.53,0,0,1,.45,1.12,1.52,1.52,0,0,1-.45,1.12,1.55,1.55,0,0,1-1.1.44,1.7,1.7,0,0,1-1.29-.54,2.12,2.12,0,0,1-.51-1.51,6.16,6.16,0,0,1,.48-2.17,10.89,10.89,0,0,1,1.23-2.34l1.12,1.07c-.34.52-.61,1-.81,1.31a4.57,4.57,0,0,0-.42,1.07l.2,0A1.52,1.52,0,0,1,749.73,244.4Z"/><path class="cls-3" d="M753.76,245.35c.19-1.18.44-2.66.76-4.45l1.51.35a58.83,58.83,0,0,0-.84,5.91,1.54,1.54,0,0,0,1.09,1.72,7.73,7.73,0,0,0,2.66.44,15.84,15.84,0,0,0,2.72-.23,6.09,6.09,0,0,0,2.16-.78l-.82-8.25,1.94-.43q.42,4.81.57,8.35a2.9,2.9,0,0,1-1.87,2.83,10.92,10.92,0,0,1-4.87.95q-3,0-4.17-1.23a4,4,0,0,1-1.12-2.74A20,20,0,0,1,753.76,245.35Zm7.32-8.5-1.55,1.85-1.84-1.55,1.53-1.84Z"/><path class="cls-3" d="M774,244.75a2.92,2.92,0,0,1,.07.67V246a3,3,0,0,1-.07.66q-.06.27-.15.27h-.52a4.31,4.31,0,0,1-3.11-1,4.84,4.84,0,0,1-1-3.35l-.33-10.9,2-.48.17,11.4a1.89,1.89,0,0,0,.52,1.36,1.87,1.87,0,0,0,1.38.5h1C773.92,244.49,774,244.57,774,244.75Z"/><path class="cls-3" d="M792,244.75a3,3,0,0,1,.06.67V246a3.1,3.1,0,0,1-.06.66q-.08.27-.15.27h-1.06a3.58,3.58,0,0,1-1.62-.34,2,2,0,0,1-1-.94,2.77,2.77,0,0,1-1.32,1,5.26,5.26,0,0,1-1.86.32,2.3,2.3,0,0,1-2.35-1.28,2.34,2.34,0,0,1-1.19.95,4.06,4.06,0,0,1-1.57.33,2.22,2.22,0,0,1-2.29-1.3c-.59.86-1.82,1.3-3.69,1.3-.06,0-.11-.09-.16-.27a2.48,2.48,0,0,1-.08-.66v-.58a2.52,2.52,0,0,1,.07-.66c0-.18.1-.27.17-.27a6.41,6.41,0,0,0,2.83-.52l0-3.32,1.77,0-.07,2.59q0,.78.39,1a2.94,2.94,0,0,0,1.32.22,2.36,2.36,0,0,0,1.64-.46l-.09-4.23,1.8,0,.08,4.38a1.88,1.88,0,0,0,1.23.35A4.49,4.49,0,0,0,787,244l-.47-5.15,1.94-.35.24,4.32a2.54,2.54,0,0,0,.24,1.05,1,1,0,0,0,.58.46,4.73,4.73,0,0,0,1,.13h1.28C791.85,244.49,791.9,244.57,792,244.75Z"/><path class="cls-3" d="M792.83,249.5l1.69,1.4-1.43,1.68-1.64-1.4Zm-1.2-2.84a2.52,2.52,0,0,1-.07-.66v-.58a3.1,3.1,0,0,1,.06-.66c0-.18.1-.27.18-.27a15,15,0,0,0,2.29-.15,5.31,5.31,0,0,0,1.66-.52l-.5-4.94,2-.33,0,.65c.08,1.87.13,3.39.13,4.55a2.49,2.49,0,0,1-1.32,2.25,6.27,6.27,0,0,1-2,.7,12.06,12.06,0,0,1-2.27.23C791.74,246.93,791.68,246.84,791.63,246.66Zm6.15,4.22-1.43,1.66-1.66-1.4,1.4-1.67Z"/><path class="cls-3" d="M808.53,240.41a8.38,8.38,0,0,1,1,3.65,3.43,3.43,0,0,1-.15,1.06,2.32,2.32,0,0,1-.52.84,4.12,4.12,0,0,1-1.84.92,11.16,11.16,0,0,1-2.91.33,7.5,7.5,0,0,1-2.37-.29,1.93,1.93,0,0,1-1.13-1,4.91,4.91,0,0,1-.32-2c0-.36,0-.64,0-.84l1.55.08v.33a1.55,1.55,0,0,0,.18.86.83.83,0,0,0,.62.32,11.17,11.17,0,0,0,1.56.07c.56,0,1.2,0,1.92-.1a5.5,5.5,0,0,0,1.7-.36,5.76,5.76,0,0,0-1-3.14A16.11,16.11,0,0,0,804,238l1.3-1.71A15.85,15.85,0,0,1,808.53,240.41Z"/><path class="cls-3" d="M819.38,244.75a2.45,2.45,0,0,1,.07.67V246a2.52,2.52,0,0,1-.07.66q-.06.27-.15.27h-.6a3.28,3.28,0,0,1-2.7-1V246a5.6,5.6,0,0,1-1.5,3.78,14.67,14.67,0,0,1-4.72,3.23l-1.18-1.92a18.57,18.57,0,0,0,3.85-2.21,6,6,0,0,0,1.82-2.21l-.71-6.33,1.92-.47.3,2.93a1.94,1.94,0,0,0,.45,1.15,1.58,1.58,0,0,0,.91.45,11.07,11.07,0,0,0,1.62.09h.54C819.29,244.49,819.34,244.57,819.38,244.75Z"/><path class="cls-3" d="M820.4,252.32l-1.64-1.38,1.38-1.66,1.66,1.4Zm-1.33-5.66A2.48,2.48,0,0,1,819,246v-.58a3,3,0,0,1,.07-.66c0-.18.1-.27.17-.27a15.18,15.18,0,0,0,2.3-.15,5.34,5.34,0,0,0,1.65-.52l-.49-4.94,2-.33,0,.65c.09,1.87.13,3.39.13,4.55a2.5,2.5,0,0,1-1.31,2.25,6.35,6.35,0,0,1-2,.7,12.16,12.16,0,0,1-2.28.23C819.17,246.93,819.12,246.84,819.07,246.66Zm2.67,5.66,1.66,1.38L822,255.34,820.38,254Zm3.26-1.68-1.39,1.66L822,250.92l1.38-1.66Z"/></g></svg>