<svg xmlns="http://www.w3.org/2000/svg" viewBox="0 0 648 648"><defs><style>.cls-1{fill:#e5e5e5;}.cls-2{fill:#fde9e1;}.cls-3{fill:#ff5c35;}</style></defs><g id="Background"><rect class="cls-1" x="158.58" y="55.36" width="350.84" height="557.21"/></g><g id="Graphic"><rect class="cls-2" x="145.13" y="45.36" width="352.44" height="559.75"/><rect class="cls-3" x="145.13" y="493.57" width="352.44" height="0.23"/><rect class="cls-3" x="145.13" y="545.39" width="352.44" height="0.23"/><rect class="cls-3" x="145.13" y="519.48" width="352.44" height="0.23"/><path class="cls-3" d="M193.64,118.24a1,1,0,0,1-.84,1.06A.86.86,0,0,0,193,121h.15a2.77,2.77,0,0,0,2.26-2.79.87.87,0,1,0-1.73,0Z"/><path class="cls-3" d="M194.21,96.8c-.46.12-.73.78-.61,1.46s.59,1.14,1.05,1a1.25,1.25,0,0,0,.6-1.46C195.13,97.13,194.66,96.68,194.21,96.8Z"/><path class="cls-3" d="M200.32,99.28a1.24,1.24,0,0,0,.61-1.46c-.12-.69-.59-1.14-1.05-1s-.72.78-.6,1.46S199.87,99.4,200.32,99.28Z"/><path class="cls-3" d="M195.38,103.12a.86.86,0,0,0,.86.78h.09l2.88-.28-1-4.46a.87.87,0,1,0-1.69.38l.57,2.55-.94.09A.87.87,0,0,0,195.38,103.12Z"/><path class="cls-3" d="M194.8,105.91a.86.86,0,0,0,.31,1.18,4.58,4.58,0,0,0,6.28-1.63.85.85,0,0,0-.3-1.18.87.87,0,0,0-1.19.31,2.84,2.84,0,0,1-1.74,1.31,2.8,2.8,0,0,1-2.17-.3A.88.88,0,0,0,194.8,105.91Z"/><path class="cls-3" d="M215.56,122.62c-.8-1.39-2.94-1.47-4,.46a5.39,5.39,0,0,1-1.72,2l-.93-1.57,1.79-1-5.92-14.33a9.81,9.81,0,0,0,.88-.82c1.41-1.55,2.94-4.33,2.19-8.83a4.92,4.92,0,0,1,.25-3.65c1.21-1.92.62-3.36-.24-4-1.58-1.19-3.38-.28-4.39.76l-.41-5.88a4.07,4.07,0,0,0-1.23-2.8,2.63,2.63,0,0,0-3.11-.24v-.24a4.11,4.11,0,0,0-1.28-2.83,2.48,2.48,0,0,0-1.88-.6A3.22,3.22,0,0,0,192.94,82a2.63,2.63,0,0,0-1.31-.22c-1.91.19-2.78,2.07-2.66,3.84l.2,2.79a2.18,2.18,0,0,0-.92-.11c-1.58.18-2.51,1.65-2.36,3.74l.62,8.8h0V101s0,0,0,0c.35,4.2,2.1,6.64,3.71,8a8.47,8.47,0,0,1-5.57,8.65L184,118l-5.13,1.57,1.56,5.2,1.49-.18a6.2,6.2,0,0,0-.24,4.54,2.12,2.12,0,0,0,3,1.57c1.17-.57,1.8-1.79.7-3.49-1.27-2-.74-2.73-.39-3H185l.45,1.43.59,0c.41,0,.81,0,1.19,0,8.06,0,10.14-5.27,10.22-5.51a.86.86,0,1,0-1.61-.61s-1.81,4.58-9.1,4.38l-1.46-4.62h0a10.14,10.14,0,0,0,6.64-9.11,7,7,0,0,0,1.18.48l.19,0a.87.87,0,0,0,.84-.68.86.86,0,0,0-.66-1c-.05,0-4.78-1.36-5.27-8.29l-.62-8.8c0-.18-.1-1.79.83-1.9a.41.41,0,0,1,.32.11,2.6,2.6,0,0,1,.65,1.66l0,.32.35,5a.89.89,0,0,0,.93.8.87.87,0,0,0,.8-.92l-.31-4.4h0l0-.61,0-.32h0l-.43-6.17c-.06-.75.19-1.91,1.09-2a.77.77,0,0,1,.62.18,2.49,2.49,0,0,1,.66,1.64h0l.59,8.34a.86.86,0,0,0,.86.8h.06a.87.87,0,0,0,.8-.93l-.76-10.76c-.06-.94.49-1.94,1.09-2a.79.79,0,0,1,.61.19,2.49,2.49,0,0,1,.67,1.64l.76,10.77a.87.87,0,0,0,1.73-.12L199,86.09v0c-.05-.74.19-1.93,1.08-2a.84.84,0,0,1,.66.2,2.47,2.47,0,0,1,.63,1.62l.91,12.93a.29.29,0,0,0,0,.09.17.17,0,0,0,0,.07l0,.09,0,.06,0,.09a.85.85,0,0,0,.25.25s0,0,0,0l.1.05.05,0,.09,0,.07,0h.29l.09,0,.08,0,.07,0,.08-.05.07,0,.06-.06.06,0,.05-.07.05-.07,0-.07,0-.08s0-.06,0-.08,0-.06,0-.08v-.1a.15.15,0,0,0,0-.07c0-.35-.08-1.13-.12-1.7l0-.51a5.17,5.17,0,0,1,.68-3.41c.27-.34,1.43-1.5,2.33-.83.38.29.31.93-.18,1.72a6.52,6.52,0,0,0-.49,4.86c.63,3.8-.61,6.1-1.77,7.36a6.16,6.16,0,0,1-1.06.94l-.18.12a5.67,5.67,0,0,1-3.39,1,.87.87,0,1,0-.13,1.73h.4a7.21,7.21,0,0,0,3.29-.88l3.83,9.26a2.72,2.72,0,0,1-2.06,1.34.86.86,0,0,0,.17,1.71.47.47,0,0,0,.17,0,4.88,4.88,0,0,0,2.48-1.21l.62,1.51-.5.28h0l-3.72,2.07L196,113a.86.86,0,0,0-1.21-.18.86.86,0,0,0-.18,1.21l9.22,12.32h0l3.38,4.51,4.57-2.55-.63-1.05a8,8,0,0,0,3.07-1.2C216,124.89,216,123.36,215.56,122.62Z"/><path class="cls-3" d="M303.59,570.81l-.11.41a.25.25,0,0,1-.27.2H303a.21.21,0,0,1-.24-.23v-5.93A.21.21,0,0,1,303,565h.46a.21.21,0,0,1,.23.23v1.9a1,1,0,0,1,.93-.57c.67,0,1,.44,1,1.31v2.31c0,.88-.34,1.31-1,1.31A1,1,0,0,1,303.59,570.81Zm1.06-2.84c0-.43-.14-.59-.46-.59a.59.59,0,0,0-.55.65v2.05a.59.59,0,0,0,.55.65c.32,0,.46-.16.46-.59Z"/><path class="cls-3" d="M306.09,570.29v-.07a1.3,1.3,0,0,1,.43-1.08,2.82,2.82,0,0,1,.81-.49,3.21,3.21,0,0,0,.36-.17A.58.58,0,0,0,308,568v0c0-.39-.15-.6-.47-.6s-.49.21-.49.6v.11a.22.22,0,0,1-.24.24h-.39a.22.22,0,0,1-.24-.25c0-1,.47-1.48,1.39-1.48s1.37.5,1.37,1.5v1.79a9.6,9.6,0,0,0,.06,1.29c0,.17,0,.25-.21.25h-.42c-.16,0-.24-.06-.27-.2a3.69,3.69,0,0,1-.05-.37,1,1,0,0,1-1,.67Q306.09,571.52,306.09,570.29Zm1.94-.2v-1l-.21.1a2.85,2.85,0,0,0-.55.32.74.74,0,0,0-.25.62v.06c0,.41.15.55.46.55A.59.59,0,0,0,308,570.09Z"/><path class="cls-3" d="M309.54,570.09a.21.21,0,0,1,.24-.24h.38a.21.21,0,0,1,.24.24v.09q0,.6.48.6c.33,0,.5-.19.5-.56v-.09c0-.32-.21-.45-.7-.66a2.43,2.43,0,0,1-.75-.46,1.3,1.3,0,0,1-.39-1v0a1.38,1.38,0,0,1,2.76,0,.22.22,0,0,1-.24.24h-.38a.22.22,0,0,1-.24-.24v0q0-.6-.48-.6c-.33,0-.5.19-.5.57V568a.53.53,0,0,0,.21.43,2.41,2.41,0,0,0,.49.26,2.16,2.16,0,0,1,.62.33,1.31,1.31,0,0,1,.52,1.16v0a1.22,1.22,0,0,1-1.38,1.36C310,571.52,309.54,571.05,309.54,570.09Z"/><path class="cls-3" d="M312.77,570.29v-.07a1.33,1.33,0,0,1,.42-1.08,3,3,0,0,1,.81-.49,2.77,2.77,0,0,0,.37-.17.6.6,0,0,0,.34-.46v0c0-.39-.16-.6-.48-.6s-.48.21-.48.6v.11a.22.22,0,0,1-.24.24h-.39a.22.22,0,0,1-.24-.25c0-1,.46-1.48,1.39-1.48s1.37.5,1.37,1.5v1.79a12.39,12.39,0,0,0,.05,1.29c0,.17,0,.25-.21.25h-.42c-.15,0-.24-.06-.26-.2a2,2,0,0,1-.06-.37,1,1,0,0,1-1,.67C313.11,571.52,312.77,571.11,312.77,570.29Zm1.94-.2v-1l-.21.1a2.35,2.35,0,0,0-.55.32.72.72,0,0,0-.26.62v.06c0,.41.16.55.46.55A.6.6,0,0,0,314.71,570.09Z"/><path class="cls-3" d="M317.27,571.19a.21.21,0,0,1-.23.23h-.46a.21.21,0,0,1-.24-.23v-5.93a.21.21,0,0,1,.24-.23H317a.21.21,0,0,1,.23.23Z"/><path class="cls-3" d="M317.87,570.29v-.07a1.33,1.33,0,0,1,.42-1.08,3,3,0,0,1,.81-.49,2.77,2.77,0,0,0,.37-.17.6.6,0,0,0,.34-.46v0c0-.39-.16-.6-.48-.6s-.48.21-.48.6v.11a.22.22,0,0,1-.24.24h-.39a.22.22,0,0,1-.24-.25c0-1,.47-1.48,1.39-1.48s1.37.5,1.37,1.5v1.79a12.39,12.39,0,0,0,.05,1.29c0,.17,0,.25-.21.25h-.42a.23.23,0,0,1-.26-.2,2,2,0,0,1-.06-.37,1,1,0,0,1-1,.67C318.21,571.52,317.87,571.11,317.87,570.29Zm1.94-.2v-1l-.21.1a2.35,2.35,0,0,0-.55.32.75.75,0,0,0-.26.62v.06c0,.41.16.55.46.55A.6.6,0,0,0,319.81,570.09Z"/><path class="cls-3" d="M321.68,571.42a.21.21,0,0,1-.24-.23v-4.26a.22.22,0,0,1,.24-.24h.39a.21.21,0,0,1,.24.24v.39a1,1,0,0,1,1-.73.85.85,0,0,1,.91.69,1,1,0,0,1,1-.69c.65,0,1,.44,1,1.31v3.29a.21.21,0,0,1-.24.23h-.45a.21.21,0,0,1-.24-.23V568c0-.44-.13-.59-.43-.59s-.52.28-.52.65v3.16a.21.21,0,0,1-.24.23h-.45a.21.21,0,0,1-.23-.23V568c0-.44-.13-.59-.43-.59s-.52.28-.52.65v3.16a.21.21,0,0,1-.24.23Z"/><path class="cls-3" d="M327.09,571.42a.21.21,0,0,1-.23-.23v-.92a.21.21,0,0,1,.23-.24h.46a.22.22,0,0,1,.24.24v.92a.21.21,0,0,1-.24.23Z"/><path class="cls-3" d="M328.48,568.1c0-1,.47-1.51,1.4-1.51s1.4.5,1.4,1.51v.19c0,.13-.08.19-.24.19h-.38a.21.21,0,0,1-.24-.24V568c0-.39-.16-.59-.5-.59s-.51.2-.51.59v2.17c0,.4.17.59.51.59s.5-.19.5-.59v-.36a.21.21,0,0,1,.24-.24H331a.21.21,0,0,1,.24.24V570c0,1-.47,1.5-1.4,1.5s-1.4-.5-1.4-1.5Z"/><path class="cls-3" d="M331.82,570V568.1c0-1,.47-1.51,1.43-1.51s1.43.5,1.43,1.51V570c0,1-.47,1.5-1.43,1.5S331.82,571,331.82,570Zm1.94.12V568c0-.39-.17-.59-.51-.59s-.51.2-.51.59v2.17c0,.4.18.59.51.59S333.76,570.54,333.76,570.14Z"/><path class="cls-3" d="M335.59,571.42a.21.21,0,0,1-.24-.23v-4.26a.21.21,0,0,1,.24-.24H336a.22.22,0,0,1,.24.24v.39a1,1,0,0,1,1-.73.84.84,0,0,1,.9.69,1,1,0,0,1,1-.69c.66,0,1,.44,1,1.31v3.29a.21.21,0,0,1-.24.23h-.46a.21.21,0,0,1-.24-.23V568c0-.44-.12-.59-.42-.59s-.53.28-.53.65v3.16a.21.21,0,0,1-.23.23h-.45a.21.21,0,0,1-.24-.23V568c0-.44-.13-.59-.43-.59s-.52.28-.52.65v3.16a.21.21,0,0,1-.24.23Z"/><rect class="cls-3" x="145.13" y="130.76" width="352.44" height="0.23"/><rect class="cls-3" x="413.18" y="113.11" width="12.86" height="0.46" transform="translate(42.76 329.91) rotate(-45)"/><rect class="cls-3" x="432.85" y="113.11" width="12.86" height="0.46" transform="translate(48.52 343.81) rotate(-45)"/><path class="cls-3" d="M464,467.88H178.71V156.68H464Zm-285.06-.23H463.77V156.91H178.94Z"/><rect class="cls-3" x="191.67" y="156.79" width="0.23" height="310.97"/><rect class="cls-3" x="204.62" y="156.79" width="0.23" height="310.97"/><rect class="cls-3" x="217.58" y="156.79" width="0.23" height="310.97"/><rect class="cls-3" x="230.54" y="156.79" width="0.23" height="310.97"/><rect class="cls-3" x="243.49" y="156.79" width="0.23" height="310.97"/><rect class="cls-3" x="256.45" y="156.79" width="0.23" height="310.97"/><rect class="cls-3" x="269.41" y="156.79" width="0.23" height="310.97"/><rect class="cls-3" x="282.37" y="156.79" width="0.23" height="310.97"/><rect class="cls-3" x="295.32" y="156.79" width="0.23" height="310.97"/><rect class="cls-3" x="308.28" y="156.79" width="0.23" height="310.97"/><rect class="cls-3" x="321.24" y="156.79" width="0.23" height="310.97"/><rect class="cls-3" x="334.2" y="156.79" width="0.23" height="310.97"/><rect class="cls-3" x="347.15" y="156.79" width="0.23" height="310.97"/><rect class="cls-3" x="360.11" y="156.79" width="0.23" height="310.97"/><rect class="cls-3" x="373.07" y="156.79" width="0.23" height="310.97"/><rect class="cls-3" x="386.02" y="156.79" width="0.23" height="310.97"/><rect class="cls-3" x="398.98" y="156.79" width="0.23" height="310.97"/><rect class="cls-3" x="411.94" y="156.79" width="0.23" height="310.97"/><rect class="cls-3" x="424.9" y="156.79" width="0.23" height="310.97"/><rect class="cls-3" x="437.85" y="156.79" width="0.23" height="310.97"/><rect class="cls-3" x="450.81" y="156.79" width="0.23" height="310.97"/><path class="cls-3" d="M191.89,169.86H178.71V156.68h13.18Zm-12.95-.22h12.73V156.91H178.94Z"/><rect class="cls-3" x="178.82" y="169.64" width="285.06" height="0.23"/><rect class="cls-3" x="178.82" y="182.59" width="285.06" height="0.23"/><rect class="cls-3" x="178.82" y="195.55" width="285.06" height="0.23"/><rect class="cls-3" x="178.82" y="208.51" width="285.06" height="0.23"/><rect class="cls-3" x="178.82" y="221.46" width="285.06" height="0.23"/><rect class="cls-3" x="178.82" y="234.42" width="285.06" height="0.23"/><rect class="cls-3" x="178.82" y="247.38" width="285.06" height="0.23"/><rect class="cls-3" x="178.82" y="260.34" width="285.06" height="0.23"/><rect class="cls-3" x="178.82" y="273.29" width="285.06" height="0.23"/><rect class="cls-3" x="178.82" y="286.25" width="285.06" height="0.23"/><rect class="cls-3" x="178.82" y="299.21" width="285.06" height="0.23"/><rect class="cls-3" x="178.82" y="312.16" width="285.06" height="0.23"/><rect class="cls-3" x="178.82" y="325.12" width="285.06" height="0.23"/><rect class="cls-3" x="178.82" y="338.08" width="285.06" height="0.23"/><rect class="cls-3" x="178.82" y="351.04" width="285.06" height="0.23"/><rect class="cls-3" x="178.82" y="363.99" width="285.06" height="0.23"/><rect class="cls-3" x="178.82" y="376.95" width="285.06" height="0.23"/><rect class="cls-3" x="178.82" y="389.91" width="285.06" height="0.23"/><rect class="cls-3" x="178.82" y="402.86" width="285.06" height="0.23"/><rect class="cls-3" x="178.82" y="415.82" width="285.06" height="0.23"/><rect class="cls-3" x="178.82" y="428.78" width="285.06" height="0.23"/><rect class="cls-3" x="178.82" y="441.74" width="285.06" height="0.23"/><rect class="cls-3" x="178.82" y="454.69" width="285.06" height="0.23"/></g></svg>