<svg xmlns="http://www.w3.org/2000/svg" viewBox="0 0 1152 648"><defs><style>.cls-1{fill:#222221;}.cls-2{fill:#ff5c35;}</style></defs><g id="Graphic"><path class="cls-1" d="M486.68,342.55a3.94,3.94,0,0,1,.09.91v2.81a3.94,3.94,0,0,1-.09.91q-.09.39-.21.39h-1.14a2.51,2.51,0,0,1,0,.47,6.26,6.26,0,0,1-1.34,4,8.62,8.62,0,0,1-3.81,2.64,16.48,16.48,0,0,1-5.86.94q-4.39,0-6.15-1.62a6.24,6.24,0,0,1-1.74-4.81,85.52,85.52,0,0,1,1.52-9.92l3.29.7c-.3,1.61-.56,3.21-.79,4.82a32.42,32.42,0,0,0-.39,3.55c0,.74.48,1.24,1.43,1.5a13.85,13.85,0,0,0,3.48.38,19.77,19.77,0,0,0,4-.35,7.53,7.53,0,0,0,2.76-1.15c0-.49-.36-.8-1.06-.92a21.55,21.55,0,0,0-3.46-.19l.88-5.4h8.36C486.55,342.17,486.62,342.29,486.68,342.55Z"/><path class="cls-1" d="M496.8,336.79a13.74,13.74,0,0,1,1.41,6.23,3.34,3.34,0,0,1-1.2,2.7,8.15,8.15,0,0,1-3.76,1.44,40.26,40.26,0,0,1-6.78.41c-.08,0-.15-.13-.22-.39a3.88,3.88,0,0,1-.1-.91v-2.81a3.94,3.94,0,0,1,.09-.91c.06-.26.14-.38.23-.38a46.24,46.24,0,0,0,8.13-.47,8.78,8.78,0,0,0-2.26-4.58,29.31,29.31,0,0,0-5.37-4.64l.12-4q2.82-1.59,5.37-2.72a53.47,53.47,0,0,1,5.2-2l.58,4.37c-.68.3-1.71.72-3.08,1.27l-3.67,1.49a6.13,6.13,0,0,1,1.06.71A15.8,15.8,0,0,1,496.8,336.79Zm-3.58-12.27c-.35.16-1.37.65-3.05,1.47l-3.05,1.5.06-3.2,5.84-2.64Z"/><path class="cls-1" d="M514.18,337a11.92,11.92,0,0,1,1.59,5.69,4.53,4.53,0,0,1-1.23,3.35q-1.92,2-6.87,2a10.43,10.43,0,0,1-3.44-.46,3.54,3.54,0,0,1-1.92-1.59,6.29,6.29,0,0,1-.63-3.08,12,12,0,0,1,.14-1.88l3.32.26-.06.5a.73.73,0,0,0,.22.59,1.41,1.41,0,0,0,.74.22c.34,0,.93,0,1.77,0,.49,0,1.17,0,2-.11a22.32,22.32,0,0,0,2.22-.3,9,9,0,0,0-1.57-3.3,27.92,27.92,0,0,0-3.57-4l2.73-3.67A23.19,23.19,0,0,1,514.18,337Z"/><path class="cls-1" d="M523.58,324.73v22.84l-3.67.49-.41-22.57Z"/><path class="cls-1" d="M540.69,342.55a3.94,3.94,0,0,1,.09.91v2.81a3.94,3.94,0,0,1-.09.91q-.09.39-.21.39h-2.29q-1.61,5.78-9.07,8.95l-2.73-4.17a23.08,23.08,0,0,0,4.76-2.27,13.67,13.67,0,0,0,3.2-2.72,9.56,9.56,0,0,1-2.17.24,8,8,0,0,1-2.59-.36,1.65,1.65,0,0,1-.72-.42,7.86,7.86,0,0,1-.83-1.13,5.09,5.09,0,0,1-.63-1.16,2.73,2.73,0,0,1-.17-.93,13,13,0,0,1,1.57-6.1,4.63,4.63,0,0,1,4.25-2.41,4.44,4.44,0,0,1,3.69,2,10.23,10.23,0,0,1,1.82,5.11h1.91C540.56,342.17,540.63,342.29,540.69,342.55Zm-7.63.61a15.48,15.48,0,0,0,2.08-.11,4.17,4.17,0,0,0-.66-2.53,2,2,0,0,0-1.72-.88,1.63,1.63,0,0,0-1.44.85,5.77,5.77,0,0,0-.64,2.56A20,20,0,0,0,533.06,343.16Z"/><path class="cls-1" d="M549.05,338.17c.06,1,.09,2.33.09,3.94a4.45,4.45,0,0,1-2,4q-2.11,1.5-6.64,1.5c-.08,0-.15-.13-.22-.39a3.42,3.42,0,0,1-.1-.91v-2.81a3.94,3.94,0,0,1,.09-.91c.06-.26.13-.38.23-.38a25.35,25.35,0,0,0,3.17-.15,7.18,7.18,0,0,0,1.79-.44l-.79-6.31,4.11-.74C548.9,335.94,549,337.16,549.05,338.17ZM545.82,331l-3.7-3.08,3.09-3.67,3.67,3.08Z"/><path class="cls-1" d="M561.18,342.55a4.66,4.66,0,0,1,.08.91v2.81a4.66,4.66,0,0,1-.08.91q-.09.39-.21.39h-1a8.7,8.7,0,0,1-3.67-.66,4.41,4.41,0,0,1-2.15-2.35,12.47,12.47,0,0,1-.81-4.68l-.15-14.39,4.11-.76v15.12c0,1.54.66,2.32,2,2.32H561C561.05,342.17,561.12,342.29,561.18,342.55Z"/><path class="cls-1" d="M577.8,336a16.19,16.19,0,0,0,4,.48l-1.08,5.08a12.1,12.1,0,0,0-3.35.82,33.54,33.54,0,0,0-3.47,1.76q-1.64.94-2.58,1.38a21.33,21.33,0,0,1-4.4,1.53,24.74,24.74,0,0,1-5.58.56H561c-.08,0-.15-.13-.22-.39a3.42,3.42,0,0,1-.1-.91v-2.81a3.94,3.94,0,0,1,.09-.91c0-.26.13-.38.23-.38h.35a29.28,29.28,0,0,0,7.28-.91,25.36,25.36,0,0,0,3.64-1.24,16,16,0,0,1,1.59-.58l.55-.12a23.61,23.61,0,0,1-2.49-.85,17.48,17.48,0,0,0-4.14-1.12,1.35,1.35,0,0,0-1.23.5,3.48,3.48,0,0,0-.47,1.29l-3.14-.5c.55-3.79,2.05-5.69,4.52-5.69a8,8,0,0,1,2.17.31c.74.2,1.75.53,3,1l.46.18.39.14A45,45,0,0,0,577.8,336Zm-6.91-5.54-3.67-3.08,3.08-3.67,3.64,3.08Z"/><path class="cls-1" d="M589.7,346.63a12.23,12.23,0,0,1,.67-4.64,19.61,19.61,0,0,1,3.41-5.49,5.42,5.42,0,0,1,4-2,4.23,4.23,0,0,1,2.72,1,6.25,6.25,0,0,1,1.83,2.62,9.83,9.83,0,0,1,.65,3.64,12.28,12.28,0,0,1-.56,3.64,3.08,3.08,0,0,1-.47.86,6.5,6.5,0,0,1-1.12,1,3.46,3.46,0,0,1-1.73.8,1.63,1.63,0,0,1-.62-.15l-5.16-2.35c.27,2.6.67,5.69,1.2,9.25l-4,1.23A79.61,79.61,0,0,1,589.7,346.63Zm9.83-4.76a3.76,3.76,0,0,0-.56-2.14,1.91,1.91,0,0,0-1.7-.82q-1.35,0-2.91,2.46l4.91,2.35A8.63,8.63,0,0,0,599.53,341.87Z"/><path class="cls-1" d="M614.76,342.55a3.94,3.94,0,0,1,.09.91v2.81a3.94,3.94,0,0,1-.09.91c0,.26-.12.39-.2.39h-1a8.7,8.7,0,0,1-3.67-.66,4.47,4.47,0,0,1-2.16-2.35,12.29,12.29,0,0,1-.8-4.68l-.15-14.39,4.11-.76v15.12c0,1.54.65,2.32,2,2.32h1.68C614.64,342.17,614.71,342.29,614.76,342.55Z"/><path class="cls-1" d="M623.13,338.17c.06,1,.09,2.33.09,3.94a4.46,4.46,0,0,1-2,4q-2.12,1.5-6.63,1.5c-.08,0-.15-.13-.22-.39a3.38,3.38,0,0,1-.11-.91v-2.81a3.94,3.94,0,0,1,.09-.91c.06-.26.14-.38.24-.38a25.46,25.46,0,0,0,3.17-.15,7.18,7.18,0,0,0,1.79-.44l-.8-6.31,4.11-.74C623,335.94,623.07,337.16,623.13,338.17ZM619.9,331l-3.7-3.08,3.08-3.67,3.67,3.08Z"/><path class="cls-1" d="M640.25,336.27a7.41,7.41,0,0,1,2,3.21,14.36,14.36,0,0,1,.67,4.53,12.2,12.2,0,0,1-2.2,7.12q-2.2,3.19-7.34,5.39l-2.73-4.17a23.08,23.08,0,0,0,4.76-2.27,13.67,13.67,0,0,0,3.2-2.72,9.58,9.58,0,0,1-2.18.24,7.94,7.94,0,0,1-2.58-.36,1.65,1.65,0,0,1-.72-.42,7.86,7.86,0,0,1-.83-1.13,5.09,5.09,0,0,1-.63-1.16,2.72,2.72,0,0,1-.16-.93,12.65,12.65,0,0,1,1.57-6.1,4.6,4.6,0,0,1,4.24-2.41A4.26,4.26,0,0,1,640.25,336.27Zm-3,6.89a15.48,15.48,0,0,0,2.08-.11,4.17,4.17,0,0,0-.66-2.53,2,2,0,0,0-1.72-.88,1.61,1.61,0,0,0-1.43.85,5.62,5.62,0,0,0-.65,2.56A20,20,0,0,0,637.27,343.16Z"/><path class="cls-1" d="M651.87,346.63a12.19,12.19,0,0,1,.68-4.64,19.83,19.83,0,0,1,3.4-5.49,5.46,5.46,0,0,1,4-2,4.21,4.21,0,0,1,2.71,1,6.27,6.27,0,0,1,1.84,2.62,9.83,9.83,0,0,1,.64,3.64,12,12,0,0,1-.56,3.64,2.64,2.64,0,0,1-.47.86,6,6,0,0,1-1.11,1,3.49,3.49,0,0,1-1.73.8,1.63,1.63,0,0,1-.62-.15l-5.16-2.35c.27,2.6.67,5.69,1.2,9.25l-4,1.23A80.07,80.07,0,0,1,651.87,346.63Zm9.84-4.76a3.76,3.76,0,0,0-.56-2.14,1.91,1.91,0,0,0-1.7-.82q-1.35,0-2.91,2.46l4.9,2.35A8.13,8.13,0,0,0,661.71,341.87Z"/><path class="cls-1" d="M676.94,342.55a3.94,3.94,0,0,1,.09.91v2.81a3.94,3.94,0,0,1-.09.91c-.06.26-.13.39-.2.39h-1a8.7,8.7,0,0,1-3.67-.66,4.47,4.47,0,0,1-2.16-2.35,12.47,12.47,0,0,1-.81-4.68L669,325.49l4.11-.76v15.12c0,1.54.65,2.32,2,2.32h1.68C676.81,342.17,676.88,342.29,676.94,342.55Z"/><path class="cls-1" d="M685.31,338.17c.06,1,.08,2.33.08,3.94a4.45,4.45,0,0,1-2,4q-2.11,1.5-6.64,1.5c-.07,0-.15-.13-.21-.39a3.38,3.38,0,0,1-.11-.91v-2.81a3.94,3.94,0,0,1,.09-.91c.06-.26.14-.38.23-.38a25.35,25.35,0,0,0,3.17-.15,7.16,7.16,0,0,0,1.8-.44l-.8-6.31,4.11-.74C685.15,335.94,685.25,337.16,685.31,338.17ZM682.08,331l-3.7-3.08,3.08-3.67,3.67,3.08Z"/><path class="cls-1" d="M516.78,396.63a5.4,5.4,0,0,1-1.51-3.74,26,26,0,0,1,.38-3.32c.25-1.6.6-3.62,1-6.05l2.05.44q-.91,5.12-1.14,8.08a2.07,2.07,0,0,0,1.49,2.34,11.1,11.1,0,0,0,3.73.59,20.35,20.35,0,0,0,4.16-.38,7.16,7.16,0,0,0,3-1.38,12.13,12.13,0,0,0,.09-1.32,1.73,1.73,0,0,0-.25-1.09,1.61,1.61,0,0,0-.86-.44l-1.68-.23c-1-.14-1.72-.27-2.17-.38a2,2,0,0,1-1-.59,1.88,1.88,0,0,1-.35-1.23,13.12,13.12,0,0,1,.84-4.57,10.69,10.69,0,0,1,2.24-3.73,4.19,4.19,0,0,1,3-1.45,3.18,3.18,0,0,1,2,.72,8.63,8.63,0,0,1,1.78,2.1l-1.44,1.44a3.45,3.45,0,0,0-2.32-1.21,3,3,0,0,0-2.47,1.65,9.23,9.23,0,0,0-1.32,4l1,.15a22,22,0,0,1,3.17.61,3.11,3.11,0,0,1,1.67,1.21,4.59,4.59,0,0,1,.62,2.64,5.74,5.74,0,0,1-1.12,3.78,7,7,0,0,1-3.47,2.26,17.39,17.39,0,0,1-5.45.77C519.68,398.29,517.79,397.73,516.78,396.63Z"/><path class="cls-1" d="M533.38,397.14q5.11-2.79,6.43-5.9l-1-8.6,2.64-.64a6.08,6.08,0,0,1,.06.67c.26,2.21.43,3.86.53,4.95s.15,2,.15,2.71a8.16,8.16,0,0,1-1.81,5.11,17.56,17.56,0,0,1-5.39,4.32Z"/><path class="cls-1" d="M553.08,388.63a4.51,4.51,0,0,1,.08.91v.79a4.55,4.55,0,0,1-.08.9c-.06.24-.13.37-.21.37h-.7a5.75,5.75,0,0,1-4.23-1.33c-.88-.88-1.35-2.39-1.41-4.55l-.44-14.82,2.67-.64.24,15.49a2.58,2.58,0,0,0,.7,1.85,2.55,2.55,0,0,0,1.88.68h1.29C553,388.28,553,388.4,553.08,388.63Z"/><path class="cls-1" d="M561.79,382a13.1,13.1,0,0,1,1.35,5.92c0,1.35-.83,2.31-2.51,2.87a25.85,25.85,0,0,1-7.76.86c-.08,0-.15-.13-.22-.37a3.34,3.34,0,0,1-.1-.9v-.79a4.44,4.44,0,0,1,.08-.89c.06-.25.14-.37.24-.37,1.64,0,3.21-.08,4.71-.22a13.48,13.48,0,0,0,3.36-.66,9.68,9.68,0,0,0-2.07-5.42,23.85,23.85,0,0,0-5.5-4.91l.12-2.76a63.21,63.21,0,0,1,9.86-4.41l.35,2.79q-4.08,1.53-7.42,3.17l.79.59A17.68,17.68,0,0,1,561.79,382Z"/><path class="cls-1" d="M572.83,389.45c.25-1.6.6-3.62,1-6l2,.47a80.12,80.12,0,0,0-1.14,8,2.07,2.07,0,0,0,1.48,2.33,10.37,10.37,0,0,0,3.62.6,20,20,0,0,0,3.7-.32,8.46,8.46,0,0,0,2.94-1.06l-1.12-11.21,2.64-.59q.57,6.56.77,11.36a4,4,0,0,1-2.54,3.85,15,15,0,0,1-6.62,1.29q-4.14,0-5.67-1.67a5.44,5.44,0,0,1-1.52-3.73A24.42,24.42,0,0,1,572.83,389.45Zm9.95-11.56-2.11,2.52-2.5-2.11,2.09-2.5Z"/><path class="cls-1" d="M595.37,370.26l.24,21.34-2.29.32-.59-21Z"/><path class="cls-1" d="M612,388.63a3.88,3.88,0,0,1,.08.91v.79a3.9,3.9,0,0,1-.08.9c-.06.24-.13.37-.21.37h-2.44a10.34,10.34,0,0,1-3,4.72,17.93,17.93,0,0,1-5.46,3.44l-1.61-2.65a20,20,0,0,0,4.85-2.55,10.44,10.44,0,0,0,3-3.2,14.79,14.79,0,0,1-3.08.29,16.69,16.69,0,0,1-2-.14,1.83,1.83,0,0,1-.8-.35,4,4,0,0,1-.7-.83,3,3,0,0,1-.51-.94,2.19,2.19,0,0,1-.11-.85,13.77,13.77,0,0,1,1.31-5.28,3.73,3.73,0,0,1,3.57-2.29,3.79,3.79,0,0,1,3.71,2.2,12.85,12.85,0,0,1,1.19,5.11h2.08C611.83,388.28,611.9,388.4,612,388.63Zm-7.55,0a15.71,15.71,0,0,0,3-.23,6.51,6.51,0,0,0-.71-3.48,2.29,2.29,0,0,0-2.05-1.07,2.11,2.11,0,0,0-1.91,1.17,7.12,7.12,0,0,0-.71,3.4A9.27,9.27,0,0,0,604.41,388.66Z"/><path class="cls-1" d="M622.79,388.63a3.82,3.82,0,0,1,.09.91v.79a3.85,3.85,0,0,1-.09.9c-.06.24-.13.37-.21.37a10.88,10.88,0,0,1-3.71-.47,2.39,2.39,0,0,1-1.51-1.56,3.42,3.42,0,0,1-2,1.56,11.65,11.65,0,0,1-3.64.47c-.08,0-.15-.13-.22-.37a3.34,3.34,0,0,1-.1-.9v-.79a3.75,3.75,0,0,1,.09-.89c.05-.25.13-.37.23-.37a9.75,9.75,0,0,0,4.37-.76l-.55-5.85,2.64-.23.35,6.25a3.71,3.71,0,0,0,1.41.46,20.61,20.61,0,0,0,2.61.13C622.66,388.28,622.73,388.4,622.79,388.63Zm-6.11-10.33-2.49-2.12,2.08-2.49,2.52,2.11Z"/><path class="cls-1" d="M636.58,389.8c-2.38.59-4.15,1-5.28,1.22a27.23,27.23,0,0,1-3.17.46c-1,.08-2.28.12-3.91.12h-1.64c-.08,0-.15-.13-.22-.37a3.34,3.34,0,0,1-.1-.9v-.79a3.75,3.75,0,0,1,.09-.89c.06-.25.13-.37.23-.37h3.94a8.88,8.88,0,0,1-.77-3.67,4.2,4.2,0,0,1,1.5-3.54,6.22,6.22,0,0,1,3.9-1.16,12.3,12.3,0,0,1,3,.41l-.68,2.85a8.45,8.45,0,0,0-2.61-.35,8,8,0,0,0-2.76.41,12.67,12.67,0,0,0,.29,2.69,8.51,8.51,0,0,0,.82,2.24,54.06,54.06,0,0,0,7.17-1.47Z"/><path class="cls-1" d="M433.86,479.23l-6.87-24h5.55l4,16.69h.2l4.39-16.69h4.75l4.37,16.73h.21l4-16.73H460l-6.87,24h-4.95l-4.57-15.7h-.19l-4.56,15.7Z"/><path class="cls-1" d="M471.64,468.58V466h15.48v2.62Zm6.43,6.43V459.53h2.62V475Z"/><path class="cls-1" d="M500.53,454.89a8.37,8.37,0,0,1,3,.56,7.33,7.33,0,0,1,2.7,1.82,9.2,9.2,0,0,1,1.95,3.47,17.18,17.18,0,0,1,.75,5.5,24.24,24.24,0,0,1-.61,5.68,13.12,13.12,0,0,1-1.73,4.18,7.84,7.84,0,0,1-2.75,2.58,7.45,7.45,0,0,1-3.64.88,7.91,7.91,0,0,1-3.6-.8,7.07,7.07,0,0,1-2.58-2.24,7.85,7.85,0,0,1-1.28-3.34h2.86a5.25,5.25,0,0,0,1.55,2.73,4.31,4.31,0,0,0,3,1.07,5,5,0,0,0,4.39-2.43,12.3,12.3,0,0,0,1.61-6.86H506a7.25,7.25,0,0,1-1.56,1.7,6.67,6.67,0,0,1-2,1.1,7,7,0,0,1-2.34.39,7.22,7.22,0,0,1-3.79-1,7.57,7.57,0,0,1-2.74-2.82,8.21,8.21,0,0,1-1-4.12,8.36,8.36,0,0,1,1-4,7.55,7.55,0,0,1,7-4Zm0,2.58a4.9,4.9,0,0,0-2.66.73,5.28,5.28,0,0,0-1.87,2,5.9,5.9,0,0,0,0,5.46,5.1,5.1,0,0,0,1.82,1.95,4.88,4.88,0,0,0,2.63.72,5,5,0,0,0,2.08-.44,5.15,5.15,0,0,0,1.68-1.21,5.73,5.73,0,0,0,1.13-1.74,5.45,5.45,0,0,0-.26-4.69,5.52,5.52,0,0,0-1.85-2A4.82,4.82,0,0,0,500.53,457.47Z"/><path class="cls-1" d="M521.29,479.56a10.06,10.06,0,0,1-4.26-.86,7,7,0,0,1-2.88-2.38,6,6,0,0,1-1-3.47,6.35,6.35,0,0,1,2.27-5,5.16,5.16,0,0,1,2.38-1.11v-.14a4.6,4.6,0,0,1-2.75-1.94,5.79,5.79,0,0,1-1-3.4A5.86,5.86,0,0,1,515,458a6.51,6.51,0,0,1,2.59-2.27,8.86,8.86,0,0,1,7.49,0,6.55,6.55,0,0,1,2.58,2.27,6.08,6.08,0,0,1-.08,6.68,4.62,4.62,0,0,1-2.72,1.94v.14a5.06,5.06,0,0,1,2.35,1.11,6.41,6.41,0,0,1,1.66,2.17,6.48,6.48,0,0,1,.64,2.82,6.12,6.12,0,0,1-1.05,3.47,7.11,7.11,0,0,1-2.87,2.38A10,10,0,0,1,521.29,479.56Zm0-2.58a6.92,6.92,0,0,0,2.82-.53,4.19,4.19,0,0,0,1.83-1.49,4,4,0,0,0,.66-2.25,4.32,4.32,0,0,0-.71-2.4,4.79,4.79,0,0,0-1.88-1.65,6.08,6.08,0,0,0-2.72-.59,6.15,6.15,0,0,0-2.73.59,4.75,4.75,0,0,0-1.89,1.65,4.22,4.22,0,0,0-.68,2.4,4,4,0,0,0,.63,2.25,4.16,4.16,0,0,0,1.84,1.49A7,7,0,0,0,521.29,477Zm0-11.4a4.9,4.9,0,0,0,2.3-.52,3.93,3.93,0,0,0,1.58-1.44,4.31,4.31,0,0,0,0-4.3,3.85,3.85,0,0,0-1.56-1.4,5.19,5.19,0,0,0-2.33-.5,5.28,5.28,0,0,0-2.35.5,3.72,3.72,0,0,0-1.56,1.4,4.48,4.48,0,0,0,0,4.3,3.83,3.83,0,0,0,1.57,1.44A5,5,0,0,0,521.29,465.58Z"/><path class="cls-1" d="M541.74,454.89a8.33,8.33,0,0,1,3,.56,7.18,7.18,0,0,1,2.7,1.82,9.21,9.21,0,0,1,2,3.47,17.49,17.49,0,0,1,.74,5.5,24.24,24.24,0,0,1-.61,5.68,13.12,13.12,0,0,1-1.73,4.18,7.84,7.84,0,0,1-2.75,2.58,7.43,7.43,0,0,1-3.64.88,7.87,7.87,0,0,1-3.59-.8,7.07,7.07,0,0,1-2.58-2.24,7.74,7.74,0,0,1-1.29-3.34h2.87a5.24,5.24,0,0,0,1.54,2.73,4.33,4.33,0,0,0,3.05,1.07,5,5,0,0,0,4.39-2.43,12.29,12.29,0,0,0,1.62-6.86h-.19a7.25,7.25,0,0,1-1.56,1.7,6.56,6.56,0,0,1-2,1.1,6.92,6.92,0,0,1-2.34.39,7.16,7.16,0,0,1-3.78-1,7.6,7.6,0,0,1-2.75-2.82,8.2,8.2,0,0,1-1-4.12,8.36,8.36,0,0,1,1-4,7.55,7.55,0,0,1,2.79-2.93A7.71,7.71,0,0,1,541.74,454.89Zm0,2.58a4.92,4.92,0,0,0-2.66.73,5.26,5.26,0,0,0-1.86,2,5.52,5.52,0,0,0-.69,2.74,5.61,5.61,0,0,0,.66,2.72,5.1,5.1,0,0,0,1.82,1.95,4.88,4.88,0,0,0,2.63.72,5,5,0,0,0,2.08-.44,5.15,5.15,0,0,0,1.68-1.21,5.73,5.73,0,0,0,1.13-1.74,5.18,5.18,0,0,0,.41-2.05,5.4,5.4,0,0,0-.67-2.64,5.52,5.52,0,0,0-1.85-2A4.82,4.82,0,0,0,541.74,457.47Z"/><path class="cls-1" d="M563.26,455.21v24h-2.91v-21h-.14l-5.86,3.9v-3l6-4Z"/><path class="cls-1" d="M570.29,479.23v-2.11l7.92-8.68c.93-1,1.7-1.9,2.3-2.65a9.88,9.88,0,0,0,1.34-2.14,5.07,5.07,0,0,0,.44-2.1,4,4,0,0,0-.6-2.2,4,4,0,0,0-1.65-1.43,5.39,5.39,0,0,0-2.34-.5,4.85,4.85,0,0,0-2.41.57,3.93,3.93,0,0,0-1.59,1.59,4.91,4.91,0,0,0-.55,2.39h-2.77a7,7,0,0,1,1-3.71,6.76,6.76,0,0,1,2.66-2.48,7.87,7.87,0,0,1,3.78-.89,7.58,7.58,0,0,1,3.74.89,6.65,6.65,0,0,1,2.56,2.4,6.3,6.3,0,0,1,.92,3.37,7.18,7.18,0,0,1-.47,2.58,11.66,11.66,0,0,1-1.64,2.81c-.78,1-1.86,2.28-3.23,3.75l-5.4,5.77v.19h11.17v2.58Z"/><path class="cls-1" d="M598.84,455.21v24h-2.91v-21h-.14l-5.86,3.9v-3l6-4Z"/><path class="cls-1" d="M605.87,479.23v-2.11l7.93-8.68c.93-1,1.69-1.9,2.3-2.65a10.28,10.28,0,0,0,1.34-2.14,5.24,5.24,0,0,0,.44-2.1,3.89,3.89,0,0,0-.61-2.2,4,4,0,0,0-1.65-1.43,5.36,5.36,0,0,0-2.34-.5,4.88,4.88,0,0,0-2.41.57,4,4,0,0,0-1.58,1.59,4.91,4.91,0,0,0-.56,2.39H606a7,7,0,0,1,1-3.71,6.73,6.73,0,0,1,2.65-2.48,7.88,7.88,0,0,1,3.79-.89,7.63,7.63,0,0,1,3.74.89,6.7,6.7,0,0,1,2.55,2.4,6.31,6.31,0,0,1,.93,3.37,7.19,7.19,0,0,1-.48,2.58,11.34,11.34,0,0,1-1.64,2.81c-.78,1-1.85,2.28-3.23,3.75l-5.39,5.77v.19H621v2.58Z"/><path class="cls-1" d="M634.1,479.56a10.23,10.23,0,0,1-4.14-.8,7.06,7.06,0,0,1-2.87-2.22,5.85,5.85,0,0,1-1.15-3.31h2.95a3.46,3.46,0,0,0,.8,2,4.6,4.6,0,0,0,1.84,1.29,7.18,7.18,0,0,0,5.26-.08,4.49,4.49,0,0,0,1.88-1.5,3.8,3.8,0,0,0,.68-2.23,4.21,4.21,0,0,0-.66-2.34,4.3,4.3,0,0,0-1.92-1.59,7.51,7.51,0,0,0-3.09-.57h-1.93v-2.58h1.93a5.69,5.69,0,0,0,2.51-.52,4.09,4.09,0,0,0,1.7-1.45,4,4,0,0,0,.62-2.21,4.05,4.05,0,0,0-.54-2.12,3.77,3.77,0,0,0-1.52-1.41,5.07,5.07,0,0,0-2.31-.5,6.17,6.17,0,0,0-2.34.45,4.45,4.45,0,0,0-1.78,1.3,3.32,3.32,0,0,0-.75,2.05h-2.82a5.77,5.77,0,0,1,1.14-3.31,7.22,7.22,0,0,1,2.8-2.23,9,9,0,0,1,3.8-.79,7.73,7.73,0,0,1,3.82.89,6.35,6.35,0,0,1,2.45,2.37,6.05,6.05,0,0,1,.86,3.16,5.63,5.63,0,0,1-1.06,3.46,5.38,5.38,0,0,1-2.88,2v.19a5.55,5.55,0,0,1,3.55,1.93,5.82,5.82,0,0,1,1.28,3.84,6,6,0,0,1-1.06,3.51,7.31,7.31,0,0,1-2.89,2.45A9.45,9.45,0,0,1,634.1,479.56Z"/><path class="cls-1" d="M646.57,474.31v-2.4l10.55-16.7h1.74v3.71h-1.18l-8,12.62v.19h14.21v2.58Zm11.3,4.92v-24h2.77v24Z"/><path class="cls-1" d="M676,479.56a8.2,8.2,0,0,1-3.72-.82,6.94,6.94,0,0,1-2.65-2.25,6.17,6.17,0,0,1-1.09-3.26h2.81a3.86,3.86,0,0,0,1.49,2.69A4.87,4.87,0,0,0,676,477a5,5,0,0,0,2.63-.69,4.92,4.92,0,0,0,1.82-1.91,6.06,6.06,0,0,0,0-5.56,5.1,5.1,0,0,0-1.88-1.95,5.3,5.3,0,0,0-2.73-.73,7.85,7.85,0,0,0-2.26.34,6.28,6.28,0,0,0-1.91.88l-2.73-.33,1.46-11.82h12.48v2.58h-10l-.85,7.09h.14a6.39,6.39,0,0,1,1.86-1,7.19,7.19,0,0,1,2.32-.38,7.39,7.39,0,0,1,6.65,3.91,8.57,8.57,0,0,1,1,4.15,8.15,8.15,0,0,1-1,4.1,7.61,7.61,0,0,1-2.82,2.84A8,8,0,0,1,676,479.56Z"/><path class="cls-1" d="M696.64,479.56a9.06,9.06,0,0,1-2.95-.56,7,7,0,0,1-2.7-1.83,9.32,9.32,0,0,1-2-3.48,17.7,17.7,0,0,1-.74-5.53,24.09,24.09,0,0,1,.6-5.66,12.88,12.88,0,0,1,1.74-4.16,7.72,7.72,0,0,1,2.75-2.57,7.43,7.43,0,0,1,3.64-.88,7.74,7.74,0,0,1,3.59.8,7,7,0,0,1,2.58,2.23,8,8,0,0,1,1.29,3.3h-2.86a5.39,5.39,0,0,0-1.55-2.69,4.31,4.31,0,0,0-3.05-1.06,5,5,0,0,0-4.39,2.42,12.3,12.3,0,0,0-1.61,6.82h.18a6.94,6.94,0,0,1,1.57-1.71,6.89,6.89,0,0,1,4.34-1.48,7.24,7.24,0,0,1,3.78,1,7.68,7.68,0,0,1,2.74,2.83,8.11,8.11,0,0,1,1,4.12,8.53,8.53,0,0,1-1,4.08,7.65,7.65,0,0,1-2.8,2.93A8,8,0,0,1,696.64,479.56Zm0-2.58a4.93,4.93,0,0,0,2.66-.74,5.21,5.21,0,0,0,1.86-2,5.9,5.9,0,0,0,0-5.48,5.2,5.2,0,0,0-1.82-2,5.15,5.15,0,0,0-4.71-.28,5.27,5.27,0,0,0-1.68,1.2,5.73,5.73,0,0,0-1.13,1.74,5.16,5.16,0,0,0-.41,2.06,5.56,5.56,0,0,0,2.52,4.68A4.82,4.82,0,0,0,696.64,477Z"/><path class="cls-1" d="M710.14,479.23,720.89,458v-.19H708.5v-2.58h15.39v2.73l-10.7,21.29Z"/><path class="cls-1" d="M321.88,518.86v-24h16.18V499H327v5.72h10.27v4.19H327v5.73h11.15v4.19Z"/><path class="cls-1" d="M363.9,508v10.84h-2.77v-18h2.67v2.82H364a5.13,5.13,0,0,1,1.92-2.21,6,6,0,0,1,3.33-.84,6.66,6.66,0,0,1,3.2.74,5.1,5.1,0,0,1,2.14,2.26,8.48,8.48,0,0,1,.76,3.8v11.45h-2.77V507.6a4.69,4.69,0,0,0-1.1-3.31,3.89,3.89,0,0,0-3-1.19,4.82,4.82,0,0,0-2.36.57,4,4,0,0,0-1.63,1.68A5.49,5.49,0,0,0,363.9,508Z"/><path class="cls-1" d="M385.76,519.28a7.3,7.3,0,0,1-3.11-.65,5.32,5.32,0,0,1-2.22-1.89,5.26,5.26,0,0,1-.82-3,4.6,4.6,0,0,1,.61-2.51,4.33,4.33,0,0,1,1.63-1.52,8.79,8.79,0,0,1,2.26-.83c.82-.18,1.65-.33,2.49-.44l2.67-.32a4,4,0,0,0,1.5-.38,1,1,0,0,0,.47-.94v-.09a3.68,3.68,0,0,0-.94-2.7,3.84,3.84,0,0,0-2.85-1,5,5,0,0,0-3.11.87,5.19,5.19,0,0,0-1.59,1.85l-2.62-.94a6.29,6.29,0,0,1,1.88-2.56,7.12,7.12,0,0,1,2.58-1.29,10.59,10.59,0,0,1,2.76-.37,11.07,11.07,0,0,1,2,.21,6.38,6.38,0,0,1,2.19.83,4.94,4.94,0,0,1,1.77,1.92A7.08,7.08,0,0,1,394,507v11.87h-2.77v-2.44h-.14a4.58,4.58,0,0,1-.94,1.25,5.26,5.26,0,0,1-1.74,1.14A6.81,6.81,0,0,1,385.76,519.28Zm.42-2.49a5.51,5.51,0,0,0,2.77-.64,4.37,4.37,0,0,0,1.71-1.67,4.22,4.22,0,0,0,.58-2.14V509.8a1.63,1.63,0,0,1-.76.39,12.3,12.3,0,0,1-1.36.29l-1.49.21-1.17.15a10.2,10.2,0,0,0-2,.45,3.44,3.44,0,0,0-1.5.92,2.37,2.37,0,0,0-.57,1.67,2.47,2.47,0,0,0,1.07,2.18A4.75,4.75,0,0,0,386.18,516.79Z"/><path class="cls-1" d="M399.08,518.86v-18h2.67v2.82H402a4.59,4.59,0,0,1,1.81-2.25,5.53,5.53,0,0,1,3-.8,5.22,5.22,0,0,1,3,.8,5.46,5.46,0,0,1,1.86,2.25h.19a5.27,5.27,0,0,1,2.07-2.22,6.37,6.37,0,0,1,3.32-.83,5.38,5.38,0,0,1,3.95,1.51,6.27,6.27,0,0,1,1.54,4.68v12.06H420V506.8a3.4,3.4,0,0,0-1.09-2.85,4,4,0,0,0-2.57-.85,3.78,3.78,0,0,0-2.94,1.14,4.11,4.11,0,0,0-1.05,2.89v11.73h-2.81V506.52a3.25,3.25,0,0,0-1-2.48,3.56,3.56,0,0,0-2.56-.94,3.84,3.84,0,0,0-2,.57,4.26,4.26,0,0,0-1.5,1.59,4.82,4.82,0,0,0-.56,2.34v11.26Z"/><path class="cls-1" d="M435.34,519.23a8.42,8.42,0,0,1-4.49-1.15,7.67,7.67,0,0,1-2.9-3.24,11,11,0,0,1-1-4.85,11.26,11.26,0,0,1,1-4.88,8,8,0,0,1,2.84-3.31,7.67,7.67,0,0,1,4.26-1.19,8.59,8.59,0,0,1,2.78.47,6.85,6.85,0,0,1,2.5,1.52,7.26,7.26,0,0,1,1.79,2.77,11.73,11.73,0,0,1,.67,4.25v1.17H428.91V508.4H440a6,6,0,0,0-.6-2.72,4.69,4.69,0,0,0-1.72-1.89,4.84,4.84,0,0,0-2.61-.69,5,5,0,0,0-2.85.81,5.42,5.42,0,0,0-1.85,2.12,6.21,6.21,0,0,0-.64,2.79v1.59a7.57,7.57,0,0,0,.71,3.46,5,5,0,0,0,2,2.14,5.79,5.79,0,0,0,2.95.74,6.12,6.12,0,0,0,2-.31,4.14,4.14,0,0,0,1.53-.94,4.28,4.28,0,0,0,1-1.57l2.67.75a5.84,5.84,0,0,1-1.42,2.39,6.79,6.79,0,0,1-2.46,1.59A9,9,0,0,1,435.34,519.23Z"/><path class="cls-1" d="M449,519a2,2,0,0,1-1.49-.62,2,2,0,0,1-.62-1.49,2.12,2.12,0,0,1,2.11-2.11,2.12,2.12,0,0,1,1.83,3.17,2.27,2.27,0,0,1-.77.77A2,2,0,0,1,449,519Z"/><path class="cls-1" d="M458.88,494.84v24h-2.76v-24Z"/><path class="cls-1" d="M469.25,519.28a7.34,7.34,0,0,1-3.11-.65,5.11,5.11,0,0,1-3-4.89,4.69,4.69,0,0,1,.61-2.51,4.33,4.33,0,0,1,1.63-1.52,8.93,8.93,0,0,1,2.26-.83c.83-.18,1.66-.33,2.49-.44l2.67-.32a4,4,0,0,0,1.5-.38,1,1,0,0,0,.48-.94v-.09a3.69,3.69,0,0,0-.95-2.7,3.84,3.84,0,0,0-2.85-1,5,5,0,0,0-3.11.87,5.05,5.05,0,0,0-1.58,1.85l-2.63-.94a6.29,6.29,0,0,1,1.88-2.56,7.28,7.28,0,0,1,2.58-1.29,10.7,10.7,0,0,1,2.76-.37,11.07,11.07,0,0,1,2,.21,6.43,6.43,0,0,1,2.2.83,5,5,0,0,1,1.76,1.92,7.08,7.08,0,0,1,.7,3.42v11.87h-2.76v-2.44h-.14a4.8,4.8,0,0,1-.94,1.25,5.31,5.31,0,0,1-1.75,1.14A6.81,6.81,0,0,1,469.25,519.28Zm.42-2.49a5.51,5.51,0,0,0,2.77-.64,4.46,4.46,0,0,0,1.72-1.67,4.33,4.33,0,0,0,.58-2.14V509.8a1.73,1.73,0,0,1-.77.39,12.3,12.3,0,0,1-1.36.29l-1.49.21-1.17.15a10.2,10.2,0,0,0-2,.45,3.44,3.44,0,0,0-1.5.92,2.37,2.37,0,0,0-.57,1.67,2.47,2.47,0,0,0,1.07,2.18A4.75,4.75,0,0,0,469.67,516.79Z"/><path class="cls-1" d="M495.33,504.88l-2.49.7a4.59,4.59,0,0,0-.68-1.21,3.38,3.38,0,0,0-1.23-1,4.42,4.42,0,0,0-2-.39,4.69,4.69,0,0,0-2.75.76,2.25,2.25,0,0,0-1.1,1.92,2,2,0,0,0,.75,1.63,6.14,6.14,0,0,0,2.35,1l2.67.66a7.42,7.42,0,0,1,3.6,1.79,4.21,4.21,0,0,1,1.19,3.09,4.63,4.63,0,0,1-.89,2.77,6,6,0,0,1-2.47,1.92,9,9,0,0,1-3.68.7,8.13,8.13,0,0,1-4.56-1.19,5.34,5.34,0,0,1-2.29-3.5l2.63-.66a3.67,3.67,0,0,0,1.42,2.19,4.78,4.78,0,0,0,2.75.72,5.16,5.16,0,0,0,3.08-.82,2.42,2.42,0,0,0,1.14-2,2.1,2.1,0,0,0-.65-1.58,4.28,4.28,0,0,0-2-.95l-3-.71a7.12,7.12,0,0,1-3.63-1.82,4.71,4.71,0,0,1-.29-5.8,5.73,5.73,0,0,1,2.35-1.84,8.19,8.19,0,0,1,3.4-.67,6.76,6.76,0,0,1,4.2,1.17A6.36,6.36,0,0,1,495.33,504.88Z"/><path class="cls-1" d="M507.66,500.84v2.35h-9.33v-2.35Zm-6.61-4.31h2.77V513.7a3.52,3.52,0,0,0,.34,1.75,1.65,1.65,0,0,0,.89.77,3.45,3.45,0,0,0,1.16.2,3.77,3.77,0,0,0,.75-.06l.47-.08.56,2.48a5.68,5.68,0,0,1-.78.22,6.41,6.41,0,0,1-1.28.11,5.6,5.6,0,0,1-2.29-.5,4.55,4.55,0,0,1-1.86-1.54,4.36,4.36,0,0,1-.73-2.6Z"/><path class="cls-1" d="M514.61,508v10.84h-2.77v-18h2.67v2.82h.24a5.13,5.13,0,0,1,1.92-2.21,6,6,0,0,1,3.33-.84,6.66,6.66,0,0,1,3.2.74,5.1,5.1,0,0,1,2.14,2.26,8.48,8.48,0,0,1,.76,3.8v11.45h-2.77V507.6a4.69,4.69,0,0,0-1.1-3.31,3.9,3.9,0,0,0-3-1.19,4.82,4.82,0,0,0-2.36.57,4,4,0,0,0-1.63,1.68A5.49,5.49,0,0,0,514.61,508Z"/><path class="cls-1" d="M536.46,519.28a7.29,7.29,0,0,1-3.1-.65,5.32,5.32,0,0,1-2.22-1.89,5.26,5.26,0,0,1-.82-3,4.6,4.6,0,0,1,.61-2.51,4.33,4.33,0,0,1,1.63-1.52,8.79,8.79,0,0,1,2.26-.83c.82-.18,1.65-.33,2.49-.44l2.67-.32a4,4,0,0,0,1.5-.38,1,1,0,0,0,.47-.94v-.09A3.68,3.68,0,0,0,541,504a3.85,3.85,0,0,0-2.86-1,5,5,0,0,0-3.11.87,5.15,5.15,0,0,0-1.58,1.85l-2.62-.94a6.2,6.2,0,0,1,1.88-2.56A7.12,7.12,0,0,1,535.3,501a10.59,10.59,0,0,1,2.76-.37,11.16,11.16,0,0,1,2,.21,6.46,6.46,0,0,1,2.19.83,4.94,4.94,0,0,1,1.77,1.92,7.08,7.08,0,0,1,.7,3.42v11.87H542v-2.44h-.14a4.8,4.8,0,0,1-.94,1.25,5.26,5.26,0,0,1-1.74,1.14A6.82,6.82,0,0,1,536.46,519.28Zm.43-2.49a5.51,5.51,0,0,0,2.77-.64,4.5,4.5,0,0,0,1.71-1.67,4.22,4.22,0,0,0,.58-2.14V509.8a1.63,1.63,0,0,1-.76.39,12,12,0,0,1-1.37.29l-1.48.21-1.17.15a10.2,10.2,0,0,0-2,.45,3.44,3.44,0,0,0-1.5.92,2.37,2.37,0,0,0-.57,1.67,2.47,2.47,0,0,0,1.07,2.18A4.75,4.75,0,0,0,536.89,516.79Z"/><path class="cls-1" d="M549.79,518.86v-18h2.67v2.82h.23a4.61,4.61,0,0,1,1.82-2.25,5.53,5.53,0,0,1,3-.8,5.26,5.26,0,0,1,3,.8,5.46,5.46,0,0,1,1.86,2.25h.18a5.35,5.35,0,0,1,2.08-2.22,6.37,6.37,0,0,1,3.32-.83,5.38,5.38,0,0,1,3.95,1.51,6.31,6.31,0,0,1,1.54,4.68v12.06h-2.77V506.8a3.43,3.43,0,0,0-1.09-2.85,4.06,4.06,0,0,0-2.57-.85,3.77,3.77,0,0,0-2.94,1.14,4.11,4.11,0,0,0-1,2.89v11.73H560.2V506.52a3.25,3.25,0,0,0-1-2.48,3.57,3.57,0,0,0-2.57-.94,3.78,3.78,0,0,0-2,.57,4.26,4.26,0,0,0-1.5,1.59,4.72,4.72,0,0,0-.57,2.34v11.26Z"/><path class="cls-1" d="M586,519.23a8.39,8.39,0,0,1-4.48-1.15,7.61,7.61,0,0,1-2.9-3.24,11,11,0,0,1-1-4.85,11.26,11.26,0,0,1,1-4.88,8,8,0,0,1,2.84-3.31,7.64,7.64,0,0,1,4.26-1.19,8.59,8.59,0,0,1,2.78.47,6.85,6.85,0,0,1,2.5,1.52,7.26,7.26,0,0,1,1.79,2.77,11.73,11.73,0,0,1,.67,4.25v1.17H579.62V508.4h11.07a5.83,5.83,0,0,0-.61-2.72,4.6,4.6,0,0,0-1.71-1.89,4.84,4.84,0,0,0-2.61-.69,5,5,0,0,0-2.85.81,5.42,5.42,0,0,0-1.85,2.12,6.21,6.21,0,0,0-.64,2.79v1.59a7.7,7.7,0,0,0,.7,3.46,5.08,5.08,0,0,0,2,2.14,5.78,5.78,0,0,0,2.94.74,6.14,6.14,0,0,0,2-.31,4.14,4.14,0,0,0,1.53-.94,4.28,4.28,0,0,0,1-1.57l2.67.75a5.84,5.84,0,0,1-1.42,2.39,6.79,6.79,0,0,1-2.46,1.59A9.07,9.07,0,0,1,586,519.23Z"/><path class="cls-1" d="M611.56,525.19a18.93,18.93,0,0,1-6.34-1,12,12,0,0,1-4.63-2.88,12.2,12.2,0,0,1-2.84-4.65,19.15,19.15,0,0,1-1-6.31,17.88,17.88,0,0,1,1-6.15,12.43,12.43,0,0,1,2.85-4.6,12.27,12.27,0,0,1,4.54-2.89,17.21,17.21,0,0,1,6.07-1,14.36,14.36,0,0,1,5.78,1.08,12.08,12.08,0,0,1,4.15,2.89,12.43,12.43,0,0,1,2.51,4.1,13.45,13.45,0,0,1,.84,4.69c0,1.13-.06,2.28-.17,3.45a13.23,13.23,0,0,1-.69,3.21A5.29,5.29,0,0,1,622,517.5a4.58,4.58,0,0,1-3,.89,7.31,7.31,0,0,1-1.81-.26,4.7,4.7,0,0,1-1.75-.86,2.33,2.33,0,0,1-.9-1.6h-.14a4.47,4.47,0,0,1-.86,1.29,4.19,4.19,0,0,1-1.51,1,5.8,5.8,0,0,1-2.27.32,6,6,0,0,1-2.69-.69,5.78,5.78,0,0,1-1.94-1.71,7.69,7.69,0,0,1-1.17-2.52,11.8,11.8,0,0,1-.4-3.1,8.65,8.65,0,0,1,.47-2.9,7.41,7.41,0,0,1,1.31-2.3,6.67,6.67,0,0,1,2-1.58,7,7,0,0,1,4.58-.63,4.5,4.5,0,0,1,1.58.65,1.86,1.86,0,0,1,.79.94h.14V503.1H617v10.6a2.83,2.83,0,0,0,.55,1.73,1.85,1.85,0,0,0,1.6.75,2.19,2.19,0,0,0,1.84-.82,5.28,5.28,0,0,0,.88-2.53,32.64,32.64,0,0,0,.24-4.39,11.31,11.31,0,0,0-.43-3.1,10.28,10.28,0,0,0-1.29-2.87,9.47,9.47,0,0,0-2.17-2.35,10.11,10.11,0,0,0-3.08-1.6,12.72,12.72,0,0,0-4-.58,13.42,13.42,0,0,0-4.93.85,9.84,9.84,0,0,0-3.69,2.47,10.87,10.87,0,0,0-2.31,3.94,16.2,16.2,0,0,0-.79,5.26,16.38,16.38,0,0,0,.79,5.31,10.33,10.33,0,0,0,2.34,3.92,10,10,0,0,0,3.86,2.42,15.58,15.58,0,0,0,5.29.83,12.75,12.75,0,0,0,2.55-.25,20.14,20.14,0,0,0,2.22-.54l1.38-.43.66,2.16a16.61,16.61,0,0,1-1.9.61,23.61,23.61,0,0,1-2.48.5A17.29,17.29,0,0,1,611.56,525.19Zm-1.36-9.34a4.63,4.63,0,0,0,2.55-.63,3.59,3.59,0,0,0,1.41-1.91,9.83,9.83,0,0,0,.45-3.22,7.73,7.73,0,0,0-.49-3.08,2.94,2.94,0,0,0-1.46-1.54,5.57,5.57,0,0,0-2.37-.45,3.7,3.7,0,0,0-2.28.7,4.37,4.37,0,0,0-1.44,1.85,6.33,6.33,0,0,0-.5,2.52,9.91,9.91,0,0,0,.4,2.82,4.6,4.6,0,0,0,1.3,2.13A3.51,3.51,0,0,0,610.2,515.85Z"/><path class="cls-1" d="M629,518.86v-24h2.77v8.87H632c.2-.32.49-.72.85-1.21a5.11,5.11,0,0,1,1.57-1.31,5.65,5.65,0,0,1,2.79-.58,7.16,7.16,0,0,1,4,1.14,7.63,7.63,0,0,1,2.71,3.22,13.06,13.06,0,0,1,0,9.88,7.61,7.61,0,0,1-2.7,3.24,7,7,0,0,1-4,1.14,5.66,5.66,0,0,1-2.78-.58,5.07,5.07,0,0,1-1.61-1.32c-.38-.5-.67-.91-.87-1.24h-.33v2.77Zm2.72-9a10,10,0,0,0,.6,3.6,5.43,5.43,0,0,0,1.74,2.42,4.5,4.5,0,0,0,2.82.88,4.55,4.55,0,0,0,2.9-.92,5.63,5.63,0,0,0,1.76-2.49,9.68,9.68,0,0,0,.59-3.49,9.53,9.53,0,0,0-.58-3.43,5.35,5.35,0,0,0-1.75-2.43,4.68,4.68,0,0,0-2.92-.89,4.62,4.62,0,0,0-2.84.85,5.13,5.13,0,0,0-1.73,2.37A9.78,9.78,0,0,0,631.73,509.85Z"/><path class="cls-1" d="M654.43,519.28a7.37,7.37,0,0,1-3.11-.65,5.12,5.12,0,0,1-3-4.89,4.6,4.6,0,0,1,.61-2.51,4.26,4.26,0,0,1,1.63-1.52,8.79,8.79,0,0,1,2.26-.83c.82-.18,1.65-.33,2.49-.44l2.67-.32a4,4,0,0,0,1.5-.38,1,1,0,0,0,.47-.94v-.09A3.68,3.68,0,0,0,659,504a3.86,3.86,0,0,0-2.86-1,5,5,0,0,0-3.11.87,5.15,5.15,0,0,0-1.58,1.85l-2.63-.94a6.31,6.31,0,0,1,1.89-2.56,7.12,7.12,0,0,1,2.58-1.29,10.59,10.59,0,0,1,2.76-.37,11.16,11.16,0,0,1,2,.21,6.46,6.46,0,0,1,2.19.83,4.84,4.84,0,0,1,1.76,1.92,7.07,7.07,0,0,1,.71,3.42v11.87h-2.77v-2.44h-.14a4.8,4.8,0,0,1-.94,1.25,5.31,5.31,0,0,1-1.75,1.14A6.74,6.74,0,0,1,654.43,519.28Zm.43-2.49a5.54,5.54,0,0,0,2.77-.64,4.5,4.5,0,0,0,1.71-1.67,4.22,4.22,0,0,0,.58-2.14V509.8a1.67,1.67,0,0,1-.77.39,11.82,11.82,0,0,1-1.36.29l-1.49.21-1.16.15a10.46,10.46,0,0,0-2,.45,3.44,3.44,0,0,0-1.5.92,2.37,2.37,0,0,0-.57,1.67,2.46,2.46,0,0,0,1.08,2.18A4.7,4.7,0,0,0,654.86,516.79Z"/><path class="cls-1" d="M680.51,504.88l-2.48.7a4.94,4.94,0,0,0-.69-1.21,3.43,3.43,0,0,0-1.22-1,4.43,4.43,0,0,0-2-.39,4.72,4.72,0,0,0-2.75.76,2.24,2.24,0,0,0-1.09,1.92,2,2,0,0,0,.75,1.63,6.15,6.15,0,0,0,2.34,1l2.68.66a7.42,7.42,0,0,1,3.6,1.79,4.21,4.21,0,0,1,1.18,3.09,4.68,4.68,0,0,1-.88,2.77,6,6,0,0,1-2.47,1.92,9,9,0,0,1-3.69.7,8.18,8.18,0,0,1-4.56-1.19,5.33,5.33,0,0,1-2.28-3.5l2.62-.66a3.68,3.68,0,0,0,1.43,2.19,4.76,4.76,0,0,0,2.75.72,5.18,5.18,0,0,0,3.08-.82,2.42,2.42,0,0,0,1.14-2,2.11,2.11,0,0,0-.66-1.58,4.29,4.29,0,0,0-2-.95l-3-.71a7.16,7.16,0,0,1-3.63-1.82,4.37,4.37,0,0,1-1.15-3.1,4.46,4.46,0,0,1,.86-2.7,5.76,5.76,0,0,1,2.36-1.84,8.14,8.14,0,0,1,3.39-.67,6.77,6.77,0,0,1,4.21,1.17A6.34,6.34,0,0,1,680.51,504.88Z"/><path class="cls-1" d="M690.31,519.28a7.29,7.29,0,0,1-3.1-.65,5.32,5.32,0,0,1-2.22-1.89,5.26,5.26,0,0,1-.82-3,4.6,4.6,0,0,1,.61-2.51,4.33,4.33,0,0,1,1.63-1.52,8.79,8.79,0,0,1,2.26-.83c.82-.18,1.65-.33,2.49-.44l2.67-.32a4,4,0,0,0,1.5-.38,1,1,0,0,0,.47-.94v-.09a3.68,3.68,0,0,0-.94-2.7,3.85,3.85,0,0,0-2.86-1,5,5,0,0,0-3.1.87,5.19,5.19,0,0,0-1.59,1.85l-2.62-.94a6.29,6.29,0,0,1,1.88-2.56,7.12,7.12,0,0,1,2.58-1.29,10.59,10.59,0,0,1,2.76-.37,11.16,11.16,0,0,1,2,.21,6.46,6.46,0,0,1,2.19.83,4.94,4.94,0,0,1,1.77,1.92,7.08,7.08,0,0,1,.7,3.42v11.87H695.8v-2.44h-.14a4.8,4.8,0,0,1-.94,1.25,5.16,5.16,0,0,1-1.74,1.14A6.82,6.82,0,0,1,690.31,519.28Zm.43-2.49a5.51,5.51,0,0,0,2.77-.64,4.37,4.37,0,0,0,1.71-1.67,4.22,4.22,0,0,0,.58-2.14V509.8a1.63,1.63,0,0,1-.76.39,12.3,12.3,0,0,1-1.36.29l-1.49.21-1.17.15a10.2,10.2,0,0,0-2,.45,3.44,3.44,0,0,0-1.5.92,2.37,2.37,0,0,0-.57,1.67,2.45,2.45,0,0,0,1.07,2.18A4.72,4.72,0,0,0,690.74,516.79Z"/><path class="cls-1" d="M706.4,494.84v24h-2.76v-24Z"/><path class="cls-1" d="M716.77,519.28a7.34,7.34,0,0,1-3.11-.65,5.15,5.15,0,0,1-3-4.89,4.6,4.6,0,0,1,.62-2.51,4.26,4.26,0,0,1,1.63-1.52,8.72,8.72,0,0,1,2.25-.83c.83-.18,1.66-.33,2.5-.44l2.66-.32a3.92,3.92,0,0,0,1.5-.38,1,1,0,0,0,.48-.94v-.09a3.69,3.69,0,0,0-1-2.7,3.82,3.82,0,0,0-2.85-1,5,5,0,0,0-3.11.87,5.05,5.05,0,0,0-1.58,1.85l-2.63-.94a6.38,6.38,0,0,1,1.88-2.56A7.28,7.28,0,0,1,715.6,501a10.72,10.72,0,0,1,2.77-.37,11.25,11.25,0,0,1,2,.21,6.46,6.46,0,0,1,2.19.83,4.92,4.92,0,0,1,1.76,1.92A7.07,7.07,0,0,1,725,507v11.87h-2.77v-2.44h-.14a4.8,4.8,0,0,1-.94,1.25,5.31,5.31,0,0,1-1.75,1.14A6.74,6.74,0,0,1,716.77,519.28Zm.42-2.49a5.55,5.55,0,0,0,2.78-.64,4.5,4.5,0,0,0,1.71-1.67,4.33,4.33,0,0,0,.58-2.14V509.8a1.73,1.73,0,0,1-.77.39,11.82,11.82,0,0,1-1.36.29l-1.49.21-1.17.15a10.2,10.2,0,0,0-2,.45,3.44,3.44,0,0,0-1.5.92,2.37,2.37,0,0,0-.57,1.67,2.46,2.46,0,0,0,1.08,2.18A4.69,4.69,0,0,0,717.19,516.79Z"/><path class="cls-1" d="M730.09,518.86v-18h2.68v2.82H733a4.61,4.61,0,0,1,1.82-2.25,5.49,5.49,0,0,1,3-.8,5.22,5.22,0,0,1,3,.8,5.31,5.31,0,0,1,1.86,2.25h.19a5.23,5.23,0,0,1,2.08-2.22,6.35,6.35,0,0,1,3.31-.83,5.4,5.4,0,0,1,4,1.51,6.31,6.31,0,0,1,1.53,4.68v12.06H751V506.8a3.42,3.42,0,0,0-1.08-2.85,4.06,4.06,0,0,0-2.57-.85,3.81,3.81,0,0,0-2.95,1.14,4.15,4.15,0,0,0-1,2.89v11.73h-2.81V506.52a3.28,3.28,0,0,0-1-2.48,3.59,3.59,0,0,0-2.57-.94,3.78,3.78,0,0,0-2,.57,4.26,4.26,0,0,0-1.5,1.59,4.72,4.72,0,0,0-.57,2.34v11.26Z"/><path class="cls-1" d="M760.81,519a2.12,2.12,0,0,1-2.1-2.11,2.11,2.11,0,1,1,3.93,1.06,2.24,2.24,0,0,1-.76.77A2,2,0,0,1,760.81,519Z"/><path class="cls-1" d="M775.21,519.23a7.5,7.5,0,0,1-7.17-4.49,11.13,11.13,0,0,1-1-4.8,11,11,0,0,1,1-4.84,7.84,7.84,0,0,1,2.84-3.3,7.62,7.62,0,0,1,4.26-1.19,8,8,0,0,1,3.42.7,6.6,6.6,0,0,1,2.5,2,6.2,6.2,0,0,1,1.21,3h-2.77a4.37,4.37,0,0,0-1.4-2.19,4.28,4.28,0,0,0-2.92-.95,4.93,4.93,0,0,0-2.83.83,5.5,5.5,0,0,0-1.88,2.36,8.53,8.53,0,0,0-.68,3.56,9.28,9.28,0,0,0,.66,3.64,5.56,5.56,0,0,0,1.88,2.4,4.83,4.83,0,0,0,2.85.86,4.93,4.93,0,0,0,2-.38,4,4,0,0,0,1.49-1.08,4.06,4.06,0,0,0,.87-1.69h2.77a6.37,6.37,0,0,1-1.16,2.87,6.44,6.44,0,0,1-2.43,2A7.88,7.88,0,0,1,775.21,519.23Z"/><path class="cls-1" d="M793.65,519.23a7.74,7.74,0,0,1-4.27-1.16,7.84,7.84,0,0,1-2.87-3.25,11,11,0,0,1-1-4.88,11.13,11.13,0,0,1,1-4.91,7.9,7.9,0,0,1,14.28,0,11.13,11.13,0,0,1,1,4.91,11,11,0,0,1-1,4.88,7.84,7.84,0,0,1-2.87,3.25A7.74,7.74,0,0,1,793.65,519.23Zm0-2.48a4.79,4.79,0,0,0,3.05-1,5.69,5.69,0,0,0,1.77-2.5,10.19,10.19,0,0,0,0-6.72,5.69,5.69,0,0,0-1.77-2.52,5.33,5.33,0,0,0-6.1,0,5.62,5.62,0,0,0-1.77,2.52,10,10,0,0,0,0,6.72,5.61,5.61,0,0,0,1.77,2.5A4.77,4.77,0,0,0,793.65,516.75Z"/><path class="cls-1" d="M806,518.86v-18h2.68v2.82h.23a4.55,4.55,0,0,1,1.82-2.25,5.49,5.49,0,0,1,3-.8,5.22,5.22,0,0,1,3,.8,5.31,5.31,0,0,1,1.86,2.25h.19a5.23,5.23,0,0,1,2.08-2.22,6.33,6.33,0,0,1,3.31-.83,5.42,5.42,0,0,1,4,1.51,6.31,6.31,0,0,1,1.53,4.68v12.06H826.9V506.8a3.4,3.4,0,0,0-1.09-2.85,4,4,0,0,0-2.56-.85,3.81,3.81,0,0,0-3,1.14,4.15,4.15,0,0,0-1,2.89v11.73h-2.81V506.52a3.28,3.28,0,0,0-1-2.48,3.59,3.59,0,0,0-2.57-.94,3.78,3.78,0,0,0-2,.57,4.26,4.26,0,0,0-1.5,1.59,4.72,4.72,0,0,0-.57,2.34v11.26Z"/><path class="cls-1" d="M475.86,558.48v-24h2.76v8.86h.24c.2-.31.48-.71.85-1.2a4.85,4.85,0,0,1,1.57-1.31,5.61,5.61,0,0,1,2.78-.58,7.19,7.19,0,0,1,4,1.13,7.59,7.59,0,0,1,2.71,3.23,11.52,11.52,0,0,1,1,4.92,11.67,11.67,0,0,1-1,5,7.71,7.71,0,0,1-2.69,3.24,7.06,7.06,0,0,1-4,1.14,5.71,5.71,0,0,1-2.78-.58,5,5,0,0,1-1.6-1.33c-.38-.49-.67-.91-.87-1.23h-.33v2.76Zm2.72-9a10.12,10.12,0,0,0,.59,3.59,5.43,5.43,0,0,0,1.75,2.43,5,5,0,0,0,5.72,0A5.62,5.62,0,0,0,488.4,553a9.94,9.94,0,0,0,.59-3.49,9.53,9.53,0,0,0-.58-3.43,5.42,5.42,0,0,0-1.75-2.43,5.18,5.18,0,0,0-5.76,0,5.19,5.19,0,0,0-1.74,2.37A9.8,9.8,0,0,0,478.58,549.48Z"/><path class="cls-1" d="M501.28,558.91a7.19,7.19,0,0,1-3.11-.66,5.21,5.21,0,0,1-2.21-1.88,5.31,5.31,0,0,1-.83-3,4.69,4.69,0,0,1,.61-2.51,4.21,4.21,0,0,1,1.64-1.52,8.37,8.37,0,0,1,2.25-.83c.83-.18,1.66-.33,2.49-.44,1.1-.14,2-.25,2.67-.32a4.18,4.18,0,0,0,1.5-.38,1,1,0,0,0,.48-.94v-.1a3.68,3.68,0,0,0-.95-2.69,3.84,3.84,0,0,0-2.85-1,4.82,4.82,0,0,0-4.69,2.72l-2.63-.94a6.31,6.31,0,0,1,1.88-2.56,7,7,0,0,1,2.58-1.29,10.7,10.7,0,0,1,2.76-.37,11.94,11.94,0,0,1,2,.2,6.67,6.67,0,0,1,2.2.84,5,5,0,0,1,1.76,1.91,7.12,7.12,0,0,1,.71,3.43v11.86h-2.77V556h-.14a4.82,4.82,0,0,1-.94,1.26,5.64,5.64,0,0,1-1.75,1.14A6.77,6.77,0,0,1,501.28,558.91Zm.42-2.49a5.51,5.51,0,0,0,2.77-.65,4.44,4.44,0,0,0,1.72-1.66,4.36,4.36,0,0,0,.58-2.15v-2.53a1.64,1.64,0,0,1-.77.38,10.37,10.37,0,0,1-1.36.29c-.51.09-1,.16-1.49.22l-1.17.14a11.85,11.85,0,0,0-2,.45,3.55,3.55,0,0,0-1.5.93,2.37,2.37,0,0,0-.57,1.67,2.48,2.48,0,0,0,1.07,2.18A4.75,4.75,0,0,0,501.7,556.42Z"/><path class="cls-1" d="M527.36,544.51l-2.49.7a4.44,4.44,0,0,0-.68-1.21,3.36,3.36,0,0,0-1.23-1,4.36,4.36,0,0,0-2-.39,4.69,4.69,0,0,0-2.75.76,2.25,2.25,0,0,0-1.1,1.91,2,2,0,0,0,.75,1.63,6.36,6.36,0,0,0,2.35,1l2.67.66a7.42,7.42,0,0,1,3.6,1.78,4.25,4.25,0,0,1,1.19,3.09,4.58,4.58,0,0,1-.89,2.77,5.89,5.89,0,0,1-2.47,1.93,9.12,9.12,0,0,1-3.68.7,8.06,8.06,0,0,1-4.56-1.2,5.26,5.26,0,0,1-2.29-3.49l2.63-.66a3.61,3.61,0,0,0,1.42,2.18,4.71,4.71,0,0,0,2.75.73,5.16,5.16,0,0,0,3.08-.83,2.41,2.41,0,0,0,1.15-2,2.1,2.1,0,0,0-.66-1.58,4.19,4.19,0,0,0-2-1l-3-.7a7.12,7.12,0,0,1-3.63-1.82,4.71,4.71,0,0,1-.29-5.8,5.65,5.65,0,0,1,2.35-1.84,8.19,8.19,0,0,1,3.4-.67,6.76,6.76,0,0,1,4.2,1.17A6.31,6.31,0,0,1,527.36,544.51Z"/><path class="cls-1" d="M537.16,558.91a7.19,7.19,0,0,1-3.11-.66,5.21,5.21,0,0,1-2.21-1.88,5.31,5.31,0,0,1-.82-3,4.6,4.6,0,0,1,.61-2.51,4.18,4.18,0,0,1,1.63-1.52,8.5,8.5,0,0,1,2.25-.83c.83-.18,1.66-.33,2.5-.44,1.09-.14,2-.25,2.66-.32a4.24,4.24,0,0,0,1.51-.38,1,1,0,0,0,.47-.94v-.1a3.67,3.67,0,0,0-.94-2.69,3.86,3.86,0,0,0-2.86-1,4.82,4.82,0,0,0-4.69,2.72l-2.63-.94a6.24,6.24,0,0,1,1.89-2.56,6.82,6.82,0,0,1,2.58-1.29,10.59,10.59,0,0,1,2.76-.37,12,12,0,0,1,2,.2,6.7,6.7,0,0,1,2.19.84,4.88,4.88,0,0,1,1.76,1.91,7.12,7.12,0,0,1,.71,3.43v11.86h-2.77V556h-.14a4.82,4.82,0,0,1-.94,1.26,5.64,5.64,0,0,1-1.75,1.14A6.74,6.74,0,0,1,537.16,558.91Zm.42-2.49a5.55,5.55,0,0,0,2.78-.65,4.48,4.48,0,0,0,1.71-1.66,4.26,4.26,0,0,0,.58-2.15v-2.53a1.59,1.59,0,0,1-.77.38,10,10,0,0,1-1.36.29c-.51.09-1,.16-1.49.22l-1.16.14a12.2,12.2,0,0,0-2,.45,3.55,3.55,0,0,0-1.5.93,2.36,2.36,0,0,0-.56,1.67,2.46,2.46,0,0,0,1.07,2.18A4.69,4.69,0,0,0,537.58,556.42Z"/><path class="cls-1" d="M553.25,534.47v24h-2.77v-24Z"/><path class="cls-1" d="M563.62,558.91a7.16,7.16,0,0,1-3.11-.66,5.29,5.29,0,0,1-2.22-1.88,5.39,5.39,0,0,1-.82-3,4.69,4.69,0,0,1,.61-2.51,4.25,4.25,0,0,1,1.63-1.52,8.44,8.44,0,0,1,2.26-.83c.82-.18,1.65-.33,2.49-.44,1.1-.14,2-.25,2.67-.32a4.24,4.24,0,0,0,1.5-.38,1,1,0,0,0,.48-.94v-.1a3.68,3.68,0,0,0-1-2.69,3.84,3.84,0,0,0-2.85-1,5,5,0,0,0-3.11.86,5.08,5.08,0,0,0-1.58,1.86l-2.63-.94a6.23,6.23,0,0,1,1.88-2.56,7,7,0,0,1,2.58-1.29,10.59,10.59,0,0,1,2.76-.37,11.94,11.94,0,0,1,2,.2,6.62,6.62,0,0,1,2.19.84,4.91,4.91,0,0,1,1.77,1.91,7.12,7.12,0,0,1,.7,3.43v11.86h-2.76V556H569a4.76,4.76,0,0,1-.93,1.26,5.64,5.64,0,0,1-1.75,1.14A6.81,6.81,0,0,1,563.62,558.91Zm.42-2.49a5.51,5.51,0,0,0,2.77-.65,4.44,4.44,0,0,0,1.72-1.66,4.36,4.36,0,0,0,.58-2.15v-2.53a1.64,1.64,0,0,1-.77.38,10.37,10.37,0,0,1-1.36.29c-.52.09-1,.16-1.49.22l-1.17.14a11.85,11.85,0,0,0-2,.45,3.55,3.55,0,0,0-1.5.93,2.37,2.37,0,0,0-.57,1.67,2.48,2.48,0,0,0,1.07,2.18A4.75,4.75,0,0,0,564,556.42Z"/><path class="cls-1" d="M576.94,558.48v-18h2.67v2.82h.24a4.54,4.54,0,0,1,1.81-2.25,5.45,5.45,0,0,1,3-.8,5.14,5.14,0,0,1,3,.8,5.4,5.4,0,0,1,1.86,2.25h.19a5.29,5.29,0,0,1,2.07-2.23,6.36,6.36,0,0,1,3.32-.82,5.41,5.41,0,0,1,3.95,1.5,6.31,6.31,0,0,1,1.54,4.69v12.05h-2.77V546.43a3.4,3.4,0,0,0-1.09-2.85,4,4,0,0,0-2.57-.86,3.75,3.75,0,0,0-2.94,1.15,4.09,4.09,0,0,0-1,2.89v11.72h-2.82V546.15a3.23,3.23,0,0,0-1-2.48,3.57,3.57,0,0,0-2.56-.95,3.7,3.7,0,0,0-2,.58,4.2,4.2,0,0,0-1.51,1.59,4.66,4.66,0,0,0-.56,2.34v11.25Z"/><path class="cls-1" d="M607.66,558.67a2.11,2.11,0,1,1,2.11-2.11,2,2,0,0,1-.29,1.06,2.13,2.13,0,0,1-.76.76A1.92,1.92,0,0,1,607.66,558.67Z"/><path class="cls-1" d="M622.06,558.86a7.57,7.57,0,0,1-7.18-4.49,11.28,11.28,0,0,1-1-4.8,11.15,11.15,0,0,1,1-4.85,8,8,0,0,1,2.84-3.29,7.6,7.6,0,0,1,4.27-1.19,8.08,8.08,0,0,1,3.42.7,6.6,6.6,0,0,1,2.5,2,6,6,0,0,1,1.2,3h-2.76a4.33,4.33,0,0,0-1.4-2.19,4.26,4.26,0,0,0-2.92-1,4.85,4.85,0,0,0-2.83.84,5.52,5.52,0,0,0-1.89,2.36,8.7,8.7,0,0,0-.67,3.56,9.19,9.19,0,0,0,.66,3.63,5.52,5.52,0,0,0,1.88,2.41,4.82,4.82,0,0,0,2.85.85,5,5,0,0,0,2-.37,4,4,0,0,0,2.36-2.77h2.76A6.4,6.4,0,0,1,628,556.1a6.32,6.32,0,0,1-2.43,2A7.74,7.74,0,0,1,622.06,558.86Z"/><path class="cls-1" d="M640.5,558.86a7.6,7.6,0,0,1-7.14-4.41,11,11,0,0,1-1-4.88,11.13,11.13,0,0,1,1-4.91,7.89,7.89,0,0,1,14.27,0,11.13,11.13,0,0,1,1,4.91,11,11,0,0,1-1,4.88,7.6,7.6,0,0,1-7.13,4.41Zm0-2.49a4.68,4.68,0,0,0,3-1,5.52,5.52,0,0,0,1.77-2.49,10,10,0,0,0,0-6.72,5.7,5.7,0,0,0-1.77-2.53,5.31,5.31,0,0,0-6.09,0,5.7,5.7,0,0,0-1.77,2.53,10,10,0,0,0,0,6.72,5.52,5.52,0,0,0,1.77,2.49A4.69,4.69,0,0,0,640.5,556.37Z"/><path class="cls-1" d="M652.88,558.48v-18h2.67v2.82h.24A4.54,4.54,0,0,1,657.6,541a5.47,5.47,0,0,1,3-.8,5.14,5.14,0,0,1,3,.8,5.4,5.4,0,0,1,1.86,2.25h.19a5.29,5.29,0,0,1,2.07-2.23,6.36,6.36,0,0,1,3.32-.82,5.41,5.41,0,0,1,4,1.5,6.31,6.31,0,0,1,1.54,4.69v12.05h-2.77V546.43a3.4,3.4,0,0,0-1.09-2.85,4,4,0,0,0-2.57-.86,3.77,3.77,0,0,0-2.94,1.15,4.09,4.09,0,0,0-1,2.89v11.72h-2.82V546.15a3.23,3.23,0,0,0-1-2.48,3.57,3.57,0,0,0-2.56-.95,3.76,3.76,0,0,0-2,.58,4.26,4.26,0,0,0-1.5,1.59,4.76,4.76,0,0,0-.56,2.34v11.25Z"/><path class="cls-2" d="M567.51,168a2,2,0,0,1-1.66,2.09,1.71,1.71,0,0,0,.31,3.39,1.63,1.63,0,0,0,.31,0,5.47,5.47,0,0,0,4.45-5.51,1.71,1.71,0,1,0-3.41.06Z"/><path class="cls-2" d="M568.62,125.74c-.9.25-1.43,1.54-1.19,2.89s1.16,2.24,2.06,2,1.44-1.53,1.2-2.88S569.52,125.5,568.62,125.74Z"/><path class="cls-2" d="M580.7,130.63c.9-.24,1.43-1.53,1.19-2.88s-1.16-2.25-2.07-2-1.43,1.54-1.19,2.89S579.8,130.87,580.7,130.63Z"/><path class="cls-2" d="M570.94,138.21a1.71,1.71,0,0,0,1.7,1.54h.17l5.69-.56-2-8.8a1.71,1.71,0,1,0-3.33.74l1.12,5-1.86.18A1.71,1.71,0,0,0,570.94,138.21Z"/><path class="cls-2" d="M569.8,143.71a1.72,1.72,0,0,0,.61,2.34A9,9,0,0,0,575,147.3a8.86,8.86,0,0,0,2.28-.29,9,9,0,0,0,5.53-4.17,1.71,1.71,0,1,0-2.94-1.74,5.58,5.58,0,0,1-3.44,2.61,5.67,5.67,0,0,1-4.28-.6A1.71,1.71,0,0,0,569.8,143.71Z"/><path class="cls-2" d="M610.75,176.68c-1.58-2.75-5.79-2.89-7.87.91a10.63,10.63,0,0,1-3.39,4l-1.84-3.09,3.54-2L589.5,148.23a16.61,16.61,0,0,0,1.74-1.62c2.79-3.05,5.8-8.53,4.33-17.42-.51-2.69-.82-5.09.49-7.19,2.37-3.79,1.22-6.64-.49-7.92-3.11-2.35-6.66-.54-8.65,1.5L586.1,104a8,8,0,0,0-2.41-5.54,5.28,5.28,0,0,0-6.14-.48l0-.46A8.14,8.14,0,0,0,575,91.92a5,5,0,0,0-3.72-1.18c-2.84.26-4.73,2.94-5.17,5.78a5,5,0,0,0-2.58-.42c-3.77.35-5.49,4.08-5.24,7.57l.38,5.5a4.07,4.07,0,0,0-1.81-.21c-3.12.35-5,3.24-4.66,7.38l1.23,17.36h0l0,.35a.36.36,0,0,0,0,.1c.69,8.29,4.14,13.09,7.32,15.78.2,2.56.2,12.46-11,17.07l-1.42.53-10.12,3.11,3.07,10.25,3-.36a12.23,12.23,0,0,0-.49,9c1,3.55,4.12,4,5.86,3.1,2.31-1.13,3.54-3.54,1.39-6.88-2.51-3.89-1.47-5.4-.77-5.92l.21,0,.89,2.81,1.17.07c.81,0,1.59.08,2.34.08,15.9,0,20-10.41,20.17-10.88a1.7,1.7,0,1,0-3.19-1.19c0,.09-3.55,9-18,8.64l-2.88-9.12h0c10.74-4.41,12.83-13.15,13.12-18a11.7,11.7,0,0,0,2.32.94,1.55,1.55,0,0,0,.37,0,1.7,1.7,0,0,0,.36-3.37c-.09,0-9.42-2.68-10.39-16.35l-1.22-17.36c0-.37-.2-3.55,1.63-3.75a.77.77,0,0,1,.63.21,5.16,5.16,0,0,1,1.28,3.29l0,.62.7,9.88a1.7,1.7,0,0,0,3.4-.24l-.61-8.68h0l-.09-1.2,0-.62h0l-.86-12.18c-.1-1.49.38-3.77,2.16-3.94a1.58,1.58,0,0,1,1.21.37,4.83,4.83,0,0,1,1.3,3.24v0l1.16,16.44a1.7,1.7,0,0,0,1.7,1.58h.12a1.7,1.7,0,0,0,1.58-1.82l-1.5-21.24c-.13-1.84,1-3.83,2.16-3.94a1.54,1.54,0,0,1,1.2.38,4.9,4.9,0,0,1,1.32,3.23l1.5,21.24a1.7,1.7,0,0,0,3.4-.24l-1-14.14s0,0,0,0c-.1-1.46.39-3.81,2.13-3.94a1.7,1.7,0,0,1,1.31.41,4.86,4.86,0,0,1,1.24,3.2l1.8,25.5a1.13,1.13,0,0,0,0,.18s0,.09,0,.13a1.46,1.46,0,0,0,.07.19.56.56,0,0,0,0,.12,1.4,1.4,0,0,0,.1.16,1.79,1.79,0,0,0,.48.51l0,0,.19.1.1,0,.18.05.13,0h.17l.14,0h.12l.15,0,.17,0,.16-.06.15-.06.15-.09.13-.08.13-.12.11-.1.1-.14a.6.6,0,0,0,.09-.13l.08-.15a.84.84,0,0,0,.06-.14,1.21,1.21,0,0,0,.05-.18s0-.1,0-.15a1.09,1.09,0,0,1,0-.18.66.66,0,0,0,0-.14c0-.7-.14-2.24-.23-3.37l-.07-1c-.21-3,.25-5.29,1.34-6.72.52-.68,2.82-3,4.58-1.65.75.57.62,1.84-.35,3.39-2.13,3.4-1.42,7.15-1,9.6,1.24,7.49-1.21,12-3.49,14.52a13.94,13.94,0,0,1-2.1,1.86,1.21,1.21,0,0,0-.35.24,11.29,11.29,0,0,1-6.69,2.07,1.7,1.7,0,1,0-.26,3.4c.26,0,.53,0,.79,0a14.21,14.21,0,0,0,6.5-1.75l7.55,18.27c-.31.65-1.29,2.09-4.06,2.65a1.71,1.71,0,0,0,.34,3.38l.34,0a9.77,9.77,0,0,0,4.87-2.39l1.23,3-1,.55h0l-7.34,4.1-16.4-21.91a1.71,1.71,0,0,0-2.74,2l18.19,24.3h0l6.66,8.9,9-5-1.23-2.08a15.53,15.53,0,0,0,6.05-2.36C611.56,181.16,611.6,178.15,610.75,176.68Z"/><path class="cls-2" d="M587.66,259.66l-2.9.69-.2,11.79a1.28,1.28,0,0,0,1.26,1.3h0a1.28,1.28,0,0,0,1.28-1.26l0-1,3.32-.8.47.88a1.28,1.28,0,0,0,2.26-1.2Zm-.48,8.89.07-4.2,2,3.71Z"/><path class="cls-2" d="M602.51,252.69,600.3,254l1.28,7.31-5.71-4.74-2.21,1.28L599.54,268a1.29,1.29,0,0,0,1.11.64,1.25,1.25,0,0,0,.64-.17,1.28,1.28,0,0,0,.46-1.75L599.59,263l3,2.5,2.09-1.21-.67-3.86,2.16,3.73a1.28,1.28,0,0,0,2.22-1.28Z"/><path class="cls-2" d="M577.13,271.47h-3.84V261.23h-2.56V274h6.4a1.28,1.28,0,0,0,0-2.56Z"/><path class="cls-2" d="M554.2,268.46a1.28,1.28,0,0,0,2.16,1.38l.53-.83,3.25,1.07-.06,1a1.28,1.28,0,0,0,1.19,1.36h.09a1.27,1.27,0,0,0,1.27-1.19l.77-11.77-2.83-.93Zm6.12-1-2-.66,2.27-3.52Z"/><path class="cls-2" d="M551,253.35a3.61,3.61,0,0,0-5,.92l-.36.53a3.63,3.63,0,0,0,.92,5,1.08,1.08,0,0,1,.28,1.49l-.37.52a1.06,1.06,0,1,1-1.75-1.21,1.28,1.28,0,0,0-2.11-1.45,3.62,3.62,0,0,0,.93,5,3.52,3.52,0,0,0,2,.64,3.64,3.64,0,0,0,3-1.56l.36-.53a3.64,3.64,0,0,0-.92-5,1,1,0,0,1-.45-.68,1.08,1.08,0,0,1,.17-.8l.37-.53a1.05,1.05,0,0,1,.68-.44,1.06,1.06,0,0,1,1.24.86,1,1,0,0,1-.17.8,1.28,1.28,0,0,0,2.11,1.45,3.59,3.59,0,0,0,.58-2.72A3.54,3.54,0,0,0,551,253.35Z"/><circle class="cls-2" cx="621.93" cy="249.29" r="3.41"/><path class="cls-2" d="M624.49,220.28v11.09a2.56,2.56,0,0,1-5.12,0V206.63h-8.53v24.74a11.1,11.1,0,0,0,22.19,0V220.28Z"/><path class="cls-2" d="M596.33,242.46a11.1,11.1,0,0,0,11.09-11.09V220.28h-8.53v11.09a2.56,2.56,0,1,1-5.12,0V220.28h-8.53v11.09a2.56,2.56,0,0,1-5.12,0V220.28h-8.53v4.88a13,13,0,0,0-1.47-2.84h0l-5.27-7.53,4-5.78-7-4.9-2.27,3.24-3.94-5.62-7,4.89,5.72,8.17-5.27,7.53h0a12.85,12.85,0,0,0-2,4.66,11.94,11.94,0,1,0-22.3,8.42,12,12,0,0,0-6.17,10.45v3.44h8.53v-3.44a3.41,3.41,0,0,1,3.41-3.41h4.63l.49,0a12,12,0,0,0,11.62-9.2,12.79,12.79,0,0,0,24.44.34,11.12,11.12,0,0,0,10.87,8.86,11,11,0,0,0,6.82-2.37A11,11,0,0,0,596.33,242.46Zm-60.58-8.53v0h-.25a3.17,3.17,0,1,1,.25,0Zm23.89,0a4.32,4.32,0,0,1-4.26-4.27,4.18,4.18,0,0,1,.77-2.44h0l3.49-5,3.5,5h0a4.26,4.26,0,0,1,.77,2.44A4.33,4.33,0,0,1,559.64,233.93Z"/></g></svg>