<svg xmlns="http://www.w3.org/2000/svg" viewBox="0 0 648 648"><defs><style>.cls-1{fill:#cccbca;}.cls-2{fill:#222221;}.cls-3{fill:#fff;}</style></defs><g id="Graphic"><rect class="cls-1" x="154.34" y="90.72" width="339.32" height="466.56"/><path class="cls-2" d="M272.83,373.14a2,2,0,0,1,.06.51v1.56a1.85,1.85,0,0,1-.06.5c0,.15-.08.22-.12.22H272a1.9,1.9,0,0,1,0,.3,3.58,3.58,0,0,1-.89,2.47,5.31,5.31,0,0,1-2.37,1.48,10.31,10.31,0,0,1-3.28.49,5.5,5.5,0,0,1-3.61-.95,3.59,3.59,0,0,1-1.09-2.86,24.36,24.36,0,0,1,.41-3.07l.45-2.85,1.83.39a48.05,48.05,0,0,0-.7,5.08,1,1,0,0,0,.82,1,5.7,5.7,0,0,0,1.89.28,15.41,15.41,0,0,0,2.8-.22,4.37,4.37,0,0,0,1.8-.75.56.56,0,0,0-.42-.63,6,6,0,0,0-1.54-.14h-.92l.51-3h5S272.8,373,272.83,373.14Z"/><path class="cls-2" d="M278.71,369.61a7.84,7.84,0,0,1,.8,3.41,2.16,2.16,0,0,1-.73,1.73,4.46,4.46,0,0,1-2.2.91,22.26,22.26,0,0,1-3.87.27s-.09-.07-.12-.21a2.44,2.44,0,0,1,0-.51v-1.56a2.59,2.59,0,0,1,0-.51q0-.21.12-.21a26.42,26.42,0,0,0,4.74-.32,5.94,5.94,0,0,0-1.36-2.88,11.64,11.64,0,0,0-3.11-2.67l.09-2.41c1.05-.49,2.1-.93,3.16-1.31s2.22-.75,3.46-1.11l.32,2.46a34,34,0,0,0-4.25,1.36c.26.21.42.33.47.36A10,10,0,0,1,278.71,369.61Zm-1.93-7.47c-1.52.55-2.76,1-3.71,1.47l.09-1.78c.87-.42,2-.91,3.46-1.47Z"/><path class="cls-2" d="M289.05,369.61A7.2,7.2,0,0,1,290,373a2.43,2.43,0,0,1-1.35,2.33,7.59,7.59,0,0,1-3.52.71,6.6,6.6,0,0,1-2.05-.26,2,2,0,0,1-1.13-.88,3.41,3.41,0,0,1-.36-1.7c0-.23,0-.75.08-1.56l1.83.14v.47a.94.94,0,0,0,.12.54.68.68,0,0,0,.46.2,9.29,9.29,0,0,0,1.12,0c.37,0,.84,0,1.38-.08a8.79,8.79,0,0,0,1.37-.23c-.19-1.26-1.24-2.82-3.14-4.65l1.49-2A13.81,13.81,0,0,1,289.05,369.61Z"/><path class="cls-2" d="M291.68,362.62l2.37-.39,0,13.7-2,.25Z"/><path class="cls-2" d="M304.06,373.15a2.57,2.57,0,0,1,.05.5v1.56a2.41,2.41,0,0,1-.05.5c0,.15-.08.22-.11.22h-1.49a7.44,7.44,0,0,1-1.77,3.22,10.09,10.09,0,0,1-3.67,2.4l-1.56-2.28a11.31,11.31,0,0,0,2.91-1.52,7.94,7.94,0,0,0,1.93-1.91,11.44,11.44,0,0,1-1.43.09,7.09,7.09,0,0,1-1.19-.07,1.49,1.49,0,0,1-.66-.25,2.57,2.57,0,0,1-.58-.6,3.17,3.17,0,0,1-.4-.7,2.07,2.07,0,0,1-.1-.73,7.66,7.66,0,0,1,.38-2.44,4,4,0,0,1,1.15-1.8,2.75,2.75,0,0,1,1.92-.68,2.6,2.6,0,0,1,2.22,1.19,6.13,6.13,0,0,1,1.05,3.08H304S304,373,304.06,373.15Zm-4.74.32a7.51,7.51,0,0,0,1.41-.11,2.82,2.82,0,0,0-.41-1.68,1.27,1.27,0,0,0-1.09-.56,1.13,1.13,0,0,0-1,.58,3,3,0,0,0-.38,1.64A9.33,9.33,0,0,0,299.32,373.47Z"/><path class="cls-2" d="M309.08,372.79a3.09,3.09,0,0,1-.27,1.28,2.45,2.45,0,0,1-.84,1,7.37,7.37,0,0,1-4,.86q-.07,0-.12-.21a2.51,2.51,0,0,1,0-.51v-1.56a2.64,2.64,0,0,1,0-.51q0-.21.12-.21a15.22,15.22,0,0,0,1.81-.09,4.2,4.2,0,0,0,1.28-.34l-.43-3.84,2.29-.4Q309.08,371,309.08,372.79Zm-1.85-9.68,2,1.61-1.55,1.87-2-1.62Z"/><path class="cls-2" d="M316,373.14a2.64,2.64,0,0,1,0,.51v1.56a2.51,2.51,0,0,1,0,.51q0,.21-.12.21h-.55a4.74,4.74,0,0,1-2.12-.4,2.51,2.51,0,0,1-1.22-1.35,7.81,7.81,0,0,1-.49-2.71l-.34-8.85,2.37-.39,0,9.21a1.65,1.65,0,0,0,.38,1.09,1.44,1.44,0,0,0,1.09.4h.86S315.94,373,316,373.14Z"/><path class="cls-2" d="M321.14,367.41c.51.16,1.18.41,2,.74a28,28,0,0,0,2.69,1,8.15,8.15,0,0,0,2.38.34l-.54,2.84a7.58,7.58,0,0,0-2.27.58,22.47,22.47,0,0,0-2.36,1.18c-.44.24-.75.41-.94.5a12,12,0,0,1-5.71,1.37h-.54c-.05,0-.08-.07-.11-.21a2.44,2.44,0,0,1-.05-.51v-1.56a2.59,2.59,0,0,1,.05-.51c0-.14.06-.21.11-.21h.58a16.12,16.12,0,0,0,4.54-.72,15.64,15.64,0,0,0,1.6-.59,7.52,7.52,0,0,1,1.63-.59,11.56,11.56,0,0,1-2.19-.69c-.54-.19-1-.33-1.3-.43a3.47,3.47,0,0,0-.89-.14.83.83,0,0,0-.71.28,1.91,1.91,0,0,0-.29.85l-1.76-.31c.34-2.28,1.22-3.42,2.62-3.42A4.89,4.89,0,0,1,321.14,367.41Zm0-5.77,2,1.61-1.54,1.87-2-1.62Z"/><path class="cls-2" d="M332.47,375.86a8.35,8.35,0,0,1,.45-3.16,10.62,10.62,0,0,1,2.06-3.38,3.31,3.31,0,0,1,2.35-1,2.27,2.27,0,0,1,1.56.58,3.74,3.74,0,0,1,1,1.59,6.9,6.9,0,0,1,.35,2.25,7.74,7.74,0,0,1-.27,2,1.37,1.37,0,0,1-.26.51,4,4,0,0,1-.64.57,1.89,1.89,0,0,1-1,.47,1,1,0,0,1-.38-.09l-3.12-1.49a14.89,14.89,0,0,0,.25,1.95c.13.7.33,1.66.61,2.88.07.26.17.67.29,1.22l-2.68.95A36,36,0,0,1,332.47,375.86Zm5.71-3.38a2.5,2.5,0,0,0-.29-1.26.94.94,0,0,0-.86-.48,1.13,1.13,0,0,0-.8.32,6.59,6.59,0,0,0-.85,1.17l2.65,1.22A2.56,2.56,0,0,0,338.18,372.48Z"/><path class="cls-2" d="M347,373.14a2.64,2.64,0,0,1,0,.51v1.56a2.51,2.51,0,0,1,0,.51q0,.21-.12.21h-.56a4.7,4.7,0,0,1-2.11-.4,2.56,2.56,0,0,1-1.23-1.35,8.09,8.09,0,0,1-.48-2.71l-.34-8.85,2.37-.39,0,9.21a1.65,1.65,0,0,0,.38,1.09,1.44,1.44,0,0,0,1.09.4h.86Q346.91,372.93,347,373.14Z"/><path class="cls-2" d="M352,372.79a3.09,3.09,0,0,1-.27,1.28,2.4,2.4,0,0,1-.85,1,7.37,7.37,0,0,1-4,.86q-.07,0-.12-.21a2.51,2.51,0,0,1,0-.51v-1.56a2.64,2.64,0,0,1,0-.51q0-.21.12-.21a15.22,15.22,0,0,0,1.81-.09,4.2,4.2,0,0,0,1.28-.34l-.43-3.84,2.3-.4Q352,371,352,372.79Zm-1.85-9.68,2,1.61-1.55,1.87-2-1.62Z"/><path class="cls-2" d="M361.53,369.36a4.32,4.32,0,0,1,1.14,1.89,8.15,8.15,0,0,1,.4,2.63,7.8,7.8,0,0,1-1.33,4.44,9.15,9.15,0,0,1-4.36,3.23l-1.57-2.28a11.21,11.21,0,0,0,2.92-1.52,7.94,7.94,0,0,0,1.93-1.91,11.44,11.44,0,0,1-1.43.09,7,7,0,0,1-1.19-.07,1.49,1.49,0,0,1-.66-.25,2.57,2.57,0,0,1-.58-.6,3.17,3.17,0,0,1-.4-.7,2.07,2.07,0,0,1-.1-.73,7.39,7.39,0,0,1,.38-2.44,4,4,0,0,1,1.15-1.8,2.75,2.75,0,0,1,1.92-.68A2.48,2.48,0,0,1,361.53,369.36Zm-1.86,4.11a7.63,7.63,0,0,0,1.42-.11,2.82,2.82,0,0,0-.41-1.68,1.28,1.28,0,0,0-1.1-.56,1.12,1.12,0,0,0-1,.58,3,3,0,0,0-.38,1.64A9.32,9.32,0,0,0,359.67,373.47Z"/><path class="cls-2" d="M367.62,375.86a8.35,8.35,0,0,1,.45-3.16,10.62,10.62,0,0,1,2.06-3.38,3.31,3.31,0,0,1,2.35-1,2.27,2.27,0,0,1,1.56.58,3.74,3.74,0,0,1,1,1.59,6.64,6.64,0,0,1,.35,2.25,7.74,7.74,0,0,1-.27,2,1.37,1.37,0,0,1-.26.51,4,4,0,0,1-.64.57,1.89,1.89,0,0,1-1,.47,1,1,0,0,1-.38-.09l-3.12-1.49a14.89,14.89,0,0,0,.25,1.95c.13.7.33,1.66.61,2.88.07.26.17.67.29,1.22l-2.68.95A36,36,0,0,1,367.62,375.86Zm5.71-3.38a2.5,2.5,0,0,0-.29-1.26.94.94,0,0,0-.86-.48,1.13,1.13,0,0,0-.8.32,6.59,6.59,0,0,0-.85,1.17l2.65,1.22A2.56,2.56,0,0,0,373.33,372.48Z"/><path class="cls-2" d="M382.1,373.14a2.64,2.64,0,0,1,0,.51v1.56a2.51,2.51,0,0,1,0,.51q0,.21-.12.21h-.56a4.7,4.7,0,0,1-2.11-.4,2.56,2.56,0,0,1-1.23-1.35,8.09,8.09,0,0,1-.48-2.71l-.34-8.85,2.37-.39,0,9.21a1.65,1.65,0,0,0,.38,1.09,1.44,1.44,0,0,0,1.09.4H382S382.07,373,382.1,373.14Z"/><path class="cls-2" d="M387.12,372.79a3.09,3.09,0,0,1-.27,1.28,2.4,2.4,0,0,1-.85,1,7.37,7.37,0,0,1-4,.86q-.08,0-.12-.21a2.51,2.51,0,0,1,0-.51v-1.56a2.64,2.64,0,0,1,0-.51q0-.21.12-.21a15.22,15.22,0,0,0,1.81-.09,4.12,4.12,0,0,0,1.28-.34l-.43-3.84,2.3-.4Q387.12,371,387.12,372.79Zm-1.85-9.68,2,1.61-1.55,1.87-2-1.62Z"/><path class="cls-2" d="M294.11,400.94a2.79,2.79,0,0,1-.77-1.91,13.23,13.23,0,0,1,.2-1.69c.13-.82.3-1.85.52-3.08l1.05.22c-.31,1.74-.5,3.11-.58,4.12a1,1,0,0,0,.76,1.19,5.61,5.61,0,0,0,1.9.3,10.23,10.23,0,0,0,2.12-.19,3.72,3.72,0,0,0,1.53-.7,6.21,6.21,0,0,0,0-.68.91.91,0,0,0-.12-.55.83.83,0,0,0-.44-.23l-.86-.12a10.13,10.13,0,0,1-1.1-.19,1,1,0,0,1-.53-.3,1,1,0,0,1-.18-.63,6.52,6.52,0,0,1,.43-2.32,5.42,5.42,0,0,1,1.14-1.91,2.14,2.14,0,0,1,1.53-.74,1.63,1.63,0,0,1,1,.37,4.6,4.6,0,0,1,.91,1.07l-.74.73a1.72,1.72,0,0,0-1.18-.61,1.52,1.52,0,0,0-1.26.84,4.69,4.69,0,0,0-.67,2l.49.08a11.42,11.42,0,0,1,1.62.31,1.57,1.57,0,0,1,.85.62,2.3,2.3,0,0,1,.32,1.34,2.94,2.94,0,0,1-.57,1.93,3.56,3.56,0,0,1-1.77,1.15,8.88,8.88,0,0,1-2.78.39A3.89,3.89,0,0,1,294.11,400.94Z"/><path class="cls-2" d="M302.5,401.2a7,7,0,0,0,3.28-3l-.53-4.38,1.35-.33a3.1,3.1,0,0,1,0,.34q.19,1.69.27,2.52c.05.56.07,1,.07,1.39a4.09,4.09,0,0,1-.92,2.6,8.82,8.82,0,0,1-2.74,2.2Z"/><path class="cls-2" d="M312.47,396.86a2,2,0,0,1,0,.46v.41a2.07,2.07,0,0,1,0,.46c0,.12-.07.18-.11.18H312a3,3,0,0,1-2.15-.67,3.35,3.35,0,0,1-.72-2.32l-.22-7.56,1.36-.33.12,7.9a1.34,1.34,0,0,0,.36.95,1.27,1.27,0,0,0,.95.34h.66S312.44,396.74,312.47,396.86Z"/><path class="cls-2" d="M316.91,393.46a6.63,6.63,0,0,1,.69,3c0,.69-.43,1.18-1.28,1.47a13.25,13.25,0,0,1-4,.43s-.08-.06-.11-.18a1.58,1.58,0,0,1-.05-.46v-.41a2,2,0,0,1,0-.45c0-.13.07-.19.12-.19.84,0,1.64,0,2.4-.11a7,7,0,0,0,1.72-.34,4.92,4.92,0,0,0-1.06-2.76,12.14,12.14,0,0,0-2.8-2.5l.06-1.41a32.31,32.31,0,0,1,5-2.25l.18,1.43a39.05,39.05,0,0,0-3.78,1.61l.4.3A9,9,0,0,1,316.91,393.46Z"/><path class="cls-2" d="M322.16,397.28c.13-.82.31-1.85.53-3.08l1,.24c-.31,1.7-.5,3.07-.58,4.1a1.06,1.06,0,0,0,.76,1.19,5.34,5.34,0,0,0,1.84.3,10.48,10.48,0,0,0,1.89-.16,4.14,4.14,0,0,0,1.49-.54l-.56-5.72,1.34-.3q.29,3.35.39,5.8a2,2,0,0,1-1.29,2,7.8,7.8,0,0,1-3.38.65,3.81,3.81,0,0,1-2.88-.85A2.75,2.75,0,0,1,322,399,12.66,12.66,0,0,1,322.16,397.28Zm5.07-5.9-1.07,1.29-1.28-1.08,1.07-1.27Z"/><path class="cls-2" d="M333.58,387.49l.12,10.88-1.17.17-.3-10.72Z"/><path class="cls-2" d="M342,396.86a2,2,0,0,1,0,.46v.41a2.07,2.07,0,0,1,0,.46c0,.12-.07.18-.11.18h-1.24a5.32,5.32,0,0,1-1.51,2.41,9.1,9.1,0,0,1-2.78,1.75l-.83-1.34a10.16,10.16,0,0,0,2.48-1.31,5.4,5.4,0,0,0,1.53-1.63,8.07,8.07,0,0,1-2.61.08.9.9,0,0,1-.41-.18,2,2,0,0,1-.36-.42,1.93,1.93,0,0,1-.26-.48,1.24,1.24,0,0,1-.05-.43,7.06,7.06,0,0,1,.66-2.7,1.9,1.9,0,0,1,1.82-1.16,1.94,1.94,0,0,1,1.9,1.12,6.54,6.54,0,0,1,.6,2.6h1.06S341.93,396.74,342,396.86Zm-3.85,0a7.58,7.58,0,0,0,1.54-.12,3.36,3.36,0,0,0-.36-1.78,1.16,1.16,0,0,0-1-.54,1.08,1.08,0,0,0-1,.6,3.58,3.58,0,0,0-.35,1.73A4.64,4.64,0,0,0,338.11,396.88Z"/><path class="cls-2" d="M347.48,396.86a2,2,0,0,1,0,.46v.41a2.07,2.07,0,0,1,0,.46c0,.12-.07.18-.11.18a5.5,5.5,0,0,1-1.89-.24,1.21,1.21,0,0,1-.77-.79,1.69,1.69,0,0,1-1,.79,5.91,5.91,0,0,1-1.86.24s-.07-.06-.11-.18a2,2,0,0,1-.05-.46v-.41a2,2,0,0,1,0-.45c0-.13.07-.19.12-.19a4.92,4.92,0,0,0,2.23-.39l-.28-3,1.34-.12.18,3.19a1.85,1.85,0,0,0,.72.23,8.94,8.94,0,0,0,1.33.07S347.45,396.74,347.48,396.86Zm-3.11-5.27-1.28-1.07,1.07-1.28,1.28,1.08Z"/><path class="cls-2" d="M354.51,397.46c-1.22.3-2.11.51-2.69.62a13.12,13.12,0,0,1-1.62.23c-.5,0-1.16.06-2,.06h-.84s-.07-.06-.11-.18a2,2,0,0,1-.05-.46v-.41a2,2,0,0,1,0-.45c0-.13.07-.19.12-.19h2a4.51,4.51,0,0,1-.39-1.87,2.12,2.12,0,0,1,.76-1.8,3.12,3.12,0,0,1,2-.59,6.06,6.06,0,0,1,1.54.21l-.34,1.45a4.23,4.23,0,0,0-1.33-.18,4,4,0,0,0-1.41.21,6.25,6.25,0,0,0,.15,1.37,4.23,4.23,0,0,0,.42,1.14,28,28,0,0,0,3.65-.75Z"/><path class="cls-2" d="M335,501.54l-2.69.64-.19,10.93a1.19,1.19,0,0,0,1.17,1.21h0a1.19,1.19,0,0,0,1.19-1.17v-.92l3.09-.74.43.81a1.19,1.19,0,0,0,1.61.49,1.18,1.18,0,0,0,.49-1.6Zm-.44,8.24.06-3.89,1.83,3.43Z"/><path class="cls-2" d="M348.73,495.07l-2.06,1.19,1.19,6.78-5.3-4.4-2.05,1.19,5.46,9.42a1.19,1.19,0,0,0,2-1.19l-2-3.46,2.79,2.32,1.94-1.13-.63-3.57,2,3.46a1.19,1.19,0,0,0,2.05-1.19Z"/><path class="cls-2" d="M325.19,512.49h-3.56V503h-2.38v11.87h5.94a1.19,1.19,0,0,0,0-2.38Z"/><path class="cls-2" d="M303.92,509.7a1.18,1.18,0,0,0,.36,1.64,1.19,1.19,0,0,0,1.64-.36l.49-.77,3,1-.06.92a1.19,1.19,0,0,0,1.11,1.26h.08a1.18,1.18,0,0,0,1.18-1.11l.71-10.91-2.62-.86Zm5.67-.95-1.85-.61,2.1-3.27Z"/><path class="cls-2" d="M300.93,495.68a3.35,3.35,0,0,0-4.67.86l-.34.49a3.36,3.36,0,0,0,.86,4.68,1,1,0,0,1,.25,1.37l-.33.49a1,1,0,0,1-1.38.25,1,1,0,0,1-.25-1.37,1.19,1.19,0,0,0-2-1.35,3.36,3.36,0,0,0,5.54,3.82l.34-.49a3.38,3.38,0,0,0-.86-4.68.93.93,0,0,1-.41-.63,1,1,0,0,1,.15-.74l.34-.49a1,1,0,0,1,.64-.41,1,1,0,0,1,1,1.53,1.19,1.19,0,1,0,2,1.35,3.36,3.36,0,0,0-.86-4.68Z"/><circle class="cls-2" cx="366.73" cy="491.92" r="3.17"/><path class="cls-2" d="M369.1,465V475.3a2.37,2.37,0,0,1-4.74,0V452.35h-7.91V475.3a10.29,10.29,0,1,0,20.58,0V465Z"/><path class="cls-2" d="M343,485.59a10.31,10.31,0,0,0,10.29-10.29V465h-7.92V475.3a2.37,2.37,0,0,1-4.74,0V465H332.7V475.3a2.37,2.37,0,0,1-4.74,0V465H320v4.53a11.69,11.69,0,0,0-1.35-2.63h0l-4.9-7,3.76-5.36L311.07,450,309,453l-3.65-5.21-6.48,4.53,5.3,7.58-4.89,7h0a11.75,11.75,0,0,0-1.85,4.32,11.08,11.08,0,0,0-21.66,3.28,10.93,10.93,0,0,0,1,4.53,11.08,11.08,0,0,0-5.73,9.69v3.19h7.91v-3.19a3.17,3.17,0,0,1,3.17-3.17h4.29c.15,0,.3,0,.46,0a11.08,11.08,0,0,0,10.77-8.54,11.86,11.86,0,0,0,22.67.32,10.27,10.27,0,0,0,16.41,6A10.23,10.23,0,0,0,343,485.59Zm-56.18-7.92v0h-.23a3,3,0,1,1,.23,0Zm22.15,0a4,4,0,0,1-3.95-3.95,3.91,3.91,0,0,1,.71-2.27h0l3.24-4.63,3.25,4.63h0a4,4,0,0,1-3.25,6.22Z"/><rect class="cls-3" x="260.38" y="133.13" width="127.24" height="169.66"/><rect class="cls-3" x="284.36" y="108.48" width="79.29" height="6.39" rx="3.19"/><path class="cls-2" d="M295.51,0h57.25a0,0,0,0,1,0,0V108.57a1.56,1.56,0,0,1-1.56,1.56H297.07a1.56,1.56,0,0,1-1.56-1.56V0A0,0,0,0,1,295.51,0Z"/></g></svg>