<svg xmlns="http://www.w3.org/2000/svg" viewBox="0 0 1152 648"><defs><style>.cls-1{fill:#e5e5e5;}.cls-2{fill:#fde9e1;}.cls-3{fill:#ff5c35;}</style></defs><g id="Background"><rect class="cls-1" x="242.68" y="100.72" width="686.64" height="466.56"/></g><g id="Graphic"><rect class="cls-2" x="232.68" y="90.72" width="686.64" height="466.56"/><rect class="cls-3" x="232.68" y="279.86" width="686.64" height="0.25"/><rect class="cls-3" x="232.68" y="323.87" width="686.64" height="0.25"/><rect class="cls-3" x="232.68" y="411.91" width="686.64" height="0.25"/><rect class="cls-3" x="232.68" y="499.94" width="686.64" height="0.25"/><rect class="cls-3" x="232.68" y="367.89" width="686.64" height="0.25"/><rect class="cls-3" x="232.68" y="455.92" width="686.64" height="0.25"/><path class="cls-3" d="M315.07,258.51a1.77,1.77,0,0,1-1.43,1.81,1.47,1.47,0,0,0,.26,2.91,1.23,1.23,0,0,0,.27,0,4.7,4.7,0,0,0,3.83-4.74,1.47,1.47,0,1,0-2.93,0Z"/><path class="cls-3" d="M316,222.11c-.77.2-1.23,1.32-1,2.48s1,1.93,1.77,1.72,1.24-1.32,1-2.48S316.8,221.9,316,222.11Z"/><path class="cls-3" d="M326.42,226.31c.77-.21,1.23-1.32,1-2.48s-1-1.93-1.78-1.72-1.24,1.32-1,2.48S325.64,226.52,326.42,226.31Z"/><path class="cls-3" d="M318,232.84a1.46,1.46,0,0,0,1.46,1.32h.15l4.9-.48-1.69-7.57a1.47,1.47,0,1,0-2.87.63l1,4.34-1.6.16A1.47,1.47,0,0,0,318,232.84Z"/><path class="cls-3" d="M317,237.57a1.47,1.47,0,0,0,.52,2,7.79,7.79,0,0,0,10.67-2.76,1.47,1.47,0,1,0-2.53-1.49,4.85,4.85,0,0,1-6.65,1.72A1.47,1.47,0,0,0,317,237.57Z"/><path class="cls-3" d="M352.29,266c-1.36-2.36-5-2.49-6.77.79a9.31,9.31,0,0,1-2.92,3.43L341,267.51l3.05-1.71L334,241.47a15.25,15.25,0,0,0,1.5-1.4c2.39-2.62,5-7.35,3.72-15-.44-2.31-.7-4.38.43-6.19,2-3.26,1.05-5.71-.42-6.82-2.68-2-5.74-.46-7.45,1.3l-.71-10a6.88,6.88,0,0,0-2.07-4.76,4.54,4.54,0,0,0-5.29-.41l0-.4a7,7,0,0,0-2.17-4.81,4.23,4.23,0,0,0-3.2-1c-2.45.23-4.07,2.53-4.45,5a4.37,4.37,0,0,0-2.22-.37c-3.24.31-4.73,3.52-4.51,6.52l.33,4.74a3.43,3.43,0,0,0-1.56-.18c-2.69.3-4.26,2.79-4,6.35L303,229h0l0,.29s0,.06,0,.09c.6,7.14,3.56,11.27,6.3,13.59.17,2.2.18,10.72-9.46,14.69l-1.22.46-8.71,2.67,2.64,8.83,2.54-.31a10.57,10.57,0,0,0-.42,7.71c.88,3.06,3.55,3.41,5,2.68,2-1,3.05-3.05,1.19-5.93-2.16-3.35-1.26-4.65-.66-5.1l.18,0,.77,2.43,1,.06c.7,0,1.37.06,2,.06,13.69,0,17.22-9,17.37-9.36a1.47,1.47,0,0,0-2.75-1c0,.08-3.06,7.76-15.45,7.44l-2.48-7.85h0c9.24-3.8,11-11.32,11.29-15.47a9.74,9.74,0,0,0,2,.81,1.17,1.17,0,0,0,.32,0,1.47,1.47,0,0,0,.31-2.91c-.08,0-8.12-2.3-8.95-14.07l-1.05-14.95c0-.31-.17-3.05,1.4-3.22a.63.63,0,0,1,.54.18,4.33,4.33,0,0,1,1.1,2.82l0,.54.6,8.51a1.47,1.47,0,1,0,2.93-.21l-.52-7.47h0l-.08-1,0-.53h0l-.74-10.48c-.09-1.29.33-3.25,1.86-3.39a1.33,1.33,0,0,1,1,.31,4.21,4.21,0,0,1,1.12,2.79v0l1,14.15a1.48,1.48,0,0,0,1.47,1.37h.1a1.46,1.46,0,0,0,1.36-1.57l-1.29-18.28c-.11-1.59.83-3.3,1.86-3.39a1.32,1.32,0,0,1,1,.32,4.23,4.23,0,0,1,1.14,2.78l1.29,18.29a1.47,1.47,0,0,0,1.56,1.36,1.48,1.48,0,0,0,1.37-1.57l-.86-12.17v0c-.09-1.26.33-3.28,1.83-3.39a1.45,1.45,0,0,1,1.12.35,4.09,4.09,0,0,1,1.07,2.75l1.55,22,0,.15a.36.36,0,0,0,0,.11.58.58,0,0,0,.06.17l0,.1.09.14a1.56,1.56,0,0,0,.41.44l0,0,.17.08.08,0,.16,0,.11,0h.37l.13,0,.14,0,.14,0,.13-.05.13-.07.11-.08.11-.09a.94.94,0,0,0,.1-.1l.09-.11.08-.12.06-.13.06-.12a.83.83,0,0,0,0-.15l0-.13a.86.86,0,0,0,0-.16.48.48,0,0,0,0-.12c0-.6-.12-1.93-.2-2.9l-.06-.86c-.18-2.55.22-4.55,1.16-5.78.44-.59,2.42-2.56,3.94-1.42.65.49.53,1.58-.3,2.92-1.84,2.93-1.23,6.15-.83,8.26,1.07,6.45-1,10.35-3,12.5a12.21,12.21,0,0,1-1.81,1.6,1.25,1.25,0,0,0-.3.21,9.73,9.73,0,0,1-5.76,1.78,1.46,1.46,0,0,0-1.58,1.35,1.48,1.48,0,0,0,1.36,1.58l.68,0a12.3,12.3,0,0,0,5.59-1.5l6.5,15.73c-.26.55-1.11,1.79-3.49,2.27a1.47,1.47,0,0,0,.29,2.91l.29,0a8.29,8.29,0,0,0,4.19-2.05l1.06,2.55-.85.47h0l-6.32,3.53-14.11-18.86a1.47,1.47,0,0,0-2.36,1.76l15.66,20.92h0l5.74,7.65,7.76-4.33-1.06-1.78a13.69,13.69,0,0,0,5.21-2C353,269.81,353,267.22,352.29,266Z"/><path class="cls-3" d="M545.83,481.69l-.18.7a.43.43,0,0,1-.45.34h-.45a.37.37,0,0,1-.41-.41V472.26a.37.37,0,0,1,.41-.41h.77a.37.37,0,0,1,.41.41v3.23a1.62,1.62,0,0,1,1.56-1c1.15,0,1.73.75,1.73,2.24v3.91c0,1.49-.58,2.24-1.73,2.24A1.68,1.68,0,0,1,545.83,481.69Zm1.8-4.83c0-.73-.23-1-.77-1a1,1,0,0,0-.93,1.1v3.48a1,1,0,0,0,.93,1.11c.54,0,.77-.27.77-1Z"/><path class="cls-3" d="M550.09,480.8v-.12a2.24,2.24,0,0,1,.71-1.84,5.09,5.09,0,0,1,1.38-.82c.28-.12.48-.22.62-.29a1,1,0,0,0,.58-.78v-.09c0-.67-.26-1-.81-1s-.82.34-.82,1V477a.37.37,0,0,1-.41.41h-.66a.37.37,0,0,1-.41-.42c0-1.68.79-2.52,2.36-2.52s2.33.85,2.33,2.55v3a15.8,15.8,0,0,0,.1,2.19c0,.3-.07.44-.36.44H554a.4.4,0,0,1-.46-.34,5.48,5.48,0,0,1-.09-.64,1.69,1.69,0,0,1-1.63,1.15C550.66,482.9,550.09,482.2,550.09,480.8Zm3.29-.34v-1.69l-.36.17a3.73,3.73,0,0,0-.93.54,1.23,1.23,0,0,0-.43,1v.11c0,.7.26.93.77.93A1,1,0,0,0,553.38,480.46Z"/><path class="cls-3" d="M555.94,480.46a.36.36,0,0,1,.4-.4H557a.36.36,0,0,1,.4.4v.15c0,.69.28,1,.82,1s.84-.33.84-1v-.14c0-.56-.36-.78-1.18-1.14a4,4,0,0,1-1.29-.77,2.22,2.22,0,0,1-.65-1.79v0a2.35,2.35,0,0,1,4.69.05.36.36,0,0,1-.4.4h-.66a.36.36,0,0,1-.4-.4v-.07c0-.68-.28-1-.82-1s-.84.32-.84,1v.09a.85.85,0,0,0,.36.73,3.78,3.78,0,0,0,.82.44,4,4,0,0,1,1.06.57,2.24,2.24,0,0,1,.88,2v0a2.09,2.09,0,0,1-2.34,2.32C556.72,482.9,555.94,482.09,555.94,480.46Z"/><path class="cls-3" d="M561.42,480.8v-.12a2.25,2.25,0,0,1,.72-1.84,4.81,4.81,0,0,1,1.38-.82c.28-.12.48-.22.62-.29a1,1,0,0,0,.57-.78v-.09c0-.67-.26-1-.8-1s-.83.34-.83,1V477a.36.36,0,0,1-.4.41H562a.37.37,0,0,1-.4-.42c0-1.68.79-2.52,2.36-2.52s2.33.85,2.33,2.55v3a18.16,18.16,0,0,0,.09,2.19c.05.3-.06.44-.36.44h-.71a.4.4,0,0,1-.45-.34,3.09,3.09,0,0,1-.09-.64,1.69,1.69,0,0,1-1.63,1.15C562,482.9,561.42,482.2,561.42,480.8Zm3.29-.34v-1.69l-.35.17a3.81,3.81,0,0,0-.94.54,1.23,1.23,0,0,0-.43,1v.11c0,.7.26.93.78.93A1,1,0,0,0,564.71,480.46Z"/><path class="cls-3" d="M569.08,482.32a.37.37,0,0,1-.41.41h-.77a.37.37,0,0,1-.41-.41V472.26a.37.37,0,0,1,.41-.41h.77a.37.37,0,0,1,.41.41Z"/><path class="cls-3" d="M570.09,480.8v-.12a2.24,2.24,0,0,1,.71-1.84,5.09,5.09,0,0,1,1.38-.82c.28-.12.48-.22.62-.29a1,1,0,0,0,.58-.78v-.09c0-.67-.27-1-.81-1s-.82.34-.82,1V477a.37.37,0,0,1-.41.41h-.66a.37.37,0,0,1-.41-.42c0-1.68.79-2.52,2.36-2.52s2.33.85,2.33,2.55v3a15.8,15.8,0,0,0,.1,2.19c0,.3-.07.44-.36.44H574a.4.4,0,0,1-.45-.34,5.48,5.48,0,0,1-.09-.64,1.69,1.69,0,0,1-1.63,1.15C570.66,482.9,570.09,482.2,570.09,480.8Zm3.29-.34v-1.69l-.36.17a3.73,3.73,0,0,0-.93.54,1.24,1.24,0,0,0-.44,1v.11c0,.7.27.93.78.93A1,1,0,0,0,573.38,480.46Z"/><path class="cls-3" d="M576.56,482.73a.36.36,0,0,1-.4-.41v-7.24a.36.36,0,0,1,.4-.4h.67a.36.36,0,0,1,.4.4v.67a1.64,1.64,0,0,1,1.63-1.24,1.43,1.43,0,0,1,1.54,1.18,1.7,1.7,0,0,1,1.65-1.18c1.12,0,1.67.75,1.67,2.24v5.57a.36.36,0,0,1-.4.41h-.78a.36.36,0,0,1-.4-.41v-5.46c0-.75-.22-1-.73-1s-.88.47-.88,1.1v5.36a.37.37,0,0,1-.41.41h-.76a.36.36,0,0,1-.4-.41v-5.46c0-.75-.22-1-.73-1s-.89.47-.89,1.1v5.36a.36.36,0,0,1-.4.41Z"/><path class="cls-3" d="M585.75,482.73a.36.36,0,0,1-.4-.41v-1.55a.36.36,0,0,1,.4-.4h.78a.36.36,0,0,1,.4.4v1.55a.36.36,0,0,1-.4.41Z"/><path class="cls-3" d="M588.11,477.07c0-1.71.79-2.56,2.38-2.56s2.38.85,2.38,2.56v.33c0,.22-.14.33-.41.33h-.65a.36.36,0,0,1-.4-.41v-.46c0-.67-.28-1-.86-1s-.87.33-.87,1v3.69c0,.67.3,1,.87,1s.86-.33.86-1v-.62a.36.36,0,0,1,.4-.4h.65a.36.36,0,0,1,.41.4v.41c0,1.7-.8,2.56-2.38,2.56s-2.38-.86-2.38-2.56Z"/><path class="cls-3" d="M593.78,480.34v-3.27c0-1.71.81-2.56,2.44-2.56s2.42.85,2.42,2.56v3.27c0,1.7-.81,2.56-2.42,2.56S593.78,482,593.78,480.34Zm3.29.21v-3.69c0-.67-.28-1-.85-1s-.87.33-.87,1v3.69c0,.67.29,1,.87,1S597.07,481.22,597.07,480.55Z"/><path class="cls-3" d="M600.18,482.73a.37.37,0,0,1-.41-.41v-7.24a.36.36,0,0,1,.41-.4h.67a.36.36,0,0,1,.4.4v.67a1.64,1.64,0,0,1,1.63-1.24,1.44,1.44,0,0,1,1.54,1.18,1.7,1.7,0,0,1,1.64-1.18c1.12,0,1.68.75,1.68,2.24v5.57a.36.36,0,0,1-.4.41h-.78a.36.36,0,0,1-.4-.41v-5.46c0-.75-.22-1-.73-1s-.89.47-.89,1.1v5.36a.36.36,0,0,1-.4.41h-.76a.37.37,0,0,1-.41-.41v-5.46c0-.75-.21-1-.73-1s-.88.47-.88,1.1v5.36a.37.37,0,0,1-.41.41Z"/></g></svg>