<svg xmlns="http://www.w3.org/2000/svg" viewBox="0 0 1152 648"><defs><style>.cls-1{fill:#e5e5e5;}.cls-2{fill:#ff5c35;}.cls-3{fill:#fff;}.cls-4{opacity:0.5;}</style></defs><g id="Background"><rect class="cls-1" x="260.08" y="178.1" width="651.85" height="311.81"/></g><g id="Graphic"><rect class="cls-2" x="250.08" y="168.1" width="651.85" height="311.81"/><path class="cls-3" d="M583.35,270.92l-1.79.43-.13,7.29a.79.79,0,0,0,.78.8h0a.78.78,0,0,0,.79-.78v-.61l2.06-.5.29.55a.79.79,0,0,0,1.07.32.78.78,0,0,0,.33-1.07Zm-.3,5.5.05-2.6,1.22,2.29Z"/><path class="cls-3" d="M592.54,266.61l-1.37.79.79,4.52L588.43,269l-1.37.79,3.64,6.28a.78.78,0,0,0,.68.39.82.82,0,0,0,.4-.1.8.8,0,0,0,.29-1.08L590.73,273l1.86,1.54,1.29-.75-.41-2.38,1.34,2.31a.79.79,0,0,0,1.08.29.81.81,0,0,0,.29-1.09Z"/><path class="cls-3" d="M576.84,278.22h-2.38v-6.33h-1.58v7.92h4a.8.8,0,0,0,0-1.59Z"/><path class="cls-3" d="M562.65,276.36a.79.79,0,0,0,.24,1.09.8.8,0,0,0,1.1-.23l.33-.52,2,.66,0,.62a.79.79,0,0,0,.74.84h.05a.8.8,0,0,0,.79-.74l.47-7.28-1.75-.57Zm3.78-.63-1.23-.41,1.4-2.18Z"/><path class="cls-3" d="M560.66,267a2.24,2.24,0,0,0-3.12.57l-.22.33a2.24,2.24,0,0,0,.57,3.12.66.66,0,0,1,.17.92l-.22.32a.66.66,0,0,1-.92.17.65.65,0,0,1-.17-.91.79.79,0,1,0-1.3-.9,2.24,2.24,0,0,0,.57,3.12,2.28,2.28,0,0,0,1.27.39,2.26,2.26,0,0,0,1.85-1l.22-.32a2.24,2.24,0,0,0-.57-3.12.62.62,0,0,1-.27-.43.61.61,0,0,1,.1-.49l.23-.33a.66.66,0,0,1,.42-.27.66.66,0,0,1,.49.11.64.64,0,0,1,.28.42.66.66,0,0,1-.11.49.79.79,0,0,0,1.31.9,2.27,2.27,0,0,0,.36-1.68A2.21,2.21,0,0,0,560.66,267Z"/><circle class="cls-3" cx="604.54" cy="264.5" r="2.11"/><path class="cls-3" d="M606.13,246.56v6.86a1.59,1.59,0,0,1-3.17,0V238.11h-5.28v15.31a6.86,6.86,0,0,0,13.72,0v-6.86Z"/><path class="cls-3" d="M588.71,260.28a6.87,6.87,0,0,0,6.86-6.86v-6.86h-5.28v6.86a1.58,1.58,0,1,1-3.16,0v-6.86h-5.28v6.86a1.59,1.59,0,0,1-3.17,0v-6.86h-5.27v3a7.94,7.94,0,0,0-.91-1.76h0l-3.26-4.66,2.5-3.57-4.32-3-1.4,2-2.44-3.48-4.32,3,3.54,5-3.27,4.66h0a8,8,0,0,0-1.23,2.88,7.39,7.39,0,1,0-13.8,5.21,7.4,7.4,0,0,0-3.81,6.47v2.12H546v-2.12a2.12,2.12,0,0,1,2.11-2.12h2.87l.3,0a7.4,7.4,0,0,0,7.19-5.69,7.91,7.91,0,0,0,15.12.21,6.85,6.85,0,0,0,10.94,4A6.83,6.83,0,0,0,588.71,260.28ZM551.24,255h-.15a2,2,0,1,1,.15,0ZM566,255a2.68,2.68,0,0,1-2.64-2.64,2.58,2.58,0,0,1,.48-1.51h0l2.16-3.09,2.16,3.09h0A2.63,2.63,0,0,1,566,255Z"/><g class="cls-4"><path class="cls-3" d="M873.07,347.29H279.13a28.86,28.86,0,0,1-28.81-28.84h1a27.86,27.86,0,0,0,27.81,27.84H873.07a27.85,27.85,0,0,0,27.81-27.84h1A28.86,28.86,0,0,1,873.07,347.29Z"/></g></g></svg>