<svg xmlns="http://www.w3.org/2000/svg" viewBox="0 0 648 648"><defs><style>.cls-1{fill:#e5e5e5;}.cls-2{fill:#ff5c35;}.cls-3{fill:#fff;}</style></defs><g id="Background"><rect class="cls-1" x="135.37" y="55.36" width="397.27" height="557.28"/></g><g id="Graphic"><rect class="cls-2" x="125.37" y="45.36" width="397.27" height="557.28"/><path class="cls-3" d="M340.74,355.07,335.39,345l-2.79.67-.2,11.38a1.24,1.24,0,0,0,1.22,1.25h0a1.22,1.22,0,0,0,1.23-1.21l0-1,3.21-.77.45.85a1.24,1.24,0,0,0,2.19-1.16Zm-5.81-1.47.08-4.05,1.9,3.58Z"/><path class="cls-3" d="M355.41,348.09l-5.68-9.79-2.13,1.23,1.23,7.06L343.32,342l-2.14,1.24,5.68,9.8a1.24,1.24,0,0,0,2.14-1.24l-2.09-3.6,2.91,2.41,2-1.17-.65-3.72,2.08,3.6a1.24,1.24,0,0,0,2.14-1.24Z"/><path class="cls-3" d="M325.24,356.42h-3.71v-9.88h-2.47v12.35h6.18a1.24,1.24,0,0,0,0-2.47Z"/><path class="cls-3" d="M309.25,344l-6.15,9.57a1.23,1.23,0,0,0,2.08,1.33l.52-.8,3.14,1-.06,1a1.23,1.23,0,0,0,1.15,1.31H310a1.23,1.23,0,0,0,1.23-1.15l.74-11.36Zm-2.17,7.95,2.19-3.4-.27,4Z"/><path class="cls-3" d="M294.73,350.06a3.5,3.5,0,0,1-2.87-5.49,1.23,1.23,0,1,1,2,1.4,1,1,0,0,0,.26,1.43,1,1,0,0,0,1.43-.26l.36-.51a1,1,0,0,0-.27-1.43,3.51,3.51,0,0,1-.89-4.87l.35-.51a3.5,3.5,0,0,1,5.76,4,1.23,1.23,0,0,1-2-1.4,1.07,1.07,0,0,0,.16-.78,1,1,0,0,0-.43-.66,1,1,0,0,0-.77-.16,1,1,0,0,0-.66.43l-.35.5a1.06,1.06,0,0,0,.26,1.44A3.5,3.5,0,0,1,298,348l-.35.51A3.49,3.49,0,0,1,294.73,350.06Z"/><circle class="cls-3" cx="368.47" cy="335.01" r="3.29"/><path class="cls-3" d="M370.94,307v10.71a2.47,2.47,0,1,1-4.94,0V293.84h-8.24v23.88a10.71,10.71,0,0,0,21.42,0V307Z"/><path class="cls-3" d="M346.24,317.72a2.48,2.48,0,0,1-4.95,0V307h-8.23v10.71a2.47,2.47,0,0,1-4.94,0V307h-8.24v4.71a12.26,12.26,0,0,0-1.41-2.74h0l-5.09-7.27,3.91-5.58-6.75-4.72-2.19,3.13-3.8-5.43-6.75,4.72,5.53,7.88L298.24,309h0a12.37,12.37,0,0,0-1.92,4.5,11.53,11.53,0,1,0-21.53,8.13,11.52,11.52,0,0,0-6,10.08V335h8.24v-3.32a3.3,3.3,0,0,1,3.29-3.29h4.47l.47,0a11.54,11.54,0,0,0,11.21-8.88,12.35,12.35,0,0,0,23.6.33,10.7,10.7,0,0,0,17.08,6.27,10.61,10.61,0,0,0,6.58,2.28,10.71,10.71,0,0,0,10.71-10.7V307h-8.23Zm-60.95,2.47v0h-.23a3,3,0,1,1,.23,0Zm23.06,0a4.17,4.17,0,0,1-4.11-4.12,4.05,4.05,0,0,1,.74-2.36h0l3.37-4.82,3.38,4.82h0a4.13,4.13,0,0,1,.74,2.36A4.17,4.17,0,0,1,308.35,320.19Z"/></g></svg>