<svg xmlns="http://www.w3.org/2000/svg" viewBox="0 0 1152 648"><defs><style>.cls-1{fill:#e5e5e5;}.cls-2{fill:#fde9e1;}.cls-3{fill:#222221;}</style></defs><g id="Background"><rect class="cls-1" x="234.17" y="100.72" width="703.66" height="466.56"/></g><g id="Graphic"><rect class="cls-2" x="224.17" y="90.72" width="703.66" height="466.56"/><path class="cls-3" d="M510.42,332.07a2.6,2.6,0,0,1,.07.67v2.07a2.65,2.65,0,0,1-.07.67c0,.18-.09.28-.15.28h-.84a2.44,2.44,0,0,1,0,.34,4.63,4.63,0,0,1-1,2.92,6.34,6.34,0,0,1-2.81,1.94,12.12,12.12,0,0,1-4.3.69c-2.16,0-3.67-.4-4.53-1.19a4.6,4.6,0,0,1-1.28-3.54,63.18,63.18,0,0,1,1.12-7.29l2.42.52c-.22,1.18-.41,2.36-.58,3.54a23.92,23.92,0,0,0-.28,2.61c0,.54.35.91,1,1.1a9.9,9.9,0,0,0,2.56.28,14.51,14.51,0,0,0,2.94-.26,5.43,5.43,0,0,0,2-.84c0-.36-.26-.59-.78-.68a15.42,15.42,0,0,0-2.55-.14l.65-4h6.15C510.33,331.79,510.38,331.88,510.42,332.07Z"/><path class="cls-3" d="M517.87,327.84a10.07,10.07,0,0,1,1,4.57,2.45,2.45,0,0,1-.89,2,6,6,0,0,1-2.76,1.06,30.59,30.59,0,0,1-5,.3c-.06,0-.11-.1-.16-.28a2.62,2.62,0,0,1-.08-.67v-2.07a3.13,3.13,0,0,1,.07-.67c0-.19.1-.28.17-.28a33.94,33.94,0,0,0,6-.35,6.55,6.55,0,0,0-1.66-3.37,22.1,22.1,0,0,0-4-3.41l.09-2.93a43.25,43.25,0,0,1,3.95-2,40,40,0,0,1,3.82-1.46l.43,3.22c-.51.22-1.26.53-2.27.93l-2.7,1.1a4.08,4.08,0,0,1,.78.52A11.64,11.64,0,0,1,517.87,327.84Zm-2.63-9L513,319.89l-2.24,1.1,0-2.35,4.3-1.94Z"/><path class="cls-3" d="M530.65,328a8.74,8.74,0,0,1,1.16,4.19,3.36,3.36,0,0,1-.9,2.46c-.94,1-2.62,1.46-5,1.46a7.61,7.61,0,0,1-2.53-.34,2.57,2.57,0,0,1-1.41-1.17,4.58,4.58,0,0,1-.47-2.26,8.21,8.21,0,0,1,.11-1.38l2.44.19,0,.37a.52.52,0,0,0,.16.43,1,1,0,0,0,.54.16c.25,0,.69,0,1.3,0,.36,0,.86,0,1.51-.08a15.62,15.62,0,0,0,1.62-.22,6.44,6.44,0,0,0-1.15-2.43,20.87,20.87,0,0,0-2.62-2.92l2-2.7A17.18,17.18,0,0,1,530.65,328Z"/><path class="cls-3" d="M537.56,319v16.8l-2.7.36-.3-16.59Z"/><path class="cls-3" d="M550.14,332.07a3.13,3.13,0,0,1,.07.67v2.07a3.21,3.21,0,0,1-.07.67c0,.18-.09.28-.15.28h-1.68q-1.2,4.25-6.67,6.58l-2-3.06a16.71,16.71,0,0,0,3.5-1.68,9.9,9.9,0,0,0,2.35-2,7.54,7.54,0,0,1-1.6.17,6.05,6.05,0,0,1-1.9-.26,1.24,1.24,0,0,1-.53-.31,5.74,5.74,0,0,1-.61-.83,4.26,4.26,0,0,1-.47-.86,2,2,0,0,1-.12-.68,9.55,9.55,0,0,1,1.16-4.49,3.4,3.4,0,0,1,3.12-1.77,3.29,3.29,0,0,1,2.72,1.45,7.65,7.65,0,0,1,1.34,3.76H550C550.05,331.79,550.1,331.88,550.14,332.07Zm-5.61.45a9.9,9.9,0,0,0,1.53-.09,3.07,3.07,0,0,0-.48-1.85,1.53,1.53,0,0,0-1.27-.65,1.18,1.18,0,0,0-1,.63,4.15,4.15,0,0,0-.48,1.87A12.77,12.77,0,0,0,544.53,332.52Z"/><path class="cls-3" d="M556.29,328.85c.05.75.07,1.71.07,2.89a3.3,3.3,0,0,1-1.49,2.92,8.59,8.59,0,0,1-4.88,1.1c-.06,0-.11-.1-.16-.28a2.62,2.62,0,0,1-.08-.67v-2.07a2.6,2.6,0,0,1,.07-.67c0-.19.1-.28.17-.28a19.39,19.39,0,0,0,2.33-.11,4.68,4.68,0,0,0,1.32-.33l-.59-4.64,3-.54C556.18,327.21,556.25,328.1,556.29,328.85Zm-2.37-5.31-2.72-2.27,2.27-2.69,2.69,2.26Z"/><path class="cls-3" d="M565.21,332.07a3.2,3.2,0,0,1,.06.67v2.07a3.26,3.26,0,0,1-.06.67c-.05.18-.1.28-.15.28h-.72a6.28,6.28,0,0,1-2.69-.49,3.28,3.28,0,0,1-1.59-1.72,9,9,0,0,1-.59-3.45l-.11-10.57,3-.57v11.12c0,1.14.48,1.71,1.45,1.71h1.23C565.11,331.79,565.16,331.88,565.21,332.07Z"/><path class="cls-3" d="M577.44,327.22a11.56,11.56,0,0,0,2.92.36l-.8,3.73a8.53,8.53,0,0,0-2.46.61,23.57,23.57,0,0,0-2.55,1.29c-.8.46-1.44.8-1.9,1a16.6,16.6,0,0,1-3.23,1.12,18.39,18.39,0,0,1-4.1.41h-.26c-.06,0-.11-.1-.17-.28a2.65,2.65,0,0,1-.07-.67v-2.07a3.2,3.2,0,0,1,.06-.67c0-.19.1-.28.18-.28h.26a21.61,21.61,0,0,0,5.35-.67,20.25,20.25,0,0,0,2.68-.91,12.32,12.32,0,0,1,1.16-.43l.41-.09a16.8,16.8,0,0,1-1.83-.62,13,13,0,0,0-3.05-.82,1,1,0,0,0-.9.36,2.58,2.58,0,0,0-.35.95l-2.31-.36c.4-2.8,1.51-4.19,3.33-4.19a6,6,0,0,1,1.59.22c.55.16,1.29.4,2.23.73l.33.13.29.11C575.45,326.64,576.51,327,577.44,327.22Zm-5.09-4.07-2.7-2.26,2.27-2.7,2.68,2.26Z"/><path class="cls-3" d="M586.18,335.07a9,9,0,0,1,.5-3.41,14.52,14.52,0,0,1,2.5-4,4,4,0,0,1,2.92-1.49,3.09,3.09,0,0,1,2,.71,4.61,4.61,0,0,1,1.35,1.92,7.22,7.22,0,0,1,.48,2.68,9.08,9.08,0,0,1-.41,2.68,2.39,2.39,0,0,1-.35.63,4.67,4.67,0,0,1-.82.73,2.53,2.53,0,0,1-1.27.58,1.32,1.32,0,0,1-.46-.11l-3.8-1.72c.21,1.91.5,4.18.89,6.79l-3,.91A59.67,59.67,0,0,1,586.18,335.07Zm7.23-3.5A2.73,2.73,0,0,0,593,330a1.41,1.41,0,0,0-1.25-.6c-.66,0-1.37.6-2.14,1.81l3.61,1.73A6.08,6.08,0,0,0,593.41,331.57Z"/><path class="cls-3" d="M604.62,332.07a3.2,3.2,0,0,1,.06.67v2.07a3.26,3.26,0,0,1-.06.67c0,.18-.1.28-.16.28h-.71a6.3,6.3,0,0,1-2.7-.49,3.23,3.23,0,0,1-1.58-1.72,9.14,9.14,0,0,1-.6-3.45l-.1-10.57,3-.57v11.12q0,1.71,1.44,1.71h1.23C604.52,331.79,604.57,331.88,604.62,332.07Z"/><path class="cls-3" d="M610.77,328.85c0,.75.06,1.71.06,2.89a3.27,3.27,0,0,1-1.49,2.92,8.56,8.56,0,0,1-4.88,1.1c-.05,0-.11-.1-.16-.28a2.65,2.65,0,0,1-.07-.67v-2.07a3.2,3.2,0,0,1,.06-.67c0-.19.1-.28.17-.28a19.58,19.58,0,0,0,2.34-.11,4.7,4.7,0,0,0,1.31-.33l-.58-4.64,3-.54C610.65,327.21,610.72,328.1,610.77,328.85Zm-2.38-5.31-2.72-2.27,2.27-2.69,2.7,2.26Z"/><path class="cls-3" d="M623.35,327.45a5.38,5.38,0,0,1,1.44,2.36,10.6,10.6,0,0,1,.5,3.34,9,9,0,0,1-1.62,5.23,12.19,12.19,0,0,1-5.4,4l-2-3.06a16.47,16.47,0,0,0,3.5-1.68,9.7,9.7,0,0,0,2.35-2,7.38,7.38,0,0,1-1.59.17,6,6,0,0,1-1.9-.26,1.24,1.24,0,0,1-.53-.31,5.62,5.62,0,0,1-.62-.83,4.13,4.13,0,0,1-.46-.86,2,2,0,0,1-.12-.68,9.55,9.55,0,0,1,1.15-4.49,3.4,3.4,0,0,1,3.12-1.77A3.1,3.1,0,0,1,623.35,327.45Zm-2.19,5.07a10,10,0,0,0,1.54-.09,3.06,3.06,0,0,0-.49-1.85,1.5,1.5,0,0,0-1.26-.65,1.19,1.19,0,0,0-1.06.63,4,4,0,0,0-.47,1.87A12.6,12.6,0,0,0,621.16,332.52Z"/><path class="cls-3" d="M631.91,335.07a9,9,0,0,1,.49-3.41,14.53,14.53,0,0,1,2.51-4,4,4,0,0,1,2.91-1.49,3.12,3.12,0,0,1,2,.71,4.7,4.7,0,0,1,1.35,1.92,7.43,7.43,0,0,1,.47,2.68,9.08,9.08,0,0,1-.41,2.68,2.37,2.37,0,0,1-.34.63,5.09,5.09,0,0,1-.82.73,2.55,2.55,0,0,1-1.28.58,1.22,1.22,0,0,1-.45-.11l-3.8-1.72c.2,1.91.5,4.18.88,6.79l-2.95.91A57.46,57.46,0,0,1,631.91,335.07Zm7.23-3.5a2.81,2.81,0,0,0-.41-1.58,1.42,1.42,0,0,0-1.25-.6c-.67,0-1.38.6-2.14,1.81l3.6,1.73A6.18,6.18,0,0,0,639.14,331.57Z"/><path class="cls-3" d="M650.34,332.07a3.2,3.2,0,0,1,.06.67v2.07a3.26,3.26,0,0,1-.06.67c0,.18-.09.28-.15.28h-.71a6.3,6.3,0,0,1-2.7-.49,3.28,3.28,0,0,1-1.59-1.72,9.16,9.16,0,0,1-.59-3.45l-.11-10.57,3-.57v11.12c0,1.14.48,1.71,1.45,1.71h1.23C650.25,331.79,650.3,331.88,650.34,332.07Z"/><path class="cls-3" d="M656.49,328.85c0,.75.07,1.71.07,2.89a3.3,3.3,0,0,1-1.49,2.92,8.61,8.61,0,0,1-4.88,1.1c-.06,0-.11-.1-.16-.28a2.62,2.62,0,0,1-.08-.67v-2.07a2.6,2.6,0,0,1,.07-.67c0-.19.1-.28.17-.28a19.39,19.39,0,0,0,2.33-.11,4.68,4.68,0,0,0,1.32-.33l-.59-4.64,3-.54C656.38,327.21,656.45,328.1,656.49,328.85Zm-2.37-5.31-2.72-2.27,2.26-2.69,2.7,2.26Z"/><path class="cls-3" d="M532.56,371.84a4,4,0,0,1-1.11-2.75,18.08,18.08,0,0,1,.28-2.44c.18-1.18.44-2.67.75-4.45l1.51.32q-.66,3.76-.84,5.94a1.54,1.54,0,0,0,1.1,1.73,8.34,8.34,0,0,0,2.74.43,14.51,14.51,0,0,0,3.06-.28,5.19,5.19,0,0,0,2.21-1,7.58,7.58,0,0,0,.07-1,1.23,1.23,0,0,0-.19-.8,1.16,1.16,0,0,0-.63-.32l-1.23-.17c-.74-.1-1.27-.2-1.6-.28a1.46,1.46,0,0,1-.76-.44,1.36,1.36,0,0,1-.26-.9,9.72,9.72,0,0,1,.62-3.36,7.71,7.71,0,0,1,1.65-2.74,3.07,3.07,0,0,1,2.2-1.07,2.35,2.35,0,0,1,1.5.53,6.33,6.33,0,0,1,1.31,1.54l-1.06,1.06a2.5,2.5,0,0,0-1.7-.88,2.18,2.18,0,0,0-1.82,1.21,6.69,6.69,0,0,0-1,2.93l.71.11a15.23,15.23,0,0,1,2.33.45,2.27,2.27,0,0,1,1.23.89,3.33,3.33,0,0,1,.46,1.94,4.28,4.28,0,0,1-.82,2.78,5.26,5.26,0,0,1-2.56,1.67,12.87,12.87,0,0,1-4,.56C534.69,373.06,533.3,372.65,532.56,371.84Z"/><path class="cls-3" d="M544.77,372.22c2.5-1.37,4.08-2.82,4.72-4.34l-.75-6.33,1.94-.47a4,4,0,0,1,0,.49c.19,1.63.32,2.84.39,3.64s.11,1.47.11,2a5.91,5.91,0,0,1-1.33,3.75,12.76,12.76,0,0,1-4,3.18Z"/><path class="cls-3" d="M559.25,366a3,3,0,0,1,.06.67v.58a3.1,3.1,0,0,1-.06.66q-.06.27-.15.27h-.52a4.31,4.31,0,0,1-3.11-1,4.89,4.89,0,0,1-1-3.35l-.33-10.9,2-.48.17,11.4a1.89,1.89,0,0,0,.52,1.36,1.87,1.87,0,0,0,1.38.5h1C559.16,365.7,559.21,365.78,559.25,366Z"/><path class="cls-3" d="M565.66,361.05a9.65,9.65,0,0,1,1,4.35c0,1-.61,1.69-1.84,2.11a19.05,19.05,0,0,1-5.71.63c-.06,0-.11-.09-.16-.27a2.48,2.48,0,0,1-.08-.66v-.58a2.52,2.52,0,0,1,.07-.66c0-.18.1-.27.17-.27,1.21,0,2.36-.06,3.46-.16a9.55,9.55,0,0,0,2.47-.49,7,7,0,0,0-1.52-4,17.7,17.7,0,0,0-4-3.62l.08-2a47.56,47.56,0,0,1,7.25-3.24l.26,2.06a57.07,57.07,0,0,0-5.46,2.33l.59.43A13,13,0,0,1,565.66,361.05Z"/><path class="cls-3" d="M573.78,366.56c.18-1.18.44-2.66.75-4.45l1.51.35q-.66,3.69-.84,5.91a1.54,1.54,0,0,0,1.09,1.72,7.79,7.79,0,0,0,2.67.44,15.92,15.92,0,0,0,2.72-.23,6.24,6.24,0,0,0,2.16-.78l-.82-8.25,1.94-.43q.4,4.82.56,8.35a2.9,2.9,0,0,1-1.87,2.83,10.92,10.92,0,0,1-4.87,1c-2,0-3.41-.41-4.16-1.23A4,4,0,0,1,573.5,369,18.08,18.08,0,0,1,573.78,366.56Zm7.31-8.5-1.55,1.85-1.83-1.55,1.53-1.84Z"/><path class="cls-3" d="M590.35,352.44l.18,15.7-1.69.23-.43-15.45Z"/><path class="cls-3" d="M602.55,366a2.92,2.92,0,0,1,.07.67v.58a3,3,0,0,1-.07.66q-.06.27-.15.27h-1.79a7.73,7.73,0,0,1-2.18,3.47,13,13,0,0,1-4,2.53l-1.18-1.95a14.63,14.63,0,0,0,3.57-1.87A7.71,7.71,0,0,0,599,368a10.73,10.73,0,0,1-2.27.22,11.8,11.8,0,0,1-1.51-.11,1.24,1.24,0,0,1-.58-.26,3,3,0,0,1-.52-.6,2.7,2.7,0,0,1-.38-.69,1.65,1.65,0,0,1-.07-.63,10.12,10.12,0,0,1,1-3.88,2.74,2.74,0,0,1,2.62-1.69,2.78,2.78,0,0,1,2.73,1.62,9.33,9.33,0,0,1,.88,3.76h1.53C602.46,365.7,602.51,365.78,602.55,366ZM597,366a11.65,11.65,0,0,0,2.23-.17,4.85,4.85,0,0,0-.52-2.56,1.69,1.69,0,0,0-1.51-.79,1.56,1.56,0,0,0-1.41.86,5.23,5.23,0,0,0-.51,2.51A6.88,6.88,0,0,0,597,366Z"/><path class="cls-3" d="M610.52,366a3,3,0,0,1,.06.67v.58a3.1,3.1,0,0,1-.06.66c0,.18-.1.27-.16.27a8,8,0,0,1-2.73-.35,1.75,1.75,0,0,1-1.11-1.14,2.47,2.47,0,0,1-1.44,1.14,8.53,8.53,0,0,1-2.68.35c-.06,0-.11-.09-.16-.27a2.48,2.48,0,0,1-.08-.66v-.58a2.52,2.52,0,0,1,.07-.66c0-.18.1-.27.17-.27a7.2,7.2,0,0,0,3.22-.56l-.41-4.3,1.94-.17.26,4.6a2.84,2.84,0,0,0,1,.33,14.69,14.69,0,0,0,1.92.1C610.42,365.7,610.47,365.78,610.52,366Zm-4.49-7.6-1.84-1.56,1.53-1.83,1.86,1.55Z"/><path class="cls-3" d="M620.66,366.82c-1.76.43-3,.73-3.89.9a22.07,22.07,0,0,1-2.33.33c-.72.06-1.67.09-2.87.09h-1.21c-.05,0-.11-.09-.16-.27a2.52,2.52,0,0,1-.07-.66v-.58a3.1,3.1,0,0,1,.06-.66c0-.18.1-.27.17-.27h2.9a6.47,6.47,0,0,1-.56-2.7,3.06,3.06,0,0,1,1.1-2.6,4.54,4.54,0,0,1,2.87-.85,9,9,0,0,1,2.22.3l-.5,2.09a6.14,6.14,0,0,0-1.92-.26,5.88,5.88,0,0,0-2,.3,9.24,9.24,0,0,0,.22,2,5.91,5.91,0,0,0,.6,1.65,40.54,40.54,0,0,0,5.27-1.08Z"/><path class="cls-3" d="M517.08,184.87h-4l6.09-17.66H524l6.08,17.66h-4l-4.42-13.63h-.14Zm-.25-6.94h9.45v2.91h-9.45Z"/><path class="cls-3" d="M546,184.87V167.21h6.18a6.5,6.5,0,0,1,3,.63,4.19,4.19,0,0,1,1.78,1.7,4.7,4.7,0,0,1,.59,2.36,3.91,3.91,0,0,1-.4,1.88,3.31,3.31,0,0,1-1.05,1.17,5,5,0,0,1-1.41.64v.17a3.48,3.48,0,0,1,1.63.57,4.18,4.18,0,0,1,1.37,1.48,5.19,5.19,0,0,1,0,4.75,4.24,4.24,0,0,1-1.91,1.69,8,8,0,0,1-3.39.62Zm2.14-9.9h4a4,4,0,0,0,1.74-.38,3.08,3.08,0,0,0,1.24-1.07,2.83,2.83,0,0,0,.47-1.62,2.69,2.69,0,0,0-.81-2,3.54,3.54,0,0,0-2.57-.82h-4Zm0,8h4.24a4.37,4.37,0,0,0,3-.81,2.62,2.62,0,0,0,.89-2,3.19,3.19,0,0,0-.46-1.66,3.43,3.43,0,0,0-1.3-1.23,4.1,4.1,0,0,0-2-.46h-4.35Z"/><path class="cls-3" d="M565.3,185.18a5.33,5.33,0,0,1-2.29-.48,3.75,3.75,0,0,1-2.23-3.59,3.49,3.49,0,0,1,.44-1.85,3.15,3.15,0,0,1,1.2-1.12,6.69,6.69,0,0,1,1.66-.61c.61-.13,1.22-.24,1.84-.32l2-.24a2.93,2.93,0,0,0,1.1-.28.73.73,0,0,0,.35-.69v-.07a2.71,2.71,0,0,0-.69-2,2.85,2.85,0,0,0-2.1-.71,3.71,3.71,0,0,0-2.29.64,3.79,3.79,0,0,0-1.16,1.36l-1.93-.69a4.59,4.59,0,0,1,1.38-1.88,5.23,5.23,0,0,1,1.9-.95,7.93,7.93,0,0,1,2-.27,8.5,8.5,0,0,1,1.47.15,4.84,4.84,0,0,1,1.61.62,3.68,3.68,0,0,1,1.3,1.4,5.31,5.31,0,0,1,.52,2.52v8.73h-2v-1.8h-.1a3.7,3.7,0,0,1-.69.93,4,4,0,0,1-1.29.83A4.89,4.89,0,0,1,565.3,185.18Zm.31-1.83a4.16,4.16,0,0,0,2-.47,3.28,3.28,0,0,0,1.25-1.23,3.11,3.11,0,0,0,.43-1.58v-1.86a1.19,1.19,0,0,1-.56.28,9.5,9.5,0,0,1-1,.22l-1.1.15-.86.11a8.23,8.23,0,0,0-1.48.33,2.61,2.61,0,0,0-1.1.68,1.73,1.73,0,0,0-.42,1.23,1.8,1.8,0,0,0,.79,1.6A3.5,3.5,0,0,0,565.61,183.35Z"/><path class="cls-3" d="M584.33,174.59l-1.83.52a3.36,3.36,0,0,0-.5-.9,2.65,2.65,0,0,0-.91-.72,3.2,3.2,0,0,0-1.45-.28,3.52,3.52,0,0,0-2,.55,1.68,1.68,0,0,0-.8,1.41,1.44,1.44,0,0,0,.55,1.2,4.55,4.55,0,0,0,1.73.74l2,.48a5.45,5.45,0,0,1,2.65,1.31,3.11,3.11,0,0,1,.87,2.28,3.39,3.39,0,0,1-.65,2,4.44,4.44,0,0,1-1.82,1.42,6.67,6.67,0,0,1-2.7.51,5.93,5.93,0,0,1-3.36-.88,3.91,3.91,0,0,1-1.68-2.57l1.93-.48a2.66,2.66,0,0,0,1.05,1.6,3.45,3.45,0,0,0,2,.54,3.74,3.74,0,0,0,2.26-.61,1.75,1.75,0,0,0,.85-1.46,1.56,1.56,0,0,0-.49-1.16,3.05,3.05,0,0,0-1.48-.7l-2.21-.52a5.24,5.24,0,0,1-2.67-1.34,3.45,3.45,0,0,1-.21-4.27,4.29,4.29,0,0,1,1.73-1.35,6,6,0,0,1,2.5-.49,5,5,0,0,1,3.09.86A4.73,4.73,0,0,1,584.33,174.59Z"/><path class="cls-3" d="M591.39,185.18a5.29,5.29,0,0,1-2.28-.48,3.78,3.78,0,0,1-2.24-3.59,3.4,3.4,0,0,1,.45-1.85,3.15,3.15,0,0,1,1.2-1.12,6.54,6.54,0,0,1,1.66-.61c.61-.13,1.22-.24,1.83-.32l2-.24a2.94,2.94,0,0,0,1.11-.28.73.73,0,0,0,.35-.69v-.07a2.67,2.67,0,0,0-.7-2,2.82,2.82,0,0,0-2.1-.71,3.68,3.68,0,0,0-2.28.64,3.93,3.93,0,0,0-1.17,1.36l-1.93-.69a4.7,4.7,0,0,1,1.39-1.88,5.19,5.19,0,0,1,1.89-.95,8,8,0,0,1,2-.27,8.51,8.51,0,0,1,1.48.15,4.84,4.84,0,0,1,1.61.62,3.68,3.68,0,0,1,1.3,1.4,5.32,5.32,0,0,1,.51,2.52v8.73h-2v-1.8h-.11a3.26,3.26,0,0,1-.69.93,4.11,4.11,0,0,1-1.28.83A5,5,0,0,1,591.39,185.18Zm.31-1.83a4.1,4.1,0,0,0,2-.47,3.24,3.24,0,0,0,1.26-1.23,3.11,3.11,0,0,0,.43-1.58v-1.86a1.24,1.24,0,0,1-.57.28,9,9,0,0,1-1,.22l-1.09.15-.86.11a8.23,8.23,0,0,0-1.48.33,2.55,2.55,0,0,0-1.1.68,1.73,1.73,0,0,0-.42,1.23,1.8,1.8,0,0,0,.79,1.6A3.45,3.45,0,0,0,591.7,183.35Z"/><path class="cls-3" d="M603.08,167.21v17.66h-2V167.21Z"/><path class="cls-3" d="M610.56,185.18a5.33,5.33,0,0,1-2.29-.48,3.75,3.75,0,0,1-2.23-3.59,3.49,3.49,0,0,1,.44-1.85,3.15,3.15,0,0,1,1.2-1.12,6.69,6.69,0,0,1,1.66-.61c.61-.13,1.22-.24,1.84-.32l2-.24a2.93,2.93,0,0,0,1.1-.28.73.73,0,0,0,.35-.69v-.07a2.71,2.71,0,0,0-.69-2,2.85,2.85,0,0,0-2.1-.71,3.71,3.71,0,0,0-2.29.64,3.79,3.79,0,0,0-1.16,1.36l-1.93-.69a4.59,4.59,0,0,1,1.38-1.88,5.23,5.23,0,0,1,1.9-.95,7.93,7.93,0,0,1,2-.27,8.5,8.5,0,0,1,1.47.15,4.84,4.84,0,0,1,1.61.62,3.68,3.68,0,0,1,1.3,1.4,5.31,5.31,0,0,1,.52,2.52v8.73h-2v-1.8h-.1a3.7,3.7,0,0,1-.69.93,4,4,0,0,1-1.29.83A4.89,4.89,0,0,1,610.56,185.18Zm.31-1.83a4.16,4.16,0,0,0,2-.47,3.28,3.28,0,0,0,1.25-1.23,3.11,3.11,0,0,0,.43-1.58v-1.86a1.19,1.19,0,0,1-.56.28,9.5,9.5,0,0,1-1,.22l-1.1.15-.86.11a8.23,8.23,0,0,0-1.48.33,2.61,2.61,0,0,0-1.1.68,1.73,1.73,0,0,0-.42,1.23,1.8,1.8,0,0,0,.79,1.6A3.5,3.5,0,0,0,610.87,183.35Z"/><path class="cls-3" d="M620.21,184.87V171.62h2v2.07h.17a3.37,3.37,0,0,1,1.34-1.65,4.09,4.09,0,0,1,2.22-.59,3.65,3.65,0,0,1,3.55,2.24h.14a3.91,3.91,0,0,1,1.52-1.63,4.66,4.66,0,0,1,2.45-.61,4,4,0,0,1,2.9,1.11,4.64,4.64,0,0,1,1.13,3.44v8.87h-2V176a2.48,2.48,0,0,0-.81-2.09,2.94,2.94,0,0,0-1.88-.63,2.78,2.78,0,0,0-2.17.84,3,3,0,0,0-.77,2.12v8.63h-2.07V175.8a2.39,2.39,0,0,0-.73-1.83,2.65,2.65,0,0,0-1.89-.69,2.79,2.79,0,0,0-1.48.42,3.18,3.18,0,0,0-1.1,1.17,3.45,3.45,0,0,0-.42,1.72v8.28Z"/><path class="cls-3" d="M315.69,205.72a10.82,10.82,0,0,1-1,4.83,7.72,7.72,0,0,1-2.77,3.14,7.9,7.9,0,0,1-8,0,7.72,7.72,0,0,1-2.77-3.14,12.05,12.05,0,0,1,0-9.66,7.59,7.59,0,0,1,2.77-3.14,7.9,7.9,0,0,1,8,0,7.59,7.59,0,0,1,2.77,3.14A10.76,10.76,0,0,1,315.69,205.72Zm-2.07,0a8.88,8.88,0,0,0-.77-3.88,5.56,5.56,0,0,0-2.06-2.38,5.6,5.6,0,0,0-5.8,0,5.56,5.56,0,0,0-2.06,2.38,10.14,10.14,0,0,0,0,7.75A5.59,5.59,0,0,0,305,212a5.6,5.6,0,0,0,5.8,0,5.59,5.59,0,0,0,2.06-2.39A8.81,8.81,0,0,0,313.62,205.72Z"/><path class="cls-3" d="M320.89,196.89v17.66h-2V196.89Z"/><path class="cls-3" d="M332.81,209.13V201.3h2v13.25h-2v-2.24h-.13a4.38,4.38,0,0,1-1.45,1.71,4.18,4.18,0,0,1-2.49.7,4.33,4.33,0,0,1-2.2-.55,3.7,3.7,0,0,1-1.52-1.65,6.24,6.24,0,0,1-.55-2.8V201.3h2v8.28a3.18,3.18,0,0,0,.82,2.31,2.7,2.7,0,0,0,2.08.86,3.64,3.64,0,0,0,1.55-.38,3.41,3.41,0,0,0,1.32-1.19A3.61,3.61,0,0,0,332.81,209.13Z"/><path class="cls-3" d="M338.43,214.55V201.3h2v2.07h.18a3.3,3.3,0,0,1,1.33-1.65,4.09,4.09,0,0,1,2.22-.59,3.89,3.89,0,0,1,2.19.59,3.84,3.84,0,0,1,1.36,1.65h.14a3.87,3.87,0,0,1,1.53-1.63,4.63,4.63,0,0,1,2.44-.61,4,4,0,0,1,2.9,1.11,4.6,4.6,0,0,1,1.13,3.44v8.87h-2v-8.87a2.52,2.52,0,0,0-.8-2.09,3,3,0,0,0-1.89-.63,2.81,2.81,0,0,0-2.17.84,3,3,0,0,0-.76,2.12v8.63h-2.07v-9.07a2.4,2.4,0,0,0-.74-1.83,2.63,2.63,0,0,0-1.89-.69,2.75,2.75,0,0,0-1.47.42,3.13,3.13,0,0,0-1.11,1.17,3.45,3.45,0,0,0-.42,1.72v8.28Z"/><path class="cls-3" d="M376,201.3a2.68,2.68,0,0,0-1.26-2,4.77,4.77,0,0,0-2.71-.73,5.12,5.12,0,0,0-2,.38,3.19,3.19,0,0,0-1.37,1.05,2.49,2.49,0,0,0-.48,1.5,2.11,2.11,0,0,0,.34,1.22,2.88,2.88,0,0,0,.87.83,6.84,6.84,0,0,0,1.12.55c.4.14.75.25,1.08.34l1.8.48c.46.12,1,.29,1.54.5a7.08,7.08,0,0,1,1.62.87,4.34,4.34,0,0,1,1.29,1.4,4,4,0,0,1,.51,2.09,4.72,4.72,0,0,1-.74,2.59,5.18,5.18,0,0,1-2.18,1.84,8,8,0,0,1-3.46.68,8.2,8.2,0,0,1-3.28-.61,5.19,5.19,0,0,1-2.17-1.71,4.84,4.84,0,0,1-.9-2.55h2.21a2.8,2.8,0,0,0,.68,1.66,3.53,3.53,0,0,0,1.5,1,6,6,0,0,0,2,.32,5.87,5.87,0,0,0,2.2-.4,3.75,3.75,0,0,0,1.54-1.13,2.63,2.63,0,0,0,.57-1.68,2,2,0,0,0-.49-1.43,3.63,3.63,0,0,0-1.29-.9,13.13,13.13,0,0,0-1.74-.6l-2.17-.62a8.26,8.26,0,0,1-3.28-1.7,3.75,3.75,0,0,1-1.2-2.89,4.33,4.33,0,0,1,.8-2.59,5.37,5.37,0,0,1,2.18-1.73,8,8,0,0,1,6.09,0,5.41,5.41,0,0,1,2.11,1.66,4.15,4.15,0,0,1,.82,2.39Z"/><path class="cls-3" d="M390.46,219.51v-7h-.18c-.15.24-.36.55-.63.91a3.72,3.72,0,0,1-1.19,1,4.24,4.24,0,0,1-2,.42,5.16,5.16,0,0,1-2.92-.84,5.59,5.59,0,0,1-2-2.38,9.63,9.63,0,0,1,0-7.26,5.52,5.52,0,0,1,2-2.37,5.23,5.23,0,0,1,2.95-.84,4.07,4.07,0,0,1,2,.43,3.55,3.55,0,0,1,1.16,1c.27.36.47.66.62.89h.25V201.3h2v18.21ZM386.7,213a3.34,3.34,0,0,0,2.07-.65,4,4,0,0,0,1.28-1.78,7.39,7.39,0,0,0,.44-2.65,7.2,7.2,0,0,0-.43-2.6,3.82,3.82,0,0,0-1.28-1.74,3.44,3.44,0,0,0-2.08-.62,3.4,3.4,0,0,0-2.15.66,3.94,3.94,0,0,0-1.29,1.78,7.66,7.66,0,0,0,0,5.09,4.12,4.12,0,0,0,1.29,1.83A3.36,3.36,0,0,0,386.7,213Z"/><path class="cls-3" d="M397.56,214.69a1.51,1.51,0,0,1-1.1-.46,1.53,1.53,0,0,1-.46-1.1,1.5,1.5,0,0,1,.46-1.09,1.53,1.53,0,0,1,2.19,0,1.53,1.53,0,0,1,.25,1.87,1.58,1.58,0,0,1-.56.56A1.44,1.44,0,0,1,397.56,214.69Z"/><path class="cls-3" d="M405.65,212.13l-.13.93a19.62,19.62,0,0,1-.45,2.11c-.2.75-.4,1.45-.62,2.11s-.38,1.19-.52,1.58h-1.55c.07-.37.17-.85.29-1.46s.24-1.28.37-2,.22-1.5.3-2.28l.11-1Z"/><path class="cls-3" d="M421.68,214.55h-5.45V196.89h5.69a8.71,8.71,0,0,1,4.4,1.05,7,7,0,0,1,2.8,3,12,12,0,0,1,0,9.46,6.92,6.92,0,0,1-2.86,3A9.17,9.17,0,0,1,421.68,214.55Zm-3.31-1.9h3.17a7.12,7.12,0,0,0,3.63-.84,5.25,5.25,0,0,0,2.15-2.41,10.2,10.2,0,0,0,0-7.4,5.18,5.18,0,0,0-2.09-2.38,6.59,6.59,0,0,0-3.46-.84h-3.41Z"/><path class="cls-3" d="M437.16,214.86a5.37,5.37,0,0,1-2.29-.48,3.75,3.75,0,0,1-2.23-3.59,3.4,3.4,0,0,1,.45-1.85,3.15,3.15,0,0,1,1.2-1.12,6.54,6.54,0,0,1,1.66-.61c.6-.13,1.21-.24,1.83-.32l2-.24a2.93,2.93,0,0,0,1.1-.28.71.71,0,0,0,.35-.69v-.07a2.71,2.71,0,0,0-.69-2,2.82,2.82,0,0,0-2.1-.71,3.73,3.73,0,0,0-2.29.64,3.79,3.79,0,0,0-1.16,1.36l-1.93-.69a4.59,4.59,0,0,1,1.38-1.88,5.23,5.23,0,0,1,1.9-.95,8,8,0,0,1,2-.27,8.32,8.32,0,0,1,1.47.15,4.75,4.75,0,0,1,1.61.62,3.61,3.61,0,0,1,1.3,1.4,5.19,5.19,0,0,1,.52,2.52v8.73h-2v-1.8h-.1a3.7,3.7,0,0,1-.69.93,4.11,4.11,0,0,1-1.28.83A5,5,0,0,1,437.16,214.86Zm.31-1.83a4.16,4.16,0,0,0,2-.47,3.39,3.39,0,0,0,1.26-1.23,3.2,3.2,0,0,0,.42-1.58v-1.86a1.14,1.14,0,0,1-.56.28,9.5,9.5,0,0,1-1,.22l-1.1.15-.85.11a8,8,0,0,0-1.48.33,2.58,2.58,0,0,0-1.11.68,1.73,1.73,0,0,0-.42,1.23,1.82,1.82,0,0,0,.79,1.6A3.5,3.5,0,0,0,437.47,213Z"/><path class="cls-3" d="M448.84,206.58v8h-2V201.3h2v2.07H449a3.81,3.81,0,0,1,1.41-1.62,4.35,4.35,0,0,1,2.45-.62,4.77,4.77,0,0,1,2.35.55,3.64,3.64,0,0,1,1.57,1.65,6.1,6.1,0,0,1,.56,2.8v8.42h-2v-8.28a3.47,3.47,0,0,0-.81-2.44,2.89,2.89,0,0,0-2.23-.87,3.52,3.52,0,0,0-1.73.42,3.05,3.05,0,0,0-1.21,1.23A4.12,4.12,0,0,0,448.84,206.58Z"/><path class="cls-3" d="M466.43,214.82a6.14,6.14,0,0,1-3.3-.85,5.6,5.6,0,0,1-2.13-2.38,8,8,0,0,1-.75-3.56,8.14,8.14,0,0,1,.75-3.59,5.88,5.88,0,0,1,2.09-2.44,5.6,5.6,0,0,1,3.13-.87,6.24,6.24,0,0,1,2,.34,5.1,5.1,0,0,1,1.84,1.12,5.54,5.54,0,0,1,1.32,2,8.66,8.66,0,0,1,.49,3.12v.86H461.7v-1.75h8.14a4.5,4.5,0,0,0-.44-2,3.42,3.42,0,0,0-3.18-1.89,3.65,3.65,0,0,0-2.1.6,4.06,4.06,0,0,0-1.36,1.55,4.68,4.68,0,0,0-.47,2.06v1.17a5.58,5.58,0,0,0,.52,2.54,3.71,3.71,0,0,0,1.45,1.58,4.26,4.26,0,0,0,2.17.54,4.41,4.41,0,0,0,1.45-.23,3.34,3.34,0,0,0,1.13-.69,3.15,3.15,0,0,0,.73-1.15l2,.55a4.37,4.37,0,0,1-1,1.75,5,5,0,0,1-1.81,1.18A6.86,6.86,0,0,1,466.43,214.82Z"/><path class="cls-3" d="M484.25,204.27l-1.82.52a3.7,3.7,0,0,0-.51-.9,2.52,2.52,0,0,0-.9-.72,3.28,3.28,0,0,0-1.46-.28,3.48,3.48,0,0,0-2,.55,1.68,1.68,0,0,0-.81,1.41,1.44,1.44,0,0,0,.56,1.2,4.5,4.5,0,0,0,1.72.74l2,.48a5.54,5.54,0,0,1,2.64,1.31,3.11,3.11,0,0,1,.87,2.28,3.32,3.32,0,0,1-.65,2,4.41,4.41,0,0,1-1.81,1.42,6.72,6.72,0,0,1-2.71.51,5.9,5.9,0,0,1-3.35-.88,3.89,3.89,0,0,1-1.69-2.57l1.94-.48a2.7,2.7,0,0,0,1,1.61,3.56,3.56,0,0,0,2,.53,3.76,3.76,0,0,0,2.26-.61,1.76,1.76,0,0,0,.84-1.46,1.55,1.55,0,0,0-.48-1.16,3.09,3.09,0,0,0-1.49-.7l-2.2-.52a5.16,5.16,0,0,1-2.67-1.34,3.21,3.21,0,0,1-.85-2.28,3.3,3.3,0,0,1,.63-2,4.26,4.26,0,0,1,1.74-1.35,6,6,0,0,1,2.49-.49,5,5,0,0,1,3.09.86A4.67,4.67,0,0,1,484.25,204.27Z"/><path class="cls-3" d="M489.45,206.58v8h-2V196.89h2v6.48h.18a3.7,3.7,0,0,1,1.4-1.63,4.46,4.46,0,0,1,2.49-.61,5,5,0,0,1,2.38.54,3.77,3.77,0,0,1,1.58,1.65,6.22,6.22,0,0,1,.56,2.81v8.42h-2v-8.28a3.42,3.42,0,0,0-.82-2.45,3,3,0,0,0-2.25-.86,3.73,3.73,0,0,0-1.79.42,3,3,0,0,0-1.24,1.23A4,4,0,0,0,489.45,206.58Z"/><path class="cls-3" d="M507,219.79a7.69,7.69,0,0,1-2.54-.37,5.41,5.41,0,0,1-2.88-2.29l1.63-1.13c.18.24.41.52.69.83a3.74,3.74,0,0,0,1.16.82A4.64,4.64,0,0,0,507,218a4.32,4.32,0,0,0,2.65-.78,2.85,2.85,0,0,0,1-2.43V212.1h-.17a9.58,9.58,0,0,1-.64.89,3.55,3.55,0,0,1-1.17.94,4.4,4.4,0,0,1-2.06.41,5.47,5.47,0,0,1-2.87-.76,5.21,5.21,0,0,1-2-2.21,7.65,7.65,0,0,1-.74-3.51,8.18,8.18,0,0,1,.72-3.55,5.55,5.55,0,0,1,2-2.35,5.3,5.3,0,0,1,3-.83,4.18,4.18,0,0,1,2.06.43,3.7,3.7,0,0,1,1.17,1c.27.36.48.66.63.89h.21V201.3h2v13.63a4.62,4.62,0,0,1-.78,2.78,4.51,4.51,0,0,1-2.07,1.58A8,8,0,0,1,507,219.79Zm-.07-7.28A3.6,3.6,0,0,0,509,212a3.54,3.54,0,0,0,1.29-1.61,6.58,6.58,0,0,0,.43-2.52,6.85,6.85,0,0,0-.43-2.53,3.71,3.71,0,0,0-1.27-1.71,3.41,3.41,0,0,0-2.09-.62,3.48,3.48,0,0,0-2.15.65,4.07,4.07,0,0,0-1.29,1.76,6.85,6.85,0,0,0-.42,2.45,6.4,6.4,0,0,0,.43,2.44,3.49,3.49,0,0,0,3.43,2.25Z"/><path class="cls-3" d="M520.17,214.86a5.29,5.29,0,0,1-2.28-.48,3.82,3.82,0,0,1-1.63-1.39,3.92,3.92,0,0,1-.61-2.2,3.4,3.4,0,0,1,.45-1.85,3.15,3.15,0,0,1,1.2-1.12,6.54,6.54,0,0,1,1.66-.61c.61-.13,1.22-.24,1.83-.32l2-.24a2.93,2.93,0,0,0,1.1-.28.73.73,0,0,0,.35-.69v-.07a2.67,2.67,0,0,0-.7-2,2.82,2.82,0,0,0-2.1-.71,3.68,3.68,0,0,0-2.28.64,3.79,3.79,0,0,0-1.16,1.36l-1.94-.69a4.7,4.7,0,0,1,1.39-1.88,5.27,5.27,0,0,1,1.89-.95,8.06,8.06,0,0,1,2-.27,8.5,8.5,0,0,1,1.47.15,4.84,4.84,0,0,1,1.61.62,3.68,3.68,0,0,1,1.3,1.4,5.32,5.32,0,0,1,.51,2.52v8.73h-2v-1.8h-.1a3.7,3.7,0,0,1-.69.93,4.16,4.16,0,0,1-1.29.83A4.94,4.94,0,0,1,520.17,214.86Zm.31-1.83a4.1,4.1,0,0,0,2-.47,3.24,3.24,0,0,0,1.26-1.23,3.11,3.11,0,0,0,.43-1.58v-1.86a1.24,1.24,0,0,1-.57.28,9,9,0,0,1-1,.22l-1.09.15-.86.11a8.23,8.23,0,0,0-1.48.33,2.55,2.55,0,0,0-1.1.68,1.73,1.73,0,0,0-.42,1.23,1.8,1.8,0,0,0,.79,1.6A3.45,3.45,0,0,0,520.48,213Z"/><path class="cls-3" d="M531.86,206.58v8h-2V196.89h2v6.48H532a3.76,3.76,0,0,1,1.4-1.63,4.51,4.51,0,0,1,2.5-.61,5,5,0,0,1,2.37.54,3.66,3.66,0,0,1,1.58,1.65,6.08,6.08,0,0,1,.57,2.81v8.42h-2v-8.28a3.47,3.47,0,0,0-.81-2.45,3,3,0,0,0-2.26-.86,3.78,3.78,0,0,0-1.79.42,3.06,3.06,0,0,0-1.24,1.23A4,4,0,0,0,531.86,206.58Z"/><path class="cls-3" d="M551.71,214.55h-2.24L556,196.89h2.21l6.49,17.66h-2.24l-5.28-14.87H557Zm.83-6.9h9v1.9h-9Z"/><path class="cls-3" d="M576.16,201.3l-4.9,13.25h-2.07l-4.9-13.25h2.21l3.66,10.56h.14L574,201.3Z"/><path class="cls-3" d="M583.78,214.82a6.14,6.14,0,0,1-3.3-.85,5.48,5.48,0,0,1-2.13-2.38,8,8,0,0,1-.75-3.56,8.14,8.14,0,0,1,.75-3.59,5.86,5.86,0,0,1,2.08-2.44,5.65,5.65,0,0,1,3.14-.87,6.24,6.24,0,0,1,2,.34,5.1,5.1,0,0,1,1.84,1.12,5.54,5.54,0,0,1,1.32,2,8.66,8.66,0,0,1,.49,3.12v.86H579.05v-1.75h8.14a4.5,4.5,0,0,0-.44-2,3.5,3.5,0,0,0-1.26-1.38,3.55,3.55,0,0,0-1.92-.51,3.65,3.65,0,0,0-2.1.6,4.06,4.06,0,0,0-1.36,1.55,4.54,4.54,0,0,0-.47,2.06v1.17a5.58,5.58,0,0,0,.52,2.54,3.71,3.71,0,0,0,1.45,1.58,4.24,4.24,0,0,0,2.17.54,4.41,4.41,0,0,0,1.45-.23,3.2,3.2,0,0,0,1.12-.69,3,3,0,0,0,.74-1.15l2,.55a4.23,4.23,0,0,1-1,1.75,5,5,0,0,1-1.81,1.18A6.86,6.86,0,0,1,583.78,214.82Z"/><path class="cls-3" d="M593.7,214.69a1.5,1.5,0,0,1-1.09-.46,1.49,1.49,0,0,1-.46-1.1,1.57,1.57,0,0,1,1.55-1.55,1.49,1.49,0,0,1,1.1.46,1.55,1.55,0,0,1-.32,2.43A1.39,1.39,0,0,1,593.7,214.69Z"/><path class="cls-3" d="M601.8,212.13l-.14.93a17.33,17.33,0,0,1-.44,2.11c-.2.75-.41,1.45-.62,2.11s-.39,1.19-.52,1.58h-1.56c.08-.37.18-.85.3-1.46s.24-1.28.36-2,.23-1.5.31-2.28l.1-1Z"/><path class="cls-3" d="M612.38,214.55V196.89h6a6.93,6.93,0,0,1,3.4.74,4.73,4.73,0,0,1,2,2,6.22,6.22,0,0,1,.63,2.82,6.3,6.3,0,0,1-.63,2.84,4.71,4.71,0,0,1-2,2,6.69,6.69,0,0,1-3.38.76H614.1v-1.9h4.21a4.54,4.54,0,0,0,2.28-.49,2.94,2.94,0,0,0,1.26-1.33,4.5,4.5,0,0,0,.39-1.91,4.44,4.44,0,0,0-.39-1.89,2.84,2.84,0,0,0-1.27-1.32,4.78,4.78,0,0,0-2.31-.48h-3.76v15.77Z"/><path class="cls-3" d="M631.27,214.86a5.37,5.37,0,0,1-2.29-.48,3.75,3.75,0,0,1-2.23-3.59,3.4,3.4,0,0,1,.45-1.85,3.15,3.15,0,0,1,1.2-1.12,6.54,6.54,0,0,1,1.66-.61c.6-.13,1.22-.24,1.83-.32l2-.24a3,3,0,0,0,1.11-.28.73.73,0,0,0,.35-.69v-.07a2.72,2.72,0,0,0-.7-2,2.82,2.82,0,0,0-2.1-.71,3.68,3.68,0,0,0-2.28.64,3.83,3.83,0,0,0-1.17,1.36l-1.93-.69a4.78,4.78,0,0,1,1.38-1.88,5.23,5.23,0,0,1,1.9-.95,8,8,0,0,1,2-.27,8.32,8.32,0,0,1,1.47.15,4.8,4.8,0,0,1,1.62.62,3.59,3.59,0,0,1,1.29,1.4,5.19,5.19,0,0,1,.52,2.52v8.73h-2v-1.8h-.11a3.7,3.7,0,0,1-.69.93,4.11,4.11,0,0,1-1.28.83A5,5,0,0,1,631.27,214.86Zm.31-1.83a4.1,4.1,0,0,0,2-.47,3.39,3.39,0,0,0,1.26-1.23,3.21,3.21,0,0,0,.43-1.58v-1.86a1.24,1.24,0,0,1-.57.28,9,9,0,0,1-1,.22l-1.09.15-.86.11a8.23,8.23,0,0,0-1.48.33,2.58,2.58,0,0,0-1.11.68,1.77,1.77,0,0,0-.41,1.23,1.8,1.8,0,0,0,.79,1.6A3.45,3.45,0,0,0,631.58,213Z"/><path class="cls-3" d="M640.92,214.55V201.3h2v2H643a3.22,3.22,0,0,1,1.32-1.59,3.82,3.82,0,0,1,2.13-.62H647l.51,0v2.07a3.43,3.43,0,0,0-.47-.08,4.72,4.72,0,0,0-.77-.06,3.58,3.58,0,0,0-1.72.4,3.1,3.1,0,0,0-1.19,1.11,3,3,0,0,0-.43,1.6v8.38Z"/><path class="cls-3" d="M654.4,214.82a5.16,5.16,0,0,1-2.92-.84,5.59,5.59,0,0,1-2-2.38,9.63,9.63,0,0,1,0-7.26,5.45,5.45,0,0,1,2-2.37,5.22,5.22,0,0,1,2.94-.84,4.09,4.09,0,0,1,2.05.43,3.55,3.55,0,0,1,1.16,1c.27.36.47.66.62.89h.18v-6.52h2v17.66h-2v-2h-.24c-.15.24-.36.55-.63.91a3.72,3.72,0,0,1-1.19,1A4.24,4.24,0,0,1,654.4,214.82Zm.28-1.82a3.34,3.34,0,0,0,2.07-.65,4,4,0,0,0,1.28-1.78,7.39,7.39,0,0,0,.44-2.65,7.2,7.2,0,0,0-.43-2.6,3.82,3.82,0,0,0-1.28-1.74,3.83,3.83,0,0,0-4.24,0,3.92,3.92,0,0,0-1.28,1.78,6.94,6.94,0,0,0-.43,2.52,7.22,7.22,0,0,0,.44,2.57,4.12,4.12,0,0,0,1.29,1.83A3.34,3.34,0,0,0,654.68,213Z"/><path class="cls-3" d="M665.36,199.09a1.41,1.41,0,0,1-1-.4,1.29,1.29,0,0,1-.43-1,1.27,1.27,0,0,1,.43-1,1.47,1.47,0,0,1,2,0,1.27,1.27,0,0,1,.43,1,1.29,1.29,0,0,1-.43,1A1.41,1.41,0,0,1,665.36,199.09Zm-1,15.46V201.3h2v13.25Z"/><path class="cls-3" d="M679.32,204.27l-1.82.52a3.7,3.7,0,0,0-.51-.9,2.52,2.52,0,0,0-.9-.72,3.28,3.28,0,0,0-1.46-.28,3.48,3.48,0,0,0-2,.55,1.68,1.68,0,0,0-.81,1.41,1.44,1.44,0,0,0,.56,1.2,4.5,4.5,0,0,0,1.72.74l2,.48a5.54,5.54,0,0,1,2.64,1.31,3.12,3.12,0,0,1,.88,2.28,3.33,3.33,0,0,1-.66,2,4.41,4.41,0,0,1-1.81,1.42,6.72,6.72,0,0,1-2.71.51,5.9,5.9,0,0,1-3.35-.88,3.89,3.89,0,0,1-1.69-2.57l1.94-.48a2.7,2.7,0,0,0,1,1.61,3.56,3.56,0,0,0,2,.53,3.76,3.76,0,0,0,2.26-.61,1.76,1.76,0,0,0,.84-1.46,1.55,1.55,0,0,0-.48-1.16,3.09,3.09,0,0,0-1.49-.7l-2.2-.52a5.16,5.16,0,0,1-2.67-1.34,3.21,3.21,0,0,1-.85-2.28,3.3,3.3,0,0,1,.63-2,4.26,4.26,0,0,1,1.74-1.35,6,6,0,0,1,2.49-.49,5,5,0,0,1,3.09.86A4.67,4.67,0,0,1,679.32,204.27Z"/><path class="cls-3" d="M686.39,214.86a5.37,5.37,0,0,1-2.29-.48,3.75,3.75,0,0,1-2.23-3.59,3.4,3.4,0,0,1,.45-1.85,3.15,3.15,0,0,1,1.2-1.12,6.54,6.54,0,0,1,1.66-.61c.6-.13,1.21-.24,1.83-.32l2-.24a2.93,2.93,0,0,0,1.1-.28.71.71,0,0,0,.35-.69v-.07a2.71,2.71,0,0,0-.69-2,2.82,2.82,0,0,0-2.1-.71,3.73,3.73,0,0,0-2.29.64,3.79,3.79,0,0,0-1.16,1.36l-1.93-.69a4.59,4.59,0,0,1,1.38-1.88,5.23,5.23,0,0,1,1.9-.95,8,8,0,0,1,2-.27,8.32,8.32,0,0,1,1.47.15,4.84,4.84,0,0,1,1.61.62,3.61,3.61,0,0,1,1.3,1.4,5.19,5.19,0,0,1,.52,2.52v8.73h-2v-1.8h-.1a3.7,3.7,0,0,1-.69.93,4,4,0,0,1-1.29.83A4.89,4.89,0,0,1,686.39,214.86Zm.31-1.83a4.16,4.16,0,0,0,2-.47,3.39,3.39,0,0,0,1.26-1.23,3.2,3.2,0,0,0,.42-1.58v-1.86a1.14,1.14,0,0,1-.56.28,9.5,9.5,0,0,1-1,.22l-1.1.15-.86.11a8.11,8.11,0,0,0-1.47.33,2.58,2.58,0,0,0-1.11.68,1.73,1.73,0,0,0-.42,1.23,1.82,1.82,0,0,0,.79,1.6A3.5,3.5,0,0,0,686.7,213Z"/><path class="cls-3" d="M698.07,206.58v8h-2V201.3h2v2.07h.18a3.81,3.81,0,0,1,1.41-1.62,4.35,4.35,0,0,1,2.45-.62,4.77,4.77,0,0,1,2.35.55,3.64,3.64,0,0,1,1.57,1.65,6.1,6.1,0,0,1,.56,2.8v8.42h-2v-8.28a3.47,3.47,0,0,0-.81-2.44,2.89,2.89,0,0,0-2.23-.87,3.49,3.49,0,0,0-1.73.42,3.05,3.05,0,0,0-1.21,1.23A4.12,4.12,0,0,0,698.07,206.58Z"/><path class="cls-3" d="M713.14,212.13l-.14.93a19.46,19.46,0,0,1-.44,2.11c-.2.75-.41,1.45-.62,2.11s-.39,1.19-.53,1.58h-1.55c.08-.37.17-.85.3-1.46s.24-1.28.36-2,.23-1.5.31-2.28l.1-1Z"/><path class="cls-3" d="M738.61,205.72a10.82,10.82,0,0,1-1,4.83,7.72,7.72,0,0,1-2.77,3.14,7.9,7.9,0,0,1-8,0,7.65,7.65,0,0,1-2.77-3.14,12.05,12.05,0,0,1,0-9.66,7.53,7.53,0,0,1,2.77-3.14,7.9,7.9,0,0,1,8,0,7.59,7.59,0,0,1,2.77,3.14A10.76,10.76,0,0,1,738.61,205.72Zm-2.06,0a8.88,8.88,0,0,0-.77-3.88,5.56,5.56,0,0,0-2.06-2.38,5.6,5.6,0,0,0-5.8,0,5.49,5.49,0,0,0-2.06,2.38,10.14,10.14,0,0,0,0,7.75,5.52,5.52,0,0,0,2.06,2.39,5.6,5.6,0,0,0,5.8,0,5.59,5.59,0,0,0,2.06-2.39A8.81,8.81,0,0,0,736.55,205.72ZM730.13,209h2.34l2,2.59.52.69,2.93,3.89h-2.35l-1.93-2.58-.48-.66Z"/><path class="cls-3" d="M747.16,214.82A5.75,5.75,0,0,1,744,214a5.85,5.85,0,0,1-2.11-2.39,8.08,8.08,0,0,1-.75-3.59,8.17,8.17,0,0,1,.75-3.61A5.82,5.82,0,0,1,744,202a5.81,5.81,0,0,1,8.39,2.4,8.17,8.17,0,0,1,.75,3.61,8.08,8.08,0,0,1-.75,3.59,5.6,5.6,0,0,1-5.25,3.24Zm0-1.82a3.51,3.51,0,0,0,2.24-.7,4.2,4.2,0,0,0,1.31-1.84,7.47,7.47,0,0,0,0-4.94,4.26,4.26,0,0,0-1.31-1.86,3.93,3.93,0,0,0-4.48,0,4.16,4.16,0,0,0-1.3,1.86,7.31,7.31,0,0,0,0,4.94,4.1,4.1,0,0,0,1.3,1.84A3.53,3.53,0,0,0,747.16,213Z"/><path class="cls-3" d="M756.12,214.55V201.3h2v2.07h.17a3.32,3.32,0,0,1,1.34-1.65,4,4,0,0,1,2.21-.59,3.84,3.84,0,0,1,2.19.59,3.94,3.94,0,0,1,1.37,1.65h.13a3.87,3.87,0,0,1,1.53-1.63,4.63,4.63,0,0,1,2.44-.61,4,4,0,0,1,2.91,1.11,4.64,4.64,0,0,1,1.13,3.44v8.87h-2v-8.87a2.52,2.52,0,0,0-.8-2.09,3,3,0,0,0-1.89-.63,2.77,2.77,0,0,0-2.16.84,3,3,0,0,0-.77,2.12v8.63h-2.07v-9.07a2.39,2.39,0,0,0-.73-1.83,2.65,2.65,0,0,0-1.89-.69,2.79,2.79,0,0,0-1.48.42,3,3,0,0,0-1.1,1.17,3.45,3.45,0,0,0-.42,1.72v8.28Z"/><path class="cls-3" d="M790,196.06l-5.69,21.14h-1.86l5.69-21.14Z"/><path class="cls-3" d="M801.38,196.89v17.66h-2.14V196.89Z"/><path class="cls-3" d="M805.51,214.55V196.89h6a7.24,7.24,0,0,1,3.4.7,4.51,4.51,0,0,1,2,1.93,5.85,5.85,0,0,1,.64,2.78,5.78,5.78,0,0,1-.64,2.77,4.35,4.35,0,0,1-2,1.89,7.27,7.27,0,0,1-3.37.69h-4.83v-1.93h4.76a5.27,5.27,0,0,0,2.28-.42,2.71,2.71,0,0,0,1.26-1.17,4.48,4.48,0,0,0,0-3.68,2.71,2.71,0,0,0-1.27-1.23,5.15,5.15,0,0,0-2.3-.44h-3.76v15.77Zm8.32-7.94,4.34,7.94h-2.48l-4.28-7.94Z"/><path class="cls-3" d="M821.61,214.55h-2.24l6.49-17.66h2.2l6.49,17.66h-2.24L827,199.68h-.14Zm.83-6.9h9v1.9h-9Z"/><path class="cls-3" d="M851.17,196.89v17.66H849.1l-9.63-13.87h-.17v13.87h-2.14V196.89h2.07l9.66,13.9h.17v-13.9Z"/><path class="cls-3" d="M330.17,247a9.13,9.13,0,0,1,.47-3.3,15.18,15.18,0,0,1,2-3.35,3.43,3.43,0,0,1,2.64-1.5,2.68,2.68,0,0,1,2.4,1.29,5.69,5.69,0,0,1,.83,3.17,8.19,8.19,0,0,1-.3,2.29,1.9,1.9,0,0,1-.28.59,3.3,3.3,0,0,1-.63.64,1.5,1.5,0,0,1-.94.45,1.18,1.18,0,0,1-.5-.12l-3.95-1.93a62.13,62.13,0,0,0,.56,7.28l-1.9.73Q330.17,248.89,330.17,247Zm6.78-3.41a3.6,3.6,0,0,0-.45-1.87,1.49,1.49,0,0,0-1.41-.76,1.66,1.66,0,0,0-1.2.6,10,10,0,0,0-1.24,1.8l4.06,1.87A5.1,5.1,0,0,0,337,243.62Z"/><path class="cls-3" d="M343.46,244a27,27,0,0,0-.6-5.28,14,14,0,0,0-2.07-5l1.53-1.23q2.69,4.22,2.68,11.27Zm9.63.78a2.45,2.45,0,0,1,.07.67V246a2.52,2.52,0,0,1-.07.66q-.06.27-.15.27H352a5.23,5.23,0,0,1-2.17-.37,2.25,2.25,0,0,1-1.11-1.23,6.8,6.8,0,0,1-2.94,1.72,22,22,0,0,1-4.25.91l-.24-2.44a27,27,0,0,0,4.22-.92,6.08,6.08,0,0,0,2.37-1.15l-.5-11.74,2-.48.17,11.53a1.81,1.81,0,0,0,.29,1.12,1.35,1.35,0,0,0,.8.49,6.18,6.18,0,0,0,1.37.12h1C353,244.49,353.05,244.57,353.09,244.75Z"/><path class="cls-3" d="M367.66,244.08a2.41,2.41,0,0,1-1,2.16,4.6,4.6,0,0,1-2.58.69,2.31,2.31,0,0,1-2.36-1.28,2.36,2.36,0,0,1-1.18.95,4.15,4.15,0,0,1-1.58.33,2.22,2.22,0,0,1-2.29-1.3c-.59.86-1.82,1.3-3.69,1.3-.06,0-.11-.09-.16-.27a2.48,2.48,0,0,1-.08-.66v-.58a3,3,0,0,1,.07-.66c0-.18.1-.27.17-.27a6.41,6.41,0,0,0,2.83-.52l0-3.32,1.77,0-.06,2.59q0,.78.39,1a2.86,2.86,0,0,0,1.31.22,2.36,2.36,0,0,0,1.64-.46l-.08-4.23,1.79,0,.08,4.38a1.9,1.9,0,0,0,1.23.35A4.49,4.49,0,0,0,366,244l-.47-5.15,1.94-.35C367.61,240.52,367.66,242.36,367.66,244.08Z"/><path class="cls-3" d="M376.19,244.75a3,3,0,0,1,.06.67V246a3.1,3.1,0,0,1-.06.66c0,.18-.1.27-.15.27h-.52a4.29,4.29,0,0,1-3.11-1,4.84,4.84,0,0,1-1-3.35l-.33-10.9,2-.48.17,11.4a1.89,1.89,0,0,0,.52,1.36,1.87,1.87,0,0,0,1.38.5h1S376.15,244.57,376.19,244.75Z"/><path class="cls-3" d="M381.5,239.2c.08,1.87.13,3.39.13,4.55a2.49,2.49,0,0,1-1.32,2.25,6.52,6.52,0,0,1-2,.7,12.06,12.06,0,0,1-2.27.23c-.06,0-.11-.09-.16-.27a2.48,2.48,0,0,1-.08-.66v-.58a3.1,3.1,0,0,1,.06-.66q.08-.27.18-.27a15.18,15.18,0,0,0,2.3-.15,5.34,5.34,0,0,0,1.65-.52l-.5-4.94,2-.33Zm-3.43,10.3,1.85,1.55-1.55,1.83-1.81-1.53Z"/><path class="cls-3" d="M406.13,244.75a2.92,2.92,0,0,1,.07.67V246a3,3,0,0,1-.07.66q-.06.27-.15.27c-2.06,0-3.27-.48-3.63-1.43a1.65,1.65,0,0,1-.66.57,4.55,4.55,0,0,1-1.11.38,15,15,0,0,1-2.35.41,28.08,28.08,0,0,1-2.94.15,18.66,18.66,0,0,1-3.94-.34,4.51,4.51,0,0,1-2.37-1.23,3.45,3.45,0,0,1-.83-2.44,5.86,5.86,0,0,1,.11-1.23l.56-3.35,1.51.33-.5,2.95a4.6,4.6,0,0,0-.06.69,1.74,1.74,0,0,0,.6,1.45,3.24,3.24,0,0,0,1.65.6,24.36,24.36,0,0,0,2.91.13c1.52,0,2.81,0,3.85-.15a14.91,14.91,0,0,0,2.9-.56l-.34-3.78,1.9-.19.24,4.14a5.38,5.38,0,0,0,2.5.46C406,244.49,406.09,244.57,406.13,244.75ZM394.8,237.6l-1.66-1.4,1.4-1.69,1.68,1.41Zm3.26,0-1.66-1.4,1.38-1.67,1.68,1.41Z"/><path class="cls-3" d="M412.54,239.84a9.65,9.65,0,0,1,1,4.35c0,1-.61,1.69-1.84,2.11a19.05,19.05,0,0,1-5.71.63c-.06,0-.11-.09-.16-.27a2.48,2.48,0,0,1-.08-.66v-.58a2.52,2.52,0,0,1,.07-.66c0-.18.1-.27.17-.27,1.21,0,2.36-.06,3.46-.16a9.55,9.55,0,0,0,2.47-.49,7,7,0,0,0-1.52-4,17.7,17.7,0,0,0-4-3.62l.08-2a47.56,47.56,0,0,1,7.25-3.24l.26,2.06a57.07,57.07,0,0,0-5.46,2.33l.59.43A13,13,0,0,1,412.54,239.84Z"/><path class="cls-3" d="M423.55,244.75a3,3,0,0,1,.06.67V246a3.1,3.1,0,0,1-.06.66q-.06.27-.15.27h-.61a3.24,3.24,0,0,1-2.69-1V246a5.6,5.6,0,0,1-1.5,3.78,14.79,14.79,0,0,1-4.72,3.23l-1.19-1.92a18.42,18.42,0,0,0,3.86-2.21,6,6,0,0,0,1.82-2.21l-.71-6.33,1.92-.47.3,2.93a2,2,0,0,0,.44,1.15,1.64,1.64,0,0,0,.92.45,10.89,10.89,0,0,0,1.62.09h.54C423.46,244.49,423.51,244.57,423.55,244.75Z"/><path class="cls-3" d="M438.12,244.08a2.4,2.4,0,0,1-1.05,2.16,4.55,4.55,0,0,1-2.58.69,2.3,2.3,0,0,1-2.35-1.28,2.34,2.34,0,0,1-1.19.95,4.06,4.06,0,0,1-1.57.33,2.22,2.22,0,0,1-2.29-1.3c-.59.86-1.82,1.3-3.69,1.3-.06,0-.11-.09-.16-.27a2.48,2.48,0,0,1-.08-.66v-.58a2.52,2.52,0,0,1,.07-.66c0-.18.1-.27.17-.27a6.41,6.41,0,0,0,2.83-.52l0-3.32,1.77,0-.07,2.59q0,.78.39,1a2.94,2.94,0,0,0,1.32.22,2.36,2.36,0,0,0,1.64-.46l-.09-4.23,1.8,0,.08,4.38a1.9,1.9,0,0,0,1.23.35,4.49,4.49,0,0,0,2.16-.46l-.47-5.15,1.94-.35C438.07,240.52,438.12,242.36,438.12,244.08Zm-7.62-6.72L428.86,236l1.38-1.66,1.66,1.38Zm1.53-3.08-1.62-1.36,1.39-1.66,1.64,1.4Zm.05,1.66,1.38-1.64,1.64,1.38-1.38,1.64Z"/><path class="cls-3" d="M447,244.4a1.54,1.54,0,0,1,.46,1.12,1.54,1.54,0,0,1-1.56,1.56,1.68,1.68,0,0,1-1.28-.54,2.12,2.12,0,0,1-.51-1.51,6.35,6.35,0,0,1,.47-2.17,10.93,10.93,0,0,1,1.24-2.34l1.12,1.07c-.35.52-.62,1-.81,1.31a3.84,3.84,0,0,0-.42,1.07l.19,0A1.5,1.5,0,0,1,447,244.4Z"/><path class="cls-3" d="M450.62,247a8.88,8.88,0,0,1,.48-3.3,14.78,14.78,0,0,1,2-3.35,3.43,3.43,0,0,1,2.64-1.5,2.68,2.68,0,0,1,2.4,1.29,5.7,5.7,0,0,1,.84,3.17,8.18,8.18,0,0,1-.31,2.29,1.9,1.9,0,0,1-.28.59,3.5,3.5,0,0,1-.62.64,1.55,1.55,0,0,1-1,.45,1.18,1.18,0,0,1-.5-.12l-3.95-1.93a62.13,62.13,0,0,0,.56,7.28l-1.9.73Q450.62,248.89,450.62,247Zm6.78-3.41a3.7,3.7,0,0,0-.44-1.87,1.52,1.52,0,0,0-1.42-.76,1.66,1.66,0,0,0-1.2.6,10,10,0,0,0-1.24,1.8l4.06,1.87A5.1,5.1,0,0,0,457.4,243.62Z"/><path class="cls-3" d="M471.1,244.75a2.45,2.45,0,0,1,.07.67V246a2.52,2.52,0,0,1-.07.66q-.06.27-.15.27h-1.79A7.65,7.65,0,0,1,467,250.4a13.09,13.09,0,0,1-4,2.53l-1.19-2a14.63,14.63,0,0,0,3.57-1.87,7.71,7.71,0,0,0,2.21-2.36,10.63,10.63,0,0,1-2.26.22,11.55,11.55,0,0,1-1.51-.11,1.27,1.27,0,0,1-.59-.26,3,3,0,0,1-.51-.6,2.42,2.42,0,0,1-.38-.69,1.66,1.66,0,0,1-.08-.63,10.12,10.12,0,0,1,1-3.88,2.75,2.75,0,0,1,2.63-1.69,2.8,2.8,0,0,1,2.73,1.62,9.5,9.5,0,0,1,.87,3.76H471C471,244.49,471.06,244.57,471.1,244.75Zm-5.54,0a11.46,11.46,0,0,0,2.22-.17,4.76,4.76,0,0,0-.52-2.56,1.68,1.68,0,0,0-1.51-.79,1.55,1.55,0,0,0-1.4.86,5.22,5.22,0,0,0-.52,2.51A7,7,0,0,0,465.56,244.77Z"/><path class="cls-3" d="M479.89,244.75a3,3,0,0,1,.06.67V246a3.1,3.1,0,0,1-.06.66q-.06.27-.15.27a8.74,8.74,0,0,1-2.81-.38,2.5,2.5,0,0,1-1.42-1,3.47,3.47,0,0,1-1.81,1.05,10.68,10.68,0,0,1-2.75.31c-.05,0-.11-.09-.16-.27a2.52,2.52,0,0,1-.07-.66v-.58a3.1,3.1,0,0,1,.06-.66c0-.18.1-.27.17-.27a8.24,8.24,0,0,0,3.78-.63l-.52-12.15,2-.48.19,11.4a1.78,1.78,0,0,0,.53,1.44,2.64,2.64,0,0,0,1.54.42h1.32C479.8,244.49,479.85,244.57,479.89,244.75Z"/><path class="cls-3" d="M490,245.61c-1.76.43-3.06.73-3.89.9a22.07,22.07,0,0,1-2.33.33c-.72.06-1.68.09-2.87.09h-1.21c-.06,0-.11-.09-.16-.27a2.48,2.48,0,0,1-.08-.66v-.58a2.52,2.52,0,0,1,.07-.66c0-.18.1-.27.17-.27h2.89a6.63,6.63,0,0,1-.56-2.7,3.09,3.09,0,0,1,1.1-2.6,4.56,4.56,0,0,1,2.87-.85,9,9,0,0,1,2.23.3l-.5,2.09a6.23,6.23,0,0,0-1.92-.26,5.84,5.84,0,0,0-2,.3,9.24,9.24,0,0,0,.21,2,6.24,6.24,0,0,0,.61,1.65,40.89,40.89,0,0,0,5.27-1.08Z"/><path class="cls-3" d="M496.82,245.35c.18-1.18.43-2.66.75-4.45l1.51.35q-.66,3.69-.84,5.91a1.54,1.54,0,0,0,1.09,1.72,7.79,7.79,0,0,0,2.67.44,15.92,15.92,0,0,0,2.72-.23,6.1,6.1,0,0,0,2.15-.78l-.82-8.25,1.95-.43q.4,4.81.56,8.35a2.9,2.9,0,0,1-1.87,2.83,10.92,10.92,0,0,1-4.87.95c-2,0-3.41-.41-4.16-1.23a4,4,0,0,1-1.13-2.74A18.63,18.63,0,0,1,496.82,245.35Zm7.31-8.5-1.55,1.85-1.84-1.55,1.54-1.84Z"/><path class="cls-3" d="M513.39,231.23l.18,15.7-1.69.23-.43-15.45Z"/><path class="cls-3" d="M528,244.75a3,3,0,0,1,.06.67V246a3.1,3.1,0,0,1-.06.66c0,.18-.1.27-.15.27h-.52a3,3,0,0,1-3-1.62,4.12,4.12,0,0,1-.25.57.67.67,0,0,1-.29.29,7.22,7.22,0,0,1-2,.75,11,11,0,0,1-2.39.29,3.2,3.2,0,0,1-2.14-.63,2.83,2.83,0,0,1-.74-2.24c0-.48,0-.85,0-1.1l1.53,0v.52a1.27,1.27,0,0,0,.14.69.6.6,0,0,0,.46.23,10,10,0,0,0,1.19.05,9,9,0,0,0,2.09-.25,5.07,5.07,0,0,0,1.71-.68l-1.64-6.65,1.81-1.1,1.32,6.2a7.3,7.3,0,0,0,.44,1.57,1,1,0,0,0,.65.52,8,8,0,0,0,1.61.11S528,244.57,528,244.75Z"/><path class="cls-3" d="M536,244.75a2.45,2.45,0,0,1,.07.67V246a2.52,2.52,0,0,1-.07.66q-.06.27-.15.27a7.92,7.92,0,0,1-2.73-.35,1.75,1.75,0,0,1-1.11-1.14,2.46,2.46,0,0,1-1.45,1.14,8.42,8.42,0,0,1-2.67.35c-.06,0-.11-.09-.16-.27a2.48,2.48,0,0,1-.08-.66v-.58a3.1,3.1,0,0,1,.06-.66q.07-.27.18-.27a7.13,7.13,0,0,0,3.21-.56l-.41-4.3,2-.17.26,4.6a2.77,2.77,0,0,0,1,.33,14.69,14.69,0,0,0,1.92.1C535.9,244.49,536,244.57,536,244.75Zm-6.43,4.75,1.68,1.4-1.42,1.68-1.64-1.4Zm3.26,0,1.68,1.41-1.42,1.66-1.66-1.4Z"/><path class="cls-3" d="M544.55,240.9a6,6,0,0,1,.85,3.26,8.14,8.14,0,0,1-.28,2.18,2.08,2.08,0,0,1-.28.6,3,3,0,0,1-.6.59,1.55,1.55,0,0,1-1,.48,1.21,1.21,0,0,1-.52-.13l-4-1.86a2.37,2.37,0,0,1-.93.67,4.05,4.05,0,0,1-1.53.24h-.43c-.06,0-.11-.09-.16-.27a2.48,2.48,0,0,1-.08-.66v-.58a3,3,0,0,1,.07-.66c0-.18.1-.27.17-.27h.76a3.47,3.47,0,0,0,.92-.09,1.08,1.08,0,0,0,.53-.42,5.74,5.74,0,0,0,.6-1.15,8.91,8.91,0,0,1,1.43-2.38,2.59,2.59,0,0,1,2-.88A2.73,2.73,0,0,1,544.55,240.9Zm-.72,3.48a3.5,3.5,0,0,0-.49-1.89,1.62,1.62,0,0,0-1.48-.79,1.49,1.49,0,0,0-1.12.64,7.5,7.5,0,0,0-1,1.87l3.84,1.72A4.22,4.22,0,0,0,543.83,244.38Z"/><path class="cls-3" d="M548.8,251.09a18.57,18.57,0,0,0,3.85-2.21,6,6,0,0,0,1.82-2.21l-.71-6.33,1.92-.47c.06.59.1,1,.11,1.14.11,1.12.21,2.12.29,3s.12,1.53.12,2a5.6,5.6,0,0,1-1.5,3.78A14.67,14.67,0,0,1,550,253Zm6.71-15.76L554,237.19l-1.84-1.55,1.53-1.84Z"/><path class="cls-3" d="M560.86,231.23l.18,15.7-1.69.23-.43-15.45Z"/><path class="cls-3" d="M579,244.75a2.92,2.92,0,0,1,.07.67V246a3,3,0,0,1-.07.66q-.06.27-.15.27h-.52a3,3,0,0,1-3-1.62,3.18,3.18,0,0,1-.25.57.67.67,0,0,1-.29.29,7.22,7.22,0,0,1-2,.75,11,11,0,0,1-2.39.29,3.2,3.2,0,0,1-2.14-.63,2.83,2.83,0,0,1-.73-2.24c0-.48,0-.85,0-1.1l1.53,0v.52a1.27,1.27,0,0,0,.14.69.61.61,0,0,0,.47.23,9.76,9.76,0,0,0,1.18.05,9.11,9.11,0,0,0,2.1-.25,5,5,0,0,0,1.7-.68l-1.64-6.65,1.81-1.1,1.32,6.2a8,8,0,0,0,.44,1.57,1,1,0,0,0,.65.52,8.07,8.07,0,0,0,1.61.11C579,244.49,579,244.57,579,244.75Z"/><path class="cls-3" d="M590.83,244.75a3,3,0,0,1,.06.67V246a3.1,3.1,0,0,1-.06.66c-.05.18-.1.27-.16.27h-3.45A2.78,2.78,0,0,1,585,246a3.79,3.79,0,0,1-2.68.89h-3.45c-.06,0-.11-.09-.16-.27a2.48,2.48,0,0,1-.08-.66v-.58a2.52,2.52,0,0,1,.07-.66c0-.18.1-.27.17-.27h4.21q-.45-.68-.78-1.23c-.44-.69-.8-1.24-1.07-1.64a3.52,3.52,0,0,0-.53-.71.38.38,0,0,0-.32,0l-.5,0,.09-2.09a57.06,57.06,0,0,1,5.72-.45,7,7,0,0,1,2.71.4,1.41,1.41,0,0,1,.92,1.39v.65a3.89,3.89,0,0,1-.76,1.79,8.35,8.35,0,0,1-1.53,1.83,3.6,3.6,0,0,0,.8.07h2.82C590.73,244.49,590.78,244.57,590.83,244.75Zm-4.29-2.12a5.16,5.16,0,0,0,1.07-1.88c-.16-.2-.89-.3-2.18-.3-.55,0-1.11,0-1.68.05s-1,.08-1.32.12a1.17,1.17,0,0,1,.41.38c.14.2.43.62.86,1.29l1.25,1.94A7.94,7.94,0,0,0,586.54,242.63Z"/><path class="cls-3" d="M596.14,239.2c.08,1.87.13,3.39.13,4.55A2.49,2.49,0,0,1,595,246a6.52,6.52,0,0,1-2,.7,12.08,12.08,0,0,1-2.28.23s-.11-.09-.16-.27a2.52,2.52,0,0,1-.07-.66v-.58a3.1,3.1,0,0,1,.06-.66c0-.18.1-.27.17-.27a15.09,15.09,0,0,0,2.3-.15,5.34,5.34,0,0,0,1.65-.52l-.49-4.94,2-.33Zm-3.44,10.3,1.86,1.55L593,252.88l-1.82-1.53Z"/><path class="cls-3" d="M605.05,244.4a1.5,1.5,0,0,1,.46,1.12,1.49,1.49,0,0,1-.46,1.12,1.53,1.53,0,0,1-1.1.44,1.68,1.68,0,0,1-1.28-.54,2.12,2.12,0,0,1-.51-1.51,6.16,6.16,0,0,1,.48-2.17,10.46,10.46,0,0,1,1.23-2.34l1.12,1.07c-.35.52-.62,1-.81,1.31a3.84,3.84,0,0,0-.42,1.07l.19,0A1.5,1.5,0,0,1,605.05,244.4Z"/><path class="cls-3" d="M609.62,246.43a2.59,2.59,0,0,1-.92-2.18q0-2,2.33-4.64l-.88-.63,1.14-1.7a11.82,11.82,0,0,1,3.67,3.35,7.92,7.92,0,0,1,1.19,4,1.68,1.68,0,0,1-.08.65,2.76,2.76,0,0,1-.35.68,6.33,6.33,0,0,1-.39.52,1,1,0,0,1-.33.26,8.59,8.59,0,0,1-3,.43A3.73,3.73,0,0,1,609.62,246.43Zm4.93-1.9a5.15,5.15,0,0,0-2.27-4,7.44,7.44,0,0,0-1.34,1.73,3.58,3.58,0,0,0-.6,1.61.71.71,0,0,0,.39.72,4.57,4.57,0,0,0,1.53.17A9.47,9.47,0,0,0,614.55,244.53Z"/><path class="cls-3" d="M624.78,244.75a2.45,2.45,0,0,1,.07.67V246a2.52,2.52,0,0,1-.07.66q-.06.27-.15.27h-.52a4.31,4.31,0,0,1-3.11-1,4.89,4.89,0,0,1-1-3.35l-.33-10.9,2-.48.17,11.4a1.93,1.93,0,0,0,.52,1.36,1.87,1.87,0,0,0,1.38.5h1C624.69,244.49,624.74,244.57,624.78,244.75Z"/><path class="cls-3" d="M635.36,244.75a3,3,0,0,1,.06.67V246a3.1,3.1,0,0,1-.06.66q-.06.27-.15.27h-1.79a2.27,2.27,0,0,1-1.21-.31,2,2,0,0,1-.8-.86,6,6,0,0,1-2.49.89,27.73,27.73,0,0,1-4.29.28c-.06,0-.11-.09-.16-.27a2.48,2.48,0,0,1-.08-.66v-.58a3,3,0,0,1,.07-.66c0-.18.1-.27.17-.27,1.21,0,2.36-.06,3.47-.16a9.64,9.64,0,0,0,2.47-.49,7.16,7.16,0,0,0-1.52-4,17.78,17.78,0,0,0-4-3.62l.08-2a47.24,47.24,0,0,1,7.26-3.24l.26,2.06a58.42,58.42,0,0,0-5.47,2.33l.59.43a13.85,13.85,0,0,1,3.3,3.72,8.94,8.94,0,0,1,1.14,3.88,1.27,1.27,0,0,0,.43.9,2.08,2.08,0,0,0,1.06.2h1.56C635.27,244.49,635.32,244.57,635.36,244.75Zm-6-13.56c-1.37.59-2.8,1.29-4.32,2.09l.07-1.68q2.07-1.08,4.12-1.94Z"/><path class="cls-3" d="M653.32,244.75a3,3,0,0,1,.06.67V246a3.1,3.1,0,0,1-.06.66c0,.18-.1.27-.15.27h-1.06a3.58,3.58,0,0,1-1.62-.34,2,2,0,0,1-1-.94,2.77,2.77,0,0,1-1.32,1,5.26,5.26,0,0,1-1.86.32,2.31,2.31,0,0,1-2.35-1.28,2.34,2.34,0,0,1-1.19.95,4.06,4.06,0,0,1-1.57.33,2.22,2.22,0,0,1-2.29-1.3c-.59.86-1.82,1.3-3.69,1.3-.06,0-.11-.09-.16-.27A2.48,2.48,0,0,1,635,246v-.58a2.52,2.52,0,0,1,.07-.66c0-.18.1-.27.17-.27a6.41,6.41,0,0,0,2.83-.52l0-3.32,1.77,0-.06,2.59c0,.52.11.85.38,1a2.94,2.94,0,0,0,1.32.22,2.36,2.36,0,0,0,1.64-.46l-.08-4.23,1.79,0,.08,4.38a1.9,1.9,0,0,0,1.23.35,4.49,4.49,0,0,0,2.16-.46l-.47-5.15,1.94-.35.24,4.32a2.37,2.37,0,0,0,.25,1.05.93.93,0,0,0,.57.46,4.73,4.73,0,0,0,1,.13h1.28C653.22,244.49,653.28,244.57,653.32,244.75Zm-11-7.39L640.69,236l1.38-1.66,1.66,1.38Zm1.53-3.08-1.62-1.36,1.39-1.66,1.64,1.4Zm0,1.66,1.38-1.64,1.64,1.38-1.38,1.64Z"/><path class="cls-3" d="M658.59,238.55l0,.65c.08,1.87.13,3.39.13,4.55a2.49,2.49,0,0,1-1.32,2.25,6.52,6.52,0,0,1-2,.7,12.06,12.06,0,0,1-2.27.23c-.06,0-.11-.09-.16-.27a2.13,2.13,0,0,1-.08-.66v-.58a3.1,3.1,0,0,1,.06-.66q.07-.27.18-.27a15.18,15.18,0,0,0,2.3-.15,5.34,5.34,0,0,0,1.65-.52l-.5-4.94Zm-1.32-2.2-1.84-1.55L657,233l1.85,1.53Z"/><path class="cls-3" d="M663.66,231.23l.17,15.7-1.68.23-.43-15.45Z"/><path class="cls-3" d="M675.51,240.41a8.24,8.24,0,0,1,1,3.65,3.43,3.43,0,0,1-.15,1.06,2.07,2.07,0,0,1-.52.84,4.14,4.14,0,0,1-1.83.92,11.24,11.24,0,0,1-2.92.33,7.48,7.48,0,0,1-2.36-.29,1.9,1.9,0,0,1-1.13-1,4.72,4.72,0,0,1-.33-2c0-.36,0-.64,0-.84l1.56.08v.33a1.56,1.56,0,0,0,.17.86.83.83,0,0,0,.63.32,11.09,11.09,0,0,0,1.55.07c.56,0,1.2,0,1.92-.1a5.64,5.64,0,0,0,1.71-.36,5.77,5.77,0,0,0-1-3.14A16.36,16.36,0,0,0,671,238l1.29-1.71A15.85,15.85,0,0,1,675.51,240.41Z"/><path class="cls-3" d="M683.26,245.35c.19-1.18.44-2.66.76-4.45l1.51.35q-.67,3.69-.85,5.91a1.55,1.55,0,0,0,1.09,1.72,7.79,7.79,0,0,0,2.67.44,15.84,15.84,0,0,0,2.72-.23,6.24,6.24,0,0,0,2.16-.78l-.82-8.25,1.94-.43q.4,4.81.56,8.35a2.89,2.89,0,0,1-1.86,2.83,11,11,0,0,1-4.87.95q-3,0-4.17-1.23a4,4,0,0,1-1.12-2.74A18.08,18.08,0,0,1,683.26,245.35Zm7.32-8.5L689,238.7l-1.83-1.55,1.53-1.84Z"/><path class="cls-3" d="M703.4,244.75a3,3,0,0,1,.06.67V246a3.1,3.1,0,0,1-.06.66q-.06.27-.15.27h-.52a4.31,4.31,0,0,1-3.11-1,4.84,4.84,0,0,1-1-3.35l-.33-10.9,2-.48.17,11.4a1.89,1.89,0,0,0,.52,1.36,1.87,1.87,0,0,0,1.38.5h1C703.31,244.49,703.36,244.57,703.4,244.75Z"/><path class="cls-3" d="M708.71,239.2c.09,1.87.13,3.39.13,4.55a2.49,2.49,0,0,1-1.32,2.25,6.45,6.45,0,0,1-2,.7,12.24,12.24,0,0,1-2.28.23c-.06,0-.11-.09-.16-.27A2.48,2.48,0,0,1,703,246v-.58a2.52,2.52,0,0,1,.07-.66c0-.18.1-.27.17-.27a15.18,15.18,0,0,0,2.3-.15,5.34,5.34,0,0,0,1.65-.52l-.5-4.94,2-.33Zm-3.43,10.3,1.85,1.55-1.55,1.83-1.81-1.53Z"/><path class="cls-3" d="M717.3,244.75a2.92,2.92,0,0,1,.07.67V246a3,3,0,0,1-.07.66q-.06.27-.15.27h-.52a4.31,4.31,0,0,1-3.11-1,4.89,4.89,0,0,1-1-3.35l-.33-10.9,2-.48.17,11.4a1.89,1.89,0,0,0,.52,1.36,1.87,1.87,0,0,0,1.38.5h.95C717.21,244.49,717.26,244.57,717.3,244.75Z"/><path class="cls-3" d="M725.27,244.75a3,3,0,0,1,.06.67V246a3.1,3.1,0,0,1-.06.66c0,.18-.1.27-.16.27a8,8,0,0,1-2.73-.35,1.75,1.75,0,0,1-1.11-1.14,2.47,2.47,0,0,1-1.44,1.14,8.53,8.53,0,0,1-2.68.35c-.06,0-.11-.09-.16-.27a2.48,2.48,0,0,1-.08-.66v-.58a2.52,2.52,0,0,1,.07-.66c0-.18.1-.27.17-.27a7.2,7.2,0,0,0,3.22-.56l-.41-4.3,1.94-.17.26,4.6a2.84,2.84,0,0,0,1,.33,14.8,14.8,0,0,0,1.92.1C725.17,244.49,725.22,244.57,725.27,244.75Zm-6.44,4.75,1.69,1.4-1.43,1.68-1.64-1.4Zm3.26,0,1.69,1.41-1.43,1.66-1.66-1.4Z"/><path class="cls-3" d="M736.24,240a9.22,9.22,0,0,0,2.49.37l-.47,2.18a5.93,5.93,0,0,0-2,.46,25.65,25.65,0,0,0-2.34,1.18l-.73.41a24.09,24.09,0,0,1-3.64,1.74,11.14,11.14,0,0,1-3.87.62h-.61c-.05,0-.11-.09-.16-.27a2.52,2.52,0,0,1-.07-.66v-.58a3.1,3.1,0,0,1,.06-.66c0-.18.1-.27.17-.27h.61a10.56,10.56,0,0,0,2.8-.39,26.36,26.36,0,0,0,3-1l1.67-.75,1.4-.61a3.52,3.52,0,0,1,.43-.13l-.13,0a11.8,11.8,0,0,1-2.7-.86,8.63,8.63,0,0,0-2.7-.76.85.85,0,0,0-.79.4,3.73,3.73,0,0,0-.39,1.05l-1.49-.26a5.9,5.9,0,0,1,.88-2.43,2.09,2.09,0,0,1,1.79-.83,5.06,5.06,0,0,1,1.38.25c.53.17,1.28.42,2.23.77C734.3,239.36,735.36,239.71,736.24,240Zm-4.46-4L730,234.39l1.51-1.84,1.86,1.53Z"/><path class="cls-3" d="M747.35,244.4a1.53,1.53,0,0,1,.45,1.12,1.52,1.52,0,0,1-.45,1.12,1.53,1.53,0,0,1-1.1.44,1.7,1.7,0,0,1-1.29-.54,2.17,2.17,0,0,1-.5-1.51,6.35,6.35,0,0,1,.47-2.17,11.35,11.35,0,0,1,1.23-2.34l1.12,1.07c-.34.52-.61,1-.8,1.31a4.21,4.21,0,0,0-.43,1.07l.2,0A1.5,1.5,0,0,1,747.35,244.4Z"/><path class="cls-3" d="M751.28,245.35c.19-1.18.44-2.66.75-4.45l1.51.35q-.66,3.69-.84,5.91a1.54,1.54,0,0,0,1.09,1.72,7.79,7.79,0,0,0,2.67.44,15.84,15.84,0,0,0,2.72-.23,6.24,6.24,0,0,0,2.16-.78l-.82-8.25,1.94-.43q.4,4.81.56,8.35a2.9,2.9,0,0,1-1.87,2.83,10.88,10.88,0,0,1-4.86.95q-3,0-4.17-1.23a4,4,0,0,1-1.12-2.74A18.08,18.08,0,0,1,751.28,245.35Zm7.32-8.5L757,238.7l-1.83-1.55,1.53-1.84Z"/><path class="cls-3" d="M771.42,244.75a3,3,0,0,1,.06.67V246a3.1,3.1,0,0,1-.06.66q-.07.27-.15.27h-.52a4.29,4.29,0,0,1-3.11-1,4.89,4.89,0,0,1-1-3.35l-.32-10.9,2-.48.18,11.4a1.85,1.85,0,0,0,.52,1.36,1.87,1.87,0,0,0,1.38.5h.95C771.32,244.49,771.37,244.57,771.42,244.75Z"/><path class="cls-3" d="M789.36,244.75a3,3,0,0,1,.06.67V246a3.1,3.1,0,0,1-.06.66c-.05.18-.1.27-.16.27h-1.05a3.58,3.58,0,0,1-1.62-.34,2.08,2.08,0,0,1-1-.94,2.7,2.7,0,0,1-1.31,1,5.26,5.26,0,0,1-1.86.32,2.3,2.3,0,0,1-2.35-1.28,2.38,2.38,0,0,1-1.19.95,4.1,4.1,0,0,1-1.57.33,2.22,2.22,0,0,1-2.29-1.3c-.59.86-1.82,1.3-3.69,1.3-.06,0-.11-.09-.17-.27A2.52,2.52,0,0,1,771,246v-.58a3.1,3.1,0,0,1,.06-.66c0-.18.1-.27.18-.27a6.33,6.33,0,0,0,2.82-.52l0-3.32,1.77,0-.07,2.59q0,.78.39,1a2.88,2.88,0,0,0,1.32.22,2.36,2.36,0,0,0,1.64-.46l-.09-4.23,1.79,0,.09,4.38a1.86,1.86,0,0,0,1.23.35,4.54,4.54,0,0,0,2.16-.46l-.48-5.15,2-.35.23,4.32a2.52,2.52,0,0,0,.25,1.05,1,1,0,0,0,.57.46,4.84,4.84,0,0,0,1,.13h1.27C789.26,244.49,789.31,244.57,789.36,244.75Z"/><path class="cls-3" d="M790.24,249.5l1.68,1.4-1.42,1.68-1.64-1.4Zm-1.2-2.84A2.52,2.52,0,0,1,789,246v-.58a3.1,3.1,0,0,1,.06-.66c0-.18.1-.27.17-.27a15.09,15.09,0,0,0,2.3-.15,5.34,5.34,0,0,0,1.65-.52l-.49-4.94,2-.33,0,.65c.08,1.87.12,3.39.12,4.55a2.48,2.48,0,0,1-1.31,2.25,6.52,6.52,0,0,1-2,.7,12.08,12.08,0,0,1-2.28.23C789.15,246.93,789.09,246.84,789,246.66Zm6.14,4.22-1.42,1.66-1.66-1.4,1.4-1.67Z"/><path class="cls-3" d="M805.83,240.41a8.38,8.38,0,0,1,1,3.65,3.43,3.43,0,0,1-.15,1.06,2.32,2.32,0,0,1-.52.84,4.12,4.12,0,0,1-1.84.92,11.11,11.11,0,0,1-2.91.33,7.5,7.5,0,0,1-2.37-.29,2,2,0,0,1-1.13-1,4.91,4.91,0,0,1-.32-2c0-.36,0-.64,0-.84l1.55.08v.33a1.55,1.55,0,0,0,.18.86.83.83,0,0,0,.62.32,11.17,11.17,0,0,0,1.56.07c.56,0,1.2,0,1.92-.1a5.5,5.5,0,0,0,1.7-.36,5.76,5.76,0,0,0-1-3.14,16.11,16.11,0,0,0-2.82-3.2l1.3-1.71A15.85,15.85,0,0,1,805.83,240.41Z"/><path class="cls-3" d="M816.57,244.75a2.45,2.45,0,0,1,.07.67V246a2.52,2.52,0,0,1-.07.66q-.06.27-.15.27h-.6a3.28,3.28,0,0,1-2.7-1V246a5.6,5.6,0,0,1-1.5,3.78A14.67,14.67,0,0,1,806.9,253l-1.18-1.92a18.3,18.3,0,0,0,3.85-2.21,5.93,5.93,0,0,0,1.82-2.21l-.71-6.33,1.92-.47.31,2.93a1.87,1.87,0,0,0,.44,1.15,1.61,1.61,0,0,0,.92.45,10.83,10.83,0,0,0,1.61.09h.54C816.48,244.49,816.53,244.57,816.57,244.75Z"/><path class="cls-3" d="M817.59,252.32,816,250.94l1.38-1.66,1.66,1.4Zm-1.33-5.66a2.52,2.52,0,0,1-.07-.66v-.58a3.1,3.1,0,0,1,.06-.66c0-.18.1-.27.17-.27a15.09,15.09,0,0,0,2.3-.15,5.34,5.34,0,0,0,1.65-.52l-.49-4.94,2-.33,0,.65c.09,1.87.13,3.39.13,4.55A2.48,2.48,0,0,1,820.7,246a6.52,6.52,0,0,1-2,.7,12.08,12.08,0,0,1-2.28.23S816.31,246.84,816.26,246.66Zm2.67,5.66,1.66,1.38-1.38,1.64L817.57,254Zm3.26-1.68-1.38,1.66-1.64-1.38,1.38-1.66Z"/><path class="cls-3" d="M301.29,437.07V434H315.8v3.07h-5.41v14.59H306.7V437.07Z"/><path class="cls-3" d="M338.2,451.9a5.24,5.24,0,0,1-3.32-1.07,6.62,6.62,0,0,1-2.1-3.09,14.79,14.79,0,0,1-.72-4.91,14.5,14.5,0,0,1,.73-4.9,6.58,6.58,0,0,1,2.1-3.1,5.61,5.61,0,0,1,6.62,0,6.72,6.72,0,0,1,2.1,3.1,16.84,16.84,0,0,1,0,9.81,6.6,6.6,0,0,1-2.09,3.09A5.24,5.24,0,0,1,338.2,451.9Zm0-1.9a3.31,3.31,0,0,0,3-1.86,10.81,10.81,0,0,0,1.07-5.31,13.45,13.45,0,0,0-.49-3.91,5.38,5.38,0,0,0-1.39-2.46,3.13,3.13,0,0,0-2.19-.84,3.3,3.3,0,0,0-3,1.88,10.83,10.83,0,0,0-1.08,5.33,13.73,13.73,0,0,0,.48,3.89,5.31,5.31,0,0,0,1.39,2.44A3.13,3.13,0,0,0,338.2,450Z"/><path class="cls-3" d="M347.71,451.66V450.1l5.83-6.38c.69-.74,1.25-1.4,1.69-2a7.29,7.29,0,0,0,1-1.57,3.74,3.74,0,0,0,.32-1.55,2.84,2.84,0,0,0-.44-1.61,2.94,2.94,0,0,0-1.21-1.05,3.89,3.89,0,0,0-1.73-.37,3.67,3.67,0,0,0-1.77.41,2.9,2.9,0,0,0-1.16,1.17,3.55,3.55,0,0,0-.41,1.76h-2a5,5,0,0,1,2.67-4.55,5.82,5.82,0,0,1,2.78-.66,5.59,5.59,0,0,1,2.75.66,4.93,4.93,0,0,1,1.88,1.77,4.57,4.57,0,0,1,.68,2.47,5.36,5.36,0,0,1-.34,1.9,8.67,8.67,0,0,1-1.21,2.06c-.57.76-1.37,1.68-2.38,2.77l-4,4.24v.14h8.2v1.9Z"/><path class="cls-3" d="M368,451.9a6,6,0,0,1-2.73-.61,5.07,5.07,0,0,1-2-1.65,4.53,4.53,0,0,1-.8-2.4h2.07a2.8,2.8,0,0,0,1.09,2A3.59,3.59,0,0,0,368,450a3.7,3.7,0,0,0,1.94-.51,3.61,3.61,0,0,0,1.34-1.4,4.51,4.51,0,0,0,0-4.09,3.87,3.87,0,0,0-1.38-1.43,4,4,0,0,0-2-.54,5.83,5.83,0,0,0-1.67.25,4.44,4.44,0,0,0-1.4.65l-2-.24,1.06-8.69h9.18v1.89h-7.38l-.62,5.21h.1a4.36,4.36,0,0,1,1.36-.71,5.2,5.2,0,0,1,1.71-.29,5.41,5.41,0,0,1,4.89,2.88,6.23,6.23,0,0,1,.73,3,6,6,0,0,1-.75,3,5.47,5.47,0,0,1-2.08,2.08A5.85,5.85,0,0,1,368,451.9Z"/><path class="cls-3" d="M385,441.88v1.89h-7.73v-1.89Z"/><path class="cls-3" d="M394.26,433.75a6.38,6.38,0,0,1,2.17.42,5.23,5.23,0,0,1,2,1.34,6.62,6.62,0,0,1,1.44,2.55,12.86,12.86,0,0,1,.54,4,18.12,18.12,0,0,1-.44,4.18,9.5,9.5,0,0,1-1.28,3.07,5.62,5.62,0,0,1-2,1.9,5.51,5.51,0,0,1-2.68.65,5.79,5.79,0,0,1-2.64-.59,5.31,5.31,0,0,1-1.9-1.65,5.68,5.68,0,0,1-.94-2.45h2.1a3.82,3.82,0,0,0,1.14,2A3.13,3.13,0,0,0,394,450a3.68,3.68,0,0,0,3.23-1.78,9.11,9.11,0,0,0,1.19-5.05h-.14a5.45,5.45,0,0,1-1.14,1.25,5.2,5.2,0,0,1-1.48.81,5.13,5.13,0,0,1-1.72.29,5.39,5.39,0,0,1-2.79-.76,5.51,5.51,0,0,1-2-2.08,5.93,5.93,0,0,1-.76-3,6.22,6.22,0,0,1,.73-3,5.57,5.57,0,0,1,2.05-2.15A5.88,5.88,0,0,1,394.26,433.75Zm0,1.9a3.62,3.62,0,0,0-1.95.54,3.82,3.82,0,0,0-1.37,1.45,4.29,4.29,0,0,0,0,4,3.69,3.69,0,0,0,1.34,1.43,3.58,3.58,0,0,0,1.93.53,3.71,3.71,0,0,0,1.53-.32,4.21,4.21,0,0,0,1.24-.89,4.39,4.39,0,0,0,.83-1.29,3.86,3.86,0,0,0,.3-1.5,4.09,4.09,0,0,0-1.86-3.41A3.57,3.57,0,0,0,394.26,435.65Z"/><path class="cls-3" d="M410.09,434v17.66H408V436.24h-.1l-4.32,2.86v-2.17L408,434Z"/><path class="cls-3" d="M421,451.9a5.24,5.24,0,0,1-3.32-1.07,6.55,6.55,0,0,1-2.1-3.09,17.07,17.07,0,0,1,0-9.81,6.66,6.66,0,0,1,2.11-3.1,5.6,5.6,0,0,1,6.61,0,6.66,6.66,0,0,1,2.11,3.1,16.84,16.84,0,0,1,0,9.81,6.6,6.6,0,0,1-2.09,3.09A5.28,5.28,0,0,1,421,451.9Zm0-1.9a3.33,3.33,0,0,0,3-1.86,10.81,10.81,0,0,0,1.07-5.31,13.8,13.8,0,0,0-.49-3.91,5.39,5.39,0,0,0-1.4-2.46,3.1,3.1,0,0,0-2.18-.84,3.31,3.31,0,0,0-3,1.88,10.83,10.83,0,0,0-1.08,5.33,13.7,13.7,0,0,0,.49,3.89,5.22,5.22,0,0,0,1.39,2.44A3.13,3.13,0,0,0,421,450Z"/><path class="cls-3" d="M436.29,451.9a5.24,5.24,0,0,1-3.32-1.07,6.69,6.69,0,0,1-2.1-3.09,14.79,14.79,0,0,1-.72-4.91,14.5,14.5,0,0,1,.73-4.9,6.65,6.65,0,0,1,2.1-3.1,5.61,5.61,0,0,1,6.62,0,6.65,6.65,0,0,1,2.1,3.1,14.5,14.5,0,0,1,.73,4.9,14.79,14.79,0,0,1-.72,4.91,6.69,6.69,0,0,1-2.1,3.09A5.24,5.24,0,0,1,436.29,451.9Zm0-1.9a3.31,3.31,0,0,0,3-1.86,10.81,10.81,0,0,0,1.07-5.31,13.45,13.45,0,0,0-.49-3.91,5.38,5.38,0,0,0-1.39-2.46,3.13,3.13,0,0,0-2.19-.84,3.3,3.3,0,0,0-3,1.88,10.83,10.83,0,0,0-1.08,5.33,13.73,13.73,0,0,0,.48,3.89,5.23,5.23,0,0,0,1.4,2.44A3.09,3.09,0,0,0,436.29,450Z"/><path class="cls-3" d="M451.77,451.9a7.49,7.49,0,0,1-3-.59,5.11,5.11,0,0,1-2.11-1.63,4.38,4.38,0,0,1-.85-2.44h2.17a2.54,2.54,0,0,0,.59,1.47,3.34,3.34,0,0,0,1.35,1,4.85,4.85,0,0,0,1.86.34,4.79,4.79,0,0,0,2-.4,3.27,3.27,0,0,0,1.37-1.1,2.72,2.72,0,0,0,.5-1.64,3.11,3.11,0,0,0-.48-1.72,3.16,3.16,0,0,0-1.41-1.17,5.53,5.53,0,0,0-2.28-.42h-1.41v-1.9h1.41a4.16,4.16,0,0,0,1.85-.38,3,3,0,0,0,1.25-1.07,2.9,2.9,0,0,0,.45-1.62,3,3,0,0,0-.39-1.56,2.72,2.72,0,0,0-1.12-1,3.6,3.6,0,0,0-1.69-.37,4.47,4.47,0,0,0-1.72.33,3.23,3.23,0,0,0-1.32,1,2.47,2.47,0,0,0-.55,1.5h-2.07A4.16,4.16,0,0,1,447,436a5.27,5.27,0,0,1,2.05-1.63,6.63,6.63,0,0,1,2.8-.59,5.64,5.64,0,0,1,2.81.66,4.71,4.71,0,0,1,1.8,1.74,4.55,4.55,0,0,1,.63,2.33,4.15,4.15,0,0,1-.78,2.54,4,4,0,0,1-2.11,1.46v.14A4.12,4.12,0,0,1,456.8,444a4.27,4.27,0,0,1,.94,2.82,4.46,4.46,0,0,1-.78,2.58,5.23,5.23,0,0,1-2.13,1.8A6.82,6.82,0,0,1,451.77,451.9Z"/><path class="cls-3" d="M467.56,434v17.66h-2.14V436.24h-.1L461,439.1v-2.17l4.41-2.93Z"/><path class="cls-3" d="M473.28,451.66l7.9-15.63v-.14h-9.1V434h11.31v2l-7.86,15.66Z"/><path class="cls-3" d="M492,451.9a6,6,0,0,1-2.73-.61,5.07,5.07,0,0,1-1.95-1.65,4.44,4.44,0,0,1-.8-2.4h2.07a2.8,2.8,0,0,0,1.09,2A3.59,3.59,0,0,0,492,450a3.63,3.63,0,0,0,3.28-1.91,4.19,4.19,0,0,0,.48-2,4.28,4.28,0,0,0-.5-2.07,3.82,3.82,0,0,0-1.39-1.43,3.92,3.92,0,0,0-2-.54,5.77,5.77,0,0,0-1.66.25,4.62,4.62,0,0,0-1.41.65l-2-.24,1.07-8.69H497v1.89h-7.38L489,441.1h.1a4.36,4.36,0,0,1,1.36-.71,5.2,5.2,0,0,1,1.71-.29,5.41,5.41,0,0,1,4.89,2.88,6.23,6.23,0,0,1,.73,3,6,6,0,0,1-.75,3,5.54,5.54,0,0,1-2.08,2.08A5.88,5.88,0,0,1,492,451.9Z"/><path class="cls-3" d="M515.48,451.66V434h10.66v1.89h-8.52v6h8v1.9h-8v6h8.66v1.9Z"/><path class="cls-3" d="M531.34,438.41l3.17,5.42,3.18-5.42H540L535.75,445l4.28,6.63h-2.34l-3.18-5.14-3.17,5.14H529L533.2,445,529,438.41Z"/><path class="cls-3" d="M548.79,438.41v1.73h-6.87v-1.73Zm-4.87-3.17h2v12.62a2.56,2.56,0,0,0,.25,1.29,1.21,1.21,0,0,0,.66.57,2.41,2.41,0,0,0,.85.14,2.81,2.81,0,0,0,.55,0l.34-.06.42,1.83c-.14.05-.33.1-.58.16a4.84,4.84,0,0,1-.94.08,4.06,4.06,0,0,1-1.69-.37,3.45,3.45,0,0,1-1.36-1.13,3.25,3.25,0,0,1-.54-1.92Z"/><path class="cls-3" d="M553.44,451.79a1.54,1.54,0,0,1-1.55-1.55,1.55,1.55,0,0,1,1.55-1.55,1.57,1.57,0,0,1,1.55,1.55,1.52,1.52,0,0,1-.21.78,1.67,1.67,0,0,1-.56.56A1.52,1.52,0,0,1,553.44,451.79Z"/><path class="cls-3" d="M571.84,434v17.66h-2.13V436.24h-.11l-4.31,2.86v-2.17l4.42-2.93Z"/><path class="cls-3" d="M577,451.66V450.1l5.83-6.38c.69-.74,1.25-1.4,1.69-2a7.71,7.71,0,0,0,1-1.57,3.91,3.91,0,0,0,.32-1.55,2.82,2.82,0,0,0-1.65-2.66,3.89,3.89,0,0,0-1.73-.37,3.67,3.67,0,0,0-1.77.41,2.9,2.9,0,0,0-1.16,1.17,3.55,3.55,0,0,0-.41,1.76h-2a5.09,5.09,0,0,1,.72-2.72,4.92,4.92,0,0,1,2-1.83,5.8,5.8,0,0,1,2.78-.66,5.59,5.59,0,0,1,2.75.66,4.93,4.93,0,0,1,1.88,1.77,4.57,4.57,0,0,1,.68,2.47,5.16,5.16,0,0,1-.35,1.9,8.27,8.27,0,0,1-1.2,2.06c-.58.76-1.37,1.68-2.38,2.77l-4,4.24v.14h8.21v1.9Z"/><path class="cls-3" d="M597.77,451.9a7.49,7.49,0,0,1-3-.59,5.11,5.11,0,0,1-2.11-1.63,4.31,4.31,0,0,1-.85-2.44h2.17a2.54,2.54,0,0,0,.59,1.47,3.27,3.27,0,0,0,1.35,1,4.85,4.85,0,0,0,1.86.34,4.71,4.71,0,0,0,2-.4,3.24,3.24,0,0,0,1.38-1.1,2.72,2.72,0,0,0,.5-1.64,3.11,3.11,0,0,0-.48-1.72,3.16,3.16,0,0,0-1.41-1.17,5.53,5.53,0,0,0-2.28-.42h-1.41v-1.9h1.41a4.16,4.16,0,0,0,1.85-.38,3,3,0,0,0,1.25-1.07,2.9,2.9,0,0,0,.45-1.62,3,3,0,0,0-.39-1.56,2.72,2.72,0,0,0-1.12-1,3.63,3.63,0,0,0-1.69-.37,4.55,4.55,0,0,0-1.73.33,3.26,3.26,0,0,0-1.31,1,2.47,2.47,0,0,0-.55,1.5h-2.07A4.22,4.22,0,0,1,593,436a5.38,5.38,0,0,1,2.06-1.63,6.63,6.63,0,0,1,2.8-.59,5.64,5.64,0,0,1,2.81.66,4.71,4.71,0,0,1,1.8,1.74,4.55,4.55,0,0,1,.63,2.33,4.15,4.15,0,0,1-.78,2.54,4,4,0,0,1-2.11,1.46v.14A4.12,4.12,0,0,1,602.8,444a4.32,4.32,0,0,1,.94,2.82,4.46,4.46,0,0,1-.78,2.58,5.23,5.23,0,0,1-2.13,1.8A6.85,6.85,0,0,1,597.77,451.9Z"/><path class="cls-3" d="M627.84,434h4.61l4.86,11.86h.21L642.38,434H647v17.66h-3.63v-11.5h-.14l-4.57,11.41h-2.47l-4.57-11.45h-.15v11.54h-3.62Z"/><path class="cls-3" d="M664.78,443.83v-1.94h11.39v1.94Zm4.73,4.72V437.17h1.93v11.38Z"/><path class="cls-3" d="M686,433.75a6.47,6.47,0,0,1,2.17.42,5.28,5.28,0,0,1,2,1.34,6.62,6.62,0,0,1,1.44,2.55,12.83,12.83,0,0,1,.55,4,17.56,17.56,0,0,1-.45,4.18,9.5,9.5,0,0,1-1.28,3.07,5.59,5.59,0,0,1-2,1.9,5.54,5.54,0,0,1-2.68.65,5.76,5.76,0,0,1-2.64-.59,5.14,5.14,0,0,1-1.9-1.65,5.69,5.69,0,0,1-1-2.45h2.11a3.87,3.87,0,0,0,1.13,2,3.17,3.17,0,0,0,2.25.79,3.69,3.69,0,0,0,3.23-1.78,9.11,9.11,0,0,0,1.18-5.05H690a5.72,5.72,0,0,1-1.15,1.25,5,5,0,0,1-1.47.81,5.23,5.23,0,0,1-1.73.29,5.35,5.35,0,0,1-2.78-.76,5.53,5.53,0,0,1-2-2.08,6,6,0,0,1-.75-3,6.11,6.11,0,0,1,.73-3,5.5,5.5,0,0,1,2-2.15A5.83,5.83,0,0,1,686,433.75Zm0,1.9a3.63,3.63,0,0,0-2,.54,3.9,3.9,0,0,0-1.37,1.45,4.05,4.05,0,0,0-.5,2,4.2,4.2,0,0,0,.48,2,3.76,3.76,0,0,0,1.34,1.43,3.62,3.62,0,0,0,1.94.53,3.7,3.7,0,0,0,1.52-.32,4.08,4.08,0,0,0,1.24-.89,4.39,4.39,0,0,0,.83-1.29,3.86,3.86,0,0,0,.3-1.5,4,4,0,0,0-.49-1.94,4.08,4.08,0,0,0-1.36-1.47A3.6,3.6,0,0,0,686,435.65Z"/><path class="cls-3" d="M701.3,451.9a7.28,7.28,0,0,1-3.14-.64,5,5,0,0,1-2.11-1.75,4.29,4.29,0,0,1-.75-2.54,4.68,4.68,0,0,1,.44-2.08A4.51,4.51,0,0,1,697,443.3a3.78,3.78,0,0,1,1.74-.82v-.1a3.45,3.45,0,0,1-2-1.43,4.6,4.6,0,0,1-.06-4.91,4.71,4.71,0,0,1,1.91-1.67,6.41,6.41,0,0,1,5.5,0,4.68,4.68,0,0,1,1.9,1.67,4.44,4.44,0,0,1-.06,4.91,3.44,3.44,0,0,1-2,1.43v.1a3.71,3.71,0,0,1,1.72.82,4.75,4.75,0,0,1,1.23,1.59,4.84,4.84,0,0,1,.46,2.08,4.38,4.38,0,0,1-.77,2.54,5.07,5.07,0,0,1-2.11,1.75A7.16,7.16,0,0,1,701.3,451.9Zm0-1.9a5,5,0,0,0,2.07-.39,3,3,0,0,0,1.34-1.09,3,3,0,0,0,.49-1.66,3.23,3.23,0,0,0-.52-1.77,3.51,3.51,0,0,0-1.38-1.2,4.79,4.79,0,0,0-4,0,3.4,3.4,0,0,0-1.39,1.2,3.13,3.13,0,0,0-.5,1.77,3,3,0,0,0,.46,1.66,3.13,3.13,0,0,0,1.35,1.09A5.13,5.13,0,0,0,701.3,450Zm0-8.38a3.72,3.72,0,0,0,1.69-.38,3,3,0,0,0,1.16-1.06,3.11,3.11,0,0,0,.43-1.6,3,3,0,0,0-.43-1.56,2.74,2.74,0,0,0-1.14-1,3.84,3.84,0,0,0-1.71-.36,3.9,3.9,0,0,0-1.73.36,2.7,2.7,0,0,0-1.15,1,3,3,0,0,0-.4,1.56,3,3,0,0,0,.41,1.6,2.9,2.9,0,0,0,1.16,1.06A3.77,3.77,0,0,0,701.3,441.62Z"/><path class="cls-3" d="M716.33,433.75a6.48,6.48,0,0,1,2.18.42,5.28,5.28,0,0,1,2,1.34,6.62,6.62,0,0,1,1.44,2.55,12.86,12.86,0,0,1,.54,4,18.12,18.12,0,0,1-.44,4.18,9.5,9.5,0,0,1-1.28,3.07,5.62,5.62,0,0,1-2,1.9,5.5,5.5,0,0,1-2.67.65,5.84,5.84,0,0,1-2.65-.59,5.19,5.19,0,0,1-1.89-1.65,5.57,5.57,0,0,1-.95-2.45h2.11a3.8,3.8,0,0,0,1.13,2,3.17,3.17,0,0,0,2.25.79,3.69,3.69,0,0,0,3.23-1.78,9.11,9.11,0,0,0,1.18-5.05h-.14a5.45,5.45,0,0,1-1.14,1.25,5.2,5.2,0,0,1-1.48.81,5.13,5.13,0,0,1-1.72.29,5.35,5.35,0,0,1-2.78-.76,5.46,5.46,0,0,1-2-2.08,6,6,0,0,1-.76-3,6.22,6.22,0,0,1,.73-3,5.53,5.53,0,0,1,2.06-2.15A5.82,5.82,0,0,1,716.33,433.75Zm0,1.9a3.62,3.62,0,0,0-2,.54,3.82,3.82,0,0,0-1.37,1.45,4.06,4.06,0,0,0-.51,2,4.21,4.21,0,0,0,.49,2,3.76,3.76,0,0,0,1.34,1.43,3.58,3.58,0,0,0,1.93.53,3.71,3.71,0,0,0,1.53-.32,4.21,4.21,0,0,0,1.24-.89,4.39,4.39,0,0,0,.83-1.29,3.86,3.86,0,0,0,.3-1.5,4,4,0,0,0-.49-1.94,4.11,4.11,0,0,0-1.37-1.47A3.55,3.55,0,0,0,716.33,435.65Z"/><path class="cls-3" d="M732.16,434v17.66H730V436.24h-.1l-4.32,2.86v-2.17L730,434Z"/><path class="cls-3" d="M737.33,451.66V450.1l5.83-6.38c.68-.74,1.24-1.4,1.69-2a7.22,7.22,0,0,0,1-1.57,3.75,3.75,0,0,0,.33-1.55,2.84,2.84,0,0,0-.45-1.61A2.88,2.88,0,0,0,744.5,436a3.87,3.87,0,0,0-1.72-.37A3.74,3.74,0,0,0,741,436a2.9,2.9,0,0,0-1.16,1.17,3.66,3.66,0,0,0-.41,1.76h-2a4.95,4.95,0,0,1,2.66-4.55,5.86,5.86,0,0,1,2.79-.66,5.62,5.62,0,0,1,2.75.66,5,5,0,0,1,1.88,1.77,4.66,4.66,0,0,1,.68,2.47,5.37,5.37,0,0,1-.35,1.9,8.35,8.35,0,0,1-1.21,2.06c-.57.76-1.36,1.68-2.37,2.77l-4,4.24v.14h8.21v1.9Z"/><path class="cls-3" d="M758.33,434v17.66h-2.14V436.24h-.11l-4.31,2.86v-2.17l4.42-2.93Z"/><path class="cls-3" d="M763.49,451.66V450.1l5.83-6.38c.69-.74,1.25-1.4,1.69-2a6.92,6.92,0,0,0,1-1.57,3.75,3.75,0,0,0,.33-1.55,2.84,2.84,0,0,0-.45-1.61,2.94,2.94,0,0,0-1.21-1.05,3.89,3.89,0,0,0-1.73-.37,3.73,3.73,0,0,0-1.77.41A2.9,2.9,0,0,0,766,437.2a3.66,3.66,0,0,0-.41,1.76h-2a5,5,0,0,1,2.67-4.55,5.82,5.82,0,0,1,2.78-.66,5.57,5.57,0,0,1,2.75.66,4.93,4.93,0,0,1,1.88,1.77,4.58,4.58,0,0,1,.69,2.47,5.37,5.37,0,0,1-.35,1.9,8.67,8.67,0,0,1-1.21,2.06,34.8,34.8,0,0,1-2.38,2.77l-4,4.24v.14h8.21v1.9Z"/><path class="cls-3" d="M784.25,451.9a7.53,7.53,0,0,1-3-.59,5.18,5.18,0,0,1-2.11-1.63,4.38,4.38,0,0,1-.85-2.44h2.17a2.6,2.6,0,0,0,.59,1.47,3.41,3.41,0,0,0,1.35,1,4.85,4.85,0,0,0,1.86.34,4.79,4.79,0,0,0,2-.4,3.37,3.37,0,0,0,1.38-1.1,2.79,2.79,0,0,0,.5-1.64,3,3,0,0,0-.49-1.72,3.16,3.16,0,0,0-1.41-1.17,5.53,5.53,0,0,0-2.28-.42h-1.41v-1.9h1.41a4.16,4.16,0,0,0,1.85-.38A3,3,0,0,0,787,440.2a2.9,2.9,0,0,0,.46-1.62,3,3,0,0,0-.4-1.56,2.72,2.72,0,0,0-1.12-1,3.6,3.6,0,0,0-1.69-.37,4.47,4.47,0,0,0-1.72.33,3.23,3.23,0,0,0-1.32,1,2.47,2.47,0,0,0-.55,1.5h-2.07a4.22,4.22,0,0,1,.84-2.44,5.35,5.35,0,0,1,2-1.63,6.63,6.63,0,0,1,2.8-.59,5.64,5.64,0,0,1,2.81.66,4.67,4.67,0,0,1,1.81,1.74,4.55,4.55,0,0,1,.63,2.33,4.15,4.15,0,0,1-.78,2.54,4.06,4.06,0,0,1-2.12,1.46v.14a4.12,4.12,0,0,1,2.61,1.42,4.27,4.27,0,0,1,.94,2.82,4.46,4.46,0,0,1-.78,2.58,5.23,5.23,0,0,1-2.13,1.8A6.82,6.82,0,0,1,784.25,451.9Z"/><path class="cls-3" d="M793.42,448v-1.75L801.18,434h1.28v2.72h-.86L795.73,446v.14h10.46V448Zm8.32,3.63V434h2v17.66Z"/><path class="cls-3" d="M815,451.9a6,6,0,0,1-2.73-.61,5.07,5.07,0,0,1-1.95-1.65,4.53,4.53,0,0,1-.8-2.4h2.07a2.8,2.8,0,0,0,1.09,2A3.59,3.59,0,0,0,815,450a3.7,3.7,0,0,0,1.94-.51,3.61,3.61,0,0,0,1.34-1.4,4.51,4.51,0,0,0,0-4.09,3.87,3.87,0,0,0-1.38-1.43,4,4,0,0,0-2-.54,5.83,5.83,0,0,0-1.67.25,4.44,4.44,0,0,0-1.4.65l-2-.24L810.9,434h9.18v1.89H812.7l-.62,5.21h.1a4.36,4.36,0,0,1,1.36-.71,5.2,5.2,0,0,1,1.71-.29,5.41,5.41,0,0,1,4.89,2.88,6.23,6.23,0,0,1,.73,3,6,6,0,0,1-.75,3,5.47,5.47,0,0,1-2.08,2.08A5.85,5.85,0,0,1,815,451.9Z"/><path class="cls-3" d="M830.25,451.9a6.38,6.38,0,0,1-2.17-.42,5.12,5.12,0,0,1-2-1.34,6.74,6.74,0,0,1-1.44-2.56,13,13,0,0,1-.54-4.06,18,18,0,0,1,.44-4.17,9.31,9.31,0,0,1,1.28-3.06,5.67,5.67,0,0,1,2-1.89,5.51,5.51,0,0,1,2.68-.65,5.79,5.79,0,0,1,2.64.59,5.19,5.19,0,0,1,1.89,1.65,5.67,5.67,0,0,1,1,2.42h-2.1a4,4,0,0,0-1.14-2,3.14,3.14,0,0,0-2.24-.79,3.67,3.67,0,0,0-3.23,1.79,9.09,9.09,0,0,0-1.19,5h.14a5.13,5.13,0,0,1,1.15-1.26,4.82,4.82,0,0,1,1.48-.8,5.12,5.12,0,0,1,1.71-.29,5.23,5.23,0,0,1,2.78.76,5.65,5.65,0,0,1,2,2.07,6.08,6.08,0,0,1,.76,3,6.17,6.17,0,0,1-.74,3,5.46,5.46,0,0,1-2,2.16A5.82,5.82,0,0,1,830.25,451.9Zm0-1.9a3.62,3.62,0,0,0,2-.54,3.92,3.92,0,0,0,1.37-1.46,4.12,4.12,0,0,0,.51-2,4,4,0,0,0-.49-2,3.79,3.79,0,0,0-1.34-1.44,3.58,3.58,0,0,0-1.93-.53,3.71,3.71,0,0,0-1.53.32,4,4,0,0,0-1.24.89,4.21,4.21,0,0,0-.83,1.28,3.88,3.88,0,0,0-.3,1.51,4.09,4.09,0,0,0,.5,2,4,4,0,0,0,1.36,1.47A3.57,3.57,0,0,0,830.25,450Z"/><path class="cls-3" d="M840.18,451.66l7.9-15.63v-.14H839V434h11.31v2l-7.86,15.66Z"/><path class="cls-3" d="M389.12,480.8V463.14H401v3.07h-8.16v4.21h7.55v3.08h-7.55v4.22h8.2v3.08Z"/><path class="cls-3" d="M420,472.83v8h-2V467.55h2v2.07h.17a3.83,3.83,0,0,1,1.42-1.62,4.35,4.35,0,0,1,2.45-.62,4.8,4.8,0,0,1,2.35.55,3.7,3.7,0,0,1,1.57,1.65,6.23,6.23,0,0,1,.56,2.8v8.42h-2v-8.28a3.47,3.47,0,0,0-.81-2.44,2.91,2.91,0,0,0-2.23-.87,3.56,3.56,0,0,0-1.74.42,3,3,0,0,0-1.2,1.23A4.12,4.12,0,0,0,420,472.83Z"/><path class="cls-3" d="M436.09,481.11a5.32,5.32,0,0,1-2.28-.48,3.75,3.75,0,0,1-2.23-3.59,3.49,3.49,0,0,1,.44-1.85,3.15,3.15,0,0,1,1.2-1.12,6.69,6.69,0,0,1,1.66-.61c.61-.13,1.22-.24,1.84-.32l2-.24a2.93,2.93,0,0,0,1.1-.28.73.73,0,0,0,.35-.69v-.07a2.71,2.71,0,0,0-.69-2,2.85,2.85,0,0,0-2.1-.71,3.69,3.69,0,0,0-2.29.64,3.79,3.79,0,0,0-1.16,1.36l-1.93-.69a4.59,4.59,0,0,1,1.38-1.88,5.23,5.23,0,0,1,1.9-1,7.93,7.93,0,0,1,2-.27,8.5,8.5,0,0,1,1.47.15,4.84,4.84,0,0,1,1.61.62,3.68,3.68,0,0,1,1.3,1.4,5.31,5.31,0,0,1,.52,2.52v8.73h-2V479H440a3.7,3.7,0,0,1-.69.93,4,4,0,0,1-1.29.83A4.94,4.94,0,0,1,436.09,481.11Zm.32-1.83a4.09,4.09,0,0,0,2-.47,3.24,3.24,0,0,0,1.26-1.23,3.11,3.11,0,0,0,.43-1.58v-1.86a1.19,1.19,0,0,1-.56.28,9.5,9.5,0,0,1-1,.22l-1.1.15-.86.11a8.23,8.23,0,0,0-1.48.33,2.61,2.61,0,0,0-1.1.68,1.73,1.73,0,0,0-.42,1.23,1.8,1.8,0,0,0,.79,1.6A3.48,3.48,0,0,0,436.41,479.28Z"/><path class="cls-3" d="M445.89,480.8V467.55h2v2.07H448a3.32,3.32,0,0,1,1.34-1.65,4,4,0,0,1,2.21-.59,3.84,3.84,0,0,1,2.19.59,3.94,3.94,0,0,1,1.37,1.65h.13A3.87,3.87,0,0,1,456.8,468a4.63,4.63,0,0,1,2.44-.61,4,4,0,0,1,2.91,1.11,4.64,4.64,0,0,1,1.13,3.44v8.87h-2v-8.87a2.5,2.5,0,0,0-.8-2.09,3,3,0,0,0-1.89-.63,2.77,2.77,0,0,0-2.16.84,3,3,0,0,0-.77,2.12v8.63h-2.07v-9.07a2.42,2.42,0,0,0-.73-1.83,2.65,2.65,0,0,0-1.89-.69,2.79,2.79,0,0,0-1.48.42,3.13,3.13,0,0,0-1.11,1.17,3.56,3.56,0,0,0-.41,1.72v8.28Z"/><path class="cls-3" d="M472.55,481.07a6.13,6.13,0,0,1-3.29-.85,5.48,5.48,0,0,1-2.13-2.38,8,8,0,0,1-.75-3.56,8.14,8.14,0,0,1,.75-3.59,5.86,5.86,0,0,1,2.08-2.44,5.65,5.65,0,0,1,3.14-.87,6.24,6.24,0,0,1,2,.34,5.18,5.18,0,0,1,1.84,1.12,5.38,5.38,0,0,1,1.32,2A8.66,8.66,0,0,1,478,474v.86H467.83V473.1H476a4.49,4.49,0,0,0-.44-2,3.5,3.5,0,0,0-1.26-1.38,3.58,3.58,0,0,0-1.92-.51,3.65,3.65,0,0,0-2.1.6,4,4,0,0,0-1.36,1.55,4.54,4.54,0,0,0-.47,2.06v1.17a5.58,5.58,0,0,0,.52,2.54,3.71,3.71,0,0,0,1.45,1.58,4.22,4.22,0,0,0,2.16.53A4.48,4.48,0,0,0,474,479a3,3,0,0,0,1.86-1.84l2,.55a4.23,4.23,0,0,1-1,1.75,4.8,4.8,0,0,1-1.81,1.17A6.66,6.66,0,0,1,472.55,481.07Z"/><path class="cls-3" d="M482.63,480.94a1.57,1.57,0,0,1-1.56-1.56,1.5,1.5,0,0,1,.46-1.09,1.49,1.49,0,0,1,1.1-.46,1.57,1.57,0,0,1,1.55,1.55,1.52,1.52,0,0,1-.21.78,1.67,1.67,0,0,1-.56.56A1.53,1.53,0,0,1,482.63,480.94Z"/><path class="cls-3" d="M489.87,463.14V480.8h-2V463.14Z"/><path class="cls-3" d="M497.49,481.11a5.29,5.29,0,0,1-2.28-.48,3.82,3.82,0,0,1-1.63-1.39,3.91,3.91,0,0,1-.6-2.2,3.4,3.4,0,0,1,.44-1.85,3.15,3.15,0,0,1,1.2-1.12,6.69,6.69,0,0,1,1.66-.61c.61-.13,1.22-.24,1.83-.32l2-.24a2.93,2.93,0,0,0,1.1-.28.73.73,0,0,0,.35-.69v-.07a2.71,2.71,0,0,0-.69-2,2.85,2.85,0,0,0-2.1-.71,3.69,3.69,0,0,0-2.29.64,3.79,3.79,0,0,0-1.16,1.36l-1.94-.69a4.7,4.7,0,0,1,1.39-1.88,5.23,5.23,0,0,1,1.9-1,7.93,7.93,0,0,1,2-.27,8.5,8.5,0,0,1,1.47.15,4.84,4.84,0,0,1,1.61.62,3.68,3.68,0,0,1,1.3,1.4,5.32,5.32,0,0,1,.51,2.52v8.73h-2V479h-.1a3.7,3.7,0,0,1-.69.93,4.16,4.16,0,0,1-1.29.83A4.94,4.94,0,0,1,497.49,481.11Zm.31-1.83a4.1,4.1,0,0,0,2-.47,3.24,3.24,0,0,0,1.26-1.23,3.11,3.11,0,0,0,.43-1.58v-1.86a1.18,1.18,0,0,1-.57.28,9,9,0,0,1-1,.22l-1.09.15-.86.11a8.23,8.23,0,0,0-1.48.33,2.61,2.61,0,0,0-1.1.68,1.73,1.73,0,0,0-.42,1.23,1.8,1.8,0,0,0,.79,1.6A3.47,3.47,0,0,0,497.8,479.28Z"/><path class="cls-3" d="M516.67,470.52l-1.83.52a3.36,3.36,0,0,0-.5-.9,2.52,2.52,0,0,0-.9-.72,3.28,3.28,0,0,0-1.46-.28,3.48,3.48,0,0,0-2,.55,1.66,1.66,0,0,0-.81,1.41,1.46,1.46,0,0,0,.55,1.2,4.63,4.63,0,0,0,1.73.74l2,.48a5.45,5.45,0,0,1,2.64,1.31,3.11,3.11,0,0,1,.87,2.28,3.35,3.35,0,0,1-.65,2,4.41,4.41,0,0,1-1.81,1.42,6.72,6.72,0,0,1-2.71.51,5.9,5.9,0,0,1-3.35-.88,3.89,3.89,0,0,1-1.69-2.57l1.94-.48a2.65,2.65,0,0,0,1,1.6,3.48,3.48,0,0,0,2,.54,3.76,3.76,0,0,0,2.26-.61,1.76,1.76,0,0,0,.84-1.46,1.55,1.55,0,0,0-.48-1.16,3.09,3.09,0,0,0-1.49-.7l-2.2-.52a5.16,5.16,0,0,1-2.67-1.34,3.21,3.21,0,0,1-.85-2.28,3.3,3.3,0,0,1,.63-2,4.29,4.29,0,0,1,1.73-1.35,6.06,6.06,0,0,1,2.5-.49,5,5,0,0,1,3.09.86A4.62,4.62,0,0,1,516.67,470.52Z"/><path class="cls-3" d="M525.74,467.55v1.73h-6.86v-1.73Zm-4.86-3.17h2V477a2.56,2.56,0,0,0,.25,1.29,1.21,1.21,0,0,0,.66.57,2.37,2.37,0,0,0,.85.14,2.88,2.88,0,0,0,.55,0l.34-.06.42,1.83c-.14,0-.33.1-.58.16a4.84,4.84,0,0,1-.94.08,4,4,0,0,1-1.69-.37,3.3,3.3,0,0,1-1.36-1.13,3.23,3.23,0,0,1-.54-1.92Z"/><path class="cls-3" d="M530.85,472.83v8h-2V467.55h2v2.07H531a3.77,3.77,0,0,1,1.42-1.62,4.35,4.35,0,0,1,2.45-.62,4.8,4.8,0,0,1,2.35.55,3.7,3.7,0,0,1,1.57,1.65,6.23,6.23,0,0,1,.56,2.8v8.42h-2v-8.28a3.47,3.47,0,0,0-.81-2.44,2.92,2.92,0,0,0-2.23-.87,3.56,3.56,0,0,0-1.74.42,3,3,0,0,0-1.2,1.23A4.12,4.12,0,0,0,530.85,472.83Z"/><path class="cls-3" d="M546.92,481.11a5.29,5.29,0,0,1-2.28-.48,3.82,3.82,0,0,1-1.63-1.39,3.91,3.91,0,0,1-.6-2.2,3.4,3.4,0,0,1,.44-1.85,3.15,3.15,0,0,1,1.2-1.12,6.69,6.69,0,0,1,1.66-.61c.61-.13,1.22-.24,1.83-.32l2-.24a2.93,2.93,0,0,0,1.1-.28.73.73,0,0,0,.35-.69v-.07a2.71,2.71,0,0,0-.69-2,2.85,2.85,0,0,0-2.1-.71,3.69,3.69,0,0,0-2.29.64,3.79,3.79,0,0,0-1.16,1.36l-1.94-.69a4.7,4.7,0,0,1,1.39-1.88,5.23,5.23,0,0,1,1.9-1,7.93,7.93,0,0,1,2-.27,8.5,8.5,0,0,1,1.47.15,4.84,4.84,0,0,1,1.61.62,3.68,3.68,0,0,1,1.3,1.4,5.32,5.32,0,0,1,.51,2.52v8.73h-2V479h-.1a3.7,3.7,0,0,1-.69.93,4.16,4.16,0,0,1-1.29.83A4.94,4.94,0,0,1,546.92,481.11Zm.31-1.83a4.1,4.1,0,0,0,2-.47,3.24,3.24,0,0,0,1.26-1.23A3.11,3.11,0,0,0,551,476v-1.86a1.19,1.19,0,0,1-.56.28,9.72,9.72,0,0,1-1,.22l-1.09.15-.86.11a8.23,8.23,0,0,0-1.48.33,2.61,2.61,0,0,0-1.1.68,1.73,1.73,0,0,0-.42,1.23,1.8,1.8,0,0,0,.79,1.6A3.47,3.47,0,0,0,547.23,479.28Z"/><path class="cls-3" d="M556.72,480.8V467.55h2v2.07h.17A3.32,3.32,0,0,1,560.2,468a4,4,0,0,1,2.21-.59,3.62,3.62,0,0,1,3.55,2.24h.14a3.87,3.87,0,0,1,1.53-1.63,4.63,4.63,0,0,1,2.44-.61,4,4,0,0,1,2.91,1.11,4.64,4.64,0,0,1,1.13,3.44v8.87h-2v-8.87a2.5,2.5,0,0,0-.8-2.09,3,3,0,0,0-1.89-.63,2.77,2.77,0,0,0-2.16.84,3,3,0,0,0-.77,2.12v8.63h-2.07v-9.07a2.42,2.42,0,0,0-.73-1.83,2.65,2.65,0,0,0-1.89-.69,2.76,2.76,0,0,0-1.48.42,3.13,3.13,0,0,0-1.11,1.17,3.45,3.45,0,0,0-.41,1.72v8.28Z"/><path class="cls-3" d="M583.38,481.07a6.13,6.13,0,0,1-3.29-.85,5.48,5.48,0,0,1-2.13-2.38,8,8,0,0,1-.75-3.56,8.14,8.14,0,0,1,.75-3.59,5.86,5.86,0,0,1,2.08-2.44,5.65,5.65,0,0,1,3.14-.87,6.24,6.24,0,0,1,2,.34,5.18,5.18,0,0,1,1.84,1.12,5.38,5.38,0,0,1,1.32,2,8.66,8.66,0,0,1,.49,3.12v.86H578.66V473.1h8.14a4.49,4.49,0,0,0-.44-2,3.5,3.5,0,0,0-1.26-1.38,3.58,3.58,0,0,0-1.92-.51,3.65,3.65,0,0,0-2.1.6,4,4,0,0,0-1.36,1.55,4.55,4.55,0,0,0-.48,2.06v1.17a5.58,5.58,0,0,0,.53,2.54,3.65,3.65,0,0,0,1.45,1.58,4.22,4.22,0,0,0,2.16.53,4.48,4.48,0,0,0,1.46-.22,3,3,0,0,0,1.86-1.84l2,.55a4.34,4.34,0,0,1-1,1.75,4.8,4.8,0,0,1-1.81,1.17A6.66,6.66,0,0,1,583.38,481.07Z"/><path class="cls-3" d="M602.15,485.45a13.93,13.93,0,0,1-4.67-.72,8.87,8.87,0,0,1-3.4-2.11,9,9,0,0,1-2.09-3.43,14,14,0,0,1-.71-4.64A13.27,13.27,0,0,1,592,470a9.21,9.21,0,0,1,2.1-3.38,9.11,9.11,0,0,1,3.34-2.13,13,13,0,0,1,4.47-.73,10.52,10.52,0,0,1,4.24.79,8.83,8.83,0,0,1,4.9,5.14,10,10,0,0,1,.62,3.45c0,.84,0,1.68-.12,2.54a9.49,9.49,0,0,1-.51,2.36,4,4,0,0,1-1.19,1.73,3.41,3.41,0,0,1-2.18.65,5.13,5.13,0,0,1-1.33-.19,3.27,3.27,0,0,1-1.28-.63,1.71,1.71,0,0,1-.67-1.18h-.1a3.12,3.12,0,0,1-.64.95,3,3,0,0,1-1.11.72,4.8,4.8,0,0,1-3.64-.28,4.09,4.09,0,0,1-1.43-1.25,5.78,5.78,0,0,1-.86-1.86,8.68,8.68,0,0,1-.29-2.28,6.26,6.26,0,0,1,.34-2.13,5.22,5.22,0,0,1,1-1.69,4.88,4.88,0,0,1,1.44-1.16,5.08,5.08,0,0,1,1.8-.54,5,5,0,0,1,1.57.07,3.49,3.49,0,0,1,1.17.48,1.39,1.39,0,0,1,.57.69h.11v-1h1.83V477a2.1,2.1,0,0,0,.4,1.28,1.37,1.37,0,0,0,1.18.55,1.6,1.6,0,0,0,1.35-.6,4,4,0,0,0,.65-1.87,23.39,23.39,0,0,0,.18-3.22,8.42,8.42,0,0,0-.32-2.28,7.56,7.56,0,0,0-.95-2.11A6.72,6.72,0,0,0,607,467a7.35,7.35,0,0,0-2.26-1.18,9.29,9.29,0,0,0-3-.43,9.78,9.78,0,0,0-3.62.63,7.2,7.2,0,0,0-2.72,1.82,8,8,0,0,0-1.7,2.89,11.92,11.92,0,0,0-.58,3.87,12,12,0,0,0,.58,3.91,7.58,7.58,0,0,0,1.73,2.88,7.39,7.39,0,0,0,2.83,1.78,11.41,11.41,0,0,0,3.9.61,9.79,9.79,0,0,0,1.87-.18c.61-.12,1.16-.26,1.63-.4l1-.32.48,1.59a10.9,10.9,0,0,1-1.39.45,17.91,17.91,0,0,1-1.83.37A12.06,12.06,0,0,1,602.15,485.45Zm-1-6.86a3.39,3.39,0,0,0,1.87-.47,2.65,2.65,0,0,0,1-1.4,7.28,7.28,0,0,0,.33-2.37,5.7,5.7,0,0,0-.36-2.26A2.18,2.18,0,0,0,603,471a4.09,4.09,0,0,0-1.74-.33,2.75,2.75,0,0,0-1.68.51,3.3,3.3,0,0,0-1.06,1.37,4.66,4.66,0,0,0-.37,1.85,7,7,0,0,0,.3,2.07,3.33,3.33,0,0,0,1,1.57A2.58,2.58,0,0,0,601.15,478.59Z"/><path class="cls-3" d="M615,480.8V463.14h2v6.52h.17c.15-.23.36-.53.62-.89a3.65,3.65,0,0,1,1.16-1,4.09,4.09,0,0,1,2-.43,5.25,5.25,0,0,1,3,.84,5.5,5.5,0,0,1,2,2.37,9.63,9.63,0,0,1,0,7.26,5.64,5.64,0,0,1-2,2.38,5.19,5.19,0,0,1-2.93.84,4.24,4.24,0,0,1-2-.42,3.67,3.67,0,0,1-1.18-1,10.92,10.92,0,0,1-.64-.91H617v2Zm2-6.63a7.43,7.43,0,0,0,.44,2.65,3.91,3.91,0,0,0,1.29,1.78,3.69,3.69,0,0,0,4.2,0,4.12,4.12,0,0,0,1.29-1.83,7.22,7.22,0,0,0,.44-2.57,6.94,6.94,0,0,0-.43-2.52,3.92,3.92,0,0,0-1.28-1.78,3.83,3.83,0,0,0-4.24,0,3.89,3.89,0,0,0-1.28,1.74A7.2,7.2,0,0,0,617,474.17Z"/><path class="cls-3" d="M633.68,481.11a5.37,5.37,0,0,1-2.29-.48,3.75,3.75,0,0,1-2.23-3.59,3.4,3.4,0,0,1,.45-1.85,3.12,3.12,0,0,1,1.19-1.12,6.69,6.69,0,0,1,1.66-.61c.61-.13,1.22-.24,1.84-.32l2-.24a2.93,2.93,0,0,0,1.1-.28.71.71,0,0,0,.35-.69v-.07a2.71,2.71,0,0,0-.69-2,2.82,2.82,0,0,0-2.1-.71,3.71,3.71,0,0,0-2.29.64,3.79,3.79,0,0,0-1.16,1.36l-1.93-.69a4.59,4.59,0,0,1,1.38-1.88,5.23,5.23,0,0,1,1.9-1,8,8,0,0,1,2-.27,8.5,8.5,0,0,1,1.47.15,4.84,4.84,0,0,1,1.61.62,3.61,3.61,0,0,1,1.3,1.4,5.31,5.31,0,0,1,.52,2.52v8.73h-2V479h-.1a3.7,3.7,0,0,1-.69.93,4,4,0,0,1-1.29.83A4.89,4.89,0,0,1,633.68,481.11Zm.31-1.83a4.16,4.16,0,0,0,2-.47,3.39,3.39,0,0,0,1.26-1.23,3.2,3.2,0,0,0,.42-1.58v-1.86a1.14,1.14,0,0,1-.56.28,9.5,9.5,0,0,1-1,.22l-1.1.15-.86.11a8.23,8.23,0,0,0-1.48.33,2.61,2.61,0,0,0-1.1.68,1.73,1.73,0,0,0-.42,1.23,1.82,1.82,0,0,0,.79,1.6A3.5,3.5,0,0,0,634,479.28Z"/><path class="cls-3" d="M652.86,470.52,651,471a3.7,3.7,0,0,0-.51-.9,2.52,2.52,0,0,0-.9-.72,3.25,3.25,0,0,0-1.46-.28,3.48,3.48,0,0,0-2,.55,1.65,1.65,0,0,0-.8,1.41,1.44,1.44,0,0,0,.55,1.2,4.57,4.57,0,0,0,1.72.74l2,.48a5.49,5.49,0,0,1,2.65,1.31,3.11,3.11,0,0,1,.87,2.28,3.41,3.41,0,0,1-.65,2,4.44,4.44,0,0,1-1.82,1.42,6.72,6.72,0,0,1-2.71.51,5.9,5.9,0,0,1-3.35-.88,3.84,3.84,0,0,1-1.68-2.57l1.93-.48a2.62,2.62,0,0,0,1,1.6,3.43,3.43,0,0,0,2,.54,3.74,3.74,0,0,0,2.26-.61,1.76,1.76,0,0,0,.84-1.46,1.55,1.55,0,0,0-.48-1.16,3.1,3.1,0,0,0-1.48-.7l-2.21-.52a5.24,5.24,0,0,1-2.67-1.34,3.21,3.21,0,0,1-.85-2.28,3.3,3.3,0,0,1,.63-2,4.33,4.33,0,0,1,1.74-1.35,6,6,0,0,1,2.49-.49,5,5,0,0,1,3.1.86A4.69,4.69,0,0,1,652.86,470.52Z"/><path class="cls-3" d="M660.06,481.11a5.32,5.32,0,0,1-2.28-.48,3.75,3.75,0,0,1-2.23-3.59,3.49,3.49,0,0,1,.44-1.85,3.15,3.15,0,0,1,1.2-1.12,6.69,6.69,0,0,1,1.66-.61c.61-.13,1.22-.24,1.84-.32l2-.24a2.93,2.93,0,0,0,1.1-.28.73.73,0,0,0,.35-.69v-.07a2.71,2.71,0,0,0-.69-2,2.85,2.85,0,0,0-2.1-.71,3.69,3.69,0,0,0-2.29.64,3.79,3.79,0,0,0-1.16,1.36l-1.93-.69a4.59,4.59,0,0,1,1.38-1.88,5.23,5.23,0,0,1,1.9-1,7.93,7.93,0,0,1,2-.27,8.5,8.5,0,0,1,1.47.15,4.84,4.84,0,0,1,1.61.62,3.68,3.68,0,0,1,1.3,1.4,5.31,5.31,0,0,1,.52,2.52v8.73h-2V479H664a3.7,3.7,0,0,1-.69.93,4.16,4.16,0,0,1-1.29.83A4.94,4.94,0,0,1,660.06,481.11Zm.32-1.83a4.09,4.09,0,0,0,2-.47,3.24,3.24,0,0,0,1.26-1.23,3.11,3.11,0,0,0,.43-1.58v-1.86a1.19,1.19,0,0,1-.56.28,9.5,9.5,0,0,1-1,.22l-1.1.15-.86.11a8.23,8.23,0,0,0-1.48.33,2.61,2.61,0,0,0-1.1.68,1.73,1.73,0,0,0-.42,1.23,1.8,1.8,0,0,0,.79,1.6A3.48,3.48,0,0,0,660.38,479.28Z"/><path class="cls-3" d="M671.9,463.14V480.8h-2V463.14Z"/><path class="cls-3" d="M679.52,481.11a5.37,5.37,0,0,1-2.29-.48A3.75,3.75,0,0,1,675,477a3.4,3.4,0,0,1,.45-1.85,3.15,3.15,0,0,1,1.2-1.12,6.54,6.54,0,0,1,1.66-.61c.6-.13,1.21-.24,1.83-.32l2-.24a3.05,3.05,0,0,0,1.11-.28.73.73,0,0,0,.35-.69v-.07a2.72,2.72,0,0,0-.7-2,2.82,2.82,0,0,0-2.1-.71,3.68,3.68,0,0,0-2.28.64,3.83,3.83,0,0,0-1.17,1.36l-1.93-.69a4.68,4.68,0,0,1,1.38-1.88,5.23,5.23,0,0,1,1.9-1,8,8,0,0,1,2-.27,8.32,8.32,0,0,1,1.47.15,4.89,4.89,0,0,1,1.62.62,3.59,3.59,0,0,1,1.29,1.4,5.19,5.19,0,0,1,.52,2.52v8.73h-2V479h-.11a3.7,3.7,0,0,1-.69.93,4.11,4.11,0,0,1-1.28.83A5,5,0,0,1,679.52,481.11Zm.31-1.83a4.16,4.16,0,0,0,2-.47,3.39,3.39,0,0,0,1.26-1.23,3.21,3.21,0,0,0,.43-1.58v-1.86a1.24,1.24,0,0,1-.57.28,9,9,0,0,1-1,.22l-1.1.15-.85.11a8,8,0,0,0-1.48.33,2.58,2.58,0,0,0-1.11.68,1.73,1.73,0,0,0-.41,1.23,1.82,1.82,0,0,0,.78,1.6A3.5,3.5,0,0,0,679.83,479.28Z"/><path class="cls-3" d="M689.32,480.8V467.55h2v2.07h.17a3.37,3.37,0,0,1,1.34-1.65,4.06,4.06,0,0,1,2.22-.59,3.65,3.65,0,0,1,3.55,2.24h.14a3.91,3.91,0,0,1,1.52-1.63,4.65,4.65,0,0,1,2.44-.61,4,4,0,0,1,2.91,1.11,4.64,4.64,0,0,1,1.13,3.44v8.87h-2v-8.87a2.48,2.48,0,0,0-.81-2.09,3,3,0,0,0-1.89-.63,2.77,2.77,0,0,0-2.16.84,3,3,0,0,0-.77,2.12v8.63H697v-9.07a2.39,2.39,0,0,0-.73-1.83,2.65,2.65,0,0,0-1.89-.69,2.79,2.79,0,0,0-1.48.42,3.18,3.18,0,0,0-1.1,1.17,3.45,3.45,0,0,0-.42,1.72v8.28Z"/><path class="cls-3" d="M711.91,480.94a1.55,1.55,0,0,1-1.55-1.56,1.55,1.55,0,0,1,1.55-1.55,1.57,1.57,0,0,1,1.55,1.55,1.52,1.52,0,0,1-.21.78,1.67,1.67,0,0,1-.56.56A1.48,1.48,0,0,1,711.91,480.94Z"/><path class="cls-3" d="M722.5,481.07a5.72,5.72,0,0,1-3.21-.88,5.64,5.64,0,0,1-2.07-2.42,9,9,0,0,1,0-7.09,6,6,0,0,1,2.09-2.43,5.62,5.62,0,0,1,3.13-.87,5.85,5.85,0,0,1,2.52.52,4.78,4.78,0,0,1,1.84,1.44,4.6,4.6,0,0,1,.89,2.18h-2a3.15,3.15,0,0,0-1-1.61,3.1,3.1,0,0,0-2.14-.7,3.56,3.56,0,0,0-2.08.61,4,4,0,0,0-1.39,1.74,6.36,6.36,0,0,0-.5,2.61,6.68,6.68,0,0,0,.49,2.68,4,4,0,0,0,1.38,1.77,3.52,3.52,0,0,0,2.1.62,3.7,3.7,0,0,0,1.44-.27,3,3,0,0,0,1.73-2h2a4.71,4.71,0,0,1-2.64,3.6A5.79,5.79,0,0,1,722.5,481.07Z"/><path class="cls-3" d="M736.05,481.07a5.57,5.57,0,0,1-5.24-3.24,7.94,7.94,0,0,1-.76-3.59,8,8,0,0,1,.76-3.61,5.8,5.8,0,0,1,10.49,0,8,8,0,0,1,.76,3.61,7.94,7.94,0,0,1-.76,3.59,5.57,5.57,0,0,1-5.25,3.24Zm0-1.83a3.55,3.55,0,0,0,2.25-.69,4.18,4.18,0,0,0,1.3-1.84,7.47,7.47,0,0,0,0-4.94,4.24,4.24,0,0,0-1.3-1.86,4,4,0,0,0-4.49,0,4.24,4.24,0,0,0-1.3,1.86,7.47,7.47,0,0,0,0,4.94,4.18,4.18,0,0,0,1.3,1.84A3.54,3.54,0,0,0,736.05,479.24Z"/><path class="cls-3" d="M745.16,480.8V467.55h2v2.07h.17a3.32,3.32,0,0,1,1.34-1.65,4,4,0,0,1,2.21-.59A3.84,3.84,0,0,1,753,468a3.94,3.94,0,0,1,1.37,1.65h.13a3.87,3.87,0,0,1,1.53-1.63,4.63,4.63,0,0,1,2.44-.61,4,4,0,0,1,2.91,1.11,4.64,4.64,0,0,1,1.13,3.44v8.87h-2v-8.87a2.5,2.5,0,0,0-.8-2.09,3,3,0,0,0-1.89-.63,2.77,2.77,0,0,0-2.16.84,3,3,0,0,0-.77,2.12v8.63h-2.07v-9.07a2.42,2.42,0,0,0-.73-1.83,2.65,2.65,0,0,0-1.89-.69,2.79,2.79,0,0,0-1.48.42,3.13,3.13,0,0,0-1.11,1.17,3.56,3.56,0,0,0-.41,1.72v8.28Z"/></g></svg>