<svg xmlns="http://www.w3.org/2000/svg" viewBox="0 0 1152 648"><defs><style>.cls-1{fill:#e5e5e5;}.cls-2{fill:#ff5c35;}.cls-3{fill:#222221;}</style></defs><g id="Background"><rect class="cls-1" x="352.72" y="-80.27" width="466.56" height="828.55" rx="40.22" transform="translate(920 -252) rotate(90)"/></g><g id="Graphic"><rect class="cls-2" x="342.72" y="-90.27" width="466.56" height="828.55" rx="40.22" transform="translate(900 -252) rotate(90)"/><path class="cls-3" d="M400.88,312.16a18.5,18.5,0,0,1-4.77-13,37.9,37.9,0,0,1,5.2-19.24,45.89,45.89,0,0,1,13.36-14.81,6.13,6.13,0,0,1,3.58-1.2,3.81,3.81,0,0,1,2.81,1.11,3.64,3.64,0,0,1,1.1,2.64,5.92,5.92,0,0,1-2,4.09,30.83,30.83,0,0,0-6.81,8.85,19.66,19.66,0,0,0-2.38,8.68h2.21a13.41,13.41,0,0,1,9.71,4,13.17,13.17,0,0,1,4.08,9.79,13.56,13.56,0,0,1-4.08,9.79,13.14,13.14,0,0,1-9.71,4.17A14.87,14.87,0,0,1,400.88,312.16Zm.68,39.17a15.63,15.63,0,0,1-4.25-11.16,14.52,14.52,0,0,1,4.25-10.72,14.75,14.75,0,0,1,10.9-4.26,15,15,0,0,1,10.9,4.34,14.35,14.35,0,0,1,4.42,10.64,15.32,15.32,0,0,1-4.42,11.16,14.72,14.72,0,0,1-10.9,4.51A14.35,14.35,0,0,1,401.56,351.33Z"/><path class="cls-3" d="M457.92,428.71a3.37,3.37,0,0,1-2.21.85,2.35,2.35,0,0,1-2-1,5.89,5.89,0,0,1-.94-3.06q-1.87-23.67-8.51-87.18a20,20,0,0,1,3.15-12A33.35,33.35,0,0,1,457,315.91q5.88-4.17,11.49-4.17a11.68,11.68,0,0,1,6.48,1.87q13.62-26.22,30-26.22a18.61,18.61,0,0,1,4.09.34q11.58,2.22,16.77,11.49t5.19,22a59.19,59.19,0,0,1-.68,9.54q-3.24,22.31-16.34,25a29.84,29.84,0,0,1-5.79.51q-9.54,0-21.54-5.19A104.88,104.88,0,0,1,462,335.58q4.77,40.35,4.77,58.57a75.62,75.62,0,0,1-.68,11.58q-1,5.44-6.47,20.6A6.42,6.42,0,0,1,457.92,428.71Zm60-107.61a22.2,22.2,0,0,0-7.32-7.4,19.4,19.4,0,0,0-10.65-3,18.32,18.32,0,0,0-8.85,2.21,14.91,14.91,0,0,0-6.3,6.64,57.25,57.25,0,0,0,15,7.49q9.19,3.24,15.84,3.24a15.56,15.56,0,0,0,5.11-.68A18.27,18.27,0,0,0,517.94,321.1Z"/><path class="cls-3" d="M645,325.19v28.95h-1.36q-17.2,0-24.52-16.18a73.35,73.35,0,0,1-15.66,15.66,82,82,0,0,1-18.73,10.56q-9.54,3.75-16.86,3.75-2.89,0-11.15-7.32t-11.84-12.43a2.56,2.56,0,0,1-.68-1.88q0-2.55,4.09-2.72,22.81-.68,38.82-6.64a52.49,52.49,0,0,0-7.58-18.65A119.08,119.08,0,0,0,565.7,300.5q-8-8.5-21.12-21.11l11.58-23.33c.91-1.93,2-2.89,3.24-2.89s2.27.85,3.4,2.55q14.64,24.18,22.14,38.82a96.22,96.22,0,0,1,9.7,28.61,28.91,28.91,0,0,1,.34,5.45c0,2.15-.06,3.74-.17,4.76a37.34,37.34,0,0,0,14.13-12.6q4.93-7.65,3.92-18.39-1.53-16.5-2.73-25.2t-4.25-28.77l20.77-15.84a5.18,5.18,0,0,1,3.07-1.36,2.51,2.51,0,0,1,2.12,1,5.06,5.06,0,0,1,.77,3.07q0,18.22-2.72,66.57c-.12,1.48-.17,3.47-.17,6q0,9.38,2.89,13.37t11.58,4Z"/><path class="cls-3" d="M757,299.56a91.15,91.15,0,0,1,2.47,20.52,48.18,48.18,0,0,1-.85,9.88,38.06,38.06,0,0,1-8.35,16.77q-6.3,7.41-18,7.41h-.69a19.22,19.22,0,0,1-11.74-3.92q-5.28-3.92-7.33-12.09-2.38,8.17-8.17,12.09a20.33,20.33,0,0,1-11.41,3.92h-.34q-18.74,0-23-16A23.42,23.42,0,0,1,659.34,350a28.09,28.09,0,0,1-14.3,4.18h-1.36V325.19H645q8.85,0,13.88-2.3a17.73,17.73,0,0,0,7.66-6.3,51.64,51.64,0,0,0,5.19-11.49,6.44,6.44,0,0,1,2-2.9,4.4,4.4,0,0,1,2.81-1,4.1,4.1,0,0,1,3,1.28,4.49,4.49,0,0,1,1.27,3.32,4.94,4.94,0,0,1-.17,1.53,26.18,26.18,0,0,0-.68,6q0,11.93,12.94,11.92c3.86,0,6.79-.65,8.77-2a11.52,11.52,0,0,0,4.43-5.79,78.46,78.46,0,0,0,3-11.49,6.59,6.59,0,0,1,1.79-3.41,4,4,0,0,1,2.81-1.19,4.11,4.11,0,0,1,3.23,1.62,5.33,5.33,0,0,1,1.19,4,36.81,36.81,0,0,0-.17,4.09q0,14.13,13.8,14.13h.51A35.16,35.16,0,0,0,741.5,324q4.34-1.19,5.87-3.75-2.73-5.79-13.28-20.26l12.6-14.81c1-1.25,2-1.88,2.89-1.88.68,0,1.48.63,2.39,1.88Q754.52,288.93,757,299.56Z"/></g></svg>