<svg xmlns="http://www.w3.org/2000/svg" viewBox="0 0 648 648"><defs><style>.cls-1{fill:#e5e5e5;}.cls-2{fill:#fde9e1;}.cls-3{fill:#222221;}</style></defs><g id="Background"><rect class="cls-1" x="135.37" y="55.36" width="397.27" height="557.28"/></g><g id="Graphic"><rect class="cls-2" x="125.37" y="45.36" width="397.27" height="557.28"/><path class="cls-3" d="M320.65,100.29a.82.82,0,0,1-.66.84.69.69,0,0,0,.12,1.36h.12a2.18,2.18,0,0,0,1.79-2.21.69.69,0,1,0-1.37,0Z"/><path class="cls-3" d="M321.1,83.32c-.36.09-.58.61-.48,1.15s.47.91.83.81.57-.62.48-1.16S321.46,83.22,321.1,83.32Z"/><path class="cls-3" d="M325.94,85.28c.37-.1.58-.62.48-1.16s-.46-.9-.83-.8-.57.61-.48,1.15S325.58,85.38,325.94,85.28Z"/><path class="cls-3" d="M322,88.32a.68.68,0,0,0,.68.62h.07l2.28-.22-.78-3.53a.69.69,0,0,0-.82-.52.68.68,0,0,0-.52.81l.45,2-.75.07A.68.68,0,0,0,322,88.32Z"/><path class="cls-3" d="M321.57,90.53a.69.69,0,0,0,.25.94,3.64,3.64,0,0,0,5-1.29.69.69,0,0,0-1.18-.7,2.31,2.31,0,0,1-1.38,1,2.25,2.25,0,0,1-1.72-.25A.69.69,0,0,0,321.57,90.53Z"/><path class="cls-3" d="M338,103.76c-.63-1.1-2.32-1.16-3.15.36a4.28,4.28,0,0,1-1.36,1.6l-.74-1.24,1.42-.79-4.69-11.35a7.09,7.09,0,0,0,.7-.65,8,8,0,0,0,1.73-7,3.86,3.86,0,0,1,.2-2.88c.95-1.53.49-2.67-.19-3.19a2.64,2.64,0,0,0-3.48.61l-.33-4.66a3.21,3.21,0,0,0-1-2.22,2.14,2.14,0,0,0-2.47-.19V72a3.27,3.27,0,0,0-1-2.24,2,2,0,0,0-1.49-.47,2.56,2.56,0,0,0-2.08,2.32,1.88,1.88,0,0,0-1-.17c-1.51.14-2.2,1.64-2.11,3l.16,2.2a1.63,1.63,0,0,0-.73-.08c-1.25.14-2,1.3-1.87,3l.49,7h0v.18A8.91,8.91,0,0,0,318,93a6.7,6.7,0,0,1-4.41,6.84l-.57.22-4.06,1.24,1.23,4.12,1.19-.15a4.91,4.91,0,0,0-.2,3.6,1.69,1.69,0,0,0,2.35,1.25c.93-.46,1.42-1.42.56-2.77-1-1.56-.59-2.16-.31-2.37h.08l.36,1.13.47,0,.94,0c6.38,0,8-4.18,8.1-4.37a.69.69,0,0,0-.4-.88.7.7,0,0,0-.89.4s-1.42,3.62-7.2,3.47l-1.15-3.66h0a8.06,8.06,0,0,0,5.27-7.21,4.62,4.62,0,0,0,.93.37l.14,0a.68.68,0,0,0,.15-1.35s-3.78-1.08-4.17-6.56l-.49-7c0-.14-.08-1.42.65-1.5a.31.31,0,0,1,.26.09,2.06,2.06,0,0,1,.51,1.31l0,.25.28,4a.68.68,0,0,0,1.36-.1L318.72,80h0l0-.48v-.25h0l-.35-4.89c0-.6.15-1.51.87-1.58a.6.6,0,0,1,.48.15,2,2,0,0,1,.53,1.3h0l.46,6.59a.69.69,0,0,0,.69.64h0a.68.68,0,0,0,.64-.73l-.6-8.53c-.05-.74.38-1.53.86-1.58a.6.6,0,0,1,.48.16,1.9,1.9,0,0,1,.53,1.29l.61,8.53a.68.68,0,0,0,1.36-.1l-.4-5.67v0c0-.58.16-1.52.85-1.57a.65.65,0,0,1,.53.16,1.92,1.92,0,0,1,.5,1.28l.72,10.24s0,0,0,.07,0,0,0,.05l0,.08a.08.08,0,0,0,0,0l0,.07a.64.64,0,0,0,.2.2l0,0,.07,0a.05.05,0,0,1,0,0l.07,0h.36l.06,0,.06,0,.06,0,.06,0,.05,0,0-.05a.1.1,0,0,0,0,0l0,0,0-.06,0-.06s0,0,0-.07a.14.14,0,0,0,0-.06V84.9s0,0,0-.06c0-.28-.06-.9-.1-1.35l0-.4a4.12,4.12,0,0,1,.54-2.7c.21-.28,1.13-1.19,1.84-.66.3.23.25.73-.14,1.36a5.2,5.2,0,0,0-.39,3.85,6.59,6.59,0,0,1-1.4,5.83,5.24,5.24,0,0,1-.84.74.71.71,0,0,0-.14.1,4.53,4.53,0,0,1-2.68.83.69.69,0,0,0-.74.63.69.69,0,0,0,.63.74h.32a5.8,5.8,0,0,0,2.61-.7l3,7.33a2.14,2.14,0,0,1-1.63,1.06.69.69,0,0,0,.13,1.36l.14,0a3.86,3.86,0,0,0,2-.95l.49,1.19-.4.22h0L329.1,105l-6.58-8.79a.69.69,0,1,0-1.1.82l7.3,9.75h0l2.67,3.57,3.62-2-.49-.83a6.51,6.51,0,0,0,2.43-1C338.33,105.56,338.35,104.35,338,103.76Z"/><path class="cls-3" d="M328.74,137.06l-1.16.28-.09,4.73a.52.52,0,0,0,.51.52h0a.5.5,0,0,0,.51-.5v-.4l1.33-.32.19.35a.51.51,0,0,0,.91-.48Zm-.19,3.57,0-1.68.79,1.48Z"/><path class="cls-3" d="M334.7,134.26l-.89.52.51,2.93-2.29-1.9-.88.51,2.36,4.08a.5.5,0,0,0,.44.25.48.48,0,0,0,.26-.07.51.51,0,0,0,.18-.7l-.86-1.49,1.2,1,.84-.49-.27-1.54.87,1.49a.51.51,0,0,0,.89-.51Z"/><path class="cls-3" d="M324.51,141.8H323v-4.11h-1v5.14h2.56a.52.52,0,1,0,0-1Z"/><path class="cls-3" d="M315.31,140.59a.52.52,0,0,0,.16.71.51.51,0,0,0,.71-.15l.21-.34,1.31.43,0,.4a.52.52,0,0,0,.48.55h0a.52.52,0,0,0,.52-.48L319,137l-1.13-.38Zm2.45-.41-.8-.26.91-1.41Z"/><path class="cls-3" d="M314,134.53a1.44,1.44,0,0,0-2,.37l-.15.21a1.45,1.45,0,0,0-.23,1.09,1.48,1.48,0,0,0,.6.94.42.42,0,0,1,.11.59l-.15.21a.41.41,0,0,1-.59.11.43.43,0,0,1-.11-.59.52.52,0,1,0-.85-.59,1.45,1.45,0,0,0,1.2,2.28,1.45,1.45,0,0,0,1.2-.63l.15-.21a1.46,1.46,0,0,0-.38-2,.43.43,0,0,1-.17-.28.45.45,0,0,1,.06-.32l.15-.21a.45.45,0,0,1,.28-.18.42.42,0,0,1,.49.35.45.45,0,0,1-.06.32.5.5,0,0,0,.13.71.5.5,0,0,0,.71-.13,1.45,1.45,0,0,0,.23-1.09A1.43,1.43,0,0,0,314,134.53Z"/><circle class="cls-3" cx="342.49" cy="132.9" r="1.37"/><path class="cls-3" d="M343.52,121.26v4.45a1,1,0,1,1-2.06,0v-9.93H338v9.93a4.45,4.45,0,1,0,8.9,0v-4.45Z"/><path class="cls-3" d="M332.22,130.16a4.46,4.46,0,0,0,4.45-4.45v-4.45h-3.42v4.45a1,1,0,1,1-2.06,0v-4.45h-3.42v4.45a1,1,0,1,1-2.06,0v-4.45h-3.42v1.95a5.07,5.07,0,0,0-.59-1.13h0l-2.12-3,1.63-2.32-2.81-2-.91,1.3-1.58-2.26-2.8,2,2.29,3.28-2.11,3h0a4.94,4.94,0,0,0-.8,1.87,4.8,4.8,0,0,0-9.38,1.42,4.71,4.71,0,0,0,.43,1.95,4.81,4.81,0,0,0-2.48,4.2v1.38h3.42v-1.38a1.37,1.37,0,0,1,1.37-1.37h2.06a4.8,4.8,0,0,0,4.66-3.69,5.13,5.13,0,0,0,9.81.13,4.44,4.44,0,0,0,7.1,2.61A4.44,4.44,0,0,0,332.22,130.16Zm-24.31-3.42h-.1a1.29,1.29,0,1,1,.1,0Zm9.58,0a1.74,1.74,0,0,1-1.71-1.72,1.73,1.73,0,0,1,.31-1h0l1.4-2,1.41,2h0a1.73,1.73,0,0,1,.31,1A1.75,1.75,0,0,1,317.49,126.74Z"/><path class="cls-3" d="M309.85,539.2h-1l1.47-4.25h1.16L313,539.2h-1L311,535.92h0Zm-.06-1.67h2.28v.7h-2.28Z"/><path class="cls-3" d="M316.81,539.2V535h1.49a1.55,1.55,0,0,1,.73.15,1,1,0,0,1,.43.41,1.2,1.2,0,0,1,.14.57,1,1,0,0,1-.09.45.78.78,0,0,1-.26.28,1.33,1.33,0,0,1-.34.16v0a.94.94,0,0,1,.4.13,1,1,0,0,1,.32.36,1.15,1.15,0,0,1,.14.57,1.1,1.1,0,0,1-.15.57,1,1,0,0,1-.46.41,1.86,1.86,0,0,1-.81.15Zm.52-2.38h.95a.93.93,0,0,0,.42-.09.77.77,0,0,0,.3-.26.64.64,0,0,0,.11-.39.65.65,0,0,0-.19-.48.85.85,0,0,0-.62-.19h-1Zm0,1.92h1a1.07,1.07,0,0,0,.72-.19.64.64,0,0,0,.21-.48.8.8,0,0,0-.11-.4.82.82,0,0,0-.32-.29.9.9,0,0,0-.48-.12h-1Z"/><path class="cls-3" d="M321.45,539.27a1.38,1.38,0,0,1-.55-.11.92.92,0,0,1-.39-.34.9.9,0,0,1-.15-.53.82.82,0,0,1,.11-.44.75.75,0,0,1,.29-.27,2.08,2.08,0,0,1,.4-.15l.44-.07.47-.06a.74.74,0,0,0,.27-.07.18.18,0,0,0,.08-.16v0a.67.67,0,0,0-.17-.48.69.69,0,0,0-.5-.17.82.82,0,0,0-.55.16.91.91,0,0,0-.28.32l-.47-.16a1.18,1.18,0,0,1,.34-.46,1.35,1.35,0,0,1,.45-.22,1.71,1.71,0,0,1,.49-.07,1.56,1.56,0,0,1,.35,0,.93.93,0,0,1,.39.15.77.77,0,0,1,.31.33,1.2,1.2,0,0,1,.13.61v2.1h-.49v-.43h0a1,1,0,0,1-.17.22,1,1,0,0,1-.31.2A1.32,1.32,0,0,1,321.45,539.27Zm.07-.44a1,1,0,0,0,.49-.11.81.81,0,0,0,.31-.3.72.72,0,0,0,.1-.38v-.44a.38.38,0,0,1-.14.06l-.24.06-.26,0-.21,0a2,2,0,0,0-.35.08.72.72,0,0,0-.27.16.47.47,0,0,0-.1.3.43.43,0,0,0,.19.38A.82.82,0,0,0,321.52,538.83Z"/><path class="cls-3" d="M326,536.73l-.44.12a.8.8,0,0,0-.13-.21.63.63,0,0,0-.21-.18.87.87,0,0,0-.35-.07.84.84,0,0,0-.49.14.39.39,0,0,0-.19.34.33.33,0,0,0,.13.28,1,1,0,0,0,.42.18l.47.12a1.33,1.33,0,0,1,.63.31.77.77,0,0,1,.21.55.84.84,0,0,1-.15.49,1.09,1.09,0,0,1-.44.34,1.64,1.64,0,0,1-.65.12,1.46,1.46,0,0,1-.81-.21.94.94,0,0,1-.4-.62l.46-.11a.63.63,0,0,0,.26.38.78.78,0,0,0,.48.13,1,1,0,0,0,.55-.14.45.45,0,0,0,.2-.36.34.34,0,0,0-.12-.27.64.64,0,0,0-.36-.17l-.53-.13a1.24,1.24,0,0,1-.64-.32.85.85,0,0,1-.05-1,1.07,1.07,0,0,1,.42-.32,1.4,1.4,0,0,1,.6-.12,1.18,1.18,0,0,1,.74.21A1.16,1.16,0,0,1,326,536.73Z"/><path class="cls-3" d="M327.72,539.27a1.33,1.33,0,0,1-.54-.11,1,1,0,0,1-.4-.34,1,1,0,0,1-.14-.53.74.74,0,0,1,.11-.44.73.73,0,0,1,.28-.27,2.37,2.37,0,0,1,.4-.15l.44-.07.48-.06a.63.63,0,0,0,.26-.07.16.16,0,0,0,.08-.16v0a.66.66,0,0,0-.16-.48.7.7,0,0,0-.51-.17.86.86,0,0,0-.55.16,1,1,0,0,0-.28.32l-.46-.16a1.07,1.07,0,0,1,.33-.46,1.3,1.3,0,0,1,.46-.22A1.66,1.66,0,0,1,328,536a1.56,1.56,0,0,1,.35,0,1,1,0,0,1,.39.15.83.83,0,0,1,.31.33,1.32,1.32,0,0,1,.12.61v2.1h-.49v-.43h0a.77.77,0,0,1-.17.22,1,1,0,0,1-.3.2A1.34,1.34,0,0,1,327.72,539.27Zm.08-.44a1,1,0,0,0,.49-.11.86.86,0,0,0,.3-.3.72.72,0,0,0,.1-.38v-.44a.31.31,0,0,1-.13.06l-.24.06-.26,0-.21,0a1.9,1.9,0,0,0-.36.08.61.61,0,0,0-.26.16.42.42,0,0,0-.1.3.41.41,0,0,0,.19.38A.78.78,0,0,0,327.8,538.83Z"/><path class="cls-3" d="M330.53,535v4.25H330V535Z"/><path class="cls-3" d="M332.33,539.27a1.42,1.42,0,0,1-.55-.11,1,1,0,0,1-.39-.34.89.89,0,0,1-.14-.53.82.82,0,0,1,.1-.44.83.83,0,0,1,.29-.27,2.37,2.37,0,0,1,.4-.15l.44-.07.47-.06a.69.69,0,0,0,.27-.07.16.16,0,0,0,.08-.16v0a.66.66,0,0,0-.16-.48.7.7,0,0,0-.51-.17.84.84,0,0,0-.55.16,1,1,0,0,0-.28.32l-.46-.16a1.07,1.07,0,0,1,.33-.46,1.3,1.3,0,0,1,.46-.22,1.66,1.66,0,0,1,.84,0,1,1,0,0,1,.39.15.83.83,0,0,1,.31.33,1.32,1.32,0,0,1,.12.61v2.1h-.49v-.43h0a.77.77,0,0,1-.17.22.92.92,0,0,1-.31.2A1.24,1.24,0,0,1,332.33,539.27Zm.08-.44a1.07,1.07,0,0,0,.49-.11.86.86,0,0,0,.3-.3.72.72,0,0,0,.1-.38v-.44a.31.31,0,0,1-.13.06l-.24.06-.27,0-.2,0a1.9,1.9,0,0,0-.36.08.61.61,0,0,0-.26.16.42.42,0,0,0-.1.3.41.41,0,0,0,.19.38A.78.78,0,0,0,332.41,538.83Z"/><path class="cls-3" d="M334.65,539.2V536h.48v.5h0a.79.79,0,0,1,.32-.4A1,1,0,0,1,336,536a1,1,0,0,1,.53.14,1,1,0,0,1,.33.4h0a.87.87,0,0,1,.37-.39,1.09,1.09,0,0,1,.58-.15.94.94,0,0,1,.7.27,1.12,1.12,0,0,1,.27.83v2.13h-.49v-2.13a.6.6,0,0,0-.19-.51.72.72,0,0,0-.45-.15.67.67,0,0,0-.52.2.72.72,0,0,0-.19.51v2.08h-.49V537a.56.56,0,0,0-.18-.44.65.65,0,0,0-.46-.17.64.64,0,0,0-.35.1.81.81,0,0,0-.27.28.93.93,0,0,0-.1.42v2Z"/><path class="cls-3" d="M261.43,544.21a2.45,2.45,0,0,1-.25,1.16,1.82,1.82,0,0,1-.66.76,1.85,1.85,0,0,1-1,.26,1.82,1.82,0,0,1-1-.26,1.78,1.78,0,0,1-.67-.76,2.58,2.58,0,0,1-.24-1.16,2.61,2.61,0,0,1,.24-1.16,1.69,1.69,0,0,1,.67-.75,1.74,1.74,0,0,1,1-.27,1.77,1.77,0,0,1,1,.27,1.73,1.73,0,0,1,.66.75A2.48,2.48,0,0,1,261.43,544.21Zm-.5,0a2.14,2.14,0,0,0-.18-.93,1.4,1.4,0,0,0-.5-.57,1.33,1.33,0,0,0-1.4,0,1.38,1.38,0,0,0-.49.57,2.49,2.49,0,0,0,0,1.86,1.35,1.35,0,0,0,.49.58,1.38,1.38,0,0,0,1.4,0,1.37,1.37,0,0,0,.5-.58A2.14,2.14,0,0,0,260.93,544.21Z"/><path class="cls-3" d="M262.68,542.09v4.24h-.49v-4.24Z"/><path class="cls-3" d="M265.55,545v-1.88H266v3.18h-.49v-.53h0a1,1,0,0,1-.35.41,1,1,0,0,1-.59.17,1,1,0,0,1-.53-.14.88.88,0,0,1-.37-.39,1.53,1.53,0,0,1-.13-.68v-2H264v2a.79.79,0,0,0,.19.56.69.69,0,0,0,.5.2.83.83,0,0,0,.83-.87Z"/><path class="cls-3" d="M266.9,546.33v-3.18h.47v.5h0a.8.8,0,0,1,.32-.4,1,1,0,0,1,.53-.14,1,1,0,0,1,.53.14.94.94,0,0,1,.33.4h0a1,1,0,0,1,.37-.4,1.2,1.2,0,0,1,.59-.14,1,1,0,0,1,.69.26,1.1,1.1,0,0,1,.28.83v2.13h-.49V544.2a.6.6,0,0,0-.2-.5.7.7,0,0,0-.45-.15.69.69,0,0,0-.52.2.75.75,0,0,0-.19.51v2.07h-.49v-2.18a.59.59,0,0,0-.18-.44.64.64,0,0,0-.45-.16.65.65,0,0,0-.36.1.7.7,0,0,0-.26.28.8.8,0,0,0-.1.41v2Z"/><path class="cls-3" d="M275.93,543.15a.63.63,0,0,0-.3-.49,1.13,1.13,0,0,0-.65-.17,1.22,1.22,0,0,0-.49.09.76.76,0,0,0-.33.25.58.58,0,0,0-.12.36.55.55,0,0,0,.08.29.8.8,0,0,0,.21.2,1.11,1.11,0,0,0,.27.13l.26.09.43.11.37.12a1.71,1.71,0,0,1,.4.21,1.27,1.27,0,0,1,.31.34,1,1,0,0,1,.12.5,1.1,1.1,0,0,1-.18.62,1.21,1.21,0,0,1-.52.45,2.1,2.1,0,0,1-.84.16,1.87,1.87,0,0,1-.78-.15,1.22,1.22,0,0,1-.53-.41,1.15,1.15,0,0,1-.21-.61H274a.68.68,0,0,0,.16.4,1,1,0,0,0,.36.23,1.49,1.49,0,0,0,.47.07,1.44,1.44,0,0,0,.53-.09,1,1,0,0,0,.37-.27.6.6,0,0,0,.14-.41.49.49,0,0,0-.12-.34.91.91,0,0,0-.31-.22l-.41-.14-.53-.15a2,2,0,0,1-.79-.41.91.91,0,0,1-.29-.69,1.05,1.05,0,0,1,.2-.63,1.34,1.34,0,0,1,.52-.41,1.88,1.88,0,0,1,1.47,0,1.17,1.17,0,0,1,.5.4,1,1,0,0,1,.2.57Z"/><path class="cls-3" d="M279.41,547.53v-1.68h0s-.09.13-.16.21a.84.84,0,0,1-.28.24,1,1,0,0,1-.49.1,1.31,1.31,0,0,1-.71-.2,1.39,1.39,0,0,1-.47-.57,2.22,2.22,0,0,1,0-1.75,1.23,1.23,0,0,1,.48-.57,1.27,1.27,0,0,1,.7-.2,1,1,0,0,1,.5.1.9.9,0,0,1,.27.23l.16.22h.05v-.51h.48v4.38ZM278.5,546a.82.82,0,0,0,.5-.15,1,1,0,0,0,.31-.43,1.83,1.83,0,0,0,.11-.64,1.67,1.67,0,0,0-.11-.62.89.89,0,0,0-.31-.42.8.8,0,0,0-.5-.15.78.78,0,0,0-.51.16.86.86,0,0,0-.31.43,1.64,1.64,0,0,0-.11.6,1.75,1.75,0,0,0,.11.62,1,1,0,0,0,.31.44A.8.8,0,0,0,278.5,546Z"/><path class="cls-3" d="M281.11,546.37a.36.36,0,0,1-.26-.11.39.39,0,0,1-.11-.27.38.38,0,0,1,.37-.37.39.39,0,0,1,.27.11.36.36,0,0,1,.11.26.41.41,0,0,1-.05.19.47.47,0,0,1-.14.14A.38.38,0,0,1,281.11,546.37Z"/><path class="cls-3" d="M283.06,545.75l0,.23c0,.16-.06.32-.11.5l-.15.51-.12.38h-.38c0-.09,0-.2.07-.35s.06-.31.09-.49a4.68,4.68,0,0,0,.07-.54l0-.24Z"/><path class="cls-3" d="M286.91,546.33H285.6v-4.24H287a2.08,2.08,0,0,1,1.06.25,1.64,1.64,0,0,1,.67.73,2.8,2.8,0,0,1,0,2.27,1.71,1.71,0,0,1-.69.74A2.18,2.18,0,0,1,286.91,546.33Zm-.79-.45h.76a1.75,1.75,0,0,0,.87-.2,1.27,1.27,0,0,0,.52-.58,2.22,2.22,0,0,0,.17-.9,2.12,2.12,0,0,0-.17-.88,1.29,1.29,0,0,0-.5-.58,1.62,1.62,0,0,0-.83-.2h-.82Z"/><path class="cls-3" d="M290.64,546.41a1.23,1.23,0,0,1-.55-.12.79.79,0,0,1-.39-.33.92.92,0,0,1-.15-.53.82.82,0,0,1,.11-.44.69.69,0,0,1,.29-.27,1.28,1.28,0,0,1,.4-.15l.44-.08.47,0a.84.84,0,0,0,.26-.07.18.18,0,0,0,.09-.17h0a.65.65,0,0,0-.17-.48.69.69,0,0,0-.5-.17.88.88,0,0,0-.55.15.84.84,0,0,0-.28.33l-.47-.17a1.2,1.2,0,0,1,.33-.45,1.42,1.42,0,0,1,.46-.23,2.12,2.12,0,0,1,.49-.06l.35,0a1.43,1.43,0,0,1,.39.15.85.85,0,0,1,.31.34,1.18,1.18,0,0,1,.13.61v2.09h-.49v-.43h0a1,1,0,0,1-.16.23,1.28,1.28,0,0,1-.31.2A1.32,1.32,0,0,1,290.64,546.41Zm.07-.44a1,1,0,0,0,.49-.11.78.78,0,0,0,.3-.3.76.76,0,0,0,.11-.38v-.45a.26.26,0,0,1-.14.07l-.24.05-.26,0-.21,0a1.28,1.28,0,0,0-.35.08.61.61,0,0,0-.27.16.4.4,0,0,0-.1.3.42.42,0,0,0,.19.38A.82.82,0,0,0,290.71,546Z"/><path class="cls-3" d="M293.45,544.42v1.91H293v-3.18h.47v.5h0a1,1,0,0,1,.34-.39,1.05,1.05,0,0,1,.59-.15,1.17,1.17,0,0,1,.57.13.9.9,0,0,1,.37.4,1.48,1.48,0,0,1,.14.67v2H295v-2a.82.82,0,0,0-.2-.58.68.68,0,0,0-.53-.21.82.82,0,0,0-.42.1.76.76,0,0,0-.29.3A1,1,0,0,0,293.45,544.42Z"/><path class="cls-3" d="M297.67,546.4a1.54,1.54,0,0,1-.79-.2,1.37,1.37,0,0,1-.51-.58,1.9,1.9,0,0,1-.18-.85,2,2,0,0,1,.18-.87,1.42,1.42,0,0,1,.5-.58,1.37,1.37,0,0,1,.75-.21,1.69,1.69,0,0,1,.5.08,1.26,1.26,0,0,1,.76.76,2.28,2.28,0,0,1,.11.75v.21h-2.45v-.43h2a1.09,1.09,0,0,0-.11-.48.8.8,0,0,0-.3-.33.89.89,0,0,0-.47-.12.92.92,0,0,0-.5.14,1,1,0,0,0-.33.38,1.14,1.14,0,0,0-.11.49v.28a1.25,1.25,0,0,0,.13.61.85.85,0,0,0,.34.38,1,1,0,0,0,.52.13,1.23,1.23,0,0,0,.35-.05.73.73,0,0,0,.27-.17.68.68,0,0,0,.18-.28l.47.14a1,1,0,0,1-.25.42,1.19,1.19,0,0,1-.43.28A1.59,1.59,0,0,1,297.67,546.4Z"/><path class="cls-3" d="M302,543.86l-.44.13a.94.94,0,0,0-.12-.22.65.65,0,0,0-.22-.17.7.7,0,0,0-.35-.07.9.9,0,0,0-.48.13.42.42,0,0,0-.2.34.34.34,0,0,0,.14.29,1.06,1.06,0,0,0,.41.18l.47.11a1.33,1.33,0,0,1,.64.32.74.74,0,0,1,.21.55.8.8,0,0,1-.16.49,1.14,1.14,0,0,1-.43.34,1.67,1.67,0,0,1-.65.12,1.43,1.43,0,0,1-.81-.21,1,1,0,0,1-.41-.62l.47-.11a.61.61,0,0,0,.25.38.81.81,0,0,0,.49.13.87.87,0,0,0,.54-.15.4.4,0,0,0,.2-.35.41.41,0,0,0-.11-.28A.86.86,0,0,0,301,545l-.53-.12a1.28,1.28,0,0,1-.64-.32.77.77,0,0,1-.21-.55.75.75,0,0,1,.16-.48,1,1,0,0,1,.41-.32,1.46,1.46,0,0,1,.6-.12,1.19,1.19,0,0,1,.75.21A1.05,1.05,0,0,1,302,543.86Z"/><path class="cls-3" d="M303.21,544.42v1.91h-.49v-4.24h.49v1.56h0a1,1,0,0,1,.34-.4,1.16,1.16,0,0,1,.6-.14,1.14,1.14,0,0,1,.57.13.9.9,0,0,1,.38.39,1.52,1.52,0,0,1,.14.68v2h-.49v-2a.82.82,0,0,0-.2-.58.7.7,0,0,0-.54-.21.88.88,0,0,0-.43.1.72.72,0,0,0-.3.3A1,1,0,0,0,303.21,544.42Z"/><path class="cls-3" d="M307.42,547.6a1.87,1.87,0,0,1-.61-.09,1.22,1.22,0,0,1-.42-.24,1.54,1.54,0,0,1-.27-.31l.39-.28a2.61,2.61,0,0,0,.17.2.88.88,0,0,0,.28.2,1,1,0,0,0,.46.08,1.08,1.08,0,0,0,.64-.18.68.68,0,0,0,.25-.59v-.64h0l-.15.21a.93.93,0,0,1-.28.23,1.18,1.18,0,0,1-.5.09,1.31,1.31,0,0,1-.69-.18,1.24,1.24,0,0,1-.48-.53,1.8,1.8,0,0,1-.18-.84,2.06,2.06,0,0,1,.17-.86,1.39,1.39,0,0,1,.48-.56,1.21,1.21,0,0,1,.71-.2,1,1,0,0,1,.49.1,1,1,0,0,1,.29.23l.15.22h.05v-.51h.47v3.28a1.12,1.12,0,0,1-.18.66,1.05,1.05,0,0,1-.5.38A1.75,1.75,0,0,1,307.42,547.6Zm0-1.75a.92.92,0,0,0,.5-.14.85.85,0,0,0,.3-.39,1.57,1.57,0,0,0,.11-.6,1.66,1.66,0,0,0-.1-.61.93.93,0,0,0-.31-.41.82.82,0,0,0-.5-.15.81.81,0,0,0-.52.16.89.89,0,0,0-.31.42,1.59,1.59,0,0,0-.1.59,1.5,1.5,0,0,0,.1.58.9.9,0,0,0,.31.4A.86.86,0,0,0,307.41,545.85Z"/><path class="cls-3" d="M310.6,546.41a1.23,1.23,0,0,1-.55-.12.84.84,0,0,1-.39-.33.92.92,0,0,1-.15-.53.82.82,0,0,1,.11-.44.69.69,0,0,1,.29-.27,1.28,1.28,0,0,1,.4-.15l.44-.08.47,0a1,1,0,0,0,.27-.07.19.19,0,0,0,.08-.17h0a.65.65,0,0,0-.17-.48.69.69,0,0,0-.5-.17.88.88,0,0,0-.55.15.93.93,0,0,0-.28.33l-.47-.17a1.22,1.22,0,0,1,.34-.45,1.37,1.37,0,0,1,.45-.23,2.12,2.12,0,0,1,.49-.06l.35,0a1.32,1.32,0,0,1,.39.15.85.85,0,0,1,.31.34,1.18,1.18,0,0,1,.13.61v2.09h-.49v-.43h0a.74.74,0,0,1-.16.23,1.28,1.28,0,0,1-.31.2A1.32,1.32,0,0,1,310.6,546.41Zm.07-.44a1,1,0,0,0,.49-.11.81.81,0,0,0,.31-.3.75.75,0,0,0,.1-.38v-.45a.26.26,0,0,1-.14.07l-.24.05-.26,0-.21,0a1.37,1.37,0,0,0-.35.08.61.61,0,0,0-.27.16.45.45,0,0,0-.1.3.42.42,0,0,0,.19.38A.82.82,0,0,0,310.67,546Z"/><path class="cls-3" d="M313.41,544.42v1.91h-.49v-4.24h.49v1.56h0a.88.88,0,0,1,.34-.4,1.16,1.16,0,0,1,.6-.14,1.2,1.2,0,0,1,.57.13.9.9,0,0,1,.38.39,1.53,1.53,0,0,1,.13.68v2H315v-2a.81.81,0,0,0-.19-.58.7.7,0,0,0-.54-.21.85.85,0,0,0-.43.1.72.72,0,0,0-.3.3A1,1,0,0,0,313.41,544.42Z"/><path class="cls-3" d="M318.18,546.33h-.54l1.56-4.24h.53l1.56,4.24h-.54l-1.26-3.57h0Zm.2-1.65h2.18v.45h-2.18Z"/><path class="cls-3" d="M324.06,543.15l-1.18,3.18h-.49l-1.18-3.18h.53l.88,2.54h0l.88-2.54Z"/><path class="cls-3" d="M325.89,546.4a1.54,1.54,0,0,1-.79-.2,1.37,1.37,0,0,1-.51-.58,1.9,1.9,0,0,1-.18-.85,2,2,0,0,1,.18-.87,1.34,1.34,0,0,1,1.25-.79,1.62,1.62,0,0,1,.49.08,1.38,1.38,0,0,1,.45.27,1.21,1.21,0,0,1,.31.49,2,2,0,0,1,.12.75v.21h-2.45v-.43h1.95a1.09,1.09,0,0,0-.1-.48.76.76,0,0,0-.31-.33.85.85,0,0,0-.46-.12.92.92,0,0,0-.5.14,1,1,0,0,0-.33.38,1.14,1.14,0,0,0-.11.49v.28a1.38,1.38,0,0,0,.12.61.87.87,0,0,0,.35.38,1,1,0,0,0,.52.13,1.23,1.23,0,0,0,.35-.05.73.73,0,0,0,.27-.17.68.68,0,0,0,.18-.28l.47.14a1,1,0,0,1-.25.42,1.28,1.28,0,0,1-.43.28A1.59,1.59,0,0,1,325.89,546.4Z"/><path class="cls-3" d="M328.28,546.37a.36.36,0,0,1-.26-.11.35.35,0,0,1-.11-.27.33.33,0,0,1,.11-.26.36.36,0,0,1,.52,0,.33.33,0,0,1,.11.26.32.32,0,0,1,0,.19.44.44,0,0,1-.13.14A.41.41,0,0,1,328.28,546.37Z"/><path class="cls-3" d="M330.23,545.75l0,.23a3.4,3.4,0,0,1-.1.5q-.07.27-.15.51a4,4,0,0,1-.13.38h-.37l.07-.35c0-.14.06-.31.09-.49s0-.36.07-.54l0-.24Z"/><path class="cls-3" d="M332.77,546.33v-4.24h1.44a1.62,1.62,0,0,1,.81.18,1.17,1.17,0,0,1,.48.48,1.62,1.62,0,0,1,0,1.36,1.17,1.17,0,0,1-.47.49,1.69,1.69,0,0,1-.82.18h-1v-.45h1a1.12,1.12,0,0,0,.55-.12.77.77,0,0,0,.3-.32,1.14,1.14,0,0,0,.09-.46,1.06,1.06,0,0,0-.09-.45.69.69,0,0,0-.31-.32,1.09,1.09,0,0,0-.55-.12h-.91v3.79Z"/><path class="cls-3" d="M337.31,546.41a1.26,1.26,0,0,1-.55-.12.89.89,0,0,1-.39-.33,1,1,0,0,1-.14-.53.82.82,0,0,1,.1-.44.75.75,0,0,1,.29-.27,1.38,1.38,0,0,1,.4-.15l.44-.08.48,0a.94.94,0,0,0,.26-.07.17.17,0,0,0,.08-.17h0a.65.65,0,0,0-.16-.48.7.7,0,0,0-.51-.17.92.92,0,0,0-.55.15,1.05,1.05,0,0,0-.28.33l-.46-.17a1.1,1.1,0,0,1,.33-.45,1.33,1.33,0,0,1,.46-.23,2.05,2.05,0,0,1,.49-.06l.35,0a1.56,1.56,0,0,1,.39.15.93.93,0,0,1,.31.34,1.29,1.29,0,0,1,.12.61v2.09h-.49v-.43h0a.79.79,0,0,1-.17.23,1.11,1.11,0,0,1-.31.2A1.24,1.24,0,0,1,337.31,546.41Zm.08-.44a1,1,0,0,0,.49-.11.86.86,0,0,0,.3-.3.75.75,0,0,0,.1-.38v-.45a.22.22,0,0,1-.13.07l-.24.05-.27,0-.2,0a1.35,1.35,0,0,0-.36.08.53.53,0,0,0-.26.16.4.4,0,0,0-.1.3.42.42,0,0,0,.19.38A.78.78,0,0,0,337.39,546Z"/><path class="cls-3" d="M339.63,546.33v-3.18h.48v.48h0a.74.74,0,0,1,.32-.38.9.9,0,0,1,.51-.15h.26v.5l-.12,0-.18,0a.84.84,0,0,0-.42.1.7.7,0,0,0-.28.26.77.77,0,0,0-.11.39v2Z"/><path class="cls-3" d="M342.88,546.4a1.31,1.31,0,0,1-.71-.2,1.39,1.39,0,0,1-.47-.57,2.22,2.22,0,0,1,0-1.75,1.27,1.27,0,0,1,.47-.57,1.33,1.33,0,0,1,.71-.2,1,1,0,0,1,.5.1.9.9,0,0,1,.27.23,1.44,1.44,0,0,1,.15.22h.05v-1.57h.49v4.24h-.48v-.48h-.06a1.44,1.44,0,0,1-.15.21,1,1,0,0,1-.28.24A1,1,0,0,1,342.88,546.4Zm.06-.44a.82.82,0,0,0,.5-.15,1,1,0,0,0,.31-.43,1.83,1.83,0,0,0,.1-.64,1.68,1.68,0,0,0-.1-.62.89.89,0,0,0-.31-.42.92.92,0,0,0-1,0,.91.91,0,0,0-.3.43,1.64,1.64,0,0,0-.11.6,1.75,1.75,0,0,0,.11.62,1,1,0,0,0,.31.44A.8.8,0,0,0,342.94,546Z"/><path class="cls-3" d="M345.51,542.62a.31.31,0,0,1-.24-.1.3.3,0,0,1-.11-.23.34.34,0,0,1,.11-.24.34.34,0,0,1,.24-.09.37.37,0,0,1,.25.09.33.33,0,0,1,.1.24.29.29,0,0,1-.1.23A.33.33,0,0,1,345.51,542.62Zm-.25,3.71v-3.18h.49v3.18Z"/><path class="cls-3" d="M348.87,543.86l-.44.13a.94.94,0,0,0-.12-.22.76.76,0,0,0-.22-.17.73.73,0,0,0-.35-.07.94.94,0,0,0-.49.13.43.43,0,0,0-.19.34.34.34,0,0,0,.13.29,1.19,1.19,0,0,0,.42.18l.47.11a1.33,1.33,0,0,1,.64.32.74.74,0,0,1,.21.55.87.87,0,0,1-.16.49,1.1,1.1,0,0,1-.44.34,1.6,1.6,0,0,1-.65.12,1.42,1.42,0,0,1-.8-.21.94.94,0,0,1-.41-.62l.47-.11a.58.58,0,0,0,.25.38.78.78,0,0,0,.48.13.92.92,0,0,0,.55-.15.42.42,0,0,0,.2-.35.41.41,0,0,0-.11-.28A.86.86,0,0,0,348,545l-.53-.12a1.28,1.28,0,0,1-.64-.32.77.77,0,0,1-.21-.55.81.81,0,0,1,.15-.48,1,1,0,0,1,.42-.32,1.46,1.46,0,0,1,.6-.12,1.16,1.16,0,0,1,.74.21A1.07,1.07,0,0,1,348.87,543.86Z"/><path class="cls-3" d="M350.57,546.41a1.23,1.23,0,0,1-.55-.12.79.79,0,0,1-.39-.33.92.92,0,0,1-.15-.53.82.82,0,0,1,.11-.44.69.69,0,0,1,.29-.27,1.28,1.28,0,0,1,.4-.15l.44-.08.47,0a.84.84,0,0,0,.26-.07.18.18,0,0,0,.09-.17h0a.65.65,0,0,0-.17-.48.69.69,0,0,0-.5-.17.88.88,0,0,0-.55.15.84.84,0,0,0-.28.33l-.47-.17a1.22,1.22,0,0,1,.34-.45,1.28,1.28,0,0,1,.45-.23,2.12,2.12,0,0,1,.49-.06l.35,0a1.32,1.32,0,0,1,.39.15.85.85,0,0,1,.31.34,1.18,1.18,0,0,1,.13.61v2.09h-.49v-.43h0a1,1,0,0,1-.16.23,1.28,1.28,0,0,1-.31.2A1.32,1.32,0,0,1,350.57,546.41Zm.07-.44a1,1,0,0,0,.49-.11.81.81,0,0,0,.31-.3.86.86,0,0,0,.1-.38v-.45a.26.26,0,0,1-.14.07l-.24.05-.26,0-.21,0a1.28,1.28,0,0,0-.35.08.61.61,0,0,0-.27.16.4.4,0,0,0-.1.3.42.42,0,0,0,.19.38A.82.82,0,0,0,350.64,546Z"/><path class="cls-3" d="M353.38,544.42v1.91h-.49v-3.18h.47v.5h0a1,1,0,0,1,.34-.39,1.05,1.05,0,0,1,.59-.15,1.14,1.14,0,0,1,.57.13.92.92,0,0,1,.38.4,1.48,1.48,0,0,1,.13.67v2h-.49v-2a.81.81,0,0,0-.19-.58.7.7,0,0,0-.54-.21.84.84,0,0,0-.42.1.76.76,0,0,0-.29.3A1,1,0,0,0,353.38,544.42Z"/><path class="cls-3" d="M357,545.75l0,.23c0,.16-.06.32-.11.5l-.15.51-.12.38h-.38c0-.09,0-.2.07-.35s.06-.31.09-.49a4.68,4.68,0,0,0,.07-.54l0-.24Z"/><path class="cls-3" d="M363.13,544.21a2.45,2.45,0,0,1-.25,1.16,1.82,1.82,0,0,1-.66.76,1.85,1.85,0,0,1-1,.26,1.82,1.82,0,0,1-1-.26,1.78,1.78,0,0,1-.67-.76,2.58,2.58,0,0,1-.24-1.16,2.61,2.61,0,0,1,.24-1.16,1.69,1.69,0,0,1,.67-.75,1.74,1.74,0,0,1,1-.27,1.77,1.77,0,0,1,1,.27,1.73,1.73,0,0,1,.66.75A2.48,2.48,0,0,1,363.13,544.21Zm-.5,0a2.14,2.14,0,0,0-.18-.93,1.4,1.4,0,0,0-.5-.57,1.33,1.33,0,0,0-1.4,0,1.38,1.38,0,0,0-.49.57,2.37,2.37,0,0,0,0,1.86,1.35,1.35,0,0,0,.49.58,1.38,1.38,0,0,0,1.4,0,1.37,1.37,0,0,0,.5-.58A2.14,2.14,0,0,0,362.63,544.21Zm-1.54.8h.56l.47.62.13.17.7.93h-.56l-.47-.62-.11-.16Z"/><path class="cls-3" d="M365.18,546.4a1.4,1.4,0,0,1-.75-.2,1.37,1.37,0,0,1-.51-.58,1.91,1.91,0,0,1-.18-.86,2,2,0,0,1,.18-.87,1.37,1.37,0,0,1,.51-.58,1.4,1.4,0,0,1,.75-.2,1.46,1.46,0,0,1,.76.2,1.42,1.42,0,0,1,.5.58,2,2,0,0,1,.18.87,1.91,1.91,0,0,1-.18.86,1.42,1.42,0,0,1-.5.58A1.46,1.46,0,0,1,365.18,546.4Zm0-.44a.8.8,0,0,0,.54-.17.93.93,0,0,0,.31-.44,1.63,1.63,0,0,0,.11-.59,1.73,1.73,0,0,0-.11-.6.93.93,0,0,0-.31-.44.94.94,0,0,0-1.08,0,1,1,0,0,0-.31.44,1.72,1.72,0,0,0-.1.6,1.63,1.63,0,0,0,.1.59,1,1,0,0,0,.31.44A.8.8,0,0,0,365.18,546Z"/><path class="cls-3" d="M367.34,546.33v-3.18h.47v.5h0a.8.8,0,0,1,.32-.4,1,1,0,0,1,.54-.14.87.87,0,0,1,.85.54h0a1,1,0,0,1,.37-.4,1.2,1.2,0,0,1,.59-.14,1,1,0,0,1,.7.26,1.14,1.14,0,0,1,.27.83v2.13H371V544.2a.6.6,0,0,0-.2-.5.76.76,0,0,0-1,0,.74.74,0,0,0-.18.51v2.07h-.5v-2.18a.59.59,0,0,0-.18-.44.64.64,0,0,0-.45-.16.65.65,0,0,0-.36.1.7.7,0,0,0-.26.28.8.8,0,0,0-.1.41v2Z"/><path class="cls-3" d="M375.49,541.89,374.12,547h-.45l1.37-5.08Z"/><path class="cls-3" d="M378.22,542.09v4.24h-.51v-4.24Z"/><path class="cls-3" d="M379.21,546.33v-4.24h1.44a1.69,1.69,0,0,1,.82.17,1,1,0,0,1,.47.46,1.57,1.57,0,0,1,0,1.34,1.08,1.08,0,0,1-.47.45,1.74,1.74,0,0,1-.81.17H379.5v-.47h1.14a1.23,1.23,0,0,0,.55-.1.59.59,0,0,0,.3-.28,1,1,0,0,0,.1-.44,1.06,1.06,0,0,0-.1-.45.65.65,0,0,0-.3-.29,1.27,1.27,0,0,0-.56-.11h-.9v3.79Zm2-1.9,1.05,1.9h-.6l-1-1.9Z"/><path class="cls-3" d="M383.08,546.33h-.53l1.55-4.24h.54l1.56,4.24h-.54l-1.27-3.57h0Zm.2-1.65h2.18v.45h-2.18Z"/><path class="cls-3" d="M390.19,542.09v4.24h-.5L387.38,543h0v3.33h-.52v-4.24h.5l2.32,3.34h.05v-3.34Z"/><path class="cls-3" d="M264.21,554.15a2.36,2.36,0,0,1,.11-.8,3.57,3.57,0,0,1,.49-.8.81.81,0,0,1,.63-.37.64.64,0,0,1,.58.32,1.31,1.31,0,0,1,.2.76,1.93,1.93,0,0,1-.07.55.61.61,0,0,1-.07.14l-.15.15a.33.33,0,0,1-.23.11.3.3,0,0,1-.12,0l-.95-.46a14.87,14.87,0,0,0,.14,1.75l-.46.18C264.24,554.94,264.21,554.44,264.21,554.15Zm1.63-.82a1,1,0,0,0-.11-.46.36.36,0,0,0-.34-.18.41.41,0,0,0-.29.15,2.11,2.11,0,0,0-.29.43l1,.45A1.14,1.14,0,0,0,265.84,553.33Z"/><path class="cls-3" d="M267.43,553.41a6.65,6.65,0,0,0-.14-1.27,3.44,3.44,0,0,0-.5-1.21l.37-.3a5,5,0,0,1,.64,2.71Zm2.32.19a.71.71,0,0,1,0,.16v.14a.81.81,0,0,1,0,.16s0,.06,0,.06h-.23A1.21,1.21,0,0,1,269,554a.55.55,0,0,1-.27-.29,1.62,1.62,0,0,1-.7.41,6,6,0,0,1-1,.22l0-.59a6.11,6.11,0,0,0,1-.22,1.47,1.47,0,0,0,.57-.28l-.12-2.82.47-.11.05,2.77a.41.41,0,0,0,.07.27.31.31,0,0,0,.19.12l.33,0h.23S269.74,553.55,269.75,553.6Z"/><path class="cls-3" d="M273.25,553.44a.56.56,0,0,1-.25.51,1,1,0,0,1-.62.17.55.55,0,0,1-.57-.31.58.58,0,0,1-.28.23,1.08,1.08,0,0,1-.38.08.52.52,0,0,1-.55-.31c-.14.21-.44.31-.89.31,0,0,0,0,0-.06a.78.78,0,0,1,0-.16v-.14a.63.63,0,0,1,0-.16s0-.07,0-.07a1.56,1.56,0,0,0,.68-.12v-.8h.43l0,.62q0,.19.09.24a.69.69,0,0,0,.32,0,.57.57,0,0,0,.39-.1l0-1H272l0,1.05a.4.4,0,0,0,.29.08,1.15,1.15,0,0,0,.52-.1l-.11-1.25.46-.08C273.24,552.58,273.25,553,273.25,553.44Z"/><path class="cls-3" d="M275.33,553.6a.71.71,0,0,1,0,.16v.14a.81.81,0,0,1,0,.16s0,.06,0,.06h-.12a1,1,0,0,1-.75-.23,1.17,1.17,0,0,1-.25-.81l-.08-2.62.47-.11,0,2.74a.43.43,0,0,0,.46.44h.23S275.32,553.55,275.33,553.6Z"/><path class="cls-3" d="M276.6,552.26c0,.45,0,.82,0,1.1a.6.6,0,0,1-.31.54,1.79,1.79,0,0,1-.48.17,3.51,3.51,0,0,1-.55,0s0,0,0-.06a.78.78,0,0,1,0-.16v-.14a.63.63,0,0,1,0-.16s0-.07,0-.07a4.33,4.33,0,0,0,.55,0,1.34,1.34,0,0,0,.4-.13l-.12-1.19.47-.07Zm-.82,2.48.44.37-.37.44-.44-.37Z"/><path class="cls-3" d="M282.64,553.6a.63.63,0,0,1,0,.16v.14a.78.78,0,0,1,0,.16s0,.06,0,.06c-.49,0-.78-.11-.87-.34a.44.44,0,0,1-.16.14l-.26.09a3.42,3.42,0,0,1-.57.09,5.43,5.43,0,0,1-.71,0,4.77,4.77,0,0,1-.94-.08,1.11,1.11,0,0,1-.57-.3.77.77,0,0,1-.2-.58,1.42,1.42,0,0,1,0-.3l.14-.8.36.07-.12.71a1.09,1.09,0,0,0,0,.17.41.41,0,0,0,.14.35.86.86,0,0,0,.4.14,6.29,6.29,0,0,0,.7,0c.36,0,.67,0,.92,0a3.61,3.61,0,0,0,.7-.14l-.08-.9.45-.05.06,1a1.38,1.38,0,0,0,.6.1S282.63,553.55,282.64,553.6Zm-2.73-1.72-.39-.34.33-.4.41.33Zm.79,0-.4-.34.33-.4.41.34Z"/><path class="cls-3" d="M284.18,552.42a2.27,2.27,0,0,1,.24,1c0,.24-.15.41-.44.51a4.69,4.69,0,0,1-1.38.15s0,0,0-.06a.81.81,0,0,1,0-.16v-.14a.71.71,0,0,1,0-.16s0-.07,0-.07q.43,0,.84,0a2.6,2.6,0,0,0,.59-.12,1.72,1.72,0,0,0-.36-1,4.3,4.3,0,0,0-1-.87l0-.49a13.11,13.11,0,0,1,1.75-.78l.06.5a12.57,12.57,0,0,0-1.31.56l.14.1A3.26,3.26,0,0,1,284.18,552.42Z"/><path class="cls-3" d="M286.85,553.6a.37.37,0,0,1,0,.16v.14a.41.41,0,0,1,0,.16s0,.06,0,.06h-.15a.81.81,0,0,1-.65-.24v0a1.37,1.37,0,0,1-.36.91,3.51,3.51,0,0,1-1.13.77l-.29-.46a4.18,4.18,0,0,0,.93-.53,1.5,1.5,0,0,0,.44-.53l-.17-1.52.46-.12.07.71a.45.45,0,0,0,.11.27.36.36,0,0,0,.22.11,2.07,2.07,0,0,0,.39,0h.13S286.84,553.55,286.85,553.6Z"/><path class="cls-3" d="M290.36,553.44a.58.58,0,0,1-.25.51,1,1,0,0,1-.62.17.55.55,0,0,1-.57-.31.58.58,0,0,1-.28.23,1.08,1.08,0,0,1-.38.08.52.52,0,0,1-.55-.31,1,1,0,0,1-.89.31s0,0,0-.06a.78.78,0,0,1,0-.16v-.14a.63.63,0,0,1,0-.16s0-.07,0-.07a1.56,1.56,0,0,0,.68-.12v-.8h.42v.62q0,.19.09.24a.67.67,0,0,0,.32,0,.59.59,0,0,0,.39-.1l0-1h.43l0,1.05a.45.45,0,0,0,.3.08,1.15,1.15,0,0,0,.52-.1l-.12-1.25.47-.08C290.35,552.58,290.36,553,290.36,553.44Zm-1.83-1.62-.4-.33.33-.4.4.33Zm.36-.74-.38-.33.33-.4.39.34Zm0,.4.34-.4.39.34-.33.39Z"/><path class="cls-3" d="M292.6,553.51a.4.4,0,0,1,.11.27.37.37,0,0,1-.11.27.36.36,0,0,1-.26.11A.42.42,0,0,1,292,554a.54.54,0,0,1-.13-.37,1.47,1.47,0,0,1,.12-.52,3,3,0,0,1,.29-.56l.27.26c-.08.12-.14.23-.19.31a.93.93,0,0,0-.1.26h0A.36.36,0,0,1,292.6,553.51Z"/><path class="cls-3" d="M293.5,554.15a2.1,2.1,0,0,1,.12-.8,3.24,3.24,0,0,1,.49-.8.79.79,0,0,1,.63-.37.66.66,0,0,1,.58.32,1.39,1.39,0,0,1,.2.76,1.92,1.92,0,0,1-.08.55.59.59,0,0,1-.06.14l-.15.15a.35.35,0,0,1-.23.11.27.27,0,0,1-.12,0l-.95-.46a14.53,14.53,0,0,0,.13,1.75l-.45.18C293.54,554.94,293.5,554.44,293.5,554.15Zm1.63-.82a1,1,0,0,0-.1-.46.37.37,0,0,0-.34-.18.4.4,0,0,0-.29.15,2.58,2.58,0,0,0-.3.43l1,.45A1.48,1.48,0,0,0,295.13,553.33Z"/><path class="cls-3" d="M298.46,553.6a.71.71,0,0,1,0,.16v.14a.81.81,0,0,1,0,.16s0,.06,0,.06H298a1.9,1.9,0,0,1-.53.84,3.27,3.27,0,0,1-1,.6l-.29-.46a3.48,3.48,0,0,0,.86-.46,1.74,1.74,0,0,0,.53-.56,2.92,2.92,0,0,1-.54,0l-.36,0a.26.26,0,0,1-.14-.06.92.92,0,0,1-.13-.14,1,1,0,0,1-.09-.17.39.39,0,0,1,0-.15,2.45,2.45,0,0,1,.23-.93.68.68,0,0,1,.63-.41.67.67,0,0,1,.66.39,2.13,2.13,0,0,1,.21.9h.37S298.45,553.55,298.46,553.6Zm-1.34,0a2.58,2.58,0,0,0,.54,0,1.22,1.22,0,0,0-.13-.62.4.4,0,0,0-.36-.18.36.36,0,0,0-.34.2,1.24,1.24,0,0,0-.12.61A1.94,1.94,0,0,0,297.12,553.6Z"/><path class="cls-3" d="M300.57,553.6a.71.71,0,0,1,0,.16v.14a.81.81,0,0,1,0,.16s0,.06,0,.06a2,2,0,0,1-.67-.09.6.6,0,0,1-.35-.24.81.81,0,0,1-.43.26,2.62,2.62,0,0,1-.66.07s0,0,0-.06a.78.78,0,0,1,0-.16v-.14a.63.63,0,0,1,0-.16s0-.07,0-.07a2,2,0,0,0,.91-.15l-.13-2.92.47-.11.05,2.74a.41.41,0,0,0,.12.34.56.56,0,0,0,.37.1h.32S300.56,553.55,300.57,553.6Z"/><path class="cls-3" d="M303,553.8c-.42.11-.74.18-.94.22a4,4,0,0,1-.56.08l-.69,0h-.29s0,0,0-.06a.78.78,0,0,1,0-.16v-.14a.63.63,0,0,1,0-.16s0-.07,0-.07h.7a1.53,1.53,0,0,1-.14-.64.74.74,0,0,1,.27-.63,1.05,1.05,0,0,1,.69-.21,2,2,0,0,1,.53.08l-.12.5a1.51,1.51,0,0,0-.46-.06,1.37,1.37,0,0,0-.49.07,2.61,2.61,0,0,0,.05.48,1.76,1.76,0,0,0,.15.39,9.5,9.5,0,0,0,1.27-.26Z"/><path class="cls-3" d="M304.75,553.74c.05-.28.11-.64.18-1.07l.37.09c-.11.59-.18,1.06-.21,1.42a.37.37,0,0,0,.27.41,1.83,1.83,0,0,0,.64.11,3.42,3.42,0,0,0,.65-.06,1.45,1.45,0,0,0,.52-.19l-.2-2,.47-.1c.07.77.11,1.44.14,2a.69.69,0,0,1-.45.67,2.54,2.54,0,0,1-1.17.23,1.38,1.38,0,0,1-1-.29,1,1,0,0,1-.27-.66C304.68,554.22,304.71,554,304.75,553.74Zm1.76-2-.37.44-.44-.37.36-.44Z"/><path class="cls-3" d="M308.76,550.35l.05,3.77-.41.06-.1-3.72Z"/><path class="cls-3" d="M312.31,553.6a.71.71,0,0,1,0,.16v.14a.81.81,0,0,1,0,.16s0,.06,0,.06h-.12a.71.71,0,0,1-.72-.39.64.64,0,0,1-.06.14.16.16,0,0,1-.07.07,1.81,1.81,0,0,1-.49.18,3,3,0,0,1-.57.07.79.79,0,0,1-.52-.15.71.71,0,0,1-.17-.54v-.27h.37v.13a.22.22,0,0,0,0,.16s.05.05.11.06h.28a2.35,2.35,0,0,0,.51-.06,1.21,1.21,0,0,0,.41-.16l-.4-1.6.44-.27.31,1.49a1.86,1.86,0,0,0,.11.38.21.21,0,0,0,.16.13,1.79,1.79,0,0,0,.38,0S312.3,553.55,312.31,553.6Z"/><path class="cls-3" d="M314.22,553.6a.63.63,0,0,1,0,.16v.14a.78.78,0,0,1,0,.16s0,.06,0,.06a2.09,2.09,0,0,1-.66-.08.44.44,0,0,1-.27-.28.6.6,0,0,1-.34.28,2.3,2.3,0,0,1-.65.08s0,0,0-.06a.81.81,0,0,1,0-.16v-.14a.71.71,0,0,1,0-.16s0-.07,0-.07a1.74,1.74,0,0,0,.78-.13l-.1-1,.46,0,.07,1.11a.53.53,0,0,0,.25.08,2.77,2.77,0,0,0,.46,0S314.21,553.55,314.22,553.6Zm-1.54,1.14.4.34-.34.4-.39-.34Zm.78,0,.41.34-.35.4-.4-.34Z"/><path class="cls-3" d="M316.28,552.67a1.43,1.43,0,0,1,.21.79,2.25,2.25,0,0,1-.07.52.46.46,0,0,1-.07.14.88.88,0,0,1-.14.15.42.42,0,0,1-.24.11l-.12,0-1-.45a.5.5,0,0,1-.22.16,1,1,0,0,1-.37.06h-.1s0,0,0-.06a.78.78,0,0,1,0-.16v-.14a.63.63,0,0,1,0-.16s0-.07,0-.07h.18a.65.65,0,0,0,.22,0,.2.2,0,0,0,.13-.1,1,1,0,0,0,.14-.28,2.53,2.53,0,0,1,.35-.57.61.61,0,0,1,.48-.21A.66.66,0,0,1,316.28,552.67Zm-.17.84a.85.85,0,0,0-.12-.46.39.39,0,0,0-.35-.19.36.36,0,0,0-.27.16,1.53,1.53,0,0,0-.25.45l.93.41A1,1,0,0,0,316.11,553.51Z"/><path class="cls-3" d="M317.42,555.12a4.31,4.31,0,0,0,.92-.53,1.4,1.4,0,0,0,.44-.53l-.17-1.52.46-.12c0,.15,0,.24,0,.28,0,.27,0,.51.07.71s0,.37,0,.49a1.37,1.37,0,0,1-.36.91,3.46,3.46,0,0,1-1.14.77Zm1.61-3.79-.37.45-.44-.37.37-.45Z"/><path class="cls-3" d="M320.34,550.35l.05,3.77-.41.06-.1-3.72Z"/><path class="cls-3" d="M324.83,553.6a.71.71,0,0,1,0,.16v.14a.81.81,0,0,1,0,.16s0,.06,0,.06h-.12a.71.71,0,0,1-.72-.39.64.64,0,0,1-.06.14.16.16,0,0,1-.07.07,1.81,1.81,0,0,1-.49.18,3,3,0,0,1-.57.07.79.79,0,0,1-.52-.15.71.71,0,0,1-.17-.54v-.27h.37v.13a.22.22,0,0,0,0,.16s0,.05.11.06h.28a2.35,2.35,0,0,0,.51-.06,1.21,1.21,0,0,0,.41-.16l-.4-1.6.44-.27.31,1.49a1.86,1.86,0,0,0,.11.38.21.21,0,0,0,.16.13,1.79,1.79,0,0,0,.38,0S324.82,553.55,324.83,553.6Z"/><path class="cls-3" d="M327.66,553.6a.63.63,0,0,1,0,.16v.14a.78.78,0,0,1,0,.16s0,.06,0,.06h-.83a.66.66,0,0,1-.53-.21.94.94,0,0,1-.65.21h-.83s0,0,0-.06a.81.81,0,0,1,0-.16v-.14a.71.71,0,0,1,0-.16s0-.07,0-.07h1a3.31,3.31,0,0,1-.18-.29l-.26-.4a.66.66,0,0,0-.13-.16.08.08,0,0,0-.07,0H325l0-.5c.63-.07,1.09-.11,1.37-.11a1.55,1.55,0,0,1,.65.1.32.32,0,0,1,.22.33v.16a.93.93,0,0,1-.18.43,2.09,2.09,0,0,1-.37.44h.88S327.65,553.55,327.66,553.6Zm-1-.51a1.2,1.2,0,0,0,.26-.45s-.21-.08-.52-.08l-.41,0-.32,0a.31.31,0,0,1,.1.1,3,3,0,0,1,.21.3l.3.47A1.68,1.68,0,0,0,326.63,553.09Z"/><path class="cls-3" d="M328.94,552.26c0,.45,0,.82,0,1.1a.59.59,0,0,1-.32.54,1.79,1.79,0,0,1-.48.17,3.39,3.39,0,0,1-.54,0s0,0,0-.06a.78.78,0,0,1,0-.16v-.14a.71.71,0,0,1,0-.16s0-.07.05-.07a4.33,4.33,0,0,0,.55,0,1.45,1.45,0,0,0,.4-.13l-.12-1.19.47-.07Zm-.83,2.48.45.37-.37.44-.44-.37Z"/><path class="cls-3" d="M331.2,553.51a.4.4,0,0,1,.11.27.37.37,0,0,1-.11.27.39.39,0,0,1-.27.11.46.46,0,0,1-.31-.13.53.53,0,0,1-.12-.37,1.47,1.47,0,0,1,.12-.52,2.48,2.48,0,0,1,.29-.56l.27.26a3.3,3.3,0,0,0-.19.31.93.93,0,0,0-.1.26h0A.39.39,0,0,1,331.2,553.51Z"/><path class="cls-3" d="M332.32,554a.61.61,0,0,1-.22-.52,1.86,1.86,0,0,1,.56-1.12l-.21-.15.27-.41a3,3,0,0,1,.89.81,2,2,0,0,1,.28.95.29.29,0,0,1,0,.16.48.48,0,0,1-.08.16l-.1.13a.19.19,0,0,1-.07.06,2.12,2.12,0,0,1-.72.1A.89.89,0,0,1,332.32,554Zm1.19-.46a1.24,1.24,0,0,0-.55-1,1.94,1.94,0,0,0-.32.42.83.83,0,0,0-.14.39.17.17,0,0,0,.09.17,1,1,0,0,0,.37,0A2.26,2.26,0,0,0,333.51,553.54Z"/><path class="cls-3" d="M336,553.6a.63.63,0,0,1,0,.16v.14a.78.78,0,0,1,0,.16s0,.06,0,.06h-.13a1.07,1.07,0,0,1-.75-.23,1.22,1.22,0,0,1-.24-.81l-.08-2.62.47-.11,0,2.74a.43.43,0,0,0,.46.44H336S336,553.55,336,553.6Z"/><path class="cls-3" d="M338.54,553.6a.71.71,0,0,1,0,.16v.14a.81.81,0,0,1,0,.16s0,.06,0,.06h-.43a.54.54,0,0,1-.29-.07.48.48,0,0,1-.19-.21,1.31,1.31,0,0,1-.6.21,5.86,5.86,0,0,1-1,.07s0,0,0-.06a.78.78,0,0,1,0-.16v-.14a.63.63,0,0,1,0-.16s0-.07,0-.07c.29,0,.57,0,.83,0a2.6,2.6,0,0,0,.59-.12,1.72,1.72,0,0,0-.36-1,4.23,4.23,0,0,0-1-.87l0-.49a12.44,12.44,0,0,1,1.74-.78l.06.5a12.57,12.57,0,0,0-1.31.56l.14.1a3.3,3.3,0,0,1,.79.9,2.06,2.06,0,0,1,.28.93.32.32,0,0,0,.1.22.56.56,0,0,0,.26,0h.37S338.53,553.55,338.54,553.6Zm-1.44-3.26c-.32.14-.67.31-1,.5v-.4c.33-.18.66-.33,1-.47Z"/><path class="cls-3" d="M342.86,553.6a.71.71,0,0,1,0,.16v.14a.81.81,0,0,1,0,.16s0,.06,0,.06h-.26a.92.92,0,0,1-.38-.08.45.45,0,0,1-.24-.23.65.65,0,0,1-.32.24,1.25,1.25,0,0,1-.45.07.54.54,0,0,1-.56-.31.57.57,0,0,1-.29.23,1,1,0,0,1-.38.08.53.53,0,0,1-.55-.31c-.14.21-.43.31-.88.31,0,0,0,0,0-.06a.78.78,0,0,1,0-.16v-.14a.71.71,0,0,1,0-.16s0-.07.05-.07a1.59,1.59,0,0,0,.68-.12v-.8h.42v.62q0,.19.09.24a.67.67,0,0,0,.32,0,.59.59,0,0,0,.39-.1l0-1h.43l0,1.05a.45.45,0,0,0,.3.08,1.15,1.15,0,0,0,.52-.1l-.12-1.25.47-.08.06,1a.42.42,0,0,0,.06.25.2.2,0,0,0,.13.11.85.85,0,0,0,.25,0h.31S342.85,553.55,342.86,553.6Zm-2.65-1.78-.39-.33.33-.4.4.33Zm.37-.74-.39-.33.33-.4.4.34Zm0,.4.33-.4.4.34-.33.39Z"/><path class="cls-3" d="M344.12,552.11v.15c0,.45,0,.82,0,1.1a.6.6,0,0,1-.31.54,1.79,1.79,0,0,1-.48.17,3.51,3.51,0,0,1-.55,0s0,0,0-.06a.78.78,0,0,1,0-.16v-.14a.63.63,0,0,1,0-.16s0-.07,0-.07a4.33,4.33,0,0,0,.55,0,1.34,1.34,0,0,0,.4-.13l-.12-1.19Zm-.31-.53-.45-.38.37-.44.45.37Z"/><path class="cls-3" d="M345.37,550.35l0,3.77-.41.06-.1-3.72Z"/><path class="cls-3" d="M348.24,552.55a2,2,0,0,1,.24.88,1,1,0,0,1,0,.26.59.59,0,0,1-.12.2,1.05,1.05,0,0,1-.45.22,2.75,2.75,0,0,1-.7.08,2,2,0,0,1-.56-.07.51.51,0,0,1-.28-.24,1.22,1.22,0,0,1-.07-.48v-.2l.37,0v.08a.36.36,0,0,0,.05.21.18.18,0,0,0,.15.08h.37l.46,0a1.68,1.68,0,0,0,.41-.09,1.43,1.43,0,0,0-.23-.75,3.87,3.87,0,0,0-.68-.77l.31-.41A3.71,3.71,0,0,1,348.24,552.55Z"/><path class="cls-3" d="M350.22,553.74c0-.28.11-.64.18-1.07l.37.09c-.11.59-.18,1.06-.21,1.42a.37.37,0,0,0,.27.41,1.83,1.83,0,0,0,.64.11,3.49,3.49,0,0,0,.65-.06,1.45,1.45,0,0,0,.52-.19l-.2-2,.47-.1c.07.77.11,1.44.13,2a.66.66,0,0,1-.44.67,2.54,2.54,0,0,1-1.17.23,1.38,1.38,0,0,1-1-.29,1,1,0,0,1-.27-.66C350.15,554.22,350.18,554,350.22,553.74Zm1.76-2-.37.44-.44-.37.36-.44Z"/><path class="cls-3" d="M355.09,553.6a.63.63,0,0,1,0,.16v.14a.78.78,0,0,1,0,.16s0,.06,0,.06h-.12a1.07,1.07,0,0,1-.75-.23,1.22,1.22,0,0,1-.25-.81l-.08-2.62.48-.11,0,2.74a.41.41,0,0,0,.12.32.45.45,0,0,0,.34.12h.22S355.08,553.55,355.09,553.6Z"/><path class="cls-3" d="M356.37,552.26c0,.45,0,.82,0,1.1a.61.61,0,0,1-.32.54,1.79,1.79,0,0,1-.48.17,3.51,3.51,0,0,1-.55,0s0,0,0-.06a.81.81,0,0,1,0-.16v-.14a.71.71,0,0,1,0-.16s0-.07,0-.07a4.5,4.5,0,0,0,.56,0,1.37,1.37,0,0,0,.39-.13l-.12-1.19.48-.07Zm-.83,2.48.45.37-.38.44-.43-.37Z"/><path class="cls-3" d="M358.46,553.6a.71.71,0,0,1,0,.16v.14a.81.81,0,0,1,0,.16s0,.06,0,.06h-.12a1.07,1.07,0,0,1-.75-.23,1.17,1.17,0,0,1-.25-.81l-.08-2.62.48-.11,0,2.74a.41.41,0,0,0,.12.32.45.45,0,0,0,.33.12h.23S358.45,553.55,358.46,553.6Z"/><path class="cls-3" d="M360.37,553.6a.63.63,0,0,1,0,.16v.14a.78.78,0,0,1,0,.16s0,.06,0,.06a2.09,2.09,0,0,1-.66-.08.44.44,0,0,1-.27-.28.6.6,0,0,1-.34.28,2.3,2.3,0,0,1-.65.08s0,0,0-.06a.78.78,0,0,1,0-.16v-.14a.63.63,0,0,1,0-.16s0-.07,0-.07a1.74,1.74,0,0,0,.78-.13l-.1-1,.46,0,.07,1.11a.53.53,0,0,0,.25.08,2.77,2.77,0,0,0,.46,0S360.36,553.55,360.37,553.6Zm-1.54,1.14.4.34-.34.4-.4-.34Zm.78,0,.41.34-.35.4-.4-.34Z"/><path class="cls-3" d="M363,552.45a2.3,2.3,0,0,0,.6.09l-.11.52a1.41,1.41,0,0,0-.47.11,4.37,4.37,0,0,0-.56.29l-.18.09a6.24,6.24,0,0,1-.88.42,2.59,2.59,0,0,1-.93.15h-.14s0,0,0-.06a.78.78,0,0,1,0-.16v-.14a.63.63,0,0,1,0-.16s0-.07,0-.07h.14a2.71,2.71,0,0,0,.68-.09,6,6,0,0,0,.71-.24l.4-.18.34-.15.1,0h0a3.34,3.34,0,0,1-.65-.2,1.87,1.87,0,0,0-.64-.19.23.23,0,0,0-.2.1,1,1,0,0,0-.09.25l-.36-.06a1.38,1.38,0,0,1,.22-.58.47.47,0,0,1,.43-.2,1.16,1.16,0,0,1,.33.06l.53.18C362.55,552.3,362.8,552.39,363,552.45Zm-1.07-1-.43-.38.36-.44.44.37Z"/><path class="cls-3" d="M365.8,553.51a.4.4,0,0,1,.11.27.38.38,0,0,1-.38.38.46.46,0,0,1-.31-.13.53.53,0,0,1-.12-.37,1.47,1.47,0,0,1,.12-.52,2.48,2.48,0,0,1,.29-.56l.27.26a3.3,3.3,0,0,0-.19.31.93.93,0,0,0-.1.26h0A.37.37,0,0,1,365.8,553.51Z"/><path class="cls-3" d="M366.77,553.74c0-.28.1-.64.18-1.07l.36.09c-.1.59-.17,1.06-.2,1.42a.36.36,0,0,0,.26.41,1.87,1.87,0,0,0,.64.11,3.52,3.52,0,0,0,.66-.06,1.45,1.45,0,0,0,.52-.19l-.2-2,.47-.1c.06.77.11,1.44.13,2a.69.69,0,0,1-.45.67,2.54,2.54,0,0,1-1.17.23,1.36,1.36,0,0,1-1-.29,1,1,0,0,1-.27-.66A3.92,3.92,0,0,1,366.77,553.74Zm1.76-2-.38.44-.44-.37.37-.44Z"/><path class="cls-3" d="M371.64,553.6a.71.71,0,0,1,0,.16v.14a.81.81,0,0,1,0,.16s0,.06,0,.06h-.12a1,1,0,0,1-.75-.23,1.17,1.17,0,0,1-.25-.81l-.08-2.62.47-.11.05,2.74a.41.41,0,0,0,.12.32.45.45,0,0,0,.33.12h.23S371.63,553.55,371.64,553.6Z"/><path class="cls-3" d="M376,553.6a.63.63,0,0,1,0,.16v.14a.78.78,0,0,1,0,.16s0,.06,0,.06h-.25a.93.93,0,0,1-.39-.08.49.49,0,0,1-.24-.23.61.61,0,0,1-.32.24,1.23,1.23,0,0,1-.44.07.55.55,0,0,1-.57-.31.54.54,0,0,1-.28.23,1.08,1.08,0,0,1-.38.08.52.52,0,0,1-.55-.31c-.14.21-.44.31-.89.31,0,0,0,0,0-.06a.78.78,0,0,1,0-.16v-.14a.63.63,0,0,1,0-.16s0-.07,0-.07a1.56,1.56,0,0,0,.68-.12v-.8h.43l0,.62q0,.19.09.24a.69.69,0,0,0,.32,0,.62.62,0,0,0,.4-.1l0-1h.44l0,1.05a.4.4,0,0,0,.29.08,1.15,1.15,0,0,0,.52-.1l-.11-1.25.46-.08.06,1a.65.65,0,0,0,.06.25.19.19,0,0,0,.14.11.81.81,0,0,0,.25,0h.3S375.94,553.55,376,553.6Z"/><path class="cls-3" d="M376.16,554.74l.41.34-.34.4-.4-.34Zm-.29-.68a.81.81,0,0,1,0-.16v-.14a.71.71,0,0,1,0-.16s0-.07,0-.07a4.5,4.5,0,0,0,.56,0,1.37,1.37,0,0,0,.39-.13l-.12-1.19.48-.07v.15c0,.45,0,.82,0,1.1a.61.61,0,0,1-.32.54,1.79,1.79,0,0,1-.48.17,3.51,3.51,0,0,1-.55,0S375.89,554.1,375.87,554.06Zm1.48,1-.34.4-.4-.34.34-.4Z"/><path class="cls-3" d="M379.94,552.55a2.1,2.1,0,0,1,.23.88.71.71,0,0,1,0,.26.47.47,0,0,1-.12.2,1.07,1.07,0,0,1-.44.22,2.87,2.87,0,0,1-.7.08,2,2,0,0,1-.57-.07.46.46,0,0,1-.27-.24,1,1,0,0,1-.08-.48v-.2l.38,0v.08a.37.37,0,0,0,0,.21.22.22,0,0,0,.15.08h.37l.47,0a1.68,1.68,0,0,0,.41-.09,1.36,1.36,0,0,0-.24-.75,3.58,3.58,0,0,0-.68-.77l.31-.41A4,4,0,0,1,379.94,552.55Z"/><path class="cls-3" d="M382.55,553.6a.71.71,0,0,1,0,.16v.14a.81.81,0,0,1,0,.16s0,.06,0,.06h-.14a.78.78,0,0,1-.65-.24v0a1.37,1.37,0,0,1-.36.91,3.46,3.46,0,0,1-1.14.77l-.28-.46a4.31,4.31,0,0,0,.92-.53,1.4,1.4,0,0,0,.44-.53l-.17-1.52.46-.12.08.71a.4.4,0,0,0,.1.27.36.36,0,0,0,.22.11,2.07,2.07,0,0,0,.39,0h.13S382.54,553.55,382.55,553.6Z"/><path class="cls-3" d="M382.79,555.42l-.39-.33.33-.4.4.33Zm-.32-1.36a.78.78,0,0,1,0-.16v-.14a.63.63,0,0,1,0-.16s0-.07,0-.07a4.22,4.22,0,0,0,.55,0,1.34,1.34,0,0,0,.4-.13l-.12-1.19.47-.07v.15c0,.45,0,.82,0,1.1a.61.61,0,0,1-.32.54,1.79,1.79,0,0,1-.48.17,3.51,3.51,0,0,1-.55,0S382.48,554.1,382.47,554.06Zm.64,1.36.4.33-.33.4-.39-.34Zm.79-.41-.34.4-.39-.33.33-.4Z"/><path class="cls-3" d="M311.43,568l-.08.29a.18.18,0,0,1-.19.14H311a.14.14,0,0,1-.16-.16V564a.14.14,0,0,1,.16-.16h.33c.11,0,.17,0,.17.16v1.35a.68.68,0,0,1,.65-.41c.48,0,.72.32.72.94v1.63c0,.62-.24.94-.72.94A.7.7,0,0,1,311.43,568Zm.75-2c0-.3-.1-.41-.32-.41a.42.42,0,0,0-.39.46v1.45a.42.42,0,0,0,.39.46c.22,0,.32-.11.32-.41Z"/><path class="cls-3" d="M313.21,567.59v-.05a1,1,0,0,1,.29-.77,2.21,2.21,0,0,1,.58-.34l.26-.12a.43.43,0,0,0,.24-.33v0c0-.28-.11-.42-.34-.42s-.34.14-.34.42V566a.15.15,0,0,1-.17.17h-.28c-.11,0-.17-.06-.17-.18q0-1.05,1-1c.65,0,1,.36,1,1.07v1.27a8.56,8.56,0,0,0,0,.91c0,.13,0,.18-.15.18h-.3a.15.15,0,0,1-.18-.14,1.09,1.09,0,0,1,0-.26.72.72,0,0,1-.68.48C313.45,568.47,313.21,568.17,313.21,567.59Zm1.37-.14v-.71l-.15.07a2,2,0,0,0-.39.23.51.51,0,0,0-.18.43v0c0,.29.11.39.33.39A.42.42,0,0,0,314.58,567.45Z"/><path class="cls-3" d="M315.65,567.45a.15.15,0,0,1,.17-.17h.27a.15.15,0,0,1,.17.17v.06c0,.29.12.43.35.43s.35-.14.35-.4v-.06c0-.23-.15-.32-.5-.47a1.82,1.82,0,0,1-.54-.33,1,1,0,0,1-.27-.74v0a.87.87,0,0,1,1-1,.86.86,0,0,1,1,1,.15.15,0,0,1-.17.17h-.27a.15.15,0,0,1-.17-.17v0c0-.29-.12-.43-.34-.43s-.35.14-.35.4v0a.36.36,0,0,0,.15.31,2,2,0,0,0,.34.18,1.34,1.34,0,0,1,.44.24.91.91,0,0,1,.37.82v0a.87.87,0,0,1-1,1C316,568.47,315.65,568.13,315.65,567.45Z"/><path class="cls-3" d="M317.94,567.59v-.05a.94.94,0,0,1,.3-.77,2.06,2.06,0,0,1,.58-.34l.26-.12a.43.43,0,0,0,.24-.33v0c0-.28-.11-.42-.34-.42s-.34.14-.34.42V566a.15.15,0,0,1-.17.17h-.28c-.11,0-.17-.06-.17-.18q0-1.05,1-1c.64,0,1,.36,1,1.07v1.27a6.48,6.48,0,0,0,0,.91c0,.13,0,.18-.15.18h-.3c-.11,0-.17,0-.19-.14a2,2,0,0,1,0-.26.71.71,0,0,1-.68.48C318.18,568.47,317.94,568.17,317.94,567.59Zm1.38-.14v-.71l-.15.07a2,2,0,0,0-.39.23.51.51,0,0,0-.18.43v0c0,.29.11.39.32.39A.42.42,0,0,0,319.32,567.45Z"/><path class="cls-3" d="M321.14,568.23c0,.11-.06.16-.17.16h-.32c-.11,0-.17,0-.17-.16V564c0-.11.06-.16.17-.16H321c.11,0,.17,0,.17.16Z"/><path class="cls-3" d="M321.56,567.59v-.05a.94.94,0,0,1,.3-.77,2.06,2.06,0,0,1,.58-.34l.26-.12a.43.43,0,0,0,.24-.33v0c0-.28-.11-.42-.34-.42s-.34.14-.34.42V566a.15.15,0,0,1-.17.17h-.28c-.11,0-.17-.06-.17-.18q0-1.05,1-1c.64,0,1,.36,1,1.07v1.27a6.48,6.48,0,0,0,0,.91c0,.13,0,.18-.15.18h-.3c-.11,0-.17,0-.19-.14a2,2,0,0,1,0-.26.71.71,0,0,1-.68.48C321.8,568.47,321.56,568.17,321.56,567.59Zm1.38-.14v-.71l-.15.07a2,2,0,0,0-.39.23.51.51,0,0,0-.18.43v0c0,.29.11.39.32.39A.42.42,0,0,0,322.94,567.45Z"/><path class="cls-3" d="M324.27,568.39c-.11,0-.17,0-.17-.16v-3c0-.11.06-.16.17-.16h.28c.11,0,.17.05.17.16v.28a.68.68,0,0,1,.68-.52.61.61,0,0,1,.64.5.71.71,0,0,1,.69-.5c.46,0,.7.32.7.94v2.33c0,.11-.06.16-.17.16h-.33a.14.14,0,0,1-.16-.16v-2.29c0-.31-.1-.41-.31-.41s-.37.19-.37.46v2.24c0,.11-.06.16-.17.16h-.32a.14.14,0,0,1-.16-.16v-2.29c0-.31-.09-.41-.31-.41s-.37.19-.37.46v2.24c0,.11-.06.16-.17.16Z"/><path class="cls-3" d="M328.11,568.39c-.11,0-.17,0-.17-.16v-.65a.15.15,0,0,1,.17-.17h.32a.15.15,0,0,1,.17.17v.65c0,.11-.06.16-.17.16Z"/><path class="cls-3" d="M329.1,566c0-.71.33-1.07,1-1.07s1,.36,1,1.07v.14c0,.09-.06.14-.17.14h-.27a.15.15,0,0,1-.17-.17v-.2c0-.28-.12-.41-.36-.41s-.36.13-.36.41v1.55c0,.28.12.41.36.41s.36-.13.36-.41v-.26a.15.15,0,0,1,.17-.17h.27a.15.15,0,0,1,.17.17v.17c0,.71-.33,1.07-1,1.07s-1-.36-1-1.07Z"/><path class="cls-3" d="M331.46,567.4V566c0-.71.34-1.07,1-1.07s1,.36,1,1.07v1.37c0,.71-.33,1.07-1,1.07S331.46,568.11,331.46,567.4Zm1.38.09v-1.55c0-.28-.12-.41-.36-.41s-.36.13-.36.41v1.55c0,.28.12.41.36.41S332.84,567.77,332.84,567.49Z"/><path class="cls-3" d="M334.14,568.39c-.11,0-.17,0-.17-.16v-3c0-.11.06-.16.17-.16h.28a.14.14,0,0,1,.16.16v.28a.7.7,0,0,1,.69-.52.61.61,0,0,1,.64.5.71.71,0,0,1,.68-.5c.47,0,.7.32.7.94v2.33a.14.14,0,0,1-.16.16h-.33c-.11,0-.17,0-.17-.16v-2.29c0-.31-.09-.41-.3-.41s-.37.19-.37.46v2.24c0,.11-.06.16-.17.16h-.32c-.11,0-.17,0-.17-.16v-2.29c0-.31-.09-.41-.3-.41s-.37.19-.37.46v2.24c0,.11-.06.16-.17.16Z"/><path class="cls-3" d="M268.71,579.81v-.74h3.49v.74h-1.3v3.51H270v-3.51Z"/><path class="cls-3" d="M277.48,583.38a1.28,1.28,0,0,1-.8-.26,1.55,1.55,0,0,1-.5-.74,3.47,3.47,0,0,1-.18-1.19,3.39,3.39,0,0,1,.18-1.17,1.53,1.53,0,0,1,.5-.75,1.28,1.28,0,0,1,.8-.26,1.25,1.25,0,0,1,.79.26,1.61,1.61,0,0,1,.51.75,3.4,3.4,0,0,1,.17,1.17,3.48,3.48,0,0,1-.17,1.19,1.62,1.62,0,0,1-.5.74A1.28,1.28,0,0,1,277.48,583.38Zm0-.46a.79.79,0,0,0,.72-.45,2.6,2.6,0,0,0,.26-1.28,3.14,3.14,0,0,0-.12-.93,1.34,1.34,0,0,0-.34-.6.75.75,0,0,0-.52-.2.79.79,0,0,0-.72.45,2.66,2.66,0,0,0-.26,1.28,3.21,3.21,0,0,0,.12.94,1.2,1.2,0,0,0,.33.59A.78.78,0,0,0,277.48,582.92Z"/><path class="cls-3" d="M279.73,583.32v-.38l1.4-1.53c.17-.18.3-.34.41-.47a1.82,1.82,0,0,0,.24-.38.9.9,0,0,0,.07-.37.66.66,0,0,0-.39-.64,1,1,0,0,0-.42-.09.82.82,0,0,0-.42.1.71.71,0,0,0-.29.28.94.94,0,0,0-.09.43h-.49a1.2,1.2,0,0,1,.17-.66,1.17,1.17,0,0,1,.47-.44,1.47,1.47,0,0,1,.67-.16,1.4,1.4,0,0,1,.66.16,1.24,1.24,0,0,1,.45.43,1.07,1.07,0,0,1,.16.59,1.21,1.21,0,0,1-.08.46,1.73,1.73,0,0,1-.29.49,8.29,8.29,0,0,1-.57.67l-.95,1v0h2v.46Z"/><path class="cls-3" d="M284.58,583.38a1.45,1.45,0,0,1-.66-.15,1.31,1.31,0,0,1-.47-.4,1.14,1.14,0,0,1-.19-.57h.5a.64.64,0,0,0,.26.47.85.85,0,0,0,.56.19.88.88,0,0,0,.46-.12.9.9,0,0,0,.33-.34,1.07,1.07,0,0,0,.11-.49,1,1,0,0,0-.12-.49.93.93,0,0,0-.33-.35,1.07,1.07,0,0,0-.48-.13,1.39,1.39,0,0,0-.4.06,1.2,1.2,0,0,0-.34.16l-.48-.06.25-2.09h2.21v.46H284l-.15,1.25h0a1,1,0,0,1,.33-.17,1.14,1.14,0,0,1,.41-.07,1.31,1.31,0,0,1,.69.18,1.41,1.41,0,0,1,.49.51,1.61,1.61,0,0,1,.17.74,1.43,1.43,0,0,1-.18.72,1.39,1.39,0,0,1-1.22.69Z"/><path class="cls-3" d="M288.62,581v.45h-1.85V581Z"/><path class="cls-3" d="M290.82,579a1.6,1.6,0,0,1,.52.1,1.38,1.38,0,0,1,.48.33,1.55,1.55,0,0,1,.34.61,3,3,0,0,1,.13,1,4.43,4.43,0,0,1-.1,1,2.33,2.33,0,0,1-.31.73,1.32,1.32,0,0,1-.48.46,1.39,1.39,0,0,1-.65.16,1.28,1.28,0,0,1-.63-.15,1.16,1.16,0,0,1-.46-.39,1.46,1.46,0,0,1-.23-.59h.51a1,1,0,0,0,.27.48.76.76,0,0,0,.54.19.88.88,0,0,0,.78-.43,2.19,2.19,0,0,0,.28-1.21h0a1.58,1.58,0,0,1-.28.3,1.08,1.08,0,0,1-.35.19,1.14,1.14,0,0,1-.41.07,1.27,1.27,0,0,1-.67-.18,1.31,1.31,0,0,1-.49-.5,1.44,1.44,0,0,1-.18-.73,1.41,1.41,0,0,1,.18-.71,1.29,1.29,0,0,1,.49-.52A1.39,1.39,0,0,1,290.82,579Zm0,.46a.83.83,0,0,0-.47.13.93.93,0,0,0-.33.35,1,1,0,0,0,0,1,.83.83,0,0,0,.32.35.88.88,0,0,0,.46.13.91.91,0,0,0,.37-.08,1.05,1.05,0,0,0,.3-.22,1.21,1.21,0,0,0,.2-.3,1.16,1.16,0,0,0,.07-.37.93.93,0,0,0-.12-.46,1,1,0,0,0-.33-.36A.83.83,0,0,0,290.82,579.47Z"/><path class="cls-3" d="M294.59,579.07v4.25h-.52v-3.71h0l-1,.69v-.52l1.06-.71Z"/><path class="cls-3" d="M297.18,583.38a1.28,1.28,0,0,1-.8-.26,1.62,1.62,0,0,1-.5-.74,3.48,3.48,0,0,1-.17-1.19,3.4,3.4,0,0,1,.17-1.17,1.61,1.61,0,0,1,.51-.75,1.25,1.25,0,0,1,.79-.26,1.28,1.28,0,0,1,.8.26,1.53,1.53,0,0,1,.5.75,3.39,3.39,0,0,1,.18,1.17,3.47,3.47,0,0,1-.18,1.19,1.55,1.55,0,0,1-.5.74A1.28,1.28,0,0,1,297.18,583.38Zm0-.46a.79.79,0,0,0,.72-.45,2.6,2.6,0,0,0,.26-1.28,3.14,3.14,0,0,0-.12-.93,1.33,1.33,0,0,0-.33-.6.78.78,0,0,0-.53-.2.79.79,0,0,0-.72.45,2.66,2.66,0,0,0-.26,1.28,3.21,3.21,0,0,0,.12.94,1.38,1.38,0,0,0,.33.59A.79.79,0,0,0,297.18,582.92Z"/><path class="cls-3" d="M300.82,583.38a1.28,1.28,0,0,1-.8-.26,1.55,1.55,0,0,1-.5-.74,3.47,3.47,0,0,1-.18-1.19,3.39,3.39,0,0,1,.18-1.17,1.6,1.6,0,0,1,.5-.75,1.36,1.36,0,0,1,1.6,0,1.6,1.6,0,0,1,.5.75,3.39,3.39,0,0,1,.18,1.17,3.47,3.47,0,0,1-.18,1.19,1.55,1.55,0,0,1-.5.74A1.28,1.28,0,0,1,300.82,583.38Zm0-.46a.79.79,0,0,0,.72-.45,2.6,2.6,0,0,0,.26-1.28,3.14,3.14,0,0,0-.12-.93,1.43,1.43,0,0,0-.33-.6.8.8,0,0,0-1.25.25,2.66,2.66,0,0,0-.26,1.28,3.21,3.21,0,0,0,.12.94,1.29,1.29,0,0,0,.33.59A.78.78,0,0,0,300.82,582.92Z"/><path class="cls-3" d="M304.51,583.38a1.83,1.83,0,0,1-.73-.14,1.22,1.22,0,0,1-.51-.4,1.08,1.08,0,0,1-.21-.58h.53a.57.57,0,0,0,.14.35.75.75,0,0,0,.32.23,1.33,1.33,0,0,0,.45.08,1.06,1.06,0,0,0,.48-.1.76.76,0,0,0,.34-.26.67.67,0,0,0,.12-.39.74.74,0,0,0-.12-.42.79.79,0,0,0-.34-.28,1.29,1.29,0,0,0-.55-.1h-.34v-.46h.34a1.06,1.06,0,0,0,.45-.09.7.7,0,0,0,.3-.26.71.71,0,0,0,.11-.39.66.66,0,0,0-.1-.37.6.6,0,0,0-.27-.25.84.84,0,0,0-.4-.09,1.16,1.16,0,0,0-.42.08.72.72,0,0,0-.31.23.57.57,0,0,0-.14.36h-.49a.93.93,0,0,1,.2-.58,1.29,1.29,0,0,1,.49-.4,1.67,1.67,0,0,1,.67-.14,1.42,1.42,0,0,1,.68.16,1.16,1.16,0,0,1,.43.42,1.09,1.09,0,0,1,.15.56,1,1,0,0,1-.18.61,1,1,0,0,1-.51.35v0a1,1,0,0,1,.63.35,1,1,0,0,1,.22.68,1.06,1.06,0,0,1-.19.62,1.28,1.28,0,0,1-.51.43A1.7,1.7,0,0,1,304.51,583.38Z"/><path class="cls-3" d="M308.27,579.07v4.25h-.51v-3.71h0l-1,.69v-.52l1.07-.71Z"/><path class="cls-3" d="M309.61,583.32l1.9-3.76v0h-2.19v-.46H312v.48l-1.89,3.77Z"/><path class="cls-3" d="M314.07,583.38a1.45,1.45,0,0,1-.66-.15,1.31,1.31,0,0,1-.47-.4,1.14,1.14,0,0,1-.19-.57h.5a.64.64,0,0,0,.26.47.85.85,0,0,0,.56.19.94.94,0,0,0,.47-.12,1,1,0,0,0,.32-.34A1.07,1.07,0,0,0,315,582a1,1,0,0,0-.12-.49.93.93,0,0,0-.33-.35A1.07,1.07,0,0,0,314,581a1.39,1.39,0,0,0-.4.06,1.2,1.2,0,0,0-.34.16l-.48-.06.25-2.09h2.21v.46h-1.77l-.15,1.25h0a1,1,0,0,1,.33-.17,1.14,1.14,0,0,1,.41-.07,1.31,1.31,0,0,1,.69.18,1.41,1.41,0,0,1,.49.51,1.61,1.61,0,0,1,.17.74,1.43,1.43,0,0,1-.18.72,1.39,1.39,0,0,1-1.22.69Z"/><path class="cls-3" d="M321.1,583.32v-4.25H324v.74h-2v1h1.82v.74H322v1h2v.74Z"/><path class="cls-3" d="M328.26,579.6a.33.33,0,0,1-.25-.1.31.31,0,0,1,0-.46.33.33,0,0,1,.25-.1.33.33,0,0,1,.24.1.31.31,0,0,1,0,.46A.33.33,0,0,1,328.26,579.6Zm-.25,3.72v-3.19h.49v3.19Z"/><path class="cls-3" d="M329.87,581.4v1.92h-.49v-3.19h.47v.5h0a.85.85,0,0,1,.34-.39,1,1,0,0,1,.58-.15,1.26,1.26,0,0,1,.57.13.92.92,0,0,1,.38.4,1.48,1.48,0,0,1,.13.67v2h-.49v-2a.84.84,0,0,0-.19-.59.7.7,0,0,0-.54-.21.8.8,0,0,0-.41.1.7.7,0,0,0-.29.3A1,1,0,0,0,329.87,581.4Z"/><path class="cls-3" d="M334.21,580.13v.42h-1.72v-.42ZM333,583.32v-3.63a.8.8,0,0,1,.13-.45.88.88,0,0,1,.33-.28,1.22,1.22,0,0,1,.73-.06l.17.06-.14.42-.1,0a.42.42,0,0,0-.17,0,.45.45,0,0,0-.35.12.53.53,0,0,0-.11.36v3.51Z"/><path class="cls-3" d="M336,583.38a1.34,1.34,0,0,1-.75-.2,1.37,1.37,0,0,1-.51-.58,1.91,1.91,0,0,1-.18-.86,2,2,0,0,1,.18-.87,1.38,1.38,0,0,1,1.26-.78,1.38,1.38,0,0,1,.76.21,1.41,1.41,0,0,1,.51.57,2,2,0,0,1,.18.87,1.91,1.91,0,0,1-.18.86,1.44,1.44,0,0,1-.51.58A1.37,1.37,0,0,1,336,583.38Zm0-.44a.85.85,0,0,0,.54-.16,1.09,1.09,0,0,0,.32-.44,1.93,1.93,0,0,0,.1-.6,1.87,1.87,0,0,0-.1-.59,1,1,0,0,0-.32-.45.85.85,0,0,0-.54-.17.89.89,0,0,0-.54.17,1,1,0,0,0-.31.45,1.63,1.63,0,0,0-.1.59,1.68,1.68,0,0,0,.1.6,1.07,1.07,0,0,0,.31.44A.89.89,0,0,0,336,582.94Z"/><path class="cls-3" d="M340.67,584.44a3.21,3.21,0,0,1-1.12-.18,2.06,2.06,0,0,1-.82-.5,2.17,2.17,0,0,1-.5-.83,3.16,3.16,0,0,1-.17-1.11,3.08,3.08,0,0,1,.17-1.09,2.09,2.09,0,0,1,.5-.81,2,2,0,0,1,.81-.51,3,3,0,0,1,1.07-.18,2.48,2.48,0,0,1,1,.19,2.32,2.32,0,0,1,.74.51,2.37,2.37,0,0,1,.44.73,2.29,2.29,0,0,1,.15.82,6.08,6.08,0,0,1,0,.61,2.39,2.39,0,0,1-.12.57,1.06,1.06,0,0,1-.29.42.83.83,0,0,1-.52.16,1.25,1.25,0,0,1-.32,0,.81.81,0,0,1-.31-.15.41.41,0,0,1-.16-.29h0a.65.65,0,0,1-.15.23.73.73,0,0,1-.27.17.82.82,0,0,1-.4.06,1,1,0,0,1-.82-.42,1.32,1.32,0,0,1-.2-.45,1.93,1.93,0,0,1-.07-.55,1.4,1.4,0,0,1,.08-.51,1.18,1.18,0,0,1,.23-.41,1.35,1.35,0,0,1,.35-.28,1.26,1.26,0,0,1,.43-.13,1.53,1.53,0,0,1,.38,0,.91.91,0,0,1,.28.12.35.35,0,0,1,.14.16h0v-.23h.44v1.88a.47.47,0,0,0,.1.3.32.32,0,0,0,.28.14.4.4,0,0,0,.33-.15,1,1,0,0,0,.15-.45,5.3,5.3,0,0,0,0-.77,2,2,0,0,0-.08-.55,2,2,0,0,0-.23-.51,1.69,1.69,0,0,0-.38-.42,1.9,1.9,0,0,0-.55-.28,2.15,2.15,0,0,0-.7-.1,2.42,2.42,0,0,0-.88.15,1.83,1.83,0,0,0-.65.44,2,2,0,0,0-.41.69,3,3,0,0,0-.14.93,3,3,0,0,0,.14.94,1.82,1.82,0,0,0,.42.7,1.74,1.74,0,0,0,.68.42,2.69,2.69,0,0,0,.94.15,2.12,2.12,0,0,0,.44,0,3.33,3.33,0,0,0,.4-.1l.24-.08.12.39a2.94,2.94,0,0,1-.34.1,2.63,2.63,0,0,1-.44.09A2.25,2.25,0,0,1,340.67,584.44Zm-.24-1.65a.88.88,0,0,0,.45-.11.68.68,0,0,0,.25-.34,1.82,1.82,0,0,0,.08-.57,1.34,1.34,0,0,0-.09-.55.49.49,0,0,0-.26-.27,1,1,0,0,0-.42-.08.68.68,0,0,0-.4.12.81.81,0,0,0-.25.33,1.13,1.13,0,0,0-.09.45,1.68,1.68,0,0,0,.07.5.78.78,0,0,0,.23.37A.59.59,0,0,0,340.43,582.79Z"/><path class="cls-3" d="M343.74,583.32v-4.25h.49v1.57h0l.15-.21a1,1,0,0,1,.28-.24,1.12,1.12,0,0,1,.49-.1,1.28,1.28,0,0,1,.71.2,1.34,1.34,0,0,1,.48.57,2.34,2.34,0,0,1,0,1.75,1.27,1.27,0,0,1-.47.57,1.23,1.23,0,0,1-.71.2,1,1,0,0,1-.49-.1.82.82,0,0,1-.28-.23l-.16-.22h0v.49Zm.48-1.59a1.73,1.73,0,0,0,.11.63.92.92,0,0,0,.31.43.9.9,0,0,0,1,0,1,1,0,0,0,.31-.44,1.7,1.7,0,0,0,.1-.61,1.66,1.66,0,0,0-.1-.61,1,1,0,0,0-.31-.43.78.78,0,0,0-.51-.16.85.85,0,0,0-.51.15,1,1,0,0,0-.3.42A1.73,1.73,0,0,0,344.22,581.73Z"/><path class="cls-3" d="M348.23,583.39a1.35,1.35,0,0,1-.55-.11.87.87,0,0,1-.39-.34.9.9,0,0,1-.15-.53.82.82,0,0,1,.11-.44.84.84,0,0,1,.29-.27,2.08,2.08,0,0,1,.4-.15l.44-.07.47-.06a.63.63,0,0,0,.26-.07.16.16,0,0,0,.09-.16v0a.69.69,0,0,0-.17-.48.7.7,0,0,0-.51-.17.81.81,0,0,0-.54.16.82.82,0,0,0-.28.32l-.47-.16a1.16,1.16,0,0,1,.33-.46,1.3,1.3,0,0,1,.46-.22,1.71,1.71,0,0,1,.49-.07,1.56,1.56,0,0,1,.35,0,1,1,0,0,1,.39.15.83.83,0,0,1,.31.33,1.2,1.2,0,0,1,.13.61v2.1h-.49v-.43h0a.93.93,0,0,1-.16.22,1,1,0,0,1-.31.2A1.13,1.13,0,0,1,348.23,583.39Zm.07-.44a.94.94,0,0,0,.49-.11.78.78,0,0,0,.3-.3.72.72,0,0,0,.11-.37v-.45a.38.38,0,0,1-.14.06l-.24.06-.26,0-.21,0a1.64,1.64,0,0,0-.35.08.72.72,0,0,0-.27.16.42.42,0,0,0-.1.3.41.41,0,0,0,.19.38A.82.82,0,0,0,348.3,583Z"/><path class="cls-3" d="M352.83,580.85l-.44.12a1.13,1.13,0,0,0-.12-.21.79.79,0,0,0-.22-.18.87.87,0,0,0-.35-.07.84.84,0,0,0-.49.14.39.39,0,0,0-.19.34.35.35,0,0,0,.13.29,1.21,1.21,0,0,0,.42.17l.47.12a1.37,1.37,0,0,1,.64.31.81.81,0,0,1,.2.55.84.84,0,0,1-.15.49,1.09,1.09,0,0,1-.44.34,1.64,1.64,0,0,1-.65.12,1.48,1.48,0,0,1-.81-.21.94.94,0,0,1-.4-.61l.46-.12a.63.63,0,0,0,.26.38.78.78,0,0,0,.48.13,1,1,0,0,0,.55-.14.45.45,0,0,0,.2-.35.35.35,0,0,0-.12-.28.61.61,0,0,0-.35-.17l-.54-.13a1.24,1.24,0,0,1-.64-.32.81.81,0,0,1-.2-.55.75.75,0,0,1,.15-.47,1,1,0,0,1,.42-.33,1.4,1.4,0,0,1,.6-.12,1.18,1.18,0,0,1,.74.21A1.16,1.16,0,0,1,352.83,580.85Z"/><path class="cls-3" d="M354.55,583.39a1.38,1.38,0,0,1-.55-.11.87.87,0,0,1-.39-.34.9.9,0,0,1-.15-.53.82.82,0,0,1,.11-.44.84.84,0,0,1,.29-.27,2.08,2.08,0,0,1,.4-.15l.44-.07.47-.06a.63.63,0,0,0,.26-.07.16.16,0,0,0,.09-.16v0a.59.59,0,0,0-.67-.65.89.89,0,0,0-.83.48l-.47-.16a1.18,1.18,0,0,1,.34-.46,1.26,1.26,0,0,1,.45-.22,1.71,1.71,0,0,1,.49-.07,1.56,1.56,0,0,1,.35,0,.93.93,0,0,1,.39.15.77.77,0,0,1,.31.33,1.2,1.2,0,0,1,.13.61v2.1h-.49v-.43h0a.71.71,0,0,1-.16.22,1,1,0,0,1-.31.2A1.13,1.13,0,0,1,354.55,583.39Zm.07-.44a.91.91,0,0,0,.49-.11.77.77,0,0,0,.41-.67v-.45a.38.38,0,0,1-.14.06l-.24.06-.26,0-.21,0a2,2,0,0,0-.35.08.72.72,0,0,0-.27.16.42.42,0,0,0-.1.3.41.41,0,0,0,.19.38A.82.82,0,0,0,354.62,583Z"/><path class="cls-3" d="M357.38,579.07v4.25h-.49v-4.25Z"/><path class="cls-3" d="M359.2,583.39a1.42,1.42,0,0,1-.55-.11,1,1,0,0,1-.39-.34,1,1,0,0,1-.14-.53.82.82,0,0,1,.1-.44.94.94,0,0,1,.29-.27,2.37,2.37,0,0,1,.4-.15l.44-.07.47-.06a.69.69,0,0,0,.27-.07.15.15,0,0,0,.08-.16v0a.68.68,0,0,0-.16-.48.7.7,0,0,0-.51-.17.84.84,0,0,0-.55.16,1,1,0,0,0-.28.32l-.46-.16a1.07,1.07,0,0,1,.33-.46,1.3,1.3,0,0,1,.46-.22,1.61,1.61,0,0,1,.49-.07,1.56,1.56,0,0,1,.35,0,1,1,0,0,1,.39.15.83.83,0,0,1,.31.33,1.32,1.32,0,0,1,.12.61v2.1h-.49v-.43h0a.77.77,0,0,1-.17.22.92.92,0,0,1-.31.2A1.07,1.07,0,0,1,359.2,583.39Zm.08-.44a1,1,0,0,0,.49-.11.86.86,0,0,0,.3-.3.71.71,0,0,0,.1-.37v-.45a.31.31,0,0,1-.13.06l-.24.06-.27,0-.2,0a1.9,1.9,0,0,0-.36.08.61.61,0,0,0-.26.16.42.42,0,0,0-.1.3.41.41,0,0,0,.19.38A.78.78,0,0,0,359.28,583Z"/><path class="cls-3" d="M361.55,583.32v-3.19H362v.5h0a.91.91,0,0,1,.32-.4,1,1,0,0,1,.54-.14.94.94,0,0,1,.52.14,1,1,0,0,1,.33.4h0a1.06,1.06,0,0,1,.37-.39,1.1,1.1,0,0,1,.59-.15,1,1,0,0,1,.7.27,1.12,1.12,0,0,1,.27.83v2.13h-.49v-2.13a.63.63,0,0,0-.19-.51.73.73,0,0,0-.46-.15.69.69,0,0,0-.52.2.76.76,0,0,0-.18.51v2.08h-.5v-2.18a.57.57,0,0,0-.18-.44.63.63,0,0,0-.45-.17.65.65,0,0,0-.36.1.7.7,0,0,0-.26.28.82.82,0,0,0-.1.42v2Z"/><path class="cls-3" d="M367,583.35a.36.36,0,0,1-.26-.11.33.33,0,0,1-.11-.26.37.37,0,1,1,.74,0,.27.27,0,0,1,0,.18.35.35,0,0,1-.13.14A.41.41,0,0,1,367,583.35Z"/><path class="cls-3" d="M369.5,583.38a1.39,1.39,0,0,1-.77-.21,1.42,1.42,0,0,1-.5-.58,2.08,2.08,0,0,1-.17-.85,2,2,0,0,1,.18-.86,1.49,1.49,0,0,1,.5-.58,1.37,1.37,0,0,1,.75-.21,1.33,1.33,0,0,1,.61.13,1.07,1.07,0,0,1,.44.34,1.09,1.09,0,0,1,.22.53h-.49a.75.75,0,0,0-.25-.39.77.77,0,0,0-.52-.17.87.87,0,0,0-.5.15,1,1,0,0,0-.33.42,1.51,1.51,0,0,0-.12.63,1.59,1.59,0,0,0,.12.64.87.87,0,0,0,.33.42.84.84,0,0,0,.5.15,1,1,0,0,0,.35-.06.83.83,0,0,0,.26-.19.79.79,0,0,0,.16-.3h.49a1.15,1.15,0,0,1-.21.51,1.06,1.06,0,0,1-.43.35A1.35,1.35,0,0,1,369.5,583.38Z"/><path class="cls-3" d="M372.75,583.38a1.32,1.32,0,0,1-.75-.2,1.37,1.37,0,0,1-.51-.58,1.91,1.91,0,0,1-.18-.86,2,2,0,0,1,.18-.87,1.35,1.35,0,0,1,.51-.57,1.32,1.32,0,0,1,.75-.21,1.38,1.38,0,0,1,.76.21,1.39,1.39,0,0,1,.5.57,2,2,0,0,1,.18.87,1.91,1.91,0,0,1-.18.86,1.42,1.42,0,0,1-.5.58A1.37,1.37,0,0,1,372.75,583.38Zm0-.44a.85.85,0,0,0,.54-.16,1,1,0,0,0,.31-.44,1.68,1.68,0,0,0,.11-.6,1.63,1.63,0,0,0-.11-.59.91.91,0,0,0-.31-.45.94.94,0,0,0-1.08,0,1,1,0,0,0-.31.45,1.63,1.63,0,0,0-.1.59,1.68,1.68,0,0,0,.1.6,1.07,1.07,0,0,0,.31.44A.85.85,0,0,0,372.75,582.94Z"/><path class="cls-3" d="M374.93,583.32v-3.19h.47v.5h0a.86.86,0,0,1,.33-.4,1,1,0,0,1,.53-.14.94.94,0,0,1,.52.14,1,1,0,0,1,.33.4h0a1,1,0,0,1,.36-.39,1.13,1.13,0,0,1,.59-.15,1,1,0,0,1,.7.27,1.12,1.12,0,0,1,.27.83v2.13h-.49v-2.13a.6.6,0,0,0-.19-.51.73.73,0,0,0-.46-.15.7.7,0,0,0-.52.2.76.76,0,0,0-.18.51v2.08h-.5v-2.18a.57.57,0,0,0-.18-.44.61.61,0,0,0-.45-.17.65.65,0,0,0-.36.1.78.78,0,0,0-.26.28.82.82,0,0,0-.1.42v2Z"/></g></svg>