<svg xmlns="http://www.w3.org/2000/svg" viewBox="0 0 1152 648"><defs><style>.cls-1{font-size:29.35px;font-family:Inter-SemiBold, Inter;font-weight:600;}.cls-1,.cls-3{fill:#222221;}.cls-2,.cls-3{font-family:Inter-Regular, Inter;}.cls-2{font-weight:400;}.cls-3{font-size:33.02px;}.cls-4{fill:#ff5c35;}</style></defs><g id="Graphic"><text class="cls-1" transform="translate(431.83 360.16)">Full Name Goes here<tspan class="cls-2"><tspan x="84.29" y="35.22">Job Title</tspan></tspan></text><text class="cls-3" transform="translate(442.04 479.23)">M +9800000000<tspan x="-122" y="39.63" xml:space="preserve">E  name.lastname@basalam.com</tspan><tspan x="30.91" y="79.25">am.combasal</tspan></text><path class="cls-4" d="M567.51,168a2,2,0,0,1-1.66,2.09,1.71,1.71,0,0,0,.31,3.39,1.63,1.63,0,0,0,.31,0,5.47,5.47,0,0,0,4.45-5.51,1.71,1.71,0,1,0-3.41.06Z"/><path class="cls-4" d="M568.62,125.74c-.9.25-1.43,1.54-1.19,2.89s1.16,2.24,2.06,2,1.44-1.53,1.2-2.88S569.52,125.5,568.62,125.74Z"/><path class="cls-4" d="M580.7,130.63c.9-.24,1.43-1.53,1.19-2.88s-1.16-2.25-2.07-2-1.43,1.54-1.19,2.89S579.8,130.87,580.7,130.63Z"/><path class="cls-4" d="M570.94,138.21a1.71,1.71,0,0,0,1.7,1.54h.17l5.69-.56-2-8.8a1.71,1.71,0,1,0-3.33.74l1.12,5-1.86.18A1.71,1.71,0,0,0,570.94,138.21Z"/><path class="cls-4" d="M569.8,143.71a1.72,1.72,0,0,0,.61,2.34A9,9,0,0,0,575,147.3a8.86,8.86,0,0,0,2.28-.29,9,9,0,0,0,5.53-4.17,1.71,1.71,0,1,0-2.94-1.74,5.58,5.58,0,0,1-3.44,2.61,5.67,5.67,0,0,1-4.28-.6A1.71,1.71,0,0,0,569.8,143.71Z"/><path class="cls-4" d="M610.75,176.68c-1.58-2.75-5.79-2.89-7.87.91a10.63,10.63,0,0,1-3.39,4l-1.84-3.09,3.54-2L589.5,148.23a16.61,16.61,0,0,0,1.74-1.62c2.79-3.05,5.8-8.53,4.33-17.42-.51-2.69-.82-5.09.49-7.19,2.37-3.79,1.22-6.64-.49-7.92-3.11-2.35-6.66-.54-8.65,1.5L586.1,104a8,8,0,0,0-2.41-5.54,5.28,5.28,0,0,0-6.14-.48l0-.46A8.14,8.14,0,0,0,575,91.92a5,5,0,0,0-3.72-1.18c-2.84.26-4.73,2.94-5.17,5.78a5,5,0,0,0-2.58-.42c-3.77.35-5.49,4.08-5.24,7.57l.38,5.5a4.07,4.07,0,0,0-1.81-.21c-3.12.35-5,3.24-4.66,7.38l1.23,17.36h0l0,.35a.36.36,0,0,0,0,.1c.69,8.29,4.14,13.09,7.32,15.78.2,2.56.2,12.46-11,17.07l-1.42.53-10.12,3.11,3.07,10.25,3-.36a12.23,12.23,0,0,0-.49,9c1,3.55,4.12,4,5.86,3.1,2.31-1.13,3.54-3.54,1.39-6.88-2.51-3.89-1.47-5.4-.77-5.92l.21,0,.89,2.81,1.17.07c.81,0,1.59.08,2.34.08,15.9,0,20-10.41,20.17-10.88a1.7,1.7,0,1,0-3.19-1.19c0,.09-3.55,9-18,8.64l-2.88-9.12h0c10.74-4.41,12.83-13.15,13.12-18a11.7,11.7,0,0,0,2.32.94,1.55,1.55,0,0,0,.37,0,1.7,1.7,0,0,0,.36-3.37c-.09,0-9.42-2.68-10.39-16.35l-1.22-17.36c0-.37-.2-3.55,1.63-3.75a.77.77,0,0,1,.63.21,5.16,5.16,0,0,1,1.28,3.29l0,.62.7,9.88a1.7,1.7,0,0,0,3.4-.24l-.61-8.68h0l-.09-1.2,0-.62h0l-.86-12.18c-.1-1.49.38-3.77,2.16-3.94a1.58,1.58,0,0,1,1.21.37,4.83,4.83,0,0,1,1.3,3.24v0l1.16,16.44a1.7,1.7,0,0,0,1.7,1.58h.12a1.7,1.7,0,0,0,1.58-1.82l-1.5-21.24c-.13-1.84,1-3.83,2.16-3.94a1.54,1.54,0,0,1,1.2.38,4.9,4.9,0,0,1,1.32,3.23l1.5,21.24a1.7,1.7,0,0,0,3.4-.24l-1-14.14s0,0,0,0c-.1-1.46.39-3.81,2.13-3.94a1.7,1.7,0,0,1,1.31.41,4.86,4.86,0,0,1,1.24,3.2l1.8,25.5a1.13,1.13,0,0,0,0,.18s0,.09,0,.13a1.46,1.46,0,0,0,.07.19.56.56,0,0,0,0,.12,1.4,1.4,0,0,0,.1.16,1.79,1.79,0,0,0,.48.51l0,0,.19.1.1,0,.18.05.13,0h.17l.14,0h.12l.15,0,.17,0,.16-.06.15-.06.15-.09.13-.08.13-.12.11-.1.1-.14a.6.6,0,0,0,.09-.13l.08-.15a.84.84,0,0,0,.06-.14,1.21,1.21,0,0,0,.05-.18s0-.1,0-.15a1.09,1.09,0,0,1,0-.18.66.66,0,0,0,0-.14c0-.7-.14-2.24-.23-3.37l-.07-1c-.21-3,.25-5.29,1.34-6.72.52-.68,2.82-3,4.58-1.65.75.57.62,1.84-.35,3.39-2.13,3.4-1.42,7.15-1,9.6,1.24,7.49-1.21,12-3.49,14.52a13.94,13.94,0,0,1-2.1,1.86,1.21,1.21,0,0,0-.35.24,11.29,11.29,0,0,1-6.69,2.07,1.7,1.7,0,1,0-.26,3.4c.26,0,.53,0,.79,0a14.21,14.21,0,0,0,6.5-1.75l7.55,18.27c-.31.65-1.29,2.09-4.06,2.65a1.71,1.71,0,0,0,.34,3.38l.34,0a9.77,9.77,0,0,0,4.87-2.39l1.23,3-1,.55h0l-7.34,4.1-16.4-21.91a1.71,1.71,0,0,0-2.74,2l18.19,24.3h0l6.66,8.9,9-5-1.23-2.08a15.53,15.53,0,0,0,6.05-2.36C611.56,181.16,611.6,178.15,610.75,176.68Z"/><path class="cls-4" d="M587.66,259.66l-2.9.69-.2,11.79a1.28,1.28,0,0,0,1.26,1.3h0a1.28,1.28,0,0,0,1.28-1.26l0-1,3.32-.8.47.88a1.28,1.28,0,0,0,2.26-1.2Zm-.48,8.89.07-4.2,2,3.71Z"/><path class="cls-4" d="M602.51,252.69,600.3,254l1.28,7.31-5.71-4.74-2.21,1.28L599.54,268a1.29,1.29,0,0,0,1.11.64,1.25,1.25,0,0,0,.64-.17,1.28,1.28,0,0,0,.46-1.75L599.59,263l3,2.5,2.09-1.21-.67-3.86,2.16,3.73a1.28,1.28,0,0,0,2.22-1.28Z"/><path class="cls-4" d="M577.13,271.47h-3.84V261.23h-2.56V274h6.4a1.28,1.28,0,0,0,0-2.56Z"/><path class="cls-4" d="M554.2,268.46a1.28,1.28,0,0,0,2.16,1.38l.53-.83,3.25,1.07-.06,1a1.28,1.28,0,0,0,1.19,1.36h.09a1.27,1.27,0,0,0,1.27-1.19l.77-11.77-2.83-.93Zm6.12-1-2-.66,2.27-3.52Z"/><path class="cls-4" d="M551,253.35a3.61,3.61,0,0,0-5,.92l-.36.53a3.63,3.63,0,0,0,.92,5,1.08,1.08,0,0,1,.28,1.49l-.37.52a1.06,1.06,0,1,1-1.75-1.21,1.28,1.28,0,0,0-2.11-1.45,3.62,3.62,0,0,0,.93,5,3.52,3.52,0,0,0,2,.64,3.64,3.64,0,0,0,3-1.56l.36-.53a3.64,3.64,0,0,0-.92-5,1,1,0,0,1-.45-.68,1.08,1.08,0,0,1,.17-.8l.37-.53a1.05,1.05,0,0,1,.68-.44,1.06,1.06,0,0,1,1.24.86,1,1,0,0,1-.17.8,1.28,1.28,0,0,0,2.11,1.45,3.59,3.59,0,0,0,.58-2.72A3.54,3.54,0,0,0,551,253.35Z"/><circle class="cls-4" cx="621.93" cy="249.29" r="3.41"/><path class="cls-4" d="M624.49,220.28v11.09a2.56,2.56,0,0,1-5.12,0V206.63h-8.53v24.74a11.1,11.1,0,0,0,22.19,0V220.28Z"/><path class="cls-4" d="M596.33,242.46a11.1,11.1,0,0,0,11.09-11.09V220.28h-8.53v11.09a2.56,2.56,0,1,1-5.12,0V220.28h-8.53v11.09a2.56,2.56,0,0,1-5.12,0V220.28h-8.53v4.88a13,13,0,0,0-1.47-2.84h0l-5.27-7.53,4-5.78-7-4.9-2.27,3.24-3.94-5.62-7,4.89,5.72,8.17-5.27,7.53h0a12.85,12.85,0,0,0-2,4.66,11.94,11.94,0,1,0-22.3,8.42,12,12,0,0,0-6.17,10.45v3.44h8.53v-3.44a3.41,3.41,0,0,1,3.41-3.41h4.63l.49,0a12,12,0,0,0,11.62-9.2,12.79,12.79,0,0,0,24.44.34,11.12,11.12,0,0,0,10.87,8.86,11,11,0,0,0,6.82-2.37A11,11,0,0,0,596.33,242.46Zm-60.58-8.53v0h-.25a3.17,3.17,0,1,1,.25,0Zm23.89,0a4.32,4.32,0,0,1-4.26-4.27,4.18,4.18,0,0,1,.77-2.44h0l3.49-5,3.5,5h0a4.26,4.26,0,0,1,.77,2.44A4.33,4.33,0,0,1,559.64,233.93Z"/></g></svg>