<svg xmlns="http://www.w3.org/2000/svg" viewBox="0 0 1152 648"><defs><style>.cls-1{fill:#ff5c35;}.cls-2,.cls-3{fill:#fff;}.cls-2{opacity:0.5;}</style></defs><g id="Graphic"><rect class="cls-1" x="129.19" y="90.74" width="893.61" height="466.49" transform="translate(1152 647.96) rotate(-180)"/><rect class="cls-2" x="235.27" y="90.74" width="1" height="466.49"/><rect class="cls-2" x="341.87" y="90.74" width="1" height="466.52"/><rect class="cls-2" x="129.35" y="459.55" width="893.46" height="1"/><polygon class="cls-2" points="342.03 557.63 235.77 460.75 129.53 557.6 128.86 556.86 235.77 459.4 342.7 556.89 342.03 557.63"/><path class="cls-3" d="M703.93,362.31l-6.58-12.39-3.45.83-.24,14a1.53,1.53,0,0,0,1.5,1.55h0a1.54,1.54,0,0,0,1.53-1.5l0-1.18,4-.95.55,1a1.52,1.52,0,1,0,2.69-1.43Zm-7.15-1.81.09-5,2.34,4.41Z"/><path class="cls-3" d="M722,353.71l-7-12.08-2.63,1.53,1.52,8.7-6.8-5.65-2.63,1.53,7,12.08a1.51,1.51,0,0,0,1.32.76,1.6,1.6,0,0,0,.76-.2,1.52,1.52,0,0,0,.55-2.09l-2.57-4.44,3.58,3,2.49-1.44-.8-4.59,2.58,4.44a1.52,1.52,0,0,0,2.63-1.53Z"/><path class="cls-3" d="M684.82,364h-4.57V351.8h-3V367h7.62a1.53,1.53,0,0,0,0-3Z"/><path class="cls-3" d="M665.11,348.6l-7.58,11.8a1.52,1.52,0,0,0,2.56,1.65l.64-1,3.87,1.28-.08,1.18a1.53,1.53,0,0,0,1.42,1.62h.1a1.52,1.52,0,0,0,1.52-1.43l.91-14Zm-2.68,9.81,2.7-4.2-.33,5Z"/><path class="cls-3" d="M647.2,356.13a4.31,4.31,0,0,1-3.54-6.76,1.52,1.52,0,0,1,2.12-.39,1.53,1.53,0,0,1,.39,2.12,1.26,1.26,0,0,0,.32,1.76,1.28,1.28,0,0,0,1.77-.32l.43-.63a1.27,1.27,0,0,0-.33-1.77,4.32,4.32,0,0,1-1.1-6l.43-.63a4.32,4.32,0,0,1,7.11,4.9,1.52,1.52,0,0,1-2.51-1.73,1.27,1.27,0,0,0-.32-1.76,1.26,1.26,0,0,0-1.77.32l-.43.63a1.25,1.25,0,0,0,.32,1.76,4.33,4.33,0,0,1,1.11,6l-.44.63A4.3,4.3,0,0,1,647.2,356.13Z"/><circle class="cls-3" cx="738.14" cy="337.58" r="4.06"/><path class="cls-3" d="M741.18,303.05v13.2a3,3,0,1,1-6.09,0V286.8H724.93v29.45a13.21,13.21,0,1,0,26.41,0v-13.2Z"/><path class="cls-3" d="M710.72,316.25a3.05,3.05,0,0,1-6.1,0v-13.2H694.47v13.2a3,3,0,0,1-6.1,0v-13.2H678.22v5.81a15.46,15.46,0,0,0-1.74-3.38h0l-6.28-9,4.82-6.88-8.32-5.83-2.7,3.86-4.69-6.7L651,286.79l6.81,9.73-6.28,9h0a15.09,15.09,0,0,0-2.37,5.55,14.22,14.22,0,1,0-26.55,10,14.24,14.24,0,0,0-7.35,12.44v4.09h10.16v-4.09a4.06,4.06,0,0,1,4.06-4.06H635c.19,0,.39,0,.59,0a14.23,14.23,0,0,0,13.82-11,15.22,15.22,0,0,0,29.1.41,13.18,13.18,0,0,0,21.06,7.73,13.17,13.17,0,0,0,21.32-10.39v-13.2H710.72Zm-75.15,3.05v0h-.3a3.84,3.84,0,1,1,.3,0Zm28.43,0a5.15,5.15,0,0,1-5.08-5.08,5.07,5.07,0,0,1,.92-2.91h0l4.16-5.94,4.16,5.94h0a5.07,5.07,0,0,1,.92,2.91A5.15,5.15,0,0,1,664,319.3Z"/><path class="cls-3" d="M660.64,511.43l-.14.52a.32.32,0,0,1-.33.26h-.34a.27.27,0,0,1-.3-.31v-7.55a.27.27,0,0,1,.3-.3h.58a.27.27,0,0,1,.3.3v2.42a1.22,1.22,0,0,1,1.18-.73c.86,0,1.3.56,1.3,1.68v2.94c0,1.12-.44,1.67-1.3,1.67A1.27,1.27,0,0,1,660.64,511.43ZM662,507.8c0-.55-.18-.75-.59-.75a.76.76,0,0,0-.7.83v2.61a.76.76,0,0,0,.7.83c.41,0,.59-.2.59-.75Z"/><path class="cls-3" d="M663.84,510.76v-.09a1.67,1.67,0,0,1,.54-1.38,3.87,3.87,0,0,1,1-.62l.47-.22a.76.76,0,0,0,.43-.58v-.07c0-.5-.2-.76-.61-.76s-.61.26-.61.76v.14a.27.27,0,0,1-.31.3h-.5c-.2,0-.3-.1-.3-.31q0-1.89,1.77-1.89c1.17,0,1.75.64,1.75,1.91v2.29a12.56,12.56,0,0,0,.07,1.64c0,.22-.05.33-.27.33h-.54a.3.3,0,0,1-.33-.26,2.21,2.21,0,0,1-.07-.48,1.26,1.26,0,0,1-1.23.86C664.27,512.33,663.84,511.81,663.84,510.76Zm2.47-.26v-1.27l-.27.13a2.94,2.94,0,0,0-.7.41.93.93,0,0,0-.32.78v.08c0,.53.19.7.58.7A.75.75,0,0,0,666.31,510.5Z"/><path class="cls-3" d="M668.23,510.5a.28.28,0,0,1,.31-.3H669a.27.27,0,0,1,.3.3v.12c0,.51.21.77.62.77s.63-.24.63-.72v-.11c0-.42-.27-.58-.89-.85a3.21,3.21,0,0,1-1-.58,1.69,1.69,0,0,1-.49-1.34v0A1.57,1.57,0,0,1,670,506a1.54,1.54,0,0,1,1.74,1.76.27.27,0,0,1-.3.3H671a.27.27,0,0,1-.3-.3v-.05c0-.51-.21-.77-.62-.77s-.63.25-.63.73v.07a.63.63,0,0,0,.27.54,2.89,2.89,0,0,0,.62.33,2.86,2.86,0,0,1,.79.43,1.64,1.64,0,0,1,.66,1.48v0a1.56,1.56,0,0,1-1.76,1.73C668.82,512.33,668.23,511.73,668.23,510.5Z"/><path class="cls-3" d="M672.35,510.76v-.09a1.67,1.67,0,0,1,.54-1.38,4,4,0,0,1,1-.62l.47-.22a.76.76,0,0,0,.43-.58v-.07c0-.5-.2-.76-.61-.76s-.61.26-.61.76v.14a.27.27,0,0,1-.31.3h-.5c-.2,0-.3-.1-.3-.31q0-1.89,1.77-1.89c1.17,0,1.75.64,1.75,1.91v2.29a12.56,12.56,0,0,0,.07,1.64c0,.22-.05.33-.27.33h-.53a.3.3,0,0,1-.34-.26,2.21,2.21,0,0,1-.07-.48,1.26,1.26,0,0,1-1.23.86C672.78,512.33,672.35,511.81,672.35,510.76Zm2.47-.26v-1.27l-.27.13a2.94,2.94,0,0,0-.7.41.93.93,0,0,0-.32.78v.08c0,.53.2.7.58.7A.75.75,0,0,0,674.82,510.5Z"/><path class="cls-3" d="M678.1,511.9a.28.28,0,0,1-.31.31h-.58a.27.27,0,0,1-.3-.31v-7.55a.27.27,0,0,1,.3-.3h.58a.27.27,0,0,1,.31.3Z"/><path class="cls-3" d="M678.85,510.76v-.09a1.7,1.7,0,0,1,.54-1.38,3.93,3.93,0,0,1,1-.62l.47-.22a.78.78,0,0,0,.43-.58v-.07c0-.5-.2-.76-.61-.76s-.62.26-.62.76v.14a.27.27,0,0,1-.3.3h-.5a.28.28,0,0,1-.31-.31c0-1.26.6-1.89,1.78-1.89s1.75.64,1.75,1.91v2.29a12.56,12.56,0,0,0,.07,1.64c0,.22-.05.33-.27.33h-.54a.31.31,0,0,1-.34-.26,3.06,3.06,0,0,1-.07-.48,1.25,1.25,0,0,1-1.22.86C679.29,512.33,678.85,511.81,678.85,510.76Zm2.48-.26v-1.27l-.27.13a2.59,2.59,0,0,0-.7.41.93.93,0,0,0-.33.78v.08c0,.53.2.7.59.7A.76.76,0,0,0,681.33,510.5Z"/><path class="cls-3" d="M683.72,512.21a.28.28,0,0,1-.31-.31v-5.43a.27.27,0,0,1,.31-.3h.5a.27.27,0,0,1,.3.3v.5a1.23,1.23,0,0,1,1.23-.93,1.07,1.07,0,0,1,1.15.89,1.28,1.28,0,0,1,1.24-.89c.83,0,1.25.56,1.25,1.68v4.18a.27.27,0,0,1-.3.31h-.58a.28.28,0,0,1-.31-.31v-4.1c0-.56-.16-.75-.54-.75s-.67.35-.67.83v4a.27.27,0,0,1-.3.31h-.57a.28.28,0,0,1-.31-.31v-4.1c0-.56-.16-.75-.54-.75s-.67.35-.67.83v4a.27.27,0,0,1-.3.31Z"/><path class="cls-3" d="M690.62,512.21a.27.27,0,0,1-.3-.31v-1.16a.27.27,0,0,1,.3-.31h.58a.27.27,0,0,1,.3.31v1.16a.27.27,0,0,1-.3.31Z"/><path class="cls-3" d="M692.39,508c0-1.28.6-1.92,1.78-1.92s1.79.64,1.79,1.92v.25c0,.16-.11.24-.3.24h-.49a.27.27,0,0,1-.31-.3v-.35c0-.5-.21-.75-.64-.75s-.65.25-.65.75v2.77c0,.51.22.75.65.75s.64-.24.64-.75v-.46a.27.27,0,0,1,.31-.3h.49a.27.27,0,0,1,.3.3v.3c0,1.28-.6,1.92-1.79,1.92s-1.78-.64-1.78-1.92Z"/><path class="cls-3" d="M696.65,510.41V508c0-1.28.6-1.92,1.83-1.92s1.82.64,1.82,1.92v2.45c0,1.28-.61,1.92-1.82,1.92S696.65,511.69,696.65,510.41Zm2.47.16V507.8c0-.5-.21-.75-.64-.75s-.66.25-.66.75v2.77c0,.51.23.75.66.75S699.12,511.08,699.12,510.57Z"/><path class="cls-3" d="M701.45,512.21a.27.27,0,0,1-.3-.31v-5.43a.27.27,0,0,1,.3-.3h.5a.27.27,0,0,1,.3.3v.5a1.24,1.24,0,0,1,1.23-.93,1.07,1.07,0,0,1,1.15.89,1.28,1.28,0,0,1,1.24-.89q1.26,0,1.26,1.68v4.18a.28.28,0,0,1-.31.31h-.58a.27.27,0,0,1-.3-.31v-4.1c0-.56-.17-.75-.55-.75s-.66.35-.66.83v4a.28.28,0,0,1-.31.31h-.57a.27.27,0,0,1-.3-.31v-4.1c0-.56-.17-.75-.55-.75s-.66.35-.66.83v4a.28.28,0,0,1-.31.31Z"/></g></svg>