<svg xmlns="http://www.w3.org/2000/svg" viewBox="0 0 1152 648"><defs><style>.cls-1{fill:#e5e5e5;}.cls-2{fill:#fde9e1;}.cls-3{fill:#222221;}</style></defs><g id="Background"><rect class="cls-1" x="352.72" y="-80.27" width="466.56" height="828.55" rx="40.22" transform="translate(920 -252) rotate(90)"/></g><g id="Graphic"><rect class="cls-2" x="342.72" y="-90.27" width="466.56" height="828.55" rx="40.22" transform="translate(900 -252) rotate(90)"/><path class="cls-3" d="M586.36,209.66l-2.54.61-.18,10.34a1.13,1.13,0,0,0,1.1,1.15h0a1.13,1.13,0,0,0,1.13-1.11v-.87l2.92-.7.41.77a1.11,1.11,0,0,0,1.52.46,1.12,1.12,0,0,0,.47-1.52Zm-.42,7.8.07-3.68,1.72,3.25Z"/><path class="cls-3" d="M599.4,203.54l-1.94,1.13,1.12,6.41-5-4.16-2,1.13,5.17,8.91a1.1,1.1,0,0,0,1,.56,1.15,1.15,0,0,0,.56-.15,1.13,1.13,0,0,0,.41-1.54l-1.9-3.27,2.64,2.19,1.84-1.06-.59-3.39,1.9,3.28a1.11,1.11,0,0,0,1.53.41,1.13,1.13,0,0,0,.41-1.54Z"/><path class="cls-3" d="M577.12,220h-3.37v-9h-2.24v11.23h5.61a1.12,1.12,0,1,0,0-2.24Z"/><path class="cls-3" d="M557,217.38a1.13,1.13,0,0,0,.33,1.56,1.14,1.14,0,0,0,1.56-.34l.47-.73,2.85.94-.05.87a1.12,1.12,0,0,0,1,1.19h.08a1.12,1.12,0,0,0,1.12-1.05l.67-10.32-2.48-.82Zm5.36-.89-1.75-.58,2-3.09Z"/><path class="cls-3" d="M554.17,204.12a3.18,3.18,0,0,0-2.38-.51,3.12,3.12,0,0,0-2,1.32l-.32.46a3.19,3.19,0,0,0,.81,4.43.94.94,0,0,1,.24,1.3l-.32.47a.94.94,0,1,1-1.54-1.07,1.12,1.12,0,0,0-1.85-1.27,3.19,3.19,0,0,0,.81,4.43,3.24,3.24,0,0,0,1.81.56,3.17,3.17,0,0,0,2.62-1.38l.32-.46a3.2,3.2,0,0,0-.81-4.43.93.93,0,0,1-.24-1.3l.31-.46a.95.95,0,0,1,1.31-.24.93.93,0,0,1,.24,1.3,1.11,1.11,0,0,0,.28,1.56,1.12,1.12,0,0,0,1.57-.28,3.18,3.18,0,0,0-.82-4.43Z"/><circle class="cls-3" cx="616.43" cy="200.56" r="3"/><path class="cls-3" d="M618.68,175.1v9.73a2.25,2.25,0,1,1-4.49,0V163.12H606.7v21.71a9.74,9.74,0,1,0,19.47,0V175.1Z"/><path class="cls-3" d="M594,194.57a9.74,9.74,0,0,0,9.73-9.74V175.1h-7.48v9.73a2.25,2.25,0,1,1-4.5,0V175.1h-7.48v9.73a2.25,2.25,0,1,1-4.5,0V175.1h-7.49v4.28a10.68,10.68,0,0,0-1.28-2.49h0l-4.63-6.61,3.56-5.07-6.14-4.3-2,2.84-3.46-4.93-6.13,4.29,5,7.17-4.63,6.61h0a11.08,11.08,0,0,0-1.75,4.09,10.48,10.48,0,1,0-19.57,7.39,10.49,10.49,0,0,0-5.42,9.17v3h7.49v-3a3,3,0,0,1,3-3h4.06l.43,0a10.51,10.51,0,0,0,10.2-8.08,11.22,11.22,0,0,0,21.45.3,9.76,9.76,0,0,0,9.54,7.78,9.65,9.65,0,0,0,6-2.08A9.65,9.65,0,0,0,594,194.57Zm-53.17-7.49v0h-.21a2.84,2.84,0,1,1,.21,0Zm21,0a3.79,3.79,0,0,1-3.74-3.74,3.72,3.72,0,0,1,.67-2.15h0l3.07-4.38,3.07,4.38h0a3.72,3.72,0,0,1,.67,2.15A3.79,3.79,0,0,1,561.77,187.08Z"/><rect class="cls-3" x="254.23" y="384.08" width="643.53" height="0.5"/><rect class="cls-3" x="254.23" y="343.86" width="643.53" height="0.5"/><path class="cls-3" d="M277.23,324.49a1.59,1.59,0,0,1-1.3,1.65,1.34,1.34,0,0,0,.24,2.66,1,1,0,0,0,.24,0,4.28,4.28,0,0,0,3.5-4.33,1.34,1.34,0,0,0-2.68,0Z"/><path class="cls-3" d="M278.11,291.22c-.71.19-1.13,1.21-.94,2.27s.91,1.77,1.62,1.57,1.13-1.2.94-2.26S278.81,291,278.11,291.22Z"/><path class="cls-3" d="M287.6,295.06c.71-.19,1.13-1.2.94-2.26s-.91-1.77-1.62-1.58-1.13,1.21-.94,2.27S286.9,295.26,287.6,295.06Z"/><path class="cls-3" d="M279.93,301a1.34,1.34,0,0,0,1.33,1.21h.14l4.47-.44-1.54-6.92a1.34,1.34,0,0,0-2.62.58l.88,4-1.46.15A1.35,1.35,0,0,0,279.93,301Z"/><path class="cls-3" d="M279,305.35a1.34,1.34,0,0,0,.47,1.84,7,7,0,0,0,3.6,1,7.34,7.34,0,0,0,1.8-.23,7.07,7.07,0,0,0,4.35-3.28A1.34,1.34,0,1,0,287,303.3a4.44,4.44,0,0,1-6.08,1.58A1.33,1.33,0,0,0,279,305.35Z"/><path class="cls-3" d="M311.25,331.29c-1.25-2.16-4.56-2.28-6.19.72a8.35,8.35,0,0,1-2.67,3.13l-1.45-2.43,2.79-1.56-9.2-22.24a12.64,12.64,0,0,0,1.37-1.27c2.19-2.4,4.56-6.72,3.4-13.71-.4-2.11-.64-4,.39-5.65,1.87-3,1-5.23-.38-6.24-2.45-1.84-5.24-.42-6.81,1.19l-.64-9.13a6.31,6.31,0,0,0-1.9-4.35,4.12,4.12,0,0,0-4.83-.37l0-.37a6.42,6.42,0,0,0-2-4.4,3.9,3.9,0,0,0-2.93-.92c-2.23.2-3.72,2.31-4.06,4.54a4,4,0,0,0-2-.33c-3,.28-4.32,3.21-4.13,6l.31,4.32a3.15,3.15,0,0,0-1.43-.16c-2.45.27-3.89,2.55-3.66,5.8l1,13.66h0l0,.27s0,.06,0,.08c.55,6.53,3.26,10.3,5.76,12.42.16,2,.16,9.8-8.64,13.42l-1.12.43-8,2.44,2.41,8.06,2.33-.28a9.6,9.6,0,0,0-.38,7.05,3.31,3.31,0,0,0,4.61,2.44c1.81-.89,2.78-2.79,1.09-5.42-2-3.06-1.15-4.25-.61-4.65l.17,0,.7,2.21.92.06c.63,0,1.25.06,1.84.06,12.51,0,15.73-8.19,15.87-8.56a1.34,1.34,0,0,0-2.51-.94c0,.07-2.8,7.1-14.12,6.8l-2.27-7.17h0A15.75,15.75,0,0,0,274.61,312a8.72,8.72,0,0,0,1.83.74.92.92,0,0,0,.29,0,1.35,1.35,0,0,0,.28-2.66c-.07,0-7.41-2.1-8.17-12.86l-1-13.66c0-.28-.15-2.78,1.29-2.95a.63.63,0,0,1,.49.17,4,4,0,0,1,1,2.58l0,.49.55,7.78a1.34,1.34,0,0,0,2.68-.19l-.48-6.83h0l-.07-.95,0-.48h0l-.68-9.58c-.08-1.17.3-3,1.7-3.1a1.22,1.22,0,0,1,.95.29,3.84,3.84,0,0,1,1,2.55v0l.91,12.92a1.34,1.34,0,0,0,1.34,1.25h.1a1.34,1.34,0,0,0,1.24-1.43l-1.18-16.71c-.1-1.45.76-3,1.7-3.1a1.21,1.21,0,0,1,.94.3,3.81,3.81,0,0,1,1,2.54l1.18,16.71a1.34,1.34,0,0,0,2.68-.19l-.79-11.12v-.05c-.08-1.14.3-3,1.67-3.09a1.31,1.31,0,0,1,1,.32,3.78,3.78,0,0,1,1,2.51l1.41,20.07,0,.14a.36.36,0,0,0,0,.1.88.88,0,0,0,.05.15l0,.09.08.13a1.45,1.45,0,0,0,.38.4l0,0,.15.07.07,0,.14,0,.11,0H292l.12,0,.13,0,.12-.05.12,0,.12-.07.1-.07.1-.09a.73.73,0,0,0,.09-.08.76.76,0,0,0,.08-.11l.08-.1a.61.61,0,0,0,.05-.12l.06-.12,0-.13,0-.12a.76.76,0,0,0,0-.15.34.34,0,0,0,0-.1c0-.55-.11-1.77-.18-2.65l-.06-.79c-.16-2.33.2-4.16,1.06-5.29.41-.54,2.22-2.33,3.6-1.29.59.44.49,1.44-.27,2.66-1.68,2.68-1.12,5.63-.76,7.55,1,5.9-1,9.47-2.74,11.42a10.8,10.8,0,0,1-1.66,1.47,1,1,0,0,0-.27.19,8.79,8.79,0,0,1-5.27,1.62,1.34,1.34,0,0,0-.2,2.68c.21,0,.42,0,.63,0a11.14,11.14,0,0,0,5.1-1.37l5.95,14.37a4.18,4.18,0,0,1-3.2,2.08,1.36,1.36,0,0,0-1.05,1.59,1.35,1.35,0,0,0,1.32,1.07l.26,0a7.62,7.62,0,0,0,3.84-1.88l1,2.33-.78.43h0l-5.77,3.22-12.9-17.23a1.34,1.34,0,0,0-2.15,1.61l14.31,19.11h0l5.23,7,7.1-4-1-1.63a12.28,12.28,0,0,0,4.76-1.86C311.89,334.81,311.91,332.45,311.25,331.29Z"/><path class="cls-3" d="M548.43,483.93l-.17.64a.39.39,0,0,1-.41.31h-.41a.33.33,0,0,1-.37-.37v-9.19a.33.33,0,0,1,.37-.37h.71a.33.33,0,0,1,.36.37v2.95a1.49,1.49,0,0,1,1.44-.89c1,0,1.57.68,1.57,2V483c0,1.36-.52,2-1.57,2A1.53,1.53,0,0,1,548.43,483.93Zm1.65-4.41c0-.67-.22-.91-.71-.91a.92.92,0,0,0-.86,1v3.18a.92.92,0,0,0,.86,1c.49,0,.71-.24.71-.9Z"/><path class="cls-3" d="M552.32,483.12V483a2,2,0,0,1,.65-1.67,4.28,4.28,0,0,1,1.26-.76c.26-.11.44-.2.57-.27a.93.93,0,0,0,.53-.71v-.08c0-.61-.25-.92-.74-.92s-.75.31-.75.92v.17a.33.33,0,0,1-.37.37h-.61c-.24,0-.37-.13-.37-.39,0-1.53.72-2.29,2.15-2.29s2.13.78,2.13,2.32v2.78a15.42,15.42,0,0,0,.09,2c0,.27-.06.39-.33.39h-.65a.36.36,0,0,1-.41-.31,3.21,3.21,0,0,1-.09-.58,1.53,1.53,0,0,1-1.49,1.05C552.84,485,552.32,484.4,552.32,483.12Zm3-.31v-1.55l-.33.16a3.13,3.13,0,0,0-.85.5,1.1,1.1,0,0,0-.4.95v.1c0,.64.24.85.71.85A.92.92,0,0,0,555.33,482.81Z"/><path class="cls-3" d="M557.67,482.81a.33.33,0,0,1,.37-.37h.59a.33.33,0,0,1,.37.37V483c0,.63.26.94.75.94s.77-.3.77-.88v-.13c0-.51-.33-.71-1.08-1a4,4,0,0,1-1.18-.71,2,2,0,0,1-.59-1.64v0a2.14,2.14,0,0,1,4.28,0,.33.33,0,0,1-.37.37H561a.33.33,0,0,1-.37-.37v-.06c0-.62-.26-.93-.75-.93s-.77.29-.77.88v.08a.8.8,0,0,0,.33.67,3.41,3.41,0,0,0,.75.39,3.55,3.55,0,0,1,1,.53,2,2,0,0,1,.81,1.8v0a1.9,1.9,0,0,1-2.14,2.12C558.38,485,557.67,484.3,557.67,482.81Z"/><path class="cls-3" d="M562.67,483.12V483a2,2,0,0,1,.66-1.67,4.28,4.28,0,0,1,1.26-.76c.26-.11.44-.2.57-.27a.92.92,0,0,0,.52-.71v-.08c0-.61-.24-.92-.73-.92s-.76.31-.76.92v.17a.33.33,0,0,1-.37.37h-.61c-.24,0-.37-.13-.37-.39,0-1.53.73-2.29,2.16-2.29s2.13.78,2.13,2.32v2.78a15.42,15.42,0,0,0,.09,2c0,.27-.06.39-.33.39h-.65a.36.36,0,0,1-.41-.31,2.52,2.52,0,0,1-.09-.58,1.55,1.55,0,0,1-1.49,1.05C563.2,485,562.67,484.4,562.67,483.12Zm3-.31v-1.55l-.32.16a3.36,3.36,0,0,0-.86.5,1.12,1.12,0,0,0-.39.95v.1c0,.64.24.85.71.85A.91.91,0,0,0,565.68,482.81Z"/><path class="cls-3" d="M569.67,484.51a.33.33,0,0,1-.37.37h-.71a.33.33,0,0,1-.37-.37v-9.19a.33.33,0,0,1,.37-.37h.71a.33.33,0,0,1,.37.37Z"/><path class="cls-3" d="M570.59,483.12V483a2,2,0,0,1,.65-1.67,4.47,4.47,0,0,1,1.27-.76l.57-.27a.92.92,0,0,0,.52-.71v-.08c0-.61-.24-.92-.74-.92s-.75.31-.75.92v.17a.33.33,0,0,1-.37.37h-.61c-.24,0-.37-.13-.37-.39,0-1.53.73-2.29,2.16-2.29s2.13.78,2.13,2.32v2.78a18.14,18.14,0,0,0,.08,2c0,.27,0,.39-.32.39h-.66a.36.36,0,0,1-.41-.31,3.25,3.25,0,0,1-.08-.58,1.55,1.55,0,0,1-1.49,1.05C571.12,485,570.59,484.4,570.59,483.12Zm3-.31v-1.55l-.33.16a3.47,3.47,0,0,0-.85.5,1.13,1.13,0,0,0-.4.95v.1c0,.64.25.85.71.85A.92.92,0,0,0,573.6,482.81Z"/><path class="cls-3" d="M576.51,484.88a.33.33,0,0,1-.37-.37V477.9a.33.33,0,0,1,.37-.37h.61a.33.33,0,0,1,.37.37v.61a1.49,1.49,0,0,1,1.49-1.13,1.3,1.3,0,0,1,1.4,1.07,1.56,1.56,0,0,1,1.51-1.07q1.53,0,1.53,2v5.09a.33.33,0,0,1-.37.37h-.71a.33.33,0,0,1-.37-.37v-5c0-.68-.2-.91-.67-.91s-.8.43-.8,1v4.89a.33.33,0,0,1-.37.37h-.7a.33.33,0,0,1-.37-.37v-5c0-.68-.2-.91-.66-.91s-.81.43-.81,1v4.89a.33.33,0,0,1-.37.37Z"/><path class="cls-3" d="M584.91,484.88a.33.33,0,0,1-.37-.37v-1.42a.33.33,0,0,1,.37-.36h.71a.33.33,0,0,1,.37.36v1.42a.33.33,0,0,1-.37.37Z"/><path class="cls-3" d="M587.07,479.72c0-1.56.72-2.34,2.17-2.34s2.17.78,2.17,2.34v.3c0,.19-.13.29-.37.29h-.6a.33.33,0,0,1-.37-.37v-.42c0-.61-.25-.91-.78-.91s-.79.3-.79.91v3.38c0,.61.27.9.79.9s.78-.29.78-.9v-.57a.33.33,0,0,1,.37-.37h.6a.33.33,0,0,1,.37.37v.37c0,1.56-.73,2.34-2.17,2.34s-2.17-.78-2.17-2.34Z"/><path class="cls-3" d="M592.24,482.7v-3c0-1.56.74-2.34,2.23-2.34s2.22.78,2.22,2.34v3q0,2.34-2.22,2.34C593,485,592.24,484.26,592.24,482.7Zm3,.2v-3.38c0-.61-.25-.91-.78-.91s-.79.3-.79.91v3.38c0,.61.27.9.79.9S595.25,483.51,595.25,482.9Z"/><path class="cls-3" d="M598.09,484.88a.33.33,0,0,1-.37-.37V477.9a.33.33,0,0,1,.37-.37h.61a.33.33,0,0,1,.37.37v.61a1.49,1.49,0,0,1,1.49-1.13,1.3,1.3,0,0,1,1.4,1.07,1.56,1.56,0,0,1,1.51-1.07q1.53,0,1.53,2v5.09a.33.33,0,0,1-.37.37h-.71a.33.33,0,0,1-.37-.37v-5c0-.68-.2-.91-.66-.91s-.81.43-.81,1v4.89a.33.33,0,0,1-.37.37H601a.33.33,0,0,1-.37-.37v-5c0-.68-.19-.91-.66-.91s-.81.43-.81,1v4.89a.33.33,0,0,1-.37.37Z"/></g></svg>