<svg xmlns="http://www.w3.org/2000/svg" viewBox="0 0 1152 648"><defs><style>.cls-1{fill:#e5e5e5;}.cls-2{fill:#ff5c35;}.cls-3{fill:#222221;}</style></defs><g id="Background"><rect class="cls-1" x="260.08" y="178.1" width="651.85" height="311.81"/></g><g id="Graphic"><rect class="cls-2" x="250.08" y="168.1" width="651.85" height="311.81"/><path class="cls-3" d="M572.08,246.47a1,1,0,0,1-.76,1,.79.79,0,0,0,.14,1.57l.14,0a2.53,2.53,0,0,0,2.07-2.55.79.79,0,0,0-.81-.78A.81.81,0,0,0,572.08,246.47Z"/><path class="cls-3" d="M572.6,226.85a1.12,1.12,0,0,0-.55,1.34c.11.63.54,1,1,.93s.67-.71.56-1.34S573,226.74,572.6,226.85Z"/><path class="cls-3" d="M578.2,229.12c.42-.11.67-.71.56-1.34s-.54-1-1-.93a1.14,1.14,0,0,0-.56,1.34C577.36,228.82,577.78,229.23,578.2,229.12Z"/><path class="cls-3" d="M573.68,232.64a.78.78,0,0,0,.78.71h.08l2.64-.26-.91-4.09a.79.79,0,1,0-1.54.35l.52,2.34-.86.08A.78.78,0,0,0,573.68,232.64Z"/><path class="cls-3" d="M573.15,235.19a.78.78,0,0,0,.28,1.08,4.1,4.1,0,0,0,2.12.58,4.22,4.22,0,0,0,1.06-.13,4.16,4.16,0,0,0,2.57-1.94.79.79,0,0,0-1.36-.8,2.62,2.62,0,0,1-3.59.93A.79.79,0,0,0,573.15,235.19Z"/><path class="cls-3" d="M592.14,250.48c-.73-1.27-2.68-1.34-3.65.42a4.8,4.8,0,0,1-1.57,1.85l-.85-1.43,1.64-.92-5.42-13.11a8.18,8.18,0,0,0,.8-.76c1.3-1.41,2.69-4,2-8.08a4.48,4.48,0,0,1,.23-3.33c1.1-1.76.57-3.08-.23-3.68-1.44-1.09-3.09-.25-4,.7l-.38-5.38a3.73,3.73,0,0,0-1.12-2.57,2.35,2.35,0,0,0-1.76-.57,2.46,2.46,0,0,0-1.09.35v-.22a3.79,3.79,0,0,0-1.17-2.59,2.29,2.29,0,0,0-1.72-.54,2.94,2.94,0,0,0-2.4,2.68,2.31,2.31,0,0,0-1.2-.2c-1.75.17-2.54,1.89-2.43,3.51l.18,2.55a1.84,1.84,0,0,0-.84-.09c-1.45.16-2.3,1.5-2.16,3.42l.57,8h0v.16a.06.06,0,0,0,0,0,10.27,10.27,0,0,0,3.39,7.32,7.74,7.74,0,0,1-5.09,7.92l-.66.25-4.7,1.44,1.42,4.76,1.38-.17a5.67,5.67,0,0,0-.23,4.16,2,2,0,0,0,2.72,1.44c1.07-.53,1.64-1.65.64-3.2-1.16-1.8-.68-2.5-.35-2.74l.09,0,.41,1.31.55,0c.37,0,.74,0,1.09,0,7.37,0,9.27-4.83,9.35-5a.79.79,0,0,0-.46-1,.8.8,0,0,0-1,.47s-1.65,4.18-8.33,4l-1.33-4.23h0a9.31,9.31,0,0,0,6.08-8.33,5.08,5.08,0,0,0,1.08.43.47.47,0,0,0,.17,0A.79.79,0,0,0,572,238c-.05,0-4.38-1.24-4.82-7.59l-.57-8.05c0-.17-.09-1.65.75-1.74a.38.38,0,0,1,.3.1,2.4,2.4,0,0,1,.59,1.52l0,.29.32,4.58a.79.79,0,1,0,1.58-.11l-.28-4h0l0-.56,0-.29h0l-.4-5.65c0-.69.18-1.75,1-1.82a.67.67,0,0,1,.56.17,2.24,2.24,0,0,1,.61,1.5h0l.54,7.62a.79.79,0,0,0,.79.74h.05a.8.8,0,0,0,.74-.85L573,214c-.06-.86.45-1.78,1-1.83a.72.72,0,0,1,.56.18,2.21,2.21,0,0,1,.61,1.49l.7,9.86a.79.79,0,0,0,1.57-.11l-.46-6.56v0c-.05-.67.18-1.76,1-1.82a.74.74,0,0,1,.6.19,2.18,2.18,0,0,1,.58,1.48L580,228.7a.19.19,0,0,0,0,.08.17.17,0,0,0,0,.07l0,.08s0,0,0,.06a.18.18,0,0,0,.05.07.64.64,0,0,0,.22.24l0,0,.09,0,.05,0,.08,0h.26l.07,0H581l.07,0,.07,0,.07,0,.06,0,.06-.06a.12.12,0,0,0,.05-.05l0-.06,0-.06a.25.25,0,0,0,0-.07l0-.07s0,0,0-.08a.64.64,0,0,0,0-.07v-.08s0,0,0-.07c0-.32-.07-1-.11-1.56l0-.46a4.68,4.68,0,0,1,.63-3.12c.24-.32,1.3-1.38,2.12-.76.35.26.29.85-.16,1.57a6,6,0,0,0-.45,4.45c.58,3.48-.56,5.58-1.61,6.74a7.1,7.1,0,0,1-1,.86.91.91,0,0,0-.16.11,5.23,5.23,0,0,1-3.11,1,.79.79,0,1,0-.11,1.58h.36a6.47,6.47,0,0,0,3-.81l3.51,8.48a2.43,2.43,0,0,1-1.88,1.22.8.8,0,0,0-.62.94.78.78,0,0,0,.77.63h.16a4.55,4.55,0,0,0,2.26-1.11l.57,1.37-.46.26h0l-3.4,1.9-7.61-10.16a.79.79,0,0,0-1.27.94l8.44,11.28h0L584.5,258l4.19-2.33-.58-1a7.36,7.36,0,0,0,2.81-1.1C592.52,252.56,592.54,251.17,592.14,250.48Z"/><path class="cls-3" d="M581.43,289l-1.34.32-.1,5.47a.61.61,0,0,0,.59.6h0a.59.59,0,0,0,.59-.58v-.46l1.54-.37.22.4a.59.59,0,1,0,1-.55Zm-.22,4.12,0-1.94.92,1.71Z"/><path class="cls-3" d="M588.32,285.74l-1,.6.59,3.39-2.65-2.2-1,.6,2.73,4.7a.59.59,0,0,0,.81.22.59.59,0,0,0,.22-.81l-1-1.73,1.39,1.16,1-.56-.31-1.79,1,1.73a.6.6,0,0,0,.82.21.59.59,0,0,0,.21-.81Z"/><path class="cls-3" d="M576.55,294.46h-1.78v-4.75h-1.19v5.93h3a.59.59,0,0,0,0-1.18Z"/><path class="cls-3" d="M565.91,293.06a.59.59,0,1,0,1,.64l.25-.39,1.51.5,0,.46a.59.59,0,0,0,.55.63h0a.59.59,0,0,0,.59-.55l.36-5.46-1.31-.43Zm2.84-.47-.93-.31,1-1.63Z"/><path class="cls-3" d="M564.42,286.05a1.68,1.68,0,0,0-2.34.43l-.17.24a1.68,1.68,0,0,0,.43,2.34.51.51,0,0,1,.13.69l-.17.25a.5.5,0,0,1-.69.12.51.51,0,0,1-.13-.69.59.59,0,1,0-1-.67,1.69,1.69,0,0,0,1.38,2.64,1.71,1.71,0,0,0,1.39-.73l.16-.25a1.68,1.68,0,0,0-.43-2.34.44.44,0,0,1-.2-.31.45.45,0,0,1,.08-.37l.17-.25a.49.49,0,0,1,.68-.12.45.45,0,0,1,.21.31.48.48,0,0,1-.08.37.6.6,0,1,0,1,.68,1.7,1.7,0,0,0,.27-1.26A1.66,1.66,0,0,0,564.42,286.05Z"/><circle class="cls-3" cx="597.33" cy="284.17" r="1.58"/><path class="cls-3" d="M598.52,270.71v5.14a1.19,1.19,0,1,1-2.38,0V264.38h-4v11.47a5.15,5.15,0,1,0,10.29,0v-5.14Z"/><path class="cls-3" d="M585.45,281a5.16,5.16,0,0,0,5.15-5.15v-5.14h-4v5.14a1.19,1.19,0,1,1-2.37,0v-5.14h-4v5.14a1.19,1.19,0,1,1-2.38,0v-5.14H574V273a6,6,0,0,0-.68-1.31h0l-2.45-3.5,1.88-2.68-3.24-2.27-1.06,1.5-1.82-2.61-3.25,2.27,2.66,3.79-2.45,3.5h0a5.93,5.93,0,0,0-.93,2.16,5.54,5.54,0,1,0-10.34,3.9,5.55,5.55,0,0,0-2.86,4.85v1.6h3.95v-1.6A1.59,1.59,0,0,1,555,281h2.37a5.55,5.55,0,0,0,5.39-4.27,5.93,5.93,0,0,0,11.34.16,5.16,5.16,0,0,0,5,4.11,5.1,5.1,0,0,0,3.17-1.1A5.07,5.07,0,0,0,585.45,281Zm-28.1-4h-.11a1.5,1.5,0,1,1,.11,0Zm11.08,0a2,2,0,0,1-2-2,2,2,0,0,1,.35-1.13h0l1.62-2.32,1.63,2.32h0a2,2,0,0,1,.35,1.13A2,2,0,0,1,568.43,277Z"/><path class="cls-3" d="M554.15,369.39h-1.48l2.26-6.55h1.78l2.26,6.55h-1.48l-1.64-5.05h-.05Zm-.09-2.57h3.5v1.08h-3.5Z"/><path class="cls-3" d="M564.88,369.39v-6.55h2.29a2.39,2.39,0,0,1,1.13.24,1.55,1.55,0,0,1,.66.63,1.81,1.81,0,0,1,.21.87,1.58,1.58,0,0,1-.14.7,1.16,1.16,0,0,1-.39.43,1.7,1.7,0,0,1-.53.24V366a1.37,1.37,0,0,1,.61.22,1.56,1.56,0,0,1,.51.54,1.84,1.84,0,0,1,.2.88,1.78,1.78,0,0,1-.22.89,1.56,1.56,0,0,1-.71.62,3,3,0,0,1-1.26.23Zm.79-3.67h1.47a1.51,1.51,0,0,0,.65-.14,1.12,1.12,0,0,0,.46-.4,1.08,1.08,0,0,0,.17-.6,1,1,0,0,0-.3-.73,1.3,1.3,0,0,0-1-.3h-1.5Zm0,3h1.57a1.58,1.58,0,0,0,1.11-.31,1,1,0,0,0,.33-.73,1.17,1.17,0,0,0-.17-.61,1.36,1.36,0,0,0-.49-.46,1.53,1.53,0,0,0-.74-.17h-1.61Z"/><path class="cls-3" d="M572,369.5a2.07,2.07,0,0,1-.84-.17,1.39,1.39,0,0,1-.83-1.33,1.28,1.28,0,0,1,.16-.69,1.18,1.18,0,0,1,.45-.41,2.34,2.34,0,0,1,.61-.23l.68-.12.73-.09a1.11,1.11,0,0,0,.41-.1.26.26,0,0,0,.13-.26v0a1,1,0,0,0-.26-.74,1.06,1.06,0,0,0-.78-.26,1.34,1.34,0,0,0-1.27.74l-.72-.25a1.79,1.79,0,0,1,.51-.7,1.82,1.82,0,0,1,.71-.35,2.76,2.76,0,0,1,.75-.1,3.74,3.74,0,0,1,.54.05,1.91,1.91,0,0,1,.6.23,1.43,1.43,0,0,1,.48.52,1.92,1.92,0,0,1,.19.93v3.24h-.75v-.67h0a1.65,1.65,0,0,1-.25.35,1.59,1.59,0,0,1-.48.31A2,2,0,0,1,572,369.5Zm.12-.67a1.44,1.44,0,0,0,.75-.18,1.2,1.2,0,0,0,.47-.45,1.14,1.14,0,0,0,.16-.59v-.69a.49.49,0,0,1-.21.11l-.37.08-.41.05-.31,0a3,3,0,0,0-.55.13.89.89,0,0,0-.41.25.65.65,0,0,0-.16.45.68.68,0,0,0,.3.6A1.29,1.29,0,0,0,572.14,368.83Z"/><path class="cls-3" d="M579.08,365.58l-.68.19a1.4,1.4,0,0,0-.19-.33.89.89,0,0,0-.33-.27,1.21,1.21,0,0,0-.54-.1,1.35,1.35,0,0,0-.75.2.63.63,0,0,0-.3.53.56.56,0,0,0,.2.44,1.68,1.68,0,0,0,.64.27l.73.18a2,2,0,0,1,1,.49,1.14,1.14,0,0,1,.33.84,1.24,1.24,0,0,1-.25.76,1.62,1.62,0,0,1-.67.52,2.41,2.41,0,0,1-1,.19,2.24,2.24,0,0,1-1.24-.32,1.47,1.47,0,0,1-.63-1l.72-.18a1,1,0,0,0,.39.6,1.3,1.3,0,0,0,.75.2,1.42,1.42,0,0,0,.84-.23.67.67,0,0,0,.31-.54.58.58,0,0,0-.18-.43,1.13,1.13,0,0,0-.55-.26l-.82-.19a1.92,1.92,0,0,1-1-.5,1.3,1.3,0,0,1-.08-1.58,1.61,1.61,0,0,1,.64-.5,2.27,2.27,0,0,1,.93-.18,1.78,1.78,0,0,1,1.14.32A1.72,1.72,0,0,1,579.08,365.58Z"/><path class="cls-3" d="M581.7,369.5a2.08,2.08,0,0,1-.85-.17,1.41,1.41,0,0,1-.61-.52A1.51,1.51,0,0,1,580,368a1.28,1.28,0,0,1,.17-.69,1.15,1.15,0,0,1,.44-.41,2.41,2.41,0,0,1,.62-.23c.22-.05.45-.09.68-.12l.72-.09a1.05,1.05,0,0,0,.41-.1.26.26,0,0,0,.13-.26v0a1,1,0,0,0-.26-.74,1.05,1.05,0,0,0-.77-.26,1.34,1.34,0,0,0-.85.24,1.31,1.31,0,0,0-.43.5l-.72-.25a1.79,1.79,0,0,1,.51-.7,1.82,1.82,0,0,1,.71-.35,2.76,2.76,0,0,1,.75-.1,3.74,3.74,0,0,1,.54.05,1.91,1.91,0,0,1,.6.23,1.28,1.28,0,0,1,.48.52,1.91,1.91,0,0,1,.2.93v3.24h-.76v-.67h0a1.36,1.36,0,0,1-.25.35,1.59,1.59,0,0,1-.48.31A1.94,1.94,0,0,1,581.7,369.5Zm.11-.67a1.5,1.5,0,0,0,.76-.18,1.24,1.24,0,0,0,.46-.45,1.14,1.14,0,0,0,.16-.59v-.69a.49.49,0,0,1-.21.11l-.37.08-.4.05-.32,0a3,3,0,0,0-.55.13.89.89,0,0,0-.41.25.64.64,0,0,0-.15.45.67.67,0,0,0,.29.6A1.29,1.29,0,0,0,581.81,368.83Z"/><path class="cls-3" d="M586,362.84v6.55h-.76v-6.55Z"/><path class="cls-3" d="M588.8,369.5a2.11,2.11,0,0,1-.85-.17,1.43,1.43,0,0,1-.83-1.33,1.28,1.28,0,0,1,.17-.69,1.15,1.15,0,0,1,.44-.41,2.41,2.41,0,0,1,.62-.23c.22-.05.45-.09.68-.12l.72-.09a1.05,1.05,0,0,0,.41-.1.26.26,0,0,0,.13-.26v0a1,1,0,0,0-.25-.74,1.1,1.1,0,0,0-.78-.26,1.36,1.36,0,0,0-.85.24,1.41,1.41,0,0,0-.43.5l-.72-.25a1.78,1.78,0,0,1,1.22-1.05,2.76,2.76,0,0,1,.75-.1,4,4,0,0,1,.55.05,2,2,0,0,1,.59.23,1.37,1.37,0,0,1,.49.52,2,2,0,0,1,.19.93v3.24h-.76v-.67h0a1.36,1.36,0,0,1-.25.35,1.59,1.59,0,0,1-.48.31A1.94,1.94,0,0,1,588.8,369.5Zm.11-.67a1.5,1.5,0,0,0,.76-.18,1.24,1.24,0,0,0,.46-.45,1.14,1.14,0,0,0,.16-.59v-.69a.49.49,0,0,1-.21.11l-.37.08-.4.05-.32,0a3,3,0,0,0-.55.13.89.89,0,0,0-.41.25.64.64,0,0,0-.15.45.67.67,0,0,0,.29.6A1.29,1.29,0,0,0,588.91,368.83Z"/><path class="cls-3" d="M592.37,369.39v-4.91h.73v.77h.07a1.15,1.15,0,0,1,.49-.61,1.46,1.46,0,0,1,.82-.22,1.36,1.36,0,0,1,.81.22,1.34,1.34,0,0,1,.51.61h.05a1.46,1.46,0,0,1,.57-.61,1.72,1.72,0,0,1,.9-.22,1.45,1.45,0,0,1,1.08.41,1.71,1.71,0,0,1,.42,1.27v3.29h-.76V366.1a.93.93,0,0,0-.29-.77,1.1,1.1,0,0,0-.7-.24,1,1,0,0,0-.81.32,1.1,1.1,0,0,0-.28.78v3.2h-.77V366a.9.9,0,0,0-.27-.68,1,1,0,0,0-.7-.26,1.07,1.07,0,0,0-.55.16,1.21,1.21,0,0,0-.41.43,1.34,1.34,0,0,0-.15.64v3.07Z"/><path class="cls-3" d="M479.51,377.12a4,4,0,0,1-.37,1.79,2.72,2.72,0,0,1-2.52,1.57,2.74,2.74,0,0,1-1.48-.41,2.78,2.78,0,0,1-1-1.16,4.51,4.51,0,0,1,0-3.58,2.8,2.8,0,0,1,1-1.17,2.89,2.89,0,0,1,3,0,2.8,2.8,0,0,1,1,1.17A4,4,0,0,1,479.51,377.12Zm-.76,0a3.27,3.27,0,0,0-.29-1.44,2,2,0,0,0-3.67,0,3.7,3.7,0,0,0,0,2.87,2,2,0,0,0,.76.89,2.08,2.08,0,0,0,2.15,0,2,2,0,0,0,.76-.89A3.25,3.25,0,0,0,478.75,377.12Z"/><path class="cls-3" d="M481.44,373.84v6.55h-.75v-6.55Z"/><path class="cls-3" d="M485.86,378.38v-2.9h.76v4.91h-.76v-.83h-.05a1.48,1.48,0,0,1-.54.63,1.49,1.49,0,0,1-.92.26,1.55,1.55,0,0,1-.81-.2,1.47,1.47,0,0,1-.57-.61,2.44,2.44,0,0,1-.2-1v-3.12h.75v3.07a1.14,1.14,0,0,0,.31.85,1,1,0,0,0,.77.32,1.23,1.23,0,0,0,.57-.14,1.22,1.22,0,0,0,.49-.44A1.29,1.29,0,0,0,485.86,378.38Z"/><path class="cls-3" d="M487.94,380.39v-4.91h.73v.77h.07a1.15,1.15,0,0,1,.49-.61,1.46,1.46,0,0,1,.82-.22,1.36,1.36,0,0,1,.81.22,1.34,1.34,0,0,1,.51.61h.05a1.4,1.4,0,0,1,.57-.61,1.72,1.72,0,0,1,.9-.22,1.45,1.45,0,0,1,1.08.41,1.71,1.71,0,0,1,.42,1.27v3.29h-.76V377.1a.91.91,0,0,0-.3-.77,1.06,1.06,0,0,0-.7-.24,1,1,0,0,0-.8.32,1.1,1.1,0,0,0-.28.78v3.2h-.77V377a.9.9,0,0,0-.27-.68,1,1,0,0,0-.7-.26,1.07,1.07,0,0,0-.55.16,1.21,1.21,0,0,0-.41.43,1.34,1.34,0,0,0-.15.64v3.07Z"/><path class="cls-3" d="M501.87,375.48a1,1,0,0,0-.46-.75,2.07,2.07,0,0,0-1.77-.13,1.21,1.21,0,0,0-.5.38,1,1,0,0,0-.18.56.79.79,0,0,0,.12.45,1.08,1.08,0,0,0,.33.31,1.73,1.73,0,0,0,.41.2,3.05,3.05,0,0,0,.4.13l.67.18c.17,0,.36.11.57.18a2.52,2.52,0,0,1,.6.33,1.61,1.61,0,0,1,.48.52,1.44,1.44,0,0,1,.19.77,1.67,1.67,0,0,1-.28,1,1.86,1.86,0,0,1-.8.68,3.45,3.45,0,0,1-2.5,0,1.92,1.92,0,0,1-.81-.64,1.86,1.86,0,0,1-.33-.94h.82a1,1,0,0,0,.25.61,1.36,1.36,0,0,0,.56.36,2.27,2.27,0,0,0,1.54,0,1.37,1.37,0,0,0,.57-.42,1,1,0,0,0,.21-.62.77.77,0,0,0-.18-.53,1.21,1.21,0,0,0-.48-.33,5.32,5.32,0,0,0-.64-.23l-.81-.23a2.83,2.83,0,0,1-1.21-.63,1.37,1.37,0,0,1-.45-1.07,1.61,1.61,0,0,1,.3-1,2.12,2.12,0,0,1,.8-.64,2.8,2.8,0,0,1,1.14-.23,2.67,2.67,0,0,1,1.12.23,1.86,1.86,0,0,1,.78.62,1.45,1.45,0,0,1,.31.88Z"/><path class="cls-3" d="M507.23,382.23v-2.59h-.07a2.85,2.85,0,0,1-.24.33,1.2,1.2,0,0,1-.43.36,1.53,1.53,0,0,1-.76.16,1.88,1.88,0,0,1-1.08-.31,2.07,2.07,0,0,1-.74-.88,3.63,3.63,0,0,1,0-2.7,2,2,0,0,1,.74-.87,1.91,1.91,0,0,1,1.09-.31,1.6,1.6,0,0,1,.76.15,1.44,1.44,0,0,1,.43.36c.1.14.18.24.23.33h.09v-.78H508v6.75Zm-1.4-2.42a1.3,1.3,0,0,0,.77-.23,1.47,1.47,0,0,0,.48-.67,3,3,0,0,0,0-1.94,1.43,1.43,0,0,0-.47-.64,1.25,1.25,0,0,0-.78-.24,1.31,1.31,0,0,0-.8.25,1.4,1.4,0,0,0-.47.66,2.54,2.54,0,0,0-.16.94,2.67,2.67,0,0,0,.16.95,1.52,1.52,0,0,0,.48.67A1.22,1.22,0,0,0,505.83,379.81Z"/><path class="cls-3" d="M509.86,380.44a.58.58,0,0,1-.58-.58.56.56,0,0,1,.17-.4.57.57,0,0,1,.41-.17.56.56,0,0,1,.4.17.52.52,0,0,1,.17.4.49.49,0,0,1-.08.29.58.58,0,0,1-.2.21A.6.6,0,0,1,509.86,380.44Z"/><path class="cls-3" d="M512.86,379.49l-.05.35c0,.24-.1.5-.17.78s-.15.54-.23.78l-.19.59h-.58c0-.14.07-.32.11-.54s.09-.48.14-.75.08-.56.11-.85l0-.36Z"/><path class="cls-3" d="M518.8,380.39h-2v-6.55h2.11a3.25,3.25,0,0,1,1.63.39,2.63,2.63,0,0,1,1,1.13,3.76,3.76,0,0,1,.37,1.74,3.94,3.94,0,0,1-.37,1.76,2.52,2.52,0,0,1-1.06,1.13A3.3,3.3,0,0,1,518.8,380.39Zm-1.23-.7h1.18a2.58,2.58,0,0,0,1.34-.32,1.93,1.93,0,0,0,.8-.89,3.74,3.74,0,0,0,0-2.74,1.92,1.92,0,0,0-.77-.89,2.54,2.54,0,0,0-1.29-.3h-1.26Z"/><path class="cls-3" d="M524.53,380.5a2.07,2.07,0,0,1-.84-.17,1.39,1.39,0,0,1-.83-1.33,1.28,1.28,0,0,1,.16-.69,1.18,1.18,0,0,1,.45-.41,2.34,2.34,0,0,1,.61-.23l.68-.12.73-.09a1.11,1.11,0,0,0,.41-.1.26.26,0,0,0,.13-.26v0a1,1,0,0,0-.26-.74,1.06,1.06,0,0,0-.78-.26,1.31,1.31,0,0,0-.84.24,1.44,1.44,0,0,0-.44.5l-.71-.25a1.79,1.79,0,0,1,.51-.7,1.82,1.82,0,0,1,.71-.35,2.76,2.76,0,0,1,.75-.1,3.74,3.74,0,0,1,.54.05,1.91,1.91,0,0,1,.6.23,1.43,1.43,0,0,1,.48.52,1.92,1.92,0,0,1,.19.93v3.24H526v-.67h0a1.65,1.65,0,0,1-.25.35,1.59,1.59,0,0,1-.48.31A2,2,0,0,1,524.53,380.5Zm.12-.67a1.44,1.44,0,0,0,.75-.18,1.2,1.2,0,0,0,.47-.45,1.14,1.14,0,0,0,.16-.59v-.69a.49.49,0,0,1-.21.11l-.37.08-.41.05-.31,0a3,3,0,0,0-.55.13.89.89,0,0,0-.41.25.65.65,0,0,0-.16.45.68.68,0,0,0,.3.6A1.29,1.29,0,0,0,524.65,379.83Z"/><path class="cls-3" d="M528.86,377.44v2.95h-.75v-4.91h.73v.77h.06a1.4,1.4,0,0,1,.53-.6,1.54,1.54,0,0,1,.9-.23,1.76,1.76,0,0,1,.88.2,1.37,1.37,0,0,1,.58.61,2.29,2.29,0,0,1,.21,1v3.12h-.76v-3.07a1.27,1.27,0,0,0-.3-.9,1,1,0,0,0-.82-.33,1.39,1.39,0,0,0-.65.16,1.15,1.15,0,0,0-.44.46A1.49,1.49,0,0,0,528.86,377.44Z"/><path class="cls-3" d="M535.38,380.49a2.28,2.28,0,0,1-1.22-.31,2.07,2.07,0,0,1-.79-.89,3,3,0,0,1-.28-1.32,3.13,3.13,0,0,1,.28-1.33,2.19,2.19,0,0,1,.77-.9,2,2,0,0,1,1.16-.32,2.46,2.46,0,0,1,.76.12,1.95,1.95,0,0,1,1.17,1.17,3.29,3.29,0,0,1,.18,1.16v.32h-3.78v-.65h3a1.58,1.58,0,0,0-.17-.74,1.29,1.29,0,0,0-.46-.52,1.4,1.4,0,0,0-.72-.19,1.32,1.32,0,0,0-.77.23,1.47,1.47,0,0,0-.51.57,1.8,1.8,0,0,0-.17.76v.44a2.07,2.07,0,0,0,.19.94,1.32,1.32,0,0,0,.54.58,1.51,1.51,0,0,0,.8.2,1.53,1.53,0,0,0,.54-.08,1.14,1.14,0,0,0,.42-.26,1.27,1.27,0,0,0,.27-.42l.73.2a1.6,1.6,0,0,1-.39.65,1.86,1.86,0,0,1-.67.44A2.57,2.57,0,0,1,535.38,380.49Z"/><path class="cls-3" d="M542,376.58l-.68.19a1.12,1.12,0,0,0-.19-.33.89.89,0,0,0-.33-.27,1.21,1.21,0,0,0-.54-.1,1.35,1.35,0,0,0-.75.2.63.63,0,0,0-.3.53.54.54,0,0,0,.21.44,1.56,1.56,0,0,0,.63.27l.73.18a2,2,0,0,1,1,.49,1.14,1.14,0,0,1,.33.84,1.29,1.29,0,0,1-.24.76,1.72,1.72,0,0,1-.68.52,2.38,2.38,0,0,1-1,.19,2.26,2.26,0,0,1-1.24-.32,1.47,1.47,0,0,1-.63-1L539,379a1,1,0,0,0,.39.6,1.3,1.3,0,0,0,.75.2,1.42,1.42,0,0,0,.84-.23.67.67,0,0,0,.31-.54.58.58,0,0,0-.18-.43,1.13,1.13,0,0,0-.55-.26l-.82-.19a1.92,1.92,0,0,1-1-.5,1.18,1.18,0,0,1-.31-.84,1.25,1.25,0,0,1,.23-.74,1.61,1.61,0,0,1,.64-.5,2.3,2.3,0,0,1,.93-.18,1.81,1.81,0,0,1,1.15.32A1.77,1.77,0,0,1,542,376.58Z"/><path class="cls-3" d="M543.92,377.44v2.95h-.76v-6.55h.76v2.41H544a1.35,1.35,0,0,1,.52-.61,1.67,1.67,0,0,1,.92-.22,1.76,1.76,0,0,1,.88.2,1.34,1.34,0,0,1,.59.61,2.26,2.26,0,0,1,.21,1v3.12h-.76v-3.07a1.3,1.3,0,0,0-.3-.91,1.1,1.1,0,0,0-.83-.32,1.47,1.47,0,0,0-.67.16,1.2,1.2,0,0,0-.46.46A1.49,1.49,0,0,0,543.92,377.44Z"/><path class="cls-3" d="M550.41,382.33a2.62,2.62,0,0,1-.94-.14,2.08,2.08,0,0,1-.66-.36,2,2,0,0,1-.41-.48l.6-.42.26.3a1.32,1.32,0,0,0,.43.31,1.78,1.78,0,0,0,.72.13,1.63,1.63,0,0,0,1-.29,1,1,0,0,0,.39-.9v-1h-.07a2.94,2.94,0,0,1-.23.33,1.33,1.33,0,0,1-.44.35,1.63,1.63,0,0,1-.76.15,2,2,0,0,1-1.07-.28,2,2,0,0,1-.74-.82,2.87,2.87,0,0,1-.27-1.3,3.05,3.05,0,0,1,.26-1.32,2.11,2.11,0,0,1,.74-.87,2,2,0,0,1,1.09-.3,1.6,1.6,0,0,1,.76.15,1.49,1.49,0,0,1,.44.36c.1.14.18.24.23.33h.08v-.78h.73v5a1.72,1.72,0,0,1-.29,1,1.66,1.66,0,0,1-.76.59A3,3,0,0,1,550.41,382.33Zm0-2.69a1.36,1.36,0,0,0,.77-.21,1.24,1.24,0,0,0,.47-.6,2.38,2.38,0,0,0,.17-.93,2.68,2.68,0,0,0-.16-.94,1.55,1.55,0,0,0-.47-.64,1.31,1.31,0,0,0-.78-.23,1.25,1.25,0,0,0-.8.25,1.42,1.42,0,0,0-.47.65,2.38,2.38,0,0,0-.16.91,2.29,2.29,0,0,0,.16.9,1.31,1.31,0,0,0,1.27.84Z"/><path class="cls-3" d="M555.3,380.5a2.15,2.15,0,0,1-.85-.17,1.43,1.43,0,0,1-.83-1.33,1.28,1.28,0,0,1,.17-.69,1.11,1.11,0,0,1,.45-.41,2.34,2.34,0,0,1,.61-.23c.23-.05.45-.09.68-.12l.73-.09a1.16,1.16,0,0,0,.41-.1.28.28,0,0,0,.13-.26v0a1,1,0,0,0-.26-.74,1.06,1.06,0,0,0-.78-.26,1.36,1.36,0,0,0-.85.24,1.41,1.41,0,0,0-.43.5l-.71-.25a1.62,1.62,0,0,1,.51-.7,1.78,1.78,0,0,1,.7-.35,2.87,2.87,0,0,1,.75-.1,4,4,0,0,1,.55.05,2,2,0,0,1,.6.23,1.43,1.43,0,0,1,.48.52,1.92,1.92,0,0,1,.19.93v3.24h-.75v-.67h0a1.43,1.43,0,0,1-.26.35,1.67,1.67,0,0,1-.47.31A2,2,0,0,1,555.3,380.5Zm.12-.67a1.49,1.49,0,0,0,.75-.18,1.27,1.27,0,0,0,.47-.45,1.24,1.24,0,0,0,.16-.59v-.69a.66.66,0,0,1-.21.11l-.37.08-.41.05-.32,0a3.16,3.16,0,0,0-.55.13,1,1,0,0,0-.41.25.64.64,0,0,0-.15.45.69.69,0,0,0,.29.6A1.33,1.33,0,0,0,555.42,379.83Z"/><path class="cls-3" d="M559.63,377.44v2.95h-.75v-6.55h.75v2.41h.07a1.33,1.33,0,0,1,.51-.61,1.71,1.71,0,0,1,.93-.22,1.79,1.79,0,0,1,.88.2,1.34,1.34,0,0,1,.59.61,2.41,2.41,0,0,1,.2,1v3.12h-.75v-3.07a1.3,1.3,0,0,0-.3-.91,1.11,1.11,0,0,0-.84-.32,1.4,1.4,0,0,0-.66.16,1.08,1.08,0,0,0-.46.46A1.49,1.49,0,0,0,559.63,377.44Z"/><path class="cls-3" d="M567,380.39h-.83l2.4-6.55h.82l2.4,6.55H571l-2-5.51h-.06Zm.31-2.56h3.35v.71H567.3Z"/><path class="cls-3" d="M576.05,375.48l-1.81,4.91h-.77l-1.82-4.91h.82l1.36,3.91h0l1.35-3.91Z"/><path class="cls-3" d="M578.87,380.49a2.28,2.28,0,0,1-1.22-.31,2.07,2.07,0,0,1-.79-.89,3,3,0,0,1-.28-1.32,3.13,3.13,0,0,1,.28-1.33,2.19,2.19,0,0,1,.77-.9,2.08,2.08,0,0,1,1.17-.32,2.45,2.45,0,0,1,.75.12,1.95,1.95,0,0,1,1.17,1.17,3.27,3.27,0,0,1,.19,1.16v.32h-3.79v-.65h3a1.58,1.58,0,0,0-.17-.74,1.29,1.29,0,0,0-.46-.52,1.43,1.43,0,0,0-1.49,0,1.47,1.47,0,0,0-.51.57,1.8,1.8,0,0,0-.17.76v.44a2.07,2.07,0,0,0,.19.94,1.32,1.32,0,0,0,.54.58,1.51,1.51,0,0,0,.8.2,1.53,1.53,0,0,0,.54-.08,1.14,1.14,0,0,0,.42-.26,1,1,0,0,0,.27-.42l.73.2a1.6,1.6,0,0,1-.39.65,1.86,1.86,0,0,1-.67.44A2.54,2.54,0,0,1,578.87,380.49Z"/><path class="cls-3" d="M582.55,380.44a.54.54,0,0,1-.4-.17.53.53,0,0,1-.17-.41.52.52,0,0,1,.17-.4.54.54,0,0,1,.4-.17.58.58,0,0,1,.41.17.56.56,0,0,1,.17.4.57.57,0,0,1-.08.29.53.53,0,0,1-.21.21A.57.57,0,0,1,582.55,380.44Z"/><path class="cls-3" d="M585.55,379.49l0,.35c0,.24-.09.5-.16.78s-.15.54-.23.78-.15.44-.2.59h-.57c0-.14.06-.32.11-.54s.09-.48.13-.75.09-.56.12-.85l0-.36Z"/><path class="cls-3" d="M589.47,380.39v-6.55h2.21a2.56,2.56,0,0,1,1.26.28,1.7,1.7,0,0,1,.73.75,2.24,2.24,0,0,1,.24,1,2.33,2.33,0,0,1-.24,1.06,1.79,1.79,0,0,1-.72.75,2.46,2.46,0,0,1-1.25.28h-1.59v-.7h1.56a1.75,1.75,0,0,0,.85-.19,1.09,1.09,0,0,0,.46-.49,1.73,1.73,0,0,0,0-1.41,1.11,1.11,0,0,0-.47-.49,1.86,1.86,0,0,0-.85-.17h-1.4v5.84Z"/><path class="cls-3" d="M596.47,380.5a2.07,2.07,0,0,1-.84-.17,1.39,1.39,0,0,1-.83-1.33,1.28,1.28,0,0,1,.16-.69,1.18,1.18,0,0,1,.45-.41,2.34,2.34,0,0,1,.61-.23l.68-.12.73-.09a1.11,1.11,0,0,0,.41-.1.26.26,0,0,0,.13-.26v0a1,1,0,0,0-.26-.74,1.06,1.06,0,0,0-.78-.26,1.34,1.34,0,0,0-1.27.74l-.72-.25a1.79,1.79,0,0,1,.51-.7,1.82,1.82,0,0,1,.71-.35,2.76,2.76,0,0,1,.75-.1,3.74,3.74,0,0,1,.54.05,1.91,1.91,0,0,1,.6.23,1.43,1.43,0,0,1,.48.52,1.92,1.92,0,0,1,.19.93v3.24H598v-.67h0a1.65,1.65,0,0,1-.25.35,1.59,1.59,0,0,1-.48.31A2,2,0,0,1,596.47,380.5Zm.12-.67a1.44,1.44,0,0,0,.75-.18,1.2,1.2,0,0,0,.47-.45,1.14,1.14,0,0,0,.16-.59v-.69a.49.49,0,0,1-.21.11l-.37.08-.41.05-.31,0a3,3,0,0,0-.55.13.89.89,0,0,0-.41.25.65.65,0,0,0-.16.45.68.68,0,0,0,.3.6A1.29,1.29,0,0,0,596.59,379.83Z"/><path class="cls-3" d="M600.05,380.39v-4.91h.73v.74h.05a1.17,1.17,0,0,1,.49-.59,1.41,1.41,0,0,1,.79-.23h.39v.76l-.17,0-.29,0a1.3,1.3,0,0,0-.63.15,1.09,1.09,0,0,0-.44.41,1.07,1.07,0,0,0-.17.59v3.11Z"/><path class="cls-3" d="M605.05,380.49a1.93,1.93,0,0,1-1.09-.31,2.13,2.13,0,0,1-.73-.88,3.51,3.51,0,0,1,0-2.7,2,2,0,0,1,.74-.87,1.91,1.91,0,0,1,1.09-.31,1.63,1.63,0,0,1,.76.15,1.58,1.58,0,0,1,.43.36l.23.33h.06v-2.42h.76v6.55h-.73v-.75h-.09l-.24.33a1.24,1.24,0,0,1-.44.36A1.47,1.47,0,0,1,605.05,380.49Zm.1-.68a1.3,1.3,0,0,0,.77-.23,1.53,1.53,0,0,0,.47-.67,2.63,2.63,0,0,0,.17-1,2.86,2.86,0,0,0-.16-1,1.38,1.38,0,0,0-.48-.64,1.22,1.22,0,0,0-.77-.24,1.29,1.29,0,0,0-.8.25,1.4,1.4,0,0,0-.47.66,2.54,2.54,0,0,0-.16.94,2.67,2.67,0,0,0,.16.95,1.52,1.52,0,0,0,.48.67A1.21,1.21,0,0,0,605.15,379.81Z"/><path class="cls-3" d="M609.11,374.66a.54.54,0,0,1-.38-.15.48.48,0,0,1,0-.72.56.56,0,0,1,.76,0,.49.49,0,0,1,0,.72A.54.54,0,0,1,609.11,374.66Zm-.38,5.73v-4.91h.75v4.91Z"/><path class="cls-3" d="M614.28,376.58l-.67.19a1.86,1.86,0,0,0-.19-.33.85.85,0,0,0-.34-.27,1.21,1.21,0,0,0-.54-.1,1.34,1.34,0,0,0-.74.2.63.63,0,0,0-.3.53.56.56,0,0,0,.2.44,1.68,1.68,0,0,0,.64.27l.73.18a2.05,2.05,0,0,1,1,.49,1.13,1.13,0,0,1,.32.84,1.29,1.29,0,0,1-.24.76,1.62,1.62,0,0,1-.67.52,2.41,2.41,0,0,1-1,.19,2.3,2.3,0,0,1-1.25-.32,1.46,1.46,0,0,1-.62-1l.71-.18a1,1,0,0,0,.39.6,1.3,1.3,0,0,0,.75.2,1.42,1.42,0,0,0,.84-.23.65.65,0,0,0,.31-.54.58.58,0,0,0-.18-.43,1.14,1.14,0,0,0-.54-.26l-.82-.19a1.92,1.92,0,0,1-1-.5,1.26,1.26,0,0,1-.08-1.58,1.54,1.54,0,0,1,.64-.5,2.25,2.25,0,0,1,.92-.18,1.81,1.81,0,0,1,1.15.32A1.64,1.64,0,0,1,614.28,376.58Z"/><path class="cls-3" d="M616.9,380.5a2.15,2.15,0,0,1-.85-.17,1.44,1.44,0,0,1-.6-.52,1.42,1.42,0,0,1-.22-.81,1.28,1.28,0,0,1,.16-.69,1.11,1.11,0,0,1,.45-.41,2.34,2.34,0,0,1,.61-.23c.23-.05.45-.09.68-.12l.73-.09a1.16,1.16,0,0,0,.41-.1.28.28,0,0,0,.13-.26v0a1,1,0,0,0-.26-.74,1.06,1.06,0,0,0-.78-.26,1.36,1.36,0,0,0-.85.24,1.52,1.52,0,0,0-.43.5l-.71-.25a1.74,1.74,0,0,1,1.21-1.05,2.89,2.89,0,0,1,.76-.1,3.86,3.86,0,0,1,.54.05,1.91,1.91,0,0,1,.6.23,1.43,1.43,0,0,1,.48.52,1.92,1.92,0,0,1,.19.93v3.24h-.75v-.67h0a1.43,1.43,0,0,1-.26.35,1.54,1.54,0,0,1-.47.31A2,2,0,0,1,616.9,380.5Zm.12-.67a1.46,1.46,0,0,0,.75-.18,1.27,1.27,0,0,0,.47-.45,1.24,1.24,0,0,0,.16-.59v-.69a.49.49,0,0,1-.21.11l-.37.08-.41.05-.32,0a3.16,3.16,0,0,0-.55.13.91.91,0,0,0-.4.25.61.61,0,0,0-.16.45.69.69,0,0,0,.29.6A1.35,1.35,0,0,0,617,379.83Z"/><path class="cls-3" d="M621.23,377.44v2.95h-.75v-4.91h.73v.77h.06a1.44,1.44,0,0,1,.52-.6,1.6,1.6,0,0,1,.91-.23,1.76,1.76,0,0,1,.88.2,1.43,1.43,0,0,1,.58.61,2.29,2.29,0,0,1,.21,1v3.12h-.76v-3.07a1.27,1.27,0,0,0-.3-.9,1.06,1.06,0,0,0-.82-.33,1.39,1.39,0,0,0-.65.16,1,1,0,0,0-.44.46A1.49,1.49,0,0,0,621.23,377.44Z"/><path class="cls-3" d="M626.82,379.49l-.05.35c0,.24-.1.5-.17.78s-.15.54-.23.78l-.19.59h-.58c0-.14.07-.32.11-.54s.09-.48.14-.75.08-.56.11-.85l0-.36Z"/><path class="cls-3" d="M636.26,377.12a4,4,0,0,1-.38,1.79,2.82,2.82,0,0,1-1,1.16,2.79,2.79,0,0,1-4-1.16,4.51,4.51,0,0,1,0-3.58,2.8,2.8,0,0,1,1-1.17,2.91,2.91,0,0,1,3,0,2.85,2.85,0,0,1,1,1.17A4,4,0,0,1,636.26,377.12Zm-.77,0a3.27,3.27,0,0,0-.28-1.44,2.08,2.08,0,0,0-.77-.88,2.08,2.08,0,0,0-2.15,0,2.06,2.06,0,0,0-.76.88,3.82,3.82,0,0,0,0,2.87,2.09,2.09,0,0,0,.76.89,2.08,2.08,0,0,0,2.15,0,2.11,2.11,0,0,0,.77-.89A3.26,3.26,0,0,0,635.49,377.12Zm-2.38,1.22H634l.73,1,.19.26L636,381h-.87l-.72-1-.18-.24Z"/><path class="cls-3" d="M639.42,380.49a2.12,2.12,0,0,1-1.16-.31,2.25,2.25,0,0,1-.78-.89,2.93,2.93,0,0,1-.28-1.33,3,3,0,0,1,.28-1.34,2.19,2.19,0,0,1,.78-.89,2.34,2.34,0,0,1,2.33,0,2.19,2.19,0,0,1,.78.89,3,3,0,0,1,.28,1.34,2.93,2.93,0,0,1-.28,1.33,2.25,2.25,0,0,1-.78.89A2.13,2.13,0,0,1,639.42,380.49Zm0-.68a1.33,1.33,0,0,0,.84-.25,1.65,1.65,0,0,0,.48-.69,2.67,2.67,0,0,0,.16-.91,2.78,2.78,0,0,0-.16-.92,1.62,1.62,0,0,0-.48-.68,1.43,1.43,0,0,0-1.67,0,1.62,1.62,0,0,0-.48.68,2.77,2.77,0,0,0-.15.92,2.67,2.67,0,0,0,.15.91,1.65,1.65,0,0,0,.48.69A1.32,1.32,0,0,0,639.42,379.81Z"/><path class="cls-3" d="M642.75,380.39v-4.91h.72v.77h.07a1.2,1.2,0,0,1,.49-.61,1.49,1.49,0,0,1,.83-.22,1.34,1.34,0,0,1,1.31.83h.05a1.46,1.46,0,0,1,.57-.61,1.72,1.72,0,0,1,.9-.22,1.45,1.45,0,0,1,1.08.41,1.71,1.71,0,0,1,.42,1.27v3.29h-.76V377.1a.9.9,0,0,0-.29-.77,1.08,1.08,0,0,0-.7-.24,1,1,0,0,0-.8.32,1.11,1.11,0,0,0-.29.78v3.2h-.77V377a.9.9,0,0,0-.27-.68,1,1,0,0,0-.7-.26,1.1,1.1,0,0,0-.55.16,1.11,1.11,0,0,0-.4.43,1.24,1.24,0,0,0-.16.64v3.07Z"/><path class="cls-3" d="M655.31,373.54l-2.11,7.83h-.69l2.11-7.83Z"/><path class="cls-3" d="M659.52,373.84v6.55h-.79v-6.55Z"/><path class="cls-3" d="M661.05,380.39v-6.55h2.21a2.74,2.74,0,0,1,1.26.26,1.75,1.75,0,0,1,.73.72,2.17,2.17,0,0,1,.24,1,2.15,2.15,0,0,1-.24,1,1.68,1.68,0,0,1-.72.7,2.73,2.73,0,0,1-1.25.25h-1.79v-.71h1.76a2,2,0,0,0,.85-.16,1,1,0,0,0,.46-.43,1.45,1.45,0,0,0,.15-.68,1.52,1.52,0,0,0-.15-.69,1,1,0,0,0-.47-.45,1.87,1.87,0,0,0-.85-.16h-1.4v5.84Zm3.08-2.94,1.61,2.94h-.92l-1.58-2.94Z"/><path class="cls-3" d="M667,380.39h-.83l2.4-6.55h.82l2.4,6.55H671l-2-5.51H669Zm.31-2.56h3.34v.71h-3.34Z"/><path class="cls-3" d="M678,373.84v6.55h-.77l-3.56-5.14h-.07v5.14h-.79v-6.55h.77l3.58,5.16h.06v-5.16Z"/><path class="cls-3" d="M483.8,392.43a3.23,3.23,0,0,1,.18-1.22,5.39,5.39,0,0,1,.75-1.25,1.28,1.28,0,0,1,1-.56,1,1,0,0,1,.89.49,2.17,2.17,0,0,1,.31,1.17,2.86,2.86,0,0,1-.12.85.74.74,0,0,1-.1.22,1.22,1.22,0,0,1-.23.23.54.54,0,0,1-.35.17.36.36,0,0,1-.19,0l-1.46-.71a22.54,22.54,0,0,0,.21,2.7l-.71.27C483.86,393.66,483.8,392.89,483.8,392.43Zm2.52-1.26a1.37,1.37,0,0,0-.17-.7.55.55,0,0,0-.52-.28.61.61,0,0,0-.45.22,3.61,3.61,0,0,0-.46.67l1.51.69A1.8,1.8,0,0,0,486.32,391.17Z"/><path class="cls-3" d="M488.77,391.29a10,10,0,0,0-.22-2,5.2,5.2,0,0,0-.77-1.87l.57-.46a7.72,7.72,0,0,1,1,4.18Zm3.57.29a1.69,1.69,0,0,1,0,.25v.22a1.66,1.66,0,0,1,0,.24c0,.07,0,.1-.06.1h-.35a1.88,1.88,0,0,1-.8-.14.84.84,0,0,1-.42-.45,2.43,2.43,0,0,1-1.08.63,8.15,8.15,0,0,1-1.58.34l-.09-.9a9.67,9.67,0,0,0,1.57-.35,2.15,2.15,0,0,0,.87-.42l-.18-4.35.73-.18.06,4.28a.67.67,0,0,0,.11.41.52.52,0,0,0,.29.18,2.39,2.39,0,0,0,.51,0h.36S492.32,391.52,492.34,391.58Z"/><path class="cls-3" d="M497.74,391.33a.88.88,0,0,1-.39.8,1.71,1.71,0,0,1-1,.26.86.86,0,0,1-.88-.47.88.88,0,0,1-.44.35,1.51,1.51,0,0,1-.58.12.82.82,0,0,1-.85-.48,1.57,1.57,0,0,1-1.37.48s0,0-.06-.1a.9.9,0,0,1,0-.24v-.22a.82.82,0,0,1,0-.24c0-.07,0-.11.06-.11a2.32,2.32,0,0,0,1.05-.19l0-1.23.65,0,0,1c0,.19,0,.31.14.36a1,1,0,0,0,.49.08.91.91,0,0,0,.61-.16l0-1.57.66,0,0,1.63a.74.74,0,0,0,.46.12,1.73,1.73,0,0,0,.8-.16L497,389.4l.72-.12C497.72,390,497.74,390.7,497.74,391.33Z"/><path class="cls-3" d="M500.94,391.58a.94.94,0,0,1,0,.25v.22a.9.9,0,0,1,0,.24c0,.07,0,.1-.06.1h-.19a1.57,1.57,0,0,1-1.15-.36,1.76,1.76,0,0,1-.38-1.24l-.12-4,.72-.18.07,4.23a.64.64,0,0,0,.7.68h.35S500.92,391.52,500.94,391.58Z"/><path class="cls-3" d="M502.91,389.52c0,.7,0,1.26,0,1.69a1,1,0,0,1-.49.84,2.79,2.79,0,0,1-.74.26,5,5,0,0,1-.85.08s0,0-.06-.1a.88.88,0,0,1,0-.24v-.22a.78.78,0,0,1,0-.24c0-.07,0-.11.06-.11a5.25,5.25,0,0,0,.85-.05,2.06,2.06,0,0,0,.62-.19l-.19-1.84.73-.11Zm-1.28,3.82.69.58-.57.68-.67-.57Z"/><path class="cls-3" d="M512.21,391.58a.94.94,0,0,1,0,.25v.22a.9.9,0,0,1,0,.24c0,.07,0,.1-.06.1-.76,0-1.21-.18-1.34-.53a.61.61,0,0,1-.24.21,1.86,1.86,0,0,1-.42.14,4.32,4.32,0,0,1-.87.15,9.56,9.56,0,0,1-1.09.06,6.63,6.63,0,0,1-1.46-.13,1.64,1.64,0,0,1-.88-.45,1.3,1.3,0,0,1-.3-.91,2.15,2.15,0,0,1,0-.45l.2-1.24.56.12-.18,1.09a1.23,1.23,0,0,0,0,.26.65.65,0,0,0,.22.54,1.26,1.26,0,0,0,.61.22,9.75,9.75,0,0,0,1.08,0c.56,0,1,0,1.43-.06a5.79,5.79,0,0,0,1.07-.21l-.13-1.4.71-.07.09,1.54a2.05,2.05,0,0,0,.92.16S512.19,391.52,512.21,391.58Zm-4.2-2.65-.62-.52.52-.62.63.52Zm1.21,0-.62-.52.51-.62.63.52Z"/><path class="cls-3" d="M514.59,389.76a3.62,3.62,0,0,1,.36,1.61c0,.37-.22.63-.68.79a7.29,7.29,0,0,1-2.12.23s0,0-.06-.1a1.66,1.66,0,0,1,0-.24v-.22a.82.82,0,0,1,0-.24c0-.07,0-.11.06-.11.45,0,.88,0,1.29-.05a4,4,0,0,0,.91-.18,2.63,2.63,0,0,0-.56-1.48,6.32,6.32,0,0,0-1.5-1.34l0-.75a16.59,16.59,0,0,1,2.69-1.2l.1.76a20.67,20.67,0,0,0-2,.86l.22.16A5,5,0,0,1,514.59,389.76Z"/><path class="cls-3" d="M518.71,391.58a1.69,1.69,0,0,1,0,.25v.22a1.66,1.66,0,0,1,0,.24c0,.07,0,.1-.06.1h-.22a1.21,1.21,0,0,1-1-.38v0a2.06,2.06,0,0,1-.56,1.39,5.27,5.27,0,0,1-1.75,1.21l-.44-.72a6.38,6.38,0,0,0,1.43-.82,2.21,2.21,0,0,0,.68-.82l-.27-2.34.71-.18.12,1.09a.74.74,0,0,0,.16.43.57.57,0,0,0,.34.16,4.54,4.54,0,0,0,.6,0h.2S518.69,391.52,518.71,391.58Z"/><path class="cls-3" d="M524.11,391.33a.88.88,0,0,1-.39.8,1.72,1.72,0,0,1-1,.26.86.86,0,0,1-.87-.47.92.92,0,0,1-.44.35,1.54,1.54,0,0,1-.58.12.81.81,0,0,1-.85-.48,1.58,1.58,0,0,1-1.37.48s0,0-.06-.1a.88.88,0,0,1,0-.24v-.22a.78.78,0,0,1,0-.24c0-.07,0-.11.06-.11a2.32,2.32,0,0,0,1.05-.19v-1.23l.66,0,0,1c0,.19,0,.31.14.36a1,1,0,0,0,.49.08.93.93,0,0,0,.61-.16l0-1.57.67,0,0,1.63a.72.72,0,0,0,.46.12,1.76,1.76,0,0,0,.8-.16l-.18-1.92.72-.12C524.09,390,524.11,390.7,524.11,391.33Zm-2.83-2.48-.61-.52.52-.61.61.51Zm.57-1.15-.6-.5.51-.62.61.52Zm0,.62.51-.61.61.51-.52.61Z"/><path class="cls-3" d="M527.56,391.45a.57.57,0,0,1,.17.42.57.57,0,0,1-.17.41.56.56,0,0,1-.41.16.61.61,0,0,1-.47-.19.78.78,0,0,1-.19-.56,2.3,2.3,0,0,1,.18-.81,4.22,4.22,0,0,1,.45-.87l.42.4a5.49,5.49,0,0,0-.3.49,1.61,1.61,0,0,0-.16.39h.07A.56.56,0,0,1,527.56,391.45Z"/><path class="cls-3" d="M529,392.43a3.26,3.26,0,0,1,.17-1.22,5.39,5.39,0,0,1,.75-1.25,1.28,1.28,0,0,1,1-.56,1,1,0,0,1,.89.49,2.08,2.08,0,0,1,.31,1.17,3.24,3.24,0,0,1-.11.85,1.13,1.13,0,0,1-.11.22,1.22,1.22,0,0,1-.23.23.52.52,0,0,1-.35.17.36.36,0,0,1-.19,0l-1.46-.71a22.54,22.54,0,0,0,.21,2.7l-.71.27Q529,393.12,529,392.43Zm2.51-1.26a1.37,1.37,0,0,0-.17-.7.55.55,0,0,0-.52-.28.62.62,0,0,0-.45.22,3.2,3.2,0,0,0-.45.67l1.5.69A1.8,1.8,0,0,0,531.47,391.17Z"/><path class="cls-3" d="M536.59,391.58a1.69,1.69,0,0,1,0,.25v.22a1.66,1.66,0,0,1,0,.24c0,.07,0,.1-.06.1h-.66a2.88,2.88,0,0,1-.81,1.29,4.72,4.72,0,0,1-1.49.93l-.44-.72a5.46,5.46,0,0,0,1.32-.69,2.8,2.8,0,0,0,.82-.88,3.63,3.63,0,0,1-.84.08,3.78,3.78,0,0,1-.56,0,.4.4,0,0,1-.21-.09,1.11,1.11,0,0,1-.19-.22,1,1,0,0,1-.14-.26.46.46,0,0,1,0-.23,3.72,3.72,0,0,1,.35-1.44,1.11,1.11,0,0,1,2,0,3.55,3.55,0,0,1,.32,1.39h.57S536.57,391.52,536.59,391.58Zm-2.06,0a3.5,3.5,0,0,0,.82-.07,1.74,1.74,0,0,0-.19-.94.61.61,0,0,0-.56-.29.57.57,0,0,0-.52.31,2.09,2.09,0,0,0-.19.93A2.39,2.39,0,0,0,534.53,391.59Z"/><path class="cls-3" d="M539.84,391.58a.9.9,0,0,1,0,.25v.22a.88.88,0,0,1,0,.24c0,.07,0,.1-.05.1a3.26,3.26,0,0,1-1-.14.93.93,0,0,1-.53-.36,1.39,1.39,0,0,1-.67.39,4.36,4.36,0,0,1-1,.11s0,0-.06-.1a.88.88,0,0,1,0-.24v-.22a.78.78,0,0,1,0-.24c0-.07,0-.11.06-.11a3,3,0,0,0,1.4-.23l-.19-4.5.72-.18.07,4.23a.67.67,0,0,0,.2.53.88.88,0,0,0,.57.15h.49S539.83,391.52,539.84,391.58Z"/><path class="cls-3" d="M543.6,391.9q-1,.24-1.44.33a7.85,7.85,0,0,1-.86.13c-.27,0-.62,0-1.07,0h-.44s0,0-.06-.1a.88.88,0,0,1,0-.24v-.22a1.44,1.44,0,0,1,0-.24c0-.07,0-.11.07-.11h1.07a2.36,2.36,0,0,1-.21-1,1.14,1.14,0,0,1,.41-1,1.67,1.67,0,0,1,1.06-.31,3.11,3.11,0,0,1,.83.11l-.19.77a2.41,2.41,0,0,0-.71-.09,2,2,0,0,0-.75.11,3.55,3.55,0,0,0,.08.73,2.29,2.29,0,0,0,.22.61,14,14,0,0,0,1.95-.4Z"/><path class="cls-3" d="M546.29,391.81c.07-.44.16-1,.28-1.65l.56.13a20.52,20.52,0,0,0-.31,2.19.56.56,0,0,0,.4.63,2.86,2.86,0,0,0,1,.17,5.5,5.5,0,0,0,1-.09,2.43,2.43,0,0,0,.8-.29l-.31-3,.72-.16c.11,1.18.17,2.22.21,3.09a1.07,1.07,0,0,1-.69,1.05,4.15,4.15,0,0,1-1.8.35,2.08,2.08,0,0,1-1.55-.45,1.48,1.48,0,0,1-.41-1A6.37,6.37,0,0,1,546.29,391.81Zm2.71-3.16-.57.69-.68-.57.56-.68Z"/><path class="cls-3" d="M552.47,386.57l.07,5.82-.63.09-.16-5.73Z"/><path class="cls-3" d="M557.94,391.58a1.69,1.69,0,0,1,0,.25v.22a1.66,1.66,0,0,1,0,.24c0,.07,0,.1-.06.1h-.19a1.11,1.11,0,0,1-1.11-.6,1.09,1.09,0,0,1-.09.21.23.23,0,0,1-.11.11,2.75,2.75,0,0,1-.75.28,4,4,0,0,1-.88.1,1.18,1.18,0,0,1-.8-.23,1,1,0,0,1-.27-.83c0-.18,0-.31,0-.41l.57,0v.19a.39.39,0,0,0,0,.25.22.22,0,0,0,.17.09l.44,0a3.59,3.59,0,0,0,.78-.09,2.07,2.07,0,0,0,.63-.25l-.61-2.47.67-.41.49,2.3a2.8,2.8,0,0,0,.16.58.37.37,0,0,0,.25.19,2.58,2.58,0,0,0,.59,0S557.92,391.52,557.94,391.58Z"/><path class="cls-3" d="M560.89,391.58a.94.94,0,0,1,0,.25v.22a.9.9,0,0,1,0,.24c0,.07,0,.1-.06.1a2.86,2.86,0,0,1-1-.13.66.66,0,0,1-.41-.42.93.93,0,0,1-.54.42,3,3,0,0,1-1,.13s0,0-.06-.1a.88.88,0,0,1,0-.24v-.22a.78.78,0,0,1,0-.24c0-.07,0-.11.06-.11a2.6,2.6,0,0,0,1.19-.2l-.15-1.59.72-.07.1,1.7a.89.89,0,0,0,.38.13,6.24,6.24,0,0,0,.71,0S560.87,391.52,560.89,391.58Zm-2.38,1.76.62.52-.53.62L558,394Zm1.2,0,.63.52-.53.62-.62-.52Z"/><path class="cls-3" d="M564.06,390.16a2.19,2.19,0,0,1,.32,1.2,3,3,0,0,1-.11.81.64.64,0,0,1-.1.22,1.13,1.13,0,0,1-.22.22.6.6,0,0,1-.36.18.49.49,0,0,1-.2-.05l-1.48-.69a.9.9,0,0,1-.35.25,1.48,1.48,0,0,1-.57.09h-.16s0,0-.06-.1a.9.9,0,0,1,0-.24v-.22a.82.82,0,0,1,0-.24c0-.07,0-.11.06-.11h.28a1.35,1.35,0,0,0,.34,0,.36.36,0,0,0,.2-.15,2.35,2.35,0,0,0,.22-.43,3.16,3.16,0,0,1,.54-.88.94.94,0,0,1,.74-.33A1,1,0,0,1,564.06,390.16Zm-.27,1.28a1.27,1.27,0,0,0-.18-.69.59.59,0,0,0-.54-.3.55.55,0,0,0-.42.24,3,3,0,0,0-.38.69l1.43.64A1.64,1.64,0,0,0,563.79,391.44Z"/><path class="cls-3" d="M565.81,393.93a6.62,6.62,0,0,0,1.43-.82,2.08,2.08,0,0,0,.67-.82l-.26-2.34.71-.18c0,.22,0,.36,0,.43,0,.41.08.78.11,1.1s0,.57,0,.75a2,2,0,0,1-.55,1.39,5.38,5.38,0,0,1-1.75,1.21Zm2.49-5.84-.57.69-.68-.57.57-.69Z"/><path class="cls-3" d="M570.32,386.57l.06,5.82-.62.09-.16-5.73Z"/><path class="cls-3" d="M577.23,391.58a.9.9,0,0,1,0,.25v.22a.88.88,0,0,1,0,.24c0,.07,0,.1-.05.1H577a1.11,1.11,0,0,1-1.11-.6,1.09,1.09,0,0,1-.09.21.29.29,0,0,1-.11.11,3,3,0,0,1-.75.28,4.11,4.11,0,0,1-.89.1,1.15,1.15,0,0,1-.79-.23,1,1,0,0,1-.27-.83c0-.18,0-.31,0-.41l.56,0v.19a.38.38,0,0,0,.06.25.22.22,0,0,0,.17.09l.44,0a3.44,3.44,0,0,0,.77-.09,1.87,1.87,0,0,0,.63-.25l-.6-2.47.67-.41.49,2.3a2.8,2.8,0,0,0,.16.58.33.33,0,0,0,.24.19,2.74,2.74,0,0,0,.6,0S577.22,391.52,577.23,391.58Z"/><path class="cls-3" d="M581.6,391.58a.9.9,0,0,1,0,.25v.22a.88.88,0,0,1,0,.24c0,.07,0,.1-.05.1h-1.28a1,1,0,0,1-.82-.33,1.41,1.41,0,0,1-1,.33h-1.28s0,0-.06-.1a.88.88,0,0,1,0-.24v-.22a1.44,1.44,0,0,1,0-.24c0-.07,0-.11.07-.11h1.56c-.11-.16-.21-.31-.29-.45l-.4-.61a1.4,1.4,0,0,0-.19-.26.16.16,0,0,0-.12,0l-.19,0,0-.78c1-.11,1.68-.17,2.12-.17a2.59,2.59,0,0,1,1,.15.52.52,0,0,1,.34.52v.24a1.39,1.39,0,0,1-.28.66,3.14,3.14,0,0,1-.57.68,1.32,1.32,0,0,0,.3,0h1S581.59,391.52,581.6,391.58ZM580,390.8a1.78,1.78,0,0,0,.4-.7c-.06-.07-.33-.11-.81-.11l-.62,0-.49,0a.39.39,0,0,1,.15.14c.06.08.16.23.32.48l.47.72A3.24,3.24,0,0,0,580,390.8Z"/><path class="cls-3" d="M583.57,389.52c0,.7,0,1.26,0,1.69a1,1,0,0,1-.49.84,2.67,2.67,0,0,1-.74.26,5,5,0,0,1-.85.08s0,0,0-.1a.88.88,0,0,1,0-.24v-.22a.82.82,0,0,1,0-.24c0-.07,0-.11.06-.11a5.38,5.38,0,0,0,.86-.05,2.08,2.08,0,0,0,.61-.19l-.18-1.84.72-.11Zm-1.27,3.82.69.58-.58.68-.67-.57Z"/><path class="cls-3" d="M587.05,391.45a.57.57,0,0,1,.17.42.57.57,0,0,1-.17.41.56.56,0,0,1-.41.16.61.61,0,0,1-.47-.19.78.78,0,0,1-.19-.56,2.5,2.5,0,0,1,.17-.81,4.27,4.27,0,0,1,.46-.87l.42.4a5.49,5.49,0,0,0-.3.49,1.29,1.29,0,0,0-.16.39h.07A.56.56,0,0,1,587.05,391.45Z"/><path class="cls-3" d="M588.78,392.21a1,1,0,0,1-.34-.81,2.86,2.86,0,0,1,.86-1.72l-.32-.24.42-.63a4.41,4.41,0,0,1,1.36,1.25,3,3,0,0,1,.44,1.46.49.49,0,0,1,0,.25,1,1,0,0,1-.13.25,1.17,1.17,0,0,1-.14.19l-.12.1a3.18,3.18,0,0,1-1.11.16A1.45,1.45,0,0,1,588.78,392.21Zm1.83-.71a1.92,1.92,0,0,0-.84-1.48,2.8,2.8,0,0,0-.5.65,1.27,1.27,0,0,0-.22.59.25.25,0,0,0,.14.26,1.47,1.47,0,0,0,.57.07A3.52,3.52,0,0,0,590.61,391.5Z"/><path class="cls-3" d="M594.44,391.58a.94.94,0,0,1,0,.25v.22a.9.9,0,0,1,0,.24c0,.07,0,.1-.06.1h-.19A1.59,1.59,0,0,1,593,392a1.76,1.76,0,0,1-.38-1.24l-.12-4,.72-.18.07,4.23a.64.64,0,0,0,.7.68h.35S594.42,391.52,594.44,391.58Z"/><path class="cls-3" d="M598.36,391.58a.94.94,0,0,1,0,.25v.22a.9.9,0,0,1,0,.24c0,.07,0,.1-.06.1h-.66a.94.94,0,0,1-.45-.11.75.75,0,0,1-.29-.32,2.22,2.22,0,0,1-.93.33,11.16,11.16,0,0,1-1.59.1s0,0,0-.1a.88.88,0,0,1,0-.24v-.22a.82.82,0,0,1,0-.24c0-.07,0-.11.06-.11.45,0,.88,0,1.29-.05a4,4,0,0,0,.91-.18,2.56,2.56,0,0,0-.56-1.48,6.32,6.32,0,0,0-1.5-1.34l0-.75a16.59,16.59,0,0,1,2.69-1.2l.1.76a20.67,20.67,0,0,0-2,.86l.22.16a5.16,5.16,0,0,1,1.22,1.38,3.49,3.49,0,0,1,.43,1.44.46.46,0,0,0,.15.33.79.79,0,0,0,.4.07h.57S598.34,391.52,598.36,391.58Zm-2.21-5c-.5.22-1,.47-1.6.77l0-.62c.51-.27,1-.51,1.52-.72Z"/><path class="cls-3" d="M605,391.58a1.69,1.69,0,0,1,0,.25v.22a1.66,1.66,0,0,1,0,.24c0,.07,0,.1-.06.1h-.39a1.4,1.4,0,0,1-.6-.12.79.79,0,0,1-.37-.35,1,1,0,0,1-.49.35,1.92,1.92,0,0,1-.69.12.86.86,0,0,1-.87-.47.88.88,0,0,1-.44.35,1.51,1.51,0,0,1-.58.12.82.82,0,0,1-.85-.48,1.57,1.57,0,0,1-1.37.48s0,0-.06-.1a.88.88,0,0,1,0-.24v-.22a.78.78,0,0,1,0-.24c0-.07,0-.11.06-.11a2.32,2.32,0,0,0,1.05-.19l0-1.23.65,0,0,1c0,.19,0,.31.14.36a1,1,0,0,0,.49.08.91.91,0,0,0,.61-.16l0-1.57.66,0,0,1.63a.74.74,0,0,0,.46.12,1.73,1.73,0,0,0,.8-.16L603,389.4l.72-.12.09,1.6a.93.93,0,0,0,.09.39.39.39,0,0,0,.21.17,1.87,1.87,0,0,0,.39,0H605S605,391.52,605,391.58Zm-4.08-2.73-.6-.52.51-.61.61.51Zm.57-1.15-.6-.5.51-.62.61.52Zm0,.62.51-.61.61.51-.51.61Z"/><path class="cls-3" d="M607,389.29l0,.23c0,.7,0,1.26,0,1.69a.93.93,0,0,1-.49.84,2.55,2.55,0,0,1-.74.26,5,5,0,0,1-.84.08s0,0-.06-.1a.88.88,0,0,1,0-.24v-.22a.78.78,0,0,1,0-.24c0-.07,0-.11.06-.11a5.25,5.25,0,0,0,.85-.05,2,2,0,0,0,.61-.19l-.18-1.84Zm-.49-.82-.68-.58.57-.68.69.57Z"/><path class="cls-3" d="M608.89,386.57l.06,5.82-.62.09-.16-5.73Z"/><path class="cls-3" d="M613.32,390a3.1,3.1,0,0,1,.36,1.35,1.2,1.2,0,0,1-.06.4.67.67,0,0,1-.19.31,1.5,1.5,0,0,1-.68.34,4.24,4.24,0,0,1-1.08.12,2.79,2.79,0,0,1-.87-.1.74.74,0,0,1-.42-.37,1.79,1.79,0,0,1-.12-.73V391l.58,0v.12a.6.6,0,0,0,.06.31.3.3,0,0,0,.24.12,3.67,3.67,0,0,0,.57,0,6.2,6.2,0,0,0,.71,0,2.31,2.31,0,0,0,.64-.13,2.17,2.17,0,0,0-.37-1.16,6,6,0,0,0-1-1.19l.48-.63A6,6,0,0,1,613.32,390Z"/><path class="cls-3" d="M616.37,391.81c.07-.44.16-1,.28-1.65l.56.13a20.52,20.52,0,0,0-.31,2.19.55.55,0,0,0,.4.63,2.86,2.86,0,0,0,1,.17,5.5,5.5,0,0,0,1-.09,2.43,2.43,0,0,0,.8-.29l-.31-3,.72-.16c.1,1.18.17,2.22.21,3.09a1.07,1.07,0,0,1-.69,1.05,4.15,4.15,0,0,1-1.8.35,2.08,2.08,0,0,1-1.55-.45,1.48,1.48,0,0,1-.41-1A6.37,6.37,0,0,1,616.37,391.81Zm2.71-3.16-.58.69-.67-.57.56-.68Z"/><path class="cls-3" d="M623.87,391.58a.9.9,0,0,1,0,.25v.22a.88.88,0,0,1,0,.24c0,.07,0,.1,0,.1h-.2a1.59,1.59,0,0,1-1.15-.36,1.76,1.76,0,0,1-.38-1.24l-.12-4,.73-.18.06,4.23a.73.73,0,0,0,.19.5.72.72,0,0,0,.51.18h.36S623.86,391.52,623.87,391.58Z"/><path class="cls-3" d="M625.84,389.52c0,.7,0,1.26,0,1.69a.93.93,0,0,1-.49.84,2.67,2.67,0,0,1-.74.26,5,5,0,0,1-.84.08s0,0-.06-.1a.88.88,0,0,1,0-.24v-.22a1.44,1.44,0,0,1,0-.24c0-.07,0-.11.07-.11a5.32,5.32,0,0,0,.85-.05,2,2,0,0,0,.61-.19l-.18-1.84.72-.11Zm-1.27,3.82.69.58-.58.68L624,394Z"/><path class="cls-3" d="M629.06,391.58a.9.9,0,0,1,0,.25v.22a.88.88,0,0,1,0,.24c0,.07,0,.1,0,.1h-.19a1.57,1.57,0,0,1-1.15-.36,1.76,1.76,0,0,1-.39-1.24l-.12-4,.73-.18.06,4.23a.64.64,0,0,0,.71.68H629S629.05,391.52,629.06,391.58Z"/><path class="cls-3" d="M632,391.58a1.69,1.69,0,0,1,0,.25v.22a1.66,1.66,0,0,1,0,.24c0,.07,0,.1-.06.1a2.83,2.83,0,0,1-1-.13.64.64,0,0,1-.41-.42.93.93,0,0,1-.54.42,3,3,0,0,1-1,.13s0,0-.06-.1a.88.88,0,0,1,0-.24v-.22a1.44,1.44,0,0,1,0-.24c0-.07,0-.11.07-.11a2.63,2.63,0,0,0,1.19-.2l-.15-1.59.72-.07.1,1.7a.89.89,0,0,0,.38.13,6.24,6.24,0,0,0,.71,0S632,391.52,632,391.58Zm-2.39,1.76.63.52-.53.62-.61-.51Zm1.21,0,.62.52-.52.62-.62-.52Z"/><path class="cls-3" d="M636.08,389.81a3.56,3.56,0,0,0,.93.14l-.18.81a2,2,0,0,0-.73.17c-.22.09-.51.24-.86.43l-.27.16a10,10,0,0,1-1.35.64,4.18,4.18,0,0,1-1.44.23H632s0,0-.06-.1a.88.88,0,0,1,0-.24v-.22a.78.78,0,0,1,0-.24c0-.07,0-.11.06-.11h.22a3.72,3.72,0,0,0,1-.14,9.62,9.62,0,0,0,1.11-.37l.61-.28.52-.23.16,0h0a4.24,4.24,0,0,1-1-.31,3.12,3.12,0,0,0-1-.28.32.32,0,0,0-.3.14,1.18,1.18,0,0,0-.14.39l-.56-.09a2.12,2.12,0,0,1,.33-.9.76.76,0,0,1,.67-.31,1.83,1.83,0,0,1,.5.09l.83.28C635.37,389.58,635.76,389.72,636.08,389.81Zm-1.65-1.49-.67-.58.56-.68.69.57Z"/><path class="cls-3" d="M640.38,391.45a.57.57,0,0,1,.16.42.56.56,0,0,1-.16.41.57.57,0,0,1-.41.16.65.65,0,0,1-.48-.19.82.82,0,0,1-.19-.56,2.3,2.3,0,0,1,.18-.81,4.27,4.27,0,0,1,.46-.87l.41.4a5.49,5.49,0,0,0-.3.49,1.56,1.56,0,0,0-.15.39H640A.57.57,0,0,1,640.38,391.45Z"/><path class="cls-3" d="M641.87,391.81c.07-.44.17-1,.28-1.65l.56.13c-.16.91-.27,1.64-.31,2.19a.56.56,0,0,0,.4.63,2.86,2.86,0,0,0,1,.17,5.5,5.5,0,0,0,1-.09,2.34,2.34,0,0,0,.8-.29l-.3-3,.72-.16c.1,1.18.17,2.22.2,3.09a1.07,1.07,0,0,1-.69,1.05,4.15,4.15,0,0,1-1.8.35,2.09,2.09,0,0,1-1.55-.45,1.53,1.53,0,0,1-.41-1A6.37,6.37,0,0,1,641.87,391.81Zm2.71-3.16-.57.69-.68-.57.57-.68Z"/><path class="cls-3" d="M649.38,391.58a1.69,1.69,0,0,1,0,.25v.22a1.66,1.66,0,0,1,0,.24c0,.07,0,.1-.06.1h-.19A1.57,1.57,0,0,1,648,392a1.81,1.81,0,0,1-.39-1.24l-.12-4,.73-.18.06,4.23a.65.65,0,0,0,.71.68h.35S649.36,391.52,649.38,391.58Z"/><path class="cls-3" d="M656,391.58a.9.9,0,0,1,0,.25v.22a.88.88,0,0,1,0,.24c0,.07,0,.1,0,.1h-.39a1.4,1.4,0,0,1-.6-.12.79.79,0,0,1-.37-.35,1,1,0,0,1-.49.35,1.92,1.92,0,0,1-.69.12.86.86,0,0,1-.87-.47.92.92,0,0,1-.44.35,1.54,1.54,0,0,1-.58.12.81.81,0,0,1-.85-.48,1.58,1.58,0,0,1-1.37.48s0,0-.06-.1a.88.88,0,0,1,0-.24v-.22a.78.78,0,0,1,0-.24c0-.07,0-.11.06-.11a2.32,2.32,0,0,0,1-.19v-1.23l.66,0,0,1c0,.19,0,.31.14.36a1,1,0,0,0,.49.08.93.93,0,0,0,.61-.16l0-1.57.67,0,0,1.63a.72.72,0,0,0,.46.12,1.76,1.76,0,0,0,.8-.16L654,389.4l.72-.12.09,1.6a.93.93,0,0,0,.09.39.39.39,0,0,0,.21.17,1.79,1.79,0,0,0,.39,0H656S656,391.52,656,391.58Z"/><path class="cls-3" d="M656.35,393.34l.63.52-.53.62-.61-.51Zm-.44-1a.88.88,0,0,1,0-.24v-.22a1.44,1.44,0,0,1,0-.24c0-.07,0-.11.07-.11a5.32,5.32,0,0,0,.85-.05,2,2,0,0,0,.61-.19l-.18-1.84.73-.11v.23c0,.7,0,1.26,0,1.69a.93.93,0,0,1-.49.84,2.67,2.67,0,0,1-.74.26,5,5,0,0,1-.84.08S655.93,392.36,655.91,392.29Zm2.27,1.56-.52.62L657,394l.52-.62Z"/><path class="cls-3" d="M662.17,390a3.1,3.1,0,0,1,.36,1.35,1.2,1.2,0,0,1-.06.4.77.77,0,0,1-.19.31,1.55,1.55,0,0,1-.68.34,4.24,4.24,0,0,1-1.08.12,2.82,2.82,0,0,1-.88-.1.74.74,0,0,1-.42-.37,1.79,1.79,0,0,1-.12-.73c0-.14,0-.24,0-.32l.58,0v.12a.6.6,0,0,0,.06.31.28.28,0,0,0,.23.12,3.82,3.82,0,0,0,.58,0,6.32,6.32,0,0,0,.71,0,.66.66,0,1,0,.27-1.29,6,6,0,0,0-1-1.19l.47-.63A5.86,5.86,0,0,1,662.17,390Z"/><path class="cls-3" d="M666.19,391.58a.9.9,0,0,1,0,.25v.22a.88.88,0,0,1,0,.24c0,.07,0,.1-.05.1h-.23a1.22,1.22,0,0,1-1-.38v0a2,2,0,0,1-.55,1.39,5.38,5.38,0,0,1-1.75,1.21l-.44-.72a6.62,6.62,0,0,0,1.43-.82,2.17,2.17,0,0,0,.67-.82L664,390l.71-.18.11,1.09a.74.74,0,0,0,.17.43.55.55,0,0,0,.34.16,4.33,4.33,0,0,0,.6,0h.2S666.18,391.52,666.19,391.58Z"/><path class="cls-3" d="M666.57,394.39l-.61-.51.51-.62.62.52Zm-.49-2.1a.88.88,0,0,1,0-.24v-.22a1.44,1.44,0,0,1,0-.24c0-.07,0-.11.07-.11a5.32,5.32,0,0,0,.85-.05,2.08,2.08,0,0,0,.61-.19l-.18-1.84.72-.11,0,.23c0,.7.05,1.26.05,1.69a1,1,0,0,1-.49.84,2.67,2.67,0,0,1-.74.26,5,5,0,0,1-.84.08S666.09,392.36,666.08,392.29Zm1,2.1.62.51-.51.61-.61-.51Zm1.21-.62-.51.61-.61-.51.51-.62Z"/><path class="cls-3" d="M556.58,413.72l-.12.45a.27.27,0,0,1-.29.22h-.29a.23.23,0,0,1-.26-.26v-6.48a.23.23,0,0,1,.26-.26h.5a.23.23,0,0,1,.26.26v2.08a1,1,0,0,1,1-.63q1.11,0,1.11,1.44v2.52q0,1.44-1.11,1.44A1.08,1.08,0,0,1,556.58,413.72Zm1.16-3.11c0-.47-.15-.64-.5-.64a.65.65,0,0,0-.6.71v2.24a.65.65,0,0,0,.6.71c.35,0,.5-.17.5-.64Z"/><path class="cls-3" d="M559.32,413.15v-.08a1.44,1.44,0,0,1,.46-1.18,3.14,3.14,0,0,1,.89-.53l.4-.19a.66.66,0,0,0,.37-.5v-.06c0-.43-.17-.65-.52-.65s-.53.22-.53.65v.12a.23.23,0,0,1-.26.26h-.43a.24.24,0,0,1-.26-.27c0-1.08.51-1.62,1.52-1.62s1.5.55,1.5,1.64v2a11.36,11.36,0,0,0,.06,1.41c0,.19,0,.28-.23.28h-.46a.25.25,0,0,1-.29-.22,2.37,2.37,0,0,1-.06-.41,1.08,1.08,0,0,1-1.05.74Q559.32,414.5,559.32,413.15Zm2.12-.22v-1.09l-.23.11a2.43,2.43,0,0,0-.6.35.79.79,0,0,0-.28.67V413c0,.45.17.6.5.6A.65.65,0,0,0,561.44,412.93Z"/><path class="cls-3" d="M563.09,412.93a.23.23,0,0,1,.26-.26h.42a.23.23,0,0,1,.26.26v.1c0,.44.18.66.53.66s.54-.21.54-.62V413c0-.36-.23-.5-.76-.73a2.62,2.62,0,0,1-.83-.5,1.43,1.43,0,0,1-.42-1.15v0a1.34,1.34,0,0,1,1.52-1.48,1.33,1.33,0,0,1,1.5,1.51.23.23,0,0,1-.26.26h-.42a.23.23,0,0,1-.26-.26v0c0-.44-.18-.66-.53-.66s-.54.21-.54.62v.06a.56.56,0,0,0,.23.47,2.54,2.54,0,0,0,.53.28,2.47,2.47,0,0,1,.68.37,1.42,1.42,0,0,1,.57,1.27v0a1.34,1.34,0,0,1-1.51,1.49C563.59,414.5,563.09,414,563.09,412.93Z"/><path class="cls-3" d="M566.62,413.15v-.08a1.44,1.44,0,0,1,.46-1.18,3.14,3.14,0,0,1,.89-.53l.4-.19a.66.66,0,0,0,.37-.5v-.06c0-.43-.17-.65-.52-.65s-.53.22-.53.65v.12a.23.23,0,0,1-.26.26H567a.24.24,0,0,1-.26-.27c0-1.08.51-1.62,1.52-1.62s1.5.55,1.5,1.64v2a11.36,11.36,0,0,0,.06,1.41c0,.19,0,.28-.23.28h-.46a.25.25,0,0,1-.29-.22,2.37,2.37,0,0,1-.06-.41,1.08,1.08,0,0,1-1,.74Q566.62,414.5,566.62,413.15Zm2.12-.22v-1.09l-.23.11a2.43,2.43,0,0,0-.6.35.79.79,0,0,0-.28.67V413c0,.45.17.6.5.6A.65.65,0,0,0,568.74,412.93Z"/><path class="cls-3" d="M571.55,414.13a.23.23,0,0,1-.26.26h-.5a.23.23,0,0,1-.26-.26v-6.48a.23.23,0,0,1,.26-.26h.5a.23.23,0,0,1,.26.26Z"/><path class="cls-3" d="M572.2,413.15v-.08a1.44,1.44,0,0,1,.46-1.18,3.14,3.14,0,0,1,.89-.53l.4-.19a.66.66,0,0,0,.37-.5v-.06c0-.43-.17-.65-.52-.65s-.53.22-.53.65v.12a.23.23,0,0,1-.26.26h-.43a.24.24,0,0,1-.26-.27c0-1.08.51-1.62,1.52-1.62s1.5.55,1.5,1.64v2a11.36,11.36,0,0,0,.06,1.41c0,.19,0,.28-.23.28h-.46a.25.25,0,0,1-.29-.22,2.37,2.37,0,0,1-.06-.41,1.08,1.08,0,0,1-1.05.74Q572.2,414.5,572.2,413.15Zm2.12-.22v-1.09l-.23.11a2.43,2.43,0,0,0-.6.35.79.79,0,0,0-.28.67V413c0,.45.17.6.5.6A.65.65,0,0,0,574.32,412.93Z"/><path class="cls-3" d="M576.37,414.39a.23.23,0,0,1-.26-.26v-4.66a.23.23,0,0,1,.26-.26h.43a.23.23,0,0,1,.26.26v.43a1.06,1.06,0,0,1,1.05-.8.92.92,0,0,1,1,.76,1.09,1.09,0,0,1,1.06-.76q1.08,0,1.08,1.44v3.59a.23.23,0,0,1-.26.26h-.5a.23.23,0,0,1-.26-.26v-3.52c0-.48-.14-.64-.47-.64s-.57.3-.57.71v3.45a.23.23,0,0,1-.26.26h-.49a.23.23,0,0,1-.26-.26v-3.52c0-.48-.14-.64-.47-.64s-.57.3-.57.71v3.45a.23.23,0,0,1-.26.26Z"/><path class="cls-3" d="M582.29,414.39a.23.23,0,0,1-.26-.26v-1a.23.23,0,0,1,.26-.26h.5a.23.23,0,0,1,.26.26v1a.23.23,0,0,1-.26.26Z"/><path class="cls-3" d="M583.81,410.75q0-1.65,1.53-1.65t1.53,1.65V411c0,.14-.09.21-.26.21h-.42a.23.23,0,0,1-.26-.26v-.3c0-.43-.18-.64-.55-.64s-.56.21-.56.64V413c0,.43.19.64.56.64s.55-.21.55-.64v-.4a.23.23,0,0,1,.26-.26h.42a.23.23,0,0,1,.26.26v.26q0,1.65-1.53,1.65t-1.53-1.65Z"/><path class="cls-3" d="M587.46,412.85v-2.1c0-1.1.52-1.65,1.57-1.65s1.56.55,1.56,1.65v2.1q0,1.65-1.56,1.65C588,414.5,587.46,414,587.46,412.85Zm2.12.14v-2.38c0-.43-.18-.64-.55-.64s-.56.21-.56.64V413c0,.43.19.64.56.64S589.58,413.42,589.58,413Z"/><path class="cls-3" d="M591.58,414.39a.23.23,0,0,1-.26-.26v-4.66a.23.23,0,0,1,.26-.26H592a.23.23,0,0,1,.26.26v.43a1.06,1.06,0,0,1,1.05-.8.92.92,0,0,1,1,.76,1.09,1.09,0,0,1,1.06-.76c.71,0,1.08.48,1.08,1.44v3.59a.23.23,0,0,1-.26.26h-.5a.23.23,0,0,1-.26-.26v-3.52c0-.48-.14-.64-.47-.64s-.57.3-.57.71v3.45a.23.23,0,0,1-.26.26h-.49a.23.23,0,0,1-.26-.26v-3.52c0-.48-.14-.64-.47-.64s-.57.3-.57.71v3.45a.23.23,0,0,1-.26.26Z"/><path class="cls-3" d="M490.74,432v-1.14h5.37V432h-2v5.41h-1.37V432Z"/><path class="cls-3" d="M504.25,437.48a1.91,1.91,0,0,1-1.23-.4,2.34,2.34,0,0,1-.77-1.14,6.27,6.27,0,0,1,0-3.64,2.5,2.5,0,0,1,.78-1.15,2.08,2.08,0,0,1,2.45,0,2.5,2.5,0,0,1,.78,1.15,6.27,6.27,0,0,1,0,3.64,2.42,2.42,0,0,1-.78,1.14A1.91,1.91,0,0,1,504.25,437.48Zm0-.7a1.24,1.24,0,0,0,1.12-.69,4.09,4.09,0,0,0,.39-2,5.08,5.08,0,0,0-.18-1.45,2,2,0,0,0-.52-.91,1.13,1.13,0,0,0-.81-.32,1.25,1.25,0,0,0-1.11.7,4.13,4.13,0,0,0-.4,2,5.05,5.05,0,0,0,.18,1.44,2,2,0,0,0,.52.91A1.19,1.19,0,0,0,504.25,436.78Z"/><path class="cls-3" d="M507.73,437.39v-.58l2.16-2.36c.25-.28.46-.52.62-.72a2.46,2.46,0,0,0,.37-.59,1.39,1.39,0,0,0,.12-.57,1.08,1.08,0,0,0-.17-.6,1.07,1.07,0,0,0-.45-.39,1.42,1.42,0,0,0-.63-.14,1.37,1.37,0,0,0-.66.16,1,1,0,0,0-.43.43,1.4,1.4,0,0,0-.16.66h-.75a1.89,1.89,0,0,1,.27-1,1.79,1.79,0,0,1,.72-.67,2.21,2.21,0,0,1,1-.25,2.14,2.14,0,0,1,1,.25,1.83,1.83,0,0,1,.7.65,1.72,1.72,0,0,1,.25.92,1.85,1.85,0,0,1-.13.7,3,3,0,0,1-.45.77,11.88,11.88,0,0,1-.88,1l-1.47,1.58v.05h3v.7Z"/><path class="cls-3" d="M515.2,437.48a2.34,2.34,0,0,1-1-.22,1.85,1.85,0,0,1-.73-.62,1.6,1.6,0,0,1-.29-.89h.76a1.07,1.07,0,0,0,.41.74,1.33,1.33,0,0,0,.86.29,1.43,1.43,0,0,0,.72-.19,1.36,1.36,0,0,0,.49-.52,1.54,1.54,0,0,0,.18-.75,1.62,1.62,0,0,0-.18-.77,1.47,1.47,0,0,0-.52-.53,1.41,1.41,0,0,0-.74-.2,2.27,2.27,0,0,0-.62.09,2.3,2.3,0,0,0-.52.24l-.74-.09.39-3.22h3.41v.71h-2.74l-.23,1.93h0a1.58,1.58,0,0,1,.5-.27,2,2,0,0,1,.64-.1,2,2,0,0,1,1.07.28,2.06,2.06,0,0,1,.74.78,2.34,2.34,0,0,1,.27,1.14,2.16,2.16,0,0,1-.28,1.11,2.06,2.06,0,0,1-.77.78A2.29,2.29,0,0,1,515.2,437.48Z"/><path class="cls-3" d="M521.43,433.77v.7h-2.86v-.7Z"/><path class="cls-3" d="M524.81,430.75a2.59,2.59,0,0,1,.81.16,1.92,1.92,0,0,1,.73.49,2.55,2.55,0,0,1,.54,1,4.91,4.91,0,0,1,.2,1.5,6.08,6.08,0,0,1-.17,1.55,3.29,3.29,0,0,1-.47,1.14,2,2,0,0,1-1.74.94,2.11,2.11,0,0,1-1-.22,2,2,0,0,1-.7-.61,2.09,2.09,0,0,1-.35-.91h.78a1.4,1.4,0,0,0,.42.74,1.16,1.16,0,0,0,.83.3,1.35,1.35,0,0,0,1.2-.67,3.38,3.38,0,0,0,.44-1.87h-.05a1.93,1.93,0,0,1-.43.47,1.78,1.78,0,0,1-.54.3,2,2,0,0,1-.64.1,2,2,0,0,1-1.78-1.05,2.17,2.17,0,0,1-.28-1.12,2.27,2.27,0,0,1,.27-1.1,2.08,2.08,0,0,1,.76-.8A2.16,2.16,0,0,1,524.81,430.75Zm0,.71a1.28,1.28,0,0,0-.72.2,1.52,1.52,0,0,0-.51.53,1.6,1.6,0,0,0-.18.75,1.53,1.53,0,0,0,.18.74,1.32,1.32,0,0,0,.49.53,1.26,1.26,0,0,0,.72.2,1.31,1.31,0,0,0,.56-.12,1.39,1.39,0,0,0,.46-.33,1.52,1.52,0,0,0,.31-.48,1.29,1.29,0,0,0,.11-.55,1.48,1.48,0,0,0-.18-.72,1.33,1.33,0,0,0-.51-.54A1.28,1.28,0,0,0,524.81,431.46Z"/><path class="cls-3" d="M530.62,430.84v6.55h-.79v-5.72h0l-1.59,1.07v-.81l1.63-1.09Z"/><path class="cls-3" d="M534.62,437.48a1.91,1.91,0,0,1-1.23-.4,2.34,2.34,0,0,1-.77-1.14,6.27,6.27,0,0,1,0-3.64,2.5,2.5,0,0,1,.78-1.15,1.94,1.94,0,0,1,1.22-.4,2,2,0,0,1,1.23.4,2.5,2.5,0,0,1,.78,1.15,6.27,6.27,0,0,1,0,3.64,2.42,2.42,0,0,1-.78,1.14A1.91,1.91,0,0,1,534.62,437.48Zm0-.7a1.22,1.22,0,0,0,1.11-.69,4,4,0,0,0,.4-2,5.08,5.08,0,0,0-.18-1.45,2,2,0,0,0-.52-.91,1.13,1.13,0,0,0-.81-.32,1.25,1.25,0,0,0-1.11.7,4.13,4.13,0,0,0-.4,2,5.05,5.05,0,0,0,.18,1.44,2,2,0,0,0,.52.91A1.17,1.17,0,0,0,534.62,436.78Z"/><path class="cls-3" d="M540.23,437.48a1.91,1.91,0,0,1-1.23-.4,2.42,2.42,0,0,1-.78-1.14,6.27,6.27,0,0,1,0-3.64,2.5,2.5,0,0,1,.78-1.15,2,2,0,0,1,1.23-.4,1.94,1.94,0,0,1,1.22.4,2.5,2.5,0,0,1,.78,1.15,6.38,6.38,0,0,1,0,3.64,2.42,2.42,0,0,1-.78,1.14A1.91,1.91,0,0,1,540.23,437.48Zm0-.7a1.22,1.22,0,0,0,1.11-.69,4.08,4.08,0,0,0,.4-2,5.08,5.08,0,0,0-.18-1.45,2,2,0,0,0-.52-.91,1.17,1.17,0,0,0-.81-.32,1.25,1.25,0,0,0-1.11.7,4,4,0,0,0-.4,2,5.05,5.05,0,0,0,.18,1.44,2,2,0,0,0,.52.91A1.17,1.17,0,0,0,540.23,436.78Z"/><path class="cls-3" d="M545.91,437.48a2.67,2.67,0,0,1-1.12-.22,2,2,0,0,1-.79-.6,1.66,1.66,0,0,1-.31-.91h.8a1,1,0,0,0,.22.55,1.29,1.29,0,0,0,.5.35,1.93,1.93,0,0,0,.69.13,1.79,1.79,0,0,0,.75-.15,1.24,1.24,0,0,0,.51-.41,1.07,1.07,0,0,0,.18-.61,1.16,1.16,0,0,0-.17-.64,1.28,1.28,0,0,0-.53-.43,2.1,2.1,0,0,0-.84-.15h-.53v-.71h.53a1.45,1.45,0,0,0,.68-.14,1.2,1.2,0,0,0,.47-.39,1.13,1.13,0,0,0,.16-.61A1,1,0,0,0,547,432a1,1,0,0,0-.42-.39,1.32,1.32,0,0,0-.62-.14,1.7,1.7,0,0,0-.64.13,1.26,1.26,0,0,0-.49.35.91.91,0,0,0-.2.56h-.77a1.58,1.58,0,0,1,.31-.9,2,2,0,0,1,.76-.61,2.55,2.55,0,0,1,1-.22,2.13,2.13,0,0,1,1,.25,1.8,1.8,0,0,1,.67.64,1.77,1.77,0,0,1,.23.87,1.5,1.5,0,0,1-.29.94,1.46,1.46,0,0,1-.78.54V434a1.53,1.53,0,0,1,1,.53,1.75,1.75,0,0,1,.05,2,2,2,0,0,1-.78.67A2.61,2.61,0,0,1,545.91,437.48Z"/><path class="cls-3" d="M551.71,430.84v6.55h-.79v-5.72h0l-1.6,1.07v-.81l1.64-1.09Z"/><path class="cls-3" d="M553.78,437.39l2.92-5.79v-.05h-3.37v-.71h4.19v.75l-2.91,5.8Z"/><path class="cls-3" d="M560.65,437.48a2.34,2.34,0,0,1-1-.22,2,2,0,0,1-.73-.62,1.6,1.6,0,0,1-.29-.89h.76a1.07,1.07,0,0,0,.41.74,1.35,1.35,0,0,0,.86.29,1.43,1.43,0,0,0,.72-.19,1.36,1.36,0,0,0,.49-.52,1.54,1.54,0,0,0,.18-.75,1.62,1.62,0,0,0-.18-.77,1.47,1.47,0,0,0-.52-.53,1.39,1.39,0,0,0-.74-.2,2.27,2.27,0,0,0-.62.09,2.3,2.3,0,0,0-.52.24l-.74-.09.4-3.22h3.4v.71h-2.74l-.23,1.93h0a1.58,1.58,0,0,1,.5-.27,2,2,0,0,1,.64-.1,2,2,0,0,1,1.07.28,2.06,2.06,0,0,1,.74.78,2.34,2.34,0,0,1,.27,1.14,2.16,2.16,0,0,1-.28,1.11,2.06,2.06,0,0,1-.77.78A2.23,2.23,0,0,1,560.65,437.48Z"/><path class="cls-3" d="M571.49,437.39v-6.55h4.41V432h-3v1.56h2.8v1.15h-2.8v1.56h3v1.14Z"/><path class="cls-3" d="M582.52,431.66a.52.52,0,0,1-.38-.15.49.49,0,0,1,0-.72.52.52,0,0,1,.38-.15.51.51,0,0,1,.37.15.49.49,0,0,1,0,.72A.51.51,0,0,1,582.52,431.66Zm-.39,5.73v-4.91h.76v4.91Z"/><path class="cls-3" d="M585,434.44v2.95h-.75v-4.91H585v.77H585a1.44,1.44,0,0,1,.52-.6,1.6,1.6,0,0,1,.91-.23,1.72,1.72,0,0,1,.87.2,1.39,1.39,0,0,1,.59.61,2.3,2.3,0,0,1,.2,1v3.12h-.75v-3.07a1.27,1.27,0,0,0-.3-.9,1.07,1.07,0,0,0-.83-.33,1.35,1.35,0,0,0-.64.16,1,1,0,0,0-.44.46A1.49,1.49,0,0,0,585,434.44Z"/><path class="cls-3" d="M591.68,432.48v.64H589v-.64Zm-1.85,4.91V431.8a1.2,1.2,0,0,1,.2-.7,1.16,1.16,0,0,1,.51-.42,1.55,1.55,0,0,1,.67-.14,1.82,1.82,0,0,1,.45,0l.27.08-.22.66-.16-.05a.93.93,0,0,0-.26,0,.67.67,0,0,0-.54.19.8.8,0,0,0-.17.55v5.41Z"/><path class="cls-3" d="M594.52,437.49a2.15,2.15,0,0,1-1.17-.31,2.25,2.25,0,0,1-.78-.89,3.07,3.07,0,0,1-.28-1.33,3.11,3.11,0,0,1,.28-1.34,2.19,2.19,0,0,1,.78-.89,2.15,2.15,0,0,1,1.17-.31,2,2,0,0,1,1.94,1.2,3,3,0,0,1,.28,1.34,2.93,2.93,0,0,1-.28,1.33,2.18,2.18,0,0,1-.78.89A2.12,2.12,0,0,1,594.52,437.49Zm0-.68a1.32,1.32,0,0,0,.83-.25,1.49,1.49,0,0,0,.48-.69A2.67,2.67,0,0,0,596,435a2.78,2.78,0,0,0-.16-.92,1.46,1.46,0,0,0-.48-.68,1.27,1.27,0,0,0-.83-.27,1.24,1.24,0,0,0-.83.27,1.55,1.55,0,0,0-.49.68,2.77,2.77,0,0,0-.15.92,2.67,2.67,0,0,0,.15.91,1.58,1.58,0,0,0,.49.69A1.28,1.28,0,0,0,594.52,436.81Z"/><path class="cls-3" d="M601.64,439.11a5.06,5.06,0,0,1-1.72-.26,3.23,3.23,0,0,1-1.27-.79,3.19,3.19,0,0,1-.77-1.27,5.3,5.3,0,0,1-.26-1.71,5.11,5.11,0,0,1,.26-1.68,3.4,3.4,0,0,1,.78-1.25,3.26,3.26,0,0,1,1.24-.79,4.76,4.76,0,0,1,1.65-.27,3.88,3.88,0,0,1,1.58.29,3.19,3.19,0,0,1,1.13.79,3.3,3.3,0,0,1,.68,1.12,3.44,3.44,0,0,1,.23,1.27c0,.31,0,.63,0,.94a3.43,3.43,0,0,1-.19.88,1.47,1.47,0,0,1-.44.64,1.26,1.26,0,0,1-.81.24,1.81,1.81,0,0,1-.49-.07,1.34,1.34,0,0,1-.48-.23.63.63,0,0,1-.24-.44h0a1.1,1.1,0,0,1-.24.35,1.13,1.13,0,0,1-.41.27,1.87,1.87,0,0,1-1.35-.1,1.59,1.59,0,0,1-.53-.47,2.19,2.19,0,0,1-.32-.69,3.22,3.22,0,0,1-.11-.84,2.47,2.47,0,0,1,.13-.79,2.16,2.16,0,0,1,.36-.63,1.82,1.82,0,0,1,.53-.43,1.93,1.93,0,0,1,.67-.2,1.82,1.82,0,0,1,.58,0,1.33,1.33,0,0,1,.43.17.52.52,0,0,1,.22.26h0v-.36h.67V436a.81.81,0,0,0,.15.48.54.54,0,0,0,.44.2.58.58,0,0,0,.5-.22,1.39,1.39,0,0,0,.24-.69,7.89,7.89,0,0,0,.07-1.2,3,3,0,0,0-.12-.84,2.93,2.93,0,0,0-.35-.79,2.74,2.74,0,0,0-.59-.64,2.78,2.78,0,0,0-.84-.43,3.38,3.38,0,0,0-1.09-.16,3.82,3.82,0,0,0-1.35.23,2.67,2.67,0,0,0-1,.67,2.91,2.91,0,0,0-.63,1.08,4.25,4.25,0,0,0-.22,1.43,4.33,4.33,0,0,0,.22,1.45,2.67,2.67,0,0,0,1.69,1.73,4.19,4.19,0,0,0,1.44.22,3.17,3.17,0,0,0,.69-.07,6.22,6.22,0,0,0,.61-.14l.37-.12.18.59a3.94,3.94,0,0,1-.51.16,6.8,6.8,0,0,1-.68.14A4.15,4.15,0,0,1,601.64,439.11Zm-.37-2.54a1.32,1.32,0,0,0,.7-.17,1,1,0,0,0,.38-.52,2.72,2.72,0,0,0,.13-.88,2.09,2.09,0,0,0-.14-.84.79.79,0,0,0-.4-.42,1.52,1.52,0,0,0-.64-.12,1,1,0,0,0-.62.19,1.33,1.33,0,0,0-.4.5,1.73,1.73,0,0,0-.13.69,2.43,2.43,0,0,0,.11.77,1.26,1.26,0,0,0,.35.58A1,1,0,0,0,601.27,436.57Z"/><path class="cls-3" d="M606.38,437.39v-6.55h.76v2.42h.06l.23-.33a1.44,1.44,0,0,1,.43-.36,1.63,1.63,0,0,1,.76-.15,1.91,1.91,0,0,1,1.09.31,2,2,0,0,1,.74.87,3.51,3.51,0,0,1,0,2.7,2.13,2.13,0,0,1-.73.88,1.93,1.93,0,0,1-1.09.31,1.47,1.47,0,0,1-.75-.16,1.24,1.24,0,0,1-.44-.36c-.11-.13-.18-.25-.24-.33h-.09v.75Zm.74-2.45a2.63,2.63,0,0,0,.17,1,1.45,1.45,0,0,0,.47.67,1.3,1.3,0,0,0,.77.23,1.21,1.21,0,0,0,.79-.25,1.52,1.52,0,0,0,.48-.67,2.67,2.67,0,0,0,.16-.95,2.54,2.54,0,0,0-.16-.94,1.4,1.4,0,0,0-.47-.66,1.29,1.29,0,0,0-.8-.25,1.22,1.22,0,0,0-.77.24,1.38,1.38,0,0,0-.48.64A2.86,2.86,0,0,0,607.12,434.94Z"/><path class="cls-3" d="M613.29,437.5a2.07,2.07,0,0,1-.84-.17,1.39,1.39,0,0,1-.83-1.33,1.28,1.28,0,0,1,.16-.69,1.18,1.18,0,0,1,.45-.41,2.34,2.34,0,0,1,.61-.23c.23-.05.45-.09.68-.12l.73-.09a1.11,1.11,0,0,0,.41-.1.26.26,0,0,0,.13-.26v0a1,1,0,0,0-.26-.74,1.06,1.06,0,0,0-.78-.26,1.31,1.31,0,0,0-.84.24,1.44,1.44,0,0,0-.44.5l-.71-.25a1.79,1.79,0,0,1,.51-.7,1.82,1.82,0,0,1,.71-.35,2.76,2.76,0,0,1,.75-.1,3.74,3.74,0,0,1,.54.05,1.91,1.91,0,0,1,.6.23,1.43,1.43,0,0,1,.48.52,1.92,1.92,0,0,1,.19.93v3.24h-.75v-.67h0a1.65,1.65,0,0,1-.25.35,1.59,1.59,0,0,1-.48.31A2,2,0,0,1,613.29,437.5Zm.12-.67a1.44,1.44,0,0,0,.75-.18,1.2,1.2,0,0,0,.47-.45,1.14,1.14,0,0,0,.16-.59v-.69a.49.49,0,0,1-.21.11l-.37.08-.41.05-.31,0a3,3,0,0,0-.55.13.89.89,0,0,0-.41.25.61.61,0,0,0-.16.45.68.68,0,0,0,.3.6A1.29,1.29,0,0,0,613.41,436.83Z"/><path class="cls-3" d="M620.38,433.58l-.67.19a1.86,1.86,0,0,0-.19-.33.85.85,0,0,0-.34-.27,1.21,1.21,0,0,0-.54-.1,1.29,1.29,0,0,0-.74.2.63.63,0,0,0-.3.53.56.56,0,0,0,.2.44,1.68,1.68,0,0,0,.64.27l.73.18a2.05,2.05,0,0,1,1,.49,1.13,1.13,0,0,1,.32.84,1.29,1.29,0,0,1-.24.76,1.62,1.62,0,0,1-.67.52,2.41,2.41,0,0,1-1,.19,2.27,2.27,0,0,1-1.25-.32,1.46,1.46,0,0,1-.62-1l.71-.18a1,1,0,0,0,.39.6,1.3,1.3,0,0,0,.75.2,1.42,1.42,0,0,0,.84-.23.65.65,0,0,0,.31-.54.58.58,0,0,0-.18-.43,1.13,1.13,0,0,0-.55-.26l-.81-.19a1.92,1.92,0,0,1-1-.5,1.26,1.26,0,0,1-.08-1.58,1.54,1.54,0,0,1,.64-.5,2.25,2.25,0,0,1,.92-.18,1.81,1.81,0,0,1,1.15.32A1.64,1.64,0,0,1,620.38,433.58Z"/><path class="cls-3" d="M623,437.5a2.11,2.11,0,0,1-.85-.17,1.43,1.43,0,0,1-.83-1.33,1.28,1.28,0,0,1,.17-.69,1.15,1.15,0,0,1,.44-.41,2.41,2.41,0,0,1,.62-.23c.22-.05.45-.09.68-.12l.72-.09a1.05,1.05,0,0,0,.41-.1.26.26,0,0,0,.13-.26v0a1,1,0,0,0-.25-.74,1.1,1.1,0,0,0-.78-.26,1.36,1.36,0,0,0-.85.24,1.41,1.41,0,0,0-.43.5l-.72-.25a1.78,1.78,0,0,1,1.22-1.05,2.76,2.76,0,0,1,.75-.1,4,4,0,0,1,.55.05,2,2,0,0,1,.59.23,1.37,1.37,0,0,1,.49.52,2,2,0,0,1,.19.93v3.24h-.76v-.67h0a1.74,1.74,0,0,1-.26.35,1.59,1.59,0,0,1-.48.31A1.94,1.94,0,0,1,623,437.5Zm.11-.67a1.5,1.5,0,0,0,.76-.18,1.36,1.36,0,0,0,.47-.45,1.23,1.23,0,0,0,.15-.59v-.69a.49.49,0,0,1-.21.11l-.37.08-.4.05-.32,0a3,3,0,0,0-.55.13,1,1,0,0,0-.41.25.64.64,0,0,0-.15.45.67.67,0,0,0,.29.6A1.29,1.29,0,0,0,623.15,436.83Z"/><path class="cls-3" d="M627.4,430.84v6.55h-.75v-6.55Z"/><path class="cls-3" d="M630.21,437.5a2.15,2.15,0,0,1-.85-.17,1.44,1.44,0,0,1-.6-.52,1.42,1.42,0,0,1-.22-.81,1.28,1.28,0,0,1,.16-.69,1.11,1.11,0,0,1,.45-.41,2.34,2.34,0,0,1,.61-.23c.23-.05.45-.09.68-.12l.73-.09a1.16,1.16,0,0,0,.41-.1.28.28,0,0,0,.13-.26v0a1,1,0,0,0-.26-.74,1.06,1.06,0,0,0-.78-.26,1.36,1.36,0,0,0-.85.24,1.52,1.52,0,0,0-.43.5l-.71-.25a1.7,1.7,0,0,1,.51-.7,1.78,1.78,0,0,1,.7-.35,2.89,2.89,0,0,1,.76-.1,3.86,3.86,0,0,1,.54.05,1.91,1.91,0,0,1,.6.23,1.43,1.43,0,0,1,.48.52,1.92,1.92,0,0,1,.19.93v3.24h-.75v-.67h0a1.43,1.43,0,0,1-.26.35,1.67,1.67,0,0,1-.47.31A2,2,0,0,1,630.21,437.5Zm.12-.67a1.46,1.46,0,0,0,.75-.18,1.27,1.27,0,0,0,.47-.45,1.24,1.24,0,0,0,.16-.59v-.69a.56.56,0,0,1-.21.11l-.37.08-.41.05-.32,0a3.16,3.16,0,0,0-.55.13.91.91,0,0,0-.4.25.61.61,0,0,0-.16.45.69.69,0,0,0,.29.6A1.35,1.35,0,0,0,630.33,436.83Z"/><path class="cls-3" d="M633.82,437.39v-4.91h.73v.77h.07a1.15,1.15,0,0,1,.49-.61,1.46,1.46,0,0,1,.82-.22,1.36,1.36,0,0,1,.81.22,1.34,1.34,0,0,1,.51.61h0a1.46,1.46,0,0,1,.57-.61,1.72,1.72,0,0,1,.9-.22,1.45,1.45,0,0,1,1.08.41,1.71,1.71,0,0,1,.42,1.27v3.29h-.76V434.1a.93.93,0,0,0-.29-.77,1.1,1.1,0,0,0-.7-.24,1,1,0,0,0-.81.32,1.1,1.1,0,0,0-.28.78v3.2h-.77V434a.9.9,0,0,0-.27-.68,1,1,0,0,0-.7-.26,1.07,1.07,0,0,0-.55.16,1.21,1.21,0,0,0-.41.43,1.34,1.34,0,0,0-.15.64v3.07Z"/><path class="cls-3" d="M642.18,437.44a.58.58,0,0,1-.41-.17.57.57,0,0,1-.17-.41.56.56,0,0,1,.17-.4.58.58,0,0,1,.41-.17.54.54,0,0,1,.4.17.52.52,0,0,1,.17.4.57.57,0,0,1-.07.29.7.7,0,0,1-.21.21A.57.57,0,0,1,642.18,437.44Z"/><path class="cls-3" d="M646.09,437.49a2.18,2.18,0,0,1-1.19-.32,2.11,2.11,0,0,1-.77-.9,3,3,0,0,1-.27-1.31,2.91,2.91,0,0,1,.28-1.32,2.19,2.19,0,0,1,.77-.9,2,2,0,0,1,1.16-.32,2.19,2.19,0,0,1,.94.19,1.8,1.8,0,0,1,.68.54,1.74,1.74,0,0,1,.33.8h-.76a1.16,1.16,0,0,0-.38-.6,1.17,1.17,0,0,0-.79-.26,1.38,1.38,0,0,0-.78.23,1.49,1.49,0,0,0-.51.64,2.45,2.45,0,0,0-.18,1,2.57,2.57,0,0,0,.18,1,1.46,1.46,0,0,0,.51.65,1.28,1.28,0,0,0,.78.23,1.32,1.32,0,0,0,.53-.1,1.09,1.09,0,0,0,.41-.29,1.17,1.17,0,0,0,.23-.46H648a1.8,1.8,0,0,1-.32.78,1.87,1.87,0,0,1-.66.55A2.18,2.18,0,0,1,646.09,437.49Z"/><path class="cls-3" d="M651.09,437.49a2,2,0,0,1-1.94-1.2,2.93,2.93,0,0,1-.28-1.33,3,3,0,0,1,.28-1.34,2.05,2.05,0,0,1,.78-.89,2.12,2.12,0,0,1,1.16-.31,2.15,2.15,0,0,1,1.17.31,2.19,2.19,0,0,1,.78.89,3.11,3.11,0,0,1,.28,1.34,3.07,3.07,0,0,1-.28,1.33,2.25,2.25,0,0,1-.78.89A2.15,2.15,0,0,1,651.09,437.49Zm0-.68a1.28,1.28,0,0,0,.83-.25,1.58,1.58,0,0,0,.49-.69,2.67,2.67,0,0,0,.15-.91,2.77,2.77,0,0,0-.15-.92,1.55,1.55,0,0,0-.49-.68,1.24,1.24,0,0,0-.83-.27,1.26,1.26,0,0,0-.83.27,1.46,1.46,0,0,0-.48.68,2.54,2.54,0,0,0-.16.92,2.45,2.45,0,0,0,.16.91,1.49,1.49,0,0,0,.48.69A1.3,1.3,0,0,0,651.09,436.81Z"/><path class="cls-3" d="M654.45,437.39v-4.91h.73v.77h.06a1.17,1.17,0,0,1,.5-.61,1.44,1.44,0,0,1,.82-.22,1.4,1.4,0,0,1,.81.22,1.48,1.48,0,0,1,.51.61h0a1.38,1.38,0,0,1,.56-.61,1.73,1.73,0,0,1,.91-.22,1.43,1.43,0,0,1,1.07.41,1.71,1.71,0,0,1,.42,1.27v3.29h-.75V434.1a.91.91,0,0,0-.3-.77,1.08,1.08,0,0,0-.7-.24,1,1,0,0,0-.8.32,1.11,1.11,0,0,0-.29.78v3.2h-.76V434a.9.9,0,0,0-.27-.68,1,1,0,0,0-.7-.26,1.07,1.07,0,0,0-.55.16,1.13,1.13,0,0,0-.41.43,1.24,1.24,0,0,0-.16.64v3.07Z"/></g></svg>