<svg xmlns="http://www.w3.org/2000/svg" viewBox="0 0 648 648"><defs><style>.cls-1{fill:#e5e5e5;}.cls-2{fill:#fde9e1;}.cls-3{fill:#222221;}</style></defs><g id="Background"><rect class="cls-1" x="135.37" y="55.36" width="397.27" height="557.28"/></g><g id="Graphic"><rect class="cls-2" x="122.76" y="45.36" width="402.48" height="557.28"/><path class="cls-3" d="M306.32,576.23l-.11.41a.25.25,0,0,1-.27.2h-.26a.21.21,0,0,1-.24-.24v-5.89a.22.22,0,0,1,.24-.24h.45a.22.22,0,0,1,.24.24v1.89a1,1,0,0,1,.92-.57c.67,0,1,.44,1,1.31v2.29c0,.87-.34,1.31-1,1.31A1,1,0,0,1,306.32,576.23Zm1.05-2.83c0-.43-.14-.58-.45-.58a.59.59,0,0,0-.55.65v2a.59.59,0,0,0,.55.65c.31,0,.45-.16.45-.58Z"/><path class="cls-3" d="M308.81,575.71v-.07a1.31,1.31,0,0,1,.42-1.07,3,3,0,0,1,.81-.49,3.21,3.21,0,0,0,.36-.17.58.58,0,0,0,.34-.45v-.06c0-.39-.16-.59-.47-.59s-.49.2-.49.59v.11a.21.21,0,0,1-.23.24h-.39c-.16,0-.24-.08-.24-.25q0-1.47,1.38-1.47c.91,0,1.37.5,1.37,1.49v1.78a9.79,9.79,0,0,0,.05,1.28c0,.18,0,.26-.21.26h-.42a.23.23,0,0,1-.26-.2,2,2,0,0,1-.06-.37,1,1,0,0,1-.95.67C309.15,576.94,308.81,576.53,308.81,575.71Zm1.93-.2v-1l-.21.1a2.21,2.21,0,0,0-.55.32.71.71,0,0,0-.25.61v.06c0,.41.15.55.45.55A.59.59,0,0,0,310.74,575.51Z"/><path class="cls-3" d="M312.24,575.51a.21.21,0,0,1,.24-.23h.38a.21.21,0,0,1,.24.23v.09q0,.6.48.6c.33,0,.49-.19.49-.56v-.08c0-.33-.21-.46-.69-.67a2.29,2.29,0,0,1-.76-.45,1.31,1.31,0,0,1-.38-1.05v0a1.38,1.38,0,0,1,2.75,0,.21.21,0,0,1-.24.24h-.38a.21.21,0,0,1-.24-.24v0q0-.6-.48-.6c-.33,0-.49.19-.49.56v0a.49.49,0,0,0,.21.43,2.06,2.06,0,0,0,.48.26,2.16,2.16,0,0,1,.62.33,1.31,1.31,0,0,1,.52,1.16v0a1.23,1.23,0,0,1-1.38,1.36C312.7,576.94,312.24,576.47,312.24,575.51Z"/><path class="cls-3" d="M315.45,575.71v-.07a1.31,1.31,0,0,1,.42-1.07,3,3,0,0,1,.81-.49,3.21,3.21,0,0,0,.36-.17.58.58,0,0,0,.34-.45v-.06c0-.39-.15-.59-.47-.59s-.48.2-.48.59v.11a.22.22,0,0,1-.24.24h-.39c-.16,0-.24-.08-.24-.25,0-1,.47-1.47,1.39-1.47s1.36.5,1.36,1.49v1.78a12,12,0,0,0,.05,1.28c0,.18,0,.26-.21.26h-.41c-.16,0-.24-.06-.27-.2a3.69,3.69,0,0,1-.05-.37,1,1,0,0,1-1,.67C315.79,576.94,315.45,576.53,315.45,575.71Zm1.93-.2v-1l-.21.1a2.14,2.14,0,0,0-.54.32.72.72,0,0,0-.26.61v.06c0,.41.16.55.46.55A.59.59,0,0,0,317.38,575.51Z"/><path class="cls-3" d="M319.94,576.6a.21.21,0,0,1-.24.24h-.45a.21.21,0,0,1-.24-.24v-5.89a.22.22,0,0,1,.24-.24h.45a.22.22,0,0,1,.24.24Z"/><path class="cls-3" d="M320.53,575.71v-.07a1.31,1.31,0,0,1,.42-1.07,3,3,0,0,1,.81-.49,3.21,3.21,0,0,0,.36-.17.58.58,0,0,0,.34-.45v-.06c0-.39-.15-.59-.47-.59s-.48.2-.48.59v.11a.22.22,0,0,1-.24.24h-.39c-.16,0-.24-.08-.24-.25,0-1,.47-1.47,1.38-1.47s1.37.5,1.37,1.49v1.78a12,12,0,0,0,.05,1.28c0,.18,0,.26-.21.26h-.41c-.16,0-.24-.06-.27-.2a2.07,2.07,0,0,1-.05-.37,1,1,0,0,1-1,.67C320.87,576.94,320.53,576.53,320.53,575.71Zm1.93-.2v-1l-.21.1a2.14,2.14,0,0,0-.54.32.69.69,0,0,0-.26.61v.06c0,.41.16.55.46.55A.59.59,0,0,0,322.46,575.51Z"/><path class="cls-3" d="M324.33,576.84a.21.21,0,0,1-.24-.24v-4.23a.21.21,0,0,1,.24-.24h.39a.22.22,0,0,1,.24.24v.39a1,1,0,0,1,1-.73.84.84,0,0,1,.9.69,1,1,0,0,1,1-.69c.66,0,1,.44,1,1.31v3.26a.22.22,0,0,1-.24.24h-.46a.21.21,0,0,1-.23-.24v-3.2c0-.43-.13-.58-.43-.58s-.52.27-.52.65v3.13a.21.21,0,0,1-.23.24h-.45a.22.22,0,0,1-.24-.24v-3.2c0-.43-.12-.58-.42-.58s-.52.27-.52.65v3.13a.21.21,0,0,1-.24.24Z"/><path class="cls-3" d="M329.72,576.84a.21.21,0,0,1-.24-.24v-.91a.21.21,0,0,1,.24-.23h.45a.21.21,0,0,1,.24.23v.91a.22.22,0,0,1-.24.24Z"/><path class="cls-3" d="M331.1,573.53c0-1,.46-1.5,1.39-1.5s1.39.5,1.39,1.5v.19c0,.13-.08.19-.23.19h-.39a.21.21,0,0,1-.23-.24v-.27c0-.39-.17-.58-.5-.58s-.51.19-.51.58v2.17c0,.39.17.58.51.58s.5-.19.5-.58v-.37a.21.21,0,0,1,.23-.23h.39a.21.21,0,0,1,.23.23v.24c0,1-.46,1.5-1.39,1.5s-1.39-.5-1.39-1.5Z"/><path class="cls-3" d="M334.42,575.44v-1.91c0-1,.47-1.5,1.43-1.5s1.42.5,1.42,1.5v1.91c0,1-.48,1.5-1.42,1.5S334.42,576.44,334.42,575.44Zm1.93.13V573.4c0-.39-.16-.58-.5-.58s-.51.19-.51.58v2.17c0,.39.17.58.51.58S336.35,576,336.35,575.57Z"/><path class="cls-3" d="M338.17,576.84a.22.22,0,0,1-.24-.24v-4.23a.22.22,0,0,1,.24-.24h.39a.21.21,0,0,1,.24.24v.39a1,1,0,0,1,.95-.73.83.83,0,0,1,.9.69,1,1,0,0,1,1-.69c.65,0,1,.44,1,1.31v3.26a.21.21,0,0,1-.24.24h-.45a.21.21,0,0,1-.24-.24v-3.2c0-.43-.13-.58-.42-.58s-.52.27-.52.65v3.13a.22.22,0,0,1-.24.24H340a.21.21,0,0,1-.23-.24v-3.2c0-.43-.13-.58-.43-.58s-.52.27-.52.65v3.13a.21.21,0,0,1-.23.24Z"/><path class="cls-3" d="M319.3,122.43a1.15,1.15,0,0,1-.93,1.18,1,1,0,0,0,.17,1.9h.18a3.07,3.07,0,0,0,2.5-3.1,1,1,0,0,0-1-1A1,1,0,0,0,319.3,122.43Z"/><path class="cls-3" d="M319.93,98.62c-.51.13-.81.86-.67,1.62s.65,1.27,1.16,1.13.81-.87.67-1.62S320.44,98.48,319.93,98.62Z"/><path class="cls-3" d="M326.73,101.37c.5-.14.8-.87.67-1.62s-.66-1.27-1.16-1.13-.81.86-.68,1.62S326.22,101.51,326.73,101.37Z"/><path class="cls-3" d="M321.23,105.64a1,1,0,0,0,1,.86h.1l3.2-.32-1.1-5a1,1,0,0,0-1.88.41l.63,2.84-1,.11A1,1,0,0,0,321.23,105.64Z"/><path class="cls-3" d="M320.59,108.73a1,1,0,0,0,.35,1.32,5,5,0,0,0,2.57.7,5.18,5.18,0,0,0,1.29-.16,5.06,5.06,0,0,0,3.11-2.35,1,1,0,1,0-1.65-1,3.18,3.18,0,0,1-4.35,1.12A1,1,0,0,0,320.59,108.73Z"/><path class="cls-3" d="M343.65,127.29c-.89-1.54-3.26-1.63-4.43.52a6.19,6.19,0,0,1-1.91,2.24l-1-1.74,2-1.12-6.59-15.91a8.45,8.45,0,0,0,1-.91c1.57-1.72,3.27-4.81,2.44-9.81-.29-1.52-.46-2.87.28-4,1.33-2.13.68-3.74-.28-4.46-1.75-1.32-3.75-.3-4.87.85l-.46-6.53a4.52,4.52,0,0,0-1.36-3.12,2.85,2.85,0,0,0-2.13-.69A2.94,2.94,0,0,0,325,83l0-.26a4.62,4.62,0,0,0-1.41-3.15,2.81,2.81,0,0,0-2.1-.66,3.59,3.59,0,0,0-2.91,3.26,2.74,2.74,0,0,0-1.45-.24c-2.12.2-3.09,2.29-2.95,4.26l.21,3.1a2.18,2.18,0,0,0-1-.12c-1.75.19-2.78,1.82-2.62,4.15l.69,9.78h0v.19a.13.13,0,0,1,0,.06c.4,4.67,2.34,7.37,4.12,8.89a9.37,9.37,0,0,1-6.18,9.6l-.8.3-5.7,1.75,1.73,5.78,1.66-.21a6.94,6.94,0,0,0-.27,5,2.36,2.36,0,0,0,3.3,1.74c1.3-.63,2-2,.78-3.87-1.41-2.19-.82-3-.43-3.33l.12,0,.5,1.59.65,0c.46,0,.9,0,1.33,0,9,0,11.25-5.86,11.35-6.12a1,1,0,1,0-1.8-.68s-2,5.08-10.1,4.87L310,123.63h0a11.29,11.29,0,0,0,7.39-10.12,6.4,6.4,0,0,0,1.31.53.64.64,0,0,0,.2,0,1,1,0,0,0,.94-.76,1,1,0,0,0-.73-1.14s-5.31-1.51-5.85-9.21l-.69-9.77c0-.21-.11-2,.92-2.11a.41.41,0,0,1,.35.12,2.86,2.86,0,0,1,.72,1.85l0,.34L315,99a1,1,0,1,0,1.91-.14l-.34-4.88h0l0-.68,0-.35h0L316,86.06c-.06-.84.22-2.13,1.22-2.22a.84.84,0,0,1,.68.21,2.71,2.71,0,0,1,.73,1.82h0l.65,9.26a1,1,0,0,0,1,.89h.06a1,1,0,0,0,.9-1l-.85-12c-.07-1,.54-2.15,1.22-2.21a.83.83,0,0,1,.67.21,2.71,2.71,0,0,1,.74,1.82l.85,12a1,1,0,0,0,1,.9,1,1,0,0,0,.89-1l-.56-8v0c-.06-.82.22-2.14,1.2-2.21a1,1,0,0,1,.74.22,2.74,2.74,0,0,1,.69,1.8l1,14.36s0,.07,0,.1,0,.05,0,.08l0,.1,0,.07.05.09a1.1,1.1,0,0,0,.28.29l0,0,.11,0,.05,0,.11,0,.07,0H330l.09,0,.09,0,.09,0,.08,0,.08,0,.07-.07.06-.06.06-.07,0-.07a.36.36,0,0,0,0-.09s0,0,0-.08a.36.36,0,0,0,0-.1.24.24,0,0,0,0-.08.41.41,0,0,0,0-.11s0,0,0-.08c0-.39-.09-1.26-.14-1.89l0-.57a5.68,5.68,0,0,1,.76-3.78c.29-.38,1.59-1.67,2.58-.93.42.32.35,1-.2,1.91-1.2,1.92-.8,4-.54,5.4.7,4.22-.68,6.78-2,8.18a8.22,8.22,0,0,1-1.19,1.05.86.86,0,0,0-.2.13,6.33,6.33,0,0,1-3.76,1.17,1,1,0,0,0-1,.88,1,1,0,0,0,.88,1l.45,0a7.88,7.88,0,0,0,3.65-1l4.26,10.29a3,3,0,0,1-2.29,1.49,1,1,0,0,0-.75,1.13,1,1,0,0,0,.94.77.62.62,0,0,0,.19,0,5.44,5.44,0,0,0,2.75-1.34l.69,1.67-.56.31h0l-4.13,2.3-9.23-12.33a1,1,0,0,0-1.54,1.15l10.24,13.68h0l3.75,5,5.08-2.83-.7-1.17a8.9,8.9,0,0,0,3.41-1.33C344.11,129.82,344.12,128.12,343.65,127.29Z"/><path class="cls-3" d="M330.65,174l-1.63.39L328.9,181a.73.73,0,0,0,.71.74h0a.72.72,0,0,0,.72-.71v-.56l1.88-.45.26.49a.72.72,0,0,0,1.27-.67Zm-.27,5,0-2.36,1.11,2.09Z"/><path class="cls-3" d="M339,170.09l-1.25.72.72,4.11-3.21-2.67L334,173l3.31,5.71a.74.74,0,0,0,.63.36.68.68,0,0,0,.36-.1.72.72,0,0,0,.26-1l-1.22-2.1,1.7,1.4,1.18-.68-.38-2.17,1.21,2.1a.72.72,0,0,0,1.25-.72Z"/><path class="cls-3" d="M324.72,180.66h-2.16v-5.77h-1.44v7.21h3.6a.72.72,0,1,0,0-1.44Z"/><path class="cls-3" d="M311.81,179a.73.73,0,0,0,.22,1,.71.71,0,0,0,1-.22l.31-.47,1.83.61,0,.55a.73.73,0,0,0,.67.77h0a.72.72,0,0,0,.72-.67l.43-6.63-1.59-.52Zm3.44-.57-1.12-.37,1.28-2Z"/><path class="cls-3" d="M310,170.45a2.05,2.05,0,0,0-2.84.53l-.2.29a2,2,0,0,0,.52,2.84.61.61,0,0,1,.15.84l-.2.29a.6.6,0,1,1-1-.68.72.72,0,0,0-.19-1,.73.73,0,0,0-1,.18,2,2,0,0,0,.52,2.84,2,2,0,0,0,2.84-.52l.21-.29a2,2,0,0,0-.53-2.84.58.58,0,0,1-.24-.39.59.59,0,0,1,.09-.45l.21-.3a.59.59,0,0,1,.38-.25.6.6,0,0,1,.45.1.61.61,0,0,1,.25.39.57.57,0,0,1-.1.45.72.72,0,0,0,1.19.81,2,2,0,0,0,.33-1.52A2,2,0,0,0,310,170.45Z"/><circle class="cls-3" cx="349.94" cy="168.17" r="1.92"/><path class="cls-3" d="M351.38,151.84v6.24a1.44,1.44,0,1,1-2.88,0V144.15h-4.81v13.93a6.25,6.25,0,1,0,12.49,0v-6.24Z"/><path class="cls-3" d="M335.53,164.33a6.25,6.25,0,0,0,6.24-6.25v-6.24H337v6.24a1.44,1.44,0,0,1-2.88,0v-6.24h-4.81v6.24a1.44,1.44,0,1,1-2.88,0v-6.24h-4.8v2.74a7.73,7.73,0,0,0-.82-1.59h0l-3-4.24,2.28-3.26-3.94-2.75-1.28,1.82-2.21-3.17-3.94,2.76,3.22,4.6L309,153h0a7.15,7.15,0,0,0-1.12,2.62,6.73,6.73,0,0,0-13.15,2,6.65,6.65,0,0,0,.59,2.75,6.73,6.73,0,0,0-3.47,5.88v1.94h4.8v-1.94a1.93,1.93,0,0,1,1.92-1.92h2.61l.27,0a6.73,6.73,0,0,0,6.54-5.18,7.2,7.2,0,0,0,13.77.19,6.23,6.23,0,0,0,10,3.65A6.15,6.15,0,0,0,335.53,164.33Zm-34.11-4.81h-.14a1.87,1.87,0,1,1,.14,0Zm13.45,0a2.43,2.43,0,0,1-2.4-2.4,2.33,2.33,0,0,1,.44-1.37h0l2-2.81,2,2.81h0a2.33,2.33,0,0,1,.44,1.37A2.44,2.44,0,0,1,314.87,159.52Z"/></g></svg>