<svg xmlns="http://www.w3.org/2000/svg" viewBox="0 0 648 648"><defs><style>.cls-1,.cls-4,.cls-6,.cls-8{fill:none;stroke-miterlimit:10;}.cls-1{stroke:#000;stroke-linecap:round;stroke-width:9.94px;}.cls-2{fill:#b54a35;}.cls-3{fill:#933a2e;}.cls-4,.cls-6,.cls-8{stroke:#fff;opacity:0.5;}.cls-4{stroke-width:0.71px;}.cls-5{fill:#ff5c35;}.cls-6{stroke-width:0.62px;}.cls-7{fill:#ef5233;}.cls-8{stroke-width:0.44px;}.cls-9{fill:#fff;}</style></defs><g id="Graphic"><path class="cls-1" d="M293.52,199V130.62a68.42,68.42,0,1,1,136.83,0V199"/><rect class="cls-2" x="119.76" y="168.97" width="484.35" height="332.05"/><polygon class="cls-3" points="43.89 528.7 119.76 501.02 119.76 168.97 43.89 196.65 43.89 528.7"/><line class="cls-4" x1="528.24" y1="196.65" x2="528.24" y2="528.73"/><rect class="cls-5" x="43.89" y="196.65" width="484.35" height="332.05"/><line class="cls-6" x1="528.24" y1="459.53" x2="43.89" y2="459.53"/><polygon class="cls-7" points="604.11 501.02 528.24 528.73 528.24 196.68 604.11 168.97 604.11 501.02"/><line class="cls-8" x1="566.17" y1="182.82" x2="566.17" y2="514.87"/><line class="cls-8" x1="604.11" y1="431.85" x2="528.24" y2="459.56"/><polyline class="cls-8" points="528.24 528.73 566.17 445.72 604.11 501.04"/><path class="cls-9" d="M281,405.21a3.31,3.31,0,0,1-2.69,3.41,2.77,2.77,0,0,0,.5,5.5,2.92,2.92,0,0,0,.5-.05,8.87,8.87,0,0,0,7.23-8.95,2.77,2.77,0,0,0-5.54.09Z"/><path class="cls-9" d="M282.81,336.54c-1.46.4-2.33,2.49-1.94,4.68s1.89,3.65,3.35,3.25,2.33-2.49,1.94-4.68S284.27,336.15,282.81,336.54Z"/><path class="cls-9" d="M302.41,344.47c1.46-.39,2.33-2.49,1.94-4.68s-1.89-3.64-3.35-3.25-2.33,2.49-1.94,4.68S301,344.87,302.41,344.47Z"/><path class="cls-9" d="M286.57,356.78a2.78,2.78,0,0,0,2.76,2.5h.27l9.24-.91-3.18-14.29a2.77,2.77,0,0,0-5.41,1.2l1.82,8.18-3,.3A2.78,2.78,0,0,0,286.57,356.78Z"/><path class="cls-9" d="M284.73,365.72a2.76,2.76,0,0,0,1,3.79,14.71,14.71,0,0,0,20.13-5.22,2.77,2.77,0,0,0-4.78-2.81,9.14,9.14,0,0,1-12.54,3.25A2.77,2.77,0,0,0,284.73,365.72Z"/><path class="cls-9" d="M351.21,419.24c-2.56-4.45-9.4-4.69-12.77,1.49a17.37,17.37,0,0,1-5.51,6.46l-3-5L335.7,419l-19-45.9a28.18,28.18,0,0,0,2.83-2.64c4.52-4.94,9.41-13.85,7-28.28-.82-4.37-1.33-8.26.8-11.67,3.86-6.16,2-10.79-.79-12.87-5.05-3.81-10.82-.88-14.05,2.44l-1.33-18.83c-.27-3.79-1.69-7.07-3.91-9a8.53,8.53,0,0,0-10-.77l-.05-.76a13.26,13.26,0,0,0-4.08-9.08,8,8,0,0,0-6-1.9c-4.62.42-7.69,4.77-8.39,9.38a8.16,8.16,0,0,0-4.2-.69c-6.11.58-8.91,6.63-8.51,12.3l.63,8.93a6.67,6.67,0,0,0-2.95-.35c-5.06.57-8,5.27-7.56,12l2,28.2h0l0,.56a1,1,0,0,0,0,.17c1.13,13.47,6.72,21.25,11.88,25.63.33,4.15.34,20.23-17.83,27.71l-2.31.87-16.43,5,5,16.65,4.8-.59c-1.48,3.05-2.7,7.92-.8,14.55,1.66,5.77,6.7,6.44,9.53,5,3.74-1.84,5.75-5.75,2.25-11.18-4.08-6.32-2.38-8.77-1.25-9.61l.34,0,1.44,4.57,1.9.12c1.32.08,2.58.12,3.81.12,25.82,0,32.47-16.9,32.75-17.66a2.77,2.77,0,0,0-5.19-1.94c0,.15-5.76,14.64-29.14,14l-4.67-14.81h0c17.43-7.18,20.82-21.36,21.29-29.19a19.37,19.37,0,0,0,3.77,1.53,2.46,2.46,0,0,0,.6.07,2.77,2.77,0,0,0,.59-5.48c-.15,0-15.3-4.35-16.87-26.54l-2-28.21c0-.58-.32-5.75,2.65-6.08a1.24,1.24,0,0,1,1,.35c1.06.89,1.92,3.08,2.08,5.33l.07,1,1.13,16a2.77,2.77,0,0,0,5.53-.39l-1-14.09h0l-.14-2-.07-1h0l-1.39-19.77c-.17-2.42.62-6.12,3.51-6.39a2.46,2.46,0,0,1,2,.59,8,8,0,0,1,2.12,5.26v0l1.89,26.69a2.76,2.76,0,0,0,2.76,2.57h.2a2.79,2.79,0,0,0,2.57-3l-2.44-34.5c-.21-3,1.56-6.21,3.5-6.39a2.51,2.51,0,0,1,1.95.62,7.94,7.94,0,0,1,2.14,5.24l2.43,34.49a2.77,2.77,0,0,0,5.53-.39l-1.62-22.95s0-.06,0-.09c-.17-2.36.62-6.19,3.44-6.39a2.79,2.79,0,0,1,2.13.65c1.08.94,1.85,2.93,2,5.2L308.59,343a2.54,2.54,0,0,0,0,.29c0,.07,0,.15,0,.21s.07.21.11.32,0,.13.07.19l.16.26a2.58,2.58,0,0,0,.79.82l.07.06.32.16a.71.71,0,0,0,.15.08l.29.08.22.06.27,0,.23,0h.2a2,2,0,0,0,.24,0,2.56,2.56,0,0,0,.27-.05,2.67,2.67,0,0,0,.26-.09l.25-.1.23-.14A1,1,0,0,0,313,345a1.81,1.81,0,0,0,.21-.18,1.53,1.53,0,0,0,.18-.18l.17-.21.15-.22.12-.24a2.56,2.56,0,0,0,.11-.24,2.68,2.68,0,0,0,.07-.27c0-.09.05-.17.06-.25s0-.2,0-.3,0-.15,0-.23c-.05-1.13-.24-3.64-.38-5.46l-.12-1.63c-.34-4.81.41-8.59,2.18-10.91.84-1.11,4.58-4.83,7.44-2.68,1.22.92,1,3-.57,5.51-3.46,5.52-2.32,11.61-1.57,15.58,2,12.16-2,19.53-5.65,23.58a22.64,22.64,0,0,1-3.42,3,2.54,2.54,0,0,0-.57.4,18.22,18.22,0,0,1-10.86,3.35,2.77,2.77,0,1,0-.41,5.53c.42,0,.84,0,1.28,0A23.06,23.06,0,0,0,312,376.19l12.27,29.67c-.5,1.05-2.1,3.39-6.59,4.3a2.77,2.77,0,0,0,.54,5.48,2.56,2.56,0,0,0,.55-.05,15.68,15.68,0,0,0,7.92-3.88l2,4.82-1.59.89h0l-11.93,6.65-26.63-35.58a2.77,2.77,0,1,0-4.43,3.32l29.53,39.46h0l10.82,14.44,14.65-8.17-2-3.37a25.23,25.23,0,0,0,9.82-3.83C352.54,426.52,352.59,421.64,351.21,419.24Z"/><path class="cls-1" d="M218.24,232V163.61a68.42,68.42,0,0,1,136.83,0V232"/></g></svg>