<?xml version="1.0" encoding="utf-8"?>
<!-- Generator: Adobe Illustrator 25.4.1, SVG Export Plug-In . SVG Version: 6.00 Build 0)  -->
<svg version="1.1" xmlns="http://www.w3.org/2000/svg" xmlns:xlink="http://www.w3.org/1999/xlink" x="0px" y="0px"
	 viewBox="0 0 1152 648" style="enable-background:new 0 0 1152 648;" xml:space="preserve">
<style type="text/css">
	.st0{fill:#E5E5E5;}
	.st1{fill:#FF5C35;}
	.st2{fill:none;stroke:#FFA897;stroke-miterlimit:10;}
	.st3{fill:#FFFFFF;}
	.st4{fill:#FF5C35;stroke:#FFA897;stroke-miterlimit:10;}
</style>
<g id="Layer_1">
</g>
<g id="Isolation_Mode">
	<g>
		<rect x="260.1" y="262.7" class="st0" width="651.8" height="311.8"/>
		<path class="st0" d="M289.3,83.5h593.3c16.2,0,29.3,13.1,29.3,29.3v149.9H260.1V112.8C260.1,96.6,273.2,83.5,289.3,83.5z"/>
		<rect x="250.1" y="252.7" class="st1" width="651.8" height="311.8"/>
		<path class="st1" d="M279.3,73.5h593.3c16.2,0,29.3,13.1,29.3,29.3v149.9H250.1V102.8C250.1,86.6,263.2,73.5,279.3,73.5z"/>
		<line class="st2" x1="250.1" y1="252.7" x2="901.9" y2="252.7"/>
		<g>
			<path class="st3" d="M583.3,176.6l-1.8,0.4l-0.1,7.3c0,0.4,0.3,0.8,0.8,0.8c0,0,0,0,0,0l0,0c0.4,0,0.8-0.3,0.8-0.8c0,0,0,0,0,0
				v-0.6l2.1-0.5l0.3,0.5c0.2,0.4,0.7,0.5,1.1,0.3c0.4-0.2,0.5-0.7,0.3-1c0,0,0,0,0,0L583.3,176.6z M583,182.1l0-2.6l1.2,2.3
				L583,182.1z"/>
			<path class="st3" d="M592.5,172.3l-1.4,0.8l0.8,4.5l-3.5-2.9l-1.4,0.8l3.6,6.3c0.1,0.2,0.4,0.4,0.7,0.4c0.1,0,0.3,0,0.4-0.1
				c0.4-0.2,0.5-0.7,0.3-1.1l-1.3-2.3l1.9,1.5l1.3-0.8l-0.4-2.4l1.3,2.3c0.2,0.4,0.7,0.5,1.1,0.3c0,0,0,0,0,0
				c0.4-0.2,0.5-0.7,0.3-1.1L592.5,172.3z"/>
			<path class="st3" d="M576.8,183.9h-2.4v-6.3h-1.6v7.9h4c0.4,0,0.8-0.4,0.7-0.9C577.5,184.2,577.3,183.9,576.8,183.9L576.8,183.9z
				"/>
			<path class="st3" d="M562.7,182c-0.2,0.4-0.1,0.9,0.2,1.1c0.4,0.2,0.9,0.1,1.1-0.2l0.3-0.5l2,0.7v0.6c0,0.4,0.3,0.8,0.7,0.8
				c0,0,0,0,0,0h0c0.4,0,0.8-0.3,0.8-0.7l0.5-7.3l-1.8-0.6L562.7,182z M566.4,181.4l-1.2-0.4l1.4-2.2L566.4,181.4z"/>
			<path class="st3" d="M560.7,172.6c-1-0.7-2.4-0.5-3.1,0.6c0,0,0,0,0,0l-0.2,0.3c-0.7,1-0.5,2.4,0.6,3.1c0,0,0,0,0,0
				c0.3,0.2,0.4,0.6,0.2,0.9c0,0,0,0,0,0l-0.2,0.3c-0.2,0.3-0.6,0.4-0.9,0.2c0,0,0,0,0,0c-0.3-0.2-0.4-0.6-0.2-0.9c0,0,0,0,0,0
				c0.2-0.4,0.2-0.9-0.2-1.1c-0.4-0.2-0.9-0.2-1.1,0.2c-0.7,1-0.5,2.4,0.6,3.1c0,0,0,0,0,0c0.4,0.3,0.8,0.4,1.3,0.4
				c0.7,0,1.4-0.4,1.8-1l0.2-0.3c0.7-1,0.5-2.4-0.6-3.1c0,0,0,0,0,0c-0.1-0.1-0.2-0.3-0.3-0.4c0-0.2,0-0.3,0.1-0.5l0.2-0.3
				c0.1-0.1,0.3-0.2,0.4-0.3c0.2,0,0.3,0,0.5,0.1c0.1,0.1,0.2,0.2,0.3,0.4c0,0.2,0,0.3-0.1,0.5c-0.2,0.4-0.2,0.9,0.2,1.1
				c0.4,0.2,0.9,0.2,1.1-0.2c0.3-0.5,0.5-1.1,0.4-1.7C561.5,173.5,561.1,173,560.7,172.6z"/>
			<circle class="st3" cx="604.5" cy="170.1" r="2.1"/>
			<path class="st3" d="M606.1,152.2v6.9c-0.1,0.9-0.8,1.5-1.7,1.5c-0.8-0.1-1.4-0.7-1.5-1.5v-15.3h-5.3v15.3c0,3.8,3.1,6.9,6.9,6.8
				c3.8,0,6.8-3.1,6.8-6.8v-6.9H606.1z"/>
			<path class="st3" d="M588.7,165.9c3.8,0,6.9-3.1,6.9-6.9v-6.9h-5.3v6.9c0,0.9-0.7,1.6-1.6,1.6c-0.9,0-1.6-0.7-1.6-1.6
				c0,0,0,0,0,0v-6.9h-5.3v6.9c-0.1,0.9-0.8,1.5-1.7,1.5c-0.8-0.1-1.4-0.7-1.5-1.5v-6.9h-5.3v3c-0.2-0.6-0.5-1.2-0.9-1.8l0,0
				l-3.3-4.7l2.5-3.6l-4.3-3l-1.4,2l-2.4-3.5l-4.3,3l3.5,5l-3.3,4.7l0,0c-0.6,0.9-1,1.8-1.2,2.9c-1.2-3.9-5.3-6.1-9.2-4.9
				c-3.9,1.2-6.1,5.3-4.9,9.2c0.1,0.3,0.2,0.6,0.3,0.9c-2.4,1.3-3.8,3.8-3.8,6.5v2.1h5.3V168c0-1.2,0.9-2.1,2.1-2.1h2.9h0.3
				c3.4,0,6.4-2.4,7.2-5.7c1.2,4.2,5.6,6.6,9.8,5.4c2.5-0.7,4.5-2.7,5.3-5.2c0.8,3.7,4.4,6.1,8.1,5.3c1-0.2,2-0.7,2.8-1.3
				C585.7,165.3,587.2,165.9,588.7,165.9z M551.2,160.6h-0.2c-1.1,0-2-1-1.9-2.1s1-2,2.1-1.9s2,1,1.9,2.1
				C553.1,159.8,552.3,160.6,551.2,160.6z M566,160.6c-1.4,0-2.6-1.2-2.6-2.6c0-0.5,0.2-1.1,0.5-1.5l0,0l2.2-3.1l2.2,3.1l0,0
				c0.8,1.2,0.6,2.8-0.6,3.7C567.1,160.5,566.5,160.6,566,160.6z"/>
		</g>
		<polyline class="st2" points="901.9,272.7 831.1,301.2 831.1,564.5 		"/>
		<polyline class="st2" points="250.1,272.7 320.9,301.2 320.9,564.5 		"/>
		<path class="st4" d="M901.9,564.5l-5-225c-0.3-15.4-12.9-27.7-28.3-27.7l-585.2,0c-15.4,0-28,12.3-28.3,27.7l-4.9,225"/>
	</g>
</g>
</svg>
