<svg xmlns="http://www.w3.org/2000/svg" viewBox="0 0 648 648"><defs><style>.cls-1{fill:#ff5c35;}.cls-2{fill:#222221;}.cls-3{fill:#fff;}</style></defs><g id="Graphic"><rect class="cls-1" x="154.34" y="90.72" width="339.32" height="466.56"/><path class="cls-2" d="M303,400a5.93,5.93,0,0,1-4.81,6.1,5,5,0,0,0,.89,9.82,4.56,4.56,0,0,0,.9-.08,15.88,15.88,0,0,0,12.93-16A5,5,0,0,0,303,400Z"/><path class="cls-2" d="M306.23,277.24c-2.61.71-4.17,4.45-3.47,8.37s3.39,6.52,6,5.82,4.17-4.46,3.47-8.37S308.85,276.53,306.23,277.24Z"/><path class="cls-2" d="M341.29,291.43c2.61-.71,4.16-4.46,3.47-8.37s-3.39-6.53-6-5.82-4.17,4.45-3.47,8.37S338.67,292.13,341.29,291.43Z"/><path class="cls-2" d="M313,313.44a5,5,0,0,0,4.93,4.46,4,4,0,0,0,.49,0l16.52-1.63-5.69-25.55a5,5,0,1,0-9.67,2.15l3.26,14.63-5.39.54A5,5,0,0,0,313,313.44Z"/><path class="cls-2" d="M309.66,329.41a5,5,0,0,0,1.76,6.78,26.27,26.27,0,0,0,36-9.32,5,5,0,1,0-8.54-5,16.35,16.35,0,0,1-22.42,5.81A5,5,0,0,0,309.66,329.41Z"/><path class="cls-2" d="M428.55,425.12c-4.59-8-16.82-8.39-22.85,2.65-3.28,6-6.71,9.53-9.85,11.56l-5.35-9,10.3-5.75-33.94-82.08a49.83,49.83,0,0,0,5-4.71c8.09-8.85,16.84-24.78,12.56-50.58-1.47-7.81-2.37-14.77,1.44-20.87,6.89-11,3.55-19.28-1.41-23-9-6.82-19.35-1.56-25.13,4.36L357,214.07c-.48-6.78-3-12.64-7-16.09a15.3,15.3,0,0,0-17.82-1.37l-.1-1.36c-.47-6.68-3.2-12.74-7.29-16.22A14.38,14.38,0,0,0,314,175.61c-8.25.76-13.73,8.54-15,16.79a14.51,14.51,0,0,0-7.5-1.24c-10.93,1-15.93,11.85-15.22,22l1.13,16a12,12,0,0,0-5.27-.61c-9.06,1-14.37,9.43-13.53,21.42l3.56,50.42h0l.07,1c0,.1,0,.2.05.3,2,24.07,12,38,21.25,45.82.59,7.43.61,36.17-31.89,49.55l-4.13,1.56-29.38,9L227,437.37l8.58-1.06c-2.65,5.45-4.82,14.15-1.42,26,3,10.3,12,11.5,17,9,6.69-3.29,10.27-10.28,4-20C248,440,251,435.67,253,434.17l.61-.08,2.58,8.18,3.4.2c2.35.15,4.61.21,6.81.21,46.17,0,58.06-30.21,58.56-31.56a5,5,0,1,0-9.27-3.48c-.11.27-10.32,26.19-52.12,25.09l-8.35-26.47,0,0c31.17-12.83,37.23-38.18,38.08-52.18a35.53,35.53,0,0,0,6.74,2.73,5,5,0,1,0,2.13-9.67c-.27-.06-27.37-7.78-30.17-47.47l-3.56-50.42c-.08-1-.57-10.28,4.74-10.88A2.2,2.2,0,0,1,275,239c1.9,1.59,3.43,5.5,3.71,9.53l.13,1.8,2,28.7a5,5,0,1,0,9.88-.7L289,253.1h0l-.24-3.5-.13-1.8h0l-2.5-35.35c-.3-4.32,1.12-10.94,6.28-11.42a4.41,4.41,0,0,1,3.51,1.06c2,1.71,3.5,5.4,3.79,9.41a.13.13,0,0,0,0,.06l3.36,47.72a5,5,0,0,0,4.94,4.61h.35a5,5,0,0,0,4.6-5.3l-4.35-61.67c-.38-5.34,2.78-11.11,6.26-11.43a4.47,4.47,0,0,1,3.48,1.1c2.05,1.74,3.55,5.42,3.83,9.37l4.35,61.68a5,5,0,0,0,9.88-.7l-2.89-41.05s0-.1,0-.16c-.3-4.22,1.11-11.05,6.17-11.42a5,5,0,0,1,3.8,1.17c1.93,1.68,3.32,5.24,3.6,9.29l5.23,74.05a4.34,4.34,0,0,0,.08.52c0,.13,0,.26.07.38a4.18,4.18,0,0,0,.2.56c0,.11.07.23.12.34s.19.31.28.46a4.86,4.86,0,0,0,1.41,1.48l.13.1a3.81,3.81,0,0,0,.57.29,2.24,2.24,0,0,0,.27.13,5.16,5.16,0,0,0,.52.16c.14,0,.26.08.4.1a3.56,3.56,0,0,0,.47.05c.14,0,.27,0,.41,0h.36c.15,0,.29-.06.44-.08s.32,0,.48-.08a3.61,3.61,0,0,0,.46-.17,4.13,4.13,0,0,0,.45-.17c.15-.07.28-.17.42-.25s.27-.16.39-.25.24-.22.36-.33.23-.2.34-.32a4,4,0,0,0,.29-.39c.09-.12.19-.24.27-.37s.15-.29.22-.44.14-.28.19-.42a4.07,4.07,0,0,0,.13-.5,3.27,3.27,0,0,0,.1-.45,4.55,4.55,0,0,0,0-.53c0-.14,0-.26,0-.4-.08-2-.43-6.51-.67-9.78l-.22-2.91c-.61-8.6.74-15.35,3.9-19.51,1.5-2,8.18-8.62,13.3-4.78,2.18,1.64,1.8,5.32-1,9.84-6.18,9.88-4.13,20.76-2.8,27.86,3.61,21.76-3.5,34.94-10.11,42.16a39.7,39.7,0,0,1-6.11,5.4,4.79,4.79,0,0,0-1,.7c-6.81,4.57-14.13,6.39-19.43,6a5,5,0,1,0-.74,9.88c.76.05,1.52.08,2.29.08a41.06,41.06,0,0,0,18.86-5.08l21.94,53.06c-.9,1.87-3.76,6.06-11.79,7.68a5,5,0,0,0,1,9.81,5.52,5.52,0,0,0,1-.09,28,28,0,0,0,14.15-6.94l3.57,8.61-2.86,1.6h0l-21.31,11.89-47.62-63.62a5,5,0,0,0-7.93,5.94l52.81,70.55h0l19.34,25.83,26.19-14.61-3.6-6A45.42,45.42,0,0,0,420.88,445C430.91,438.14,431,429.4,428.55,425.12Z"/><rect class="cls-3" x="284.36" y="108.48" width="79.29" height="6.39" rx="3.19"/><path class="cls-2" d="M295.51,0h57.25a0,0,0,0,1,0,0V108.57a1.56,1.56,0,0,1-1.56,1.56H297.07a1.56,1.56,0,0,1-1.56-1.56V0a0,0,0,0,1,0,0Z"/></g></svg>