<svg xmlns="http://www.w3.org/2000/svg" viewBox="0 0 1152 648"><defs><style>.cls-1{fill:#ff5c35;}.cls-2,.cls-3{fill:#fff;}.cls-2{opacity:0.5;}</style></defs><g id="Graphic"><rect class="cls-1" x="138.59" y="90.72" width="874.81" height="466.52"/><rect class="cls-2" x="915.73" y="90.72" width="1" height="466.52"/><rect class="cls-2" x="818.53" y="90.72" width="1" height="466.56"/><rect class="cls-2" x="138.59" y="459.56" width="874.67" height="1"/><polygon class="cls-2" points="819.38 557.63 818.68 556.93 916.23 459.38 1013.76 556.89 1013.05 557.6 916.23 460.79 819.38 557.63"/><path class="cls-3" d="M462.3,383.72a4.66,4.66,0,0,1-3.78,4.79,3.89,3.89,0,0,0,.7,7.72,3.49,3.49,0,0,0,.71-.07,12.46,12.46,0,0,0,10.15-12.57,3.89,3.89,0,1,0-7.78.13Z"/><path class="cls-3" d="M464.84,287.24c-2.06.56-3.28,3.5-2.73,6.58s2.66,5.12,4.71,4.57,3.28-3.5,2.73-6.58S466.89,286.69,464.84,287.24Z"/><path class="cls-3" d="M492.38,298.39c2.05-.56,3.27-3.5,2.73-6.58s-2.66-5.12-4.72-4.57-3.27,3.5-2.72,6.58S490.33,298.94,492.38,298.39Z"/><path class="cls-3" d="M470.13,315.68a3.89,3.89,0,0,0,3.87,3.51,2.42,2.42,0,0,0,.38,0l13-1.28-4.46-20.07a3.89,3.89,0,1,0-7.6,1.69l2.56,11.5-4.24.42A3.89,3.89,0,0,0,470.13,315.68Z"/><path class="cls-3" d="M467.53,328.23a3.9,3.9,0,0,0,1.38,5.33,20.59,20.59,0,0,0,10.45,2.86,21.08,21.08,0,0,0,5.21-.66,20.55,20.55,0,0,0,12.62-9.53,3.89,3.89,0,0,0-6.71-4,12.86,12.86,0,0,1-17.62,4.57A3.9,3.9,0,0,0,467.53,328.23Z"/><path class="cls-3" d="M560.94,403.43c-3.61-6.26-13.21-6.59-18,2.08-2.58,4.73-5.28,7.49-7.74,9.09l-4.2-7.05,8.09-4.51-26.67-64.5a37.42,37.42,0,0,0,4-3.7c6.35-6.94,13.22-19.46,9.86-39.73-1.15-6.14-1.87-11.61,1.13-16.4,5.42-8.66,2.79-15.15-1.11-18.08-7.1-5.35-15.2-1.23-19.74,3.43l-1.87-26.45c-.37-5.33-2.38-9.93-5.49-12.64a11.63,11.63,0,0,0-8.65-2.79,11.41,11.41,0,0,0-5.36,1.72l-.07-1.07c-.37-5.25-2.51-10-5.73-12.75a11.27,11.27,0,0,0-8.49-2.68c-6.48.59-10.79,6.7-11.79,13.19a11.39,11.39,0,0,0-5.89-1c-8.59.82-12.52,9.31-12,17.28l.89,12.54A9.48,9.48,0,0,0,438,249c-7.12.8-11.29,7.41-10.63,16.83l2.8,39.61h0l.05.79c0,.08,0,.15,0,.23,1.59,18.92,9.45,29.86,16.7,36,.46,5.84.47,28.42-25.06,38.93l-3.24,1.23-23.08,7.08,7,23.39,6.74-.83c-2.07,4.29-3.78,11.12-1.11,20.44,2.32,8.1,9.41,9,13.39,7.08,5.25-2.58,8.07-8.07,3.15-15.7-5.72-8.89-3.34-12.33-1.75-13.5l.47-.06,2,6.42,2.67.16c1.85.12,3.63.17,5.35.17,36.28,0,45.62-23.74,46-24.8a3.89,3.89,0,1,0-7.28-2.73c-.08.21-8.11,20.57-40.95,19.71l-6.56-20.8h0c24.48-10.08,29.25-30,29.91-41a28.3,28.3,0,0,0,5.3,2.15,4,4,0,0,0,.84.09,3.9,3.9,0,0,0,.83-7.7c-.21,0-21.5-6.1-23.71-37.29l-2.79-39.62c-.06-.82-.45-8.07,3.72-8.54a1.75,1.75,0,0,1,1.44.49c1.49,1.24,2.69,4.32,2.91,7.48l.1,1.42,1.59,22.54a3.89,3.89,0,0,0,7.77-.54l-1.4-19.8h0l-.19-2.75-.1-1.41h0l-2-27.78c-.24-3.4.87-8.59,4.93-9a3.53,3.53,0,0,1,2.76.84c1.58,1.35,2.75,4.24,3,7.39,0,0,0,0,0,0l2.64,37.49a3.9,3.9,0,0,0,3.88,3.62h.28a3.89,3.89,0,0,0,3.61-4.15l-3.42-48.46c-.29-4.2,2.19-8.73,4.92-9a3.51,3.51,0,0,1,2.74.86c1.6,1.37,2.78,4.26,3,7.37l3.42,48.45a3.89,3.89,0,0,0,7.77-.54L486.28,239s0-.09,0-.13c-.24-3.32.87-8.68,4.84-9a3.83,3.83,0,0,1,3,.92c1.52,1.32,2.6,4.11,2.83,7.3l4.1,58.18c0,.14.05.27.07.4s0,.2.05.3a3.89,3.89,0,0,0,.16.44c0,.09.06.18.1.27a2.67,2.67,0,0,0,.22.36,3.87,3.87,0,0,0,1.11,1.17l.1.07a3.68,3.68,0,0,0,.44.23l.21.1a3.38,3.38,0,0,0,.42.13l.31.08c.12,0,.24,0,.37,0s.21,0,.32,0h.28c.12,0,.23-.05.35-.06l.37-.07a2.32,2.32,0,0,0,.37-.13,2.13,2.13,0,0,0,.35-.14c.11-.05.22-.13.33-.19l.31-.2a3.45,3.45,0,0,0,.28-.26,3.07,3.07,0,0,0,.26-.25,3.5,3.5,0,0,0,.24-.3l.21-.3.17-.34c.05-.11.11-.22.15-.33s.07-.26.1-.39.06-.23.08-.35,0-.28,0-.42,0-.21,0-.32c-.07-1.59-.34-5.11-.53-7.68l-.17-2.29c-.48-6.76.58-12.05,3.06-15.33,1.18-1.56,6.43-6.77,10.45-3.75,1.71,1.29,1.41,4.18-.81,7.73-4.85,7.76-3.24,16.31-2.19,21.89,2.83,17.09-2.76,27.45-7.95,33.12a31.39,31.39,0,0,1-4.8,4.24,3.75,3.75,0,0,0-.79.56c-5.36,3.59-11.11,5-15.27,4.71a3.89,3.89,0,1,0-.58,7.76c.6.05,1.19.07,1.8.07a32.21,32.21,0,0,0,14.81-4l17.24,41.69c-.71,1.47-3,4.76-9.26,6a3.89,3.89,0,0,0,.76,7.71,4.11,4.11,0,0,0,.78-.07,22,22,0,0,0,11.12-5.46l2.8,6.77-2.24,1.25h0l-16.75,9.35-37.41-50a3.89,3.89,0,1,0-6.23,4.66l41.49,55.43h0l15.19,20.3,20.58-11.48-2.82-4.74a35.58,35.58,0,0,0,13.8-5.38C562.8,413.66,562.88,406.79,560.94,403.43Z"/></g></svg>