<svg xmlns="http://www.w3.org/2000/svg" viewBox="0 0 648 648"><defs><style>.cls-1{fill:#e5e5e5;}.cls-2{fill:#ff5c35;}.cls-3{fill:#fff;}.cls-4{fill:#222221;}</style></defs><g id="Background"><path class="cls-1" d="M126.86,55.36H541.14a0,0,0,0,1,0,0V586.72a27,27,0,0,1-27,27H126.86a0,0,0,0,1,0,0V55.36a0,0,0,0,1,0,0Z" transform="translate(668 669.1) rotate(-180)"/></g><g id="Graphic"><path class="cls-2" d="M116.86,45.36H531.14a0,0,0,0,1,0,0V576.72a27,27,0,0,1-27,27H116.86a0,0,0,0,1,0,0V45.36A0,0,0,0,1,116.86,45.36Z" transform="translate(648 649.1) rotate(-180)"/><path class="cls-3" d="M531.29,603.89H116.71V72.38a27.2,27.2,0,0,1,27.17-27.17H531.29ZM117,603.59H531V45.51H143.88A26.9,26.9,0,0,0,117,72.38Z"/><path class="cls-4" d="M313.81,437.4a.6.6,0,0,1-.49.62.5.5,0,0,0,.09,1h.09a1.61,1.61,0,0,0,1.31-1.62.5.5,0,1,0-1,0Z"/><path class="cls-4" d="M314.13,424.94c-.26.07-.42.45-.35.85s.34.66.61.59.42-.45.35-.85S314.4,424.87,314.13,424.94Z"/><path class="cls-4" d="M317.69,426.38c.27-.07.43-.45.35-.85s-.34-.66-.6-.59-.43.45-.36.85S317.43,426.45,317.69,426.38Z"/><path class="cls-4" d="M314.82,428.61a.5.5,0,0,0,.5.46h.05l1.67-.16-.57-2.6a.5.5,0,0,0-.6-.38.51.51,0,0,0-.39.6l.34,1.49-.55.05A.5.5,0,0,0,314.82,428.61Z"/><path class="cls-4" d="M314.48,430.23a.51.51,0,0,0,.18.69,2.62,2.62,0,0,0,1.35.37,3.07,3.07,0,0,0,.67-.08,2.67,2.67,0,0,0,1.63-1.23.5.5,0,1,0-.86-.51,1.68,1.68,0,0,1-2.28.59A.49.49,0,0,0,314.48,430.23Z"/><path class="cls-4" d="M326.55,440a1.31,1.31,0,0,0-2.32.27,3,3,0,0,1-1,1.17l-.54-.91,1-.58-3.44-8.33a5.79,5.79,0,0,0,.51-.48,5.86,5.86,0,0,0,1.28-5.14,2.83,2.83,0,0,1,.14-2.12,1.65,1.65,0,0,0-.14-2.33,1.93,1.93,0,0,0-2.55.44l-.24-3.42a2.4,2.4,0,0,0-.71-1.63,1.5,1.5,0,0,0-1.12-.36,1.48,1.48,0,0,0-.69.22v-.14A2.43,2.43,0,0,0,316,415a1.42,1.42,0,0,0-1.1-.35,1.87,1.87,0,0,0-1.52,1.7,1.51,1.51,0,0,0-.76-.12,1.91,1.91,0,0,0-1.55,2.23l.11,1.62a1.19,1.19,0,0,0-.53-.06c-.92.1-1.46,1-1.37,2.17l.36,5.12h0v.11s0,0,0,0a6.51,6.51,0,0,0,2.16,4.65,4.92,4.92,0,0,1-3.24,5l-.42.16-3,.91.9,3,.87-.1a3.58,3.58,0,0,0-.14,2.64,1.23,1.23,0,0,0,1.73.91c.68-.33,1-1,.41-2s-.44-1.59-.23-1.74h.06l.26.83.35,0c.24,0,.47,0,.69,0,4.69,0,5.89-3.06,6-3.2a.52.52,0,0,0-.3-.65.51.51,0,0,0-.65.3s-1,2.66-5.29,2.54L309,438h0a5.89,5.89,0,0,0,3.86-5.29,3.35,3.35,0,0,0,.69.27l.11,0a.51.51,0,0,0,.1-1s-2.77-.79-3.06-4.82l-.36-5.12c0-.1-.06-1,.48-1.1a.23.23,0,0,1,.19.06,1.53,1.53,0,0,1,.37,1l0,.18.2,2.92a.5.5,0,0,0,.54.46.5.5,0,0,0,.46-.54l-.18-2.55h0l0-.36V422h0l-.26-3.59c0-.44.12-1.11.64-1.16a.47.47,0,0,1,.36.11,1.46,1.46,0,0,1,.38.95h0l.34,4.84a.5.5,0,0,0,.51.47h0a.5.5,0,0,0,.47-.54l-.44-6.26c0-.54.28-1.13.63-1.16a.44.44,0,0,1,.35.11,1.39,1.39,0,0,1,.39.95l.45,6.27a.49.49,0,0,0,.53.46.5.5,0,0,0,.47-.53l-.3-4.17v0c0-.43.11-1.12.62-1.16a.52.52,0,0,1,.39.12,1.46,1.46,0,0,1,.36.94l.53,7.52a.43.43,0,0,0,0,.05s0,0,0,0a.14.14,0,0,0,0,.06s0,0,0,0l0,0a.67.67,0,0,0,.14.15h0l.05,0h0l.05,0h.31l.05,0,0,0,0,0,0,0,0,0,0,0,0,0,0,0s0,0,0,0a.43.43,0,0,1,0-.05.09.09,0,0,0,0-.05.07.07,0,0,1,0,0v0c0-.21-.05-.66-.07-1l0-.29a3,3,0,0,1,.39-2c.16-.2.83-.88,1.35-.49.23.17.19.54-.1,1a3.76,3.76,0,0,0-.28,2.83,4.87,4.87,0,0,1-1,4.28,5.2,5.2,0,0,1-.62.55l-.1.07a3.37,3.37,0,0,1-2,.61.51.51,0,0,0-.54.46.5.5,0,0,0,.47.54h.23a4.31,4.31,0,0,0,1.92-.51l2.22,5.38a1.55,1.55,0,0,1-1.19.78.5.5,0,0,0,.09,1h.1a2.85,2.85,0,0,0,1.44-.71l.36.88-.29.16h0L320,440.83l-4.84-6.46a.5.5,0,0,0-.8.6l5.36,7.16h0l2,2.63,2.66-1.49-.36-.61a4.56,4.56,0,0,0,1.78-.69C326.79,441.27,326.8,440.39,326.55,440Z"/><path class="cls-4" d="M319.74,464.41l-.85.21-.06,3.47a.39.39,0,0,0,.37.39h0a.39.39,0,0,0,.38-.38v-.29l1-.23.14.25a.37.37,0,0,0,.51.16.39.39,0,0,0,.16-.51ZM319.6,467l0-1.23.58,1.09Z"/><path class="cls-4" d="M324.12,462.36l-.65.38.38,2.15-1.68-1.4-.66.38,1.74,3a.37.37,0,0,0,.32.19.32.32,0,0,0,.19-.05.37.37,0,0,0,.14-.51l-.64-1.1.89.73.62-.35-.2-1.14.64,1.1a.37.37,0,0,0,.51.14.39.39,0,0,0,.14-.52Z"/><path class="cls-4" d="M316.64,467.9h-1.13v-3h-.75v3.77h1.88a.38.38,0,0,0,.38-.38A.37.37,0,0,0,316.64,467.9Z"/><path class="cls-4" d="M309.88,467a.38.38,0,0,0,.12.52.38.38,0,0,0,.52-.11l.16-.25.95.31v.3a.38.38,0,0,0,.35.4h0a.37.37,0,0,0,.38-.35l.22-3.47-.83-.28Zm1.8-.3-.58-.2.67-1Z"/><path class="cls-4" d="M308.93,462.55a1.07,1.07,0,0,0-.8-.17,1,1,0,0,0-.68.45l-.11.15a1.08,1.08,0,0,0,.27,1.49.3.3,0,0,1,.08.43l-.1.16a.32.32,0,1,1-.52-.36.38.38,0,0,0-.62-.43,1.07,1.07,0,0,0,1.76,1.22l.11-.16a1.06,1.06,0,0,0-.28-1.48.33.33,0,0,1-.13-.21.32.32,0,0,1,0-.23l.11-.16a.34.34,0,0,1,.2-.13.4.4,0,0,1,.24.05.32.32,0,0,1,.08.44.38.38,0,0,0,.09.53.39.39,0,0,0,.53-.1,1.08,1.08,0,0,0,.17-.8A1,1,0,0,0,308.93,462.55Z"/><circle class="cls-4" cx="329.85" cy="461.36" r="1.01"/><path class="cls-4" d="M330.6,452.8v3.27a.76.76,0,1,1-1.51,0v-7.29h-2.51v7.29a3.27,3.27,0,1,0,6.54,0V452.8Z"/><path class="cls-4" d="M322.3,459.34a3.27,3.27,0,0,0,3.27-3.27V452.8h-2.51v3.27a.76.76,0,1,1-1.51,0V452.8H319v3.27a.76.76,0,1,1-1.51,0V452.8H315v1.44a3.85,3.85,0,0,0-.43-.83h0L313,451.19l1.2-1.71L312.15,448l-.66.95-1.17-1.65-2.06,1.44,1.69,2.41-1.55,2.22h0a3.48,3.48,0,0,0-.59,1.37,3.52,3.52,0,0,0-6.89,1,3.61,3.61,0,0,0,.31,1.44,3.53,3.53,0,0,0-1.82,3.08v1h2.52v-1a1,1,0,0,1,1-1h1.51a3.53,3.53,0,0,0,3.43-2.71,3.77,3.77,0,0,0,7.2.1,3.28,3.28,0,0,0,5.22,1.92A3.26,3.26,0,0,0,322.3,459.34Zm-17.86-2.51h-.07a.92.92,0,1,1,.07,0Zm7.05,0a1.27,1.27,0,0,1-1.26-1.26,1.23,1.23,0,0,1,.23-.72h0l1-1.47,1,1.47h0a1.22,1.22,0,0,1,.22.72A1.27,1.27,0,0,1,311.49,456.83Z"/><path class="cls-4" d="M300.87,515.51h-1.05l1.6-4.62h1.26l1.59,4.62h-1l-1.16-3.57h0Zm-.07-1.82h2.48v.77H300.8Z"/><path class="cls-4" d="M308.44,515.51v-4.62h1.62a1.68,1.68,0,0,1,.79.16,1.08,1.08,0,0,1,.47.45,1.26,1.26,0,0,1,.15.62,1,1,0,0,1-.1.49.74.74,0,0,1-.28.3,1,1,0,0,1-.36.17v0a.89.89,0,0,1,.42.15,1.2,1.2,0,0,1,.36.38,1.21,1.21,0,0,1,.14.62,1.33,1.33,0,0,1-.15.63,1.14,1.14,0,0,1-.5.44,2.05,2.05,0,0,1-.89.16Zm.56-2.59h1a1,1,0,0,0,.46-.1.87.87,0,0,0,.32-.28.74.74,0,0,0,.12-.42.7.7,0,0,0-.21-.52.93.93,0,0,0-.67-.22H309Zm0,2.09h1.11a1.14,1.14,0,0,0,.78-.21.66.66,0,0,0,.23-.52.82.82,0,0,0-.12-.43.81.81,0,0,0-.34-.32,1.08,1.08,0,0,0-.52-.12H309Z"/><path class="cls-4" d="M313.48,515.59a1.45,1.45,0,0,1-.59-.12,1.11,1.11,0,0,1-.43-.37,1.06,1.06,0,0,1-.16-.57.91.91,0,0,1,.12-.49.86.86,0,0,1,.31-.29,1.91,1.91,0,0,1,.44-.16,4,4,0,0,1,.48-.08l.51-.07a.81.81,0,0,0,.29-.07.18.18,0,0,0,.09-.18v0a.73.73,0,0,0-.18-.52.76.76,0,0,0-.55-.18,1,1,0,0,0-.6.16,1.09,1.09,0,0,0-.3.36l-.51-.18a1.23,1.23,0,0,1,.36-.49,1.47,1.47,0,0,1,.5-.25,2,2,0,0,1,.92,0,1.21,1.21,0,0,1,.42.16,1,1,0,0,1,.34.37,1.36,1.36,0,0,1,.13.66v2.28h-.53V515h0a.63.63,0,0,1-.18.24.91.91,0,0,1-.33.22A1.31,1.31,0,0,1,313.48,515.59Zm.09-.48a1.09,1.09,0,0,0,.53-.12.92.92,0,0,0,.33-.32.88.88,0,0,0,.11-.42v-.48a.34.34,0,0,1-.15.07l-.26.06-.29,0-.22,0a1.59,1.59,0,0,0-.39.08.71.71,0,0,0-.29.18.48.48,0,0,0-.11.32.46.46,0,0,0,.21.42A.87.87,0,0,0,313.57,515.11Z"/><path class="cls-4" d="M318.47,512.82,318,513a1,1,0,0,0-.14-.24.63.63,0,0,0-.23-.19.86.86,0,0,0-.38-.07,1,1,0,0,0-.53.14.44.44,0,0,0-.21.37.4.4,0,0,0,.14.32,1.38,1.38,0,0,0,.45.19l.52.12a1.4,1.4,0,0,1,.69.35.81.81,0,0,1,.23.59.94.94,0,0,1-.17.54,1.21,1.21,0,0,1-.48.37,1.73,1.73,0,0,1-.71.13,1.56,1.56,0,0,1-.87-.23,1,1,0,0,1-.44-.67l.5-.13a.67.67,0,0,0,.28.42.85.85,0,0,0,.53.14,1,1,0,0,0,.59-.16.47.47,0,0,0,.22-.38.38.38,0,0,0-.13-.3.79.79,0,0,0-.39-.19l-.57-.13a1.39,1.39,0,0,1-.7-.35.93.93,0,0,1-.06-1.12,1.06,1.06,0,0,1,.45-.35,1.56,1.56,0,0,1,.66-.13,1.15,1.15,0,0,1,1.23.82Z"/><path class="cls-4" d="M320.31,515.59a1.38,1.38,0,0,1-.59-.12,1,1,0,0,1-.43-.37,1,1,0,0,1-.16-.57.91.91,0,0,1,.12-.49.86.86,0,0,1,.31-.29,1.91,1.91,0,0,1,.44-.16,3.7,3.7,0,0,1,.48-.08l.51-.07a.81.81,0,0,0,.29-.07.18.18,0,0,0,.09-.18v0a.73.73,0,0,0-.18-.52.76.76,0,0,0-.55-.18,1,1,0,0,0-.6.16,1,1,0,0,0-.3.36l-.51-.18a1.23,1.23,0,0,1,.36-.49,1.38,1.38,0,0,1,.5-.25,2,2,0,0,1,.92,0,1.21,1.21,0,0,1,.42.16,1,1,0,0,1,.34.37,1.36,1.36,0,0,1,.13.66v2.28h-.53V515h0a.63.63,0,0,1-.18.24.91.91,0,0,1-.33.22A1.31,1.31,0,0,1,320.31,515.59Zm.08-.48a1.11,1.11,0,0,0,.54-.12.92.92,0,0,0,.33-.32.88.88,0,0,0,.11-.42v-.48a.34.34,0,0,1-.15.07l-.26.06-.29,0-.22,0a1.59,1.59,0,0,0-.39.08.71.71,0,0,0-.29.18.48.48,0,0,0-.11.32.46.46,0,0,0,.21.42A.86.86,0,0,0,320.39,515.11Z"/><path class="cls-4" d="M323.37,510.89v4.62h-.53v-4.62Z"/><path class="cls-4" d="M325.33,515.59a1.46,1.46,0,0,1-.6-.12,1.11,1.11,0,0,1-.43-.37,1.05,1.05,0,0,1-.15-.57.91.91,0,0,1,.11-.49.89.89,0,0,1,.32-.29,1.82,1.82,0,0,1,.43-.16,4,4,0,0,1,.48-.08l.51-.07a.76.76,0,0,0,.29-.07.18.18,0,0,0,.09-.18v0a.73.73,0,0,0-.18-.52.74.74,0,0,0-.55-.18,1,1,0,0,0-.6.16,1.09,1.09,0,0,0-.3.36l-.51-.18a1.25,1.25,0,0,1,.37-.49,1.34,1.34,0,0,1,.49-.25,2,2,0,0,1,.53-.07,1.91,1.91,0,0,1,.39,0,1.14,1.14,0,0,1,.42.16.88.88,0,0,1,.34.37,1.35,1.35,0,0,1,.14.66v2.28h-.54V515h0a.94.94,0,0,1-.18.24,1.05,1.05,0,0,1-.34.22A1.29,1.29,0,0,1,325.33,515.59Zm.08-.48a1.07,1.07,0,0,0,.53-.12.83.83,0,0,0,.44-.74v-.48a.35.35,0,0,1-.14.07l-.27.06-.28,0-.23,0a1.51,1.51,0,0,0-.38.08.65.65,0,0,0-.29.18.43.43,0,0,0-.11.32.48.48,0,0,0,.2.42A.89.89,0,0,0,325.41,515.11Z"/><path class="cls-4" d="M327.85,515.51V512h.52v.54h0a.92.92,0,0,1,.35-.43,1.09,1.09,0,0,1,.58-.15.95.95,0,0,1,.93.58h0a1,1,0,0,1,.4-.42,1.19,1.19,0,0,1,.64-.16,1,1,0,0,1,.76.29,1.23,1.23,0,0,1,.29.9v2.32h-.53v-2.32a.65.65,0,0,0-.21-.55.76.76,0,0,0-.49-.16.71.71,0,0,0-.57.22.79.79,0,0,0-.2.55v2.26h-.54v-2.37a.66.66,0,0,0-.19-.48.71.71,0,0,0-.5-.18.68.68,0,0,0-.39.11.74.74,0,0,0-.28.3.84.84,0,0,0-.11.45v2.17Z"/><path class="cls-4" d="M248.17,520.19a2.86,2.86,0,0,1-.26,1.26,2,2,0,0,1-.73.82,1.86,1.86,0,0,1-1.05.29,1.89,1.89,0,0,1-1-.29,2,2,0,0,1-.73-.82,2.86,2.86,0,0,1-.26-1.26,2.94,2.94,0,0,1,.26-1.27,2.08,2.08,0,0,1,.73-.82,2,2,0,0,1,1-.29,2,2,0,0,1,1.05.29,2.08,2.08,0,0,1,.73.82A2.94,2.94,0,0,1,248.17,520.19Zm-.54,0a2.33,2.33,0,0,0-.2-1,1.4,1.4,0,0,0-.54-.63,1.48,1.48,0,0,0-1.52,0,1.54,1.54,0,0,0-.54.63,2.65,2.65,0,0,0,0,2,1.54,1.54,0,0,0,.54.63,1.48,1.48,0,0,0,1.52,0,1.4,1.4,0,0,0,.54-.63A2.33,2.33,0,0,0,247.63,520.19Z"/><path class="cls-4" d="M249.53,517.88v4.62H249v-4.62Z"/><path class="cls-4" d="M252.65,521.08V519h.54v3.47h-.54v-.59h0a1.1,1.1,0,0,1-.38.45,1.27,1.27,0,0,1-1.23,0,1,1,0,0,1-.4-.43,1.76,1.76,0,0,1-.14-.73V519H251v2.17a.84.84,0,0,0,.21.6.75.75,0,0,0,.55.23.85.85,0,0,0,.4-.1.87.87,0,0,0,.35-.31A.91.91,0,0,0,252.65,521.08Z"/><path class="cls-4" d="M254.12,522.5V519h.52v.54h0a.92.92,0,0,1,.35-.43,1.09,1.09,0,0,1,.58-.15,1,1,0,0,1,.57.15,1.08,1.08,0,0,1,.36.43h0a1,1,0,0,1,.4-.42,1.16,1.16,0,0,1,.63-.16,1,1,0,0,1,.77.29,1.23,1.23,0,0,1,.29.9v2.32h-.53v-2.32a.65.65,0,0,0-.21-.55.79.79,0,0,0-.5-.16.7.7,0,0,0-.56.22.75.75,0,0,0-.2.55v2.26h-.54v-2.37a.63.63,0,0,0-.2-.48.67.67,0,0,0-.49-.18.68.68,0,0,0-.39.11.84.84,0,0,0-.29.3.94.94,0,0,0-.11.45v2.17Z"/><path class="cls-4" d="M264,519a.72.72,0,0,0-.33-.53,1.26,1.26,0,0,0-.71-.19,1.27,1.27,0,0,0-.54.1.89.89,0,0,0-.35.27.64.64,0,0,0-.13.4.57.57,0,0,0,.09.32.67.67,0,0,0,.23.21,1.59,1.59,0,0,0,.29.15l.28.09.47.12.4.13a2,2,0,0,1,.43.23,1.2,1.2,0,0,1,.34.37,1,1,0,0,1,.13.54,1.22,1.22,0,0,1-.19.68,1.36,1.36,0,0,1-.57.48,2.39,2.39,0,0,1-1.77,0,1.43,1.43,0,0,1-.57-.45,1.34,1.34,0,0,1-.23-.66h.58a.69.69,0,0,0,.17.43,1,1,0,0,0,.4.25,1.44,1.44,0,0,0,.51.08,1.54,1.54,0,0,0,.58-.1,1,1,0,0,0,.4-.29.71.71,0,0,0,.15-.44.53.53,0,0,0-.13-.38.93.93,0,0,0-.34-.23,3,3,0,0,0-.45-.16l-.57-.16a2.25,2.25,0,0,1-.86-.45,1,1,0,0,1-.31-.75,1.12,1.12,0,0,1,.21-.68,1.28,1.28,0,0,1,.57-.45,1.85,1.85,0,0,1,.8-.17,2,2,0,0,1,.79.16,1.35,1.35,0,0,1,.55.44,1.06,1.06,0,0,1,.22.62Z"/><path class="cls-4" d="M267.74,523.8V522h-.05a1.87,1.87,0,0,1-.17.23.81.81,0,0,1-.31.26,1.13,1.13,0,0,1-.53.11,1.36,1.36,0,0,1-.77-.22,1.43,1.43,0,0,1-.51-.62,2.18,2.18,0,0,1-.19-1,2.15,2.15,0,0,1,.19-.95,1.37,1.37,0,0,1,1.29-.84,1.13,1.13,0,0,1,.53.11.89.89,0,0,1,.31.25l.16.23h.06V519h.52v4.77Zm-1-1.71a.8.8,0,0,0,.54-.17,1,1,0,0,0,.34-.46,1.85,1.85,0,0,0,.11-.69,1.76,1.76,0,0,0-.11-.68.93.93,0,0,0-.33-.46.9.9,0,0,0-.55-.16.87.87,0,0,0-.56.17,1,1,0,0,0-.34.47,1.9,1.9,0,0,0-.11.66,2,2,0,0,0,.11.67,1.13,1.13,0,0,0,.34.48A.93.93,0,0,0,266.75,522.09Z"/><path class="cls-4" d="M269.59,522.54a.38.38,0,0,1-.28-.12.41.41,0,0,1,0-.58.38.38,0,0,1,.28-.12.41.41,0,0,1,.41.41.36.36,0,0,1-.06.2.4.4,0,0,1-.14.15A.37.37,0,0,1,269.59,522.54Z"/><path class="cls-4" d="M271.71,521.87l0,.24c0,.17-.07.36-.12.55s-.11.38-.16.55-.1.32-.14.42h-.41l.08-.38c0-.16.06-.34.1-.53s.06-.4.08-.6l0-.25Z"/><path class="cls-4" d="M275.91,522.5h-1.43v-4.62H276a2.3,2.3,0,0,1,1.15.27,1.83,1.83,0,0,1,.73.8,2.72,2.72,0,0,1,.26,1.23,2.8,2.8,0,0,1-.26,1.24,1.81,1.81,0,0,1-.75.8A2.35,2.35,0,0,1,275.91,522.5ZM275,522h.83a1.83,1.83,0,0,0,.95-.22,1.37,1.37,0,0,0,.56-.63,2.36,2.36,0,0,0,.19-1,2.4,2.4,0,0,0-.19-1,1.36,1.36,0,0,0-.54-.62,1.83,1.83,0,0,0-.91-.22H275Z"/><path class="cls-4" d="M280,522.58a1.46,1.46,0,0,1-.6-.12,1.11,1.11,0,0,1-.43-.37,1.06,1.06,0,0,1-.16-.57.91.91,0,0,1,.12-.49.86.86,0,0,1,.31-.29,1.91,1.91,0,0,1,.44-.16,4,4,0,0,1,.48-.08l.51-.07a.81.81,0,0,0,.29-.07.18.18,0,0,0,.09-.18v0a.73.73,0,0,0-.18-.52.74.74,0,0,0-.55-.18,1,1,0,0,0-.6.16,1.09,1.09,0,0,0-.3.36l-.51-.18a1.23,1.23,0,0,1,.36-.49,1.47,1.47,0,0,1,.5-.25,2,2,0,0,1,.92,0,1.21,1.21,0,0,1,.42.16.88.88,0,0,1,.34.37,1.36,1.36,0,0,1,.13.66v2.28H281V522h0a.71.71,0,0,1-.18.24.91.91,0,0,1-.33.22A1.29,1.29,0,0,1,280,522.58Zm.08-.48a1.07,1.07,0,0,0,.53-.12.79.79,0,0,0,.33-.32.88.88,0,0,0,.11-.42v-.48a.34.34,0,0,1-.15.07l-.26.06-.28,0-.23,0a1.59,1.59,0,0,0-.39.08.62.62,0,0,0-.28.18.43.43,0,0,0-.11.32.46.46,0,0,0,.2.42A.87.87,0,0,0,280,522.1Z"/><path class="cls-4" d="M283,520.41v2.09h-.53V519H283v.54h0a1,1,0,0,1,.37-.42,1.15,1.15,0,0,1,.64-.16,1.35,1.35,0,0,1,.62.14,1.06,1.06,0,0,1,.41.43,1.63,1.63,0,0,1,.14.74v2.2h-.53v-2.17a.89.89,0,0,0-.21-.63.73.73,0,0,0-.58-.23.9.9,0,0,0-.46.11.8.8,0,0,0-.31.32A1,1,0,0,0,283,520.41Z"/><path class="cls-4" d="M287.61,522.57a1.6,1.6,0,0,1-.86-.22,1.53,1.53,0,0,1-.56-.62,2.13,2.13,0,0,1-.19-.94,2.16,2.16,0,0,1,.19-.94,1.54,1.54,0,0,1,.55-.63,1.41,1.41,0,0,1,.82-.23,1.7,1.7,0,0,1,.54.09,1.5,1.5,0,0,1,.48.29,1.43,1.43,0,0,1,.34.53,2.24,2.24,0,0,1,.13.82V521h-2.67v-.46h2.13a1.15,1.15,0,0,0-.12-.53,1,1,0,0,0-.33-.36.91.91,0,0,0-.5-.13,1,1,0,0,0-.55.15,1.07,1.07,0,0,0-.35.41,1.13,1.13,0,0,0-.13.54v.3a1.48,1.48,0,0,0,.14.67,1,1,0,0,0,.38.41,1,1,0,0,0,.56.14A1.12,1.12,0,0,0,288,522a.75.75,0,0,0,.3-.18.77.77,0,0,0,.19-.3l.52.15a1.3,1.3,0,0,1-.28.46,1.27,1.27,0,0,1-.47.3A1.83,1.83,0,0,1,287.61,522.57Z"/><path class="cls-4" d="M292.28,519.81l-.48.13a1.1,1.1,0,0,0-.13-.23.78.78,0,0,0-.24-.19.83.83,0,0,0-.38-.07,1,1,0,0,0-.53.14.44.44,0,0,0-.21.37.38.38,0,0,0,.15.32,1.2,1.2,0,0,0,.45.19l.51.12a1.4,1.4,0,0,1,.69.35.77.77,0,0,1,.23.59.87.87,0,0,1-.17.54,1.18,1.18,0,0,1-.47.37,1.76,1.76,0,0,1-.71.13,1.57,1.57,0,0,1-.88-.23,1,1,0,0,1-.44-.67l.51-.13a.66.66,0,0,0,.27.42.85.85,0,0,0,.53.14,1,1,0,0,0,.59-.16.44.44,0,0,0,.22-.38.41.41,0,0,0-.12-.3.79.79,0,0,0-.39-.19l-.58-.13a1.39,1.39,0,0,1-.7-.35.93.93,0,0,1-.06-1.12,1.15,1.15,0,0,1,.46-.35,1.51,1.51,0,0,1,.65-.13,1.32,1.32,0,0,1,.81.22A1.18,1.18,0,0,1,292.28,519.81Z"/><path class="cls-4" d="M293.64,520.41v2.09h-.53v-4.62h.53v1.69h.05a1,1,0,0,1,.36-.42,1.14,1.14,0,0,1,.65-.16,1.39,1.39,0,0,1,.63.14,1,1,0,0,1,.41.43,1.6,1.6,0,0,1,.15.74v2.2h-.54v-2.17a.91.91,0,0,0-.21-.64.77.77,0,0,0-.59-.22.93.93,0,0,0-.47.11.82.82,0,0,0-.32.32A1,1,0,0,0,293.64,520.41Z"/><path class="cls-4" d="M298.22,523.87a1.87,1.87,0,0,1-.66-.1,1.34,1.34,0,0,1-.46-.25,1.5,1.5,0,0,1-.29-.34l.42-.3.18.22a1.05,1.05,0,0,0,.31.21,1.15,1.15,0,0,0,.5.09,1.2,1.2,0,0,0,.7-.2.76.76,0,0,0,.27-.64v-.7h-.05c0,.06-.09.14-.16.23a1,1,0,0,1-.31.25,1.16,1.16,0,0,1-.54.1,1.44,1.44,0,0,1-.75-.19,1.49,1.49,0,0,1-.53-.58,2.12,2.12,0,0,1-.19-.92,2.06,2.06,0,0,1,.19-.93,1.42,1.42,0,0,1,.52-.61,1.34,1.34,0,0,1,.77-.22,1.15,1.15,0,0,1,.54.11,1,1,0,0,1,.31.25l.16.23h.06V519h.51v3.57a1.26,1.26,0,0,1-.2.73,1.3,1.3,0,0,1-.54.41A2.06,2.06,0,0,1,298.22,523.87Zm0-1.9a1,1,0,0,0,.55-.15.93.93,0,0,0,.33-.42,1.88,1.88,0,0,0,0-1.32,1,1,0,0,0-.33-.45.9.9,0,0,0-.55-.16.87.87,0,0,0-.56.17,1,1,0,0,0-.33.46,1.77,1.77,0,0,0,0,1.28.91.91,0,0,0,.34.43A1,1,0,0,0,298.2,522Z"/><path class="cls-4" d="M301.68,522.58a1.46,1.46,0,0,1-.6-.12,1.11,1.11,0,0,1-.43-.37,1.05,1.05,0,0,1-.15-.57.91.91,0,0,1,.11-.49.89.89,0,0,1,.32-.29,1.82,1.82,0,0,1,.43-.16,4,4,0,0,1,.48-.08l.51-.07a.76.76,0,0,0,.29-.07.18.18,0,0,0,.09-.18v0a.73.73,0,0,0-.18-.52.74.74,0,0,0-.55-.18.94.94,0,0,0-.59.16,1,1,0,0,0-.31.36l-.51-.18a1.3,1.3,0,0,1,.86-.74A2,2,0,0,1,302,519a1.91,1.91,0,0,1,.39,0,1.14,1.14,0,0,1,.42.16.88.88,0,0,1,.34.37,1.35,1.35,0,0,1,.14.66v2.28h-.54V522h0a1.15,1.15,0,0,1-.18.24,1.05,1.05,0,0,1-.34.22A1.29,1.29,0,0,1,301.68,522.58Zm.08-.48a1.07,1.07,0,0,0,.53-.12.83.83,0,0,0,.44-.74v-.48a.35.35,0,0,1-.14.07l-.27.06-.28,0-.23,0a1.61,1.61,0,0,0-.38.08.65.65,0,0,0-.29.18.43.43,0,0,0-.11.32.48.48,0,0,0,.2.42A.89.89,0,0,0,301.76,522.1Z"/><path class="cls-4" d="M304.74,520.41v2.09h-.54v-4.62h.54v1.69h0a.94.94,0,0,1,.37-.42,1.14,1.14,0,0,1,.65-.16,1.35,1.35,0,0,1,.62.14,1,1,0,0,1,.42.43,1.74,1.74,0,0,1,.14.74v2.2h-.53v-2.17a.91.91,0,0,0-.21-.64.77.77,0,0,0-.59-.22.91.91,0,0,0-.47.11.78.78,0,0,0-.33.32A1.13,1.13,0,0,0,304.74,520.41Z"/><path class="cls-4" d="M309.93,522.5h-.59l1.7-4.62h.58l1.7,4.62h-.59l-1.38-3.89h0Zm.22-1.81h2.36v.5h-2.36Z"/><path class="cls-4" d="M316.33,519l-1.28,3.47h-.55L313.22,519h.58l1,2.77h0l1-2.77Z"/><path class="cls-4" d="M318.32,522.57a1.6,1.6,0,0,1-.86-.22,1.53,1.53,0,0,1-.56-.62,2.13,2.13,0,0,1-.19-.94,2.16,2.16,0,0,1,.19-.94,1.47,1.47,0,0,1,.55-.63,1.39,1.39,0,0,1,.82-.23,1.6,1.6,0,0,1,.53.09,1.32,1.32,0,0,1,.48.29,1.44,1.44,0,0,1,.35.53,2.47,2.47,0,0,1,.13.82V521h-2.68v-.46h2.13a1.14,1.14,0,0,0-.11-.53,1,1,0,0,0-.33-.36.91.91,0,0,0-.5-.13,1,1,0,0,0-.55.15,1,1,0,0,0-.36.41,1.25,1.25,0,0,0-.12.54v.3a1.48,1.48,0,0,0,.13.67,1,1,0,0,0,.38.41,1.1,1.1,0,0,0,.57.14,1.12,1.12,0,0,0,.38-.06.92.92,0,0,0,.3-.18.91.91,0,0,0,.19-.3l.51.15a1.14,1.14,0,0,1-.27.46,1.31,1.31,0,0,1-.48.3A1.73,1.73,0,0,1,318.32,522.57Z"/><path class="cls-4" d="M320.92,522.54a.41.41,0,1,1,0-.82.38.38,0,0,1,.28.12.4.4,0,0,1,.12.29.35.35,0,0,1-.05.2.54.54,0,0,1-.15.15A.36.36,0,0,1,320.92,522.54Z"/><path class="cls-4" d="M323,521.87l0,.24a3,3,0,0,1-.12.55c-.05.2-.1.38-.16.55s-.1.32-.13.42h-.41c0-.1,0-.23.08-.38s.06-.34.09-.53.06-.4.08-.6l0-.25Z"/><path class="cls-4" d="M325.8,522.5v-4.62h1.57a1.83,1.83,0,0,1,.89.19,1.24,1.24,0,0,1,.51.53,1.7,1.7,0,0,1,0,1.48,1.19,1.19,0,0,1-.51.53,1.7,1.7,0,0,1-.89.2h-1.11v-.5h1.1a1.26,1.26,0,0,0,.59-.12.85.85,0,0,0,.33-.35,1.15,1.15,0,0,0,.11-.5,1.18,1.18,0,0,0-.11-.5.77.77,0,0,0-.33-.34,1.27,1.27,0,0,0-.6-.13h-1v4.13Z"/><path class="cls-4" d="M330.75,522.58a1.46,1.46,0,0,1-.6-.12,1.11,1.11,0,0,1-.43-.37,1.05,1.05,0,0,1-.15-.57.91.91,0,0,1,.11-.49.89.89,0,0,1,.32-.29,1.82,1.82,0,0,1,.43-.16,4,4,0,0,1,.48-.08l.51-.07a.76.76,0,0,0,.29-.07.18.18,0,0,0,.09-.18v0a.73.73,0,0,0-.18-.52.74.74,0,0,0-.55-.18.94.94,0,0,0-.59.16,1,1,0,0,0-.31.36l-.5-.18a1.23,1.23,0,0,1,.36-.49,1.34,1.34,0,0,1,.49-.25,2,2,0,0,1,.53-.07,1.91,1.91,0,0,1,.39,0,1.14,1.14,0,0,1,.42.16.88.88,0,0,1,.34.37,1.35,1.35,0,0,1,.14.66v2.28h-.54V522h0a1.15,1.15,0,0,1-.18.24,1.05,1.05,0,0,1-.34.22A1.29,1.29,0,0,1,330.75,522.58Zm.08-.48a1.07,1.07,0,0,0,.53-.12.83.83,0,0,0,.44-.74v-.48a.35.35,0,0,1-.14.07l-.27.06-.28,0-.23,0a1.61,1.61,0,0,0-.38.08.65.65,0,0,0-.29.18.43.43,0,0,0-.11.32.48.48,0,0,0,.2.42A.89.89,0,0,0,330.83,522.1Z"/><path class="cls-4" d="M333.27,522.5V519h.52v.53h0a.89.89,0,0,1,.35-.42,1,1,0,0,1,.56-.16H335v.54l-.13,0-.2,0a.94.94,0,0,0-.45.11.78.78,0,0,0-.31.29.73.73,0,0,0-.11.42v2.19Z"/><path class="cls-4" d="M336.8,522.57a1.31,1.31,0,0,1-.76-.22,1.38,1.38,0,0,1-.52-.62,2.18,2.18,0,0,1-.19-1,2.15,2.15,0,0,1,.19-.95,1.39,1.39,0,0,1,.52-.62,1.34,1.34,0,0,1,.77-.22,1.17,1.17,0,0,1,.54.11,1,1,0,0,1,.3.25l.16.23h.05v-1.7h.53v4.62h-.52V522h-.06a1.87,1.87,0,0,1-.17.23.86.86,0,0,1-.3.26A1.2,1.2,0,0,1,336.8,522.57Zm.07-.48a.8.8,0,0,0,.54-.17,1,1,0,0,0,.34-.46,1.85,1.85,0,0,0,.12-.69,1.76,1.76,0,0,0-.12-.68.93.93,0,0,0-.33-.46.9.9,0,0,0-.55-.16.87.87,0,0,0-.56.17,1,1,0,0,0-.34.47,1.9,1.9,0,0,0-.11.66,1.81,1.81,0,0,0,.12.67,1,1,0,0,0,.33.48A.93.93,0,0,0,336.87,522.09Z"/><path class="cls-4" d="M339.67,518.46a.39.39,0,0,1-.27-.11.36.36,0,0,1-.11-.26.36.36,0,0,1,.11-.25.39.39,0,0,1,.27-.11.4.4,0,0,1,.27.11.36.36,0,0,1,.11.25.36.36,0,0,1-.11.26A.4.4,0,0,1,339.67,518.46Zm-.27,4V519h.53v3.47Z"/><path class="cls-4" d="M343.32,519.81l-.48.13a1.1,1.1,0,0,0-.13-.23.73.73,0,0,0-.23-.19.88.88,0,0,0-.39-.07.94.94,0,0,0-.52.14.43.43,0,0,0-.22.37.38.38,0,0,0,.15.32,1.38,1.38,0,0,0,.45.19l.51.12a1.44,1.44,0,0,1,.7.35.81.81,0,0,1,.23.59.88.88,0,0,1-.18.54,1.18,1.18,0,0,1-.47.37,1.73,1.73,0,0,1-.71.13,1.62,1.62,0,0,1-.88-.23,1.06,1.06,0,0,1-.44-.67l.51-.13a.71.71,0,0,0,.27.42.87.87,0,0,0,.53.14.94.94,0,0,0,.59-.16.44.44,0,0,0,.22-.38.41.41,0,0,0-.12-.3.79.79,0,0,0-.39-.19l-.58-.13a1.44,1.44,0,0,1-.7-.35.89.89,0,0,1-.22-.6.85.85,0,0,1,.17-.52,1.06,1.06,0,0,1,.45-.35,1.51,1.51,0,0,1,.65-.13,1.28,1.28,0,0,1,.81.22A1.18,1.18,0,0,1,343.32,519.81Z"/><path class="cls-4" d="M345.17,522.58a1.46,1.46,0,0,1-.6-.12,1,1,0,0,1-.42-.37,1,1,0,0,1-.16-.57.91.91,0,0,1,.12-.49.79.79,0,0,1,.31-.29,1.82,1.82,0,0,1,.43-.16,4,4,0,0,1,.48-.08l.52-.07a.88.88,0,0,0,.29-.07.18.18,0,0,0,.09-.18v0a.69.69,0,0,0-.19-.52.73.73,0,0,0-.54-.18,1,1,0,0,0-.6.16,1,1,0,0,0-.31.36l-.5-.18a1.23,1.23,0,0,1,.36-.49,1.38,1.38,0,0,1,.5-.25,1.93,1.93,0,0,1,.53-.07,1.82,1.82,0,0,1,.38,0,1.08,1.08,0,0,1,.42.16.88.88,0,0,1,.34.37,1.35,1.35,0,0,1,.14.66v2.28h-.53V522h0a1.15,1.15,0,0,1-.18.24,1.05,1.05,0,0,1-.34.22A1.29,1.29,0,0,1,345.17,522.58Zm.08-.48a1.13,1.13,0,0,0,.54-.12.82.82,0,0,0,.32-.32.79.79,0,0,0,.12-.42v-.48a.53.53,0,0,1-.15.07l-.26.06-.29,0-.22,0a1.59,1.59,0,0,0-.39.08.65.65,0,0,0-.29.18.48.48,0,0,0-.11.32.46.46,0,0,0,.21.42A.84.84,0,0,0,345.25,522.1Z"/><path class="cls-4" d="M348.23,520.41v2.09h-.53V519h.51v.54h.05a1,1,0,0,1,.37-.42,1.1,1.1,0,0,1,.64-.16,1.31,1.31,0,0,1,.61.14,1,1,0,0,1,.41.43,1.62,1.62,0,0,1,.15.74v2.2h-.53v-2.17a.85.85,0,0,0-.22-.63.72.72,0,0,0-.58-.23.84.84,0,0,0-.45.11.76.76,0,0,0-.32.32A1.13,1.13,0,0,0,348.23,520.41Z"/><path class="cls-4" d="M352.17,521.87l0,.24a4.11,4.11,0,0,1-.11.55c0,.2-.11.38-.16.55s-.1.32-.14.42h-.41l.08-.38c0-.16.06-.34.1-.53s.05-.4.08-.6l0-.25Z"/><path class="cls-4" d="M358.84,520.19a2.73,2.73,0,0,1-.27,1.26,1.87,1.87,0,0,1-.72.82,1.89,1.89,0,0,1-1.05.29,1.84,1.84,0,0,1-1.05-.29,2,2,0,0,1-.73-.82,2.73,2.73,0,0,1-.26-1.26,2.8,2.8,0,0,1,.26-1.27,2.08,2.08,0,0,1,.73-.82,1.92,1.92,0,0,1,1.05-.29,1.9,1.9,0,0,1,1.77,1.11A2.8,2.8,0,0,1,358.84,520.19Zm-.55,0a2.33,2.33,0,0,0-.19-1,1.54,1.54,0,0,0-.54-.63,1.43,1.43,0,0,0-.76-.21,1.39,1.39,0,0,0-1.3.84,2.65,2.65,0,0,0,0,2,1.39,1.39,0,0,0,1.3.84,1.43,1.43,0,0,0,.76-.21,1.54,1.54,0,0,0,.54-.63A2.33,2.33,0,0,0,358.29,520.19Zm-1.67.86h.61l.51.68.14.18.77,1H358l-.5-.67-.13-.18Z"/><path class="cls-4" d="M361.07,522.57a1.5,1.5,0,0,1-.82-.22,1.47,1.47,0,0,1-.55-.63,2.1,2.1,0,0,1-.2-.94,2.13,2.13,0,0,1,.2-.94,1.47,1.47,0,0,1,.55-.63,1.66,1.66,0,0,1,1.65,0,1.62,1.62,0,0,1,.55.63,2.13,2.13,0,0,1,.19.94,2.1,2.1,0,0,1-.19.94,1.62,1.62,0,0,1-.55.63A1.51,1.51,0,0,1,361.07,522.57Zm0-.48a.92.92,0,0,0,.59-.18,1.05,1.05,0,0,0,.34-.48,1.95,1.95,0,0,0,0-1.29,1.09,1.09,0,0,0-.34-.49.92.92,0,0,0-.59-.18.91.91,0,0,0-.58.18,1,1,0,0,0-.34.49,1.79,1.79,0,0,0,0,1.29,1,1,0,0,0,.34.48A.91.91,0,0,0,361.07,522.09Z"/><path class="cls-4" d="M363.42,522.5V519h.51v.54H364a.92.92,0,0,1,.35-.43,1.06,1.06,0,0,1,.58-.15,1,1,0,0,1,.57.15,1.17,1.17,0,0,1,.36.43h0a1,1,0,0,1,.4-.42,1.19,1.19,0,0,1,.64-.16,1,1,0,0,1,.76.29,1.19,1.19,0,0,1,.3.9v2.32h-.54v-2.32a.65.65,0,0,0-.21-.55.76.76,0,0,0-.49-.16.74.74,0,0,0-.57.22.79.79,0,0,0-.2.55v2.26h-.54v-2.37a.62.62,0,0,0-.19-.48.69.69,0,0,0-.49-.18.68.68,0,0,0-.39.11.76.76,0,0,0-.29.3.94.94,0,0,0-.11.45v2.17Z"/><path class="cls-4" d="M372.29,517.66l-1.49,5.53h-.49l1.49-5.53Z"/><path class="cls-4" d="M375.26,517.88v4.62h-.56v-4.62Z"/><path class="cls-4" d="M376.34,522.5v-4.62h1.56a1.93,1.93,0,0,1,.89.18,1.17,1.17,0,0,1,.52.51,1.72,1.72,0,0,1,0,1.45,1.18,1.18,0,0,1-.52.49,1.89,1.89,0,0,1-.88.18h-1.26v-.5h1.24a1.43,1.43,0,0,0,.6-.11.67.67,0,0,0,.33-.31,1,1,0,0,0,.1-.48,1.06,1.06,0,0,0-.1-.48.68.68,0,0,0-.33-.32,1.31,1.31,0,0,0-.6-.12h-1v4.13Zm2.18-2.08,1.13,2.08H379l-1.11-2.08Z"/><path class="cls-4" d="M380.55,522.5H380l1.7-4.62h.57l1.7,4.62h-.59L382,518.61h0Zm.22-1.81h2.37v.5h-2.37Z"/><path class="cls-4" d="M388.29,517.88v4.62h-.54l-2.52-3.63h-.05v3.63h-.56v-4.62h.54l2.53,3.64h.05v-3.64Z"/><path class="cls-4" d="M250.38,530.15a2.41,2.41,0,0,1,.13-.87,3.47,3.47,0,0,1,.54-.89.88.88,0,0,1,.69-.4.72.72,0,0,1,.64.34,1.51,1.51,0,0,1,.22.85,1.9,1.9,0,0,1-.08.6.77.77,0,0,1-.07.16l-.17.17a.39.39,0,0,1-.25.12.22.22,0,0,1-.13,0l-1.05-.51a16,16,0,0,0,.15,1.93l-.5.2C250.42,531,250.38,530.48,250.38,530.15Zm1.8-.9a1,1,0,0,0-.12-.5.4.4,0,0,0-.37-.2.47.47,0,0,0-.32.16,2.78,2.78,0,0,0-.33.48l1.08.49A1.4,1.4,0,0,0,252.18,529.25Z"/><path class="cls-4" d="M253.93,529.34a6.54,6.54,0,0,0-.16-1.4,3.66,3.66,0,0,0-.54-1.33l.4-.33a5.53,5.53,0,0,1,.71,3Zm2.56.21a.81.81,0,0,1,0,.17v.16a.81.81,0,0,1,0,.17c0,.05,0,.07,0,.07h-.26a1.44,1.44,0,0,1-.57-.09.65.65,0,0,1-.3-.33,1.83,1.83,0,0,1-.77.46,6.26,6.26,0,0,1-1.13.24l-.06-.65a7.53,7.53,0,0,0,1.12-.24,1.64,1.64,0,0,0,.62-.31l-.13-3.11.52-.12,0,3a.51.51,0,0,0,.07.3.42.42,0,0,0,.21.13,1.83,1.83,0,0,0,.37,0h.26S256.47,529.5,256.49,529.55Z"/><path class="cls-4" d="M260.35,529.37a.64.64,0,0,1-.28.57,1.24,1.24,0,0,1-.69.18.61.61,0,0,1-.62-.33.65.65,0,0,1-.31.25,1,1,0,0,1-.42.08.59.59,0,0,1-.61-.34c-.15.23-.48.34-1,.34,0,0,0,0-.05-.07a.72.72,0,0,1,0-.17v-.16a.88.88,0,0,1,0-.17s0-.07.05-.07a1.62,1.62,0,0,0,.74-.14l0-.88h.46v.69c0,.14,0,.22.1.26a.76.76,0,0,0,.35.06.61.61,0,0,0,.43-.12l0-1.12H259l0,1.16a.49.49,0,0,0,.32.09,1.28,1.28,0,0,0,.58-.12l-.13-1.37.52-.09C260.33,528.43,260.35,528.92,260.35,529.37Z"/><path class="cls-4" d="M262.63,529.55a.72.72,0,0,1,0,.17v.16a.72.72,0,0,1,0,.17c0,.05,0,.07,0,.07h-.13a1.15,1.15,0,0,1-.83-.25,1.29,1.29,0,0,1-.27-.89l-.09-2.89.52-.12,0,3a.49.49,0,0,0,.14.36.51.51,0,0,0,.36.13h.25S262.62,529.5,262.63,529.55Z"/><path class="cls-4" d="M264,528.08q0,.74,0,1.2a.66.66,0,0,1-.34.6,1.94,1.94,0,0,1-.53.18,3.23,3.23,0,0,1-.61.06s0,0,0-.07a.72.72,0,0,1,0-.17v-.16a.88.88,0,0,1,0-.17s0-.07,0-.07a5,5,0,0,0,.61,0,1.34,1.34,0,0,0,.44-.14l-.13-1.31.52-.08Zm-.91,2.72.49.42-.41.48-.48-.4Z"/><path class="cls-4" d="M270.69,529.55a.72.72,0,0,1,0,.17v.16a.72.72,0,0,1,0,.17c0,.05,0,.07,0,.07-.54,0-.86-.12-1-.37a.61.61,0,0,1-.17.15,2.08,2.08,0,0,1-.3.1,5.12,5.12,0,0,1-.62.11c-.25,0-.51,0-.78,0a5,5,0,0,1-1-.09,1.18,1.18,0,0,1-.63-.33.9.9,0,0,1-.22-.65,1.66,1.66,0,0,1,0-.32l.14-.89.4.09-.13.78a1.21,1.21,0,0,0,0,.18.47.47,0,0,0,.16.39.94.94,0,0,0,.43.16,7.64,7.64,0,0,0,.77,0,9.7,9.7,0,0,0,1,0,4.2,4.2,0,0,0,.77-.15l-.09-1,.5,0,.07,1.1a1.44,1.44,0,0,0,.66.12S270.68,529.5,270.69,529.55Zm-3-1.9-.44-.37.37-.44.45.37Zm.86,0-.44-.37.37-.44.44.37Z"/><path class="cls-4" d="M272.39,528.25a2.59,2.59,0,0,1,.26,1.15c0,.26-.16.45-.49.56a5.09,5.09,0,0,1-1.51.16s0,0,0-.07a.42.42,0,0,1,0-.17v-.16a.91.91,0,0,1,0-.17s0-.07,0-.07c.32,0,.63,0,.92,0a2.92,2.92,0,0,0,.65-.13,1.83,1.83,0,0,0-.4-1.06,4.68,4.68,0,0,0-1.07-1l0-.53a12.23,12.23,0,0,1,1.92-.86l.07.54c-.53.2-1,.41-1.45.62l.16.11A3.51,3.51,0,0,1,272.39,528.25Z"/><path class="cls-4" d="M275.33,529.55a.42.42,0,0,1,0,.17v.16a.42.42,0,0,1,0,.17c0,.05,0,.07,0,.07h-.16a.88.88,0,0,1-.71-.26v0a1.47,1.47,0,0,1-.4,1,3.81,3.81,0,0,1-1.25.86l-.31-.51a5,5,0,0,0,1-.59,1.66,1.66,0,0,0,.48-.58l-.19-1.68.51-.13.08.78a.59.59,0,0,0,.12.31.46.46,0,0,0,.24.12l.43,0h.14S275.32,529.5,275.33,529.55Z"/><path class="cls-4" d="M279.19,529.37a.64.64,0,0,1-.27.57,1.27,1.27,0,0,1-.69.18.61.61,0,0,1-.62-.33.65.65,0,0,1-.31.25,1,1,0,0,1-.42.08.59.59,0,0,1-.61-.34c-.15.23-.48.34-1,.34,0,0,0,0,0-.07a.72.72,0,0,1,0-.17v-.16a.88.88,0,0,1,0-.17s0-.07,0-.07a1.7,1.7,0,0,0,.75-.14v-.88h.47v.69c0,.14,0,.22.1.26a.76.76,0,0,0,.35.06.61.61,0,0,0,.43-.12l0-1.12h.47l0,1.16a.49.49,0,0,0,.32.09,1.28,1.28,0,0,0,.58-.12l-.13-1.37.51-.09C279.18,528.43,279.19,528.92,279.19,529.37Zm-2-1.78-.44-.37.37-.44.44.37Zm.4-.82-.43-.36.37-.44.43.37Zm0,.44.37-.43.43.36-.36.44Z"/><path class="cls-4" d="M281.67,529.46a.38.38,0,0,1,.12.29.41.41,0,0,1-.12.3.41.41,0,0,1-.3.11A.44.44,0,0,1,281,530a.55.55,0,0,1-.13-.4,1.71,1.71,0,0,1,.12-.57,3.34,3.34,0,0,1,.33-.62l.3.28c-.09.14-.17.25-.22.35a1.08,1.08,0,0,0-.11.28h.05A.42.42,0,0,1,281.67,529.46Z"/><path class="cls-4" d="M282.66,530.15a2.21,2.21,0,0,1,.13-.87,3.74,3.74,0,0,1,.53-.89.91.91,0,0,1,.7-.4.73.73,0,0,1,.64.34,1.51,1.51,0,0,1,.22.85,2.23,2.23,0,0,1-.08.6.48.48,0,0,1-.08.16,1.11,1.11,0,0,1-.16.17.41.41,0,0,1-.25.12.22.22,0,0,1-.13,0l-1.05-.51a16,16,0,0,0,.15,1.93l-.51.2C282.7,531,282.66,530.48,282.66,530.15Zm1.8-.9a1,1,0,0,0-.12-.5.41.41,0,0,0-.38-.2.45.45,0,0,0-.31.16,2.78,2.78,0,0,0-.33.48l1.07.49A1.38,1.38,0,0,0,284.46,529.25Z"/><path class="cls-4" d="M288.12,529.55a.81.81,0,0,1,0,.17v.16a.81.81,0,0,1,0,.17c0,.05,0,.07,0,.07h-.48a2.06,2.06,0,0,1-.58.93,3.3,3.3,0,0,1-1.06.66l-.31-.51a3.79,3.79,0,0,0,.94-.5,2,2,0,0,0,.59-.62,2.91,2.91,0,0,1-.6.06l-.4,0A.39.39,0,0,1,286,530l-.13-.16a.55.55,0,0,1-.1-.18.33.33,0,0,1,0-.17,2.56,2.56,0,0,1,.25-1,.73.73,0,0,1,.69-.45.75.75,0,0,1,.73.43,2.58,2.58,0,0,1,.23,1h.41S288.1,529.5,288.12,529.55Zm-1.47,0a3.13,3.13,0,0,0,.59,0,1.28,1.28,0,0,0-.14-.68.45.45,0,0,0-.4-.21.4.4,0,0,0-.37.23,1.3,1.3,0,0,0-.14.66A1.66,1.66,0,0,0,286.65,529.55Z"/><path class="cls-4" d="M290.44,529.55a.72.72,0,0,1,0,.17v.16a.72.72,0,0,1,0,.17c0,.05,0,.07,0,.07a2.2,2.2,0,0,1-.74-.1.63.63,0,0,1-.38-.26.83.83,0,0,1-.48.28,2.6,2.6,0,0,1-.72.08s0,0-.05-.07a.72.72,0,0,1,0-.17v-.16a.88.88,0,0,1,0-.17s0-.07.05-.07a2.22,2.22,0,0,0,1-.17l-.14-3.22.51-.12.06,3a.46.46,0,0,0,.14.38.71.71,0,0,0,.4.11h.35S290.43,529.5,290.44,529.55Z"/><path class="cls-4" d="M293.13,529.78l-1,.23a3.71,3.71,0,0,1-.62.09c-.19,0-.44,0-.76,0h-.32s0,0,0-.07a.72.72,0,0,1,0-.17v-.16a.88.88,0,0,1,0-.17s0-.07,0-.07h.77a1.72,1.72,0,0,1-.15-.72.83.83,0,0,1,.29-.69,1.22,1.22,0,0,1,.76-.22,2.46,2.46,0,0,1,.59.08l-.13.55a1.85,1.85,0,0,0-.51-.07,1.66,1.66,0,0,0-.54.08,2.33,2.33,0,0,0,.06.53,1.75,1.75,0,0,0,.16.44,11.53,11.53,0,0,0,1.4-.29Z"/><path class="cls-4" d="M295.05,529.71c.05-.32.12-.71.2-1.18l.4.09a15.17,15.17,0,0,0-.22,1.57.41.41,0,0,0,.29.45,2,2,0,0,0,.71.12,4.2,4.2,0,0,0,.72-.06,1.74,1.74,0,0,0,.57-.21l-.22-2.18.52-.12c.07.85.12,1.59.14,2.21a.74.74,0,0,1-.49.75,2.87,2.87,0,0,1-1.29.26,1.43,1.43,0,0,1-1.1-.33,1.06,1.06,0,0,1-.3-.73A4.52,4.52,0,0,1,295.05,529.71Zm1.94-2.26-.41.5-.49-.42.41-.48Z"/><path class="cls-4" d="M299.47,526l0,4.15-.45.07-.11-4.1Z"/><path class="cls-4" d="M303.38,529.55a.72.72,0,0,1,0,.17v.16a.72.72,0,0,1,0,.17c0,.05,0,.07,0,.07h-.14a.8.8,0,0,1-.79-.42l-.06.15a.18.18,0,0,1-.08.07,1.75,1.75,0,0,1-.54.2,2.86,2.86,0,0,1-.63.08.86.86,0,0,1-.57-.17.75.75,0,0,1-.19-.59v-.29h.41v.14a.3.3,0,0,0,0,.18.17.17,0,0,0,.12.06h.31a2.74,2.74,0,0,0,.56-.06,1.61,1.61,0,0,0,.45-.18l-.43-1.76.48-.3.34,1.64a3.12,3.12,0,0,0,.12.42.26.26,0,0,0,.17.14,2,2,0,0,0,.43,0S303.37,529.5,303.38,529.55Z"/><path class="cls-4" d="M305.49,529.55a.72.72,0,0,1,0,.17v.16a.72.72,0,0,1,0,.17c0,.05,0,.07,0,.07a2.09,2.09,0,0,1-.72-.09.45.45,0,0,1-.3-.3.62.62,0,0,1-.38.3,2.32,2.32,0,0,1-.71.09s0,0,0-.07a.42.42,0,0,1,0-.17v-.16a.91.91,0,0,1,0-.17s0-.07,0-.07a1.87,1.87,0,0,0,.85-.15l-.11-1.14.52,0,.07,1.21a.51.51,0,0,0,.27.09,3.13,3.13,0,0,0,.51,0S305.48,529.5,305.49,529.55Zm-1.7,1.25.44.38-.38.44-.43-.37Zm.86,0,.44.37-.37.44-.44-.37Z"/><path class="cls-4" d="M307.76,528.53a1.57,1.57,0,0,1,.22.86,2.2,2.2,0,0,1-.07.58.57.57,0,0,1-.24.31.38.38,0,0,1-.25.13.35.35,0,0,1-.14,0l-1.06-.5a.64.64,0,0,1-.25.18,1.15,1.15,0,0,1-.41.06h-.11s0,0,0-.07a.42.42,0,0,1,0-.17v-.16a.91.91,0,0,1,0-.17s0-.07.05-.07h.2l.24,0a.4.4,0,0,0,.15-.12,2,2,0,0,0,.15-.3,2.44,2.44,0,0,1,.38-.63.68.68,0,0,1,.54-.24A.73.73,0,0,1,307.76,528.53Zm-.19.92a1,1,0,0,0-.13-.5.44.44,0,0,0-.4-.21.39.39,0,0,0-.29.17,2.14,2.14,0,0,0-.27.49l1,.46A1.21,1.21,0,0,0,307.57,529.45Z"/><path class="cls-4" d="M309,531.23a5,5,0,0,0,1-.59,1.66,1.66,0,0,0,.48-.58l-.19-1.68.51-.13c0,.16,0,.26,0,.31,0,.29.06.56.08.79s0,.4,0,.53a1.47,1.47,0,0,1-.4,1,3.81,3.81,0,0,1-1.25.86Zm1.78-4.18-.41.5-.49-.42.41-.48Z"/><path class="cls-4" d="M312.23,526l0,4.15-.45.07-.11-4.1Z"/><path class="cls-4" d="M317.17,529.55a.72.72,0,0,1,0,.17v.16a.72.72,0,0,1,0,.17c0,.05,0,.07,0,.07H317a.78.78,0,0,1-.79-.42l-.07.15a.18.18,0,0,1-.08.07,1.78,1.78,0,0,1-.53.2,3,3,0,0,1-.64.08.86.86,0,0,1-.57-.17.78.78,0,0,1-.19-.59,2.27,2.27,0,0,1,0-.29h.4v.14a.3.3,0,0,0,0,.18.2.2,0,0,0,.12.06H315a2.64,2.64,0,0,0,.55-.06,1.61,1.61,0,0,0,.45-.18l-.43-1.76.48-.3.35,1.64a1.57,1.57,0,0,0,.12.42.24.24,0,0,0,.17.14,1.92,1.92,0,0,0,.42,0S317.16,529.5,317.17,529.55Z"/><path class="cls-4" d="M320.3,529.55a.81.81,0,0,1,0,.17v.16a.81.81,0,0,1,0,.17c0,.05,0,.07,0,.07h-.92a.71.71,0,0,1-.58-.23,1,1,0,0,1-.71.23h-.92s0,0,0-.07a.72.72,0,0,1,0-.17v-.16a.88.88,0,0,1,0-.17s0-.07,0-.07h1.12l-.21-.33-.28-.43a1.27,1.27,0,0,0-.14-.19s-.05,0-.09,0h-.13l0-.56a15.21,15.21,0,0,1,1.52-.12,1.87,1.87,0,0,1,.72.11.37.37,0,0,1,.24.37v.17a1,1,0,0,1-.2.47,2.08,2.08,0,0,1-.41.49l.22,0h.75S320.28,529.5,320.3,529.55Zm-1.14-.56a1.36,1.36,0,0,0,.28-.5s-.23-.08-.57-.08h-.45l-.35,0a.33.33,0,0,1,.11.1l.23.34c.13.21.24.39.33.52A2.34,2.34,0,0,0,319.16,529Z"/><path class="cls-4" d="M321.7,528.08c0,.49,0,.89,0,1.2a.67.67,0,0,1-.35.6,1.83,1.83,0,0,1-.53.18,3.21,3.21,0,0,1-.6.06s0,0-.05-.07a.72.72,0,0,1,0-.17v-.16a.88.88,0,0,1,0-.17s0-.07.05-.07a5,5,0,0,0,.6,0,1.34,1.34,0,0,0,.44-.14l-.13-1.31.52-.08Zm-.91,2.72.49.42-.41.48-.48-.4Z"/><path class="cls-4" d="M324.19,529.46a.38.38,0,0,1,.12.29.41.41,0,0,1-.12.3.39.39,0,0,1-.29.11.42.42,0,0,1-.34-.14.56.56,0,0,1-.14-.4,1.76,1.76,0,0,1,.13-.57,2.46,2.46,0,0,1,.33-.62l.29.28a4,4,0,0,0-.21.35,1.08,1.08,0,0,0-.11.28h0A.4.4,0,0,1,324.19,529.46Z"/><path class="cls-4" d="M325.43,530a.68.68,0,0,1-.24-.57,2,2,0,0,1,.61-1.23l-.23-.17.3-.45a3,3,0,0,1,1,.89,2.13,2.13,0,0,1,.32,1,.47.47,0,0,1,0,.17,1.67,1.67,0,0,1-.2.32.28.28,0,0,1-.09.07,2.42,2.42,0,0,1-.79.11A1,1,0,0,1,325.43,530Zm1.3-.5a1.32,1.32,0,0,0-.6-1.06,2.07,2.07,0,0,0-.35.46.92.92,0,0,0-.16.43.19.19,0,0,0,.1.19,1.27,1.27,0,0,0,.41,0A2.58,2.58,0,0,0,326.73,529.49Z"/><path class="cls-4" d="M329.47,529.55a.42.42,0,0,1,0,.17v.16a.42.42,0,0,1,0,.17c0,.05,0,.07,0,.07h-.13a1.15,1.15,0,0,1-.83-.25,1.29,1.29,0,0,1-.27-.89l-.09-2.89.52-.12.05,3a.49.49,0,0,0,.14.36.51.51,0,0,0,.36.13h.25S329.46,529.5,329.47,529.55Z"/><path class="cls-4" d="M332.28,529.55a.81.81,0,0,1,0,.17v.16a.81.81,0,0,1,0,.17c0,.05,0,.07,0,.07h-.48a.57.57,0,0,1-.32-.08.56.56,0,0,1-.21-.22,1.74,1.74,0,0,1-.66.23,7.13,7.13,0,0,1-1.14.07s0,0,0-.07a.72.72,0,0,1,0-.17v-.16a.88.88,0,0,1,0-.17s0-.07,0-.07c.32,0,.63,0,.92,0a3.17,3.17,0,0,0,.66-.13,1.91,1.91,0,0,0-.41-1.06,4.48,4.48,0,0,0-1.07-1l0-.53a12.34,12.34,0,0,1,1.93-.86l.06.54c-.53.2-1,.41-1.44.62l.15.11a3.68,3.68,0,0,1,.88,1,2.32,2.32,0,0,1,.3,1,.38.38,0,0,0,.11.24.63.63,0,0,0,.28.05h.42S332.26,529.5,332.28,529.55ZM330.7,526c-.36.15-.75.34-1.15.55l0-.45c.37-.19.73-.36,1.09-.51Z"/><path class="cls-4" d="M337,529.55a.42.42,0,0,1,0,.17v.16a.42.42,0,0,1,0,.17c0,.05,0,.07,0,.07h-.28a1.08,1.08,0,0,1-.42-.08.6.6,0,0,1-.27-.25.7.7,0,0,1-.35.25,1.29,1.29,0,0,1-.49.08.6.6,0,0,1-.62-.33.68.68,0,0,1-.32.25,1,1,0,0,1-.41.08.59.59,0,0,1-.61-.34,1.12,1.12,0,0,1-1,.34s0,0,0-.07a.72.72,0,0,1,0-.17v-.16a.47.47,0,0,1,0-.17s0-.07,0-.07a1.7,1.7,0,0,0,.75-.14v-.88h.47l0,.69c0,.14,0,.22.11.26a.76.76,0,0,0,.35.06.63.63,0,0,0,.43-.12l0-1.12h.47l0,1.16a.49.49,0,0,0,.32.09,1.2,1.2,0,0,0,.57-.12l-.12-1.37.51-.09.07,1.14a.51.51,0,0,0,.06.28.29.29,0,0,0,.15.12l.28,0H337S337,529.5,337,529.55Zm-2.91-2-.43-.37.36-.44.45.37Zm.41-.82-.43-.36.37-.44.43.37Zm0,.44.37-.43.43.36-.36.44Z"/><path class="cls-4" d="M338.43,527.91v.17c0,.49,0,.89,0,1.2a.67.67,0,0,1-.35.6,1.83,1.83,0,0,1-.53.18,3.23,3.23,0,0,1-.61.06s0,0,0-.07a.72.72,0,0,1,0-.17v-.16a.88.88,0,0,1,0-.17s0-.07,0-.07a5,5,0,0,0,.61,0,1.34,1.34,0,0,0,.44-.14l-.13-1.31Zm-.35-.59-.49-.41.41-.49.49.41Z"/><path class="cls-4" d="M339.8,526l.05,4.15-.45.07-.11-4.1Z"/><path class="cls-4" d="M343,528.4a2.2,2.2,0,0,1,.26,1,1.27,1.27,0,0,1,0,.29.59.59,0,0,1-.14.22,1.07,1.07,0,0,1-.49.24,2.86,2.86,0,0,1-.77.09,1.94,1.94,0,0,1-.62-.08.46.46,0,0,1-.3-.26,1.21,1.21,0,0,1-.09-.52,1.48,1.48,0,0,1,0-.23l.41,0v.08a.45.45,0,0,0,0,.23.25.25,0,0,0,.17.09h.41l.51,0a1.51,1.51,0,0,0,.45-.1,1.47,1.47,0,0,0-.26-.83,4.23,4.23,0,0,0-.74-.85l.34-.45A4.14,4.14,0,0,1,343,528.4Z"/><path class="cls-4" d="M345.15,529.71c.05-.32.12-.71.2-1.18l.4.09a15.17,15.17,0,0,0-.22,1.57.4.4,0,0,0,.29.45,1.94,1.94,0,0,0,.7.12,4.2,4.2,0,0,0,.72-.06,1.66,1.66,0,0,0,.57-.21l-.21-2.18.51-.12c.07.85.12,1.59.15,2.21a.76.76,0,0,1-.49.75,2.93,2.93,0,0,1-1.29.26,1.47,1.47,0,0,1-1.11-.33,1.06,1.06,0,0,1-.3-.73A5.06,5.06,0,0,1,345.15,529.71Zm1.94-2.26-.41.5-.49-.42.41-.48Z"/><path class="cls-4" d="M350.51,529.55a.42.42,0,0,1,0,.17v.16a.42.42,0,0,1,0,.17c0,.05,0,.07,0,.07h-.13a1.15,1.15,0,0,1-.83-.25,1.29,1.29,0,0,1-.27-.89l-.09-2.89.52-.12.05,3a.49.49,0,0,0,.14.36.51.51,0,0,0,.36.13h.25S350.5,529.5,350.51,529.55Z"/><path class="cls-4" d="M351.92,528.08q0,.74,0,1.2a.66.66,0,0,1-.34.6,1.94,1.94,0,0,1-.53.18,3.23,3.23,0,0,1-.61.06s0,0,0-.07a.72.72,0,0,1,0-.17v-.16a.88.88,0,0,1,0-.17s0-.07,0-.07a5,5,0,0,0,.61,0,1.34,1.34,0,0,0,.44-.14l-.13-1.31.52-.08ZM351,530.8l.49.42-.41.48-.48-.4Z"/><path class="cls-4" d="M354.23,529.55a.81.81,0,0,1,0,.17v.16a.81.81,0,0,1,0,.17c0,.05,0,.07,0,.07h-.14a1.16,1.16,0,0,1-.83-.25A1.29,1.29,0,0,1,353,529l-.09-2.89.52-.12.05,3a.49.49,0,0,0,.14.36.53.53,0,0,0,.36.13h.26S354.21,529.5,354.23,529.55Z"/><path class="cls-4" d="M356.34,529.55a.81.81,0,0,1,0,.17v.16a.81.81,0,0,1,0,.17c0,.05,0,.07,0,.07a2.2,2.2,0,0,1-.73-.09.46.46,0,0,1-.29-.3.67.67,0,0,1-.39.3,2.25,2.25,0,0,1-.7.09s0,0-.05-.07a.72.72,0,0,1,0-.17v-.16a.88.88,0,0,1,0-.17s0-.07.05-.07a1.87,1.87,0,0,0,.85-.15l-.11-1.14.51,0,.07,1.21a.55.55,0,0,0,.28.09,3.13,3.13,0,0,0,.51,0S356.32,529.5,356.34,529.55Zm-1.71,1.25.45.38-.38.44-.43-.37Zm.86,0,.45.37-.38.44-.44-.37Z"/><path class="cls-4" d="M359.24,528.28a2.35,2.35,0,0,0,.66.1l-.12.58a1.47,1.47,0,0,0-.52.12c-.16.07-.37.17-.62.31l-.19.11a6.4,6.4,0,0,1-1,.46,2.91,2.91,0,0,1-1,.16h-.16s0,0-.05-.07a.72.72,0,0,1,0-.17v-.16a.88.88,0,0,1,0-.17s0-.07.05-.07h.16a3.21,3.21,0,0,0,.74-.1,8.25,8.25,0,0,0,.79-.27l.44-.2a3.66,3.66,0,0,1,.37-.16l.11,0h0a3.69,3.69,0,0,1-.71-.23,2.12,2.12,0,0,0-.72-.2.22.22,0,0,0-.21.1.91.91,0,0,0-.1.28l-.4-.07A1.53,1.53,0,0,1,357,528a.52.52,0,0,1,.47-.22,1.34,1.34,0,0,1,.36.06l.6.21C358.73,528.12,359,528.21,359.24,528.28Zm-1.18-1.07-.48-.41.4-.48.49.4Z"/><path class="cls-4" d="M362.31,529.46a.38.38,0,0,1,.12.29.41.41,0,0,1-.12.3.39.39,0,0,1-.29.11.42.42,0,0,1-.34-.14.56.56,0,0,1-.14-.4,1.76,1.76,0,0,1,.13-.57,2.46,2.46,0,0,1,.33-.62l.29.28a4,4,0,0,0-.21.35,1.08,1.08,0,0,0-.11.28h0A.4.4,0,0,1,362.31,529.46Z"/><path class="cls-4" d="M363.38,529.71c.05-.32.12-.71.2-1.18l.4.09a15.17,15.17,0,0,0-.22,1.57.41.41,0,0,0,.29.45,1.94,1.94,0,0,0,.7.12,4.2,4.2,0,0,0,.72-.06,1.8,1.8,0,0,0,.58-.21l-.22-2.18.51-.12c.08.85.13,1.59.15,2.21a.76.76,0,0,1-.49.75,2.87,2.87,0,0,1-1.29.26,1.47,1.47,0,0,1-1.11-.33,1.09,1.09,0,0,1-.29-.73A4.52,4.52,0,0,1,363.38,529.71Zm1.94-2.26-.41.5-.49-.42.41-.48Z"/><path class="cls-4" d="M368.74,529.55a.42.42,0,0,1,0,.17v.16a.42.42,0,0,1,0,.17c0,.05,0,.07,0,.07h-.13a1.16,1.16,0,0,1-.83-.25,1.29,1.29,0,0,1-.27-.89l-.09-2.89.52-.12.05,3a.49.49,0,0,0,.14.36.51.51,0,0,0,.36.13h.25S368.73,529.5,368.74,529.55Z"/><path class="cls-4" d="M373.5,529.55a.81.81,0,0,1,0,.17v.16a.81.81,0,0,1,0,.17c0,.05,0,.07,0,.07h-.28a1.1,1.1,0,0,1-.43-.08.57.57,0,0,1-.26-.25.81.81,0,0,1-.35.25,1.35,1.35,0,0,1-.5.08.61.61,0,0,1-.62-.33.65.65,0,0,1-.31.25,1,1,0,0,1-.42.08.59.59,0,0,1-.61-.34c-.15.23-.48.34-1,.34,0,0,0,0,0-.07a.72.72,0,0,1,0-.17v-.16a.88.88,0,0,1,0-.17s0-.07,0-.07a1.67,1.67,0,0,0,.75-.14l0-.88h.46v.69c0,.14,0,.22.1.26a.76.76,0,0,0,.35.06.61.61,0,0,0,.43-.12l0-1.12h.48l0,1.16a.49.49,0,0,0,.32.09,1.28,1.28,0,0,0,.58-.12l-.13-1.37.52-.09.06,1.14a.78.78,0,0,0,.06.28.28.28,0,0,0,.16.12,1.3,1.3,0,0,0,.27,0h.34S373.49,529.5,373.5,529.55Z"/><path class="cls-4" d="M373.73,530.8l.45.38-.38.44-.43-.37Zm-.32-.75a.72.72,0,0,1,0-.17v-.16a.88.88,0,0,1,0-.17s0-.07,0-.07a5.19,5.19,0,0,0,.61,0,1.28,1.28,0,0,0,.43-.14l-.13-1.31.52-.08v.17c0,.49,0,.89,0,1.2a.67.67,0,0,1-.35.6,1.83,1.83,0,0,1-.53.18,3.21,3.21,0,0,1-.6.06S373.43,530.1,373.41,530.05Zm1.63,1.12-.38.44-.44-.37.38-.44Z"/><path class="cls-4" d="M377.89,528.4a2.2,2.2,0,0,1,.26,1,1.27,1.27,0,0,1,0,.29.74.74,0,0,1-.14.22,1.07,1.07,0,0,1-.49.24,2.86,2.86,0,0,1-.77.09,1.94,1.94,0,0,1-.62-.08.51.51,0,0,1-.31-.26,1.42,1.42,0,0,1-.08-.52v-.23l.42,0v.08a.45.45,0,0,0,0,.23.25.25,0,0,0,.17.09h.41l.51,0a1.51,1.51,0,0,0,.45-.1,1.56,1.56,0,0,0-.26-.83,4,4,0,0,0-.75-.85l.35-.45A4.14,4.14,0,0,1,377.89,528.4Z"/><path class="cls-4" d="M380.77,529.55a.81.81,0,0,1,0,.17v.16a.81.81,0,0,1,0,.17c0,.05,0,.07,0,.07h-.16a.9.9,0,0,1-.72-.26v0a1.47,1.47,0,0,1-.4,1,3.81,3.81,0,0,1-1.25.86l-.31-.51a4.51,4.51,0,0,0,1-.59,1.56,1.56,0,0,0,.48-.58l-.19-1.68.51-.13.08.78a.59.59,0,0,0,.12.31.46.46,0,0,0,.24.12l.43,0h.15S380.75,529.5,380.77,529.55Z"/><path class="cls-4" d="M381,531.55l-.43-.36.37-.44.44.37Zm-.35-1.5a.72.72,0,0,1,0-.17v-.16a.88.88,0,0,1,0-.17s0-.07.05-.07a4.87,4.87,0,0,0,.6,0,1.34,1.34,0,0,0,.44-.14l-.13-1.31.52-.08v.17c0,.49,0,.89,0,1.2a.67.67,0,0,1-.35.6,1.83,1.83,0,0,1-.53.18,3.21,3.21,0,0,1-.6.06S380.7,530.1,380.68,530.05Zm.71,1.5.44.37-.37.43L381,532Zm.86-.44-.36.44-.44-.37.37-.44Z"/><path class="cls-4" d="M302.72,543.64l-.09.31a.18.18,0,0,1-.2.15h-.2a.16.16,0,0,1-.18-.18v-4.53a.16.16,0,0,1,.18-.18h.35a.16.16,0,0,1,.18.18v1.46a.73.73,0,0,1,.71-.44c.51,0,.77.33.77,1v1.76c0,.68-.26,1-.77,1A.75.75,0,0,1,302.72,543.64Zm.81-2.18c0-.33-.11-.45-.35-.45a.45.45,0,0,0-.42.5v1.57a.44.44,0,0,0,.42.49c.24,0,.35-.12.35-.44Z"/><path class="cls-4" d="M304.63,543.24v-.06a1,1,0,0,1,.32-.82,2.18,2.18,0,0,1,.63-.37l.28-.14a.46.46,0,0,0,.25-.35v0c0-.3-.11-.45-.36-.45s-.37.15-.37.45v.09a.16.16,0,0,1-.18.18h-.3a.17.17,0,0,1-.18-.19c0-.76.35-1.13,1.06-1.13s1.05.38,1.05,1.14v1.37a7.78,7.78,0,0,0,0,1c0,.13,0,.19-.16.19h-.32a.19.19,0,0,1-.21-.15,2,2,0,0,1,0-.29.75.75,0,0,1-.73.52C304.89,544.18,304.63,543.87,304.63,543.24Zm1.48-.16v-.76l-.16.08a1.85,1.85,0,0,0-.42.24.57.57,0,0,0-.19.47v0c0,.31.12.42.35.42A.45.45,0,0,0,306.11,543.08Z"/><path class="cls-4" d="M307.27,543.08a.16.16,0,0,1,.18-.18h.29a.17.17,0,0,1,.19.18v.07c0,.31.12.46.37.46s.37-.14.37-.43v-.06c0-.25-.16-.35-.53-.51a2,2,0,0,1-.58-.35,1,1,0,0,1-.29-.8v0a1.06,1.06,0,0,1,2.11,0,.16.16,0,0,1-.18.18h-.3a.16.16,0,0,1-.18-.18v0c0-.3-.12-.46-.37-.46s-.38.15-.38.44v0a.39.39,0,0,0,.16.33,2.09,2.09,0,0,0,.37.19,1.69,1.69,0,0,1,.48.26,1,1,0,0,1,.4.89v0a.94.94,0,0,1-1.06,1C307.62,544.18,307.27,543.82,307.27,543.08Z"/><path class="cls-4" d="M309.74,543.24v-.06a1,1,0,0,1,.32-.82,2,2,0,0,1,.62-.37l.28-.14a.45.45,0,0,0,.26-.35v0c0-.3-.12-.45-.37-.45s-.37.15-.37.45v.09a.16.16,0,0,1-.18.18H310a.17.17,0,0,1-.18-.19c0-.76.36-1.13,1.06-1.13s1.05.38,1.05,1.14v1.37a7.78,7.78,0,0,0,0,1c0,.13,0,.19-.16.19h-.32a.17.17,0,0,1-.2-.15,1.92,1.92,0,0,1-.05-.29.75.75,0,0,1-.73.52C310,544.18,309.74,543.87,309.74,543.24Zm1.48-.16v-.76l-.16.08a1.66,1.66,0,0,0-.42.24.57.57,0,0,0-.2.47v0c0,.31.12.42.35.42A.46.46,0,0,0,311.22,543.08Z"/><path class="cls-4" d="M313.18,543.92a.16.16,0,0,1-.18.18h-.35a.16.16,0,0,1-.18-.18v-4.53a.16.16,0,0,1,.18-.18H313a.16.16,0,0,1,.18.18Z"/><path class="cls-4" d="M313.64,543.24v-.06a1,1,0,0,1,.32-.82,2,2,0,0,1,.62-.37l.28-.14a.45.45,0,0,0,.26-.35v0c0-.3-.12-.45-.37-.45s-.37.15-.37.45v.09a.16.16,0,0,1-.18.18h-.3a.17.17,0,0,1-.18-.19c0-.76.36-1.13,1.06-1.13s1.05.38,1.05,1.14v1.37a7.78,7.78,0,0,0,0,1c0,.13,0,.19-.16.19h-.32a.17.17,0,0,1-.2-.15,1.19,1.19,0,0,1,0-.29.77.77,0,0,1-.74.52C313.89,544.18,313.64,543.87,313.64,543.24Zm1.48-.16v-.76l-.16.08a1.66,1.66,0,0,0-.42.24.57.57,0,0,0-.2.47v0c0,.31.12.42.35.42A.46.46,0,0,0,315.12,543.08Z"/><path class="cls-4" d="M316.55,544.1a.16.16,0,0,1-.18-.18v-3.25a.17.17,0,0,1,.18-.19h.3a.17.17,0,0,1,.18.19v.3a.75.75,0,0,1,.74-.56.64.64,0,0,1,.69.53.76.76,0,0,1,.74-.53c.5,0,.75.33.75,1v2.51a.16.16,0,0,1-.18.18h-.35a.16.16,0,0,1-.18-.18v-2.46c0-.33-.1-.45-.33-.45s-.4.21-.4.5v2.41a.16.16,0,0,1-.18.18H318a.16.16,0,0,1-.18-.18v-2.46c0-.33-.1-.45-.33-.45s-.4.21-.4.5v2.41a.16.16,0,0,1-.18.18Z"/><path class="cls-4" d="M320.69,544.1a.16.16,0,0,1-.18-.18v-.7a.16.16,0,0,1,.18-.18H321a.16.16,0,0,1,.18.18v.7a.16.16,0,0,1-.18.18Z"/><path class="cls-4" d="M321.75,541.56c0-.77.36-1.15,1.07-1.15s1.07.38,1.07,1.15v.15c0,.09-.06.14-.18.14h-.3a.16.16,0,0,1-.18-.18v-.21c0-.3-.12-.45-.38-.45s-.39.15-.39.45v1.67c0,.3.13.44.39.44s.38-.14.38-.44v-.28a.17.17,0,0,1,.18-.19h.3a.17.17,0,0,1,.18.19V543c0,.77-.36,1.15-1.07,1.15s-1.07-.38-1.07-1.15Z"/><path class="cls-4" d="M324.3,543v-1.47c0-.77.37-1.15,1.1-1.15s1.09.38,1.09,1.15V543c0,.77-.36,1.15-1.09,1.15S324.3,543.8,324.3,543Zm1.48.1v-1.67c0-.3-.12-.45-.38-.45s-.39.15-.39.45v1.67c0,.3.13.44.39.44S325.78,543.43,325.78,543.13Z"/><path class="cls-4" d="M327.18,544.1a.16.16,0,0,1-.18-.18v-3.25a.17.17,0,0,1,.18-.19h.3a.17.17,0,0,1,.18.19v.3a.75.75,0,0,1,.74-.56.64.64,0,0,1,.69.53.76.76,0,0,1,.74-.53c.5,0,.75.33.75,1v2.51a.16.16,0,0,1-.18.18h-.35a.16.16,0,0,1-.18-.18v-2.46c0-.33-.1-.45-.33-.45s-.39.21-.39.5v2.41a.17.17,0,0,1-.19.18h-.34a.16.16,0,0,1-.18-.18v-2.46c0-.33-.1-.45-.33-.45s-.4.21-.4.5v2.41a.16.16,0,0,1-.18.18Z"/><path class="cls-4" d="M256.09,554.9v-.8h3.8v.8h-1.42v3.82h-1V554.9Z"/><path class="cls-4" d="M265.64,558.78a1.35,1.35,0,0,1-.87-.28,1.69,1.69,0,0,1-.55-.81,4.41,4.41,0,0,1,0-2.56,1.69,1.69,0,0,1,.55-.81,1.44,1.44,0,0,1,1.73,0,1.63,1.63,0,0,1,.55.81,4.41,4.41,0,0,1,0,2.56,1.68,1.68,0,0,1-.54.81A1.35,1.35,0,0,1,265.64,558.78Zm0-.49a.87.87,0,0,0,.78-.49,2.8,2.8,0,0,0,.28-1.39,3.37,3.37,0,0,0-.13-1,1.35,1.35,0,0,0-.36-.65.85.85,0,0,0-.57-.22.89.89,0,0,0-.79.49,3,3,0,0,0-.28,1.4,3.37,3.37,0,0,0,.13,1,1.36,1.36,0,0,0,.36.64A.85.85,0,0,0,265.64,558.29Z"/><path class="cls-4" d="M268.09,558.72v-.41l1.52-1.67q.27-.28.45-.51a1.67,1.67,0,0,0,.25-.41.93.93,0,0,0,.09-.4.75.75,0,0,0-.12-.43.81.81,0,0,0-.31-.27,1,1,0,0,0-.46-.1,1,1,0,0,0-.46.11.75.75,0,0,0-.3.31.85.85,0,0,0-.11.46h-.53a1.43,1.43,0,0,1,.18-.72,1.35,1.35,0,0,1,.51-.47,1.49,1.49,0,0,1,.73-.18,1.43,1.43,0,0,1,.72.18,1.25,1.25,0,0,1,.67,1.11,1.37,1.37,0,0,1-.09.49,2,2,0,0,1-.32.54,7.39,7.39,0,0,1-.62.73l-1,1.11v0H271v.5Z"/><path class="cls-4" d="M273.36,558.78a1.51,1.51,0,0,1-.71-.16,1.34,1.34,0,0,1-.51-.43,1.13,1.13,0,0,1-.21-.63h.54a.73.73,0,0,0,.29.52.91.91,0,0,0,.6.21,1,1,0,0,0,.51-.14.93.93,0,0,0,.35-.36,1.07,1.07,0,0,0,.13-.53,1.13,1.13,0,0,0-.13-.54,1,1,0,0,0-.37-.38,1,1,0,0,0-.52-.14,1.72,1.72,0,0,0-.44.06,1.42,1.42,0,0,0-.37.18l-.52-.07.28-2.27h2.4v.49h-1.93l-.16,1.37h0a1.06,1.06,0,0,1,.35-.19,1.33,1.33,0,0,1,.45-.07,1.42,1.42,0,0,1,.76.2,1.45,1.45,0,0,1,.52.55,1.72,1.72,0,0,1,0,1.59,1.4,1.4,0,0,1-.54.54A1.48,1.48,0,0,1,273.36,558.78Z"/><path class="cls-4" d="M277.77,556.16v.5h-2v-.5Z"/><path class="cls-4" d="M280.15,554a1.92,1.92,0,0,1,.57.11,1.45,1.45,0,0,1,.52.35,1.87,1.87,0,0,1,.38.67,3.49,3.49,0,0,1,.14,1.06,4.49,4.49,0,0,1-.12,1.09,2.3,2.3,0,0,1-.33.81,1.54,1.54,0,0,1-.53.49,1.37,1.37,0,0,1-.7.17,1.52,1.52,0,0,1-.69-.15,1.49,1.49,0,0,1-.5-.43,1.42,1.42,0,0,1-.24-.65h.55a1.06,1.06,0,0,0,.29.53.84.84,0,0,0,.59.21,1,1,0,0,0,.85-.47,2.43,2.43,0,0,0,.31-1.32h0a1.55,1.55,0,0,1-.3.33,1.33,1.33,0,0,1-.84.28,1.31,1.31,0,0,1-.72-.2,1.38,1.38,0,0,1-.53-.54,1.68,1.68,0,0,1,0-1.57,1.45,1.45,0,0,1,.54-.56A1.53,1.53,0,0,1,280.15,554Zm0,.5a1,1,0,0,0-.51.14,1.09,1.09,0,0,0-.36.38,1.19,1.19,0,0,0-.13.53,1,1,0,0,0,.13.52.95.95,0,0,0,.86.52.86.86,0,0,0,.39-.09,1,1,0,0,0,.33-.23,1.33,1.33,0,0,0,.22-.34,1,1,0,0,0,.08-.39,1.14,1.14,0,0,0-.13-.51,1.09,1.09,0,0,0-.36-.38A.91.91,0,0,0,280.15,554.53Z"/><path class="cls-4" d="M284.26,554.1v4.62h-.56v-4h0l-1.13.75v-.57l1.16-.76Z"/><path class="cls-4" d="M287.08,558.78a1.35,1.35,0,0,1-.87-.28,1.69,1.69,0,0,1-.55-.81,4.41,4.41,0,0,1,0-2.56,1.69,1.69,0,0,1,.55-.81,1.36,1.36,0,0,1,.87-.29,1.33,1.33,0,0,1,.86.29,1.63,1.63,0,0,1,.55.81,3.71,3.71,0,0,1,.19,1.28,4,4,0,0,1-.18,1.28,1.69,1.69,0,0,1-.55.81A1.35,1.35,0,0,1,287.08,558.78Zm0-.49a.86.86,0,0,0,.78-.49,2.8,2.8,0,0,0,.28-1.39,3.76,3.76,0,0,0-.12-1,1.45,1.45,0,0,0-.37-.65.85.85,0,0,0-.57-.22.89.89,0,0,0-.79.49,3,3,0,0,0-.28,1.4,3.37,3.37,0,0,0,.13,1,1.36,1.36,0,0,0,.36.64A.85.85,0,0,0,287.08,558.29Z"/><path class="cls-4" d="M291,558.78a1.35,1.35,0,0,1-.87-.28,1.69,1.69,0,0,1-.55-.81,4.41,4.41,0,0,1,0-2.56,1.69,1.69,0,0,1,.55-.81,1.44,1.44,0,0,1,1.73,0,1.63,1.63,0,0,1,.55.81,4.41,4.41,0,0,1,0,2.56,1.68,1.68,0,0,1-.54.81A1.35,1.35,0,0,1,291,558.78Zm0-.49a.87.87,0,0,0,.78-.49,2.8,2.8,0,0,0,.28-1.39,3.37,3.37,0,0,0-.13-1,1.35,1.35,0,0,0-.36-.65.85.85,0,0,0-.57-.22.89.89,0,0,0-.79.49,3,3,0,0,0-.28,1.4,3.37,3.37,0,0,0,.13,1,1.36,1.36,0,0,0,.36.64A.85.85,0,0,0,291,558.29Z"/><path class="cls-4" d="M295.05,558.78a2,2,0,0,1-.8-.15,1.39,1.39,0,0,1-.55-.43,1.15,1.15,0,0,1-.22-.64h.57a.67.67,0,0,0,.15.39.86.86,0,0,0,.36.25,1.21,1.21,0,0,0,.48.09,1.25,1.25,0,0,0,.53-.11.86.86,0,0,0,.36-.29.69.69,0,0,0,.13-.43.77.77,0,0,0-.13-.45.75.75,0,0,0-.37-.3,1.32,1.32,0,0,0-.59-.11h-.37v-.5H295a1.06,1.06,0,0,0,.48-.1.75.75,0,0,0,.33-.28.74.74,0,0,0,.12-.42.78.78,0,0,0-.11-.41.59.59,0,0,0-.29-.27.87.87,0,0,0-.44-.1,1.13,1.13,0,0,0-.45.09.9.9,0,0,0-.35.25.74.74,0,0,0-.14.39h-.54a1.07,1.07,0,0,1,.22-.63,1.22,1.22,0,0,1,.54-.43,1.74,1.74,0,0,1,.73-.16,1.41,1.41,0,0,1,.73.18,1.08,1.08,0,0,1,.47.45,1.19,1.19,0,0,1,.17.61,1.15,1.15,0,0,1-.2.67,1.1,1.1,0,0,1-.56.38v0a1.13,1.13,0,0,1,.69.38,1.11,1.11,0,0,1,.24.73,1.21,1.21,0,0,1-.2.68,1.36,1.36,0,0,1-.56.47A1.85,1.85,0,0,1,295.05,558.78Z"/><path class="cls-4" d="M299.14,554.1v4.62h-.56v-4h0l-1.13.75v-.57l1.15-.76Z"/><path class="cls-4" d="M300.6,558.72l2.07-4.09v0h-2.38v-.49h3v.52l-2.06,4.1Z"/><path class="cls-4" d="M305.45,558.78a1.51,1.51,0,0,1-.71-.16,1.34,1.34,0,0,1-.51-.43,1.13,1.13,0,0,1-.21-.63h.54a.73.73,0,0,0,.29.52.91.91,0,0,0,.6.21,1,1,0,0,0,.51-.14.93.93,0,0,0,.35-.36,1.07,1.07,0,0,0,.13-.53,1.13,1.13,0,0,0-.13-.54,1,1,0,0,0-.37-.38,1,1,0,0,0-.52-.14,1.72,1.72,0,0,0-.44.06,1.42,1.42,0,0,0-.37.18l-.52-.07.28-2.27h2.4v.49h-1.93l-.16,1.37h0a1.06,1.06,0,0,1,.35-.19,1.33,1.33,0,0,1,.45-.07,1.42,1.42,0,0,1,.76.2,1.45,1.45,0,0,1,.52.55,1.72,1.72,0,0,1,0,1.59,1.4,1.4,0,0,1-.54.54A1.48,1.48,0,0,1,305.45,558.78Z"/><path class="cls-4" d="M313.11,558.72V554.1h3.11v.8h-2.14V556h2v.81h-2v1.1h2.15v.81Z"/><path class="cls-4" d="M320.89,554.68a.4.4,0,0,1-.27-.11.36.36,0,0,1-.11-.26.34.34,0,0,1,.11-.25.4.4,0,0,1,.27-.11.37.37,0,0,1,.27.11.34.34,0,0,1,.11.25.36.36,0,0,1-.11.26A.37.37,0,0,1,320.89,554.68Zm-.27,4v-3.47h.53v3.47Z"/><path class="cls-4" d="M322.65,556.63v2.09h-.53v-3.47h.51v.54h.05a1,1,0,0,1,.37-.42,1.13,1.13,0,0,1,.64-.16,1.31,1.31,0,0,1,.61.14,1,1,0,0,1,.41.43,1.62,1.62,0,0,1,.15.74v2.2h-.53v-2.17a.89.89,0,0,0-.21-.63.75.75,0,0,0-.59-.23.84.84,0,0,0-.45.11.82.82,0,0,0-.32.32A1.13,1.13,0,0,0,322.65,556.63Z"/><path class="cls-4" d="M327.37,555.25v.45H325.5v-.45Zm-1.31,3.47v-4a.79.79,0,0,1,.14-.49.88.88,0,0,1,.36-.3,1.1,1.1,0,0,1,.47-.1,1.39,1.39,0,0,1,.32,0l.19.06-.16.46-.11,0a.5.5,0,0,0-.18,0,.46.46,0,0,0-.38.13.57.57,0,0,0-.12.39v3.82Z"/><path class="cls-4" d="M329.37,558.79a1.51,1.51,0,0,1-.83-.22,1.54,1.54,0,0,1-.55-.63,2.42,2.42,0,0,1,0-1.88,1.54,1.54,0,0,1,.55-.63,1.66,1.66,0,0,1,1.65,0,1.54,1.54,0,0,1,.55.63,2.31,2.31,0,0,1,0,1.88,1.54,1.54,0,0,1-.55.63A1.5,1.5,0,0,1,329.37,558.79Zm0-.48a.91.91,0,0,0,.58-.18,1,1,0,0,0,.34-.48,1.71,1.71,0,0,0,.11-.65,1.69,1.69,0,0,0-.11-.64,1,1,0,0,0-.34-.49.91.91,0,0,0-.58-.18.92.92,0,0,0-.59.18,1.09,1.09,0,0,0-.34.49,1.69,1.69,0,0,0-.11.64,1.71,1.71,0,0,0,.11.65,1.05,1.05,0,0,0,.34.48A.92.92,0,0,0,329.37,558.31Z"/><path class="cls-4" d="M334.4,559.94a3.76,3.76,0,0,1-1.22-.19,2.26,2.26,0,0,1-.89-.56,2.31,2.31,0,0,1-.55-.89,3.76,3.76,0,0,1-.18-1.21,3.63,3.63,0,0,1,.18-1.19,2.48,2.48,0,0,1,.55-.88,2.29,2.29,0,0,1,.88-.56,3.26,3.26,0,0,1,1.17-.19,2.75,2.75,0,0,1,1.11.21,2.38,2.38,0,0,1,.8.55,2.58,2.58,0,0,1,.48.79,2.51,2.51,0,0,1,.16.9c0,.22,0,.44,0,.67a2.74,2.74,0,0,1-.13.61,1.09,1.09,0,0,1-.32.46.9.9,0,0,1-.57.17,1.47,1.47,0,0,1-.34,0,.84.84,0,0,1-.34-.17.41.41,0,0,1-.17-.31h0a.7.7,0,0,1-.17.25.77.77,0,0,1-.29.19,1,1,0,0,1-.44.06,1.2,1.2,0,0,1-.51-.13,1.1,1.1,0,0,1-.38-.33,1.47,1.47,0,0,1-.22-.49,2.21,2.21,0,0,1-.08-.59,1.64,1.64,0,0,1,.09-.56,1.28,1.28,0,0,1,.26-.44,1.23,1.23,0,0,1,.37-.31,1.59,1.59,0,0,1,.47-.14,1.88,1.88,0,0,1,.42,0,.83.83,0,0,1,.3.13.32.32,0,0,1,.15.18h0v-.25h.48v2a.56.56,0,0,0,.1.33.35.35,0,0,0,.31.14.41.41,0,0,0,.35-.15,1,1,0,0,0,.17-.49,5,5,0,0,0,.05-.85,2.33,2.33,0,0,0-.08-.59,2.11,2.11,0,0,0-.25-.55,1.67,1.67,0,0,0-.42-.46,2.06,2.06,0,0,0-.59-.31,2.6,2.6,0,0,0-.77-.11,2.55,2.55,0,0,0-.95.17,1.84,1.84,0,0,0-.71.47,2.13,2.13,0,0,0-.45.76,3.2,3.2,0,0,0-.15,1,3.24,3.24,0,0,0,.15,1,2.2,2.2,0,0,0,.46.75,1.79,1.79,0,0,0,.74.46,2.88,2.88,0,0,0,1,.16,2.7,2.7,0,0,0,.49,0,3.16,3.16,0,0,0,.42-.11l.27-.08.13.41-.37.12-.48.1A4.23,4.23,0,0,1,334.4,559.94Zm-.26-1.8a.91.91,0,0,0,.49-.12.71.71,0,0,0,.27-.37A1.81,1.81,0,0,0,335,557a1.53,1.53,0,0,0-.1-.59.59.59,0,0,0-.28-.3,1,1,0,0,0-.45-.08.7.7,0,0,0-.44.13.77.77,0,0,0-.28.36,1.12,1.12,0,0,0-.1.48,1.91,1.91,0,0,0,.08.54.82.82,0,0,0,.25.41A.65.65,0,0,0,334.14,558.14Z"/><path class="cls-4" d="M337.74,558.72V554.1h.54v1.7h0l.16-.23a1,1,0,0,1,.31-.25,1,1,0,0,1,.53-.11,1.34,1.34,0,0,1,.77.22,1.41,1.41,0,0,1,.53.62,2.25,2.25,0,0,1,.18.94,2.35,2.35,0,0,1-.18,1,1.52,1.52,0,0,1-.52.62,1.34,1.34,0,0,1-.77.22,1.13,1.13,0,0,1-.53-.11.91.91,0,0,1-.31-.26l-.17-.23h-.06v.53Zm.53-1.73a2.08,2.08,0,0,0,.11.69,1,1,0,0,0,.34.46.83.83,0,0,0,.54.17.93.93,0,0,0,.56-.17,1.13,1.13,0,0,0,.34-.48,2,2,0,0,0,.11-.67,1.9,1.9,0,0,0-.11-.66,1,1,0,0,0-.34-.47.85.85,0,0,0-.56-.17.9.9,0,0,0-.55.16,1.07,1.07,0,0,0-.33.46A1.76,1.76,0,0,0,338.27,557Z"/><path class="cls-4" d="M342.62,558.8a1.32,1.32,0,0,1-.6-.13,1,1,0,0,1-.58-.94.9.9,0,0,1,.12-.48.86.86,0,0,1,.31-.29,1.54,1.54,0,0,1,.44-.16c.15,0,.31-.06.48-.09l.51-.06a.81.81,0,0,0,.29-.07.19.19,0,0,0,.09-.18v0a.73.73,0,0,0-.18-.52.76.76,0,0,0-.55-.18,1,1,0,0,0-.6.16,1,1,0,0,0-.3.36l-.51-.18a1.23,1.23,0,0,1,.36-.49,1.38,1.38,0,0,1,.5-.25,2,2,0,0,1,.53-.07,1.82,1.82,0,0,1,.38,0,1.19,1.19,0,0,1,.43.16,1,1,0,0,1,.34.37,1.36,1.36,0,0,1,.13.66v2.28h-.53v-.47h0a.71.71,0,0,1-.18.24,1,1,0,0,1-.33.22A1.35,1.35,0,0,1,342.62,558.8Zm.08-.48a1.13,1.13,0,0,0,.54-.12,1,1,0,0,0,.33-.32.88.88,0,0,0,.11-.42V557a.34.34,0,0,1-.15.07l-.26.06-.29,0-.22,0a1.59,1.59,0,0,0-.39.08.71.71,0,0,0-.29.18.48.48,0,0,0-.11.32.46.46,0,0,0,.21.42A.94.94,0,0,0,342.7,558.32Z"/><path class="cls-4" d="M347.63,556l-.48.13a.89.89,0,0,0-.13-.23.65.65,0,0,0-.24-.19.83.83,0,0,0-.38-.07,1,1,0,0,0-.53.14.44.44,0,0,0-.21.37.39.39,0,0,0,.15.32,1.2,1.2,0,0,0,.45.19l.51.12a1.4,1.4,0,0,1,.69.35.77.77,0,0,1,.23.59.87.87,0,0,1-.17.54,1.18,1.18,0,0,1-.47.37,1.76,1.76,0,0,1-.71.13,1.57,1.57,0,0,1-.88-.23,1,1,0,0,1-.44-.67l.51-.13a.66.66,0,0,0,.27.42.85.85,0,0,0,.53.14,1,1,0,0,0,.59-.16.44.44,0,0,0,.22-.38.38.38,0,0,0-.13-.3.72.72,0,0,0-.38-.19l-.58-.13a1.39,1.39,0,0,1-.7-.35.93.93,0,0,1-.06-1.12,1.09,1.09,0,0,1,.46-.35,1.51,1.51,0,0,1,.65-.13,1.32,1.32,0,0,1,.81.22A1.18,1.18,0,0,1,347.63,556Z"/><path class="cls-4" d="M349.5,558.8a1.32,1.32,0,0,1-.6-.13,1,1,0,0,1-.58-.94.9.9,0,0,1,.12-.48.86.86,0,0,1,.31-.29,1.54,1.54,0,0,1,.44-.16c.15,0,.31-.06.47-.09l.52-.06a.81.81,0,0,0,.29-.07.19.19,0,0,0,.09-.18v0a.73.73,0,0,0-.18-.52.76.76,0,0,0-.55-.18,1,1,0,0,0-.6.16,1,1,0,0,0-.31.36l-.5-.18a1.23,1.23,0,0,1,.36-.49,1.38,1.38,0,0,1,.5-.25,1.93,1.93,0,0,1,.53-.07,1.82,1.82,0,0,1,.38,0,1.19,1.19,0,0,1,.43.16,1,1,0,0,1,.34.37,1.36,1.36,0,0,1,.13.66v2.28h-.53v-.47h0a.88.88,0,0,1-.18.24,1,1,0,0,1-.34.22A1.29,1.29,0,0,1,349.5,558.8Zm.08-.48a1.13,1.13,0,0,0,.54-.12,1,1,0,0,0,.33-.32.88.88,0,0,0,.11-.42V557a.34.34,0,0,1-.15.07l-.26.06-.29,0-.22,0a1.59,1.59,0,0,0-.39.08.65.65,0,0,0-.29.18.48.48,0,0,0-.11.32.46.46,0,0,0,.21.42A.94.94,0,0,0,349.58,558.32Z"/><path class="cls-4" d="M352.59,554.1v4.62h-.54V554.1Z"/><path class="cls-4" d="M354.57,558.8a1.32,1.32,0,0,1-.6-.13,1,1,0,0,1-.43-.36,1.06,1.06,0,0,1-.15-.58.77.77,0,0,1,.43-.77,1.47,1.47,0,0,1,.43-.16l.48-.09.51-.06a.81.81,0,0,0,.29-.07.19.19,0,0,0,.09-.18v0a.73.73,0,0,0-.18-.52.74.74,0,0,0-.55-.18,1,1,0,0,0-.6.16,1.09,1.09,0,0,0-.3.36l-.51-.18a1.25,1.25,0,0,1,.37-.49,1.34,1.34,0,0,1,.49-.25,2,2,0,0,1,.53-.07,1.91,1.91,0,0,1,.39,0,1.21,1.21,0,0,1,.42.16.88.88,0,0,1,.34.37,1.35,1.35,0,0,1,.14.66v2.28h-.54v-.47h0a1.15,1.15,0,0,1-.18.24,1.05,1.05,0,0,1-.34.22A1.29,1.29,0,0,1,354.57,558.8Zm.08-.48a1.07,1.07,0,0,0,.53-.12.85.85,0,0,0,.33-.32.78.78,0,0,0,.11-.42V557a.35.35,0,0,1-.14.07l-.27.06-.28,0-.23,0a1.51,1.51,0,0,0-.38.08.65.65,0,0,0-.29.18.43.43,0,0,0-.11.32.48.48,0,0,0,.2.42A1,1,0,0,0,354.65,558.32Z"/><path class="cls-4" d="M357.12,558.72v-3.47h.51v.54h.05a.92.92,0,0,1,.35-.43,1.06,1.06,0,0,1,.58-.15,1,1,0,0,1,.57.15,1.17,1.17,0,0,1,.36.43h0a1,1,0,0,1,.4-.42,1.19,1.19,0,0,1,.64-.16,1,1,0,0,1,.76.29,1.19,1.19,0,0,1,.3.9v2.32h-.54V556.4a.65.65,0,0,0-.21-.55.76.76,0,0,0-.49-.16.74.74,0,0,0-.57.22.79.79,0,0,0-.2.55v2.26h-.54v-2.38a.61.61,0,0,0-.19-.47.69.69,0,0,0-.49-.18.68.68,0,0,0-.39.11.76.76,0,0,0-.29.3.94.94,0,0,0-.11.45v2.17Z"/><path class="cls-4" d="M363,558.75a.44.44,0,0,1-.29-.11.41.41,0,0,1,.29-.7.38.38,0,0,1,.28.12.4.4,0,0,1,.12.29.35.35,0,0,1-.05.2.54.54,0,0,1-.15.15A.35.35,0,0,1,363,558.75Z"/><path class="cls-4" d="M365.78,558.79a1.51,1.51,0,0,1-.84-.23,1.47,1.47,0,0,1-.55-.63,2.27,2.27,0,0,1-.18-.93,2.12,2.12,0,0,1,.19-.93,1.47,1.47,0,0,1,.55-.63,1.39,1.39,0,0,1,.82-.23,1.59,1.59,0,0,1,.66.13,1.37,1.37,0,0,1,.48.38,1.21,1.21,0,0,1,.23.57h-.53a.8.8,0,0,0-.27-.42.84.84,0,0,0-.56-.18.94.94,0,0,0-.55.16,1,1,0,0,0-.36.45,1.63,1.63,0,0,0-.13.69,1.9,1.9,0,0,0,.12.7,1.13,1.13,0,0,0,.37.46,1,1,0,0,0,.92.09.78.78,0,0,0,.29-.21.9.9,0,0,0,.17-.32h.53a1.33,1.33,0,0,1-.22.55,1.38,1.38,0,0,1-.47.39A1.57,1.57,0,0,1,365.78,558.79Z"/><path class="cls-4" d="M369.31,558.79a1.45,1.45,0,0,1-1.37-.85,2.31,2.31,0,0,1,0-1.88,1.51,1.51,0,0,1,2.74,0,2.31,2.31,0,0,1,0,1.88,1.45,1.45,0,0,1-1.37.85Zm0-.48a.94.94,0,0,0,.59-.18,1.13,1.13,0,0,0,.34-.48,1.95,1.95,0,0,0,0-1.29,1.17,1.17,0,0,0-.34-.49,1.06,1.06,0,0,0-1.18,0,1.17,1.17,0,0,0-.34.49,1.95,1.95,0,0,0,0,1.29,1.13,1.13,0,0,0,.34.48A.94.94,0,0,0,369.31,558.31Z"/><path class="cls-4" d="M371.68,558.72v-3.47h.51v.54h.05a.92.92,0,0,1,.35-.43,1.06,1.06,0,0,1,.58-.15,1,1,0,0,1,.57.15,1.17,1.17,0,0,1,.36.43h0a1,1,0,0,1,.39-.42,1.22,1.22,0,0,1,.64-.16,1,1,0,0,1,.76.29,1.19,1.19,0,0,1,.3.9v2.32h-.53V556.4a.65.65,0,0,0-.21-.55.79.79,0,0,0-.5-.16.7.7,0,0,0-.56.22.75.75,0,0,0-.2.55v2.26h-.55v-2.38a.61.61,0,0,0-.19-.47.69.69,0,0,0-.49-.18.68.68,0,0,0-.39.11.84.84,0,0,0-.29.3.94.94,0,0,0-.11.45v2.17Z"/></g></svg>