<svg xmlns="http://www.w3.org/2000/svg" viewBox="0 0 648 648"><defs><style>.cls-1{fill:#ff5c35;}.cls-2{fill:#222221;}</style></defs><g id="Graphic"><path class="cls-1" d="M332.71,434.33c-10.67,17-33.06,35.51-73.41,35.56a25.57,25.57,0,0,1,1,16c-1.87,6.75-6.74,12.36-13.71,15.78A24.2,24.2,0,0,1,236,504.11c-9.16,0-20.41-5.18-24.57-19.7a58.19,58.19,0,0,1-2.33-20l-3.17.39L189.78,411l44.33-13.61,4.09-1.55c25.55-10.53,29.4-31.12,29.6-41.51-10.5-10.3-22-27.82-24.49-56.22l-.19-2.18L239,238c-1.28-18,6.94-31.73,20.78-35.58l-.48-6.7c-1.37-19.55,10.47-35.52,27.54-37.14.67-.07,1.33-.1,2-.13,4.76-10,13.52-16.79,23.94-17.74a26.24,26.24,0,0,1,2.65-.12,27.45,27.45,0,0,1,18,6.64,34.69,34.69,0,0,1,10,15H344A27.91,27.91,0,0,1,362.48,169c6.79,5.89,11.11,15.41,11.87,26.12L375.82,216a31,31,0,0,1,8.35-1.17,28.73,28.73,0,0,1,17.39,5.94c10.21,7.67,15.52,23.41,4.37,41.24-2.06,3.29-1.67,8-.16,16.05,5.69,34.27-6.2,55.71-17.15,67.69l-.77.83,32.33,78.17a25.76,25.76,0,0,1,13.72-4A24.26,24.26,0,0,1,455.15,433c6,10.45,3.78,26.71-12.19,37.57a57,57,0,0,1-9.58,5.24l2.68,4.49-48.62,27.13Z"/><path class="cls-2" d="M301.19,409.74a6.81,6.81,0,0,1-5.53,7,5.7,5.7,0,0,0,1,11.3,5.31,5.31,0,0,0,1-.1,18.24,18.24,0,0,0,14.86-18.38,5.7,5.7,0,1,0-11.39.18Z"/><path class="cls-2" d="M304.9,268.58c-3,.81-4.79,5.12-4,9.62s3.89,7.5,6.89,6.68,4.79-5.11,4-9.62S307.91,267.77,304.9,268.58Z"/><path class="cls-2" d="M345.2,284.88c3-.81,4.79-5.11,4-9.62s-3.89-7.49-6.89-6.68-4.79,5.12-4,9.62S342.2,285.7,345.2,284.88Z"/><path class="cls-2" d="M312.64,310.19a5.69,5.69,0,0,0,5.66,5.13l.57,0,19-1.88-6.54-29.37a5.69,5.69,0,0,0-11.11,2.47L324,303.34l-6.2.62A5.7,5.7,0,0,0,312.64,310.19Z"/><path class="cls-2" d="M308.85,328.55a5.7,5.7,0,0,0,2,7.8,30.07,30.07,0,0,0,15.28,4.19,30.52,30.52,0,0,0,7.62-1,30,30,0,0,0,18.47-13.93,5.7,5.7,0,1,0-9.82-5.78,18.83,18.83,0,0,1-25.78,6.68A5.68,5.68,0,0,0,308.85,328.55Z"/><path class="cls-2" d="M445.51,438.58c-5.27-9.15-19.32-9.65-26.25,3.05-3.78,6.92-7.73,10.95-11.33,13.29l-6.15-10.31,11.84-6.6-39-94.37a56,56,0,0,0,5.8-5.41c9.3-10.17,19.35-28.49,14.44-58.14-1.69-9-2.74-17,1.65-24,7.92-12.66,4.07-22.17-1.62-26.46-10.4-7.83-22.25-1.79-28.89,5L363.25,196c-.55-7.79-3.48-14.53-8.05-18.49a16.94,16.94,0,0,0-12.65-4.09,16.75,16.75,0,0,0-7.83,2.52l-.11-1.57c-.54-7.67-3.68-14.65-8.39-18.65a16.47,16.47,0,0,0-12.42-3.92c-9.48.87-15.79,9.81-17.25,19.29a16.7,16.7,0,0,0-8.61-1.42c-12.58,1.19-18.32,13.62-17.5,25.28l1.29,18.35a13.75,13.75,0,0,0-6.06-.7c-10.41,1.17-16.52,10.83-15.54,24.62l4.09,58h0l.08,1.15a3.43,3.43,0,0,0,.06.34c2.32,27.68,13.82,43.69,24.42,52.69.68,8.54.7,41.58-36.65,57l-4.76,1.79L203.6,418.43l10.24,34.23,9.86-1.22c-3,6.27-5.53,16.27-1.62,29.91,3.39,11.85,13.76,13.23,19.58,10.36,7.69-3.78,11.81-11.81,4.62-23-8.38-13-4.89-18-2.57-19.76l.7-.09,3,9.4,3.91.24q4,.24,7.83.24c53.08,0,66.75-34.74,67.33-36.28a5.7,5.7,0,1,0-10.67-4c-.11.31-11.86,30.1-59.91,28.84l-9.6-30.44h0c35.82-14.75,42.8-43.9,43.78-60a40.34,40.34,0,0,0,7.74,3.14,5.85,5.85,0,0,0,1.23.13,5.69,5.69,0,0,0,1.22-11.25c-.31-.07-31.47-8.94-34.69-54.57l-4.09-58c-.09-1.2-.66-11.82,5.45-12.5a2.56,2.56,0,0,1,2.1.71c2.18,1.82,3.94,6.33,4.26,11l.15,2.07,2.33,33a5.69,5.69,0,1,0,11.36-.8l-2-29h0l-.29-4-.14-2.07h0L281.8,194.1c-.35-5,1.28-12.58,7.21-13.14a5.13,5.13,0,0,1,4,1.23c2.32,2,4,6.2,4.35,10.81,0,0,0,0,0,.07l3.87,54.86a5.71,5.71,0,0,0,5.68,5.3l.41,0a5.7,5.7,0,0,0,5.28-6.08l-5-70.9c-.43-6.14,3.2-12.77,7.2-13.14a5.12,5.12,0,0,1,4,1.26c2.36,2,4.08,6.23,4.4,10.77l5,70.91a5.69,5.69,0,1,0,11.36-.8L336.28,198c0-.06,0-.12,0-.19-.35-4.85,1.28-12.7,7.08-13.12a5.64,5.64,0,0,1,4.37,1.34c2.23,1.93,3.82,6,4.15,10.68l6,85.13c0,.2.07.4.1.59s0,.3.08.44a4.83,4.83,0,0,0,.22.64c.06.13.09.27.15.4s.21.35.32.53a5.83,5.83,0,0,0,1.62,1.7l.15.11c.21.13.43.23.65.34l.31.15a6.13,6.13,0,0,0,.61.18c.15,0,.3.09.45.12s.36,0,.54.05.32.05.48.05H364a4.37,4.37,0,0,0,.5-.09A4.85,4.85,0,0,0,365,287c.19-.05.36-.13.54-.19s.35-.12.51-.2.32-.19.48-.29A5,5,0,0,0,367,286c.15-.11.28-.25.42-.37a4.44,4.44,0,0,0,.38-.37,4.7,4.7,0,0,0,.34-.44,4.37,4.37,0,0,0,.31-.44,4,4,0,0,0,.25-.51,4.16,4.16,0,0,0,.22-.48,3.68,3.68,0,0,0,.15-.57,4.7,4.7,0,0,0,.12-.51c0-.2,0-.41,0-.62s0-.3,0-.46c-.1-2.33-.49-7.48-.78-11.24l-.25-3.35c-.7-9.88.85-17.63,4.48-22.42,1.74-2.28,9.42-9.92,15.29-5.5,2.51,1.89,2.07,6.12-1.18,11.32-7.1,11.35-4.75,23.87-3.21,32,4.14,25-4,40.16-11.63,48.47a44,44,0,0,1-7,6.2,5.94,5.94,0,0,0-1.15.81c-7.83,5.26-16.25,7.34-22.34,6.91a5.69,5.69,0,0,0-.85,11.35c.87.07,1.75.1,2.64.1a47.38,47.38,0,0,0,21.67-5.83l25.23,61c-1,2.15-4.33,7-13.56,8.83a5.7,5.7,0,0,0,1.12,11.28,6.27,6.27,0,0,0,1.13-.11c7.7-1.56,12.84-4.71,16.28-8l4.09,9.91-3.28,1.83h0l-24.5,13.66L316.7,375.37a5.69,5.69,0,1,0-9.12,6.82l60.71,81.11h0L390.52,493l30.11-16.8-4.13-6.92a52.28,52.28,0,0,0,20.2-7.88C448.24,453.54,448.35,443.5,445.51,438.58Z"/></g></svg>