<svg xmlns="http://www.w3.org/2000/svg" viewBox="0 0 1152 648"><defs><style>.cls-1{fill:#e5e5e5;}.cls-2{fill:#2a376a;}.cls-3{fill:#fff;opacity:0.5;}</style></defs><g id="Background"><path class="cls-1" d="M971.69,55.36H200.31a26.9,26.9,0,0,0-26.9,26.91v529.2H998.6V82.27A26.91,26.91,0,0,0,971.69,55.36Z"/></g><g id="Graphic"><path class="cls-2" d="M576,45.36H961.69A26.91,26.91,0,0,1,988.6,72.27v529.2a0,0,0,0,1,0,0H576a0,0,0,0,1,0,0V45.36A0,0,0,0,1,576,45.36Z"/><path class="cls-2" d="M163.4,45.36H576a0,0,0,0,1,0,0v529.2a26.91,26.91,0,0,1-26.91,26.91H163.4a0,0,0,0,1,0,0V45.36a0,0,0,0,1,0,0Z" transform="translate(739.4 646.83) rotate(180)"/><rect class="cls-3" x="917.74" y="551.35" width="35.88" height="1.19" transform="translate(-116.27 823.13) rotate(-44.99)"/><rect class="cls-3" x="781.4" y="470.62" width="35.88" height="1.19" transform="translate(-99.11 703.11) rotate(-44.99)"/><rect class="cls-3" x="575.4" y="45.36" width="1.2" height="556.11"/><path class="cls-3" d="M582.93,601.28h-1.2V475.7a54.48,54.48,0,0,1,54.42-54.41H988.6v1.19H636.15a53.28,53.28,0,0,0-53.22,53.22Z"/></g></svg>