<svg xmlns="http://www.w3.org/2000/svg" viewBox="0 0 648 648"><defs><style>.cls-1{fill:#ff5c35;}</style></defs><g id="Isolation_Mode" data-name="Isolation Mode"><rect x="179.4" y="64.07" width="8.73" height="26.04" rx="4.36" transform="translate(260.85 -106.68) rotate(90)"/><rect class="cls-1" x="192.55" y="90.72" width="262.9" height="466.56"/><path d="M313.61,306.14a2.53,2.53,0,0,1-2.06,2.61,2.13,2.13,0,0,0,.38,4.22,1.69,1.69,0,0,0,.38,0,6.81,6.81,0,0,0,5.55-6.86,2.13,2.13,0,1,0-4.25.07Z"/><path d="M315,253.47c-1.12.3-1.78,1.91-1.48,3.59s1.45,2.79,2.57,2.49,1.79-1.91,1.49-3.59S316.12,253.16,315,253.47Z"/><path d="M330,259.55c1.12-.3,1.79-1.91,1.49-3.59s-1.45-2.8-2.57-2.49-1.79,1.91-1.49,3.59S328.91,259.85,330,259.55Z"/><path d="M317.88,269a2.13,2.13,0,0,0,2.12,1.92h.21l7.08-.7-2.44-11a2.13,2.13,0,0,0-4.15.92l1.4,6.28-2.31.23A2.12,2.12,0,0,0,317.88,269Z"/><path d="M316.47,275.84a2.12,2.12,0,0,0,.75,2.91,11.27,11.27,0,0,0,15.44-4A2.13,2.13,0,0,0,329,272.6a7,7,0,0,1-9.61,2.49A2.13,2.13,0,0,0,316.47,275.84Z"/><path d="M367.46,316.9c-2-3.41-7.21-3.6-9.79,1.14a13.38,13.38,0,0,1-4.23,5l-2.3-3.85,4.42-2.46L341,281.47a19.67,19.67,0,0,0,2.17-2c3.46-3.79,7.22-10.63,5.38-21.69-.63-3.35-1-6.34.62-8.95,3-4.73,1.52-8.28-.61-9.88-3.87-2.92-8.3-.67-10.77,1.88l-1-14.44a10,10,0,0,0-3-6.9,6.55,6.55,0,0,0-7.64-.59l0-.59a10.14,10.14,0,0,0-3.13-7,6.16,6.16,0,0,0-4.64-1.46c-3.53.33-5.89,3.66-6.43,7.2a6.26,6.26,0,0,0-3.22-.53c-4.69.45-6.83,5.08-6.53,9.43l.49,6.85a5.07,5.07,0,0,0-2.26-.26c-3.89.43-6.17,4-5.81,9.19l1.53,21.62h0l0,.43s0,.08,0,.12c.87,10.33,5.16,16.31,9.12,19.66.25,3.19.26,15.52-13.68,21.26l-1.77.67-12.61,3.86L281,322.15l3.69-.45a15.25,15.25,0,0,0-.61,11.16c1.26,4.42,5.13,4.94,7.31,3.87,2.87-1.41,4.4-4.41,1.72-8.58-3.13-4.85-1.82-6.72-1-7.37l.26,0,1.11,3.51,1.45.09c1,.06,2,.09,2.93.09,19.8,0,24.9-13,25.12-13.54a2.13,2.13,0,0,0-4-1.5c0,.12-4.42,11.24-22.36,10.77l-3.58-11.36h0c13.36-5.5,16-16.38,16.33-22.38a15.46,15.46,0,0,0,2.89,1.17,1.85,1.85,0,0,0,.46.05,2.13,2.13,0,0,0,.46-4.2c-.12,0-11.75-3.33-12.95-20.36l-1.53-21.63c0-.45-.24-4.41,2-4.67a1,1,0,0,1,.78.27,6.32,6.32,0,0,1,1.59,4.09l.06.77.87,12.31a2.13,2.13,0,1,0,4.24-.3l-.77-10.81h0l-.1-1.5-.06-.77h0l-1.07-15.17c-.13-1.85.48-4.69,2.7-4.9a1.88,1.88,0,0,1,1.5.46,6,6,0,0,1,1.62,4,0,0,0,0,1,0,0l1.44,20.47a2.14,2.14,0,0,0,2.12,2h.15a2.12,2.12,0,0,0,2-2.27L316,219c-.16-2.29,1.19-4.76,2.68-4.9a1.94,1.94,0,0,1,1.5.47,6.13,6.13,0,0,1,1.64,4l1.87,26.46a2.13,2.13,0,1,0,4.24-.3l-1.25-17.6s0-.05,0-.07c-.13-1.82.47-4.75,2.64-4.9a2.1,2.1,0,0,1,1.63.5,6.08,6.08,0,0,1,1.55,4l2.24,31.77a3.47,3.47,0,0,1,.06.38,1.7,1.7,0,0,0,.09.24c0,.05,0,.1.05.15l.12.2a2,2,0,0,0,.61.63l.05.05.24.12.12.06a1.55,1.55,0,0,0,.23.06l.17.05.2,0,.18,0H337l.19,0,.2,0,.2-.07.19-.07a1.08,1.08,0,0,0,.18-.11l.17-.11a1.07,1.07,0,0,0,.16-.14l.14-.13.13-.17.11-.16a1.63,1.63,0,0,0,.09-.19l.09-.18a1.42,1.42,0,0,0,.05-.22,1.05,1.05,0,0,0,.05-.19,1.69,1.69,0,0,0,0-.23c0-.05,0-.11,0-.17,0-.87-.18-2.79-.29-4.19l-.09-1.25c-.26-3.69.32-6.58,1.67-8.37.65-.85,3.51-3.7,5.71-2,.93.7.77,2.28-.44,4.22-2.65,4.24-1.78,8.91-1.2,11.95,1.54,9.33-1.51,15-4.34,18.09a16.5,16.5,0,0,1-2.62,2.31,2.83,2.83,0,0,0-.44.3,14,14,0,0,1-8.33,2.58,2.13,2.13,0,0,0-.32,4.24q.49,0,1,0a17.64,17.64,0,0,0,8.08-2.17l9.42,22.76c-.39.8-1.62,2.6-5.06,3.29a2.13,2.13,0,0,0,.42,4.21,2,2,0,0,0,.42,0,12,12,0,0,0,6.07-3l1.53,3.7-1.22.68h0l-9.15,5.1-20.43-27.29a2.13,2.13,0,0,0-3.4,2.55l22.66,30.27h0l8.29,11.07,11.24-6.26-1.54-2.59a19.36,19.36,0,0,0,7.53-2.94C368.48,322.49,368.52,318.74,367.46,316.9Z"/><path d="M338.7,420.26l-3.6.86-.26,14.68a1.6,1.6,0,0,0,1.57,1.62h0a1.58,1.58,0,0,0,1.59-1.56l0-1.24,4.15-1,.58,1.09a1.59,1.59,0,0,0,2.82-1.49Zm-.59,11.07.09-5.23,2.45,4.62Z"/><path d="M357.21,411.58l-2.76,1.59,1.59,9.11-7.11-5.91-2.76,1.6,7.33,12.64a1.6,1.6,0,0,0,1.38.8,1.56,1.56,0,0,0,.8-.22,1.6,1.6,0,0,0,.58-2.18l-2.69-4.64,3.74,3.11,2.61-1.51-.84-4.8,2.7,4.65a1.59,1.59,0,1,0,2.75-1.6Z"/><path d="M325.59,435h-4.78V422.22h-3.19v15.94h8a1.6,1.6,0,1,0,0-3.19Z"/><path d="M297,431.22a1.6,1.6,0,0,0,2.69,1.72l.66-1,4.06,1.34-.09,1.23a1.59,1.59,0,0,0,1.49,1.69H306a1.6,1.6,0,0,0,1.59-1.49l.95-14.65L305,418.87Zm7.62-1.27-2.49-.82,2.83-4.39Z"/><path d="M293,412.39a4.53,4.53,0,0,0-6.29,1.16l-.45.65a4.53,4.53,0,0,0,1.16,6.29,1.33,1.33,0,0,1,.34,1.84l-.46.66a1.33,1.33,0,1,1-2.18-1.51,1.6,1.6,0,1,0-2.63-1.81,4.52,4.52,0,0,0,1.16,6.28,4.47,4.47,0,0,0,2.55.8A4.52,4.52,0,0,0,290,424.8l.45-.66a4.52,4.52,0,0,0-1.16-6.28,1.32,1.32,0,0,1-.33-1.85l.45-.65a1.26,1.26,0,0,1,.85-.55,1.32,1.32,0,0,1,1,.21,1.33,1.33,0,0,1,.55.85,1.36,1.36,0,0,1-.21,1,1.59,1.59,0,1,0,2.62,1.8,4.53,4.53,0,0,0-1.15-6.28Z"/><circle cx="381.38" cy="407.34" r="4.25"/><path d="M384.57,371.21V385a3.19,3.19,0,1,1-6.37,0V354.21H367.57V385a13.82,13.82,0,1,0,27.63,0V371.21Z"/><path d="M349.5,398.84A13.84,13.84,0,0,0,363.32,385V371.21H352.69V385a3.19,3.19,0,1,1-6.37,0V371.21H335.69V385a3.19,3.19,0,0,1-6.38,0V371.21H318.69v6.07a16.18,16.18,0,0,0-1.82-3.53h0l-6.57-9.38,5-7.2-8.71-6.09-2.82,4-4.91-7-8.7,6.1,7.12,10.17-6.57,9.38h0a16.06,16.06,0,0,0-2.49,5.8A14.87,14.87,0,0,0,259.18,384a14.71,14.71,0,0,0,1.31,6.08,14.89,14.89,0,0,0-7.69,13v4.28h10.63v-4.28a4.25,4.25,0,0,1,4.25-4.25h5.76l.61,0a14.89,14.89,0,0,0,14.47-11.46,15.93,15.93,0,0,0,30.45.43,13.79,13.79,0,0,0,22,8.08A13.75,13.75,0,0,0,349.5,398.84Zm-75.45-10.63v0h-.3a4,4,0,1,1,.3,0Zm29.76,0a5.38,5.38,0,0,1-5.31-5.31,5.28,5.28,0,0,1,1-3h0l4.35-6.22,4.35,6.22h0a5.28,5.28,0,0,1,1,3A5.38,5.38,0,0,1,303.81,388.21Z"/><rect x="174.98" y="77.09" width="17.57" height="570.91"/></g></svg>