<svg xmlns="http://www.w3.org/2000/svg" viewBox="0 0 648 648"><defs><style>.cls-1,.cls-4,.cls-6,.cls-8{fill:none;stroke-miterlimit:10;}.cls-1{stroke:#000;stroke-linecap:round;stroke-width:9.94px;}.cls-2{fill:#b54a35;}.cls-3{fill:#933a2e;}.cls-4,.cls-6,.cls-8{stroke:#fff;opacity:0.5;}.cls-4{stroke-width:0.71px;}.cls-5{fill:#ff5c35;}.cls-6{stroke-width:0.62px;}.cls-7{fill:#ef5233;}.cls-8{stroke-width:0.44px;}.cls-10,.cls-9{fill:#fff;}.cls-10{font-size:8.3px;font-family:RamaGothicRoundedE-SemiBold, Rama Gothic Rounded;font-weight:600;}</style></defs><g id="Graphic"><path class="cls-1" d="M293.52,199V130.62a68.42,68.42,0,1,1,136.83,0V199"/><rect class="cls-2" x="119.76" y="168.97" width="484.35" height="332.05"/><polygon class="cls-3" points="43.89 528.7 119.76 501.02 119.76 168.97 43.89 196.65 43.89 528.7"/><line class="cls-4" x1="528.24" y1="196.65" x2="528.24" y2="528.73"/><rect class="cls-5" x="43.89" y="196.65" width="484.35" height="332.05"/><line class="cls-6" x1="528.24" y1="459.53" x2="43.89" y2="459.53"/><polygon class="cls-7" points="604.11 501.02 528.24 528.73 528.24 196.68 604.11 168.97 604.11 501.02"/><line class="cls-8" x1="566.17" y1="182.82" x2="566.17" y2="514.87"/><line class="cls-8" x1="604.11" y1="431.85" x2="528.24" y2="459.56"/><polyline class="cls-8" points="528.24 528.73 566.17 445.72 604.11 501.04"/><path class="cls-9" d="M301.26,390l-4.69-8.82-2.45.59-.17,10a1.08,1.08,0,0,0,1.06,1.11h0a1.09,1.09,0,0,0,1.08-1.07l0-.84,2.82-.68.39.74a1.08,1.08,0,0,0,1.92-1Zm-5.09-1.29.06-3.55,1.67,3.14Z"/><path class="cls-9" d="M314.14,383.86l-5-8.59-1.88,1.08,1.08,6.19-4.83-4-1.88,1.08,5,8.6a1.08,1.08,0,1,0,1.87-1.08L306.68,384l2.55,2.11,1.77-1-.57-3.27,1.84,3.16a1.08,1.08,0,1,0,1.87-1.09Z"/><path class="cls-9" d="M287.65,391.18H284.4V382.5h-2.17v10.85h5.42a1.09,1.09,0,1,0,0-2.17Z"/><path class="cls-9" d="M273.62,380.23l-5.39,8.4a1.08,1.08,0,0,0,1.82,1.17l.45-.71,2.76.91-.05.84a1.08,1.08,0,0,0,1,1.15h.07a1.08,1.08,0,0,0,1.08-1l.65-10Zm-1.9,7,1.92-3-.23,3.54Z"/><path class="cls-9" d="M260.88,385.59a3.07,3.07,0,0,1-2.53-4.82,1.09,1.09,0,1,1,1.79,1.23.91.91,0,1,0,1.49,1l.3-.45a.89.89,0,0,0-.23-1.25,3.09,3.09,0,0,1-.78-4.28l.31-.44a3.07,3.07,0,0,1,4.27-.79,3.1,3.1,0,0,1,1.28,2,3.07,3.07,0,0,1-.5,2.3,1.07,1.07,0,0,1-1.5.28,1.08,1.08,0,0,1-.28-1.51.91.91,0,0,0-.23-1.25.91.91,0,0,0-.68-.15.88.88,0,0,0-.58.38l-.31.44a.92.92,0,0,0,.23,1.26,3.07,3.07,0,0,1,.79,4.27l-.31.45A3.07,3.07,0,0,1,260.88,385.59Z"/><circle class="cls-9" cx="325.6" cy="372.38" r="2.89"/><path class="cls-9" d="M327.77,347.8v9.4a2.17,2.17,0,1,1-4.33,0v-21h-7.22v21a9.4,9.4,0,1,0,18.79,0v-9.4Z"/><path class="cls-9" d="M306.09,357.2a2.17,2.17,0,0,1-4.34,0v-9.4h-7.23v9.4a2.17,2.17,0,0,1-4.34,0v-9.4H283v4.14a10.68,10.68,0,0,0-1.23-2.4h0l-4.47-6.39,3.43-4.9-5.92-4.14-1.93,2.74-3.33-4.76-5.92,4.14,4.84,6.92L264,349.54h0a10.69,10.69,0,0,0-1.69,3.94,10.12,10.12,0,1,0-18.89,7.14,10.1,10.1,0,0,0-5.23,8.85v2.91h7.22v-2.91a2.9,2.9,0,0,1,2.9-2.89h3.92l.41,0a10.13,10.13,0,0,0,9.84-7.8,10.84,10.84,0,0,0,20.72.29,9.38,9.38,0,0,0,15,5.5,9.28,9.28,0,0,0,5.78,2,9.41,9.41,0,0,0,9.4-9.4v-9.4h-7.23Zm-53.5,2.17v0h-.21a2.75,2.75,0,1,1,.21,0Zm20.24,0a3.62,3.62,0,0,1-3-5.69h0l3-4.23,3,4.23h0a3.59,3.59,0,0,1,.66,2.08A3.66,3.66,0,0,1,272.83,359.37Z"/><text class="cls-10" transform="translate(269.31 496.69)">basalam.com</text><path class="cls-1" d="M218.24,232V163.61a68.42,68.42,0,0,1,136.83,0V232"/></g></svg>