<svg xmlns="http://www.w3.org/2000/svg" viewBox="0 0 648 648"><defs><style>.cls-1{fill:#222221;}.cls-2{fill:#fde9e1;}</style></defs><g id="Graphic"><rect class="cls-1" y="45.36" width="648" height="34.72"/><path class="cls-2" d="M46.05,45.07V324h0c.37,153.19,124.67,277.27,278,277.27S601.58,477.19,602,324h0V45.07Z"/><path d="M391.88,355.77a10.15,10.15,0,0,1-10.12-9.45L371,194.44c-.59-8.31-3.42-15.62-7.4-19.06a10,10,0,0,0-7.79-2.4c-10.36.75-13.26,14.76-12.65,23.42a10.16,10.16,0,0,1-20.27,1.43c-1.46-20.67,9.07-43.5,31.45-45.12A30.39,30.39,0,0,1,377,160c8.14,7.06,13.37,19.08,14.35,33L402,344.89a10.15,10.15,0,0,1-9.42,10.85C392.37,355.76,392.12,355.77,391.88,355.77Z"/><path d="M290.88,295.2a10.17,10.17,0,0,1-10.13-9.45l-8.92-126.51a49.39,49.39,0,0,1,6.94-28.54c6-9.79,14.61-15.67,24.31-16.56a29.32,29.32,0,0,1,22.16,7c8.41,7.14,14,19.58,15,33.28l8.92,126.5a10.16,10.16,0,1,1-20.27,1.43l-8.93-126.5c-.57-8.11-3.65-15.66-7.85-19.23a9.1,9.1,0,0,0-7.14-2.24c-7.13.65-13.61,12.48-12.84,23.43L301,284.32a10.16,10.16,0,0,1-9.42,10.85Z"/><path d="M241.72,284a10.15,10.15,0,0,1-10.12-9.45l-5.89-83.37c-.72-10.21,1.36-20.2,5.86-28.15,5.61-9.91,14.62-15.93,25.37-17a29.42,29.42,0,0,1,22.26,6.92c8.48,7.18,13.91,19.34,14.89,33.36a10.16,10.16,0,1,1-20.27,1.43c-.58-8.21-3.62-15.78-7.76-19.28a9.14,9.14,0,0,0-7.2-2.19c-10.59,1-13.5,14.57-12.87,23.44l5.88,83.37a10.15,10.15,0,0,1-9.42,10.85C242.21,283.94,242,284,241.72,284Z"/><path d="M207,381.49A10.17,10.17,0,0,1,196.92,372l-7.44-105.48c-1.74-24.61,9.15-41.86,27.74-43.94a24.78,24.78,0,0,1,19,5.86c8.32,6.92,13.88,19.53,14.88,33.73l4.42,62.55a10.17,10.17,0,0,1-20.28,1.43l-4.41-62.55c-.58-8.26-3.71-16.3-7.62-19.55a4.58,4.58,0,0,0-3.73-1.27c-10.9,1.22-9.88,20.15-9.73,22.3l7.44,105.49a10.15,10.15,0,0,1-9.42,10.85C207.53,381.48,207.29,381.49,207,381.49Z"/><path d="M324.75,495.67a127.49,127.49,0,0,1-80.4-28.11c-28.24-23-44.69-56.72-47.58-97.59a10.17,10.17,0,0,1,20.28-1.43c2.48,35.12,16.35,63.91,40.12,83.25,22.58,18.37,52.66,26.58,82.52,22.54a10.17,10.17,0,0,1,2.72,20.15A132.86,132.86,0,0,1,324.75,495.67Z"/><ellipse cx="289.8" cy="337.13" rx="9.98" ry="14.83" transform="translate(-33.16 31.62) rotate(-5.91)"/><ellipse cx="356.52" cy="337.13" rx="9.98" ry="14.83" transform="translate(-32.81 38.49) rotate(-5.91)"/><path d="M311.12,406a10.16,10.16,0,0,1-1-20.28l11.06-1.09-6.68-30a10.16,10.16,0,0,1,19.84-4.42L346,402.59l-33.88,3.35C311.79,406,311.45,406,311.12,406Z"/><path d="M325.11,450.93a53.52,53.52,0,0,1-27.26-7.44A10.16,10.16,0,1,1,308.16,426a33.63,33.63,0,0,0,46-11.92,10.16,10.16,0,0,1,17.52,10.31A54,54,0,0,1,325.11,450.93Z"/><path d="M341,494.57a10.16,10.16,0,0,1-1.12-20.26c18.9-2.13,48.23-14.22,68.72-41.31,17.86-23.63,24.44-53.44,19-86.23-2.78-14.77-6.92-37,5.72-57.25,5.79-9.27,6.58-16.81,2.1-20.18-2.46-1.86-6.57-4-13.71-.94a36.55,36.55,0,0,0-13.57,10.74c-6.48,8.54-9.24,22.38-8,40,.1,1.32.26,3.4.44,5.85.52,6.75,1.22,16,1.4,20.18a10.17,10.17,0,0,1-9.74,10.58h-.42A10.17,10.17,0,0,1,381.74,346c-.16-3.84-.88-13.25-1.35-19.49-.19-2.49-.35-4.61-.45-6-1.62-22.95,2.44-41,12.08-53.73,10.4-13.71,34.72-29.56,55.7-13.76a27.51,27.51,0,0,1,10.9,20.37c.59,8.38-2.11,17.4-8,26.83-7.82,12.51-6,26.8-2.95,42.83l0,.21c8.06,48.59-8,82.24-22.85,101.91-20.06,26.53-52.5,45.87-82.66,49.25A9,9,0,0,1,341,494.57Z"/></g></svg>