<svg xmlns="http://www.w3.org/2000/svg" viewBox="0 0 1152 648"><defs><style>.cls-1{fill:#e5e5e5;}.cls-2{fill:#ff5c35;}.cls-3{fill:#222221;}</style></defs><g id="Background"><rect class="cls-1" x="234.17" y="100.72" width="703.66" height="466.56"/></g><g id="Graphic"><rect class="cls-2" x="224.17" y="90.72" width="703.66" height="466.56"/><path class="cls-3" d="M562.08,300.07a3.4,3.4,0,0,1-2.77,3.5,2.85,2.85,0,0,0,.51,5.65,3,3,0,0,0,.52-.05,9.11,9.11,0,0,0,7.43-9.19,2.85,2.85,0,1,0-5.69.09Z"/><path class="cls-3" d="M563.94,229.48c-1.51.41-2.4,2.56-2,4.82s1.95,3.74,3.45,3.34,2.39-2.56,2-4.81S565.44,229.08,563.94,229.48Z"/><path class="cls-3" d="M584.09,237.64c1.5-.41,2.39-2.56,2-4.81s-1.94-3.75-3.45-3.35-2.39,2.56-2,4.82S582.58,238,584.09,237.64Z"/><path class="cls-3" d="M567.81,250.29a2.84,2.84,0,0,0,2.83,2.57l.28,0,9.5-.93-3.27-14.69a2.85,2.85,0,1,0-5.56,1.24l1.87,8.41-3.1.31A2.83,2.83,0,0,0,567.81,250.29Z"/><path class="cls-3" d="M565.91,259.47a2.84,2.84,0,0,0,1,3.9,15,15,0,0,0,7.64,2.09,15.48,15.48,0,0,0,3.81-.48,15,15,0,0,0,9.23-7,2.84,2.84,0,1,0-4.9-2.89,9.42,9.42,0,0,1-12.89,3.34A2.85,2.85,0,0,0,565.91,259.47Z"/><path class="cls-3" d="M634.24,314.49c-2.63-4.58-9.66-4.83-13.13,1.52a17.71,17.71,0,0,1-5.66,6.65l-3.07-5.16,5.92-3.3L598.78,267a28.64,28.64,0,0,0,2.91-2.71c4.64-5.08,9.67-14.24,7.21-29.07-.84-4.49-1.36-8.5.83-12,4-6.33,2-11.08-.81-13.23-5.2-3.91-11.12-.9-14.44,2.51l-1.37-19.35c-.27-3.9-1.74-7.27-4-9.24a8.8,8.8,0,0,0-10.25-.79l-.05-.79A13.6,13.6,0,0,0,574.6,173a8.23,8.23,0,0,0-6.22-2c-4.74.43-7.89,4.9-8.62,9.65a8.36,8.36,0,0,0-4.31-.72c-6.29.6-9.16,6.81-8.75,12.64l.65,9.18a6.87,6.87,0,0,0-3-.35c-5.21.58-8.26,5.42-7.77,12.31l2,29h0l0,.57,0,.17c1.16,13.84,6.91,21.85,12.22,26.35.33,4.26.34,20.79-18.33,28.48l-2.38.89-16.89,5.18,5.12,17.12,4.93-.61c-1.52,3.14-2.76,8.14-.81,14.95,1.7,5.93,6.88,6.62,9.79,5.19,3.85-1.9,5.91-5.91,2.31-11.49-4.19-6.5-2.44-9-1.28-9.88l.35,0,1.48,4.69,2,.12c1.35.09,2.66.12,3.92.12,26.54,0,33.37-17.37,33.66-18.14a2.85,2.85,0,1,0-5.33-2c-.06.16-5.93,15.05-30,14.42l-4.8-15.22h0c17.92-7.38,21.4-21.95,21.89-30a19.56,19.56,0,0,0,3.88,1.57,2.54,2.54,0,0,0,.61.07,2.85,2.85,0,0,0,.61-5.63c-.16,0-15.73-4.47-17.35-27.28l-2-29c0-.6-.33-5.91,2.72-6.25a1.28,1.28,0,0,1,1,.36c1.09.91,2,3.16,2.14,5.47l.07,1,1.16,16.49a2.85,2.85,0,1,0,5.68-.4l-1-14.48h0l-.14-2-.07-1h0l-1.44-20.32c-.17-2.48.64-6.28,3.61-6.57a2.56,2.56,0,0,1,2,.62c1.16,1,2,3.1,2.17,5.4a.06.06,0,0,1,0,0l1.94,27.43a2.84,2.84,0,0,0,2.83,2.65h.21a2.85,2.85,0,0,0,2.64-3l-2.5-35.45c-.22-3.07,1.6-6.39,3.6-6.57a2.56,2.56,0,0,1,2,.63,8.15,8.15,0,0,1,2.2,5.39l2.5,35.45a2.85,2.85,0,0,0,5.68-.4l-1.66-23.6a.27.27,0,0,1,0-.09c-.17-2.43.64-6.35,3.54-6.56a2.86,2.86,0,0,1,2.19.67c1.11,1,1.9,3,2.07,5.34l3,42.57a2.93,2.93,0,0,0,.05.29c0,.08,0,.15,0,.22a3,3,0,0,0,.11.32c0,.07,0,.14.08.2a1.4,1.4,0,0,0,.16.26,2.89,2.89,0,0,0,.81.86l.07.05a2.06,2.06,0,0,0,.33.17l.15.08.3.08a2,2,0,0,0,.23.06,2.48,2.48,0,0,0,.27,0l.24,0h.2l.26-.05.27,0,.27-.1.25-.1a2.07,2.07,0,0,0,.25-.15,1.35,1.35,0,0,0,.22-.14,1.9,1.9,0,0,0,.21-.19,1.75,1.75,0,0,0,.36-.4c.05-.07.11-.14.16-.22l.12-.25a2.56,2.56,0,0,0,.11-.24l.08-.29.06-.26c0-.1,0-.2,0-.3a1.79,1.79,0,0,0,0-.23c0-1.17-.25-3.74-.39-5.62l-.12-1.68c-.35-4.94.42-8.82,2.24-11.21.86-1.14,4.7-5,7.64-2.75,1.26.95,1,3.06-.59,5.66-3.55,5.68-2.37,11.93-1.6,16,2.07,12.51-2,20.08-5.82,24.24a23,23,0,0,1-3.51,3.1,2.71,2.71,0,0,0-.58.4,18.73,18.73,0,0,1-11.17,3.45,2.85,2.85,0,0,0-.42,5.68c.43,0,.87,0,1.31,0A23.65,23.65,0,0,0,594,270.24l12.61,30.49c-.51,1.08-2.16,3.49-6.77,4.42a2.85,2.85,0,0,0,.56,5.64,2.74,2.74,0,0,0,.56-.06,16.09,16.09,0,0,0,8.14-4l2.05,5-1.64.91h0l-12.26,6.84-27.37-36.57a2.85,2.85,0,0,0-4.56,3.41l30.36,40.56h0l11.11,14.84,15.06-8.39-2.07-3.47a26.1,26.1,0,0,0,10.11-3.93C635.61,322,635.66,317,634.24,314.49Z"/><path class="cls-3" d="M595.7,453l-4.82,1.16-.35,19.67a2.13,2.13,0,0,0,2.1,2.17h0a2.14,2.14,0,0,0,2.14-2.09l0-1.66,5.56-1.34.78,1.47a2.14,2.14,0,0,0,3.77-2Zm-.79,14.84.12-7,3.29,6.18Z"/><path class="cls-3" d="M620.5,441.35l-3.69,2.14,2.13,12.2-9.53-7.91-3.69,2.14,9.81,16.94a2.14,2.14,0,1,0,3.7-2.14l-3.61-6.23,5,4.17,3.49-2L623,454.21l3.61,6.22a2.14,2.14,0,0,0,3.7-2.14Z"/><path class="cls-3" d="M578.14,472.7h-6.41V455.61h-4.27V477h10.68a2.14,2.14,0,1,0,0-4.27Z"/><path class="cls-3" d="M539.87,467.67a2.13,2.13,0,0,0,3.59,2.31l.9-1.39,5.43,1.79-.11,1.65a2.14,2.14,0,0,0,2,2.27h.14a2.13,2.13,0,0,0,2.13-2l1.28-19.63-4.72-1.56Zm10.2-1.7-3.33-1.09,3.79-5.89Z"/><path class="cls-3" d="M534.5,442.45a6.06,6.06,0,0,0-8.42,1.54l-.61.88a6.05,6.05,0,0,0,1.55,8.42,1.79,1.79,0,0,1,.46,2.48l-.61.88a1.78,1.78,0,0,1-2.93-2,2.14,2.14,0,1,0-3.52-2.43,6.05,6.05,0,1,0,10,6.87l.6-.88a6.06,6.06,0,0,0-1.55-8.42,1.77,1.77,0,0,1-.45-2.47l.61-.88a1.78,1.78,0,0,1,2.47-.46,1.79,1.79,0,0,1,.46,2.48,2.14,2.14,0,1,0,3.52,2.42,6.06,6.06,0,0,0-1.55-8.41Z"/><circle class="cls-3" cx="652.9" cy="435.67" r="5.7"/><path class="cls-3" d="M657.17,387.26v18.51a4.27,4.27,0,1,1-8.54,0V364.48H634.38v41.29a18.51,18.51,0,1,0,37,0V387.26Z"/><path class="cls-3" d="M610.18,424.28a18.53,18.53,0,0,0,18.51-18.51V387.26H614.45v18.51a4.27,4.27,0,0,1-8.54,0V387.26H591.67v18.51a4.28,4.28,0,0,1-8.55,0V387.26H568.88v8.14a21,21,0,0,0-2.44-4.73h0l-8.8-12.57,6.76-9.65-11.67-8.17L549,365.69l-6.58-9.39-11.66,8.16,9.55,13.64-8.81,12.57h0a21.19,21.19,0,0,0-3.33,7.77,19.93,19.93,0,1,0-37.22,14.05,20,20,0,0,0-10.3,17.45v5.73h14.24v-5.73a5.7,5.7,0,0,1,5.69-5.7h7.72c.28,0,.55,0,.83,0a20,20,0,0,0,19.38-15.36,21.35,21.35,0,0,0,40.8.58,18.48,18.48,0,0,0,29.53,10.83A18.36,18.36,0,0,0,610.18,424.28ZM509.08,410v0h-.42a5.4,5.4,0,1,1,.42,0ZM549,410a7.21,7.21,0,0,1-7.12-7.12,7,7,0,0,1,1.29-4.08h0l5.83-8.33,5.83,8.33h0a7.08,7.08,0,0,1,1.29,4.08A7.21,7.21,0,0,1,549,410Z"/></g></svg>