<svg xmlns="http://www.w3.org/2000/svg" viewBox="0 0 648 648"><defs><style>.cls-1{fill:#222221;}.cls-2{fill:#ff5c35;}</style></defs><g id="Graphic"><rect class="cls-1" y="45.36" width="648" height="34.72"/><path class="cls-2" d="M46.05,45.07V324h0c.37,153.19,124.67,277.27,278,277.27S601.58,477.19,602,324h0V45.07Z"/><path class="cls-1" d="M294.42,392a7,7,0,0,1-5.66,7.17,5.84,5.84,0,0,0,1,11.58,5.54,5.54,0,0,0,1.07-.1,18.68,18.68,0,0,0,15.22-18.84,5.84,5.84,0,0,0-11.67.19Z"/><path class="cls-1" d="M298.23,247.32c-3.08.83-4.91,5.25-4.09,9.86s4,7.68,7.07,6.85,4.91-5.25,4.09-9.86S301.31,246.49,298.23,247.32Z"/><path class="cls-1" d="M339.53,264c3.08-.83,4.91-5.25,4.08-9.86s-4-7.68-7.06-6.85-4.91,5.25-4.09,9.86S336.45,264.86,339.53,264Z"/><path class="cls-1" d="M306.16,290a5.84,5.84,0,0,0,5.8,5.26,5.49,5.49,0,0,0,.58,0L332,293.27l-6.69-30.09a5.84,5.84,0,0,0-11.4,2.53L317.75,283l-6.35.63A5.83,5.83,0,0,0,306.16,290Z"/><path class="cls-1" d="M302.27,308.78a5.84,5.84,0,0,0,2.07,8A30.82,30.82,0,0,0,320,321.06a31.18,31.18,0,0,0,7.82-1,30.75,30.75,0,0,0,18.92-14.28,5.84,5.84,0,1,0-10.06-5.92,19.29,19.29,0,0,1-26.42,6.85A5.83,5.83,0,0,0,302.27,308.78Z"/><path class="cls-1" d="M442.32,421.53c-5.4-9.38-19.8-9.88-26.91,3.13-3.87,7.09-7.91,11.21-11.6,13.62l-6.3-10.57,12.13-6.77-40-96.7a57.75,57.75,0,0,0,6-5.55c9.52-10.42,19.83-29.19,14.79-59.57-1.73-9.21-2.8-17.41,1.7-24.6,8.11-13,4.17-22.71-1.67-27.11-10.65-8-22.8-1.84-29.6,5.15L358,172.9c-.56-8-3.57-14.89-8.24-19a18,18,0,0,0-21-1.62l-.11-1.6c-.55-7.86-3.77-15-8.59-19.11a16.87,16.87,0,0,0-12.73-4c-9.72.89-16.18,10.05-17.68,19.77a17.09,17.09,0,0,0-8.83-1.46c-12.88,1.23-18.77,14-17.93,25.91l1.33,18.8a14.28,14.28,0,0,0-6.21-.72c-10.68,1.2-16.93,11.11-15.93,25.24l4.19,59.39h0l.08,1.18c0,.12,0,.23.06.35,2.38,28.37,14.17,44.77,25,54,.68,8.75.71,42.61-37.57,58.37L229,390.26l-34.61,10.62L204.91,436,215,434.71c-3.11,6.43-5.67,16.68-1.67,30.65,3.48,12.14,14.11,13.56,20.07,10.62,7.88-3.88,12.1-12.11,4.74-23.54-8.59-13.33-5-18.49-2.63-20.25l.71-.09,3,9.63,4,.24q4.16.25,8,.25c54.39,0,68.4-35.6,69-37.18a5.84,5.84,0,1,0-10.93-4.1c-.12.32-12.15,30.85-61.4,29.56l-9.84-31.19,0,0c36.72-15.11,43.86-45,44.87-61.47A41.67,41.67,0,0,0,291,341a6,6,0,0,0,1.25.13,5.83,5.83,0,0,0,1.25-11.53c-.32-.07-32.24-9.16-35.55-55.92l-4.19-59.4c-.09-1.24-.67-12.11,5.59-12.81a2.56,2.56,0,0,1,2.14.73c2.25,1.86,4,6.48,4.38,11.22l.15,2.12,2.38,33.81a5.84,5.84,0,0,0,11.65-.82l-2.1-29.69h0l-.29-4.12-.15-2.12h0L274.55,171c-.35-5.1,1.32-12.89,7.4-13.47a5.29,5.29,0,0,1,4.14,1.26c2.37,2,4.12,6.36,4.45,11.08,0,0,0,0,0,.07l4,56.22a5.84,5.84,0,0,0,5.82,5.43l.41,0a5.84,5.84,0,0,0,5.42-6.23L301,152.68c-.45-6.29,3.28-13.08,7.38-13.46a5.29,5.29,0,0,1,4.1,1.29c2.41,2.05,4.18,6.39,4.51,11l5.12,72.66a5.84,5.84,0,1,0,11.65-.82L330.39,175c0-.07,0-.13,0-.19-.35-5,1.31-13,7.26-13.45a5.77,5.77,0,0,1,4.48,1.37c2.28,2,3.91,6.18,4.25,10.95L352.53,261a6,6,0,0,0,.11.61,3.5,3.5,0,0,0,.07.45,6.21,6.21,0,0,0,.23.65c.06.14.09.28.16.41a6.05,6.05,0,0,0,.32.55,5.86,5.86,0,0,0,1.66,1.74l.16.12c.21.13.44.23.66.34s.21.11.32.15a4.4,4.4,0,0,0,.62.18,4.12,4.12,0,0,0,.47.13,5.11,5.11,0,0,0,.55.05,3.87,3.87,0,0,0,.49.05h.42c.17,0,.34-.06.51-.08s.38,0,.57-.1.36-.13.55-.2a5.55,5.55,0,0,0,.52-.2c.18-.09.33-.2.5-.3s.31-.18.46-.29.29-.26.43-.39.27-.24.39-.37a5.55,5.55,0,0,0,.35-.46c.1-.15.22-.29.31-.44s.18-.35.26-.52.16-.33.22-.5.11-.39.16-.58.09-.35.12-.53,0-.42,0-.63,0-.31,0-.47c-.1-2.39-.5-7.66-.8-11.52l-.25-3.43c-.72-10.13.87-18.08,4.59-23,1.78-2.34,9.64-10.16,15.67-5.63,2.57,1.93,2.12,6.27-1.21,11.59-7.28,11.64-4.87,24.46-3.29,32.82,4.24,25.63-4.14,41.16-11.92,49.67a46,46,0,0,1-7.2,6.35,6,6,0,0,0-1.19.83c-8,5.39-16.65,7.53-22.88,7.08a5.84,5.84,0,1,0-.87,11.64c.89.06,1.79.1,2.69.1a48.6,48.6,0,0,0,22.22-6l25.84,62.5c-1.06,2.2-4.43,7.14-13.89,9.05A5.84,5.84,0,0,0,372.85,414a5.79,5.79,0,0,0,1.16-.12c7.89-1.59,13.16-4.82,16.68-8.17l4.2,10.15-3.37,1.88h0l-25.11,14-56.1-74.94a5.84,5.84,0,0,0-9.34,7l62.22,83.11h0L386,477.29l30.86-17.21-4.23-7.1a53.47,53.47,0,0,0,20.7-8.07C445.11,436.87,445.23,426.58,442.32,421.53Z"/></g></svg>