<svg xmlns="http://www.w3.org/2000/svg" viewBox="0 0 648 648"><defs><style>.cls-1{fill:#cccbca;}.cls-2{fill:#222221;}</style></defs><g id="Graphic"><rect class="cls-1" x="90.72" y="257.9" width="466.56" height="132.19"/><path class="cls-2" d="M193.45,344.07l-3,.72L190.23,357a1.34,1.34,0,0,0,1.31,1.35h0a1.33,1.33,0,0,0,1.33-1.31l0-1,3.46-.83.48.91a1.33,1.33,0,0,0,2.35-1.25ZM193,353.3l.07-4.36,2.05,3.85Z"/><path class="cls-2" d="M208.88,336.83l-2.3,1.33,1.33,7.59L202,340.83l-2.3,1.33,6.11,10.54a1.32,1.32,0,0,0,1.15.66,1.27,1.27,0,0,0,.66-.17,1.33,1.33,0,0,0,.49-1.82l-2.25-3.87,3.13,2.59,2.17-1.26-.7-4,2.25,3.87a1.33,1.33,0,1,0,2.3-1.33Z"/><path class="cls-2" d="M182.52,356.33h-4V345.7h-2.65V359h6.64a1.33,1.33,0,0,0,0-2.66Z"/><path class="cls-2" d="M158.71,353.21a1.32,1.32,0,1,0,2.23,1.43l.56-.86,3.38,1.11-.07,1a1.33,1.33,0,0,0,1.24,1.41h.09a1.34,1.34,0,0,0,1.33-1.24l.79-12.21-2.93-1Zm6.35-1.06-2.07-.68,2.35-3.67Z"/><path class="cls-2" d="M155.37,337.51a3.78,3.78,0,0,0-5.24,1l-.38.55a3.78,3.78,0,0,0,1,5.24,1.11,1.11,0,0,1,.29,1.54l-.38.55a1.11,1.11,0,0,1-1.82-1.26,1.33,1.33,0,0,0-2.19-1.51,3.76,3.76,0,1,0,6.2,4.27l.38-.54a3.78,3.78,0,0,0-1-5.24,1.14,1.14,0,0,1-.46-.71,1.11,1.11,0,0,1,.18-.83l.38-.55a1.08,1.08,0,0,1,.71-.46,1.12,1.12,0,0,1,.83.18,1.14,1.14,0,0,1,.46.71,1.11,1.11,0,0,1-.18.83,1.33,1.33,0,1,0,2.19,1.51,3.78,3.78,0,0,0-1-5.24Z"/><circle class="cls-2" cx="229.04" cy="333.3" r="3.54"/><path class="cls-2" d="M231.7,303.17v11.52a2.66,2.66,0,0,1-5.32,0V289h-8.86v25.69a11.52,11.52,0,0,0,23,0V303.17Z"/><path class="cls-2" d="M202.46,326.21A11.54,11.54,0,0,0,214,314.69V303.17h-8.87v11.52a2.66,2.66,0,1,1-5.31,0V303.17h-8.86v11.52a2.66,2.66,0,0,1-5.32,0V303.17h-8.86v5.07a13.09,13.09,0,0,0-1.52-2.95h0l-5.47-7.82,4.2-6-7.26-5.08-2.35,3.36-4.09-5.84L153,289l5.94,8.48-5.48,7.82h0a13.23,13.23,0,0,0-2.07,4.84,12.41,12.41,0,0,0-24.26,3.67,12.27,12.27,0,0,0,1.1,5.07,12.42,12.42,0,0,0-6.41,10.86v3.57h8.86v-3.57a3.55,3.55,0,0,1,3.54-3.55H139l.51,0a12.41,12.41,0,0,0,12.06-9.56A13.28,13.28,0,0,0,177,317a11.49,11.49,0,0,0,18.37,6.74A11.48,11.48,0,0,0,202.46,326.21Zm-62.91-8.86v0h-.26a3.3,3.3,0,1,1,.26,0Zm24.81,0a4.49,4.49,0,0,1-4.43-4.43,4.35,4.35,0,0,1,.8-2.54h0l3.63-5.19,3.63,5.19h0a4.42,4.42,0,0,1,.8,2.54A4.49,4.49,0,0,1,164.36,317.35Z"/><path class="cls-2" d="M356.7,319.09a3.49,3.49,0,0,1,.07.77v2.37a3.39,3.39,0,0,1-.07.76c-.05.22-.11.32-.18.32h-1a2,2,0,0,1,0,.4,5.22,5.22,0,0,1-1.13,3.33,7.11,7.11,0,0,1-3.21,2.22,13.8,13.8,0,0,1-4.92.79c-2.47,0-4.2-.45-5.17-1.35a5.26,5.26,0,0,1-1.47-4.05A71.34,71.34,0,0,1,341,316.3l2.77.6c-.25,1.35-.47,2.69-.67,4a25.74,25.74,0,0,0-.32,3q0,.94,1.2,1.26a11.56,11.56,0,0,0,2.92.32,16.87,16.87,0,0,0,3.36-.29,6.2,6.2,0,0,0,2.32-1c0-.41-.3-.67-.89-.78a19.28,19.28,0,0,0-2.91-.16l.74-4.54h7C356.59,318.77,356.65,318.88,356.7,319.09Z"/><path class="cls-2" d="M365.21,314.25a11.56,11.56,0,0,1,1.19,5.24,2.81,2.81,0,0,1-1,2.27,6.83,6.83,0,0,1-3.16,1.21,33.09,33.09,0,0,1-5.71.34c-.06,0-.12-.1-.18-.32a2.83,2.83,0,0,1-.09-.76v-2.37a3.44,3.44,0,0,1,.08-.77c.05-.21.11-.32.19-.32a39.06,39.06,0,0,0,6.84-.39,7.39,7.39,0,0,0-1.9-3.85,24.3,24.3,0,0,0-4.52-3.91l.1-3.35q2.37-1.33,4.52-2.29a43.56,43.56,0,0,1,4.37-1.66l.49,3.68c-.57.24-1.44.6-2.59,1.06l-3.08,1.26a5,5,0,0,1,.88.59A13.48,13.48,0,0,1,365.21,314.25Zm-3-10.32-2.57,1.24-2.56,1.26.05-2.69,4.91-2.23Z"/><path class="cls-2" d="M380,314.45a10.06,10.06,0,0,1,1.34,4.79,3.83,3.83,0,0,1-1,2.82q-1.61,1.67-5.78,1.67a8.8,8.8,0,0,1-2.89-.39A2.93,2.93,0,0,1,370,322a5.25,5.25,0,0,1-.53-2.6,9.67,9.67,0,0,1,.12-1.58l2.79.23-.05.42a.57.57,0,0,0,.19.49,1.08,1.08,0,0,0,.61.18c.29,0,.79,0,1.5,0,.41,0,1,0,1.71-.1s1.36-.15,1.87-.24a7.62,7.62,0,0,0-1.32-2.78,24.19,24.19,0,0,0-3-3.35l2.29-3.08A19.23,19.23,0,0,1,380,314.45Z"/><path class="cls-2" d="M388,304.11v19.2l-3.09.42-.34-19Z"/><path class="cls-2" d="M402.5,319.09a4.22,4.22,0,0,1,.07.77v2.37a4.1,4.1,0,0,1-.07.76c-.05.22-.11.32-.18.32H400.4q-1.36,4.88-7.63,7.53l-2.3-3.5a19.78,19.78,0,0,0,4-1.91,11,11,0,0,0,2.69-2.29,8.19,8.19,0,0,1-1.82.2,6.74,6.74,0,0,1-2.18-.3,1.24,1.24,0,0,1-.6-.36,6,6,0,0,1-.71-.95,4.88,4.88,0,0,1-.53-1,2.36,2.36,0,0,1-.13-.78,10.78,10.78,0,0,1,1.32-5.13,3.9,3.9,0,0,1,3.57-2,3.74,3.74,0,0,1,3.11,1.66,8.7,8.7,0,0,1,1.53,4.29h1.6C402.39,318.77,402.45,318.88,402.5,319.09Zm-6.42.52a11.25,11.25,0,0,0,1.75-.1,3.48,3.48,0,0,0-.56-2.12,1.73,1.73,0,0,0-1.44-.74,1.38,1.38,0,0,0-1.21.71,4.7,4.7,0,0,0-.54,2.15A14.37,14.37,0,0,0,396.08,319.61Z"/><path class="cls-2" d="M409.53,315.41c.05.86.08,2,.08,3.31a3.76,3.76,0,0,1-1.71,3.34q-1.77,1.24-5.58,1.25c-.06,0-.12-.1-.18-.32a2.83,2.83,0,0,1-.09-.76v-2.37a4.22,4.22,0,0,1,.07-.77c.05-.21.12-.32.2-.32a22.59,22.59,0,0,0,2.67-.12,5.94,5.94,0,0,0,1.51-.37l-.67-5.31,3.45-.62C409.4,313.54,409.48,314.56,409.53,315.41Zm-2.71-6.07-3.11-2.59,2.59-3.09,3.08,2.59Z"/><path class="cls-2" d="M419.85,319.09a3.49,3.49,0,0,1,.07.77v2.37a3.39,3.39,0,0,1-.07.76c-.05.22-.11.32-.17.32h-.82a7.32,7.32,0,0,1-3.08-.55,3.74,3.74,0,0,1-1.82-2,10.56,10.56,0,0,1-.68-3.93l-.12-12.1,3.46-.64v12.71q0,1.95,1.65,1.95h1.41C419.74,318.77,419.8,318.88,419.85,319.09Z"/><path class="cls-2" d="M433.84,313.55a13.46,13.46,0,0,0,3.34.41l-.91,4.27a9.8,9.8,0,0,0-2.82.69,28.78,28.78,0,0,0-2.91,1.48c-.92.53-1.65.91-2.17,1.16a19,19,0,0,1-3.7,1.29,21,21,0,0,1-4.7.46h-.29c-.07,0-.13-.1-.19-.32a3.34,3.34,0,0,1-.08-.76v-2.37a3.49,3.49,0,0,1,.07-.77c0-.21.12-.32.2-.32H420a24.46,24.46,0,0,0,6.13-.76,21.74,21.74,0,0,0,3.06-1c.61-.25,1-.41,1.33-.49l.47-.1a21.18,21.18,0,0,1-2.1-.72,15.3,15.3,0,0,0-3.48-.94,1.15,1.15,0,0,0-1,.42,3,3,0,0,0-.39,1.09l-2.64-.42q.69-4.79,3.8-4.79a7,7,0,0,1,1.83.26c.62.17,1.47.45,2.54.83l.38.14.34.13A35.5,35.5,0,0,0,433.84,313.55ZM428,308.9l-3.08-2.6,2.59-3.08,3.06,2.59Z"/><path class="cls-2" d="M444.29,322.52a10.28,10.28,0,0,1,.57-3.9,16.44,16.44,0,0,1,2.86-4.61,4.58,4.58,0,0,1,3.34-1.71,3.49,3.49,0,0,1,2.28.82,5.12,5.12,0,0,1,1.54,2.2,8.13,8.13,0,0,1,.55,3.06,10.38,10.38,0,0,1-.47,3.06,2.45,2.45,0,0,1-.4.73,5.47,5.47,0,0,1-.94.82,2.86,2.86,0,0,1-1.45.67,1.42,1.42,0,0,1-.52-.12l-4.35-2q.34,3.29,1,7.78l-3.39,1A67,67,0,0,1,444.29,322.52Zm8.27-4a3.09,3.09,0,0,0-.47-1.8,1.61,1.61,0,0,0-1.43-.69c-.76,0-1.57.69-2.44,2.08l4.12,2A6.88,6.88,0,0,0,452.56,318.52Z"/><path class="cls-2" d="M465.5,319.09a3.49,3.49,0,0,1,.07.77v2.37a3.39,3.39,0,0,1-.07.76c-.05.22-.11.32-.17.32h-.82a7.29,7.29,0,0,1-3.08-.55,3.74,3.74,0,0,1-1.82-2,10.36,10.36,0,0,1-.68-3.93l-.12-12.1,3.46-.64v12.71q0,1.95,1.65,1.95h1.41C465.39,318.77,465.45,318.88,465.5,319.09Z"/><path class="cls-2" d="M472.54,315.41c0,.86.07,2,.07,3.31a3.77,3.77,0,0,1-1.7,3.34q-1.79,1.24-5.58,1.25c-.07,0-.13-.1-.19-.32a2.83,2.83,0,0,1-.09-.76v-2.37a3.44,3.44,0,0,1,.08-.77c.05-.21.11-.32.2-.32a22.29,22.29,0,0,0,2.66-.12,5.83,5.83,0,0,0,1.51-.37l-.67-5.31,3.46-.62C472.4,313.54,472.49,314.56,472.54,315.41Zm-2.72-6.07-3.11-2.59,2.59-3.09,3.09,2.59Z"/><path class="cls-2" d="M487.38,313.81a6.26,6.26,0,0,1,1.65,2.7,12.11,12.11,0,0,1,.56,3.82,10.23,10.23,0,0,1-1.85,6,13.82,13.82,0,0,1-6.17,4.53l-2.3-3.5a19.53,19.53,0,0,0,4-1.91,11.22,11.22,0,0,0,2.7-2.29,8.34,8.34,0,0,1-1.83.2A6.68,6.68,0,0,1,482,323a1.27,1.27,0,0,1-.61-.36,5.5,5.5,0,0,1-.7-.95,4.41,4.41,0,0,1-.53-1A2.38,2.38,0,0,1,480,320a10.78,10.78,0,0,1,1.32-5.13,3.9,3.9,0,0,1,3.57-2A3.56,3.56,0,0,1,487.38,313.81Zm-2.5,5.8a11.17,11.17,0,0,0,1.75-.1,3.48,3.48,0,0,0-.55-2.12,1.75,1.75,0,0,0-1.45-.74,1.38,1.38,0,0,0-1.21.71,5,5,0,0,0-.54,2.15A14.46,14.46,0,0,0,484.88,319.61Z"/><path class="cls-2" d="M497.62,322.52a10.28,10.28,0,0,1,.57-3.9,16.44,16.44,0,0,1,2.86-4.61,4.54,4.54,0,0,1,3.33-1.71,3.5,3.5,0,0,1,2.29.82,5.2,5.2,0,0,1,1.54,2.2,8.33,8.33,0,0,1,.54,3.06,10.06,10.06,0,0,1-.47,3.06,2.43,2.43,0,0,1-.39.73,5.9,5.9,0,0,1-.94.82,2.84,2.84,0,0,1-1.46.67,1.38,1.38,0,0,1-.51-.12l-4.35-2q.35,3.29,1,7.78l-3.38,1A67,67,0,0,1,497.62,322.52Zm8.27-4a3.16,3.16,0,0,0-.47-1.8A1.61,1.61,0,0,0,504,316c-.76,0-1.57.69-2.45,2.08l4.13,2A6.88,6.88,0,0,0,505.89,318.52Z"/><path class="cls-2" d="M518.83,319.09a3.49,3.49,0,0,1,.07.77v2.37a3.39,3.39,0,0,1-.07.76c-.05.22-.11.32-.18.32h-.81a7.34,7.34,0,0,1-3.09-.55,3.73,3.73,0,0,1-1.81-2,10.36,10.36,0,0,1-.68-3.93l-.12-12.1,3.45-.64v12.71c0,1.3.55,1.95,1.66,1.95h1.4C518.72,318.77,518.78,318.88,518.83,319.09Z"/><path class="cls-2" d="M525.86,315.41c0,.86.08,2,.08,3.31a3.76,3.76,0,0,1-1.71,3.34q-1.77,1.24-5.58,1.25c-.06,0-.12-.1-.18-.32a2.83,2.83,0,0,1-.09-.76v-2.37a3.44,3.44,0,0,1,.08-.77c0-.21.11-.32.19-.32a22.59,22.59,0,0,0,2.67-.12,5.94,5.94,0,0,0,1.51-.37l-.67-5.31,3.45-.62C525.73,313.54,525.81,314.56,525.86,315.41Zm-2.71-6.07L520,306.75l2.59-3.09,3.08,2.59Z"/><path class="cls-2" d="M435.61,362.74a4.07,4.07,0,0,1-1.13-2.8,19.39,19.39,0,0,1,.29-2.48c.19-1.2.44-2.7.77-4.52l1.53.33c-.45,2.55-.74,4.56-.85,6a1.54,1.54,0,0,0,1.12,1.75,8.27,8.27,0,0,0,2.78.44,15,15,0,0,0,3.11-.29,5.3,5.3,0,0,0,2.25-1c0-.39.06-.72.06-1a1.36,1.36,0,0,0-.18-.82,1.31,1.31,0,0,0-.65-.33l-1.25-.17a14.26,14.26,0,0,1-1.63-.29,1.37,1.37,0,0,1-.76-.44,1.35,1.35,0,0,1-.27-.92,9.74,9.74,0,0,1,.63-3.41,8,8,0,0,1,1.68-2.79,3.11,3.11,0,0,1,2.24-1.08,2.4,2.4,0,0,1,1.52.53,6.57,6.57,0,0,1,1.33,1.57l-1.08,1.08a2.53,2.53,0,0,0-1.73-.9,2.22,2.22,0,0,0-1.84,1.23,6.78,6.78,0,0,0-1,3l.72.11a16.8,16.8,0,0,1,2.37.46,2.25,2.25,0,0,1,1.25.9,3.44,3.44,0,0,1,.47,2,4.3,4.3,0,0,1-.84,2.83,5.26,5.26,0,0,1-2.6,1.69,13,13,0,0,1-4.07.57C437.78,364,436.37,363.57,435.61,362.74Z"/><path class="cls-2" d="M448.13,363.12q3.83-2.08,4.81-4.41l-.77-6.43,2-.48a4.13,4.13,0,0,1,0,.5c.19,1.66.32,2.89.39,3.7s.12,1.49.12,2a6.07,6.07,0,0,1-1.35,3.82,13.2,13.2,0,0,1-4,3.23Z"/><path class="cls-2" d="M463,356.76a3.09,3.09,0,0,1,.07.68V358a3.06,3.06,0,0,1-.07.67c-.05.18-.1.28-.15.28h-.53a4.32,4.32,0,0,1-3.16-1,4.89,4.89,0,0,1-1.05-3.4l-.33-11.09,2-.48.18,11.59a1.9,1.9,0,0,0,.53,1.38,1.87,1.87,0,0,0,1.4.51h1C462.87,356.5,462.92,356.58,463,356.76Z"/><path class="cls-2" d="M469.49,351.77a9.8,9.8,0,0,1,1,4.42c0,1-.63,1.73-1.88,2.15a19.61,19.61,0,0,1-5.81.64c-.05,0-.11-.1-.16-.28a2.51,2.51,0,0,1-.08-.67v-.59a2.6,2.6,0,0,1,.07-.67c0-.18.1-.27.17-.27,1.23,0,2.41-.06,3.53-.17a9.93,9.93,0,0,0,2.51-.49,7.16,7.16,0,0,0-1.55-4,17.89,17.89,0,0,0-4.11-3.68l.09-2.06a47.29,47.29,0,0,1,7.37-3.29l.26,2.08q-3,1.14-5.55,2.37l.59.44A13.34,13.34,0,0,1,469.49,351.77Z"/><path class="cls-2" d="M478.29,357.37c.19-1.2.44-2.7.76-4.52l1.54.35c-.45,2.51-.74,4.51-.86,6a1.56,1.56,0,0,0,1.11,1.74,7.78,7.78,0,0,0,2.71.45,15.44,15.44,0,0,0,2.77-.24,6.06,6.06,0,0,0,2.19-.79l-.83-8.38,2-.44q.42,4.89.57,8.49a3,3,0,0,1-1.89,2.88,11.25,11.25,0,0,1-4.95,1c-2.07,0-3.48-.42-4.24-1.25a4,4,0,0,1-1.14-2.79A19.39,19.39,0,0,1,478.29,357.37Zm7.44-8.64-1.58,1.88L482.28,349l1.56-1.86Z"/><path class="cls-2" d="M495.25,343l.17,16-1.71.24-.44-15.72Z"/><path class="cls-2" d="M507.76,356.76a3.17,3.17,0,0,1,.06.68V358a3.13,3.13,0,0,1-.06.67c-.05.18-.1.28-.16.28h-1.82a7.89,7.89,0,0,1-2.21,3.53,13.34,13.34,0,0,1-4.09,2.57l-1.2-2a14.79,14.79,0,0,0,3.63-1.91,7.72,7.72,0,0,0,2.25-2.39,11.05,11.05,0,0,1-2.31.22,12,12,0,0,1-1.53-.11,1.23,1.23,0,0,1-.59-.26,2.67,2.67,0,0,1-.53-.62,2.33,2.33,0,0,1-.38-.7,1.53,1.53,0,0,1-.08-.64,10.3,10.3,0,0,1,1-3.95,2.81,2.81,0,0,1,2.67-1.71,2.84,2.84,0,0,1,2.78,1.65,9.59,9.59,0,0,1,.89,3.82h1.55C507.66,356.5,507.71,356.58,507.76,356.76Zm-5.64,0a11.93,11.93,0,0,0,2.26-.17,4.88,4.88,0,0,0-.53-2.6,1.71,1.71,0,0,0-1.53-.81,1.59,1.59,0,0,0-1.43.88,5.39,5.39,0,0,0-.53,2.55A7.2,7.2,0,0,0,502.12,356.78Z"/><path class="cls-2" d="M515.86,356.76a3.17,3.17,0,0,1,.06.68V358a3.13,3.13,0,0,1-.06.67c-.05.18-.1.28-.16.28a7.85,7.85,0,0,1-2.77-.36,1.74,1.74,0,0,1-1.13-1.16,2.53,2.53,0,0,1-1.47,1.16,8.51,8.51,0,0,1-2.73.36c-.05,0-.11-.1-.16-.28a2.51,2.51,0,0,1-.08-.67v-.59a2.6,2.6,0,0,1,.07-.67c0-.18.1-.27.17-.27a7.2,7.2,0,0,0,3.27-.57l-.41-4.37,2-.18.27,4.68a2.88,2.88,0,0,0,1,.34,15.22,15.22,0,0,0,2,.1C515.76,356.5,515.81,356.58,515.86,356.76ZM511.29,349l-1.86-1.58,1.55-1.86,1.89,1.58Z"/><path class="cls-2" d="M526.17,357.64c-1.79.44-3.1.74-3.95.91a20.79,20.79,0,0,1-2.37.34c-.73.06-1.7.09-2.92.09H515.7c-.06,0-.11-.1-.16-.28a2.51,2.51,0,0,1-.08-.67v-.59a2.6,2.6,0,0,1,.07-.67c0-.18.1-.27.17-.27h2.94a6.67,6.67,0,0,1-.57-2.75,3.15,3.15,0,0,1,1.12-2.64,4.63,4.63,0,0,1,2.92-.87,8.76,8.76,0,0,1,2.26.31l-.5,2.13a6.14,6.14,0,0,0-2-.27,6,6,0,0,0-2.06.31,8.91,8.91,0,0,0,.22,2,6.47,6.47,0,0,0,.61,1.68,40.28,40.28,0,0,0,5.36-1.1Z"/></g></svg>