<svg xmlns="http://www.w3.org/2000/svg" viewBox="0 0 672 672"><g id="Layer_1" data-name="Layer 1"><path d="M317.86,305.21a4.5,4.5,0,0,1-.81-8.93,5.33,5.33,0,0,0,4.34-5.5,4.52,4.52,0,0,1,4.43-4.58,4.59,4.59,0,0,1,4.57,4.43,14.39,14.39,0,0,1-11.71,14.5A4.56,4.56,0,0,1,317.86,305.21Zm8-18a3.52,3.52,0,0,0-3.43,3.56,6.32,6.32,0,0,1-5.16,6.5h0a3.5,3.5,0,0,0,1.27,6.89,13.41,13.41,0,0,0,10.89-13.5A3.59,3.59,0,0,0,325.82,287.2Z"/><path d="M322.86,194.13a3.91,3.91,0,0,1-2.11-.64,7.78,7.78,0,0,1-3.07-5.19c-.68-3.82.9-7.51,3.53-8.22h0a3.77,3.77,0,0,1,3,.52,7.74,7.74,0,0,1,3.07,5.19c.68,3.82-.9,7.51-3.53,8.22A3.57,3.57,0,0,1,322.86,194.13Zm-1.39-13.08c-2.14.58-3.4,3.75-2.81,7.08a6.68,6.68,0,0,0,2.63,4.51,2.75,2.75,0,0,0,2.23.4c2.14-.57,3.4-3.75,2.81-7.07a6.68,6.68,0,0,0-2.63-4.52,2.75,2.75,0,0,0-2.23-.4Z"/><path d="M331.91,217.46a4.49,4.49,0,0,1-4.48-4.06h0a4.51,4.51,0,0,1,4-4.93l4.87-.48-2.95-13.24a4.51,4.51,0,0,1,3.42-5.37,4.52,4.52,0,0,1,5.37,3.42L347.33,216l-15,1.48Zm5.87-27.17a3.33,3.33,0,0,0-.76.08,3.46,3.46,0,0,0-2.19,1.54,3.5,3.5,0,0,0-.46,2.64l3.19,14.34-6,.59a3.5,3.5,0,0,0-3.14,3.83h0a3.48,3.48,0,0,0,3.83,3.13l13.85-1.37-4.91-22A3.5,3.5,0,0,0,337.78,190.29Z"/><path d="M338.09,237.32a23.79,23.79,0,0,1-12-3.3,4.5,4.5,0,0,1-1.59-6.16h0a4.51,4.51,0,0,1,6.16-1.6A14.84,14.84,0,0,0,350.9,221a4.42,4.42,0,0,1,2.75-2.08,4.5,4.5,0,0,1,5,6.64,23.65,23.65,0,0,1-14.55,11A24,24,0,0,1,338.09,237.32Zm-12.78-8.95a3.5,3.5,0,0,0,1.24,4.79,22.92,22.92,0,0,0,17.3,2.42,22.61,22.61,0,0,0,13.94-10.52,3.5,3.5,0,0,0-6-3.55,15.83,15.83,0,0,1-21.66,5.61,3.51,3.51,0,0,0-4.79,1.25Z"/><path d="M390.9,355.55l-65.63-86a4.5,4.5,0,0,1,7.16-5.46l40,52.47,21.89-12.21-3.22-7.76a25.54,25.54,0,0,1-12.8,6.26,5.47,5.47,0,0,1-.9.08,4.5,4.5,0,0,1-.88-8.91c7.19-1.45,9.81-5.17,10.65-6.91l-17.7-42.68c-6.54,3.62-13.68,5.41-20,4.93a4.5,4.5,0,0,1-4.16-4.82,4.53,4.53,0,0,1,1.56-3.1,4.47,4.47,0,0,1,3.27-1c6.54.47,16.51-2.74,24-11,6-6.54,12.42-18.46,9.15-38.15-1.22-6.48-3.06-16.29,2.54-25.24,2.55-4.08,2.9-7.4.93-8.89-4.62-3.48-10.66,2.53-12,4.33-2.86,3.76-4.08,9.87-3.53,17.65l.2,2.64c.21,2.77.53,7,.61,8.85,0,.09,0,.18,0,.27l0,.2a2.36,2.36,0,0,1,0,.38c0,.11,0,.22-.08.33l0,.19c0,.11-.06.22-.1.33a1.83,1.83,0,0,1-.14.32l-.08.18c0,.1-.09.19-.14.29l-.22.3-.09.13a2.65,2.65,0,0,1-.21.26,2.72,2.72,0,0,1-.24.24l-.08.07c-.15.14-.22.21-.31.28a2.9,2.9,0,0,1-.29.19l-.16.09-.29.17a2.52,2.52,0,0,1-.33.14l-.26-.44.09.5-.33.11-.34.07-.2,0-.29.05h-.32l-.25,0-.05-.51-.11.49-.4,0-.26-.07,0-.5-.21.46c-.13,0-.26-.07-.38-.12a3.26,3.26,0,0,1-.38-.18l-.15-.08-.21-.11a4.43,4.43,0,0,1-2-2.7,1.77,1.77,0,0,1,0-.2l0-.18a3,3,0,0,1-.07-.43L358.35,124c-.26-3.72-1.48-6.86-3.26-8.4a4.41,4.41,0,0,0-3.43-1.06c-4.57.33-5.84,6.51-5.57,10.33v.15l2.63,37.17a4.5,4.5,0,0,1-9,.63L335.79,107c-.26-3.57-1.61-6.9-3.47-8.47a3.93,3.93,0,0,0-3.14-1c-3.08.28-6,5.59-5.66,10.33l3.94,55.86a4.5,4.5,0,0,1-4.17,4.8,4.52,4.52,0,0,1-4.8-4.17l-3.05-43.21c-.27-3.75-1.58-7-3.44-8.57a4,4,0,0,0-3.16-1c-4.67.45-5.95,6.43-5.68,10.34l2.59,36.65.06.08,0,.17,1.6,22.73a4.45,4.45,0,0,1-1.09,3.27,4.5,4.5,0,0,1-7.89-2.64l-1.95-27.61c-.26-3.7-1.61-7.17-3.35-8.62a2,2,0,0,0-1.64-.56c-4.8.53-4.35,8.88-4.29,9.83l3.23,45.67c2.51,35.65,27.08,42.91,27.32,43a4.5,4.5,0,0,1-1,8.9,4.44,4.44,0,0,1-1-.11,29.68,29.68,0,0,1-5.26-2.05c-.31,12-4.91,33.13-31,45.91l9.43,23.3c35.7-1.63,43.65-21.34,44-22.18a4.51,4.51,0,0,1,8.45,3.13c-.41,1.12-10.56,27.44-55.34,28.14l-3.09.05-2.17-5.36-11.1,1.91.63,8A19.75,19.75,0,0,1,255,354.48l-4.23,1-13.48-49.79,34.62-15.5,3.68-1.72c27.52-13.46,26.74-36.63,25.77-43.74-8-6.6-17.89-19.21-19.8-42,0-.13,0-.2,0-.27l-3.28-46.57c-.77-10.88,4-18.5,12.26-19.42a10.55,10.55,0,0,1,4.76.57l-1-14.46c-.65-9.19,3.88-19,13.79-19.93a13.18,13.18,0,0,1,6.81,1.13c1.16-7.15,6.09-14.52,13.57-15.21a13,13,0,0,1,9.79,3.1c3.72,3.15,6.19,8.65,6.61,14.7l.09,1.22a13.23,13.23,0,0,1,6.16-2,13.37,13.37,0,0,1,10,3.23c3.6,3.11,5.91,8.43,6.35,14.57l2.15,30.46a23.79,23.79,0,0,1,9.57-6.08,14.09,14.09,0,0,1,13.17,2.15c4.71,3.55,7.52,10.89,1.29,20.86-3.45,5.51-2.63,11.82-1.31,18.89,3.87,23.34-4,37.78-11.37,45.79a42.47,42.47,0,0,1-3.78,3.65l28.69,69.15-6.46,3.61,3.82,9.34,8.64-2.8a18.49,18.49,0,0,1,21.54,8.22l2.32,4ZM238.43,306.23l13,48,3.29-.77a18.76,18.76,0,0,0,14.54-19.87l-.71-8.93,12.8-2.2,2.21,5.47,2.4,0c44.1-.69,54-26.39,54.42-27.49a3.5,3.5,0,0,0-6.57-2.42c-.33.87-8.57,21.29-45.22,22.83l-.35,0L278.2,296l.8-.38c26.26-12.83,30.39-34.22,30.52-45.84V249l.72.36A30,30,0,0,0,316,251.7a3.08,3.08,0,0,0,.75.09,3.5,3.5,0,0,0,.75-6.92c-.25-.06-25.51-7.2-28.1-43.88l-3.22-45.67c-.08-1-.56-10.26,5.17-10.9a3,3,0,0,1,2.39.79c1.94,1.62,3.43,5.36,3.71,9.32l1.95,27.61a3.5,3.5,0,0,0,6.14,2.05,3.46,3.46,0,0,0,.84-2.54L302.17,122c-.31-4.3,1.19-10.89,6.57-11.4a5,5,0,0,1,3.91,1.19c2.05,1.74,3.5,5.26,3.77,9.2l3.06,43.28a3.5,3.5,0,0,0,7-.49l-3.94-55.86c-.39-5.41,2.86-11.06,6.56-11.4A5,5,0,0,1,333,97.76c2,1.74,3.54,5.34,3.81,9.17l4,55.86a3.49,3.49,0,0,0,6.13,2.05,3.48,3.48,0,0,0,.85-2.54l-2.63-37.21V125c-.3-4.2,1.21-11,6.5-11.4a5.46,5.46,0,0,1,4.16,1.3c2,1.71,3.32,5.11,3.6,9.09L364.08,191a2.68,2.68,0,0,0,.05.3l0,.24a3.5,3.5,0,0,0,1.56,2.19.67.67,0,0,0,.12.06l.12.06.34.17.27.08.2.05.16,0,.28,0,.23,0h.25l.1.5,0-.5.15,0,.27,0,.23,0,.22-.08.2-.08.22-.08.19-.12.18-.11.21-.13.15-.14.17-.15.17-.16.13-.18.06-.08a3.09,3.09,0,0,0,.21-.29l.09-.19.1-.2a1.89,1.89,0,0,0,.09-.21,1,1,0,0,0,.06-.23l.06-.21a1.89,1.89,0,0,0,0-.23c0-.09,0-.17,0-.26v-.27s0-.09,0-.13c-.08-1.86-.4-6-.61-8.82l-.2-2.64c-.56-8,.72-14.36,3.73-18.33,1.49-2,8.14-8.49,13.42-4.52,2.43,1.83,2.17,5.65-.69,10.22-5.39,8.62-3.59,18.2-2.39,24.53,3.33,20.1-3.28,32.3-9.4,39-7.74,8.47-18.05,11.77-24.84,11.28a3.45,3.45,0,0,0-2.54.81,3.52,3.52,0,0,0,2,6.17c.66.05,1.33.07,2,.07a37.05,37.05,0,0,0,17.93-5.16L370,243l18.3,44.14-.08.19c-.81,1.78-3.54,6.07-11.46,7.67a3.5,3.5,0,0,0-2.74,4.13,3.54,3.54,0,0,0,4.12,2.74,24.39,24.39,0,0,0,12.83-6.5l.53-.54,4.13,10-23.43,13.07-40.55-53.16a3.55,3.55,0,0,0-2.32-1.35,3.5,3.5,0,0,0-3.25,5.6l65.1,85.32,43.05-24-1.8-3.09a17.49,17.49,0,0,0-20.37-7.77l-9.52,3.09-4.51-11,6.45-3.6-28.62-69,.28-.24a43.79,43.79,0,0,0,4-3.8c7.17-7.85,14.92-22,11.12-44.94-1.37-7.28-2.2-13.78,1.44-19.6,5.87-9.4,3.32-16.25-1-19.53-4-3-13.22-5.46-22.19,4.65l-.78.89-2.32-32.8c-.41-5.88-2.6-10.94-6-13.89a12.46,12.46,0,0,0-9.25-3,12.3,12.3,0,0,0-6.38,2.29l-.72.52-.21-3c-.41-5.79-2.75-11-6.26-14a12,12,0,0,0-9.06-2.86c-7.2.66-11.87,8.06-12.77,15l-.09.71L315,105a12,12,0,0,0-6.87-1.33c-9.28.88-13.51,10.16-12.9,18.86l1.14,16.07-.76-.33a9.73,9.73,0,0,0-5-.78c-7.64.85-12.1,8.05-11.38,18.34l3.29,46.58c0,.13,0,.18,0,.23,1.9,22.59,11.7,35,19.59,41.44l.15.12,0,.2c1,7,2.09,31.09-26.3,45l-3.7,1.73ZM381,329.43l-4.55-6,15.38-8.58,4,9.75ZM378,323.77l3.43,4.49L394.52,324l-3.16-7.71Zm-110-6.08-1.3-16.44,5.12-2.29,6.85,16.9Zm-.25-15.81,1.16,14.64,8.36-1.44-6-14.79Z"/><path d="M352.32,194.13a4,4,0,0,1-2.11-.64,7.7,7.7,0,0,1-3.07-5.19c-.68-3.82.9-7.51,3.53-8.22a3.74,3.74,0,0,1,3,.52,7.75,7.75,0,0,1,3.08,5.19c.68,3.82-.9,7.51-3.53,8.22h0A3.69,3.69,0,0,1,352.32,194.13ZM351.58,181a2.37,2.37,0,0,0-.65.09c-2.14.58-3.4,3.75-2.81,7.08a6.68,6.68,0,0,0,2.63,4.51,2.75,2.75,0,0,0,2.23.4c2.14-.57,3.4-3.75,2.81-7.07a6.7,6.7,0,0,0-2.63-4.52A2.9,2.9,0,0,0,351.58,181Z"/><path d="M338,583.49H319.5v-41h9v32H338a4.5,4.5,0,0,1,0,9Zm-17.5-1H338a3.5,3.5,0,0,0,0-7H327.5v-32h-7Z"/><path d="M243.94,550a11.5,11.5,0,0,1-8.71-19,4.5,4.5,0,1,1,6.83,5.85,2.51,2.51,0,0,0-.59,1.82,2.47,2.47,0,0,0,.86,1.7,2.51,2.51,0,0,0,1.83.6,2.46,2.46,0,0,0,1.7-.87l1.63-1.9a2.49,2.49,0,0,0,.59-1.82,2.46,2.46,0,0,0-.87-1.7A11.51,11.51,0,0,1,246,518.46l1.62-1.89a11.51,11.51,0,0,1,16.22-1.26,11.5,11.5,0,0,1,1.25,16.21,4.49,4.49,0,0,1-6.34.49,4.42,4.42,0,0,1-1.56-3.07,4.47,4.47,0,0,1,1.07-3.27,2.51,2.51,0,0,0,.59-1.82,2.46,2.46,0,0,0-.87-1.7,2.49,2.49,0,0,0-3.52.27l-1.63,1.9a2.49,2.49,0,0,0-.59,1.82,2.46,2.46,0,0,0,.87,1.7,11.51,11.51,0,0,1,1.25,16.22L252.7,546a11.39,11.39,0,0,1-7.85,4A9.1,9.1,0,0,1,243.94,550Zm-5.29-19.55a3.47,3.47,0,0,0-2.66,1.22,10.5,10.5,0,1,0,15.95,13.65l1.62-1.89a10.5,10.5,0,0,0-1.14-14.81,3.49,3.49,0,0,1-.39-4.93l1.63-1.9a3.5,3.5,0,0,1,4.94-.38,3.43,3.43,0,0,1,1.21,2.38,3.52,3.52,0,0,1-.83,2.55,3.5,3.5,0,0,0,.38,4.93,3.49,3.49,0,0,0,4.93-.38,10.5,10.5,0,1,0-16-13.65l-1.62,1.89a10.5,10.5,0,0,0,1.14,14.81,3.49,3.49,0,0,1,.39,4.93l-1.63,1.9a3.49,3.49,0,0,1-2.39,1.22,3.54,3.54,0,0,1-2.55-.84,3.5,3.5,0,0,1-.38-4.93,3.43,3.43,0,0,0,.83-2.55,3.47,3.47,0,0,0-3.48-3.22Z"/><path d="M412.29,563.48a4.54,4.54,0,0,1-3.67-1.89l-21.44-30.16,7.21-5.12,18.3,12.52-5.82-21.4,7.21-5.12,21.44,30.15a4.5,4.5,0,0,1-7.34,5.22l-6.08-8.56,2.37,8.74-7.12,5.07-7.48-5.12,6.09,8.56a4.5,4.5,0,0,1-1.06,6.28A4.52,4.52,0,0,1,412.29,563.48Zm-23.71-31.81L409.44,561a3.5,3.5,0,0,0,4.88.82,3.46,3.46,0,0,0,1.42-2.27,3.42,3.42,0,0,0-.6-2.61l-9.34-13.14,11.54,7.9,6-4.26L419.66,534,429,547.1a3.5,3.5,0,0,0,6.3-1.45,3.42,3.42,0,0,0-.6-2.61L413.84,513.7,408,517.84l6.35,23.35-20-13.66Z"/><path d="M365,581.51a4.51,4.51,0,0,1-4.52-4.48L360.31,540l9.39-2.53,18.49,32.15a4.5,4.5,0,0,1-7.81,4.49l-1.62-2.83-9.3,2.51V577a4.49,4.49,0,0,1-4.48,4.52Zm-3.68-40.79.16,36.31a3.51,3.51,0,0,0,6,2.45,3.46,3.46,0,0,0,1-2.48v-4l10.78-2.91,2,3.5a3.51,3.51,0,0,0,4.78,1.29,3.52,3.52,0,0,0,1.64-2.12,3.48,3.48,0,0,0-.35-2.66l-18.1-31.48Zm7.11,25-.06-14.59,7.27,12.65Zm1-10.82,0,9.51,4.7-1.26Z"/><path d="M290.9,577.37l-.53,0a4.51,4.51,0,0,1-3.94-5l.38-3.23-9-3.53-1.93,2.63a4.5,4.5,0,0,1-7.25-5.33l22-29.88,9.05,3.56,0,.38-4.26,36.45A4.51,4.51,0,0,1,290.9,577.37Zm-13.4-13,10.39,4.09-.47,4a3.5,3.5,0,0,0,6.95.81l4.22-36.06-7.62-3-21.5,29.26a3.49,3.49,0,0,0,3.34,5.53,3.5,3.5,0,0,0,2.3-1.38Zm11.23-3.1-7-2.74,8.64-11.75Zm-5.37-3.19,4.53,1.78,1.1-9.45Z"/><path d="M458,491.4a30.54,30.54,0,0,1-30.5-30.5V394.4h25v66.5a5.5,5.5,0,0,0,11,0V430.4h25v30.5A30.54,30.54,0,0,1,458,491.4Zm-29.5-96v65.5a29.5,29.5,0,0,0,59,0V431.4h-23v29.5a6.5,6.5,0,0,1-13,0V395.4Z"/><path d="M208.5,507.4h-25v-8.5a32.39,32.39,0,0,1,14.68-27.14,32.12,32.12,0,0,1-2.68-12.86,32.48,32.48,0,0,1,63.14-10.76,34.33,34.33,0,0,1,5.1-11l13-18.57L260,394.7l20.48-14.34L292,396.75l6.62-9.46,20.48,14.34-11.84,16.91,13,18.57a34,34,0,0,1,3.24,5.75V430.4h25v30.5a5.5,5.5,0,0,0,11,0V430.4h25v30.5a5.5,5.5,0,0,0,11,0V430.4h25v30.5A30.54,30.54,0,0,1,390,491.4a30.14,30.14,0,0,1-18-5.94,30.14,30.14,0,0,1-18,5.94,30.56,30.56,0,0,1-29.53-22.9,34.46,34.46,0,0,1-65.2-.81A32.71,32.71,0,0,1,228,491.4H216a7.5,7.5,0,0,0-7.5,7.5Zm-24-1h23v-7.5a8.51,8.51,0,0,1,8.5-8.5h12a31.7,31.7,0,0,0,30.74-24.7l.44-2,.53,1.95a33.47,33.47,0,0,0,64.38.81l.58-1.95.39,2A29.53,29.53,0,0,0,354,490.4a29.18,29.18,0,0,0,17.7-6l.3-.23.3.23a29.18,29.18,0,0,0,17.7,6,29.54,29.54,0,0,0,29.5-29.5V431.4h-23v29.5a6.5,6.5,0,0,1-13,0V431.4h-23v29.5a6.5,6.5,0,0,1-13,0V431.4h-23v16.94l-1-2.71a33.38,33.38,0,0,0-4.09-7.95L306,418.54l11.67-16.66-18.84-13.2L292,398.49l-11.72-16.74-18.84,13.19L278,418.54l-13.4,19.14a33.34,33.34,0,0,0-5.35,12.44l-.41,2-.56-2a31.49,31.49,0,0,0-61.74,8.75,31.1,31.1,0,0,0,2.77,12.84l.18.4-.37.23A31.39,31.39,0,0,0,184.5,498.9Zm107.5-39a10.64,10.64,0,0,1-10.5-10.5,10.44,10.44,0,0,1,1.9-6l8.6-12.29,8.6,12.29a10.44,10.44,0,0,1,1.9,6A10.64,10.64,0,0,1,292,467.4Zm0-27.07-7.78,11.12a9.4,9.4,0,0,0-1.72,5.45,9.5,9.5,0,0,0,19,0,9.4,9.4,0,0,0-1.72-5.45ZM228,467.4a8.5,8.5,0,1,1,8.5-8.5A8.51,8.51,0,0,1,228,467.4Zm0-16a7.5,7.5,0,1,0,7.5,7.5A7.5,7.5,0,0,0,228,451.4Z"/><path d="M458,515.49a8.5,8.5,0,1,1,8.5-8.5A8.51,8.51,0,0,1,458,515.49Zm0-16a7.5,7.5,0,1,0,7.5,7.5A7.51,7.51,0,0,0,458,499.49Z"/></g></svg>