<svg xmlns="http://www.w3.org/2000/svg" viewBox="0 0 672 672"><g id="Layer_1" data-name="Layer 1"><path d="M317.14,410.81a4,4,0,0,0,.72,7.94,3.68,3.68,0,0,0,.73-.07,13.89,13.89,0,0,0,11.3-14,4.06,4.06,0,0,0-4.06-3.93,4,4,0,0,0-3.93,4.06A5.85,5.85,0,0,1,317.14,410.81Z"/><path d="M321.34,294.61c-2.39.64-3.81,4.07-3.17,7.65s3.09,5.95,5.48,5.31,3.81-4.07,3.17-7.65S323.73,294,321.34,294.61Z"/><path d="M327.93,327.4a4,4,0,0,0,4,3.6,2.75,2.75,0,0,0,.4,0l14.41-1.42-5-22.6a4,4,0,1,0-7.81,1.74L337,322.49l-5.43.53A4,4,0,0,0,327.93,327.4Z"/><path d="M324.88,342.15a4,4,0,0,0,1.42,5.48,23.31,23.31,0,0,0,31.92-8.27,4,4,0,1,0-6.89-4.06,15.35,15.35,0,0,1-21,5.44A4,4,0,0,0,324.88,342.15Z"/><path d="M432.85,440.94a18,18,0,0,0-21-8l-9.07,2.94-4.17-10.18,6.45-3.6L376.45,353a42.74,42.74,0,0,0,4-3.84c7.25-7.93,15.09-22.22,11.25-45.36-1.35-7.18-2.17-13.59,1.37-19.26,6.06-9.68,3.37-16.77-1.16-20.18-8.35-6.29-17.95-.83-22.86,4.71l-2.23-31.61c-.43-6-2.67-11.2-6.17-14.23a12.89,12.89,0,0,0-9.61-3.11,12.69,12.69,0,0,0-6.64,2.38l-.14-2.08c-.42-5.92-2.83-11.29-6.44-14.36a12.5,12.5,0,0,0-9.43-3c-7.32.68-12.26,8-13.22,15.47a12.67,12.67,0,0,0-7.15-1.39c-9.59.92-14,10.45-13.34,19.4l1.07,15.25a10.15,10.15,0,0,0-5.26-.83c-7.92.89-12.56,8.3-11.81,18.88l3.22,45.66h0l.06.9a2.16,2.16,0,0,0,0,.27c1.87,22.27,11.31,34.86,19.77,41.76.85,5.94,2.45,30.53-26,44.45l-3.69,1.73-5.52,2.47h0L237.84,420l13.25,48.92,3.76-.88a19.26,19.26,0,0,0,14.92-20.39l-.68-8.48,12-2.06,2.2,5.42,2.74,0c44.45-.69,54.47-26.71,54.87-27.81a4,4,0,0,0-7.5-2.78c-.33.88-8.46,21-44.77,22.52l-9.74-24.07.37-.17c26.48-12.94,30.68-34.48,30.81-46.29a31.36,31.36,0,0,0,5.86,2.36,3.67,3.67,0,0,0,.86.1,4,4,0,0,0,.86-7.91c-.25-.05-25.15-7.13-27.71-43.43l-3.22-45.66c-.07-1-.54-9.78,4.72-10.37a2.49,2.49,0,0,1,2,.67c1.84,1.54,3.26,5.15,3.53,9l1.95,27.62a4,4,0,0,0,8-.56l-1.61-22.82h0L302.67,236c-.29-4.11,1.1-10.39,6.12-10.87a4.47,4.47,0,0,1,3.54,1.08c1.95,1.65,3.33,5,3.6,8.85a.2.2,0,0,0,0,.07L319,278.37a4,4,0,0,0,4,3.72h.29A4,4,0,0,0,327,277.8L323,222c-.35-5.07,2.73-10.56,6.12-10.87a4.46,4.46,0,0,1,3.51,1.11c2,1.65,3.37,5.12,3.63,8.82l4,55.86a4,4,0,1,0,8-.57l-2.63-37.17s0-.09,0-.14c-.28-4,1.1-10.51,6-10.86a4.9,4.9,0,0,1,3.8,1.17c1.87,1.63,3.16,4.9,3.43,8.75l4.73,67.06a3.85,3.85,0,0,0,.08.47c0,.08,0,.17,0,.24a4,4,0,0,0,1.77,2.41,2.24,2.24,0,0,0,.27.13c.13.07.25.14.39.2s.27.08.41.12l.31.08a3,3,0,0,0,.42,0l.3,0h.28c.12,0,.24,0,.35-.06l.4-.07a2.6,2.6,0,0,0,.36-.13l.37-.14a3.62,3.62,0,0,0,.33-.2L370,308a3.15,3.15,0,0,0,.28-.25c.09-.09.19-.17.28-.27a3.15,3.15,0,0,0,.22-.29,4,4,0,0,0,.24-.33,3.36,3.36,0,0,0,.16-.33,2.83,2.83,0,0,0,.16-.36c.05-.13.07-.26.11-.39s.06-.24.08-.37,0-.29,0-.43,0-.21,0-.33c-.08-1.82-.39-5.88-.61-8.84l-.2-2.63c-.56-7.91.7-14.13,3.63-18,1.42-1.88,7.77-8.15,12.72-4.42,2.2,1.65,1.9,5.22-.81,9.55-5.49,8.78-3.66,18.52-2.47,24.89,3.3,19.89-3.22,31.95-9.27,38.57-7.65,8.37-17.78,11.6-24.43,11.12a4,4,0,0,0-.6,8c.68.05,1.36.07,2,.07a37.35,37.35,0,0,0,18.17-5.22l18,43.41c-.78,1.71-3.4,5.83-11.1,7.38a4,4,0,0,0,.78,7.93,4.34,4.34,0,0,0,.8-.08,24.65,24.65,0,0,0,13.08-6.64l3.67,8.85-22.66,12.64L332,378.42a4,4,0,0,0-6.36,4.85l44.5,58.33h0l3,3.9h0L391,468.94l43.88-24.47Zm-164.39-9.79-1.24-15.54,4.34-1.94L278,429.51Zm108.77,6.51,14.38-8,3.57,8.73-14,4.53Z"/><path d="M353.11,307.57c2.39-.65,3.81-4.07,3.17-7.65s-3.09-6-5.48-5.31-3.81,4.07-3.17,7.65S350.72,308.21,353.11,307.57Z"/><path d="M338,558.25H328v-32h-8v40h18a4,4,0,0,0,0-8Z"/><path d="M243.94,532.74a11,11,0,0,1-8.33-18.15,4,4,0,1,1,6.07,5.2,3,3,0,0,0,4.56,3.91l1.63-1.9a3,3,0,0,0,.71-2.19,3,3,0,0,0-1-2,11,11,0,0,1-1.2-15.51l1.62-1.9a11,11,0,1,1,16.71,14.3,4,4,0,1,1-6.07-5.2,3,3,0,0,0-4.56-3.9l-1.63,1.9a3,3,0,0,0,.33,4.23,11,11,0,0,1,1.2,15.51l-1.62,1.9a11,11,0,0,1-7.51,3.81Z"/><path d="M435.11,526,414,496.27l-6.52,4.63,6.09,22.38-19.14-13.1-6.51,4.64L409,544.56a4,4,0,1,0,6.52-4.63l-7.71-10.85,9.5,6.51,6.56-4.67-3-11.11,7.71,10.85a4,4,0,0,0,6.52-4.64Z"/><path d="M387.75,553.09l-18.29-31.82-8.65,2.33.16,36.7a4,4,0,0,0,4,4h0a4,4,0,0,0,4-4v-3.64l10-2.71,1.82,3.16a4,4,0,1,0,6.93-4Zm-18.83-4.75-.05-12.05,6,10.45Z"/><path d="M290.79,516.87l-21.73,29.57a4,4,0,0,0,6.45,4.74l2.16-2.94,9.68,3.81-.42,3.62a4,4,0,0,0,3.5,4.44,3.77,3.77,0,0,0,.47,0,4,4,0,0,0,4-3.53l4.26-36.45Zm-2.48,27-5.74-2.26,7.14-9.71Z"/><path d="M420.08,131v19.71a3.94,3.94,0,0,1-7.88,0V107.38H396.44v43.36a19.71,19.71,0,0,0,39.41,0V131Z"/><path d="M375.41,150.74a3.94,3.94,0,1,1-7.88,0V131H351.77v19.71a3.95,3.95,0,0,1-7.89,0V131H328.12v9.57a22.19,22.19,0,0,0-2.73-5.3l-8.67-12.39,7.72-11-12.91-9-4.43,6.33-7.62-10.88-12.92,9,10.91,15.58L288.8,135.3a22.3,22.3,0,0,0-3.57,8.29A21,21,0,1,0,245.88,158a21,21,0,0,0-9.73,17.7V181h15.77V175.7a5.26,5.26,0,0,1,5.25-5.26h7.88A21.06,21.06,0,0,0,285.57,154a22.31,22.31,0,0,0,42.92.53,19.67,19.67,0,0,0,31.16,12,19.68,19.68,0,0,0,31.53-15.73V131H375.41Zm-110.36,3.94a5.26,5.26,0,1,1,5.26-5.26A5.26,5.26,0,0,1,265.05,154.68Zm42.05,0a6.66,6.66,0,0,1-6.57-6.57,6.51,6.51,0,0,1,1.19-3.77l5.38-7.68,5.38,7.68a6.59,6.59,0,0,1,1.19,3.77A6.66,6.66,0,0,1,307.1,154.68Z"/><path d="M416.14,175.76A5.26,5.26,0,1,0,421.4,181,5.25,5.25,0,0,0,416.14,175.76Z"/></g></svg>