<svg xmlns="http://www.w3.org/2000/svg" viewBox="0 0 672 672"><defs><style>.cls-1{fill:#ff5d3e;}.cls-2{fill:none;}</style></defs><g id="Layer_1" data-name="Layer 1"><path class="cls-1" d="M551,622.19H121.05V49.81H551Zm-428.9-1H550V50.81H122.05Z"/><path d="M397.35,326.25c-2.79-4.83-10.21-5.1-13.87,1.61a18.82,18.82,0,0,1-6,7l-3.26-5.45,6.26-3.49-20.61-49.83a29.62,29.62,0,0,0,3.07-2.86c4.91-5.37,10.21-15,7.62-30.69-.89-4.75-1.44-9,.87-12.68,4.18-6.68,2.15-11.7-.85-14-5.5-4.14-11.76-.94-15.26,2.66l-1.44-20.45c-.29-4.12-1.84-7.68-4.25-9.76a9.3,9.3,0,0,0-10.82-.83l-.06-.84c-.28-4-1.94-7.73-4.42-9.84a8.7,8.7,0,0,0-6.56-2.07c-5,.46-8.33,5.18-9.1,10.19a8.73,8.73,0,0,0-4.55-.75c-6.64.63-9.67,7.19-9.24,13.34l.69,9.7a7.09,7.09,0,0,0-3.21-.37c-5.5.61-8.72,5.71-8.2,13l2.16,30.61h0l0,.61a1.13,1.13,0,0,0,0,.18c1.23,14.61,7.3,23.07,12.9,27.81a31.92,31.92,0,0,1-1.25,11c-2.61,8.8-8.74,15.24-18.11,19.1l-2.51.94-17.83,5.47,5.4,18.06,5.1-.62c-1.55,3.32-2.77,8.52-.75,15.56,1.79,6.25,7.27,7,10.34,5.47,4.06-2,6.24-6.24,2.44-12.13-4.06-6.31-2.84-9.07-1.66-10.18l.68-.08,1.56,5,2.06.12c1.43.09,2.8.13,4.14.13,28,0,35.23-18.34,35.54-19.15a3,3,0,1,0-5.62-2.11c-.06.16-6.33,16-31.65,15.24l-2.44-7.75-2.63-8.34h0c18.92-7.79,22.6-23.19,23.11-31.68a21.27,21.27,0,0,0,4.1,1.66,2.88,2.88,0,0,0,.65.07,3,3,0,0,0,.64-5.93c-.17,0-16.63-4.72-18.33-28.82l-2.16-30.61c0-.64-.34-6.25,2.89-6.61a1.34,1.34,0,0,1,1.11.38c1.16,1,2.08,3.34,2.26,5.79l1.3,18.51a3,3,0,0,0,6-.42l-1.08-15.3h0l-1.74-24.67c-.19-2.63.68-6.65,3.81-7a2.73,2.73,0,0,1,2.14.65c1.23,1,2.13,3.28,2.3,5.71,0,0,0,0,0,0l2,29a3,3,0,0,0,3,2.79h.22a3,3,0,0,0,2.78-3.21l-2.64-37.44c-.23-3.25,1.69-6.75,3.8-7a2.69,2.69,0,0,1,2.12.67c1.25,1.06,2.16,3.29,2.33,5.7l2.64,37.44a3,3,0,0,0,6-.42l-1.76-24.92v-.1c-.18-2.56.68-6.72,3.75-6.94a3,3,0,0,1,2.31.71c1.18,1,2,3.19,2.19,5.65l2.64,37.33h0v.05l.54,7.57a1.88,1.88,0,0,0,.05.33,1.55,1.55,0,0,0,0,.21,2.64,2.64,0,0,0,.17.47s0,0,0,.06a3,3,0,0,0,2.21,1.67l.15,0c.11,0,.23,0,.35,0h.21a2.34,2.34,0,0,0,.26,0l.3-.05.27-.1.28-.11c.08,0,.16-.1.24-.15a2.07,2.07,0,0,0,.25-.15c.08-.06.14-.13.21-.19a2.08,2.08,0,0,0,.21-.21,1.12,1.12,0,0,0,.17-.21,2.2,2.2,0,0,0,.17-.25,2,2,0,0,0,.13-.25c0-.09.09-.18.12-.27s.05-.19.08-.29a2.3,2.3,0,0,0,.06-.28,1.67,1.67,0,0,0,0-.32,1.94,1.94,0,0,0,0-.24c-.06-1.24-.26-4-.42-6l-.12-1.72v0c-.36-5.22.46-9.32,2.37-11.85.92-1.21,5-5.24,8.09-2.9,1.33,1,1.09,3.24-.62,6-3.75,6-2.51,12.6-1.7,16.91,2.19,13.21-2.13,21.21-6.14,25.6a23.52,23.52,0,0,1-3.72,3.28,2.85,2.85,0,0,0-.59.42,19.85,19.85,0,0,1-11.81,3.65,3,3,0,1,0-.45,6c.46,0,.92,0,1.39,0a25,25,0,0,0,11.45-3.09l13.32,32.22c-.54,1.14-2.28,3.69-7.16,4.67a3,3,0,1,0,1.18,5.88,17,17,0,0,0,8.6-4.21l2.17,5.24-1.74,1h0l-7.93,4.42-5,2.8-28.91-38.63a3,3,0,0,0-4.81,3.6l28.43,38h0l15.49,20.68,15.87-8.85L382,342.46a27.81,27.81,0,0,0,10.67-4.16C398.79,334.15,398.85,328.85,397.35,326.25Z"/><path d="M321.14,311a3.59,3.59,0,0,1-2.92,3.7,3,3,0,0,0,.53,5.95,2.56,2.56,0,0,0,.55-.05,9.61,9.61,0,0,0,7.84-9.7,3,3,0,0,0-3.05-2.95A3,3,0,0,0,321.14,311Z"/><path d="M323.1,236.48c-1.59.42-2.53,2.7-2.11,5.08s2.05,4,3.64,3.53,2.53-2.71,2.11-5.08S324.68,236.05,323.1,236.48Z"/><path d="M344.38,245.09c1.58-.43,2.53-2.71,2.1-5.08s-2.05-4-3.64-3.53-2.53,2.7-2.1,5.08S342.79,245.52,344.38,245.09Z"/><path d="M327.19,258.45a3,3,0,0,0,3,2.7h.3l10-1L337,244.65a3,3,0,0,0-5.86,1.3l2,8.89-3.28.33A3,3,0,0,0,327.19,258.45Z"/><path d="M325.19,268.15a3,3,0,0,0,1.06,4.11,16,16,0,0,0,21.84-5.66,3,3,0,0,0-5.18-3.05,9.94,9.94,0,0,1-13.62,3.53A3,3,0,0,0,325.19,268.15Z"/><path d="M366.48,490.28,356.75,472l-5.08,1.22-.36,20.72a2.25,2.25,0,0,0,2.21,2.29h0a2.26,2.26,0,0,0,2.25-2.21l0-1.74,5.85-1.41.82,1.54a2.25,2.25,0,0,0,4-2.11Zm-10.56-2.67.12-7.37,3.47,6.51Z"/><path d="M393.21,477.58l-10.34-17.85L379,462l2.25,12.86-10-8.34-3.89,2.26,10.34,17.84a2.25,2.25,0,0,0,1.95,1.12,2.33,2.33,0,0,0,1.13-.3,2.25,2.25,0,0,0,.81-3.08l-3.8-6.55,5.29,4.39,3.68-2.13-1.18-6.78,3.8,6.56a2.25,2.25,0,1,0,3.89-2.25Z"/><path d="M338.25,492.75H331.5v-18H327v22.5h11.25a2.25,2.25,0,0,0,0-4.5Z"/><path d="M309.14,470l-11.2,17.44a2.25,2.25,0,0,0,3.78,2.43l.95-1.47,5.71,1.88-.11,1.74a2.26,2.26,0,0,0,2.1,2.4h.15a2.25,2.25,0,0,0,2.24-2.1l1.35-20.68Zm-4,14.49,4-6.2-.47,7.35Z"/><path d="M282.69,481.15a6.37,6.37,0,0,1-5.24-10,2.25,2.25,0,0,1,3.71,2.55,1.87,1.87,0,1,0,3.08,2.13l.64-.93a1.87,1.87,0,0,0-.48-2.6,6.38,6.38,0,0,1-1.63-8.87l.64-.93a6.38,6.38,0,0,1,10.5,7.24,2.25,2.25,0,1,1-3.71-2.55,1.87,1.87,0,0,0,.3-1.41,1.82,1.82,0,0,0-.78-1.2,1.79,1.79,0,0,0-1.4-.3,1.82,1.82,0,0,0-1.2.78l-.64.92a1.86,1.86,0,0,0-.3,1.41,1.82,1.82,0,0,0,.78,1.2,6.39,6.39,0,0,1,1.63,8.87l-.64.92A6.36,6.36,0,0,1,282.69,481.15Z"/><rect class="cls-2" x="235.5" y="354.81" width="201" height="120"/><circle cx="417" cy="453.81" r="6"/><path d="M421.5,402.81v19.5a4.5,4.5,0,0,1-9,0v-43.5h-15v43.5a19.5,19.5,0,0,0,39,0v-19.5Z"/><path d="M376.5,422.31a4.5,4.5,0,0,1-9,0v-19.5h-15v19.5a4.5,4.5,0,0,1-9,0v-19.5h-15v8.44a22.27,22.27,0,0,0-2.57-4.84h0l-9.27-13.25L323.77,383l-12.28-8.6-4,5.69-6.93-9.89-12.28,8.61,10,14.36-9.27,13.25h0a22.42,22.42,0,0,0-3.54,8.09,21,21,0,1,0-39.18,14.89,21,21,0,0,0-10.85,18.38v7.5h15v-7.5a6,6,0,0,1,6-6h8.16c.28,0,.56,0,.84,0a21,21,0,0,0,20.42-16.18,22.49,22.49,0,0,0,43,.61A19.47,19.47,0,0,0,360,437.65a19.47,19.47,0,0,0,31.5-15.34v-19.5h-15Zm-111,4.5v0h-.42a5.68,5.68,0,1,1,.42,0Zm42,0a7.59,7.59,0,0,1-7.5-7.5,7.44,7.44,0,0,1,1.36-4.3l6.14-8.77,6.14,8.77a7.44,7.44,0,0,1,1.36,4.3A7.59,7.59,0,0,1,307.5,426.81Z"/></g></svg>