<svg xmlns="http://www.w3.org/2000/svg" xmlns:xlink="http://www.w3.org/1999/xlink" viewBox="0 0 1080 672"><defs><style>.cls-1{fill:none;}.cls-2{clip-path:url(#clip-path);}.cls-3{fill:#ededed;}.cls-4{fill:#fff;}.cls-5{fill:#e54523;}.cls-6{fill:#fe5752;}.cls-7{fill:#ffbc40;}.cls-8{fill:#3ac84b;}</style><clipPath id="clip-path"><rect class="cls-1" width="1080" height="672"/></clipPath></defs><g id="Isolation_Mode" data-name="Isolation Mode"><g class="cls-2"><rect class="cls-3" width="1568.55" height="908.63"/><path class="cls-4" d="M1237.23,170.88V66.13a31.76,31.76,0,0,0-31.76-31.76H398.77A31.76,31.76,0,0,0,367,66.13V170.88a31.76,31.76,0,0,1-31.76,31.76H0V470.92H1568.55V202.64H1269A31.76,31.76,0,0,1,1237.23,170.88Z"/><circle class="cls-5" cx="455.21" cy="118.41" r="43.7"/><ellipse class="cls-4" cx="439.01" cy="97.97" rx="4.64" ry="6.89" transform="translate(-7.75 45.72) rotate(-5.91)"/><path class="cls-4" d="M448.83,129.18a4.17,4.17,0,0,1-.4-8.32l5.66-.56-3.2-14.39a4.16,4.16,0,0,1,3.16-5,4.21,4.21,0,0,1,5,3.17l5.24,23.57-15,1.49A3,3,0,0,1,448.83,129.18Z"/><path class="cls-4" d="M455.28,149.9a24.2,24.2,0,0,1-12.3-3.37,4.17,4.17,0,1,1,4.23-7.19,16,16,0,0,0,21.88-5.67,4.17,4.17,0,1,1,7.19,4.23,24.19,24.19,0,0,1-14.86,11.22A24.73,24.73,0,0,1,455.28,149.9Z"/><ellipse class="cls-4" cx="469.74" cy="97.97" rx="4.64" ry="6.89" transform="translate(-7.59 48.89) rotate(-5.91)"/><circle class="cls-6" cx="87.79" cy="88.5" r="28.05"/><circle class="cls-7" cx="181.1" cy="88.5" r="28.05"/><circle class="cls-8" cx="278.68" cy="88.5" r="28.05"/><path d="M551.72,129.41a18.11,18.11,0,0,1,1-6.73,30.45,30.45,0,0,1,4.13-6.84q2.46-3.06,5.37-3.06a5.47,5.47,0,0,1,4.9,2.64,11.72,11.72,0,0,1,1.69,6.47,16.64,16.64,0,0,1-.61,4.66,4.68,4.68,0,0,1-.57,1.21,7.9,7.9,0,0,1-1.28,1.29,3.07,3.07,0,0,1-1.93.93,2.26,2.26,0,0,1-1-.27l-8-3.91a125.3,125.3,0,0,0,1.14,14.82l-3.87,1.49Q551.71,133.19,551.72,129.41Zm13.81-7a7.49,7.49,0,0,0-.9-3.83,3.1,3.1,0,0,0-2.88-1.54,3.36,3.36,0,0,0-2.44,1.23,18.94,18.94,0,0,0-2.53,3.65l8.27,3.83A10.64,10.64,0,0,0,565.53,122.46Z"/><path d="M579,123.16a56.28,56.28,0,0,0-1.23-10.75,28.25,28.25,0,0,0-4.22-10.27l3.12-2.51q5.44,8.58,5.45,23Zm19.61,1.58a5.78,5.78,0,0,1,.13,1.37v1.18a5.82,5.82,0,0,1-.13,1.35c-.09.36-.19.55-.31.55H596.4a10.44,10.44,0,0,1-4.42-.75,4.54,4.54,0,0,1-2.27-2.51,13.74,13.74,0,0,1-6,3.5,46.19,46.19,0,0,1-8.66,1.87l-.48-5a53.61,53.61,0,0,0,8.59-1.89c2.48-.8,4.09-1.57,4.82-2.33l-1-23.93,4-1,.35,23.48a3.59,3.59,0,0,0,.6,2.28,2.77,2.77,0,0,0,1.62,1,12.18,12.18,0,0,0,2.79.25h2C598.45,124.22,598.55,124.39,598.64,124.74Z"/><path d="M628.32,123.38a4.9,4.9,0,0,1-2.13,4.4,9.31,9.31,0,0,1-5.25,1.41c-2.44,0-4-.87-4.8-2.6a4.86,4.86,0,0,1-2.42,1.94,8.46,8.46,0,0,1-3.21.66q-3.56,0-4.66-2.64-1.8,2.64-7.52,2.64c-.11,0-.22-.19-.33-.55a5.24,5.24,0,0,1-.15-1.35v-1.18a5.67,5.67,0,0,1,.13-1.34c.09-.37.21-.55.35-.55a12.86,12.86,0,0,0,5.76-1.06l.09-6.77,3.61.09-.13,5.27c0,1.06.23,1.73.79,2a6.1,6.1,0,0,0,2.68.44,4.87,4.87,0,0,0,3.34-.93l-.17-8.62,3.65-.08.17,8.92a3.81,3.81,0,0,0,2.51.71,9.37,9.37,0,0,0,4.4-.93l-1-10.51,4-.7Q628.32,118.14,628.32,123.38Z"/><path d="M645.91,124.74a5.78,5.78,0,0,1,.13,1.37v1.18a5.82,5.82,0,0,1-.13,1.35c-.09.36-.19.55-.3.55h-1.06q-4.35,0-6.33-2c-1.32-1.32-2-3.59-2.11-6.82l-.66-22.21,4-1,.35,23.21a3.85,3.85,0,0,0,1.06,2.77,3.77,3.77,0,0,0,2.81,1h1.94C645.72,124.22,645.82,124.39,645.91,124.74Z"/><path d="M656.73,113.44c.18,3.81.26,6.91.26,9.28a5.06,5.06,0,0,1-2.68,4.57,12.64,12.64,0,0,1-4.07,1.43,24.27,24.27,0,0,1-4.64.47c-.11,0-.22-.19-.33-.55a5.24,5.24,0,0,1-.15-1.35v-1.18a6.26,6.26,0,0,1,.13-1.34c.09-.37.21-.55.35-.55a31.42,31.42,0,0,0,4.69-.31,10.79,10.79,0,0,0,3.36-1.06l-1-10.07,4-.66Zm-7,21,3.78,3.16-3.17,3.74-3.69-3.12Z"/><path d="M703,124.74a6.36,6.36,0,0,1,.13,1.37v1.18a6.43,6.43,0,0,1-.13,1.35c-.09.36-.19.55-.31.55h-1a10.41,10.41,0,0,1-3.89-.64,4.08,4.08,0,0,1-2.27-2.27l.26,5.06q.13,3.82-3.8,5.76A22.42,22.42,0,0,1,682,139q-6.19,0-8.48-2.51a8.07,8.07,0,0,1-2.29-5.59,38.28,38.28,0,0,1,.57-5c.38-2.4.9-5.42,1.54-9l3.08.7q-1.36,7.51-1.72,12a3.12,3.12,0,0,0,2.23,3.49,15.31,15.31,0,0,0,5.43.91,31,31,0,0,0,5.54-.49A12.45,12.45,0,0,0,692.3,132l-1.67-16.8,4-.88.57,6.38A3.75,3.75,0,0,0,696,123a3.51,3.51,0,0,0,2,1,22,22,0,0,0,3.51.22h1.15C702.76,124.22,702.86,124.39,703,124.74Zm-19.4-12.31-3.73-3.17,3.12-3.73,3.78,3.12Z"/><path d="M704.75,134.42l3.43,2.86-2.9,3.43-3.35-2.86Zm-2.44-5.78a5.2,5.2,0,0,1-.16-1.35v-1.18a5.62,5.62,0,0,1,.14-1.34c.08-.37.2-.55.35-.55a31.19,31.19,0,0,0,4.68-.31,10.86,10.86,0,0,0,3.37-1.06l-1-10.07,4-.66.08,1.32c.18,3.81.27,6.91.27,9.28a5.07,5.07,0,0,1-2.69,4.57,12.66,12.66,0,0,1-4.06,1.43,24.43,24.43,0,0,1-4.64.47C702.52,129.19,702.41,129,702.31,128.64Zm12.51,8.59-2.9,3.39-3.39-2.86,2.86-3.39Z"/><path d="M724.27,123.16A56.28,56.28,0,0,0,723,112.41a28.25,28.25,0,0,0-4.22-10.27l3.12-2.51q5.46,8.58,5.45,23Zm19.62,1.58a6.36,6.36,0,0,1,.13,1.37v1.18a6.43,6.43,0,0,1-.13,1.35c-.09.36-.2.55-.31.55h-1.94a10.47,10.47,0,0,1-4.42-.75,4.52,4.52,0,0,1-2.26-2.51,13.8,13.8,0,0,1-6,3.5,46.48,46.48,0,0,1-8.67,1.87l-.48-5a53.75,53.75,0,0,0,8.6-1.89c2.48-.8,4.08-1.57,4.81-2.33l-1-23.93,4-1,.36,23.48a3.59,3.59,0,0,0,.59,2.28,2.8,2.8,0,0,0,1.63,1,12.12,12.12,0,0,0,2.79.25h2C743.69,124.22,743.8,124.39,743.89,124.74Z"/><path d="M754.61,112.12l.09,1.32c.18,3.81.27,6.91.27,9.28a5.07,5.07,0,0,1-2.69,4.57,12.66,12.66,0,0,1-4.06,1.43,24.43,24.43,0,0,1-4.64.47c-.12,0-.23-.19-.33-.55a4.8,4.8,0,0,1-.16-1.35v-1.18a6.26,6.26,0,0,1,.13-1.34c.09-.37.21-.55.36-.55a31.28,31.28,0,0,0,4.68-.31,10.71,10.71,0,0,0,3.36-1.06l-1-10.07Zm-2.68-4.48-3.74-3.17,3.13-3.74,3.78,3.13Z"/><path d="M768.42,100.07a44.16,44.16,0,0,1-4.48-.44c-1.18-.11-1.88-.17-2.11-.17a1.94,1.94,0,0,0-1.35.39,3.12,3.12,0,0,0-.63,1.63l-2.77-.66a14.58,14.58,0,0,1,1.12-3.23A3.48,3.48,0,0,1,759.63,96a4.61,4.61,0,0,1,2.15-.44,24.73,24.73,0,0,1,2.77.22c2.11.2,3.64.34,4.58.39l2.33,0-.88,3.82Zm-1.63,29.12-3.43.48-.74-25.55,3.82-1Z"/><path d="M808.79,124.74a5.78,5.78,0,0,1,.13,1.37v1.18a5.82,5.82,0,0,1-.13,1.35c-.09.36-.19.55-.31.55h-1.63a6.39,6.39,0,0,1,.18,1.67,7.8,7.8,0,0,1-3.87,7q-3.87,2.42-11.17,2.42-6.24,0-8.51-2.48a8.08,8.08,0,0,1-2.26-5.57c0-1.37.7-6.07,2.11-14.07l3.08.71q-1.36,7.51-1.72,12a3.11,3.11,0,0,0,2.24,3.52,16.52,16.52,0,0,0,5.59.88,30,30,0,0,0,6.33-.59,10.48,10.48,0,0,0,4.53-2.14,3.93,3.93,0,0,0-.42-2.44,2.59,2.59,0,0,0-1.87-.83q-1.37-.15-5.1-.15h-.09l1-5h11.56C808.6,124.22,808.7,124.39,808.79,124.74Z"/><path d="M829.46,126.5q-5.37,1.32-7.92,1.83a41.41,41.41,0,0,1-4.75.68q-2.19.18-5.85.18h-2.46c-.12,0-.23-.19-.33-.55a5.24,5.24,0,0,1-.15-1.35v-1.18a5.67,5.67,0,0,1,.13-1.34c.09-.37.2-.55.35-.55h5.89a13.34,13.34,0,0,1-1.14-5.5,6.29,6.29,0,0,1,2.24-5.3,9.29,9.29,0,0,1,5.85-1.74,18.05,18.05,0,0,1,4.53.62l-1,4.26a12.59,12.59,0,0,0-3.91-.52,11.86,11.86,0,0,0-4.14.61,18.57,18.57,0,0,0,.44,4,12.59,12.59,0,0,0,1.23,3.36,82.68,82.68,0,0,0,10.73-2.2Z"/><path d="M847.31,124.74a5.78,5.78,0,0,1,.13,1.37v1.18a5.82,5.82,0,0,1-.13,1.35c-.09.36-.19.55-.31.55h-1q-4.37,0-6.34-2t-2.11-6.82l-.66-22.21,4-1,.35,23.21a3.89,3.89,0,0,0,1,2.77,3.8,3.8,0,0,0,2.82,1H847C847.12,124.22,847.22,124.39,847.31,124.74Z"/><path d="M872.86,124.74a5.78,5.78,0,0,1,.13,1.37v1.18a5.82,5.82,0,0,1-.13,1.35c-.09.36-.19.55-.31.55a10.48,10.48,0,0,1-4.11-.69,4.8,4.8,0,0,1-2.44-2.22l-.31,1.59a3.6,3.6,0,0,1-.48,1.29,6.68,6.68,0,0,1-1.23,1.3,3.11,3.11,0,0,1-2,.92,2.24,2.24,0,0,1-1-.26l-8-3.78a5.58,5.58,0,0,1-1.85,1.36,6.6,6.6,0,0,1-2.73.49H847c-.12,0-.23-.19-.33-.55a5.24,5.24,0,0,1-.15-1.35v-1.18a5.67,5.67,0,0,1,.13-1.34c.09-.37.2-.55.35-.55h1.54a7,7,0,0,0,1.87-.18,2.14,2.14,0,0,0,1.08-.86,15.46,15.46,0,0,0,1.23-2.35,18.32,18.32,0,0,1,2.92-4.84,5.26,5.26,0,0,1,4.11-1.8,5.63,5.63,0,0,1,4,1.47,7.9,7.9,0,0,1,2.17,3.67,13.58,13.58,0,0,0,1.26,3.15,3.17,3.17,0,0,0,1.76,1.34,12,12,0,0,0,3.58.4C872.67,124.22,872.77,124.39,872.86,124.74Zm-9.59-.74a7.18,7.18,0,0,0-1-3.85,3.3,3.3,0,0,0-3-1.61,3,3,0,0,0-2.29,1.3,15.14,15.14,0,0,0-2.06,3.8l7.82,3.52A8.33,8.33,0,0,0,863.27,124Z"/><path d="M889.08,124.74a5.71,5.71,0,0,1,.14,1.37v1.18a5.77,5.77,0,0,1-.14,1.35c-.08.36-.19.55-.3.55a16.18,16.18,0,0,1-5.57-.71,3.54,3.54,0,0,1-2.26-2.33,5,5,0,0,1-3,2.33,17.27,17.27,0,0,1-5.45.71c-.12,0-.23-.19-.33-.55a5.24,5.24,0,0,1-.15-1.35v-1.18a5.67,5.67,0,0,1,.13-1.34c.09-.37.2-.55.35-.55a14.35,14.35,0,0,0,6.55-1.15l-.83-8.75,4-.35.53,9.37a5.69,5.69,0,0,0,2.11.68,28.93,28.93,0,0,0,3.92.2C888.89,124.22,889,124.39,889.08,124.74Zm-12.53-16.13-3.43-2.91,2.86-3.38,3.43,2.86Zm6.6-.09-3.39-2.86,2.86-3.39,3.39,2.82Z"/><path d="M911.44,115a18.4,18.4,0,0,0,5.08.77l-1,4.44a12,12,0,0,0-4,.93,51.55,51.55,0,0,0-4.74,2.42l-1.5.83a48.86,48.86,0,0,1-7.41,3.54,22.68,22.68,0,0,1-7.89,1.26h-1.23c-.12,0-.23-.19-.33-.55a4.8,4.8,0,0,1-.16-1.35v-1.18a6.26,6.26,0,0,1,.13-1.34c.09-.37.21-.55.36-.55H890a21.54,21.54,0,0,0,5.71-.8,53.11,53.11,0,0,0,6.07-2.06c1.53-.68,2.66-1.19,3.39-1.54l2.86-1.23a4.7,4.7,0,0,1,.88-.27.64.64,0,0,0-.27,0,24.91,24.91,0,0,1-5.49-1.76,17.35,17.35,0,0,0-5.5-1.54,1.75,1.75,0,0,0-1.63.81,7.63,7.63,0,0,0-.79,2.14l-3-.53a12,12,0,0,1,1.8-5,4.22,4.22,0,0,1,3.65-1.69,9.76,9.76,0,0,1,2.79.51q1.65.49,4.55,1.56Q908.74,114.24,911.44,115Zm-9,18.32,3.78,3.16L903,140.22l-3.69-3.12Z"/><path d="M926.81,97.22l.35,32-3.43.48-.87-31.49Z"/><path d="M935,137.67a36.71,36.71,0,0,0,7.84-4.51,12.15,12.15,0,0,0,3.72-4.5l-1.45-12.89,3.91-1c.12,1.2.19,2,.22,2.33.24,2.28.44,4.31.6,6.06s.24,3.13.24,4.09a11.38,11.38,0,0,1-3.06,7.7c-2,2.32-5.24,4.51-9.61,6.6Z"/><path d="M959.84,97.22l.35,32-3.43.48-.88-31.49Z"/><path d="M960.54,137.67a36.82,36.82,0,0,0,7.85-4.51,12.35,12.35,0,0,0,3.72-4.5l-1.45-12.89,3.91-1c.12,1.2.19,2,.22,2.33.23,2.28.43,4.31.59,6.06s.24,3.13.24,4.09a11.37,11.37,0,0,1-3,7.7c-2,2.32-5.24,4.51-9.61,6.6Zm13.68-32.1-3.13,3.78-3.73-3.16,3.12-3.74Z"/><path d="M992.6,124.74a5.78,5.78,0,0,1,.13,1.37v1.18a5.82,5.82,0,0,1-.13,1.35c-.09.36-.19.55-.31.55h-1q-4.37,0-6.34-2t-2.11-6.82l-.66-22.21,4-1,.36,23.21a3.89,3.89,0,0,0,1,2.77,3.8,3.8,0,0,0,2.82,1h1.93C992.41,124.22,992.51,124.39,992.6,124.74Z"/><path d="M1003.42,113.44c.17,3.81.26,6.91.26,9.28a5.08,5.08,0,0,1-2.68,4.57,12.73,12.73,0,0,1-4.07,1.43,24.35,24.35,0,0,1-4.64.47c-.12,0-.23-.19-.33-.55a5.24,5.24,0,0,1-.15-1.35v-1.18a5.67,5.67,0,0,1,.13-1.34c.09-.37.2-.55.35-.55a31.19,31.19,0,0,0,4.68-.31,10.77,10.77,0,0,0,3.37-1.06l-1-10.07,4-.66Zm-7,21,3.79,3.16L997,141.32l-3.69-3.12Z"/><path d="M101.13,382.13a3.39,3.39,0,0,1-2.38-1L61.52,343.92a3.37,3.37,0,0,1,0-4.76l37.23-37.23a3.36,3.36,0,0,1,4.76,4.75L68.65,341.54l34.86,34.85a3.36,3.36,0,0,1-2.38,5.74Z"/><path d="M136.22,344.9H63.9a3.36,3.36,0,0,1,0-6.72h72.32a3.36,3.36,0,0,1,0,6.72Z"/><path d="M262.91,382.13a3.36,3.36,0,0,1-2.37-5.74l34.85-34.85-34.85-34.86a3.36,3.36,0,0,1,4.75-4.75l37.23,37.23a3.37,3.37,0,0,1,0,4.76l-37.23,37.23A3.39,3.39,0,0,1,262.91,382.13Z"/><path d="M300.14,344.9H227.82a3.36,3.36,0,0,1,0-6.72h72.32a3.36,3.36,0,1,1,0,6.72Z"/><rect class="cls-3" x="411.51" y="281.71" width="1133.96" height="115.39" rx="57.69"/><path d="M472,330.29a10.66,10.66,0,0,1,8.69-4.11q9.33,0,9.41,10.52v19.43h-5V336.67a6.74,6.74,0,0,0-1.46-4.7,5.84,5.84,0,0,0-4.44-1.52,7.24,7.24,0,0,0-4.29,1.3,8.69,8.69,0,0,0-2.88,3.43v20.95h-5V314.39h5Z"/><path d="M504.43,319.61v7.12h5.49v3.88h-5.49v18.26a4.07,4.07,0,0,0,.74,2.65,3.09,3.09,0,0,0,2.5.89,12,12,0,0,0,2.39-.33v4.05a14.66,14.66,0,0,1-3.86.54,6.27,6.27,0,0,1-5.08-2,8.77,8.77,0,0,1-1.71-5.79V330.61h-5.36v-3.88h5.36v-7.12Z"/><path d="M522.62,319.61v7.12h5.48v3.88h-5.48v18.26a4.07,4.07,0,0,0,.73,2.65,3.09,3.09,0,0,0,2.5.89,12,12,0,0,0,2.39-.33v4.05a14.66,14.66,0,0,1-3.86.54,6.29,6.29,0,0,1-5.08-2,8.77,8.77,0,0,1-1.71-5.79V330.61h-5.36v-3.88h5.36v-7.12Z"/><path d="M558.81,341.75q0,6.72-3.07,10.82a9.82,9.82,0,0,1-8.31,4.1,10.81,10.81,0,0,1-8.43-3.39v14.16h-5V326.73h4.59l.24,3.26a10.36,10.36,0,0,1,8.54-3.81,10,10,0,0,1,8.38,4q3.09,4,3.08,11.11Zm-5-.57a13,13,0,0,0-2.12-7.85,6.85,6.85,0,0,0-5.82-2.88A7.39,7.39,0,0,0,539,334.5v14.05a7.42,7.42,0,0,0,6.91,4,6.8,6.8,0,0,0,5.74-2.87Q553.8,346.84,553.79,341.18Z"/><path d="M582.32,348.33a3.72,3.72,0,0,0-1.53-3.17,15,15,0,0,0-5.36-1.94,24.9,24.9,0,0,1-6.06-2,8.58,8.58,0,0,1-3.31-2.71A6.47,6.47,0,0,1,565,334.8a7.64,7.64,0,0,1,3.06-6.12,12,12,0,0,1,7.81-2.5,12.31,12.31,0,0,1,8.12,2.58,8.24,8.24,0,0,1,3.11,6.61H582a4.52,4.52,0,0,0-1.75-3.56,6.56,6.56,0,0,0-4.42-1.5,6.84,6.84,0,0,0-4.29,1.2,3.77,3.77,0,0,0-1.55,3.12,3.06,3.06,0,0,0,1.44,2.75,18.18,18.18,0,0,0,5.21,1.77,27.17,27.17,0,0,1,6.1,2,8.9,8.9,0,0,1,3.46,2.81,6.94,6.94,0,0,1,1.13,4,7.54,7.54,0,0,1-3.15,6.32,13.27,13.27,0,0,1-8.18,2.37,14.68,14.68,0,0,1-6.25-1.25,10.11,10.11,0,0,1-4.26-3.49,8.42,8.42,0,0,1-1.53-4.85h5a5.2,5.2,0,0,0,2,4,7.84,7.84,0,0,0,5,1.48,8.12,8.12,0,0,0,4.58-1.15A3.55,3.55,0,0,0,582.32,348.33Z"/><path d="M593.74,353.49a3.12,3.12,0,0,1,.77-2.17,3,3,0,0,1,2.32-.87,3,3,0,0,1,2.35.87,3.06,3.06,0,0,1,.81,2.17,2.91,2.91,0,0,1-.81,2.1,3.08,3.08,0,0,1-2.35.84,3,3,0,0,1-2.32-.84A3,3,0,0,1,593.74,353.49Zm0-24a3.15,3.15,0,0,1,.78-2.18,2.94,2.94,0,0,1,2.32-.87,3,3,0,0,1,2.35.87,3.07,3.07,0,0,1,.8,2.18,2.89,2.89,0,0,1-.8,2.09,3.1,3.1,0,0,1-2.35.84,3,3,0,0,1-2.32-.84A3,3,0,0,1,593.76,329.5Z"/><path d="M608.38,359.53h-4.32l16.53-43h4.29Z"/><path d="M625.23,359.53h-4.32l16.53-43h4.29Z"/><path d="M672.06,341.75q0,6.75-3.1,10.83a9.9,9.9,0,0,1-8.32,4.09,10.24,10.24,0,0,1-8.61-3.94l-.25,3.4h-4.62V314.39h5V330a10.19,10.19,0,0,1,8.4-3.78,10,10,0,0,1,8.41,4.05q3.06,4,3.06,11.09Zm-5-.57c0-3.42-.66-6.07-2-7.93a6.58,6.58,0,0,0-5.71-2.8,7.38,7.38,0,0,0-7.15,4.62v12.72a7.59,7.59,0,0,0,7.2,4.62,6.55,6.55,0,0,0,5.63-2.8Q667,346.81,667,341.18Z"/><path d="M696.54,356.13a10.55,10.55,0,0,1-.7-3.1,11.22,11.22,0,0,1-8.37,3.64,10.4,10.4,0,0,1-7.14-2.46,8,8,0,0,1-2.78-6.23,8.33,8.33,0,0,1,3.49-7.14q3.5-2.54,9.82-2.54h4.9V336a5.68,5.68,0,0,0-1.58-4.2,6.34,6.34,0,0,0-4.65-1.56,7.3,7.3,0,0,0-4.51,1.36,4,4,0,0,0-1.82,3.29h-5.05a6.92,6.92,0,0,1,1.56-4.25,10.63,10.63,0,0,1,4.24-3.25,14.18,14.18,0,0,1,5.88-1.2q5.08,0,8,2.54a9.18,9.18,0,0,1,3,7v13.53a16.57,16.57,0,0,0,1,6.45v.43Zm-8.34-3.83a8.85,8.85,0,0,0,4.48-1.22,7.47,7.47,0,0,0,3.08-3.18v-6h-4q-9.24,0-9.24,5.41a4.59,4.59,0,0,0,1.58,3.7A6.1,6.1,0,0,0,688.2,352.3Z"/><path d="M725.79,348.33a3.73,3.73,0,0,0-1.54-3.17,14.94,14.94,0,0,0-5.35-1.94,24.61,24.61,0,0,1-6.06-2,8.62,8.62,0,0,1-3.32-2.71,6.46,6.46,0,0,1-1.07-3.75,7.66,7.66,0,0,1,3-6.12,12,12,0,0,1,7.82-2.5,12.3,12.3,0,0,1,8.11,2.58,8.24,8.24,0,0,1,3.11,6.61h-5a4.53,4.53,0,0,0-1.76-3.56,6.55,6.55,0,0,0-4.41-1.5,6.89,6.89,0,0,0-4.3,1.2,3.77,3.77,0,0,0-1.55,3.12,3.06,3.06,0,0,0,1.44,2.75,18.3,18.3,0,0,0,5.21,1.77,27,27,0,0,1,6.1,2,8.93,8.93,0,0,1,3.47,2.81,6.93,6.93,0,0,1,1.12,4,7.54,7.54,0,0,1-3.15,6.32,13.25,13.25,0,0,1-8.18,2.37,14.68,14.68,0,0,1-6.25-1.25,10.08,10.08,0,0,1-4.25-3.49,8.36,8.36,0,0,1-1.54-4.85h5a5.2,5.2,0,0,0,2,4,7.86,7.86,0,0,0,5,1.48,8.12,8.12,0,0,0,4.58-1.15A3.56,3.56,0,0,0,725.79,348.33Z"/><path d="M755.52,356.13a10.48,10.48,0,0,1-.71-3.1,11.22,11.22,0,0,1-8.37,3.64,10.35,10.35,0,0,1-7.13-2.46,7.94,7.94,0,0,1-2.79-6.23,8.33,8.33,0,0,1,3.49-7.14q3.5-2.54,9.83-2.54h4.89V336a5.68,5.68,0,0,0-1.58-4.2,6.34,6.34,0,0,0-4.65-1.56,7.32,7.32,0,0,0-4.51,1.36,4,4,0,0,0-1.82,3.29h-5a6.92,6.92,0,0,1,1.56-4.25,10.7,10.7,0,0,1,4.24-3.25,14.21,14.21,0,0,1,5.88-1.2q5.09,0,8,2.54a9.21,9.21,0,0,1,3,7v13.53a16.59,16.59,0,0,0,1,6.45v.43Zm-8.35-3.83a8.92,8.92,0,0,0,4.49-1.22,7.5,7.5,0,0,0,3.07-3.18v-6h-3.94q-9.24,0-9.24,5.41a4.58,4.58,0,0,0,1.57,3.7A6.1,6.1,0,0,0,747.17,352.3Z"/><path d="M773.1,356.13h-5V314.39h5Z"/><path d="M799.3,356.13a10.48,10.48,0,0,1-.71-3.1,11.22,11.22,0,0,1-8.37,3.64,10.35,10.35,0,0,1-7.13-2.46A7.94,7.94,0,0,1,780.3,348a8.33,8.33,0,0,1,3.49-7.14q3.5-2.54,9.83-2.54h4.89V336a5.68,5.68,0,0,0-1.58-4.2,6.33,6.33,0,0,0-4.64-1.56,7.33,7.33,0,0,0-4.52,1.36,4,4,0,0,0-1.82,3.29H780.9a6.92,6.92,0,0,1,1.56-4.25,10.7,10.7,0,0,1,4.24-3.25,14.25,14.25,0,0,1,5.88-1.2q5.08,0,8,2.54a9.21,9.21,0,0,1,3,7v13.53a16.59,16.59,0,0,0,1,6.45v.43ZM791,352.3a8.92,8.92,0,0,0,4.49-1.22,7.5,7.5,0,0,0,3.07-3.18v-6h-3.94q-9.24,0-9.24,5.41a4.58,4.58,0,0,0,1.57,3.7A6.13,6.13,0,0,0,791,352.3Z"/><path d="M816.15,326.73l.13,3.26a10.87,10.87,0,0,1,8.73-3.81q6.16,0,8.39,4.73a11.16,11.16,0,0,1,3.82-3.42,11.29,11.29,0,0,1,5.56-1.31q9.68,0,9.84,10.25v19.7h-5v-19.4a6.75,6.75,0,0,0-1.44-4.72q-1.44-1.56-4.84-1.56a6.51,6.51,0,0,0-6.79,6.17v19.51h-5.06V336.86q0-6.41-6.27-6.41-5,0-6.77,4.21v21.47h-5v-29.4Z"/><path d="M860.31,353.49a3.16,3.16,0,0,1,.77-2.17,3,3,0,0,1,2.33-.87,3,3,0,0,1,2.35.87,3.09,3.09,0,0,1,.8,2.17,2.94,2.94,0,0,1-.8,2.1,3.11,3.11,0,0,1-2.35.84,2.79,2.79,0,0,1-3.1-2.94Z"/><path d="M886.64,352.57a7.21,7.21,0,0,0,4.7-1.63,5.74,5.74,0,0,0,2.23-4.08h4.76a9.08,9.08,0,0,1-1.74,4.81,11.48,11.48,0,0,1-4.28,3.65,12.46,12.46,0,0,1-5.67,1.35,12.11,12.11,0,0,1-9.55-4q-3.55-4-3.55-11v-.84a17.71,17.71,0,0,1,1.58-7.64,12,12,0,0,1,4.52-5.19,12.88,12.88,0,0,1,7-1.85,11.84,11.84,0,0,1,8.23,3,10.63,10.63,0,0,1,3.49,7.7h-4.76a6.87,6.87,0,0,0-2.16-4.69,6.68,6.68,0,0,0-4.8-1.84,7,7,0,0,0-5.93,2.76q-2.11,2.76-2.11,8V342q0,5.08,2.09,7.83A7.08,7.08,0,0,0,886.64,352.57Z"/><path d="M902.65,341.16a17.3,17.3,0,0,1,1.7-7.78,12.65,12.65,0,0,1,4.73-5.32,12.86,12.86,0,0,1,6.91-1.88,12.42,12.42,0,0,1,9.72,4.16q3.7,4.16,3.71,11.06v.35a17.46,17.46,0,0,1-1.65,7.71,12.45,12.45,0,0,1-4.7,5.31,13,13,0,0,1-7,1.9,12.36,12.36,0,0,1-9.69-4.15c-2.48-2.78-3.71-6.44-3.71-11Zm5.05.59a12.61,12.61,0,0,0,2.27,7.86,7.69,7.69,0,0,0,12.16,0c1.51-2,2.26-4.81,2.26-8.41a12.55,12.55,0,0,0-2.3-7.84,7.28,7.28,0,0,0-6.1-3,7.2,7.2,0,0,0-6,3C908.46,335.25,907.7,338.08,907.7,341.75Z"/><path d="M940.45,326.73l.14,3.26a10.84,10.84,0,0,1,8.72-3.81q6.16,0,8.4,4.73a11,11,0,0,1,9.37-4.73q9.67,0,9.84,10.25v19.7h-5v-19.4a6.75,6.75,0,0,0-1.44-4.72q-1.44-1.56-4.83-1.56a6.68,6.68,0,0,0-4.65,1.67,6.78,6.78,0,0,0-2.15,4.5v19.51h-5.05V336.86q0-6.41-6.28-6.41c-3.3,0-5.55,1.4-6.77,4.21v21.47h-5v-29.4Z"/><path d="M985.51,359.53h-4.32l16.52-43H1002Z"/></g></g></svg>