<svg xmlns="http://www.w3.org/2000/svg" viewBox="0 0 672 672"><g id="Layer_1" data-name="Layer 1"><path d="M384.5,365.35,318.37,277a5,5,0,0,1,1-7,5,5,0,0,1,7,1l43.1,57.58,21.26-11.85-2.82-6.8a26.44,26.44,0,0,1-12.61,6,4.68,4.68,0,0,1-1,.1,5,5,0,0,1-1-9.9c6.87-1.39,9.44-4.89,10.3-6.53L363.94,252A37.6,37.6,0,0,1,347,256.38c-.73,0-1.44,0-2.12-.08a5,5,0,0,1-2.9-8.77,4.94,4.94,0,0,1,3.65-1.2c5.28.38,11.8-1.64,17.4-5.4a4.45,4.45,0,0,1,.92-.64,35.19,35.19,0,0,0,5.46-4.83c5.94-6.5,12.33-18.36,9.08-38-1.24-6.59-3.11-16.56,2.61-25.71,2.43-3.88,2.83-7,1.06-8.32-4.33-3.26-10.12,2.53-11.43,4.26-2.8,3.7-4,9.72-3.45,17.43l.2,2.72c.23,3,.54,7,.61,8.86a1.41,1.41,0,0,1,0,.29v.24c0,.13,0,.27,0,.41s-.05.24-.08.37l-.06.21c0,.13-.06.25-.1.37a2.83,2.83,0,0,1-.16.36l-.09.19a3.18,3.18,0,0,1-.16.32,3.88,3.88,0,0,1-.23.33l-.12.16a3,3,0,0,1-.22.28,3.7,3.7,0,0,1-.28.28l-.15.13a2,2,0,0,1-.27.24,2.2,2.2,0,0,1-.32.21l-.18.11-.32.19-.36.15-.2.07-.36.12-.38.07-.23,0-.32,0h-.36a3.55,3.55,0,0,1-.46,0l-.12,0-.25,0a5,5,0,0,1-3.68-2.79l0-.1a5,5,0,0,1-.28-.79,2,2,0,0,1,0-.24l0-.23a3.07,3.07,0,0,1-.07-.42l-4.76-67.43c-.25-3.57-1.44-6.68-3.11-8.13a4,4,0,0,0-3.11-1c-4.24.31-5.42,6.23-5.16,9.88v.15l2.63,37.38a5,5,0,0,1-10,.7l-4-56.17c-.24-3.47-1.54-6.69-3.31-8.19a3.55,3.55,0,0,0-2.81-.89c-2.88.27-5.58,5.35-5.26,9.89l4,56.16a5,5,0,0,1-4.64,5.34h-.36a5,5,0,0,1-5-4.64l-3.07-43.46c-.25-3.58-1.54-6.81-3.28-8.28a3.57,3.57,0,0,0-2.83-.86c-4.36.41-5.54,6.14-5.28,9.88l4.23,60a5,5,0,0,1-10,.71l-2-27.77c-.25-3.54-1.57-7-3.21-8.34a1.51,1.51,0,0,0-1.28-.45c-4.48.5-3.92,9-3.9,9.38L286,207.08c1.31,18.46,8.52,29.08,14.35,34.73,6.52,6.33,12.7,8,12.76,8.06a5,5,0,0,1,3.8,5.95,5,5,0,0,1-4.88,3.93,4.83,4.83,0,0,1-1.08-.12,29.75,29.75,0,0,1-5.59-2.2c-.95,12.93-6.8,35.44-34.55,47.05l7.37,23.35,2.15,0c35.44,0,44.4-22.34,44.48-22.57a5,5,0,0,1,9.37,3.51c-.45,1.19-11.37,29.07-53.79,29.07-2,0-4.1-.07-6.23-.2l-3.43-.21-2.33-7.37-.44.05c-1.55,1.58-3.11,5.52,2.69,14.52,2.73,4.24,3.63,8.16,2.66,11.65a11.69,11.69,0,0,1-6.52,7.27,11.26,11.26,0,0,1-9.32.09c-2.31-1-5.39-3.35-6.89-8.61-2.95-10.29-1.3-18,.79-22.88l-7.19.89-8.36-28L263,296.74l3.74-1.41c13.94-5.75,23-15.28,26.86-28.33a46.76,46.76,0,0,0,1.86-16.1c-7.82-6.7-17.46-19.39-19.35-41.92a2.43,2.43,0,0,1-.05-.28l-3.3-46.83c-.8-11.2,4.21-19.06,12.75-20a11.24,11.24,0,0,1,4.31.36l-1-13.82c-.67-9.47,4-19.57,14.3-20.55a13.77,13.77,0,0,1,6.49.92c1.72-9.62,8.4-14.56,14-15.07a13.56,13.56,0,0,1,10.2,3.22c3.82,3.25,6.37,8.9,6.81,15.11l0,.45a14.47,14.47,0,0,1,16.12,1.7c3.71,3.22,6.09,8.68,6.54,15l2.09,29.6c5.71-5.41,14.77-9.29,22.76-3.28,4.68,3.53,7.85,11.3,1.4,21.61-3.38,5.4-2.56,11.65-1.24,18.67,3.92,23.66-4.12,38.32-11.55,46.46a44.52,44.52,0,0,1-4.37,4.11l30.94,74.82-9.32,5.19,4.34,7.28c3.09-2.13,5.9-5.52,8.38-10.06,2.74-5,7.08-7.93,11.9-8h.14a11,11,0,0,1,9.64,5.55c2.3,4,2.31,12.31-7.14,18.74a41.21,41.21,0,0,1-15.5,6.19l3.32,5.56ZM322.37,270a4,4,0,0,0-2.4.79,4,4,0,0,0-.8,5.6l65.61,87.65,23-12.81-3.53-5.92.72-.13A40.53,40.53,0,0,0,420.76,339c8.89-6,8.95-13.72,6.83-17.41a10,10,0,0,0-8.9-5.05c-4.45.05-8.47,2.77-11,7.46-2.67,4.9-5.75,8.5-9.14,10.71l-.44.28L392.67,326l9.44-5.26L371.23,246l.29-.24a42.89,42.89,0,0,0,4.55-4.25c7.29-8,15.16-22.35,11.3-45.61-1.35-7.22-2.19-13.66,1.39-19.37,6.09-9.73,3.18-17-1.16-20.28-7.84-5.9-16.87-1.56-22.23,3.95l-.78.8-2.24-31.8c-.43-6-2.69-11.25-6.2-14.29a13.41,13.41,0,0,0-15.64-1.19l-.7.44-.15-2.09c-.42-5.94-2.83-11.33-6.46-14.42a12.56,12.56,0,0,0-9.46-3c-7.62.7-12.19,8.2-13.21,14.87l-.1.66-.6-.28a12.66,12.66,0,0,0-6.58-1.09c-9.63.92-14,10.49-13.4,19.48l1.08,15.31-.71-.25a10.32,10.32,0,0,0-4.59-.54c-8,.89-12.62,8.34-11.87,19l3.31,46.83,0,.24c1.88,22.37,11.46,34.86,19.17,41.41l.16.13,0,.21a47.8,47.8,0,0,1-1.89,16.67c-4,13.35-13.2,23.1-27.46,29l-3.78,1.42L237,305.75,244.88,332l8.12-1-.38.82c-2.18,4.65-4.13,12.41-1.1,23,1.4,4.9,4.22,7,6.33,8a10.27,10.27,0,0,0,8.48-.08,10.9,10.9,0,0,0,6-6.63c.89-3.21,0-6.86-2.54-10.85-6.33-9.83-4.24-14.18-2.42-15.9l.12-.11,1.59-.2,2.37,7.52,2.75.16c2.11.13,4.18.2,6.17.2,41.74,0,52.42-27.26,52.85-28.42a4,4,0,1,0-7.49-2.8c-.09.23-9.17,23.21-45.4,23.21l-2.56,0h-.35l-7.86-24.92.44-.17c28.15-11.59,33.63-34.48,34.39-47.1l0-.77.69.35a32.57,32.57,0,0,0,6,2.46,4.12,4.12,0,0,0,.86.09,4,4,0,0,0,.85-7.91c-.25-.05-25.3-7.21-27.88-43.69l-3.23-45.91c-.08-1-.55-9.85,4.77-10.45a2.52,2.52,0,0,1,2,.68c1.83,1.53,3.3,5.25,3.56,9l2,27.77a4,4,0,1,0,8-.57l-4.23-60c-.29-4.13,1.12-10.47,6.18-11a4.58,4.58,0,0,1,3.58,1.1c1.93,1.64,3.36,5.14,3.62,8.91l3.08,43.52a4,4,0,0,0,8-.57l-4-56.16c-.36-5.21,2.69-10.63,6.17-10.95a4.54,4.54,0,0,1,3.55,1.12c2,1.67,3.4,5.15,3.66,8.88l4,56.17a4,4,0,1,0,8-.56L341,130.84v-.1c-.28-4.05,1.12-10.59,6.09-11a5,5,0,0,1,3.83,1.18c1.87,1.62,3.19,5,3.46,8.82l4.76,67.43c0,.1,0,.2.05.3l.05.28a.59.59,0,0,0,0,.13,4.88,4.88,0,0,0,.23.64l-.44.24.47-.14a4,4,0,0,0,2.94,2.2l.33,0,.33,0h.16l.1.5,0-.51.17,0,.3,0,.26,0,.25-.09.23-.09.26-.1.22-.13.2-.12.24-.16.18-.16.17-.16a1.31,1.31,0,0,0,.21-.2l.15-.19.13-.18.17-.24.11-.22.1-.22a1.51,1.51,0,0,0,.12-.26A2.33,2.33,0,0,0,367,198l.06-.25a2.44,2.44,0,0,0,.06-.26,2.83,2.83,0,0,0,0-.29l0-.3a.86.86,0,0,0,0-.16c-.07-1.83-.38-5.87-.6-8.83l-.21-2.68c-.56-8,.7-14.25,3.66-18.14,1.44-1.9,7.83-8.22,12.82-4.46,2.23,1.68,1.92,5.28-.81,9.65-5.51,8.82-3.68,18.56-2.47,25,3.32,20-3.25,32.16-9.33,38.83a36.55,36.55,0,0,1-5.67,5,4.55,4.55,0,0,0-.84.59c-5.83,3.92-12.58,6-18.09,5.61a4,4,0,1,0-.59,8c.65.06,1.34.08,2,.08A36.8,36.8,0,0,0,364,250.81l.49-.25,20.28,49-.1.2c-.8,1.68-3.5,5.75-11.1,7.28a4,4,0,0,0,.79,7.92,4.26,4.26,0,0,0,.8-.08,25.17,25.17,0,0,0,12.65-6.2l.53-.5,3.7,9-22.79,12.71-43.64-58.28A4,4,0,0,0,322.37,270Z"/><path d="M310.13,313.51a5,5,0,0,1-.9-9.92,4.89,4.89,0,0,0,4-5h0a5,5,0,0,1,4.92-5.08,4.88,4.88,0,0,1,3.54,1.34,5,5,0,0,1,1.54,3.58A14.94,14.94,0,0,1,311,313.43,5.59,5.59,0,0,1,310.13,313.51Zm8.14-19.05h-.12a4,4,0,0,0-3.94,4.06h0a5.89,5.89,0,0,1-4.8,6.06,4,4,0,0,0-2.57,1.66,4,4,0,0,0,3.29,6.27,4.49,4.49,0,0,0,.73-.06,13.94,13.94,0,0,0,11.35-14.06,4,4,0,0,0-1.23-2.86A3.88,3.88,0,0,0,318.27,294.46Z"/><path d="M318.16,200.24a3.86,3.86,0,0,1-2.1-.65,7.67,7.67,0,0,1-3.07-5.17c-.68-3.81.9-7.48,3.52-8.19h0a3.74,3.74,0,0,1,3,.52,7.71,7.71,0,0,1,3.07,5.17c.68,3.81-.9,7.49-3.52,8.19A3.3,3.3,0,0,1,318.16,200.24Zm-1.39-13c-2.13.57-3.38,3.74-2.79,7.05a6.68,6.68,0,0,0,2.61,4.5,2.79,2.79,0,0,0,2.23.4c2.13-.58,3.38-3.74,2.79-7.05a6.67,6.67,0,0,0-2.61-4.5,2.75,2.75,0,0,0-2.23-.4Z"/><path d="M347.77,200.24a3.86,3.86,0,0,1-2.09-.65,7.67,7.67,0,0,1-3.07-5.17c-.68-3.81.9-7.48,3.52-8.19a3.74,3.74,0,0,1,3,.52,7.73,7.73,0,0,1,3.07,5.17c.67,3.81-.9,7.49-3.52,8.19h0A3.31,3.31,0,0,1,347.77,200.24Zm-.72-13.13a2.5,2.5,0,0,0-.66.09c-2.13.57-3.38,3.74-2.79,7.05a6.68,6.68,0,0,0,2.61,4.5,2.79,2.79,0,0,0,2.23.4c2.13-.58,3.38-3.74,2.79-7.05a6.67,6.67,0,0,0-2.61-4.5A2.92,2.92,0,0,0,347.05,187.11Z"/><path d="M327.26,224.23a5,5,0,0,1-5-4.51h0a5,5,0,0,1,1.11-3.66,5,5,0,0,1,3.37-1.81l4.36-.43L328.29,201a5,5,0,0,1,3.79-6,5,5,0,0,1,6,3.79l5.3,23.8-15.59,1.55ZM333.17,196a4.28,4.28,0,0,0-.87.09,4,4,0,0,0-3,4.78l3.1,13.89-5.49.54a4,4,0,0,0-2.7,1.44,4,4,0,0,0-.88,2.93h0a4,4,0,0,0,4.37,3.59l14.46-1.43-5.05-22.7A4,4,0,0,0,333.17,196Z"/><path d="M333.47,244.18a24.34,24.34,0,0,1-12.35-3.37,5,5,0,0,1-1.77-6.84h0a5,5,0,0,1,6.84-1.77,14.45,14.45,0,0,0,19.75-5.12,5,5,0,0,1,8.62,5.07A24.56,24.56,0,0,1,333.47,244.18Zm-13.26-9.7a4,4,0,0,0,1.42,5.47,23.28,23.28,0,0,0,11.84,3.23,23.55,23.55,0,0,0,20.23-11.54,4,4,0,0,0-6.9-4,15.45,15.45,0,0,1-21.12,5.47,4,4,0,0,0-5.47,1.42Z"/><path d="M362.34,576.82a3.9,3.9,0,0,1-3.88-4l.55-31.46,8.38-2,14.77,27.78a3.87,3.87,0,0,1,.29,3,3.88,3.88,0,0,1-7.13.68l-1.05-2-8,1.93,0,2.23A3.89,3.89,0,0,1,362.34,576.82ZM360,542.2l-.53,30.69a2.88,2.88,0,1,0,5.75.1l.05-3,9.53-2.29,1.42,2.65a2.87,2.87,0,0,0,5.07-2.7l-14.41-27.1Zm5.38,21.85.23-13.64L372,562.46Zm1.16-9.75-.14,8.48,4.13-1Z"/><path d="M401.38,564.08a3.88,3.88,0,0,1-3.35-1.93L382.27,535l6.56-3.81L403.11,543l-3.19-18.28,6.57-3.81,15.76,27.2a3.87,3.87,0,1,1-6.7,3.89l-4.29-7.41,1.35,7.74-6.12,3.55-6.05-5,4.29,7.41a3.86,3.86,0,0,1-1.4,5.29A4,4,0,0,1,401.38,564.08Zm-17.75-28.77,15.26,26.34a2.89,2.89,0,0,0,3.93,1.05,2.88,2.88,0,0,0,1.05-3.93l-7.11-12.27,9.83,8.16,4.91-2.84-2.19-12.59,7.1,12.27a2.89,2.89,0,0,0,3.93,1,2.82,2.82,0,0,0,1.34-1.75,2.87,2.87,0,0,0-.29-2.18l-15.26-26.33-5.1,3,3.53,20.28-15.83-13.15Z"/><path d="M339.38,578.37H322V543.62h7.75v27h9.63a3.88,3.88,0,0,1,0,7.75Zm-16.38-1h16.38a2.88,2.88,0,0,0,0-5.75H328.75v-27H323Z"/><path d="M297.78,574.16h-.25a3.87,3.87,0,0,1-3.62-4.12l.14-2.22-7.84-2.58L285,567.1a3.88,3.88,0,0,1-5.35,1.17,3.88,3.88,0,0,1-1.16-5.36l17-26.47,8.18,2.69-2,31.41A3.88,3.88,0,0,1,297.78,574.16Zm-12-10.12,9.31,3.06-.19,3a2.86,2.86,0,0,0,2.68,3h.19a2.87,2.87,0,0,0,2.86-2.69l2-30.63-6.72-2.21-16.59,25.82a2.89,2.89,0,0,0,.86,4,2.91,2.91,0,0,0,2.17.39,2.85,2.85,0,0,0,1.8-1.26Zm9.7-2.87L289,559l7.37-11.47Zm-4.95-2.68,4,1.33.55-8.46Z"/><path d="M256,554.22a10.05,10.05,0,0,1-8.27-15.77,3.88,3.88,0,0,1,6.38,4.4,2.31,2.31,0,1,0,3.8,2.63l1-1.39a2.31,2.31,0,0,0-.59-3.22,10,10,0,0,1-2.57-14l1-1.39a10.06,10.06,0,0,1,16.57,11.43,3.87,3.87,0,0,1-2.49,1.61,3.89,3.89,0,0,1-4.52-3.11,3.91,3.91,0,0,1,.62-2.9,2.26,2.26,0,0,0,.37-1.73,2.3,2.3,0,0,0-2.68-1.86,2.26,2.26,0,0,0-1.49,1l-1,1.39a2.31,2.31,0,0,0-.37,1.73,2.28,2.28,0,0,0,1,1.49,10.07,10.07,0,0,1,2.57,14l-1,1.4A10,10,0,0,1,256,554.22ZM251,537.78a2.87,2.87,0,0,0-2.37,1.24,9.06,9.06,0,0,0,14.92,10.29l1-1.39a9.07,9.07,0,0,0-2.32-12.61,3.3,3.3,0,0,1-.85-4.6l1-1.39a3.29,3.29,0,0,1,2.13-1.38,3.24,3.24,0,0,1,2.48.53,3.31,3.31,0,0,1,.85,4.61,2.82,2.82,0,0,0-.46,2.15,2.87,2.87,0,0,0,1.19,1.85,2.9,2.9,0,0,0,2.16.46,2.86,2.86,0,0,0,1.84-1.2,9.06,9.06,0,1,0-14.92-10.29l-1,1.39a9.07,9.07,0,0,0,2.32,12.61,3.32,3.32,0,0,1,.85,4.6l-1,1.4a3.32,3.32,0,0,1-4.61.84,3.3,3.3,0,0,1-.85-4.6,2.87,2.87,0,0,0-2.36-4.51Z"/><path d="M457.5,522.12a9.5,9.5,0,1,1,9.5-9.5A9.51,9.51,0,0,1,457.5,522.12Zm0-18a8.5,8.5,0,1,0,8.5,8.5A8.51,8.51,0,0,0,457.5,504.12Z"/><path d="M457.5,495.12a29.78,29.78,0,0,1-29.75-29.75V399.63h23.5v65.75a6.25,6.25,0,0,0,12.5,0V435.62h23.5v29.75A29.78,29.78,0,0,1,457.5,495.12Zm-28.76-94.49v64.74a28.75,28.75,0,0,0,57.5,0V436.62h-21.5v28.75a7.25,7.25,0,0,1-14.5,0V400.62Z"/><path d="M208.25,515.31h-23.5V503.56a32,32,0,0,1,16.14-27.77,31.69,31.69,0,0,1-2.64-12.67,32,32,0,0,1,62-11.24,33.82,33.82,0,0,1,5-10.65l13.71-19.58L263.73,400,283,386.5l10.27,14.66,5.86-8.36,19.25,13.48-10.77,15.37,13.72,19.58a34.29,34.29,0,0,1,2.94,5.1V435.62h23.5v29.75a6.25,6.25,0,0,0,12.5,0V435.62h23.5v29.75a6.25,6.25,0,0,0,12.5,0V435.62h23.5v29.75A29.78,29.78,0,0,1,390,495.12,29.39,29.39,0,0,1,372,489a29.39,29.39,0,0,1-18,6.11A29.86,29.86,0,0,1,325.25,473a34.22,34.22,0,0,1-64.32-.9,31.86,31.86,0,0,1-30.68,23c-.27,0-.53,0-.8,0l-.48,0H216.75a8.51,8.51,0,0,0-8.5,8.5Zm-22.5-1h21.5V503.56a9.51,9.51,0,0,1,9.5-9.5H229l.53,0c.24,0,.48,0,.73,0a30.87,30.87,0,0,0,30.14-23.88l.44-1.84.53,1.81a33.23,33.23,0,0,0,63.51.9l.59-1.8.38,1.85a28.84,28.84,0,0,0,28.16,23A28.45,28.45,0,0,0,371.69,488l.31-.24.31.24A28.45,28.45,0,0,0,390,494.12a28.78,28.78,0,0,0,28.75-28.75V436.62h-21.5v28.75a7.25,7.25,0,0,1-14.5,0V436.62h-21.5v28.75a7.25,7.25,0,0,1-14.5,0V436.62h-21.5v14.86l-1-2.52a33.79,33.79,0,0,0-3.79-7.16l-14.12-20.15L317,406.52l-17.61-12.33-6.1,8.71-10.51-15-17.61,12.34,15,21.42L266,441.8a33,33,0,0,0-5.23,12l-.4,1.83-.57-1.79a31,31,0,0,0-60.56,9.32A30.58,30.58,0,0,0,202,475.79l.19.42-.41.23a31.05,31.05,0,0,0-16,27.12Zm107.5-41.69a11.91,11.91,0,0,1-11.75-11.75,11.66,11.66,0,0,1,2.12-6.73l9.63-13.75,9.63,13.75a11.66,11.66,0,0,1,2.12,6.73A11.91,11.91,0,0,1,293.25,472.62Zm0-30.49-8.81,12.58a10.71,10.71,0,0,0-1.94,6.16,10.75,10.75,0,0,0,21.5,0,10.71,10.71,0,0,0-1.94-6.16Zm-63,30.49h-.5v-.06h-.13a9,9,0,1,1,.63.06Zm0-1.06.5.05a8.87,8.87,0,1,0-1.09-.05Z"/></g></svg>