<svg xmlns="http://www.w3.org/2000/svg" viewBox="0 0 672 672"><g id="Layer_1" data-name="Layer 1"><path d="M350.4,294.93a4,4,0,0,0-5.1,6.11,4.22,4.22,0,0,0,.56.47,13.9,13.9,0,0,0,17.9-1.9,4.08,4.08,0,0,0-.09-5.66A4,4,0,0,0,358,294,5.84,5.84,0,0,1,350.4,294.93Z"/><path d="M435.54,215.72c-2.14-1.23-5.57.19-7.65,3.17s-2,6.4.12,7.63,5.57-.18,7.65-3.16S437.69,217,435.54,215.72Z"/><path d="M417,243.57a4,4,0,0,0,.26,5.36,1.93,1.93,0,0,0,.3.27l11.2,9.18,12.42-19.53a4,4,0,0,0-6.75-4.29l-7.58,11.92L422.65,243A4,4,0,0,0,417,243.57Z"/><path d="M404.42,251.85a4,4,0,0,0-2.87,4.87A23.31,23.31,0,0,0,430,273.45a4,4,0,0,0-2-7.75,15.33,15.33,0,0,1-18.67-11A4,4,0,0,0,404.42,251.85Z"/><path d="M410.92,398.05a18,18,0,0,0-9.17-20.47l-8.5-4.34,4.26-10.15,7.11,2L433.2,296a44.79,44.79,0,0,0,5.56.12c10.73-.48,26.37-5.05,40-24.13,4.12-6,8.06-11.14,14.58-12.64,11.12-2.56,14.24-9.48,13.45-15.1-1.46-10.34-12.11-13.27-19.5-12.83L508.1,207.5c3.95-4.55,6-9.81,5.7-14.43a12.92,12.92,0,0,0-4.6-9,12.75,12.75,0,0,0-6.37-3l1.36-1.57c3.89-4.48,6-10,5.6-14.7a12.45,12.45,0,0,0-4.56-8.78c-5.65-4.7-14.34-3-20.28,1.59a12.69,12.69,0,0,0-4.08-6c-7.43-6.14-17.27-2.49-23.15,4.28l-10,11.54a10.18,10.18,0,0,0-3.14-4.3c-6.23-5-14.75-3-21.7,5l-30,34.56h0l-.6.69c-.06.07-.1.15-.16.22-14.42,17.07-16.64,32.66-15.54,43.51-3.6,4.8-19.86,23.33-49.84,13l-3.83-1.39-5.65-2.15h0l-29.39-11.22-25.22,44,3.28,2a19.25,19.25,0,0,0,25-3.88l5.52-6.47,9.9,7L304,293.37l2,1.91c31.92,30.93,57.41,19.63,58.47,19.13a4,4,0,0,0-3.34-7.27c-.86.39-20.83,8.86-47.58-15.73l10.13-23.91.39.14c27.87,9.58,46.07-2.68,54.51-10.94a32.49,32.49,0,0,0,2.47,5.81,4.09,4.09,0,0,0,.55.68,4,4,0,0,0,6.19-5c-.14-.21-12.73-22.82,11.12-50.3l30-34.57c.66-.75,6.53-7.29,10.67-4a2.5,2.5,0,0,1,.95,1.9c.22,2.39-1.33,5.95-3.84,8.85L418.53,201a4,4,0,1,0,6,5.25l15-17.27h0l24.19-27.86c2.7-3.11,8.13-6.57,12-3.36a4.49,4.49,0,0,1,1.73,3.27c.22,2.55-1.21,5.92-3.71,8.8,0,0,0,0,0,.06l-28.4,32.71a4,4,0,0,0,.19,5.44l.21.2a4,4,0,0,0,5.64-.4l36.71-42.28c3.33-3.84,9.39-5.54,12-3.36a4.47,4.47,0,0,1,1.7,3.26c.21,2.55-1.23,6-3.67,8.81l-36.71,42.29a4,4,0,0,0,6,5.24l24.43-28.14a.52.52,0,0,0,.11-.1c2.64-3,8.21-6.65,11.94-3.41a4.87,4.87,0,0,1,1.86,3.51c.17,2.48-1.23,5.7-3.76,8.62L458,253a3.48,3.48,0,0,0-.28.39l-.15.2a4,4,0,0,0-.44,2.95c0,.1.06.19.09.29a4,4,0,0,0,.14.41,3.59,3.59,0,0,0,.21.38c.05.09.1.19.16.28a3.82,3.82,0,0,0,.27.32,2,2,0,0,0,.18.23l.11.1,0,0h0l.07.06c.09.08.2.14.29.21l.33.23.35.16.36.17c.12,0,.25.06.37.09l.39.08a2.23,2.23,0,0,0,.37,0,2.39,2.39,0,0,0,.76,0c.13,0,.26,0,.39-.06s.23-.08.35-.12l.37-.14.35-.2a3.53,3.53,0,0,0,.32-.21,2.14,2.14,0,0,0,.32-.28l.25-.22c1.24-1.34,3.89-4.43,5.82-6.68l1.72-2c5.2-6,10.48-9.5,15.29-10.16,2.34-.32,11.26-.26,12.12,5.87.38,2.73-2.36,5-7.33,6.18-10.09,2.33-15.69,10.51-19.34,15.86-11.73,16.39-24.87,20.31-33.83,20.72-11.33.5-20.78-4.38-25.14-9.42a4,4,0,0,0-6.06,5.22q.66.76,1.38,1.5a37.39,37.39,0,0,0,16.55,9.15l-18,43.43c-1.76.66-6.53,1.72-13.08-2.63a4,4,0,0,0-5,6.16,4.34,4.34,0,0,0,.61.51,24.66,24.66,0,0,0,13.95,4.55L400,355.47l-25-7.08,8.86-65.84a4,4,0,1,0-7.93-1.07l-9.78,72.71h0l-.65,4.86h0l-3.93,29.23L409.88,402ZM301.6,274.88,311.72,263l4.43,1.69-6.67,15.74Zm72.31,81.52,15.85,4.49-3.65,8.7L373,362.91Z"/><path d="M448.84,247.35c2.15,1.24,5.57-.18,7.65-3.16s2-6.4-.12-7.64-5.57.19-7.65,3.17S446.7,246.12,448.84,247.35Z"/><path d="M168.42,506.4l-7.07-7.07L184,476.71l-5.66-5.66L150,499.33l12.73,12.73a4,4,0,0,0,5.65-5.66Z"/><path d="M120,421.86a11,11,0,0,1,6.94-18.74,4,4,0,0,1,.61,8,3,3,0,0,0-1.71,5.27,2.93,2.93,0,0,0,2.18.71l2.49-.19a3,3,0,0,0,2.76-3.22,11,11,0,0,1,10.12-11.82l2.49-.19a11,11,0,1,1,1.7,21.93,4,4,0,1,1-.62-8,3,3,0,1,0-.46-6l-2.49.2a3,3,0,0,0-2.05,1,2.93,2.93,0,0,0-.71,2.18,11,11,0,0,1-10.12,11.81l-2.49.2a10.93,10.93,0,0,1-8-2.61C120.37,422.26,120.16,422.06,120,421.86Z"/><path d="M259.89,552.28l6.07-36L258.08,515l-11.52,20.12-4.27-22.79L234.41,511l-6.08,36a4,4,0,0,0,7.89,1.33l2.22-13.13,2.12,11.33,7.93,1.34,5.72-10L252,551a4,4,0,0,0,7.89,1.33Z"/><path d="M207.26,537.93l9.56-35.43L209.06,498l-25.84,26.06a4,4,0,0,0,0,5.65h0a4,4,0,0,0,5.66,0l2.56-2.59,9,5.19-1,3.52a4,4,0,1,0,7.72,2.08Zm-10-16.67,8.48-8.56-3.14,11.64Z"/><path d="M164.31,443.76,128,449.31a4,4,0,1,0,1.21,7.9l3.61-.55L137,466.2l-2.85,2.26a4,4,0,0,0-.66,5.62c.1.12.2.24.31.35a4,4,0,0,0,5.31.31L167.88,452Zm-20.82,17.31L141,455.41l11.91-1.82Z"/><path d="M359.41,493.61l-21.22,21.22a6,6,0,1,1-8.48-8.49l46.67-46.67-17-17-46.67,46.67a30,30,0,0,0,42.43,42.43l21.21-21.22Z"/><path d="M290.11,466.74a6,6,0,0,1-8.48-8.48L302.84,437l-17-17-21.21,21.22a6,6,0,0,1-8.49-8.49l21.21-21.21-17-17-10.29,10.29a34.11,34.11,0,0,0,2.76-8.63l4-22.67,20.19-3.56-4.17-23.63-11.59,2,3.52-19.92-23.64-4.17-5,28.52-22.66,4A33.81,33.81,0,0,0,200.73,362a32,32,0,1,0-57.87-26.86,32,32,0,0,0-29.53,8.58l-5.65,5.66,17,17,5.65-5.65a8,8,0,0,1,11.32,0l8.48,8.48h0a32,32,0,0,0,39.82,4.34,34,34,0,0,0,45.63,46.78,29.92,29.92,0,0,0,20.66,46.42,29.95,29.95,0,0,0,50.87,17L328.3,462.5l-17-17Zm-123-114.55a8,8,0,1,1,11.32,0A8,8,0,0,1,167.07,352.19Zm45.26,45.26a10.15,10.15,0,0,1,0-14.15,10,10,0,0,1,5.33-2.77l14.07-2.48-2.48,14.06a10,10,0,0,1-2.78,5.34A10.14,10.14,0,0,1,212.33,397.45Z"/><path d="M307,537.52a8,8,0,1,0,0,11.31A8,8,0,0,0,307,537.52Z"/></g></svg>