<svg xmlns="http://www.w3.org/2000/svg" viewBox="0 0 672 672"><defs><style>.cls-1{fill:#ef5330;}</style></defs><g id="Layer_1" data-name="Layer 1"><path class="cls-1" d="M551,622.19H121.05V49.81H551Zm-428.9-1H550V50.81H122.05Z"/><path d="M321.86,306.58a3,3,0,0,0,.53,5.95,3.31,3.31,0,0,0,.55,0,10.41,10.41,0,0,0,8.48-10.5,3,3,0,0,0-3.05-3,3,3,0,0,0-2.95,3.05A4.38,4.38,0,0,1,321.86,306.58Z"/><path d="M325,219.42c-1.79.49-2.85,3.06-2.37,5.74s2.32,4.47,4.11,4,2.85-3,2.38-5.73S326.8,218.94,325,219.42Z"/><path d="M330,244a3,3,0,0,0,3,2.7h.3L344,245.64l-3.77-16.95a3,3,0,1,0-5.86,1.3l2.3,10.34-4.07.41A3,3,0,0,0,330,244Z"/><path d="M327.66,255.08a3,3,0,0,0,1.06,4.11,17.49,17.49,0,0,0,23.95-6.2,3,3,0,1,0-5.18-3A11.5,11.5,0,0,1,331.76,254,3,3,0,0,0,327.66,255.08Z"/><path d="M408.64,329.18a13.49,13.49,0,0,0-15.72-6l-6.81,2.21L383,317.75l4.84-2.7-21.49-51.81a31.45,31.45,0,0,0,3-2.88c5.43-6,11.31-16.67,8.43-34-1-5.39-1.63-10.19,1-14.44,4.54-7.26,2.53-12.58-.87-15.14-6.26-4.72-13.46-.62-17.14,3.53l-1.68-23.71c-.32-4.51-2-8.4-4.63-10.67a9.69,9.69,0,0,0-7.21-2.33,9.57,9.57,0,0,0-5,1.78l-.11-1.56c-.31-4.43-2.12-8.46-4.83-10.76a9.37,9.37,0,0,0-7.07-2.24c-5.49.51-9.19,6-9.91,11.6a9.52,9.52,0,0,0-5.37-1c-7.19.69-10.48,7.84-10,14.55l.81,11.43a7.68,7.68,0,0,0-3.94-.61c-5.95.66-9.43,6.22-8.87,14.16l2.42,34.24h0l.05.68a1.38,1.38,0,0,0,0,.2c1.4,16.7,8.49,26.14,14.83,31.32.64,4.45,1.84,22.89-19.52,33.33l-2.77,1.3-4.14,1.85h0l-21.53,9.64,9.94,36.69,2.82-.66a14.44,14.44,0,0,0,11.19-15.29l-.51-6.36,9-1.55,1.65,4.07,2.05,0c33.34-.52,40.86-20,41.16-20.86a3,3,0,0,0-5.63-2.08c-.25.66-6.35,15.74-33.57,16.89l-7.31-18,.28-.13c19.86-9.71,23-25.86,23.11-34.72a23,23,0,0,0,4.39,1.77,2.88,2.88,0,0,0,.65.07,3,3,0,0,0,.64-5.93c-.19,0-18.86-5.35-20.78-32.57L299,200.47c-.05-.75-.4-7.34,3.54-7.78a1.91,1.91,0,0,1,1.52.5c1.38,1.16,2.44,3.86,2.65,6.73l1.46,20.71a3,3,0,1,0,6-.42L313,203.1h0L311,175.49c-.22-3.08.83-7.8,4.59-8.15a3.39,3.39,0,0,1,2.66.81c1.46,1.24,2.49,3.78,2.69,6.64a.07.07,0,0,1,0,.05l2.29,32.4a3,3,0,0,0,3,2.79h.21a3,3,0,0,0,2.78-3.21l-3-41.89c-.27-3.8,2-7.92,4.58-8.15a3.35,3.35,0,0,1,2.64.83c1.46,1.24,2.53,3.84,2.72,6.62l3,41.89a3,3,0,0,0,6-.42l-2-27.88v-.11c-.21-3,.83-7.88,4.53-8.15a3.71,3.71,0,0,1,2.84.88c1.41,1.23,2.37,3.68,2.58,6.57l3.55,50.29a1.35,1.35,0,0,0,.06.35,1.25,1.25,0,0,0,0,.19,3,3,0,0,0,1.32,1.8l.2.1a1.82,1.82,0,0,0,.61.24l.23.06c.1,0,.21,0,.31,0l.23,0h.21a2.34,2.34,0,0,0,.26,0l.3,0,.27-.1.28-.11.24-.14.25-.16c.08-.06.14-.13.21-.19s.15-.13.21-.2a1.63,1.63,0,0,0,.17-.22,2.2,2.2,0,0,0,.17-.25,2,2,0,0,0,.13-.25c0-.09.09-.18.12-.27s.05-.19.08-.29a2.3,2.3,0,0,0,.06-.28,1.67,1.67,0,0,0,0-.32c0-.08,0-.16,0-.24-.06-1.38-.29-4.41-.46-6.63l-.15-2c-.42-5.93.52-10.59,2.72-13.49,1.07-1.41,5.83-6.11,9.54-3.32,1.65,1.24,1.42,3.92-.61,7.17-4.11,6.58-2.74,13.89-1.84,18.66,2.47,14.92-2.42,24-7,28.93-5.74,6.28-13.34,8.7-18.32,8.34a3,3,0,1,0-.45,6q.75.06,1.53.06a28,28,0,0,0,13.63-3.92l13.5,32.56c-.58,1.28-2.55,4.37-8.32,5.54a3,3,0,0,0,.59,5.94,3,3,0,0,0,.59-.06,18.5,18.5,0,0,0,9.82-5l2.75,6.64-17,9.48L333,282.28a3,3,0,0,0-4.78,3.64l33.38,43.75h0l2.23,2.92h0l13.41,17.59,32.91-18.36Zm-123.3-7.35-.92-11.66,3.25-1.45,4.81,11.88Zm81.58,4.88,10.79-6,2.68,6.55-10.48,3.39Z"/><path d="M348.83,229.14c1.79-.48,2.86-3,2.38-5.73s-2.32-4.47-4.11-4-2.86,3.06-2.38,5.74S347,229.63,348.83,229.14Z"/><path d="M337.5,515.24H330v-24h-6v30h13.5a3,3,0,0,0,0-6Z"/><path d="M267,496.11a8.26,8.26,0,0,1-6.26-13.62,3,3,0,0,1,4.56,3.9,2.23,2.23,0,0,0-.53,1.64,2.2,2.2,0,0,0,.78,1.54,2.25,2.25,0,0,0,3.17-.25l1.22-1.42a2.26,2.26,0,0,0-.25-3.18,8.25,8.25,0,0,1-.9-11.63l1.22-1.42a8.25,8.25,0,0,1,11.63-.9,8.26,8.26,0,0,1,.91,11.63,3,3,0,0,1-4.56-3.9,2.26,2.26,0,0,0-.25-3.18,2.26,2.26,0,0,0-3.17.25L273.31,477a2.23,2.23,0,0,0-.53,1.64,2.2,2.2,0,0,0,.78,1.54,8.25,8.25,0,0,1,.9,11.63l-1.22,1.42a8.16,8.16,0,0,1-5.63,2.86Z"/><path d="M410.33,491.06l-15.86-22.31-4.89,3.48L394.15,489l-14.35-9.82-4.89,3.47L390.77,505a3,3,0,0,0,2.45,1.26,3,3,0,0,0,1.74-.55,3,3,0,0,0,.7-4.18l-5.78-8.14,7.13,4.88,4.92-3.5-2.27-8.33,5.78,8.13a3,3,0,1,0,4.89-3.48Z"/><path d="M374.82,511.36,361.1,487.5l-6.49,1.75.12,27.52a3,3,0,0,0,3,3h0a3,3,0,0,0,3-3V514l7.53-2,1.36,2.37a3,3,0,0,0,5.21-3Zm-14.13-3.55,0-9,4.51,7.83Z"/><path d="M302.1,484.2l-16.3,22.18a3,3,0,0,0,4.83,3.55l1.62-2.2,7.26,2.86-.32,2.71a3,3,0,0,0,2.64,3.33l.35,0a3,3,0,0,0,3-2.65l3.2-27.34Zm-1.87,20.22-4.3-1.69,5.35-7.28Z"/><path d="M432,407.17v22.5a4.5,4.5,0,1,1-9,0v-49.5H405v49.5a22.5,22.5,0,1,0,45,0v-22.5Z"/><path d="M381,429.67a4.5,4.5,0,1,1-9,0v-22.5H354v22.5a4.5,4.5,0,1,1-9,0v-22.5H327v10.92a25.43,25.43,0,0,0-3.11-6L314,397.91l8.81-12.6L308.06,375,303,382.22l-8.7-12.43-14.75,10.32L292,397.91l-9.9,14.14a25.43,25.43,0,0,0-4.07,9.46A24,24,0,1,0,233.11,438,24,24,0,0,0,222,458.17v6h18v-6a6,6,0,0,1,6-6h9a24,24,0,0,0,23.42-18.81,25.47,25.47,0,0,0,49,.61A22.45,22.45,0,0,0,363,447.63a22.46,22.46,0,0,0,36-18v-22.5H381Zm-126,4.5a6,6,0,1,1,6-6A6,6,0,0,1,255,434.17Zm48,0a7.59,7.59,0,0,1-7.5-7.5,7.46,7.46,0,0,1,1.36-4.3L303,413.6l6.14,8.77a7.46,7.46,0,0,1,1.36,4.3A7.59,7.59,0,0,1,303,434.17Z"/><path d="M427.5,458.24a6,6,0,1,0,6,6A6,6,0,0,0,427.5,458.24Z"/></g></svg>