<svg xmlns="http://www.w3.org/2000/svg" viewBox="0 0 152 213.71"><g id="Isolation_Mode" data-name="Isolation Mode"><path d="M68.79,77.91a1.5,1.5,0,0,0,.27,3,1.23,1.23,0,0,0,.27,0,5.22,5.22,0,0,0,4.24-5.25,1.5,1.5,0,1,0-3,0A2.2,2.2,0,0,1,68.79,77.91Z"/><path d="M70.36,34.33c-.89.24-1.42,1.53-1.19,2.87s1.16,2.23,2.06,2,1.43-1.52,1.19-2.87S71.26,34.09,70.36,34.33Z"/><path d="M72.83,46.63A1.51,1.51,0,0,0,74.33,48h.15l5.4-.53L78,39a1.5,1.5,0,1,0-2.92.66l1.15,5.16-2,.21A1.5,1.5,0,0,0,72.83,46.63Z"/><path d="M71.69,52.16a1.5,1.5,0,0,0,.53,2.05,8.74,8.74,0,0,0,12-3.1,1.5,1.5,0,0,0-2.58-1.52,5.76,5.76,0,0,1-7.87,2A1.5,1.5,0,0,0,71.69,52.16Z"/><path d="M96.5,99.71,113,90.53l-.77-1.32a6.74,6.74,0,0,0-7.86-3l-3.4,1.1-1.57-3.82,2.42-1.35L91,56.23a18.51,18.51,0,0,0,1.51-1.43c2.71-3,5.65-8.33,4.21-17-.5-2.69-.81-5.1.52-7.22,2.27-3.63,1.26-6.29-.44-7.57-3.13-2.36-6.73-.31-8.57,1.77l-.84-11.86a7.79,7.79,0,0,0-2.31-5.34A4.86,4.86,0,0,0,81.5,6.41,4.79,4.79,0,0,0,79,7.3L79,6.52a7.86,7.86,0,0,0-2.41-5.38A4.7,4.7,0,0,0,73,0c-2.75.25-4.6,3-5,5.8a4.71,4.71,0,0,0-2.68-.52c-3.6.34-5.24,3.92-5,7.27l.4,5.72a3.78,3.78,0,0,0-2-.31c-3,.34-4.71,3.11-4.43,7.08L55.6,42.53v0C56.3,51,59.85,55.7,63,58.29c.32,2.23.92,11.45-9.76,16.66l-1.4.66-4.36,2-8.46,3.79,5,18.34,1.41-.32A7.22,7.22,0,0,0,51,91.72l-.25-3.18,4.48-.77.82,2,1,0c16.67-.26,20.43-10,20.58-10.43a1.5,1.5,0,0,0-2.81-1c-.13.33-3.18,7.87-16.79,8.44l-1.3-3.21-2.36-5.81.15-.07c9.92-4.85,11.5-12.92,11.55-17.35a12.18,12.18,0,0,0,2.2.88,1.65,1.65,0,0,0,.32,0,1.5,1.5,0,0,0,.32-3c-.1,0-9.43-2.67-10.39-16.29h0L57.36,24.85c0-.37-.2-3.67,1.77-3.89a.93.93,0,0,1,.76.26,5.1,5.1,0,0,1,1.32,3.36l0,.69L62,34.94a1.5,1.5,0,1,0,3-.22l-.61-8.55h0l-.07-1.11-.05-.69h0l-.85-12c-.11-1.54.41-3.89,2.3-4.07a1.69,1.69,0,0,1,1.32.4A4.89,4.89,0,0,1,68.33,12v0l1.14,16.21A1.5,1.5,0,0,0,71,29.63h.11A1.49,1.49,0,0,0,72.47,28L71,7.08c-.13-1.9,1-3.95,2.3-4.07a1.65,1.65,0,0,1,1.31.41A5,5,0,0,1,76,6.73l1.48,21a1.5,1.5,0,1,0,3-.21l-1-13.94s0,0,0-.06c-.11-1.5.41-3.94,2.26-4.07a1.83,1.83,0,0,1,1.42.44,4.85,4.85,0,0,1,1.29,3.28L85.9,34h0v0l.29,4.23v0a1.49,1.49,0,0,0,.14.51l0,0a1.33,1.33,0,0,0,.29.38l0,.05a1.55,1.55,0,0,0,.41.25l0,0a1.71,1.71,0,0,0,.5.1h.15l.11,0,.17,0,.12,0,.15-.06.12-.07.13-.08.1-.09.11-.11a1,1,0,0,0,.08-.11l.09-.12.06-.12.06-.14a.74.74,0,0,0,0-.14l0-.15a.61.61,0,0,0,0-.14s0-.09,0-.14c0-.68-.15-2.24-.23-3.35l-.07-.94h0c-.21-3,.26-5.3,1.36-6.75.53-.7,2.91-3.06,4.77-1.66.82.62.71,2-.31,3.59-2.06,3.29-1.37,6.94-.92,9.33,1.24,7.46-1.21,12-3.48,14.46-2.87,3.14-6.67,4.37-9.16,4.17a1.5,1.5,0,1,0-.22,3l.76,0a14,14,0,0,0,6.81-2l6.76,16.28c-.29.64-1.28,2.19-4.17,2.77a1.5,1.5,0,0,0,.3,3,1.53,1.53,0,0,0,.3,0,9.18,9.18,0,0,0,4.9-2.48L98,80.82l-8.5,4.75L74.37,65.76A1.5,1.5,0,1,0,72,67.58L88.67,89.45h0l2,2.57Zm-46-14.18-.46-5.82L51.69,79l.27.65,2.14,5.29ZM96.72,85l1.33,3.27-5.23,1.69-1.5-2Z"/><path d="M82.28,39.19c.89-.24,1.42-1.52,1.18-2.87s-1.15-2.23-2-2S80,35.86,80.22,37.2,81.38,39.43,82.28,39.19Z"/><path d="M77,209.71H72v-16H68v20h9a2,2,0,1,0,0-4Z"/><path d="M30,197a5.5,5.5,0,0,1-4.17-9.07,2,2,0,1,1,3,2.6,1.5,1.5,0,0,0,.17,2.11,1.52,1.52,0,0,0,1.09.36,1.49,1.49,0,0,0,1-.52l.81-1a1.5,1.5,0,0,0-.16-2.12,5.48,5.48,0,0,1-.6-7.75l.81-1a5.52,5.52,0,0,1,7.76-.6,5.51,5.51,0,0,1,.6,7.75,2,2,0,0,1-3-2.6,1.49,1.49,0,0,0,.36-1.09,1.54,1.54,0,0,0-.52-1,1.5,1.5,0,0,0-2.12.16l-.81,1a1.49,1.49,0,0,0-.36,1.09,1.47,1.47,0,0,0,.52,1,5.5,5.5,0,0,1,.6,7.76l-.81.95a5.49,5.49,0,0,1-3.75,1.91Z"/><path d="M125.56,193.59,115,178.72,111.72,181l3,11.19-9.57-6.55L101.94,188l10.58,14.87a2,2,0,0,0,3.26-2.32l-3.86-5.42,4.75,3.25L120,196l-1.51-5.55,3.86,5.42a2,2,0,0,0,3.26-2.32Z"/><path d="M101.88,207.12l-9.15-15.9-4.32,1.16.08,18.35a2,2,0,0,0,2,2h0a2,2,0,0,0,2-2v-1.82l5-1.35.91,1.58a2,2,0,0,0,3.47-2Zm-9.42-2.37,0-6,3,5.22Z"/><path d="M53.4,189,42.53,203.8a2,2,0,0,0,3.23,2.37l1.08-1.47,4.83,1.91-.21,1.81a2,2,0,0,0,1.76,2.21l.23,0a2,2,0,0,0,2-1.77l2.12-18.22ZM52.15,202.5l-2.86-1.13,3.56-4.86Z"/><path d="M140,137.66v15a3,3,0,0,1-6,0v-33H122v33a15,15,0,0,0,30,0v-15Z"/><path d="M106,152.66a3,3,0,0,1-6,0v-15H88v15a3,3,0,0,1-6,0v-15H70v7.28a17.28,17.28,0,0,0-2.07-4l-6.6-9.42,5.87-8.4-9.83-6.88L54,121l-5.8-8.29-9.83,6.88,8.31,11.87-6.61,9.42a16.92,16.92,0,0,0-2.71,6.31A16,16,0,0,0,6,151.66a15.84,15.84,0,0,0,1.41,6.53A16,16,0,0,0,0,171.66v4H12v-4a4,4,0,0,1,4-4h6a16,16,0,0,0,15.61-12.54,17,17,0,0,0,32.67.41A15,15,0,0,0,85,167.66a14.85,14.85,0,0,0,9-3,14.85,14.85,0,0,0,9,3,15,15,0,0,0,15-15v-15H106Zm-84,3a4,4,0,1,1,4-4A4,4,0,0,1,22,155.66Zm32,0a5.07,5.07,0,0,1-5-5,5,5,0,0,1,.9-2.86L54,142l4.1,5.85a5,5,0,0,1,.9,2.86A5.07,5.07,0,0,1,54,155.66Z"/><path d="M137,171.71a4,4,0,1,0,4,4A4,4,0,0,0,137,171.71Z"/></g></svg>