<svg xmlns="http://www.w3.org/2000/svg" viewBox="0 0 1080 672"><g id="Layer_1" data-name="Layer 1"><rect x="537.37" y="247.81" width="5.41" height="190.69"/><path d="M747.62,316.62c.07-2.63,0-5.26,0-7.88.06-3.41,0-6.84.35-10.22.58-5,3.82-7.4,8.84-7.11,4.11.23,6.31,2.86,6.53,7.81,0,.5,0,1,0,1.51v25.34h5.78c6.35,0,10.38-4,10.41-10.35,0-6,0-12,0-18a36.61,36.61,0,0,0-.46-6c-1.15-6.53-4.52-11.32-11.29-12.85a30.52,30.52,0,0,0-7.65-.5,14.33,14.33,0,0,0-10.91,5.43l-1.68,2v-6H731.51v46.18c2.32,0,4.49.05,6.66,0A9.64,9.64,0,0,0,747.62,316.62Z"/><path d="M720.35,378.38a7.71,7.71,0,0,1-.92-.35c5.86-5.42,7.3-8.64,7-15.52-.39-8.33-4.6-13.7-12.3-15.45a30.7,30.7,0,0,0-6.48-.71c-8.12-.08-16.23,0-24.34,0-.54,0-1.09.05-1.72.08v68h1.89c6.26,0,12.53,0,18.79,0,4.19,0,8.41,0,12.57-.39,10.39-1,17-7.41,17.83-17.44C733.44,387.43,729.87,380.63,720.35,378.38ZM699,366.53v-6.21c2.48,0,4,.05,6.13.05,3.07,0,5.21,2.81,5.23,6s-1.37,5.94-4.39,6.63c-2.19.5-4.58.21-7,.21Zm15.8,29.07a5.33,5.33,0,0,1-4.29,4c-3.71.62-7.47.23-11.39.23v-13c3.63,0,7.24.14,10.48.14C714.11,387,716,391.41,714.76,395.6Z"/><path d="M778.23,370.34c-9.58-5.39-19.62-5.56-29.44-.71-15.89,7.86-16.45,26.37-8.27,36.68,5.63,7.08,13.3,9.65,22,9.77a31.27,31.27,0,0,0,12.61-2.39c8.87-3.82,14.15-10.5,15-20.15C791,383.45,787.17,375.37,778.23,370.34Zm-15.41,31.35A10.53,10.53,0,0,1,752.4,391a10.67,10.67,0,0,1,10.47-10.5,10.51,10.51,0,0,1,10.35,10.56A10.38,10.38,0,0,1,762.82,401.69Z"/><path d="M790.43,321.47c6,5.59,13.05,7.3,21,5.27a16.63,16.63,0,0,0,8.41-5.45v4.78h5.75c6.32,0,10.36-4.08,10.36-10.42q0-17,0-34.07v-1.75H819.82V284a4.25,4.25,0,0,1-.7-.4c-6.46-6.79-19.06-7.1-27.1-.77C780.31,292,779.47,311.18,790.43,321.47Zm19.56-29c6,.05,10.23,4.34,10.21,10.48s-4.12,10.29-10.32,10.29-10.47-4.19-10.43-10.4A10,10,0,0,1,810,292.52Z"/><path d="M708.26,310.45a10.12,10.12,0,0,1-4.59,2.14c-4.65.86-8.83-.72-12.7-3.18-1.63-1-3.15-2.27-4.83-3.48L678.8,320c7.52,6.13,20.5,9.21,30.09,7.23,5.78-1.2,11-3.53,14.78-8.22,3.24-4,4.26-8.75,4.63-13.75.64-8.79-2.69-14.79-10.7-18.45-3.08-1.41-6.44-2.22-9.62-3.42a29.79,29.79,0,0,1-6.2-2.83c-3.15-2.13-2.9-6,.32-8a6.2,6.2,0,0,1,2.92-1.16,40.11,40.11,0,0,1,7.1.49c3.57.6,6.86.09,9.19-2.71,1.77-2.14,3-4.77,4.38-7.16-6.06-3.85-17.22-6.43-23.84-5.68a23,23,0,0,0-12.46,4.89c-6.77,5.6-8.62,13-7.78,21.41.62,6.28,4,10.55,9.84,12.84,2.95,1.17,6,2,9,3.1a38.53,38.53,0,0,1,7.3,3.22A5.37,5.37,0,0,1,708.26,310.45Z"/><path d="M837.46,378.73,847,368.06c-7,0-13.65,0-20.24,0a2.58,2.58,0,0,0-1.61.93c-2.41,2.79-4.76,5.63-7.23,8.58-2.4-2.9-4.68-5.72-7-8.48a2.74,2.74,0,0,0-1.73-1c-6.54-.07-13.09-.05-20.13-.05l18.49,21.22-22.64,25a5.32,5.32,0,0,0,.73.15c6.49,0,13,0,19.47,0a2.8,2.8,0,0,0,1.78-.93c3.24-3.71,6.42-7.47,9.62-11.21.42-.49.87-1,1.37-1.51,3.69,4.34,7.21,8.54,10.81,12.67a3.08,3.08,0,0,0,2.08,1c6.21.08,12.42.05,18.63,0a14,14,0,0,0,1.41-.15l-22.77-25Z"/><path d="M985.19,258.05c-5,0-10,0-14.94,0-1.12,0-1.21.68-1.41,1.46q-5.16,20.31-10.34,40.6c-.13.51-.19,1-.31,1.69,3,0,5.88,0,8.73,0,5.19-.09,8.74-2.91,10-8q2.88-11.28,5.73-22.58c1.09-4.31,2.19-8.62,3.31-13A4.79,4.79,0,0,0,985.19,258.05Z"/><path d="M923,278.75a16.77,16.77,0,0,0-9.67,5.8v-4.76H897.25v65.77h5.82c6.2,0,10.31-4.09,10.35-10.27,0-3.92,0-7.83,0-11.75,0-.46.07-.91.12-1.53,8.33,8.36,24.52,7.48,32.43-4.12,6.53-9.57,5.89-23.29-1.77-32C938.57,279.53,931.4,277.17,923,278.75Zm.12,34.54c-6.15,0-10.35-4.26-10.33-10.36a10.06,10.06,0,0,1,10.53-10.41c6.12,0,10.34,4.39,10.29,10.61S929.38,313.34,923.16,313.29Z"/><path d="M883.56,282.06c-7.72-5.56-20.32-5.34-26,2.39,0,.05-.2,0-.48,0v-4.64H841v65.75h5.81c6.15,0,10.21-4,10.27-10.16,0-4,0-7.94,0-11.91,0-.47.06-.93.11-1.52,8,7.78,20.14,6.55,26.9,1.58a23.39,23.39,0,0,0,9.68-16.62C895,296.81,892.08,288.19,883.56,282.06ZM866.91,313.3c-6.19,0-10.29-4.15-10.28-10.34s4.27-10.47,10.43-10.45,10.28,4.3,10.29,10.42S873.2,313.32,866.91,313.3Z"/><path d="M963.65,306.68c-6.09,0-10.41,4.38-10.42,10.54s4.1,10.28,10.33,10.33S974,323.5,974,317.22,969.76,306.67,963.65,306.68Z"/><path d="M249.51,430.38H239.37V397.94h-8.11v40.55h18.25a4.06,4.06,0,0,0,0-8.11Z"/><path d="M154.15,404.52a11.15,11.15,0,0,1-8.45-18.4,4.05,4.05,0,1,1,6.16,5.27,3.05,3.05,0,0,0,.33,4.29,3.07,3.07,0,0,0,2.22.72,3,3,0,0,0,2.07-1l1.65-1.93a3.05,3.05,0,0,0-.33-4.29,11.14,11.14,0,0,1-1.22-15.72l1.65-1.92A11.15,11.15,0,0,1,174,370.27,11.14,11.14,0,0,1,175.17,386a4.06,4.06,0,0,1-6.16-5.28,3,3,0,0,0-.33-4.28,3,3,0,0,0-4.29.33l-1.65,1.92a3,3,0,0,0-.72,2.22,3,3,0,0,0,1,2.07,11.15,11.15,0,0,1,1.22,15.73l-1.65,1.92a11,11,0,0,1-7.61,3.87C154.74,404.51,154.45,404.52,154.15,404.52Z"/><path d="M348,397.7l-21.44-30.15-6.61,4.69,6.17,22.69-19.4-13.28-6.6,4.7,21.44,30.16a4.06,4.06,0,1,0,6.61-4.71l-7.82-11,9.64,6.6,6.65-4.73-3.07-11.26,7.82,11a4.06,4.06,0,1,0,6.61-4.7Z"/><path d="M300,425.14l-18.54-32.25-8.77,2.36.16,37.21a4.05,4.05,0,0,0,4.06,4h0a4.05,4.05,0,0,0,4-4.07l0-3.69L291.08,426l1.84,3.21a4.06,4.06,0,0,0,7-4.05Zm-19.09-4.8-.06-12.22,6.1,10.59Z"/><path d="M201.65,388.43l-22,30a4.06,4.06,0,1,0,6.54,4.8l2.19-3,9.81,3.87-.43,3.66a4.05,4.05,0,0,0,3.56,4.5,3.71,3.71,0,0,0,.47,0,4.05,4.05,0,0,0,4-3.58l4.32-37Zm-2.52,27.33-5.81-2.29,7.23-9.84Z"/><path d="M377.25,284.3v30.42a6.09,6.09,0,0,1-12.17,0V247.81H340.75v66.91a30.42,30.42,0,0,0,60.83,0V284.3Z"/><path d="M308.31,314.72a6.08,6.08,0,1,1-12.16,0V284.3H271.81v30.42a6.08,6.08,0,1,1-12.16,0V284.3H235.32v14.77a34.28,34.28,0,0,0-4.21-8.18l-13.38-19.11,11.92-17-19.94-14-6.83,9.77-11.77-16.8-19.93,14,16.84,24-13.38,19.11a34.34,34.34,0,0,0-5.5,12.8,32.43,32.43,0,0,0-63.59,9,32.11,32.11,0,0,0,2.85,13.23,32.43,32.43,0,0,0-15,27.32v8.11h24.33v-8.11a8.12,8.12,0,0,1,8.11-8.11H138a32.48,32.48,0,0,0,31.66-25.43,34.44,34.44,0,0,0,66.24.83A30.34,30.34,0,0,0,284,339a30.36,30.36,0,0,0,48.66-24.27V284.3H308.31ZM138,320.8a8.11,8.11,0,1,1,8.11-8.11A8.12,8.12,0,0,1,138,320.8Zm64.89,0a10.27,10.27,0,0,1-10.14-10.14,10.06,10.06,0,0,1,1.83-5.81L202.88,293l8.3,11.86a10.06,10.06,0,0,1,1.83,5.81A10.27,10.27,0,0,1,202.88,320.8Z"/><path d="M371.17,353.33a8.11,8.11,0,1,0,8.11,8.11A8.11,8.11,0,0,0,371.17,353.33Z"/></g></svg>