<svg xmlns="http://www.w3.org/2000/svg" viewBox="0 0 1080 672"><defs><style>.cls-1{fill:#ef5330;}.cls-2{fill:#fff;}.cls-3{fill:#ff7761;}</style></defs><g id="Layer_3" data-name="Layer 3"><rect class="cls-1" width="1080" height="672"/></g><g id="Layer_1" data-name="Layer 1"><path class="cls-2" d="M667.67,266H636.33L603.46,390.16a14,14,0,0,0,27.08,7.17L633.8,385h36.4l3.26,12.33a14,14,0,0,0,27.08-7.17Zm-26.46,91L652,316.21,662.79,357Z"/><path class="cls-2" d="M394.67,266H363.33L330.46,390.16a14,14,0,0,0,27.08,7.17L360.8,385h36.4l3.26,12.33a14,14,0,0,0,27.08-7.17Zm-26.46,91L379,316.21,389.79,357Z"/><path class="cls-2" d="M841,266l-28,76.18L785,266H757V393.75a14,14,0,0,0,28,0V347.16L798.92,385h28.16L841,347.16v46.59a14,14,0,0,0,28,0V266Z"/><path class="cls-2" d="M249.5,292.25a10.51,10.51,0,0,1,10.5,10.5,14,14,0,0,0,28,0,38.5,38.5,0,1,0-77,0v8.75a38.57,38.57,0,0,0,30.75,37.71,38.16,38.16,0,0,0,7.75.79A10.51,10.51,0,0,1,260,360.5v8.75a10.5,10.5,0,0,1-21,0,14,14,0,0,0-28,0A38.57,38.57,0,0,0,241.75,407a38.41,38.41,0,0,0,15.5,0A38.57,38.57,0,0,0,288,369.25V360.5A38.46,38.46,0,0,0,249.5,322,10.51,10.51,0,0,1,239,311.5v-8.75A10.51,10.51,0,0,1,249.5,292.25Z"/><path class="cls-2" d="M547,378H512V266H484V406h63a14,14,0,0,0,0-28Z"/><path class="cls-3" d="M344.48,393.57l-1-.25,1.53-5.8,1,.25Zm2.82-10.63-1-.26,1.54-5.8,1,.26Zm2.81-10.63-1-.26,1.53-5.8,1,.26Zm2.82-10.64-1-.25,1.53-5.8,1,.25ZM355.74,351l-1-.26,1.54-5.8,1,.26Zm2.81-10.64-1-.25,1.53-5.8,1,.25Zm2.82-10.63-1-.25,1.54-5.81,1,.26Zm2.81-10.63-1-.26,1.53-5.8,1,.26ZM367,308.5l-1-.25,1.54-5.8,1,.25Zm2.81-10.63-1-.26,1.54-5.8,1,.26Zm2.82-10.63-1-.26,1.53-5.8,1,.25Zm2.81-10.64-1-.25,1.54-5.8,1,.25ZM378.25,266l-1-.26,1.23-4.65,1,.26Z"/><path class="cls-3" d="M270.77,672.13l-1-.26,1.53-5.8,1,.26Zm2.81-10.64-1-.25,1.54-5.8,1,.25Zm2.81-10.63-1-.26,1.53-5.8,1,.26Zm2.82-10.63-1-.26,1.54-5.8,1,.26ZM282,629.59l-1-.25,1.53-5.8,1,.25ZM284.84,619l-1-.26,1.54-5.8,1,.26Zm2.81-10.64-1-.25,1.54-5.8,1,.25Zm2.82-10.63-1-.26,1.53-5.8,1,.26Zm2.81-10.63-1-.26,1.54-5.8,1,.26Zm2.81-10.64-1-.25,1.53-5.8,1,.25Zm2.82-10.63-1-.26,1.54-5.8,1,.26Zm2.81-10.64-1-.25,1.53-5.8,1,.25Zm2.82-10.63-1-.25,1.53-5.81,1,.26Zm2.81-10.63-1-.26,1.54-5.8,1,.26Zm2.82-10.64-1-.25,1.53-5.8,1,.25ZM313,512.62l-1-.26,1.54-5.8,1,.26ZM315.79,502l-1-.26,1.53-5.8,1,.25Zm2.82-10.64-1-.25,1.54-5.81,1,.26Zm2.81-10.63-1-.26,1.53-5.8,1,.26Zm2.82-10.64-1-.25,1.53-5.8,1,.25Zm2.81-10.63-1-.26,1.54-5.8,1,.26Zm2.81-10.63-1-.26,1.53-5.8,1,.26Zm2.82-10.64-1-.25,1.54-5.8,1,.25Zm2.81-10.63-1-.26,1.53-5.8,1,.26Zm2.82-10.64-1-.25,1.54-5.8,1,.25Zm2.81-10.63-1-.26,1.54-5.8,1,.26Zm2.82-10.63-1-.26,1.53-5.8,1,.26ZM346.75,385l-1-.25,1.54-5.8,1,.25Zm2.81-10.63-1-.26,1.53-5.8,1,.26Zm2.82-10.64-1-.25,1.54-5.8,1,.25Zm2.81-10.63-1-.26,1.53-5.8,1,.26ZM358,342.48l-1-.26,1.53-5.8,1,.26Zm2.81-10.64-1-.25,1.54-5.8,1,.25Zm2.81-10.63-1-.26,1.53-5.8,1,.26Zm2.82-10.64-1-.25,1.54-5.8,1,.25Zm2.81-10.63-1-.26,1.53-5.8,1,.26Zm2.82-10.63-1-.26,1.54-5.8,1,.26Zm2.81-10.64-1-.25,1.54-5.8,1,.25ZM377.71,268l-1-.26,1.53-5.8,1,.26Zm2.81-10.64-1-.25,1.54-5.8,1,.25Zm2.81-10.63-1-.25,1.53-5.81,1,.26Zm2.82-10.63-1-.26,1.54-5.8,1,.26ZM389,225.5l-1-.25,1.53-5.8,1,.25Zm2.82-10.63-1-.26,1.53-5.8,1,.26Zm2.81-10.63-1-.26,1.54-5.8,1,.26Zm2.81-10.64-1-.25,1.53-5.8,1,.25ZM400.22,183l-1-.26,1.54-5.8,1,.26ZM403,172.33l-1-.25,1.53-5.8,1,.25Zm2.82-10.63-1-.26,1.54-5.8,1,.26Zm2.81-10.63-1-.26,1.54-5.8,1,.26Zm2.82-10.64-1-.25,1.53-5.8,1,.25Zm2.81-10.63-1-.26,1.54-5.8,1,.26Zm2.81-10.64-1-.25,1.53-5.8,1,.25Zm2.82-10.63-1-.26,1.54-5.8,1,.26Zm2.81-10.63-1-.26,1.53-5.8,1,.26Zm2.82-10.64-1-.25,1.53-5.8,1,.25Zm2.81-10.63-1-.26,1.54-5.8,1,.26ZM431.18,66l-1-.25,1.53-5.8,1,.25ZM434,55.36l-1-.25,1.54-5.81,1,.26Zm2.81-10.63-1-.26,1.53-5.8,1,.26Zm2.82-10.64-1-.25,1.54-5.8,1,.25Zm2.81-10.63-1-.26L443,17.4l1,.26Zm2.82-10.63-1-.26,1.53-5.8,1,.26Zm2.81-10.64-1-.25.55-2.07,1,.26Z"/><path class="cls-3" d="M487.23,672.13l-.54-2.07,1-.25.55,2.06Zm-1.82-6.9-1.54-5.8,1-.26,1.54,5.8Zm-2.82-10.63-1.53-5.8,1-.26,1.53,5.8ZM479.78,644l-1.53-5.8,1-.25,1.54,5.8ZM477,633.33l-1.54-5.8,1-.26,1.53,5.8Zm-2.82-10.63-1.53-5.81,1-.25,1.54,5.8Zm-2.81-10.64-1.54-5.8,1-.25,1.53,5.8Zm-2.82-10.63-1.53-5.8,1-.26,1.53,5.8Zm-2.81-10.64-1.54-5.8,1-.25,1.54,5.8Zm-2.81-10.63-1.54-5.8,1-.26,1.53,5.8Zm-2.82-10.63-1.53-5.8,1-.26,1.54,5.8Zm-2.81-10.64-1.54-5.8,1-.25,1.53,5.8Zm-2.82-10.63-1.53-5.8,1-.26,1.54,5.8Zm-2.81-10.64-1.54-5.8,1-.25,1.53,5.8ZM448.82,527l-1.53-5.8,1-.26,1.53,5.8ZM446,516.36l-1.54-5.8,1-.26,1.54,5.8Zm-2.81-10.64-1.54-5.8,1-.25,1.53,5.8Zm-2.82-10.63-1.53-5.8,1-.26,1.54,5.8Zm-2.81-10.64-1.54-5.8,1-.25,1.53,5.8Zm-2.82-10.63-1.53-5.8,1-.26,1.54,5.8Zm-2.81-10.63-1.54-5.8,1-.26,1.54,5.8Zm-2.82-10.64-1.53-5.8,1-.25,1.53,5.8Zm-2.81-10.63-1.53-5.8,1-.26,1.54,5.8Zm-2.81-10.63L422,425.48l1-.25,1.53,5.8Zm-2.82-10.64-1.53-5.8,1-.25,1.54,5.8ZM417.87,410l-1.54-5.8,1-.26,1.53,5.8Zm-2.82-10.64-1.53-5.8,1-.25,1.53,5.8Zm-2.81-10.63L410.7,383l1-.26,1.54,5.8Zm-2.81-10.63-1.54-5.8,1-.26,1.53,5.8Zm-2.82-10.64-1.53-5.8,1-.25,1.54,5.8Zm-2.81-10.63-1.54-5.8,1-.26,1.53,5.8ZM401,346.21l-1.53-5.8,1-.25L402,346Zm-2.81-10.63-1.54-5.8,1-.26,1.54,5.8ZM395.35,325l-1.53-5.8,1-.26,1.53,5.8Zm-2.81-10.64-1.53-5.8,1-.25,1.54,5.8Zm-2.81-10.63-1.54-5.8,1-.26,1.53,5.8ZM386.91,293l-1.53-5.8,1-.25,1.54,5.8Zm-2.81-10.63-1.54-5.8,1-.26,1.53,5.8Zm-2.82-10.63-1.53-5.8,1-.26,1.53,5.8Zm-2.81-10.64-1.54-5.8,1-.25,1.54,5.8Zm-2.81-10.63-1.54-5.8,1-.26,1.53,5.8Zm-2.82-10.64-1.53-5.8,1-.25,1.54,5.8ZM370,229.24l-1.54-5.8,1-.26L371,229Zm-2.82-10.63-1.53-5.8,1-.26,1.54,5.8ZM364.4,208l-1.54-5.8,1-.25,1.54,5.8Zm-2.82-10.63-1.53-5.8,1-.26,1.53,5.8Zm-2.81-10.63-1.53-5.81,1-.25,1.54,5.8ZM356,176.07l-1.54-5.8,1-.26,1.53,5.81Zm-2.82-10.63-1.53-5.8,1-.26,1.54,5.8Zm-2.81-10.64-1.54-5.8,1-.25,1.53,5.8Zm-2.82-10.63-1.53-5.8,1-.26,1.53,5.8Zm-2.81-10.63-1.54-5.8,1-.26,1.54,5.8Zm-2.81-10.64-1.54-5.8,1-.25,1.53,5.8Zm-2.82-10.63-1.53-5.8,1-.26L340,112Zm-2.81-10.64-1.54-5.8,1-.25,1.53,5.8ZM333.44,91l-1.53-5.8,1-.26,1.54,5.8Zm-2.81-10.63-1.54-5.8,1-.26,1.53,5.8Zm-2.82-10.64-1.53-5.8,1-.25,1.53,5.8ZM325,59.1l-1.54-5.8,1-.26,1.54,5.8Zm-2.81-10.64-1.54-5.8,1-.25,1.53,5.8Zm-2.82-10.63L317.84,32l1-.26,1.54,5.8ZM316.56,27.2,315,21.4l1-.26,1.53,5.8Zm-2.82-10.64-1.53-5.8,1-.25,1.54,5.8ZM310.93,5.93,309.39.13l1-.26,1.54,5.8Z"/><rect class="cls-3" y="370.2" width="1079.01" height="1"/><path class="cls-3" d="M919.06,672.17l-.36-1,.94-.35.36,1ZM917,666.51l-2.07-5.63.93-.34,2.08,5.63Zm-3.8-10.32-2.07-5.63.94-.35,2.07,5.64Zm-3.8-10.32-2.07-5.63.94-.35,2.07,5.63Zm-3.8-10.33-2.07-5.63.94-.34,2.07,5.63Zm-3.79-10.32-2.08-5.63.94-.35,2.07,5.63ZM898,614.9l-2.07-5.63.93-.35,2.08,5.63Zm-3.8-10.33-2.07-5.63.94-.34,2.07,5.63Zm-3.8-10.32-2.07-5.63.94-.35,2.07,5.63Zm-3.8-10.32-2.07-5.64.94-.34,2.07,5.63ZM882.8,573.6,880.73,568l.93-.34,2.08,5.63ZM879,563.28l-2.07-5.63.94-.35,2.07,5.63ZM875.2,553l-2.07-5.63.94-.34,2.07,5.63Zm-3.8-10.32L869.33,537l.94-.35,2.07,5.64Zm-3.79-10.32-2.08-5.63.94-.35,2.07,5.63ZM863.81,522l-2.07-5.63.93-.34,2.08,5.63ZM860,511.66,857.94,506l.94-.35,2.07,5.63Zm-3.8-10.32-2.07-5.63.94-.35,2.07,5.63ZM852.41,491l-2.07-5.63.94-.34,2.07,5.63Zm-3.79-10.32-2.08-5.63.94-.35,2.08,5.63Zm-3.8-10.32-2.07-5.64.94-.34,2.07,5.63ZM841,460,839,454.41l.94-.34L842,459.7Zm-3.8-10.32-2.07-5.63.94-.35,2.07,5.63Zm-3.79-10.33-2.08-5.63.94-.34,2.07,5.63Zm-3.8-10.32-2.07-5.63.93-.34,2.08,5.63Zm-3.8-10.32-2.07-5.63.94-.35,2.07,5.63ZM822,408.42,820,402.79l.94-.34,2.07,5.63Zm-3.8-10.32-2.07-5.63.94-.35,2.07,5.64Zm-3.79-10.32-2.08-5.63.94-.35,2.08,5.63Zm-3.8-10.33-2.07-5.63.94-.34,2.07,5.63Zm-3.8-10.32-2.07-5.63.94-.35,2.07,5.63ZM803,356.81,801,351.18l.94-.35,2.07,5.63Zm-3.79-10.33-2.08-5.63.94-.34,2.07,5.63Zm-3.8-10.32-2.07-5.63.93-.35,2.08,5.63Zm-3.8-10.32-2.07-5.64.94-.34,2.07,5.63Zm-3.8-10.33-2.07-5.63.94-.34,2.07,5.63Zm-3.8-10.32L782,299.56l.94-.35,2.07,5.63Zm-3.79-10.33-2.08-5.63.94-.34,2.07,5.63Zm-3.8-10.32-2.07-5.63.94-.35,2.07,5.64Zm-3.8-10.32-2.07-5.63.94-.35,2.07,5.63Zm-3.8-10.33-2.07-5.63.94-.34,2.07,5.63Zm-3.8-10.32L763,247.94l.94-.35,2.07,5.63Zm-3.79-10.32-2.07-5.63.93-.35,2.08,5.63Zm-3.8-10.33-2.07-5.63.94-.34,2.07,5.63Zm-3.8-10.32L751.6,217l.94-.35,2.07,5.63Zm-3.8-10.32-2.07-5.64.94-.34,2.07,5.63ZM746.08,202,744,196.32l.94-.34,2.07,5.63Zm-3.8-10.32L740.21,186l.94-.35,2.07,5.63Zm-3.8-10.33-2.07-5.63.94-.34,2.07,5.63ZM734.68,171l-2.07-5.63.94-.35,2.07,5.64Zm-3.8-10.32L728.81,155l.94-.35,2.07,5.63Zm-3.79-10.33L725,144.7l.93-.34L728,150ZM723.29,140l-2.07-5.63.94-.35,2.07,5.64Zm-3.8-10.32-2.07-5.63.94-.35,2.07,5.63Zm-3.8-10.33-2.07-5.63.94-.34,2.07,5.63ZM711.9,109l-2.08-5.63.94-.35,2.07,5.63Zm-3.8-10.32L706,93.09l.93-.35L709,98.37Zm-3.8-10.33-2.07-5.63.94-.34,2.07,5.63Zm-3.8-10.32-2.07-5.63.94-.35,2.07,5.63Zm-3.8-10.32-2.07-5.64.94-.34,2.07,5.63Zm-3.79-10.33-2.08-5.63.94-.34,2.08,5.63Zm-3.8-10.32L687,41.47l.94-.35,2.07,5.63Zm-3.8-10.33-2.07-5.63.94-.34,2.07,5.63Zm-3.8-10.32-2.07-5.63.94-.35,2.07,5.64Zm-3.79-10.32-2.08-5.63.94-.35,2.07,5.63ZM673.92,5.8,671.85.17l.93-.34,2.08,5.63Z"/><path class="cls-3" d="M706.94,672.17l-.94-.34,2.07-5.63.94.34Zm3.8-10.32-.94-.35,2.07-5.63.94.35Zm3.8-10.32-.94-.35,2.07-5.63.94.34Zm3.79-10.33-.93-.34,2.07-5.63.94.34Zm3.8-10.32-.94-.35,2.08-5.63.93.35Zm3.8-10.33-.94-.34,2.07-5.63.94.34Zm3.8-10.32-.94-.34,2.07-5.64.94.35Zm3.8-10.32-.94-.35,2.07-5.63.94.35Zm3.79-10.33-.93-.34,2.07-5.63.94.34Zm3.8-10.32-.94-.35,2.07-5.63.94.35Zm3.8-10.32-.94-.35,2.07-5.63.94.35Zm3.8-10.33-.94-.34,2.07-5.63.94.34Zm3.8-10.32-.94-.35,2.07-5.63.94.35ZM756.31,538l-.94-.35,2.08-5.63.93.34Zm3.8-10.33-.94-.34,2.07-5.63.94.34Zm3.8-10.32L763,517l2.07-5.63.94.35Zm3.8-10.33-.94-.34,2.07-5.63.94.34Zm3.79-10.32-.93-.34,2.07-5.63.94.34Zm3.8-10.32-.94-.35,2.08-5.63.93.35ZM779.1,476l-.94-.34,2.07-5.63.94.34Zm3.8-10.32-.94-.34,2.07-5.64.94.35Zm3.8-10.32-.94-.35,2.07-5.63.94.35Zm3.79-10.33-.94-.34,2.08-5.63.93.34Zm3.8-10.32-.94-.35,2.07-5.63.94.35Zm3.8-10.32-.94-.35,2.07-5.63.94.35Zm3.8-10.33-.94-.34,2.07-5.63.94.34Zm3.79-10.32-.93-.35,2.07-5.63.94.35Zm3.8-10.32-.94-.35,2.08-5.63.93.34Zm3.8-10.33-.94-.34,2.07-5.63.94.34Zm3.8-10.32-.94-.35,2.07-5.63.94.35Zm3.8-10.33-.94-.34,2.07-5.63.94.34Zm3.79-10.32-.94-.34,2.08-5.64.93.35Zm3.8-10.32-.94-.35,2.07-5.63.94.35Zm3.8-10.33-.94-.34,2.07-5.63.94.34Zm3.8-10.32-.94-.35,2.07-5.63.94.35Zm3.79-10.32-.93-.35,2.07-5.63.94.35Zm3.8-10.33-.94-.34,2.08-5.63.93.34Zm3.8-10.32-.94-.35,2.07-5.63.94.35Zm3.8-10.32-.94-.35,2.07-5.63.94.34Zm3.8-10.33-.94-.34,2.07-5.63.94.34Zm3.79-10.32-.93-.35,2.07-5.63.93.35Zm3.8-10.33-.94-.34,2.07-5.63.94.34Zm3.8-10.32-.94-.34,2.07-5.63.94.34Zm3.8-10.32-.94-.35,2.07-5.63.94.35ZM874,217.93l-.93-.34,2.07-5.63.94.34Zm3.8-10.32-.94-.34,2.08-5.64.93.35Zm3.8-10.32-.94-.35,2.07-5.63.94.35Zm3.8-10.33-.94-.34,2.07-5.63.94.34Zm3.8-10.32-.94-.35,2.07-5.63.94.35ZM893,166.32l-.93-.35,2.07-5.63.93.35Zm3.8-10.33-.94-.34L898,150l.94.34Zm3.8-10.32-.94-.35,2.07-5.63.94.35Zm3.8-10.32-.94-.35,2.07-5.63.94.34Zm3.8-10.33-.94-.34,2.07-5.63.94.34ZM912,114.7l-.94-.35,2.08-5.63.93.35Zm3.8-10.33-.94-.34L917,98.4l.94.34Zm3.8-10.32-.94-.34,2.07-5.64.94.35Zm3.8-10.32-.94-.35,2.07-5.63.94.35Zm3.79-10.33-.93-.34,2.07-5.63.94.34ZM931,63.08l-.94-.35,2.07-5.63.94.35Zm3.8-10.32-.94-.35,2.07-5.63.94.35Zm3.8-10.33-.94-.34,2.07-5.63.94.34Zm3.8-10.32-.94-.35,2.07-5.63.94.35Zm3.79-10.32-.94-.35,2.08-5.63.93.34ZM950,11.46l-.94-.34,2.07-5.63.94.34Zm3.8-10.32-.94-.35.36-1,.93.34Z"/><path class="cls-3" d="M498.5,672h-1v-1h1Zm0-6h-1v-6h1Zm0-11h-1v-6h1Zm0-11h-1v-6h1Zm0-11h-1v-6h1Zm0-11h-1v-6h1Zm0-11h-1v-6h1Zm0-11h-1v-6h1Zm0-11h-1v-6h1Zm0-11h-1v-6h1Zm0-11h-1v-6h1Zm0-11h-1v-6h1Zm0-11h-1v-6h1Zm0-11h-1v-6h1Zm0-11h-1v-6h1Zm0-11h-1v-6h1Zm0-11h-1v-6h1Zm0-11h-1v-6h1Zm0-11h-1v-6h1Zm0-11h-1v-6h1Zm0-11h-1v-6h1Zm0-11h-1v-6h1Zm0-11h-1v-6h1Zm0-11h-1v-6h1Zm0-11h-1v-6h1Zm0-11h-1v-6h1Zm0-11h-1v-6h1Zm0-11h-1v-6h1Zm0-11h-1v-6h1Zm0-11h-1v-6h1Zm0-11h-1v-6h1Zm0-11h-1v-6h1Zm0-11h-1v-6h1Zm0-11h-1v-6h1Zm0-11h-1v-6h1Zm0-11h-1v-6h1Zm0-11h-1v-6h1Zm0-11h-1v-6h1Zm0-11h-1v-6h1Zm0-11h-1v-6h1Zm0-11h-1v-6h1Zm0-11h-1v-6h1Zm0-11h-1v-6h1Zm0-11h-1v-6h1Zm0-11h-1v-6h1Zm0-11h-1v-6h1Zm0-11h-1v-6h1Zm0-11h-1v-6h1Zm0-11h-1v-6h1Zm0-11h-1v-6h1Zm0-11h-1v-6h1Zm0-11h-1v-6h1Zm0-11h-1V99h1Zm0-11h-1V88h1Zm0-11h-1V77h1Zm0-11h-1V66h1Zm0-11h-1V55h1Zm0-11h-1V44h1Zm0-11h-1V33h1Zm0-11h-1V22h1Zm0-11h-1V11h1Zm0-11h-1V0h1Z"/><rect class="cls-3" x="-0.99" y="265.2" width="1080" height="1"/><rect class="cls-3" y="405.5" width="1080" height="1"/><path class="cls-3" d="M249.54,327.37H249l0-1a23.8,23.8,0,0,0,5.83-.58l.22,1A25.26,25.26,0,0,1,249.54,327.37Zm-5.62-.64a24.52,24.52,0,0,1-5.74-2.09l.45-.89a24.1,24.1,0,0,0,5.51,2Zm16-1.59-.41-.91a23.76,23.76,0,0,0,5-3.07l.62.79A25.47,25.47,0,0,1,259.87,325.14Zm-26-3.27a24.53,24.53,0,0,1-4.26-4.38l.79-.6a24.27,24.27,0,0,0,4.09,4.2Zm34.81-3.48-.77-.64a24.37,24.37,0,0,0,3.17-4.93l.91.44A25.68,25.68,0,0,1,268.72,318.39ZM227,313.14a24.63,24.63,0,0,1-1.93-5.79l1-.2a23.59,23.59,0,0,0,1.85,5.56Zm46.76-4.67-1-.24a24.21,24.21,0,0,0,.71-5.82h1A25.14,25.14,0,0,1,273.76,308.47Zm-48.18-6.18h-1a25.08,25.08,0,0,1,.77-6l1,.25A24,24,0,0,0,225.58,302.29Zm47.47-4.51a23.6,23.6,0,0,0-1.82-5.57l.9-.43a24.71,24.71,0,0,1,1.9,5.81ZM228,291.89l-.89-.44a24.85,24.85,0,0,1,3.33-5.12l.77.65A23.72,23.72,0,0,0,228,291.89ZM268.7,288a24.2,24.2,0,0,0-4.06-4.22l.63-.77a24.77,24.77,0,0,1,4.23,4.39Zm-34-4.44-.62-.79a25,25,0,0,1,5.22-3.16l.41.91A23.76,23.76,0,0,0,234.72,283.58Zm25.83-2.46a23.94,23.94,0,0,0-5.5-2l.23-1a24.82,24.82,0,0,1,5.73,2.12ZM244.37,279l-.21-1a24.75,24.75,0,0,1,6.07-.57l0,1A23.81,23.81,0,0,0,244.37,279Z"/><path class="cls-3" d="M249.54,394H249l0-1a24.3,24.3,0,0,0,5.83-.58l.22,1A25.26,25.26,0,0,1,249.54,394Zm-5.62-.64a25,25,0,0,1-5.74-2.09l.45-.89a24.1,24.1,0,0,0,5.51,2Zm16-1.6-.41-.91a24.13,24.13,0,0,0,5-3.06l.62.78A24.62,24.62,0,0,1,259.87,391.71Zm-26-3.26a24.87,24.87,0,0,1-4.26-4.38l.79-.61a24.33,24.33,0,0,0,4.09,4.21ZM268.72,385l-.77-.65a24,24,0,0,0,3.17-4.92l.91.43A25.47,25.47,0,0,1,268.72,385ZM227,379.72a24.63,24.63,0,0,1-1.93-5.79l1-.2a23.75,23.75,0,0,0,1.85,5.56ZM273.76,375l-1-.24a24.13,24.13,0,0,0,.71-5.81h1A25.05,25.05,0,0,1,273.76,375Zm-48.18-6.17h-1a25,25,0,0,1,.77-6.05l1,.24A24.18,24.18,0,0,0,225.58,368.87Zm47.47-4.52a23.67,23.67,0,0,0-1.82-5.56l.9-.43a24.79,24.79,0,0,1,1.9,5.8ZM228,358.47l-.89-.44a24.33,24.33,0,0,1,3.33-5.12l.77.64A24.06,24.06,0,0,0,228,358.47Zm40.7-3.87a23.85,23.85,0,0,0-4.06-4.22l.63-.78a25.17,25.17,0,0,1,4.23,4.4Zm-34-4.45-.62-.78a25.09,25.09,0,0,1,5.22-3.17l.41.92A24.14,24.14,0,0,0,234.72,350.15Zm25.83-2.45a23.94,23.94,0,0,0-5.5-2l.23-1a24.82,24.82,0,0,1,5.73,2.12Zm-16.18-2.12-.21-1a25.26,25.26,0,0,1,6.07-.58l0,1A24.31,24.31,0,0,0,244.37,345.58Z"/><path class="cls-3" d="M543.77,672.13l-1-.26,1.53-5.8,1,.26Zm2.81-10.64-1-.25,1.54-5.8,1,.25Zm2.81-10.63-1-.26,1.53-5.8,1,.26Zm2.82-10.63-1-.26,1.54-5.8,1,.26ZM555,629.59l-1-.25,1.53-5.8,1,.25ZM557.84,619l-1-.26,1.54-5.8,1,.26Zm2.81-10.64-1-.25,1.54-5.8,1,.25Zm2.82-10.63-1-.26,1.53-5.8,1,.26Zm2.81-10.63-1-.26,1.54-5.8,1,.26Zm2.81-10.64-1-.25,1.53-5.8,1,.25Zm2.82-10.63-1-.26,1.54-5.8,1,.26Zm2.81-10.64-1-.25,1.53-5.8,1,.25Zm2.82-10.63-1-.25,1.53-5.81,1,.26Zm2.81-10.63-1-.26,1.54-5.8,1,.26Zm2.81-10.64-1-.25,1.53-5.8,1,.25ZM586,512.62l-1-.26,1.54-5.8,1,.26ZM588.79,502l-1-.26,1.53-5.8,1,.25Zm2.82-10.64-1-.25,1.54-5.81,1,.26Zm2.81-10.63-1-.26,1.54-5.8,1,.26Zm2.82-10.64-1-.25,1.53-5.8,1,.25Zm2.81-10.63-1-.26,1.54-5.8,1,.26Zm2.81-10.63-1-.26,1.53-5.8,1,.26Zm2.82-10.64-1-.25,1.54-5.8,1,.25Zm2.81-10.63-1-.26,1.53-5.8,1,.26Zm2.82-10.64-1-.25,1.54-5.8,1,.25Zm2.81-10.63-1-.26,1.54-5.8,1,.26Zm2.82-10.63-1-.26,1.53-5.8,1,.26ZM619.75,385l-1-.25,1.54-5.8,1,.25Zm2.81-10.63-1-.26,1.53-5.8,1,.26Zm2.82-10.64-1-.25,1.54-5.8,1,.25Zm2.81-10.63-1-.26,1.53-5.8,1,.26ZM631,342.48l-1-.26,1.53-5.8,1,.26Zm2.81-10.64-1-.25,1.54-5.8,1,.25Zm2.81-10.63-1-.26,1.53-5.8,1,.26Zm2.82-10.64-1-.25,1.54-5.8,1,.25Zm2.81-10.63-1-.26,1.53-5.8,1,.26Zm2.82-10.63-1-.26,1.54-5.8,1,.26Zm2.81-10.64-1-.25,1.54-5.8,1,.25ZM650.71,268l-1-.26,1.53-5.8,1,.26Zm2.81-10.63-1-.26,1.54-5.8,1,.25Zm2.81-10.64-1-.25,1.53-5.81,1,.26Zm2.82-10.63-1-.26,1.54-5.8,1,.26ZM662,225.5l-1-.25,1.53-5.8,1,.25Zm2.82-10.63-1-.26,1.53-5.8,1,.26Zm2.81-10.63-1-.26,1.54-5.8,1,.26Zm2.81-10.64-1-.25,1.53-5.8,1,.25ZM673.22,183l-1-.26,1.54-5.8,1,.26ZM676,172.33l-1-.25,1.53-5.8,1,.25Zm2.82-10.63-1-.26,1.54-5.8,1,.26Zm2.81-10.63-1-.26,1.54-5.8,1,.26Zm2.82-10.64-1-.25,1.53-5.8,1,.25Zm2.81-10.63-1-.26,1.54-5.8,1,.26Zm2.81-10.64-1-.25,1.53-5.8,1,.25Zm2.82-10.63-1-.26,1.54-5.8,1,.26Zm2.81-10.63-1-.26,1.53-5.8,1,.26Zm2.82-10.64-1-.25,1.53-5.8,1,.25Zm2.81-10.63-1-.26,1.54-5.8,1,.26ZM704.17,66l-1-.25,1.53-5.8,1,.25ZM707,55.36l-1-.25,1.54-5.81,1,.26Zm2.81-10.63-1-.26,1.53-5.8,1,.26Zm2.82-10.64-1-.25,1.54-5.8,1,.25Zm2.81-10.63-1-.26L716,17.4l1,.26Zm2.82-10.63-1-.26,1.53-5.8,1,.26Zm2.81-10.64-1-.25.55-2.07,1,.26Z"/><path class="cls-3" d="M760.23,672.13l-.54-2.07,1-.25.55,2.06Zm-1.82-6.9-1.54-5.8,1-.26,1.54,5.8Zm-2.82-10.63-1.53-5.8,1-.26,1.53,5.8ZM752.78,644l-1.53-5.8,1-.25,1.54,5.8ZM750,633.33l-1.54-5.8,1-.26,1.53,5.8Zm-2.82-10.63-1.53-5.81,1-.25,1.54,5.8Zm-2.81-10.64-1.54-5.8,1-.25,1.53,5.8Zm-2.82-10.63-1.53-5.8,1-.26,1.53,5.8Zm-2.81-10.64-1.54-5.8,1-.25,1.54,5.8Zm-2.81-10.63-1.54-5.8,1-.26,1.53,5.8Zm-2.82-10.63-1.53-5.8,1-.26,1.54,5.8Zm-2.81-10.64-1.54-5.8,1-.25,1.53,5.8Zm-2.82-10.63-1.53-5.8,1-.26,1.54,5.8Zm-2.81-10.64-1.54-5.8,1-.25,1.54,5.8ZM721.82,527l-1.53-5.8,1-.26,1.53,5.8ZM719,516.36l-1.53-5.8,1-.26,1.54,5.8Zm-2.81-10.64-1.54-5.8,1-.25,1.53,5.8Zm-2.82-10.63-1.53-5.8,1-.26,1.54,5.8Zm-2.81-10.64-1.54-5.8,1-.25,1.53,5.8Zm-2.82-10.63-1.53-5.8,1-.26,1.53,5.8Zm-2.81-10.63-1.54-5.8,1-.26,1.54,5.8Zm-2.82-10.64-1.53-5.8,1-.25,1.53,5.8Zm-2.81-10.63-1.53-5.8,1-.26,1.54,5.8Zm-2.81-10.63L695,425.48l1-.25,1.53,5.8Zm-2.82-10.64-1.53-5.8,1-.26,1.54,5.81ZM690.87,410l-1.54-5.8,1-.26,1.53,5.8Zm-2.82-10.64-1.53-5.8,1-.25,1.53,5.8Zm-2.81-10.63-1.53-5.8,1-.26,1.54,5.8Zm-2.81-10.63-1.54-5.8,1-.26,1.53,5.8Zm-2.82-10.64-1.53-5.8,1-.25,1.54,5.8Zm-2.81-10.63-1.54-5.8,1-.26,1.53,5.8ZM674,346.21l-1.53-5.8,1-.25L675,346Zm-2.81-10.63-1.54-5.8,1-.26,1.54,5.8ZM668.35,325l-1.53-5.8,1-.26,1.53,5.8Zm-2.81-10.64-1.53-5.8,1-.25,1.54,5.8Zm-2.81-10.63-1.54-5.8,1-.26,1.53,5.8ZM659.91,293l-1.53-5.8,1-.25,1.54,5.8Zm-2.81-10.63-1.54-5.8,1-.26,1.53,5.8Zm-2.82-10.63-1.53-5.8,1-.26,1.53,5.8Zm-2.81-10.64-1.54-5.8,1-.25,1.54,5.8Zm-2.81-10.63-1.54-5.8,1-.26,1.53,5.8Zm-2.82-10.64-1.53-5.8,1-.25,1.54,5.8ZM643,229.24l-1.54-5.8,1-.26L644,229Zm-2.82-10.63-1.53-5.8,1-.26,1.54,5.8ZM637.4,208l-1.54-5.8,1-.25,1.54,5.8Zm-2.82-10.63-1.53-5.8,1-.26,1.53,5.8Zm-2.81-10.63-1.53-5.81,1-.25,1.54,5.8ZM629,176.07l-1.54-5.8,1-.26,1.53,5.81Zm-2.82-10.63-1.53-5.8,1-.26,1.54,5.8Zm-2.81-10.64-1.54-5.8,1-.25,1.53,5.8Zm-2.82-10.63-1.53-5.8,1-.26,1.53,5.8Zm-2.81-10.63-1.54-5.8,1-.26,1.54,5.8Zm-2.81-10.64-1.54-5.8,1-.25,1.53,5.8Zm-2.82-10.63-1.53-5.8,1-.26L613,112Zm-2.81-10.64-1.54-5.8,1-.25,1.53,5.8ZM606.44,91l-1.53-5.8,1-.26,1.54,5.8Zm-2.81-10.63-1.54-5.8,1-.26,1.54,5.8Zm-2.82-10.64-1.53-5.8,1-.25,1.53,5.8ZM598,59.1l-1.54-5.8,1-.26,1.54,5.8Zm-2.81-10.64-1.54-5.8,1-.25,1.53,5.8Zm-2.82-10.63L590.84,32l1-.26,1.54,5.8ZM589.56,27.2,588,21.4l1-.26,1.53,5.8Zm-2.82-10.64-1.53-5.8,1-.25,1.54,5.8ZM583.93,5.93,582.39.13l1-.26,1.54,5.8Z"/></g></svg>