<svg xmlns="http://www.w3.org/2000/svg" viewBox="0 0 1080 672"><g id="Layer_1" data-name="Layer 1"><path d="M543,495.45H528v-48H516v60h27a6,6,0,0,0,0-12Z"/><path d="M401.92,457.19A16.5,16.5,0,0,1,389.41,430a6,6,0,1,1,9.11,7.8,4.5,4.5,0,0,0,6.84,5.85l2.44-2.84a4.51,4.51,0,0,0,1.07-3.28,4.46,4.46,0,0,0-1.56-3.07,16.49,16.49,0,0,1-1.8-23.26l2.43-2.85A16.5,16.5,0,1,1,433,429.77,6,6,0,0,1,423.9,422a4.5,4.5,0,0,0-6.84-5.85L414.62,419a4.49,4.49,0,0,0,.49,6.34,16.5,16.5,0,0,1,1.8,23.27l-2.43,2.85a16.4,16.4,0,0,1-11.26,5.72C402.78,457.17,402.35,457.19,401.92,457.19Z"/><path d="M688.66,447.1l-31.72-44.62-9.77,6.95L656.3,443l-28.71-19.64-9.77,6.95,31.73,44.62a6,6,0,0,0,9.78-7l-11.58-16.27L662,461.45l9.84-7-4.53-16.67,11.57,16.28a6,6,0,1,0,9.77-7Z"/><path d="M617.63,487.7,590.19,440l-13,3.49.24,55a6,6,0,0,0,6,6h0a6,6,0,0,0,6-6l0-5.47,15.06-4.06,2.73,4.74a6,6,0,1,0,10.4-6Zm-28.25-7.11-.08-18.08,9,15.67Z"/><path d="M472.19,433.37,439.6,477.73a6,6,0,1,0,9.67,7.11l3.24-4.41L467,486.15l-.63,5.43a6,6,0,0,0,5.26,6.65,5.58,5.58,0,0,0,.7,0,6,6,0,0,0,6-5.3l6.38-54.67Zm-3.73,40.45-8.6-3.39,10.7-14.57Z"/><path d="M732,279.32v45a9,9,0,0,1-18,0v-99H678v99a45,45,0,0,0,90,0v-45Z"/><path d="M630,324.32a9,9,0,0,1-18,0v-45H576v45a9,9,0,0,1-18,0v-45H522v21.84a50.92,50.92,0,0,0-6.22-12.09L496,260.78l17.64-25.18L484.12,215,474,229.4l-17.4-24.85L427.11,225.2,452,260.78l-19.81,28.29A50.8,50.8,0,0,0,424.08,308a48,48,0,1,0-89.86,32.9A47.94,47.94,0,0,0,312,381.32v12h36v-12a12,12,0,0,1,12-12h18a48.07,48.07,0,0,0,46.84-37.63,51,51,0,0,0,98,1.23A44.88,44.88,0,0,0,594,360.23a44.91,44.91,0,0,0,72-35.91v-45H630Zm-252,9a12,12,0,1,1,12-12A12,12,0,0,1,378,333.32Zm96,0a15.2,15.2,0,0,1-15-15,14.92,14.92,0,0,1,2.71-8.6L474,292.17l12.29,17.55a14.92,14.92,0,0,1,2.71,8.6A15.2,15.2,0,0,1,474,333.32Z"/><path d="M723,381.45a12,12,0,1,0,12,12A12,12,0,0,0,723,381.45Z"/></g></svg>