<svg xmlns="http://www.w3.org/2000/svg" viewBox="0 0 672 672"><defs><style>.cls-1{fill:none;}.cls-2{fill:#ff5c35;}</style></defs><g id="Layer_1" data-name="Layer 1"><path d="M366.48,400.28,356.75,382l-5.08,1.22-.36,20.72a2.25,2.25,0,0,0,2.21,2.29h0a2.26,2.26,0,0,0,2.25-2.21l0-1.74,5.85-1.41.82,1.54a2.25,2.25,0,0,0,4-2.11Zm-10.56-2.67.12-7.37,3.47,6.51Z"/><path d="M393.21,387.58l-10.34-17.85L379,372l2.25,12.86-10-8.34-3.89,2.26,10.34,17.84a2.25,2.25,0,0,0,1.95,1.12,2.33,2.33,0,0,0,1.13-.3,2.25,2.25,0,0,0,.81-3.08l-3.8-6.55,5.29,4.39,3.68-2.13-1.18-6.78,3.8,6.56a2.25,2.25,0,1,0,3.89-2.25Z"/><path d="M338.25,402.75H331.5v-18H327v22.5h11.25a2.25,2.25,0,0,0,0-4.5Z"/><path d="M309.14,380l-11.2,17.44a2.25,2.25,0,0,0,3.78,2.43l.95-1.47,5.71,1.88-.11,1.74a2.26,2.26,0,0,0,2.1,2.4h.15a2.25,2.25,0,0,0,2.24-2.1l1.35-20.68Zm-4,14.49,4-6.2-.47,7.36Z"/><path d="M282.69,391.15a6.37,6.37,0,0,1-5.24-10,2.25,2.25,0,0,1,3.71,2.55,1.87,1.87,0,1,0,3.08,2.13l.64-.93a1.87,1.87,0,0,0-.48-2.6,6.38,6.38,0,0,1-1.63-8.87l.64-.93a6.38,6.38,0,0,1,10.5,7.24,2.25,2.25,0,1,1-3.71-2.55,1.87,1.87,0,0,0,.3-1.41,1.82,1.82,0,0,0-.78-1.2,1.79,1.79,0,0,0-1.4-.3,1.82,1.82,0,0,0-1.2.78l-.64.92a1.86,1.86,0,0,0-.3,1.41,1.82,1.82,0,0,0,.78,1.2,6.39,6.39,0,0,1,1.63,8.87l-.64.92A6.36,6.36,0,0,1,282.69,391.15Z"/><rect class="cls-1" x="235.5" y="264.75" width="201" height="120"/><circle cx="417" cy="363.75" r="6"/><path d="M421.5,312.75v19.5a4.5,4.5,0,0,1-9,0v-43.5h-15v43.5a19.5,19.5,0,0,0,39,0v-19.5Z"/><path d="M376.5,332.25a4.5,4.5,0,0,1-9,0v-19.5h-15v19.5a4.5,4.5,0,0,1-9,0v-19.5h-15v8.44a22.27,22.27,0,0,0-2.57-4.84h0l-9.27-13.24,7.11-10.17-12.28-8.6-4,5.69-6.93-9.89-12.28,8.61,10,14.36-9.27,13.24h0a22.42,22.42,0,0,0-3.54,8.09,21,21,0,1,0-39.18,14.89,21,21,0,0,0-10.85,18.38v7.5h15v-7.5a6,6,0,0,1,6-6h8.16c.28,0,.56,0,.84,0a21,21,0,0,0,20.42-16.18,22.49,22.49,0,0,0,43,.61A19.47,19.47,0,0,0,360,347.59a19.47,19.47,0,0,0,31.5-15.34v-19.5h-15Zm-111,4.5v0h-.42a5.68,5.68,0,1,1,.42,0Zm42,0a7.6,7.6,0,0,1-7.5-7.5,7.44,7.44,0,0,1,1.36-4.3l6.14-8.78,6.14,8.78a7.44,7.44,0,0,1,1.36,4.3A7.6,7.6,0,0,1,307.5,336.75Z"/><path class="cls-2" d="M526.62,497.37H145.38V190H526.62Zm-380.24-1H525.62V191H146.38Z"/></g></svg>