<svg xmlns="http://www.w3.org/2000/svg" xmlns:xlink="http://www.w3.org/1999/xlink" viewBox="0 0 1080 672"><defs><style>.cls-1{fill:none;}.cls-2{clip-path:url(#clip-path);}.cls-3{fill:#ededed;}.cls-4{fill:#fff;}.cls-5{fill:#ff5d3e;}.cls-6{fill:#fe5752;}.cls-7{fill:#ffbc40;}.cls-8{fill:#3ac84b;}</style><clipPath id="clip-path"><rect class="cls-1" width="1080" height="672"/></clipPath></defs><g id="Isolation_Mode" data-name="Isolation Mode"><g class="cls-2"><rect class="cls-3" width="1568.55" height="908.63"/><path class="cls-4" d="M1237.23,170.88V66.13a31.76,31.76,0,0,0-31.76-31.76H398.77A31.76,31.76,0,0,0,367,66.13V170.88a31.76,31.76,0,0,1-31.76,31.76H0V470.92H1568.55V202.64H1269A31.76,31.76,0,0,1,1237.23,170.88Z"/><circle class="cls-5" cx="455.21" cy="118.41" r="43.7"/><ellipse class="cls-4" cx="439.01" cy="97.97" rx="4.64" ry="6.89" transform="translate(-7.75 45.72) rotate(-5.91)"/><path class="cls-4" d="M448.83,129.18a4.17,4.17,0,0,1-.4-8.32l5.66-.56-3.2-14.39a4.16,4.16,0,0,1,3.16-5,4.21,4.21,0,0,1,5,3.17l5.24,23.57-15,1.49A3,3,0,0,1,448.83,129.18Z"/><path class="cls-4" d="M455.28,149.9a24.2,24.2,0,0,1-12.3-3.37,4.17,4.17,0,1,1,4.23-7.19,16,16,0,0,0,21.88-5.67,4.17,4.17,0,1,1,7.19,4.23,24.19,24.19,0,0,1-14.86,11.22A24.73,24.73,0,0,1,455.28,149.9Z"/><ellipse class="cls-4" cx="469.74" cy="97.97" rx="4.64" ry="6.89" transform="translate(-7.59 48.89) rotate(-5.91)"/><circle class="cls-6" cx="87.79" cy="88.5" r="28.05"/><circle class="cls-7" cx="181.1" cy="88.5" r="28.05"/><circle class="cls-8" cx="278.68" cy="88.5" r="28.05"/><path d="M551.72,129.41a18.11,18.11,0,0,1,1-6.73,30.45,30.45,0,0,1,4.13-6.84q2.46-3.06,5.37-3.06a5.47,5.47,0,0,1,4.9,2.64,11.72,11.72,0,0,1,1.69,6.47,16.64,16.64,0,0,1-.61,4.66,4.68,4.68,0,0,1-.57,1.21,7.9,7.9,0,0,1-1.28,1.29,3.07,3.07,0,0,1-1.93.93,2.26,2.26,0,0,1-1-.27l-8-3.91a125.3,125.3,0,0,0,1.14,14.82l-3.87,1.49Q551.71,133.19,551.72,129.41Zm13.81-7a7.49,7.49,0,0,0-.9-3.83,3.1,3.1,0,0,0-2.88-1.54,3.36,3.36,0,0,0-2.44,1.23,18.94,18.94,0,0,0-2.53,3.65l8.27,3.83A10.64,10.64,0,0,0,565.53,122.46Z"/><path d="M579,123.16a56.28,56.28,0,0,0-1.23-10.75,28.25,28.25,0,0,0-4.22-10.27l3.12-2.51q5.44,8.58,5.45,23Zm19.61,1.58a5.78,5.78,0,0,1,.13,1.37v1.18a5.82,5.82,0,0,1-.13,1.35c-.09.36-.19.55-.31.55H596.4a10.44,10.44,0,0,1-4.42-.75,4.54,4.54,0,0,1-2.27-2.51,13.74,13.74,0,0,1-6,3.5,46.19,46.19,0,0,1-8.66,1.87l-.48-5a53.61,53.61,0,0,0,8.59-1.89c2.48-.8,4.09-1.57,4.82-2.33l-1-23.93,4-1,.35,23.48a3.59,3.59,0,0,0,.6,2.28,2.77,2.77,0,0,0,1.62,1,12.18,12.18,0,0,0,2.79.25h2C598.45,124.22,598.55,124.39,598.64,124.74Z"/><path d="M628.32,123.38a4.9,4.9,0,0,1-2.13,4.4,9.31,9.31,0,0,1-5.25,1.41c-2.44,0-4-.87-4.8-2.6a4.86,4.86,0,0,1-2.42,1.94,8.46,8.46,0,0,1-3.21.66q-3.56,0-4.66-2.64-1.8,2.64-7.52,2.64c-.11,0-.22-.19-.33-.55a5.24,5.24,0,0,1-.15-1.35v-1.18a5.67,5.67,0,0,1,.13-1.34c.09-.37.21-.55.35-.55a12.86,12.86,0,0,0,5.76-1.06l.09-6.77,3.61.09-.13,5.27c0,1.06.23,1.73.79,2a6.1,6.1,0,0,0,2.68.44,4.87,4.87,0,0,0,3.34-.93l-.17-8.62,3.65-.08.17,8.92a3.81,3.81,0,0,0,2.51.71,9.37,9.37,0,0,0,4.4-.93l-1-10.51,4-.7Q628.32,118.14,628.32,123.38Z"/><path d="M645.91,124.74a5.78,5.78,0,0,1,.13,1.37v1.18a5.82,5.82,0,0,1-.13,1.35c-.09.36-.19.55-.3.55h-1.06q-4.35,0-6.33-2c-1.32-1.32-2-3.59-2.11-6.82l-.66-22.21,4-1,.35,23.21a3.85,3.85,0,0,0,1.06,2.77,3.77,3.77,0,0,0,2.81,1h1.94C645.72,124.22,645.82,124.39,645.91,124.74Z"/><path d="M656.73,113.44c.18,3.81.26,6.91.26,9.28a5.06,5.06,0,0,1-2.68,4.57,12.64,12.64,0,0,1-4.07,1.43,24.27,24.27,0,0,1-4.64.47c-.11,0-.22-.19-.33-.55a5.24,5.24,0,0,1-.15-1.35v-1.18a6.26,6.26,0,0,1,.13-1.34c.09-.37.21-.55.35-.55a31.42,31.42,0,0,0,4.69-.31,10.79,10.79,0,0,0,3.36-1.06l-1-10.07,4-.66Zm-7,21,3.78,3.16-3.17,3.74-3.69-3.12Z"/><path d="M703,124.74a6.36,6.36,0,0,1,.13,1.37v1.18a6.43,6.43,0,0,1-.13,1.35c-.09.36-.19.55-.31.55h-1a10.41,10.41,0,0,1-3.89-.64,4.08,4.08,0,0,1-2.27-2.27l.26,5.06q.13,3.82-3.8,5.76A22.42,22.42,0,0,1,682,139q-6.19,0-8.48-2.51a8.07,8.07,0,0,1-2.29-5.59,38.28,38.28,0,0,1,.57-5c.38-2.4.9-5.42,1.54-9l3.08.7q-1.36,7.51-1.72,12a3.12,3.12,0,0,0,2.23,3.49,15.31,15.31,0,0,0,5.43.91,31,31,0,0,0,5.54-.49A12.45,12.45,0,0,0,692.3,132l-1.67-16.8,4-.88.57,6.38A3.75,3.75,0,0,0,696,123a3.51,3.51,0,0,0,2,1,22,22,0,0,0,3.51.22h1.15C702.76,124.22,702.86,124.39,703,124.74Zm-19.4-12.31-3.73-3.17,3.12-3.73,3.78,3.12Z"/><path d="M704.75,134.42l3.43,2.86-2.9,3.43-3.35-2.86Zm-2.44-5.78a5.2,5.2,0,0,1-.16-1.35v-1.18a5.62,5.62,0,0,1,.14-1.34c.08-.37.2-.55.35-.55a31.19,31.19,0,0,0,4.68-.31,10.86,10.86,0,0,0,3.37-1.06l-1-10.07,4-.66.08,1.32c.18,3.81.27,6.91.27,9.28a5.07,5.07,0,0,1-2.69,4.57,12.66,12.66,0,0,1-4.06,1.43,24.43,24.43,0,0,1-4.64.47C702.52,129.19,702.41,129,702.31,128.64Zm12.51,8.59-2.9,3.39-3.39-2.86,2.86-3.39Z"/><path d="M724.27,123.16A56.28,56.28,0,0,0,723,112.41a28.25,28.25,0,0,0-4.22-10.27l3.12-2.51q5.46,8.58,5.45,23Zm19.62,1.58a6.36,6.36,0,0,1,.13,1.37v1.18a6.43,6.43,0,0,1-.13,1.35c-.09.36-.2.55-.31.55h-1.94a10.47,10.47,0,0,1-4.42-.75,4.52,4.52,0,0,1-2.26-2.51,13.8,13.8,0,0,1-6,3.5,46.48,46.48,0,0,1-8.67,1.87l-.48-5a53.75,53.75,0,0,0,8.6-1.89c2.48-.8,4.08-1.57,4.81-2.33l-1-23.93,4-1,.36,23.48a3.59,3.59,0,0,0,.59,2.28,2.8,2.8,0,0,0,1.63,1,12.12,12.12,0,0,0,2.79.25h2C743.69,124.22,743.8,124.39,743.89,124.74Z"/><path d="M754.61,112.12l.09,1.32c.18,3.81.27,6.91.27,9.28a5.07,5.07,0,0,1-2.69,4.57,12.66,12.66,0,0,1-4.06,1.43,24.43,24.43,0,0,1-4.64.47c-.12,0-.23-.19-.33-.55a4.8,4.8,0,0,1-.16-1.35v-1.18a6.26,6.26,0,0,1,.13-1.34c.09-.37.21-.55.36-.55a31.28,31.28,0,0,0,4.68-.31,10.71,10.71,0,0,0,3.36-1.06l-1-10.07Zm-2.68-4.48-3.74-3.17,3.13-3.74,3.78,3.13Z"/><path d="M768.42,100.07a44.16,44.16,0,0,1-4.48-.44c-1.18-.11-1.88-.17-2.11-.17a1.94,1.94,0,0,0-1.35.39,3.12,3.12,0,0,0-.63,1.63l-2.77-.66a14.58,14.58,0,0,1,1.12-3.23A3.48,3.48,0,0,1,759.63,96a4.61,4.61,0,0,1,2.15-.44,24.73,24.73,0,0,1,2.77.22c2.11.2,3.64.34,4.58.39l2.33,0-.88,3.82Zm-1.63,29.12-3.43.48-.74-25.55,3.82-1Z"/><path d="M808.79,124.74a5.78,5.78,0,0,1,.13,1.37v1.18a5.82,5.82,0,0,1-.13,1.35c-.09.36-.19.55-.31.55h-1.63a6.39,6.39,0,0,1,.18,1.67,7.8,7.8,0,0,1-3.87,7q-3.87,2.42-11.17,2.42-6.24,0-8.51-2.48a8.08,8.08,0,0,1-2.26-5.57c0-1.37.7-6.07,2.11-14.07l3.08.71q-1.36,7.51-1.72,12a3.11,3.11,0,0,0,2.24,3.52,16.52,16.52,0,0,0,5.59.88,30,30,0,0,0,6.33-.59,10.48,10.48,0,0,0,4.53-2.14,3.93,3.93,0,0,0-.42-2.44,2.59,2.59,0,0,0-1.87-.83q-1.37-.15-5.1-.15h-.09l1-5h11.56C808.6,124.22,808.7,124.39,808.79,124.74Z"/><path d="M829.46,126.5q-5.37,1.32-7.92,1.83a41.41,41.41,0,0,1-4.75.68q-2.19.18-5.85.18h-2.46c-.12,0-.23-.19-.33-.55a5.24,5.24,0,0,1-.15-1.35v-1.18a5.67,5.67,0,0,1,.13-1.34c.09-.37.2-.55.35-.55h5.89a13.34,13.34,0,0,1-1.14-5.5,6.29,6.29,0,0,1,2.24-5.3,9.29,9.29,0,0,1,5.85-1.74,18.05,18.05,0,0,1,4.53.62l-1,4.26a12.59,12.59,0,0,0-3.91-.52,11.86,11.86,0,0,0-4.14.61,18.57,18.57,0,0,0,.44,4,12.59,12.59,0,0,0,1.23,3.36,82.68,82.68,0,0,0,10.73-2.2Z"/><path d="M847.31,124.74a5.78,5.78,0,0,1,.13,1.37v1.18a5.82,5.82,0,0,1-.13,1.35c-.09.36-.19.55-.31.55h-1q-4.37,0-6.34-2t-2.11-6.82l-.66-22.21,4-1,.35,23.21a3.89,3.89,0,0,0,1,2.77,3.8,3.8,0,0,0,2.82,1H847C847.12,124.22,847.22,124.39,847.31,124.74Z"/><path d="M872.86,124.74a5.78,5.78,0,0,1,.13,1.37v1.18a5.82,5.82,0,0,1-.13,1.35c-.09.36-.19.55-.31.55a10.48,10.48,0,0,1-4.11-.69,4.8,4.8,0,0,1-2.44-2.22l-.31,1.59a3.6,3.6,0,0,1-.48,1.29,6.68,6.68,0,0,1-1.23,1.3,3.11,3.11,0,0,1-2,.92,2.24,2.24,0,0,1-1-.26l-8-3.78a5.58,5.58,0,0,1-1.85,1.36,6.6,6.6,0,0,1-2.73.49H847c-.12,0-.23-.19-.33-.55a5.24,5.24,0,0,1-.15-1.35v-1.18a5.67,5.67,0,0,1,.13-1.34c.09-.37.2-.55.35-.55h1.54a7,7,0,0,0,1.87-.18,2.14,2.14,0,0,0,1.08-.86,15.46,15.46,0,0,0,1.23-2.35,18.32,18.32,0,0,1,2.92-4.84,5.26,5.26,0,0,1,4.11-1.8,5.63,5.63,0,0,1,4,1.47,7.9,7.9,0,0,1,2.17,3.67,13.58,13.58,0,0,0,1.26,3.15,3.17,3.17,0,0,0,1.76,1.34,12,12,0,0,0,3.58.4C872.67,124.22,872.77,124.39,872.86,124.74Zm-9.59-.74a7.18,7.18,0,0,0-1-3.85,3.3,3.3,0,0,0-3-1.61,3,3,0,0,0-2.29,1.3,15.14,15.14,0,0,0-2.06,3.8l7.82,3.52A8.33,8.33,0,0,0,863.27,124Z"/><path d="M889.08,124.74a5.71,5.71,0,0,1,.14,1.37v1.18a5.77,5.77,0,0,1-.14,1.35c-.08.36-.19.55-.3.55a16.18,16.18,0,0,1-5.57-.71,3.54,3.54,0,0,1-2.26-2.33,5,5,0,0,1-3,2.33,17.27,17.27,0,0,1-5.45.71c-.12,0-.23-.19-.33-.55a5.24,5.24,0,0,1-.15-1.35v-1.18a5.67,5.67,0,0,1,.13-1.34c.09-.37.2-.55.35-.55a14.35,14.35,0,0,0,6.55-1.15l-.83-8.75,4-.35.53,9.37a5.69,5.69,0,0,0,2.11.68,28.93,28.93,0,0,0,3.92.2C888.89,124.22,889,124.39,889.08,124.74Zm-12.53-16.13-3.43-2.91,2.86-3.38,3.43,2.86Zm6.6-.09-3.39-2.86,2.86-3.39,3.39,2.82Z"/><path d="M911.44,115a18.4,18.4,0,0,0,5.08.77l-1,4.44a12,12,0,0,0-4,.93,51.55,51.55,0,0,0-4.74,2.42l-1.5.83a48.86,48.86,0,0,1-7.41,3.54,22.68,22.68,0,0,1-7.89,1.26h-1.23c-.12,0-.23-.19-.33-.55a4.8,4.8,0,0,1-.16-1.35v-1.18a6.26,6.26,0,0,1,.13-1.34c.09-.37.21-.55.36-.55H890a21.54,21.54,0,0,0,5.71-.8,53.11,53.11,0,0,0,6.07-2.06c1.53-.68,2.66-1.19,3.39-1.54l2.86-1.23a4.7,4.7,0,0,1,.88-.27.64.64,0,0,0-.27,0,24.91,24.91,0,0,1-5.49-1.76,17.35,17.35,0,0,0-5.5-1.54,1.75,1.75,0,0,0-1.63.81,7.63,7.63,0,0,0-.79,2.14l-3-.53a12,12,0,0,1,1.8-5,4.22,4.22,0,0,1,3.65-1.69,9.76,9.76,0,0,1,2.79.51q1.65.49,4.55,1.56Q908.74,114.24,911.44,115Zm-9,18.32,3.78,3.16L903,140.22l-3.69-3.12Z"/><path d="M926.81,97.22l.35,32-3.43.48-.87-31.49Z"/><path d="M935,137.67a36.71,36.71,0,0,0,7.84-4.51,12.15,12.15,0,0,0,3.72-4.5l-1.45-12.89,3.91-1c.12,1.2.19,2,.22,2.33.24,2.28.44,4.31.6,6.06s.24,3.13.24,4.09a11.38,11.38,0,0,1-3.06,7.7c-2,2.32-5.24,4.51-9.61,6.6Z"/><path d="M959.84,97.22l.35,32-3.43.48-.88-31.49Z"/><path d="M960.54,137.67a36.82,36.82,0,0,0,7.85-4.51,12.35,12.35,0,0,0,3.72-4.5l-1.45-12.89,3.91-1c.12,1.2.19,2,.22,2.33.23,2.28.43,4.31.59,6.06s.24,3.13.24,4.09a11.37,11.37,0,0,1-3,7.7c-2,2.32-5.24,4.51-9.61,6.6Zm13.68-32.1-3.13,3.78-3.73-3.16,3.12-3.74Z"/><path d="M992.6,124.74a5.78,5.78,0,0,1,.13,1.37v1.18a5.82,5.82,0,0,1-.13,1.35c-.09.36-.19.55-.31.55h-1q-4.37,0-6.34-2t-2.11-6.82l-.66-22.21,4-1,.36,23.21a3.89,3.89,0,0,0,1,2.77,3.8,3.8,0,0,0,2.82,1h1.93C992.41,124.22,992.51,124.39,992.6,124.74Z"/><path d="M1003.42,113.44c.17,3.81.26,6.91.26,9.28a5.08,5.08,0,0,1-2.68,4.57,12.73,12.73,0,0,1-4.07,1.43,24.35,24.35,0,0,1-4.64.47c-.12,0-.23-.19-.33-.55a5.24,5.24,0,0,1-.15-1.35v-1.18a5.67,5.67,0,0,1,.13-1.34c.09-.37.2-.55.35-.55a31.19,31.19,0,0,0,4.68-.31,10.77,10.77,0,0,0,3.37-1.06l-1-10.07,4-.66Zm-7,21,3.79,3.16L997,141.32l-3.69-3.12Z"/><path d="M101.13,382.13a3.39,3.39,0,0,1-2.38-1L61.52,343.92a3.37,3.37,0,0,1,0-4.76l37.23-37.23a3.36,3.36,0,0,1,4.76,4.75L68.65,341.54l34.86,34.85a3.36,3.36,0,0,1-2.38,5.74Z"/><path d="M136.22,344.9H63.9a3.36,3.36,0,0,1,0-6.72h72.32a3.36,3.36,0,0,1,0,6.72Z"/><path d="M262.91,382.13a3.36,3.36,0,0,1-2.37-5.74l34.85-34.85-34.85-34.86a3.36,3.36,0,0,1,4.75-4.75l37.23,37.23a3.37,3.37,0,0,1,0,4.76l-37.23,37.23A3.39,3.39,0,0,1,262.91,382.13Z"/><path d="M300.14,344.9H227.82a3.36,3.36,0,0,1,0-6.72h72.32a3.36,3.36,0,1,1,0,6.72Z"/><rect class="cls-3" x="411.51" y="281.71" width="1133.96" height="115.39" rx="57.69"/><path d="M470.13,332.3a8.45,8.45,0,0,1,6.87-3.25q7.37,0,7.43,8.31v15.36h-4V337.34a5.33,5.33,0,0,0-1.15-3.71,4.6,4.6,0,0,0-3.51-1.2,5.69,5.69,0,0,0-3.39,1,7,7,0,0,0-2.28,2.7v16.56h-4v-33h4Z"/><path d="M495.77,323.86v5.62h4.34v3.07h-4.34V347a3.23,3.23,0,0,0,.58,2.1,2.45,2.45,0,0,0,2,.69,9.6,9.6,0,0,0,1.89-.25v3.2a11.75,11.75,0,0,1-3,.43,5,5,0,0,1-4-1.61A7,7,0,0,1,491.8,347V332.55h-4.23v-3.07h4.23v-5.62Z"/><path d="M510.13,323.86v5.62h4.34v3.07h-4.34V347a3.29,3.29,0,0,0,.58,2.1,2.47,2.47,0,0,0,2,.69,9.6,9.6,0,0,0,1.89-.25v3.2a11.81,11.81,0,0,1-3.05.43,5,5,0,0,1-4-1.61,7,7,0,0,1-1.35-4.58V332.55h-4.23v-3.07h4.23v-5.62Z"/><path d="M538.73,341.36a13.88,13.88,0,0,1-2.42,8.54,7.77,7.77,0,0,1-6.57,3.25,8.53,8.53,0,0,1-6.66-2.69v11.19h-4V329.48h3.63l.19,2.58a8.21,8.21,0,0,1,6.74-3,8,8,0,0,1,6.63,3.16q2.43,3.15,2.43,8.78Zm-4-.45a10.33,10.33,0,0,0-1.67-6.21,5.39,5.39,0,0,0-4.6-2.27,5.84,5.84,0,0,0-5.41,3.19v11.11a5.86,5.86,0,0,0,5.45,3.17,5.38,5.38,0,0,0,4.55-2.26C534.2,346.13,534.76,343.88,534.76,340.91Z"/><path d="M557.31,346.55a2.94,2.94,0,0,0-1.22-2.5,11.8,11.8,0,0,0-4.23-1.53,20,20,0,0,1-4.78-1.55,6.7,6.7,0,0,1-2.62-2.15,5.08,5.08,0,0,1-.85-3A6,6,0,0,1,546,331a9.43,9.43,0,0,1,6.18-2,9.72,9.72,0,0,1,6.41,2,6.5,6.5,0,0,1,2.45,5.22h-4a3.59,3.59,0,0,0-1.38-2.81,5.19,5.19,0,0,0-3.49-1.18,5.45,5.45,0,0,0-3.4.94,3,3,0,0,0-1.22,2.47,2.41,2.41,0,0,0,1.14,2.17,14.09,14.09,0,0,0,4.11,1.4,21,21,0,0,1,4.82,1.59,7,7,0,0,1,2.74,2.22,5.47,5.47,0,0,1,.89,3.16,6,6,0,0,1-2.49,5,10.47,10.47,0,0,1-6.46,1.88,11.65,11.65,0,0,1-4.94-1A8.07,8.07,0,0,1,544,349.4a6.65,6.65,0,0,1-1.22-3.83h4a4.08,4.08,0,0,0,1.6,3.16,6.18,6.18,0,0,0,3.94,1.17,6.37,6.37,0,0,0,3.61-.91A2.81,2.81,0,0,0,557.31,346.55Z"/><path d="M566.33,350.63a2.46,2.46,0,0,1,.61-1.71,2.32,2.32,0,0,1,1.83-.69,2.39,2.39,0,0,1,1.86.69,2.42,2.42,0,0,1,.63,1.71,2.34,2.34,0,0,1-.63,1.66,2.45,2.45,0,0,1-1.86.66,2.2,2.2,0,0,1-2.44-2.32Zm0-19A2.46,2.46,0,0,1,567,330a2.32,2.32,0,0,1,1.83-.69,2.39,2.39,0,0,1,1.86.69,2.43,2.43,0,0,1,.64,1.71,2.34,2.34,0,0,1-.64,1.66,2.45,2.45,0,0,1-1.86.66,2.2,2.2,0,0,1-2.44-2.32Z"/><path d="M577.9,355.4h-3.42l13.06-33.95h3.39Z"/><path d="M591.21,355.4H587.8l13.05-33.95h3.39Z"/><path d="M628.21,341.36a13.8,13.8,0,0,1-2.45,8.55,7.81,7.81,0,0,1-6.57,3.24,8.09,8.09,0,0,1-6.81-3.12l-.19,2.69h-3.65v-33h4V332a8.06,8.06,0,0,1,6.64-3,7.87,7.87,0,0,1,6.64,3.2q2.41,3.21,2.42,8.76Zm-4-.45a10.76,10.76,0,0,0-1.56-6.27,5.18,5.18,0,0,0-4.51-2.21,5.83,5.83,0,0,0-5.65,3.65v10a6,6,0,0,0,5.69,3.65,5.16,5.16,0,0,0,4.45-2.21Q624.23,345.35,624.23,340.91Z"/><path d="M647.55,352.72a8.6,8.6,0,0,1-.56-2.45,8.85,8.85,0,0,1-6.61,2.88,8.2,8.2,0,0,1-5.64-1.95,6.31,6.31,0,0,1-2.2-4.93,6.57,6.57,0,0,1,2.76-5.63q2.76-2,7.76-2h3.87v-1.82a4.46,4.46,0,0,0-1.25-3.32,5,5,0,0,0-3.67-1.24,5.77,5.77,0,0,0-3.56,1.08,3.15,3.15,0,0,0-1.44,2.6h-4a5.49,5.49,0,0,1,1.23-3.36A8.33,8.33,0,0,1,637.6,330a11.27,11.27,0,0,1,4.65-.95,9.17,9.17,0,0,1,6.29,2,7.24,7.24,0,0,1,2.36,5.53v10.69a12.94,12.94,0,0,0,.82,5.09v.35Zm-6.59-3a6.89,6.89,0,0,0,3.54-1,5.81,5.81,0,0,0,2.43-2.51v-4.77h-3.11q-7.3,0-7.3,4.28a3.62,3.62,0,0,0,1.24,2.92A4.8,4.8,0,0,0,641,349.69Z"/><path d="M670.66,346.55a2.94,2.94,0,0,0-1.22-2.5,11.8,11.8,0,0,0-4.23-1.53,20.24,20.24,0,0,1-4.79-1.55,6.74,6.74,0,0,1-2.61-2.15,5.08,5.08,0,0,1-.85-3,6,6,0,0,1,2.41-4.83,9.43,9.43,0,0,1,6.18-2,9.72,9.72,0,0,1,6.41,2,6.5,6.5,0,0,1,2.45,5.22h-4A3.57,3.57,0,0,0,669,333.5a5.15,5.15,0,0,0-3.48-1.18,5.45,5.45,0,0,0-3.4.94,3,3,0,0,0-1.22,2.47,2.41,2.41,0,0,0,1.14,2.17,14.09,14.09,0,0,0,4.11,1.4,21,21,0,0,1,4.82,1.59,7,7,0,0,1,2.74,2.22,5.47,5.47,0,0,1,.89,3.16,6,6,0,0,1-2.49,5,10.48,10.48,0,0,1-6.47,1.88,11.63,11.63,0,0,1-4.93-1,7.94,7.94,0,0,1-3.36-2.76,6.65,6.65,0,0,1-1.22-3.83h4a4.14,4.14,0,0,0,1.6,3.16,6.22,6.22,0,0,0,3.94,1.17,6.39,6.39,0,0,0,3.62-.91A2.81,2.81,0,0,0,670.66,346.55Z"/><path d="M694.15,352.72a8.27,8.27,0,0,1-.56-2.45,8.87,8.87,0,0,1-6.62,2.88,8.17,8.17,0,0,1-5.63-1.95,6.27,6.27,0,0,1-2.2-4.93,6.57,6.57,0,0,1,2.76-5.63c1.84-1.34,4.42-2,7.76-2h3.86v-1.82a4.46,4.46,0,0,0-1.24-3.32,5,5,0,0,0-3.67-1.24,5.78,5.78,0,0,0-3.57,1.08,3.15,3.15,0,0,0-1.44,2.6h-4a5.49,5.49,0,0,1,1.23-3.36,8.4,8.4,0,0,1,3.35-2.57,11.27,11.27,0,0,1,4.65-.95,9.16,9.16,0,0,1,6.29,2,7.25,7.25,0,0,1,2.37,5.53v10.69a13.14,13.14,0,0,0,.81,5.09v.35Zm-6.6-3a7,7,0,0,0,3.55-1,5.84,5.84,0,0,0,2.42-2.51v-4.77h-3.11q-7.3,0-7.3,4.28a3.6,3.6,0,0,0,1.25,2.92A4.77,4.77,0,0,0,687.55,349.69Z"/><path d="M708,352.72h-4v-33h4Z"/><path d="M728.74,352.72a8.27,8.27,0,0,1-.56-2.45,8.86,8.86,0,0,1-6.61,2.88,8.2,8.2,0,0,1-5.64-1.95,6.27,6.27,0,0,1-2.2-4.93,6.57,6.57,0,0,1,2.76-5.63c1.84-1.34,4.42-2,7.76-2h3.86v-1.82a4.46,4.46,0,0,0-1.24-3.32,5,5,0,0,0-3.67-1.24,5.78,5.78,0,0,0-3.57,1.08,3.15,3.15,0,0,0-1.44,2.6h-4a5.44,5.44,0,0,1,1.24-3.36,8.3,8.3,0,0,1,3.34-2.57,11.27,11.27,0,0,1,4.65-.95,9.16,9.16,0,0,1,6.29,2,7.25,7.25,0,0,1,2.37,5.53v10.69a13.14,13.14,0,0,0,.81,5.09v.35Zm-6.59-3a6.94,6.94,0,0,0,3.54-1,5.84,5.84,0,0,0,2.42-2.51v-4.77H725q-7.31,0-7.3,4.28a3.63,3.63,0,0,0,1.25,2.92A4.78,4.78,0,0,0,722.15,349.69Z"/><path d="M742.05,329.48l.11,2.58a8.59,8.59,0,0,1,6.89-3q4.88,0,6.63,3.74a8.74,8.74,0,0,1,3-2.7,8.88,8.88,0,0,1,4.39-1q7.65,0,7.77,8.1v15.57h-4V337.39a5.34,5.34,0,0,0-1.14-3.73,5,5,0,0,0-3.82-1.23,5.27,5.27,0,0,0-3.67,1.32,5.37,5.37,0,0,0-1.7,3.55v15.42h-4V337.49c0-3.38-1.65-5.06-5-5.06a5.32,5.32,0,0,0-5.35,3.32v17h-4V329.48Z"/><path d="M776.94,350.63a2.5,2.5,0,0,1,.61-1.71,2.33,2.33,0,0,1,1.84-.69,2.28,2.28,0,0,1,2.49,2.4,2.34,2.34,0,0,1-.63,1.66,2.48,2.48,0,0,1-1.86.66,2.2,2.2,0,0,1-2.45-2.32Z"/><path d="M797.75,349.9a5.77,5.77,0,0,0,3.71-1.28,4.53,4.53,0,0,0,1.76-3.23H807a7.25,7.25,0,0,1-1.37,3.81,9.07,9.07,0,0,1-3.39,2.87,9.7,9.7,0,0,1-4.47,1.08A9.58,9.58,0,0,1,790.2,350q-2.81-3.17-2.8-8.67v-.66a14,14,0,0,1,1.24-6,9.46,9.46,0,0,1,3.58-4.11,10.18,10.18,0,0,1,5.51-1.46,9.27,9.27,0,0,1,6.49,2.35,8.32,8.32,0,0,1,2.76,6.07h-3.76a5.45,5.45,0,0,0-1.7-3.7,5.31,5.31,0,0,0-3.79-1.45,5.56,5.56,0,0,0-4.7,2.18,10.22,10.22,0,0,0-1.66,6.3v.75a10,10,0,0,0,1.65,6.18A5.59,5.59,0,0,0,797.75,349.9Z"/><path d="M810.39,340.89a13.69,13.69,0,0,1,1.35-6.15,10,10,0,0,1,3.73-4.2,10.18,10.18,0,0,1,5.47-1.49,9.79,9.79,0,0,1,7.67,3.29,12.6,12.6,0,0,1,2.93,8.74v.28a13.82,13.82,0,0,1-1.3,6.09,9.82,9.82,0,0,1-3.71,4.19,10.31,10.31,0,0,1-5.55,1.51,9.8,9.8,0,0,1-7.66-3.29,12.6,12.6,0,0,1-2.93-8.7Zm4,.47a10,10,0,0,0,1.79,6.2,6.08,6.08,0,0,0,9.61,0,10.85,10.85,0,0,0,1.78-6.64,9.93,9.93,0,0,0-1.81-6.2,5.78,5.78,0,0,0-4.82-2.37,5.71,5.71,0,0,0-4.75,2.34Q814.39,337,814.39,341.36Z"/><path d="M840.26,329.48l.11,2.58a8.59,8.59,0,0,1,6.89-3q4.88,0,6.64,3.74a8.62,8.62,0,0,1,3-2.7,8.88,8.88,0,0,1,4.39-1q7.65,0,7.78,8.1v15.57h-4V337.39a5.38,5.38,0,0,0-1.13-3.73,5,5,0,0,0-3.83-1.23,5.14,5.14,0,0,0-5.36,4.87v15.42h-4V337.49c0-3.38-1.65-5.06-5-5.06a5.3,5.3,0,0,0-5.34,3.32v17h-4V329.48Z"/><path d="M875.86,355.4h-3.41l13-33.95h3.39Z"/></g></g></svg>