<svg xmlns="http://www.w3.org/2000/svg" viewBox="0 0 672 672"><defs><style>.cls-1{fill:#ff7854;}.cls-2{fill:#ff5d3e;}</style></defs><g id="Layer_1" data-name="Layer 1"><path class="cls-1" d="M612,129.5h-6v-1h6Zm-11,0h-6v-1h6Zm-11,0h-6v-1h6Zm-11,0h-6v-1h6Zm-11,0h-6v-1h6Zm-11,0h-6v-1h6Zm-11,0h-6v-1h6Zm-11,0h-6v-1h6Zm-11,0h-6v-1h6Zm-11,0h-6v-1h6Zm-11,0h-6v-1h6Zm-11,0h-6v-1h6Zm-11,0h-6v-1h6Zm-11,0h-6v-1h6Zm-11,0h-6v-1h6Zm-11,0h-6v-1h6Zm-11,0h-6v-1h6Zm-11,0h-6v-1h6Zm-11,0h-6v-1h6Zm-11,0h-6v-1h6Zm-11,0h-6v-1h6Zm-11,0h-6v-1h6Zm-11,0h-6v-1h6Zm-11,0h-6v-1h6Zm-11,0h-6v-1h6Zm-11,0h-6v-1h6Zm-11,0h-6v-1h6Zm-11,0h-6v-1h6Zm-11,0h-6v-1h6Zm-11,0h-6v-1h6Zm-11,0h-6v-1h6Zm-11,0h-6v-1h6Zm-11,0h-6v-1h6Zm-11,0h-6v-1h6Zm-11,0h-6v-1h6Zm-11,0h-6v-1h6Zm-11,0h-6v-1h6Zm-11,0h-6v-1h6Zm-11,0h-6v-1h6Zm-11,0h-6v-1h6Zm-11,0h-6v-1h6Zm-11,0h-6v-1h6Zm-11,0h-6v-1h6Zm-11,0h-6v-1h6Zm-11,0h-6v-1h6Zm-11,0h-6v-1h6Zm-11,0h-6v-1h6Zm-11,0H89v-1h6Zm-11,0H78v-1h6Zm-11,0H67v-1h6Zm-11,0H60v-1h2Z"/><path class="cls-1" d="M612,543.5h-6v-1h6Zm-11,0h-6v-1h6Zm-11,0h-6v-1h6Zm-11,0h-6v-1h6Zm-11,0h-6v-1h6Zm-11,0h-6v-1h6Zm-11,0h-6v-1h6Zm-11,0h-6v-1h6Zm-11,0h-6v-1h6Zm-11,0h-6v-1h6Zm-11,0h-6v-1h6Zm-11,0h-6v-1h6Zm-11,0h-6v-1h6Zm-11,0h-6v-1h6Zm-11,0h-6v-1h6Zm-11,0h-6v-1h6Zm-11,0h-6v-1h6Zm-11,0h-6v-1h6Zm-11,0h-6v-1h6Zm-11,0h-6v-1h6Zm-11,0h-6v-1h6Zm-11,0h-6v-1h6Zm-11,0h-6v-1h6Zm-11,0h-6v-1h6Zm-11,0h-6v-1h6Zm-11,0h-6v-1h6Zm-11,0h-6v-1h6Zm-11,0h-6v-1h6Zm-11,0h-6v-1h6Zm-11,0h-6v-1h6Zm-11,0h-6v-1h6Zm-11,0h-6v-1h6Zm-11,0h-6v-1h6Zm-11,0h-6v-1h6Zm-11,0h-6v-1h6Zm-11,0h-6v-1h6Zm-11,0h-6v-1h6Zm-11,0h-6v-1h6Zm-11,0h-6v-1h6Zm-11,0h-6v-1h6Zm-11,0h-6v-1h6Zm-11,0h-6v-1h6Zm-11,0h-6v-1h6Zm-11,0h-6v-1h6Zm-11,0h-6v-1h6Zm-11,0h-6v-1h6Zm-11,0h-6v-1h6Zm-11,0H89v-1h6Zm-11,0H78v-1h6Zm-11,0H67v-1h6Zm-11,0H60v-1h2Z"/><path class="cls-1" d="M336,612.5c-73.55,0-142.9-28.84-195.28-81.22S59.5,409.55,59.5,336s28.84-142.9,81.22-195.28S262.45,59.5,336,59.5s142.9,28.84,195.28,81.22S612.5,262.45,612.5,336s-28.84,142.9-81.22,195.28S409.55,612.5,336,612.5Zm0-552c-73.28,0-142.38,28.74-194.57,80.93S60.5,262.72,60.5,336s28.74,142.38,80.93,194.57S262.72,611.5,336,611.5h0c73.28,0,142.38-28.74,194.57-80.93S611.5,409.28,611.5,336s-28.74-142.38-80.93-194.57S409.28,60.5,336,60.5Z"/><path class="cls-1" d="M430.15,612.5H241.85A182.9,182.9,0,0,1,59.5,430.15V241.85A182.9,182.9,0,0,1,241.85,59.5h188.3A182.9,182.9,0,0,1,612.5,241.85v188.3A182.9,182.9,0,0,1,430.15,612.5Zm-188.3-552A181.88,181.88,0,0,0,60.5,241.85v188.3A181.88,181.88,0,0,0,241.85,611.5h188.3A181.88,181.88,0,0,0,611.5,430.15V241.85A181.88,181.88,0,0,0,430.15,60.5Z"/><path class="cls-1" d="M535.51,612.5h-399a77.08,77.08,0,0,1-77-77v-399a77.08,77.08,0,0,1,77-77h399a77.08,77.08,0,0,1,77,77v399A77.08,77.08,0,0,1,535.51,612.5Zm-399-552a76.08,76.08,0,0,0-76,76v399a76.08,76.08,0,0,0,76,76h399a76.08,76.08,0,0,0,76-76v-399a76.08,76.08,0,0,0-76-76Z"/><path class="cls-1" d="M612.5,612.5H59.5V59.5h553Zm-552-1h551V60.5H60.5Z"/><path class="cls-2" d="M481.65,476.71c-6.39-11.09-23.42-11.69-31.82,3.7-4.59,8.39-9.38,13.28-13.74,16.11L428.62,484,443,476l-47.3-114.37a68.38,68.38,0,0,0,7.05-6.57c11.26-12.33,23.44-34.52,17.48-70.44-2-10.9-3.31-20.61,2-29.11,9.59-15.33,4.94-26.84-2-32-12.61-9.49-27-2.15-35,6.12l-3.32-46.95c-.66-9.44-4.22-17.61-9.75-22.4a21.27,21.27,0,0,0-24.83-1.89l-.13-1.92c-.66-9.3-4.46-17.75-10.16-22.6a20,20,0,0,0-15-4.75c-11.49,1.06-19.13,11.9-20.89,23.4a20.19,20.19,0,0,0-10.46-1.74c-15.23,1.45-22.19,16.5-21.19,30.62l1.57,22.27a16.45,16.45,0,0,0-7.36-.86c-12.62,1.42-20,13.12-18.83,29.83l5,70.25h0l.1,1.4c0,.14.05.28.07.42,2.81,33.53,16.75,52.93,29.59,63.83a72.55,72.55,0,0,1-2.86,25.23c-6,20.2-20,35-41.57,43.84l-5.76,2.17L188.48,452.3l12.4,41.45,11.69-1.44c-3.56,7.63-6.35,19.56-1.72,35.71,4.11,14.37,16.68,16,23.73,12.56,9.32-4.58,14.32-14.32,5.6-27.84-9.32-14.47-6.51-20.8-3.82-23.36l1.56-.19,3.6,11.39,4.72.29c3.28.2,6.44.3,9.5.3,64.31,0,80.87-42.1,81.57-44a6.88,6.88,0,1,0-12.89-4.84c-.14.38-14.53,36.66-72.64,35l-5.61-17.77-6-19.14.06,0c43.43-17.88,51.87-53.22,53.05-72.71a47.88,47.88,0,0,0,9.41,3.81,6.88,6.88,0,1,0,2.95-13.44c-.38-.09-38.15-10.84-42.05-66.16l-5-70.25c-.11-1.46-.8-14.34,6.62-15.17a3.07,3.07,0,0,1,2.55.87c2.66,2.21,4.79,7.67,5.18,13.29l3,42.49a6.89,6.89,0,0,0,13.74-1L287.21,237h0l-4-56.64c-.42-6,1.56-15.25,8.76-15.94a6.21,6.21,0,0,1,4.91,1.49c2.81,2.39,4.88,7.53,5.28,13.11,0,0,0,.06,0,.1l4.7,66.49a6.87,6.87,0,0,0,6.86,6.4l.49,0a6.88,6.88,0,0,0,6.38-7.35l-6.06-85.94c-.53-7.45,3.88-15.49,8.74-15.94a6.21,6.21,0,0,1,4.86,1.53c2.85,2.43,4.95,7.56,5.34,13.07l6.06,85.94a6.89,6.89,0,1,0,13.74-1l-4-57.19a1.62,1.62,0,0,0,0-.22c-.41-5.89,1.56-15.42,8.61-15.93a6.83,6.83,0,0,1,5.3,1.63c2.71,2.34,4.64,7.31,5,13l6,85.68h0v.1l1.23,17.38a6.33,6.33,0,0,0,.12.76c0,.16,0,.32.08.48a7.82,7.82,0,0,0,.39,1.09l.06.13a6.86,6.86,0,0,0,5.06,3.83l.35,0a7,7,0,0,0,.8.07h.49a5.78,5.78,0,0,0,.6-.11c.23,0,.46-.06.68-.11a6.56,6.56,0,0,0,.62-.23,6.08,6.08,0,0,0,.64-.25,5.15,5.15,0,0,0,.56-.33c.2-.12.39-.23.58-.37s.31-.28.47-.42.34-.3.49-.47.26-.34.39-.51a5.58,5.58,0,0,0,.39-.56c.11-.18.19-.38.29-.57s.2-.41.28-.62A5.33,5.33,0,0,0,389,288c.06-.22.12-.43.16-.65s0-.49,0-.73a5.3,5.3,0,0,0,0-.57c-.11-2.84-.59-9.12-.94-13.7l-.3-3.93v-.06c-.85-12,1-21.38,5.43-27.18,2.11-2.78,11.43-12,18.56-6.67,3,2.3,2.52,7.44-1.42,13.74-8.61,13.75-5.76,28.92-3.9,38.81,5,30.31-4.89,48.68-14.09,58.75a54.7,54.7,0,0,1-8.54,7.53,7,7,0,0,0-1.36.95c-9.51,6.39-19.73,8.92-27.11,8.39a6.88,6.88,0,1,0-1,13.73q1.58.12,3.18.12c8.62,0,17.76-2.58,26.29-7.08l30.58,73.95c-1.26,2.61-5.24,8.46-16.45,10.72a6.88,6.88,0,0,0,1.36,13.63,7,7,0,0,0,1.36-.13c9.35-1.89,15.57-5.72,19.74-9.68l5,12-4,2.24h0l-18.2,10.16-11.49,6.41-66.36-88.64a6.88,6.88,0,1,0-11,8.25l65.25,87.16h0L415.28,543l36.42-20.31-5.24-8.78A63.36,63.36,0,0,0,471,504.36C485,494.85,485.09,482.68,481.65,476.71Z"/><path class="cls-2" d="M306.75,441.76a8.26,8.26,0,0,1-6.72,8.5,6.89,6.89,0,0,0,1.24,13.66,6.69,6.69,0,0,0,1.25-.12,22.06,22.06,0,0,0,18-22.26,6.77,6.77,0,0,0-7-6.78A6.88,6.88,0,0,0,306.75,441.76Z"/><path class="cls-2" d="M311.23,270.67c-3.64,1-5.8,6.2-4.83,11.66s4.71,9.09,8.36,8.1,5.8-6.2,4.83-11.66S314.87,269.69,311.23,270.67Z"/><path class="cls-2" d="M360.08,290.43c3.64-1,5.8-6.2,4.83-11.66s-4.72-9.08-8.36-8.1-5.8,6.2-4.83,11.66S356.43,291.42,360.08,290.43Z"/><path class="cls-2" d="M320.63,321.1a6.89,6.89,0,0,0,6.85,6.21,5.27,5.27,0,0,0,.68,0l23-2.27-7.92-35.58a6.89,6.89,0,0,0-13.44,3l4.54,20.4-7.53.75A6.89,6.89,0,0,0,320.63,321.1Z"/><path class="cls-2" d="M316,343.36a6.89,6.89,0,0,0,2.44,9.43,36.63,36.63,0,0,0,50.12-13,6.89,6.89,0,0,0-11.87-7,22.86,22.86,0,0,1-31.27,8.1A6.88,6.88,0,0,0,316,343.36Z"/></g></svg>