<svg id="Layer_3" data-name="Layer 3" xmlns="http://www.w3.org/2000/svg" viewBox="0 0 1080 672"><defs><style>.cls-1{fill:#ff5c35;}.cls-2{fill:#fff;}.cls-3{fill:none;}.cls-4{fill:#ff8863;}</style></defs><rect class="cls-1" width="1080" height="672"/><path class="cls-2" d="M621.29,507.41l-25.95-48.79-13.56,3.26-1,55.24a6,6,0,0,0,5.89,6.11h.11a6,6,0,0,0,6-5.89l.08-4.66,15.61-3.75,2.18,4.11a6,6,0,0,0,10.6-5.63Zm-28.18-7.12.34-19.66L602.69,498Z"/><path class="cls-2" d="M692.57,473.54,665,426l-10.38,6,6,34.27L633.84,444l-10.37,6L651,497.6a6,6,0,0,0,10.39-6L651.29,474.1l14.11,11.71,9.81-5.68-3.16-18.07,10.14,17.49a6,6,0,0,0,10.38-6Z"/><path class="cls-2" d="M546,514H528V466H516v60h30a6,6,0,0,0,0-12Z"/><path class="cls-2" d="M468.37,453.39,438.5,499.88a6,6,0,0,0,10.09,6.49l2.52-3.91,15.25,5-.31,4.64a6,6,0,0,0,5.6,6.38h.4a6,6,0,0,0,6-5.61l3.59-55.14ZM457.81,492l10.63-16.54-1.28,19.62Z"/><path class="cls-2" d="M397.84,483.07a17,17,0,0,1-14-26.65,6,6,0,0,1,9.88,6.81,5,5,0,1,0,8.23,5.68l1.71-2.47a5,5,0,0,0-1.28-7,17,17,0,0,1-4.35-23.64l1.7-2.47a17,17,0,0,1,28,19.29,6,6,0,1,1-9.88-6.8,5,5,0,0,0,.8-3.75,5,5,0,0,0-9-1.93l-1.7,2.47a5,5,0,0,0,1.28,7,17,17,0,0,1,4.35,23.65l-1.71,2.47A17,17,0,0,1,397.84,483.07Z"/><rect class="cls-3" x="272" y="146" width="536" height="320"/><circle class="cls-2" cx="756" cy="410" r="16"/><path class="cls-2" d="M768,274v52a12,12,0,0,1-24,0V210H704V326a52,52,0,0,0,104,0V274Z"/><path class="cls-2" d="M648,326a12,12,0,0,1-24,0V274H584v52a12,12,0,0,1-24,0V274H520v22.5a60.16,60.16,0,0,0-6.85-12.91h0l-24.73-35.33,19-27.1-32.76-22.95L464,213.39,445.53,187,412.77,210l26.81,38.3-24.73,35.33h0a59.68,59.68,0,0,0-9.45,21.57,56,56,0,1,0-104.46,39.73,56,56,0,0,0-28.94,49v20h40v-20a16,16,0,0,1,16-16h21.76c.75,0,1.48.11,2.24.11a56,56,0,0,0,54.45-43.15,60,60,0,0,0,114.61,1.62A51.91,51.91,0,0,0,604,366.9,51.92,51.92,0,0,0,688,326V274H648ZM352,338v-.11h-1.12A15.11,15.11,0,1,1,352,338Zm112,0a20.27,20.27,0,0,1-20-20,19.86,19.86,0,0,1,3.62-11.47L464,283.13l16.38,23.4A19.86,19.86,0,0,1,484,318,20.27,20.27,0,0,1,464,338Z"/><path class="cls-4" d="M540,526.5A268.49,268.49,0,0,1,271.5,258h1a267.5,267.5,0,0,0,535,0h1A268.49,268.49,0,0,1,540,526.5Z"/><path class="cls-4" d="M658.33,494.7a32.47,32.47,0,1,1,16.24-4.37A32.52,32.52,0,0,1,658.33,494.7Zm-.11-64a31.5,31.5,0,1,0,27.3,15.7A31.34,31.34,0,0,0,658.22,430.71Z"/><rect class="cls-4" x="590.58" y="244.27" width="1" height="204" transform="translate(-93.95 343.03) rotate(-30.09)"/><path class="cls-4" d="M595.1,520a32.49,32.49,0,1,1,7.59-.9A32.55,32.55,0,0,1,595.1,520Zm0-64a31,31,0,0,0-7.36.88,31.46,31.46,0,1,0,7.36-.88Z"/><rect class="cls-4" x="563.3" y="255.18" width="1" height="204" transform="translate(-67.83 141.57) rotate(-13.51)"/><path class="cls-4" d="M540,526.5A32.5,32.5,0,1,1,572.5,494,32.54,32.54,0,0,1,540,526.5Zm0-64A31.5,31.5,0,1,0,571.5,494,31.53,31.53,0,0,0,540,462.5Z"/><rect class="cls-4" x="539.5" y="258" width="1" height="204"/><path class="cls-4" d="M466.27,514.69a32.51,32.51,0,1,1,30.84-22.36l-.48-.15.48.15a32.55,32.55,0,0,1-30.84,22.36Zm0-64a31.5,31.5,0,1,0,9.83,1.58A31.55,31.55,0,0,0,466.26,450.67Z"/><rect class="cls-4" x="406.14" y="354.39" width="204" height="1" transform="translate(12.08 726.48) rotate(-71.77)"/><path class="cls-4" d="M406.06,484.84a32.51,32.51,0,1,1,26.82-14.07h0a32.65,32.65,0,0,1-26.82,14.07Zm.13-64a32.15,32.15,0,0,0-5.76.53,31.5,31.5,0,1,0,31.63,48.86h0a31.51,31.51,0,0,0-25.87-49.39Z"/><rect class="cls-4" x="380.18" y="341.5" width="204" height="1" transform="translate(-72.96 545.18) rotate(-55.45)"/><rect class="cls-4" x="807.5" width="1" height="672"/><rect class="cls-4" x="271.5" width="1" height="672"/></svg>