<svg xmlns="http://www.w3.org/2000/svg" viewBox="0 0 1080 672"><g id="Layer_1" data-name="Layer 1"><path d="M667.67,266H636.33L603.46,390.16a14,14,0,0,0,27.08,7.17L633.8,385h36.4l3.26,12.33a14,14,0,0,0,27.08-7.17Zm-26.46,91L652,316.21,662.79,357Z"/><path d="M394.67,266H363.33L330.46,390.16a14,14,0,0,0,27.08,7.17L360.8,385h36.4l3.26,12.33a14,14,0,0,0,27.08-7.17Zm-26.46,91L379,316.21,389.79,357Z"/><path d="M841,266l-28,76.18L785,266H757V393.75a14,14,0,0,0,28,0V347.16L798.92,385h28.16L841,347.16v46.59a14,14,0,0,0,28,0V266Z"/><path d="M249.5,292.25a10.51,10.51,0,0,1,10.5,10.5,14,14,0,0,0,28,0,38.5,38.5,0,1,0-77,0v8.75a38.57,38.57,0,0,0,30.75,37.71,38.16,38.16,0,0,0,7.75.79A10.51,10.51,0,0,1,260,360.5v8.75a10.5,10.5,0,0,1-21,0,14,14,0,0,0-28,0A38.57,38.57,0,0,0,241.75,407a38.41,38.41,0,0,0,15.5,0A38.57,38.57,0,0,0,288,369.25V360.5A38.46,38.46,0,0,0,249.5,322,10.51,10.51,0,0,1,239,311.5v-8.75A10.51,10.51,0,0,1,249.5,292.25Z"/><path d="M547,378H512V266H484V406h63a14,14,0,0,0,0-28Z"/></g></svg>