<svg xmlns="http://www.w3.org/2000/svg" viewBox="0 0 152 246.99"><g id="Isolation_Mode" data-name="Isolation Mode"><path d="M66.57,103.88a2,2,0,0,0,.36,4,1.47,1.47,0,0,0,.36,0,7,7,0,0,0,5.66-7,2,2,0,0,0-2-2,2,2,0,0,0-2,2A2.92,2.92,0,0,1,66.57,103.88Z"/><path d="M68.67,45.78c-1.19.32-1.9,2-1.58,3.82s1.54,3,2.74,2.66,1.9-2,1.58-3.83S69.86,45.45,68.67,45.78Z"/><path d="M72,62.17A2,2,0,0,0,74,64h.2l7.21-.71L78.85,52a2,2,0,1,0-3.91.87l1.54,6.9L73.76,60A2,2,0,0,0,72,62.17Z"/><path d="M70.44,69.55a2,2,0,0,0,.71,2.74,11.59,11.59,0,0,0,5.9,1.61A11.85,11.85,0,0,0,80,73.53a11.57,11.57,0,0,0,7.12-5.38,2,2,0,0,0-3.45-2,7.66,7.66,0,0,1-10.48,2.72A2,2,0,0,0,70.44,69.55Z"/><path d="M124.42,118.94A9,9,0,0,0,114,115l-4.54,1.47-2.08-5.09,3.22-1.8L96.23,75a22.67,22.67,0,0,0,2-1.92c3.63-4,7.54-11.11,5.63-22.68-.68-3.59-1.09-6.8.68-9.63,3-4.84,1.69-8.39-.58-10.1-4.17-3.14-9-.41-11.43,2.36l-1.11-15.8a10.38,10.38,0,0,0-3.09-7.12,6.43,6.43,0,0,0-4.81-1.55,6.27,6.27,0,0,0-3.31,1.19l-.08-1a10.48,10.48,0,0,0-3.21-7.18A6.25,6.25,0,0,0,72.2,0c-3.66.34-6.13,4-6.61,7.73A6.29,6.29,0,0,0,62,7.07c-4.8.46-7,5.22-6.68,9.7l.54,7.62A5,5,0,0,0,53.25,24c-4,.44-6.28,4.15-5.91,9.44L49,56.25h0l0,.45a.68.68,0,0,0,0,.14c.93,11.13,5.66,17.43,9.88,20.88.43,3,1.23,15.26-13,22.22l-1.84.87L41.28,102h0l-14.36,6.43,6.62,24.46,1.88-.44a9.62,9.62,0,0,0,7.46-10.2l-.33-4.24,6-1,1.1,2.71,1.37,0c22.22-.35,27.24-13.36,27.44-13.91a2,2,0,0,0-3.75-1.39c-.17.44-4.24,10.5-22.39,11.26l-4.87-12,.19-.09C60.84,97.08,63,86.31,63,80.41a16.28,16.28,0,0,0,2.93,1.18,2.1,2.1,0,0,0,.43,0,2,2,0,0,0,.43-4c-.13,0-12.57-3.56-13.86-21.71L51.33,33.14c0-.5-.27-4.89,2.37-5.19a1.24,1.24,0,0,1,1,.34,6.78,6.78,0,0,1,1.77,4.48l1,13.81a2,2,0,1,0,4-.28l-.81-11.41h0l-1.3-18.4c-.14-2.06.55-5.2,3.06-5.44a2.24,2.24,0,0,1,1.77.54A6.54,6.54,0,0,1,66,16s0,0,0,0l1.52,21.61a2,2,0,0,0,2,1.85h.14a2,2,0,0,0,1.85-2.14l-2-27.92C69.33,6.91,70.88,4.17,72.57,4a2.23,2.23,0,0,1,1.75.56A6.6,6.6,0,0,1,76.14,9l2,27.93a2,2,0,1,0,4-.29L80.79,18s0-.05,0-.07c-.14-2,.56-5.26,3-5.44a2.51,2.51,0,0,1,1.9.59,6.5,6.5,0,0,1,1.71,4.38L89.79,51c0,.08,0,.15,0,.23s0,.09,0,.12a2,2,0,0,0,.88,1.21l.14.06.19.1a1.66,1.66,0,0,0,.21.06l.16,0a.75.75,0,0,0,.21,0l.14,0h.15a1,1,0,0,0,.17,0l.2,0,.18-.07.19-.07.16-.1.16-.1a.86.86,0,0,0,.14-.13l.15-.13.11-.15a.91.91,0,0,0,.11-.16.89.89,0,0,0,.08-.17l.09-.18c0-.06,0-.13,0-.19s0-.12,0-.19a1.48,1.48,0,0,0,0-.21.49.49,0,0,0,0-.17c0-.91-.19-2.94-.3-4.42l-.1-1.31c-.28-4,.35-7.07,1.81-9,.72-.94,3.89-4.07,6.36-2.21,1.1.83,1,2.61-.4,4.78C98.4,43,99.32,47.9,99.92,51.08c1.65,10-1.61,16-4.64,19.29-3.82,4.18-8.89,5.8-12.22,5.56a2,2,0,0,0-2.14,1.84,2,2,0,0,0,1.85,2.15q.49,0,1,0a18.6,18.6,0,0,0,9.08-2.61l9,21.71c-.39.85-1.71,2.91-5.56,3.69a2,2,0,0,0,.4,4,1.72,1.72,0,0,0,.39,0,12.32,12.32,0,0,0,6.55-3.32l1.83,4.43-11.33,6.32L74,87.68a2,2,0,1,0-3.18,2.43l22.24,29.16h0l1.49,2h0l9,11.72,21.93-12.23Zm-82.19-4.89-.62-7.77,2.17-1L47,113.23Zm54.38,3.25,7.2-4,1.78,4.36-7,2.27Z"/><path d="M84.55,52.26c1.2-.33,1.91-2,1.59-3.83s-1.55-3-2.74-2.65-1.9,2-1.59,3.82S83.36,52.58,84.55,52.26Z"/><path d="M77,243H72V227H68v20h9a2,2,0,0,0,0-4Z"/><path d="M30,230.23a5.51,5.51,0,0,1-4.17-9.08,2,2,0,0,1,3,2.61,1.5,1.5,0,0,0,.17,2.11,1.52,1.52,0,0,0,1.09.36,1.49,1.49,0,0,0,1-.52l.81-1a1.5,1.5,0,0,0-.16-2.12,5.48,5.48,0,0,1-.6-7.75l.81-.95a5.52,5.52,0,0,1,7.76-.6,5.51,5.51,0,0,1,.6,7.75,2,2,0,0,1-3-2.6,1.49,1.49,0,0,0,.36-1.09,1.54,1.54,0,0,0-.52-1,1.5,1.5,0,0,0-2.12.16l-.81,1a1.49,1.49,0,0,0,.16,2.11,5.5,5.5,0,0,1,.6,7.76l-.81.95a5.49,5.49,0,0,1-3.75,1.91Z"/><path d="M125.56,226.87,115,212l-3.26,2.31,3,11.19L105.2,219l-3.26,2.32,10.58,14.87a2,2,0,0,0,3.26-2.32l-3.86-5.42,4.75,3.25,3.28-2.33-1.51-5.56,3.86,5.43a2,2,0,0,0,3.26-2.32Z"/><path d="M101.88,240.4l-9.15-15.9-4.32,1.16L88.49,244a2,2,0,0,0,2,2h0a2,2,0,0,0,2-2v-1.82l5-1.35.91,1.58a2,2,0,0,0,3.47-2ZM92.46,238l0-6,3,5.22Z"/><path d="M53.4,222.29,42.53,237.08a2,2,0,0,0,3.23,2.37L46.84,238l4.83,1.91-.21,1.8a2,2,0,0,0,1.76,2.22l.23,0a2,2,0,0,0,2-1.77l2.12-18.23Zm-1.25,13.49-2.86-1.13,3.56-4.86Z"/><path d="M140,170.94v15a3,3,0,0,1-6,0v-33H122v33a15,15,0,0,0,30,0v-15Z"/><path d="M106,185.94a3,3,0,0,1-6,0v-15H88v15a3,3,0,0,1-6,0v-15H70v7.28a17.09,17.09,0,0,0-2.07-4l-6.6-9.43,5.87-8.39-9.83-6.88L54,154.3,48.2,146l-9.83,6.88,8.31,11.86-6.61,9.43a16.92,16.92,0,0,0-2.71,6.31A16,16,0,0,0,6,184.94a15.84,15.84,0,0,0,1.41,6.53A16,16,0,0,0,0,204.94v4H12v-4a4,4,0,0,1,4-4h6A16,16,0,0,0,37.61,188.4a17,17,0,0,0,32.67.41A15,15,0,0,0,85,200.94a14.85,14.85,0,0,0,9-3,14.85,14.85,0,0,0,9,3,15,15,0,0,0,15-15v-15H106Zm-84,3a4,4,0,1,1,4-4A4,4,0,0,1,22,188.94Zm32,0a5.07,5.07,0,0,1-5-5,5,5,0,0,1,.9-2.87l4.1-5.85,4.1,5.85a5,5,0,0,1,.9,2.87A5.07,5.07,0,0,1,54,188.94Z"/><path d="M137,205a4,4,0,1,0,4,4A4,4,0,0,0,137,205Z"/></g></svg>