<svg xmlns="http://www.w3.org/2000/svg" viewBox="0 0 672 672"><g id="Layer_1" data-name="Layer 1"><path d="M279.63,428.29a6,6,0,0,0,1.08,11.9,5.82,5.82,0,0,0,1.09-.1,20.83,20.83,0,0,0,17-21,6.13,6.13,0,0,0-6.1-5.9,6,6,0,0,0-5.9,6.1A8.75,8.75,0,0,1,279.63,428.29Z"/><path d="M285.93,263.78c-3.58.49-5.71,3.05-4.75,5.74s4.63,4.47,8.22,4,5.71-3.05,4.75-5.73S289.51,263.3,285.93,263.78Z"/><path d="M295.82,303.17a6,6,0,0,0,6,5.41l.6,0L324,306.41l-7.55-33.9a6,6,0,0,0-11.71,2.61l4.61,20.68-8.15.81A6,6,0,0,0,295.82,303.17Z"/><path d="M335.6,313.81l-40.84,10.58c-4,1-5.24,6.33-1.92,8.78.17.12.34.24.52.35a35,35,0,0,0,47.89-12.41c.11-.18.2-.37.29-.55C343.26,316.8,339.6,312.77,335.6,313.81Z"/><path d="M515.09,498.82a27,27,0,0,0-31.43-12l-58.07,18.93-6.25-15.27,9.68-5.4L368.6,341.62a66.83,66.83,0,0,0,6-5.77c10.87-11.89,22.62-33.33,16.87-68-2-10.77-3.27-20.37,2.05-28.88,9.08-14.52,5.06-25.16-1.74-30.28-12.51-9.43-26.92-1.24-34.29,7.07l-3.35-47.42c-.63-9-4-16.79-9.25-21.34a20,20,0,0,0-24.37-1.1l-.22-3.12c-.63-8.87-4.24-16.93-9.66-21.53a18.75,18.75,0,0,0-14.14-4.47c-11,1-18.38,12-19.82,23.19A19,19,0,0,0,266,137.86c-14.4,1.37-21,15.67-20,29.09l1.61,22.87a15.37,15.37,0,0,0-7.89-1.23C227.78,189.92,220.82,201,222,216.91l4.83,68.49h0l.1,1.37c0,.13.05.26.06.4,2.81,33.4,17,52.29,29.66,62.63,1.27,8.92,3.69,45.8-39,66.68l-5.54,2.6-8.27,3.7h0l-43.07,19.28,25.85,113.28,5.63-1.31a28.88,28.88,0,0,0,22.39-30.59l-7-52.64,17.93-3.08,3.29,8.13,4.11-.07c66.67-1,81.71-40.06,82.31-41.72A6,6,0,0,0,304,429.89c-.51,1.31-12.7,31.48-67.16,33.77l-1.61-4-13-32.13.56-.27c39.71-19.4,46-51.7,46.21-69.42a47.06,47.06,0,0,0,8.79,3.54,5.66,5.66,0,0,0,1.29.14,6,6,0,0,0,1.28-11.86c-.37-.08-37.72-10.7-41.56-65.14l-4.83-68.5c-.11-1.49-.81-14.66,7.09-15.55a3.73,3.73,0,0,1,3,1c2.76,2.3,4.89,7.7,5.3,13.44l.51,7.21h0l2.42,34.23a6,6,0,0,0,12-.84l-2.92-41.43v0l-3.38-48c-.44-6.16,1.65-15.58,9.18-16.3a6.73,6.73,0,0,1,5.31,1.62c2.93,2.48,5,7.56,5.4,13.27,0,0,0,.07,0,.11l4.58,64.81a6,6,0,0,0,6,5.58l.43,0a6,6,0,0,0,5.56-6.4L288.46,145c-.54-7.6,4.09-15.83,9.16-16.3a6.72,6.72,0,0,1,5.27,1.66c2.92,2.49,5.06,7.68,5.46,13.24l5.91,83.78a6,6,0,1,0,12-.84l-3.93-55.74c0-.08,0-.16,0-.24-.42-6,1.66-15.76,9.05-16.29a7.32,7.32,0,0,1,5.7,1.76c2.81,2.44,4.74,7.35,5.14,13.12l7.1,100.6a5.48,5.48,0,0,0,.1.56,4.5,4.5,0,0,0,.08.51c.06.21.14.41.21.61s.11.31.18.46.21.37.32.56a4.37,4.37,0,0,0,.25.4,3.89,3.89,0,0,0,.42.49c.1.11.2.24.31.35a6.12,6.12,0,0,0,.5.39,3.47,3.47,0,0,0,.38.29,5.49,5.49,0,0,0,.59.31c.13.07.26.15.4.21s.48.15.73.22.23.08.35.1a5.64,5.64,0,0,0,1.16.12h.43a4.89,4.89,0,0,0,.53-.09,5.86,5.86,0,0,0,.58-.1,5.14,5.14,0,0,0,.55-.2c.19-.07.38-.13.56-.21s.32-.19.48-.29.34-.2.5-.32.28-.25.42-.37l.43-.41c.12-.14.23-.3.34-.45s.24-.31.34-.48a5.12,5.12,0,0,0,.25-.53c.08-.17.17-.33.24-.51a6.06,6.06,0,0,0,.16-.61,4.54,4.54,0,0,0,.12-.53,4.63,4.63,0,0,0,0-.65,3.87,3.87,0,0,0,0-.48c-.11-2.75-.58-8.83-.91-13.26l-.3-4c-.84-11.86,1-21.19,5.44-27,2.15-2.83,11.66-12.23,19.08-6.64,3.3,2.49,2.85,7.85-1.21,14.34-8.24,13.17-5.49,27.78-3.7,37.33,4.94,29.83-4.83,47.93-13.91,57.86-11.47,12.55-26.65,17.39-36.65,16.68a6,6,0,1,0-.89,12c1,.08,2,.11,3.06.11,8.94,0,18.51-2.83,27.25-7.83l44.46,105c-1.16,2.56-5.1,8.75-16.65,11.08a6,6,0,0,0,1.18,11.88,6.08,6.08,0,0,0,1.19-.12c9.52-1.92,15.67-5.93,19.63-9.95l5.51,13.27-34,19L302,379.7a6,6,0,1,0-9.54,7.28l112,170L518.18,504.1Zm-308.48-40-1.85-23.31,6.49-2.91,9.63,23.77ZM387.2,508.42l21.59-12,5.35,13.09-20.95,6.79Z"/><ellipse cx="331.85" cy="263.7" rx="6.67" ry="9.91" transform="translate(-25.38 35.56) rotate(-5.91)"/></g></svg>