<svg xmlns="http://www.w3.org/2000/svg" viewBox="0 0 94 20.5"><g id="Layer_1" data-name="Layer 1"><path d="M65.24.25H60.76L56.07,18a2,2,0,1,0,3.86,1l.47-1.76h5.2L66.07,19A2,2,0,0,0,68,20.5a1.79,1.79,0,0,0,.51-.07A2,2,0,0,0,69.93,18Zm-3.78,13L63,7.42l1.54,5.83Z"/><path d="M26.24.25H21.76L17.07,18a2,2,0,1,0,3.86,1l.47-1.76h5.2L27.07,19A2,2,0,0,0,29,20.5a1.79,1.79,0,0,0,.51-.07A2,2,0,0,0,30.93,18Zm-3.78,13L24,7.42l1.54,5.83Z"/><path d="M90,.25,86,11.13,82,.25H78V18.5a2,2,0,0,0,4,0V11.84l2,5.41h4l2-5.41V18.5a2,2,0,0,0,4,0V.25Z"/><path d="M5.5,4A1.5,1.5,0,0,1,7,5.5a2,2,0,0,0,4,0A5.51,5.51,0,0,0,6.61.11a5.66,5.66,0,0,0-2.22,0A5.51,5.51,0,0,0,0,5.5V6.75a5.52,5.52,0,0,0,4.39,5.39,5.8,5.8,0,0,0,1.11.11A1.5,1.5,0,0,1,7,13.75V15a1.5,1.5,0,0,1-3,0,2,2,0,0,0-4,0,5.52,5.52,0,0,0,4.39,5.39,5.66,5.66,0,0,0,2.22,0A5.52,5.52,0,0,0,11,15V13.75A5.51,5.51,0,0,0,6.61,8.36,5.8,5.8,0,0,0,5.5,8.25,1.5,1.5,0,0,1,4,6.75V5.5A1.5,1.5,0,0,1,5.5,4Z"/><path d="M48,16.25H43V.25H39v20h9a2,2,0,0,0,0-4Z"/></g></svg>