<svg xmlns="http://www.w3.org/2000/svg" viewBox="0 0 1080 672"><defs><style>.cls-1{fill:#ef5330;}.cls-2{fill:#fff;}.cls-3{fill:#ff7761;}</style></defs><g id="Layer_3" data-name="Layer 3"><rect class="cls-1" width="1080" height="672"/></g><g id="Layer_1" data-name="Layer 1"><path class="cls-2" d="M543,495.44H528v-48H516v60h27a6,6,0,0,0,0-12Z"/><path class="cls-2" d="M401.92,457.18A16.5,16.5,0,0,1,389.41,430a6,6,0,1,1,9.11,7.8,4.5,4.5,0,0,0,6.84,5.85l2.44-2.84a4.51,4.51,0,0,0,1.07-3.28,4.46,4.46,0,0,0-1.56-3.07,16.49,16.49,0,0,1-1.8-23.26l2.43-2.85A16.5,16.5,0,1,1,433,429.76,6,6,0,0,1,423.9,422a4.5,4.5,0,0,0-6.84-5.85L414.62,419a4.49,4.49,0,0,0,.49,6.34,16.5,16.5,0,0,1,1.8,23.27l-2.43,2.85a16.4,16.4,0,0,1-11.26,5.72C402.78,457.16,402.35,457.18,401.92,457.18Z"/><path class="cls-2" d="M688.66,447.09l-31.72-44.62-9.77,6.95L656.3,443l-28.71-19.64-9.77,7,31.73,44.62a6,6,0,0,0,9.78-7l-11.58-16.27L662,461.44l9.84-7-4.53-16.67,11.57,16.28a6,6,0,1,0,9.77-7Z"/><path class="cls-2" d="M617.63,487.69,590.19,440l-13,3.49.24,55.05a6,6,0,0,0,6,6h0a6,6,0,0,0,6-6l0-5.47,15.06-4.06,2.73,4.74a6,6,0,1,0,10.4-6Zm-28.25-7.11-.08-18.08,9,15.67Z"/><path class="cls-2" d="M472.19,433.36,439.6,477.72a6,6,0,1,0,9.67,7.11l3.24-4.41L467,486.14l-.63,5.43a6,6,0,0,0,5.26,6.65,5.58,5.58,0,0,0,.7,0,6,6,0,0,0,6-5.3l6.38-54.67Zm-3.73,40.45-8.6-3.39,10.7-14.57Z"/><path class="cls-2" d="M732,279.31v45a9,9,0,0,1-18,0v-99H678v99a45,45,0,0,0,90,0v-45Z"/><path class="cls-2" d="M630,324.31a9,9,0,0,1-18,0v-45H576v45a9,9,0,0,1-18,0v-45H522v21.84a50.92,50.92,0,0,0-6.22-12.09L496,260.77l17.64-25.18-29.49-20.65L474,229.39l-17.4-24.85-29.49,20.65L452,260.77l-19.81,28.29A50.8,50.8,0,0,0,424.08,308a48,48,0,1,0-89.86,32.89A48,48,0,0,0,312,381.31v12h36v-12a12,12,0,0,1,12-12h18a48.07,48.07,0,0,0,46.84-37.63,51,51,0,0,0,98,1.23A44.88,44.88,0,0,0,594,360.22a44.91,44.91,0,0,0,72-35.91v-45H630Zm-252,9a12,12,0,1,1,12-12A12,12,0,0,1,378,333.31Zm96,0a15.2,15.2,0,0,1-15-15,14.92,14.92,0,0,1,2.71-8.6L474,292.16l12.29,17.55a14.92,14.92,0,0,1,2.71,8.6A15.2,15.2,0,0,1,474,333.31Z"/><path class="cls-2" d="M723,381.44a12,12,0,1,0,12,12A12,12,0,0,0,723,381.44Z"/><path class="cls-3" d="M540,508a228.5,228.5,0,0,1-228.5-228.5h1a227.5,227.5,0,1,0,455,0h1A228.5,228.5,0,0,1,540,508Z"/><path class="cls-3" d="M540,508a30.5,30.5,0,1,1,30.5-30.5A30.53,30.53,0,0,1,540,508Zm0-60a29.5,29.5,0,1,0,29.5,29.5A29.54,29.54,0,0,0,540,448Z"/><path class="cls-3" d="M411.16,460.37a30.5,30.5,0,1,1,23.22-10.66h0a30.3,30.3,0,0,1-20.81,10.57C412.76,460.34,412,460.37,411.16,460.37Zm.07-60a29.49,29.49,0,1,0,22.39,48.67h0a29.48,29.48,0,0,0-22.39-48.67Z"/><rect class="cls-3" x="401.36" y="342.77" width="168.01" height="1" transform="translate(-91.05 488.76) rotate(-49.44)"/><rect class="cls-3" x="539.5" y="279.46" width="1" height="168"/><path class="cls-3" d="M467.42,494.26a30.49,30.49,0,1,1,28.42-19.33h0A30.56,30.56,0,0,1,467.42,494.26Zm.07-60a29.51,29.51,0,1,0,10.77,2.05A29.56,29.56,0,0,0,467.49,434.26Z"/><path class="cls-3" d="M591.46,501.22a30.57,30.57,0,1,1,8-1.07A30.72,30.72,0,0,1,591.46,501.22Zm.1-60a29.56,29.56,0,1,0,14.66,3.95A29.22,29.22,0,0,0,591.56,441.19Z"/><rect class="cls-3" x="425.19" y="357.15" width="168.06" height="1" transform="translate(-10.19 700.33) rotate(-68.5)"/><rect class="cls-3" x="561.35" y="276.57" width="1" height="168.06" transform="translate(-74.45 158.53) rotate(-15.07)"/><rect class="cls-3" x="588.19" y="263.92" width="1" height="168.03" transform="translate(-92.7 405.54) rotate(-35.42)"/><path class="cls-3" d="M654.81,471.34a30.47,30.47,0,1,1,17.63-5.63A30.47,30.47,0,0,1,654.81,471.34Zm-.09-60a29.47,29.47,0,1,0,24.09,12.39A29.32,29.32,0,0,0,654.72,411.36Z"/><path class="cls-3" d="M1080,280h-2.22v-1H1080Zm-8.35,0h-7.35v-1h7.35Zm-13.47,0h-7.35v-1h7.35Zm-13.47,0h-7.35v-1h7.35Zm-13.47,0h-7.35v-1h7.35Zm-13.48,0h-7.34v-1h7.34Zm-13.47,0h-7.35v-1h7.35Zm-13.47,0h-7.35v-1h7.35Zm-13.47,0H970v-1h7.35Zm-13.47,0h-7.35v-1h7.35Zm-13.48,0h-7.35v-1h7.35Zm-13.47,0h-7.35v-1h7.35Zm-13.47,0h-7.35v-1h7.35ZM910,280h-7.35v-1H910Zm-13.48,0h-7.34v-1h7.34ZM883,280h-7.35v-1H883Zm-13.47,0h-7.35v-1h7.35Zm-13.47,0h-7.35v-1h7.35Zm-13.48,0h-7.34v-1h7.34Zm-13.47,0H821.8v-1h7.35Zm-13.47,0h-7.35v-1h7.35Zm-13.47,0h-7.35v-1h7.35Zm-13.47,0h-7.35v-1h7.35Zm-13.48,0h-7.34v-1h7.34Zm-13.47,0h-7.35v-1h7.35Zm-13.47,0H741v-1h7.35Zm-13.47,0H727.5v-1h7.35Zm-13.47,0H714v-1h7.35Zm-13.48,0h-7.35v-1h7.35Zm-13.47,0h-7.35v-1h7.35ZM681,280h-7.35v-1H681Zm-13.47,0h-7.35v-1h7.35ZM654,280h-7.34v-1H654Zm-13.47,0h-7.35v-1h7.35Zm-13.47,0h-7.35v-1h7.35Zm-13.47,0h-7.35v-1h7.35Zm-13.48,0h-7.34v-1h7.34Zm-13.47,0H579.3v-1h7.35Zm-13.47,0h-7.35v-1h7.35Zm-13.47,0h-7.35v-1h7.35Zm-13.47,0h-7.35v-1h7.35Zm-13.48,0h-7.34v-1h7.34Zm-13.47,0h-7.35v-1h7.35Zm-13.47,0h-7.35v-1h7.35Zm-13.47,0H485v-1h7.35Zm-13.47,0h-7.35v-1h7.35Zm-13.48,0h-7.35v-1h7.35Zm-13.47,0h-7.35v-1h7.35Zm-13.47,0h-7.35v-1h7.35ZM425,280h-7.35v-1H425Zm-13.48,0h-7.34v-1h7.34ZM398,280h-7.35v-1H398Zm-13.47,0h-7.35v-1h7.35Zm-13.47,0h-7.35v-1h7.35Zm-13.48,0h-7.34v-1h7.34Zm-13.47,0H336.8v-1h7.35Zm-13.47,0h-7.35v-1h7.35Zm-13.47,0h-7.35v-1h7.35Zm-13.47,0h-7.35v-1h7.35Zm-13.48,0h-7.34v-1h7.34Zm-13.47,0h-7.35v-1h7.35Zm-13.47,0H256v-1h7.35Zm-13.47,0H242.5v-1h7.35Zm-13.47,0H229v-1h7.35Zm-13.48,0h-7.35v-1h7.35Zm-13.47,0h-7.35v-1h7.35ZM196,280h-7.35v-1H196Zm-13.47,0h-7.35v-1h7.35ZM169,280h-7.34v-1H169Zm-13.47,0h-7.35v-1h7.35Zm-13.47,0h-7.35v-1h7.35Zm-13.47,0h-7.35v-1h7.35Zm-13.47,0h-7.35v-1h7.35Zm-13.48,0H94.31v-1h7.34Zm-13.47,0H80.83v-1h7.35Zm-13.47,0H67.36v-1h7.35Zm-13.47,0H53.89v-1h7.35Zm-13.48,0H40.42v-1h7.34Zm-13.47,0H26.94v-1h7.35Zm-13.47,0H13.47v-1h7.35ZM7.35,280H0v-1H7.35Z"/><rect class="cls-3" x="311.5" width="1" height="672"/><rect class="cls-3" x="767.5" width="1" height="672"/><path class="cls-3" d="M1080,403h-2.22v-1H1080Zm-8.35,0h-7.35v-1h7.35Zm-13.47,0h-7.35v-1h7.35Zm-13.47,0h-7.35v-1h7.35Zm-13.47,0h-7.35v-1h7.35Zm-13.48,0h-7.34v-1h7.34Zm-13.47,0h-7.35v-1h7.35Zm-13.47,0h-7.35v-1h7.35Zm-13.47,0H970v-1h7.35Zm-13.47,0h-7.35v-1h7.35Zm-13.48,0h-7.35v-1h7.35Zm-13.47,0h-7.35v-1h7.35Zm-13.47,0h-7.35v-1h7.35ZM910,403h-7.35v-1H910Zm-13.48,0h-7.34v-1h7.34ZM883,403h-7.35v-1H883Zm-13.47,0h-7.35v-1h7.35Zm-13.47,0h-7.35v-1h7.35Zm-13.48,0h-7.34v-1h7.34Zm-13.47,0H821.8v-1h7.35Zm-13.47,0h-7.35v-1h7.35Zm-13.47,0h-7.35v-1h7.35Zm-13.47,0h-7.35v-1h7.35Zm-13.48,0h-7.34v-1h7.34Zm-13.47,0h-7.35v-1h7.35Zm-13.47,0H741v-1h7.35Zm-13.47,0H727.5v-1h7.35Zm-13.47,0H714v-1h7.35Zm-13.48,0h-7.35v-1h7.35Zm-13.47,0h-7.35v-1h7.35ZM681,403h-7.35v-1H681Zm-13.47,0h-7.35v-1h7.35ZM654,403h-7.34v-1H654Zm-13.47,0h-7.35v-1h7.35Zm-13.47,0h-7.35v-1h7.35Zm-13.47,0h-7.35v-1h7.35Zm-13.48,0h-7.34v-1h7.34Zm-13.47,0H579.3v-1h7.35Zm-13.47,0h-7.35v-1h7.35Zm-13.47,0h-7.35v-1h7.35Zm-13.47,0h-7.35v-1h7.35Zm-13.48,0h-7.34v-1h7.34Zm-13.47,0h-7.35v-1h7.35Zm-13.47,0h-7.35v-1h7.35Zm-13.47,0H485v-1h7.35Zm-13.47,0h-7.35v-1h7.35Zm-13.48,0h-7.35v-1h7.35Zm-13.47,0h-7.35v-1h7.35Zm-13.47,0h-7.35v-1h7.35ZM425,403h-7.35v-1H425Zm-13.48,0h-7.34v-1h7.34ZM398,403h-7.35v-1H398Zm-13.47,0h-7.35v-1h7.35Zm-13.47,0h-7.35v-1h7.35Zm-13.48,0h-7.34v-1h7.34Zm-13.47,0H336.8v-1h7.35Zm-13.47,0h-7.35v-1h7.35Zm-13.47,0h-7.35v-1h7.35Zm-13.47,0h-7.35v-1h7.35Zm-13.48,0h-7.34v-1h7.34Zm-13.47,0h-7.35v-1h7.35Zm-13.47,0H256v-1h7.35Zm-13.47,0H242.5v-1h7.35Zm-13.47,0H229v-1h7.35Zm-13.48,0h-7.35v-1h7.35Zm-13.47,0h-7.35v-1h7.35ZM196,403h-7.35v-1H196Zm-13.47,0h-7.35v-1h7.35ZM169,403h-7.34v-1H169Zm-13.47,0h-7.35v-1h7.35Zm-13.47,0h-7.35v-1h7.35Zm-13.47,0h-7.35v-1h7.35Zm-13.47,0h-7.35v-1h7.35Zm-13.48,0H94.31v-1h7.34Zm-13.47,0H80.83v-1h7.35Zm-13.47,0H67.36v-1h7.35Zm-13.47,0H53.89v-1h7.35Zm-13.48,0H40.42v-1h7.34Zm-13.47,0H26.94v-1h7.35Zm-13.47,0H13.47v-1h7.35ZM7.35,403H0v-1H7.35Z"/></g></svg>