<svg xmlns="http://www.w3.org/2000/svg" viewBox="0 0 1080 672"><g id="Layer_1" data-name="Layer 1"><path d="M521.14,296.77a4,4,0,0,0,.72,7.94,4.62,4.62,0,0,0,.73-.07,13.89,13.89,0,0,0,11.3-14,4.07,4.07,0,0,0-4.06-3.94,4,4,0,0,0-3.93,4.07A5.85,5.85,0,0,1,521.14,296.77Z"/><path d="M525.34,180.56c-2.39.65-3.81,4.07-3.17,7.65s3.09,6,5.48,5.32,3.81-4.07,3.17-7.65S527.73,179.92,525.34,180.56Z"/><path d="M531.93,213.36a4,4,0,0,0,4,3.6,2.75,2.75,0,0,0,.4,0l14.41-1.43-5-22.59a4,4,0,1,0-7.81,1.73L541,208.44l-5.43.54A4,4,0,0,0,531.93,213.36Z"/><path d="M528.88,228.11a4,4,0,0,0,1.42,5.48,23.15,23.15,0,0,0,11.79,3.23,23.59,23.59,0,0,0,5.88-.75,23.16,23.16,0,0,0,14.25-10.75,4,4,0,1,0-6.89-4.06,15.35,15.35,0,0,1-21,5.43A4,4,0,0,0,528.88,228.11Z"/><path d="M636.85,326.9a18,18,0,0,0-21-8l-9.07,2.94-4.17-10.18,6.45-3.61L580.45,239a42.74,42.74,0,0,0,4-3.84c7.25-7.93,15.09-22.22,11.25-45.37-1.35-7.18-2.17-13.58,1.37-19.25,6.06-9.68,3.37-16.77-1.16-20.19-8.35-6.28-17.95-.82-22.86,4.72l-2.23-31.62c-.43-6-2.67-11.19-6.17-14.23a13.31,13.31,0,0,0-16.25-.73l-.14-2.07c-.42-5.92-2.83-11.29-6.44-14.36a12.5,12.5,0,0,0-9.43-3c-7.32.68-12.26,8-13.22,15.46a12.67,12.67,0,0,0-7.15-1.38c-9.59.91-14,10.45-13.34,19.4l1.07,15.24a10.24,10.24,0,0,0-5.26-.82c-7.92.89-12.56,8.3-11.81,18.88l3.22,45.66h0l.06.91a2.56,2.56,0,0,0,0,.27c1.87,22.27,11.31,34.86,19.77,41.76.85,5.94,2.45,30.53-26,44.45l-3.69,1.73-5.52,2.47h0L441.84,306l13.25,48.91,3.76-.87a19.26,19.26,0,0,0,14.92-20.4l-.68-8.48,12-2.05,2.2,5.41,2.74,0c44.45-.7,54.47-26.71,54.87-27.82a4,4,0,0,0-2.35-5.1,4,4,0,0,0-5.15,2.33c-.33.88-8.46,21-44.77,22.51l-9.74-24.06.37-.18c26.48-12.93,30.68-34.47,30.81-46.28a31.36,31.36,0,0,0,5.86,2.36,3.67,3.67,0,0,0,.86.1,4,4,0,0,0,.86-7.91c-.25-.06-25.15-7.13-27.71-43.43l-3.22-45.66c-.07-1-.54-9.78,4.72-10.37a2.49,2.49,0,0,1,2,.67c1.84,1.54,3.26,5.14,3.53,9l1.95,27.62a4,4,0,0,0,8-.56l-1.61-22.82h0L506.67,122c-.29-4.1,1.1-10.39,6.12-10.86a4.47,4.47,0,0,1,3.54,1.08c1.95,1.65,3.33,5,3.6,8.85a.13.13,0,0,0,0,.06l3,43.21a4,4,0,0,0,4,3.72h.29a4,4,0,0,0,3.71-4.27l-4-55.85c-.35-5.08,2.73-10.56,6.12-10.87a4.46,4.46,0,0,1,3.51,1.11c2,1.65,3.37,5.11,3.63,8.82l4,55.86a4,4,0,0,0,8-.57l-2.63-37.17s0-.1,0-.15c-.28-4,1.1-10.5,6-10.86a5,5,0,0,1,3.8,1.18c1.87,1.63,3.16,4.9,3.43,8.75l4.73,67.06a3.85,3.85,0,0,0,.08.47c0,.08,0,.16,0,.24a4,4,0,0,0,1.77,2.41,2.24,2.24,0,0,0,.27.13,3,3,0,0,0,.8.32l.31.08.42,0,.3,0h.28c.12,0,.24,0,.35-.06l.4-.07c.12,0,.24-.09.36-.13s.25-.09.37-.15a2.17,2.17,0,0,0,.33-.19c.11-.07.22-.13.33-.21l.28-.25c.09-.09.19-.17.28-.27s.15-.2.22-.29.17-.22.24-.33.11-.22.16-.33a2.43,2.43,0,0,0,.16-.37c0-.12.07-.25.11-.38s.06-.25.08-.38,0-.28,0-.42,0-.22,0-.33c-.08-1.83-.39-5.88-.61-8.84l-.2-2.64c-.56-7.9.7-14.12,3.63-18,1.42-1.89,7.77-8.15,12.72-4.43,2.2,1.66,1.9,5.23-.81,9.56-5.49,8.78-3.66,18.52-2.47,24.89,3.3,19.88-3.22,31.95-9.27,38.57-7.65,8.37-17.78,11.6-24.43,11.12a4,4,0,1,0-.6,8c.68,0,1.36.08,2,.08a37.35,37.35,0,0,0,18.17-5.22l18,43.41c-.78,1.7-3.4,5.83-11.1,7.38a4,4,0,0,0,.78,7.92,4.33,4.33,0,0,0,.8-.07,24.65,24.65,0,0,0,13.08-6.64l3.67,8.85-22.66,12.64L536,264.38a4,4,0,1,0-6.36,4.85l44.5,58.32h0l3,3.91h0L595,354.9l43.88-24.47Zm-164.39-9.79-1.24-15.55,4.34-1.93L482,315.47Zm108.77,6.51,14.38-8,3.57,8.73-14,4.52Z"/><path d="M557.11,193.53c2.39-.65,3.81-4.07,3.17-7.65s-3.09-6-5.48-5.32-3.81,4.07-3.17,7.65S554.72,194.17,557.11,193.53Z"/><path d="M542,575H532V543h-8v40h18a4,4,0,0,0,0-8Z"/><path d="M447.94,549.48a11,11,0,0,1-8.33-18.16,4,4,0,0,1,6.07,5.21,3,3,0,0,0,4.56,3.9l1.63-1.9a3,3,0,0,0-.33-4.23,11,11,0,0,1-1.2-15.51l1.62-1.9a11,11,0,1,1,16.71,14.31A4,4,0,1,1,462.6,526a3,3,0,0,0-.33-4.22,3,3,0,0,0-4.23.32l-1.63,1.9a3,3,0,0,0,.33,4.23,11,11,0,0,1,1.2,15.51l-1.62,1.9a10.91,10.91,0,0,1-7.51,3.81A8.44,8.44,0,0,1,447.94,549.48Z"/><path d="M639.11,542.75,618,513l-6.52,4.63L617.53,540l-19.14-13.09-6.51,4.63L613,561.3a4,4,0,1,0,6.52-4.64l-7.71-10.85,9.5,6.51,6.56-4.67-3-11.11,7.71,10.85a4,4,0,1,0,6.52-4.64Z"/><path d="M591.75,569.82,573.46,538l-8.65,2.33L565,577a4,4,0,0,0,4,4h0a4,4,0,0,0,4-4v-3.65l10-2.7,1.82,3.16a4,4,0,0,0,6.93-4Zm-18.83-4.74,0-12.06,6,10.45Z"/><path d="M494.79,533.6l-21.73,29.57a4,4,0,1,0,6.45,4.74l2.16-2.94,9.68,3.81-.42,3.62a4,4,0,0,0,3.5,4.44l.47,0a4,4,0,0,0,4-3.54l4.26-36.45Zm-2.48,27-5.74-2.25,7.14-9.72Z"/><path d="M668,430.9v30a6,6,0,1,1-12,0v-66H632v66a30,30,0,1,0,60,0v-30Z"/><path d="M600,460.9a6,6,0,1,1-12,0v-30H564v30a6,6,0,0,1-12,0v-30H528v14.56a33.65,33.65,0,0,0-4.15-8.06l-13.2-18.86,11.76-16.79L502.75,388,496,397.62l-11.6-16.57-19.66,13.77,16.61,23.72-13.2,18.86A33.88,33.88,0,0,0,462.72,450,32,32,0,1,0,402.81,472,32,32,0,0,0,388,498.9v8h24v-8a8,8,0,0,1,8-8h12a32.05,32.05,0,0,0,31.23-25.09,34,34,0,0,0,65.33.82A29.92,29.92,0,0,0,576,484.84a29.94,29.94,0,0,0,48-23.94v-30H600Zm-168,6a8,8,0,1,1,8-8A8,8,0,0,1,432,466.9Zm64,0a10.13,10.13,0,0,1-10-10,10,10,0,0,1,1.81-5.74l8.19-11.7,8.19,11.7A9.9,9.9,0,0,1,506,456.9,10.13,10.13,0,0,1,496,466.9Z"/><path d="M662,499a8,8,0,1,0,8,8A8,8,0,0,0,662,499Z"/></g></svg>