<svg xmlns="http://www.w3.org/2000/svg" viewBox="0 0 76 33.48"><g id="Isolation_Mode" data-name="Isolation Mode"><path d="M70,12.46V20a1.5,1.5,0,1,1-3,0V3.46H61V20a7.5,7.5,0,1,0,15,0v-7.5Z"/><path d="M53,20a1.5,1.5,0,1,1-3,0v-7.5H44V20a1.5,1.5,0,0,1-3,0v-7.5H35v3.67a8,8,0,0,0-1-2l-3.3-4.72,2.94-4.2L28.69,1.73,27,4.14,24.1,0,19.19,3.44l4.15,5.93L20,14.08a8.45,8.45,0,0,0-1.35,3.2,8,8,0,1,0-15,5.44A8,8,0,0,0,0,29.46v2H6v-2a2,2,0,0,1,2-2h3a8,8,0,0,0,7.81-6.27,8.49,8.49,0,0,0,16.33.2A7.49,7.49,0,0,0,47,26a7.49,7.49,0,0,0,12-6v-7.5H53Zm-42,1.5a2,2,0,1,1,2-2A2,2,0,0,1,11,21.46Zm16,0A2.5,2.5,0,0,1,25,17.53L27,14.6l2.05,2.93A2.5,2.5,0,0,1,29.5,19,2.53,2.53,0,0,1,27,21.46Z"/><circle cx="68.5" cy="31.48" r="2"/></g></svg>