<svg xmlns="http://www.w3.org/2000/svg" viewBox="0 0 672 672"><defs><style>.cls-1{fill:#ff7761;}.cls-2{fill:#ef5330;}</style></defs><g id="Layer_1" data-name="Layer 1"><path class="cls-1" d="M612,129.5h-6v-1h6Zm-11,0h-6v-1h6Zm-11,0h-6v-1h6Zm-11,0h-6v-1h6Zm-11,0h-6v-1h6Zm-11,0h-6v-1h6Zm-11,0h-6v-1h6Zm-11,0h-6v-1h6Zm-11,0h-6v-1h6Zm-11,0h-6v-1h6Zm-11,0h-6v-1h6Zm-11,0h-6v-1h6Zm-11,0h-6v-1h6Zm-11,0h-6v-1h6Zm-11,0h-6v-1h6Zm-11,0h-6v-1h6Zm-11,0h-6v-1h6Zm-11,0h-6v-1h6Zm-11,0h-6v-1h6Zm-11,0h-6v-1h6Zm-11,0h-6v-1h6Zm-11,0h-6v-1h6Zm-11,0h-6v-1h6Zm-11,0h-6v-1h6Zm-11,0h-6v-1h6Zm-11,0h-6v-1h6Zm-11,0h-6v-1h6Zm-11,0h-6v-1h6Zm-11,0h-6v-1h6Zm-11,0h-6v-1h6Zm-11,0h-6v-1h6Zm-11,0h-6v-1h6Zm-11,0h-6v-1h6Zm-11,0h-6v-1h6Zm-11,0h-6v-1h6Zm-11,0h-6v-1h6Zm-11,0h-6v-1h6Zm-11,0h-6v-1h6Zm-11,0h-6v-1h6Zm-11,0h-6v-1h6Zm-11,0h-6v-1h6Zm-11,0h-6v-1h6Zm-11,0h-6v-1h6Zm-11,0h-6v-1h6Zm-11,0h-6v-1h6Zm-11,0h-6v-1h6Zm-11,0h-6v-1h6Zm-11,0H89v-1h6Zm-11,0H78v-1h6Zm-11,0H67v-1h6Zm-11,0H60v-1h2Z"/><path class="cls-1" d="M612,543.5h-6v-1h6Zm-11,0h-6v-1h6Zm-11,0h-6v-1h6Zm-11,0h-6v-1h6Zm-11,0h-6v-1h6Zm-11,0h-6v-1h6Zm-11,0h-6v-1h6Zm-11,0h-6v-1h6Zm-11,0h-6v-1h6Zm-11,0h-6v-1h6Zm-11,0h-6v-1h6Zm-11,0h-6v-1h6Zm-11,0h-6v-1h6Zm-11,0h-6v-1h6Zm-11,0h-6v-1h6Zm-11,0h-6v-1h6Zm-11,0h-6v-1h6Zm-11,0h-6v-1h6Zm-11,0h-6v-1h6Zm-11,0h-6v-1h6Zm-11,0h-6v-1h6Zm-11,0h-6v-1h6Zm-11,0h-6v-1h6Zm-11,0h-6v-1h6Zm-11,0h-6v-1h6Zm-11,0h-6v-1h6Zm-11,0h-6v-1h6Zm-11,0h-6v-1h6Zm-11,0h-6v-1h6Zm-11,0h-6v-1h6Zm-11,0h-6v-1h6Zm-11,0h-6v-1h6Zm-11,0h-6v-1h6Zm-11,0h-6v-1h6Zm-11,0h-6v-1h6Zm-11,0h-6v-1h6Zm-11,0h-6v-1h6Zm-11,0h-6v-1h6Zm-11,0h-6v-1h6Zm-11,0h-6v-1h6Zm-11,0h-6v-1h6Zm-11,0h-6v-1h6Zm-11,0h-6v-1h6Zm-11,0h-6v-1h6Zm-11,0h-6v-1h6Zm-11,0h-6v-1h6Zm-11,0h-6v-1h6Zm-11,0H89v-1h6Zm-11,0H78v-1h6Zm-11,0H67v-1h6Zm-11,0H60v-1h2Z"/><path class="cls-2" d="M306.05,452.49a6.23,6.23,0,0,0,1.12,12.35,6.17,6.17,0,0,0,1.13-.1,21.64,21.64,0,0,0,17.61-21.8,6.37,6.37,0,0,0-6.33-6.13,6.23,6.23,0,0,0-6.13,6.33A9.09,9.09,0,0,1,306.05,452.49Z"/><path class="cls-2" d="M312.59,271.55c-3.72,1-5.93,6.33-4.93,11.91s4.81,9.27,8.53,8.27,5.93-6.34,4.93-11.91S316.31,270.54,312.59,271.55Z"/><path class="cls-2" d="M322.86,322.6a6.23,6.23,0,0,0,6.19,5.62l.62,0L352.11,326l-7.84-35.19a6.22,6.22,0,1,0-12.15,2.71L336.9,315l-8.46.83A6.23,6.23,0,0,0,322.86,322.6Z"/><path class="cls-2" d="M318.1,345.58a6.22,6.22,0,0,0,2.21,8.53A36.32,36.32,0,0,0,370,341.23a6.23,6.23,0,1,0-10.73-6.32,23.83,23.83,0,0,1-32.65,8.46A6.24,6.24,0,0,0,318.1,345.58Z"/><path class="cls-2" d="M486.22,499.4A28,28,0,0,0,453.59,487l-14.14,4.58L433,475.68,443,470.07,398.4,362.52a66.66,66.66,0,0,0,6.25-6c11.29-12.34,23.49-34.59,17.51-70.63-2.1-11.18-3.39-21.15,2.14-30,9.42-15.08,5.24-26.13-1.81-31.44-13-9.78-27.95-1.28-35.6,7.34l-3.47-49.22c-.66-9.36-4.16-17.44-9.61-22.16a20.74,20.74,0,0,0-25.3-1.14l-.22-3.23c-.65-9.22-4.4-17.57-10-22.35a19.44,19.44,0,0,0-14.68-4.64c-11.4,1-19.09,12.5-20.58,24.07A19.6,19.6,0,0,0,291.87,151c-14.95,1.42-21.77,16.27-20.78,30.2L272.76,205a15.87,15.87,0,0,0-8.19-1.28c-12.34,1.38-19.56,12.92-18.4,29.4l5,71.09h0l.1,1.41c0,.14.05.28.07.41,2.91,34.68,17.62,54.28,30.79,65,1.32,9.25,3.82,47.54-40.53,69.21l-5.75,2.69-8.59,3.85h0l-44.7,20,20.63,76.16,5.85-1.36a30,30,0,0,0,23.23-31.76l-1-13.2,18.61-3.2,3.41,8.43,4.27-.07c69.21-1.08,84.82-41.59,85.45-43.31a6.23,6.23,0,0,0-11.68-4.32c-.53,1.36-13.19,32.68-69.72,35.06l-1.66-4.12-13.51-33.35.59-.28c41.22-20.14,47.76-53.67,48-72.06a49.29,49.29,0,0,0,9.12,3.67,6.22,6.22,0,1,0,2.67-12.16c-.39-.09-39.15-11.11-43.14-67.62l-5-71.1c-.11-1.56-.84-15.23,7.36-16.14a3.84,3.84,0,0,1,3.14,1c2.87,2.39,5.08,8,5.5,13.95l.53,7.49h0l2.51,35.53a6.23,6.23,0,0,0,12.42-.88l-3-43v0l-3.52-49.83c-.45-6.39,1.72-16.17,9.54-16.92a7,7,0,0,1,5.51,1.69c3,2.57,5.18,7.85,5.6,13.78a.44.44,0,0,0,0,.1l4.75,67.28a6.22,6.22,0,0,0,6.2,5.79h.45a6.23,6.23,0,0,0,5.77-6.66l-6.14-87c-.55-7.89,4.25-16.43,9.52-16.92a7,7,0,0,1,5.47,1.73c3,2.58,5.25,8,5.66,13.74l6.14,87a6.23,6.23,0,1,0,12.42-.88l-4.08-57.86c0-.08,0-.16,0-.25-.44-6.24,1.72-16.35,9.39-16.91a7.54,7.54,0,0,1,5.91,1.84c2.93,2.53,4.92,7.62,5.34,13.61l7.37,104.42c0,.2.07.39.1.59s.05.35.09.52.14.43.22.64.11.32.18.47a5.51,5.51,0,0,0,.34.58c.08.14.16.29.25.42a5.37,5.37,0,0,0,.44.51c.11.12.21.25.32.36s.35.28.53.42.25.21.38.29a6,6,0,0,0,.61.32c.14.07.28.16.42.22a6.1,6.1,0,0,0,.76.23c.12,0,.24.08.37.1a6,6,0,0,0,1.2.12H385c.19,0,.37-.07.55-.1a6,6,0,0,0,.61-.1,5.49,5.49,0,0,0,.57-.2c.19-.08.39-.14.58-.23s.33-.2.5-.3.36-.21.52-.33.29-.26.43-.39.31-.27.45-.42.23-.31.35-.47a5.48,5.48,0,0,0,.35-.49c.1-.18.18-.37.27-.55s.18-.35.24-.53.12-.42.17-.63.1-.37.13-.56,0-.45,0-.67,0-.33,0-.5c-.12-2.85-.6-9.16-.95-13.77l-.31-4.1c-.87-12.31,1.08-22,5.65-28,2.23-2.93,12.1-12.69,19.81-6.89,3.42,2.58,2.95,8.14-1.26,14.88-8.56,13.67-5.71,28.84-3.84,38.75,5.13,31-5,49.75-14.44,60.06-11.91,13-27.67,18.05-38,17.31a6.23,6.23,0,0,0-.94,12.42q1.57.12,3.18.12c9.29,0,19.22-3,28.29-8.13l28,67.59c-1.2,2.66-5.29,9.08-17.28,11.5a6.23,6.23,0,0,0,1.22,12.33,6.59,6.59,0,0,0,1.24-.12c9.88-2,16.26-6.16,20.37-10.34l5.72,13.79L392,484.28l-62.73-82.23a6.23,6.23,0,1,0-9.9,7.55l69.28,90.82h0l4.63,6.07h0L421.11,543l68.31-38.11Zm-256-15.25L228.33,460l6.74-3,10,24.67Zm169.36,10.14,22.4-12.5,5.56,13.59-21.75,7.05Z"/><ellipse class="cls-2" cx="360.26" cy="281.64" rx="6.93" ry="10.28" transform="translate(-27.07 38.57) rotate(-5.91)"/><path class="cls-1" d="M336,612.5c-73.55,0-142.9-28.84-195.28-81.22S59.5,409.55,59.5,336s28.84-142.9,81.22-195.28S262.45,59.5,336,59.5s142.9,28.84,195.28,81.22S612.5,262.45,612.5,336s-28.84,142.9-81.22,195.28S409.55,612.5,336,612.5Zm0-552c-73.28,0-142.38,28.74-194.57,80.93S60.5,262.72,60.5,336s28.74,142.38,80.93,194.57S262.72,611.5,336,611.5h0c73.28,0,142.38-28.74,194.57-80.93S611.5,409.28,611.5,336s-28.74-142.38-80.93-194.57S409.28,60.5,336,60.5Z"/><path class="cls-1" d="M430.15,612.5H241.85A182.9,182.9,0,0,1,59.5,430.15V241.85A182.9,182.9,0,0,1,241.85,59.5h188.3A182.9,182.9,0,0,1,612.5,241.85v188.3A182.9,182.9,0,0,1,430.15,612.5Zm-188.3-552A181.88,181.88,0,0,0,60.5,241.85v188.3A181.88,181.88,0,0,0,241.85,611.5h188.3A181.88,181.88,0,0,0,611.5,430.15V241.85A181.88,181.88,0,0,0,430.15,60.5Z"/><path class="cls-1" d="M535.51,612.5h-399a77.08,77.08,0,0,1-77-77v-399a77.08,77.08,0,0,1,77-77h399a77.08,77.08,0,0,1,77,77v399A77.08,77.08,0,0,1,535.51,612.5Zm-399-552a76.08,76.08,0,0,0-76,76v399a76.08,76.08,0,0,0,76,76h399a76.08,76.08,0,0,0,76-76v-399a76.08,76.08,0,0,0-76-76Z"/><path class="cls-1" d="M612.5,612.5H59.5V59.5h553Zm-552-1h551V60.5H60.5Z"/></g></svg>