<svg xmlns="http://www.w3.org/2000/svg" viewBox="0 0 672 672"><g id="Layer_1" data-name="Layer 1"><path d="M301.26,296.77c-4,.4-6.66,2.49-5.92,4.66.65,1.93,3.75,3.28,7.24,3.28.44,0,.89,0,1.34-.07,10.53-1.05,21.06-6.2,20.83-14-.07-2.21-3.45-3.88-7.49-3.94s-7.31,1.86-7.25,4.07C310.12,294.28,305.55,296.34,301.26,296.77Z"/><path d="M309,180.56c-4.4.65-7,4.07-5.84,7.65s5.7,6,10.1,5.32,7-4.07,5.84-7.65S313.39,179.92,309,180.56Z"/><path d="M321.14,213.36c.37,2.06,3.58,3.6,7.32,3.6.25,0,.49,0,.74,0l26.55-1.43-9.27-22.59c-.88-2.16-4.82-3.51-8.79-3s-6.48,2.62-5.59,4.77l5.65,13.79-10,.54C323.69,209.2,320.74,211.16,321.14,213.36Z"/><path d="M315.51,228.11c-2.07,1.91-.9,4.36,2.61,5.48a72.11,72.11,0,0,0,21.73,3.23,78.67,78.67,0,0,0,10.84-.75c11.1-1.56,20.43-5.38,26.25-10.75,2.06-1.91.89-4.36-2.62-5.48s-8-.48-10.08,1.42c-7.9,7.28-25.23,9.71-38.64,5.43C322.09,225.57,317.57,226.21,315.51,228.11Z"/><path d="M514.43,326.9c-7.75-7.2-24-10.56-38.61-8l-16.72,2.94-7.68-10.18,11.89-3.61L410.53,239a80.08,80.08,0,0,0,7.39-3.84c13.35-7.93,27.79-22.22,20.72-45.37-2.48-7.18-4-13.58,2.52-19.25,11.16-9.68,6.21-16.77-2.13-20.19-15.38-6.28-33.07-.82-42.12,4.72l-4.11-31.62c-.78-6-4.93-11.19-11.37-14.23a38.57,38.57,0,0,0-17.71-3.11,37.77,37.77,0,0,0-12.22,2.38l-.27-2.07c-.77-5.92-5.2-11.29-11.86-14.36a37.28,37.28,0,0,0-17.37-3c-13.48.68-22.58,8-24.35,15.46a40.86,40.86,0,0,0-13.18-1.38c-17.68.91-25.75,10.45-24.59,19.4l2,15.24a33.54,33.54,0,0,0-9.69-.82c-14.6.89-23.15,8.3-21.77,18.88l5.93,45.66h0l.12.91a2.76,2.76,0,0,0,.08.27C240,225,257.39,237.55,273,244.45c1.56,5.94,4.53,30.53-48,44.45l-6.8,1.73-10.17,2.47h0L155.16,306l24.4,48.91,6.93-.87c17.34-2.19,28.9-10.77,27.49-20.4l-1.24-8.48,22-2.05,4,5.41,5.05,0c81.89-.7,100.36-26.71,101.1-27.82,1.4-2.06-.55-4.33-4.34-5.1s-8,.28-9.48,2.33c-.62.88-15.6,21-82.48,22.51l-17.95-24.06.69-.18c48.77-12.93,56.52-34.47,56.76-46.28a92.82,92.82,0,0,0,10.79,2.36,12.23,12.23,0,0,0,1.59.1c3.38,0,6.43-1.28,7.19-3.15.87-2.15-1.64-4.29-5.62-4.76-.46-.06-46.32-7.13-51-43.43l-5.93-45.66c-.13-1-1-9.78,8.71-10.37a7.42,7.42,0,0,1,3.71.67,11.79,11.79,0,0,1,6.52,9l3.59,27.62c.28,2.2,3.81,3.86,7.87,3.71s7.12-2.07,6.83-4.27l-3-22.82h0L274.59,122c-.54-4.1,2-10.39,11.28-10.86a13.37,13.37,0,0,1,6.52,1.08,11.52,11.52,0,0,1,6.63,8.85.14.14,0,0,0,0,.06l5.61,43.21c.28,2.11,3.51,3.72,7.35,3.72h.52c4.06-.15,7.12-2.06,6.84-4.27l-7.26-55.85c-.66-5.08,5-10.56,11.25-10.87a13.29,13.29,0,0,1,6.48,1.11,11.69,11.69,0,0,1,6.69,8.82l7.27,55.86c.28,2.2,3.82,3.85,7.87,3.7s7.12-2.06,6.83-4.27l-4.83-37.17a.76.76,0,0,1,0-.15c-.52-4,2-10.5,11.11-10.86a14.68,14.68,0,0,1,7,1.18A11.2,11.2,0,0,1,378.1,124l8.71,67.06a4.26,4.26,0,0,0,.15.47,2.25,2.25,0,0,0,.08.24,5.38,5.38,0,0,0,3.25,2.41l.49.13c.24.07.48.14.73.19s.5.09.76.13l.57.08.77,0c.19,0,.36,0,.55,0h.52c.23,0,.43,0,.65-.06l.72-.07c.24,0,.45-.09.67-.13s.47-.09.69-.15a6,6,0,0,0,.6-.19c.2-.07.42-.13.61-.21l.51-.25c.18-.09.36-.17.53-.27s.27-.2.41-.29.3-.22.42-.33a3,3,0,0,0,.3-.33,3.57,3.57,0,0,0,.31-.37,2.64,2.64,0,0,0,.18-.38,2.59,2.59,0,0,0,.17-.38,1.93,1.93,0,0,0,0-.42,1.86,1.86,0,0,0,0-.33c-.14-1.83-.71-5.88-1.12-8.84l-.37-2.64c-1-7.9,1.28-14.12,6.68-18,2.63-1.89,14.33-8.15,23.44-4.43,4,1.66,3.49,5.23-1.49,9.56-10.12,8.78-6.75,18.52-4.54,24.89,6.07,19.88-5.94,31.95-17.09,38.57-14.09,8.37-32.76,11.6-45,11.12-4.1-.18-7.6,1.48-7.9,3.69s2.74,4.12,6.8,4.28c1.24,0,2.49.08,3.76.08a115.59,115.59,0,0,0,33.48-5.22l33.17,43.41c-1.43,1.7-6.26,5.83-20.45,7.38-4,.44-6.58,2.55-5.77,4.72.7,1.89,3.78,3.2,7.22,3.2a14.41,14.41,0,0,0,1.46-.07c11.69-1.28,19.24-4,24.11-6.64l6.76,8.85-41.75,12.64-74.23-52.81c-2.47-1.76-7.1-2.1-10.33-.76s-3.86,3.85-1.39,5.61l82,58.32h0l5.49,3.91h0l33,23.44,80.83-24.47Zm-302.87-9.79-2.27-15.55,8-1.93,11.82,15.84ZM412,323.62l26.51-8,6.58,8.73-25.74,4.52Z"/><path d="M367.52,193.53c4.4-.65,7-4.07,5.84-7.65s-5.7-6-10.1-5.32-7,4.07-5.84,7.65S363.12,194.17,367.52,193.53Z"/><path d="M339.68,575H321.26V543H306.52v40h33.16c4.07,0,7.37-1.79,7.37-4S343.75,575,339.68,575Z"/><path d="M166.4,549.48a31.78,31.78,0,0,1-13.15-2.65c-4.11-1.91-6.6-4.57-7-7.5s1.29-5.78,4.81-8c2.65-1.68,7.3-1.87,10.39-.43s3.45,4,.8,5.64a2.28,2.28,0,0,0-1.31,2.18,3,3,0,0,0,1.92,2,8.86,8.86,0,0,0,4,.72,7.75,7.75,0,0,0,3.77-1l3-1.9a2.3,2.3,0,0,0,1.31-2.18A2.94,2.94,0,0,0,173,534.3c-4.11-1.91-6.6-4.58-7-7.51s1.29-5.77,4.81-8l3-1.9c7.28-4.61,20.1-5.14,28.58-1.2,4.11,1.91,6.61,4.57,7,7.5s-1.3,5.78-4.82,8c-2.65,1.68-7.29,1.87-10.39.43s-3.45-4-.8-5.64a2.28,2.28,0,0,0,1.31-2.18,2.93,2.93,0,0,0-1.92-2,9.09,9.09,0,0,0-7.79.32l-3,1.9a2.31,2.31,0,0,0-1.32,2.18,3,3,0,0,0,1.92,2.05c4.11,1.91,6.61,4.58,7,7.51s-1.3,5.77-4.82,8l-3,1.9A28.48,28.48,0,0,1,168,549.44C167.47,549.47,166.93,549.48,166.4,549.48Z"/><path d="M518.59,542.75l-39-29.74-12,4.63L478.84,540l-35.26-13.09-12,4.63,39,29.75a10.31,10.31,0,0,0,6,1.68,12,12,0,0,0,4.26-.74c3.32-1.28,4.1-3.78,1.74-5.58l-14.21-10.85,17.51,6.51,12.08-4.67-5.57-11.11,14.21,10.85c2.36,1.8,7,2.22,10.28.94S521,544.55,518.59,542.75Z"/><path d="M431.35,569.82,397.65,538l-15.94,2.33L382,577c0,2.2,3.31,4,7.37,4h0c4.07,0,7.36-1.8,7.34-4l0-3.65,18.5-2.7,3.35,3.16c2,1.91,6.53,2.57,10.06,1.47S433.38,571.73,431.35,569.82Zm-34.7-4.74L396.56,553l11.06,10.45Z"/><path d="M252.72,533.6l-40,29.57c-2.41,1.79-1.7,4.29,1.58,5.6s7.89.92,10.3-.86l4-2.94,17.83,3.81-.78,3.62c-.48,2.2,2.42,4.18,6.46,4.44l.87,0c3.68,0,6.87-1.5,7.31-3.54l7.84-36.45Zm-4.58,27-10.58-2.25,13.15-9.72Z"/><path d="M571.82,430.9v30c0,3.31-5,6-11.05,6s-11.06-2.69-11.06-6v-66H505.5v66c0,16.54,24.79,30,55.27,30S616,477.44,616,460.9v-30Z"/><path d="M446.54,460.9c0,3.31-5,6-11.05,6s-11.06-2.69-11.06-6v-30H380.22v30c0,3.31-5,6-11.06,6s-11.05-2.69-11.05-6v-30H313.89v14.56a33.82,33.82,0,0,0-7.64-8.06l-24.32-18.86,21.66-16.79L267.36,388l-12.42,9.63-21.37-16.57-36.23,13.77L228,418.54,203.63,437.4c-4.95,3.83-8.3,8.11-10,12.62-7.11-13.34-29.77-23.12-56.59-23.12-32.51,0-59,14.35-59,32,0,4.65,1.88,9.06,5.18,13.05C66.87,477.64,56,487.58,56,498.9v8h44.22v-8c0-4.42,6.61-8,14.74-8H137c28.13,0,51.68-10.76,57.53-25.09,7.24,14.43,31.53,25.09,60.38,25.09,28.31,0,52.26-10.25,60-24.27,4.95,13.81,27.37,24.27,54.23,24.27a88.85,88.85,0,0,0,33.17-6.06,88.76,88.76,0,0,0,33.16,6.06c30.47,0,55.27-13.46,55.27-30v-30H446.54ZM137,466.9c-8.13,0-14.74-3.59-14.74-8s6.61-8,14.74-8,14.74,3.58,14.74,8S145.15,466.9,137,466.9Zm117.91,0c-10,0-18.43-4.58-18.43-10,0-2.07,1.16-4,3.34-5.74l15.09-11.7L270,451.16c2.18,1.69,3.33,3.67,3.33,5.74C273.36,462.32,264.92,466.9,254.94,466.9Z"/><path d="M560.77,499c-8.14,0-14.74,3.58-14.74,8s6.6,8,14.74,8,14.74-3.59,14.74-8S568.91,499,560.77,499Z"/></g></svg>