<svg xmlns="http://www.w3.org/2000/svg" viewBox="0 0 672 672"><defs><style>.cls-1{fill:#ef5330;}</style></defs><g id="Layer_1" data-name="Layer 1"><path class="cls-1" d="M550.9,512.68H121V159.32H550.9Zm-428.92-1H549.9V160.32H122Z"/><path d="M337.5,405.73H330v-24h-6v30h13.5a3,3,0,0,0,0-6Z"/><path d="M267,386.59A8.25,8.25,0,0,1,260.7,373a3,3,0,0,1,4.56,3.9,2.25,2.25,0,0,0,.25,3.17,2.24,2.24,0,0,0,3.17-.24l1.22-1.43a2.23,2.23,0,0,0,.53-1.64,2.2,2.2,0,0,0-.78-1.53,8.25,8.25,0,0,1-.9-11.63l1.22-1.43a8.26,8.26,0,0,1,11.63-.9,8.26,8.26,0,0,1,.91,11.63A3,3,0,1,1,278,369a2.23,2.23,0,0,0,.53-1.64,2.2,2.2,0,0,0-.78-1.53,2.25,2.25,0,0,0-3.17.24l-1.22,1.43a2.23,2.23,0,0,0-.53,1.64,2.2,2.2,0,0,0,.78,1.53,8.25,8.25,0,0,1,.9,11.63l-1.22,1.43a8.2,8.2,0,0,1-5.63,2.86C267.39,386.59,267.17,386.59,267,386.59Z"/><path d="M410.33,381.55l-15.86-22.31-4.89,3.47,4.57,16.79-14.35-9.83-4.89,3.48,15.86,22.31a3,3,0,0,0,2.45,1.26,3,3,0,0,0,2.44-4.74l-5.78-8.14,7.13,4.88,4.92-3.49-2.27-8.34,5.78,8.14a3,3,0,0,0,4.89-3.48Z"/><path d="M374.82,401.85,361.1,378l-6.49,1.75.12,27.52a3,3,0,0,0,3,3h0a3,3,0,0,0,3-3V404.5l7.53-2,1.36,2.37a3,3,0,0,0,5.21-3Zm-14.13-3.56,0-9,4.51,7.84Z"/><path d="M302.1,374.69l-16.3,22.18a3,3,0,1,0,4.83,3.55l1.62-2.2,7.26,2.85-.32,2.72a3,3,0,0,0,2.64,3.33l.35,0a3,3,0,0,0,3-2.66l3.2-27.33Zm-1.87,20.22-4.3-1.7,5.35-7.28Z"/><path d="M432,297.66v22.5a4.5,4.5,0,1,1-9,0v-49.5H405v49.5a22.5,22.5,0,1,0,45,0v-22.5Z"/><path d="M381,320.16a4.5,4.5,0,1,1-9,0v-22.5H354v22.5a4.5,4.5,0,1,1-9,0v-22.5H327v10.92a25.49,25.49,0,0,0-3.11-6.05L314,288.39l8.81-12.59-14.74-10.32L303,272.7l-8.7-12.43L279.55,270.6,292,288.39l-9.9,14.14A25.54,25.54,0,0,0,278,312a24,24,0,1,0-44.93,16.45A24,24,0,0,0,222,348.66v6h18v-6a6,6,0,0,1,6-6h9a24,24,0,0,0,23.42-18.81,25.47,25.47,0,0,0,49,.61A22.45,22.45,0,0,0,363,338.12a22.46,22.46,0,0,0,36-18v-22.5H381Zm-126,4.5a6,6,0,1,1,6-6A6,6,0,0,1,255,324.66Zm48,0a7.6,7.6,0,0,1-7.5-7.5,7.42,7.42,0,0,1,1.36-4.3l6.14-8.78,6.14,8.78a7.42,7.42,0,0,1,1.36,4.3A7.6,7.6,0,0,1,303,324.66Z"/><path d="M427.5,348.73a6,6,0,1,0,6,6A6,6,0,0,0,427.5,348.73Z"/></g></svg>