<svg xmlns="http://www.w3.org/2000/svg" viewBox="0 0 98.53 132.94"><g id="Layer_1" data-name="Layer 1"><path d="M39.65,103.88a2,2,0,0,0,.36,4,2.2,2.2,0,0,0,.36,0,7,7,0,0,0,5.66-7,2.06,2.06,0,0,0-2-2,2,2,0,0,0-2,2A2.94,2.94,0,0,1,39.65,103.88Z"/><path d="M41.75,45.77c-1.2.33-1.9,2-1.59,3.83s1.55,3,2.75,2.66,1.9-2,1.58-3.83S42.94,45.45,41.75,45.77Z"/><path d="M45.05,62.17A2,2,0,0,0,47,64h.2l7.21-.71L51.92,52a2,2,0,1,0-3.9.87l1.53,6.89L46.84,60A2,2,0,0,0,45.05,62.17Z"/><path d="M43.52,69.55a2,2,0,0,0,.71,2.74,11.68,11.68,0,0,0,16-4.14,2,2,0,1,0-3.45-2,7.66,7.66,0,0,1-10.48,2.72A2,2,0,0,0,43.52,69.55Z"/><path d="M97.5,118.94A9,9,0,0,0,87,115l-4.54,1.47-2.09-5.09,3.23-1.81L69.31,75a24.15,24.15,0,0,0,2-1.92c3.63-4,7.54-11.11,5.63-22.69-.68-3.59-1.09-6.79.68-9.62,3-4.84,1.69-8.39-.58-10.1-4.17-3.14-9-.41-11.43,2.36L64.49,17.21a10.33,10.33,0,0,0-3.08-7.11,6.64,6.64,0,0,0-8.12-.37l-.08-1A10.44,10.44,0,0,0,50,1.52,6.21,6.21,0,0,0,45.28,0c-3.66.34-6.13,4-6.61,7.73a6.33,6.33,0,0,0-3.58-.69c-4.79.45-7,5.22-6.67,9.7L29,24.39A5,5,0,0,0,26.33,24c-4,.44-6.28,4.15-5.91,9.44L22,56.25h0l0,.45a.68.68,0,0,0,0,.14C23,68,27.75,74.27,32,77.72c.43,3,1.23,15.26-13,22.22l-1.85.87L14.36,102h0L0,108.47l6.62,24.45,1.88-.43A9.62,9.62,0,0,0,16,122.29l-.33-4.24,6-1,1.1,2.71,1.37,0c22.22-.35,27.23-13.36,27.44-13.91a2,2,0,0,0-3.75-1.39c-.17.44-4.24,10.5-22.39,11.26l-.54-1.32L20.5,103.64l.19-.09C33.92,97.08,36,86.31,36.09,80.41A16.28,16.28,0,0,0,39,81.59a2.1,2.1,0,0,0,.43,0,2,2,0,0,0,.43-4C39.75,77.65,27.3,74.12,26,56L24.41,33.14c0-.5-.27-4.89,2.37-5.19a1.24,1.24,0,0,1,1,.34,6.86,6.86,0,0,1,1.77,4.48l.17,2.4h0l.81,11.41a2,2,0,1,0,4-.28l-1-13.81h0l-1.13-16c-.14-2.05.55-5.19,3.06-5.43a2.28,2.28,0,0,1,1.77.54A6.54,6.54,0,0,1,39,16s0,0,0,0l1.52,21.6a2,2,0,0,0,2,1.86h.14a2,2,0,0,0,1.85-2.14l-2-27.92C42.41,6.91,44,4.17,45.65,4a2.23,2.23,0,0,1,1.75.56A6.58,6.58,0,0,1,49.22,9l2,27.93a2,2,0,1,0,4-.29L53.87,18a.21.21,0,0,0,0-.08c-.14-2,.56-5.25,3-5.43a2.49,2.49,0,0,1,1.9.59A6.5,6.5,0,0,1,60.5,17.5L62.87,51a1.13,1.13,0,0,0,0,.18l0,.17.07.21.06.15a1.18,1.18,0,0,0,.11.19l.08.13a1.07,1.07,0,0,0,.14.16l.1.12.17.13.13.1.19.1.14.07.24.07.12,0a2.33,2.33,0,0,0,.38,0H65a1,1,0,0,0,.17,0l.2,0,.18-.07.19-.07.16-.1.16-.1.14-.13.15-.13.11-.15.11-.16.09-.18.08-.17c0-.06,0-.13,0-.2s0-.12,0-.18a1.55,1.55,0,0,0,0-.22.42.42,0,0,0,0-.16c0-.91-.19-2.94-.3-4.42l-.1-1.32c-.28-4,.35-7.06,1.81-9,.72-.94,3.89-4.07,6.36-2.21,1.1.83,1,2.61-.4,4.78C71.48,43,72.4,47.9,73,51.08c1.64,9.94-1.62,16-4.64,19.29-3.82,4.18-8.89,5.79-12.22,5.56a2,2,0,0,0-.3,4c.34,0,.68,0,1,0A18.6,18.6,0,0,0,66,77.34l9,21.71c-.38.85-1.69,2.91-5.55,3.69a2,2,0,0,0,.4,4,1.72,1.72,0,0,0,.39,0,12.32,12.32,0,0,0,6.55-3.32l1.83,4.43-11.33,6.32L47.1,87.68a2,2,0,1,0-3.18,2.43l22.24,29.16h0l1.49,2h0l8.95,11.72,21.93-12.23Zm-82.19-4.89-.62-7.78,2.17-1,3.21,7.92Zm54.38,3.25,7.2-4,1.78,4.36-7,2.26Z"/><ellipse cx="57.06" cy="49.02" rx="2.22" ry="3.3" transform="translate(-4.74 6.13) rotate(-5.91)"/></g></svg>