<svg xmlns="http://www.w3.org/2000/svg" viewBox="0 0 1080 672"><defs><style>.cls-1{fill:#ef5330;}.cls-2{fill:#fff;}.cls-3{fill:#ff7761;}</style></defs><g id="Layer_3" data-name="Layer 3"><rect class="cls-1" width="1080" height="672"/></g><g id="Layer_1" data-name="Layer 1"><path class="cls-2" d="M525.58,278.11a3,3,0,0,0,.53,5.95,3.31,3.31,0,0,0,.55-.05,10.41,10.41,0,0,0,8.48-10.5,3,3,0,1,0-6,.1A4.38,4.38,0,0,1,525.58,278.11Z"/><path class="cls-2" d="M528.73,191c-1.8.49-2.86,3.06-2.38,5.74s2.32,4.47,4.11,4,2.85-3,2.38-5.73S530.52,190.47,528.73,191Z"/><path class="cls-2" d="M533.67,215.55a3,3,0,0,0,3,2.7h.3l10.81-1.07L544,200.22a3,3,0,1,0-5.86,1.3l2.3,10.34-4.07.4A3,3,0,0,0,533.67,215.55Z"/><path class="cls-2" d="M531.38,226.61a3,3,0,0,0,1.06,4.11,17.34,17.34,0,0,0,8.84,2.41,17.51,17.51,0,0,0,15.11-8.61,3,3,0,1,0-5.18-3,11.5,11.5,0,0,1-15.72,4.07A3,3,0,0,0,531.38,226.61Z"/><path class="cls-2" d="M581,321.71l32.9-18.36-1.54-2.64a13.5,13.5,0,0,0-15.72-6l-6.81,2.21-3.12-7.64,4.84-2.7-21.5-51.83a31.35,31.35,0,0,0,3-2.86c5.44-5.95,11.31-16.67,8.44-34-1-5.39-1.64-10.19,1-14.44,4.54-7.26,2.53-12.58-.87-15.14-6.26-4.72-13.46-.62-17.14,3.53l-1.68-23.71c-.32-4.51-2-8.4-4.63-10.67a9.69,9.69,0,0,0-7.21-2.33,9.57,9.57,0,0,0-5,1.78l-.11-1.56c-.31-4.43-2.12-8.46-4.83-10.76a9.41,9.41,0,0,0-7.07-2.24c-5.49.51-9.19,6-9.91,11.61a9.47,9.47,0,0,0-5.37-1.05c-7.19.69-10.48,7.84-10,14.55l.81,11.43a7.67,7.67,0,0,0-3.94-.61c-6,.66-9.43,6.22-8.87,14.16l2.47,34.93s0,.06,0,.09c1.38,16.77,8.49,26.24,14.84,31.43.64,4.46,1.84,22.9-19.52,33.33l-2.8,1.31L483,277.42,466.1,285,476,321.68l2.82-.66a14.44,14.44,0,0,0,11.19-15.29l-.51-6.36,9-1.55,1.65,4.07,2.05,0c33.34-.52,40.86-20,41.16-20.86a3,3,0,0,0-5.63-2.08c-.25.66-6.35,15.74-33.58,16.89l-2.59-6.42-4.71-11.63.28-.14c19.85-9.7,23-25.85,23.11-34.71a23,23,0,0,0,4.39,1.77,2.85,2.85,0,0,0,.64.07,3,3,0,0,0,.65-5.93c-.19,0-18.86-5.34-20.78-32.57h0L502.72,172c-.05-.75-.4-7.33,3.54-7.77a1.85,1.85,0,0,1,1.52.51c1.38,1.15,2.45,3.85,2.65,6.72l.1,1.39,1.36,19.32a3,3,0,1,0,6-.42l-1.2-17.11h0l-.16-2.21-.1-1.39h0l-1.69-24c-.22-3.08.82-7.8,4.59-8.15a3.39,3.39,0,0,1,2.66.81c1.46,1.24,2.49,3.78,2.7,6.64v0L527,178.77a3,3,0,0,0,3,2.79h.21a3,3,0,0,0,2.78-3.2l-3-41.89c-.27-3.8,2-7.92,4.58-8.15a3.39,3.39,0,0,1,2.64.83c1.46,1.24,2.53,3.84,2.73,6.62l2.95,41.89a3,3,0,0,0,6-.42l-2-27.88v-.11c-.21-3,.83-7.88,4.53-8.15a3.69,3.69,0,0,1,2.84.88c1.41,1.22,2.37,3.68,2.58,6.57l2.95,41.77h0v.06l.6,8.46s0,0,0,.06a2.92,2.92,0,0,0,.28,1,.43.43,0,0,0,0,.07,2.91,2.91,0,0,0,.57.77l.09.09a2.88,2.88,0,0,0,.81.52l.11,0a2.83,2.83,0,0,0,1,.2h.29a1.43,1.43,0,0,0,.22,0,1.86,1.86,0,0,0,.34-.06l.25-.08a2.68,2.68,0,0,0,.3-.12l.23-.14a1.45,1.45,0,0,0,.26-.17,1.81,1.81,0,0,0,.21-.18c.07-.07.15-.13.22-.21s.1-.14.16-.21l.18-.25.12-.24c0-.1.09-.19.12-.28a2.68,2.68,0,0,0,.07-.27,1.63,1.63,0,0,0,.07-.3,1.32,1.32,0,0,0,0-.28,2.64,2.64,0,0,0,0-.29c-.06-1.35-.3-4.48-.47-6.7l-.14-1.88v0c-.42-5.93.52-10.59,2.72-13.49,1.07-1.41,5.83-6.13,9.54-3.32,1.65,1.24,1.42,3.92-.61,7.17-4.11,6.58-2.74,13.89-1.84,18.66,2.47,14.92-2.42,24-7,28.93-5.74,6.28-13.33,8.74-18.32,8.34a3,3,0,1,0-.45,6q.75.06,1.53.06A28,28,0,0,0,565,238.29l13.51,32.57c-.58,1.28-2.55,4.37-8.33,5.54a3,3,0,0,0,.59,5.94,3.05,3.05,0,0,0,.6-.06,18.36,18.36,0,0,0,9.81-5l2.76,6.64-17,9.48-30.21-39.61a3,3,0,0,0-4.77,3.64l33.37,43.75h0l3.92,5.14Zm-91.94-28.35-.92-11.66,3.25-1.45.52,1.3,4.29,10.58Zm92.37-1.14,2.68,6.55-10.48,3.39-3-3.92Z"/><path class="cls-2" d="M552.55,200.67c1.79-.48,2.86-3,2.38-5.73s-2.32-4.47-4.11-4-2.86,3.06-2.38,5.74S550.76,201.16,552.55,200.67Z"/><path class="cls-2" d="M542,541.69H532v-32h-8v40h18a4,4,0,0,0,0-8Z"/><path class="cls-2" d="M447.94,516.18A11,11,0,0,1,439.61,498a4,4,0,1,1,6.07,5.2,3,3,0,0,0,4.56,3.91l1.63-1.9a3,3,0,0,0,.71-2.19,3,3,0,0,0-1-2,11,11,0,0,1-1.2-15.51l1.62-1.9a11,11,0,1,1,16.71,14.31,4,4,0,1,1-6.07-5.21,3,3,0,1,0-4.56-3.9l-1.63,1.9a3,3,0,0,0,.33,4.23,11,11,0,0,1,1.2,15.51l-1.62,1.9a11,11,0,0,1-7.51,3.81Z"/><path class="cls-2" d="M639.11,509.46,618,479.71l-6.52,4.64,6.09,22.37-19.14-13.1-6.51,4.64L613,528a4,4,0,1,0,6.52-4.63l-7.71-10.85,9.5,6.51,6.56-4.67-3-11.11,7.71,10.85a4,4,0,0,0,6.52-4.64Z"/><path class="cls-2" d="M591.75,536.53l-18.29-31.82L564.81,507l.16,36.7a4,4,0,0,0,4,4h0a4,4,0,0,0,4-4v-3.64l10-2.7,1.82,3.15a4,4,0,1,0,6.93-4Zm-18.83-4.75,0-12,6,10.45Z"/><path class="cls-2" d="M494.79,500.31l-21.73,29.57a4,4,0,0,0,6.45,4.74l2.16-2.94,9.68,3.81-.42,3.62a4,4,0,0,0,3.5,4.44,3.77,3.77,0,0,0,.47,0,4,4,0,0,0,4-3.53l4.26-36.45Zm-2.48,27L486.57,525l7.14-9.71Z"/><path class="cls-2" d="M668,397.6v30a6,6,0,0,1-12,0v-66H632v66a30,30,0,0,0,60,0v-30Z"/><path class="cls-2" d="M600,427.6a6,6,0,0,1-12,0v-30H564v30a6,6,0,0,1-12,0v-30H528v14.57a33.9,33.9,0,0,0-4.15-8.07l-13.2-18.85,11.76-16.79-19.66-13.77L496,364.33l-11.6-16.57-19.66,13.77,16.61,23.72-13.2,18.85a34,34,0,0,0-5.43,12.62,32,32,0,1,0-59.91,21.94A32,32,0,0,0,388,465.6v8h24v-8a8,8,0,0,1,8-8h12a32,32,0,0,0,31.23-25.08,34,34,0,0,0,65.33.82A29.94,29.94,0,0,0,576,451.55a30,30,0,0,0,48-23.95v-30H600Zm-168,6a8,8,0,1,1,8-8A8,8,0,0,1,432,433.6Zm64,0a10.13,10.13,0,0,1-10-10,10,10,0,0,1,1.81-5.73l8.19-11.7,8.19,11.7A9.89,9.89,0,0,1,506,423.6,10.13,10.13,0,0,1,496,433.6Z"/><path class="cls-2" d="M662,465.69a8,8,0,1,0,8,8A8,8,0,0,0,662,465.69Z"/><path class="cls-3" d="M540,550.21c-84.09,0-152.5-68.41-152.5-152.5s68.41-152.5,152.5-152.5,152.5,68.41,152.5,152.5S624.09,550.21,540,550.21Zm0-304c-83.54,0-151.5,68-151.5,151.5s68,151.5,151.5,151.5,151.5-68,151.5-151.5S623.54,246.21,540,246.21Z"/><path class="cls-3" d="M540,360.21c-84.09,0-152.5-68.41-152.5-152.5S455.91,55.21,540,55.21s152.5,68.41,152.5,152.5S624.09,360.21,540,360.21Zm0-304c-83.54,0-151.5,68-151.5,151.5s68,151.5,151.5,151.5,151.5-68,151.5-151.5S623.54,56.21,540,56.21Z"/><path class="cls-3" d="M540,550.21a20.5,20.5,0,1,1,20.5-20.5A20.53,20.53,0,0,1,540,550.21Zm0-40a19.5,19.5,0,1,0,19.5,19.5A19.53,19.53,0,0,0,540,510.21Z"/><path class="cls-3" d="M454.11,518.48a20.5,20.5,0,1,1,15.6-7.17l-.38-.32.38.32a20.36,20.36,0,0,1-14,7.11C455.18,518.46,454.64,518.48,454.11,518.48Zm.05-40a19.49,19.49,0,1,0,12.66,4.68A19.45,19.45,0,0,0,454.16,478.49Z"/><rect class="cls-3" x="447.57" y="439.75" width="112.01" height="1" transform="translate(-158.35 536.5) rotate(-49.44)"/><rect class="cls-3" x="539.5" y="397.71" width="1" height="112"/><path class="cls-3" d="M491.61,541.07a20.5,20.5,0,1,1,19.1-13A20.54,20.54,0,0,1,491.61,541.07Zm0-40a19.53,19.53,0,1,0,7.15,1.37A19.52,19.52,0,0,0,491.63,501.06Z"/><path class="cls-3" d="M574.34,545.7a20.47,20.47,0,1,1,5.33-.7A20.53,20.53,0,0,1,574.34,545.7Zm0-40A19.5,19.5,0,1,0,579.41,544a19.5,19.5,0,0,0-5.08-38.33Z"/><rect class="cls-3" x="463.46" y="449.34" width="112.04" height="1" transform="translate(-89.48 768.24) rotate(-68.49)"/><rect class="cls-3" x="554.07" y="395.78" width="1" height="112.04" transform="translate(-98.42 159.77) rotate(-15.07)"/><rect class="cls-3" x="571.96" y="387.34" width="1" height="112.02" transform="translate(-151 413.79) rotate(-35.42)"/><path class="cls-3" d="M616.55,525.8a20.17,20.17,0,0,1-3.45-.29,20.5,20.5,0,1,1,20.12-32.09h0a20.5,20.5,0,0,1-16.67,32.38Zm-.07-40a19.5,19.5,0,1,0,11.33,35.38,19.49,19.49,0,0,0-11.33-35.38Z"/><path class="cls-3" d="M1080,398.21h-2v-1h2Zm-7,0h-6v-1h6Zm-11,0h-6v-1h6Zm-11,0h-6v-1h6Zm-11,0h-6v-1h6Zm-11,0h-6v-1h6Zm-11,0h-6v-1h6Zm-11,0h-6v-1h6Zm-11,0h-6v-1h6Zm-11,0h-6v-1h6Zm-11,0h-6v-1h6Zm-11,0h-6v-1h6Zm-11,0h-6v-1h6Zm-11,0h-6v-1h6Zm-11,0h-6v-1h6Zm-11,0h-6v-1h6Zm-11,0h-6v-1h6Zm-11,0h-6v-1h6Zm-11,0h-6v-1h6Zm-11,0h-6v-1h6Zm-11,0h-6v-1h6Zm-11,0h-6v-1h6Zm-11,0h-6v-1h6Zm-11,0h-6v-1h6Zm-11,0h-6v-1h6Zm-11,0h-6v-1h6Zm-11,0h-6v-1h6Zm-11,0h-6v-1h6Zm-11,0h-6v-1h6Zm-11,0h-6v-1h6Zm-11,0h-6v-1h6Zm-11,0h-6v-1h6Zm-11,0h-6v-1h6Zm-11,0h-6v-1h6Zm-11,0h-6v-1h6Zm-11,0h-6v-1h6Zm-11,0h-6v-1h6Zm-11,0h-6v-1h6Zm-11,0h-6v-1h6Zm-11,0h-6v-1h6Zm-11,0h-6v-1h6Zm-11,0h-6v-1h6Zm-11,0h-6v-1h6Zm-11,0h-6v-1h6Zm-11,0h-6v-1h6Zm-11,0h-6v-1h6Zm-11,0h-6v-1h6Zm-11,0h-6v-1h6Zm-11,0h-6v-1h6Zm-11,0h-6v-1h6Zm-11,0h-6v-1h6Zm-11,0h-6v-1h6Zm-11,0h-6v-1h6Zm-11,0h-6v-1h6Zm-11,0h-6v-1h6Zm-11,0h-6v-1h6Zm-11,0h-6v-1h6Zm-11,0h-6v-1h6Zm-11,0h-6v-1h6Zm-11,0h-6v-1h6Zm-11,0h-6v-1h6Zm-11,0h-6v-1h6Zm-11,0h-6v-1h6Zm-11,0h-6v-1h6Zm-11,0h-6v-1h6Zm-11,0h-6v-1h6Zm-11,0h-6v-1h6Zm-11,0h-6v-1h6Zm-11,0h-6v-1h6Zm-11,0h-6v-1h6Zm-11,0h-6v-1h6Zm-11,0h-6v-1h6Zm-11,0h-6v-1h6Zm-11,0h-6v-1h6Zm-11,0h-6v-1h6Zm-11,0h-6v-1h6Zm-11,0h-6v-1h6Zm-11,0h-6v-1h6Zm-11,0h-6v-1h6Zm-11,0h-6v-1h6Zm-11,0h-6v-1h6Zm-11,0h-6v-1h6Zm-11,0h-6v-1h6Zm-11,0h-6v-1h6Zm-11,0h-6v-1h6Zm-11,0h-6v-1h6Zm-11,0h-6v-1h6Zm-11,0h-6v-1h6Zm-11,0h-6v-1h6Zm-11,0H99v-1h6Zm-11,0H88v-1h6Zm-11,0H77v-1h6Zm-11,0H66v-1h6Zm-11,0H55v-1h6Zm-11,0H44v-1h6Zm-11,0H33v-1h6Zm-11,0H22v-1h6Zm-11,0H11v-1h6Zm-11,0H0v-1H6Z"/><path class="cls-3" d="M1080,480.21h-2v-1h2Zm-7,0h-6v-1h6Zm-11,0h-6v-1h6Zm-11,0h-6v-1h6Zm-11,0h-6v-1h6Zm-11,0h-6v-1h6Zm-11,0h-6v-1h6Zm-11,0h-6v-1h6Zm-11,0h-6v-1h6Zm-11,0h-6v-1h6Zm-11,0h-6v-1h6Zm-11,0h-6v-1h6Zm-11,0h-6v-1h6Zm-11,0h-6v-1h6Zm-11,0h-6v-1h6Zm-11,0h-6v-1h6Zm-11,0h-6v-1h6Zm-11,0h-6v-1h6Zm-11,0h-6v-1h6Zm-11,0h-6v-1h6Zm-11,0h-6v-1h6Zm-11,0h-6v-1h6Zm-11,0h-6v-1h6Zm-11,0h-6v-1h6Zm-11,0h-6v-1h6Zm-11,0h-6v-1h6Zm-11,0h-6v-1h6Zm-11,0h-6v-1h6Zm-11,0h-6v-1h6Zm-11,0h-6v-1h6Zm-11,0h-6v-1h6Zm-11,0h-6v-1h6Zm-11,0h-6v-1h6Zm-11,0h-6v-1h6Zm-11,0h-6v-1h6Zm-11,0h-6v-1h6Zm-11,0h-6v-1h6Zm-11,0h-6v-1h6Zm-11,0h-6v-1h6Zm-11,0h-6v-1h6Zm-11,0h-6v-1h6Zm-11,0h-6v-1h6Zm-11,0h-6v-1h6Zm-11,0h-6v-1h6Zm-11,0h-6v-1h6Zm-11,0h-6v-1h6Zm-11,0h-6v-1h6Zm-11,0h-6v-1h6Zm-11,0h-6v-1h6Zm-11,0h-6v-1h6Zm-11,0h-6v-1h6Zm-11,0h-6v-1h6Zm-11,0h-6v-1h6Zm-11,0h-6v-1h6Zm-11,0h-6v-1h6Zm-11,0h-6v-1h6Zm-11,0h-6v-1h6Zm-11,0h-6v-1h6Zm-11,0h-6v-1h6Zm-11,0h-6v-1h6Zm-11,0h-6v-1h6Zm-11,0h-6v-1h6Zm-11,0h-6v-1h6Zm-11,0h-6v-1h6Zm-11,0h-6v-1h6Zm-11,0h-6v-1h6Zm-11,0h-6v-1h6Zm-11,0h-6v-1h6Zm-11,0h-6v-1h6Zm-11,0h-6v-1h6Zm-11,0h-6v-1h6Zm-11,0h-6v-1h6Zm-11,0h-6v-1h6Zm-11,0h-6v-1h6Zm-11,0h-6v-1h6Zm-11,0h-6v-1h6Zm-11,0h-6v-1h6Zm-11,0h-6v-1h6Zm-11,0h-6v-1h6Zm-11,0h-6v-1h6Zm-11,0h-6v-1h6Zm-11,0h-6v-1h6Zm-11,0h-6v-1h6Zm-11,0h-6v-1h6Zm-11,0h-6v-1h6Zm-11,0h-6v-1h6Zm-11,0h-6v-1h6Zm-11,0h-6v-1h6Zm-11,0h-6v-1h6Zm-11,0H99v-1h6Zm-11,0H88v-1h6Zm-11,0H77v-1h6Zm-11,0H66v-1h6Zm-11,0H55v-1h6Zm-11,0H44v-1h6Zm-11,0H33v-1h6Zm-11,0H22v-1h6Zm-11,0H11v-1h6Zm-11,0H0v-1H6Z"/><path class="cls-3" d="M1080,360.21h-2v-1h2Zm-7,0h-6v-1h6Zm-11,0h-6v-1h6Zm-11,0h-6v-1h6Zm-11,0h-6v-1h6Zm-11,0h-6v-1h6Zm-11,0h-6v-1h6Zm-11,0h-6v-1h6Zm-11,0h-6v-1h6Zm-11,0h-6v-1h6Zm-11,0h-6v-1h6Zm-11,0h-6v-1h6Zm-11,0h-6v-1h6Zm-11,0h-6v-1h6Zm-11,0h-6v-1h6Zm-11,0h-6v-1h6Zm-11,0h-6v-1h6Zm-11,0h-6v-1h6Zm-11,0h-6v-1h6Zm-11,0h-6v-1h6Zm-11,0h-6v-1h6Zm-11,0h-6v-1h6Zm-11,0h-6v-1h6Zm-11,0h-6v-1h6Zm-11,0h-6v-1h6Zm-11,0h-6v-1h6Zm-11,0h-6v-1h6Zm-11,0h-6v-1h6Zm-11,0h-6v-1h6Zm-11,0h-6v-1h6Zm-11,0h-6v-1h6Zm-11,0h-6v-1h6Zm-11,0h-6v-1h6Zm-11,0h-6v-1h6Zm-11,0h-6v-1h6Zm-11,0h-6v-1h6Zm-11,0h-6v-1h6Zm-11,0h-6v-1h6Zm-11,0h-6v-1h6Zm-11,0h-6v-1h6Zm-11,0h-6v-1h6Zm-11,0h-6v-1h6Zm-11,0h-6v-1h6Zm-11,0h-6v-1h6Zm-11,0h-6v-1h6Zm-11,0h-6v-1h6Zm-11,0h-6v-1h6Zm-11,0h-6v-1h6Zm-11,0h-6v-1h6Zm-11,0h-6v-1h6Zm-11,0h-6v-1h6Zm-11,0h-6v-1h6Zm-11,0h-6v-1h6Zm-11,0h-6v-1h6Zm-11,0h-6v-1h6Zm-11,0h-6v-1h6Zm-11,0h-6v-1h6Zm-11,0h-6v-1h6Zm-11,0h-6v-1h6Zm-11,0h-6v-1h6Zm-11,0h-6v-1h6Zm-11,0h-6v-1h6Zm-11,0h-6v-1h6Zm-11,0h-6v-1h6Zm-11,0h-6v-1h6Zm-11,0h-6v-1h6Zm-11,0h-6v-1h6Zm-11,0h-6v-1h6Zm-11,0h-6v-1h6Zm-11,0h-6v-1h6Zm-11,0h-6v-1h6Zm-11,0h-6v-1h6Zm-11,0h-6v-1h6Zm-11,0h-6v-1h6Zm-11,0h-6v-1h6Zm-11,0h-6v-1h6Zm-11,0h-6v-1h6Zm-11,0h-6v-1h6Zm-11,0h-6v-1h6Zm-11,0h-6v-1h6Zm-11,0h-6v-1h6Zm-11,0h-6v-1h6Zm-11,0h-6v-1h6Zm-11,0h-6v-1h6Zm-11,0h-6v-1h6Zm-11,0h-6v-1h6Zm-11,0h-6v-1h6Zm-11,0h-6v-1h6Zm-11,0h-6v-1h6Zm-11,0H99v-1h6Zm-11,0H88v-1h6Zm-11,0H77v-1h6Zm-11,0H66v-1h6Zm-11,0H55v-1h6Zm-11,0H44v-1h6Zm-11,0H33v-1h6Zm-11,0H22v-1h6Zm-11,0H11v-1h6Zm-11,0H0v-1H6Z"/><path class="cls-3" d="M1080,322.21h-2v-1h2Zm-7,0h-6v-1h6Zm-11,0h-6v-1h6Zm-11,0h-6v-1h6Zm-11,0h-6v-1h6Zm-11,0h-6v-1h6Zm-11,0h-6v-1h6Zm-11,0h-6v-1h6Zm-11,0h-6v-1h6Zm-11,0h-6v-1h6Zm-11,0h-6v-1h6Zm-11,0h-6v-1h6Zm-11,0h-6v-1h6Zm-11,0h-6v-1h6Zm-11,0h-6v-1h6Zm-11,0h-6v-1h6Zm-11,0h-6v-1h6Zm-11,0h-6v-1h6Zm-11,0h-6v-1h6Zm-11,0h-6v-1h6Zm-11,0h-6v-1h6Zm-11,0h-6v-1h6Zm-11,0h-6v-1h6Zm-11,0h-6v-1h6Zm-11,0h-6v-1h6Zm-11,0h-6v-1h6Zm-11,0h-6v-1h6Zm-11,0h-6v-1h6Zm-11,0h-6v-1h6Zm-11,0h-6v-1h6Zm-11,0h-6v-1h6Zm-11,0h-6v-1h6Zm-11,0h-6v-1h6Zm-11,0h-6v-1h6Zm-11,0h-6v-1h6Zm-11,0h-6v-1h6Zm-11,0h-6v-1h6Zm-11,0h-6v-1h6Zm-11,0h-6v-1h6Zm-11,0h-6v-1h6Zm-11,0h-6v-1h6Zm-11,0h-6v-1h6Zm-11,0h-6v-1h6Zm-11,0h-6v-1h6Zm-11,0h-6v-1h6Zm-11,0h-6v-1h6Zm-11,0h-6v-1h6Zm-11,0h-6v-1h6Zm-11,0h-6v-1h6Zm-11,0h-6v-1h6Zm-11,0h-6v-1h6Zm-11,0h-6v-1h6Zm-11,0h-6v-1h6Zm-11,0h-6v-1h6Zm-11,0h-6v-1h6Zm-11,0h-6v-1h6Zm-11,0h-6v-1h6Zm-11,0h-6v-1h6Zm-11,0h-6v-1h6Zm-11,0h-6v-1h6Zm-11,0h-6v-1h6Zm-11,0h-6v-1h6Zm-11,0h-6v-1h6Zm-11,0h-6v-1h6Zm-11,0h-6v-1h6Zm-11,0h-6v-1h6Zm-11,0h-6v-1h6Zm-11,0h-6v-1h6Zm-11,0h-6v-1h6Zm-11,0h-6v-1h6Zm-11,0h-6v-1h6Zm-11,0h-6v-1h6Zm-11,0h-6v-1h6Zm-11,0h-6v-1h6Zm-11,0h-6v-1h6Zm-11,0h-6v-1h6Zm-11,0h-6v-1h6Zm-11,0h-6v-1h6Zm-11,0h-6v-1h6Zm-11,0h-6v-1h6Zm-11,0h-6v-1h6Zm-11,0h-6v-1h6Zm-11,0h-6v-1h6Zm-11,0h-6v-1h6Zm-11,0h-6v-1h6Zm-11,0h-6v-1h6Zm-11,0h-6v-1h6Zm-11,0h-6v-1h6Zm-11,0h-6v-1h6Zm-11,0H99v-1h6Zm-11,0H88v-1h6Zm-11,0H77v-1h6Zm-11,0H66v-1h6Zm-11,0H55v-1h6Zm-11,0H44v-1h6Zm-11,0H33v-1h6Zm-11,0H22v-1h6Zm-11,0H11v-1h6Zm-11,0H0v-1H6Z"/><path class="cls-3" d="M1080,284.21h-2v-1h2Zm-7,0h-6v-1h6Zm-11,0h-6v-1h6Zm-11,0h-6v-1h6Zm-11,0h-6v-1h6Zm-11,0h-6v-1h6Zm-11,0h-6v-1h6Zm-11,0h-6v-1h6Zm-11,0h-6v-1h6Zm-11,0h-6v-1h6Zm-11,0h-6v-1h6Zm-11,0h-6v-1h6Zm-11,0h-6v-1h6Zm-11,0h-6v-1h6Zm-11,0h-6v-1h6Zm-11,0h-6v-1h6Zm-11,0h-6v-1h6Zm-11,0h-6v-1h6Zm-11,0h-6v-1h6Zm-11,0h-6v-1h6Zm-11,0h-6v-1h6Zm-11,0h-6v-1h6Zm-11,0h-6v-1h6Zm-11,0h-6v-1h6Zm-11,0h-6v-1h6Zm-11,0h-6v-1h6Zm-11,0h-6v-1h6Zm-11,0h-6v-1h6Zm-11,0h-6v-1h6Zm-11,0h-6v-1h6Zm-11,0h-6v-1h6Zm-11,0h-6v-1h6Zm-11,0h-6v-1h6Zm-11,0h-6v-1h6Zm-11,0h-6v-1h6Zm-11,0h-6v-1h6Zm-11,0h-6v-1h6Zm-11,0h-6v-1h6Zm-11,0h-6v-1h6Zm-11,0h-6v-1h6Zm-11,0h-6v-1h6Zm-11,0h-6v-1h6Zm-11,0h-6v-1h6Zm-11,0h-6v-1h6Zm-11,0h-6v-1h6Zm-11,0h-6v-1h6Zm-11,0h-6v-1h6Zm-11,0h-6v-1h6Zm-11,0h-6v-1h6Zm-11,0h-6v-1h6Zm-11,0h-6v-1h6Zm-11,0h-6v-1h6Zm-11,0h-6v-1h6Zm-11,0h-6v-1h6Zm-11,0h-6v-1h6Zm-11,0h-6v-1h6Zm-11,0h-6v-1h6Zm-11,0h-6v-1h6Zm-11,0h-6v-1h6Zm-11,0h-6v-1h6Zm-11,0h-6v-1h6Zm-11,0h-6v-1h6Zm-11,0h-6v-1h6Zm-11,0h-6v-1h6Zm-11,0h-6v-1h6Zm-11,0h-6v-1h6Zm-11,0h-6v-1h6Zm-11,0h-6v-1h6Zm-11,0h-6v-1h6Zm-11,0h-6v-1h6Zm-11,0h-6v-1h6Zm-11,0h-6v-1h6Zm-11,0h-6v-1h6Zm-11,0h-6v-1h6Zm-11,0h-6v-1h6Zm-11,0h-6v-1h6Zm-11,0h-6v-1h6Zm-11,0h-6v-1h6Zm-11,0h-6v-1h6Zm-11,0h-6v-1h6Zm-11,0h-6v-1h6Zm-11,0h-6v-1h6Zm-11,0h-6v-1h6Zm-11,0h-6v-1h6Zm-11,0h-6v-1h6Zm-11,0h-6v-1h6Zm-11,0h-6v-1h6Zm-11,0h-6v-1h6Zm-11,0h-6v-1h6Zm-11,0H99v-1h6Zm-11,0H88v-1h6Zm-11,0H77v-1h6Zm-11,0H66v-1h6Zm-11,0H55v-1h6Zm-11,0H44v-1h6Zm-11,0H33v-1h6Zm-11,0H22v-1h6Zm-11,0H11v-1h6Zm-11,0H0v-1H6Z"/><path class="cls-3" d="M1080,246.21h-2v-1h2Zm-7,0h-6v-1h6Zm-11,0h-6v-1h6Zm-11,0h-6v-1h6Zm-11,0h-6v-1h6Zm-11,0h-6v-1h6Zm-11,0h-6v-1h6Zm-11,0h-6v-1h6Zm-11,0h-6v-1h6Zm-11,0h-6v-1h6Zm-11,0h-6v-1h6Zm-11,0h-6v-1h6Zm-11,0h-6v-1h6Zm-11,0h-6v-1h6Zm-11,0h-6v-1h6Zm-11,0h-6v-1h6Zm-11,0h-6v-1h6Zm-11,0h-6v-1h6Zm-11,0h-6v-1h6Zm-11,0h-6v-1h6Zm-11,0h-6v-1h6Zm-11,0h-6v-1h6Zm-11,0h-6v-1h6Zm-11,0h-6v-1h6Zm-11,0h-6v-1h6Zm-11,0h-6v-1h6Zm-11,0h-6v-1h6Zm-11,0h-6v-1h6Zm-11,0h-6v-1h6Zm-11,0h-6v-1h6Zm-11,0h-6v-1h6Zm-11,0h-6v-1h6Zm-11,0h-6v-1h6Zm-11,0h-6v-1h6Zm-11,0h-6v-1h6Zm-11,0h-6v-1h6Zm-11,0h-6v-1h6Zm-11,0h-6v-1h6Zm-11,0h-6v-1h6Zm-11,0h-6v-1h6Zm-11,0h-6v-1h6Zm-11,0h-6v-1h6Zm-11,0h-6v-1h6Zm-11,0h-6v-1h6Zm-11,0h-6v-1h6Zm-11,0h-6v-1h6Zm-11,0h-6v-1h6Zm-11,0h-6v-1h6Zm-11,0h-6v-1h6Zm-11,0h-6v-1h6Zm-11,0h-6v-1h6Zm-11,0h-6v-1h6Zm-11,0h-6v-1h6Zm-11,0h-6v-1h6Zm-11,0h-6v-1h6Zm-11,0h-6v-1h6Zm-11,0h-6v-1h6Zm-11,0h-6v-1h6Zm-11,0h-6v-1h6Zm-11,0h-6v-1h6Zm-11,0h-6v-1h6Zm-11,0h-6v-1h6Zm-11,0h-6v-1h6Zm-11,0h-6v-1h6Zm-11,0h-6v-1h6Zm-11,0h-6v-1h6Zm-11,0h-6v-1h6Zm-11,0h-6v-1h6Zm-11,0h-6v-1h6Zm-11,0h-6v-1h6Zm-11,0h-6v-1h6Zm-11,0h-6v-1h6Zm-11,0h-6v-1h6Zm-11,0h-6v-1h6Zm-11,0h-6v-1h6Zm-11,0h-6v-1h6Zm-11,0h-6v-1h6Zm-11,0h-6v-1h6Zm-11,0h-6v-1h6Zm-11,0h-6v-1h6Zm-11,0h-6v-1h6Zm-11,0h-6v-1h6Zm-11,0h-6v-1h6Zm-11,0h-6v-1h6Zm-11,0h-6v-1h6Zm-11,0h-6v-1h6Zm-11,0h-6v-1h6Zm-11,0h-6v-1h6Zm-11,0h-6v-1h6Zm-11,0H99v-1h6Zm-11,0H88v-1h6Zm-11,0H77v-1h6Zm-11,0H66v-1h6Zm-11,0H55v-1h6Zm-11,0H44v-1h6Zm-11,0H33v-1h6Zm-11,0H22v-1h6Zm-11,0H11v-1h6Zm-11,0H0v-1H6Z"/></g></svg>