<svg xmlns="http://www.w3.org/2000/svg" viewBox="0 0 672 672"><defs><style>.cls-1{fill:#ef5330;}</style></defs><g id="Layer_1" data-name="Layer 1"><path class="cls-1" d="M571,441.5H101v-211H571Zm-469-1H570v-209H102Z"/><path d="M399.84,301H384.16l-16.43,62.08a7,7,0,0,0,13.54,3.58l1.63-6.16h18.2l1.63,6.16a7,7,0,0,0,6.77,5.22,7.41,7.41,0,0,0,1.79-.24,7,7,0,0,0,5-8.56ZM386.6,346.5l5.4-20.39,5.4,20.39Z"/><path d="M263.34,301H247.66l-16.43,62.08a7,7,0,0,0,13.54,3.58l1.63-6.16h18.2l1.63,6.16a7,7,0,0,0,6.77,5.22,7.41,7.41,0,0,0,1.79-.24,7,7,0,0,0,5-8.56ZM250.1,346.5l5.4-20.39,5.4,20.39Z"/><path d="M486.51,301l-14,38.09-14-38.09h-14v63.87a7,7,0,0,0,14,0V341.58l7,18.92h14.08l7-18.92v23.29a7,7,0,0,0,14,0V301Z"/><path d="M190.75,314.12a5.26,5.26,0,0,1,5.25,5.25,7,7,0,0,0,14,0,19.27,19.27,0,0,0-15.38-18.85,18.92,18.92,0,0,0-7.74,0,19.27,19.27,0,0,0-15.38,18.85v4.38a19.28,19.28,0,0,0,15.38,18.86,19.69,19.69,0,0,0,3.87.39,5.25,5.25,0,0,1,5.25,5.25v4.37a5.25,5.25,0,0,1-10.5,0,7,7,0,0,0-14,0,19.28,19.28,0,0,0,15.38,18.86,19.4,19.4,0,0,0,7.74,0A19.28,19.28,0,0,0,210,352.62v-4.37a19.28,19.28,0,0,0-15.38-18.86,19,19,0,0,0-3.87-.39,5.26,5.26,0,0,1-5.25-5.25v-4.38A5.26,5.26,0,0,1,190.75,314.12Z"/><path d="M339.5,357H322V301H308v70h31.5a7,7,0,0,0,0-14Z"/></g></svg>