<svg xmlns="http://www.w3.org/2000/svg" viewBox="0 0 672 672"><defs><style>.cls-1{fill:#ef5330;}</style></defs><g id="Layer_1" data-name="Layer 1"><path class="cls-1" d="M551,597.23H121.05V74.77H551Zm-428.9-1H550V75.77H122.05Z"/><path d="M325.18,292.59a2.25,2.25,0,0,0,.41,4.46,2,2,0,0,0,.41,0,7.81,7.81,0,0,0,6.36-7.87,2.25,2.25,0,1,0-4.5.07A3.29,3.29,0,0,1,325.18,292.59Z"/><path d="M327.54,227.22c-1.34.36-2.14,2.29-1.78,4.3s1.74,3.35,3.08,3,2.15-2.29,1.79-4.3S328.89,226.86,327.54,227.22Z"/><path d="M331.25,245.66a2.25,2.25,0,0,0,2.24,2h.22l8.11-.8L339,234.17a2.25,2.25,0,1,0-4.39,1l1.72,7.75-3.05.3A2.26,2.26,0,0,0,331.25,245.66Z"/><path d="M329.53,254a2.25,2.25,0,0,0,.8,3.08,13.12,13.12,0,0,0,18-4.66,2.25,2.25,0,1,0-3.88-2.28,8.63,8.63,0,0,1-11.8,3.06A2.25,2.25,0,0,0,329.53,254Z"/><path d="M366.75,325.29l24.68-13.77-1.16-2A10.13,10.13,0,0,0,378.48,305l-5.11,1.65L371,301l3.63-2-16.12-38.87a24.14,24.14,0,0,0,2.26-2.15c4.08-4.46,8.49-12.5,6.33-25.52-.76-4-1.23-7.63.77-10.82,3.4-5.45,1.9-9.44-.65-11.36-4.7-3.53-10.1-.46-12.86,2.65l-1.26-17.78a11.6,11.6,0,0,0-3.47-8,7.51,7.51,0,0,0-9.14-.42l-.08-1.16a11.77,11.77,0,0,0-3.62-8.08,7,7,0,0,0-5.3-1.67c-4.12.37-6.9,4.52-7.44,8.7a7.07,7.07,0,0,0-4-.78c-5.4.51-7.87,5.87-7.51,10.9l.61,8.58a5.74,5.74,0,0,0-3-.46c-4.46.5-7.07,4.67-6.65,10.62l1.85,26.19s0,.05,0,.08c1,12.57,6.36,19.68,11.13,23.57.47,3.34,1.38,17.17-14.64,25l-2.1,1-6.54,2.93-12.69,5.68L288,325.26l2.11-.49a10.81,10.81,0,0,0,8.39-11.47l-.37-4.77,6.72-1.16,1.23,3.05,1.54,0c25-.4,30.64-15,30.87-15.65a2.25,2.25,0,0,0-4.22-1.56c-.19.49-4.76,11.8-25.18,12.66L307.17,301l-3.53-8.72.21-.1c14.89-7.28,17.25-19.39,17.33-26a17.34,17.34,0,0,0,3.29,1.33,2.09,2.09,0,0,0,.49.05,2.25,2.25,0,0,0,.48-4.44c-.14,0-14.15-4-15.59-24.43h0L308,213c0-.56-.3-5.5,2.66-5.83a1.35,1.35,0,0,1,1.13.38c1,.86,1.84,2.89,2,5l.08,1,1,14.49a2.25,2.25,0,0,0,4.49-.32L318.5,215h0l-.12-1.65-.07-1h0l-1.27-18c-.16-2.31.62-5.85,3.44-6.11a2.52,2.52,0,0,1,2,.6,7.43,7.43,0,0,1,2,5v0l1.72,24.31a2.25,2.25,0,0,0,2.24,2.1h.16a2.25,2.25,0,0,0,2.09-2.4l-2.22-31.42c-.2-2.85,1.53-5.94,3.44-6.11a2.49,2.49,0,0,1,2,.62,7.47,7.47,0,0,1,2.05,5l2.22,31.42a2.25,2.25,0,0,0,4.49-.31L341.18,196a.27.27,0,0,0,0-.09c-.15-2.25.62-5.9,3.4-6.11a2.74,2.74,0,0,1,2.13.67,7.27,7.27,0,0,1,1.93,4.92l2.21,31.32h0v0l.45,6.35s0,0,0,0a2.25,2.25,0,0,0,.2.77s0,0,0,.05a2.5,2.5,0,0,0,.43.58l.07.07a2.15,2.15,0,0,0,.61.38l.08,0a2.37,2.37,0,0,0,.75.14h.22l.17,0,.25-.05.18-.06.23-.09.18-.11a2,2,0,0,0,.19-.12l.15-.14.17-.15.12-.17.13-.18a1.51,1.51,0,0,0,.09-.18l.1-.21c0-.07,0-.14.05-.2a1.89,1.89,0,0,0,0-.23c0-.07,0-.14,0-.21s0-.14,0-.21c0-1-.22-3.36-.35-5l-.11-1.41v0c-.31-4.45.39-7.94,2-10.12.81-1.05,4.37-4.59,7.16-2.49,1.24.94,1.07,2.95-.46,5.38-3.08,4.94-2.06,10.42-1.38,14,1.85,11.19-1.82,18-5.22,21.7-4.3,4.71-10,6.55-13.74,6.25a2.25,2.25,0,0,0-.34,4.49c.38,0,.76,0,1.15,0a21,21,0,0,0,10.21-2.95l10.14,24.43c-.44,1-1.91,3.28-6.25,4.15a2.25,2.25,0,0,0,.89,4.42A13.82,13.82,0,0,0,366.9,292l2.07,5-12.75,7.11-22.66-29.7A2.25,2.25,0,1,0,330,277.1l25,32.8h0l2.94,3.86ZM297.8,304l-.7-8.74,2.44-1.09.39,1,3.22,7.94Zm69.27-.85,2,4.91-7.86,2.55L359,307.69Z"/><path d="M345.41,234.51c1.35-.36,2.15-2.29,1.79-4.3s-1.74-3.35-3.09-3-2.14,2.29-1.78,4.3S344.07,234.87,345.41,234.51Z"/><path d="M337.5,490.28H330v-24h-6v30h13.5a3,3,0,0,0,0-6Z"/><path d="M267,471.14a8.25,8.25,0,0,1-6.26-13.61,3,3,0,0,1,4.56,3.9,2.23,2.23,0,0,0-.53,1.64,2.18,2.18,0,0,0,.78,1.53,2.24,2.24,0,0,0,3.17-.24l1.22-1.43a2.25,2.25,0,0,0-.25-3.17,8.25,8.25,0,0,1-.9-11.63L270,446.7a8.27,8.27,0,0,1,11.63-.9,8.26,8.26,0,0,1,.91,11.63,3,3,0,1,1-4.56-3.9,2.25,2.25,0,0,0-.25-3.17,2.25,2.25,0,0,0-3.17.24L273.31,452a2.23,2.23,0,0,0-.53,1.64,2.18,2.18,0,0,0,.78,1.53,8.25,8.25,0,0,1,.9,11.63l-1.22,1.43a8.2,8.2,0,0,1-5.63,2.86C267.39,471.14,267.17,471.14,267,471.14Z"/><path d="M410.33,466.1l-15.86-22.31-4.89,3.47,4.57,16.79-14.35-9.83-4.89,3.48L390.77,480a3,3,0,0,0,2.45,1.26,3,3,0,0,0,2.44-4.74l-5.78-8.14,7.13,4.88,4.92-3.49-2.27-8.34,5.78,8.14a3,3,0,0,0,4.89-3.48Z"/><path d="M374.82,486.4,361.1,462.54l-6.49,1.75.12,27.52a3,3,0,0,0,3,3h0a3,3,0,0,0,3-3v-2.73l7.53-2,1.36,2.37a3,3,0,0,0,5.21-3Zm-14.13-3.56,0-9,4.51,7.84Z"/><path d="M302.1,459.24l-16.3,22.18a3,3,0,0,0,4.83,3.55l1.62-2.2,7.26,2.85-.32,2.72a3,3,0,0,0,2.64,3.33l.35,0a3,3,0,0,0,3-2.65l3.2-27.34Zm-1.87,20.22-4.3-1.7,5.35-7.28Z"/><path d="M432,382.21v22.5a4.5,4.5,0,1,1-9,0v-49.5H405v49.5a22.5,22.5,0,1,0,45,0v-22.5Z"/><path d="M381,404.71a4.5,4.5,0,1,1-9,0v-22.5H354v22.5a4.5,4.5,0,1,1-9,0v-22.5H327v10.92a25.49,25.49,0,0,0-3.11-6.05L314,372.94l8.81-12.59L308.06,350,303,357.25l-8.7-12.42-14.75,10.32L292,372.94l-9.9,14.14a25.54,25.54,0,0,0-4.07,9.47A24,24,0,1,0,233.11,413,24,24,0,0,0,222,433.21v6h18v-6a6,6,0,0,1,6-6h9a24,24,0,0,0,23.42-18.81,25.47,25.47,0,0,0,49,.61A22.45,22.45,0,0,0,363,422.67a22.46,22.46,0,0,0,36-18v-22.5H381Zm-126,4.5a6,6,0,1,1,6-6A6,6,0,0,1,255,409.21Zm48,0a7.6,7.6,0,0,1-7.5-7.5,7.42,7.42,0,0,1,1.36-4.3l6.14-8.78,6.14,8.78a7.42,7.42,0,0,1,1.36,4.3A7.6,7.6,0,0,1,303,409.21Z"/><path d="M427.5,433.28a6,6,0,1,0,6,6A6,6,0,0,0,427.5,433.28Z"/></g></svg>