<svg xmlns="http://www.w3.org/2000/svg" viewBox="0 0 1080 672"><g id="Layer_1" data-name="Layer 1"><path d="M525.58,278.11a3,3,0,0,0,.53,6,3.31,3.31,0,0,0,.55-.05,10.42,10.42,0,0,0,8.48-10.51,3,3,0,1,0-6,.1A4.37,4.37,0,0,1,525.58,278.11Z"/><path d="M528.73,191c-1.8.48-2.86,3-2.38,5.74s2.32,4.47,4.11,4,2.85-3.05,2.38-5.74S530.52,190.48,528.73,191Z"/><path d="M533.67,215.55a3,3,0,0,0,3,2.71l.3,0,10.81-1.07L544,200.22a3,3,0,0,0-5.86,1.31l2.3,10.34-4.07.4A3,3,0,0,0,533.67,215.55Z"/><path d="M531.38,226.62a3,3,0,0,0,1.06,4.11,17.52,17.52,0,0,0,23.95-6.2,3,3,0,0,0-5.18-3.05,11.5,11.5,0,0,1-15.72,4.08A3,3,0,0,0,531.38,226.62Z"/><path d="M581,321.71l32.9-18.35-1.54-2.65a13.49,13.49,0,0,0-15.72-6l-6.81,2.2-3.12-7.63,4.84-2.7-21.5-51.83a34,34,0,0,0,3-2.86c5.44-6,11.31-16.67,8.44-34-1-5.38-1.64-10.18,1-14.43,4.54-7.26,2.53-12.58-.87-15.15-6.26-4.71-13.46-.61-17.14,3.54l-1.68-23.71c-.32-4.51-2-8.4-4.63-10.67A9.95,9.95,0,0,0,546,136.9l-.11-1.56c-.31-4.44-2.12-8.46-4.83-10.77a9.4,9.4,0,0,0-7.07-2.23c-5.49.51-9.19,6-9.91,11.61a9.47,9.47,0,0,0-5.37-1c-7.19.68-10.48,7.84-10,14.55l.81,11.43a7.57,7.57,0,0,0-3.94-.62c-6,.67-9.43,6.23-8.87,14.16l2.47,34.93s0,.06,0,.1c1.38,16.77,8.49,26.24,14.84,31.42.64,4.47,1.84,22.9-19.52,33.34l-2.8,1.31-8.71,3.9L466.1,285,476,321.68l2.82-.65a14.45,14.45,0,0,0,11.19-15.3l-.51-6.36,9-1.54,1.65,4.06,2.05,0c33.34-.52,40.86-20,41.16-20.86a3,3,0,0,0-5.63-2.08c-.25.65-6.35,15.74-33.58,16.88l-2.59-6.41-4.71-11.64.28-.13c19.85-9.7,23-25.85,23.11-34.71a23,23,0,0,0,4.39,1.77,2.85,2.85,0,0,0,.64.07,3,3,0,0,0,.65-5.93c-.19,0-18.86-5.34-20.78-32.57v0L502.72,172c-.05-.75-.4-7.33,3.54-7.77a1.84,1.84,0,0,1,1.52.5c1.38,1.15,2.45,3.86,2.65,6.72l.1,1.4,1.36,19.32a3,3,0,1,0,6-.42l-1.2-17.12h0l-.16-2.2-.1-1.4h0l-1.69-24c-.22-3.08.82-7.79,4.59-8.15a3.42,3.42,0,0,1,2.66.81c1.46,1.24,2.49,3.79,2.7,6.64v0L527,178.78a3,3,0,0,0,3,2.79h.21a3,3,0,0,0,2.78-3.2l-3-41.89c-.27-3.81,2-7.92,4.58-8.15a3.39,3.39,0,0,1,2.64.83c1.46,1.24,2.53,3.84,2.73,6.61l2.95,41.9a3,3,0,1,0,6-.43l-2-27.87v-.12c-.21-3,.83-7.87,4.53-8.14a3.69,3.69,0,0,1,2.84.88c1.41,1.22,2.37,3.67,2.58,6.56l2.95,41.77h0v.06l.6,8.46s0,0,0,0a2.91,2.91,0,0,0,.28,1,.43.43,0,0,0,0,.07,2.91,2.91,0,0,0,.57.77l.09.09a3.12,3.12,0,0,0,.81.52l.11,0a3.06,3.06,0,0,0,1,.19l.08,0h.21l.22,0a3.43,3.43,0,0,0,.34-.06,1.84,1.84,0,0,0,.25-.09l.3-.11.23-.14.26-.17a1.81,1.81,0,0,0,.21-.18c.07-.07.15-.13.22-.21l.16-.21.18-.25.12-.25a2.36,2.36,0,0,0,.12-.28,2,2,0,0,0,.07-.26,1.55,1.55,0,0,0,.07-.31,1.23,1.23,0,0,0,0-.27,2.83,2.83,0,0,0,0-.29c-.06-1.35-.3-4.48-.47-6.7l-.14-1.88v0c-.42-5.93.52-10.59,2.72-13.49,1.07-1.41,5.83-6.12,9.54-3.31,1.65,1.24,1.42,3.92-.61,7.16-4.11,6.59-2.74,13.9-1.84,18.67,2.47,14.91-2.42,24-7,28.93-5.74,6.28-13.33,8.74-18.32,8.34a3,3,0,1,0-.45,6q.75.06,1.53.06A28,28,0,0,0,565,238.29l13.51,32.58c-.58,1.28-2.55,4.37-8.33,5.54a3,3,0,0,0,.59,5.94,3.05,3.05,0,0,0,.6-.06,18.43,18.43,0,0,0,9.81-5L584,284l-17,9.48-30.21-39.61a3,3,0,0,0-4.77,3.64l33.37,43.74h0l3.92,5.14Zm-91.94-28.34-.92-11.66,3.25-1.45.52,1.29,4.29,10.59Zm92.37-1.14,2.68,6.55-10.48,3.39-3-3.92Z"/><path d="M552.55,200.68c1.79-.48,2.86-3.05,2.38-5.74s-2.32-4.46-4.11-4-2.86,3-2.38,5.74S550.76,201.17,552.55,200.68Z"/><path d="M542,541.7H532v-32h-8v40h18a4,4,0,0,0,0-8Z"/><path d="M447.94,516.19A11,11,0,0,1,439.61,498a4,4,0,1,1,6.07,5.2,3,3,0,0,0,.33,4.23,3,3,0,0,0,2.18.71,3,3,0,0,0,2.05-1l1.63-1.9a3,3,0,0,0-.33-4.23,11,11,0,0,1-1.2-15.51l1.62-1.89a11,11,0,1,1,16.71,14.3,4,4,0,1,1-6.07-5.2,3,3,0,1,0-4.56-3.9l-1.63,1.89a3,3,0,0,0-.71,2.19,3,3,0,0,0,1,2.05,11,11,0,0,1,1.2,15.51l-1.62,1.89a10.92,10.92,0,0,1-7.51,3.82Z"/><path d="M639.11,509.47,618,479.72l-6.52,4.63,6.09,22.38-19.14-13.1-6.51,4.63L613,528a4,4,0,1,0,6.52-4.64l-7.71-10.84,9.5,6.5,6.56-4.66-3-11.11,7.71,10.84a4,4,0,0,0,6.52-4.63Z"/><path d="M591.75,536.53l-18.29-31.81-8.65,2.33.16,36.7a4,4,0,0,0,4,4h0a4,4,0,0,0,4-4v-3.64l10-2.71,1.82,3.16a4,4,0,0,0,6.93-4Zm-18.83-4.74,0-12,6,10.45Z"/><path d="M494.79,500.32l-21.73,29.57a4,4,0,0,0,6.45,4.74l2.16-2.94,9.68,3.81-.42,3.62a4,4,0,0,0,3.5,4.43l.47,0a4,4,0,0,0,4-3.53l4.26-36.45Zm-2.48,27L486.57,525l7.14-9.71Z"/><path d="M668,397.61v30a6,6,0,1,1-12,0v-66H632v66a30,30,0,1,0,60,0v-30Z"/><path d="M600,427.61a6,6,0,0,1-12,0v-30H564v30a6,6,0,0,1-12,0v-30H528v14.56a33.84,33.84,0,0,0-4.15-8.06l-13.2-18.85,11.76-16.79L502.75,354.7,496,364.34l-11.6-16.57-19.66,13.76,16.61,23.73-13.2,18.85a34,34,0,0,0-5.43,12.62,32,32,0,1,0-59.91,21.93A32,32,0,0,0,388,465.61v8h24v-8a8,8,0,0,1,8-8h12a32.05,32.05,0,0,0,31.23-25.08,34,34,0,0,0,65.33.81A29.92,29.92,0,0,0,576,451.55a29.94,29.94,0,0,0,48-23.94v-30H600Zm-168,6a8,8,0,1,1,8-8A8,8,0,0,1,432,433.61Zm64,0a10.13,10.13,0,0,1-10-10,10,10,0,0,1,1.81-5.73l8.19-11.7,8.19,11.7a9.89,9.89,0,0,1,1.81,5.73A10.13,10.13,0,0,1,496,433.61Z"/><path d="M662,465.7a8,8,0,1,0,8,8A8,8,0,0,0,662,465.7Z"/></g></svg>