<svg xmlns="http://www.w3.org/2000/svg" viewBox="0 0 1080 672"><defs><style>.cls-1{fill:#ef5330;}.cls-2{fill:#fff;}.cls-3{fill:#ff7761;}</style></defs><g id="Layer_3" data-name="Layer 3"><rect class="cls-1" width="1080" height="672"/></g><g id="Layer_1" data-name="Layer 1"><path class="cls-2" d="M723,407.15a45,45,0,0,1-45-45v-99h36v99a9,9,0,1,0,18,0v-45h36v45A45,45,0,0,1,723,407.15Z"/><path class="cls-2" d="M621,407.15a45,45,0,0,1-45-45v-45h36v45a9,9,0,0,0,18,0v-45h36v45A45,45,0,0,1,621,407.15Z"/><path class="cls-2" d="M567,407.15a45,45,0,0,1-45-45v-45h36v45a9,9,0,0,0,18,0v-45h36v45A45,45,0,0,1,567,407.15Z"/><path class="cls-2" d="M378,407.15a48,48,0,1,1,48-48A48.05,48.05,0,0,1,378,407.15Zm0-60a12,12,0,1,0,12,12A12,12,0,0,0,378,347.15Z"/><path class="cls-2" d="M312,431.15v-12a48.06,48.06,0,0,1,48-48h18v36H360a12,12,0,0,0-12,12v12Z"/><path class="cls-2" d="M474,407.15a51,51,0,0,1-41.78-80.25L452,298.62,427.11,263l29.49-20.65L474,267.24l10.12-14.45,29.49,20.65L496,298.62l19.81,28.28A51,51,0,0,1,474,407.15ZM474,330l-12.29,17.55a15,15,0,0,0-2.71,8.6,15,15,0,0,0,30,0,15,15,0,0,0-2.71-8.6Z"/><circle class="cls-2" cx="723" cy="431.29" r="12"/><rect class="cls-3" x="-0.99" y="262.65" width="1080" height="1"/><rect class="cls-3" y="316.65" width="1080" height="1"/><rect class="cls-3" y="407.43" width="1080" height="1"/><rect class="cls-3" y="430.79" width="1080" height="1"/><path class="cls-3" d="M723,389.65a28.85,28.85,0,0,1-3-.15l.1-1a26.52,26.52,0,0,0,6,0l.12,1A28,28,0,0,1,723,389.65Zm-8.07-1.2a27.39,27.39,0,0,1-5.74-2.51l.5-.87a25.92,25.92,0,0,0,5.53,2.42Zm16.49-.11-.31-.95a25.93,25.93,0,0,0,5.5-2.49l.51.86A27.61,27.61,0,0,1,731.42,388.34Zm-26.48-5.45a27.67,27.67,0,0,1-4.23-4.62l.81-.59a27,27,0,0,0,4.08,4.46Zm36.39-.24-.67-.74a26.48,26.48,0,0,0,4-4.51l.82.58A28,28,0,0,1,741.33,382.65Zm-43.27-8.89a27.72,27.72,0,0,1-2-5.95l1-.2a27,27,0,0,0,1.91,5.73Zm50-.32-.91-.41a27,27,0,0,0,1.83-5.76l1,.2A27.3,27.3,0,0,1,748.09,373.44ZM695.5,362.62v-.47a27.25,27.25,0,0,1,.61-5.77l1,.21a26.58,26.58,0,0,0-.59,5.56v.45Zm55-.35h-1v-.11a26.86,26.86,0,0,0-.68-6l1-.22a27.6,27.6,0,0,1,.71,6.22Zm-51.9-10.48-.92-.39a27.74,27.74,0,0,1,3.1-5.45l.8.59A27,27,0,0,0,698.6,351.79Zm48.62-.41a26.43,26.43,0,0,0-3.07-5.2l.8-.6a27.57,27.57,0,0,1,3.18,5.39Zm-42.29-8.6-.69-.74a27.8,27.8,0,0,1,5-3.72l.5.86A26.3,26.3,0,0,0,704.93,342.78Zm35.81-.31a26.94,26.94,0,0,0-4.91-3.51l.48-.87a26.89,26.89,0,0,1,5.1,3.64Zm-26.38-5.38-.32-.94a27.1,27.1,0,0,1,6.12-1.35l.1,1A27,27,0,0,0,714.36,337.09Zm16.85-.14a26.39,26.39,0,0,0-5.91-1.2l.08-1a27.2,27.2,0,0,1,6.14,1.24Z"/><path class="cls-3" d="M621,389.65a28.85,28.85,0,0,1-3-.15l.1-1a26.52,26.52,0,0,0,6,0l.12,1A28,28,0,0,1,621,389.65Zm-8.07-1.2a27.7,27.7,0,0,1-5.75-2.51l.51-.87a25.92,25.92,0,0,0,5.53,2.42Zm16.48-.11-.3-.95a25.93,25.93,0,0,0,5.5-2.49l.51.86A27.45,27.45,0,0,1,629.41,388.34Zm-26.47-5.45a27.67,27.67,0,0,1-4.23-4.62l.81-.59a26.52,26.52,0,0,0,4.08,4.46Zm36.39-.23-.67-.75a26.48,26.48,0,0,0,4-4.51l.82.58A28.5,28.5,0,0,1,639.33,382.66Zm-43.27-8.9a27.72,27.72,0,0,1-2-5.95l1-.2a27,27,0,0,0,1.91,5.73Zm50-.32-.91-.41a27,27,0,0,0,1.83-5.76l1,.2A27.3,27.3,0,0,1,646.09,373.44ZM593.5,362.62v-.47a27.25,27.25,0,0,1,.61-5.77l1,.21a27.26,27.26,0,0,0-.58,5.56v.45Zm55-.35h-1v-.11a26.86,26.86,0,0,0-.68-6l1-.22a27.6,27.6,0,0,1,.71,6.22Zm-51.9-10.48-.92-.39a27.74,27.74,0,0,1,3.1-5.45l.8.59A27,27,0,0,0,596.6,351.79Zm48.62-.41a26.43,26.43,0,0,0-3.07-5.2l.79-.6a27.13,27.13,0,0,1,3.19,5.39Zm-42.3-8.6-.68-.74a27.8,27.8,0,0,1,5-3.72l.5.86A26.71,26.71,0,0,0,602.92,342.78Zm35.82-.31a26.94,26.94,0,0,0-4.91-3.51l.48-.87a26.89,26.89,0,0,1,5.1,3.64Zm-26.38-5.38-.32-.94a27.1,27.1,0,0,1,6.12-1.35l.1,1A26.92,26.92,0,0,0,612.36,337.09Zm16.85-.14a26.39,26.39,0,0,0-5.91-1.2l.08-1a27.2,27.2,0,0,1,6.14,1.24Z"/><path class="cls-3" d="M567,389.65a28.85,28.85,0,0,1-3-.15l.1-1a26.52,26.52,0,0,0,6,0l.12,1A28,28,0,0,1,567,389.65Zm-8.07-1.2a27.7,27.7,0,0,1-5.75-2.51l.51-.87a25.92,25.92,0,0,0,5.53,2.42Zm16.48-.11-.3-.95a25.93,25.93,0,0,0,5.5-2.49l.51.86A27.45,27.45,0,0,1,575.41,388.34Zm-26.47-5.45a27.67,27.67,0,0,1-4.23-4.62l.81-.59a26.52,26.52,0,0,0,4.08,4.46Zm36.39-.24-.67-.74a26.48,26.48,0,0,0,4-4.51l.82.58A28,28,0,0,1,585.33,382.65Zm-43.27-8.89a27.72,27.72,0,0,1-2-5.95l1-.2a27,27,0,0,0,1.91,5.73Zm50-.32-.91-.41a27,27,0,0,0,1.83-5.76l1,.2A27.3,27.3,0,0,1,592.09,373.44ZM539.5,362.62v-.47a27.25,27.25,0,0,1,.61-5.77l1,.21a27.26,27.26,0,0,0-.58,5.56v.45Zm55-.35h-1v-.11a26.86,26.86,0,0,0-.68-6l1-.22a27.6,27.6,0,0,1,.71,6.22Zm-51.9-10.48-.92-.39a27.74,27.74,0,0,1,3.1-5.45l.8.59A27,27,0,0,0,542.6,351.79Zm48.62-.41a26.43,26.43,0,0,0-3.07-5.2l.79-.6a27.13,27.13,0,0,1,3.19,5.39Zm-42.3-8.6-.68-.74a27.8,27.8,0,0,1,5-3.72l.5.86A26.71,26.71,0,0,0,548.92,342.78Zm35.82-.31a26.94,26.94,0,0,0-4.91-3.51l.48-.87a26.89,26.89,0,0,1,5.1,3.64Zm-26.38-5.38-.32-.94a27.1,27.1,0,0,1,6.12-1.35l.1,1A26.92,26.92,0,0,0,558.36,337.09Zm16.85-.14a26.39,26.39,0,0,0-5.91-1.2l.08-1a27.2,27.2,0,0,1,6.14,1.24Z"/><path class="cls-3" d="M375.61,389.56a30.71,30.71,0,0,1-6-1.08l.27-1a29.58,29.58,0,0,0,5.84,1.06Zm5.11,0-.09-1a29.43,29.43,0,0,0,5.83-1.11l.29.95A30.17,30.17,0,0,1,380.72,389.54Zm-15.93-2.89a30.62,30.62,0,0,1-5.24-3.2l.61-.8a29.21,29.21,0,0,0,5.06,3.1Zm26.72-.14-.45-.9a28.48,28.48,0,0,0,5-3.15l.62.79A30.84,30.84,0,0,1,391.51,386.51ZM355.76,380a30.44,30.44,0,0,1-3.74-4.87l.86-.52a29.36,29.36,0,0,0,3.6,4.71Zm44.71-.24-.74-.67a29.52,29.52,0,0,0,3.56-4.76l.86.52A31.45,31.45,0,0,1,400.47,379.78Zm-50.76-9.19a30.91,30.91,0,0,1-1.71-5.9l1-.18a29.56,29.56,0,0,0,1.66,5.7Zm56.7-.31-.93-.36a29.58,29.58,0,0,0,1.59-5.72l1,.17A30.84,30.84,0,0,1,406.41,370.28ZM347.5,359.6v-.45a30.64,30.64,0,0,1,.52-5.66l1,.19a30.25,30.25,0,0,0-.5,5.47v.44Zm61-.32h-1v-.13a29.89,29.89,0,0,0-.59-5.9l1-.2a30.41,30.41,0,0,1,.61,6.1Zm-58.18-10.37-.93-.35a30.91,30.91,0,0,1,2.7-5.51l.85.53A29.61,29.61,0,0,0,350.32,348.91Zm55.2-.41a30.25,30.25,0,0,0-2.69-5.29l.84-.54a30.25,30.25,0,0,1,2.78,5.47Zm-49.62-8.88-.75-.67a30.58,30.58,0,0,1,4.5-4.16l.6.8A29.12,29.12,0,0,0,355.9,339.62Zm43.91-.33a29.23,29.23,0,0,0-4.42-4l.59-.8a30.58,30.58,0,0,1,4.57,4.09ZM364.44,333l-.46-.89a30.85,30.85,0,0,1,5.71-2.26l.27,1A28.85,28.85,0,0,0,364.44,333Zm26.73-.2a29.06,29.06,0,0,0-5.55-2.1l.26-1a31.34,31.34,0,0,1,5.74,2.17Zm-16.36-2.93-.1-1a31.39,31.39,0,0,1,6.13-.05l-.09,1A30.23,30.23,0,0,0,374.81,329.82Z"/><path class="cls-3" d="M474,389.65c-1,0-1.92,0-2.87-.12l.09-1a33.62,33.62,0,0,0,5.85,0l.09,1C476.12,389.6,475.05,389.65,474,389.65Zm-7.83-.92a32.08,32.08,0,0,1-5.72-1.93l.41-.91a32,32,0,0,0,5.54,1.87Zm15.95-.07-.24-1a31.65,31.65,0,0,0,5.52-1.92l.42.91A33.16,33.16,0,0,1,482.12,388.66ZM456,384.43a33.46,33.46,0,0,1-4.78-3.69l.68-.73a31.9,31.9,0,0,0,4.63,3.57Zm36.2-.16-.55-.84a32.14,32.14,0,0,0,4.6-3.62l.69.73A34.12,34.12,0,0,1,492.23,384.27Zm-44.4-7.21a33,33,0,0,1-3.33-5l.88-.47a32.73,32.73,0,0,0,3.23,4.88Zm52.53-.23-.78-.62a33.49,33.49,0,0,0,3.18-4.91l.89.47A34.26,34.26,0,0,1,500.36,376.83Zm-57.91-9.39a33.63,33.63,0,0,1-1.51-5.84l1-.16a32.45,32.45,0,0,0,1.46,5.66Zm63.2-.28-.94-.33a32.53,32.53,0,0,0,1.41-5.68l1,.15A33.71,33.71,0,0,1,505.65,367.16Zm-65.14-10.57v-.43a34.53,34.53,0,0,1,.46-5.58l1,.16a32.67,32.67,0,0,0-.45,5.42v.42Zm67-.3h-1v-.14a33.32,33.32,0,0,0-.52-5.82l1-.18a33.5,33.5,0,0,1,.54,6ZM443.12,346l-.95-.31a33.08,33.08,0,0,1,2.39-5.54l.88.48A32.72,32.72,0,0,0,443.12,346Zm61.63-.4a32.73,32.73,0,0,0-2.39-5.34l.87-.49a34.36,34.36,0,0,1,2.47,5.5Zm-56.66-9.07-.8-.6a33.63,33.63,0,0,1,4.06-4.46l.67.73A32.9,32.9,0,0,0,448.09,336.54Zm51.57-.34a33.66,33.66,0,0,0-4-4.27l.67-.75a33.61,33.61,0,0,1,4.11,4.41Zm-43.81-7-.55-.83a33.87,33.87,0,0,1,5.28-2.91l.4.92A32.82,32.82,0,0,0,455.85,329.19Zm35.94-.23a32.79,32.79,0,0,0-5.16-2.76l.39-.92a33.52,33.52,0,0,1,5.32,2.84Zm-26.2-4.2-.26-1a33.09,33.09,0,0,1,5.94-1l.08,1A32.9,32.9,0,0,0,465.59,324.76Zm16.42-.11a33.14,33.14,0,0,0-5.78-.92l.07-1a33.07,33.07,0,0,1,5.95.94Z"/><path class="cls-3" d="M213.85,671l-.82-.58,2.89-4.12.82.57Zm5.75-8.22-.81-.58,3.44-4.91.82.57Zm6.31-9-.82-.58,3.45-4.91.82.57Zm6.31-9-.82-.58,3.45-4.91.81.57Zm6.31-9-.82-.58,3.44-4.91.82.57Zm6.31-9-.82-.57,3.44-4.91.82.57Zm6.31-9-.82-.57,3.44-4.91.82.57Zm6.31-9-.82-.57,3.44-4.92.82.58Zm6.31-9-.82-.57,3.44-4.92.82.58Zm6.31-9-.82-.57,3.44-4.92.82.58Zm6.31-9-.82-.57,3.44-4.92.82.58Zm6.31-9-.82-.57,3.44-4.92.82.58Zm6.31-9-.82-.57,3.44-4.92.82.58Zm6.31-9-.82-.57,3.44-4.92.82.57Zm6.31-9-.82-.57,3.44-4.92.82.57Zm6.31-9-.82-.58,3.44-4.91.82.57Zm6.3-9-.81-.58,3.44-4.91.82.57Zm6.31-9-.82-.58,3.45-4.91.82.57Zm6.31-9-.82-.58,3.45-4.91.81.57Zm6.31-9-.82-.58,3.44-4.91.82.57Zm6.31-9-.82-.57,3.44-4.91.82.57Zm6.31-9L345,482l3.44-4.91.82.57Zm6.31-9-.82-.57,3.44-4.92.82.58Zm6.31-9-.82-.57,3.44-4.92.82.58Zm6.31-9-.82-.57,3.44-4.92.82.58Zm6.31-9-.82-.57,3.44-4.92.82.58Zm6.31-9-.82-.57,3.44-4.92.82.58Zm6.31-9-.82-.57,3.44-4.92.82.58Zm6.31-9-.82-.57,3.44-4.92.82.57Zm6.31-9-.82-.57,3.44-4.92.82.57Zm6.31-9-.82-.58L405.2,396l.82.57Zm6.3-9-.81-.58,3.44-4.91.82.57Zm6.31-9-.82-.58,3.45-4.91.82.57Zm6.31-9-.82-.58,3.45-4.91.81.57Zm6.31-9-.82-.58,3.44-4.91.82.57Zm6.31-9-.82-.57,3.44-4.91.82.57Zm6.31-9-.82-.57,3.44-4.91.82.57Zm6.31-9-.82-.57,3.44-4.92.82.58Zm6.31-9-.82-.57,3.44-4.92.82.58Zm6.31-9-.82-.57,3.44-4.92.82.58Zm6.31-9-.82-.57,3.44-4.92.82.58Zm6.31-9-.82-.57,3.44-4.92.82.58Zm6.31-9-.82-.57,3.44-4.92.82.58Zm6.31-9-.82-.57,3.44-4.92.82.57Zm6.31-9-.82-.57,3.44-4.92.82.57Zm6.31-9-.82-.58,3.44-4.91.82.57Zm6.3-9-.81-.58,3.44-4.91.82.57Zm6.31-9-.82-.58,3.45-4.91.82.57Zm6.31-9-.82-.58,3.45-4.91.81.57Zm6.31-9-.82-.58,3.44-4.91.82.57Zm6.31-9-.82-.57,3.44-4.91.82.57Zm6.31-9-.82-.57,3.44-4.91.82.57Zm6.31-9-.82-.57,3.44-4.91.82.57Zm6.31-9-.82-.57,3.44-4.92.82.58Zm6.31-9-.82-.57,3.44-4.92.82.58Zm6.31-9-.82-.57,3.44-4.92.82.58Zm6.31-9-.82-.57,3.44-4.92.82.58Zm6.31-9-.82-.57,3.44-4.92.82.58Zm6.31-9-.82-.57,3.44-4.92.82.57Zm6.31-9-.82-.57,3.44-4.92.82.57Zm6.31-9-.82-.58,3.44-4.91.82.57Zm6.3-9-.81-.58,3.44-4.91.82.57Zm6.31-9-.82-.58,3.45-4.91.82.57Zm6.31-9-.82-.58,3.45-4.91.81.57Zm6.31-9-.82-.58,3.44-4.91.82.57Zm6.31-9-.82-.57L626,80.64l.82.57Zm6.31-9-.82-.57,3.44-4.91.82.57Zm6.31-9-.82-.57,3.44-4.91.82.57Zm6.31-9-.82-.57L645,53.6l.82.58Zm6.31-9-.82-.57,3.44-4.92.82.58Zm6.31-9-.82-.57,3.44-4.92.82.58Zm6.31-9-.82-.57,3.44-4.92.82.58Zm6.31-9-.82-.57,3.44-4.92.82.58Zm6.31-9-.82-.57,3.44-4.92.82.57Zm6.31-9-.82-.57,3.44-4.92.82.57Z"/><path class="cls-3" d="M734.89,672.08l-3.44-4.92.82-.57,3.44,4.92Zm-6.31-9-3.44-4.92.82-.57,3.44,4.91Zm-6.31-9-3.44-4.92.82-.57,3.44,4.91Zm-6.31-9-3.44-4.92.82-.57,3.44,4.91Zm-6.31-9-3.44-4.92.82-.57,3.44,4.91Zm-6.31-9-3.44-4.92.82-.57,3.44,4.91ZM697,618l-3.44-4.91.82-.57,3.44,4.91Zm-6.31-9-3.44-4.91.82-.57,3.44,4.91Zm-6.31-9L681,595.08l.82-.58,3.44,4.92Zm-6.31-9-3.44-4.91.82-.58,3.44,4.92Zm-6.3-9-3.45-4.91.82-.58,3.44,4.92Zm-6.31-9L662,568.05l.82-.58,3.45,4.92Zm-6.31-9L655.74,559l.81-.58,3.45,4.92Zm-6.31-9L649.43,550l.81-.57,3.45,4.92Zm-6.31-9L643.12,541l.82-.57,3.44,4.92Zm-6.31-9L636.81,532l.82-.57,3.44,4.91Zm-6.31-9L630.5,523l.82-.57,3.44,4.91Zm-6.31-9L624.19,514l.82-.57,3.44,4.91Zm-6.31-9L617.88,505l.82-.57,3.44,4.91Zm-6.31-9L611.57,496l.82-.57,3.44,4.91Zm-6.31-9L605.26,487l.82-.57,3.44,4.91Zm-6.31-9L599,477.94l.82-.57,3.44,4.91Zm-6.31-9-3.44-4.91.82-.57,3.44,4.91Zm-6.31-9-3.44-4.91.82-.58,3.44,4.92Zm-6.31-9L580,450.91l.82-.58,3.44,4.92Zm-6.3-9-3.45-4.91.82-.58,3.44,4.92Zm-6.31-9-3.45-4.91.82-.58,3.44,4.92Zm-6.31-9-3.44-4.91.81-.58,3.45,4.92Zm-6.31-9-3.44-4.92.81-.57,3.45,4.92Zm-6.31-9-3.44-4.92.82-.57,3.44,4.92Zm-6.31-9-3.44-4.92.82-.57,3.44,4.91Zm-6.31-9-3.44-4.92.82-.57,3.44,4.91Zm-6.31-9-3.44-4.92.82-.57,3.44,4.91Zm-6.31-9-3.44-4.92.82-.57,3.44,4.91Zm-6.31-9-3.44-4.92.82-.57,3.44,4.91Zm-6.31-9-3.44-4.92.82-.57,3.44,4.91Zm-6.31-9-3.44-4.91.82-.57,3.44,4.91Zm-6.31-9L498,333.77l.82-.57,3.44,4.91Zm-6.31-9-3.44-4.91.82-.58L496,329.1Zm-6.31-9-3.44-4.91.82-.58,3.44,4.92Zm-6.3-9-3.45-4.91.82-.58,3.44,4.92Zm-6.31-9-3.45-4.91.82-.58,3.44,4.92Zm-6.31-9-3.45-4.91.82-.58,3.45,4.92Zm-6.31-9-3.44-4.92.81-.57,3.45,4.92Zm-6.31-9-3.44-4.92.82-.57L458.1,275Zm-6.31-9-3.44-4.92.82-.57,3.44,4.91Zm-6.31-9-3.44-4.92.82-.57,3.44,4.91Zm-6.31-9-3.44-4.92.82-.57,3.44,4.91Zm-6.31-9-3.44-4.92.82-.57,3.44,4.91Zm-6.31-9-3.44-4.92.82-.57,3.44,4.91Zm-6.31-9L416,216.63l.82-.57,3.44,4.91Zm-6.31-9-3.44-4.91.82-.57,3.44,4.91Zm-6.31-9-3.44-4.91.82-.57,3.44,4.91Zm-6.31-9-3.44-4.91.82-.58,3.44,4.92Zm-6.31-9-3.44-4.91.82-.58,3.44,4.92Zm-6.3-9-3.45-4.91.82-.58,3.44,4.92Zm-6.31-9-3.45-4.91.82-.58,3.44,4.92Zm-6.31-9-3.45-4.91.82-.58,3.45,4.92Zm-6.31-9-3.44-4.92.81-.57,3.45,4.92Zm-6.31-9-3.44-4.92L360,135l3.44,4.92Zm-6.31-9-3.44-4.92.82-.57,3.44,4.91Zm-6.31-9-3.44-4.92.82-.57,3.44,4.91Zm-6.31-9-3.44-4.92.82-.57,3.44,4.91Zm-6.31-9L334,99.49l.82-.57,3.44,4.91Zm-6.31-9-3.44-4.92.82-.57,3.44,4.91Zm-6.31-9-3.44-4.92.82-.57,3.44,4.91Zm-6.31-9L315,72.46l.82-.57,3.44,4.91Zm-6.31-9-3.44-4.91.82-.57L313,67.79Zm-6.31-9-3.44-4.91.82-.58,3.44,4.92Zm-6.31-9-3.44-4.91.82-.58,3.44,4.92Zm-6.31-9-3.44-4.91.82-.58,3.44,4.92Zm-6.3-9-3.45-4.91.82-.58,3.44,4.92Zm-6.31-9-3.45-4.91.82-.58,3.45,4.92Zm-6.31-9-3.44-4.92.81-.57,3.45,4.92Zm-6.31-9L264.56.37l.82-.57,3.44,4.92Z"/></g></svg>