<svg xmlns="http://www.w3.org/2000/svg" viewBox="0 0 672 672"><defs><style>.cls-1{fill:#ef5330;}</style></defs><g id="Layer_1" data-name="Layer 1"><path class="cls-1" d="M510.48,535.92H161.89V136.08H510.48Zm-347.59-1H509.48V137.08H162.89Z"/><path d="M321.58,392.11a3,3,0,0,0,.53,5.95,3.41,3.41,0,0,0,.55-.05,10.43,10.43,0,0,0,8.48-10.5,3.06,3.06,0,0,0-3.05-2.95,3,3,0,0,0-2.95,3.05A4.38,4.38,0,0,1,321.58,392.11Z"/><path d="M324.72,305c-1.79.49-2.85,3.06-2.37,5.74s2.32,4.47,4.11,4,2.85-3.06,2.37-5.74S326.52,304.47,324.72,305Z"/><path d="M329.67,329.55a3,3,0,0,0,3,2.7h.3l10.81-1.07L340,314.22a3,3,0,1,0-5.86,1.3l2.3,10.34-4.07.41A3,3,0,0,0,329.67,329.55Z"/><path d="M327.38,340.61a3,3,0,0,0,1.06,4.11,17.5,17.5,0,0,0,23.94-6.2,3,3,0,1,0-5.17-3,11.49,11.49,0,0,1-15.72,4.07A3,3,0,0,0,327.38,340.61Z"/><path d="M408.36,414.71a13.5,13.5,0,0,0-15.72-6l-6.81,2.21-3.12-7.64,4.84-2.7-21.49-51.81a31.45,31.45,0,0,0,3-2.88c5.43-5.94,11.31-16.66,8.43-34-1-5.39-1.63-10.19,1-14.44,4.54-7.26,2.53-12.58-.87-15.14-6.26-4.72-13.46-.62-17.15,3.53l-1.67-23.71c-.32-4.5-2-8.39-4.63-10.67a9.67,9.67,0,0,0-7.21-2.33,9.57,9.57,0,0,0-5,1.78l-.11-1.55c-.32-4.44-2.12-8.47-4.83-10.77a9.34,9.34,0,0,0-7.07-2.23c-5.49.5-9.19,6-9.91,11.59a9.47,9.47,0,0,0-5.37-1c-7.2.69-10.48,7.84-10,14.55l.81,11.43a7.67,7.67,0,0,0-3.94-.61c-6,.66-9.43,6.22-8.87,14.16l2.42,34.24h0l.05.68a1.38,1.38,0,0,0,0,.2c1.4,16.7,8.49,26.14,14.83,31.32.64,4.45,1.84,22.9-19.52,33.33l-2.77,1.3-4.14,1.86h0L262.1,399,272,435.68l2.81-.66a14.44,14.44,0,0,0,11.2-15.29l-.51-6.36,9-1.55,1.65,4.07,2.05,0c33.34-.52,40.86-20,41.16-20.86a3,3,0,0,0-5.63-2.08c-.25.66-6.35,15.74-33.58,16.89l-.8-2-6.5-16.06.28-.13c19.86-9.71,23-25.86,23.11-34.72a22.72,22.72,0,0,0,4.39,1.77,2.81,2.81,0,0,0,.65.07,3,3,0,0,0,.64-5.92c-.19-.05-18.86-5.35-20.78-32.58L298.72,286c-.05-.75-.41-7.34,3.54-7.78a1.89,1.89,0,0,1,1.51.5c1.39,1.16,2.45,3.85,2.66,6.72l.25,3.61h0l1.21,17.11a3,3,0,1,0,6-.42L312.41,285h0l-1.69-24c-.22-3.08.82-7.79,4.59-8.15a3.39,3.39,0,0,1,2.66.81c1.46,1.24,2.49,3.78,2.69,6.64a.43.43,0,0,1,0,.05l2.29,32.4a3,3,0,0,0,3,2.79h.21a3,3,0,0,0,2.78-3.21L326,250.46c-.27-3.8,2-7.92,4.58-8.15a3.38,3.38,0,0,1,2.64.83c1.46,1.24,2.53,3.84,2.72,6.62l3,41.89a3,3,0,0,0,6-.42l-2-27.87v-.12c-.21-3,.83-7.88,4.52-8.15a3.66,3.66,0,0,1,2.85.89c1.41,1.22,2.37,3.67,2.58,6.56l3.55,50.29a2.36,2.36,0,0,0,0,.28c0,.09,0,.17,0,.26s.07.2.11.3a1.95,1.95,0,0,0,.25.51l.12.2.21.25c.06.06.1.12.16.17a2.19,2.19,0,0,0,.25.2,1.33,1.33,0,0,0,.19.14,2.69,2.69,0,0,0,.29.16l.2.1a2.26,2.26,0,0,0,.37.11l.18.05a2.72,2.72,0,0,0,.58.06h.21a2.34,2.34,0,0,0,.26,0l.3-.05.27-.1a1.62,1.62,0,0,0,.28-.11l.24-.14.25-.16c.08-.06.14-.13.21-.19s.15-.13.21-.2a1.24,1.24,0,0,0,.17-.23c.06-.08.12-.15.17-.23s.09-.18.13-.27a2.06,2.06,0,0,0,.12-.26c0-.09,0-.2.08-.3a2.14,2.14,0,0,0,.06-.27,1.67,1.67,0,0,0,0-.32c0-.08,0-.16,0-.24-.06-1.37-.29-4.41-.46-6.63l-.15-2c-.42-5.93.52-10.59,2.72-13.49,1.07-1.41,5.83-6.11,9.54-3.32,1.65,1.24,1.42,3.92-.61,7.17-4.12,6.58-2.74,13.89-1.84,18.66,2.47,14.92-2.42,24-7,28.93-5.74,6.28-13.33,8.7-18.32,8.34a3,3,0,1,0-.45,6q.75.06,1.53.06A28,28,0,0,0,361,352.3l13.5,32.56c-.58,1.28-2.55,4.38-8.32,5.54a3,3,0,0,0,.59,5.94,3,3,0,0,0,.59-.06,18.36,18.36,0,0,0,9.81-5l2.76,6.64-17,9.48-30.22-39.61a3,3,0,0,0-4.77,3.64l33.37,43.75h0l2.23,2.92h0L377,435.71l32.91-18.36Zm-123.3-7.35-.92-11.66,3.25-1.45,4.81,11.88Zm81.58,4.88,10.79-6,2.68,6.55-10.48,3.39Z"/><ellipse cx="347.68" cy="309.81" rx="3.34" ry="4.95" transform="translate(-30.04 37.43) rotate(-5.91)"/></g></svg>