<svg xmlns="http://www.w3.org/2000/svg" viewBox="0 0 1080 672"><defs><style>.cls-1{fill:#ff5c35;}.cls-2{fill:#fff;}.cls-3{fill:#ff8863;}</style></defs><g id="Layer_3" data-name="Layer 3"><rect class="cls-1" width="1080" height="672"/></g><g id="Layer_1" data-name="Layer 1"><path class="cls-2" d="M393.71,269.88H362.33L331.2,390.25A13.5,13.5,0,0,0,357.34,397L360,386.88h36.12L398.7,397a13.5,13.5,0,0,0,13.06,10.11,13.64,13.64,0,0,0,3.39-.43,13.5,13.5,0,0,0,9.69-16.45Zm-26.77,90L378,317.06l11.08,42.82Z"/><path class="cls-2" d="M672.71,269.88H641.33L610.2,390.25A13.5,13.5,0,0,0,636.34,397L639,386.88h36.12L677.7,397a13.5,13.5,0,0,0,13.06,10.11,13.64,13.64,0,0,0,3.39-.43,13.5,13.5,0,0,0,9.69-16.45Zm-26.77,90L657,317.06l11.08,42.82Z"/><path class="cls-2" d="M843.79,269.88l-27,73.46-27-73.46h-27V393.63a13.5,13.5,0,1,0,27,0V348.15L804,386.88h25.5l14.25-38.73v45.48a13.5,13.5,0,1,0,27,0V269.88Z"/><path class="cls-2" d="M243,294.63a11.26,11.26,0,0,1,11.25,11.25,13.5,13.5,0,0,0,27,0,38.25,38.25,0,1,0-76.5,0v6.75A38.29,38.29,0,0,0,243,350.88a11.26,11.26,0,0,1,11.25,11.25v6.75a11.25,11.25,0,0,1-22.5,0,13.5,13.5,0,0,0-27,0,38.25,38.25,0,1,0,76.5,0v-6.75A38.29,38.29,0,0,0,243,323.88a11.26,11.26,0,0,1-11.25-11.25v-6.75A11.27,11.27,0,0,1,243,294.63Z"/><path class="cls-2" d="M551.27,377.88h-40.5v-108h-27v135h67.5a13.5,13.5,0,0,0,0-27Z"/><rect class="cls-3" x="-0.99" y="269.38" width="1080" height="1"/><rect class="cls-3" y="404.38" width="1080" height="1"/><path class="cls-3" d="M243,331.18h-.58l0-1H243a24.48,24.48,0,0,0,5.34-.59l.22,1A25.27,25.27,0,0,1,243,331.18Zm-5.69-.65a24.52,24.52,0,0,1-5.81-2.12l.46-.9a24.18,24.18,0,0,0,5.57,2Zm16.14-1.61L253,328a24.46,24.46,0,0,0,5.05-3.1l.63.79A25.63,25.63,0,0,1,253.41,328.92Zm-26.27-3.31a25.11,25.11,0,0,1-4.31-4.43l.81-.61a24.44,24.44,0,0,0,4.13,4.25Zm35.22-3.52-.78-.65a24.66,24.66,0,0,0,3.22-5l.91.44A25.85,25.85,0,0,1,262.36,322.09Zm-42.21-5.31a24.61,24.61,0,0,1-2-5.86l1-.2a24.18,24.18,0,0,0,1.87,5.63Zm47.31-4.73-1-.24a24.29,24.29,0,0,0,.72-5.89h1A25.22,25.22,0,0,1,267.46,312.05Zm-48.75-6.25h-1a25.18,25.18,0,0,1,.78-6.13l1,.25A24.18,24.18,0,0,0,218.71,305.8Zm48-4.56a24.69,24.69,0,0,0-1.85-5.64l.91-.43a25.25,25.25,0,0,1,1.93,5.87Zm-45.58-6-.91-.45a25.1,25.1,0,0,1,3.37-5.17l.78.65A24.26,24.26,0,0,0,221.17,295.28Zm41.18-3.91a24.56,24.56,0,0,0-4.12-4.28l.64-.78a25.4,25.4,0,0,1,4.28,4.45ZM228,286.87l-.62-.8a25.38,25.38,0,0,1,5.28-3.2l.41.92A24.78,24.78,0,0,0,228,286.87Zm26.13-2.49a24.45,24.45,0,0,0-5.56-2.06l.24-1a24.87,24.87,0,0,1,5.79,2.14Zm-16.36-2.14-.22-1a25.87,25.87,0,0,1,6.15-.58l0,1A24.3,24.3,0,0,0,237.73,282.24Z"/><path class="cls-3" d="M243,394.18a5.51,5.51,0,0,0-.58,0l0-1H243a23.89,23.89,0,0,0,5.34-.6l.22,1A25.27,25.27,0,0,1,243,394.18Zm-5.69-.65a24.94,24.94,0,0,1-5.81-2.11l.46-.91a24.18,24.18,0,0,0,5.57,2Zm16.14-1.61L253,391a24,24,0,0,0,5.05-3.1l.63.79A25.21,25.21,0,0,1,253.41,391.92Zm-26.27-3.31a25.11,25.11,0,0,1-4.31-4.43l.81-.61a24.44,24.44,0,0,0,4.13,4.25Zm35.22-3.52-.78-.65a24.66,24.66,0,0,0,3.22-5l.91.44A25.85,25.85,0,0,1,262.36,385.09Zm-42.21-5.31a24.61,24.61,0,0,1-2-5.86l1-.2a24.18,24.18,0,0,0,1.87,5.63Zm47.31-4.73-1-.24a24.29,24.29,0,0,0,.72-5.89h1A25.16,25.16,0,0,1,267.46,375.05Zm-48.75-6.25h-1a25.18,25.18,0,0,1,.78-6.13l1,.25A24.18,24.18,0,0,0,218.71,368.8Zm48-4.56a24.85,24.85,0,0,0-1.85-5.64l.91-.43a25.41,25.41,0,0,1,1.93,5.87Zm-45.58-6-.91-.45a25.1,25.1,0,0,1,3.37-5.17l.78.65A24.26,24.26,0,0,0,221.17,358.28Zm41.18-3.91a24.5,24.5,0,0,0-4.12-4.27l.64-.79a25.4,25.4,0,0,1,4.28,4.45ZM228,349.87l-.62-.79a25.42,25.42,0,0,1,5.28-3.21l.41.93A24.31,24.31,0,0,0,228,349.87Zm26.13-2.49a24.45,24.45,0,0,0-5.56-2.06l.24-1a24.46,24.46,0,0,1,5.79,2.15Zm-16.36-2.14-.22-1a25.36,25.36,0,0,1,6.15-.58l0,1A24.3,24.3,0,0,0,237.73,345.24Z"/><path class="cls-3" d="M483.2,672.13l-1-4,1-.25,1,4Zm-2.29-8.86-1.52-5.87,1-.26,1.52,5.88Zm-2.79-10.77-1.52-5.88,1-.25,1.52,5.88Zm-2.79-10.78-1.52-5.87,1-.26,1.52,5.88ZM472.55,631,471,625.07l1-.25,1.52,5.88Zm-2.79-10.78-1.52-5.87,1-.26,1.52,5.88ZM467,609.4l-1.52-5.88,1-.25,1.52,5.88Zm-2.78-10.78-1.52-5.87,1-.26,1.52,5.88Zm-2.79-10.77L459.88,582l1-.25,1.52,5.88Zm-2.79-10.77-1.52-5.88,1-.26,1.52,5.88Zm-2.78-10.78-1.52-5.88,1-.25,1.52,5.88ZM453,555.53l-1.52-5.88,1-.26,1.52,5.88Zm-2.79-10.78-1.52-5.88,1-.25,1.52,5.88ZM447.47,534,446,528.1l1-.26,1.52,5.88Zm-2.79-10.78-1.52-5.88,1-.25,1.52,5.88Zm-2.79-10.77-1.52-5.88,1-.26,1.52,5.88Zm-2.78-10.78-1.52-5.88,1-.25,1.52,5.88Zm-2.79-10.77L434.8,485l1-.26,1.52,5.88Zm-2.79-10.78L432,474.22l1-.25,1.52,5.88Zm-2.78-10.77-1.52-5.88,1-.25,1.52,5.87ZM428,458.55l-1.52-5.88,1-.25,1.52,5.88Zm-2.79-10.77-1.52-5.88,1-.25,1.52,5.87ZM422.39,437l-1.52-5.88,1-.25,1.52,5.88Zm-2.79-10.77-1.52-5.88,1-.25,1.52,5.87Zm-2.79-10.78-1.52-5.88,1-.25,1.52,5.88ZM414,404.68l-1.52-5.88,1-.25,1.52,5.87Zm-2.79-10.78L409.72,388l1-.25,1.52,5.88Zm-2.79-10.77-1.52-5.88,1-.25,1.52,5.87Zm-2.78-10.78-1.52-5.88,1-.25,1.52,5.88Zm-2.79-10.77-1.52-5.88,1-.25,1.52,5.87Zm-2.79-10.78-1.52-5.88,1-.25,1.52,5.88ZM397.31,340l-1.52-5.88,1-.25,1.52,5.87Zm-2.79-10.78L393,323.37l1-.25L395.5,329Zm-2.79-10.77-1.52-5.88,1-.25,1.52,5.87ZM389,307.7l-1.52-5.88,1-.25,1.52,5.88Zm-2.79-10.77-1.52-5.88,1-.25,1.52,5.87Zm-2.79-10.78-1.52-5.88,1-.25,1.52,5.88Zm-2.78-10.77-1.52-5.88,1-.25,1.52,5.87ZM377.8,264.6l-1.52-5.87,1-.26,1.52,5.88ZM375,253.83,373.5,248l1-.25,1.52,5.87Zm-2.79-10.78-1.52-5.87,1-.26,1.52,5.88Zm-2.79-10.77-1.52-5.88,1-.25,1.52,5.87Zm-2.78-10.78-1.52-5.87,1-.26,1.52,5.88Zm-2.79-10.77-1.52-5.88,1-.25,1.52,5.87ZM361.08,200l-1.52-5.87,1-.26,1.52,5.88Zm-2.78-10.77-1.52-5.88,1-.25,1.52,5.87Zm-2.79-10.78L354,172.53l1-.26,1.52,5.88Zm-2.79-10.77-1.52-5.88,1-.25,1.52,5.87Zm-2.78-10.78L348.42,151l1-.26,1.52,5.88Zm-2.79-10.77-1.52-5.88,1-.25,1.52,5.87Zm-2.79-10.78-1.52-5.87,1-.26,1.52,5.88Zm-2.78-10.77-1.52-5.88,1-.25,1.52,5.87Zm-2.79-10.78-1.52-5.87,1-.26,1.52,5.88ZM336,103l-1.52-5.88,1-.25,1.52,5.87ZM333.22,92.2l-1.52-5.87,1-.26L334.2,92Zm-2.79-10.77-1.52-5.88,1-.25,1.52,5.88Zm-2.79-10.78-1.52-5.87,1-.26,1.52,5.88Zm-2.78-10.77L323.34,54l1-.25,1.52,5.88ZM322.07,49.1l-1.52-5.87,1-.26,1.52,5.88Zm-2.79-10.77-1.52-5.88,1-.25,1.52,5.88ZM316.5,27.55,315,21.68l1-.26,1.52,5.88Zm-2.79-10.77-1.52-5.88,1-.25,1.52,5.88ZM310.92,6,309.4.13l1-.26,1.52,5.88Z"/><path class="cls-3" d="M272.71,672.13l-1-.26,1.52-5.87,1,.25Zm2.79-10.78-1-.25,1.52-5.88,1,.25Zm2.79-10.77-1-.26,1.52-5.87,1,.25Zm2.78-10.78-1-.25,1.52-5.88,1,.25ZM283.86,629l-1-.26,1.52-5.87,1,.25Zm2.79-10.78-1-.25,1.52-5.88,1,.25Zm2.78-10.77-1-.26,1.52-5.87,1,.25Zm2.79-10.78-1-.25,1.52-5.88,1,.26ZM295,585.93l-1-.26,1.52-5.87,1,.25Zm2.78-10.78-1-.25,1.52-5.88,1,.26Zm2.79-10.77-1-.26,1.52-5.87,1,.25Zm2.78-10.78-1-.25,1.52-5.88,1,.26Zm2.79-10.77-1-.26,1.52-5.87,1,.25Zm2.79-10.78-1-.25,1.52-5.88,1,.26Zm2.78-10.77-1-.26,1.52-5.87,1,.25Zm2.79-10.78-1-.25,1.52-5.88,1,.26Zm2.79-10.77-1-.26,1.52-5.87,1,.25ZM320.08,489l-1-.25,1.52-5.88,1,.26Zm2.79-10.77-1-.26,1.52-5.87,1,.25Zm2.79-10.78-1-.25,1.52-5.88,1,.26Zm2.78-10.77-1-.26L329,450.5l1,.25Zm2.79-10.78-1-.25,1.52-5.88,1,.26ZM334,435.08l-1-.26,1.52-5.87,1,.25Zm2.78-10.78-1-.25,1.52-5.88,1,.26Zm2.79-10.77-1-.26,1.52-5.87,1,.25Zm2.79-10.78-1-.25,1.52-5.88,1,.26ZM345.16,392l-1-.25,1.52-5.88,1,.25ZM348,381.2l-1-.25,1.52-5.88,1,.26Zm2.79-10.77-1-.25,1.52-5.88,1,.25Zm2.78-10.78-1-.25,1.52-5.88,1,.26Zm2.79-10.77-1-.25,1.52-5.88,1,.25Zm2.79-10.78-1-.25,1.52-5.88,1,.26Zm2.78-10.77-1-.25,1.52-5.88,1,.25Zm2.79-10.78-1-.25,1.52-5.88,1,.26Zm2.79-10.77-1-.25,1.52-5.88,1,.25ZM370.24,295l-1-.25,1.52-5.88,1,.26ZM373,284.23l-1-.25,1.52-5.88,1,.25Zm2.79-10.78-1-.25,1.52-5.88,1,.26Zm2.78-10.77-1-.25,1.52-5.88,1,.25Zm2.79-10.78-1-.25,1.52-5.88,1,.26Zm2.79-10.77-1-.25,1.52-5.88,1,.25ZM387,230.35l-1-.25,1.52-5.88,1,.26Zm2.79-10.77-1-.25,1.52-5.88,1,.25Zm2.79-10.78-1-.25,1.52-5.88,1,.26ZM395.32,198l-1-.25,1.52-5.88,1,.25Zm2.79-10.77-1-.26,1.52-5.88,1,.26Zm2.79-10.78-1-.25,1.52-5.88,1,.25Zm2.78-10.77-1-.26,1.52-5.88,1,.26Zm2.79-10.78-1-.25L407,148.8l1,.25Zm2.79-10.77-1-.26L409.8,138l1,.26ZM412,133.38l-1-.25,1.52-5.88,1,.25Zm2.79-10.77-1-.26,1.52-5.88,1,.26Zm2.79-10.78-1-.25,1.52-5.88,1,.25Zm2.78-10.77-1-.26,1.52-5.87,1,.25Zm2.79-10.78-1-.25,1.52-5.88,1,.25ZM426,79.51l-1-.26,1.52-5.87,1,.25Zm2.78-10.78-1-.25,1.52-5.88,1,.25ZM431.55,58l-1-.26,1.52-5.87,1,.25Zm2.79-10.78-1-.25,1.52-5.88,1,.25Zm2.78-10.77-1-.26,1.52-5.87,1,.25Zm2.79-10.78-1-.25,1.52-5.88,1,.25Zm2.79-10.77-1-.26,1.52-5.87,1,.25Zm2.78-10.78-1-.25,1-4,1,.26Z"/><path class="cls-3" d="M762.2,672.13l-1-4,1-.25,1,4Zm-2.29-8.86-1.52-5.87,1-.26,1.52,5.88Zm-2.79-10.77-1.52-5.88,1-.25,1.52,5.88Zm-2.79-10.78-1.52-5.87,1-.26,1.52,5.88ZM751.55,631,750,625.07l1-.25,1.52,5.88Zm-2.79-10.78-1.52-5.87,1-.26,1.52,5.88ZM746,609.4l-1.52-5.88,1-.25,1.52,5.88Zm-2.78-10.78-1.52-5.87,1-.26,1.52,5.88Zm-2.79-10.77L738.88,582l1-.25,1.52,5.88Zm-2.79-10.77-1.52-5.88,1-.26,1.52,5.88Zm-2.78-10.78-1.52-5.88,1-.25,1.52,5.88ZM732,555.53l-1.52-5.88,1-.26,1.52,5.88Zm-2.79-10.78-1.52-5.88,1-.25,1.52,5.88ZM726.47,534,725,528.1l1-.26,1.52,5.88Zm-2.79-10.78-1.52-5.88,1-.25,1.52,5.88Zm-2.79-10.77-1.52-5.88,1-.26,1.52,5.88Zm-2.78-10.78-1.52-5.88,1-.25,1.52,5.88Zm-2.79-10.77L713.8,485l1-.26,1.52,5.88Zm-2.79-10.78L711,474.22l1-.25,1.52,5.88Zm-2.78-10.77-1.52-5.88,1-.25,1.52,5.87ZM707,458.55l-1.52-5.88,1-.25,1.52,5.88Zm-2.79-10.77-1.52-5.88,1-.25,1.52,5.87ZM701.39,437l-1.52-5.88,1-.25,1.52,5.88Zm-2.79-10.77-1.52-5.88,1-.25,1.52,5.87Zm-2.79-10.78-1.52-5.88,1-.25,1.52,5.88ZM693,404.68l-1.52-5.88,1-.25,1.52,5.87Zm-2.79-10.78L688.72,388l1-.25,1.52,5.88Zm-2.79-10.77-1.52-5.88,1-.25,1.52,5.87Zm-2.78-10.78-1.52-5.88,1-.25,1.52,5.88Zm-2.79-10.77-1.52-5.88,1-.25,1.52,5.87Zm-2.79-10.78-1.52-5.88,1-.25,1.52,5.88ZM676.31,340l-1.52-5.88,1-.25,1.52,5.87Zm-2.79-10.78L672,323.37l1-.25L674.5,329Zm-2.79-10.77-1.52-5.88,1-.25,1.52,5.87ZM668,307.7l-1.52-5.88,1-.25,1.52,5.88Zm-2.79-10.77-1.52-5.88,1-.25,1.52,5.87Zm-2.78-10.78-1.53-5.88,1-.25,1.52,5.88Zm-2.79-10.77-1.52-5.88,1-.25,1.52,5.87ZM656.8,264.6l-1.52-5.87,1-.26,1.52,5.88ZM654,253.83,652.5,248l1-.25,1.52,5.87Zm-2.79-10.78-1.52-5.87,1-.26,1.52,5.88Zm-2.79-10.77-1.52-5.88,1-.25,1.52,5.87Zm-2.78-10.78-1.52-5.87,1-.26,1.52,5.88Zm-2.79-10.77-1.52-5.88,1-.25,1.52,5.87ZM640.08,200l-1.52-5.87,1-.26,1.52,5.88Zm-2.78-10.77-1.52-5.88,1-.25,1.52,5.87Zm-2.79-10.78L633,172.53l1-.26,1.52,5.88Zm-2.79-10.77-1.52-5.88,1-.25,1.52,5.87Zm-2.78-10.78L627.42,151l1-.26,1.52,5.88Zm-2.79-10.77-1.52-5.88,1-.25,1.52,5.87Zm-2.79-10.78-1.52-5.87,1-.26,1.52,5.88Zm-2.78-10.77-1.52-5.88,1-.25,1.52,5.87Zm-2.79-10.78-1.52-5.87,1-.26,1.52,5.88ZM615,103l-1.52-5.88,1-.25,1.52,5.87ZM612.22,92.2l-1.52-5.87,1-.26L613.2,92Zm-2.79-10.77-1.52-5.88,1-.25,1.52,5.88Zm-2.79-10.78-1.52-5.87,1-.26,1.52,5.88Zm-2.78-10.77L602.34,54l1-.25,1.52,5.88ZM601.07,49.1l-1.52-5.87,1-.26,1.52,5.88Zm-2.79-10.77-1.52-5.88,1-.25,1.52,5.88ZM595.5,27.55,594,21.68l1-.26,1.52,5.88Zm-2.79-10.77-1.52-5.88,1-.25,1.52,5.88ZM589.92,6,588.4.13l1-.26,1.52,5.88Z"/><path class="cls-3" d="M551.71,672.13l-1-.26,1.52-5.87,1,.25Zm2.79-10.78-1-.25,1.52-5.88,1,.25Zm2.79-10.77-1-.26,1.52-5.87,1,.25Zm2.78-10.78-1-.25,1.52-5.88,1,.25ZM562.86,629l-1-.26,1.52-5.87,1,.25Zm2.79-10.78-1-.25,1.52-5.88,1,.25Zm2.78-10.77-1-.26,1.52-5.87,1,.25Zm2.79-10.78-1-.25,1.52-5.88,1,.26ZM574,585.93l-1-.26,1.52-5.87,1,.25Zm2.78-10.78-1-.25,1.52-5.88,1,.26Zm2.79-10.77-1-.26,1.52-5.87,1,.25Zm2.79-10.78-1-.25,1.52-5.88,1,.26Zm2.78-10.77-1-.26,1.52-5.87,1,.25Zm2.79-10.78-1-.25,1.52-5.88,1,.26Zm2.79-10.77-1-.26,1.52-5.87,1,.25Zm2.78-10.78-1-.25,1.52-5.88,1,.26Zm2.79-10.77-1-.26,1.52-5.87,1,.25ZM599.08,489l-1-.25,1.52-5.88,1,.26Zm2.79-10.77-1-.26,1.52-5.87,1,.25Zm2.79-10.78-1-.25,1.52-5.88,1,.26Zm2.78-10.77-1-.26L608,450.5l1,.25Zm2.79-10.78-1-.25,1.52-5.88,1,.26ZM613,435.08l-1-.26,1.52-5.87,1,.25Zm2.78-10.78-1-.25,1.52-5.88,1,.26Zm2.79-10.77-1-.26,1.52-5.87,1,.25Zm2.79-10.78-1-.25,1.52-5.88,1,.26ZM624.16,392l-1-.25,1.52-5.88,1,.25ZM627,381.2l-1-.25,1.52-5.88,1,.26Zm2.79-10.77-1-.25,1.52-5.88,1,.25Zm2.78-10.78-1-.25,1.52-5.88,1,.26Zm2.79-10.77-1-.25,1.52-5.88,1,.25Zm2.79-10.78-1-.25,1.52-5.88,1,.26Zm2.78-10.77-1-.25,1.52-5.88,1,.25Zm2.79-10.78-1-.25,1.52-5.88,1,.26Zm2.79-10.77-1-.25,1.52-5.88,1,.25ZM649.24,295l-1-.25,1.52-5.88,1,.26ZM652,284.23l-1-.25,1.52-5.88,1,.25Zm2.79-10.78-1-.25,1.52-5.88,1,.26Zm2.78-10.77-1-.25,1.52-5.88,1,.25Zm2.79-10.78-1-.25,1.52-5.88,1,.26Zm2.79-10.77-1-.25,1.52-5.88,1,.25ZM666,230.35l-1-.25,1.52-5.88,1,.26Zm2.79-10.77-1-.25,1.52-5.88,1,.25Zm2.79-10.78-1-.25,1.52-5.88,1,.26ZM674.32,198l-1-.25,1.52-5.88,1,.25Zm2.79-10.77-1-.26,1.52-5.88,1,.26Zm2.79-10.78-1-.25,1.52-5.88,1,.25Zm2.78-10.77-1-.26,1.52-5.88,1,.26Zm2.79-10.78-1-.25L686,148.8l1,.25Zm2.79-10.77-1-.26L688.8,138l1,.26ZM691,133.38l-1-.25,1.52-5.88,1,.25Zm2.79-10.77-1-.26,1.52-5.88,1,.26Zm2.79-10.78-1-.25,1.52-5.88,1,.25Zm2.78-10.77-1-.26,1.52-5.88,1,.26Zm2.79-10.78-1-.25,1.52-5.88,1,.25ZM705,79.51l-1-.26,1.52-5.87,1,.25Zm2.78-10.78-1-.25,1.52-5.88,1,.25ZM710.55,58l-1-.26,1.52-5.87,1,.25Zm2.79-10.78-1-.25,1.52-5.88,1,.25Zm2.78-10.77-1-.26,1.52-5.87,1,.25Zm2.79-10.78-1-.25,1.52-5.88,1,.25Zm2.79-10.77-1-.26,1.52-5.87,1,.25Zm2.78-10.78-1-.25,1-4,1,.26Z"/><path class="cls-3" d="M710.67,672.17l-.95-.34,2.1-5.7.95.35Zm3.84-10.44-1-.35,2.1-5.7,1,.35Zm3.85-10.45-1-.34,2.09-5.7,1,.35Zm3.84-10.44-1-.35,2.1-5.7.94.35ZM726,630.39l-.95-.34,2.1-5.7.95.35ZM729.88,620l-1-.35,2.1-5.7,1,.35Zm3.85-10.45-1-.35,2.09-5.69,1,.35Zm3.84-10.44-1-.35,2.1-5.7.94.35Zm3.84-10.45-.95-.35,2.1-5.69,1,.35Zm3.84-10.44-1-.35,2.1-5.7,1,.35Zm3.85-10.45-1-.35,2.09-5.69,1,.35Zm3.84-10.44-1-.35,2.1-5.7.94.35Zm3.84-10.45-.95-.35,2.1-5.69,1,.35Zm3.84-10.44-1-.35,2.1-5.7,1,.35Zm3.85-10.45-1-.35,2.09-5.69.95.35Zm3.84-10.44-.95-.35,2.1-5.7.94.35Zm3.84-10.45-.95-.35,2.1-5.69,1,.35ZM776,494.61l-1-.35,2.1-5.7,1,.35Zm3.85-10.45-1-.35,2.09-5.69.95.35Zm3.84-10.44-.95-.35,2.1-5.7.94.35Zm3.84-10.45-.95-.35,2.1-5.69,1,.35Zm3.84-10.44-1-.35,2.1-5.7,1,.35Zm3.85-10.45-1-.35,2.09-5.69.95.35Zm3.84-10.44-.95-.35,2.1-5.7.94.35Zm3.84-10.45-.95-.35,2.1-5.69,1,.35Zm3.84-10.44-1-.35,2.1-5.7,1,.35Zm3.85-10.45-1-.35,2.09-5.69.95.35Zm3.84-10.44-.95-.35,2.1-5.7.94.35Zm3.84-10.45-1-.35,2.1-5.69,1,.35Zm3.84-10.44-1-.35,2.1-5.7,1,.35ZM826,358.82l-1-.35,2.09-5.69.95.35Zm3.84-10.44-.95-.35,2.1-5.7.94.35Zm3.84-10.45-1-.35,2.1-5.69,1,.34Zm3.84-10.44-1-.35,2.1-5.7,1,.35ZM841.32,317l-1-.35,2.09-5.69.95.34Zm3.84-10.44-.95-.35,2.1-5.7.94.35ZM849,296.15l-1-.35,2.1-5.69,1,.34Zm3.84-10.44-1-.35,2.1-5.7,1,.35Zm3.85-10.45-1-.35,2.09-5.69.95.34Zm3.84-10.44-.95-.35,2.1-5.7.94.35Zm3.84-10.45-1-.35,2.1-5.69,1,.34Zm3.84-10.44-1-.35,2.1-5.7.95.35Zm3.85-10.45-.95-.35,2.09-5.7.95.35ZM875.9,223l-.95-.35L877,217l1,.35Zm3.84-10.45-1-.35,2.1-5.7,1,.35Zm3.84-10.44-1-.35,2.1-5.7.95.35Zm3.85-10.45-.95-.35,2.09-5.7.95.35Zm3.84-10.44-.95-.35,2.1-5.7.94.35Zm3.84-10.45-1-.35,2.1-5.7,1,.35ZM899,160.37l-1-.35,2.1-5.7.95.35Zm3.85-10.45-.95-.35,2.09-5.7.95.35Zm3.84-10.44-.95-.35,2.1-5.7.94.35ZM910.48,129l-1-.35,2.1-5.7,1,.35Zm3.84-10.44-1-.35,2.1-5.7.95.35Zm3.85-10.45-.95-.35,2.09-5.7,1,.35ZM922,97.7l-1-.35,2.09-5.7,1,.35Zm3.84-10.45-1-.35,2.1-5.7,1,.35Zm3.84-10.44-1-.35,2.1-5.7.95.35Zm3.85-10.45-.95-.35,2.09-5.7,1,.35Zm3.84-10.44-1-.35,2.09-5.7,1,.35Zm3.84-10.45-1-.35,2.1-5.7,1,.35ZM945.06,35l-.95-.35,2.1-5.7.95.35Zm3.85-10.45-.95-.35,2.09-5.7,1,.35Zm3.84-10.45-1-.34,2.1-5.7.94.35Zm3.84-10.44-1-.35,1.29-3.51,1,.34Z"/><rect class="cls-3" y="372.92" width="1079.01" height="1"/><path class="cls-3" d="M776.71,672h-1v-4.23h1Zm0-9.29h-1v-6.07h1Zm0-11.13h-1v-6.07h1Zm0-11.13h-1v-6.07h1Zm0-11.13h-1v-6.07h1Zm0-11.13h-1v-6.07h1Zm0-11.13h-1V601h1Zm0-11.13h-1v-6.07h1Zm0-11.13h-1v-6.07h1Zm0-11.13h-1V567.6h1Zm0-11.13h-1v-6.07h1Zm0-11.13h-1v-6.07h1Zm0-11.13h-1v-6.07h1Zm0-11.13h-1v-6.07h1Zm0-11.13h-1V512h1Zm0-11.12h-1v-6.08h1Zm0-11.13h-1v-6.08h1Zm0-11.13h-1v-6.07h1Zm0-11.13h-1v-6.07h1Zm0-11.13h-1v-6.07h1Zm0-11.13h-1v-6.07h1Zm0-11.13h-1v-6.07h1Zm0-11.13h-1v-6.07h1Zm0-11.13h-1v-6.07h1Zm0-11.13h-1v-6.07h1Zm0-11.13h-1v-6.07h1Zm0-11.13h-1V378.4h1Zm0-11.13h-1v-6.07h1Zm0-11.13h-1v-6.07h1Zm0-11.13h-1V345h1Zm0-11.13h-1v-6.07h1Zm0-11.13h-1v-6.07h1Zm0-11.13h-1v-6.07h1Zm0-11.12h-1v-6.08h1Zm0-11.13h-1v-6.07h1Zm0-11.13h-1v-6.07h1Zm0-11.13h-1v-6.07h1Zm0-11.13h-1V256h1Zm0-11.13h-1v-6.07h1Zm0-11.13h-1v-6.07h1Zm0-11.13h-1v-6.07h1Zm0-11.13h-1v-6.07h1Zm0-11.13h-1v-6.07h1Zm0-11.13h-1V189.2h1Zm0-11.13h-1v-6.07h1Zm0-11.13h-1v-6.07h1Zm0-11.13h-1v-6.07h1Zm0-11.13h-1v-6.07h1Zm0-11.13h-1v-6.07h1Zm0-11.13h-1v-6.07h1Zm0-11.13h-1v-6.07h1Zm0-11.12h-1v-6.08h1Zm0-11.13h-1V89h1Zm0-11.13h-1V77.91h1Zm0-11.13h-1V66.78h1Zm0-11.13h-1V55.65h1Zm0-11.13h-1V44.52h1Zm0-11.13h-1V33.39h1Zm0-11.13h-1V22.26h1Zm0-11.13h-1V11.13h1Zm0-11.13h-1V0h1Z"/><path class="cls-3" d="M497.71,672h-1v-4.23h1Zm0-9.29h-1v-6.07h1Zm0-11.13h-1v-6.07h1Zm0-11.13h-1v-6.07h1Zm0-11.13h-1v-6.07h1Zm0-11.13h-1v-6.07h1Zm0-11.13h-1V601h1Zm0-11.13h-1v-6.07h1Zm0-11.13h-1v-6.07h1Zm0-11.13h-1V567.6h1Zm0-11.13h-1v-6.07h1Zm0-11.13h-1v-6.07h1Zm0-11.13h-1v-6.07h1Zm0-11.13h-1v-6.07h1Zm0-11.13h-1V512h1Zm0-11.12h-1v-6.08h1Zm0-11.13h-1v-6.08h1Zm0-11.13h-1v-6.07h1Zm0-11.13h-1v-6.07h1Zm0-11.13h-1v-6.07h1Zm0-11.13h-1v-6.07h1Zm0-11.13h-1v-6.07h1Zm0-11.13h-1v-6.07h1Zm0-11.13h-1v-6.07h1Zm0-11.13h-1v-6.07h1Zm0-11.13h-1v-6.07h1Zm0-11.13h-1V378.4h1Zm0-11.13h-1v-6.07h1Zm0-11.13h-1v-6.07h1Zm0-11.13h-1V345h1Zm0-11.13h-1v-6.07h1Zm0-11.13h-1v-6.07h1Zm0-11.13h-1v-6.07h1Zm0-11.12h-1v-6.08h1Zm0-11.13h-1v-6.07h1Zm0-11.13h-1v-6.07h1Zm0-11.13h-1v-6.07h1Zm0-11.13h-1V256h1Zm0-11.13h-1v-6.07h1Zm0-11.13h-1v-6.07h1Zm0-11.13h-1v-6.07h1Zm0-11.13h-1v-6.07h1Zm0-11.13h-1v-6.07h1Zm0-11.13h-1V189.2h1Zm0-11.13h-1v-6.07h1Zm0-11.13h-1v-6.07h1Zm0-11.13h-1v-6.07h1Zm0-11.13h-1v-6.07h1Zm0-11.13h-1v-6.07h1Zm0-11.13h-1v-6.07h1Zm0-11.13h-1v-6.07h1Zm0-11.12h-1v-6.08h1Zm0-11.13h-1V89h1Zm0-11.13h-1V77.91h1Zm0-11.13h-1V66.78h1Zm0-11.13h-1V55.65h1Zm0-11.13h-1V44.52h1Zm0-11.13h-1V33.39h1Zm0-11.13h-1V22.26h1Zm0-11.13h-1V11.13h1Zm0-11.13h-1V0h1Z"/><path class="cls-3" d="M857.71,672h-1v-4.23h1Zm0-9.29h-1v-6.07h1Zm0-11.13h-1v-6.07h1Zm0-11.13h-1v-6.07h1Zm0-11.13h-1v-6.07h1Zm0-11.13h-1v-6.07h1Zm0-11.13h-1V601h1Zm0-11.13h-1v-6.07h1Zm0-11.13h-1v-6.07h1Zm0-11.13h-1V567.6h1Zm0-11.13h-1v-6.07h1Zm0-11.13h-1v-6.07h1Zm0-11.13h-1v-6.07h1Zm0-11.13h-1v-6.07h1Zm0-11.13h-1V512h1Zm0-11.12h-1v-6.08h1Zm0-11.13h-1v-6.08h1Zm0-11.13h-1v-6.07h1Zm0-11.13h-1v-6.07h1Zm0-11.13h-1v-6.07h1Zm0-11.13h-1v-6.07h1Zm0-11.13h-1v-6.07h1Zm0-11.13h-1v-6.07h1Zm0-11.13h-1v-6.07h1Zm0-11.13h-1v-6.07h1Zm0-11.13h-1v-6.07h1Zm0-11.13h-1V378.4h1Zm0-11.13h-1v-6.07h1Zm0-11.13h-1v-6.07h1Zm0-11.13h-1V345h1Zm0-11.13h-1v-6.07h1Zm0-11.13h-1v-6.07h1Zm0-11.13h-1v-6.07h1Zm0-11.12h-1v-6.08h1Zm0-11.13h-1v-6.07h1Zm0-11.13h-1v-6.07h1Zm0-11.13h-1v-6.07h1Zm0-11.13h-1V256h1Zm0-11.13h-1v-6.07h1Zm0-11.13h-1v-6.07h1Zm0-11.13h-1v-6.07h1Zm0-11.13h-1v-6.07h1Zm0-11.13h-1v-6.07h1Zm0-11.13h-1V189.2h1Zm0-11.13h-1v-6.07h1Zm0-11.13h-1v-6.07h1Zm0-11.13h-1v-6.07h1Zm0-11.13h-1v-6.07h1Zm0-11.13h-1v-6.07h1Zm0-11.13h-1v-6.07h1Zm0-11.13h-1v-6.07h1Zm0-11.12h-1v-6.08h1Zm0-11.13h-1V89h1Zm0-11.13h-1V77.91h1Zm0-11.13h-1V66.78h1Zm0-11.13h-1V55.65h1Zm0-11.13h-1V44.52h1Zm0-11.13h-1V33.39h1Zm0-11.13h-1V22.26h1Zm0-11.13h-1V11.13h1Zm0-11.13h-1V0h1Z"/><path class="cls-3" d="M922.57,671.72l-1.13-3.06.95-.35,1.13,3.07Zm-2.87-7.81-2.1-5.7.95-.34,2.1,5.69Zm-3.85-10.44-2.09-5.7,1-.35,2.09,5.7ZM912,643l-2.09-5.7,1-.34,2.09,5.69Zm-3.84-10.44-2.1-5.7.95-.35,2.1,5.7Zm-3.84-10.45-2.1-5.7.95-.35,2.1,5.7Zm-3.85-10.44-2.09-5.7,1-.35,2.09,5.7Zm-3.84-10.45-2.09-5.7,1-.35,2.09,5.7ZM892.8,590.8l-2.1-5.7.95-.35,2.1,5.7ZM889,580.35l-2.1-5.7.95-.35,2.1,5.7Zm-3.85-10.44-2.09-5.7,1-.35,2.09,5.7Zm-3.84-10.45-2.09-5.7,1-.35,2.09,5.7ZM877.43,549l-2.1-5.7.95-.35,2.1,5.7Zm-3.84-10.45-2.1-5.7,1-.35,2.1,5.7Zm-3.85-10.44-2.09-5.7,1-.35,2.09,5.7Zm-3.84-10.45-2.09-5.7,1-.35,2.09,5.7Zm-3.84-10.44-2.1-5.7.95-.35,2.1,5.7Zm-3.84-10.45-2.1-5.7,1-.35,2.1,5.7Zm-3.85-10.44-2.09-5.7,1-.35,2.09,5.7Zm-3.84-10.45-2.09-5.7.95-.35,2.09,5.7Zm-3.84-10.44-2.1-5.7.95-.35,2.1,5.7ZM842.85,455l-2.1-5.7,1-.35,2.1,5.7ZM839,444.57l-2.09-5.7,1-.35,2.09,5.7Zm-3.84-10.45-2.09-5.7.95-.35,2.09,5.7Zm-3.84-10.45-2.1-5.69.95-.35,2.1,5.7Zm-3.84-10.44-2.1-5.7,1-.35,2.1,5.7Zm-3.85-10.45-2.09-5.69,1-.35,2.09,5.7Zm-3.84-10.44-2.09-5.7.95-.35,2.09,5.7ZM816,381.89l-2.1-5.69.95-.35,2.1,5.7Zm-3.84-10.44-2.1-5.7,1-.35,2.1,5.7ZM808.26,361l-2.09-5.69,1-.35,2.09,5.7Zm-3.84-10.44-2.09-5.7.95-.35,2.09,5.7Zm-3.84-10.45-2.1-5.69.95-.35,2.1,5.69Zm-3.84-10.44-2.1-5.7,1-.35,2.1,5.7Zm-3.84-10.45-2.1-5.69,1-.35,2.09,5.69Zm-3.85-10.44-2.09-5.7.95-.35,2.09,5.7Zm-3.84-10.45-2.1-5.69.95-.35,2.1,5.69Zm-3.84-10.44-2.1-5.7,1-.35,2.1,5.7Zm-3.85-10.45-2.09-5.69,1-.35,2.09,5.69ZM773.68,267l-2.09-5.7.95-.35,2.09,5.7Zm-3.84-10.45-2.1-5.69,1-.35,2.1,5.69ZM766,246.11l-2.1-5.7,1-.35,2.1,5.7Zm-3.84-10.45-2.1-5.69,1-.35,2.09,5.69Zm-3.85-10.44-2.09-5.7.95-.35,2.09,5.7Zm-3.84-10.45-2.1-5.69,1-.35,2.1,5.69Zm-3.84-10.44-2.1-5.7,1-.35,2.1,5.7Zm-3.84-10.45-2.1-5.69.95-.35,2.09,5.69Zm-3.85-10.44-2.09-5.7.95-.35,2.09,5.7ZM739.1,173,737,167.3l1-.35,2.1,5.69Zm-3.84-10.44-2.1-5.7,1-.35,2.1,5.7Zm-3.84-10.45-2.1-5.69.95-.35,2.09,5.69Zm-3.85-10.44-2.09-5.7.95-.35,2.09,5.7Zm-3.84-10.45-2.1-5.69,1-.35,2.1,5.69Zm-3.84-10.44-2.1-5.7,1-.35,2.1,5.7Zm-3.84-10.45-2.1-5.69.95-.35L717,110ZM712.2,99.88l-2.09-5.7.95-.35,2.09,5.7Zm-3.84-10.45-2.1-5.69,1-.35,2.1,5.69ZM704.52,79l-2.1-5.7,1-.35,2.1,5.7Zm-3.84-10.45-2.1-5.69.95-.35,2.09,5.69ZM696.83,58.1l-2.09-5.7,1-.35,2.09,5.7ZM693,47.65l-2.1-5.7,1-.34,2.1,5.69Zm-3.84-10.44-2.1-5.7,1-.35,2.1,5.7Zm-3.84-10.45-2.1-5.7.95-.34,2.09,5.69Zm-3.85-10.44-2.09-5.7,1-.35,2.09,5.7ZM677.62,5.87l-2.1-5.7,1-.34,2.1,5.69Z"/></g></svg>