<svg xmlns="http://www.w3.org/2000/svg" viewBox="0 0 672 672"><defs><style>.cls-1{fill:#e2e2e2;}.cls-2{fill:#ef5330;}</style></defs><g id="Layer_3" data-name="Layer 3"><rect class="cls-1" width="336" height="672"/></g><g id="Layer_1" data-name="Layer 1"><path d="M155.43,309.85a2.67,2.67,0,0,0,.48,5.29,2.61,2.61,0,0,0,.48-.05,9.26,9.26,0,0,0,7.54-9.33,2.71,2.71,0,0,0-2.71-2.62,2.66,2.66,0,0,0-2.62,2.71A3.91,3.91,0,0,1,155.43,309.85Z"/><path d="M158.23,232.38c-1.6.43-2.54,2.71-2.12,5.1s2.07,4,3.66,3.54,2.54-2.72,2.11-5.1S159.82,232,158.23,232.38Z"/><path d="M162.62,254.24a2.67,2.67,0,0,0,2.65,2.4h.27l9.61-.95-3.36-15.07a2.66,2.66,0,0,0-5.2,1.16l2,9.19-3.62.36A2.68,2.68,0,0,0,162.62,254.24Z"/><path d="M160.58,264.07a2.68,2.68,0,0,0,.95,3.66,15.54,15.54,0,0,0,21.28-5.52,2.66,2.66,0,1,0-4.59-2.7,10.23,10.23,0,0,1-14,3.62A2.68,2.68,0,0,0,160.58,264.07Z"/><path d="M232.57,329.94a12,12,0,0,0-14-5.33l-6.06,2-2.77-6.79,4.3-2.4L195,271.33a28.16,28.16,0,0,0,2.67-2.57c4.83-5.28,10.06-14.81,7.5-30.24-.9-4.78-1.45-9.05.91-12.83,4-6.46,2.25-11.19-.77-13.46-5.56-4.19-12-.55-15.24,3.14l-1.49-21.07c-.28-4-1.78-7.47-4.11-9.49a8.62,8.62,0,0,0-6.41-2.07,8.5,8.5,0,0,0-4.42,1.58l-.1-1.38c-.28-3.95-1.88-7.53-4.29-9.57a8.27,8.27,0,0,0-6.28-2c-4.89.45-8.18,5.36-8.82,10.31a8.4,8.4,0,0,0-4.77-.92c-6.39.61-9.31,7-8.89,12.93l.71,10.16a6.85,6.85,0,0,0-3.5-.55c-5.29.59-8.38,5.54-7.88,12.59l2.15,30.44h0l0,.61,0,.18c1.25,14.84,7.55,23.24,13.18,27.83.57,4,1.64,20.36-17.35,29.64l-2.46,1.15-3.68,1.65h0L102.56,316l8.83,32.61,2.51-.59a12.81,12.81,0,0,0,9.94-13.59l-.44-5.66,8-1.37,1.46,3.61,1.83,0c29.63-.46,36.32-17.8,36.59-18.54a2.67,2.67,0,0,0-5-1.85c-.22.58-5.64,14-29.84,15l-6.5-16,.25-.12c17.65-8.62,20.45-23,20.54-30.86a20.39,20.39,0,0,0,3.91,1.58,2.76,2.76,0,0,0,.57.06,2.67,2.67,0,0,0,.57-5.27c-.17,0-16.76-4.76-18.47-29l-2.15-30.45c-.05-.66-.36-6.51,3.15-6.91a1.67,1.67,0,0,1,1.35.45c1.22,1,2.17,3.43,2.35,6l1.3,18.41a2.67,2.67,0,0,0,5.32-.37l-1.07-15.21h0l-1.73-24.54c-.2-2.74.73-6.92,4.08-7.24a3,3,0,0,1,2.36.72c1.3,1.1,2.22,3.36,2.4,5.9v0l2,28.81a2.66,2.66,0,0,0,2.65,2.48h.19a2.67,2.67,0,0,0,2.48-2.85l-2.63-37.23c-.24-3.38,1.82-7,4.07-7.25a3,3,0,0,1,2.35.74,8.87,8.87,0,0,1,2.42,5.88l2.63,37.24a2.67,2.67,0,0,0,5.32-.37l-1.75-24.79v-.09c-.19-2.68.74-7,4-7.24a3.24,3.24,0,0,1,2.53.78c1.26,1.08,2.11,3.26,2.29,5.83l3.16,44.71a2.87,2.87,0,0,0,.05.31,1,1,0,0,0,0,.17,2.66,2.66,0,0,0,1.18,1.6l.17.09.27.13.27.08.21.05a2.4,2.4,0,0,0,.28,0l.2,0h.19a1.85,1.85,0,0,0,.23,0l.26,0,.24-.09.25-.1a1,1,0,0,0,.22-.13,1.35,1.35,0,0,0,.22-.14c.07-.05.12-.11.18-.16A1.66,1.66,0,0,0,191,241l.15-.2a1.77,1.77,0,0,0,.16-.22l.11-.22c0-.08.08-.16.11-.24a2,2,0,0,0,.06-.26,1.83,1.83,0,0,0,.06-.25,1.32,1.32,0,0,0,0-.28,1.55,1.55,0,0,0,0-.22c-.05-1.22-.25-3.92-.4-5.89l-.14-1.76c-.37-5.27.47-9.42,2.42-12,.95-1.26,5.19-5.43,8.48-2.95,1.47,1.1,1.27,3.48-.54,6.37-3.66,5.85-2.44,12.35-1.64,16.59,2.2,13.26-2.15,21.3-6.18,25.72-5.1,5.58-11.86,7.73-16.29,7.41a2.67,2.67,0,1,0-.4,5.32c.45,0,.9.05,1.36.05a24.84,24.84,0,0,0,12.12-3.49l12,28.94c-.52,1.14-2.27,3.89-7.4,4.93a2.67,2.67,0,0,0,.52,5.28,3.17,3.17,0,0,0,.53-.05,16.48,16.48,0,0,0,8.73-4.43l2.44,5.9-15.1,8.43-26.86-35.21a2.67,2.67,0,0,0-4.25,3.24l29.67,38.88h0l2,2.6h0l11.93,15.63,29.25-16.32ZM123,323.4,122.15,313l2.89-1.29,4.27,10.56Zm72.51,4.34,9.6-5.35,2.38,5.82-9.32,3Z"/><path d="M179.41,241c1.59-.43,2.53-2.72,2.11-5.1s-2.06-4-3.66-3.54-2.53,2.71-2.11,5.1S177.81,241.45,179.41,241Z"/><path d="M169.33,495.32h-6.66V474h-5.34v26.67h12a2.67,2.67,0,0,0,0-5.34Z"/><path d="M106.63,478.32a7.33,7.33,0,0,1-5.56-12.1,2.66,2.66,0,1,1,4.05,3.46,2,2,0,0,0-.47,1.46,1.94,1.94,0,0,0,.69,1.36,2,2,0,0,0,1.46.48,2,2,0,0,0,1.36-.69l1.08-1.27a2,2,0,0,0-.21-2.82,7.33,7.33,0,0,1-.81-10.34l1.09-1.27a7.33,7.33,0,0,1,11.14,9.54,2.67,2.67,0,1,1-4-3.47,2,2,0,0,0,.47-1.45,2,2,0,0,0-.69-1.37,2,2,0,0,0-2.82.22l-1.08,1.27a2,2,0,0,0-.48,1.45,2,2,0,0,0,.69,1.37,7.33,7.33,0,0,1,.81,10.34l-1.09,1.26a7.31,7.31,0,0,1-5,2.55Z"/><path d="M234.07,473.83,220,454l-4.34,3.09L219.69,472l-12.76-8.73-4.34,3.09,14.1,19.83a2.66,2.66,0,1,0,4.34-3.09l-5.14-7.24,6.34,4.34,4.37-3.11-2-7.41,5.15,7.24a2.67,2.67,0,1,0,4.34-3.1Z"/><path d="M202.5,491.88l-12.19-21.21-5.77,1.55.11,24.47a2.67,2.67,0,0,0,2.67,2.65h0a2.65,2.65,0,0,0,2.65-2.68v-2.42l6.7-1.81,1.21,2.11a2.67,2.67,0,1,0,4.62-2.66ZM190,488.72l0-8,4,7Z"/><path d="M137.86,467.73l-14.48,19.72a2.66,2.66,0,1,0,4.29,3.16l1.44-2,6.46,2.54-.29,2.41a2.67,2.67,0,0,0,2.34,3l.32,0a2.67,2.67,0,0,0,2.64-2.36l2.84-24.3Zm-1.65,18-3.83-1.51,4.76-6.47Z"/><path d="M253.33,399.26v20a4,4,0,0,1-8,0v-44h-16v44a20,20,0,1,0,40,0v-20Z"/><path d="M208,419.26a4,4,0,0,1-8,0v-20H184v20a4,4,0,0,1-8,0v-20H160V409a22.42,22.42,0,0,0-2.77-5.37L148.43,391l7.84-11.2-13.11-9.17-4.49,6.42-7.74-11-13.1,9.17L128.9,391l-8.8,12.57a22.54,22.54,0,0,0-3.62,8.41,21.32,21.32,0,1,0-39.94,14.62,21.32,21.32,0,0,0-9.87,18v5.33h16V444.6A5.34,5.34,0,0,1,88,439.26h8a21.37,21.37,0,0,0,20.82-16.72,22.65,22.65,0,0,0,43.56.55A20,20,0,0,0,192,435.23a20,20,0,0,0,32-16v-20H208Zm-112,4a5.33,5.33,0,1,1,5.33-5.33A5.33,5.33,0,0,1,96,423.26Zm42.67,0A6.75,6.75,0,0,1,132,416.6a6.65,6.65,0,0,1,1.21-3.83l5.46-7.79,5.46,7.79a6.64,6.64,0,0,1,1.2,3.83A6.75,6.75,0,0,1,138.67,423.26Z"/><path d="M249.33,444.66a5.33,5.33,0,1,0,5.34,5.33A5.33,5.33,0,0,0,249.33,444.66Z"/><path class="cls-2" d="M491.43,309.85a2.67,2.67,0,0,0,.48,5.29,2.61,2.61,0,0,0,.48-.05,9.26,9.26,0,0,0,7.54-9.33,2.71,2.71,0,0,0-2.71-2.62,2.66,2.66,0,0,0-2.62,2.71A3.91,3.91,0,0,1,491.43,309.85Z"/><path class="cls-2" d="M494.23,232.38c-1.6.43-2.54,2.71-2.12,5.1s2.07,4,3.66,3.54,2.54-2.72,2.11-5.1S495.82,232,494.23,232.38Z"/><path class="cls-2" d="M498.62,254.24a2.67,2.67,0,0,0,2.65,2.4h.27l9.61-.95-3.36-15.07a2.66,2.66,0,1,0-5.2,1.16l2,9.19-3.62.36A2.68,2.68,0,0,0,498.62,254.24Z"/><path class="cls-2" d="M496.58,264.07a2.68,2.68,0,0,0,.95,3.66,15.54,15.54,0,0,0,21.28-5.52,2.66,2.66,0,1,0-4.59-2.7,10.23,10.23,0,0,1-14,3.62A2.68,2.68,0,0,0,496.58,264.07Z"/><path class="cls-2" d="M568.57,329.94a12,12,0,0,0-14-5.33l-6.06,2-2.77-6.79,4.3-2.4L531,271.33a28.16,28.16,0,0,0,2.67-2.57c4.83-5.28,10.06-14.81,7.5-30.24-.9-4.78-1.45-9.05.91-12.83,4-6.46,2.25-11.19-.77-13.46-5.56-4.19-12-.55-15.24,3.14l-1.49-21.07c-.28-4-1.78-7.47-4.11-9.49a8.62,8.62,0,0,0-6.41-2.07,8.5,8.5,0,0,0-4.42,1.58l-.1-1.38c-.28-3.95-1.88-7.53-4.29-9.57a8.27,8.27,0,0,0-6.28-2c-4.89.45-8.18,5.36-8.82,10.31a8.4,8.4,0,0,0-4.77-.92c-6.39.61-9.31,7-8.89,12.93l.71,10.16a6.85,6.85,0,0,0-3.5-.55c-5.29.59-8.38,5.54-7.88,12.59l2.15,30.44h0l0,.61,0,.18c1.25,14.84,7.55,23.24,13.18,27.83.57,4,1.64,20.36-17.35,29.64l-2.46,1.15-3.68,1.65h0L438.56,316l8.83,32.61,2.51-.59a12.81,12.81,0,0,0,9.94-13.59l-.44-5.66,8-1.37,1.46,3.61,1.83,0c29.63-.46,36.32-17.8,36.59-18.54a2.67,2.67,0,0,0-5-1.85c-.22.58-5.64,14-29.84,15l-6.5-16,.25-.12c17.65-8.62,20.45-23,20.54-30.86a20.39,20.39,0,0,0,3.91,1.58,2.76,2.76,0,0,0,.57.06,2.67,2.67,0,0,0,.57-5.27c-.17,0-16.76-4.76-18.47-29l-2.15-30.45c-.05-.66-.36-6.51,3.15-6.91a1.67,1.67,0,0,1,1.35.45c1.22,1,2.17,3.43,2.35,6l1.3,18.41a2.67,2.67,0,0,0,5.32-.37l-1.07-15.21h0l-1.73-24.54c-.2-2.74.73-6.92,4.08-7.24a3,3,0,0,1,2.36.72c1.3,1.1,2.22,3.36,2.4,5.9v0l2,28.81a2.66,2.66,0,0,0,2.65,2.48h.19a2.67,2.67,0,0,0,2.48-2.85l-2.63-37.23c-.24-3.38,1.82-7,4.07-7.25a3,3,0,0,1,2.35.74,8.87,8.87,0,0,1,2.42,5.88l2.63,37.24a2.67,2.67,0,0,0,5.32-.37l-1.75-24.79v-.09c-.19-2.68.74-7,4-7.24a3.24,3.24,0,0,1,2.53.78c1.26,1.08,2.11,3.26,2.29,5.83l3.16,44.71a2.87,2.87,0,0,0,.05.31,1,1,0,0,0,0,.17,2.66,2.66,0,0,0,1.18,1.6l.17.09.27.13.27.08.21.05a2.4,2.4,0,0,0,.28,0l.2,0h.19a1.85,1.85,0,0,0,.23,0l.26,0,.24-.09.25-.1a1,1,0,0,0,.22-.13,1.35,1.35,0,0,0,.22-.14c.07-.05.12-.11.18-.16A1.66,1.66,0,0,0,527,241c.06-.07.1-.13.15-.2a1.77,1.77,0,0,0,.16-.22l.11-.22c0-.08.08-.16.11-.24a2,2,0,0,0,.06-.26,1.83,1.83,0,0,0,.06-.25,1.32,1.32,0,0,0,0-.28,1.55,1.55,0,0,0,0-.22c-.05-1.22-.25-3.92-.4-5.89l-.14-1.76c-.37-5.27.47-9.42,2.42-12,.95-1.26,5.19-5.43,8.48-2.95,1.47,1.1,1.27,3.48-.54,6.37-3.66,5.85-2.44,12.35-1.64,16.59,2.2,13.26-2.15,21.3-6.18,25.72-5.1,5.58-11.86,7.73-16.29,7.41a2.67,2.67,0,0,0-.4,5.32c.45,0,.9.05,1.36.05a24.84,24.84,0,0,0,12.12-3.49l12,28.94c-.52,1.14-2.27,3.89-7.4,4.93a2.67,2.67,0,0,0,.52,5.28,3.17,3.17,0,0,0,.53-.05,16.48,16.48,0,0,0,8.73-4.43l2.44,5.9-15.1,8.43-26.86-35.21a2.67,2.67,0,0,0-4.25,3.24l29.67,38.88h0l2,2.6h0l11.93,15.63,29.25-16.32ZM459,323.4,458.15,313l2.89-1.29,4.27,10.56Zm72.51,4.34,9.6-5.35,2.38,5.82-9.32,3Z"/><path class="cls-2" d="M515.41,241c1.59-.43,2.53-2.72,2.11-5.1s-2.06-4-3.66-3.54-2.53,2.71-2.11,5.1S513.81,241.45,515.41,241Z"/><path class="cls-2" d="M505.33,495.32h-6.66V474h-5.34v26.67h12a2.67,2.67,0,0,0,0-5.34Z"/><path class="cls-2" d="M442.63,478.32a7.33,7.33,0,0,1-5.56-12.1,2.66,2.66,0,1,1,4.05,3.46,2,2,0,0,0-.47,1.46,1.94,1.94,0,0,0,.69,1.36,2,2,0,0,0,1.46.48,2,2,0,0,0,1.36-.69l1.08-1.27a2,2,0,0,0-.21-2.82,7.33,7.33,0,0,1-.81-10.34l1.09-1.27a7.33,7.33,0,0,1,11.14,9.54,2.67,2.67,0,0,1-4.05-3.47,2,2,0,0,0,.47-1.45,2,2,0,0,0-.69-1.37,2,2,0,0,0-2.82.22l-1.08,1.27a2,2,0,0,0-.48,1.45,2,2,0,0,0,.69,1.37,7.33,7.33,0,0,1,.81,10.34l-1.09,1.26a7.31,7.31,0,0,1-5,2.55Z"/><path class="cls-2" d="M570.07,473.83,556,454l-4.34,3.09L555.69,472l-12.76-8.73-4.34,3.09,14.1,19.83a2.66,2.66,0,1,0,4.34-3.09l-5.14-7.24,6.34,4.34,4.37-3.11-2-7.41,5.15,7.24a2.67,2.67,0,1,0,4.34-3.1Z"/><path class="cls-2" d="M538.5,491.88l-12.19-21.21-5.77,1.55.11,24.47a2.67,2.67,0,0,0,2.67,2.65h0a2.65,2.65,0,0,0,2.65-2.68v-2.42l6.7-1.81,1.21,2.11a2.67,2.67,0,1,0,4.62-2.66ZM526,488.72l0-8,4,7Z"/><path class="cls-2" d="M473.86,467.73l-14.48,19.72a2.66,2.66,0,1,0,4.29,3.16l1.44-2,6.46,2.54-.29,2.41a2.67,2.67,0,0,0,2.34,3l.32,0a2.67,2.67,0,0,0,2.64-2.36l2.84-24.3Zm-1.65,18-3.83-1.51,4.76-6.47Z"/><path class="cls-2" d="M589.33,399.26v20a4,4,0,0,1-8,0v-44h-16v44a20,20,0,0,0,40,0v-20Z"/><path class="cls-2" d="M544,419.26a4,4,0,0,1-8,0v-20H520v20a4,4,0,0,1-8,0v-20H496V409a22.42,22.42,0,0,0-2.77-5.37L484.43,391l7.84-11.2-13.11-9.17-4.49,6.42-7.74-11-13.1,9.17L464.9,391l-8.8,12.57a22.54,22.54,0,0,0-3.62,8.41,21.32,21.32,0,1,0-39.94,14.62,21.32,21.32,0,0,0-9.87,18v5.33h16V444.6a5.34,5.34,0,0,1,5.33-5.34h8a21.37,21.37,0,0,0,20.82-16.72,22.65,22.65,0,0,0,43.56.55A20,20,0,0,0,528,435.23a20,20,0,0,0,32-16v-20H544Zm-112,4a5.33,5.33,0,1,1,5.33-5.33A5.33,5.33,0,0,1,432,423.26Zm42.67,0A6.75,6.75,0,0,1,468,416.6a6.65,6.65,0,0,1,1.21-3.83l5.46-7.79,5.46,7.79a6.64,6.64,0,0,1,1.2,3.83A6.75,6.75,0,0,1,474.67,423.26Z"/><path class="cls-2" d="M585.33,444.66a5.33,5.33,0,1,0,5.34,5.33A5.33,5.33,0,0,0,585.33,444.66Z"/></g></svg>