<svg xmlns="http://www.w3.org/2000/svg" viewBox="0 0 672 672"><defs><style>.cls-1{fill:#ff5d3e;}</style></defs><g id="Layer_1" data-name="Layer 1"><path class="cls-1" d="M510.48,555.24H161.89V116.76H510.48Zm-347.59-1H509.48V117.76H162.89Z"/><path d="M399.46,397.31c-2.79-4.84-10.21-5.1-13.87,1.61a18.73,18.73,0,0,1-6,7l-3.25-5.45,6.25-3.49L362,347.17a29.62,29.62,0,0,0,3.07-2.86c4.91-5.37,10.22-15,7.62-30.69-.89-4.75-1.44-9,.88-12.68,4.18-6.68,2.15-11.7-.86-14-5.49-4.14-11.75-.94-15.25,2.66L356,269.19c-.29-4.12-1.84-7.68-4.24-9.76a9,9,0,0,0-6.68-2.16A8.85,8.85,0,0,0,341,258.6l-.06-.84c-.29-4-1.94-7.73-4.43-9.84a8.68,8.68,0,0,0-6.55-2.07c-5,.46-8.34,5.18-9.1,10.19a8.78,8.78,0,0,0-4.56-.75c-6.64.63-9.67,7.19-9.23,13.34l.68,9.7a7.08,7.08,0,0,0-3.21-.37c-5.49.61-8.71,5.71-8.2,13l2.16,30.61h0l0,.61a1.13,1.13,0,0,1,0,.18c1.23,14.61,7.3,23.06,12.9,27.81a31.66,31.66,0,0,1-1.25,11c-2.61,8.8-8.73,15.24-18.11,19.1l-2.51.94-17.82,5.47,5.4,18.06,5.09-.62c-1.55,3.32-2.77,8.52-.75,15.55,1.79,6.26,7.27,7,10.34,5.48,4.06-2,6.24-6.24,2.44-12.14-4.06-6.3-2.84-9.06-1.66-10.17l.68-.08,1.56,5,2.06.12c1.43.09,2.81.13,4.14.13,28,0,35.24-18.34,35.54-19.15A3,3,0,1,0,331,386.7c-.07.16-6.34,16-31.66,15.24l-2.44-7.75-2.63-8.34h0c18.92-7.79,22.6-23.19,23.11-31.68a21.27,21.27,0,0,0,4.1,1.66,2.94,2.94,0,0,0,.65.07,3,3,0,0,0,.64-5.93c-.17,0-16.62-4.72-18.32-28.82l-2.16-30.61c0-.64-.35-6.25,2.88-6.61a1.34,1.34,0,0,1,1.11.38c1.16,1,2.09,3.34,2.26,5.79l1.31,18.51a3,3,0,1,0,6-.42l-1.08-15.3h0L313,268.21c-.18-2.63.68-6.65,3.82-6.95a2.73,2.73,0,0,1,2.14.65c1.22,1,2.12,3.28,2.29,5.71a.08.08,0,0,1,0,0l2.05,29a3,3,0,0,0,3,2.79h.21a3,3,0,0,0,2.78-3.21l-2.64-37.44c-.23-3.25,1.69-6.75,3.81-6.95a2.7,2.7,0,0,1,2.12.67,8.61,8.61,0,0,1,2.32,5.7l2.64,37.44a3,3,0,0,0,6-.42l-1.76-24.92a.34.34,0,0,0,0-.1c-.18-2.56.68-6.72,3.75-6.94a3,3,0,0,1,2.32.71c1.17,1,2,3.19,2.19,5.65l2.63,37.33h0V307l.53,7.57c0,.11,0,.22.06.33a1.52,1.52,0,0,0,0,.21,2.64,2.64,0,0,0,.17.47s0,0,0,.06a3,3,0,0,0,2.21,1.67l.15,0c.12,0,.23,0,.35,0h.21a2.51,2.51,0,0,0,.27,0l.29-.05.27-.1.28-.11c.09,0,.16-.1.25-.15l.25-.16c.07-.05.13-.12.2-.18a2.18,2.18,0,0,0,.22-.21,1.25,1.25,0,0,0,.16-.22,2.15,2.15,0,0,0,.18-.24c.05-.08.08-.17.12-.25s.09-.18.12-.27a1.38,1.38,0,0,0,.08-.29c0-.09.05-.18.07-.28s0-.21,0-.32a2,2,0,0,0,0-.25c-.05-1.23-.26-4-.41-6l-.13-1.72v0c-.37-5.22.45-9.32,2.37-11.85.91-1.21,5-5.24,8.08-2.9,1.33,1,1.1,3.24-.62,6-3.75,6-2.51,12.6-1.7,16.91,2.19,13.21-2.13,21.21-6.14,25.6a23.09,23.09,0,0,1-3.72,3.28,3.14,3.14,0,0,0-.59.42,19.83,19.83,0,0,1-11.81,3.65,3,3,0,1,0-.45,6c.46,0,.92,0,1.39,0a25,25,0,0,0,11.45-3.09l13.33,32.22c-.55,1.14-2.29,3.69-7.17,4.67a3,3,0,0,0,.59,5.94,3.05,3.05,0,0,0,.6-.06,17.07,17.07,0,0,0,8.6-4.21l2.17,5.24-1.75,1h0l-7.93,4.42-5,2.79-28.91-38.62a3,3,0,0,0-4.8,3.6l28.43,38h0l15.48,20.69,15.87-8.85-2.28-3.82a27.91,27.91,0,0,0,10.68-4.16C400.9,405.21,401,399.91,399.46,397.31Z"/><path d="M323.25,382.08a3.59,3.59,0,0,1-2.92,3.7,3,3,0,0,0,.54,6,2.47,2.47,0,0,0,.54-.05,9.61,9.61,0,0,0,7.84-9.7,3,3,0,0,0-3.05-3A3,3,0,0,0,323.25,382.08Z"/><path d="M325.21,307.54c-1.59.42-2.53,2.7-2.11,5.08s2.06,4,3.64,3.53,2.53-2.71,2.11-5.08S326.8,307.11,325.21,307.54Z"/><path d="M346.49,316.15c1.59-.43,2.53-2.71,2.11-5.08s-2.06-4-3.65-3.53-2.52,2.7-2.1,5.08S344.9,316.58,346.49,316.15Z"/><path d="M329.3,329.51a3,3,0,0,0,3,2.7h.29l10-1-3.45-15.5a3,3,0,1,0-5.85,1.3l2,8.89-3.29.33A3,3,0,0,0,329.3,329.51Z"/><path d="M327.3,339.21a3,3,0,0,0,1.06,4.11,16,16,0,0,0,21.84-5.66,3,3,0,0,0-5.17-3.05,10,10,0,0,1-13.63,3.53A3,3,0,0,0,327.3,339.21Z"/></g></svg>