<svg xmlns="http://www.w3.org/2000/svg" viewBox="0 0 1080 672"><defs><style>.cls-1{fill:#ef5330;}</style></defs><g id="Layer_1" data-name="Layer 1"><path class="cls-1" d="M511.15,448.22a6,6,0,0,0,1.08,11.9,5.82,5.82,0,0,0,1.09-.1,20.85,20.85,0,0,0,17-21,6.12,6.12,0,0,0-6.1-5.9,6,6,0,0,0-5.9,6.09A8.77,8.77,0,0,1,511.15,448.22Z"/><path class="cls-1" d="M517.45,273.91c-3.59,1-5.71,6.1-4.76,11.47s4.64,8.94,8.23,8,5.71-6.1,4.75-11.47S521,272.94,517.45,273.91Z"/><path class="cls-1" d="M527.34,323.1a6,6,0,0,0,6,5.4l.6,0,21.62-2.14L548,292.44a6,6,0,1,0-11.71,2.6l4.6,20.69-8.14.8A6,6,0,0,0,527.34,323.1Z"/><path class="cls-1" d="M522.76,345.23a6,6,0,0,0,2.12,8.21A35,35,0,0,0,572.77,341,6,6,0,1,0,562.43,335,23,23,0,0,1,531,343.1,6,6,0,0,0,522.76,345.23Z"/><path class="cls-1" d="M684.71,493.42a27,27,0,0,0-31.43-12l-13.62,4.41-6.25-15.27,9.68-5.4-43-103.61a65.42,65.42,0,0,0,6-5.77c10.88-11.89,22.63-33.33,16.88-68-2-10.77-3.27-20.38,2-28.88,9.08-14.52,5.06-25.17-1.74-30.28-12.51-9.43-26.92-1.24-34.29,7.07l-3.35-47.42c-.63-9-4-16.8-9.26-21.35A19.3,19.3,0,0,0,562,162.22a19.09,19.09,0,0,0-9.94,3.57l-.22-3.12c-.63-8.88-4.24-16.93-9.66-21.53A18.71,18.71,0,0,0,528,136.67c-11,1-18.38,12-19.82,23.19a18.83,18.83,0,0,0-10.74-2.07c-14.39,1.37-21,15.67-20,29.09l1.61,22.87a15.27,15.27,0,0,0-7.89-1.23c-11.89,1.33-18.85,12.44-17.72,28.32l4.83,68.49h0l.1,1.36c0,.14,0,.27.06.4,2.81,33.41,17,52.3,29.66,62.64,1.27,8.92,3.69,45.8-39,66.68l-5.54,2.6-8.27,3.7h0L392.2,462l19.87,73.37,5.64-1.31a28.89,28.89,0,0,0,22.38-30.6l-1-12.72L457,487.65l3.29,8.12,4.12-.06c66.67-1,81.7-40.07,82.31-41.73a6,6,0,0,0-11.25-4.16c-.51,1.31-12.7,31.48-67.16,33.77l-1.61-4-13-32.13.57-.27c39.71-19.4,46-51.7,46.21-69.42a47.62,47.62,0,0,0,8.79,3.54,5.66,5.66,0,0,0,1.29.14,6,6,0,0,0,1.28-11.86c-.37-.08-37.72-10.7-41.56-65.14L465.44,236c-.11-1.5-.81-14.66,7.09-15.55a3.73,3.73,0,0,1,3,1c2.76,2.3,4.89,7.7,5.3,13.43l.51,7.22h0l2.42,34.23a6,6,0,0,0,12-.84l-2.92-41.43v0l-3.38-48c-.44-6.16,1.65-15.59,9.18-16.3a6.7,6.7,0,0,1,5.31,1.62c2.93,2.48,5,7.56,5.4,13.27,0,0,0,.07,0,.1l4.58,64.82a6,6,0,0,0,6,5.58l.42,0a6,6,0,0,0,5.57-6.41L520,164.92c-.54-7.61,4.09-15.83,9.16-16.3a6.68,6.68,0,0,1,5.27,1.66c2.92,2.48,5.06,7.68,5.46,13.24l5.91,83.78a6,6,0,0,0,12-.84l-3.94-55.74a1.93,1.93,0,0,0,0-.24c-.42-6,1.66-15.76,9-16.29a7.25,7.25,0,0,1,5.69,1.76c2.82,2.44,4.74,7.35,5.15,13.12l7.1,100.59a3.57,3.57,0,0,0,.1.57,4,4,0,0,0,.08.5,6.45,6.45,0,0,0,.21.62c.06.15.11.31.18.45a5.09,5.09,0,0,0,.32.56,3.45,3.45,0,0,0,.25.41,3.8,3.8,0,0,0,.42.48,3.52,3.52,0,0,0,.31.35,6.25,6.25,0,0,0,.5.4c.13.1.24.2.38.29a5.49,5.49,0,0,0,.59.31,3,3,0,0,0,.4.2,4.4,4.4,0,0,0,.73.22l.35.11a6.42,6.42,0,0,0,1.16.11h.43a4.89,4.89,0,0,0,.53-.09,5.86,5.86,0,0,0,.58-.1,5.14,5.14,0,0,0,.55-.2,5.42,5.42,0,0,0,.56-.22c.17-.08.32-.19.48-.28s.34-.21.5-.33a4.83,4.83,0,0,0,.42-.37c.14-.13.29-.26.43-.41s.22-.29.34-.45a5.59,5.59,0,0,0,.33-.47,3.71,3.71,0,0,0,.26-.53c.08-.17.17-.33.24-.51a6.06,6.06,0,0,0,.16-.61,5,5,0,0,0,.12-.53c0-.22,0-.44,0-.66a3.75,3.75,0,0,0,0-.48c-.11-2.74-.58-8.82-.91-13.25l-.3-4c-.84-11.86,1-21.19,5.44-27,2.15-2.83,11.66-12.23,19.08-6.64,3.3,2.49,2.85,7.85-1.21,14.33-8.24,13.17-5.49,27.79-3.7,37.34,4.94,29.83-4.84,47.93-13.91,57.86-11.47,12.55-26.66,17.39-36.65,16.67a6,6,0,0,0-.9,12c1,.07,2,.11,3.07.11,8.94,0,18.51-2.84,27.25-7.83l27,65.11c-1.16,2.56-5.09,8.75-16.65,11.08a6,6,0,0,0,2.37,11.77c9.52-1.92,15.67-5.94,19.63-10l5.51,13.28-34,19-60.43-79.22A6,6,0,0,0,524,406.9l66.74,87.49h0l4.47,5.86h0L622,535.42,687.8,498.7Zm-246.58-14.7-1.85-23.31,6.49-2.91,9.63,23.77Zm163.15,9.77,21.58-12,5.35,13.09-21,6.79Z"/><ellipse class="cls-1" cx="563.37" cy="283.63" rx="6.67" ry="9.91" transform="translate(-26.2 59.49) rotate(-5.91)"/></g></svg>