<svg xmlns="http://www.w3.org/2000/svg" viewBox="0 0 672 672"><defs><style>.cls-1{fill:#ef5330;}.cls-2{fill:#e54523;}.cls-3{fill:#ff7761;}.cls-4{fill:#fff;}</style></defs><g id="Layer_3" data-name="Layer 3"><rect class="cls-1" width="672" height="672"/></g><g id="Layer_1" data-name="Layer 1"><rect class="cls-2" x="121.48" y="159.82" width="428.92" height="352.35"/><path class="cls-3" d="M222.5,667.49h-1v-7.35h1Zm0-13.48h-1v-7.34h1Zm0-13.47h-1v-7.35h1Zm0-13.47h-1v-7.35h1Zm0-13.47h-1v-7.35h1Zm0-13.47h-1v-7.35h1Zm0-13.48h-1V579.3h1Zm0-13.47h-1v-7.35h1Zm0-13.47h-1v-7.35h1Zm0-13.47h-1v-7.35h1Zm0-13.48h-1v-7.34h1Zm0-13.47h-1v-7.35h1Zm0-13.47h-1v-7.35h1Zm0-13.47h-1V485h1Zm0-13.47h-1v-7.35h1Zm0-13.48h-1v-7.35h1Zm0-13.47h-1v-7.35h1Zm0-13.47h-1v-7.35h1Zm0-13.47h-1v-7.35h1Zm0-13.48h-1v-7.34h1Zm0-13.47h-1v-7.35h1Zm0-13.47h-1v-7.35h1Zm0-13.47h-1v-7.35h1Zm0-13.47h-1v-7.35h1Zm0-13.48h-1V336.8h1Zm0-13.47h-1v-7.35h1Zm0-13.47h-1v-7.35h1Zm0-13.47h-1v-7.35h1Zm0-13.48h-1v-7.34h1Zm0-13.47h-1v-7.35h1Zm0-13.47h-1V256h1Zm0-13.47h-1V242.5h1Zm0-13.47h-1V229h1Zm0-13.48h-1v-7.34h1Zm0-13.47h-1v-7.35h1Zm0-13.47h-1v-7.35h1Zm0-13.47h-1v-7.35h1Zm0-13.48h-1v-7.34h1Zm0-13.47h-1v-7.35h1Zm0-13.47h-1v-7.35h1Zm0-13.47h-1v-7.35h1Zm0-13.47h-1v-7.35h1Zm0-13.48h-1V94.31h1Zm0-13.47h-1V80.83h1Zm0-13.47h-1V67.36h1Zm0-13.47h-1V53.89h1Zm0-13.47h-1V40.42h1Zm0-13.48h-1V26.94h1Zm0-13.47h-1V13.47h1Zm0-13.47h-1V0h1Z"/><rect class="cls-3" x="120.98" width="1" height="672"/><rect class="cls-3" x="549.9" width="1" height="672"/><path class="cls-3" d="M450.5,667.49h-1v-7.35h1Zm0-13.48h-1v-7.34h1Zm0-13.47h-1v-7.35h1Zm0-13.47h-1v-7.35h1Zm0-13.47h-1v-7.35h1Zm0-13.47h-1v-7.35h1Zm0-13.48h-1V579.3h1Zm0-13.47h-1v-7.35h1Zm0-13.47h-1v-7.35h1Zm0-13.47h-1v-7.35h1Zm0-13.48h-1v-7.34h1Zm0-13.47h-1v-7.35h1Zm0-13.47h-1v-7.35h1Zm0-13.47h-1V485h1Zm0-13.47h-1v-7.35h1Zm0-13.48h-1v-7.35h1Zm0-13.47h-1v-7.35h1Zm0-13.47h-1v-7.35h1Zm0-13.47h-1v-7.35h1Zm0-13.48h-1v-7.34h1Zm0-13.47h-1v-7.35h1Zm0-13.47h-1v-7.35h1Zm0-13.47h-1v-7.35h1Zm0-13.47h-1v-7.35h1Zm0-13.48h-1V336.8h1Zm0-13.47h-1v-7.35h1Zm0-13.47h-1v-7.35h1Zm0-13.47h-1v-7.35h1Zm0-13.48h-1v-7.34h1Zm0-13.47h-1v-7.35h1Zm0-13.47h-1V256h1Zm0-13.47h-1V242.5h1Zm0-13.47h-1V229h1Zm0-13.48h-1v-7.34h1Zm0-13.47h-1v-7.35h1Zm0-13.47h-1v-7.35h1Zm0-13.47h-1v-7.35h1Zm0-13.48h-1v-7.34h1Zm0-13.47h-1v-7.35h1Zm0-13.47h-1v-7.35h1Zm0-13.47h-1v-7.35h1Zm0-13.47h-1v-7.35h1Zm0-13.48h-1V94.31h1Zm0-13.47h-1V80.83h1Zm0-13.47h-1V67.36h1Zm0-13.47h-1V53.89h1Zm0-13.47h-1V40.42h1Zm0-13.48h-1V26.94h1Zm0-13.47h-1V13.47h1Zm0-13.47h-1V0h1Z"/><path class="cls-3" d="M672,412.23h-7.35v-1H672Zm-13.47,0h-7.35v-1h7.35Zm-13.47,0h-7.35v-1h7.35Zm-13.48,0h-7.35v-1h7.35Zm-13.47,0h-7.35v-1h7.35Zm-13.47,0h-7.35v-1h7.35Zm-13.47,0h-7.35v-1h7.35Zm-13.48,0h-7.34v-1h7.34Zm-13.47,0h-7.35v-1h7.35Zm-13.47,0H543.4v-1h7.35Zm-13.47,0h-7.35v-1h7.35Zm-13.47,0h-7.35v-1h7.35Zm-13.48,0H503v-1h7.34Zm-13.47,0h-7.35v-1h7.35Zm-13.47,0H476v-1h7.35Zm-13.47,0h-7.35v-1h7.35Zm-13.48,0H449.1v-1h7.34Zm-13.47,0h-7.35v-1H443Zm-13.47,0h-7.35v-1h7.35Zm-13.47,0h-7.35v-1H416Zm-13.47,0h-7.35v-1h7.35Zm-13.48,0h-7.34v-1h7.34Zm-13.47,0h-7.35v-1h7.35Zm-13.47,0h-7.35v-1h7.35Zm-13.47,0h-7.35v-1h7.35Zm-13.47,0h-7.35v-1h7.35Zm-13.48,0h-7.35v-1h7.35Zm-13.47,0H300.9v-1h7.35Zm-13.47,0h-7.35v-1h7.35Zm-13.47,0H274v-1h7.35Zm-13.48,0h-7.34v-1h7.34Zm-13.47,0H247v-1h7.35Zm-13.47,0h-7.35v-1h7.35Zm-13.47,0h-7.35v-1h7.35Zm-13.47,0H206.6v-1H214Zm-13.48,0h-7.35v-1h7.35Zm-13.47,0h-7.35v-1H187Zm-13.47,0h-7.35v-1h7.35Zm-13.47,0h-7.35v-1h7.35Zm-13.48,0h-7.34v-1h7.34Zm-13.47,0h-7.35v-1h7.35Zm-13.47,0h-7.35v-1h7.35Zm-13.47,0H98.82v-1h7.35Zm-13.47,0H85.35v-1H92.7Zm-13.48,0H71.88v-1h7.34Zm-13.47,0H58.4v-1h7.35Zm-13.47,0H44.93v-1h7.35Zm-13.47,0H31.46v-1h7.35Zm-13.48,0H18v-1h7.34Zm-13.47,0H4.51v-1h7.35Z"/><rect class="cls-3" y="511.68" width="672" height="1"/><rect class="cls-3" y="159.32" width="672" height="1"/><path class="cls-3" d="M672,260.77h-7.35v-1H672Zm-13.47,0h-7.35v-1h7.35Zm-13.47,0h-7.35v-1h7.35Zm-13.48,0h-7.35v-1h7.35Zm-13.47,0h-7.35v-1h7.35Zm-13.47,0h-7.35v-1h7.35Zm-13.47,0h-7.35v-1h7.35Zm-13.48,0h-7.34v-1h7.34Zm-13.47,0h-7.35v-1h7.35Zm-13.47,0H543.4v-1h7.35Zm-13.47,0h-7.35v-1h7.35Zm-13.47,0h-7.35v-1h7.35Zm-13.48,0H503v-1h7.34Zm-13.47,0h-7.35v-1h7.35Zm-13.47,0H476v-1h7.35Zm-13.47,0h-7.35v-1h7.35Zm-13.48,0H449.1v-1h7.34Zm-13.47,0h-7.35v-1H443Zm-13.47,0h-7.35v-1h7.35Zm-13.47,0h-7.35v-1H416Zm-13.47,0h-7.35v-1h7.35Zm-13.48,0h-7.34v-1h7.34Zm-13.47,0h-7.35v-1h7.35Zm-13.47,0h-7.35v-1h7.35Zm-13.47,0h-7.35v-1h7.35Zm-13.47,0h-7.35v-1h7.35Zm-13.48,0h-7.35v-1h7.35Zm-13.47,0H300.9v-1h7.35Zm-13.47,0h-7.35v-1h7.35Zm-13.47,0H274v-1h7.35Zm-13.48,0h-7.34v-1h7.34Zm-13.47,0H247v-1h7.35Zm-13.47,0h-7.35v-1h7.35Zm-13.47,0h-7.35v-1h7.35Zm-13.47,0H206.6v-1H214Zm-13.48,0h-7.35v-1h7.35Zm-13.47,0h-7.35v-1H187Zm-13.47,0h-7.35v-1h7.35Zm-13.47,0h-7.35v-1h7.35Zm-13.48,0h-7.34v-1h7.34Zm-13.47,0h-7.35v-1h7.35Zm-13.47,0h-7.35v-1h7.35Zm-13.47,0H98.82v-1h7.35Zm-13.47,0H85.35v-1H92.7Zm-13.48,0H71.88v-1h7.34Zm-13.47,0H58.4v-1h7.35Zm-13.47,0H44.93v-1h7.35Zm-13.47,0H31.46v-1h7.35Zm-13.48,0H18v-1h7.34Zm-13.47,0H4.51v-1h7.35Z"/><path class="cls-4" d="M337.5,405.73H330v-24h-6v30h13.5a3,3,0,0,0,0-6Z"/><path class="cls-4" d="M267,386.59A8.25,8.25,0,0,1,260.7,373a3,3,0,0,1,4.56,3.9,2.25,2.25,0,0,0,.25,3.17,2.24,2.24,0,0,0,3.17-.24l1.22-1.43a2.23,2.23,0,0,0,.53-1.64,2.2,2.2,0,0,0-.78-1.53,8.25,8.25,0,0,1-.9-11.63l1.22-1.43a8.26,8.26,0,0,1,11.63-.9,8.26,8.26,0,0,1,.91,11.63A3,3,0,1,1,278,369a2.23,2.23,0,0,0,.53-1.64,2.2,2.2,0,0,0-.78-1.53,2.25,2.25,0,0,0-3.17.24l-1.22,1.43a2.23,2.23,0,0,0-.53,1.64,2.2,2.2,0,0,0,.78,1.53,8.25,8.25,0,0,1,.9,11.63l-1.22,1.43a8.2,8.2,0,0,1-5.63,2.86C267.39,386.59,267.17,386.59,267,386.59Z"/><path class="cls-4" d="M410.33,381.55l-15.86-22.31-4.89,3.47,4.57,16.79-14.35-9.83-4.89,3.48,15.86,22.31a3,3,0,0,0,2.45,1.26,3,3,0,0,0,2.44-4.74l-5.78-8.14,7.13,4.88,4.92-3.49-2.27-8.34,5.78,8.14a3,3,0,0,0,4.89-3.48Z"/><path class="cls-4" d="M374.82,401.85,361.1,378l-6.49,1.75.12,27.52a3,3,0,0,0,3,3h0a3,3,0,0,0,3-3V404.5l7.53-2,1.36,2.37a3,3,0,0,0,5.21-3Zm-14.13-3.56,0-9,4.51,7.84Z"/><path class="cls-4" d="M302.1,374.69l-16.3,22.18a3,3,0,1,0,4.83,3.55l1.62-2.2,7.26,2.85-.32,2.72a3,3,0,0,0,2.64,3.33l.35,0a3,3,0,0,0,3-2.66l3.2-27.33Zm-1.87,20.22-4.3-1.7,5.35-7.28Z"/><path class="cls-4" d="M432,297.66v22.5a4.5,4.5,0,1,1-9,0v-49.5H405v49.5a22.5,22.5,0,1,0,45,0v-22.5Z"/><path class="cls-4" d="M381,320.16a4.5,4.5,0,1,1-9,0v-22.5H354v22.5a4.5,4.5,0,1,1-9,0v-22.5H327v10.92a25.49,25.49,0,0,0-3.11-6.05L314,288.39l8.81-12.59-14.74-10.32L303,272.7l-8.7-12.43L279.55,270.6,292,288.39l-9.9,14.14A25.54,25.54,0,0,0,278,312a24,24,0,1,0-44.93,16.45A24,24,0,0,0,222,348.66v6h18v-6a6,6,0,0,1,6-6h9a24,24,0,0,0,23.42-18.81,25.47,25.47,0,0,0,49,.61A22.45,22.45,0,0,0,363,338.12a22.46,22.46,0,0,0,36-18v-22.5H381Zm-126,4.5a6,6,0,1,1,6-6A6,6,0,0,1,255,324.66Zm48,0a7.6,7.6,0,0,1-7.5-7.5,7.42,7.42,0,0,1,1.36-4.3l6.14-8.78,6.14,8.78a7.42,7.42,0,0,1,1.36,4.3A7.6,7.6,0,0,1,303,324.66Z"/><path class="cls-4" d="M427.5,348.73a6,6,0,1,0,6,6A6,6,0,0,0,427.5,348.73Z"/><path class="cls-3" d="M432,449.11v22.5a4.5,4.5,0,0,1-9,0v-49.5H405v49.5a22.5,22.5,0,0,0,45,0v-22.5Z"/><path class="cls-3" d="M381,471.61a4.5,4.5,0,0,1-9,0v-22.5H354v22.5a4.5,4.5,0,0,1-9,0v-22.5H327V460a25.49,25.49,0,0,0-3.11-6L314,439.84l8.81-12.59-14.74-10.32L303,424.15l-8.7-12.42-14.75,10.32L292,439.84,282.11,454a25.54,25.54,0,0,0-4.07,9.47,24,24,0,1,0-44.93,16.45A24,24,0,0,0,222,500.11v6h18v-6a6,6,0,0,1,6-6h9a24,24,0,0,0,23.42-18.81,25.47,25.47,0,0,0,49,.61A22.45,22.45,0,0,0,363,489.57a22.46,22.46,0,0,0,36-18v-22.5H381Zm-126,4.5a6,6,0,1,1,6-6A6,6,0,0,1,255,476.11Zm48,0a7.6,7.6,0,0,1-7.5-7.5,7.42,7.42,0,0,1,1.36-4.3l6.14-8.78,6.14,8.78a7.42,7.42,0,0,1,1.36,4.3A7.6,7.6,0,0,1,303,476.11Z"/><path class="cls-3" d="M427.5,500.18a6,6,0,1,0,6,6A6,6,0,0,0,427.5,500.18Z"/><path class="cls-3" d="M432,197.21v22.5a4.5,4.5,0,1,1-9,0v-49.5H405v49.5a22.5,22.5,0,1,0,45,0v-22.5Z"/><path class="cls-3" d="M381,219.71a4.5,4.5,0,1,1-9,0v-22.5H354v22.5a4.5,4.5,0,1,1-9,0v-22.5H327v10.92a25.49,25.49,0,0,0-3.11-6L314,187.94l8.81-12.59L308.06,165,303,172.25l-8.7-12.43-14.75,10.33L292,187.94l-9.9,14.14a25.54,25.54,0,0,0-4.07,9.47A24,24,0,1,0,233.11,228,24,24,0,0,0,222,248.21v6h18v-6a6,6,0,0,1,6-6h9a24,24,0,0,0,23.42-18.82,25.47,25.47,0,0,0,49,.62A22.44,22.44,0,0,0,363,237.66a22.45,22.45,0,0,0,36-17.95v-22.5H381Zm-126,4.5a6,6,0,1,1,6-6A6,6,0,0,1,255,224.21Zm48,0a7.6,7.6,0,0,1-7.5-7.5,7.42,7.42,0,0,1,1.36-4.3l6.14-8.78,6.14,8.78a7.42,7.42,0,0,1,1.36,4.3A7.6,7.6,0,0,1,303,224.21Z"/><path class="cls-3" d="M427.5,248.27a6,6,0,1,0,6,6A6,6,0,0,0,427.5,248.27Z"/><path class="cls-3" d="M487.33,240h22.5a4.5,4.5,0,1,1,0,9h-49.5v18h49.5a22.5,22.5,0,1,0,0-45h-22.5Z"/><path class="cls-3" d="M509.83,291a4.5,4.5,0,1,1,0,9h-22.5v18h22.5a4.5,4.5,0,1,1,0,9h-22.5v18h10.92a25.43,25.43,0,0,0-6,3.11L478.07,358l-12.6-8.81-10.32,14.74,7.23,5.06L450,377.7l10.32,14.75L478.07,380l14.14,9.9a25.43,25.43,0,0,0,9.46,4.07,24,24,0,1,0,16.45,44.93A24,24,0,0,0,538.33,450h6V432h-6a6,6,0,0,1-6-6v-9h0a24,24,0,0,0-18.81-23.42,25.47,25.47,0,0,0,.61-49A22.45,22.45,0,0,0,527.79,309a22.46,22.46,0,0,0-18-36h-22.5v18Zm4.5,126a6,6,0,1,1-6-6A6,6,0,0,1,514.33,417Zm0-48a7.59,7.59,0,0,1-7.5,7.5,7.46,7.46,0,0,1-4.3-1.36L493.76,369l8.77-6.14a7.46,7.46,0,0,1,4.3-1.36A7.59,7.59,0,0,1,514.33,369Z"/><path class="cls-3" d="M538.4,244.5a6,6,0,1,0,6-6A6,6,0,0,0,538.4,244.5Z"/><path class="cls-3" d="M158.86,240h22.5a4.5,4.5,0,0,1,0,9h-49.5v18h49.5a22.5,22.5,0,0,0,0-45h-22.5Z"/><path class="cls-3" d="M181.36,291a4.5,4.5,0,0,1,0,9h-22.5v18h22.5a4.5,4.5,0,0,1,0,9h-22.5v18h10.92a25.43,25.43,0,0,0-6,3.11L149.6,358,137,349.2l-10.32,14.74,7.23,5.06-12.43,8.7,10.32,14.75L149.6,380l14.14,9.9A25.43,25.43,0,0,0,173.2,394a24,24,0,1,0,16.45,44.93A24,24,0,0,0,209.86,450h6V432h-6a6,6,0,0,1-6-6v-9h0a24,24,0,0,0-18.81-23.42,25.47,25.47,0,0,0,.61-49A22.45,22.45,0,0,0,199.32,309a22.46,22.46,0,0,0-18-36h-22.5v18Zm4.5,126a6,6,0,1,1-6-6A6,6,0,0,1,185.86,417Zm0-48a7.59,7.59,0,0,1-7.5,7.5,7.46,7.46,0,0,1-4.3-1.36L165.29,369l8.77-6.14a7.46,7.46,0,0,1,4.3-1.36A7.59,7.59,0,0,1,185.86,369Z"/><path class="cls-3" d="M209.93,244.5a6,6,0,1,0,6-6A6,6,0,0,0,209.93,244.5Z"/></g></svg>