<svg xmlns="http://www.w3.org/2000/svg" viewBox="0 0 672 672"><defs><style>.cls-1{fill:#ef5330;}</style></defs><g id="Layer_1" data-name="Layer 1"><path class="cls-1" d="M551,487.18H121.05V184.82H551Zm-428.9-1H550V185.82H122.05Z"/></g><g id="Isolation_Mode" data-name="Isolation Mode"><path d="M432,323.16v22.5a4.5,4.5,0,1,1-9,0v-49.5H405v49.5a22.5,22.5,0,1,0,45,0v-22.5Z"/><path d="M381,345.66a4.5,4.5,0,1,1-9,0v-22.5H354v22.5a4.5,4.5,0,1,1-9,0v-22.5H327v10.92a25.49,25.49,0,0,0-3.11-6.05L314,313.89l8.81-12.59L308.06,291,303,298.2l-8.7-12.43L279.55,296.1,292,313.89,282.11,328A25.54,25.54,0,0,0,278,337.5,24,24,0,1,0,233.11,354,24,24,0,0,0,222,374.16v6h18v-6a6,6,0,0,1,6-6h9a24,24,0,0,0,23.42-18.82,25.47,25.47,0,0,0,49,.62A22.45,22.45,0,0,0,363,363.62a22.46,22.46,0,0,0,36-18v-22.5H381Zm-126,4.5a6,6,0,1,1,6-6A6,6,0,0,1,255,350.16Zm48,0a7.6,7.6,0,0,1-7.5-7.5,7.42,7.42,0,0,1,1.36-4.3l6.14-8.78,6.14,8.78a7.42,7.42,0,0,1,1.36,4.3A7.6,7.6,0,0,1,303,350.16Z"/><path d="M427.5,374.23a6,6,0,1,0,6,6A6,6,0,0,0,427.5,374.23Z"/></g></svg>