<svg xmlns="http://www.w3.org/2000/svg" viewBox="0 0 152 100.97"><g id="Isolation_Mode" data-name="Isolation Mode"><path d="M77,97H72V81H68v20h9a2,2,0,0,0,0-4Z"/><path d="M30,84.21a5.51,5.51,0,0,1-4.17-9.08,2,2,0,0,1,3,2.61A1.5,1.5,0,0,0,29,79.85a1.52,1.52,0,0,0,1.09.36,1.49,1.49,0,0,0,1-.52l.81-1a1.5,1.5,0,0,0-.16-2.12,5.48,5.48,0,0,1-.6-7.75l.81-1a5.52,5.52,0,0,1,7.76-.6,5.51,5.51,0,0,1,.6,7.75,2,2,0,1,1-3-2.6,1.49,1.49,0,0,0,.36-1.09,1.54,1.54,0,0,0-.52-1,1.5,1.5,0,0,0-2.12.16l-.81,1a1.49,1.49,0,0,0,.16,2.11,5.5,5.5,0,0,1,.6,7.76l-.81,1a5.49,5.49,0,0,1-3.75,1.91Z"/><path d="M125.56,80.85,115,66l-3.26,2.31,3,11.19-9.57-6.55-3.26,2.32,10.58,14.87a2,2,0,0,0,3.26-2.32l-3.86-5.42,4.75,3.25L120,83.3l-1.51-5.56,3.86,5.43a2,2,0,0,0,3.26-2.32Z"/><path d="M101.88,94.38l-9.15-15.9-4.32,1.16L88.49,98a2,2,0,0,0,2,2h0a2,2,0,0,0,2-2V96.15l5-1.35.91,1.58a2,2,0,0,0,3.47-2ZM92.46,92l0-6,3,5.22Z"/><path d="M53.4,76.27,42.53,91.06a2,2,0,1,0,3.23,2.37L46.84,92l4.83,1.91-.21,1.8a2,2,0,0,0,1.76,2.22l.23,0a2,2,0,0,0,2-1.77l2.12-18.23ZM52.15,89.76l-2.86-1.13,3.56-4.86Z"/><path d="M140,24.92v15a3,3,0,1,1-6,0v-33H122v33a15,15,0,1,0,30,0v-15Z"/><path d="M106,39.92a3,3,0,1,1-6,0v-15H88v15a3,3,0,0,1-6,0v-15H70V32.2a17.28,17.28,0,0,0-2.07-4l-6.6-9.43,5.87-8.39L57.37,3.47,54,8.28,48.2,0,38.37,6.88l8.31,11.86-6.61,9.43a16.92,16.92,0,0,0-2.71,6.31A16,16,0,0,0,6,38.92a15.84,15.84,0,0,0,1.41,6.53A16,16,0,0,0,0,58.92v4H12v-4a4,4,0,0,1,4-4h6A16,16,0,0,0,37.61,42.38a17,17,0,0,0,32.67.41A15,15,0,0,0,85,54.92a14.85,14.85,0,0,0,9-3,14.85,14.85,0,0,0,9,3,15,15,0,0,0,15-15v-15H106Zm-84,3a4,4,0,1,1,4-4A4,4,0,0,1,22,42.92Zm32,0a5.07,5.07,0,0,1-5-5,5,5,0,0,1,.9-2.87L54,29.21l4.1,5.84a5,5,0,0,1,.9,2.87A5.07,5.07,0,0,1,54,42.92Z"/><path d="M137,59a4,4,0,1,0,4,4A4,4,0,0,0,137,59Z"/></g></svg>