<svg xmlns="http://www.w3.org/2000/svg" xmlns:xlink="http://www.w3.org/1999/xlink" viewBox="0 0 672 672"><defs><style>.cls-1{fill:none;}.cls-2{fill:#ef5330;}.cls-3{fill:#e54523;}.cls-4{fill:#fff;}.cls-5{fill:#ff7761;}.cls-6{clip-path:url(#clip-path);}.cls-7{clip-path:url(#clip-path-2);}.cls-8{clip-path:url(#clip-path-3);}.cls-9{clip-path:url(#clip-path-4);}.cls-10{clip-path:url(#clip-path-5);}</style><clipPath id="clip-path"><rect class="cls-1" x="509.98" y="247.2" width="124.51" height="160.16"/></clipPath><clipPath id="clip-path-2"><rect class="cls-1" x="509.98" y="292.73" width="99.66" height="88.41"/></clipPath><clipPath id="clip-path-3"><rect class="cls-1" x="62.73" y="290.86" width="99.66" height="88.41" transform="translate(225.12 670.13) rotate(180)"/></clipPath><clipPath id="clip-path-4"><rect class="cls-1" x="287.1" y="42.55" width="99.66" height="88.41" transform="translate(250.19 423.69) rotate(-90)"/></clipPath><clipPath id="clip-path-5"><rect class="cls-1" x="285.23" y="541.04" width="99.66" height="88.41" transform="translate(920.31 250.18) rotate(90)"/></clipPath></defs><g id="Layer_3" data-name="Layer 3"><rect class="cls-2" width="672" height="672"/></g><g id="Layer_1" data-name="Layer 1"><rect class="cls-3" x="162.39" y="136.58" width="347.59" height="398.83"/><path class="cls-4" d="M321.58,392.11a3,3,0,0,0,.53,5.95,3.41,3.41,0,0,0,.55-.05,10.43,10.43,0,0,0,8.48-10.5,3.06,3.06,0,0,0-3.05-2.95,3,3,0,0,0-2.95,3.05A4.38,4.38,0,0,1,321.58,392.11Z"/><path class="cls-4" d="M324.72,305c-1.79.49-2.85,3.06-2.37,5.74s2.32,4.47,4.11,4,2.85-3.06,2.37-5.74S326.52,304.47,324.72,305Z"/><path class="cls-4" d="M329.67,329.55a3,3,0,0,0,3,2.7h.3l10.81-1.07L340,314.22a3,3,0,1,0-5.86,1.3l2.3,10.34-4.07.41A3,3,0,0,0,329.67,329.55Z"/><path class="cls-4" d="M327.38,340.61a3,3,0,0,0,1.06,4.11,17.5,17.5,0,0,0,23.94-6.2,3,3,0,1,0-5.17-3,11.49,11.49,0,0,1-15.72,4.07A3,3,0,0,0,327.38,340.61Z"/><path class="cls-4" d="M408.36,414.71a13.5,13.5,0,0,0-15.72-6l-6.81,2.21-3.12-7.64,4.84-2.7-21.49-51.81a31.45,31.45,0,0,0,3-2.88c5.43-5.94,11.31-16.66,8.43-34-1-5.39-1.63-10.19,1-14.44,4.54-7.26,2.53-12.58-.87-15.14-6.26-4.72-13.46-.62-17.15,3.53l-1.67-23.71c-.32-4.5-2-8.39-4.63-10.67a9.67,9.67,0,0,0-7.21-2.33,9.57,9.57,0,0,0-5,1.78l-.11-1.55c-.32-4.44-2.12-8.47-4.83-10.77a9.34,9.34,0,0,0-7.07-2.23c-5.49.5-9.19,6-9.91,11.59a9.47,9.47,0,0,0-5.37-1c-7.2.69-10.48,7.84-10,14.55l.81,11.43a7.67,7.67,0,0,0-3.94-.61c-6,.66-9.43,6.22-8.87,14.16l2.42,34.24h0l.05.68a1.38,1.38,0,0,0,0,.2c1.4,16.7,8.49,26.14,14.83,31.32.64,4.45,1.84,22.9-19.52,33.33l-2.77,1.3-4.14,1.86h0L262.1,399,272,435.68l2.81-.66a14.44,14.44,0,0,0,11.2-15.29l-.51-6.36,9-1.55,1.65,4.07,2.05,0c33.34-.52,40.86-20,41.16-20.86a3,3,0,0,0-5.63-2.08c-.25.66-6.35,15.74-33.58,16.89l-.8-2-6.5-16.06.28-.13c19.86-9.71,23-25.86,23.11-34.72a22.72,22.72,0,0,0,4.39,1.77,2.81,2.81,0,0,0,.65.07,3,3,0,0,0,.64-5.92c-.19-.05-18.86-5.35-20.78-32.58L298.72,286c-.05-.75-.41-7.34,3.54-7.78a1.89,1.89,0,0,1,1.51.5c1.39,1.16,2.45,3.85,2.66,6.72l.25,3.61h0l1.21,17.11a3,3,0,1,0,6-.42L312.41,285h0l-1.69-24c-.22-3.08.82-7.79,4.59-8.15a3.39,3.39,0,0,1,2.66.81c1.46,1.24,2.49,3.78,2.69,6.64a.43.43,0,0,1,0,.05l2.29,32.4a3,3,0,0,0,3,2.79h.21a3,3,0,0,0,2.78-3.21L326,250.46c-.27-3.8,2-7.92,4.58-8.15a3.38,3.38,0,0,1,2.64.83c1.46,1.24,2.53,3.84,2.72,6.62l3,41.89a3,3,0,0,0,6-.42l-2-27.87v-.12c-.21-3,.83-7.88,4.52-8.15a3.66,3.66,0,0,1,2.85.89c1.41,1.22,2.37,3.67,2.58,6.56l3.55,50.29a2.36,2.36,0,0,0,0,.28c0,.09,0,.17,0,.26s.07.2.11.3a1.95,1.95,0,0,0,.25.51l.12.2.21.25c.06.06.1.12.16.17a2.19,2.19,0,0,0,.25.2,1.33,1.33,0,0,0,.19.14,2.69,2.69,0,0,0,.29.16l.2.1a2.26,2.26,0,0,0,.37.11l.18.05a2.72,2.72,0,0,0,.58.06h.21a2.34,2.34,0,0,0,.26,0l.3-.05.27-.1a1.62,1.62,0,0,0,.28-.11l.24-.14.25-.16c.08-.06.14-.13.21-.19s.15-.13.21-.2a1.24,1.24,0,0,0,.17-.23c.06-.08.12-.15.17-.23s.09-.18.13-.27a2.06,2.06,0,0,0,.12-.26c0-.09,0-.2.08-.3a2.14,2.14,0,0,0,.06-.27,1.67,1.67,0,0,0,0-.32c0-.08,0-.16,0-.24-.06-1.37-.29-4.41-.46-6.63l-.15-2c-.42-5.93.52-10.59,2.72-13.49,1.07-1.41,5.83-6.11,9.54-3.32,1.65,1.24,1.42,3.92-.61,7.17-4.12,6.58-2.74,13.89-1.84,18.66,2.47,14.92-2.42,24-7,28.93-5.74,6.28-13.33,8.7-18.32,8.34a3,3,0,1,0-.45,6q.75.06,1.53.06A28,28,0,0,0,361,352.3l13.5,32.56c-.58,1.28-2.55,4.38-8.32,5.54a3,3,0,0,0,.59,5.94,3,3,0,0,0,.59-.06,18.36,18.36,0,0,0,9.81-5l2.76,6.64-17,9.48-30.22-39.61a3,3,0,0,0-4.77,3.64l33.37,43.75h0l2.23,2.92h0L377,435.71l32.91-18.36Zm-123.3-7.35-.92-11.66,3.25-1.45,4.81,11.88Zm81.58,4.88,10.79-6,2.68,6.55-10.48,3.39Z"/><ellipse class="cls-4" cx="347.68" cy="309.81" rx="3.34" ry="4.95" transform="translate(-30.04 37.43) rotate(-5.91)"/><path class="cls-5" d="M672,236.79h-6v-1h6Zm-11,0h-6v-1h6Zm-11,0h-6v-1h6Zm-11,0h-6v-1h6Zm-11,0h-6v-1h6Zm-11,0h-6v-1h6Zm-11,0h-6v-1h6Zm-11,0h-6v-1h6Zm-11,0h-6v-1h6Zm-11,0h-6v-1h6Zm-11,0h-6v-1h6Zm-11,0h-6v-1h6Zm-11,0h-6v-1h6Zm-11,0h-6v-1h6Zm-11,0h-6v-1h6Zm-11,0h-6v-1h6Zm-11,0h-6v-1h6Zm-11,0h-6v-1h6Zm-11,0h-6v-1h6Zm-11,0h-6v-1h6Zm-11,0h-6v-1h6Zm-11,0h-6v-1h6Zm-11,0h-6v-1h6Zm-11,0h-6v-1h6Zm-11,0h-6v-1h6Zm-11,0h-6v-1h6Zm-11,0h-6v-1h6Zm-11,0h-6v-1h6Zm-11,0h-6v-1h6Zm-11,0h-6v-1h6Zm-11,0h-6v-1h6Zm-11,0h-6v-1h6Zm-11,0h-6v-1h6Zm-11,0h-6v-1h6Zm-11,0h-6v-1h6Zm-11,0h-6v-1h6Zm-11,0h-6v-1h6Zm-11,0h-6v-1h6Zm-11,0h-6v-1h6Zm-11,0h-6v-1h6Zm-11,0h-6v-1h6Zm-11,0h-6v-1h6Zm-11,0h-6v-1h6Zm-11,0h-6v-1h6Zm-11,0h-6v-1h6Zm-11,0h-6v-1h6Zm-11,0h-6v-1h6Zm-11,0h-6v-1h6Zm-11,0h-6v-1h6Zm-11,0h-6v-1h6Zm-11,0h-6v-1h6Zm-11,0h-6v-1h6Zm-11,0H94v-1h6Zm-11,0H83v-1h6Zm-11,0H72v-1h6Zm-11,0H61v-1h6Zm-11,0H50v-1h6Zm-11,0H39v-1h6Zm-11,0H28v-1h6Zm-11,0H17v-1h6Zm-11,0H6v-1h6Zm-11,0H0v-1H1Z"/><rect class="cls-5" y="136.08" width="672" height="1"/><path class="cls-5" d="M672,436.21h-6v-1h6Zm-11,0h-6v-1h6Zm-11,0h-6v-1h6Zm-11,0h-6v-1h6Zm-11,0h-6v-1h6Zm-11,0h-6v-1h6Zm-11,0h-6v-1h6Zm-11,0h-6v-1h6Zm-11,0h-6v-1h6Zm-11,0h-6v-1h6Zm-11,0h-6v-1h6Zm-11,0h-6v-1h6Zm-11,0h-6v-1h6Zm-11,0h-6v-1h6Zm-11,0h-6v-1h6Zm-11,0h-6v-1h6Zm-11,0h-6v-1h6Zm-11,0h-6v-1h6Zm-11,0h-6v-1h6Zm-11,0h-6v-1h6Zm-11,0h-6v-1h6Zm-11,0h-6v-1h6Zm-11,0h-6v-1h6Zm-11,0h-6v-1h6Zm-11,0h-6v-1h6Zm-11,0h-6v-1h6Zm-11,0h-6v-1h6Zm-11,0h-6v-1h6Zm-11,0h-6v-1h6Zm-11,0h-6v-1h6Zm-11,0h-6v-1h6Zm-11,0h-6v-1h6Zm-11,0h-6v-1h6Zm-11,0h-6v-1h6Zm-11,0h-6v-1h6Zm-11,0h-6v-1h6Zm-11,0h-6v-1h6Zm-11,0h-6v-1h6Zm-11,0h-6v-1h6Zm-11,0h-6v-1h6Zm-11,0h-6v-1h6Zm-11,0h-6v-1h6Zm-11,0h-6v-1h6Zm-11,0h-6v-1h6Zm-11,0h-6v-1h6Zm-11,0h-6v-1h6Zm-11,0h-6v-1h6Zm-11,0h-6v-1h6Zm-11,0h-6v-1h6Zm-11,0h-6v-1h6Zm-11,0h-6v-1h6Zm-11,0h-6v-1h6Zm-11,0H94v-1h6Zm-11,0H83v-1h6Zm-11,0H72v-1h6Zm-11,0H61v-1h6Zm-11,0H50v-1h6Zm-11,0H39v-1h6Zm-11,0H28v-1h6Zm-11,0H17v-1h6Zm-11,0H6v-1h6Zm-11,0H0v-1H1Z"/><rect class="cls-5" y="534.92" width="672" height="1"/><path class="cls-5" d="M410.4,672h-1v-6h1Zm0-11h-1v-6h1Zm0-11h-1v-6h1Zm0-11h-1v-6h1Zm0-11h-1v-6h1Zm0-11h-1v-6h1Zm0-11h-1v-6h1Zm0-11h-1v-6h1Zm0-11h-1v-6h1Zm0-11h-1v-6h1Zm0-11h-1v-6h1Zm0-11h-1v-6h1Zm0-11h-1v-6h1Zm0-11h-1v-6h1Zm0-11h-1v-6h1Zm0-11h-1v-6h1Zm0-11h-1v-6h1Zm0-11h-1v-6h1Zm0-11h-1v-6h1Zm0-11h-1v-6h1Zm0-11h-1v-6h1Zm0-11h-1v-6h1Zm0-11h-1v-6h1Zm0-11h-1v-6h1Zm0-11h-1v-6h1Zm0-11h-1v-6h1Zm0-11h-1v-6h1Zm0-11h-1v-6h1Zm0-11h-1v-6h1Zm0-11h-1v-6h1Zm0-11h-1v-6h1Zm0-11h-1v-6h1Zm0-11h-1v-6h1Zm0-11h-1v-6h1Zm0-11h-1v-6h1Zm0-11h-1v-6h1Zm0-11h-1v-6h1Zm0-11h-1v-6h1Zm0-11h-1v-6h1Zm0-11h-1v-6h1Zm0-11h-1v-6h1Zm0-11h-1v-6h1Zm0-11h-1v-6h1Zm0-11h-1v-6h1Zm0-11h-1v-6h1Zm0-11h-1v-6h1Zm0-11h-1v-6h1Zm0-11h-1v-6h1Zm0-11h-1v-6h1Zm0-11h-1v-6h1Zm0-11h-1v-6h1Zm0-11h-1v-6h1Zm0-11h-1V94h1Zm0-11h-1V83h1Zm0-11h-1V72h1Zm0-11h-1V61h1Zm0-11h-1V50h1Zm0-11h-1V39h1Zm0-11h-1V28h1Zm0-11h-1V17h1Zm0-11h-1V6h1Zm0-11h-1V0h1Z"/><rect class="cls-5" x="509.48" width="1" height="672"/><rect class="cls-5" x="161.89" width="1" height="672"/><path class="cls-5" d="M262.6,672h-1v-6h1Zm0-11h-1v-6h1Zm0-11h-1v-6h1Zm0-11h-1v-6h1Zm0-11h-1v-6h1Zm0-11h-1v-6h1Zm0-11h-1v-6h1Zm0-11h-1v-6h1Zm0-11h-1v-6h1Zm0-11h-1v-6h1Zm0-11h-1v-6h1Zm0-11h-1v-6h1Zm0-11h-1v-6h1Zm0-11h-1v-6h1Zm0-11h-1v-6h1Zm0-11h-1v-6h1Zm0-11h-1v-6h1Zm0-11h-1v-6h1Zm0-11h-1v-6h1Zm0-11h-1v-6h1Zm0-11h-1v-6h1Zm0-11h-1v-6h1Zm0-11h-1v-6h1Zm0-11h-1v-6h1Zm0-11h-1v-6h1Zm0-11h-1v-6h1Zm0-11h-1v-6h1Zm0-11h-1v-6h1Zm0-11h-1v-6h1Zm0-11h-1v-6h1Zm0-11h-1v-6h1Zm0-11h-1v-6h1Zm0-11h-1v-6h1Zm0-11h-1v-6h1Zm0-11h-1v-6h1Zm0-11h-1v-6h1Zm0-11h-1v-6h1Zm0-11h-1v-6h1Zm0-11h-1v-6h1Zm0-11h-1v-6h1Zm0-11h-1v-6h1Zm0-11h-1v-6h1Zm0-11h-1v-6h1Zm0-11h-1v-6h1Zm0-11h-1v-6h1Zm0-11h-1v-6h1Zm0-11h-1v-6h1Zm0-11h-1v-6h1Zm0-11h-1v-6h1Zm0-11h-1v-6h1Zm0-11h-1v-6h1Zm0-11h-1v-6h1Zm0-11h-1V94h1Zm0-11h-1V83h1Zm0-11h-1V72h1Zm0-11h-1V61h1Zm0-11h-1V50h1Zm0-11h-1V39h1Zm0-11h-1V28h1Zm0-11h-1V17h1Zm0-11h-1V6h1Zm0-11h-1V0h1Z"/><g class="cls-6"><path class="cls-5" d="M453.88,321.58a3,3,0,0,0-6,.53,3.41,3.41,0,0,0,.05.55,10.43,10.43,0,0,0,10.5,8.48,3.08,3.08,0,0,0,3-3.05,3,3,0,0,0-3.05-2.95A4.38,4.38,0,0,1,453.88,321.58Z"/><path class="cls-5" d="M541,324.72c-.48-1.79-3-2.85-5.74-2.37s-4.46,2.32-4,4.11,3.05,2.85,5.74,2.37S541.51,326.52,541,324.72Z"/><path class="cls-5" d="M516.44,329.67a3,3,0,0,0-2.71,3c0,.1,0,.2,0,.3l1.07,10.81L531.77,340a3,3,0,0,0-1.31-5.86l-10.34,2.3-.4-4.07A3,3,0,0,0,516.44,329.67Z"/><path class="cls-5" d="M505.37,327.38a3,3,0,0,0-4.11,1.06,17.5,17.5,0,0,0,6.21,23.94,3,3,0,0,0,3-5.17,11.48,11.48,0,0,1-4.08-15.72A3,3,0,0,0,505.37,327.38Z"/><path class="cls-5" d="M431.28,408.36a13.49,13.49,0,0,0,6-15.72l-2.2-6.81,7.64-3.12,2.7,4.84,51.8-21.49a32.74,32.74,0,0,0,2.88,3c6,5.43,16.67,11.31,34,8.43,5.38-1,10.18-1.63,14.44,1,7.26,4.54,12.58,2.53,15.14-.87,4.71-6.26.62-13.46-3.54-17.15l23.71-1.67c4.51-.32,8.4-2,10.67-4.63a9.95,9.95,0,0,0,.55-12.18l1.56-.11c4.44-.32,8.46-2.12,10.77-4.83a9.38,9.38,0,0,0,2.23-7.07c-.51-5.49-6-9.19-11.6-9.91a9.47,9.47,0,0,0,1-5.37c-.68-7.2-7.84-10.48-14.55-10l-11.43.81a7.78,7.78,0,0,0,.62-3.94c-.67-6-6.23-9.43-14.16-8.87l-34.25,2.42h0l-.68.05a1.38,1.38,0,0,0-.2,0c-16.7,1.4-26.15,8.49-31.32,14.83-4.46.64-22.9,1.84-33.34-19.52l-1.3-2.77-1.85-4.14h0L447,262.1,410.31,272l.65,2.81a14.45,14.45,0,0,0,15.3,11.2l6.36-.51,1.54,9-4.06,1.65,0,2.05c.52,33.34,20,40.86,20.86,41.16a3,3,0,0,0,2.09-5.63c-.66-.25-15.75-6.35-16.89-33.58l2-.8,16.07-6.5.13.28c9.7,19.86,25.85,23,34.71,23.11a22.72,22.72,0,0,0-1.77,4.39,2.81,2.81,0,0,0-.07.65,3,3,0,0,0,5.93.64c0-.19,5.35-18.86,32.57-20.78L560,298.72c.75-.05,7.33-.41,7.77,3.54a1.82,1.82,0,0,1-.5,1.51c-1.15,1.39-3.85,2.45-6.72,2.66l-3.6.25h0l-17.11,1.21a3,3,0,1,0,.42,6L561,312.41h0l24-1.69c3.08-.22,7.79.82,8.15,4.59a3.42,3.42,0,0,1-.81,2.66c-1.24,1.46-3.79,2.49-6.64,2.69h0L553.21,323a3,3,0,0,0-2.79,3,1.48,1.48,0,0,0,0,.21,3,3,0,0,0,3.2,2.78L595.52,326c3.81-.27,7.92,2,8.15,4.58a3.34,3.34,0,0,1-.83,2.64c-1.24,1.46-3.83,2.53-6.61,2.72l-41.9,3a3,3,0,1,0,.43,6l27.87-2h.12c3-.21,7.87.83,8.14,4.52a3.65,3.65,0,0,1-.88,2.85c-1.22,1.41-3.67,2.37-6.56,2.58l-50.3,3.55a2.7,2.7,0,0,0-.28,0l-.25,0-.31.11-.23.09a1.56,1.56,0,0,0-.28.16l-.2.12-.24.21-.18.16-.2.25c0,.06-.1.12-.14.19a1.59,1.59,0,0,0-.15.29,2,2,0,0,0-.11.2c0,.12-.07.24-.11.37s0,.12-.05.18a2.72,2.72,0,0,0-.06.58h0a.49.49,0,0,0,0,.12v.09a2.38,2.38,0,0,0,0,.26,1.57,1.57,0,0,0,.05.3c0,.09.06.18.09.27s.07.19.11.28l.15.24c0,.08.1.17.16.25a1.81,1.81,0,0,0,.18.21,2.08,2.08,0,0,0,.21.21,1.63,1.63,0,0,0,.22.17l.24.17.26.13c.09,0,.17.09.26.12l.3.08.27.06a1.83,1.83,0,0,0,.33,0l.24,0c1.37-.06,4.41-.29,6.63-.46l2-.15c5.92-.42,10.59.52,13.49,2.72,1.41,1.07,6.11,5.83,3.31,9.54-1.24,1.65-3.92,1.42-7.16-.61-6.59-4.12-13.9-2.74-18.67-1.84-14.91,2.47-24-2.42-28.93-7-6.27-5.74-8.69-13.33-8.34-18.32A3,3,0,0,0,493,343.1a3,3,0,0,0-3.22,2.77q-.06.75-.06,1.53A28,28,0,0,0,493.68,361l-32.56,13.5c-1.28-.58-4.37-2.55-5.54-8.32a3,3,0,0,0-5.94.59,3,3,0,0,0,.06.59,18.43,18.43,0,0,0,5,9.81L448,380l-9.48-17,39.61-30.22a3,3,0,1,0-3.64-4.77l-43.74,33.37h0l-2.93,2.23h0L410.28,377l18.35,32.91Zm7.34-123.3,11.66-.92,1.45,3.25-11.88,4.81Zm-4.88,81.58,6,10.79-6.55,2.68-3.39-10.48Z"/><ellipse class="cls-5" cx="536.17" cy="347.68" rx="4.95" ry="3.34" transform="translate(-32.94 57.03) rotate(-5.91)"/></g><path class="cls-5" d="M453.88,321.58a3,3,0,0,0-6,.53,3.41,3.41,0,0,0,.05.55,10.43,10.43,0,0,0,10.5,8.48,3.08,3.08,0,0,0,3-3.05,3,3,0,0,0-3.05-2.95A4.38,4.38,0,0,1,453.88,321.58Z"/><path class="cls-5" d="M541,324.72c-.48-1.79-3-2.85-5.74-2.37s-4.46,2.32-4,4.11,3.05,2.85,5.74,2.37S541.51,326.52,541,324.72Z"/><path class="cls-5" d="M516.44,329.67a3,3,0,0,0-2.71,3c0,.1,0,.2,0,.3l1.07,10.81L531.77,340a3,3,0,0,0-1.31-5.86l-10.34,2.3-.4-4.07A3,3,0,0,0,516.44,329.67Z"/><path class="cls-5" d="M505.37,327.38a3,3,0,0,0-4.11,1.06,17.5,17.5,0,0,0,6.21,23.94,3,3,0,0,0,3-5.17,11.48,11.48,0,0,1-4.08-15.72A3,3,0,0,0,505.37,327.38Z"/><path class="cls-5" d="M431.28,408.36a13.49,13.49,0,0,0,6-15.72l-2.2-6.81,7.64-3.12,2.7,4.84,51.8-21.49a32.74,32.74,0,0,0,2.88,3c6,5.43,16.67,11.31,34,8.43,5.38-1,10.18-1.63,14.44,1,7.26,4.54,12.58,2.53,15.14-.87,4.71-6.26.62-13.46-3.54-17.15l23.71-1.67c4.51-.32,8.4-2,10.67-4.63a9.95,9.95,0,0,0,.55-12.18l1.56-.11c4.44-.32,8.46-2.12,10.77-4.83a9.38,9.38,0,0,0,2.23-7.07c-.51-5.49-6-9.19-11.6-9.91a9.47,9.47,0,0,0,1-5.37c-.68-7.2-7.84-10.48-14.55-10l-11.43.81a7.78,7.78,0,0,0,.62-3.94c-.67-6-6.23-9.43-14.16-8.87l-34.25,2.42h0l-.68.05a1.38,1.38,0,0,0-.2,0c-16.7,1.4-26.15,8.49-31.32,14.83-4.46.64-22.9,1.84-33.34-19.52l-1.3-2.77-1.85-4.14h0L447,262.1,410.31,272l.65,2.81a14.45,14.45,0,0,0,15.3,11.2l6.36-.51,1.54,9-4.06,1.65,0,2.05c.52,33.34,20,40.86,20.86,41.16a3,3,0,0,0,2.09-5.63c-.66-.25-15.75-6.35-16.89-33.58l2-.8,16.07-6.5.13.28c9.7,19.86,25.85,23,34.71,23.11a22.72,22.72,0,0,0-1.77,4.39,2.81,2.81,0,0,0-.07.65,3,3,0,0,0,5.93.64c0-.19,5.35-18.86,32.57-20.78L560,298.72c.75-.05,7.33-.41,7.77,3.54a1.82,1.82,0,0,1-.5,1.51c-1.15,1.39-3.85,2.45-6.72,2.66l-3.6.25h0l-17.11,1.21a3,3,0,1,0,.42,6L561,312.41h0l24-1.69c3.08-.22,7.79.82,8.15,4.59a3.42,3.42,0,0,1-.81,2.66c-1.24,1.46-3.79,2.49-6.64,2.69h0L553.21,323a3,3,0,0,0-2.79,3,1.48,1.48,0,0,0,0,.21,3,3,0,0,0,3.2,2.78L595.52,326c3.81-.27,7.92,2,8.15,4.58a3.34,3.34,0,0,1-.83,2.64c-1.24,1.46-3.83,2.53-6.61,2.72l-41.9,3a3,3,0,1,0,.43,6l27.87-2h.12c3-.21,7.87.83,8.14,4.52a3.65,3.65,0,0,1-.88,2.85c-1.22,1.41-3.67,2.37-6.56,2.58l-50.3,3.55a2.7,2.7,0,0,0-.28,0l-.25,0-.31.11-.23.09a1.56,1.56,0,0,0-.28.16l-.2.12-.24.21-.18.16-.2.25c0,.06-.1.12-.14.19a1.59,1.59,0,0,0-.15.29,2,2,0,0,0-.11.2c0,.12-.07.24-.11.37s0,.12-.05.18a2.72,2.72,0,0,0-.06.58h0a.49.49,0,0,0,0,.12v.09a2.38,2.38,0,0,0,0,.26,1.57,1.57,0,0,0,.05.3c0,.09.06.18.09.27s.07.19.11.28l.15.24c0,.08.1.17.16.25a1.81,1.81,0,0,0,.18.21,2.08,2.08,0,0,0,.21.21,1.63,1.63,0,0,0,.22.17l.24.17.26.13c.09,0,.17.09.26.12l.3.08.27.06a1.83,1.83,0,0,0,.33,0l.24,0c1.37-.06,4.41-.29,6.63-.46l2-.15c5.92-.42,10.59.52,13.49,2.72,1.41,1.07,6.11,5.83,3.31,9.54-1.24,1.65-3.92,1.42-7.16-.61-6.59-4.12-13.9-2.74-18.67-1.84-14.91,2.47-24-2.42-28.93-7-6.27-5.74-8.69-13.33-8.34-18.32A3,3,0,0,0,493,343.1a3,3,0,0,0-3.22,2.77q-.06.75-.06,1.53A28,28,0,0,0,493.68,361l-32.56,13.5c-1.28-.58-4.37-2.55-5.54-8.32a3,3,0,0,0-5.94.59,3,3,0,0,0,.06.59,18.43,18.43,0,0,0,5,9.81L448,380l-9.48-17,39.61-30.22a3,3,0,1,0-3.64-4.77l-43.74,33.37h0l-2.93,2.23h0L410.28,377l18.35,32.91Zm7.34-123.3,11.66-.92,1.45,3.25-11.88,4.81Zm-4.88,81.58,6,10.79-6.55,2.68-3.39-10.48Z"/><ellipse class="cls-5" cx="536.17" cy="347.68" rx="4.95" ry="3.34" transform="translate(-32.94 57.03) rotate(-5.91)"/><g class="cls-7"><path class="cls-4" d="M453.88,321.58a3,3,0,0,0-6,.53,3.41,3.41,0,0,0,.05.55,10.43,10.43,0,0,0,10.5,8.48,3.08,3.08,0,0,0,3-3.05,3,3,0,0,0-3.05-2.95A4.38,4.38,0,0,1,453.88,321.58Z"/><path class="cls-4" d="M541,324.72c-.48-1.79-3-2.85-5.74-2.37s-4.46,2.32-4,4.11,3.05,2.85,5.74,2.37S541.51,326.52,541,324.72Z"/><path class="cls-4" d="M516.44,329.67a3,3,0,0,0-2.71,3c0,.1,0,.2,0,.3l1.07,10.81L531.77,340a3,3,0,0,0-1.31-5.86l-10.34,2.3-.4-4.07A3,3,0,0,0,516.44,329.67Z"/><path class="cls-4" d="M505.37,327.38a3,3,0,0,0-4.11,1.06,17.5,17.5,0,0,0,6.21,23.94,3,3,0,0,0,3-5.17,11.48,11.48,0,0,1-4.08-15.72A3,3,0,0,0,505.37,327.38Z"/><path class="cls-4" d="M431.28,408.36a13.49,13.49,0,0,0,6-15.72l-2.2-6.81,7.64-3.12,2.7,4.84,51.8-21.49a32.74,32.74,0,0,0,2.88,3c6,5.43,16.67,11.31,34,8.43,5.38-1,10.18-1.63,14.44,1,7.26,4.54,12.58,2.53,15.14-.87,4.71-6.26.62-13.46-3.54-17.15l23.71-1.67c4.51-.32,8.4-2,10.67-4.63a9.95,9.95,0,0,0,.55-12.18l1.56-.11c4.44-.32,8.46-2.12,10.77-4.83a9.38,9.38,0,0,0,2.23-7.07c-.51-5.49-6-9.19-11.6-9.91a9.47,9.47,0,0,0,1-5.37c-.68-7.2-7.84-10.48-14.55-10l-11.43.81a7.78,7.78,0,0,0,.62-3.94c-.67-6-6.23-9.43-14.16-8.87l-34.25,2.42h0l-.68.05a1.38,1.38,0,0,0-.2,0c-16.7,1.4-26.15,8.49-31.32,14.83-4.46.64-22.9,1.84-33.34-19.52l-1.3-2.77-1.85-4.14h0L447,262.1,410.31,272l.65,2.81a14.45,14.45,0,0,0,15.3,11.2l6.36-.51,1.54,9-4.06,1.65,0,2.05c.52,33.34,20,40.86,20.86,41.16a3,3,0,0,0,2.09-5.63c-.66-.25-15.75-6.35-16.89-33.58l2-.8,16.07-6.5.13.28c9.7,19.86,25.85,23,34.71,23.11a22.72,22.72,0,0,0-1.77,4.39,2.81,2.81,0,0,0-.07.65,3,3,0,0,0,5.93.64c0-.19,5.35-18.86,32.57-20.78L560,298.72c.75-.05,7.33-.41,7.77,3.54a1.82,1.82,0,0,1-.5,1.51c-1.15,1.39-3.85,2.45-6.72,2.66l-3.6.25h0l-17.11,1.21a3,3,0,1,0,.42,6L561,312.41h0l24-1.69c3.08-.22,7.79.82,8.15,4.59a3.42,3.42,0,0,1-.81,2.66c-1.24,1.46-3.79,2.49-6.64,2.69h0L553.21,323a3,3,0,0,0-2.79,3,1.48,1.48,0,0,0,0,.21,3,3,0,0,0,3.2,2.78L595.52,326c3.81-.27,7.92,2,8.15,4.58a3.34,3.34,0,0,1-.83,2.64c-1.24,1.46-3.83,2.53-6.61,2.72l-41.9,3a3,3,0,1,0,.43,6l27.87-2h.12c3-.21,7.87.83,8.14,4.52a3.65,3.65,0,0,1-.88,2.85c-1.22,1.41-3.67,2.37-6.56,2.58l-50.3,3.55a2.7,2.7,0,0,0-.28,0l-.25,0-.31.11-.23.09a1.56,1.56,0,0,0-.28.16l-.2.12-.24.21-.18.16-.2.25c0,.06-.1.12-.14.19a1.59,1.59,0,0,0-.15.29,2,2,0,0,0-.11.2c0,.12-.07.24-.11.37s0,.12-.05.18a2.72,2.72,0,0,0-.06.58h0a.49.49,0,0,0,0,.12v.09a2.38,2.38,0,0,0,0,.26,1.57,1.57,0,0,0,.05.3c0,.09.06.18.09.27s.07.19.11.28l.15.24c0,.08.1.17.16.25a1.81,1.81,0,0,0,.18.21,2.08,2.08,0,0,0,.21.21,1.63,1.63,0,0,0,.22.17l.24.17.26.13c.09,0,.17.09.26.12l.3.08.27.06a1.83,1.83,0,0,0,.33,0l.24,0c1.37-.06,4.41-.29,6.63-.46l2-.15c5.92-.42,10.59.52,13.49,2.72,1.41,1.07,6.11,5.83,3.31,9.54-1.24,1.65-3.92,1.42-7.16-.61-6.59-4.12-13.9-2.74-18.67-1.84-14.91,2.47-24-2.42-28.93-7-6.27-5.74-8.69-13.33-8.34-18.32A3,3,0,0,0,493,343.1a3,3,0,0,0-3.22,2.77q-.06.75-.06,1.53A28,28,0,0,0,493.68,361l-32.56,13.5c-1.28-.58-4.37-2.55-5.54-8.32a3,3,0,0,0-5.94.59,3,3,0,0,0,.06.59,18.43,18.43,0,0,0,5,9.81L448,380l-9.48-17,39.61-30.22a3,3,0,1,0-3.64-4.77l-43.74,33.37h0l-2.93,2.23h0L410.28,377l18.35,32.91Zm7.34-123.3,11.66-.92,1.45,3.25-11.88,4.81Zm-4.88,81.58,6,10.79-6.55,2.68-3.39-10.48Z"/><ellipse class="cls-4" cx="536.17" cy="347.68" rx="4.95" ry="3.34" transform="translate(-32.94 57.03) rotate(-5.91)"/></g><path class="cls-5" d="M218.5,350.42a3,3,0,0,0,5.95-.53,2.56,2.56,0,0,0,0-.55,10.43,10.43,0,0,0-10.5-8.48,3.07,3.07,0,0,0-3,3.05,3,3,0,0,0,3.05,2.95A4.38,4.38,0,0,1,218.5,350.42Z"/><path class="cls-5" d="M131.35,347.28c.48,1.79,3.05,2.85,5.73,2.37s4.47-2.32,4-4.11-3-2.85-5.74-2.37S130.86,345.48,131.35,347.28Z"/><path class="cls-5" d="M155.94,342.33a3,3,0,0,0,2.7-3c0-.1,0-.2,0-.3l-1.07-10.81L140.61,332a3,3,0,1,0,1.3,5.86l10.35-2.3.4,4.07A3,3,0,0,0,155.94,342.33Z"/><path class="cls-5" d="M167,344.62a3,3,0,0,0,4.1-1.06,17.48,17.48,0,0,0-6.2-23.94,3,3,0,1,0-3,5.17,11.46,11.46,0,0,1,4.07,15.72A3,3,0,0,0,167,344.62Z"/><path class="cls-5" d="M241.1,263.64a13.51,13.51,0,0,0-6,15.72l2.21,6.81-7.64,3.12-2.7-4.84-51.8,21.49a32.85,32.85,0,0,0-2.89-3c-5.94-5.43-16.66-11.31-34-8.43-5.38,1-10.19,1.63-14.44-1-7.26-4.54-12.58-2.53-15.14.87-4.71,6.26-.62,13.46,3.54,17.15l-23.71,1.67c-4.51.32-8.4,2-10.68,4.63A9.67,9.67,0,0,0,75.5,325a9.49,9.49,0,0,0,1.79,5l-1.56.11c-4.44.32-8.47,2.12-10.77,4.83A9.38,9.38,0,0,0,62.73,342c.5,5.49,6,9.19,11.59,9.91a9.38,9.38,0,0,0-1,5.37c.68,7.2,7.83,10.48,14.54,10l11.44-.81a7.57,7.57,0,0,0-.62,3.94c.67,6,6.22,9.43,14.16,8.87l34.25-2.42h0l.68-.05a1.38,1.38,0,0,0,.2,0c16.7-1.4,26.14-8.49,31.32-14.83,4.45-.64,22.9-1.84,33.34,19.52l1.3,2.77,1.85,4.14h0l9.64,21.53L262.07,400l-.65-2.81a14.46,14.46,0,0,0-15.3-11.2l-6.36.51-1.54-9,4.06-1.65,0-2.05c-.53-33.34-20-40.86-20.87-41.16a3,3,0,0,0-2.08,5.63c.66.25,15.74,6.35,16.89,33.58l-2,.8-16.07,6.5-.13-.28c-9.7-19.86-25.85-23-34.71-23.11a24.44,24.44,0,0,0,1.77-4.39,2.81,2.81,0,0,0,.07-.65,3,3,0,0,0-5.93-.64c0,.19-5.35,18.86-32.57,20.78l-34.25,2.42c-.75.05-7.34.41-7.78-3.54a1.87,1.87,0,0,1,.51-1.51c1.15-1.39,3.85-2.45,6.71-2.66l3.61-.25h0l17.12-1.21a3,3,0,1,0-.43-6l-20.71,1.46h0l-24,1.69c-3.08.22-7.79-.82-8.15-4.59a3.39,3.39,0,0,1,.81-2.66c1.24-1.46,3.78-2.49,6.64-2.69h.05L119.17,349a3,3,0,0,0,2.79-3c0-.07,0-.14,0-.21a3,3,0,0,0-3.21-2.78L76.85,346c-3.8.27-7.91-2-8.15-4.58a3.34,3.34,0,0,1,.83-2.63c1.24-1.47,3.84-2.54,6.62-2.73l41.89-3a3,3,0,1,0-.42-6l-27.87,2h-.12c-3,.21-7.88-.83-8.14-4.52a3.62,3.62,0,0,1,.88-2.85c1.22-1.41,3.67-2.37,6.56-2.58l50.29-3.55a2.89,2.89,0,0,0,.29,0l.25,0,.31-.11a2,2,0,0,0,.22-.09,1.56,1.56,0,0,0,.28-.16l.21-.12.24-.21c.06-.06.12-.1.17-.16a2.19,2.19,0,0,0,.2-.25l.15-.19a2.64,2.64,0,0,0,.15-.29.93.93,0,0,0,.1-.2,2.26,2.26,0,0,0,.11-.37l.06-.18a3.55,3.55,0,0,0,0-.57h0v-.21a2.38,2.38,0,0,0,0-.26,1.57,1.57,0,0,0-.05-.3c0-.09-.06-.18-.1-.27a1.62,1.62,0,0,0-.11-.28c0-.08-.09-.16-.14-.24s-.1-.17-.16-.25l-.19-.21a2,2,0,0,0-.2-.21,1.24,1.24,0,0,0-.23-.17l-.23-.17-.27-.13a1.92,1.92,0,0,0-.25-.12l-.31-.08a2.44,2.44,0,0,0-.26-.06,1.83,1.83,0,0,0-.33,0,1.93,1.93,0,0,0-.24,0c-1.37.05-4.41.28-6.63.45l-2,.15c-5.93.42-10.59-.52-13.49-2.72-1.41-1.07-6.11-5.83-3.32-9.54,1.25-1.65,3.92-1.42,7.17.61,6.58,4.12,13.89,2.74,18.67,1.84,14.91-2.47,24,2.42,28.93,7,6.27,5.74,8.69,13.33,8.33,18.32a3,3,0,0,0,2.77,3.22,3,3,0,0,0,3.22-2.77c0-.5.05-1,.05-1.53A28,28,0,0,0,178.69,311l32.56-13.5c1.28.58,4.38,2.55,5.54,8.32a3,3,0,0,0,5.94-.59,4,4,0,0,0,0-.59,18.5,18.5,0,0,0-5-9.81l6.63-2.76,9.49,17-39.61,30.22a3,3,0,1,0,3.63,4.77l43.75-33.37h0l2.93-2.23h0L262.1,295,243.74,262.1Zm-7.35,123.3-11.65.92-1.46-3.25,11.89-4.81Zm4.89-81.58-6-10.79,6.54-2.68,3.4,10.48Z"/><ellipse class="cls-5" cx="136.21" cy="324.32" rx="4.95" ry="3.34" transform="translate(-32.66 15.74) rotate(-5.91)"/><g class="cls-8"><path class="cls-4" d="M218.5,350.42a3,3,0,0,0,5.95-.53,2.56,2.56,0,0,0,0-.55,10.43,10.43,0,0,0-10.5-8.48,3.07,3.07,0,0,0-3,3.05,3,3,0,0,0,3.05,2.95A4.38,4.38,0,0,1,218.5,350.42Z"/><path class="cls-4" d="M131.35,347.28c.48,1.79,3.05,2.85,5.73,2.37s4.47-2.32,4-4.11-3-2.85-5.74-2.37S130.86,345.48,131.35,347.28Z"/><path class="cls-4" d="M155.94,342.33a3,3,0,0,0,2.7-3c0-.1,0-.2,0-.3l-1.07-10.81L140.61,332a3,3,0,1,0,1.3,5.86l10.35-2.3.4,4.07A3,3,0,0,0,155.94,342.33Z"/><path class="cls-4" d="M167,344.62a3,3,0,0,0,4.1-1.06,17.48,17.48,0,0,0-6.2-23.94,3,3,0,1,0-3,5.17,11.46,11.46,0,0,1,4.07,15.72A3,3,0,0,0,167,344.62Z"/><path class="cls-4" d="M241.1,263.64a13.51,13.51,0,0,0-6,15.72l2.21,6.81-7.64,3.12-2.7-4.84-51.8,21.49a32.85,32.85,0,0,0-2.89-3c-5.94-5.43-16.66-11.31-34-8.43-5.38,1-10.19,1.63-14.44-1-7.26-4.54-12.58-2.53-15.14.87-4.71,6.26-.62,13.46,3.54,17.15l-23.71,1.67c-4.51.32-8.4,2-10.68,4.63A9.67,9.67,0,0,0,75.5,325a9.49,9.49,0,0,0,1.79,5l-1.56.11c-4.44.32-8.47,2.12-10.77,4.83A9.38,9.38,0,0,0,62.73,342c.5,5.49,6,9.19,11.59,9.91a9.38,9.38,0,0,0-1,5.37c.68,7.2,7.83,10.48,14.54,10l11.44-.81a7.57,7.57,0,0,0-.62,3.94c.67,6,6.22,9.43,14.16,8.87l34.25-2.42h0l.68-.05a1.38,1.38,0,0,0,.2,0c16.7-1.4,26.14-8.49,31.32-14.83,4.45-.64,22.9-1.84,33.34,19.52l1.3,2.77,1.85,4.14h0l9.64,21.53L262.07,400l-.65-2.81a14.46,14.46,0,0,0-15.3-11.2l-6.36.51-1.54-9,4.06-1.65,0-2.05c-.53-33.34-20-40.86-20.87-41.16a3,3,0,0,0-2.08,5.63c.66.25,15.74,6.35,16.89,33.58l-2,.8-16.07,6.5-.13-.28c-9.7-19.86-25.85-23-34.71-23.11a24.44,24.44,0,0,0,1.77-4.39,2.81,2.81,0,0,0,.07-.65,3,3,0,0,0-5.93-.64c0,.19-5.35,18.86-32.57,20.78l-34.25,2.42c-.75.05-7.34.41-7.78-3.54a1.87,1.87,0,0,1,.51-1.51c1.15-1.39,3.85-2.45,6.71-2.66l3.61-.25h0l17.12-1.21a3,3,0,1,0-.43-6l-20.71,1.46h0l-24,1.69c-3.08.22-7.79-.82-8.15-4.59a3.39,3.39,0,0,1,.81-2.66c1.24-1.46,3.78-2.49,6.64-2.69h.05L119.17,349a3,3,0,0,0,2.79-3c0-.07,0-.14,0-.21a3,3,0,0,0-3.21-2.78L76.85,346c-3.8.27-7.91-2-8.15-4.58a3.34,3.34,0,0,1,.83-2.63c1.24-1.47,3.84-2.54,6.62-2.73l41.89-3a3,3,0,1,0-.42-6l-27.87,2h-.12c-3,.21-7.88-.83-8.14-4.52a3.62,3.62,0,0,1,.88-2.85c1.22-1.41,3.67-2.37,6.56-2.58l50.29-3.55a2.89,2.89,0,0,0,.29,0l.25,0,.31-.11a2,2,0,0,0,.22-.09,1.56,1.56,0,0,0,.28-.16l.21-.12.24-.21c.06-.06.12-.1.17-.16a2.19,2.19,0,0,0,.2-.25l.15-.19a2.64,2.64,0,0,0,.15-.29.93.93,0,0,0,.1-.2,2.26,2.26,0,0,0,.11-.37l.06-.18a3.55,3.55,0,0,0,0-.57h0v-.21a2.38,2.38,0,0,0,0-.26,1.57,1.57,0,0,0-.05-.3c0-.09-.06-.18-.1-.27a1.62,1.62,0,0,0-.11-.28c0-.08-.09-.16-.14-.24s-.1-.17-.16-.25l-.19-.21a2,2,0,0,0-.2-.21,1.24,1.24,0,0,0-.23-.17l-.23-.17-.27-.13a1.92,1.92,0,0,0-.25-.12l-.31-.08a2.44,2.44,0,0,0-.26-.06,1.83,1.83,0,0,0-.33,0,1.93,1.93,0,0,0-.24,0c-1.37.05-4.41.28-6.63.45l-2,.15c-5.93.42-10.59-.52-13.49-2.72-1.41-1.07-6.11-5.83-3.32-9.54,1.25-1.65,3.92-1.42,7.17.61,6.58,4.12,13.89,2.74,18.67,1.84,14.91-2.47,24,2.42,28.93,7,6.27,5.74,8.69,13.33,8.33,18.32a3,3,0,0,0,2.77,3.22,3,3,0,0,0,3.22-2.77c0-.5.05-1,.05-1.53A28,28,0,0,0,178.69,311l32.56-13.5c1.28.58,4.38,2.55,5.54,8.32a3,3,0,0,0,5.94-.59,4,4,0,0,0,0-.59,18.5,18.5,0,0,0-5-9.81l6.63-2.76,9.49,17-39.61,30.22a3,3,0,1,0,3.63,4.77l43.75-33.37h0l2.93-2.23h0L262.1,295,243.74,262.1Zm-7.35,123.3-11.65.92-1.46-3.25,11.89-4.81Zm4.89-81.58-6-10.79,6.54-2.68,3.4,10.48Z"/><ellipse class="cls-4" cx="136.21" cy="324.32" rx="4.95" ry="3.34" transform="translate(-32.66 15.74) rotate(-5.91)"/></g><path class="cls-5" d="M321.58,192.69a3,3,0,0,0,.53,5.95,2.56,2.56,0,0,0,.55,0,10.42,10.42,0,0,0,8.48-10.5,3.08,3.08,0,0,0-3.05-3,3,3,0,0,0-2.95,3.05A4.38,4.38,0,0,1,321.58,192.69Z"/><path class="cls-5" d="M324.72,105.54c-1.79.48-2.85,3-2.37,5.74s2.32,4.46,4.11,4,2.85-3.05,2.37-5.74S326.52,105.05,324.72,105.54Z"/><path class="cls-5" d="M329.67,130.13a3,3,0,0,0,3,2.71l.3,0,10.81-1.07-3.77-17a3,3,0,0,0-5.86,1.31l2.3,10.34-4.07.4A3,3,0,0,0,329.67,130.13Z"/><path class="cls-5" d="M327.38,141.2a3,3,0,0,0,1.06,4.11,17.5,17.5,0,0,0,23.94-6.21,3,3,0,0,0-5.17-3,11.48,11.48,0,0,1-15.72,4.08A3,3,0,0,0,327.38,141.2Z"/><path class="cls-5" d="M408.36,215.29a13.49,13.49,0,0,0-15.72-6l-6.81,2.2-3.12-7.64,4.84-2.7-21.49-51.8a34.13,34.13,0,0,0,3-2.88c5.43-5.95,11.31-16.67,8.43-34-1-5.38-1.63-10.18,1-14.44,4.54-7.26,2.53-12.58-.87-15.14-6.26-4.71-13.46-.62-17.15,3.54L358.84,62.7c-.32-4.51-2-8.4-4.63-10.67A9.95,9.95,0,0,0,342,51.48l-.11-1.56c-.32-4.44-2.12-8.46-4.83-10.77A9.38,9.38,0,0,0,330,36.92c-5.49.5-9.19,6-9.91,11.59a9.55,9.55,0,0,0-5.37-1c-7.2.68-10.48,7.84-10,14.54l.81,11.44a7.67,7.67,0,0,0-3.94-.62c-6,.67-9.43,6.23-8.87,14.16l2.42,34.25h0l.05.68a1.38,1.38,0,0,0,0,.2c1.4,16.7,8.49,26.15,14.83,31.32.64,4.46,1.84,22.9-19.52,33.34l-2.77,1.3-4.14,1.85h0l-21.53,9.64L272,236.26l2.81-.65a14.45,14.45,0,0,0,11.2-15.3l-.51-6.36,9-1.54,1.65,4.06,2.05,0c33.34-.52,40.86-20,41.16-20.86a3,3,0,0,0-5.63-2.09c-.25.66-6.35,15.75-33.58,16.89l-.8-2-6.5-16.07.28-.13c19.86-9.7,23-25.85,23.11-34.71a23.55,23.55,0,0,0,4.39,1.77,2.81,2.81,0,0,0,.65.07,3,3,0,0,0,.64-5.93c-.19,0-18.86-5.35-20.78-32.57l-2.42-34.25c-.05-.75-.41-7.33,3.54-7.78a1.87,1.87,0,0,1,1.51.51c1.39,1.15,2.45,3.85,2.66,6.72l.25,3.6h0l1.21,17.11a3,3,0,0,0,6-.42l-1.46-20.72h0l-1.69-24c-.22-3.08.82-7.79,4.59-8.15a3.39,3.39,0,0,1,2.66.81c1.46,1.24,2.49,3.78,2.69,6.64,0,0,0,0,0,.05L323,93.36a3,3,0,0,0,3,2.79h.21a3,3,0,0,0,2.78-3.2L326,51c-.27-3.8,2-7.91,4.58-8.15a3.42,3.42,0,0,1,2.64.83c1.46,1.25,2.53,3.84,2.72,6.62l3,41.89a3,3,0,1,0,6-.42l-2-27.87v-.12c-.21-3,.83-7.87,4.52-8.14a3.65,3.65,0,0,1,2.85.88c1.41,1.22,2.37,3.67,2.58,6.56l3.55,50.3c0,.09,0,.18,0,.28s0,.17,0,.25a2.83,2.83,0,0,0,.11.31c0,.07,0,.15.09.23a2.79,2.79,0,0,0,.16.28l.12.2c.07.09.14.16.21.24l.16.18.25.2c.06,0,.12.1.19.14a2.64,2.64,0,0,0,.29.15l.2.11.37.11.18.05a2.69,2.69,0,0,0,.57.06h.22l.26,0a1.57,1.57,0,0,0,.3-.05,1.48,1.48,0,0,0,.27-.1l.28-.1.24-.15.25-.16.21-.18a2.08,2.08,0,0,0,.21-.21,1.63,1.63,0,0,0,.17-.22l.17-.24c0-.08.09-.18.13-.26s.09-.17.12-.26,0-.2.08-.3a2.61,2.61,0,0,0,.06-.27,1.83,1.83,0,0,0,0-.33,1.93,1.93,0,0,0,0-.24c-.05-1.37-.28-4.41-.45-6.63l-.15-2c-.42-5.92.52-10.59,2.72-13.49,1.07-1.41,5.83-6.11,9.54-3.31,1.65,1.24,1.42,3.92-.61,7.16-4.12,6.59-2.74,13.89-1.84,18.67,2.47,14.91-2.42,24-7,28.93-5.74,6.27-13.33,8.69-18.32,8.34a3,3,0,0,0-3.22,2.76,3,3,0,0,0,2.77,3.22q.75.06,1.53.06A28,28,0,0,0,361,152.89l13.5,32.56c-.58,1.28-2.55,4.37-8.32,5.53a3,3,0,1,0,1.18,5.89,18.43,18.43,0,0,0,9.81-5l2.76,6.64L363,208,332.74,168.4A3,3,0,1,0,328,172l33.37,43.74h0l2.23,2.93h0L377,236.29l32.91-18.36ZM285.06,208l-.92-11.66,3.25-1.46,4.81,11.89Zm81.58,4.88,10.79-6,2.68,6.55-10.48,3.39Z"/><ellipse class="cls-5" cx="347.68" cy="110.4" rx="3.34" ry="4.95" transform="translate(-9.52 36.37) rotate(-5.91)"/><g class="cls-9"><path class="cls-4" d="M321.58,192.69a3,3,0,0,0,.53,5.95,2.56,2.56,0,0,0,.55,0,10.42,10.42,0,0,0,8.48-10.5,3.08,3.08,0,0,0-3.05-3,3,3,0,0,0-2.95,3.05A4.38,4.38,0,0,1,321.58,192.69Z"/><path class="cls-4" d="M324.72,105.54c-1.79.48-2.85,3-2.37,5.74s2.32,4.46,4.11,4,2.85-3.05,2.37-5.74S326.52,105.05,324.72,105.54Z"/><path class="cls-4" d="M329.67,130.13a3,3,0,0,0,3,2.71l.3,0,10.81-1.07-3.77-17a3,3,0,0,0-5.86,1.31l2.3,10.34-4.07.4A3,3,0,0,0,329.67,130.13Z"/><path class="cls-4" d="M327.38,141.2a3,3,0,0,0,1.06,4.11,17.5,17.5,0,0,0,23.94-6.21,3,3,0,0,0-5.17-3,11.48,11.48,0,0,1-15.72,4.08A3,3,0,0,0,327.38,141.2Z"/><path class="cls-4" d="M408.36,215.29a13.49,13.49,0,0,0-15.72-6l-6.81,2.2-3.12-7.64,4.84-2.7-21.49-51.8a34.13,34.13,0,0,0,3-2.88c5.43-5.95,11.31-16.67,8.43-34-1-5.38-1.63-10.18,1-14.44,4.54-7.26,2.53-12.58-.87-15.14-6.26-4.71-13.46-.62-17.15,3.54L358.84,62.7c-.32-4.51-2-8.4-4.63-10.67A9.95,9.95,0,0,0,342,51.48l-.11-1.56c-.32-4.44-2.12-8.46-4.83-10.77A9.38,9.38,0,0,0,330,36.92c-5.49.5-9.19,6-9.91,11.59a9.55,9.55,0,0,0-5.37-1c-7.2.68-10.48,7.84-10,14.54l.81,11.44a7.67,7.67,0,0,0-3.94-.62c-6,.67-9.43,6.23-8.87,14.16l2.42,34.25h0l.05.68a1.38,1.38,0,0,0,0,.2c1.4,16.7,8.49,26.15,14.83,31.32.64,4.46,1.84,22.9-19.52,33.34l-2.77,1.3-4.14,1.85h0l-21.53,9.64L272,236.26l2.81-.65a14.45,14.45,0,0,0,11.2-15.3l-.51-6.36,9-1.54,1.65,4.06,2.05,0c33.34-.52,40.86-20,41.16-20.86a3,3,0,0,0-5.63-2.09c-.25.66-6.35,15.75-33.58,16.89l-.8-2-6.5-16.07.28-.13c19.86-9.7,23-25.85,23.11-34.71a23.55,23.55,0,0,0,4.39,1.77,2.81,2.81,0,0,0,.65.07,3,3,0,0,0,.64-5.93c-.19,0-18.86-5.35-20.78-32.57l-2.42-34.25c-.05-.75-.41-7.33,3.54-7.78a1.87,1.87,0,0,1,1.51.51c1.39,1.15,2.45,3.85,2.66,6.72l.25,3.6h0l1.21,17.11a3,3,0,0,0,6-.42l-1.46-20.72h0l-1.69-24c-.22-3.08.82-7.79,4.59-8.15a3.39,3.39,0,0,1,2.66.81c1.46,1.24,2.49,3.78,2.69,6.64,0,0,0,0,0,.05L323,93.36a3,3,0,0,0,3,2.79h.21a3,3,0,0,0,2.78-3.2L326,51c-.27-3.8,2-7.91,4.58-8.15a3.42,3.42,0,0,1,2.64.83c1.46,1.25,2.53,3.84,2.72,6.62l3,41.89a3,3,0,1,0,6-.42l-2-27.87v-.12c-.21-3,.83-7.87,4.52-8.14a3.65,3.65,0,0,1,2.85.88c1.41,1.22,2.37,3.67,2.58,6.56l3.55,50.3c0,.09,0,.18,0,.28s0,.17,0,.25a2.83,2.83,0,0,0,.11.31c0,.07,0,.15.09.23a2.79,2.79,0,0,0,.16.28l.12.2c.07.09.14.16.21.24l.16.18.25.2c.06,0,.12.1.19.14a2.64,2.64,0,0,0,.29.15l.2.11.37.11.18.05a2.69,2.69,0,0,0,.57.06h.22l.26,0a1.57,1.57,0,0,0,.3-.05,1.48,1.48,0,0,0,.27-.1l.28-.1.24-.15.25-.16.21-.18a2.08,2.08,0,0,0,.21-.21,1.63,1.63,0,0,0,.17-.22l.17-.24c0-.08.09-.18.13-.26s.09-.17.12-.26,0-.2.08-.3a2.61,2.61,0,0,0,.06-.27,1.83,1.83,0,0,0,0-.33,1.93,1.93,0,0,0,0-.24c-.05-1.37-.28-4.41-.45-6.63l-.15-2c-.42-5.92.52-10.59,2.72-13.49,1.07-1.41,5.83-6.11,9.54-3.31,1.65,1.24,1.42,3.92-.61,7.16-4.12,6.59-2.74,13.89-1.84,18.67,2.47,14.91-2.42,24-7,28.93-5.74,6.27-13.33,8.69-18.32,8.34a3,3,0,0,0-3.22,2.76,3,3,0,0,0,2.77,3.22q.75.06,1.53.06A28,28,0,0,0,361,152.89l13.5,32.56c-.58,1.28-2.55,4.37-8.32,5.53a3,3,0,1,0,1.18,5.89,18.43,18.43,0,0,0,9.81-5l2.76,6.64L363,208,332.74,168.4A3,3,0,1,0,328,172l33.37,43.74h0l2.23,2.93h0L377,236.29l32.91-18.36ZM285.06,208l-.92-11.66,3.25-1.46,4.81,11.89Zm81.58,4.88,10.79-6,2.68,6.55-10.48,3.39Z"/><ellipse class="cls-4" cx="347.68" cy="110.4" rx="3.34" ry="4.95" transform="translate(-9.52 36.37) rotate(-5.91)"/></g><path class="cls-5" d="M350.42,479.31a3,3,0,0,0-.53-5.95,2.56,2.56,0,0,0-.55.05,10.42,10.42,0,0,0-8.48,10.5,3.08,3.08,0,0,0,3.05,2.95,3,3,0,0,0,2.95-3.05A4.38,4.38,0,0,1,350.42,479.31Z"/><path class="cls-5" d="M347.28,566.46c1.79-.48,2.85-3.05,2.37-5.74s-2.32-4.46-4.11-4-2.85,3-2.37,5.74S345.48,567,347.28,566.46Z"/><path class="cls-5" d="M342.33,541.87a3,3,0,0,0-3-2.71l-.3,0-10.81,1.07,3.77,17a3,3,0,0,0,5.86-1.31l-2.3-10.34,4.07-.4A3,3,0,0,0,342.33,541.87Z"/><path class="cls-5" d="M344.62,530.8a3,3,0,0,0-1.06-4.11,17.5,17.5,0,0,0-23.94,6.21,3,3,0,0,0,5.17,3,11.48,11.48,0,0,1,15.72-4.08A3,3,0,0,0,344.62,530.8Z"/><path class="cls-5" d="M263.64,456.71a13.49,13.49,0,0,0,15.72,6l6.81-2.2,3.12,7.64-4.84,2.7,21.49,51.8a34.13,34.13,0,0,0-3,2.88c-5.43,6-11.31,16.67-8.43,34,1,5.38,1.63,10.18-1,14.44-4.54,7.26-2.53,12.58.87,15.14,6.26,4.71,13.46.62,17.15-3.54l1.67,23.71c.32,4.51,2,8.4,4.63,10.67a9.95,9.95,0,0,0,12.18.55l.11,1.56c.32,4.44,2.12,8.46,4.83,10.77a9.38,9.38,0,0,0,7.07,2.23c5.49-.5,9.19-6,9.91-11.59a9.55,9.55,0,0,0,5.37,1c7.2-.68,10.48-7.84,10-14.54l-.81-11.44a7.67,7.67,0,0,0,3.94.62c6-.67,9.43-6.23,8.87-14.16l-2.42-34.25h0l-.05-.68a1.38,1.38,0,0,0,0-.2c-1.4-16.7-8.49-26.15-14.83-31.32-.64-4.46-1.84-22.9,19.52-33.34l2.77-1.3,4.14-1.85h0l21.53-9.64L400,435.74l-2.81.65a14.45,14.45,0,0,0-11.2,15.3l.51,6.36-9,1.54-1.65-4.06-2.05,0c-33.34.52-40.86,20-41.16,20.86a3,3,0,0,0,5.63,2.09c.25-.66,6.35-15.75,33.58-16.89l.8,2,6.5,16.07-.28.13c-19.86,9.7-23,25.85-23.11,34.71a23.55,23.55,0,0,0-4.39-1.77,2.81,2.81,0,0,0-.65-.07,3,3,0,0,0-.64,5.93c.19,0,18.86,5.35,20.78,32.57l2.42,34.25c.05.75.41,7.33-3.54,7.78a1.87,1.87,0,0,1-1.51-.51c-1.39-1.15-2.45-3.85-2.66-6.72l-.25-3.6h0l-1.21-17.11a3,3,0,1,0-6,.42l1.46,20.72h0l1.69,24c.22,3.08-.82,7.79-4.59,8.15a3.39,3.39,0,0,1-2.66-.81c-1.46-1.24-2.49-3.78-2.69-6.64,0,0,0,0,0-.05L349,578.64a3,3,0,0,0-3-2.79h-.21a3,3,0,0,0-2.78,3.2L346,621c.27,3.8-2,7.91-4.58,8.15a3.38,3.38,0,0,1-2.63-.83c-1.47-1.25-2.54-3.84-2.73-6.62l-3-41.89a3,3,0,1,0-6,.42l2,27.87v.12c.21,3-.83,7.87-4.52,8.14a3.65,3.65,0,0,1-2.85-.88c-1.41-1.22-2.37-3.67-2.58-6.56l-3.55-50.3c0-.09,0-.18,0-.28s0-.17,0-.25a2.83,2.83,0,0,0-.11-.31c0-.07,0-.15-.09-.23a2.79,2.79,0,0,0-.16-.28L315,557l-.21-.24-.16-.18-.25-.2c-.06,0-.12-.1-.19-.14a2.64,2.64,0,0,0-.29-.15l-.2-.11-.37-.11-.18,0a2.69,2.69,0,0,0-.57-.06h-.22l-.26.05a1.57,1.57,0,0,0-.3,0,1.48,1.48,0,0,0-.27.1l-.28.1-.24.15-.25.16-.21.18a2.08,2.08,0,0,0-.21.21,1.63,1.63,0,0,0-.17.22l-.17.24c0,.08-.09.18-.13.26s-.09.17-.12.26,0,.2-.08.3a2.61,2.61,0,0,0-.06.27,1.83,1.83,0,0,0,0,.33,1.93,1.93,0,0,0,0,.24c.05,1.37.28,4.41.45,6.63l.15,2c.42,5.92-.52,10.59-2.72,13.49-1.07,1.41-5.83,6.11-9.54,3.31-1.65-1.24-1.42-3.92.61-7.16,4.12-6.59,2.74-13.89,1.84-18.67-2.47-14.91,2.42-24,7-28.93,5.74-6.27,13.33-8.69,18.32-8.34a3,3,0,0,0,3.22-2.76,3,3,0,0,0-2.77-3.22q-.75-.06-1.53-.06A28,28,0,0,0,311,519.11l-13.5-32.56c.58-1.28,2.55-4.37,8.32-5.53a3,3,0,1,0-1.18-5.89,18.43,18.43,0,0,0-9.81,5L292,473.47,309,464l30.22,39.61A3,3,0,1,0,344,500l-33.37-43.74h0l-2.23-2.93h0L295,435.71,262.1,454.07Zm123.3,7.34.92,11.66-3.25,1.46-4.81-11.89Zm-81.58-4.88-10.79,6-2.68-6.55,10.48-3.39Z"/><ellipse class="cls-5" cx="324.32" cy="561.6" rx="3.34" ry="4.95" transform="translate(-56.08 36.36) rotate(-5.91)"/><g class="cls-10"><path class="cls-4" d="M350.42,479.31a3,3,0,0,0-.53-5.95,2.56,2.56,0,0,0-.55.05,10.42,10.42,0,0,0-8.48,10.5,3.08,3.08,0,0,0,3.05,2.95,3,3,0,0,0,2.95-3.05A4.38,4.38,0,0,1,350.42,479.31Z"/><path class="cls-4" d="M347.28,566.46c1.79-.48,2.85-3.05,2.37-5.74s-2.32-4.46-4.11-4-2.85,3-2.37,5.74S345.48,567,347.28,566.46Z"/><path class="cls-4" d="M342.33,541.87a3,3,0,0,0-3-2.71l-.3,0-10.81,1.07,3.77,17a3,3,0,0,0,5.86-1.31l-2.3-10.34,4.07-.4A3,3,0,0,0,342.33,541.87Z"/><path class="cls-4" d="M344.62,530.8a3,3,0,0,0-1.06-4.11,17.5,17.5,0,0,0-23.94,6.21,3,3,0,0,0,5.17,3,11.48,11.48,0,0,1,15.72-4.08A3,3,0,0,0,344.62,530.8Z"/><path class="cls-4" d="M263.64,456.71a13.49,13.49,0,0,0,15.72,6l6.81-2.2,3.12,7.64-4.84,2.7,21.49,51.8a34.13,34.13,0,0,0-3,2.88c-5.43,6-11.31,16.67-8.43,34,1,5.38,1.63,10.18-1,14.44-4.54,7.26-2.53,12.58.87,15.14,6.26,4.71,13.46.62,17.15-3.54l1.67,23.71c.32,4.51,2,8.4,4.63,10.67a9.95,9.95,0,0,0,12.18.55l.11,1.56c.32,4.44,2.12,8.46,4.83,10.77a9.38,9.38,0,0,0,7.07,2.23c5.49-.5,9.19-6,9.91-11.59a9.55,9.55,0,0,0,5.37,1c7.2-.68,10.48-7.84,10-14.54l-.81-11.44a7.67,7.67,0,0,0,3.94.62c6-.67,9.43-6.23,8.87-14.16l-2.42-34.25h0l-.05-.68a1.38,1.38,0,0,0,0-.2c-1.4-16.7-8.49-26.15-14.83-31.32-.64-4.46-1.84-22.9,19.52-33.34l2.77-1.3,4.14-1.85h0l21.53-9.64L400,435.74l-2.81.65a14.45,14.45,0,0,0-11.2,15.3l.51,6.36-9,1.54-1.65-4.06-2.05,0c-33.34.52-40.86,20-41.16,20.86a3,3,0,0,0,5.63,2.09c.25-.66,6.35-15.75,33.58-16.89l.8,2,6.5,16.07-.28.13c-19.86,9.7-23,25.85-23.11,34.71a23.55,23.55,0,0,0-4.39-1.77,2.81,2.81,0,0,0-.65-.07,3,3,0,0,0-.64,5.93c.19,0,18.86,5.35,20.78,32.57l2.42,34.25c.05.75.41,7.33-3.54,7.78a1.87,1.87,0,0,1-1.51-.51c-1.39-1.15-2.45-3.85-2.66-6.72l-.25-3.6h0l-1.21-17.11a3,3,0,1,0-6,.42l1.46,20.72h0l1.69,24c.22,3.08-.82,7.79-4.59,8.15a3.39,3.39,0,0,1-2.66-.81c-1.46-1.24-2.49-3.78-2.69-6.64,0,0,0,0,0-.05L349,578.64a3,3,0,0,0-3-2.79h-.21a3,3,0,0,0-2.78,3.2L346,621c.27,3.8-2,7.91-4.58,8.15a3.38,3.38,0,0,1-2.63-.83c-1.47-1.25-2.54-3.84-2.73-6.62l-3-41.89a3,3,0,1,0-6,.42l2,27.87v.12c.21,3-.83,7.87-4.52,8.14a3.65,3.65,0,0,1-2.85-.88c-1.41-1.22-2.37-3.67-2.58-6.56l-3.55-50.3c0-.09,0-.18,0-.28s0-.17,0-.25a2.83,2.83,0,0,0-.11-.31c0-.07,0-.15-.09-.23a2.79,2.79,0,0,0-.16-.28L315,557l-.21-.24-.16-.18-.25-.2c-.06,0-.12-.1-.19-.14a2.64,2.64,0,0,0-.29-.15l-.2-.11-.37-.11-.18,0a2.69,2.69,0,0,0-.57-.06h-.22l-.26.05a1.57,1.57,0,0,0-.3,0,1.48,1.48,0,0,0-.27.1l-.28.1-.24.15-.25.16-.21.18a2.08,2.08,0,0,0-.21.21,1.63,1.63,0,0,0-.17.22l-.17.24c0,.08-.09.18-.13.26s-.09.17-.12.26,0,.2-.08.3a2.61,2.61,0,0,0-.06.27,1.83,1.83,0,0,0,0,.33,1.93,1.93,0,0,0,0,.24c.05,1.37.28,4.41.45,6.63l.15,2c.42,5.92-.52,10.59-2.72,13.49-1.07,1.41-5.83,6.11-9.54,3.31-1.65-1.24-1.42-3.92.61-7.16,4.12-6.59,2.74-13.89,1.84-18.67-2.47-14.91,2.42-24,7-28.93,5.74-6.27,13.33-8.69,18.32-8.34a3,3,0,0,0,3.22-2.76,3,3,0,0,0-2.77-3.22q-.75-.06-1.53-.06A28,28,0,0,0,311,519.11l-13.5-32.56c.58-1.28,2.55-4.37,8.32-5.53a3,3,0,1,0-1.18-5.89,18.43,18.43,0,0,0-9.81,5L292,473.47,309,464l30.22,39.61A3,3,0,1,0,344,500l-33.37-43.74h0l-2.23-2.93h0L295,435.71,262.1,454.07Zm123.3,7.34.92,11.66-3.25,1.46-4.81-11.89Zm-81.58-4.88-10.79,6-2.68-6.55,10.48-3.39Z"/><ellipse class="cls-4" cx="324.32" cy="561.6" rx="3.34" ry="4.95" transform="translate(-56.08 36.36) rotate(-5.91)"/></g></g></svg>