<svg xmlns="http://www.w3.org/2000/svg" viewBox="0 0 1080 672"><g id="Layer_1" data-name="Layer 1"><path d="M732,317.15v45a9,9,0,1,1-18,0v-99H678v99a45,45,0,1,0,90,0v-45Z"/><path d="M630,362.15a9,9,0,0,1-18,0v-45H576v45a9,9,0,0,1-18,0v-45H522v21.74a51.21,51.21,0,0,0-6.22-12L496,298.62l17.64-25.18-29.49-20.65L474,267.24l-17.4-24.85L427.11,263,452,298.62,432.22,326.9a50.76,50.76,0,0,0-8.14,18.83A48,48,0,0,0,330,359.15a47.57,47.57,0,0,0,4.19,19.57A48,48,0,0,0,312,419.15v12h36v-12a12,12,0,0,1,12-12h18a48.07,48.07,0,0,0,46.83-37.49,51,51,0,0,0,98,1.15A45,45,0,0,0,594,398.13a45,45,0,0,0,72-36v-45H630Zm-252,9h0a12,12,0,1,1,12-12A12,12,0,0,1,378,371.15Zm96,0a15.2,15.2,0,0,1-15-15,15,15,0,0,1,2.71-8.6L474,330l12.29,17.55a15,15,0,0,1,2.71,8.6A15.2,15.2,0,0,1,474,371.15Z"/><circle cx="723" cy="431.29" r="12"/></g></svg>