<svg xmlns="http://www.w3.org/2000/svg" viewBox="0 0 648 648"><defs><style>.cls-1{fill:#ff5c35;}</style></defs><g id="Background"><rect class="cls-1" width="648" height="648"/></g><g id="Layer_1" data-name="Layer 1"><path d="M367.66,427.61a5.87,5.87,0,0,1,1.85,4.37,6,6,0,0,1-1.8,4.37,6.05,6.05,0,0,1-4.47,1.81,6.37,6.37,0,0,1-5-2.14,8.6,8.6,0,0,1-1.9-5.94,25,25,0,0,1,2.18-9.5,41.65,41.65,0,0,1,5.23-9.21l3.8,4.08q-4.84,6.18-5.8,10.64a4.88,4.88,0,0,1,1.52-.28A6.12,6.12,0,0,1,367.66,427.61Zm-8.55,29.22a6.1,6.1,0,1,1,4.23,1.75A5.76,5.76,0,0,1,359.11,456.83Z"/><path d="M382.24,460.67q0-10.26,2.38-15.58,8.92-20.61,19.19-20.61a11,11,0,0,1,9.64,5.41q3.57,5.42,3.56,14a36.44,36.44,0,0,1-1.42,10,9.48,9.48,0,0,1-3.42,4.37,6,6,0,0,1-6.46.86l-16.06-7.41a45,45,0,0,0-.28,5.32,88.39,88.39,0,0,0,.71,10.69q.71,5.74,2.14,14.29l.38,2.38-8.27,3A214.29,214.29,0,0,1,382.24,460.67Zm27.7-12.87a21.82,21.82,0,0,0,.42-4.23,15.39,15.39,0,0,0-1.94-8.17,6,6,0,0,0-5.28-3.13,6.89,6.89,0,0,0-5.27,2.66,46.42,46.42,0,0,0-5.56,9l16.53,7.32A13.92,13.92,0,0,0,409.94,447.8Z"/><path d="M436.3,446.14a127.44,127.44,0,0,0-2.47-23.66A60.08,60.08,0,0,0,425,400.06l5.61-4.84a73.77,73.77,0,0,1,9.21,24.08,131.79,131.79,0,0,1,2.57,25.41Zm40.85,3.13a7.92,7.92,0,0,1,.19,1.81v4.37a7.28,7.28,0,0,1-.19,1.76c-.13.47-.29.71-.48.71h-2.94q-7.23,0-10.93-1.52a9.2,9.2,0,0,1-5.22-5.23q-4.09,4.66-12.21,7.6a86.7,86.7,0,0,1-17.62,4.28l-1.14-9.41a94.74,94.74,0,0,0,17.9-4.56q7.56-2.85,9.84-5.51l-2.19-52,7.41-1.24,1.24,50.83a6.64,6.64,0,0,0,1.47,4.7,7.45,7.45,0,0,0,4.23,2.09,42,42,0,0,0,7.5.52h2.66C476.86,448.51,477,448.77,477.15,449.27Z"/><path d="M536.62,446.42q0,5.9-4.23,8.7a17.55,17.55,0,0,1-9.93,2.8q-8.07,0-10.26-4.94a7.69,7.69,0,0,1-4.42,3.8,16.4,16.4,0,0,1-5.65,1.14,14.57,14.57,0,0,1-6.36-1.28,8.28,8.28,0,0,1-3.9-3.66,11,11,0,0,1-6,3.75,33.23,33.23,0,0,1-9.17,1.19c-.19,0-.34-.24-.47-.71a6.81,6.81,0,0,1-.19-1.76v-4.37a7.39,7.39,0,0,1,.19-1.81c.13-.5.28-.76.47-.76a45.85,45.85,0,0,0,6.75-.42,13.33,13.33,0,0,0,5-1.86l.19-14.91h6.65L495,443.19q-.11,5.32,6.36,5.32a15.83,15.83,0,0,0,7.79-1.61l-.57-19.19,6.65-.19.38,19.47c1.08,1,3,1.52,5.61,1.52q6.07,0,9-1.71l-1.71-23.08,7.13-1.33Q536.62,438.55,536.62,446.42Z"/><path d="M571.67,449.27a7.39,7.39,0,0,1,.19,1.81v4.37a6.81,6.81,0,0,1-.19,1.76c-.13.47-.28.71-.47.71h-1.9q-9.31,0-13.64-4.28T551,439.3l-1.23-47.69,7.41-1.24.47,48.83q0,4.85,2.95,7.08a12.71,12.71,0,0,0,7.88,2.23h2.76C571.39,448.51,571.54,448.77,571.67,449.27Z"/><path d="M595.61,445.57a9.8,9.8,0,0,1-1.23,4.8,10.24,10.24,0,0,1-3.71,3.75A30.65,30.65,0,0,1,582,457a58.76,58.76,0,0,1-10.83.95c-.2,0-.35-.24-.48-.71a6.81,6.81,0,0,1-.19-1.76v-4.37a7.39,7.39,0,0,1,.19-1.81c.13-.5.28-.76.48-.76a77,77,0,0,0,10.3-.61,20.64,20.64,0,0,0,7.75-2.52l-1.81-21.66,7.22-1.33Q595.61,438.55,595.61,445.57Zm-15.77,22.51,7.12,5.61-5.41,6.74-7.13-5.6Z"/><path d="M243.69,583.85q6.23-5.42,8-10.64l-3-26.41,7.31-1.43q1,9.32,1.52,15.92t.57,10.11q0,8.46-6.84,16.2t-20.42,13.73L226,594.2Q237.47,589.26,243.69,583.85Zm6.6-61.18,7.13,5.6L252,535l-7.12-5.61Z"/><path d="M301.12,566.27a7.92,7.92,0,0,1,.19,1.81v4.37a7.28,7.28,0,0,1-.19,1.76c-.13.47-.29.71-.48.71h-3.51q-7.32,0-10.74-4.56v1q0,8.37-5.89,16.15t-17.19,13.78l-4.85-7.13a52.48,52.48,0,0,0,14.44-10.07A29.62,29.62,0,0,0,280,573.21l-3-26.41,7.31-1.43.29,3,.47,4.37.57,6q.76,6.84,10.74,6.84h4.27C300.83,565.51,301,565.77,301.12,566.27Z"/><path d="M337.55,549.74q3.56,5.41,3.56,14a33.27,33.27,0,0,1-1.42,10,9.48,9.48,0,0,1-3.42,4.37,7,7,0,0,1-3.8,1.43,6.51,6.51,0,0,1-2.57-.57L313,571.4q-3.23,3.52-10.16,3.52h-2.19c-.19,0-.35-.24-.47-.71a6.81,6.81,0,0,1-.19-1.76v-4.37a7.39,7.39,0,0,1,.19-1.81c.12-.5.28-.76.47-.76H304a13.19,13.19,0,0,0,3.7-.38,4.16,4.16,0,0,0,2.09-1.47,19,19,0,0,0,2-3.56,61,61,0,0,1,5.08-9.55,15,15,0,0,1,4.94-4.8,12.79,12.79,0,0,1,6.22-1.42Q334,544.33,337.55,549.74Zm-3.47,18.15a24.16,24.16,0,0,0,.38-4.28,15.3,15.3,0,0,0-1.95-8.17,5.93,5.93,0,0,0-5.27-3.13,6.26,6.26,0,0,0-3.61,1,12.82,12.82,0,0,0-3.13,3.47,66.71,66.71,0,0,0-4,7.27l16.43,7.22A10.71,10.71,0,0,0,334.08,567.89Z"/><path d="M418.25,566.27a7.39,7.39,0,0,1,.19,1.81v4.37a6.81,6.81,0,0,1-.19,1.76c-.13.47-.28.71-.47.71h-10a15.1,15.1,0,0,1,.48,3.7q0,10.17-9,14.87t-22.47,4.7q-11.88,0-17.24-4.37t-5.37-13.3a64.37,64.37,0,0,1,.81-7.45q.81-5.57,2-13.35l1.24-7.89,5.89,1.24q-3.61,21.66-3.61,26.41A7.39,7.39,0,0,0,365,586.6q4.42,2.19,11.83,2.19a74.45,74.45,0,0,0,14.77-1.24,19.39,19.39,0,0,0,9.74-4.75,14.7,14.7,0,0,0,.29-2.66,4.1,4.1,0,0,0-1.52-3.56,9.86,9.86,0,0,0-4.8-1.38c-2.19-.19-5.65-.28-10.4-.28l2.09-9.41h30.78C418,565.51,418.12,565.77,418.25,566.27Z"/><path d="M442.19,562.57a9.8,9.8,0,0,1-1.23,4.8,10.24,10.24,0,0,1-3.71,3.75,30.65,30.65,0,0,1-8.64,2.85,58.76,58.76,0,0,1-10.83.95c-.19,0-.35-.24-.48-.71a6.81,6.81,0,0,1-.19-1.76v-4.37a7.39,7.39,0,0,1,.19-1.81c.13-.5.29-.76.48-.76a77,77,0,0,0,10.3-.61,20.64,20.64,0,0,0,7.75-2.52L434,540.72l7.22-1.33Q442.19,555.54,442.19,562.57Zm-15.77,22.51,7.13,5.61-5.42,6.74-7.12-5.6Z"/><path d="M473.87,583.85q6.22-5.42,8-10.64l-3-26.41,7.31-1.43q1,9.32,1.52,15.92t.57,10.11q0,8.46-6.84,16.2T461,601.33l-4.85-7.13Q467.66,589.26,473.87,583.85Z"/><path d="M501.37,508.61l7.41-1.24.67,67.55-6.27.85Z"/><path d="M522.22,583.85q6.22-5.42,8-10.64l-3-26.41,7.32-1.43q.94,9.32,1.52,15.92t.57,10.11q0,8.46-6.84,16.2t-20.43,13.73l-4.84-7.13Q516,589.26,522.22,583.85Zm6.61-61.18,7.12,5.6L530.54,535l-7.13-5.61Z"/><path d="M571.67,566.27a7.39,7.39,0,0,1,.19,1.81v4.37a6.81,6.81,0,0,1-.19,1.76c-.13.47-.28.71-.47.71h-1.9q-9.31,0-13.64-4.28T551,556.3l-1.23-47.69,7.41-1.24.47,48.83q0,4.84,2.95,7.08a12.71,12.71,0,0,0,7.88,2.23h2.76C571.39,565.51,571.54,565.77,571.67,566.27Z"/><path d="M595.61,562.57a9.8,9.8,0,0,1-1.23,4.8,10.24,10.24,0,0,1-3.71,3.75A30.65,30.65,0,0,1,582,574a58.76,58.76,0,0,1-10.83.95c-.2,0-.35-.24-.48-.71a6.81,6.81,0,0,1-.19-1.76v-4.37a7.39,7.39,0,0,1,.19-1.81c.13-.5.28-.76.48-.76a77,77,0,0,0,10.3-.61,20.64,20.64,0,0,0,7.75-2.52l-1.81-21.66,7.22-1.33Q595.61,555.54,595.61,562.57Zm-15.77,22.51,7.12,5.61-5.41,6.74-7.13-5.6Z"/><path d="M48.29,71H46.2l7.94-21.81h2.13L64.21,71H62.12L55.28,51.72h-.15Zm1.5-8.36H60.62v1.79H49.79Z"/><path d="M84.94,49.14V71H83L70.11,52.68h-.17V71H68V49.14h1.92L82.81,67.43H83V49.14Z"/><path d="M99,49.14h2V64.87a7.52,7.52,0,0,1-.76,3.55,5.06,5.06,0,0,1-2.09,2.13,6.45,6.45,0,0,1-3.06.7,7,7,0,0,1-3-.63A5.09,5.09,0,0,1,90,68.86a4.71,4.71,0,0,1-.76-2.68h2a2.92,2.92,0,0,0,.51,1.71,3.49,3.49,0,0,0,1.4,1.16,4.78,4.78,0,0,0,2,.41,4.11,4.11,0,0,0,2-.49,3.29,3.29,0,0,0,1.38-1.51,5.89,5.89,0,0,0,.5-2.59Z"/><path d="M124.67,60A13.5,13.5,0,0,1,123.46,66a9.35,9.35,0,0,1-3.34,3.9,9.34,9.34,0,0,1-9.77,0A9.26,9.26,0,0,1,107,66,13.5,13.5,0,0,1,105.81,60,13.48,13.48,0,0,1,107,54.12a9.28,9.28,0,0,1,3.34-3.9,9.32,9.32,0,0,1,9.76,0,9.35,9.35,0,0,1,3.34,3.9A13.48,13.48,0,0,1,124.67,60Zm-1.93,0a11.83,11.83,0,0,0-1-5,7.6,7.6,0,0,0-2.68-3.2,7.2,7.2,0,0,0-7.68,0,7.54,7.54,0,0,0-2.68,3.2,11.62,11.62,0,0,0-1,5,11.62,11.62,0,0,0,1,5,7.51,7.51,0,0,0,2.67,3.2,6.79,6.79,0,0,0,3.85,1.12,6.91,6.91,0,0,0,3.85-1.11,7.6,7.6,0,0,0,2.68-3.2A11.85,11.85,0,0,0,122.74,60Z"/><path d="M129.49,49.14h2.3l7.92,19h.19l7.91-19h2.31V71h-1.88V53.34h-.17L140.71,71H138.9l-7.36-17.61h-.17V71h-1.88Z"/><path d="M155.94,71h-2.09l7.94-21.81h2.13L171.86,71h-2.09l-6.84-19.23h-.15Zm1.5-8.36h10.83v1.79H157.44Z"/><path d="M192.59,49.14V71h-1.94L177.76,52.68h-.17V71h-2V49.14h1.93l12.93,18.29h.17V49.14Z"/><path d="M206.82,71V49.14h7a8.14,8.14,0,0,1,3.89.83,5.63,5.63,0,0,1,2.35,2.31,7,7,0,0,1,.8,3.39,6.9,6.9,0,0,1-.8,3.36,5.45,5.45,0,0,1-2.35,2.28,8.12,8.12,0,0,1-3.85.82h-6V60.31h5.94a6.41,6.41,0,0,0,2.84-.56,3.85,3.85,0,0,0,1.7-1.61,5.75,5.75,0,0,0,0-5,3.85,3.85,0,0,0-1.7-1.66,6.2,6.2,0,0,0-2.86-.58h-5V71Zm9.62-9.84L221.81,71h-2.3l-5.31-9.84Z"/><path d="M231.8,71.29a7.16,7.16,0,0,1-4-1.07,7.07,7.07,0,0,1-2.58-3,10,10,0,0,1-.91-4.38,10.15,10.15,0,0,1,.91-4.4,7.41,7.41,0,0,1,2.52-3,6.5,6.5,0,0,1,3.74-1.09,7,7,0,0,1,2.56.48,6.4,6.4,0,0,1,2.23,1.48,7.34,7.34,0,0,1,1.56,2.51,10,10,0,0,1,.57,3.56v.94H225.66V61.66H236.5a6.3,6.3,0,0,0-.63-2.84,5,5,0,0,0-1.76-2,4.62,4.62,0,0,0-2.59-.74,4.67,4.67,0,0,0-2.74.83,5.68,5.68,0,0,0-1.85,2.2,6.9,6.9,0,0,0-.68,3v1a8,8,0,0,0,.68,3.41,5.18,5.18,0,0,0,1.92,2.25,5.91,5.91,0,0,0,5,.44,4.66,4.66,0,0,0,1.48-1,4.4,4.4,0,0,0,.91-1.35l1.8.59a5.49,5.49,0,0,1-1.22,1.91,6.33,6.33,0,0,1-2.11,1.4A7.52,7.52,0,0,1,231.8,71.29Z"/><path d="M248.85,77.43a9,9,0,0,1-2.93-.43,6.38,6.38,0,0,1-2.12-1.18,5.58,5.58,0,0,1-1.34-1.67l1.55-1a6,6,0,0,0,1,1.21,4.55,4.55,0,0,0,1.54,1,6.23,6.23,0,0,0,2.35.4,5.41,5.41,0,0,0,3.51-1.09,4.1,4.1,0,0,0,1.34-3.38V67.58h-.17a6.47,6.47,0,0,1-.95,1.48A4.64,4.64,0,0,1,251,70.29a5.47,5.47,0,0,1-2.46.49,6.29,6.29,0,0,1-3.48-1A6.58,6.58,0,0,1,242.63,67a9.87,9.87,0,0,1-.86-4.31,10.65,10.65,0,0,1,.84-4.37A7,7,0,0,1,245,55.42a6.11,6.11,0,0,1,3.55-1.05,5.28,5.28,0,0,1,2.49.52,5.1,5.1,0,0,1,1.6,1.31,8.21,8.21,0,0,1,.94,1.51h.19V54.59h1.85V71.38a6.12,6.12,0,0,1-.88,3.42,5.3,5.3,0,0,1-2.41,2A8.79,8.79,0,0,1,248.85,77.43Zm-.13-8.38a4.76,4.76,0,0,0,2.7-.76,4.87,4.87,0,0,0,1.71-2.19,8.79,8.79,0,0,0,.6-3.4,9.26,9.26,0,0,0-.59-3.41,5.28,5.28,0,0,0-1.7-2.34,4.33,4.33,0,0,0-2.72-.86A4.38,4.38,0,0,0,246,57a5.38,5.38,0,0,0-1.7,2.38,9.11,9.11,0,0,0-.58,3.34,8.73,8.73,0,0,0,.59,3.31A5,5,0,0,0,246,68.24,4.61,4.61,0,0,0,248.72,69.05Z"/><path d="M271,64.7V54.59h1.9V71H271V68.24h-.15a5,5,0,0,1-1.82,2.09,5.34,5.34,0,0,1-3.05.84,5.54,5.54,0,0,1-2.78-.69,4.85,4.85,0,0,1-1.91-2,7.06,7.06,0,0,1-.69-3.27V54.59h1.9V65.07a4.27,4.27,0,0,0,1.13,3.09,3.88,3.88,0,0,0,2.9,1.16,4.54,4.54,0,0,0,2.13-.53,4.32,4.32,0,0,0,1.68-1.56A4.58,4.58,0,0,0,271,64.7Z"/><path d="M279.83,49.14V71h-1.9V49.14Z"/><path d="M289.41,71.33a6.36,6.36,0,0,1-2.71-.58,4.65,4.65,0,0,1-1.95-1.69,4.79,4.79,0,0,1-.72-2.68,4.22,4.22,0,0,1,.45-2,3.79,3.79,0,0,1,1.3-1.37,7.62,7.62,0,0,1,2-.84,20.37,20.37,0,0,1,2.53-.48l2.33-.29a4.38,4.38,0,0,0,1.45-.41.93.93,0,0,0,.5-.89v-.39a3.5,3.5,0,0,0-1-2.63,3.93,3.93,0,0,0-2.86-1,4.9,4.9,0,0,0-2.88.78,4.21,4.21,0,0,0-1.56,1.83L284.5,58A5.36,5.36,0,0,1,286,55.88a6.24,6.24,0,0,1,2.19-1.16,9,9,0,0,1,2.46-.35,8.53,8.53,0,0,1,2,.24,5.56,5.56,0,0,1,1.89.85A4.41,4.41,0,0,1,296,57.13a6,6,0,0,1,.54,2.71V71h-1.9V68.36h-.11a5.2,5.2,0,0,1-1,1.41,5.14,5.14,0,0,1-1.69,1.12A5.93,5.93,0,0,1,289.41,71.33Zm.25-1.74a4.93,4.93,0,0,0,2.62-.67A4.59,4.59,0,0,0,294,67.13a5.08,5.08,0,0,0,.6-2.45V62.31a1.8,1.8,0,0,1-.7.37,10.59,10.59,0,0,1-1.14.28l-1.29.21-1.15.15a10.46,10.46,0,0,0-2.36.53,3.44,3.44,0,0,0-1.51,1,2.55,2.55,0,0,0-.52,1.63A2.76,2.76,0,0,0,287,68.78,4.28,4.28,0,0,0,289.66,69.59Z"/><path d="M301.53,71V54.59h1.84V57.1h.14a4.11,4.11,0,0,1,1.71-2,5.1,5.1,0,0,1,2.77-.76h.52l.48,0v1.93l-.45-.07a4.93,4.93,0,0,0-.69,0,4.74,4.74,0,0,0-2.28.54,4,4,0,0,0-2.14,3.65V71Z"/></g></svg>