<svg xmlns="http://www.w3.org/2000/svg" viewBox="0 0 648 648"><defs><style>.cls-1{fill:#ff5e3f;}.cls-2{fill:#fff;}</style></defs><g id="Layer_1" data-name="Layer 1"><rect width="648" height="648"/><path class="cls-1" d="M46.65,408.29a2.11,2.11,0,0,1,2.42-2.42H62.82c5.17,0,8.58.66,12.1,3s5.28,6.93,5.28,14v5.72c0,7.81-2.64,12.65-7.81,14.52,5.5,1.87,8.25,6.71,8.25,14.41v8.25c0,6.71-1.65,11.33-4.84,13.64s-7.48,3.52-13,3.52H49.07a2.11,2.11,0,0,1-2.42-2.42ZM56,438.65h5.94c7,0,9.35-2.2,9.35-9.13v-6.38c0-6.93-2.31-9.13-9.35-9.13H56Zm0,8v28.05h5.94c7,0,9.35-2.31,9.35-9.35v-9.57c0-6.93-2.31-9.13-9.35-9.13Z"/><path class="cls-1" d="M89.11,467.14V441.62c0-11.33,5.28-16.94,15.73-16.94s15.62,5.61,15.62,16.94v25.52c0,11.33-5.17,16.94-15.62,16.94S89.11,478.47,89.11,467.14Zm23,1v-27.5c0-5.83-2.42-8.69-7.26-8.69s-7.37,2.86-7.37,8.69v27.5c0,5.83,2.42,8.69,7.37,8.69S112.1,474,112.1,468.13Z"/><path class="cls-1" d="M152.91,428.31a2.11,2.11,0,0,1,2.42-2.42h3.52a2.11,2.11,0,0,1,2.42,2.42v36a133.17,133.17,0,0,0,.66,16.06,2,2,0,0,1-2.2,2.53h-3.3q-2.31,0-2.64-2a31.22,31.22,0,0,1-.55-4.95,12.24,12.24,0,0,1-11.55,8.14c-7.92,0-11.88-5.17-11.88-15.4V428.31a2.11,2.11,0,0,1,2.42-2.42h3.52a2.11,2.11,0,0,1,2.42,2.42v39.93c0,6.49,2.09,8.58,6.6,8.58s8.14-4.29,8.14-9.57Z"/><path class="cls-1" d="M174.69,482.87a2.11,2.11,0,0,1-2.42-2.42V428.31a2.11,2.11,0,0,1,2.42-2.42h3a2.11,2.11,0,0,1,2.42,2.42v5.17a12.18,12.18,0,0,1,11.77-8.8c7.92,0,11.88,5.17,11.88,15.4v40.37a2.11,2.11,0,0,1-2.42,2.42h-3.52a2.11,2.11,0,0,1-2.42-2.42V440.52c0-6.49-2.09-8.58-6.6-8.58s-8.14,4.29-8.14,9.57v38.94a2.11,2.11,0,0,1-2.42,2.42Z"/><path class="cls-1" d="M239.7,482.87q-2.31,0-2.64-2a31.22,31.22,0,0,1-.55-4.95A12.24,12.24,0,0,1,225,484.08c-7.92,0-11.88-5.17-11.88-15.4v-28.6c0-10.23,4-15.4,11.88-15.4a12.06,12.06,0,0,1,11.22,7.48V408.29a2.11,2.11,0,0,1,2.42-2.42h3.52a2.11,2.11,0,0,1,2.42,2.42v56a133.17,133.17,0,0,0,.66,16.06,2,2,0,0,1-2.2,2.53Zm-3.52-41.36c0-5.28-3.63-9.57-8.14-9.57s-6.6,2.09-6.6,8.58v27.72c0,6.49,2.09,8.58,6.6,8.58s8.14-4.29,8.14-9.57Z"/><path class="cls-1" d="M263.9,480.45a2.11,2.11,0,0,1-2.42,2.42H258a2.11,2.11,0,0,1-2.42-2.42V408.29a2.11,2.11,0,0,1,2.42-2.42h3.52a2.11,2.11,0,0,1,2.42,2.42Z"/><path class="cls-1" d="M304.6,454.27a2.11,2.11,0,0,1-2.42,2.42h-20v11.44c0,5.83,2.42,8.69,7.37,8.69s7.26-2.86,7.26-8.69v-2.2a2.11,2.11,0,0,1,2.42-2.42h3a2.11,2.11,0,0,1,2.42,2.42v1.21c0,11.33-5.17,16.94-15.4,16.94s-15.4-5.61-15.4-16.94V441.62c0-11.33,5.17-16.94,15.4-16.94s15.4,5.61,15.4,16.94Zm-22.44-4.62h14.63v-9c0-5.83-2.42-8.69-7.26-8.69s-7.37,2.86-7.37,8.69Z"/><path class="cls-1" d="M334.3,468a7.08,7.08,0,0,0-2.86-6.16c-1.87-1.65-3-2.2-6.05-3.85-4.07-2.09-5.61-3-8.58-5.72s-4.29-6.71-4.29-12v-.22c0-10.23,5.06-15.4,15.18-15.4s15.07,5.5,15.07,16.39v.33a2.11,2.11,0,0,1-2.42,2.42h-3A2.11,2.11,0,0,1,335,441.4v-1.1c0-5.83-1.87-8.8-7-8.8s-7,2.64-7,8.25v.55a8,8,0,0,0,2.75,6.27,31.17,31.17,0,0,0,6.27,3.85c4,2.09,5.83,3.19,8.58,5.94s4.18,6.71,4.18,11.88v.22c0,10.45-5.06,15.62-15.07,15.62s-15.07-5.5-15.07-16.39v-1.21a2.11,2.11,0,0,1,2.42-2.42h2.86a2.11,2.11,0,0,1,2.42,2.42v2c0,5.83,2.31,8.8,7,8.8,5.17,0,7-2.64,7-8.25Z"/><path class="cls-1" d="M372.14,468a7.08,7.08,0,0,0-2.86-6.16c-1.87-1.65-3-2.2-6-3.85-4.07-2.09-5.61-3-8.58-5.72s-4.29-6.71-4.29-12v-.22c0-10.23,5.06-15.4,15.18-15.4s15.07,5.5,15.07,16.39v.33a2.11,2.11,0,0,1-2.42,2.42h-3a2.11,2.11,0,0,1-2.42-2.42v-1.1c0-5.83-1.87-8.8-7-8.8s-7,2.64-7,8.25v.55a8,8,0,0,0,2.75,6.27,31.17,31.17,0,0,0,6.27,3.85c4,2.09,5.83,3.19,8.58,5.94s4.18,6.71,4.18,11.88v.22c0,10.45-5.06,15.62-15.07,15.62s-15.07-5.5-15.07-16.39v-1.21a2.11,2.11,0,0,1,2.42-2.42h2.86a2.11,2.11,0,0,1,2.42,2.42v2c0,5.83,2.31,8.8,7,8.8,5.17,0,7-2.64,7-8.25Z"/><path class="cls-1" d="M46.65,528.29a2.11,2.11,0,0,1,2.42-2.42H62.82c5.17,0,8.58.66,12.1,3s5.28,6.93,5.28,14v5.72c0,7.81-2.64,12.65-7.81,14.52,5.5,1.87,8.25,6.71,8.25,14.41v8.25c0,6.71-1.65,11.33-4.84,13.64s-7.48,3.52-13,3.52H49.07a2.11,2.11,0,0,1-2.42-2.42ZM56,558.65h5.94c7,0,9.35-2.2,9.35-9.13v-6.38c0-6.93-2.31-9.13-9.35-9.13H56Zm0,8v28.05h5.94c7,0,9.35-2.31,9.35-9.35v-9.57c0-6.93-2.31-9.13-9.35-9.13Z"/><path class="cls-1" d="M88.23,589.45v-1a19.31,19.31,0,0,1,3.08-10.78,17.75,17.75,0,0,1,3.52-3.52,39.93,39.93,0,0,1,7.92-4.51,30.94,30.94,0,0,0,5.94-3.3,5.89,5.89,0,0,0,2.64-5.06v-.77c0-5.83-2.31-8.69-6.93-8.69s-7,2.86-7,8.69v1.65a2.11,2.11,0,0,1-2.42,2.42H92a2.11,2.11,0,0,1-2.42-2.42v-.66q0-16.83,15.18-16.83c10,0,15,5.61,15,16.83v22.77a133.17,133.17,0,0,0,.66,16.06,2,2,0,0,1-2.2,2.53h-3.3q-2.31,0-2.64-2a33.19,33.19,0,0,1-.55-5.17,12.12,12.12,0,0,1-11.55,8.36C92.19,604.08,88.23,599.24,88.23,589.45Zm23.1-17.05c-1.87,1.21-3.41,2-4.4,2.53-2.31,1.21-4,2.2-5.17,3a12.14,12.14,0,0,0-5.17,9.9v1c0,6.16,2.09,8.14,6.6,8.14s8.14-4.4,8.14-9.68Z"/><path class="cls-1" d="M130.36,553.15a2.11,2.11,0,0,1-2.42-2.42v-2.42a2.11,2.11,0,0,1,2.42-2.42H153.9a2.11,2.11,0,0,1,2.42,2.42v2.31a7.26,7.26,0,0,1-.66,3l-19.69,42H153.9a2.11,2.11,0,0,1,2.42,2.42v2.42a2.11,2.11,0,0,1-2.42,2.42H129.37a2.11,2.11,0,0,1-2.42-2.42v-2.31a7.26,7.26,0,0,1,.66-3l19.58-42Z"/><path class="cls-1" d="M162.15,589.45v-1a19.31,19.31,0,0,1,3.08-10.78,17.75,17.75,0,0,1,3.52-3.52,39.93,39.93,0,0,1,7.92-4.51,30.94,30.94,0,0,0,5.94-3.3,5.89,5.89,0,0,0,2.64-5.06v-.77c0-5.83-2.31-8.69-6.93-8.69s-7,2.86-7,8.69v1.65a2.11,2.11,0,0,1-2.42,2.42h-3a2.11,2.11,0,0,1-2.42-2.42v-.66q0-16.83,15.18-16.83c10,0,15,5.61,15,16.83v22.77a133.17,133.17,0,0,0,.66,16.06,2,2,0,0,1-2.2,2.53h-3.3q-2.31,0-2.64-2a33.19,33.19,0,0,1-.55-5.17A12.12,12.12,0,0,1,174,604.08C166.11,604.08,162.15,599.24,162.15,589.45Zm23.1-17.05c-1.87,1.21-3.41,2-4.4,2.53-2.31,1.21-4,2.2-5.17,3a12.14,12.14,0,0,0-5.17,9.9v1c0,6.16,2.09,8.14,6.6,8.14s8.14-4.4,8.14-9.68Z"/><path class="cls-1" d="M202.08,589.45v-1a19.31,19.31,0,0,1,3.08-10.78,17.75,17.75,0,0,1,3.52-3.52,39.93,39.93,0,0,1,7.92-4.51,30.94,30.94,0,0,0,5.94-3.3,5.89,5.89,0,0,0,2.64-5.06v-.77c0-5.83-2.31-8.69-6.93-8.69s-7,2.86-7,8.69v1.65a2.11,2.11,0,0,1-2.42,2.42h-3a2.11,2.11,0,0,1-2.42-2.42v-.66q0-16.83,15.18-16.83c10,0,15,5.61,15,16.83v22.77a133.17,133.17,0,0,0,.66,16.06,2,2,0,0,1-2.2,2.53h-3.3q-2.31,0-2.64-2a33.19,33.19,0,0,1-.55-5.17A12.12,12.12,0,0,1,214,604.08C206,604.08,202.08,599.24,202.08,589.45Zm23.1-17.05c-1.87,1.21-3.41,2-4.4,2.53-2.31,1.21-4,2.2-5.17,3a12.14,12.14,0,0,0-5.17,9.9v1c0,6.16,2.09,8.14,6.6,8.14s8.14-4.4,8.14-9.68Z"/><path class="cls-1" d="M246.41,602.87a2.11,2.11,0,0,1-2.42-2.42V548.31a2.11,2.11,0,0,1,2.42-2.42h3a2.11,2.11,0,0,1,2.42,2.42v5.06c1.65-5.17,5.83-8.69,11.55-8.69,7.15,0,11,4.07,11,15.18V572a2.11,2.11,0,0,1-2.42,2.42h-3a2.11,2.11,0,0,1-2.42-2.42V560.52c0-6.49-1.87-8.58-6.27-8.58s-7.92,4.29-7.92,9.57v38.94a2.11,2.11,0,0,1-2.42,2.42Z"/><path class="cls-2" d="M48.26,71V49.14h7a8.1,8.1,0,0,1,3.88.83,5.66,5.66,0,0,1,2.36,2.31,7,7,0,0,1,.79,3.39A6.89,6.89,0,0,1,61.54,59a5.51,5.51,0,0,1-2.35,2.28,8.17,8.17,0,0,1-3.86.82h-6V60.31h6a6.47,6.47,0,0,0,2.84-.56,3.82,3.82,0,0,0,1.69-1.61,5.2,5.2,0,0,0,.56-2.47,5.33,5.33,0,0,0-.56-2.5,3.9,3.9,0,0,0-1.7-1.66,6.22,6.22,0,0,0-2.86-.58h-5V71Zm9.62-9.84L63.25,71H61l-5.32-9.84Z"/><path class="cls-2" d="M67.22,71H65.13l7.94-21.81H75.2L83.14,71H81.05L74.21,51.72h-.15Zm1.5-8.36H79.55v1.79H68.72Z"/><path class="cls-2" d="M86.88,49.14h2.3l7.91,19h.19l7.92-19h2.3V71h-1.87V53.34h-.17L98.09,71H96.28L88.92,53.34h-.17V71H86.88Z"/><path class="cls-2" d="M113.33,71h-2.09l7.94-21.81h2.13L129.24,71h-2.08l-6.84-19.23h-.15Zm1.5-8.36h10.82v1.79H114.83Z"/><path class="cls-2" d="M156.52,56a8,8,0,0,0-.88-2,6.67,6.67,0,0,0-1.42-1.67,6.25,6.25,0,0,0-1.95-1.12,7,7,0,0,0-2.45-.41A6.79,6.79,0,0,0,146,51.82a7.51,7.51,0,0,0-2.66,3.2,11.77,11.77,0,0,0-1,5,11.76,11.76,0,0,0,1,5,7.48,7.48,0,0,0,2.69,3.2,7.43,7.43,0,0,0,7.47.22,6.21,6.21,0,0,0,2.42-2.55,8.32,8.32,0,0,0,.84-4l.64.21h-7V60.39h8.29v1.79A9.81,9.81,0,0,1,157.58,67a7.81,7.81,0,0,1-3.1,3.14A9.11,9.11,0,0,1,141.63,66,13.79,13.79,0,0,1,140.44,60a14.87,14.87,0,0,1,.68-4.63,10.43,10.43,0,0,1,1.94-3.54,8.42,8.42,0,0,1,3-2.25,9.09,9.09,0,0,1,3.8-.78,9.27,9.27,0,0,1,3.27.56,8.66,8.66,0,0,1,4.49,3.82,8.68,8.68,0,0,1,1,2.73Z"/><path class="cls-2" d="M181.55,60A13.5,13.5,0,0,1,180.34,66a9.35,9.35,0,0,1-3.34,3.9,9.34,9.34,0,0,1-9.77,0,9.35,9.35,0,0,1-3.34-3.9,13.64,13.64,0,0,1-1.2-5.93,13.63,13.63,0,0,1,1.2-5.92,9.35,9.35,0,0,1,3.34-3.9,9.34,9.34,0,0,1,9.77,0,9.35,9.35,0,0,1,3.34,3.9A13.48,13.48,0,0,1,181.55,60Zm-1.94,0a11.68,11.68,0,0,0-1-5,7.51,7.51,0,0,0-2.67-3.2,7.2,7.2,0,0,0-7.68,0A7.54,7.54,0,0,0,165.6,55a11.61,11.61,0,0,0-1,5,11.76,11.76,0,0,0,1,5,7.6,7.6,0,0,0,2.68,3.2,6.78,6.78,0,0,0,3.84,1.12A6.86,6.86,0,0,0,176,68.27a7.46,7.46,0,0,0,2.68-3.2A11.55,11.55,0,0,0,179.61,60Z"/><path class="cls-2" d="M184.15,50.93V49.14H200v1.79h-6.91V71h-2v-20Z"/><path class="cls-2" d="M204.45,71V49.14h2v10h12.38v-10h2V71h-2v-10H206.44V71Z"/><path class="cls-2" d="M228.6,49.14V71h-2V49.14Z"/><path class="cls-2" d="M251.48,56h-2a6.38,6.38,0,0,0-.81-2.07,6.45,6.45,0,0,0-3.43-2.77,7,7,0,0,0-2.4-.4,6.85,6.85,0,0,0-3.76,1.08A7.51,7.51,0,0,0,236.36,55a11.49,11.49,0,0,0-1,5.09,11.56,11.56,0,0,0,1,5.12,7.54,7.54,0,0,0,2.72,3.15,7.24,7.24,0,0,0,6.16.67,6.59,6.59,0,0,0,2-1.1,6.26,6.26,0,0,0,1.45-1.67,6.38,6.38,0,0,0,.81-2.07h2a8.7,8.7,0,0,1-1,2.79,8.42,8.42,0,0,1-1.85,2.27,8.51,8.51,0,0,1-2.58,1.51,9.2,9.2,0,0,1-3.21.54A8.78,8.78,0,0,1,238,69.87,9.38,9.38,0,0,1,234.62,66,13.69,13.69,0,0,1,233.41,60a13.64,13.64,0,0,1,1.21-5.93A9.32,9.32,0,0,1,238,50.22a8.78,8.78,0,0,1,4.88-1.38,9.2,9.2,0,0,1,3.21.54,8.12,8.12,0,0,1,2.58,1.51,8.38,8.38,0,0,1,1.85,2.26A8.75,8.75,0,0,1,251.48,56Z"/><path class="cls-2" d="M264.61,71V49.14h7a8.1,8.1,0,0,1,3.88.83,5.57,5.57,0,0,1,2.35,2.31,7,7,0,0,1,.8,3.39,6.9,6.9,0,0,1-.8,3.36,5.43,5.43,0,0,1-2.34,2.28,8.19,8.19,0,0,1-3.86.82h-6V60.31h5.95a6.4,6.4,0,0,0,2.83-.56,3.8,3.8,0,0,0,1.7-1.61,5.75,5.75,0,0,0,0-5,3.82,3.82,0,0,0-1.69-1.66,6.24,6.24,0,0,0-2.87-.58h-5V71Zm9.62-9.84L279.6,71h-2.31L272,61.11Z"/><path class="cls-2" d="M301.42,60A13.5,13.5,0,0,1,300.21,66a9.35,9.35,0,0,1-3.34,3.9,9.34,9.34,0,0,1-9.77,0,9.26,9.26,0,0,1-3.33-3.9A13.5,13.5,0,0,1,282.56,60a13.48,13.48,0,0,1,1.21-5.92,9.28,9.28,0,0,1,3.34-3.9,9.32,9.32,0,0,1,9.76,0,9.35,9.35,0,0,1,3.34,3.9A13.48,13.48,0,0,1,301.42,60Zm-1.94,0a11.68,11.68,0,0,0-1-5,7.51,7.51,0,0,0-2.67-3.2,7.2,7.2,0,0,0-7.68,0,7.54,7.54,0,0,0-2.68,3.2,11.61,11.61,0,0,0-1,5,11.76,11.76,0,0,0,1,5,7.6,7.6,0,0,0,2.68,3.2A6.78,6.78,0,0,0,292,69.38a6.92,6.92,0,0,0,3.86-1.11,7.6,7.6,0,0,0,2.68-3.2A11.7,11.7,0,0,0,299.48,60Z"/><path class="cls-2" d="M320.78,49.14h2V63.58a7.58,7.58,0,0,1-1,4,7.41,7.41,0,0,1-2.9,2.76,9,9,0,0,1-4.32,1,8.84,8.84,0,0,1-4.32-1,7.49,7.49,0,0,1-2.91-2.75,7.67,7.67,0,0,1-1-4V49.14h2v14.3a6.13,6.13,0,0,0,.78,3.1,5.54,5.54,0,0,0,2.19,2.13,7.41,7.41,0,0,0,6.62,0A5.54,5.54,0,0,0,320,66.54a6.22,6.22,0,0,0,.77-3.1Z"/><path class="cls-2" d="M345.56,49.14V71h-1.94L330.73,52.68h-.17V71h-2V49.14h1.93l12.93,18.29h.17V49.14Z"/><path class="cls-2" d="M357.75,71h-6.39V49.14h6.77a10.36,10.36,0,0,1,5.34,1.3,8.44,8.44,0,0,1,3.41,3.72A13.21,13.21,0,0,1,368.06,60a13.17,13.17,0,0,1-1.21,5.89,8.64,8.64,0,0,1-3.51,3.76A11.09,11.09,0,0,1,357.75,71Zm-4.4-1.79h4.28a9.27,9.27,0,0,0,4.71-1.1,7,7,0,0,0,2.84-3.17,11.49,11.49,0,0,0,.95-4.9,12,12,0,0,0-.93-4.86A6.82,6.82,0,0,0,362.47,52,8.54,8.54,0,0,0,358,50.93h-4.66Z"/><path class="cls-2" d="M372.88,71V49.14h12.65v1.79H374.87v8.21h10v1.79h-10v8.23h10.87V71Z"/><path class="cls-2" d="M397.07,71h-6.39V49.14h6.77a10.36,10.36,0,0,1,5.34,1.3,8.44,8.44,0,0,1,3.41,3.72A13.21,13.21,0,0,1,407.38,60a13.17,13.17,0,0,1-1.21,5.89,8.58,8.58,0,0,1-3.51,3.76A11.09,11.09,0,0,1,397.07,71Zm-4.4-1.79H397a9.27,9.27,0,0,0,4.71-1.1,7,7,0,0,0,2.84-3.17,11.49,11.49,0,0,0,.95-4.9,11.8,11.8,0,0,0-.93-4.86A6.82,6.82,0,0,0,401.79,52a8.54,8.54,0,0,0-4.46-1.08h-4.66Z"/><path class="cls-2" d="M429.07,71V49.14h12.66v1.79H431.06v8.21h10v1.79h-10v8.23h10.88V71Z"/><path class="cls-2" d="M455.31,71V49.14h7a8.14,8.14,0,0,1,3.89.83,5.63,5.63,0,0,1,2.35,2.31,7,7,0,0,1,.79,3.39,6.89,6.89,0,0,1-.79,3.36,5.45,5.45,0,0,1-2.35,2.28,8.17,8.17,0,0,1-3.86.82h-6V60.31h5.94a6.44,6.44,0,0,0,2.84-.56,3.77,3.77,0,0,0,1.69-1.61,5.09,5.09,0,0,0,.56-2.47,5.33,5.33,0,0,0-.56-2.5,3.85,3.85,0,0,0-1.7-1.66,6.22,6.22,0,0,0-2.86-.58h-5V71Zm9.62-9.84L470.3,71H468l-5.32-9.84Z"/><path class="cls-2" d="M480.29,71.29a7.13,7.13,0,0,1-4-1.07,6.93,6.93,0,0,1-2.58-3,10,10,0,0,1-.92-4.38,10.15,10.15,0,0,1,.92-4.4,7.26,7.26,0,0,1,2.52-3A6.49,6.49,0,0,1,480,54.37a7,7,0,0,1,2.57.48,6.27,6.27,0,0,1,2.22,1.48,7,7,0,0,1,1.56,2.51,9.8,9.8,0,0,1,.58,3.56v.94H474.14V61.66H485a6.3,6.3,0,0,0-.63-2.84,5.08,5.08,0,0,0-1.76-2,4.92,4.92,0,0,0-5.33.09,5.68,5.68,0,0,0-1.85,2.2,6.76,6.76,0,0,0-.68,3v1a8,8,0,0,0,.68,3.41,5.18,5.18,0,0,0,1.92,2.25,5.38,5.38,0,0,0,3,.8,5.31,5.31,0,0,0,2-.36,4.45,4.45,0,0,0,1.48-1,4.23,4.23,0,0,0,.91-1.35l1.8.59a5.22,5.22,0,0,1-1.22,1.91,6.18,6.18,0,0,1-2.1,1.4A7.55,7.55,0,0,1,480.29,71.29Z"/><path class="cls-2" d="M497.34,77.43a9,9,0,0,1-2.93-.43,6.28,6.28,0,0,1-2.12-1.18A5.29,5.29,0,0,1,491,74.15l1.55-1a5.92,5.92,0,0,0,.94,1.21,4.6,4.6,0,0,0,1.55,1,6.2,6.2,0,0,0,2.35.4,5.41,5.41,0,0,0,3.51-1.09,4.09,4.09,0,0,0,1.33-3.38V67.58H502a6.41,6.41,0,0,1-.94,1.48,4.73,4.73,0,0,1-1.62,1.23,5.47,5.47,0,0,1-2.46.49,6.29,6.29,0,0,1-3.48-1A6.58,6.58,0,0,1,491.12,67a9.86,9.86,0,0,1-.87-4.31,10.65,10.65,0,0,1,.85-4.37,6.83,6.83,0,0,1,2.37-2.94A6.11,6.11,0,0,1,497,54.37a5.28,5.28,0,0,1,2.49.52,5,5,0,0,1,1.59,1.31,8.3,8.3,0,0,1,.95,1.51h.19V54.59h1.85V71.38a6.12,6.12,0,0,1-.88,3.42,5.3,5.3,0,0,1-2.41,2A8.82,8.82,0,0,1,497.34,77.43Zm-.13-8.38a4.63,4.63,0,0,0,2.69-.77,4.74,4.74,0,0,0,1.72-2.18,8.79,8.79,0,0,0,.6-3.4,9.26,9.26,0,0,0-.59-3.41,5.35,5.35,0,0,0-1.7-2.34,4.74,4.74,0,0,0-5.49,0,5.48,5.48,0,0,0-1.71,2.38,9.33,9.33,0,0,0-.57,3.34,8.73,8.73,0,0,0,.59,3.31,5,5,0,0,0,1.71,2.23A4.59,4.59,0,0,0,497.21,69.05Z"/><path class="cls-2" d="M519.52,64.7V54.59h1.89V71h-1.89V68.24h-.15a5.06,5.06,0,0,1-1.82,2.09,5.34,5.34,0,0,1-3,.84,5.54,5.54,0,0,1-2.78-.69,4.79,4.79,0,0,1-1.91-2,7.06,7.06,0,0,1-.69-3.27V54.59H511V65.07a4.23,4.23,0,0,0,1.13,3.09A3.86,3.86,0,0,0,515,69.32a4.48,4.48,0,0,0,2.13-.53,4.28,4.28,0,0,0,1.69-1.56A4.6,4.6,0,0,0,519.52,64.7Z"/><path class="cls-2" d="M528.32,49.14V71h-1.9V49.14Z"/><path class="cls-2" d="M537.89,71.33a6.32,6.32,0,0,1-2.7-.58,4.65,4.65,0,0,1-2-1.69,4.79,4.79,0,0,1-.73-2.68,4.21,4.21,0,0,1,.46-2,3.79,3.79,0,0,1,1.3-1.37,7.55,7.55,0,0,1,2-.84,20.91,20.91,0,0,1,2.54-.48l2.33-.3a4.24,4.24,0,0,0,1.45-.4.93.93,0,0,0,.5-.89v-.39a3.54,3.54,0,0,0-1-2.64,4,4,0,0,0-2.86-1,5,5,0,0,0-2.89.78,4.34,4.34,0,0,0-1.56,1.83L533,58a5.38,5.38,0,0,1,1.54-2.15,6.24,6.24,0,0,1,2.19-1.16,9,9,0,0,1,2.46-.35,8.53,8.53,0,0,1,2,.24,5.56,5.56,0,0,1,1.89.85,4.5,4.5,0,0,1,1.42,1.67,6,6,0,0,1,.54,2.71V71h-1.9V68.36H543a4.8,4.8,0,0,1-1,1.41,5.1,5.1,0,0,1-1.68,1.12A6,6,0,0,1,537.89,71.33Zm.26-1.74a4.93,4.93,0,0,0,2.62-.67,4.59,4.59,0,0,0,1.71-1.79,5.08,5.08,0,0,0,.6-2.45V62.31a1.85,1.85,0,0,1-.71.37,10.59,10.59,0,0,1-1.14.28c-.43.08-.85.15-1.28.21l-1.15.15a10.69,10.69,0,0,0-2.37.53,3.46,3.46,0,0,0-1.5,1,2.49,2.49,0,0,0-.52,1.63,2.76,2.76,0,0,0,1.07,2.31A4.28,4.28,0,0,0,538.15,69.59Z"/><path class="cls-2" d="M550,71V54.59h1.84V57.1H552a4.11,4.11,0,0,1,1.71-2,5.07,5.07,0,0,1,2.76-.77l.53,0,.47,0v1.93l-.44-.07a5.18,5.18,0,0,0-.7,0,4.67,4.67,0,0,0-2.27.54,4.07,4.07,0,0,0-1.57,1.48,4.14,4.14,0,0,0-.58,2.17V71Z"/></g></svg>