<svg xmlns="http://www.w3.org/2000/svg" viewBox="0 0 1152 648"><defs><style>.cls-1{fill:#ff5c35;}</style></defs><g id="Background"><rect width="1152" height="648"/></g><g id="Layer_1" data-name="Layer 1"><path class="cls-1" d="M49.32,121.64c-2.09,0-3-1-2.64-3.08L59,47.28a2.91,2.91,0,0,1,3.08-2.64H73a2.91,2.91,0,0,1,3.08,2.64l12.32,71.28c.33,2.09-.55,3.08-2.64,3.08H78.91A2.91,2.91,0,0,1,75.83,119l-1.54-8.69H59.55L58.12,119A2.91,2.91,0,0,1,55,121.64Zm12-21.89H72.53l-2.2-13.53c-1.54-9.9-2.64-18.81-3.41-26.73-.77,7.92-1.87,16.83-3.41,26.73Z"/><path class="cls-1" d="M104.76,47.5a2.56,2.56,0,0,1,2.86-2.86h15.95c5.72,0,9.13.66,12.76,3,3.85,2.2,5.72,7.26,5.72,14.85V67c0,8.14-2.42,13.2-7.37,15.07,5.39,2.09,8,7.15,8,15v6.49c0,7.59-2.09,12.76-5.94,15.07s-7.59,3.08-13.2,3.08H107.62a2.56,2.56,0,0,1-2.86-2.86Zm12.65,28.38h5.06c5.72,0,7.59-1.76,7.59-7.37V63.12c0-5.61-2-7.48-7.59-7.48h-5.06Zm0,11v23.76h5.06c5.61,0,7.59-2.09,7.59-7.7V94.36c0-5.61-2-7.48-7.59-7.48Z"/><path class="cls-1" d="M171.86,104.26c0,5.06,2.2,7.59,6.49,7.59s6.6-2.53,6.6-7.59v-11a2.56,2.56,0,0,1,2.86-2.86h5.94a2.56,2.56,0,0,1,2.86,2.86v9.24c0,13.53-6.27,20.35-18.7,20.35s-18.7-6.82-18.7-20.35V63.78c0-13.53,6.27-20.35,18.7-20.35s18.7,6.82,18.7,20.35v6.93a2.56,2.56,0,0,1-2.86,2.86h-5.94A2.56,2.56,0,0,1,185,70.71V62q0-7.59-6.6-7.59c-4.29,0-6.49,2.53-6.49,7.59Z"/><path class="cls-1" d="M217.4,121.64a2.56,2.56,0,0,1-2.86-2.86V47.5a2.56,2.56,0,0,1,2.86-2.86h15.07c13.31,0,19.91,6.38,19.91,19.14V102.5c0,12.76-6.6,19.14-19.91,19.14Zm9.79-11h4.73c5.61,0,7.81-2.09,7.81-7.81V63.45c0-5.72-2.2-7.81-7.81-7.81h-4.73Z"/><path class="cls-1" d="M283.84,87.1v23.54h14.74a2.56,2.56,0,0,1,2.86,2.86v5.28a2.56,2.56,0,0,1-2.86,2.86H274.05a2.56,2.56,0,0,1-2.86-2.86V47.5a2.56,2.56,0,0,1,2.86-2.86h24a2.56,2.56,0,0,1,2.86,2.86v5.28A2.56,2.56,0,0,1,298,55.64H283.84V76h12a2.56,2.56,0,0,1,2.86,2.86v5.39a2.56,2.56,0,0,1-2.86,2.86Z"/><path class="cls-1" d="M331.24,88.64v30.14a2.56,2.56,0,0,1-2.86,2.86h-6.93a2.56,2.56,0,0,1-2.86-2.86V47.5a2.56,2.56,0,0,1,2.86-2.86h23.21a2.56,2.56,0,0,1,2.86,2.86v5.28a2.56,2.56,0,0,1-2.86,2.86H331.24V77.53h11.22a2.56,2.56,0,0,1,2.86,2.86v5.39a2.56,2.56,0,0,1-2.86,2.86Z"/><path class="cls-1" d="M361.82,102.5V63.78c0-13.53,6.27-20.35,18.7-20.35s18.7,6.82,18.7,20.35v4a2.56,2.56,0,0,1-2.86,2.86h-5.94a2.56,2.56,0,0,1-2.86-2.86V62q0-7.59-6.6-7.59c-4.29,0-6.49,2.53-6.49,7.59v42.24c0,5.06,2.2,7.59,6.49,7.59s6.6-2.53,6.6-7.59V88.2h-3.74A2.56,2.56,0,0,1,381,85.34v-4.4a2.56,2.56,0,0,1,2.86-2.86h13a2.56,2.56,0,0,1,2.86,2.86v37.84c0,1.87-.88,2.86-2.64,2.86h-1.54a2.77,2.77,0,0,1-2.86-2.53l-.77-3.85c-2.2,5.06-6.82,7.59-13.75,7.59C367.21,122.85,361.82,116,361.82,102.5Z"/><path class="cls-1" d="M420.67,121.64a2.56,2.56,0,0,1-2.86-2.86V47.5a2.56,2.56,0,0,1,2.86-2.86h6.93a2.56,2.56,0,0,1,2.86,2.86V76h13.09V47.5a2.56,2.56,0,0,1,2.86-2.86h6.93a2.56,2.56,0,0,1,2.86,2.86v71.28a2.56,2.56,0,0,1-2.86,2.86h-6.93a2.56,2.56,0,0,1-2.86-2.86V87.1H430.46v31.68a2.56,2.56,0,0,1-2.86,2.86Z"/><path class="cls-1" d="M478.53,121.64a2.56,2.56,0,0,1-2.86-2.86V47.5a2.56,2.56,0,0,1,2.86-2.86h6.93a2.56,2.56,0,0,1,2.86,2.86v71.28a2.56,2.56,0,0,1-2.86,2.86Z"/><path class="cls-1" d="M503.83,93.26a2.56,2.56,0,0,1,2.86-2.86h5.94a2.56,2.56,0,0,1,2.86,2.86v11.33q0,7.26,6.6,7.26c4.51,0,6.49-2.31,6.49-7.26V47.5a2.56,2.56,0,0,1,2.86-2.86h6.93a2.56,2.56,0,0,1,2.86,2.86v56.1c0,12.87-6.27,19.25-18.7,19.25s-18.7-6.38-18.7-19.25Z"/><path class="cls-1" d="M563.12,121.64a2.56,2.56,0,0,1-2.86-2.86V47.5a2.56,2.56,0,0,1,2.86-2.86h6.93a2.56,2.56,0,0,1,2.86,2.86V81.05c1.43-3.85,4.18-10.45,8.36-20l6.6-14.3a3.17,3.17,0,0,1,3.3-2.09h6.27c2.09,0,3,1.21,2.09,3.3L586.66,77.09l13.75,41.25c.77,2.09-.22,3.3-2.31,3.3h-7a3.21,3.21,0,0,1-3.3-2.31l-9.24-29.15-5.61,10.89v17.71a2.56,2.56,0,0,1-2.86,2.86Z"/><path class="cls-1" d="M619.66,121.64a2.56,2.56,0,0,1-2.86-2.86V47.5a2.56,2.56,0,0,1,2.86-2.86h6.93a2.56,2.56,0,0,1,2.86,2.86v63.14h13.42a2.56,2.56,0,0,1,2.86,2.86v5.28a2.56,2.56,0,0,1-2.86,2.86Z"/><path class="cls-1" d="M663.33,121.64a2.56,2.56,0,0,1-2.86-2.86V47.5a2.56,2.56,0,0,1,2.86-2.86h12.21a2.94,2.94,0,0,1,3.19,2.53l5.83,29.26a199.31,199.31,0,0,1,3.08,20.46c.55-5.39,1.54-12.21,3.19-20.46l5.83-29.26a2.94,2.94,0,0,1,3.19-2.53H712a2.56,2.56,0,0,1,2.86,2.86v71.28a2.56,2.56,0,0,1-2.86,2.86h-6.6a2.56,2.56,0,0,1-2.86-2.86V84.9c0-6.27.22-14.3.77-24.09-1,7.15-2.31,15.18-4,24l-7,34.32a2.88,2.88,0,0,1-3.19,2.53h-4.62a2.88,2.88,0,0,1-3.19-2.53l-7-34.32c-1.65-8.8-3-16.83-4-24,.55,9.79.77,17.82.77,24.09v33.88a2.56,2.56,0,0,1-2.86,2.86Z"/><path class="cls-1" d="M764.2,47.5a2.56,2.56,0,0,1,2.86-2.86h4.84a2.56,2.56,0,0,1,2.86,2.86v71.28a2.56,2.56,0,0,1-2.86,2.86h-9.46a3,3,0,0,1-3.19-2.42L748.58,81.38c-.55-1.87-1.32-4.95-2.31-9.13l-2-8.47c.55,8.25.77,14.19.77,17.82v37.18a2.56,2.56,0,0,1-2.86,2.86h-5a2.56,2.56,0,0,1-2.86-2.86V47.5a2.56,2.56,0,0,1,2.86-2.86h11.22a3,3,0,0,1,3.19,2.42l9,31.35c1.32,5.39,2.75,11.22,4.18,17.71Q764.2,80,764.2,78.3Z"/><path class="cls-1" d="M792.91,63.78c0-13.53,6.38-20.35,19.14-20.35s19.25,6.82,19.25,20.35V102.5c0,13.53-6.38,20.35-19.25,20.35S792.91,116,792.91,102.5Zm12.65,40.48c0,5.06,2.2,7.59,6.49,7.59s6.6-2.53,6.6-7.59V62q0-7.59-6.6-7.59c-4.29,0-6.49,2.53-6.49,7.59Z"/><path class="cls-1" d="M862.1,95.57v23.21a2.56,2.56,0,0,1-2.86,2.86h-6.93a2.56,2.56,0,0,1-2.86-2.86V47.5a2.56,2.56,0,0,1,2.86-2.86h14.85c13.31,0,19.91,6.38,19.91,19.14V76.32c0,12.87-6.6,19.25-19.91,19.25Zm0-39.93V84.46h4.51c5.61,0,7.81-2.09,7.81-7.7V63.45c0-5.72-2.2-7.81-7.81-7.81Z"/><path class="cls-1" d="M902.25,102.5V63.78c0-13.53,6.37-20.35,19.13-20.35s19.25,6.82,19.25,20.35v44.44c0,2.2.66,3.3,2.09,3.3s2.09,1,2.09,2.86v5.17c0,2.53-1.1,3.3-4.06,3.3-3.86,0-6.61-1.43-8-4.4-2.86,3-7,4.4-12.54,4.4C908.18,122.85,902.25,116,902.25,102.5ZM928,104.26V62c0-5.06-2.19-7.59-6.6-7.59S914.89,57,914.89,62v42.24c0,5.06,2.2,7.59,6.49,7.59S928,109.32,928,104.26Z"/><path class="cls-1" d="M962.85,121.64a2.56,2.56,0,0,1-2.86-2.86V47.5a2.56,2.56,0,0,1,2.86-2.86H978.8c9.9,0,19.14,2.09,19.14,17.82v5.72c0,8.14-2.86,13.2-8.58,15.29,5.72,2.31,8.58,7.59,8.58,16v2.31c0,8.25.55,13.75,1.54,16.72.77,2.09,0,3.19-2.2,3.19H989.8c-1.87,0-2.86-.77-3.19-2.31a55,55,0,0,1-1.32-13.42v-5.72c0-8.69-2.2-11.22-9.57-11.22h-3.08v29.81a2.56,2.56,0,0,1-2.86,2.86Zm9.79-43.78h5.06c5.72,0,7.59-1.76,7.59-7.37V63.12c0-5.61-2-7.48-7.59-7.48h-5.06Z"/><path class="cls-1" d="M1014.66,102.5v-5a2.56,2.56,0,0,1,2.86-2.86h6.05a2.56,2.56,0,0,1,2.86,2.86v6.71c0,5.17,1.76,7.59,6.16,7.59s6.27-2.42,6.27-7.59v-1.65a12.46,12.46,0,0,0-3.19-9,33.18,33.18,0,0,0-7-6.16,45,45,0,0,1-7.7-6.71c-4.07-4.4-5.94-9.24-6.27-18.15v-.22c0-12.65,6.16-18.92,18.48-18.92s18.37,6.82,18.37,20.35v3a2.56,2.56,0,0,1-2.86,2.86h-6.05a2.56,2.56,0,0,1-2.86-2.86V62c0-5.17-1.76-7.59-6.16-7.59s-6.27,2.42-6.27,7.59v.66a13.36,13.36,0,0,0,1.65,6.6,20.92,20.92,0,0,0,3.3,4.62c1.21,1,3,2.42,5.28,4.07a45,45,0,0,1,7.7,6.71,23.18,23.18,0,0,1,3.3,4.73,29.06,29.06,0,0,1,3,13.31V104q0,18.81-18.48,18.81C1020.82,122.85,1014.66,116,1014.66,102.5Z"/><path class="cls-1" d="M1097.38,44.64a2.56,2.56,0,0,1,2.86,2.86v5.28a2.56,2.56,0,0,1-2.86,2.86h-8.8v63.14a2.56,2.56,0,0,1-2.86,2.86h-6.93a2.56,2.56,0,0,1-2.86-2.86V55.64h-8.8a2.56,2.56,0,0,1-2.86-2.86V47.5a2.56,2.56,0,0,1,2.86-2.86Z"/><path class="cls-1" d="M62.19,224.59q0,7.26,6.6,7.26c4.29,0,6.49-2.42,6.49-7.26V167.5a2.56,2.56,0,0,1,2.86-2.86h6a2.56,2.56,0,0,1,2.86,2.86v56.1c0,12.87-6.27,19.25-18.7,19.25s-18.81-6.38-18.81-19.25V167.5a2.56,2.56,0,0,1,2.86-2.86h6.93a2.56,2.56,0,0,1,2.86,2.86Z"/><path class="cls-1" d="M118,241.64a2.91,2.91,0,0,1-3.08-2.64l-12.32-71.28c-.33-2.09.55-3.08,2.64-3.08h7a2.91,2.91,0,0,1,3.08,2.64l5.5,32.78c1.21,7.7,2.2,15.4,3,23,.77-7.59,1.76-15.29,3-23l5.39-32.78a2.91,2.91,0,0,1,3.08-2.64h5.94c2.09,0,2.86,1,2.53,3.08L131.49,239a2.91,2.91,0,0,1-3.08,2.64Z"/><path class="cls-1" d="M170,241.64a2.73,2.73,0,0,1-3.08-2.64l-10.45-71.28a2.44,2.44,0,0,1,2.64-3.08h7.15a2.69,2.69,0,0,1,3,2.64l4.07,28.16c1.43,10.56,2.42,18.92,2.86,25,.44-7.48,1.32-15.84,2.75-25.08L183,167.28a2.69,2.69,0,0,1,3-2.64h7.26a2.69,2.69,0,0,1,3,2.64l4,28.16c1.32,9.35,2.2,17.71,2.75,25,.66-8.8,1.54-17.16,2.75-25.08l4.07-28.05a2.69,2.69,0,0,1,3-2.64h5.94a2.44,2.44,0,0,1,2.64,3.08L210.8,239a2.73,2.73,0,0,1-3.08,2.64h-9.79a2.69,2.69,0,0,1-3-2.64l-4.07-28.49c-1.1-8.25-1.87-15.29-2.2-21.12-.88,9.9-1.65,16.94-2.2,21.12l-4,28.49a2.69,2.69,0,0,1-3,2.64Z"/><path class="cls-1" d="M236.87,241.64c-2.2,0-3-1.1-2.42-3.19l11-36.41-10.23-34.21c-.55-2.09.22-3.19,2.42-3.19h6.93a3,3,0,0,1,3.19,2.42l3.52,12a137.8,137.8,0,0,1,3.63,14.85,143.22,143.22,0,0,1,3.63-14.85l3.52-12a3,3,0,0,1,3.19-2.42H271c2.2,0,3,1.1,2.42,3.19L263.16,202l10.89,36.41c.55,2.09-.22,3.19-2.42,3.19h-7a3,3,0,0,1-3.19-2.42l-4.07-14.41a137.24,137.24,0,0,1-3.63-14.74,141.89,141.89,0,0,1-3.63,14.74L246,239.22a3,3,0,0,1-3.19,2.42Z"/><path class="cls-1" d="M305.18,241.64a2.56,2.56,0,0,1-2.86-2.86V217.22L288,167.83c-.55-2.09.22-3.19,2.31-3.19h7.15a3,3,0,0,1,3.19,2.42l4.84,19a168.06,168.06,0,0,1,3.74,16.5q.66-4.78,3.63-16.5l4.73-19a3,3,0,0,1,3.19-2.42h5.94c2.2,0,3,1.1,2.42,3.19L315,216.45v22.33a2.56,2.56,0,0,1-2.86,2.86Z"/><path class="cls-1" d="M345.11,241.64a2.56,2.56,0,0,1-2.86-2.86v-3.52a11.65,11.65,0,0,1,.55-3.41l19.14-56.21H345.66a2.56,2.56,0,0,1-2.86-2.86V167.5a2.56,2.56,0,0,1,2.86-2.86h27.5A2.56,2.56,0,0,1,376,167.5v3.63a11.65,11.65,0,0,1-.55,3.41l-19.14,56.1h16.83A2.56,2.56,0,0,1,376,233.5v5.28a2.56,2.56,0,0,1-2.86,2.86Z"/><path class="cls-1" d="M48,348v-.88c0-5.72,1.54-10,5.06-13s5.28-3.74,9.79-5.83c2-.88,3.41-1.54,4.4-2.09,1.87-1,4.07-3.19,4.07-5.5v-.66c0-4.73-1.87-7.15-5.72-7.15s-5.83,2.42-5.83,7.15v1.32a2.56,2.56,0,0,1-2.86,2.86H52.18c-1.87,0-2.86-1-2.86-3,0-11.88,5.61-17.82,16.72-17.82s16.5,6.05,16.5,18v21.56a125,125,0,0,0,.66,15.51c.33,2.09-.44,3.08-2.53,3.08H75.61c-1.87,0-2.86-.77-3.19-2.42a26.08,26.08,0,0,1-.66-4.51,11.93,11.93,0,0,1-11.55,8.14Q48,362.85,48,348Zm23.32-2.42v-12l-2.53,1.21a26.76,26.76,0,0,0-6.6,3.85c-2.2,1.76-3.08,4.18-3.08,7.37v.77c0,4.95,1.87,6.6,5.5,6.6C68.57,353.39,71.32,350,71.32,345.58Z"/><path class="cls-1" d="M111.47,354.27l-1.32,5a3,3,0,0,1-3.19,2.42h-3.19a2.56,2.56,0,0,1-2.86-2.86V287.5a2.56,2.56,0,0,1,2.86-2.86h5.5a2.56,2.56,0,0,1,2.86,2.86v22.88c2.31-4.62,5.94-6.93,11.11-6.93q12.21,0,12.21,15.84V347q0,15.84-12.21,15.84A11.89,11.89,0,0,1,111.47,354.27Zm12.76-34.21c0-5.17-1.65-7-5.5-7s-6.6,3.41-6.6,7.81v24.64c0,4.4,2.75,7.81,6.6,7.81s5.5-1.87,5.5-7Z"/><path class="cls-1" d="M152.39,321.6q0-18.15,16.83-18.15t16.83,18.15v2.31c0,1.54-1,2.31-2.86,2.31h-4.62a2.56,2.56,0,0,1-2.86-2.86v-3.3c0-4.73-2-7-6.05-7s-6.16,2.31-6.16,7v26.18c0,4.73,2.09,7,6.16,7s6.05-2.31,6.05-7v-4.4a2.56,2.56,0,0,1,2.86-2.86h4.62a2.56,2.56,0,0,1,2.86,2.86v2.86q0,18.15-16.83,18.15T152.39,344.7Z"/><path class="cls-1" d="M230.05,361.64c-1.87,0-2.86-.77-3.19-2.42a39.82,39.82,0,0,1-.55-4.4,12,12,0,0,1-11.66,8q-12.21,0-12.21-15.84V319.29q0-15.84,12.21-15.84a11.62,11.62,0,0,1,11.22,7v-23a2.56,2.56,0,0,1,2.86-2.86h5.39A2.56,2.56,0,0,1,237,287.5v55.55c0,7.37.22,12.54.77,15.51.33,2.09-.55,3.08-2.64,3.08Zm-4.18-40.81c0-4.4-2.86-7.81-6.71-7.81s-5.5,1.87-5.5,7v26.18c0,5.17,1.65,7,5.5,7s6.71-3.41,6.71-7.81Z"/><path class="cls-1" d="M254.91,321.6q0-18.15,16.83-18.15t16.83,18.15v12a2.56,2.56,0,0,1-2.86,2.86H266v9.79c0,4.73,2.09,7,6.16,7s6.05-2.31,6.05-7v-.88a2.56,2.56,0,0,1,2.86-2.86h4.62a2.56,2.56,0,0,1,2.86,2.86q0,17.49-16.83,17.49T254.91,344.7ZM266,327.32h12.21v-7.26c0-4.73-2-7-6.05-7s-6.16,2.31-6.16,7Z"/><path class="cls-1" d="M310.79,361.64a2.56,2.56,0,0,1-2.86-2.86V314.23h-2a2.56,2.56,0,0,1-2.86-2.86v-3.85c0-1.87.77-2.86,2.42-2.86h2.42V297c0-9.35,4.07-13.53,13.31-13.53a30.77,30.77,0,0,1,5.28.55,2.75,2.75,0,0,1,2.42,3.08v3.41c0,1.87-.77,2.86-2.42,2.53-1-.11-1.87-.22-2.53-.22-3.52,0-4.95,1.65-4.95,5.94v5.94h7a2.56,2.56,0,0,1,2.86,2.86v3.85a2.56,2.56,0,0,1-2.86,2.86h-7v44.55a2.56,2.56,0,0,1-2.86,2.86Z"/><path class="cls-1" d="M355.44,376.71c-9.13,0-13.75-3.41-13.75-10.23,0-3.85,1.54-6.49,4.51-8.14-2.09-1.65-3.08-4.18-3.08-7.59,0-4.29,1.65-7.37,4.95-9.13-4.51-2.31-6.71-7.15-6.71-14.52v-7.26c0-12,5.39-16.39,16.83-16.39,7.15,0,11.89,2,14.41,5.83q1-4.62,5.28-4.62h.33a2.33,2.33,0,0,1,2.64,2.64v4.07c0,1.65-.55,2.53-1.76,2.53h-1.21c-1.42,0-2.09,1-2.09,3.08V327.1c0,12-5.71,16.5-17.27,16.5-1.21,0-2.75-.11-4.62-.22a3.26,3.26,0,0,0-1.65,3.19c0,2.2,1.21,3.3,3.52,3.3h10.45c10.12,0,14.63,4.4,14.63,13.31s-5.6,13.53-16.72,13.53Zm7.15-6.49c5.17,0,7.16-1.32,7.16-5s-1.66-4.73-5.62-4.73h-8.8c-3.41,0-4.84,2.09-4.84,4.73,0,3.52,1.54,5,6.93,5Zm2-51.59c0-4.73-2-7.15-6.05-7.15s-6,2.42-6,7.15v9.68c0,4.73,2,7,6,7s6.05-2.31,6.05-7Z"/><path class="cls-1" d="M430.57,358.78a2.56,2.56,0,0,1-2.86,2.86h-5.5a2.56,2.56,0,0,1-2.86-2.86V320.06c0-5.17-1.65-7-5.5-7-3.63,0-6.6,3.52-6.6,7.81v37.95a2.56,2.56,0,0,1-2.86,2.86h-5.5a2.56,2.56,0,0,1-2.86-2.86V287.5a2.56,2.56,0,0,1,2.86-2.86h5.5a2.56,2.56,0,0,1,2.86,2.86v22.88c2.31-4.62,5.94-6.93,11.11-6.93q12.21,0,12.21,15.84Z"/><path class="cls-1" d="M460.16,293.22a2.56,2.56,0,0,1-2.86,2.86h-5.5a2.56,2.56,0,0,1-2.86-2.86V287.5a2.56,2.56,0,0,1,2.86-2.86h5.5a2.56,2.56,0,0,1,2.86,2.86Zm0,65.56a2.56,2.56,0,0,1-2.86,2.86h-5.5a2.56,2.56,0,0,1-2.86-2.86V307.52a2.56,2.56,0,0,1,2.86-2.86h5.5a2.56,2.56,0,0,1,2.86,2.86Z"/><path class="cls-1" d="M475.89,376.27c-1.65-.22-2.42-1.21-2.42-3.08v-3c0-2.09.44-2.75,2.31-2.75,2.31,0,3.3-1.1,3.3-4.07V307.52a2.56,2.56,0,0,1,2.86-2.86h5.5a2.56,2.56,0,0,1,2.86,2.86v56.54c0,8.8-3.52,12.43-11.77,12.43A21.36,21.36,0,0,1,475.89,376.27Zm6.05-80.19a2.56,2.56,0,0,1-2.86-2.86V287.5a2.56,2.56,0,0,1,2.86-2.86h5.5a2.56,2.56,0,0,1,2.86,2.86v5.72a2.56,2.56,0,0,1-2.86,2.86Z"/><path class="cls-1" d="M512.08,361.64a2.56,2.56,0,0,1-2.86-2.86V287.5a2.56,2.56,0,0,1,2.86-2.86h5.5a2.56,2.56,0,0,1,2.86,2.86v43.67a146.11,146.11,0,0,1,6.6-13.09l6.49-11.44a3.68,3.68,0,0,1,3.41-2h4.51c2.2,0,3,1.54,2,3.41l-11,20.35L545,358.34c.77,1.87-.11,3.3-2.2,3.3h-5.61a3.25,3.25,0,0,1-3.3-2.2l-8.69-21.23-4.73,8.14v12.43a2.56,2.56,0,0,1-2.86,2.86Z"/><path class="cls-1" d="M572.47,358.78a2.56,2.56,0,0,1-2.86,2.86h-5.5a2.56,2.56,0,0,1-2.86-2.86V287.5a2.56,2.56,0,0,1,2.86-2.86h5.5a2.56,2.56,0,0,1,2.86,2.86Z"/><path class="cls-1" d="M594.25,361.64a2.56,2.56,0,0,1-2.86-2.86V307.52a2.56,2.56,0,0,1,2.86-2.86H599a2.56,2.56,0,0,1,2.86,2.86v4.73a11.64,11.64,0,0,1,11.55-8.8c5.83,0,9.46,2.75,10.89,8.36a12,12,0,0,1,11.66-8.36q11.88,0,11.88,15.84v39.49a2.56,2.56,0,0,1-2.86,2.86h-5.5a2.56,2.56,0,0,1-2.86-2.86V320.06c0-5.28-1.54-7-5.17-7-3.85,0-6.27,3.3-6.27,7.81v37.95a2.56,2.56,0,0,1-2.86,2.86h-5.39a2.56,2.56,0,0,1-2.86-2.86V320.06c0-5.28-1.54-7-5.17-7-3.85,0-6.27,3.3-6.27,7.81v37.95a2.56,2.56,0,0,1-2.86,2.86Z"/><path class="cls-1" d="M669.05,361.64a2.56,2.56,0,0,1-2.86-2.86V307.52a2.56,2.56,0,0,1,2.86-2.86h4.73a2.56,2.56,0,0,1,2.86,2.86v4.84a12.18,12.18,0,0,1,11.88-8.91q12.21,0,12.21,15.84v39.49a2.56,2.56,0,0,1-2.86,2.86h-5.5a2.56,2.56,0,0,1-2.86-2.86V320.06c0-5.17-1.65-7-5.5-7s-6.6,3.41-6.6,7.81v37.95a2.56,2.56,0,0,1-2.86,2.86Z"/><path class="cls-1" d="M718.11,344.7V321.6c0-12.1,5.72-18.15,17.27-18.15s17.16,6.05,17.16,18.15v23.1q0,18.15-17.16,18.15C723.83,362.85,718.11,356.8,718.11,344.7Zm23.32,1.54V320.06c0-4.73-2-7-6-7s-6.16,2.31-6.16,7v26.18c0,4.73,2.09,7,6.16,7S741.43,351,741.43,346.24Z"/><path class="cls-1" d="M781.69,372.64a2.56,2.56,0,0,1-2.86,2.86h-5.5a2.56,2.56,0,0,1-2.86-2.86V307.52a2.56,2.56,0,0,1,2.86-2.86h4.73a2.56,2.56,0,0,1,2.86,2.86v4.84a12.18,12.18,0,0,1,11.88-8.91q12.21,0,12.21,15.84V347q0,15.84-12.21,15.84c-5.17,0-8.8-2.31-11.11-6.93Zm0-27.17c0,4.4,2.75,7.81,6.6,7.81s5.5-1.87,5.5-7V320.06c0-5.17-1.65-7-5.5-7s-6.6,3.41-6.6,7.81Z"/><path class="cls-1" d="M848.24,375.5a2.56,2.56,0,0,1-2.86-2.86V355.81a11.62,11.62,0,0,1-11.22,7Q822,362.85,822,347V319.29q0-15.84,12.21-15.84A12.31,12.31,0,0,1,846,312.14l1.21-5.06a3,3,0,0,1,3.19-2.42h3.19a2.56,2.56,0,0,1,2.86,2.86v65.12a2.56,2.56,0,0,1-2.86,2.86Zm-2.86-54.67c0-4.4-2.86-7.81-6.71-7.81s-5.5,1.87-5.5,7v26.18c0,5.17,1.65,7,5.5,7s6.71-3.41,6.71-7.81Z"/><path class="cls-1" d="M878.27,361.64a2.56,2.56,0,0,1-2.86-2.86V307.52a2.56,2.56,0,0,1,2.86-2.86H883a2.56,2.56,0,0,1,2.86,2.86v4.73a12,12,0,0,1,11.77-8.8c7.37,0,11.11,4.07,11.11,15.51v12a2.56,2.56,0,0,1-2.86,2.86h-4.62A2.56,2.56,0,0,1,898.4,331V320.06c0-5.28-1.65-7-5.28-7-3.85,0-6.49,3.41-6.49,7.81v37.95a2.56,2.56,0,0,1-2.86,2.86Z"/><path class="cls-1" d="M923.36,345.58a2.56,2.56,0,0,1,2.86-2.86h4.62a2.57,2.57,0,0,1,2.87,2.86v1.1c0,4.84,2,7.26,5.82,7.26s5.94-2.31,5.94-6.82v-1c0-4-2.53-5.5-8.36-8-4.29-1.87-5.94-2.75-9.13-5.5s-4.62-6.93-4.62-12.65v-.22c0-10.89,6.06-16.28,16.72-16.28,11,0,16.5,5.5,16.5,16.61a2.56,2.56,0,0,1-2.86,2.86H949.1a2.55,2.55,0,0,1-2.85-2.86v-.44c0-4.84-2-7.26-5.83-7.26s-5.95,2.31-5.95,6.82v.66A6.11,6.11,0,0,0,937,325a28.22,28.22,0,0,0,5.83,3.08,27,27,0,0,1,7.48,4.07c4.07,2.75,5.94,6.71,6.27,14v.33c0,10.89-5.94,16.39-16.61,16.39C928.86,362.85,923.36,357.13,923.36,345.58Z"/><path class="cls-1" d="M975.72,349.76V314.23h-2a2.56,2.56,0,0,1-2.86-2.86v-3.85a2.56,2.56,0,0,1,2.86-2.86h2v-9.35a2.56,2.56,0,0,1,2.86-2.86H984a2.56,2.56,0,0,1,2.86,2.86v9.35h5.28a2.56,2.56,0,0,1,2.86,2.86v3.85a2.56,2.56,0,0,1-2.86,2.86h-5.28v34c0,2.86,1.32,4.29,3.85,4.29h1.54c1.87,0,2.75.88,2.75,2.53v4q0,2.64-2.31,3a37.41,37.41,0,0,1-4.95.33C979.24,362.3,975.72,358.89,975.72,349.76Z"/><path class="cls-1" d="M1009.93,347V307.52a2.56,2.56,0,0,1,2.86-2.86h5.39a2.56,2.56,0,0,1,2.86,2.86v38.72c0,5.17,1.65,7,5.5,7s6.71-3.41,6.71-7.81v-38a2.56,2.56,0,0,1,2.86-2.86h5.39a2.56,2.56,0,0,1,2.86,2.86v35.53c0,7.37.22,12.54.77,15.51.33,2.09-.55,3.08-2.64,3.08h-5c-1.87,0-2.86-.77-3.19-2.42a22,22,0,0,1-.66-4.4,12.08,12.08,0,0,1-11.66,8C1014,362.85,1009.93,357.57,1009.93,347Z"/><path class="cls-1" d="M1074.06,361.64a2.88,2.88,0,0,1-3.19-2.53l-11-51.26a2.42,2.42,0,0,1,2.53-3.19h5.72a2.94,2.94,0,0,1,3.19,2.53l4.73,23.87a168.1,168.1,0,0,1,2.75,18.48c.88-7.15,1.87-13.31,2.86-18.48l4.73-23.87a2.94,2.94,0,0,1,3.19-2.53h4.73a2.42,2.42,0,0,1,2.53,3.19l-11,51.26a2.88,2.88,0,0,1-3.19,2.53Z"/><path class="cls-1" d="M59.22,481.64a2.9,2.9,0,0,1-3.08-2.53l-9.79-51.37c-.33-2.09.55-3.08,2.64-3.08h5.72a2.91,2.91,0,0,1,3.08,2.64L62,451.17a167.21,167.21,0,0,1,2.09,17.05c.55-5.94,1.21-11.66,2.2-17.05l4.07-23.87a2.91,2.91,0,0,1,3.08-2.64h6.38a2.91,2.91,0,0,1,3.08,2.64l4.18,23.87c.88,5.61,1.54,11.33,2.09,17.05.33-4.4,1-10.12,2.09-17.05l4.18-23.87a2.91,2.91,0,0,1,3.08-2.64h4.73c2.09,0,3,1,2.64,3.08l-9.68,51.37a2.9,2.9,0,0,1-3.08,2.53H84.85A2.91,2.91,0,0,1,81.77,479l-3.52-20.13c-.66-3.85-1.43-9.35-2.2-16.5-.55,6.05-1.21,11.55-2.09,16.5L70.44,479a2.91,2.91,0,0,1-3.08,2.64Z"/><path class="cls-1" d="M120.82,481.64c-2.09,0-3.08-1.43-2.31-3.3l10.12-26.51L119.5,428c-.77-1.87.11-3.3,2.2-3.3h5.83a3.09,3.09,0,0,1,3.19,2.31l1.87,5.06a117.9,117.9,0,0,1,4.18,13.64A129.1,129.1,0,0,1,141,432l1.87-5.06a3.09,3.09,0,0,1,3.19-2.31h4.62c2.09,0,3,1.43,2.2,3.3l-9.13,23.87,10.12,26.51c.77,1.87-.11,3.3-2.2,3.3h-5.94a3.21,3.21,0,0,1-3.3-2.31l-2.86-7.7a125.18,125.18,0,0,1-4-13.09,84.55,84.55,0,0,1-4,13.09l-2.86,7.7a3.21,3.21,0,0,1-3.3,2.31Z"/><path class="cls-1" d="M172.63,496.27q-2.64-.16-2.64-3v-3.08c0-1.87.77-2.75,2.2-2.64a14,14,0,0,0,2.2.11c3,0,4.4-1.54,4.4-4.51a12.33,12.33,0,0,0-.33-2.64l-11.88-52.69a2.42,2.42,0,0,1,2.53-3.19h5.72a2.94,2.94,0,0,1,3.19,2.53l4.73,23.87a168.1,168.1,0,0,1,2.75,18.48c.88-7.15,1.87-13.31,2.86-18.48l4.73-23.87a2.94,2.94,0,0,1,3.19-2.53H201a2.42,2.42,0,0,1,2.53,3.19l-12.32,57.64c-1.65,7.59-5.5,11-14.85,11C175.49,496.49,174.28,496.38,172.63,496.27Z"/><path class="cls-1" d="M220.48,434.23a2.56,2.56,0,0,1-2.86-2.86v-3.85a2.56,2.56,0,0,1,2.86-2.86h24.86a2.56,2.56,0,0,1,2.86,2.86v3.63a9.68,9.68,0,0,1-.88,3.52l-18.7,37.4h16.72a2.56,2.56,0,0,1,2.86,2.86v3.85a2.56,2.56,0,0,1-2.86,2.86H219.27a2.56,2.56,0,0,1-2.86-2.86v-3.63a9.68,9.68,0,0,1,.88-3.52l18.7-37.4Z"/><path class="cls-1" d="M57,601.64a2.56,2.56,0,0,1-2.86-2.86v-60.5H50.42a2.56,2.56,0,0,1-2.86-2.86v-3.85a2.56,2.56,0,0,1,2.86-2.86H53c3,0,4.84-1,5.83-2.86.77-1.65,1.87-2.42,3.19-2.42h.55a2.56,2.56,0,0,1,2.86,2.86v72.49a2.56,2.56,0,0,1-2.86,2.86Z"/><path class="cls-1" d="M86.5,601.64a2.56,2.56,0,0,1-2.86-2.86V591.3c0-6.71,1.43-12.21,4.18-16.72a47.61,47.61,0,0,1,4-5.61c1.21-1.43,2.75-3.08,4.73-5.06a69.55,69.55,0,0,0,5.28-5.72A24.34,24.34,0,0,0,107,543.78v-3.41c0-5-2-7.37-6-7.37s-6.16,2.42-6.16,7.37v10.34a2.56,2.56,0,0,1-2.86,2.86H87.27a2.56,2.56,0,0,1-2.86-2.86v-8.8q0-18.48,16.83-18.48c11.33,0,16.94,6.16,16.94,18.48v1.32A31.57,31.57,0,0,1,116,555a34,34,0,0,1-4.29,8.14c-1.43,1.76-3.63,4.07-6.38,6.93-2.31,2.42-4.07,4.29-5.28,5.72a24.62,24.62,0,0,0-5.28,14.3v.44h19.91a2.56,2.56,0,0,1,2.86,2.86v5.39a2.56,2.56,0,0,1-2.86,2.86Z"/><path class="cls-1" d="M133.47,576.56a2.56,2.56,0,0,1,2.86-2.86H141a2.56,2.56,0,0,1,2.86,2.86v9.35c0,5,2,7.37,6.05,7.37s6.16-2.42,6.16-7.37V573.59c0-5-2.09-7.37-6.16-7.37h-3.19a2.56,2.56,0,0,1-2.86-2.86v-3.85a2.56,2.56,0,0,1,2.86-2.86h3.19c4.07,0,6.16-2.42,6.16-7.37v-8.91c0-5-2.09-7.37-6.16-7.37s-6.05,2.42-6.05,7.37v5.94a2.56,2.56,0,0,1-2.86,2.86h-4.62a2.56,2.56,0,0,1-2.86-2.86v-4.62c0-12.21,5.61-18.26,16.83-18.26s16.83,6.05,16.83,18.26v4.62q0,12.54-8.25,15.18c5.5,1.76,8.25,6.82,8.25,15.07v7.92c0,12.21-5.61,18.37-16.83,18.37s-16.83-6.16-16.83-18.37Z"/><path class="cls-1" d="M216.63,575.79c1.65,0,2.42,1,2.42,2.86v5.28c0,1.87-.77,2.86-2.42,2.86h-2.42v12a2.56,2.56,0,0,1-2.86,2.86h-5.5a2.56,2.56,0,0,1-2.86-2.86v-12H184.84a2.56,2.56,0,0,1-2.86-2.86v-4.62a10.88,10.88,0,0,1,.66-3.41L201.23,527a3.21,3.21,0,0,1,3.3-2.31h6.82a2.56,2.56,0,0,1,2.86,2.86v48.29Zm-24.2,0H203V563.14a192.35,192.35,0,0,1,1.43-25q-2.47,10.07-6.6,22.11Z"/><path class="cls-1" d="M234.89,577.11a2.56,2.56,0,0,1,2.86-2.86h4.62a2.56,2.56,0,0,1,2.86,2.86v8.8c0,5,2,7.37,6.05,7.37s6.16-2.42,6.16-7.37V561.38c0-5.28-1.87-7-5.5-7-4,0-6.71,3.3-6.71,7.7v1.54a2.56,2.56,0,0,1-2.86,2.86h-4.62a2.56,2.56,0,0,1-2.86-2.86V527.5a2.56,2.56,0,0,1,2.86-2.86h27.17a2.56,2.56,0,0,1,2.86,2.86v5.39a2.56,2.56,0,0,1-2.86,2.86H245.23v16c2.31-4.73,5.94-7,11.11-7,8.14,0,12.21,5.28,12.21,16v23.76q0,18.48-16.83,18.48t-16.83-18.48Z"/><path class="cls-1" d="M285.38,584.7V541.91q0-18.48,16.83-18.48T319,541.91c0,1.87-1,2.75-2.86,2.75h-4.62a2.56,2.56,0,0,1-2.86-2.86v-1.43c0-5-2-7.37-6.05-7.37s-6.16,2.42-6.16,7.37v16.94a11.62,11.62,0,0,1,11.22-7c8,0,12.1,5.28,12.1,16V584.7q0,18.15-17.16,18.15C291.1,602.85,285.38,596.8,285.38,584.7Zm23.32,1.54V567c0-5.28-1.87-7-5.5-7-3.85,0-6.71,3.41-6.71,7.7v18.59c0,4.73,2.09,7,6.16,7S308.7,591,308.7,586.24Z"/><path class="cls-1" d="M338,535.75a2.56,2.56,0,0,1-2.86-2.86V527.5a2.56,2.56,0,0,1,2.86-2.86H365.9a2.56,2.56,0,0,1,2.86,2.86v4.29a14.51,14.51,0,0,1-.55,3.41l-20,64a3,3,0,0,1-3.3,2.42h-6.38c-2.09,0-3.08-1.21-2.31-3.3l21.67-62.59Z"/><path class="cls-1" d="M417.6,546.31c0,7.92-2.64,13-7.92,15.07q7.92,3.3,7.92,15.18v8.58c0,11.77-5.72,17.71-17.27,17.71s-17.27-5.94-17.27-17.71v-8.58c0-7.92,2.64-13,7.81-15.18-5.17-2.09-7.81-7.15-7.81-15.07v-5.17c0-11.77,5.72-17.71,17.27-17.71s17.27,5.94,17.27,17.71ZM406.38,549v-8.8c0-4.73-2-7.15-6.05-7.15s-6.16,2.42-6.16,7.15V549c0,5.39,1.43,7.7,6.16,7.7C404.84,556.65,406.38,554.34,406.38,549Zm-12.21,25v12.32c0,4.73,2.09,7,6.16,7s6.05-2.31,6.05-7V573.92c0-5.39-1.54-7.7-6.05-7.7C395.6,566.22,394.17,568.31,394.17,573.92Z"/><path class="cls-1" d="M433.33,541.58c0-12.1,5.72-18.15,17.27-18.15s17.27,6.05,17.27,18.15v42.79c0,12.32-5.61,18.48-16.94,18.48s-16.83-6.16-16.83-18.48v-1a2.56,2.56,0,0,1,2.86-2.86h4.62a2.56,2.56,0,0,1,2.86,2.86v2.53c0,5,2.09,7.37,6.16,7.37s6-2.42,6-7.37V568c-2.31,4.62-5.94,6.93-11.11,6.93-8.14,0-12.21-5.28-12.21-15.95ZM456.65,540c0-4.73-2-7-6-7s-6.16,2.31-6.16,7v18.15c0,5.28,1.87,7,5.5,7,4,0,6.71-3.3,6.71-7.7Z"/><path class="cls-1" d="M484.59,584.7V541.58c0-12.1,5.72-18.15,17.27-18.15S519,529.48,519,541.58V584.7q0,18.15-17.16,18.15C490.31,602.85,484.59,596.8,484.59,584.7Zm23.32,1.54V540c0-4.73-2-7-6.05-7s-6.16,2.31-6.16,7v46.2c0,4.73,2.09,7,6.16,7S507.91,591,507.91,586.24Z"/><path class="cls-1" d="M544.43,550.71a2.56,2.56,0,0,1-2.86,2.86H537a2.56,2.56,0,0,1-2.86-2.86v-8.8q0-18.48,16.83-18.48c11.33,0,16.94,6.16,16.94,18.48v2.75a26.92,26.92,0,0,1-1.32,8.8A18.49,18.49,0,0,1,564,559c-.88,1.1-2.2,2.53-3.85,4.4a42.26,42.26,0,0,0-3.41,4c-1.65,2.09-3.41,6.38-3.41,11.66v.55a2.56,2.56,0,0,1-2.86,2.86h-1.32a2.56,2.56,0,0,1-2.86-2.86v-2.86a41,41,0,0,1,.88-8.8,22.91,22.91,0,0,1,2-5.5c.66-1.1,1.54-2.42,2.75-4.07l2.31-3.52c1.21-1.76,2.42-5.94,2.42-10.78v-3.63c0-5-2-7.37-6-7.37s-6.16,2.42-6.16,7.37Zm2.64,50.93a2.56,2.56,0,0,1-2.86-2.86v-8a2.56,2.56,0,0,1,2.86-2.86h5.39a2.56,2.56,0,0,1,2.86,2.86v8a2.56,2.56,0,0,1-2.86,2.86Z"/><path class="cls-1" d="M583.48,601.64c-2.09,0-3.08-1.21-2.31-3.3L605,527a3.09,3.09,0,0,1,3.19-2.31h5.39c2.09,0,3.08,1.21,2.31,3.3l-23.87,71.39a3.09,3.09,0,0,1-3.19,2.31Z"/><path class="cls-1" d="M634,582.61c-1.65.77-2.86,0-2.86-1.87V575.9A3,3,0,0,1,633,573l22.11-10L633,553a2.94,2.94,0,0,1-1.87-2.75v-4.62c0-1.87,1.21-2.64,2.86-1.87l29.81,14a2.8,2.8,0,0,1,1.76,2.86v5.17a2.8,2.8,0,0,1-1.76,2.86Z"/><path class="cls-1" d="M686.55,611.65a2.56,2.56,0,0,1-2.86-2.86V524.53a2.56,2.56,0,0,1,2.86-2.86h16.94a2.56,2.56,0,0,1,2.86,2.86v2.86a2.56,2.56,0,0,1-2.86,2.86h-8.14v72.93h8.14a2.56,2.56,0,0,1,2.86,2.86v2.75a2.56,2.56,0,0,1-2.86,2.86Z"/><path class="cls-1" d="M719.22,611.65a2.56,2.56,0,0,1-2.86-2.86V606a2.56,2.56,0,0,1,2.86-2.86h8.14V530.25h-8.14a2.56,2.56,0,0,1-2.86-2.86v-2.86a2.56,2.56,0,0,1,2.86-2.86h16.94a2.56,2.56,0,0,1,2.86,2.86v84.26a2.56,2.56,0,0,1-2.86,2.86Z"/><path class="cls-1" d="M778.07,612.75c-11.44,0-18.26-3.85-18.26-16.61a45.75,45.75,0,0,1,1-8.8,41.68,41.68,0,0,0,.88-8c0-4.51-1.21-5.83-5.28-5.83-1.87,0-2.75-1-2.75-2.86v-4.18c0-1.87.88-2.86,2.75-2.86,4.07,0,5.28-1.32,5.28-5.83a41.68,41.68,0,0,0-.88-8,45.75,45.75,0,0,1-1-8.8c0-12.76,6.82-16.61,18.26-16.61h1.21a2.56,2.56,0,0,1,2.86,2.86V530c0,1.87-.77,2.86-2.42,2.86-6.16,0-8.36,2.42-8.36,8.47a35.38,35.38,0,0,0,.88,7.37,35.91,35.91,0,0,1,1,7.59c0,6.49-2.09,10.56-6.38,12.21,4.29,1.65,6.38,5.72,6.38,12.21a35.91,35.91,0,0,1-1,7.59,35.38,35.38,0,0,0-.88,7.37c0,6,2.2,8.47,8.36,8.47,1.65,0,2.42,1,2.42,2.86v2.86a2.56,2.56,0,0,1-2.86,2.86Z"/><path class="cls-1" d="M794.79,612.75a2.56,2.56,0,0,1-2.86-2.86V607c0-1.87.77-2.86,2.42-2.86,6.16,0,8.36-2.42,8.36-8.47a35.38,35.38,0,0,0-.88-7.37,35.91,35.91,0,0,1-1-7.59c0-6.49,2.09-10.56,6.38-12.21-4.29-1.65-6.38-5.72-6.38-12.21a35.91,35.91,0,0,1,1-7.59,35.38,35.38,0,0,0,.88-7.37c0-6.05-2.2-8.47-8.36-8.47-1.65,0-2.42-1-2.42-2.86v-2.86a2.56,2.56,0,0,1,2.86-2.86H796c11.44,0,18.26,3.85,18.26,16.61a45.75,45.75,0,0,1-1,8.8,41.68,41.68,0,0,0-.88,8c0,4.51,1.21,5.83,5.28,5.83,1.87,0,2.75,1,2.75,2.86v4.18c0,1.87-.88,2.86-2.75,2.86-4.07,0-5.28,1.32-5.28,5.83a41.68,41.68,0,0,0,.88,8,45.75,45.75,0,0,1,1,8.8c0,12.76-6.82,16.61-18.26,16.61Z"/><path class="cls-1" d="M833.73,544.55c0-13.31,6-19.91,18.15-19.91h1.65a2.56,2.56,0,0,1,2.86,2.86v2.75c0,1.87-.88,2.86-2.75,2.86-6.27,0-8.36,2.75-8.36,9.9v50.27c0,7.15,2.09,9.9,8.36,9.9,1.87,0,2.75,1,2.75,2.86v2.75a2.56,2.56,0,0,1-2.86,2.86h-1.65c-12.1,0-18.15-6.6-18.15-19.91Z"/><path class="cls-1" d="M888.84,591.74c0,13.31-6.05,19.91-18.15,19.91H869a2.56,2.56,0,0,1-2.86-2.86V606c0-1.87.88-2.86,2.75-2.86,6.27,0,8.36-2.75,8.36-9.9V543c0-7.15-2.09-9.9-8.36-9.9-1.87,0-2.75-1-2.75-2.86V527.5a2.56,2.56,0,0,1,2.86-2.86h1.65c12.1,0,18.15,6.6,18.15,19.91Z"/><path class="cls-1" d="M909.74,601.64a2.56,2.56,0,0,1-2.86-2.86v-11a2.56,2.56,0,0,1,2.86-2.86h5.5a2.56,2.56,0,0,1,2.86,2.86v11a2.56,2.56,0,0,1-2.86,2.86Z"/><path class="cls-1" d="M950.11,552.25l-2.53,27.39a2.61,2.61,0,0,1-3,2.75h-1.54a2.71,2.71,0,0,1-3-2.75l-2.64-27.39V527.5a2.56,2.56,0,0,1,2.86-2.86h6.93a2.56,2.56,0,0,1,2.86,2.86Zm-9.35,49.39a2.56,2.56,0,0,1-2.86-2.86v-7.26a2.56,2.56,0,0,1,2.86-2.86H947a2.56,2.56,0,0,1,2.86,2.86v7.26a2.56,2.56,0,0,1-2.86,2.86Z"/></g></svg>