<svg xmlns="http://www.w3.org/2000/svg" viewBox="0 0 648 648"><g id="Layer_1" data-name="Layer 1"><path d="M284.8,308.35a.67.67,0,0,1-.57-.41,1.65,1.65,0,0,1-.25-.9q0-17.13-4.61-78.07c-.11-.77.82-2.19,2.8-4.28a13.34,13.34,0,0,1,5.93-3.95,4.94,4.94,0,0,1,1.48-.17,4.64,4.64,0,0,1,3.13,1.15l2-3.29q4.44-7.08,7.32-11.12a32.79,32.79,0,0,1,6.76-7,13.44,13.44,0,0,1,8.31-3,12.6,12.6,0,0,1,3.63.49q7.25,2,11.61,10.13a37.62,37.62,0,0,1,4.36,18,33.33,33.33,0,0,1-1.81,11.52,15.44,15.44,0,0,1-4.61,6.18,10.5,10.5,0,0,1-6.75,2.55q-6.11,0-16.55-5a110.36,110.36,0,0,1-20.34-12.76l1.15,16q.83,11.53,1.56,23.14t.74,20l-.16,6.76a59.68,59.68,0,0,1-4,13A1.06,1.06,0,0,1,284.8,308.35Zm46.45-80.2a31.3,31.3,0,0,0-3.3-14.5q-3.29-6.42-9.22-7.9a7.74,7.74,0,0,0-1.81-.17q-4.12,0-7.74,4a107.64,107.64,0,0,0-9.55,13l-2,3.13A59.17,59.17,0,0,0,311.81,234q8.56,3.7,14.33,3.71a8.77,8.77,0,0,0,4-.82A31.48,31.48,0,0,0,331.25,228.15Z"/><path d="M435.17,235.56V244h-1.32q-9.56,0-14.9-6t-7-16.56a42.25,42.25,0,0,1-12.35,15.16,58.35,58.35,0,0,1-17.54,9.38,57,57,0,0,1-17.87,3.13,35,35,0,0,1-4-.16,21.39,21.39,0,0,1-4.53-2.14c-1.15-.77-2.61-1.87-4.36-3.3a1.33,1.33,0,0,1-.49-.82,1.1,1.1,0,0,1,.32-.82,1,1,0,0,1,1-.17q3.63.33,5.77.33a72.41,72.41,0,0,0,18.53-2.55,67.3,67.3,0,0,0,17.37-7.17,83.73,83.73,0,0,0-10.13-25q-7.49-12.67-23.14-34.42-1.49-2.15-9.39-13l2.31-7.25q.16-.83.66-1c.33-.1.66.06,1,.5q16,23.06,26.27,39.44t13.26,26.93a39.15,39.15,0,0,1,1.15,7.16c.22,2.8.38,4.53.49,5.19a37.92,37.92,0,0,0,10.46-10.7,24.39,24.39,0,0,0,3.87-13.34q.17-22.08-2.31-61.76,0-2.64-.32-7.25l5.27-4.61a1,1,0,0,1,1.07-.33.76.76,0,0,1,.57.82l.33,20.59q.83,36.56.83,48.91a97,97,0,0,0,1.56,17.54A21.19,21.19,0,0,0,423,231.52q4,4,11.37,4Z"/><path d="M525.18,210.94A64.59,64.59,0,0,1,527.56,227a13.18,13.18,0,0,1-3.13,8.49,21.53,21.53,0,0,1-8.48,6.17A29.85,29.85,0,0,1,504,244h-.33q-7.41,0-10.95-4.45a17.14,17.14,0,0,1-3.54-11Q484.26,244,469.59,244h-.33q-7.41-.17-10.87-4.53a17.12,17.12,0,0,1-3.46-11Q447.19,244,435.17,244h-1.32v-8.4h1.32a14.67,14.67,0,0,0,9.47-3,20.81,20.81,0,0,0,5.85-7.49q2.13-4.53,5.27-13.42l1.48-4.45a2.36,2.36,0,0,1,2.3-1.81,1.82,1.82,0,0,1,1.57.82,2.23,2.23,0,0,1,.08,2.14q-2.81,9.23-2.8,15,0,12,11.2,12.19,9.56,0,13.84-6.59t6.91-20.92c.33-1.42,1.1-2.14,2.31-2.14a2,2,0,0,1,1.48.74,2.51,2.51,0,0,1,.49,2.06,124.12,124.12,0,0,0-1.15,13.67q0,6.76,2.31,9.88t8.07,3.3H504a35.52,35.52,0,0,0,11.28-1.73q5.19-1.72,7.17-5.35.49-4.29-8.4-26.85l4.61-5.27c.88-1,1.54-.93,2,.17A123.85,123.85,0,0,1,525.18,210.94Z"/><path d="M567.75,235.56V244h-1.16q-8.57,0-12.84-3.87a17.44,17.44,0,0,1-5.52-9,64.83,64.83,0,0,1-1.56-12.19q-.82-18.27-1.4-45t-.74-37.8l5.1-4.61a1.11,1.11,0,0,1,.82-.33.77.77,0,0,1,.58.25,1,1,0,0,1,.25.74l.49,21.08L552.92,213v3.45a80.18,80.18,0,0,0,.83,11.29,8.64,8.64,0,0,0,3.54,5.76q2.88,2.06,9.3,2.06Z"/><path d="M592.12,209.45a68.59,68.59,0,0,1,2.8,17.54,12,12,0,0,1-3.71,8.49,25.81,25.81,0,0,1-10,6.17A40.89,40.89,0,0,1,567.09,244h-.66v-8.4h.66a54.43,54.43,0,0,0,14.66-1.73q6.09-1.72,8.07-5.35.48-4.46-9.39-29.48l4.61-5.27c.88-1,1.54-.94,2,.16A122,122,0,0,1,592.12,209.45Zm-24.87,51.8,6.75-6.59c.33-.33.61-.33.83,0l6.75,6.59c.33.22.33.5,0,.82l-6.75,6.43a.6.6,0,0,1-.83,0l-6.75-6.43C566.92,261.75,566.92,261.47,567.25,261.25Z"/><path d="M94.83,430q4.86,14.16,4.86,22.89,0,8.89-7.33,16.72A54,54,0,0,1,74.66,482q-10.38,4.62-18.61,4.61a12.46,12.46,0,0,1-4.37-1.23,28,28,0,0,1-5-2.72,1.33,1.33,0,0,1-.66-1c0-.66.38-1,1.15-1a57.65,57.65,0,0,0,20.67-4.28,73.77,73.77,0,0,0,19.11-10.54q8-6.25,8.64-11.69-1.32-11-8.23-25.28t-7.41-15.4l4.28-4.61a3,3,0,0,1,1.32-.91c.33-.05.66.19,1,.74A200.89,200.89,0,0,1,94.83,430ZM76.47,381.56,83.22,375c.33-.33.6-.33.82,0l6.76,6.59c.33.22.33.49,0,.82L84,388.8c-.22.23-.49.23-.82,0l-6.75-6.42C76.14,382.05,76.14,381.78,76.47,381.56Z"/><path d="M170.51,438.21v8.4h-.66a16.77,16.77,0,0,1-10.71-3.95,49.82,49.82,0,0,1,1.32,10.21q0,8.89-7.33,16.72A54,54,0,0,1,135.43,482q-10.38,4.62-18.61,4.61a12.46,12.46,0,0,1-4.37-1.23,28,28,0,0,1-5-2.72,1.33,1.33,0,0,1-.66-1c0-.66.38-1,1.15-1a57.65,57.65,0,0,0,20.67-4.28,73.77,73.77,0,0,0,19.11-10.54q8-6.25,8.64-11.69-1.32-11-8.23-25.28t-7.41-15.4L145,408.9a3,3,0,0,1,1.32-.91c.33-.05.66.19,1,.74q2.79,6.11,5.27,12.52a91.32,91.32,0,0,0,5.1,10.7,12.62,12.62,0,0,0,4.7,4.78,15.72,15.72,0,0,0,7.49,1.48Z"/><path d="M230.54,410.71a37.72,37.72,0,0,1,4.36,18,33.41,33.41,0,0,1-2,11.53,10.83,10.83,0,0,1-2.89,4.53,13.26,13.26,0,0,1-5.18,2.72,21.29,21.29,0,0,1-5.93.82,37.16,37.16,0,0,1-14.5-3.21,36.06,36.06,0,0,1-13-9.31q-4.28,6.92-8.81,8.9t-12.27,2h-1.15v-8.4h2.64a22.61,22.61,0,0,0,8.39-1.23,11.65,11.65,0,0,0,4.86-3.71q1.89-2.46,6.34-9.71a124.27,124.27,0,0,1,12-17.46q5.27-6.09,12.18-6.1a12.67,12.67,0,0,1,3.3.5Q226.18,402.48,230.54,410.71ZM229.3,430.8A31.23,31.23,0,0,0,226,416.31q-3.3-6.42-9.06-7.91a9.46,9.46,0,0,0-2-.16q-4.12,0-7.75,3.95a110.45,110.45,0,0,0-9.55,13l-2,3.13a31.31,31.31,0,0,0,11.94,8.73,36,36,0,0,0,14.57,3.29,22,22,0,0,0,5.93-.82A31,31,0,0,0,229.3,430.8Z"/><path d="M339.48,438.21v8.4h-4.77q-6.1,0-21.08-2.3,16.31,9.54,16.3,15.15,0,6.92-5.76,13.67a41.65,41.65,0,0,1-15.57,10.95,53.11,53.11,0,0,1-21.16,4.2q-19.77,0-29.15-9.63t-9.39-26.11q0-13,5.6-28.82c.44-1.43,1.15-2.14,2.14-2.14a1.93,1.93,0,0,1,1.65,1.07,2.9,2.9,0,0,1,.16,2.55,73.08,73.08,0,0,0-4.28,23.55q0,14.34,8.15,22.73t24.79,8.4a59.46,59.46,0,0,0,18.61-2.8,42.09,42.09,0,0,0,13.84-7.16q5.26-4.37,6.09-8.65-3.47-4.61-12.6-10.29a103.34,103.34,0,0,0-19-9.31l1.64-5.76c.22-.66.61-.93,1.16-.83A305.64,305.64,0,0,0,339.48,438.21Z"/><path d="M363.86,412.11a69,69,0,0,1,2.8,17.54,12.05,12.05,0,0,1-3.71,8.48,25.94,25.94,0,0,1-10,6.18,41,41,0,0,1-14.09,2.3h-.65v-8.4h.65a53.93,53.93,0,0,0,14.66-1.73q6.09-1.73,8.07-5.35.49-4.44-9.38-29.48l4.61-5.27c.87-1,1.53-.93,2,.17A119.57,119.57,0,0,1,363.86,412.11ZM339,463.91l6.75-6.59c.33-.33.6-.33.83,0l6.75,6.59c.33.21.33.49,0,.82l-6.75,6.42a.6.6,0,0,1-.83,0L339,464.73C338.66,464.4,338.66,464.12,339,463.91Z"/><path d="M448.1,430Q453,444.14,453,452.87q0,8.89-7.33,16.72A54,54,0,0,1,427.92,482q-10.37,4.62-18.61,4.61A12.47,12.47,0,0,1,405,485.4a28,28,0,0,1-5-2.72,1.33,1.33,0,0,1-.66-1c0-.66.38-1,1.15-1a57.65,57.65,0,0,0,20.67-4.28,73.54,73.54,0,0,0,19.1-10.54q8-6.25,8.65-11.69-1.32-11-8.23-25.28t-7.42-15.4l4.29-4.61a2.92,2.92,0,0,1,1.31-.91c.33-.05.66.19,1,.74A198.33,198.33,0,0,1,448.1,430Z"/><path d="M477.33,363.11q.17,9.88.82,35.74t.5,38.21a59.34,59.34,0,0,1-3.95,13,1.07,1.07,0,0,1-1.16,1,.69.69,0,0,1-.57-.41,1.71,1.71,0,0,1-.25-.91q-.17-19.59-2-81.85l-.82-27.67,5.1-4.61a1,1,0,0,1,1.07-.33.76.76,0,0,1,.58.82Q476.67,336.76,477.33,363.11Z"/><path d="M522.7,430q4.86,14.16,4.86,22.89,0,8.89-7.33,16.72A53.87,53.87,0,0,1,502.53,482q-10.38,4.62-18.61,4.61a12.46,12.46,0,0,1-4.37-1.23,28.39,28.39,0,0,1-5-2.72,1.33,1.33,0,0,1-.66-1c0-.66.38-1,1.15-1a57.65,57.65,0,0,0,20.67-4.28,73.77,73.77,0,0,0,19.11-10.54q8-6.25,8.64-11.69-1.32-11-8.23-25.28t-7.41-15.4l4.28-4.61a3,3,0,0,1,1.32-.91c.33-.05.66.19,1,.74A200.89,200.89,0,0,1,522.7,430Zm-18.36-48.42,6.75-6.59c.33-.33.6-.33.83,0l6.75,6.59c.33.22.33.49,0,.82l-6.75,6.42c-.23.23-.5.23-.83,0l-6.75-6.42C504,382.05,504,381.78,504.34,381.56Z"/><path d="M567.75,438.21v8.4h-1.16q-8.57,0-12.84-3.87a17.46,17.46,0,0,1-5.52-9,65,65,0,0,1-1.56-12.19q-.84-18.29-1.4-45.05t-.75-37.79l5.11-4.61a1.11,1.11,0,0,1,.82-.33.8.8,0,0,1,.58.24,1,1,0,0,1,.25.74l.49,21.08,1.15,59.79v3.46a80,80,0,0,0,.83,11.28,8.6,8.6,0,0,0,3.54,5.76c1.92,1.38,5,2.06,9.3,2.06Z"/><path d="M592.12,412.11a68.53,68.53,0,0,1,2.8,17.54,12,12,0,0,1-3.71,8.48,25.94,25.94,0,0,1-10,6.18,40.89,40.89,0,0,1-14.08,2.3h-.66v-8.4h.66a54,54,0,0,0,14.66-1.73q6.09-1.73,8.07-5.35.48-4.44-9.39-29.48l4.61-5.27c.88-1,1.54-.93,2,.17A121.4,121.4,0,0,1,592.12,412.11Zm-24.87,51.8,6.75-6.59c.33-.33.61-.33.83,0l6.75,6.59c.33.21.33.49,0,.82l-6.75,6.42a.6.6,0,0,1-.83,0l-6.75-6.42C566.92,464.4,566.92,464.12,567.25,463.91Z"/></g></svg>