<svg xmlns="http://www.w3.org/2000/svg" viewBox="0 0 648 648"><defs><style>.cls-1{font-size:22px;font-family:Farhang-Black, Farhang;font-weight:800;}</style></defs><g id="Layer_1" data-name="Layer 1"><path d="M309.18,76.79v13.8h-.42a14.64,14.64,0,0,1-8.19-2A12.28,12.28,0,0,1,296,82.31q-1.62,2.58-2.76,4.68l-1.2.06a14.36,14.36,0,0,1-6-1.23A10.34,10.34,0,0,1,281.61,82a11.49,11.49,0,0,1-1.71-6.48,20,20,0,0,1,.6-4.74q.66-2.1,12.36-7.74l-.18-1.5,6.84-6.42a1.56,1.56,0,0,1,1.08-.54.86.86,0,0,1,.75.39,1.94,1.94,0,0,1,.27,1.11q0,1.08.3,6.48l.36,7.44a32.91,32.91,0,0,0,.48,4.56,2.87,2.87,0,0,0,1,1.83,3.81,3.81,0,0,0,2.1.45l3-.06Zm-22.05-2a17.56,17.56,0,0,0,4.53.51q1,0,2.76-.12l-.6-4.56q-3.24.72-5,1.2a27.6,27.6,0,0,0-3.93,1.44Q285.24,74.27,287.13,74.78Z"/><path d="M345.54,76.79v13.8h-.48a7.74,7.74,0,0,1-6.33-2.73,10.91,10.91,0,0,1-2.25-7.17q0-1.14.06-1.74A42.08,42.08,0,0,0,330,83q-3.54,2.46-6.15,4a28.08,28.08,0,0,1-6.3,2.55,30.36,30.36,0,0,1-8.31,1h-.54V76.79h.54a57.08,57.08,0,0,0,10.83-.87,83,83,0,0,0,9.27-2.43q2.94-.84,4.5-1.26-5.34-1.32-9.15-2.1a31.57,31.57,0,0,0-5.85-.78,5.21,5.21,0,0,0-2.37.45,4.73,4.73,0,0,0-1.65,1.59,2.28,2.28,0,0,1-1.92,1.14,1.61,1.61,0,0,1-1.26-.54,2.18,2.18,0,0,1-.48-1.5,7.36,7.36,0,0,1,.12-1q2.82-11.4,9.84-11.4a18,18,0,0,1,4.95.81q2.79.81,6.93,2.31,3.66,1.32,5.82,2a24.63,24.63,0,0,0,4,.9q1.08.18,1.08,1a6.38,6.38,0,0,1-.18.84l-2.4,9.18a1.28,1.28,0,0,0,.39,1.26,3.5,3.5,0,0,0,2.07.42Z"/><path d="M368.64,90.59a18.47,18.47,0,0,1-10-3.18,20,20,0,0,1-11,3.18H345l.06-13.8h4.8a12.55,12.55,0,0,1-.72-4.08,13.89,13.89,0,0,1,1.23-5.28,14.71,14.71,0,0,1,3.48-5.07A7.33,7.33,0,0,1,359,60.23a7.47,7.47,0,0,1,4.62,1.65,11.24,11.24,0,0,1,3.42,4.5,15.64,15.64,0,0,1,1.26,6.39,11.85,11.85,0,0,1-.84,4h4.08l.06,13.8ZM353.73,74.42q1.23,1.11,5.55,1.77,4.32-.72,5.46-2.46a4.19,4.19,0,0,0-1-1.38,8.17,8.17,0,0,0-2-1.5,6.77,6.77,0,0,0-2.67-.78A7.14,7.14,0,0,0,358,70a7.63,7.63,0,0,0-3.66.78q-1.44.78-1.62,1.56Q352.5,73.31,353.73,74.42Zm.09-21.75a1.32,1.32,0,0,1,.48-.84l3.84-3.9q.48-.48.72-.48a1,1,0,0,1,.72.48l4,3.9a1.13,1.13,0,0,1,.48.78,1.32,1.32,0,0,1-.48.84l-3.84,3.84q-.42.42-.66.42a1.75,1.75,0,0,1-.72-.42l-4-3.84A1.31,1.31,0,0,1,353.82,52.67Z"/><path d="M414.27,64.37a13.28,13.28,0,0,1,2.61,8.4A21.75,21.75,0,0,1,416,79a17.39,17.39,0,0,1-2.61,5.4,16.17,16.17,0,0,1-7.56,5.37,29.33,29.33,0,0,1-10.74,2,21.91,21.91,0,0,1-8.88-1.71A11,11,0,0,1,380.52,85a13,13,0,0,1-4.23,4.2,9.51,9.51,0,0,1-4.89,1.44h-.54V76.79h.54a7.75,7.75,0,0,0,4.65-1.32,9.27,9.27,0,0,0,2.82-3.18A47.6,47.6,0,0,0,381,67.55l.78-1.92a2.75,2.75,0,0,1,.93-1.23,2,2,0,0,1,1.17-.39,1.9,1.9,0,0,1,1.38.6,2.11,2.11,0,0,1,.6,1.56,3.28,3.28,0,0,1-.12.72q-.12.42-.54,2.19a14.23,14.23,0,0,0-.42,3.27q0,3.3,2.46,4.26a84.44,84.44,0,0,1,5-7.29,28.56,28.56,0,0,1,6.12-5.73A13.39,13.39,0,0,1,406.26,61Q411.66,61,414.27,64.37ZM398.76,79.13a26.15,26.15,0,0,0,6.48-.78,18,18,0,0,0,5.16-2.1A5.85,5.85,0,0,0,413,73.31a12,12,0,0,0-7.14-2,19.15,19.15,0,0,0-9.78,2.19,18.44,18.44,0,0,0-5.4,4.41A26.42,26.42,0,0,0,398.76,79.13Z"/><path d="M464,47.75q1,0,1,1.5,0,9.42-.69,23.07T463,91.85a18,18,0,0,1-2.4,7.32,15.26,15.26,0,0,1-5.37,5.4,15,15,0,0,1-7.89,2,17.3,17.3,0,0,1-9.54-2.4,14.08,14.08,0,0,1-5.43-6.36A22,22,0,0,1,430.62,89a30.25,30.25,0,0,1,2.46-12A2.75,2.75,0,0,1,434,75.8a2,2,0,0,1,1.17-.39,1.9,1.9,0,0,1,1.38.6,2.11,2.11,0,0,1,.6,1.56,3.28,3.28,0,0,1-.12.72q-.66,2.94-1,4.71a19.67,19.67,0,0,0-.3,3.27,6.9,6.9,0,0,0,2.55,5.85q2.55,1.95,9,1.95a35.83,35.83,0,0,0,6.84-.54q2.7-.54,3.3-2-.72-10.68-1.38-18.6t-1.62-18.24l8.46-6.42A2.06,2.06,0,0,1,464,47.75Z"/><path d="M487.41,65.15q2.91,2.76,4.62,8.4a48.6,48.6,0,0,1,1.71,13.92A20.72,20.72,0,0,1,491.13,98a21.27,21.27,0,0,1-6.39,7.11,16.57,16.57,0,0,1-7.32,3q-1.44.12-7.62-6.84L468.66,100a1.61,1.61,0,0,1-.54-1.14q0-1,1.62-1.26a44.2,44.2,0,0,0,7.62-1.8,37.48,37.48,0,0,0,7.2-3.12A9.89,9.89,0,0,0,488.64,89a12.1,12.1,0,0,1-6.54,1.62q-11.58,0-11.58-12.42a28.27,28.27,0,0,1,.18-3.12,20.59,20.59,0,0,1,1.5-5.94,13,13,0,0,1,3.36-4.8,7.66,7.66,0,0,1,5.28-1.92A9.3,9.3,0,0,1,487.41,65.15ZM477.24,76.64a16.65,16.65,0,0,0,4.26.57,15.35,15.35,0,0,0,5.52-.9,7.85,7.85,0,0,0-3.21-3.09,9.72,9.72,0,0,0-3.39-1,5,5,0,0,0-.9-.06,6.31,6.31,0,0,0-3.21.78,5.51,5.51,0,0,0-2,1.86A4.67,4.67,0,0,0,477.24,76.64Z"/><path d="M507,47.69q1.08,0,1.08,1.44,0,4.2-.51,17.1t-1.29,18.3a11.79,11.79,0,0,1-1.5,3.36q-1.32,2.28-2.46,4.08a1.79,1.79,0,0,1-1.38,1,.83.83,0,0,1-.69-.36,2.09,2.09,0,0,1-.33-1.08q-1.08-17.82-2.46-36.9l8.46-6.48A1.6,1.6,0,0,1,507,47.69Z"/><path d="M543.66,76.79v13.8h-1.2A8.86,8.86,0,0,1,539,90a18.65,18.65,0,0,1-3.6,10.08,21.75,21.75,0,0,1-6.84,6.09q-3.72,2-5.7,2-1,0-3.21-2.19t-5.55-5.91a1.61,1.61,0,0,1-.54-1.14,1.08,1.08,0,0,1,.42-.84,2,2,0,0,1,1.2-.42,32.91,32.91,0,0,0,8-2,28.69,28.69,0,0,0,6.69-3.54,8.08,8.08,0,0,0,3.27-3.93q-2.7-5.76-6.6-12.66l6.6-6.18a2.29,2.29,0,0,1,1.14-.66q.48,0,.84.66a7,7,0,0,1,.72,1.32l.72,1.38q1.2,2.16,1.8,3a3.83,3.83,0,0,0,1.44,1.29,5.49,5.49,0,0,0,2.4.42Z"/><path d="M561.24,58.91a1.31,1.31,0,0,1-.48.78l-3.42,3.54a1,1,0,0,1-.6.36,1.53,1.53,0,0,1-.66-.36l-3.66-3.54-.24-.3-.3.3-3.42,3.54a1,1,0,0,1-.6.36,1.53,1.53,0,0,1-.66-.36l-3.66-3.54a1.15,1.15,0,0,1-.42-.72,1.17,1.17,0,0,1,.42-.78L547,54.71q.48-.48.66-.48t.66.48l3.54,3.48.3.3.24-.3,3.48-3.48q.48-.48.66-.48t.66.48l3.54,3.48Q561.24,58.61,561.24,58.91ZM564,76.79v13.8h-.3a10,10,0,0,1-4.92-1.17,8.7,8.7,0,0,1-3.48-4.17A7.84,7.84,0,0,1,551.55,89q-2.85,1.56-8.13,1.56h-.24V76.79h.24a44,44,0,0,0,5.46-.33,11.58,11.58,0,0,0,4-1q-.48-2.16-1-5.22l4.32-3.66a.75.75,0,0,1,.54-.24q.36,0,.48.54l.9,6.06A4.69,4.69,0,0,0,559.56,76q1.08.84,4.14.84Z"/><path d="M577.32,98.09q0,.3-.48.72l-3.42,3.54a1,1,0,0,1-.6.36,1.53,1.53,0,0,1-.66-.36l-3.66-3.54-.24-.3-.3.3-3.42,3.54a1,1,0,0,1-.6.36,1.2,1.2,0,0,1-.66-.36l-3.66-3.54a1.15,1.15,0,0,1-.42-.72,1.17,1.17,0,0,1,.42-.78l3.48-3.48q.48-.48.66-.48t.66.48L568,97.31l.3.3.24-.3L572,93.83q.48-.48.66-.48t.66.48l3.54,3.48A1.31,1.31,0,0,1,577.32,98.09Zm7-21.3v13.8H584a10,10,0,0,1-4.92-1.17,8.7,8.7,0,0,1-3.48-4.17A7.84,7.84,0,0,1,571.83,89q-2.85,1.56-8.13,1.56h-.24V76.79h.24a44,44,0,0,0,5.46-.33,11.58,11.58,0,0,0,4-1q-.48-2.16-1-5.22l4.32-3.66a.75.75,0,0,1,.54-.24q.36,0,.48.54l.9,6.06A4.69,4.69,0,0,0,579.84,76q1.08.84,4.14.84Z"/><path d="M601.74,53.51a1.31,1.31,0,0,1-.48.78l-3.42,3.54a1,1,0,0,1-.6.36,1.53,1.53,0,0,1-.66-.36l-3.66-3.54-.24-.3-.3.3L589,57.83a1,1,0,0,1-.6.36,1.53,1.53,0,0,1-.66-.36L584,54.29a1.15,1.15,0,0,1-.42-.72,1.17,1.17,0,0,1,.42-.78l3.48-3.48q.48-.48.66-.48t.66.48l3.54,3.48.3.3.24-.3,3.48-3.48q.48-.48.66-.48t.66.48l3.54,3.48Q601.74,53.21,601.74,53.51ZM599,67a30.87,30.87,0,0,1,1.29,8.88,22.51,22.51,0,0,1-.6,5.34A13.92,13.92,0,0,1,597.45,86a10.42,10.42,0,0,1-4.71,3.3A24.25,24.25,0,0,1,584,90.59h-.18l-.06-13.8H584a44.62,44.62,0,0,0,6.3-.39,7.62,7.62,0,0,0,3.54-1.11q-1.56-2.46-5.16-7.26l-.72-1,6.6-6.18a2.29,2.29,0,0,1,1.14-.66q.48,0,.84.66A26.62,26.62,0,0,1,599,67Z"/><path d="M426.32,157.05v7.82h-.24a8.33,8.33,0,0,1-4.65-1.14,7,7,0,0,1-2.6-3.55c-.61,1-1.13,1.86-1.56,2.65l-.68,0a8.22,8.22,0,0,1-3.39-.7,6,6,0,0,1-2.52-2.16,6.58,6.58,0,0,1-1-3.68,11.65,11.65,0,0,1,.34-2.68q.38-1.2,7-4.39l-.1-.85,3.88-3.64a.86.86,0,0,1,.61-.31.5.5,0,0,1,.43.22,1.13,1.13,0,0,1,.15.63c0,.41.06,1.63.17,3.68l.2,4.21a17.59,17.59,0,0,0,.28,2.59,1.62,1.62,0,0,0,.54,1,2.17,2.17,0,0,0,1.19.25l1.7,0Zm-12.51-1.14a10.11,10.11,0,0,0,2.57.29c.36,0,.89,0,1.57-.07l-.34-2.59c-1.23.28-2.18.5-2.84.68a16.88,16.88,0,0,0-2.23.82C412.67,155.43,413.1,155.72,413.81,155.91Z"/><path d="M446.93,157.05v7.82h-.27a4.37,4.37,0,0,1-3.59-1.55,6.17,6.17,0,0,1-1.28-4.06,8.41,8.41,0,0,1,0-1,24.31,24.31,0,0,0-3.71,2.32c-1.34.93-2.5,1.67-3.49,2.24a15.87,15.87,0,0,1-3.57,1.45,17.49,17.49,0,0,1-4.71.59H426v-7.82h.31a32.28,32.28,0,0,0,6.14-.5,44.43,44.43,0,0,0,5.25-1.37l2.56-.72c-2-.5-3.75-.89-5.19-1.19a18.32,18.32,0,0,0-3.32-.44,2.94,2.94,0,0,0-1.34.25,2.86,2.86,0,0,0-.94.91,1.29,1.29,0,0,1-1.09.64.91.91,0,0,1-.71-.3,1.26,1.26,0,0,1-.27-.85,3.58,3.58,0,0,1,.07-.55q1.59-6.47,5.57-6.46a10.05,10.05,0,0,1,2.81.46c1.06.3,2.37.74,3.93,1.31,1.38.5,2.48.87,3.3,1.12a14,14,0,0,0,2.28.51c.41.07.61.25.61.54a3,3,0,0,1-.1.48l-1.36,5.21a.72.72,0,0,0,.22.71,2,2,0,0,0,1.17.24Z"/><path d="M460,164.87a10.46,10.46,0,0,1-5.68-1.8,11.38,11.38,0,0,1-6.23,1.8h-1.5l0-7.82h2.72a7.24,7.24,0,0,1-.41-2.32,7.78,7.78,0,0,1,.7-3,8.22,8.22,0,0,1,2-2.87,4.13,4.13,0,0,1,2.94-1.21,4.24,4.24,0,0,1,2.62.93,6.34,6.34,0,0,1,1.94,2.56,8.76,8.76,0,0,1,.72,3.62,6.66,6.66,0,0,1-.48,2.28h2.31l0,7.82Zm-8.46-9.17a6.77,6.77,0,0,0,3.15,1c1.63-.27,2.67-.74,3.1-1.4a2.57,2.57,0,0,0-.56-.78,4.77,4.77,0,0,0-1.16-.85,3.77,3.77,0,0,0-1.52-.44,4.16,4.16,0,0,0-.61,0,4.23,4.23,0,0,0-2.07.45c-.55.29-.85.59-.92.88S451.11,155.28,451.57,155.7Zm.06-12.33a.75.75,0,0,1,.27-.47l2.17-2.22c.19-.18.32-.27.41-.27a.54.54,0,0,1,.41.27l2.25,2.22a.62.62,0,0,1,.27.44.75.75,0,0,1-.27.47L455,146c-.16.16-.28.24-.38.24a1,1,0,0,1-.4-.24l-2.28-2.18C451.72,143.63,451.63,143.49,451.63,143.37Z"/><path d="M485.9,150a7.49,7.49,0,0,1,1.48,4.76,12.4,12.4,0,0,1-.53,3.54,9.68,9.68,0,0,1-1.48,3.06,9.11,9.11,0,0,1-4.28,3,16.63,16.63,0,0,1-6.09,1.14,12.38,12.38,0,0,1-5-1,6.25,6.25,0,0,1-3.2-2.9,7.53,7.53,0,0,1-2.39,2.38,5.45,5.45,0,0,1-2.78.81h-.3v-7.82h.3a4.39,4.39,0,0,0,2.64-.75,5.37,5.37,0,0,0,1.6-1.8c.37-.71.77-1.6,1.21-2.69l.44-1.09a1.5,1.5,0,0,1,.53-.7,1.18,1.18,0,0,1,.66-.22,1.09,1.09,0,0,1,.78.34,1.19,1.19,0,0,1,.34.89,1.58,1.58,0,0,1-.07.4l-.3,1.25a8,8,0,0,0-.24,1.85,2.31,2.31,0,0,0,1.39,2.42,48.18,48.18,0,0,1,2.86-4.14,16.42,16.42,0,0,1,3.47-3.25,7.64,7.64,0,0,1,4.46-1.46A5.4,5.4,0,0,1,485.9,150Zm-8.79,8.36a14.59,14.59,0,0,0,3.67-.44,10.13,10.13,0,0,0,2.93-1.19,3.28,3.28,0,0,0,1.49-1.67,6.83,6.83,0,0,0-4.05-1.12,10.93,10.93,0,0,0-5.54,1.24,10.5,10.5,0,0,0-3.06,2.5A14.8,14.8,0,0,0,477.11,158.37Z"/><path d="M507.66,157.05v7.82H507a5,5,0,0,1-1.94-.34,10.65,10.65,0,0,1-2.05,5.72,12.29,12.29,0,0,1-3.87,3.45,7.72,7.72,0,0,1-3.23,1.14c-.39,0-1-.41-1.83-1.24s-1.87-1.95-3.14-3.35a.9.9,0,0,1-.31-.65.59.59,0,0,1,.24-.47,1.11,1.11,0,0,1,.68-.24,18.59,18.59,0,0,0,4.53-1.14,16.4,16.4,0,0,0,3.79-2,4.54,4.54,0,0,0,1.85-2.23q-1.53-3.27-3.74-7.18l3.74-3.5a1.29,1.29,0,0,1,.65-.37c.18,0,.34.12.47.37a3.87,3.87,0,0,1,.41.75l.41.78c.46.82.8,1.39,1,1.72a2.18,2.18,0,0,0,.82.73,3.1,3.1,0,0,0,1.36.24Z"/><path d="M517.62,146.91a.75.75,0,0,1-.27.44l-1.94,2a.52.52,0,0,1-.34.2.78.78,0,0,1-.37-.2l-2.08-2-.13-.17-.17.17-1.94,2a.54.54,0,0,1-.34.2.79.79,0,0,1-.38-.2l-2.07-2a.64.64,0,0,1-.24-.41.67.67,0,0,1,.24-.44l2-2c.18-.18.31-.27.38-.27s.23.09.37.27l2,2,.17.17.13-.17,2-2c.18-.18.3-.27.37-.27s.24.09.37.27l2,2C517.53,146.66,517.62,146.8,517.62,146.91Zm1.57,10.14v7.82H519a5.64,5.64,0,0,1-2.79-.66,4.92,4.92,0,0,1-2-2.37,4.45,4.45,0,0,1-2.13,2.15,9.75,9.75,0,0,1-4.61.88h-.14v-7.82h.14a24,24,0,0,0,3.1-.19,6.55,6.55,0,0,0,2.24-.59c-.18-.82-.36-1.81-.54-3l2.45-2.08a.42.42,0,0,1,.3-.14c.14,0,.23.11.27.31l.51,3.44a2.66,2.66,0,0,0,.82,1.73,4,4,0,0,0,2.35.48Z"/><path d="M526.74,169.13c0,.11-.09.24-.27.4l-1.94,2a.54.54,0,0,1-.34.2.84.84,0,0,1-.38-.2l-2.07-2-.14-.17-.17.17-1.94,2a.52.52,0,0,1-.34.2.64.64,0,0,1-.37-.2l-2.08-2a.67.67,0,0,1-.23-.4.7.7,0,0,1,.23-.45l2-2c.18-.18.3-.27.37-.27s.24.09.38.27l2,2,.17.17.14-.17,2-2c.18-.18.31-.27.38-.27s.23.09.37.27l2,2A.74.74,0,0,1,526.74,169.13Zm4-12.08v7.82h-.17a5.64,5.64,0,0,1-2.79-.66,4.93,4.93,0,0,1-2-2.37,4.47,4.47,0,0,1-2.12,2.15,9.78,9.78,0,0,1-4.61.88h-.14v-7.82H519a23.85,23.85,0,0,0,3.09-.19,6.55,6.55,0,0,0,2.25-.59c-.18-.82-.36-1.81-.55-3l2.45-2.08a.44.44,0,0,1,.31-.14c.14,0,.23.11.27.31l.51,3.44a2.66,2.66,0,0,0,.82,1.73,4,4,0,0,0,2.35.48Z"/><path d="M540.59,143.85a.72.72,0,0,1-.28.44l-1.93,2a.59.59,0,0,1-.34.2.9.9,0,0,1-.38-.2l-2.07-2-.14-.17-.17.17-1.94,2a.59.59,0,0,1-.34.2.89.89,0,0,1-.37-.2l-2.08-2a.64.64,0,0,1-.24-.41.67.67,0,0,1,.24-.44l2-2c.19-.18.31-.27.38-.27s.24.09.37.27l2,2,.17.17.14-.17,2-2c.18-.18.31-.27.37-.27s.24.09.38.27l2,2C540.5,143.6,540.59,143.74,540.59,143.85ZM539,151.47a17.74,17.74,0,0,1,.73,5,13.13,13.13,0,0,1-.34,3,7.94,7.94,0,0,1-1.25,2.74,5.86,5.86,0,0,1-2.67,1.87,13.67,13.67,0,0,1-5,.73h-.11l0-7.82h.14a26.45,26.45,0,0,0,3.57-.22,4.4,4.4,0,0,0,2-.63q-.89-1.39-2.93-4.12l-.41-.58,3.74-3.5a1.37,1.37,0,0,1,.65-.38c.18,0,.34.13.48.38A15.28,15.28,0,0,1,539,151.47Z"/><path d="M566.9,151.32a18.39,18.39,0,0,1,.66,4.78,8.24,8.24,0,0,1-.44,3,8,8,0,0,1-4.81,4.93,22.55,22.55,0,0,1-8.22,1.36H554q-5.5,0-8.69-1.87c-2.12-1.25-3.18-3.35-3.18-6.33a19.32,19.32,0,0,1,1.33-6.49,1.17,1.17,0,0,1,1.12-.92,1.11,1.11,0,0,1,.8.34,1.16,1.16,0,0,1,.36.88,1.44,1.44,0,0,1,0,.41,7.54,7.54,0,0,0-.23,1.84,3.49,3.49,0,0,0,1.32,3,6.1,6.1,0,0,0,3,1.12c1.07.11,2.48.17,4.23.17h.1q3.51,0,6.16-.24a8.2,8.2,0,0,0,3.91-1.12q-1.32-1.94-3.5-4.7l3.71-3.5a.91.91,0,0,1,.61-.34.66.66,0,0,1,.54.34A9.24,9.24,0,0,1,566.9,151.32ZM552,169.19a.73.73,0,0,1,.28-.47l2.17-2.21c.18-.19.32-.28.41-.28s.27.09.41.28l2.24,2.21a.62.62,0,0,1,.28.44.74.74,0,0,1-.28.48l-2.17,2.17a.67.67,0,0,1-.38.24,1.09,1.09,0,0,1-.41-.24l-2.27-2.17C552.07,169.45,552,169.31,552,169.19Z"/><path d="M577.91,157.05v7.82h-.17a6.54,6.54,0,0,1-5.11-1.92,9.47,9.47,0,0,1-2-5.66q-.44-5.21-1.22-12.83l4.79-3.67a.93.93,0,0,1,.62-.24.51.51,0,0,1,.44.24,1.1,1.1,0,0,1,.17.64l-.07,3.71-.24,9.29a3,3,0,0,0,.5,2.06,2.65,2.65,0,0,0,1.95.56Z"/><path d="M600.6,152a17.85,17.85,0,0,1,.68,5A13.93,13.93,0,0,1,601,160a6.27,6.27,0,0,1-1.94,3.45,5.3,5.3,0,0,1-3.74,1.38h-.14a3.83,3.83,0,0,1-2.34-.78,4.14,4.14,0,0,1-1.47-2.41,4.18,4.18,0,0,1-1.63,2.41,4.06,4.06,0,0,1-2.28.78h-.07a5.56,5.56,0,0,1-2.87-.8,4,4,0,0,1-1.72-2.39,4.71,4.71,0,0,1-2,2.36,5.59,5.59,0,0,1-2.86.83h-.27v-7.82h.27a7.12,7.12,0,0,0,2.67-.38,2.48,2.48,0,0,0,1.24-1,26.13,26.13,0,0,0,1.16-2.61,1.24,1.24,0,0,1,1.16-.91,1.07,1.07,0,0,1,.78.34,1.17,1.17,0,0,1,.34.88,2.07,2.07,0,0,1,0,.41,5.28,5.28,0,0,0-.17,1.36,1.71,1.71,0,0,0,.59,1.51,4.06,4.06,0,0,0,3.49.07,1.86,1.86,0,0,0,.75-1c.13-.42.31-1.2.54-2.36a1.56,1.56,0,0,1,.46-.83,1,1,0,0,1,.73-.29,1.12,1.12,0,0,1,.84.37,1.35,1.35,0,0,1,.32,1,4.45,4.45,0,0,0,.48,2.71,2.33,2.33,0,0,0,2,.73h.1a4.62,4.62,0,0,0,1.68-.27,2.38,2.38,0,0,0,1-.72,52.66,52.66,0,0,0-2.86-4.63l3.1-2.82a1.08,1.08,0,0,1,.61-.34c.16,0,.31.12.44.34A14.67,14.67,0,0,1,600.6,152Z"/><text class="cls-1" transform="translate(49.85 238.95)"><tspan xml:space="preserve"> اب و ،پاچ تعنص زا موهفمان یگداس دیلوت اب یگتخاس نتم موسپیا مرول</tspan><tspan x="0.48" y="33" xml:space="preserve"> هلجم و همانزور هکلب نوتم و اهرگپاچ ،تسا کیفارگ ناحارط زا هدافتسا</tspan><tspan x="30.31" y="66" xml:space="preserve"> یژولونکت یلعف طیارش یارب و ،تسا مزل هک نانچنآرطس و نوتس رد</tspan><tspan x="41.71" y="99" xml:space="preserve"> یم یدربراک یاهرازبا دوبهب فده اب عونتم یاهدربراک و ،زاین دروم</tspan><tspan x="52.32" y="132" xml:space="preserve"> ،هدنیآ و لاح هتشذگ دصرد هس و تصش رد یدایز یاهباتک ،دشاب</tspan><tspan x="54.69" y="165" xml:space="preserve"> اهرازفا مرن اب ات ،دبلط یم ار ناصصختم و هعماج ناوارف تخانش</tspan><tspan x="-0.24" y="198" xml:space="preserve"> ،یقلخ ناحارط صوصخلا یلع یا هنایار ناحارط یارب ار یرتشیب تخانش</tspan><tspan x="6.55" y="231" xml:space="preserve"> دیما ناوت یم تروص نیا رد ،درک داجیا یسراف نابز رد ورشیپ گنهرف و</tspan><tspan x="29.52" y="264" xml:space="preserve"> تخس طیارش و ،اهراکهار هئارا رد دوجوم یراوشد و مامت هک تشاد</tspan><tspan x="26.79" y="297" xml:space="preserve"> یاهدرواتسد ینیچفورح لماش زاین دروم نامز و دسر نایاپ هب پیات</tspan><tspan x="26.2" y="330" xml:space="preserve"> اساسا یحارط دوجوم یایند لها هتسویپ تلاوس یوگباوج و ،یلصا</tspan><tspan x="362.64" y="363">.دریگ رارق هدافتسا دروم</tspan></text></g></svg>