<svg xmlns="http://www.w3.org/2000/svg" viewBox="0 0 1152 648"><defs><style>.cls-1{fill:#ff5c35;}</style></defs><g id="Background"><rect width="1152" height="648"/></g><g id="Layer_1" data-name="Layer 1"><path class="cls-1" d="M63.09,119.52H47.6L71.2,51.16H89.82l23.57,68.36H97.9L80.78,66.78h-.54Zm-1-26.87H98.7v11.28H62.12Z"/><path class="cls-1" d="M121.6,119.52V51.16H149a31.12,31.12,0,0,1,12.59,2.23,16.78,16.78,0,0,1,7.57,6.2,16.39,16.39,0,0,1,2.54,9.09,14.79,14.79,0,0,1-1.6,7,13.74,13.74,0,0,1-4.39,4.94,18,18,0,0,1-6.36,2.72V84a15.38,15.38,0,0,1,7.33,2.2,15.81,15.81,0,0,1,5.56,5.69,17,17,0,0,1,2.13,8.7,17.76,17.76,0,0,1-2.68,9.69,18.37,18.37,0,0,1-7.93,6.73,30.17,30.17,0,0,1-12.92,2.47Zm14.45-39.76h10.72a12.71,12.71,0,0,0,5.29-1.05,8.74,8.74,0,0,0,3.67-3,7.91,7.91,0,0,0,1.35-4.64,7.52,7.52,0,0,0-2.62-6c-1.74-1.51-4.22-2.27-7.42-2.27h-11Zm0,27.94h11.79c4,0,7-.77,8.81-2.32a7.65,7.65,0,0,0,2.77-6.19,9.17,9.17,0,0,0-1.37-5,9.27,9.27,0,0,0-3.89-3.41,13.51,13.51,0,0,0-6-1.24H136.05Z"/><path class="cls-1" d="M244,75.09H229.42A14.42,14.42,0,0,0,227.78,70a12.74,12.74,0,0,0-3.17-3.78,14,14,0,0,0-4.45-2.41A17.45,17.45,0,0,0,214.7,63a16.3,16.3,0,0,0-9.25,2.62,17,17,0,0,0-6.11,7.61,30.4,30.4,0,0,0-2.17,12.1,30.45,30.45,0,0,0,2.19,12.28,15.84,15.84,0,0,0,15.24,10,17.92,17.92,0,0,0,5.39-.77,13.87,13.87,0,0,0,4.42-2.25,12.85,12.85,0,0,0,3.22-3.62,14.28,14.28,0,0,0,1.79-4.88l14.62.07a26.52,26.52,0,0,1-2.82,9.06,27.35,27.35,0,0,1-6,7.78,28.29,28.29,0,0,1-9,5.41,33.14,33.14,0,0,1-11.8,2A32.14,32.14,0,0,1,198,116.32a29.23,29.23,0,0,1-11.35-12q-4.16-7.85-4.16-19t4.21-19a29.35,29.35,0,0,1,11.41-12,32.11,32.11,0,0,1,16.23-4.13,35.31,35.31,0,0,1,11,1.67,28.09,28.09,0,0,1,9,4.86,25.36,25.36,0,0,1,6.42,7.79A29.22,29.22,0,0,1,244,75.09Z"/><path class="cls-1" d="M278.66,119.52H254.42V51.16h24.44q10.31,0,17.75,4.09A27.8,27.8,0,0,1,308.08,67q4,7.65,4,18.29t-4,18.36a27.88,27.88,0,0,1-11.52,11.79Q289.08,119.52,278.66,119.52Zm-9.78-12.38h9.17a23.19,23.19,0,0,0,10.8-2.29,14.57,14.57,0,0,0,6.61-7.11q2.22-4.83,2.22-12.47t-2.22-12.38a14.55,14.55,0,0,0-6.59-7.08,23.26,23.26,0,0,0-10.78-2.27h-9.21Z"/><path class="cls-1" d="M322.78,119.52V51.16h46.07V63.07H337.24V79.36h29.24V91.28H337.24V107.6H369v11.92Z"/><path class="cls-1" d="M380.37,119.52V51.16h45.26V63.07H394.82V79.36h27.81V91.28H394.82v28.24Z"/><path class="cls-1" d="M480.67,73.26a15.18,15.18,0,0,0-2-4.33,12.88,12.88,0,0,0-3.09-3.2,14,14,0,0,0-4.14-2,17.63,17.63,0,0,0-5.13-.7,16.36,16.36,0,0,0-9.19,2.6A17.08,17.08,0,0,0,451,73.17a29.73,29.73,0,0,0-2.2,12.1A30.63,30.63,0,0,0,451,97.42a16.91,16.91,0,0,0,6.15,7.63,16.59,16.59,0,0,0,9.38,2.62,18.47,18.47,0,0,0,8.39-1.75,12.4,12.4,0,0,0,5.34-5,14.81,14.81,0,0,0,1.86-7.58l2.93.44H467.39V82.94H496v8.61A29.92,29.92,0,0,1,492.19,107a25.82,25.82,0,0,1-10.48,10,35.43,35.43,0,0,1-32.18-.77,29.19,29.19,0,0,1-11.33-12.12q-4.06-7.86-4.06-18.67a42.53,42.53,0,0,1,2.42-14.84,31.58,31.58,0,0,1,6.79-11.07,29.52,29.52,0,0,1,10.19-6.91,33,33,0,0,1,12.58-2.37,33.84,33.84,0,0,1,10.82,1.69,29.2,29.2,0,0,1,8.89,4.76A25.78,25.78,0,0,1,492.19,64a24.92,24.92,0,0,1,3.17,9.3Z"/><path class="cls-1" d="M506.84,119.52V51.16H521.3v28.2h29.34V51.16h14.42v68.36H550.64V91.28H521.3v28.24Z"/><path class="cls-1" d="M591.43,51.16v68.36H577V51.16Z"/><path class="cls-1" d="M630.72,51.16H645V98.83a21.73,21.73,0,0,1-3,11.48,19.76,19.76,0,0,1-8.19,7.51,26.78,26.78,0,0,1-12.19,2.64,27.77,27.77,0,0,1-11.2-2.19,17.75,17.75,0,0,1-8-6.68,20.05,20.05,0,0,1-2.9-11.3H614a10,10,0,0,0,1.11,4.63,7.14,7.14,0,0,0,2.91,2.93,9,9,0,0,0,4.39,1,8.36,8.36,0,0,0,4.52-1.15,7.2,7.2,0,0,0,2.82-3.39,13.75,13.75,0,0,0,1-5.5Z"/><path class="cls-1" d="M656.92,119.52V51.16h14.46V81.3h.9l24.6-30.14H714.2L688.83,81.77l25.67,37.75H697.21L678.49,91.41l-7.11,8.68v19.43Z"/><path class="cls-1" d="M721.75,119.52V51.16H736.2V107.6h29.31v11.92Z"/><path class="cls-1" d="M775.09,51.16h17.82l18.83,45.93h.8l18.83-45.93h17.82v68.36h-14V75h-.56l-17.7,44.17h-9.54l-17.7-44.33h-.56v44.66h-14Z"/><path class="cls-1" d="M918.26,51.16v68.36H905.77L876,76.49h-.5v43H861.08V51.16h12.68l29.51,43h.6v-43Z"/><path class="cls-1" d="M993,85.34q0,11.18-4.23,19a29.38,29.38,0,0,1-11.48,12,34.31,34.31,0,0,1-32.66,0,29.45,29.45,0,0,1-11.45-12q-4.21-7.85-4.21-19t4.21-19a29.25,29.25,0,0,1,11.45-12,34.35,34.35,0,0,1,32.66,0,29.32,29.32,0,0,1,11.48,12Q993,74.16,993,85.34Zm-14.66,0a30.87,30.87,0,0,0-2.15-12.22,16.69,16.69,0,0,0-6.06-7.54,17.56,17.56,0,0,0-18.29,0,16.56,16.56,0,0,0-6.06,7.54,30.69,30.69,0,0,0-2.16,12.22,30.69,30.69,0,0,0,2.16,12.22,16.56,16.56,0,0,0,6.06,7.54,17.56,17.56,0,0,0,18.29,0,16.69,16.69,0,0,0,6.06-7.54A30.87,30.87,0,0,0,978.34,85.34Z"/><path class="cls-1" d="M1003.68,119.52V51.16h27a27.56,27.56,0,0,1,13.25,3,20.35,20.35,0,0,1,8.36,8.18,24.39,24.39,0,0,1,2.89,12,24,24,0,0,1-2.94,12,20.28,20.28,0,0,1-8.49,8.11,28.69,28.69,0,0,1-13.44,2.91h-17.19V85.77h14.85a14.55,14.55,0,0,0,6.9-1.45,9.51,9.51,0,0,0,4.07-4,12.68,12.68,0,0,0,1.35-6,12.53,12.53,0,0,0-1.35-5.95,9.37,9.37,0,0,0-4.09-4,15.08,15.08,0,0,0-6.94-1.42h-9.75v56.55Z"/><path class="cls-1" d="M114.12,205.34q0,11.17-4.22,19a29.38,29.38,0,0,1-11.48,12,32.44,32.44,0,0,1-16.31,4.13,32.34,32.34,0,0,1-16.35-4.14,29.45,29.45,0,0,1-11.45-12q-4.22-7.85-4.21-19t4.21-19a29.25,29.25,0,0,1,11.45-12,32.43,32.43,0,0,1,16.35-4.13,32.44,32.44,0,0,1,16.31,4.13,29.32,29.32,0,0,1,11.48,12Q114.13,194.15,114.12,205.34Zm-14.65,0a30.87,30.87,0,0,0-2.15-12.22,16.69,16.69,0,0,0-6.06-7.54,17.56,17.56,0,0,0-18.29,0,16.56,16.56,0,0,0-6.06,7.54,35.65,35.65,0,0,0,0,24.44A16.56,16.56,0,0,0,73,225.1a17.56,17.56,0,0,0,18.29,0,16.69,16.69,0,0,0,6.06-7.54A30.87,30.87,0,0,0,99.47,205.34ZM77.11,215.75H89.39l6.17,7.95,6.08,7.08,11.45,14.35H99.6l-7.87-9.68-4-5.74Z"/><path class="cls-1" d="M124.87,239.52V171.16h27a29.33,29.33,0,0,1,13.24,2.75,19.51,19.51,0,0,1,8.38,7.78,23.32,23.32,0,0,1,2.89,11.8,22.29,22.29,0,0,1-2.94,11.7,19,19,0,0,1-8.5,7.49,31.38,31.38,0,0,1-13.43,2.61H133.42V203.67h15.72a18.23,18.23,0,0,0,6.88-1.13,8.32,8.32,0,0,0,4.09-3.41,10.85,10.85,0,0,0,1.35-5.64,11.31,11.31,0,0,0-1.35-5.74,8.55,8.55,0,0,0-4.11-3.56,17.18,17.18,0,0,0-6.93-1.22h-9.74v56.55Zm36.92-31.11,17,31.11H162.83L146.2,208.41Z"/><path class="cls-1" d="M223.65,190.82a8.49,8.49,0,0,0-3.44-6.28c-2-1.49-4.77-2.23-8.25-2.23a16.07,16.07,0,0,0-6,1,8.33,8.33,0,0,0-3.72,2.72A6.44,6.44,0,0,0,201,190a5.6,5.6,0,0,0,.79,3.21,7.63,7.63,0,0,0,2.35,2.35,16.73,16.73,0,0,0,3.47,1.7,33,33,0,0,0,4.21,1.22l6.14,1.47a43.66,43.66,0,0,1,8.21,2.67,25.13,25.13,0,0,1,6.48,4.1,17.29,17.29,0,0,1,4.25,5.75,18.3,18.3,0,0,1,1.55,7.57,18.89,18.89,0,0,1-3.18,10.87,20.35,20.35,0,0,1-9.08,7.11,36.39,36.39,0,0,1-14.27,2.52A37.55,37.55,0,0,1,197.49,238a20.93,20.93,0,0,1-9.54-7.53,22.24,22.24,0,0,1-3.59-12.36h14a10.33,10.33,0,0,0,2,5.72,10.64,10.64,0,0,0,4.71,3.44,18.26,18.26,0,0,0,6.69,1.15,17.25,17.25,0,0,0,6.39-1.07,9.7,9.7,0,0,0,4.22-3,6.81,6.81,0,0,0,1.51-4.37,5.7,5.7,0,0,0-1.35-3.87,10.57,10.57,0,0,0-3.94-2.67,41.36,41.36,0,0,0-6.33-2l-7.44-1.87q-8.65-2.1-13.66-6.57t-5-12.05a17.91,17.91,0,0,1,3.32-10.85,22.15,22.15,0,0,1,9.23-7.24,32.58,32.58,0,0,1,13.35-2.61,31.67,31.67,0,0,1,13.31,2.61,21.06,21.06,0,0,1,8.86,7.24,19.22,19.22,0,0,1,3.27,10.75Z"/><path class="cls-1" d="M245.51,183.07V171.16h56.15v11.91H280.73v56.45H266.44V183.07Z"/><path class="cls-1" d="M353.16,171.16h14.46v44.39a23.26,23.26,0,0,1-13.49,21.82,37,37,0,0,1-29.74,0,23.21,23.21,0,0,1-13.46-21.82V171.16h14.46v43.16a13.79,13.79,0,0,0,1.72,6.94A12.26,12.26,0,0,0,332,226a16.35,16.35,0,0,0,14.64,0,12.29,12.29,0,0,0,4.84-4.78,13.79,13.79,0,0,0,1.72-6.94Z"/><path class="cls-1" d="M391.85,171.16l16.52,51.94H409l16.55-51.94h16L418,239.52H399.39l-23.6-68.36Z"/><path class="cls-1" d="M465.19,239.52l-19.56-68.36h15.79l11.31,47.5h.57l12.48-47.5H499.3l12.45,47.6h.6l11.32-47.6h15.79L519.9,239.52H505.81l-13-44.7h-.53l-13,44.7Z"/><path class="cls-1" d="M560.72,171.16l13.79,23.3H575l13.85-23.3h16.33l-20.87,34.18,21.33,34.18H589.06l-14-23.33h-.53l-14,23.33H543.93l21.4-34.18-21-34.18Z"/><path class="cls-1" d="M610.32,171.16h16.19L642.1,200.6h.67l15.59-29.44h16.19l-24.94,44.19v24.17H635.26V215.35Z"/><path class="cls-1" d="M681.69,239.52v-8.58l34.12-47.87H681.62V171.16H734v8.58L699.82,227.6H734v11.92Z"/><path class="cls-1" d="M65.66,360.49a21.12,21.12,0,0,1-8.75-1.72,13.85,13.85,0,0,1-6.06-5.11,15.13,15.13,0,0,1-2.22-8.46A14.92,14.92,0,0,1,50.2,338a12.79,12.79,0,0,1,4.27-4.67,20.79,20.79,0,0,1,6.16-2.67,47.38,47.38,0,0,1,7.26-1.27c3-.31,5.39-.6,7.21-.88a10.26,10.26,0,0,0,4-1.25,2.8,2.8,0,0,0,1.23-2.47v-.21a6.13,6.13,0,0,0-2-4.9A8.26,8.26,0,0,0,72.7,318a10,10,0,0,0-6.11,1.69,7.91,7.91,0,0,0-3,4.22L50.43,322.8a18.1,18.1,0,0,1,3.94-8.09,19.17,19.17,0,0,1,7.6-5.28,29.15,29.15,0,0,1,10.8-1.85,32.87,32.87,0,0,1,8.19,1,21.5,21.5,0,0,1,7,3.11,15.24,15.24,0,0,1,4.82,5.39,16.35,16.35,0,0,1,1.77,7.86v34.58H81v-7.11h-.4a14.17,14.17,0,0,1-3.3,4.22,14.85,14.85,0,0,1-5,2.84A20.27,20.27,0,0,1,65.66,360.49Zm4.07-9.81a11.75,11.75,0,0,0,5.54-1.26A9.66,9.66,0,0,0,79,346a8.83,8.83,0,0,0,1.37-4.85v-5.44a7.52,7.52,0,0,1-1.82.79c-.77.23-1.63.44-2.59.63s-1.91.36-2.87.5l-2.6.39a17,17,0,0,0-4.37,1.17,7,7,0,0,0-2.91,2.15,5.35,5.35,0,0,0-1,3.35,5.1,5.1,0,0,0,2.12,4.43A9,9,0,0,0,69.73,350.68Z"/><path class="cls-1" d="M105.84,359.52V291.16h14.23v25.7h.43a18.62,18.62,0,0,1,2.72-4.22,14.33,14.33,0,0,1,4.67-3.61,16,16,0,0,1,7.2-1.45,19.3,19.3,0,0,1,10.34,2.92,20.45,20.45,0,0,1,7.58,8.78q2.84,5.87,2.84,14.67a34.15,34.15,0,0,1-2.75,14.47,20.55,20.55,0,0,1-7.48,8.91,19.16,19.16,0,0,1-10.57,3,16.3,16.3,0,0,1-7-1.37,14.57,14.57,0,0,1-4.73-3.46,17.16,17.16,0,0,1-2.8-4.22h-.63v8.21Zm13.92-25.64a23,23,0,0,0,1.27,8,11.68,11.68,0,0,0,3.68,5.29,10,10,0,0,0,11.71,0,11.92,11.92,0,0,0,3.66-5.34,23,23,0,0,0,1.25-7.9,22.54,22.54,0,0,0-1.24-7.81,11.65,11.65,0,0,0-3.63-5.27,10.22,10.22,0,0,0-11.77-.07,11.54,11.54,0,0,0-3.66,5.21A22.68,22.68,0,0,0,119.76,333.88Z"/><path class="cls-1" d="M188.46,360.52a26.17,26.17,0,0,1-13.54-3.35,22.32,22.32,0,0,1-8.67-9.33,32.87,32.87,0,0,1,0-27.59,22.53,22.53,0,0,1,8.7-9.31,25.72,25.72,0,0,1,13.41-3.36A26.61,26.61,0,0,1,200.14,310a19.6,19.6,0,0,1,8,6.84,20.11,20.11,0,0,1,3.24,10.35H197.94a10.46,10.46,0,0,0-3-6.19,8.68,8.68,0,0,0-6.32-2.36,9.53,9.53,0,0,0-5.76,1.79,11.47,11.47,0,0,0-3.82,5.19,22,22,0,0,0-1.37,8.24,22.86,22.86,0,0,0,1.35,8.35,11.51,11.51,0,0,0,3.82,5.24,10.16,10.16,0,0,0,10.17.8,8.62,8.62,0,0,0,3.24-2.92,11.26,11.26,0,0,0,1.68-4.62h13.42a20.93,20.93,0,0,1-3.19,10.33,19.41,19.41,0,0,1-7.86,7A26.21,26.21,0,0,1,188.46,360.52Z"/><path class="cls-1" d="M239.4,360.36a19.18,19.18,0,0,1-10.57-3,20.53,20.53,0,0,1-7.47-8.91A34,34,0,0,1,218.6,334q0-8.81,2.84-14.67A20.47,20.47,0,0,1,229,310.5a19.33,19.33,0,0,1,10.37-2.92,15.9,15.9,0,0,1,7.19,1.45,14.22,14.22,0,0,1,4.67,3.61,18.62,18.62,0,0,1,2.72,4.22h.44v-25.7h14.19v68.36h-14v-8.21H254a17.86,17.86,0,0,1-2.82,4.22,14.33,14.33,0,0,1-4.7,3.46A16.38,16.38,0,0,1,239.4,360.36ZM243.91,349a9.08,9.08,0,0,0,5.82-1.89,11.81,11.81,0,0,0,3.67-5.29,25.39,25.39,0,0,0,0-15.92,11.48,11.48,0,0,0-3.67-5.21,9.36,9.36,0,0,0-5.84-1.83,9.21,9.21,0,0,0-5.91,1.9,11.67,11.67,0,0,0-3.64,5.27,25.31,25.31,0,0,0,0,15.71,11.87,11.87,0,0,0,3.63,5.34A9.13,9.13,0,0,0,243.91,349Z"/><path class="cls-1" d="M303.59,360.52A27.15,27.15,0,0,1,290,357.3a21.75,21.75,0,0,1-8.77-9.15,33.27,33.27,0,0,1,0-27.92,22.66,22.66,0,0,1,8.67-9.31A25.06,25.06,0,0,1,303,307.58a27.14,27.14,0,0,1,9.47,1.62,21.34,21.34,0,0,1,7.67,4.86,22.09,22.09,0,0,1,5.13,8.12,32.61,32.61,0,0,1,1.83,11.44v3.9H283.83v-8.81h29.91a10.89,10.89,0,0,0-1.34-5.44,9.7,9.7,0,0,0-3.69-3.72,10.72,10.72,0,0,0-5.45-1.35,11,11,0,0,0-5.73,1.48,10.73,10.73,0,0,0-3.89,4,11.35,11.35,0,0,0-1.43,5.53v8.38a14.18,14.18,0,0,0,1.42,6.57,10.14,10.14,0,0,0,4,4.28,12.13,12.13,0,0,0,6.17,1.5,13.3,13.3,0,0,0,4.34-.67,9,9,0,0,0,3.37-2,8.66,8.66,0,0,0,2.14-3.27l13.15.86a17.88,17.88,0,0,1-4.09,8.27,20.58,20.58,0,0,1-7.94,5.47A29.9,29.9,0,0,1,303.59,360.52Z"/><path class="cls-1" d="M364,308.25v10.68H332.33V308.25Zm-24.41,51.27v-55a17.78,17.78,0,0,1,2.19-9.24,13.85,13.85,0,0,1,6-5.51A19.59,19.59,0,0,1,356.4,288a33.49,33.49,0,0,1,6,.5c1.81.34,3.17.64,4.06.9L363.91,300a16.69,16.69,0,0,0-2.05-.5,13,13,0,0,0-2.49-.24c-2.09,0-3.55.49-4.37,1.45a6,6,0,0,0-1.24,4.06v54.71Z"/><path class="cls-1" d="M394,379.82a33.05,33.05,0,0,1-11.83-1.89,20,20,0,0,1-7.83-5.12,15.71,15.71,0,0,1-3.77-7.28l13.15-1.77a8.75,8.75,0,0,0,1.9,2.87,9.33,9.33,0,0,0,3.46,2.15,14.75,14.75,0,0,0,5.26.82,12.49,12.49,0,0,0,7.66-2.25q3-2.25,3-7.53v-9.38h-.6a13.54,13.54,0,0,1-2.81,4,14.07,14.07,0,0,1-4.8,3.1,18.32,18.32,0,0,1-7,1.21,20.88,20.88,0,0,1-10.5-2.69,18.81,18.81,0,0,1-7.51-8.25Q369,342.3,369,333.78c0-5.8.95-10.66,2.84-14.55a20.39,20.39,0,0,1,7.56-8.75,19.45,19.45,0,0,1,10.36-2.9,16,16,0,0,1,7.21,1.45,14.2,14.2,0,0,1,4.69,3.61,20,20,0,0,1,2.76,4.22h.53v-8.61H419V360a18.17,18.17,0,0,1-3.2,11A19.39,19.39,0,0,1,407,377.6,35.38,35.38,0,0,1,394,379.82Zm.3-31.72a9.76,9.76,0,0,0,5.83-1.71,10.93,10.93,0,0,0,3.67-4.94,20.82,20.82,0,0,0,1.28-7.73,22,22,0,0,0-1.26-7.83,11.48,11.48,0,0,0-3.68-5.16,10.23,10.23,0,0,0-11.75,0,11.52,11.52,0,0,0-3.63,5.23,22,22,0,0,0-1.24,7.71,21.24,21.24,0,0,0,1.25,7.66,10.89,10.89,0,0,0,3.64,5A9.68,9.68,0,0,0,394.25,348.1Z"/><path class="cls-1" d="M444.59,329.88v29.64H430.37V291.16h13.82v26.13h.6a14.62,14.62,0,0,1,5.61-7.12,17.07,17.07,0,0,1,9.71-2.59,18.2,18.2,0,0,1,9.33,2.32,15.89,15.89,0,0,1,6.21,6.64,22.15,22.15,0,0,1,2.19,10.33v32.65H463.62V329.41q0-4.74-2.39-7.38a8.74,8.74,0,0,0-6.76-2.63,10.4,10.4,0,0,0-5.12,1.23,8.65,8.65,0,0,0-3.47,3.59A12.1,12.1,0,0,0,444.59,329.88Z"/><path class="cls-1" d="M496.2,301.64a7.65,7.65,0,0,1-5.43-2.12,6.85,6.85,0,0,1,0-10.15,8,8,0,0,1,10.85,0,6.85,6.85,0,0,1,0,10.15A7.64,7.64,0,0,1,496.2,301.64Zm-7.15,57.88V308.25h14.22v51.27Z"/><path class="cls-1" d="M514.62,308.25h14.22v53.81a17.65,17.65,0,0,1-2.34,9.61,13.46,13.46,0,0,1-6.69,5.38,28.65,28.65,0,0,1-10.4,1.7l-1.41,0-1.46-.05V367.57l1,.05h.88q3.43,0,4.83-1.45a6.12,6.12,0,0,0,1.38-4.36Zm7.08-6.61a7.67,7.67,0,0,1-5.41-2.12,6.81,6.81,0,0,1,0-10.15,8,8,0,0,1,10.87,0,6.85,6.85,0,0,1,0,10.15A7.72,7.72,0,0,1,521.7,301.64Z"/><path class="cls-1" d="M540.19,359.52V291.16h14.22v68.36Zm12.88-14.75,0-17.06h2.07l16.42-19.46h16.32L565.86,334h-3.37Zm19.16,14.75-15.08-22.33,9.48-10.05,22.26,32.38Z"/><path class="cls-1" d="M609.08,291.16v68.36H594.87V291.16Z"/><path class="cls-1" d="M620.43,359.52V308.25H634v9h.6a14.28,14.28,0,0,1,5.34-7.11,15.28,15.28,0,0,1,8.94-2.6,15.12,15.12,0,0,1,9,2.62,12.49,12.49,0,0,1,4.94,7.09h.54a13.69,13.69,0,0,1,5.69-7.06,17.71,17.71,0,0,1,9.76-2.65,15.65,15.65,0,0,1,11.67,4.56c3,3,4.49,7.34,4.49,12.9v34.48H680.75V327.84c0-2.85-.75-5-2.27-6.41a8,8,0,0,0-5.67-2.13,7.65,7.65,0,0,0-6,2.45,9.38,9.38,0,0,0-2.17,6.46v31.31H650.81v-32a8.33,8.33,0,0,0-2.15-6A7.5,7.5,0,0,0,643,319.3a7.85,7.85,0,0,0-4.26,1.18,8.43,8.43,0,0,0-3,3.31,10.63,10.63,0,0,0-1.1,4.95v30.78Z"/><path class="cls-1" d="M720.38,329.88v29.64H706.16V308.25h13.55v9h.6A14.39,14.39,0,0,1,726,310.2a17.31,17.31,0,0,1,9.71-2.62,18,18,0,0,1,9.31,2.34,15.88,15.88,0,0,1,6.18,6.66,22.38,22.38,0,0,1,2.2,10.29v32.65H739.2V329.41a10.39,10.39,0,0,0-2.4-7.36,8.66,8.66,0,0,0-6.71-2.65,10.14,10.14,0,0,0-5.06,1.23,8.49,8.49,0,0,0-3.4,3.59A12.35,12.35,0,0,0,720.38,329.88Z"/><path class="cls-1" d="M787.77,360.52a26,26,0,0,1-13.44-3.32,22.47,22.47,0,0,1-8.73-9.28,32.87,32.87,0,0,1,0-27.74,22.53,22.53,0,0,1,8.73-9.28,28.86,28.86,0,0,1,26.88,0,22.44,22.44,0,0,1,8.72,9.28,32.77,32.77,0,0,1,0,27.74,22.38,22.38,0,0,1-8.72,9.28A26.06,26.06,0,0,1,787.77,360.52Zm.07-11a8.85,8.85,0,0,0,5.91-2,12.49,12.49,0,0,0,3.58-5.53,26.68,26.68,0,0,0,0-15.95,12.53,12.53,0,0,0-3.58-5.54,8.76,8.76,0,0,0-5.91-2,9,9,0,0,0-6,2,12.27,12.27,0,0,0-3.63,5.54,26.68,26.68,0,0,0,0,15.95,12.24,12.24,0,0,0,3.63,5.53A9.11,9.11,0,0,0,787.84,349.51Z"/><path class="cls-1" d="M822.29,378.75v-70.5h14v8.61h.64a18.62,18.62,0,0,1,2.72-4.22,14.33,14.33,0,0,1,4.67-3.61,16,16,0,0,1,7.2-1.45,19.36,19.36,0,0,1,10.35,2.92,20.49,20.49,0,0,1,7.57,8.78q2.84,5.87,2.84,14.67a34.15,34.15,0,0,1-2.75,14.47,20.55,20.55,0,0,1-7.48,8.91,19.16,19.16,0,0,1-10.57,3,16.3,16.3,0,0,1-7-1.37,14.57,14.57,0,0,1-4.73-3.46,17.16,17.16,0,0,1-2.8-4.22h-.44v27.44Zm13.92-44.87a23,23,0,0,0,1.26,8,11.68,11.68,0,0,0,3.68,5.29,10,10,0,0,0,11.71,0,11.92,11.92,0,0,0,3.66-5.34,23,23,0,0,0,1.25-7.9,22.54,22.54,0,0,0-1.24-7.81,11.65,11.65,0,0,0-3.63-5.27,10.22,10.22,0,0,0-11.77-.07,11.54,11.54,0,0,0-3.66,5.21A22.69,22.69,0,0,0,836.21,333.88Z"/><path class="cls-1" d="M915.62,378.75V351.31h-.44a18.5,18.5,0,0,1-2.82,4.22,14.33,14.33,0,0,1-4.7,3.46,16.38,16.38,0,0,1-7,1.37,19.16,19.16,0,0,1-10.57-3,20.46,20.46,0,0,1-7.47-8.91A34,34,0,0,1,879.83,334q0-8.81,2.84-14.67a20.47,20.47,0,0,1,7.56-8.78,19.3,19.3,0,0,1,10.37-2.92,15.9,15.9,0,0,1,7.19,1.45,14.33,14.33,0,0,1,4.67,3.61,18.62,18.62,0,0,1,2.72,4.22h.6v-8.61h14v70.5ZM905.13,349a9.09,9.09,0,0,0,5.83-1.89,11.81,11.81,0,0,0,3.67-5.29,25.39,25.39,0,0,0,0-15.92,11.48,11.48,0,0,0-3.67-5.21,9.38,9.38,0,0,0-5.85-1.83,9.2,9.2,0,0,0-5.9,1.9,11.59,11.59,0,0,0-3.64,5.27,22.54,22.54,0,0,0-1.24,7.81,23,23,0,0,0,1.25,7.9,12,12,0,0,0,3.64,5.34A9.1,9.1,0,0,0,905.13,349Z"/><path class="cls-1" d="M941.19,359.52V308.25H955v8.94h.54a13.28,13.28,0,0,1,4.7-7.22,12.42,12.42,0,0,1,7.61-2.46,21.45,21.45,0,0,1,2.31.14,17.81,17.81,0,0,1,2.17.36v12.62a18,18,0,0,0-2.77-.53,24.27,24.27,0,0,0-3.24-.24,11.39,11.39,0,0,0-5.59,1.36,10.06,10.06,0,0,0-3.88,3.75,10.74,10.74,0,0,0-1.41,5.54v29Z"/><path class="cls-1" d="M1022.27,322.87l-13,.8a6.88,6.88,0,0,0-1.44-3,7.74,7.74,0,0,0-2.89-2.17,10,10,0,0,0-4.25-.82,10.5,10.5,0,0,0-5.58,1.39,4.18,4.18,0,0,0-2.27,3.69,4,4,0,0,0,1.47,3.1,11.71,11.71,0,0,0,5,2l9.28,1.87q7.49,1.53,11.15,4.94a11.61,11.61,0,0,1,3.67,8.94,14,14,0,0,1-2.95,8.85,19.3,19.3,0,0,1-8.08,5.92,30.52,30.52,0,0,1-11.8,2.12q-10.19,0-16.2-4.25a16.45,16.45,0,0,1-7.06-11.6l14-.74a7.14,7.14,0,0,0,3.07,4.73,13.07,13.07,0,0,0,12.27.16,4.41,4.41,0,0,0,2.32-3.75,4,4,0,0,0-1.64-3.19,11.83,11.83,0,0,0-4.94-1.92l-8.87-1.77q-7.51-1.5-11.17-5.21a12.88,12.88,0,0,1-3.66-9.44,13.79,13.79,0,0,1,2.69-8.52,17,17,0,0,1,7.58-5.5,31,31,0,0,1,11.46-1.94q9.72,0,15.31,4.11A15.87,15.87,0,0,1,1022.27,322.87Z"/><path class="cls-1" d="M1059.68,308.25v10.68h-30.87V308.25ZM1035.82,296H1050v47.81a6.37,6.37,0,0,0,.6,3.05,3.31,3.31,0,0,0,1.68,1.52,6.79,6.79,0,0,0,2.52.43,11.38,11.38,0,0,0,2-.18l1.53-.28,2.24,10.58c-.71.22-1.71.48-3,.78a24.58,24.58,0,0,1-4.7.55,21.34,21.34,0,0,1-9-1.37,12.52,12.52,0,0,1-6-4.87,14.86,14.86,0,0,1-2.1-8.35Z"/><path class="cls-1" d="M83.92,457.69V428.25H98.13v51.27H84.48v-9.31H84a15.19,15.19,0,0,1-5.76,7.24,17,17,0,0,1-9.8,2.74,17.25,17.25,0,0,1-9-2.34,16,16,0,0,1-6.1-6.64A22.91,22.91,0,0,1,51,460.89V428.25H65.25v30.11a10.4,10.4,0,0,0,2.44,7.17,8.28,8.28,0,0,0,6.44,2.64A10.1,10.1,0,0,0,78.94,467a9.15,9.15,0,0,0,3.62-3.53A10.87,10.87,0,0,0,83.92,457.69Z"/><path class="cls-1" d="M157.29,428.25l-17.93,51.27h-16l-17.93-51.27h15l10.65,36.68h.54l10.61-36.68Z"/><path class="cls-1" d="M174.68,479.52l-14-51.27h14.39l7.95,34.45h.46l8.28-34.45h14.12l8.41,34.25h.44l7.81-34.25h14.35L223,479.52H208l-8.82-32.24h-.63l-8.81,32.24Z"/><path class="cls-1" d="M256.36,428.25l9.41,17.92,9.65-17.92H290l-14.86,25.63,15.26,25.64H275.89L265.77,461.8l-9.95,17.72H241.14l15.22-25.64-14.69-25.63Z"/><path class="cls-1" d="M307.2,498.75a28.78,28.78,0,0,1-5.06-.42,19.32,19.32,0,0,1-3.89-1.05l3.2-10.62a17.53,17.53,0,0,0,4.53.84,5.78,5.78,0,0,0,3.5-.94,7,7,0,0,0,2.42-3.4l.84-2.17-18.4-52.74h15l10.61,37.65h.54l10.71-37.65h15.06l-19.93,56.81a24.3,24.3,0,0,1-3.89,7.23,16.35,16.35,0,0,1-6.19,4.77A21.76,21.76,0,0,1,307.2,498.75Z"/><path class="cls-1" d="M353.23,479.52V471L378.33,440v-.36H354.09V428.25h41.36v9.24L371.89,467.8v.37h24.43v11.35Z"/><path class="cls-1" d="M80.64,531.16v68.36H66.19V544.88h-.4l-15.66,9.81V541.87l16.93-10.71Z"/><path class="cls-1" d="M96.87,599.52V589.11l24.33-22.54q3.1-3,5.22-5.4a20.75,20.75,0,0,0,3.23-4.73,11.59,11.59,0,0,0,1.1-5,9.61,9.61,0,0,0-1.37-5.19,9.11,9.11,0,0,0-3.74-3.37,11.85,11.85,0,0,0-5.37-1.19,11.37,11.37,0,0,0-5.48,1.27,8.71,8.71,0,0,0-3.6,3.64,11.74,11.74,0,0,0-1.27,5.64H96.2a21.75,21.75,0,0,1,3-11.65,20.25,20.25,0,0,1,8.51-7.64,28,28,0,0,1,12.62-2.71,29.69,29.69,0,0,1,12.8,2.59,20.32,20.32,0,0,1,8.49,7.16,18.47,18.47,0,0,1,3,10.48,20.41,20.41,0,0,1-1.52,7.65,32.17,32.17,0,0,1-5.39,8.36,123.71,123.71,0,0,1-10.91,11l-10,9.78v.46H145.6v11.82Z"/><path class="cls-1" d="M181.32,600.46a32.5,32.5,0,0,1-13.3-2.59,22.47,22.47,0,0,1-9.18-7.14,17.83,17.83,0,0,1-3.46-10.54h14.56a7.45,7.45,0,0,0,1.65,4.39,9.78,9.78,0,0,0,4.06,2.92,15,15,0,0,0,5.7,1,13.85,13.85,0,0,0,5.85-1.17,9.62,9.62,0,0,0,4-3.24,8.21,8.21,0,0,0,1.43-4.77,8.09,8.09,0,0,0-1.52-4.86,10,10,0,0,0-4.34-3.32,17,17,0,0,0-6.69-1.2h-6.37V559.36h6.37a13.91,13.91,0,0,0,5.79-1.13,9.34,9.34,0,0,0,3.93-3.16,8.09,8.09,0,0,0,1.4-4.72,8.16,8.16,0,0,0-4.63-7.58,11.19,11.19,0,0,0-5.09-1.1,13.43,13.43,0,0,0-5.37,1.05,9.57,9.57,0,0,0-3.91,3,7.85,7.85,0,0,0-1.57,4.54H156.75a17.8,17.8,0,0,1,3.37-10.41,22,22,0,0,1,8.83-7.06,29.69,29.69,0,0,1,12.57-2.56,28.11,28.11,0,0,1,12.38,2.57,20.63,20.63,0,0,1,8.27,6.93,16.81,16.81,0,0,1,2.92,9.76,13.39,13.39,0,0,1-3.56,9.58,16.32,16.32,0,0,1-9.33,4.88v.53q7.55,1,11.5,5.23a14.83,14.83,0,0,1,3.92,10.63,16.69,16.69,0,0,1-3.35,10.38,22.63,22.63,0,0,1-9.33,7.14A33.56,33.56,0,0,1,181.32,600.46Z"/><path class="cls-1" d="M217,587.5V576.12l28.54-45h9.81v15.75h-5.8l-18,28.48v.53h40.56V587.5Zm32.81,12V584l.27-5V531.16H263.6v68.36Z"/><path class="cls-1" d="M306.66,600.46a29.2,29.2,0,0,1-12.6-2.61,22,22,0,0,1-8.76-7.17,18.46,18.46,0,0,1-3.37-10.49h14a8.53,8.53,0,0,0,3.34,6.45,11.52,11.52,0,0,0,7.37,2.47,11.85,11.85,0,0,0,6-1.52,10.72,10.72,0,0,0,4.1-4.24,13.94,13.94,0,0,0,0-12.6,11,11,0,0,0-4.19-4.28,12.27,12.27,0,0,0-6.11-1.56,14.42,14.42,0,0,0-5.82,1.23,10.51,10.51,0,0,0-4.39,3.37l-12.85-2.3,3.24-36.05h41.79V543H298.55l-1.77,17.13h.4a13.41,13.41,0,0,1,5.44-4.21,19.4,19.4,0,0,1,8.15-1.67,20.73,20.73,0,0,1,18.66,10.87,23.35,23.35,0,0,1,2.77,11.63A23.11,23.11,0,0,1,329,589a22.5,22.5,0,0,1-9,8.41A28.06,28.06,0,0,1,306.66,600.46Z"/><path class="cls-1" d="M368.52,600.46a31.16,31.16,0,0,1-10.17-1.77,23.11,23.11,0,0,1-8.76-5.65,27.13,27.13,0,0,1-6.12-10.34,48.12,48.12,0,0,1-2.26-15.83,56.94,56.94,0,0,1,2-15.4,34,34,0,0,1,5.61-11.53,24.57,24.57,0,0,1,8.76-7.23A25.76,25.76,0,0,1,369,530.22a26.36,26.36,0,0,1,12.08,2.66,22.41,22.41,0,0,1,8.43,7.19,21.94,21.94,0,0,1,3.86,10.18H379.13a9.5,9.5,0,0,0-3.5-5.61,10.64,10.64,0,0,0-6.61-2,11.08,11.08,0,0,0-10.13,5.81q-3.47,5.8-3.52,15.78h.46A16.12,16.12,0,0,1,360,559a19.3,19.3,0,0,1,6-3.3,21.7,21.7,0,0,1,7.1-1.15,20.24,20.24,0,0,1,18.29,10.68,23.17,23.17,0,0,1,2.74,11.38A23.72,23.72,0,0,1,390.87,589a22.41,22.41,0,0,1-9,8.46A27.85,27.85,0,0,1,368.52,600.46Zm-.07-11.35a11.28,11.28,0,0,0,6-1.61,11.44,11.44,0,0,0,4.14-4.34,13.29,13.29,0,0,0,0-12.25,11.41,11.41,0,0,0-4.09-4.3,11.06,11.06,0,0,0-5.94-1.6,11.35,11.35,0,0,0-4.62.93,11.47,11.47,0,0,0-3.71,2.6,12.58,12.58,0,0,0-2.48,3.86,12.13,12.13,0,0,0-.91,4.66,12.29,12.29,0,0,0,1.52,6,12,12,0,0,0,4.14,4.37A11.05,11.05,0,0,0,368.45,589.11Z"/><path class="cls-1" d="M407,599.52l28.34-56.08V543h-33V531.16h48v12L422,599.52Z"/><path class="cls-1" d="M484.38,600.46a35,35,0,0,1-13.7-2.52,22.81,22.81,0,0,1-9.4-6.9,15.69,15.69,0,0,1-3.4-9.91,16.18,16.18,0,0,1,1.95-7.86,17.76,17.76,0,0,1,12.87-9v-.47a14.79,14.79,0,0,1-8.88-5.32,15.22,15.22,0,0,1-3.4-9.83,15.41,15.41,0,0,1,3.1-9.47,20.82,20.82,0,0,1,8.53-6.54,30.37,30.37,0,0,1,12.33-2.39,30.06,30.06,0,0,1,12.34,2.41,21,21,0,0,1,8.53,6.56,15.49,15.49,0,0,1,3.13,9.43,15.21,15.21,0,0,1-3.47,9.84,14.87,14.87,0,0,1-8.81,5.31v.47a17.51,17.51,0,0,1,7.46,3,17.8,17.8,0,0,1,5.34,6,16.24,16.24,0,0,1,2,7.86,15.85,15.85,0,0,1-3.44,9.91,22.77,22.77,0,0,1-9.39,6.9A35.14,35.14,0,0,1,484.38,600.46Zm0-10.62a13.64,13.64,0,0,0,6-1.25,9.82,9.82,0,0,0,4-3.47,9.15,9.15,0,0,0,1.46-5.13,9.26,9.26,0,0,0-1.51-5.25,10.48,10.48,0,0,0-4.07-3.61,12.74,12.74,0,0,0-5.91-1.32,12.91,12.91,0,0,0-5.91,1.32,10.3,10.3,0,0,0-4.08,3.61,10,10,0,0,0-.06,10.38,9.76,9.76,0,0,0,4,3.47A13.79,13.79,0,0,0,484.38,589.84Zm0-30.54a10.85,10.85,0,0,0,5.11-1.17,8.86,8.86,0,0,0,3.51-3.24,9,9,0,0,0,1.26-4.77,8.66,8.66,0,0,0-1.26-4.69,8.81,8.81,0,0,0-3.48-3.17,10.92,10.92,0,0,0-5.14-1.16,11.06,11.06,0,0,0-5.14,1.16,8.64,8.64,0,0,0-3.49,3.17,8.74,8.74,0,0,0-1.25,4.69,8.91,8.91,0,0,0,1.27,4.77,8.79,8.79,0,0,0,3.51,3.24A10.83,10.83,0,0,0,484.38,559.3Z"/><path class="cls-1" d="M545.7,530.22A29.65,29.65,0,0,1,555.87,532a23.55,23.55,0,0,1,8.74,5.64,27,27,0,0,1,6.11,10.27A48,48,0,0,1,573,563.57a56.63,56.63,0,0,1-2,15.54,34.71,34.71,0,0,1-5.6,11.6,24.23,24.23,0,0,1-8.77,7.26,26,26,0,0,1-11.49,2.49,26.36,26.36,0,0,1-12.08-2.66,22.22,22.22,0,0,1-12.29-17.57h14.26a9.64,9.64,0,0,0,3.5,5.79,10.53,10.53,0,0,0,6.61,2.05,11.13,11.13,0,0,0,10.15-5.82q3.46-5.84,3.51-16h-.47a16.22,16.22,0,0,1-4.14,5.16,19.07,19.07,0,0,1-6,3.32,21.5,21.5,0,0,1-7.13,1.17,20.24,20.24,0,0,1-18.26-10.65,25.11,25.11,0,0,1,.44-23.6,22.42,22.42,0,0,1,9-8.43A28,28,0,0,1,545.7,530.22Zm.1,11.35a11.35,11.35,0,0,0-6,1.6,11.65,11.65,0,0,0-4.14,4.31,11.82,11.82,0,0,0-1.48,6,12.31,12.31,0,0,0,1.48,6.06,11.36,11.36,0,0,0,4.07,4.27,11.1,11.1,0,0,0,5.93,1.59,11.35,11.35,0,0,0,4.64-.94,11.51,11.51,0,0,0,3.72-2.58,12.24,12.24,0,0,0,2.49-3.82,12,12,0,0,0,.9-4.61,12.16,12.16,0,0,0-1.54-5.94,11.7,11.7,0,0,0-4.13-4.34A11.07,11.07,0,0,0,545.8,541.57Z"/><path class="cls-1" d="M609.83,601A25.86,25.86,0,0,1,595,596.78a26.51,26.51,0,0,1-9.51-12.18q-3.33-8-3.29-19.19t3.32-19.06a27,27,0,0,1,39.06-12,26.37,26.37,0,0,1,9.53,12q3.33,7.86,3.3,19t-3.32,19.22a26.69,26.69,0,0,1-9.49,12.19A25.68,25.68,0,0,1,609.83,601Zm0-12q5.86,0,9.38-5.91t3.47-17.72a44.82,44.82,0,0,0-1.59-13,16.79,16.79,0,0,0-4.47-7.77,9.79,9.79,0,0,0-6.79-2.61q-5.85,0-9.35,5.84t-3.54,17.5a46,46,0,0,0,1.59,13.13,16.85,16.85,0,0,0,4.49,7.88A9.8,9.8,0,0,0,609.83,589Z"/><path class="cls-1" d="M660,579v-1.14a35.2,35.2,0,0,1,1.05-9.31,13.89,13.89,0,0,1,3-5.61,22.75,22.75,0,0,1,4.74-3.87,32.26,32.26,0,0,0,3.71-2.77,12,12,0,0,0,2.6-3.19,7.94,7.94,0,0,0,1-3.92,7.26,7.26,0,0,0-4.06-6.71,8.86,8.86,0,0,0-4.09-.94,9.24,9.24,0,0,0-4.1.95,8,8,0,0,0-3.17,2.81,8.63,8.63,0,0,0-1.34,4.59H645.71a19.74,19.74,0,0,1,3.21-11,18.43,18.43,0,0,1,8-6.5,27.61,27.61,0,0,1,11-2.16,29.56,29.56,0,0,1,11.75,2.19,18.33,18.33,0,0,1,8,6.32,16.93,16.93,0,0,1,2.91,10,17.47,17.47,0,0,1-1.29,6.92A16.74,16.74,0,0,1,685.8,561a26.85,26.85,0,0,1-5.44,4.19,21.74,21.74,0,0,0-4.32,3.27,10.84,10.84,0,0,0-2.5,3.94,16.72,16.72,0,0,0-.86,5.51V579Zm6.61,21.36A7.79,7.79,0,0,1,661,598a7.61,7.61,0,0,1-2.32-5.66,7.52,7.52,0,0,1,2.32-5.61,8,8,0,0,1,11.27,0,7.66,7.66,0,0,1,1.28,9.63,8.53,8.53,0,0,1-2.92,2.9A7.43,7.43,0,0,1,666.64,600.39Z"/><path class="cls-1" d="M730.47,528l-22,81.85H696.18l22-81.85Z"/><path class="cls-1" d="M787.08,578.06l-47,20.69V585.23l32.18-12.91-.44.7v-1.67l.44.7-32.18-12.92V545.61l47,20.7Z"/><path class="cls-1" d="M805.47,614.38V529.89h26.34V540.5H819.22v63.23h12.59v10.65Z"/><path class="cls-1" d="M862.45,529.89v84.49H836.12V603.73H848.7V540.5H836.12V529.89Z"/><path class="cls-1" d="M875.27,572.42v-6.71q5.78,0,8-2.31t2.24-7.44v-7.38a23.87,23.87,0,0,1,1.72-9.9,12.59,12.59,0,0,1,4.8-5.62,19.4,19.4,0,0,1,7.33-2.54,63.37,63.37,0,0,1,9.28-.63V540.5a13.89,13.89,0,0,0-6,1,5.36,5.36,0,0,0-2.79,3.14,16.59,16.59,0,0,0-.73,5.36v9.74a12.52,12.52,0,0,1-.94,4.83,9.26,9.26,0,0,1-3.47,4,20.45,20.45,0,0,1-7.24,2.77A59.58,59.58,0,0,1,875.27,572.42Zm0,6.1V565.71h12v12.81Zm33.38,35.86a63.31,63.31,0,0,1-9.28-.64A19.23,19.23,0,0,1,892,611.2a12.53,12.53,0,0,1-4.8-5.62,23.81,23.81,0,0,1-1.72-9.9v-7.41q0-5.14-2.24-7.44t-8-2.31v-6.71a59.58,59.58,0,0,1,12.22,1,20.64,20.64,0,0,1,7.24,2.77,9.26,9.26,0,0,1,3.47,4,12.63,12.63,0,0,1,.94,4.86v9.75a16.45,16.45,0,0,0,.73,5.32,5.36,5.36,0,0,0,2.79,3.14,13.89,13.89,0,0,0,6,1Z"/><path class="cls-1" d="M913,529.89a63.12,63.12,0,0,1,9.29.63,19.24,19.24,0,0,1,7.31,2.54,12.54,12.54,0,0,1,4.81,5.62,23.87,23.87,0,0,1,1.72,9.9V556q0,5.14,2.25,7.44c1.51,1.54,4.17,2.31,8,2.31v6.71a59.58,59.58,0,0,1-12.22-1,20.45,20.45,0,0,1-7.24-2.77,9.26,9.26,0,0,1-3.47-4,12.52,12.52,0,0,1-.94-4.83V550a16.59,16.59,0,0,0-.73-5.36,5.36,5.36,0,0,0-2.79-3.14,13.89,13.89,0,0,0-6-1Zm33.38,41.92v6.71c-3.83,0-6.49.77-8,2.31s-2.25,4-2.25,7.44v7.41a23.81,23.81,0,0,1-1.72,9.9,12.49,12.49,0,0,1-4.81,5.62,19.07,19.07,0,0,1-7.31,2.54,63.05,63.05,0,0,1-9.29.64V603.73a13.89,13.89,0,0,0,6-1,5.36,5.36,0,0,0,2.79-3.14,16.45,16.45,0,0,0,.73-5.32V584.5a12.63,12.63,0,0,1,.94-4.86,9.26,9.26,0,0,1,3.47-4,20.64,20.64,0,0,1,7.24-2.77A59.58,59.58,0,0,1,946.34,571.81Zm0-6.1v12.81h-12V565.71Z"/><path class="cls-1" d="M958,572.12a75.32,75.32,0,0,1,3.32-22.87,63,63,0,0,1,10.17-19.36h13.58a41.78,41.78,0,0,0-4.84,8.06,72.61,72.61,0,0,0-3.9,10.43,90.62,90.62,0,0,0-2.61,11.74,78.82,78.82,0,0,0-.93,12,81,81,0,0,0,1.62,16,85.28,85.28,0,0,0,4.4,15,46.39,46.39,0,0,0,6.26,11.32H971.51A63.14,63.14,0,0,1,961.34,595,75.31,75.31,0,0,1,958,572.12Z"/><path class="cls-1" d="M1017.27,572.12A75,75,0,0,1,1014,595a62.9,62.9,0,0,1-10.16,19.37H990.2A41.48,41.48,0,0,0,995,606.3,75.23,75.23,0,0,0,999,595.87a89.88,89.88,0,0,0,2.6-11.74,79.25,79.25,0,0,0,.93-12,81.72,81.72,0,0,0-1.61-16,83.72,83.72,0,0,0-4.41-14.95,46.42,46.42,0,0,0-6.26-11.3h13.59A62.73,62.73,0,0,1,1014,549.25,75,75,0,0,1,1017.27,572.12Z"/><path class="cls-1" d="M1040,600.39a8,8,0,0,1-8-8,7.62,7.62,0,0,1,2.35-5.61,7.73,7.73,0,0,1,5.66-2.34,7.82,7.82,0,0,1,5.61,2.34,7.56,7.56,0,0,1,2.4,5.61,7.48,7.48,0,0,1-1.12,4,8.53,8.53,0,0,1-2.92,2.9A7.5,7.5,0,0,1,1040,600.39Z"/><path class="cls-1" d="M1068,600.39a7.8,7.8,0,0,1-5.68-2.35,7.55,7.55,0,0,1-2.33-5.66,7.46,7.46,0,0,1,2.33-5.61,7.93,7.93,0,0,1,11.25,0,7.67,7.67,0,0,1,2.44,5.61,7.77,7.77,0,0,1-1.15,4,8.62,8.62,0,0,1-2.92,2.9A7.48,7.48,0,0,1,1068,600.39Zm7.41-69.23-1.3,47.87h-12.22l-1.34-47.87Z"/></g></svg>