<svg xmlns="http://www.w3.org/2000/svg" viewBox="0 0 648 648"><defs><style>.cls-1{fill:#ff5e3f;}</style></defs><g id="Background"><rect class="cls-1" width="648" height="648"/></g><g id="Layer_1" data-name="Layer 1"><path d="M344.1,417.69a8.59,8.59,0,0,1,2.61,6.31,8.35,8.35,0,0,1-2.61,6.18,8.57,8.57,0,0,1-6.22,2.56q-4.67,0-7-2.89a11.82,11.82,0,0,1-2.38-7.75,30.86,30.86,0,0,1,2.47-11.4,41.45,41.45,0,0,1,6.56-11.11l6.08,6.27a29.45,29.45,0,0,0-6.08,9.21h.38A8.51,8.51,0,0,1,344.1,417.69Zm-12.44,38.95a9.07,9.07,0,0,1-2.81-6.8,9.27,9.27,0,0,1,2.71-6.74,9.13,9.13,0,0,1,6.79-2.76,9,9,0,0,1,6.7,2.76,9.75,9.75,0,0,1,0,13.49,9,9,0,0,1-6.7,2.75A9.3,9.3,0,0,1,331.66,456.64Z"/><path d="M359.16,457.54q0-11.21,2.37-16.72,5.33-12.35,10.93-17.86t12.44-5.51a11.94,11.94,0,0,1,8.22,3.09,19.61,19.61,0,0,1,5.32,8.4,35.86,35.86,0,0,1,1.85,11.88,41.24,41.24,0,0,1-1.42,10.73,7.14,7.14,0,0,1-1.38,2.66,19.7,19.7,0,0,1-3.37,3q-3.33,2.47-5.32,2.47a5.25,5.25,0,0,1-2-.47l-16.53-7.89a84.07,84.07,0,0,0,1.33,10.31q1,5.56,3.23,15.25c.38,1.39.89,3.55,1.52,6.46l-14.15,5A188.61,188.61,0,0,1,359.16,457.54Zm30.21-17.86a13,13,0,0,0-1.52-6.65,5,5,0,0,0-4.56-2.57,5.84,5.84,0,0,0-4.23,1.71,34.29,34.29,0,0,0-4.51,6.18l14.06,6.46A14.31,14.31,0,0,0,389.37,439.68Z"/><path d="M419.29,439.68A97.47,97.47,0,0,0,417,419.06a52.13,52.13,0,0,0-9.4-20.14l9.21-8a61.25,61.25,0,0,1,10.31,22.9,119,119,0,0,1,2.33,23.65Zm45.32,3.51a11.08,11.08,0,0,1,.28,2.66v8.27a11.08,11.08,0,0,1-.28,2.66c-.19.76-.42,1.14-.67,1.14h-4.27q-6.18,0-9.74-1.66a10.61,10.61,0,0,1-5.27-5.37q-5.42,4.75-14.44,7.17A88.72,88.72,0,0,1,411.5,461l-2.09-15.87a117.12,117.12,0,0,0,17.53-2.32q8.88-1.86,13-4.14l-3-51.11,12.54-2.09.95,49.4a10.67,10.67,0,0,0,.9,4.56,4.34,4.34,0,0,0,2.9,2.09,26.07,26.07,0,0,0,6.36.57h3.42C464.19,442.05,464.42,442.43,464.61,443.19Z"/><path d="M532.34,441.48a17.36,17.36,0,0,1-2.23,9.12,14,14,0,0,1-5.89,5.51,17.39,17.39,0,0,1-7.84,1.81,21.64,21.64,0,0,1-8.07-1.33,9.08,9.08,0,0,1-4.94-4.66,9.39,9.39,0,0,1-4.8,4.71,15.36,15.36,0,0,1-5.84,1.28q-8.26,0-11.59-6.08a12,12,0,0,1-6.84,4.8,37.88,37.88,0,0,1-10.36,1.28c-.25,0-.46-.36-.62-1.09a13.69,13.69,0,0,1-.23-2.71v-8.27a13.87,13.87,0,0,1,.23-2.66c.16-.76.37-1.14.62-1.14a34.43,34.43,0,0,0,11.59-1.71V427h10.93l-.1,10.07c-.06,1.78.3,3,1.09,3.8a5.13,5.13,0,0,0,3.66,1.14,21.57,21.57,0,0,0,7.22-1.14l-.76-17.29,10.93-.38.38,18.05a11.61,11.61,0,0,0,4.65.76,22,22,0,0,0,8.08-1.23l-2.28-21.38,12.06-2.09Q532.34,430.94,532.34,441.48Z"/><path d="M569.72,443.19a13.06,13.06,0,0,1,.24,2.66v8.27a12.89,12.89,0,0,1-.24,2.71c-.16.73-.36,1.09-.61,1.09h-3q-6.93,0-11.21-2.09a13.51,13.51,0,0,1-6.46-7.17q-2.19-5.09-2.56-14.3l-1.81-46.84,12.54-2.09.09,48.74a8.6,8.6,0,0,0,2,5.75,7.38,7.38,0,0,0,5.74,2.13h4.57C569.36,442.05,569.56,442.43,569.72,443.19Z"/><path d="M596.27,441.29a16.44,16.44,0,0,1-1.42,6.8,12.52,12.52,0,0,1-4.47,5.27q-6.74,4.56-21.28,4.56c-.25,0-.45-.36-.61-1.09a12.89,12.89,0,0,1-.24-2.71v-8.27a13.06,13.06,0,0,1,.24-2.66c.16-.76.36-1.14.61-1.14a80.78,80.78,0,0,0,9.6-.47,22.24,22.24,0,0,0,6.74-1.81l-2.28-20.33,12.16-2.09Q596.28,432,596.27,441.29Zm-18.9,25.56L588,475.4l-8.17,9.88-10.64-8.55Z"/><path d="M202.6,582.09A30.32,30.32,0,0,0,211.06,572l-4-29,12.54-2.57q1.23,10.74,1.76,17.1c.34,4.25.52,8,.52,11.12a31.23,31.23,0,0,1-6.75,19.76q-6.73,8.64-22.89,16.24l-8.36-12.06Q196.72,586.89,202.6,582.09Zm8.08-69.78,10.64,8.55-8.17,9.88-10.64-8.55Z"/><path d="M268.06,560.19a11.08,11.08,0,0,1,.28,2.66v8.27a11.08,11.08,0,0,1-.28,2.66c-.19.76-.41,1.14-.67,1.14h-3a12,12,0,0,1-9.5-4.28A33.7,33.7,0,0,1,248.49,589q-5.9,8.26-18.53,15.67l-8.36-12.06q9.69-5.13,14.82-10.17a36.9,36.9,0,0,0,7.7-10.45l-4-29,12.54-2.57,1.42,12.64q.39,3.42,2.71,4.7c1.55.86,4,1.28,7.36,1.28h3.23C267.65,559.05,267.87,559.43,268.06,560.19Z"/><path d="M306.29,540.39a19.62,19.62,0,0,1,5.33,8.4,36.12,36.12,0,0,1,1.85,11.88A41.25,41.25,0,0,1,312,571.4a6.58,6.58,0,0,1-1.28,2.62,18.08,18.08,0,0,1-3.47,3.08,13.85,13.85,0,0,1-2.85,1.9,5.63,5.63,0,0,1-2.37.57,5.92,5.92,0,0,1-2.09-.47l-17.77-7.89a12.11,12.11,0,0,1-5.08,2.81,28.16,28.16,0,0,1-7.74.9h-2c-.25,0-.46-.36-.62-1.09a13.69,13.69,0,0,1-.23-2.71v-8.27a13.87,13.87,0,0,1,.23-2.66c.16-.76.37-1.14.62-1.14h3.33a19.7,19.7,0,0,0,4.6-.38,3.79,3.79,0,0,0,2.24-1.42,23.24,23.24,0,0,0,1.9-3.52q3.8-8.84,8-12.63a15.21,15.21,0,0,1,10.64-3.8A11.93,11.93,0,0,1,306.29,540.39ZM302.54,560a12.86,12.86,0,0,0-1.52-6.65,5,5,0,0,0-4.56-2.56,5.73,5.73,0,0,0-4.23,1.66,39.05,39.05,0,0,0-4.51,6.22l14.16,6.46A16.65,16.65,0,0,0,302.54,560Z"/><path d="M397.35,560.24a11.15,11.15,0,0,1,.29,2.61v8.27a11,11,0,0,1-.29,2.66q-.28,1.14-.57,1.14H384.62a9.56,9.56,0,0,1,.1,1.61A18.91,18.91,0,0,1,380,589.6a28.05,28.05,0,0,1-12.54,7.83A55.45,55.45,0,0,1,350.14,600q-13.31,0-19.1-5t-5.79-15.1q0-3.42,2.18-16.25l2.38-15.1,9.69,2.09q-3.71,22.23-3.71,26.88,0,3.71,4.32,5.18a31.2,31.2,0,0,0,10,1.47A77.16,77.16,0,0,0,365,583a23.08,23.08,0,0,0,9.5-4,2.92,2.92,0,0,0-2.19-3.32,30.07,30.07,0,0,0-8.17-.76h-4.84l2.66-15.87h34.86C397,559.05,397.16,559.45,397.35,560.24Z"/><path d="M424,558.29a16.44,16.44,0,0,1-1.42,6.8,12.52,12.52,0,0,1-4.47,5.27q-6.75,4.56-21.28,4.56c-.25,0-.46-.36-.62-1.09a13.69,13.69,0,0,1-.23-2.71v-8.27a13.87,13.87,0,0,1,.23-2.66c.16-.76.37-1.14.62-1.14a80.78,80.78,0,0,0,9.6-.47,22.32,22.32,0,0,0,6.74-1.81l-2.28-20.33L423,534.35Q423.95,549,424,558.29Zm-18.9,25.56,10.64,8.55-8.17,9.88-10.64-8.55Z"/><path d="M456.44,582.09A30.28,30.28,0,0,0,464.89,572l-4-29,12.54-2.57q1.24,10.74,1.76,17.1c.35,4.25.52,8,.52,11.12A31.22,31.22,0,0,1,469,588.41q-6.75,8.64-22.9,16.24l-8.36-12.06Q450.54,586.89,456.44,582.09Z"/><path d="M487.5,504.52,500,502.43l.19,72.49-10.45,1.33Z"/><path d="M513.06,582.09A30.4,30.4,0,0,0,521.51,572l-4-29,12.54-2.57q1.23,10.74,1.76,17.1c.35,4.25.52,8,.52,11.12a31.28,31.28,0,0,1-6.74,19.76q-6.75,8.64-22.9,16.24l-8.36-12.06Q507.17,586.89,513.06,582.09Zm8.07-69.78,10.64,8.55-8.17,9.88L513,522.19Z"/><path d="M569.72,560.19a13.06,13.06,0,0,1,.24,2.66v8.27a12.89,12.89,0,0,1-.24,2.71c-.15.73-.36,1.09-.61,1.09h-3q-6.93,0-11.21-2.09a13.51,13.51,0,0,1-6.46-7.17q-2.19-5.08-2.56-14.3l-1.81-46.84,12.54-2.09.1,48.74a8.54,8.54,0,0,0,2,5.75,7.4,7.4,0,0,0,5.75,2.13h4.56C569.36,559.05,569.57,559.43,569.72,560.19Z"/><path d="M596.28,558.29a16.45,16.45,0,0,1-1.43,6.8,12.57,12.57,0,0,1-4.46,5.27q-6.75,4.56-21.28,4.56c-.26,0-.46-.36-.62-1.09a12.89,12.89,0,0,1-.24-2.71v-8.27a13.06,13.06,0,0,1,.24-2.66c.16-.76.36-1.14.62-1.14a80.6,80.6,0,0,0,9.59-.47,22.31,22.31,0,0,0,6.75-1.81l-2.28-20.33,12.16-2.09Q596.28,549,596.28,558.29Zm-18.91,25.56L588,592.4l-8.17,9.88-10.64-8.55Z"/><path d="M48.29,71H46.2l7.94-21.81h2.13L64.21,71H62.12L55.28,51.72h-.15Zm1.5-8.36H60.62v1.79H49.79Z"/><path d="M84.94,49.14V71H83L70.11,52.68h-.17V71H68V49.14h1.92L82.81,67.43H83V49.14Z"/><path d="M99,49.14h2V64.87a7.52,7.52,0,0,1-.77,3.55,5,5,0,0,1-2.08,2.13,6.45,6.45,0,0,1-3.06.7,7,7,0,0,1-3-.63A5.09,5.09,0,0,1,90,68.86a4.71,4.71,0,0,1-.76-2.68h2a2.92,2.92,0,0,0,.51,1.71,3.49,3.49,0,0,0,1.4,1.16,4.78,4.78,0,0,0,2,.41,4.11,4.11,0,0,0,2-.49,3.29,3.29,0,0,0,1.38-1.51,5.89,5.89,0,0,0,.5-2.59Z"/><path d="M124.67,60A13.5,13.5,0,0,1,123.46,66a9.35,9.35,0,0,1-3.34,3.9,9.34,9.34,0,0,1-9.77,0A9.26,9.26,0,0,1,107,66,13.5,13.5,0,0,1,105.81,60,13.48,13.48,0,0,1,107,54.12a9.28,9.28,0,0,1,3.34-3.9,9.32,9.32,0,0,1,9.76,0,9.35,9.35,0,0,1,3.34,3.9A13.48,13.48,0,0,1,124.67,60Zm-1.93,0a11.83,11.83,0,0,0-1-5,7.6,7.6,0,0,0-2.68-3.2,7.2,7.2,0,0,0-7.68,0,7.54,7.54,0,0,0-2.68,3.2,11.62,11.62,0,0,0-1,5,11.62,11.62,0,0,0,1,5,7.51,7.51,0,0,0,2.67,3.2,6.79,6.79,0,0,0,3.85,1.12,6.91,6.91,0,0,0,3.85-1.11,7.6,7.6,0,0,0,2.68-3.2A11.85,11.85,0,0,0,122.74,60Z"/><path d="M129.49,49.14h2.3l7.92,19h.19l7.91-19h2.31V71h-1.88V53.34h-.17L140.71,71H138.9l-7.36-17.61h-.17V71h-1.88Z"/><path d="M155.94,71h-2.09l7.94-21.81h2.13L171.86,71h-2.09l-6.84-19.23h-.15Zm1.5-8.36h10.83v1.79H157.44Z"/><path d="M192.59,49.14V71h-1.94L177.76,52.68h-.17V71h-2V49.14h1.93l12.93,18.29h.17V49.14Z"/><path d="M206.82,71V49.14h7.36a7.6,7.6,0,0,1,3.56.74,5,5,0,0,1,2.13,2,5.89,5.89,0,0,1,.72,2.93,5.5,5.5,0,0,1-.46,2.33,4,4,0,0,1-1.25,1.56,5.09,5.09,0,0,1-1.76.87v.17a4.1,4.1,0,0,1,2,.74,5,5,0,0,1,1.63,1.86,6.45,6.45,0,0,1-.1,5.8,5,5,0,0,1-2.25,2,8.71,8.71,0,0,1-3.86.74Zm2-12h5.56a4.65,4.65,0,0,0,2.25-.53A4,4,0,0,0,218.14,57a4.23,4.23,0,0,0,.54-2.14A3.77,3.77,0,0,0,217.55,52a4.65,4.65,0,0,0-3.37-1.09h-5.37Zm0,10.17h5.78a5.36,5.36,0,0,0,3.73-1.11,3.68,3.68,0,0,0,1.21-2.82,4.37,4.37,0,0,0-.6-2.26,4.3,4.3,0,0,0-1.69-1.61,5.28,5.28,0,0,0-2.57-.6h-5.86Z"/><path d="M232.21,71.29a6.64,6.64,0,0,1-3.75-1.07,7.36,7.36,0,0,1-2.54-3,10,10,0,0,1-.91-4.39,10.13,10.13,0,0,1,.91-4.43,7.29,7.29,0,0,1,2.54-3,7.09,7.09,0,0,1,7.49,0,7.25,7.25,0,0,1,2.54,3,10.09,10.09,0,0,1,.92,4.42,9.88,9.88,0,0,1-.92,4.39,7.21,7.21,0,0,1-2.54,3A6.59,6.59,0,0,1,232.21,71.29Zm0-1.73a4.58,4.58,0,0,0,2.89-.92,5.74,5.74,0,0,0,1.79-2.44,8.84,8.84,0,0,0,.61-3.35,8.94,8.94,0,0,0-.61-3.37A5.87,5.87,0,0,0,235.1,57a4.94,4.94,0,0,0-5.77,0,5.8,5.8,0,0,0-1.8,2.46,9,9,0,0,0-.62,3.37,8.84,8.84,0,0,0,.62,3.35,5.66,5.66,0,0,0,1.79,2.44A4.58,4.58,0,0,0,232.21,69.56Z"/><path d="M245.47,49.14V71h-1.89V49.14Z"/><path d="M256.37,71.29a6,6,0,0,1-3.53-1.06,7.12,7.12,0,0,1-2.36-3,11,11,0,0,1-.84-4.45,10.86,10.86,0,0,1,.84-4.42,6.92,6.92,0,0,1,2.38-3,6,6,0,0,1,3.54-1.06,5.24,5.24,0,0,1,2.48.52,5,5,0,0,1,1.59,1.31,7.63,7.63,0,0,1,.93,1.51h.17V49.14h1.91V71h-1.86v-3h-.22a7.63,7.63,0,0,1-.94,1.53,4.86,4.86,0,0,1-1.6,1.31A5.19,5.19,0,0,1,256.37,71.29Zm.22-1.73a4.29,4.29,0,0,0,2.71-.87,5.37,5.37,0,0,0,1.71-2.4,9.78,9.78,0,0,0,.59-3.51,9.6,9.6,0,0,0-.58-3.47A5.38,5.38,0,0,0,259.31,57a4.73,4.73,0,0,0-5.48,0,5.54,5.54,0,0,0-1.71,2.4,10.29,10.29,0,0,0,0,6.84,5.56,5.56,0,0,0,1.71,2.44A4.27,4.27,0,0,0,256.59,69.56Z"/></g></svg>