<svg xmlns="http://www.w3.org/2000/svg" viewBox="0 0 648 648"><defs><style>.cls-1{fill:#ff5e3f;}</style></defs><g id="Background"><rect class="cls-1" width="648" height="648"/></g><g id="Layer_1" data-name="Layer 1"><path d="M50.22,492.64V423.55H73.53a24.09,24.09,0,0,1,11.25,2.36,16,16,0,0,1,6.76,6.44,18.84,18.84,0,0,1,2.26,9.28A17.15,17.15,0,0,1,92.35,449a13.08,13.08,0,0,1-3.95,5,16.22,16.22,0,0,1-5.56,2.73v.54a13.24,13.24,0,0,1,6.48,2.35,16,16,0,0,1,5.16,5.88,18.91,18.91,0,0,1,2,9,18.56,18.56,0,0,1-2.33,9.33A16,16,0,0,1,87,490.3a28,28,0,0,1-12.23,2.34Zm6.3-37.89H74.1a14.64,14.64,0,0,0,7.15-1.68A12.2,12.2,0,0,0,86,448.41a13.25,13.25,0,0,0,1.72-6.78,11.94,11.94,0,0,0-3.57-9q-3.59-3.45-10.66-3.45h-17Zm0,32.22H74.81q8,0,11.82-3.54a11.59,11.59,0,0,0,3.83-8.91,13.63,13.63,0,0,0-7.27-12.28,16.64,16.64,0,0,0-8.11-1.89H56.52Z"/><path d="M130.61,493.72a21,21,0,0,1-11.86-3.41,23,23,0,0,1-8-9.43A31.73,31.73,0,0,1,107.8,467a32.16,32.16,0,0,1,2.9-14,22.86,22.86,0,0,1,8-9.45,22.35,22.35,0,0,1,23.7,0A23.14,23.14,0,0,1,150.5,453a35,35,0,0,1,0,27.91,22.9,22.9,0,0,1-8,9.43A21,21,0,0,1,130.61,493.72Zm0-5.5a14.5,14.5,0,0,0,9.14-2.9,18,18,0,0,0,5.68-7.73A28,28,0,0,0,147.38,467a28.36,28.36,0,0,0-1.95-10.66,18.24,18.24,0,0,0-5.68-7.8,15.71,15.71,0,0,0-18.27,0,18.19,18.19,0,0,0-5.7,7.8A28.56,28.56,0,0,0,113.84,467a28.23,28.23,0,0,0,1.94,10.62,18,18,0,0,0,5.68,7.73A14.53,14.53,0,0,0,130.61,488.22Z"/><path d="M199.53,472.84v-32h6v51.82h-6V484h-.47a16,16,0,0,1-5.77,6.63,17,17,0,0,1-9.65,2.64,17.6,17.6,0,0,1-8.81-2.17,15.25,15.25,0,0,1-6-6.39,22.32,22.32,0,0,1-2.19-10.36V440.82h6V474a13.44,13.44,0,0,0,3.57,9.76,12.21,12.21,0,0,0,9.18,3.7,14.37,14.37,0,0,0,6.75-1.69,13.92,13.92,0,0,0,5.33-4.94A14.56,14.56,0,0,0,199.53,472.84Z"/><path d="M227.39,460.25v32.39h-6V440.82h5.83V449h.54a14.61,14.61,0,0,1,5.69-6.39,17.69,17.69,0,0,1,9.56-2.41,18.84,18.84,0,0,1,9.2,2.17,15,15,0,0,1,6.17,6.4,22.12,22.12,0,0,1,2.21,10.35v33.57h-6v-33.2q0-6.37-3.55-10.08a12.58,12.58,0,0,0-9.53-3.71,14.74,14.74,0,0,0-7.26,1.75,12.78,12.78,0,0,0-5,5A15.85,15.85,0,0,0,227.39,460.25Z"/><path d="M295.1,493.72a18.92,18.92,0,0,1-11.17-3.37,22.26,22.26,0,0,1-7.47-9.42,38.12,38.12,0,0,1,0-28.08,22,22,0,0,1,7.51-9.38,19.14,19.14,0,0,1,11.23-3.36,16.63,16.63,0,0,1,7.86,1.67,15.26,15.26,0,0,1,5,4.14,23.67,23.67,0,0,1,2.93,4.79h.54V423.55h6v69.09h-5.87V483H311a23.53,23.53,0,0,1-3,4.84A15.72,15.72,0,0,1,303,492,16.5,16.5,0,0,1,295.1,493.72Zm.71-5.5a13.58,13.58,0,0,0,8.57-2.75,17.17,17.17,0,0,0,5.41-7.59,30.63,30.63,0,0,0,1.88-11.12,30.16,30.16,0,0,0-1.86-11,16.92,16.92,0,0,0-5.4-7.49,15,15,0,0,0-17.36.11,17.31,17.31,0,0,0-5.39,7.6,29.77,29.77,0,0,0-1.84,10.76,30.5,30.5,0,0,0,1.85,10.9,17.68,17.68,0,0,0,5.42,7.71A13.5,13.5,0,0,0,295.81,488.22Z"/><path d="M340.71,423.55v69.09h-6V423.55Z"/><path d="M377.52,493.72A22.76,22.76,0,0,1,365,490.33a22.37,22.37,0,0,1-8.18-9.41A31.7,31.7,0,0,1,353.9,467a32,32,0,0,1,2.89-13.91,23.22,23.22,0,0,1,8-9.55,20.65,20.65,0,0,1,11.83-3.46,22.15,22.15,0,0,1,8.13,1.54,20.14,20.14,0,0,1,7,4.69,22.35,22.35,0,0,1,4.94,7.93,31.47,31.47,0,0,1,1.82,11.28v3H358.05v-5.3h34.34a19.87,19.87,0,0,0-2-9,16,16,0,0,0-5.57-6.32,15.62,15.62,0,0,0-16.88.3,17.93,17.93,0,0,0-5.86,7,21.63,21.63,0,0,0-2.14,9.45v3.17a25.32,25.32,0,0,0,2.14,10.78,16.54,16.54,0,0,0,6.09,7.13A18.61,18.61,0,0,0,384,487.07a13.92,13.92,0,0,0,4.69-3.08,13.64,13.64,0,0,0,2.88-4.27l5.7,1.85a16.79,16.79,0,0,1-3.86,6,19.63,19.63,0,0,1-6.68,4.44A23.76,23.76,0,0,1,377.52,493.72Z"/><path d="M446.54,452.19l-5.5,1.55a14.68,14.68,0,0,0-2.29-4.21,10.53,10.53,0,0,0-3.87-3,13.86,13.86,0,0,0-5.88-1.11,14.11,14.11,0,0,0-8.64,2.5,7.66,7.66,0,0,0-3.37,6.44,6.92,6.92,0,0,0,2.31,5.41,16.75,16.75,0,0,0,7.13,3.29l7.83,1.93q6.51,1.57,9.77,5a12.09,12.09,0,0,1,3.25,8.64,13.08,13.08,0,0,1-2.43,7.79,16.19,16.19,0,0,1-6.76,5.35,24.43,24.43,0,0,1-10,1.94q-7.59,0-12.51-3.42a15.46,15.46,0,0,1-6.31-9.91L415,479a11.57,11.57,0,0,0,4.36,7,14.37,14.37,0,0,0,8.59,2.36q6,0,9.55-2.68a8.12,8.12,0,0,0,3.57-6.73,7.25,7.25,0,0,0-2.09-5.28,12.77,12.77,0,0,0-6.34-3.15l-8.47-2q-6.75-1.62-10-5.13a12.34,12.34,0,0,1-3.24-8.7,12.57,12.57,0,0,1,2.33-7.54,15.57,15.57,0,0,1,6.41-5.11,22.2,22.2,0,0,1,9.31-1.86q7.11,0,11.38,3.23A17.82,17.82,0,0,1,446.54,452.19Z"/><path d="M495.25,452.19l-5.5,1.55a14.44,14.44,0,0,0-2.29-4.21,10.58,10.58,0,0,0-3.86-3,13.91,13.91,0,0,0-5.89-1.11,14.11,14.11,0,0,0-8.64,2.5,7.66,7.66,0,0,0-3.37,6.44,6.92,6.92,0,0,0,2.31,5.41,16.74,16.74,0,0,0,7.14,3.29L483,465q6.51,1.57,9.77,5a12.09,12.09,0,0,1,3.25,8.64,13.14,13.14,0,0,1-2.42,7.79,16.22,16.22,0,0,1-6.77,5.35,24.4,24.4,0,0,1-10,1.94c-5.05,0-9.23-1.14-12.51-3.42a15.46,15.46,0,0,1-6.31-9.91l5.77-1.41a11.58,11.58,0,0,0,4.37,7,14.32,14.32,0,0,0,8.58,2.36q6,0,9.55-2.68a8.13,8.13,0,0,0,3.58-6.73,7.29,7.29,0,0,0-2.09-5.28,12.8,12.8,0,0,0-6.35-3.15l-8.47-2q-6.74-1.62-10-5.13a12.34,12.34,0,0,1-3.24-8.7,12.63,12.63,0,0,1,2.33-7.54A15.64,15.64,0,0,1,468.4,442a22.2,22.2,0,0,1,9.31-1.86q7.13,0,11.39,3.23A17.87,17.87,0,0,1,495.25,452.19Z"/><path d="M50.22,602.64V533.55H73.53a24.09,24.09,0,0,1,11.25,2.36,16,16,0,0,1,6.76,6.44,18.84,18.84,0,0,1,2.26,9.28A17.15,17.15,0,0,1,92.35,559a13.08,13.08,0,0,1-3.95,5,16.22,16.22,0,0,1-5.56,2.73v.54a13.24,13.24,0,0,1,6.48,2.35,16,16,0,0,1,5.16,5.88,18.91,18.91,0,0,1,2,9,18.56,18.56,0,0,1-2.33,9.33A16,16,0,0,1,87,600.3a28,28,0,0,1-12.23,2.34Zm6.3-37.89H74.1a14.64,14.64,0,0,0,7.15-1.68A12.2,12.2,0,0,0,86,558.41a13.25,13.25,0,0,0,1.72-6.78,11.94,11.94,0,0,0-3.57-9q-3.59-3.45-10.66-3.45h-17Zm0,32.22H74.81q8,0,11.82-3.54a11.59,11.59,0,0,0,3.83-8.91,13.63,13.63,0,0,0-7.27-12.28,16.64,16.64,0,0,0-8.11-1.89H56.52Z"/><path d="M124.94,603.82a19.7,19.7,0,0,1-8.57-1.84,14.8,14.8,0,0,1-6.17-5.33,15.1,15.1,0,0,1-2.3-8.48,13.32,13.32,0,0,1,1.45-6.48,11.9,11.9,0,0,1,4.12-4.32,22.88,22.88,0,0,1,6.31-2.66,57.4,57.4,0,0,1,8-1.52q4.35-.54,7.37-1a13.31,13.31,0,0,0,4.6-1.28,3,3,0,0,0,1.59-2.83v-1.22a11.06,11.06,0,0,0-3.16-8.35q-3.15-3-9.05-3A15.61,15.61,0,0,0,120,558a13.62,13.62,0,0,0-4.94,5.81l-5.7-2.06a16.93,16.93,0,0,1,4.86-6.8,19.48,19.48,0,0,1,7-3.68,27.6,27.6,0,0,1,7.79-1.13,26.3,26.3,0,0,1,6.19.78,17.94,17.94,0,0,1,6,2.68,13.88,13.88,0,0,1,4.48,5.3,18.85,18.85,0,0,1,1.73,8.58v35.19h-6v-8.2H141a16.3,16.3,0,0,1-3.21,4.46,16.6,16.6,0,0,1-5.33,3.54A18.87,18.87,0,0,1,124.94,603.82Zm.81-5.5a15.79,15.79,0,0,0,8.3-2.12,14.67,14.67,0,0,0,5.41-5.65,16.12,16.12,0,0,0,1.91-7.78v-7.49a6,6,0,0,1-2.24,1.15,32.33,32.33,0,0,1-3.61.89c-1.36.26-2.72.48-4.07.66l-3.64.47a33.29,33.29,0,0,0-7.49,1.69,10.81,10.81,0,0,0-4.76,3.15,7.86,7.86,0,0,0-1.65,5.15,8.64,8.64,0,0,0,3.37,7.3A13.53,13.53,0,0,0,125.75,598.32Z"/><path d="M161.71,602.64v-4.76l30-41v-.44H163v-5.67h36.4v5L170,596.53V597h30.49v5.67Z"/><path d="M228.17,603.82A19.7,19.7,0,0,1,219.6,602a14.8,14.8,0,0,1-6.17-5.33,15.1,15.1,0,0,1-2.3-8.48,13.32,13.32,0,0,1,1.45-6.48,11.9,11.9,0,0,1,4.12-4.32,22.88,22.88,0,0,1,6.31-2.66,57.68,57.68,0,0,1,8-1.52q4.35-.54,7.37-1A13.31,13.31,0,0,0,243,571a3,3,0,0,0,1.59-2.83v-1.22a11.1,11.1,0,0,0-3.15-8.35q-3.16-3-9.06-3a15.61,15.61,0,0,0-9.13,2.46,13.62,13.62,0,0,0-4.94,5.81l-5.7-2.06a16.93,16.93,0,0,1,4.86-6.8,19.56,19.56,0,0,1,7-3.68,27.6,27.6,0,0,1,7.79-1.13,26.3,26.3,0,0,1,6.19.78,17.94,17.94,0,0,1,6,2.68,13.88,13.88,0,0,1,4.48,5.3,18.85,18.85,0,0,1,1.73,8.58v35.19h-6v-8.2h-.37A16.3,16.3,0,0,1,241,598.9a16.6,16.6,0,0,1-5.33,3.54A18.87,18.87,0,0,1,228.17,603.82Zm.81-5.5a15.79,15.79,0,0,0,8.3-2.12,14.67,14.67,0,0,0,5.41-5.65,16.12,16.12,0,0,0,1.91-7.78v-7.49a6,6,0,0,1-2.24,1.15,32.33,32.33,0,0,1-3.61.89c-1.36.26-2.72.48-4.07.66l-3.64.47a33.41,33.41,0,0,0-7.49,1.69,10.81,10.81,0,0,0-4.76,3.15,7.86,7.86,0,0,0-1.65,5.15,8.64,8.64,0,0,0,3.37,7.3A13.53,13.53,0,0,0,229,598.32Z"/><path d="M281,603.82a19.73,19.73,0,0,1-8.57-1.84,14.8,14.8,0,0,1-6.17-5.33,15.09,15.09,0,0,1-2.29-8.48,13.21,13.21,0,0,1,1.45-6.48,12,12,0,0,1,4.11-4.32,22.88,22.88,0,0,1,6.31-2.66,57.68,57.68,0,0,1,8-1.52q4.35-.54,7.37-1a13.38,13.38,0,0,0,4.61-1.28,3,3,0,0,0,1.58-2.83v-1.22a11.1,11.1,0,0,0-3.15-8.35q-3.15-3-9.06-3a15.6,15.6,0,0,0-9.12,2.46,13.71,13.71,0,0,0-4.95,5.81l-5.7-2.06a16.93,16.93,0,0,1,4.86-6.8,19.65,19.65,0,0,1,7-3.68,27.6,27.6,0,0,1,7.79-1.13,26.3,26.3,0,0,1,6.19.78,17.85,17.85,0,0,1,6,2.68,13.91,13.91,0,0,1,4.49,5.3,19,19,0,0,1,1.72,8.58v35.19h-6v-8.2h-.37a16.46,16.46,0,0,1-3.2,4.46,16.82,16.82,0,0,1-5.33,3.54A19,19,0,0,1,281,603.82Zm.81-5.5a15.76,15.76,0,0,0,8.3-2.12,14.7,14.7,0,0,0,5.42-5.65,16.11,16.11,0,0,0,1.9-7.78v-7.49a5.91,5.91,0,0,1-2.24,1.15,32.33,32.33,0,0,1-3.61.89c-1.36.26-2.72.48-4.07.66l-3.64.47a33.41,33.41,0,0,0-7.49,1.69,10.77,10.77,0,0,0-4.75,3.15,7.81,7.81,0,0,0-1.66,5.15,8.65,8.65,0,0,0,3.38,7.3A13.5,13.5,0,0,0,281.84,598.32Z"/><path d="M319.43,602.64V550.82h5.83v8h.44a13,13,0,0,1,5.42-6.32,16.14,16.14,0,0,1,8.75-2.41l1.65,0c.61,0,1.12,0,1.52.07v6.1l-1.42-.2a16.54,16.54,0,0,0-2.19-.13,14.84,14.84,0,0,0-7.2,1.7,12.75,12.75,0,0,0-6.8,11.55v33.47Z"/><path d="M50.25,49.14V71h-2V49.14Z"/><path d="M73,49.14V71H71.1L58.21,52.68H58V71H56V49.14H58L70.91,67.43h.17V49.14Z"/><path d="M77.51,50.93V49.14H93.33v1.79H86.42V71h-2v-20Z"/><path d="M97.81,71V49.14h12.65v1.79H99.8v8.21h10v1.79h-10v8.23h10.88V71Z"/><path d="M115.61,71V49.14h7a8.1,8.1,0,0,1,3.88.83,5.66,5.66,0,0,1,2.36,2.31,7,7,0,0,1,.79,3.39,6.89,6.89,0,0,1-.79,3.36,5.45,5.45,0,0,1-2.35,2.28,8.17,8.17,0,0,1-3.86.82h-6V60.31h5.95a6.47,6.47,0,0,0,2.84-.56,3.82,3.82,0,0,0,1.69-1.61,5.2,5.2,0,0,0,.56-2.47,5.33,5.33,0,0,0-.56-2.5,3.9,3.9,0,0,0-1.7-1.66,6.22,6.22,0,0,0-2.86-.58h-5V71Zm9.62-9.84L130.6,71h-2.3L123,61.11Z"/><path d="M151.41,71V49.14h2v20H163.8V71Z"/><path d="M168.88,51.78a1.42,1.42,0,0,1-1-.4,1.34,1.34,0,0,1,0-1.93,1.46,1.46,0,0,1,2,0,1.34,1.34,0,0,1,0,1.93A1.43,1.43,0,0,1,168.88,51.78Zm-1,19.17V54.59h1.9V71Z"/><path d="M181.09,77.43a9,9,0,0,1-2.93-.43A6.48,6.48,0,0,1,176,75.82a5.58,5.58,0,0,1-1.34-1.67l1.56-1a5.92,5.92,0,0,0,.94,1.21,4.55,4.55,0,0,0,1.54,1,6.23,6.23,0,0,0,2.35.4,5.41,5.41,0,0,0,3.51-1.09,4.07,4.07,0,0,0,1.34-3.38V67.58h-.17a6.47,6.47,0,0,1-1,1.48,4.69,4.69,0,0,1-1.61,1.23,5.55,5.55,0,0,1-2.47.49,6.33,6.33,0,0,1-3.48-1A6.56,6.56,0,0,1,174.88,67a9.86,9.86,0,0,1-.87-4.31,10.49,10.49,0,0,1,.85-4.37,6.83,6.83,0,0,1,2.37-2.94,6.06,6.06,0,0,1,3.54-1.05,5.3,5.3,0,0,1,2.5.52,5,5,0,0,1,1.59,1.31,7.71,7.71,0,0,1,.94,1.51H186V54.59h1.86V71.38A6.12,6.12,0,0,1,187,74.8a5.32,5.32,0,0,1-2.4,2A8.84,8.84,0,0,1,181.09,77.43ZM181,69.05a4.7,4.7,0,0,0,2.69-.76,4.82,4.82,0,0,0,1.72-2.19,9,9,0,0,0,.59-3.4,9.27,9.27,0,0,0-.58-3.41,5.35,5.35,0,0,0-1.7-2.34,4.74,4.74,0,0,0-5.49,0,5.4,5.4,0,0,0-1.71,2.38,9.33,9.33,0,0,0-.57,3.34A8.73,8.73,0,0,0,176.5,66a4.91,4.91,0,0,0,1.72,2.23A4.59,4.59,0,0,0,181,69.05Z"/><path d="M194.77,60.73V71h-1.89V49.14h1.89v8h.17a4.62,4.62,0,0,1,1.79-2,5.69,5.69,0,0,1,3.06-.75,6,6,0,0,1,2.92.68,4.7,4.7,0,0,1,2,2,7,7,0,0,1,.7,3.28V71h-1.9V60.47a4.41,4.41,0,0,0-1.13-3.19,4,4,0,0,0-3-1.17,4.81,4.81,0,0,0-2.33.56,4.13,4.13,0,0,0-1.62,1.59A4.93,4.93,0,0,0,194.77,60.73Z"/><path d="M216.82,54.59v1.65H209V54.59Zm-5.36-3.92h1.9v16a3.18,3.18,0,0,0,.35,1.61,2,2,0,0,0,.92.82,3.06,3.06,0,0,0,1.2.24,3.78,3.78,0,0,0,.64,0l.47-.1.41,1.71a5.18,5.18,0,0,1-.68.2,4.85,4.85,0,0,1-1,.09,4.54,4.54,0,0,1-2-.46,3.75,3.75,0,0,1-2.2-3.61Z"/></g></svg>