<svg xmlns="http://www.w3.org/2000/svg" viewBox="0 0 648 648"><defs><style>.cls-1{fill:#ff5e3f;}</style></defs><g id="Background"><rect class="cls-1" width="648" height="648"/></g><g id="Layer_1" data-name="Layer 1"><path d="M375.59,431a5.32,5.32,0,0,1,0,7.45,5.12,5.12,0,0,1-3.8,1.52,5.67,5.67,0,0,1-4.37-1.85,7.48,7.48,0,0,1-1.71-5.27,23.33,23.33,0,0,1,2-8.88,40.75,40.75,0,0,1,4.8-8.6l3,3.32a61.27,61.27,0,0,0-3.7,5.75,17,17,0,0,0-2,5.56,5.16,5.16,0,0,1,1.9-.48A5.25,5.25,0,0,1,375.59,431Zm-7.26,25.88a5.17,5.17,0,0,1,0-7,4.49,4.49,0,0,1,3.37-1.42,4.73,4.73,0,0,1,4.94,4.94,4.88,4.88,0,0,1-4.94,4.94A4.5,4.5,0,0,1,368.33,456.87Z"/><path d="M390,461.72q0-9.89,2.38-15.2,8.64-19.75,17.86-19.76a10.43,10.43,0,0,1,9.07,5q3.38,5,3.37,13.06a33.78,33.78,0,0,1-1.42,9.78,8.54,8.54,0,0,1-3,3.9,5.7,5.7,0,0,1-3.32,1,8.66,8.66,0,0,1-2.85-.57l-16-7.22a39.47,39.47,0,0,0-.57,7.6c0,3,.17,6.31.52,9.79s.87,7.76,1.57,12.82a24,24,0,0,1,.38,2.66L391.84,487A222,222,0,0,1,390,461.72Zm27-12.16a23.92,23.92,0,0,0,.48-4.75,16.27,16.27,0,0,0-2-8.69,6.28,6.28,0,0,0-5.56-3.28,7.33,7.33,0,0,0-5.65,2.94,47.81,47.81,0,0,0-5.85,10l17.29,7.6A11.89,11.89,0,0,0,417,449.56Z"/><path d="M442,448.32a137.94,137.94,0,0,0-2.52-24.65q-2.52-13.73-8.6-23.23l4.37-3.8a81.85,81.85,0,0,1,8.88,24.56,132.71,132.71,0,0,1,2.71,25.89Zm39.42,3a4.9,4.9,0,0,1,.19,1.47v3.13a4.5,4.5,0,0,1-.19,1.43c-.13.38-.28.57-.47.57h-2.47q-7.61,0-11.36-1.47a9,9,0,0,1-5.27-5.18q-3.51,4.56-11.4,7.74a80.48,80.48,0,0,1-17.19,4.7l-.86-7.22a83.91,83.91,0,0,0,18-5.22q7.08-3.13,8.89-6.08l-1.9-52.25,5.7-.95,1.23,51.3a6.72,6.72,0,0,0,1.76,4.84,8.25,8.25,0,0,0,4.61,2.09,52,52,0,0,0,8,.48H481C481.14,450.7,481.29,450.91,481.42,451.32Z"/><path d="M538,448a8,8,0,0,1-4.08,7.5,18.33,18.33,0,0,1-9.41,2.38,14.31,14.31,0,0,1-5.94-1.14,6.11,6.11,0,0,1-3.37-3.33,7.12,7.12,0,0,1-4.32,3.42,17.69,17.69,0,0,1-5.65,1.05,14,14,0,0,1-6.18-1.24,7.45,7.45,0,0,1-3.61-3.32,11,11,0,0,1-5.75,3.37,31.06,31.06,0,0,1-8.78,1.19c-.38,0-.57-.67-.57-2v-3.13c0-1.39.19-2.09.57-2.09a44.22,44.22,0,0,0,6.74-.43,12.23,12.23,0,0,0,5-1.95l.38-15.58h5.22L498,445.19q-.19,5.51,6.84,5.51c3.48,0,6.18-.57,8.08-1.71L512.3,429l5.22-.1.38,19.95q1.71,1.82,5.89,1.81,6.36,0,9.41-1.9l-1.52-23.66,5.41-1Q538,439.49,538,448Z"/><path d="M572.43,452.79v3.13c0,1.33-.19,2-.57,2h-1.52q-8.93,0-13.16-4.09t-4.51-12.92l-1.14-48,5.7-.95.57,48.83q.09,9.89,12,9.88h2.09C572.24,450.7,572.43,451.4,572.43,452.79Z"/><path d="M595.42,447a7.85,7.85,0,0,1-1.19,4.14,8.84,8.84,0,0,1-3.46,3.18,33.57,33.57,0,0,1-8.65,2.71,57.1,57.1,0,0,1-10.26.9c-.38,0-.57-.67-.57-2v-3.13c0-1.39.19-2.09.57-2.09q13,0,18.62-3.52l-1.61-22,5.6-1Q595.42,440.63,595.42,447ZM580.7,468.46l5.89,4.66-4.56,5.7-5.89-4.66Z"/><path d="M257.42,584.47q6.36-5.57,7.89-10.88l-2.76-25.46,5.61-1.14q.94,9.5,1.47,15.77t.52,9.5q0,7.61-6.93,15.06t-19.57,12.87l-3.71-5.42Q251.06,590,257.42,584.47Zm6.08-58.38,5.89,4.65-4.56,5.7-5.89-4.65Z"/><path d="M312.14,568.32a4.9,4.9,0,0,1,.19,1.47v3.13a4.5,4.5,0,0,1-.19,1.43c-.13.38-.29.57-.47.57H308q-7.6,0-11.12-4.66v2q0,7.61-5.88,15.06t-16.54,12.87l-3.7-5.42a50.48,50.48,0,0,0,14.39-10.11q5.37-5.65,6.89-11.07l-2.75-25.46,5.6-1.14,1.33,13.58a6.68,6.68,0,0,0,3.37,5.37A14.55,14.55,0,0,0,307,567.7h4.66C311.85,567.7,312,567.91,312.14,568.32Z"/><path d="M346.86,551.6q3.38,5,3.37,13.06a30.89,30.89,0,0,1-1.42,9.78,8.07,8.07,0,0,1-2.95,3.9,5,5,0,0,1-3.23,1.14,6.22,6.22,0,0,1-2.85-.67l-16.62-7.31q-2.94,3.42-9.22,3.42h-2.28c-.38,0-.57-.67-.57-2v-3.13c0-1.39.19-2.09.57-2.09H315a11.64,11.64,0,0,0,3.42-.38,4.45,4.45,0,0,0,2-1.47,16.93,16.93,0,0,0,2-3.66,71.13,71.13,0,0,1,5.09-9.5,14.75,14.75,0,0,1,4.6-4.7,11.19,11.19,0,0,1,5.7-1.38A10.36,10.36,0,0,1,346.86,551.6Zm-2.28,18.09a26.73,26.73,0,0,0,.43-4.84,16.27,16.27,0,0,0-2-8.69,6.28,6.28,0,0,0-5.56-3.28,6.4,6.4,0,0,0-3.8,1.14,13.38,13.38,0,0,0-3.33,3.85,85.59,85.59,0,0,0-4.27,8l17.29,7.51A10.19,10.19,0,0,0,344.58,569.69Z"/><path d="M425.09,568.32a4.9,4.9,0,0,1,.19,1.47v3.13a4.5,4.5,0,0,1-.19,1.43c-.13.38-.25.57-.38.57h-9.5a12.12,12.12,0,0,1,.76,4.37q0,9.78-8.64,14.06t-21.76,4.27q-11.4,0-16.62-4.18t-5.23-12.73a70.43,70.43,0,0,1,.81-7.45q.81-5.75,2.14-14.3l.95-6,4.65.95q-3.51,21.09-3.51,26.22a8.29,8.29,0,0,0,4.41,7.79q4.43,2.48,12.4,2.47a72,72,0,0,0,14.77-1.28,19.17,19.17,0,0,0,9.84-5.08,23.87,23.87,0,0,0,.47-3.8,4.05,4.05,0,0,0-1.52-3.56,10.44,10.44,0,0,0-5-1.43c-2.32-.22-5.91-.33-10.79-.33l1.9-7.22h29.45C424.84,567.7,425,567.91,425.09,568.32Z"/><path d="M448.27,564a7.85,7.85,0,0,1-1.19,4.14,8.84,8.84,0,0,1-3.46,3.18A33.57,33.57,0,0,1,435,574a57.1,57.1,0,0,1-10.26.9c-.38,0-.57-.67-.57-2v-3.13c0-1.39.19-2.09.57-2.09q13,0,18.62-3.52l-1.61-22,5.6-1Q448.27,557.63,448.27,564Zm-14.72,21.47,5.89,4.66-4.56,5.7L429,591.16Z"/><path d="M479.71,584.47q6.38-5.57,7.89-10.88l-2.76-25.46,5.61-1.14q.94,9.5,1.47,15.77t.52,9.5q0,7.61-6.93,15.06t-19.57,12.87l-3.71-5.42Q473.35,590,479.71,584.47Z"/><path d="M505.93,509.94l5.7-.95.86,65.93-4.85.76Z"/><path d="M525.31,584.47q6.36-5.57,7.89-10.88l-2.76-25.46,5.61-1.14q.94,9.5,1.47,15.77t.52,9.5q0,7.61-6.93,15.06t-19.57,12.87l-3.71-5.42Q518.95,590,525.31,584.47Zm6.08-58.38,5.89,4.65-4.56,5.7-5.89-4.65Z"/><path d="M572.43,569.79v3.13c0,1.33-.19,2-.57,2h-1.52q-8.93,0-13.16-4.09t-4.51-12.92l-1.14-48,5.7-.95.57,48.83q.09,9.88,12,9.88h2.09C572.24,567.7,572.43,568.4,572.43,569.79Z"/><path d="M595.42,564a7.85,7.85,0,0,1-1.19,4.14,8.8,8.8,0,0,1-3.47,3.18,33.49,33.49,0,0,1-8.64,2.71,57.1,57.1,0,0,1-10.26.9c-.38,0-.57-.67-.57-2v-3.13c0-1.39.19-2.09.57-2.09q13,0,18.62-3.52l-1.61-22,5.6-1Q595.42,557.63,595.42,564ZM580.7,585.46l5.88,4.66-4.55,5.7-5.9-4.66Z"/><path d="M48.29,71H46.2l7.94-21.81h2.13L64.21,71H62.12L55.28,51.72h-.15Zm1.5-8.36H60.62v1.79H49.79Z"/><path d="M84.94,49.14V71H83L70.11,52.68h-.17V71H68V49.14h1.92L82.81,67.43H83V49.14Z"/><path d="M99,49.14h2V64.87a7.52,7.52,0,0,1-.76,3.55,5.06,5.06,0,0,1-2.09,2.13,6.45,6.45,0,0,1-3.06.7,7,7,0,0,1-3-.63A5.09,5.09,0,0,1,90,68.86a4.71,4.71,0,0,1-.76-2.68h2a2.92,2.92,0,0,0,.51,1.71,3.49,3.49,0,0,0,1.4,1.16,4.78,4.78,0,0,0,2,.41,4.11,4.11,0,0,0,2-.49,3.29,3.29,0,0,0,1.38-1.51,5.89,5.89,0,0,0,.5-2.59Z"/><path d="M124.67,60A13.5,13.5,0,0,1,123.46,66a9.35,9.35,0,0,1-3.34,3.9,9.34,9.34,0,0,1-9.77,0A9.26,9.26,0,0,1,107,66,13.5,13.5,0,0,1,105.81,60,13.48,13.48,0,0,1,107,54.12a9.28,9.28,0,0,1,3.34-3.9,9.32,9.32,0,0,1,9.76,0,9.35,9.35,0,0,1,3.34,3.9A13.48,13.48,0,0,1,124.67,60Zm-1.93,0a11.83,11.83,0,0,0-1-5,7.6,7.6,0,0,0-2.68-3.2,7.2,7.2,0,0,0-7.68,0,7.54,7.54,0,0,0-2.68,3.2,11.62,11.62,0,0,0-1,5,11.62,11.62,0,0,0,1,5,7.51,7.51,0,0,0,2.67,3.2,6.79,6.79,0,0,0,3.85,1.12,6.91,6.91,0,0,0,3.85-1.11,7.6,7.6,0,0,0,2.68-3.2A11.85,11.85,0,0,0,122.74,60Z"/><path d="M129.49,49.14h2.3l7.92,19h.19l7.91-19h2.31V71h-1.88V53.34h-.17L140.71,71H138.9l-7.36-17.61h-.17V71h-1.88Z"/><path d="M155.94,71h-2.09l7.94-21.81h2.13L171.86,71h-2.09l-6.84-19.23h-.15Zm1.5-8.36h10.83v1.79H157.44Z"/><path d="M192.59,49.14V71h-1.94L177.76,52.68h-.17V71h-2V49.14h1.93l12.93,18.29h.17V49.14Z"/><path d="M206.82,71V49.14h2v20h10.39V71Z"/><path d="M224.29,51.78a1.42,1.42,0,0,1-1-.4,1.34,1.34,0,0,1,0-1.93,1.46,1.46,0,0,1,2,0,1.34,1.34,0,0,1,0,1.93A1.43,1.43,0,0,1,224.29,51.78Zm-1,19.17V54.59h1.9V71Z"/><path d="M236.71,54.59v1.65H228.9V54.59Zm-5.37-3.92h1.9v16a3.18,3.18,0,0,0,.35,1.61,2,2,0,0,0,.92.82,3.06,3.06,0,0,0,1.2.24,3.78,3.78,0,0,0,.64,0l.47-.1.41,1.71a5.18,5.18,0,0,1-.68.2,4.78,4.78,0,0,1-1,.09,4.54,4.54,0,0,1-2-.46,3.75,3.75,0,0,1-2.2-3.61Z"/><path d="M247.45,71.29a7.16,7.16,0,0,1-4-1.07,7.07,7.07,0,0,1-2.58-3,10,10,0,0,1-.91-4.38,10.15,10.15,0,0,1,.91-4.4,7.41,7.41,0,0,1,2.52-3,6.5,6.5,0,0,1,3.74-1.09,7,7,0,0,1,2.56.48A6.4,6.4,0,0,1,252,56.33a7.34,7.34,0,0,1,1.56,2.51,10,10,0,0,1,.57,3.56v.94H241.31V61.66h10.84a6.3,6.3,0,0,0-.63-2.84,5,5,0,0,0-1.76-2,4.62,4.62,0,0,0-2.59-.74,4.67,4.67,0,0,0-2.74.83,5.68,5.68,0,0,0-1.85,2.2,6.9,6.9,0,0,0-.68,3v1a8,8,0,0,0,.68,3.41,5.18,5.18,0,0,0,1.92,2.25,5.91,5.91,0,0,0,5,.44,4.66,4.66,0,0,0,1.48-1,4.4,4.4,0,0,0,.91-1.35l1.8.59a5.49,5.49,0,0,1-1.22,1.91,6.33,6.33,0,0,1-2.11,1.4A7.52,7.52,0,0,1,247.45,71.29Z"/></g></svg>