<svg xmlns="http://www.w3.org/2000/svg" viewBox="0 0 648 648"><defs><style>.cls-1{fill:#ff5e3f;}</style></defs><g id="Background"><rect class="cls-1" width="648" height="648"/></g><g id="Layer_1" data-name="Layer 1"><path d="M339.92,434a9.32,9.32,0,0,1-2.23-6.65,27.43,27.43,0,0,1,2.09-9.55,49,49,0,0,1,5.42-10.31l4.93,4.75q-2.37,3.52-3.65,5.8a15.75,15.75,0,0,0-1.76,4.65h.86a6.59,6.59,0,0,1,4.84,2,6.72,6.72,0,0,1,2,4.94,6.45,6.45,0,0,1-2,4.8,6.65,6.65,0,0,1-4.84,1.94A7.44,7.44,0,0,1,339.92,434Zm11.78,12a7.42,7.42,0,0,1,2.14,5.41,7.13,7.13,0,0,1-2.18,5.28,7.23,7.23,0,0,1-5.23,2.13,7.34,7.34,0,0,1-5.32-2.13,7.1,7.1,0,0,1-2.19-5.28,7.34,7.34,0,0,1,2.19-5.41,7.24,7.24,0,0,1,5.32-2.19A7.06,7.06,0,0,1,351.7,446Z"/><path d="M367,458.39q0-9.5,2.09-14.53A65.65,65.65,0,0,1,378,429.09q5.32-6.6,11.59-6.61a11.83,11.83,0,0,1,10.59,5.7,25.34,25.34,0,0,1,3.66,14,35.78,35.78,0,0,1-1.33,10.07,9.58,9.58,0,0,1-1.24,2.61,16.43,16.43,0,0,1-2.75,2.8,6.66,6.66,0,0,1-4.18,2,4.89,4.89,0,0,1-2.19-.57l-17.38-8.46a269.09,269.09,0,0,0,2.47,32l-8.36,3.23Q366.94,466.56,367,458.39Zm29.83-15a16.11,16.11,0,0,0-1.95-8.26,6.67,6.67,0,0,0-6.22-3.33,7.28,7.28,0,0,0-5.27,2.66,41.59,41.59,0,0,0-5.47,7.89l17.86,8.26A22.69,22.69,0,0,0,396.78,443.38Z"/><path d="M425.94,444.9a121,121,0,0,0-2.66-23.22,61.06,61.06,0,0,0-9.12-22.19l6.75-5.41q11.77,18.53,11.78,49.59Zm42.37,3.42a12.52,12.52,0,0,1,.29,2.95v2.56a12.6,12.6,0,0,1-.29,2.9c-.19.79-.41,1.19-.66,1.19h-4.18q-6.18,0-9.55-1.62a9.69,9.69,0,0,1-4.89-5.41q-4.38,4.75-12.92,7.55a97.61,97.61,0,0,1-18.72,4l-1-10.74a115.19,115.19,0,0,0,18.57-4.08q8-2.57,10.4-5l-2.18-51.68,8.64-2.09.76,50.73a7.82,7.82,0,0,0,1.29,4.94,6.06,6.06,0,0,0,3.51,2.14,27.53,27.53,0,0,0,6,.52h4.28Q468,447.18,468.31,448.32Z"/><path d="M532.44,445.38q0,6.47-4.61,9.5a20.15,20.15,0,0,1-11.35,3q-7.89,0-10.36-5.61a10.57,10.57,0,0,1-5.22,4.18,18.42,18.42,0,0,1-6.94,1.43q-7.69,0-10.07-5.7-3.9,5.7-16.24,5.7c-.26,0-.49-.4-.72-1.19a11,11,0,0,1-.33-2.9v-2.56a12.66,12.66,0,0,1,.29-2.9c.19-.79.44-1.19.76-1.19q8,0,12.44-2.28l.19-14.63,7.79.19-.28,11.4q-.1,3.42,1.71,4.37a13,13,0,0,0,5.79.95c3.36,0,5.76-.66,7.22-2l-.38-18.62,7.89-.19.38,19.28a8.18,8.18,0,0,0,5.41,1.52,20.29,20.29,0,0,0,9.5-2l-2.09-22.71,8.55-1.52Q532.43,434.07,532.44,445.38Z"/><path d="M570.44,448.32a12.59,12.59,0,0,1,.28,2.95v2.56a12.65,12.65,0,0,1-.28,2.9c-.19.79-.42,1.19-.67,1.19h-2.28q-9.4,0-13.68-4.28t-4.56-14.72l-1.42-48,8.64-2.09.76,50.16a8.38,8.38,0,0,0,2.28,6,8.2,8.2,0,0,0,6.08,2.18h4.18C570,447.18,570.25,447.56,570.44,448.32Z"/><path d="M593.81,423.91q.57,12.34.57,20,0,6.38-5.8,9.88a27.84,27.84,0,0,1-8.79,3.09,52.51,52.51,0,0,1-10,1c-.25,0-.49-.4-.71-1.19a11,11,0,0,1-.33-2.9v-2.56a12.71,12.71,0,0,1,.28-2.9c.19-.79.44-1.19.76-1.19a66.72,66.72,0,0,0,10.12-.66,22.93,22.93,0,0,0,7.27-2.28L585,422.48l8.65-1.42ZM578.7,469.22l8.17,6.84L580,484.14l-8-6.75Z"/><path d="M203.17,593.25q11.12-5,17-9.73t8-9.74L225,545.94l8.45-2.09c.26,2.6.41,4.28.48,5q.77,7.41,1.28,13.11t.52,8.83a24.6,24.6,0,0,1-6.6,16.63q-6.6,7.5-20.76,14.25Zm29.54-69.35L226,532.07l-8.08-6.84,6.75-8.07Z"/><path d="M282.3,565.32a12.52,12.52,0,0,1,.29,2.95v2.56a12.6,12.6,0,0,1-.29,2.9c-.19.79-.41,1.19-.66,1.19h-2.76q-9.21,0-12.44-4.75v.66a26.31,26.31,0,0,1-5.84,16.53q-5.85,7.51-17.44,14L238,592.87q16.53-9,20.81-19.09l-3.33-27.84,8.55-2.09,1.43,12.92a7.84,7.84,0,0,0,1.9,5,7.16,7.16,0,0,0,4.18,2,55,55,0,0,0,7.6.38h2.47Q282,564.18,282.3,565.32Z"/><path d="M320,548.41a26.19,26.19,0,0,1,3.75,14.35,36.64,36.64,0,0,1-1.23,9.59,9.5,9.5,0,0,1-1.24,2.62,13.68,13.68,0,0,1-2.66,2.61,6.88,6.88,0,0,1-4.27,2.09,5.06,5.06,0,0,1-2.28-.57l-17.67-8.17a10.66,10.66,0,0,1-4.13,2.94,17.75,17.75,0,0,1-6.7,1h-1.9c-.25,0-.49-.4-.71-1.19a10.94,10.94,0,0,1-.34-2.9v-2.56a12.66,12.66,0,0,1,.29-2.9c.19-.79.44-1.19.76-1.19H285a15.19,15.19,0,0,0,4-.38,4.71,4.71,0,0,0,2.38-1.85,27.23,27.23,0,0,0,2.61-5.08,39,39,0,0,1,6.32-10.45,11.34,11.34,0,0,1,8.88-3.9A12,12,0,0,1,320,548.41Zm-3.18,15.3a15.48,15.48,0,0,0-2.14-8.31,7.12,7.12,0,0,0-6.51-3.47q-2.65,0-4.94,2.8a32.41,32.41,0,0,0-4.46,8.22l16.91,7.6A18.41,18.41,0,0,0,316.79,563.71Z"/><path d="M405.14,565.32a12.59,12.59,0,0,1,.28,2.95v2.56a12.65,12.65,0,0,1-.28,2.9c-.19.79-.41,1.19-.67,1.19h-8.93a14,14,0,0,1,.38,3.61,16.83,16.83,0,0,1-8.36,15.2Q379.21,599,363.43,599q-13.49,0-18.38-5.36a17.42,17.42,0,0,1-4.89-12q0-4.47,4.56-30.4l6.65,1.52q-3,16.24-3.71,26-.46,5.7,4.85,7.6a35.62,35.62,0,0,0,12.06,1.9,64.28,64.28,0,0,0,13.68-1.28,22.66,22.66,0,0,0,9.79-4.61c.13-2.53-.18-4.29-.9-5.27s-2.08-1.59-4-1.81-5.64-.33-11-.33h-.19l2.18-10.74h30.4C404.73,564.18,405,564.56,405.14,565.32Z"/><path d="M428.51,540.91q.57,12.35.57,20,0,6.38-5.8,9.88a27.75,27.75,0,0,1-8.79,3.09,52.51,52.51,0,0,1-10,1c-.25,0-.49-.4-.71-1.19a11,11,0,0,1-.33-2.9v-2.56a12.71,12.71,0,0,1,.28-2.9c.19-.79.45-1.19.76-1.19a66.72,66.72,0,0,0,10.12-.66,22.93,22.93,0,0,0,7.27-2.28l-2.19-21.76,8.65-1.42ZM413.4,586.22l8.17,6.84-6.84,8.08-8-6.75Z"/><path d="M446.08,593.25q11.12-5,17-9.73t8-9.74l-3.13-27.84,8.45-2.09q.39,3.9.48,5,.76,7.41,1.28,13.11t.53,8.83a24.61,24.61,0,0,1-6.61,16.63q-6.6,7.5-20.76,14.25Z"/><path d="M499.66,505.85l.76,69.07L493,576l-1.9-68Z"/><path d="M501.18,593.25q11.11-5,17-9.73t8-9.74L523,545.94l8.46-2.09c.25,2.6.41,4.28.47,5q.76,7.41,1.28,13.11t.53,8.83a24.57,24.57,0,0,1-6.61,16.63q-6.6,7.5-20.75,14.25Zm29.55-69.35L524,532.07l-8.07-6.84,6.74-8.07Z"/><path d="M570.44,565.32a12.59,12.59,0,0,1,.28,2.95v2.56a12.65,12.65,0,0,1-.28,2.9c-.19.79-.42,1.19-.67,1.19h-2.28q-9.4,0-13.68-4.28t-4.56-14.72l-1.42-48,8.64-2.09.76,50.16a8.38,8.38,0,0,0,2.28,6,8.2,8.2,0,0,0,6.08,2.18h4.18C570,564.18,570.25,564.56,570.44,565.32Z"/><path d="M593.81,540.91q.57,12.35.57,20,0,6.38-5.8,9.88a27.84,27.84,0,0,1-8.79,3.09,52.51,52.51,0,0,1-10,1c-.25,0-.49-.4-.71-1.19a11,11,0,0,1-.33-2.9v-2.56a12.71,12.71,0,0,1,.28-2.9c.19-.79.44-1.19.76-1.19a66.72,66.72,0,0,0,10.12-.66,22.93,22.93,0,0,0,7.27-2.28L585,539.48l8.65-1.42ZM578.7,586.22l8.17,6.84L580,601.14l-8-6.75Z"/><path d="M48.29,71H46.2l7.94-21.81h2.13L64.21,71H62.12L55.28,51.72h-.15Zm1.5-8.36H60.62v1.79H49.79Z"/><path d="M84.94,49.14V71H83L70.11,52.68h-.17V71H68V49.14h1.92L82.81,67.43H83V49.14Z"/><path d="M99,49.14h2V64.87a7.52,7.52,0,0,1-.76,3.55,5,5,0,0,1-2.09,2.13,6.45,6.45,0,0,1-3.06.7,7,7,0,0,1-3-.63A5.09,5.09,0,0,1,90,68.86a4.71,4.71,0,0,1-.76-2.68h2a2.92,2.92,0,0,0,.51,1.71,3.49,3.49,0,0,0,1.4,1.16,4.78,4.78,0,0,0,2,.41,4.11,4.11,0,0,0,2-.49,3.29,3.29,0,0,0,1.38-1.51,5.89,5.89,0,0,0,.5-2.59Z"/><path d="M124.67,60A13.5,13.5,0,0,1,123.46,66a9.35,9.35,0,0,1-3.34,3.9,9.34,9.34,0,0,1-9.77,0A9.26,9.26,0,0,1,107,66,13.5,13.5,0,0,1,105.81,60,13.48,13.48,0,0,1,107,54.12a9.28,9.28,0,0,1,3.34-3.9,9.32,9.32,0,0,1,9.76,0,9.35,9.35,0,0,1,3.34,3.9A13.48,13.48,0,0,1,124.67,60Zm-1.93,0a11.83,11.83,0,0,0-1-5,7.6,7.6,0,0,0-2.68-3.2,7.2,7.2,0,0,0-7.68,0,7.54,7.54,0,0,0-2.68,3.2,11.62,11.62,0,0,0-1,5,11.62,11.62,0,0,0,1,5,7.51,7.51,0,0,0,2.67,3.2,6.79,6.79,0,0,0,3.85,1.12,6.91,6.91,0,0,0,3.85-1.11,7.6,7.6,0,0,0,2.68-3.2A11.85,11.85,0,0,0,122.74,60Z"/><path d="M129.49,49.14h2.3l7.92,19h.19l7.91-19h2.31V71h-1.88V53.34h-.17L140.71,71H138.9l-7.36-17.61h-.17V71h-1.88Z"/><path d="M155.94,71h-2.09l7.94-21.81h2.13L171.86,71h-2.09l-6.84-19.23h-.15Zm1.5-8.36h10.83v1.79H157.44Z"/><path d="M192.59,49.14V71h-1.94L177.76,52.68h-.17V71h-2V49.14h1.93l12.93,18.29h.17V49.14Z"/><path d="M206.82,49.14h2.3l7.92,19h.19l7.92-19h2.3V71h-1.88V53.34h-.17L218,71h-1.81l-7.36-17.61h-.17V71h-1.88Z"/><path d="M239.46,71.29a7.16,7.16,0,0,1-4-1.07,7.07,7.07,0,0,1-2.58-3,10,10,0,0,1-.91-4.38,10.15,10.15,0,0,1,.91-4.4,7.41,7.41,0,0,1,2.52-3,6.5,6.5,0,0,1,3.74-1.09,7,7,0,0,1,2.56.48A6.4,6.4,0,0,1,244,56.33a7.34,7.34,0,0,1,1.56,2.51,10,10,0,0,1,.57,3.56v.94H233.32V61.66h10.84a6.3,6.3,0,0,0-.63-2.84,5,5,0,0,0-1.76-2,4.62,4.62,0,0,0-2.59-.74,4.67,4.67,0,0,0-2.74.83,5.68,5.68,0,0,0-1.85,2.2,6.9,6.9,0,0,0-.68,3v1a8,8,0,0,0,.68,3.41,5.18,5.18,0,0,0,1.92,2.25,5.38,5.38,0,0,0,3,.8,5.31,5.31,0,0,0,2-.36,4.6,4.6,0,0,0,1.49-1,4.4,4.4,0,0,0,.91-1.35l1.8.59a5.49,5.49,0,0,1-1.22,1.91,6.33,6.33,0,0,1-2.11,1.4A7.52,7.52,0,0,1,239.46,71.29Z"/><path d="M256.16,71.29a6,6,0,0,1-3.53-1.06,7,7,0,0,1-2.36-3,11,11,0,0,1-.84-4.45,10.86,10.86,0,0,1,.84-4.42,7,7,0,0,1,2.37-3,6,6,0,0,1,3.55-1.06,5.27,5.27,0,0,1,2.48.52,5,5,0,0,1,1.59,1.31,7.63,7.63,0,0,1,.93,1.51h.17V49.14h1.9V71h-1.85v-3h-.22a8.12,8.12,0,0,1-.94,1.53,5,5,0,0,1-1.6,1.31A5.21,5.21,0,0,1,256.16,71.29Zm.22-1.73a4.29,4.29,0,0,0,2.71-.87,5.53,5.53,0,0,0,1.71-2.4,9.78,9.78,0,0,0,.59-3.51,9.6,9.6,0,0,0-.59-3.47A5.36,5.36,0,0,0,259.1,57a4.73,4.73,0,0,0-5.48,0,5.54,5.54,0,0,0-1.71,2.4,10.29,10.29,0,0,0,0,6.84,5.56,5.56,0,0,0,1.71,2.44A4.25,4.25,0,0,0,256.38,69.56Z"/><path d="M269.66,51.78a1.45,1.45,0,0,1-1-.4,1.34,1.34,0,0,1,0-1.93,1.4,1.4,0,0,1,1-.4,1.38,1.38,0,0,1,1,.4,1.34,1.34,0,0,1,0,1.93A1.42,1.42,0,0,1,269.66,51.78Zm-1,19.17V54.59h1.9V71Z"/><path d="M286,64.7V54.59h1.9V71H286V68.24h-.15a5,5,0,0,1-1.82,2.09,5.34,5.34,0,0,1-3.05.84,5.54,5.54,0,0,1-2.78-.69,4.85,4.85,0,0,1-1.91-2,7.06,7.06,0,0,1-.69-3.27V54.59h1.9V65.07a4.23,4.23,0,0,0,1.13,3.09,3.87,3.87,0,0,0,2.89,1.16,4.55,4.55,0,0,0,2.14-.53,4.32,4.32,0,0,0,1.68-1.56A4.58,4.58,0,0,0,286,64.7Z"/><path d="M292.92,71V54.59h1.85V57.1h.17a4,4,0,0,1,1.63-2,5,5,0,0,1,2.76-.73,4.6,4.6,0,0,1,2.78.79,4.85,4.85,0,0,1,1.64,2.18h.13a4.62,4.62,0,0,1,1.81-2.17,5.58,5.58,0,0,1,3-.8,4.64,4.64,0,0,1,3.6,1.43A6,6,0,0,1,313.65,60V71h-1.89V60a3.91,3.91,0,0,0-1-2.91,3.6,3.6,0,0,0-2.61-1,3.66,3.66,0,0,0-2.89,1.15,4.24,4.24,0,0,0-1,2.92V71h-1.94V59.82a3.82,3.82,0,0,0-.93-2.68,3.33,3.33,0,0,0-2.61-1,3.79,3.79,0,0,0-3.44,2.1,4.71,4.71,0,0,0-.52,2.26V71Z"/></g></svg>