<svg xmlns="http://www.w3.org/2000/svg" viewBox="0 0 648 648"><defs><style>.cls-1{fill:#ff5c35;}.cls-2{fill:#fff;}</style></defs><g id="Background"><rect width="648" height="648"/></g><g id="Layer_1" data-name="Layer 1"><path class="cls-1" d="M45.88,408.73a2.56,2.56,0,0,1,2.86-2.86H64.69c5.72,0,9.13.66,12.76,3,3.85,2.2,5.72,7.26,5.72,14.85v4.51c0,8.14-2.42,13.2-7.37,15.07,5.39,2.09,8,7.15,8,15v6.49c0,7.59-2.09,12.76-5.94,15.07s-7.59,3.08-13.2,3.08H48.74A2.56,2.56,0,0,1,45.88,480Zm12.65,28.38h5.06c5.72,0,7.59-1.76,7.59-7.37v-5.39c0-5.61-2-7.48-7.59-7.48H58.53Zm0,11v23.76h5.06c5.61,0,7.59-2.09,7.59-7.7v-8.58c0-5.61-2-7.48-7.59-7.48Z"/><path class="cls-1" d="M91.09,465.93v-23.1c0-12.1,5.72-18.15,17.27-18.15s17.16,6.05,17.16,18.15v23.1q0,18.15-17.16,18.15C96.81,484.08,91.09,478,91.09,465.93Zm23.32,1.54V441.29c0-4.73-2-7-6-7s-6.16,2.31-6.16,7v26.18c0,4.73,2.09,7,6.16,7S114.41,472.2,114.41,467.47Z"/><path class="cls-1" d="M133.77,468.24V428.75a2.56,2.56,0,0,1,2.86-2.86H142a2.56,2.56,0,0,1,2.86,2.86v38.72c0,5.17,1.65,7,5.5,7s6.71-3.41,6.71-7.81V428.75a2.56,2.56,0,0,1,2.86-2.86h5.39a2.56,2.56,0,0,1,2.86,2.86v35.53c0,7.37.22,12.54.77,15.51.33,2.09-.55,3.08-2.64,3.08h-5c-1.87,0-2.86-.77-3.19-2.42a22,22,0,0,1-.66-4.4,12.08,12.08,0,0,1-11.66,8C137.84,484.08,133.77,478.8,133.77,468.24Z"/><path class="cls-1" d="M180.74,482.87a2.56,2.56,0,0,1-2.86-2.86V428.75a2.56,2.56,0,0,1,2.86-2.86h4.73a2.56,2.56,0,0,1,2.86,2.86v4.84a12.18,12.18,0,0,1,11.88-8.91q12.21,0,12.21,15.84V480a2.56,2.56,0,0,1-2.86,2.86h-5.5A2.56,2.56,0,0,1,201.2,480V441.29c0-5.17-1.65-7-5.5-7s-6.6,3.41-6.6,7.81V480a2.56,2.56,0,0,1-2.86,2.86Z"/><path class="cls-1" d="M248.17,482.87c-1.87,0-2.86-.77-3.19-2.42a39.82,39.82,0,0,1-.55-4.4,12,12,0,0,1-11.66,8q-12.21,0-12.21-15.84V440.52q0-15.84,12.21-15.84a11.62,11.62,0,0,1,11.22,7v-23a2.56,2.56,0,0,1,2.86-2.86h5.39a2.56,2.56,0,0,1,2.86,2.86v55.55c0,7.37.22,12.54.77,15.51.33,2.09-.55,3.08-2.64,3.08ZM244,442.06c0-4.4-2.86-7.81-6.71-7.81s-5.5,1.87-5.5,7v26.18c0,5.17,1.65,7,5.5,7S244,471.1,244,466.7Z"/><path class="cls-1" d="M276,480a2.56,2.56,0,0,1-2.86,2.86h-5.5a2.56,2.56,0,0,1-2.86-2.86V408.73a2.56,2.56,0,0,1,2.86-2.86h5.5a2.56,2.56,0,0,1,2.86,2.86Z"/><path class="cls-1" d="M284.69,442.83q0-18.15,16.83-18.15t16.83,18.15v12a2.56,2.56,0,0,1-2.86,2.86h-19.7v9.79c0,4.73,2.09,7,6.17,7s6.05-2.31,6.05-7v-.88a2.56,2.56,0,0,1,2.86-2.86h4.62a2.56,2.56,0,0,1,2.86,2.86q0,17.49-16.83,17.49t-16.83-18.15Zm11.1,5.72H308v-7.26c0-4.73-2-7-6.05-7s-6.17,2.31-6.17,7Z"/><path class="cls-1" d="M325.16,466.81A2.56,2.56,0,0,1,328,464h4.62a2.56,2.56,0,0,1,2.86,2.86v1.1c0,4.84,2,7.26,5.83,7.26s5.94-2.31,5.94-6.82v-1c0-4-2.53-5.5-8.36-8-4.29-1.87-5.94-2.75-9.13-5.5s-4.62-6.93-4.62-12.65V441c0-10.89,6-16.28,16.72-16.28,11,0,16.5,5.5,16.5,16.61a2.56,2.56,0,0,1-2.86,2.86H350.9a2.56,2.56,0,0,1-2.86-2.86v-.44c0-4.84-2-7.26-5.83-7.26s-5.94,2.31-5.94,6.82v.66a6.11,6.11,0,0,0,2.53,5.17,28,28,0,0,0,5.83,3.08,27.16,27.16,0,0,1,7.48,4.07c4.07,2.75,5.94,6.71,6.27,14v.33c0,10.89-5.94,16.39-16.61,16.39C330.66,484.08,325.16,478.36,325.16,466.81Z"/><path class="cls-1" d="M365,466.81a2.56,2.56,0,0,1,2.86-2.86h4.62a2.56,2.56,0,0,1,2.86,2.86v1.1c0,4.84,2,7.26,5.83,7.26s5.94-2.31,5.94-6.82v-1c0-4-2.53-5.5-8.36-8-4.29-1.87-5.94-2.75-9.13-5.5S365,446.9,365,441.18V441c0-10.89,6-16.28,16.72-16.28,11,0,16.5,5.5,16.5,16.61a2.56,2.56,0,0,1-2.86,2.86h-4.62a2.56,2.56,0,0,1-2.86-2.86v-.44c0-4.84-2-7.26-5.83-7.26s-5.94,2.31-5.94,6.82v.66a6.11,6.11,0,0,0,2.53,5.17,28,28,0,0,0,5.83,3.08,27.16,27.16,0,0,1,7.48,4.07c4.07,2.75,5.94,6.71,6.27,14v.33c0,10.89-5.94,16.39-16.61,16.39C370.48,484.08,365,478.36,365,466.81Z"/><path class="cls-1" d="M45.88,528.73a2.56,2.56,0,0,1,2.86-2.86H64.69c5.72,0,9.13.66,12.76,3,3.85,2.2,5.72,7.26,5.72,14.85v4.51c0,8.14-2.42,13.2-7.37,15.07,5.39,2.09,8,7.15,8,15v6.49c0,7.59-2.09,12.76-5.94,15.07s-7.59,3.08-13.2,3.08H48.74A2.56,2.56,0,0,1,45.88,600Zm12.65,28.38h5.06c5.72,0,7.59-1.76,7.59-7.37v-5.39c0-5.61-2-7.48-7.59-7.48H58.53Zm0,11v23.76h5.06c5.61,0,7.59-2.09,7.59-7.7v-8.58c0-5.61-2-7.48-7.59-7.48Z"/><path class="cls-1" d="M90.21,589.23v-.88c0-5.72,1.54-10,5.06-13s5.28-3.74,9.79-5.83c2-.88,3.41-1.54,4.4-2.09,1.87-1,4.07-3.19,4.07-5.5v-.66c0-4.73-1.87-7.15-5.72-7.15s-5.83,2.42-5.83,7.15v1.32a2.56,2.56,0,0,1-2.86,2.86H94.39c-1.87,0-2.86-1-2.86-3,0-11.88,5.61-17.82,16.72-17.82s16.5,6.05,16.5,18v21.56a125,125,0,0,0,.66,15.51c.33,2.09-.44,3.08-2.53,3.08h-5.06c-1.87,0-2.86-.77-3.19-2.42a26.08,26.08,0,0,1-.66-4.51,11.93,11.93,0,0,1-11.55,8.14Q90.21,604.08,90.21,589.23Zm23.32-2.42v-12L111,576a26.76,26.76,0,0,0-6.6,3.85c-2.2,1.76-3.08,4.18-3.08,7.37V588c0,5,1.87,6.6,5.5,6.6C110.78,594.62,113.53,591.21,113.53,586.81Z"/><path class="cls-1" d="M135.2,555.46a2.56,2.56,0,0,1-2.86-2.86v-3.85a2.56,2.56,0,0,1,2.86-2.86h24.86a2.56,2.56,0,0,1,2.86,2.86v3.63a9.68,9.68,0,0,1-.88,3.52l-18.7,37.4h16.72a2.56,2.56,0,0,1,2.86,2.86V600a2.56,2.56,0,0,1-2.86,2.86H134a2.56,2.56,0,0,1-2.86-2.86v-3.63a9.68,9.68,0,0,1,.88-3.52l18.7-37.4Z"/><path class="cls-1" d="M168.09,589.23v-.88c0-5.72,1.54-10,5.06-13s5.28-3.74,9.79-5.83c2-.88,3.41-1.54,4.4-2.09,1.87-1,4.07-3.19,4.07-5.5v-.66c0-4.73-1.87-7.15-5.72-7.15s-5.83,2.42-5.83,7.15v1.32a2.56,2.56,0,0,1-2.86,2.86h-4.73c-1.87,0-2.86-1-2.86-3,0-11.88,5.61-17.82,16.72-17.82s16.5,6.05,16.5,18v21.56a125,125,0,0,0,.66,15.51c.33,2.09-.44,3.08-2.53,3.08H195.7c-1.87,0-2.86-.77-3.19-2.42a26.08,26.08,0,0,1-.66-4.51,11.93,11.93,0,0,1-11.55,8.14Q168.09,604.08,168.09,589.23Zm23.32-2.42v-12L188.88,576a26.76,26.76,0,0,0-6.6,3.85c-2.2,1.76-3.08,4.18-3.08,7.37V588c0,5,1.87,6.6,5.5,6.6C188.66,594.62,191.41,591.21,191.41,586.81Z"/><path class="cls-1" d="M209.89,589.23v-.88c0-5.72,1.54-10,5.06-13s5.28-3.74,9.79-5.83c2-.88,3.41-1.54,4.4-2.09,1.87-1,4.07-3.19,4.07-5.5v-.66c0-4.73-1.87-7.15-5.72-7.15s-5.83,2.42-5.83,7.15v1.32a2.56,2.56,0,0,1-2.86,2.86h-4.73c-1.87,0-2.86-1-2.86-3,0-11.88,5.61-17.82,16.72-17.82s16.5,6.05,16.5,18v21.56a125,125,0,0,0,.66,15.51c.33,2.09-.44,3.08-2.53,3.08H237.5c-1.87,0-2.86-.77-3.19-2.42a26.08,26.08,0,0,1-.66-4.51,11.93,11.93,0,0,1-11.55,8.14Q209.89,604.08,209.89,589.23Zm23.32-2.42v-12L230.68,576a26.76,26.76,0,0,0-6.6,3.85c-2.2,1.76-3.08,4.18-3.08,7.37V588c0,5,1.87,6.6,5.5,6.6C230.46,594.62,233.21,591.21,233.21,586.81Z"/><path class="cls-1" d="M256.42,602.87a2.55,2.55,0,0,1-2.86-2.86V548.75a2.55,2.55,0,0,1,2.86-2.86h4.73a2.56,2.56,0,0,1,2.86,2.86v4.73a12,12,0,0,1,11.77-8.8c7.37,0,11.11,4.07,11.11,15.51v12A2.56,2.56,0,0,1,284,575h-4.62a2.57,2.57,0,0,1-2.87-2.86V561.29c0-5.28-1.64-7-5.27-7-3.85,0-6.49,3.41-6.49,7.81v38a2.56,2.56,0,0,1-2.86,2.86Z"/><path class="cls-2" d="M48.26,71V49.14h7a8.1,8.1,0,0,1,3.88.83,5.66,5.66,0,0,1,2.36,2.31,7,7,0,0,1,.79,3.39A6.89,6.89,0,0,1,61.54,59a5.51,5.51,0,0,1-2.35,2.28,8.17,8.17,0,0,1-3.86.82h-6V60.31h6a6.47,6.47,0,0,0,2.84-.56,3.82,3.82,0,0,0,1.69-1.61,5.2,5.2,0,0,0,.56-2.47,5.33,5.33,0,0,0-.56-2.5,3.9,3.9,0,0,0-1.7-1.66,6.22,6.22,0,0,0-2.86-.58h-5V71Zm9.62-9.84L63.25,71H61l-5.32-9.84Z"/><path class="cls-2" d="M67.22,71H65.13l7.94-21.81H75.2L83.14,71H81.05L74.21,51.72h-.15Zm1.5-8.36H79.55v1.79H68.72Z"/><path class="cls-2" d="M86.88,49.14h2.3l7.91,19h.19l7.92-19h2.3V71h-1.87V53.34h-.17L98.09,71H96.28L88.92,53.34h-.17V71H86.88Z"/><path class="cls-2" d="M113.33,71h-2.09l7.94-21.81h2.13L129.24,71h-2.08l-6.84-19.23h-.15Zm1.5-8.36h10.82v1.79H114.83Z"/><path class="cls-2" d="M156.52,56a8,8,0,0,0-.88-2,6.67,6.67,0,0,0-1.42-1.67,6.25,6.25,0,0,0-1.95-1.12,7,7,0,0,0-2.45-.41A6.79,6.79,0,0,0,146,51.82a7.51,7.51,0,0,0-2.66,3.2,11.77,11.77,0,0,0-1,5,11.76,11.76,0,0,0,1,5,7.48,7.48,0,0,0,2.69,3.2,7.43,7.43,0,0,0,7.47.22,6.21,6.21,0,0,0,2.42-2.55,8.32,8.32,0,0,0,.84-4l.64.21h-7V60.39h8.29v1.79A9.81,9.81,0,0,1,157.58,67a7.81,7.81,0,0,1-3.1,3.14A9.11,9.11,0,0,1,141.63,66,13.79,13.79,0,0,1,140.44,60a14.87,14.87,0,0,1,.68-4.63,10.43,10.43,0,0,1,1.94-3.54,8.42,8.42,0,0,1,3-2.25,9.09,9.09,0,0,1,3.8-.78,9.27,9.27,0,0,1,3.27.56,8.66,8.66,0,0,1,4.49,3.82,8.68,8.68,0,0,1,1,2.73Z"/><path class="cls-2" d="M181.55,60A13.5,13.5,0,0,1,180.34,66a9.35,9.35,0,0,1-3.34,3.9,9.34,9.34,0,0,1-9.77,0,9.35,9.35,0,0,1-3.34-3.9,13.64,13.64,0,0,1-1.2-5.93,13.63,13.63,0,0,1,1.2-5.92,9.35,9.35,0,0,1,3.34-3.9,9.34,9.34,0,0,1,9.77,0,9.35,9.35,0,0,1,3.34,3.9A13.48,13.48,0,0,1,181.55,60Zm-1.94,0a11.68,11.68,0,0,0-1-5,7.51,7.51,0,0,0-2.67-3.2,7.2,7.2,0,0,0-7.68,0A7.54,7.54,0,0,0,165.6,55a11.61,11.61,0,0,0-1,5,11.76,11.76,0,0,0,1,5,7.6,7.6,0,0,0,2.68,3.2,6.78,6.78,0,0,0,3.84,1.12A6.86,6.86,0,0,0,176,68.27a7.46,7.46,0,0,0,2.68-3.2A11.55,11.55,0,0,0,179.61,60Z"/><path class="cls-2" d="M184.15,50.93V49.14H200v1.79h-6.91V71h-2v-20Z"/><path class="cls-2" d="M204.45,71V49.14h2v10h12.38v-10h2V71h-2v-10H206.44V71Z"/><path class="cls-2" d="M228.6,49.14V71h-2V49.14Z"/><path class="cls-2" d="M251.48,56h-2a6.38,6.38,0,0,0-.81-2.07,6.45,6.45,0,0,0-3.43-2.77,7,7,0,0,0-2.4-.4,6.85,6.85,0,0,0-3.76,1.08A7.51,7.51,0,0,0,236.36,55a11.49,11.49,0,0,0-1,5.09,11.56,11.56,0,0,0,1,5.12,7.54,7.54,0,0,0,2.72,3.15,7.24,7.24,0,0,0,6.16.67,6.59,6.59,0,0,0,2-1.1,6.26,6.26,0,0,0,1.45-1.67,6.38,6.38,0,0,0,.81-2.07h2a8.7,8.7,0,0,1-1,2.79,8.42,8.42,0,0,1-1.85,2.27,8.51,8.51,0,0,1-2.58,1.51,9.2,9.2,0,0,1-3.21.54A8.78,8.78,0,0,1,238,69.87,9.38,9.38,0,0,1,234.62,66,13.69,13.69,0,0,1,233.41,60a13.64,13.64,0,0,1,1.21-5.93A9.32,9.32,0,0,1,238,50.22a8.78,8.78,0,0,1,4.88-1.38,9.2,9.2,0,0,1,3.21.54,8.12,8.12,0,0,1,2.58,1.51,8.38,8.38,0,0,1,1.85,2.26A8.75,8.75,0,0,1,251.48,56Z"/><path class="cls-2" d="M264.61,71V49.14h7a8.1,8.1,0,0,1,3.88.83,5.57,5.57,0,0,1,2.35,2.31,7,7,0,0,1,.8,3.39,6.9,6.9,0,0,1-.8,3.36,5.43,5.43,0,0,1-2.34,2.28,8.19,8.19,0,0,1-3.86.82h-6V60.31h5.95a6.4,6.4,0,0,0,2.83-.56,3.8,3.8,0,0,0,1.7-1.61,5.75,5.75,0,0,0,0-5,3.82,3.82,0,0,0-1.69-1.66,6.24,6.24,0,0,0-2.87-.58h-5V71Zm9.62-9.84L279.6,71h-2.31L272,61.11Z"/><path class="cls-2" d="M301.42,60A13.5,13.5,0,0,1,300.21,66a9.35,9.35,0,0,1-3.34,3.9,9.34,9.34,0,0,1-9.77,0,9.26,9.26,0,0,1-3.33-3.9A13.5,13.5,0,0,1,282.56,60a13.48,13.48,0,0,1,1.21-5.92,9.28,9.28,0,0,1,3.34-3.9,9.32,9.32,0,0,1,9.76,0,9.35,9.35,0,0,1,3.34,3.9A13.48,13.48,0,0,1,301.42,60Zm-1.94,0a11.68,11.68,0,0,0-1-5,7.51,7.51,0,0,0-2.67-3.2,7.2,7.2,0,0,0-7.68,0,7.54,7.54,0,0,0-2.68,3.2,11.61,11.61,0,0,0-1,5,11.76,11.76,0,0,0,1,5,7.6,7.6,0,0,0,2.68,3.2A6.78,6.78,0,0,0,292,69.38a6.92,6.92,0,0,0,3.86-1.11,7.6,7.6,0,0,0,2.68-3.2A11.7,11.7,0,0,0,299.48,60Z"/><path class="cls-2" d="M320.78,49.14h2V63.58a7.58,7.58,0,0,1-1,4,7.41,7.41,0,0,1-2.9,2.76,9,9,0,0,1-4.32,1,8.84,8.84,0,0,1-4.32-1,7.49,7.49,0,0,1-2.91-2.75,7.67,7.67,0,0,1-1-4V49.14h2v14.3a6.13,6.13,0,0,0,.78,3.1,5.54,5.54,0,0,0,2.19,2.13,7.41,7.41,0,0,0,6.62,0A5.54,5.54,0,0,0,320,66.54a6.22,6.22,0,0,0,.77-3.1Z"/><path class="cls-2" d="M345.56,49.14V71h-1.94L330.73,52.68h-.17V71h-2V49.14h1.93l12.93,18.29h.17V49.14Z"/><path class="cls-2" d="M357.75,71h-6.39V49.14h6.77a10.36,10.36,0,0,1,5.34,1.3,8.44,8.44,0,0,1,3.41,3.72A13.21,13.21,0,0,1,368.06,60a13.17,13.17,0,0,1-1.21,5.89,8.64,8.64,0,0,1-3.51,3.76A11.09,11.09,0,0,1,357.75,71Zm-4.4-1.79h4.28a9.27,9.27,0,0,0,4.71-1.1,7,7,0,0,0,2.84-3.17,11.49,11.49,0,0,0,.95-4.9,12,12,0,0,0-.93-4.86A6.82,6.82,0,0,0,362.47,52,8.54,8.54,0,0,0,358,50.93h-4.66Z"/><path class="cls-2" d="M372.88,71V49.14h12.65v1.79H374.87v8.21h10v1.79h-10v8.23h10.87V71Z"/><path class="cls-2" d="M397.07,71h-6.39V49.14h6.77a10.36,10.36,0,0,1,5.34,1.3,8.44,8.44,0,0,1,3.41,3.72A13.21,13.21,0,0,1,407.38,60a13.17,13.17,0,0,1-1.21,5.89,8.58,8.58,0,0,1-3.51,3.76A11.09,11.09,0,0,1,397.07,71Zm-4.4-1.79H397a9.27,9.27,0,0,0,4.71-1.1,7,7,0,0,0,2.84-3.17,11.49,11.49,0,0,0,.95-4.9,11.8,11.8,0,0,0-.93-4.86A6.82,6.82,0,0,0,401.79,52a8.54,8.54,0,0,0-4.46-1.08h-4.66Z"/><path class="cls-2" d="M429.07,71V49.14h12.66v1.79H431.06v8.21h10v1.79h-10v8.23h10.88V71Z"/><path class="cls-2" d="M467.16,54.59a4,4,0,0,0-1.61-2.9A5.84,5.84,0,0,0,462,50.62a6.41,6.41,0,0,0-2.68.52,4.37,4.37,0,0,0-1.81,1.44,3.52,3.52,0,0,0-.66,2.1,3,3,0,0,0,.38,1.51,3.52,3.52,0,0,0,1,1.11,7.16,7.16,0,0,0,1.41.8,12.56,12.56,0,0,0,1.56.55l2.3.66a17.32,17.32,0,0,1,2.09.73,8.9,8.9,0,0,1,1.91,1.13,5.31,5.31,0,0,1,1.4,1.65,4.87,4.87,0,0,1,.52,2.34,5.67,5.67,0,0,1-.9,3.14,6.24,6.24,0,0,1-2.6,2.21,10.47,10.47,0,0,1-7.93.08,6.39,6.39,0,0,1-2.58-2,5.87,5.87,0,0,1-1.05-3h2.05a3.75,3.75,0,0,0,.85,2.18A4.58,4.58,0,0,0,459.16,69a7.24,7.24,0,0,0,2.66.46,7.35,7.35,0,0,0,2.9-.54,4.84,4.84,0,0,0,2-1.54,3.77,3.77,0,0,0,.73-2.29,3,3,0,0,0-.58-1.86,4.62,4.62,0,0,0-1.6-1.27,14.47,14.47,0,0,0-2.38-.9l-2.61-.77a9.71,9.71,0,0,1-4-2.12,4.58,4.58,0,0,1-1.42-3.45,5.22,5.22,0,0,1,.95-3.09,6.27,6.27,0,0,1,2.55-2.09,8.54,8.54,0,0,1,3.63-.75,8.36,8.36,0,0,1,3.6.74,6.24,6.24,0,0,1,2.49,2,5.4,5.4,0,0,1,1,3Z"/><path class="cls-2" d="M480.41,71.29a7.11,7.11,0,0,1-4-1.07,7,7,0,0,1-2.59-3,10.14,10.14,0,0,1-.91-4.38,10.3,10.3,0,0,1,.91-4.4,7.35,7.35,0,0,1,2.53-3,6.47,6.47,0,0,1,3.73-1.09,7,7,0,0,1,2.57.48,6.45,6.45,0,0,1,2.22,1.48,7,7,0,0,1,1.56,2.51,10,10,0,0,1,.58,3.56v.94H474.26V61.66h10.85a6.18,6.18,0,0,0-.64-2.84,5.05,5.05,0,0,0-1.75-2,4.94,4.94,0,0,0-5.34.09,5.74,5.74,0,0,0-1.84,2.2,6.76,6.76,0,0,0-.68,3v1a7.89,7.89,0,0,0,.68,3.41,5.18,5.18,0,0,0,1.92,2.25,5.89,5.89,0,0,0,5,.44,4.36,4.36,0,0,0,2.39-2.33l1.8.59a5.35,5.35,0,0,1-1.22,1.91,6.23,6.23,0,0,1-2.11,1.4A7.5,7.5,0,0,1,480.41,71.29Z"/><path class="cls-2" d="M491.21,71V54.59h1.84V57.1h.17a4.06,4.06,0,0,1,1.64-2,5,5,0,0,1,2.75-.73,4.63,4.63,0,0,1,2.79.79A4.85,4.85,0,0,1,502,57.35h.13A4.56,4.56,0,0,1,504,55.18a5.55,5.55,0,0,1,3-.8,4.64,4.64,0,0,1,3.6,1.43A6,6,0,0,1,511.94,60V71h-1.89V60a3.91,3.91,0,0,0-1-2.91,3.6,3.6,0,0,0-2.61-1,3.66,3.66,0,0,0-2.89,1.15,4.24,4.24,0,0,0-1,2.92V71h-1.94V59.82a3.82,3.82,0,0,0-.93-2.68,3.33,3.33,0,0,0-2.61-1,3.8,3.8,0,0,0-2,.56,3.92,3.92,0,0,0-1.42,1.54,4.83,4.83,0,0,0-.51,2.26V71Z"/><path class="cls-2" d="M517.94,51.78a1.42,1.42,0,0,1-1-.4,1.32,1.32,0,0,1,0-1.93,1.38,1.38,0,0,1,1-.4,1.36,1.36,0,0,1,1,.4,1.32,1.32,0,0,1,0,1.93A1.41,1.41,0,0,1,517.94,51.78ZM517,71V54.59h1.91V71Z"/><path class="cls-2" d="M532.74,71V49.14h7.36a7.56,7.56,0,0,1,3.55.74,5.09,5.09,0,0,1,2.14,2,6,6,0,0,1,.71,2.93,5.35,5.35,0,0,1-.46,2.33,4,4,0,0,1-1.24,1.56,5.18,5.18,0,0,1-1.76.87v.17a4.16,4.16,0,0,1,2.05.74,4.93,4.93,0,0,1,1.62,1.86,6.49,6.49,0,0,1-.09,5.8,5,5,0,0,1-2.25,2,8.76,8.76,0,0,1-3.87.74Zm2-12h5.55a4.69,4.69,0,0,0,2.26-.53A3.88,3.88,0,0,0,544.05,57a4.23,4.23,0,0,0,.55-2.14A3.77,3.77,0,0,0,543.47,52a4.68,4.68,0,0,0-3.37-1.09h-5.37Zm0,10.17h5.77a5.39,5.39,0,0,0,3.74-1.11,3.71,3.71,0,0,0,1.21-2.82,4.28,4.28,0,0,0-2.3-3.87,5.24,5.24,0,0,0-2.56-.6h-5.86Z"/><path class="cls-2" d="M558.12,71.29a6.59,6.59,0,0,1-3.74-1.07,7.28,7.28,0,0,1-2.54-3,10,10,0,0,1-.92-4.39,10.13,10.13,0,0,1,.92-4.43,7.22,7.22,0,0,1,2.54-3,6.59,6.59,0,0,1,3.74-1.07,6.67,6.67,0,0,1,3.75,1.07,7.4,7.4,0,0,1,2.54,3,11,11,0,0,1,0,8.81,7.28,7.28,0,0,1-2.54,3A6.6,6.6,0,0,1,558.12,71.29Zm0-1.73a4.58,4.58,0,0,0,2.89-.92,5.68,5.68,0,0,0,1.8-2.44,8.84,8.84,0,0,0,.61-3.35,8.94,8.94,0,0,0-.61-3.37A5.8,5.8,0,0,0,561,57a4.94,4.94,0,0,0-5.77,0,5.8,5.8,0,0,0-1.8,2.46,9.14,9.14,0,0,0-.61,3.37,9,9,0,0,0,.61,3.35,5.68,5.68,0,0,0,1.8,2.44A4.57,4.57,0,0,0,558.12,69.56Z"/><path class="cls-2" d="M571.39,49.14V71h-1.9V49.14Z"/><path class="cls-2" d="M582.29,71.29a6,6,0,0,1-3.53-1.06,7,7,0,0,1-2.36-3,11,11,0,0,1-.85-4.45,10.86,10.86,0,0,1,.85-4.42,6.83,6.83,0,0,1,2.37-3,6,6,0,0,1,3.55-1.06,5.27,5.27,0,0,1,2.48.52,5,5,0,0,1,1.59,1.31,7.55,7.55,0,0,1,.92,1.51h.18V49.14h1.9V71h-1.85v-3h-.23a8,8,0,0,1-.93,1.53,4.9,4.9,0,0,1-1.61,1.31A5.14,5.14,0,0,1,582.29,71.29Zm.22-1.73a4.29,4.29,0,0,0,2.71-.87,5.53,5.53,0,0,0,1.71-2.4,9.78,9.78,0,0,0,.59-3.51,9.6,9.6,0,0,0-.59-3.47,5.36,5.36,0,0,0-1.7-2.36,4.73,4.73,0,0,0-5.48,0,5.54,5.54,0,0,0-1.71,2.4,9.4,9.4,0,0,0-.58,3.4,9.58,9.58,0,0,0,.59,3.44,5.56,5.56,0,0,0,1.71,2.44A4.25,4.25,0,0,0,582.51,69.56Z"/></g></svg>