<svg xmlns="http://www.w3.org/2000/svg" viewBox="0 0 648 648"><defs><style>.cls-1{fill:#ff5e3f;}.cls-2{fill:#fff;}</style></defs><g id="Background"><rect width="648" height="648"/></g><g id="Layer_1" data-name="Layer 1"><path class="cls-1" d="M344.24,434.5a10.34,10.34,0,0,1-2.66-7.27,21.19,21.19,0,0,1,2.9-10.73,25.7,25.7,0,0,1,7.46-8.27,3.44,3.44,0,0,1,2-.66,2.12,2.12,0,0,1,1.57.62,2,2,0,0,1,.62,1.47,3.28,3.28,0,0,1-1.14,2.28,17.1,17.1,0,0,0-3.8,4.94,10.93,10.93,0,0,0-1.33,4.84h1.23A7.49,7.49,0,0,1,356.5,424a7.35,7.35,0,0,1,2.28,5.46,7.55,7.55,0,0,1-2.28,5.46,7.34,7.34,0,0,1-5.42,2.33A8.33,8.33,0,0,1,344.24,434.5Zm.38,21.85a8.73,8.73,0,0,1-2.37-6.22,8.14,8.14,0,0,1,2.37-6,8.25,8.25,0,0,1,6.08-2.37,8.35,8.35,0,0,1,6.08,2.42,8,8,0,0,1,2.47,5.94,8.52,8.52,0,0,1-2.47,6.22,8.16,8.16,0,0,1-6.08,2.52A8,8,0,0,1,344.62,456.35Z"/><path class="cls-1" d="M374.83,497.82a1.24,1.24,0,0,1-1-.57,3.16,3.16,0,0,1-.52-1.62q-.37-5.42-1.47-15t-1.47-12.82q-1.33-10.55-2.19-18.72-.29-2.18,1.95-7.22a48,48,0,0,1,5.51-9.4c2.18-2.91,4.19-4.66,6-5.23a4.07,4.07,0,0,1,1.43-.28,2.67,2.67,0,0,1,1.8.66,30.16,30.16,0,0,1,7.65-10.16,15.25,15.25,0,0,1,10-4,13,13,0,0,1,1.81.09q7.5,1.05,10.73,6.65t3.23,13.87c0,.89-.06,2.22-.19,4q-1.33,16.15-9.12,19a17,17,0,0,1-6,.95,29.69,29.69,0,0,1-10.36-2.09,54.34,54.34,0,0,1-11.49-6.08c.12,1.08.24,2.21.33,3.38s.24,2.39.43,3.65c.44,4.25.84,8.28,1.19,12.12s.52,7,.52,9.54a36.56,36.56,0,0,1-.48,6.08,20.14,20.14,0,0,1-2.28,5.37q-2,3.66-3.61,6.13A3.31,3.31,0,0,1,374.83,497.82Zm34.58-64.36a12.06,12.06,0,0,0-3.85-3.19,11.2,11.2,0,0,0-5.46-1.33,9.13,9.13,0,0,0-3.85.81,6.11,6.11,0,0,0-2.7,2.33,32,32,0,0,0,7.26,3.8,21.23,21.23,0,0,0,7.37,1.52,9.49,9.49,0,0,0,3-.48A9.49,9.49,0,0,0,409.41,433.46Z"/><path class="cls-1" d="M481.14,436.07v21.85h-.76q-10.08,0-14-8.93a40.58,40.58,0,0,1-8.88,8.5A43.39,43.39,0,0,1,447.22,463a20.91,20.91,0,0,1-8.55,1.57q-2.09-.19-6.17-4.56a67.24,67.24,0,0,1-6.94-8.65,4.09,4.09,0,0,1-.76-2c0-.95.82-1.46,2.47-1.52q12.54-1.14,19.76-3.71a27,27,0,0,0-6.46-11.82,168.82,168.82,0,0,0-15.1-14.59L433.35,403c.57-1.08,1.2-1.62,1.9-1.62s1.24.48,1.81,1.43l.66,1.14.86,1.52q6.27,10.63,10.07,17.95t4.37,11.5a27.67,27.67,0,0,1,.28,3.7,13.18,13.18,0,0,1-.28,2.76q8.16-4.84,8.17-13.68a18.28,18.28,0,0,0-.19-2.95c-.57-4-1.11-7.34-1.62-10.07q-1.23-6.56-2.28-13.77l13.49-10.26a2.56,2.56,0,0,1,1.71-.67,1.45,1.45,0,0,1,1.14.57,2.29,2.29,0,0,1,.48,1.52q0,8.46-1.14,33.92-.11,5.42,1.47,7.74t6.41,2.33Z"/><path class="cls-1" d="M544.5,421.82a49.45,49.45,0,0,1,1.9,13.87,40.08,40.08,0,0,1-.85,8.74,17.82,17.82,0,0,1-5.42,9.64,14.83,14.83,0,0,1-10.45,3.85h-.38a10.7,10.7,0,0,1-6.55-2.19,11.44,11.44,0,0,1-4.09-6.74,11.74,11.74,0,0,1-4.56,6.74,11.3,11.3,0,0,1-6.36,2.19h-.19a15.64,15.64,0,0,1-8-2.23,11.2,11.2,0,0,1-4.8-6.7,13,13,0,0,1-5.7,6.6,15.64,15.64,0,0,1-8,2.33h-.76V436.07H481A19.87,19.87,0,0,0,488.5,435a7,7,0,0,0,3.47-2.89,77.18,77.18,0,0,0,3.23-7.27c.69-1.71,1.77-2.57,3.23-2.57a3,3,0,0,1,2.18.95,3.37,3.37,0,0,1,.95,2.47,5.29,5.29,0,0,1-.09,1.14,15.52,15.52,0,0,0-.48,3.8c0,2,.55,3.44,1.66,4.23a8.83,8.83,0,0,0,5.09,1.19,8.54,8.54,0,0,0,4.65-1,5.06,5.06,0,0,0,2.09-2.75,66.72,66.72,0,0,0,1.52-6.61,4.47,4.47,0,0,1,1.28-2.32,3,3,0,0,1,2.05-.81,3.13,3.13,0,0,1,2.32,1,3.67,3.67,0,0,1,.91,2.85q-.19,5.52,1.33,7.56t5.51,2h.28a12.86,12.86,0,0,0,4.7-.76,6.51,6.51,0,0,0,2.9-2,146.69,146.69,0,0,0-8-12.92l8.65-7.88a2.91,2.91,0,0,1,1.71-.95c.44,0,.85.32,1.23.95A40.68,40.68,0,0,1,544.5,421.82Z"/><path class="cls-1" d="M576,436.07v21.85h-.48q-9.4,0-14.25-5.37t-5.7-15.82q-1.23-14.53-3.42-35.81l13.4-10.26a2.53,2.53,0,0,1,1.71-.67,1.47,1.47,0,0,1,1.23.67,3,3,0,0,1,.48,1.8l-.19,10.36-.67,25.93q-.09,4.19,1.38,5.75t5.46,1.57Z"/><path class="cls-1" d="M572.15,470.46a2.08,2.08,0,0,1,.76-1.33L579,463c.5-.5.88-.76,1.14-.76a1.55,1.55,0,0,1,1.14.76l6.27,6.18a1.8,1.8,0,0,1,.76,1.23,2.1,2.1,0,0,1-.76,1.33l-6.08,6.08c-.45.45-.8.67-1.05.67a2.73,2.73,0,0,1-1.14-.67l-6.36-6.08A2,2,0,0,1,572.15,470.46Zm24.65-50a49,49,0,0,1,2,14.06,35.72,35.72,0,0,1-1,8.45q-3.61,14.92-21.66,14.92h-1.14V436.07h.38a51.47,51.47,0,0,0,8.5-.67c2.7-.44,4.48-1,5.37-1.71q-3.8-5.6-10-13.11l10.45-9.78a3.6,3.6,0,0,1,1.8-1.05c.51,0,1,.35,1.33,1.05A42.21,42.21,0,0,1,596.8,420.49Z"/><path class="cls-1" d="M249.06,552.59a67.9,67.9,0,0,1,2.09,17.2l-.1,3q-.48,9.88-5.41,16.62a34,34,0,0,1-11,10q-6,3.27-9.26,3.27-1.62,0-5.08-3.46t-8.79-9.36a2.53,2.53,0,0,1-.85-1.81,1.72,1.72,0,0,1,.66-1.33,3.21,3.21,0,0,1,1.9-.66A52.56,52.56,0,0,0,225.88,583a45.63,45.63,0,0,0,10.59-5.61q4.32-3.18,5.18-6.22-4.28-9.12-10.45-20l10.45-9.78a3.6,3.6,0,0,1,1.8-1c.51,0,1,.35,1.33,1Q247,544.62,249.06,552.59Zm-18.34-25.93a2.08,2.08,0,0,1,.76-1.33l6.08-6.18c.51-.5.89-.76,1.14-.76a1.55,1.55,0,0,1,1.14.76l6.27,6.18a1.76,1.76,0,0,1,.76,1.23,2.05,2.05,0,0,1-.76,1.33L240,534c-.44.45-.79.67-1,.67a2.73,2.73,0,0,1-1.14-.67l-6.37-6.08A2,2,0,0,1,230.72,526.66Z"/><path class="cls-1" d="M302.54,553.07v21.85h-1.9a14.12,14.12,0,0,1-5.42-.95,29.44,29.44,0,0,1-5.7,16,34.3,34.3,0,0,1-10.83,9.64q-5.88,3.18-9,3.18-1.62,0-5.08-3.46t-8.79-9.36a2.55,2.55,0,0,1-.86-1.81,1.73,1.73,0,0,1,.67-1.33,3.21,3.21,0,0,1,1.9-.66A52.68,52.68,0,0,0,270.15,583a46,46,0,0,0,10.59-5.61c2.88-2.12,4.6-4.19,5.18-6.22q-4.29-9.12-10.46-20l10.46-9.78a3.6,3.6,0,0,1,1.8-1c.51,0,.95.35,1.33,1a11.3,11.3,0,0,1,1.14,2.09l1.14,2.18q1.91,3.42,2.85,4.8a6,6,0,0,0,2.28,2,8.59,8.59,0,0,0,3.8.67Z"/><path class="cls-1" d="M344.86,537.49a27.66,27.66,0,0,1,3.47,14.25c0,1.46,0,2.56-.1,3.32a32.57,32.57,0,0,1-3.32,12.64q-2.66,4.93-6.65,6.36a17.79,17.79,0,0,1-5.89,1,25.39,25.39,0,0,1-9.64-2,33.38,33.38,0,0,1-9.27-5.75,17.46,17.46,0,0,1-5.46,5.85,10.74,10.74,0,0,1-5.56,1.85h-.66V553.07h1.52q4.56,0,6.74-1.47a14,14,0,0,0,4.18-5.37A44.11,44.11,0,0,1,322.35,535q4.61-4.51,9.83-4.51a8.21,8.21,0,0,1,1.42.09Q341.4,531.6,344.86,537.49Zm-15.53,15.77a21.73,21.73,0,0,0,7.41,1.33,12.69,12.69,0,0,0,4.56-.67,8.84,8.84,0,0,0-2-3.42,14.31,14.31,0,0,0-4.28-3.23,12.34,12.34,0,0,0-5.65-1.33,9.1,9.1,0,0,0-3.85.81,6.2,6.2,0,0,0-2.71,2.33A17.63,17.63,0,0,0,329.33,553.26Z"/><path class="cls-1" d="M416.92,553.07v21.85h-2.28a88,88,0,0,1-8.84-.57,21.4,21.4,0,0,1,3.19,4,7.68,7.68,0,0,1,1,3.84q0,3.9-3.18,8.7a26.1,26.1,0,0,1-9.55,8.26,31.34,31.34,0,0,1-15.2,3.47q-14.06,0-20.56-8T355,574.35a52,52,0,0,1,1.14-10.74,51.1,51.1,0,0,1,3.23-10.16,4.4,4.4,0,0,1,1.47-2,3.26,3.26,0,0,1,1.85-.62,3,3,0,0,1,2.19,1,3.37,3.37,0,0,1,.95,2.47,5.5,5.5,0,0,1-.19,1.14q-2.1,8.74-2.09,12.83,0,6.18,4.08,9.31t14.25,3.23q13.39,0,18.91-2.38a26.63,26.63,0,0,0-4.13-2.18q-2.43-1.05-7-2.76c-.82-.31-1.79-.66-2.89-1s-2.36-.86-3.76-1.43l4.94-18.62a3.53,3.53,0,0,1,.81-1.66,1.9,1.9,0,0,1,1.38-.52,4.7,4.7,0,0,1,1,.09A111.29,111.29,0,0,0,416.92,553.07Z"/><path class="cls-1" d="M413.21,587.46a2.12,2.12,0,0,1,.76-1.33l6.08-6.18c.51-.5.89-.76,1.14-.76a1.55,1.55,0,0,1,1.14.76l6.27,6.18a1.76,1.76,0,0,1,.76,1.23,2.05,2.05,0,0,1-.76,1.33l-6.08,6.08c-.44.45-.79.67-1,.67a2.73,2.73,0,0,1-1.14-.67L414,588.69A2.08,2.08,0,0,1,413.21,587.46Zm24.65-50a48.61,48.61,0,0,1,2.05,14.06,35.72,35.72,0,0,1-1,8.45q-3.61,14.93-21.66,14.92h-1.14V553.07h.38a51.56,51.56,0,0,0,8.5-.67q4-.66,5.37-1.71-3.81-5.6-10-13.11l10.45-9.78a3.62,3.62,0,0,1,1.81-1c.5,0,.95.35,1.33,1A42.29,42.29,0,0,1,437.86,537.49Z"/><path class="cls-1" d="M487.31,552.59a67.45,67.45,0,0,1,2.09,17.2l-.09,3q-.48,9.88-5.42,16.62a33.84,33.84,0,0,1-11,10q-6,3.27-9.26,3.27-1.62,0-5.08-3.46t-8.79-9.36a2.55,2.55,0,0,1-.86-1.81,1.7,1.7,0,0,1,.67-1.33,3.19,3.19,0,0,1,1.9-.66A52.48,52.48,0,0,0,464.13,583a45.91,45.91,0,0,0,10.6-5.61q4.32-3.18,5.17-6.22-4.27-9.12-10.45-20l10.45-9.78a3.66,3.66,0,0,1,1.81-1c.5,0,1,.35,1.33,1Q485.22,544.62,487.31,552.59Z"/><path class="cls-1" d="M512.11,507q1.71,0,1.71,2.28,0,6.66-.81,27.08t-2,29a18.74,18.74,0,0,1-2.38,5.32q-2.08,3.61-3.89,6.46a2.83,2.83,0,0,1-2.19,1.52,1.3,1.3,0,0,1-1.09-.57,3.23,3.23,0,0,1-.52-1.71q-1.71-28.22-3.9-58.42l13.4-10.26A2.53,2.53,0,0,1,512.11,507Z"/><path class="cls-1" d="M542.41,552.59a67.9,67.9,0,0,1,2.09,17.2l-.09,3q-.48,9.88-5.42,16.62a33.84,33.84,0,0,1-11,10q-6,3.27-9.26,3.27-1.62,0-5.09-3.46t-8.78-9.36a2.55,2.55,0,0,1-.86-1.81,1.7,1.7,0,0,1,.67-1.33,3.19,3.19,0,0,1,1.9-.66A52.48,52.48,0,0,0,519.23,583a45.63,45.63,0,0,0,10.59-5.61c2.89-2.12,4.61-4.19,5.18-6.22q-4.28-9.12-10.45-20L535,541.29a3.62,3.62,0,0,1,1.81-1c.5,0,1,.35,1.33,1Q540.32,544.62,542.41,552.59Zm-18.33-25.93a2.08,2.08,0,0,1,.76-1.33l6.08-6.18c.5-.5.88-.76,1.14-.76a1.55,1.55,0,0,1,1.14.76l6.27,6.18a1.8,1.8,0,0,1,.76,1.23,2.1,2.1,0,0,1-.76,1.33L533.39,534c-.45.45-.8.67-1,.67a2.73,2.73,0,0,1-1.14-.67l-6.36-6.08A2,2,0,0,1,524.08,526.66Z"/><path class="cls-1" d="M576,553.07v21.85h-.48q-9.4,0-14.25-5.37t-5.7-15.82q-1.23-14.54-3.42-35.81l13.4-10.26a2.53,2.53,0,0,1,1.71-.67,1.47,1.47,0,0,1,1.23.67,3,3,0,0,1,.48,1.8l-.19,10.36-.67,25.93q-.09,4.18,1.38,5.75t5.46,1.57Z"/><path class="cls-1" d="M572.14,587.46a2.12,2.12,0,0,1,.76-1.33L579,580c.51-.5.89-.76,1.14-.76a1.55,1.55,0,0,1,1.14.76l6.27,6.18a1.76,1.76,0,0,1,.76,1.23,2.05,2.05,0,0,1-.76,1.33l-6.08,6.08c-.44.45-.79.67-1,.67a2.73,2.73,0,0,1-1.14-.67l-6.37-6.08A2.08,2.08,0,0,1,572.14,587.46Zm24.66-50a49,49,0,0,1,2,14.06,35.72,35.72,0,0,1-1,8.45q-3.61,14.93-21.66,14.92h-1.14V553.07h.38a51.47,51.47,0,0,0,8.5-.67q4-.66,5.37-1.71-3.8-5.6-10-13.11l10.45-9.78a3.66,3.66,0,0,1,1.81-1c.51,0,1,.35,1.33,1A42.67,42.67,0,0,1,596.8,537.49Z"/><path class="cls-2" d="M48.26,71V49.14H60.88v1.79H50.25v8.21h9.64v1.79H50.25V71Z"/><path class="cls-2" d="M63.15,71H61.06L69,49.14h2.13L79.07,71H77L70.14,51.72H70Zm1.5-8.36H75.48v1.79H64.65Z"/><path class="cls-2" d="M82.81,71V49.14h7a8.1,8.1,0,0,1,3.88.83,5.66,5.66,0,0,1,2.36,2.31,7,7,0,0,1,.79,3.39A6.89,6.89,0,0,1,96.09,59a5.51,5.51,0,0,1-2.35,2.28,8.17,8.17,0,0,1-3.86.82h-6V60.31h6a6.47,6.47,0,0,0,2.84-.56,3.82,3.82,0,0,0,1.69-1.61,5.2,5.2,0,0,0,.56-2.47,5.33,5.33,0,0,0-.56-2.5,3.9,3.9,0,0,0-1.7-1.66,6.22,6.22,0,0,0-2.86-.58h-5V71Zm9.62-9.84L97.8,71H95.5l-5.32-9.84Z"/><path class="cls-2" d="M101.74,71V49.14h2v10h12.38v-10h2V71h-2v-10H103.73V71Z"/><path class="cls-2" d="M123.93,71h-2.09l7.94-21.81h2.13L139.85,71h-2.09l-6.84-19.23h-.15Zm1.5-8.36h10.83v1.79H125.43Z"/><path class="cls-2" d="M160.58,49.14V71h-1.94L145.75,52.68h-.17V71h-2V49.14h1.93l12.94,18.29h.17V49.14Z"/><path class="cls-2" d="M181.47,56a8,8,0,0,0-.88-2,6.67,6.67,0,0,0-1.42-1.67,6.25,6.25,0,0,0-1.95-1.12,7,7,0,0,0-2.45-.41A6.79,6.79,0,0,0,171,51.82a7.51,7.51,0,0,0-2.66,3.2,11.92,11.92,0,0,0-1,5,11.76,11.76,0,0,0,1,5,7.48,7.48,0,0,0,2.69,3.2,7.43,7.43,0,0,0,7.47.22,6.21,6.21,0,0,0,2.42-2.55,8.21,8.21,0,0,0,.84-4l.64.21h-7V60.39h8.29v1.79A9.71,9.71,0,0,1,182.53,67a7.81,7.81,0,0,1-3.1,3.14A9.11,9.11,0,0,1,166.58,66,13.79,13.79,0,0,1,165.39,60a14.87,14.87,0,0,1,.68-4.63A10.43,10.43,0,0,1,168,51.87a8.42,8.42,0,0,1,3-2.25,9.09,9.09,0,0,1,3.8-.78,9.27,9.27,0,0,1,3.27.56,8.66,8.66,0,0,1,4.49,3.82,8.68,8.68,0,0,1,1,2.73Z"/><path class="cls-2" d="M197.05,71V49.14h7.37a7.56,7.56,0,0,1,3.55.74,5,5,0,0,1,2.13,2,5.89,5.89,0,0,1,.72,2.93,5.35,5.35,0,0,1-.46,2.33,4,4,0,0,1-1.25,1.56,5.13,5.13,0,0,1-1.75.87v.17a4.1,4.1,0,0,1,2,.74A5,5,0,0,1,211,62.38a5.88,5.88,0,0,1,.64,2.85,6,6,0,0,1-.73,3,5.1,5.1,0,0,1-2.26,2,8.71,8.71,0,0,1-3.86.74Zm2-12h5.55a4.62,4.62,0,0,0,2.25-.53A3.91,3.91,0,0,0,208.37,57a4.23,4.23,0,0,0,.54-2.14A3.77,3.77,0,0,0,207.78,52a4.64,4.64,0,0,0-3.36-1.09h-5.37Zm0,10.17h5.77a5.36,5.36,0,0,0,3.73-1.11,3.68,3.68,0,0,0,1.21-2.82,4.37,4.37,0,0,0-.6-2.26,4.23,4.23,0,0,0-1.69-1.61,5.24,5.24,0,0,0-2.56-.6h-5.86Z"/><path class="cls-2" d="M218,49.14V71h-1.9V49.14Z"/><path class="cls-2" d="M227.55,71.33a6.32,6.32,0,0,1-2.7-.58,4.65,4.65,0,0,1-1.95-1.69,4.79,4.79,0,0,1-.73-2.68,4.21,4.21,0,0,1,.46-2,3.79,3.79,0,0,1,1.3-1.37,7.55,7.55,0,0,1,2-.84,20.91,20.91,0,0,1,2.54-.48l2.33-.29a4.45,4.45,0,0,0,1.45-.41.93.93,0,0,0,.5-.89v-.39a3.5,3.5,0,0,0-1-2.63,3.93,3.93,0,0,0-2.86-1,5,5,0,0,0-2.89.78,4.34,4.34,0,0,0-1.56,1.83l-1.8-.65a5.38,5.38,0,0,1,1.54-2.15,6.24,6.24,0,0,1,2.19-1.16,9,9,0,0,1,2.46-.35,8.53,8.53,0,0,1,2,.24,5.56,5.56,0,0,1,1.89.85,4.5,4.5,0,0,1,1.42,1.67,6,6,0,0,1,.54,2.71V71h-1.9V68.36h-.12a4.8,4.8,0,0,1-1,1.41,5.1,5.1,0,0,1-1.68,1.12A6,6,0,0,1,227.55,71.33Zm.26-1.74a4.93,4.93,0,0,0,2.62-.67,4.59,4.59,0,0,0,1.71-1.79,5.08,5.08,0,0,0,.6-2.45V62.31a1.85,1.85,0,0,1-.71.37,10.59,10.59,0,0,1-1.14.28c-.43.08-.85.15-1.28.21l-1.15.15a10.69,10.69,0,0,0-2.37.53,3.46,3.46,0,0,0-1.5,1,2.49,2.49,0,0,0-.52,1.63,2.76,2.76,0,0,0,1.07,2.31A4.28,4.28,0,0,0,227.81,69.59Z"/><path class="cls-2" d="M246.07,71.29a6.67,6.67,0,0,1-3.82-1.09,7.32,7.32,0,0,1-2.52-3,11,11,0,0,1,0-8.72,7.28,7.28,0,0,1,2.53-3A6.54,6.54,0,0,1,246,54.37a6.87,6.87,0,0,1,3,.63,5.9,5.9,0,0,1,2.2,1.78,5.68,5.68,0,0,1,1.09,2.67h-1.92A4.15,4.15,0,0,0,249,57.08a4.23,4.23,0,0,0-2.88-1,4.66,4.66,0,0,0-2.77.85,5.6,5.6,0,0,0-1.88,2.35,8.49,8.49,0,0,0-.68,3.49,8.81,8.81,0,0,0,.66,3.52,5.65,5.65,0,0,0,1.86,2.4,4.73,4.73,0,0,0,2.81.86,4.82,4.82,0,0,0,2-.41A4.14,4.14,0,0,0,249.57,68a4,4,0,0,0,.82-1.8h1.92a5.78,5.78,0,0,1-3.21,4.45A6.69,6.69,0,0,1,246.07,71.29Z"/><path class="cls-2" d="M256.37,71V49.14h1.9V71Zm1.73-6.18,0-2.48h.42l7.67-7.7h2.4L261,62.18l-.17,0ZM266.57,71l-6.65-8.4,1.36-1.31L269,71Z"/></g></svg>