<svg xmlns="http://www.w3.org/2000/svg" viewBox="0 0 648 648"><defs><style>.cls-1{fill:#ff5e3f;}.cls-2{fill:#fff;}</style></defs><g id="Layer_1" data-name="Layer 1"><rect width="648" height="648"/><path class="cls-1" d="M347.47,434.5a10.34,10.34,0,0,1-2.66-7.27,21.19,21.19,0,0,1,2.9-10.73,25.7,25.7,0,0,1,7.46-8.27,3.44,3.44,0,0,1,2-.66,2.12,2.12,0,0,1,1.57.62,2,2,0,0,1,.62,1.47,3.28,3.28,0,0,1-1.14,2.28,17.1,17.1,0,0,0-3.8,4.94,10.93,10.93,0,0,0-1.33,4.84h1.23a7.49,7.49,0,0,1,5.42,2.24,7.35,7.35,0,0,1,2.28,5.46,7.55,7.55,0,0,1-2.28,5.46,7.31,7.31,0,0,1-5.42,2.33A8.3,8.3,0,0,1,347.47,434.5Zm.38,21.85a8.71,8.71,0,0,1-2.37-6.22,8.14,8.14,0,0,1,2.37-6,8.25,8.25,0,0,1,6.08-2.37,8.35,8.35,0,0,1,6.08,2.42,8,8,0,0,1,2.47,5.94,8.51,8.51,0,0,1-2.47,6.22,8.16,8.16,0,0,1-6.08,2.52A8,8,0,0,1,347.85,456.35Z"/><path class="cls-1" d="M379.3,499.53a1.87,1.87,0,0,1-1.24.47,1.32,1.32,0,0,1-1.09-.57,3.33,3.33,0,0,1-.52-1.71q-1.05-13.2-4.75-48.64a11.1,11.1,0,0,1,1.76-6.69,18.67,18.67,0,0,1,5.32-5.8,11.09,11.09,0,0,1,6.41-2.33,6.49,6.49,0,0,1,3.61,1.05q7.59-14.62,16.72-14.63a10,10,0,0,1,2.28.19,12.89,12.89,0,0,1,9.36,6.41,24.83,24.83,0,0,1,2.89,12.3,32,32,0,0,1-.38,5.32q-1.8,12.45-9.12,14a16.53,16.53,0,0,1-3.23.28,30.73,30.73,0,0,1-12-2.89,57.81,57.81,0,0,1-13.73-8.7q2.66,22.51,2.66,32.68a42.22,42.22,0,0,1-.38,6.46,94.25,94.25,0,0,1-3.61,11.5A3.7,3.7,0,0,1,379.3,499.53Zm33.49-60a12.5,12.5,0,0,0-4.09-4.13,10.81,10.81,0,0,0-5.94-1.67,10.26,10.26,0,0,0-4.94,1.24,8.29,8.29,0,0,0-3.51,3.7,31.75,31.75,0,0,0,8.36,4.18,27.16,27.16,0,0,0,8.83,1.81,8.63,8.63,0,0,0,2.85-.38A10.12,10.12,0,0,0,412.79,439.49Z"/><path class="cls-1" d="M483.7,441.77v16.15h-.76q-9.6,0-13.68-9a40.69,40.69,0,0,1-8.74,8.74,45.17,45.17,0,0,1-10.45,5.89,26.08,26.08,0,0,1-9.4,2.09c-1.08,0-3.15-1.36-6.23-4.08a43.21,43.21,0,0,1-6.6-6.94,1.41,1.41,0,0,1-.38-1c0-.95.76-1.46,2.28-1.52q12.74-.37,21.66-3.71a29.16,29.16,0,0,0-4.23-10.4,65.93,65.93,0,0,0-7.74-9.93q-4.47-4.74-11.78-11.78l6.46-13c.51-1.08,1.11-1.62,1.81-1.62s1.26.48,1.9,1.43q8.16,13.49,12.35,21.66a53.65,53.65,0,0,1,5.41,16,16,16,0,0,1,.19,3c0,1.2,0,2.09-.09,2.66a20.9,20.9,0,0,0,7.88-7A15.65,15.65,0,0,0,465.75,429q-.86-9.21-1.52-14.06t-2.38-16.06l11.59-8.83a2.83,2.83,0,0,1,1.71-.76,1.41,1.41,0,0,1,1.19.57,2.87,2.87,0,0,1,.43,1.71q0,10.17-1.52,37.14c-.07.83-.1,1.94-.1,3.33q0,5.22,1.62,7.46c1.07,1.49,3.23,2.23,6.46,2.23Z"/><path class="cls-1" d="M546.16,427.47a50.59,50.59,0,0,1,1.38,11.45,27.1,27.1,0,0,1-.47,5.51,21.43,21.43,0,0,1-4.66,9.36q-3.51,4.13-10.07,4.13H532a10.7,10.7,0,0,1-6.55-2.19,11.44,11.44,0,0,1-4.09-6.74,11.74,11.74,0,0,1-4.56,6.74,11.3,11.3,0,0,1-6.36,2.19h-.19q-10.45,0-12.83-8.93a13,13,0,0,1-5.7,6.6,15.64,15.64,0,0,1-8,2.33h-.76V441.77h.76a19.1,19.1,0,0,0,7.74-1.28,9.91,9.91,0,0,0,4.28-3.52,28.73,28.73,0,0,0,2.9-6.41,3.5,3.5,0,0,1,1.09-1.62,2.44,2.44,0,0,1,1.57-.56,2.26,2.26,0,0,1,1.66.71,2.51,2.51,0,0,1,.71,1.85,2.61,2.61,0,0,1-.1.85,14.72,14.72,0,0,0-.37,3.33q0,6.64,7.22,6.65a9,9,0,0,0,4.89-1.09,6.53,6.53,0,0,0,2.47-3.23,45.2,45.2,0,0,0,1.66-6.42,3.65,3.65,0,0,1,1-1.9,2.26,2.26,0,0,1,1.57-.66,2.3,2.3,0,0,1,1.8.9,3,3,0,0,1,.67,2.23,18.42,18.42,0,0,0-.1,2.28q0,7.89,7.69,7.89h.29a19.24,19.24,0,0,0,5.18-.67,5.19,5.19,0,0,0,3.27-2.09q-1.51-3.22-7.41-11.3l7-8.27a2.28,2.28,0,0,1,1.61-1c.38,0,.82.35,1.33,1Q544.78,421.54,546.16,427.47Z"/><path class="cls-1" d="M577.28,441.77v16.15h-.48q-6.27,0-10-2.38a14.1,14.1,0,0,1-5.52-7,44,44,0,0,1-2.46-11.83l-3.52-37.05,11.5-8.83a3.19,3.19,0,0,1,1.8-.67q1.62,0,1.62,2.28,0,1.71-1.14,22.9l-1,19.09q-.2,4.1,1.56,5.7t6.51,1.62Z"/><path class="cls-1" d="M574.23,471.12a1.88,1.88,0,0,1,.67-1.14l5.51-5.6c.44-.44.79-.67,1.05-.67a1.55,1.55,0,0,1,1,.67l5.7,5.6c.51.51.76.89.76,1.14s-.25.64-.76,1.14l-5.51,5.61a1.56,1.56,0,0,1-1,.57,1.55,1.55,0,0,1-1-.57l-5.8-5.61A1.59,1.59,0,0,1,574.23,471.12Zm22.9-45.93a58,58,0,0,1,1.42,12.4,32.54,32.54,0,0,1-.47,5.41,18,18,0,0,1-6.32,10.64q-5.09,4.28-14.2,4.28h-1.14V441.77h.38a62.34,62.34,0,0,0,9.45-.62q3.94-.61,5.28-1.76-3.43-6-8.65-14.06l8.26-8.83a2.87,2.87,0,0,1,1.81-1.05c.51,0,.95.35,1.33,1.05C595.23,418,596.18,420.85,597.13,425.19Z"/><path class="cls-1" d="M257.37,557.82a61.6,61.6,0,0,1,2.14,16.06c0,.88-.06,2.15-.19,3.79A24.63,24.63,0,0,1,254.24,591a32.9,32.9,0,0,1-9.79,8.65q-5.37,3-8.31,3-1.9,0-6.51-3a47.85,47.85,0,0,1-7.74-6.13,1.64,1.64,0,0,1-.57-1.14,1.37,1.37,0,0,1,.57-1,2.86,2.86,0,0,1,1.52-.57,62.92,62.92,0,0,0,13-3.18,52.66,52.66,0,0,0,10.35-4.94c2.82-1.8,4.71-3.5,5.65-5.08q-3.4-8.18-10.64-22.52l8.27-8.83q1.14-1.14,1.8-1.14c.45,0,.92.41,1.43,1.23A52.7,52.7,0,0,1,257.37,557.82ZM242.12,529.7a1.83,1.83,0,0,1,.67-1.14L248.3,523c.44-.44.79-.66,1-.66a1.53,1.53,0,0,1,1,.66l5.7,5.61c.51.51.76.89.76,1.14s-.25.63-.76,1.14l-5.51,5.6a1.56,1.56,0,0,1-1,.57,1.58,1.58,0,0,1-1-.57l-5.79-5.6A1.59,1.59,0,0,1,242.12,529.7Z"/><path class="cls-1" d="M306.91,558.77v16.15h-.38a12,12,0,0,1-4.84-.95c0,.82-.07,2.06-.19,3.7A24.71,24.71,0,0,1,296.42,591a32.9,32.9,0,0,1-9.79,8.65q-5.37,3-8.31,3-1.9,0-6.51-3a47.85,47.85,0,0,1-7.74-6.13,1.64,1.64,0,0,1-.57-1.14,1.37,1.37,0,0,1,.57-1,2.86,2.86,0,0,1,1.52-.57,62.92,62.92,0,0,0,13-3.18,52.66,52.66,0,0,0,10.35-4.94c2.82-1.8,4.7-3.5,5.65-5.08q-3.42-8.18-10.64-22.52l8.27-8.83q1.14-1.14,1.8-1.14c.45,0,.92.41,1.43,1.23a15.7,15.7,0,0,1,1.33,2.85l.09.19,1.14,2.57a33,33,0,0,0,2.24,4.56,4.49,4.49,0,0,0,2,1.76,10.64,10.64,0,0,0,3.89.52Z"/><path class="cls-1" d="M346.48,544.28a24.83,24.83,0,0,1,2.9,12.3,33.09,33.09,0,0,1-.38,5.32,23.23,23.23,0,0,1-3.23,9.65,9.52,9.52,0,0,1-6.08,4.32,17,17,0,0,1-3.8.38,23,23,0,0,1-9.31-2.09,30.53,30.53,0,0,1-8.84-6c-1.71,2.73-3.39,4.53-5,5.42a12.23,12.23,0,0,1-5.89,1.33h-.67V558.77h1.52a12.7,12.7,0,0,0,5-.81,8.28,8.28,0,0,0,3.23-2.56,47.66,47.66,0,0,0,3.56-5.66q6.84-12.06,15.3-12.06a10.46,10.46,0,0,1,2.37.19A12.85,12.85,0,0,1,346.48,544.28Zm-16.15,16.1a23.22,23.22,0,0,0,8.69,1.81,9.35,9.35,0,0,0,4.66-1,10.94,10.94,0,0,0-1.71-4.75,13.1,13.1,0,0,0-4.09-4.13,10.41,10.41,0,0,0-5.79-1.67,10.51,10.51,0,0,0-5,1.24,8.23,8.23,0,0,0-3.56,3.7A15.62,15.62,0,0,0,330.33,560.38Z"/><path class="cls-1" d="M418,558.77v16.15h-2.28a88,88,0,0,1-8.84-.57,20.88,20.88,0,0,1,3.18,4,7.59,7.59,0,0,1,1,3.84q0,3.81-3.32,8.65a27.28,27.28,0,0,1-9.69,8.31,31.17,31.17,0,0,1-15.11,3.47q-13.31,0-19.33-6.65t-6-17.29a50.57,50.57,0,0,1,4.08-19.38,3.1,3.1,0,0,1,1.05-1.43,2.29,2.29,0,0,1,1.33-.47,2,2,0,0,1,1.47.62,2.24,2.24,0,0,1,.62,1.66,5.67,5.67,0,0,1-.19,1,44.4,44.4,0,0,0-2.19,11.88q0,6.55,4.37,10.21t14.82,3.66a47.59,47.59,0,0,0,11.59-1.43,27.51,27.51,0,0,0,8.74-3.51q-4.37-4.76-19.19-10.55l3.33-12.92a3.52,3.52,0,0,1,.8-1.66,1.86,1.86,0,0,1,1.38-.52,4.86,4.86,0,0,1,1.05.09Q401.81,558.77,418,558.77Z"/><path class="cls-1" d="M415,588.12a1.83,1.83,0,0,1,.67-1.14l5.51-5.6c.44-.44.79-.67,1-.67a1.57,1.57,0,0,1,1.05.67L429,587c.51.51.77.89.77,1.14s-.26.64-.77,1.14l-5.51,5.61a1.55,1.55,0,0,1-.94.57,1.58,1.58,0,0,1-1-.57l-5.79-5.61A1.55,1.55,0,0,1,415,588.12Zm22.9-45.93a58,58,0,0,1,1.42,12.4,33.64,33.64,0,0,1-.47,5.41,18.1,18.1,0,0,1-6.32,10.64q-5.08,4.27-14.21,4.28h-1.13V558.77h.37a62.38,62.38,0,0,0,9.46-.62c2.63-.41,4.38-1,5.27-1.76q-3.42-6-8.64-14.06l8.26-8.83a2.87,2.87,0,0,1,1.8-1c.51,0,1,.35,1.33,1C436,535,437,537.85,437.92,542.19Z"/><path class="cls-1" d="M489.45,557.82a61.6,61.6,0,0,1,2.14,16.06c0,.88-.07,2.15-.19,3.79A24.63,24.63,0,0,1,486.32,591a32.9,32.9,0,0,1-9.79,8.65q-5.37,3-8.31,3-1.91,0-6.51-3a47.85,47.85,0,0,1-7.74-6.13,1.64,1.64,0,0,1-.57-1.14,1.37,1.37,0,0,1,.57-1,2.82,2.82,0,0,1,1.52-.57,62.92,62.92,0,0,0,13-3.18,52.66,52.66,0,0,0,10.35-4.94c2.82-1.8,4.7-3.5,5.65-5.08q-3.42-8.18-10.64-22.52l8.27-8.83q1.14-1.14,1.8-1.14c.45,0,.92.41,1.43,1.23A52.7,52.7,0,0,1,489.45,557.82Z"/><path class="cls-1" d="M512.87,507.18q1.71,0,1.71,2.28,0,8.84-.57,28.08t-1.81,27.78a92.43,92.43,0,0,1-3.61,11.5,2.72,2.72,0,0,1-.9,1.33,1.94,1.94,0,0,1-1.19.47,1.45,1.45,0,0,1-1.14-.57,3,3,0,0,1-.57-1.71q-.48-7.22-2.18-25.27-2.39-26.31-2.95-34.39l11.5-8.83A2.53,2.53,0,0,1,512.87,507.18Z"/><path class="cls-1" d="M545.12,557.82a62,62,0,0,1,2.14,16.06c0,.88-.07,2.15-.19,3.79A24.64,24.64,0,0,1,542,591a32.75,32.75,0,0,1-9.78,8.65q-5.37,3-8.31,3-1.9,0-6.51-3a47.85,47.85,0,0,1-7.74-6.13,1.64,1.64,0,0,1-.57-1.14,1.37,1.37,0,0,1,.57-1,2.82,2.82,0,0,1,1.52-.57,62.67,62.67,0,0,0,13-3.18,52.49,52.49,0,0,0,10.36-4.94c2.82-1.8,4.7-3.5,5.65-5.08q-3.42-8.18-10.64-22.52l8.27-8.83q1.14-1.14,1.8-1.14c.44,0,.92.41,1.43,1.23Q543,549.84,545.12,557.82ZM529.87,529.7a1.78,1.78,0,0,1,.67-1.14l5.51-5.61c.44-.44.79-.66,1-.66a1.53,1.53,0,0,1,1,.66l5.7,5.61c.5.51.76.89.76,1.14s-.26.63-.76,1.14l-5.51,5.6a1.56,1.56,0,0,1-1,.57,1.58,1.58,0,0,1-1-.57l-5.79-5.6A1.55,1.55,0,0,1,529.87,529.7Z"/><path class="cls-1" d="M577.28,558.77v16.15h-.48q-6.27,0-10-2.38a14.1,14.1,0,0,1-5.52-7,44,44,0,0,1-2.46-11.83l-3.52-37.05,11.5-8.83a3.19,3.19,0,0,1,1.8-.67q1.62,0,1.62,2.28,0,1.71-1.14,22.9l-1,19.09q-.2,4.09,1.56,5.7t6.51,1.62Z"/><path class="cls-1" d="M574.24,588.12a1.85,1.85,0,0,1,.66-1.14l5.51-5.6c.44-.44.79-.67,1.05-.67a1.55,1.55,0,0,1,1,.67l5.7,5.6c.51.51.76.89.76,1.14s-.25.64-.76,1.14l-5.51,5.61a1.15,1.15,0,0,1-2,0l-5.8-5.61A1.57,1.57,0,0,1,574.24,588.12Zm22.89-45.93a58,58,0,0,1,1.42,12.4,32.54,32.54,0,0,1-.47,5.41,18,18,0,0,1-6.32,10.64q-5.09,4.27-14.2,4.28h-1.14V558.77h.38a62.34,62.34,0,0,0,9.45-.62q3.94-.61,5.28-1.76-3.42-6-8.65-14.06l8.27-8.83a2.83,2.83,0,0,1,1.8-1c.51,0,.95.35,1.33,1C595.23,535,596.18,537.85,597.13,542.19Z"/><path class="cls-2" d="M48.26,71V49.14H60.88v1.79H50.25v8.21h9.64v1.79H50.25V71Z"/><path class="cls-2" d="M63.15,71H61.06L69,49.14h2.13L79.07,71H77L70.14,51.72H70Zm1.5-8.36H75.48v1.79H64.65Z"/><path class="cls-2" d="M82.81,71V49.14h7a8.1,8.1,0,0,1,3.88.83,5.66,5.66,0,0,1,2.36,2.31,7,7,0,0,1,.79,3.39A6.89,6.89,0,0,1,96.09,59a5.45,5.45,0,0,1-2.35,2.28,8.17,8.17,0,0,1-3.86.82h-6V60.31h6a6.47,6.47,0,0,0,2.84-.56,3.82,3.82,0,0,0,1.69-1.61,5.2,5.2,0,0,0,.56-2.47,5.33,5.33,0,0,0-.56-2.5,3.9,3.9,0,0,0-1.7-1.66,6.22,6.22,0,0,0-2.86-.58h-5V71Zm9.62-9.84L97.8,71H95.5l-5.32-9.84Z"/><path class="cls-2" d="M101.74,71V49.14h2v10h12.38v-10h2V71h-2v-10H103.73V71Z"/><path class="cls-2" d="M123.93,71h-2.09l7.94-21.81h2.13L139.85,71h-2.09l-6.84-19.23h-.15Zm1.5-8.36h10.83v1.79H125.43Z"/><path class="cls-2" d="M160.58,49.14V71h-1.94L145.75,52.68h-.17V71h-2V49.14h1.93l12.94,18.29h.17V49.14Z"/><path class="cls-2" d="M181.47,56a8,8,0,0,0-.88-2,6.67,6.67,0,0,0-1.42-1.67,6.25,6.25,0,0,0-1.95-1.12,7,7,0,0,0-2.45-.41A6.79,6.79,0,0,0,171,51.82a7.58,7.58,0,0,0-2.66,3.2,11.77,11.77,0,0,0-1,5,11.76,11.76,0,0,0,1,5,7.48,7.48,0,0,0,2.69,3.2,7.43,7.43,0,0,0,7.47.22,6.21,6.21,0,0,0,2.42-2.55,8.21,8.21,0,0,0,.84-4l.64.21h-7V60.39h8.29v1.79A9.71,9.71,0,0,1,182.53,67a7.81,7.81,0,0,1-3.1,3.14A9.11,9.11,0,0,1,166.58,66,13.79,13.79,0,0,1,165.39,60a14.87,14.87,0,0,1,.68-4.63A10.43,10.43,0,0,1,168,51.87a8.42,8.42,0,0,1,3-2.25,9.09,9.09,0,0,1,3.8-.78,9.27,9.27,0,0,1,3.27.56,8.66,8.66,0,0,1,4.49,3.82,8.68,8.68,0,0,1,1,2.73Z"/><path class="cls-2" d="M197.05,71V49.14h12.66v1.79H199.05v8.21h10v1.79h-10v8.23h10.87V71Z"/><path class="cls-2" d="M215.63,54.59l4.22,7,4.22-7h2.21L221,62.77,226.28,71h-2.21l-4.22-6.75L215.63,71h-2.19l5.2-8.18-5.2-8.18Z"/><path class="cls-2" d="M230.26,71V54.59h1.84V57.1h.14a4.11,4.11,0,0,1,1.71-2,5.11,5.11,0,0,1,2.77-.77l.52,0,.48,0v1.93l-.45-.07a4.93,4.93,0,0,0-.69,0,4.71,4.71,0,0,0-2.28.54,4,4,0,0,0-2.14,3.65V71Z"/><path class="cls-2" d="M248.42,54.59v1.65h-7.8V54.59Zm-5.37-3.92H245v16a3.11,3.11,0,0,0,.35,1.6,2,2,0,0,0,.92.83,3.05,3.05,0,0,0,1.2.23,4,4,0,0,0,.64,0l.47-.1.41,1.71a5.37,5.37,0,0,1-.69.2,4.68,4.68,0,0,1-1,.09,4.61,4.61,0,0,1-2-.46,3.79,3.79,0,0,1-2.2-3.61Z"/><path class="cls-2" d="M257.3,71.33a6.36,6.36,0,0,1-2.71-.58,4.71,4.71,0,0,1-2-1.69,4.79,4.79,0,0,1-.72-2.68,4.1,4.1,0,0,1,.46-2,3.63,3.63,0,0,1,1.3-1.37,7.41,7.41,0,0,1,2-.84,20.37,20.37,0,0,1,2.53-.48l2.33-.3A4.17,4.17,0,0,0,262,61a.93.93,0,0,0,.51-.89v-.39a3.54,3.54,0,0,0-1-2.64,4,4,0,0,0-2.86-1,4.9,4.9,0,0,0-2.88.78,4.27,4.27,0,0,0-1.56,1.83l-1.8-.65a5.46,5.46,0,0,1,1.53-2.15,6.2,6.2,0,0,1,2.2-1.16,8.92,8.92,0,0,1,2.46-.35,8.52,8.52,0,0,1,1.95.24,5.56,5.56,0,0,1,1.89.85,4.41,4.41,0,0,1,1.42,1.67,6,6,0,0,1,.54,2.71V71h-1.89V68.36h-.12a5.2,5.2,0,0,1-1,1.41,5.14,5.14,0,0,1-1.69,1.12A5.93,5.93,0,0,1,257.3,71.33Zm.25-1.74a4.91,4.91,0,0,0,2.62-.67,4.59,4.59,0,0,0,1.71-1.79,5,5,0,0,0,.61-2.45V62.31a1.93,1.93,0,0,1-.71.37,10.59,10.59,0,0,1-1.14.28l-1.29.21-1.15.15a10.46,10.46,0,0,0-2.36.53,3.34,3.34,0,0,0-1.5,1,2.49,2.49,0,0,0-.53,1.63,2.76,2.76,0,0,0,1.07,2.31A4.28,4.28,0,0,0,257.55,69.59Z"/><path class="cls-2" d="M278.25,71V49.14h7.36a7.57,7.57,0,0,1,3.56.74,5,5,0,0,1,2.13,2,5.89,5.89,0,0,1,.72,2.93,5.53,5.53,0,0,1-.46,2.33,4,4,0,0,1-1.25,1.56,5.09,5.09,0,0,1-1.76.87v.17a4.1,4.1,0,0,1,2.05.74,5,5,0,0,1,1.63,1.86,6.45,6.45,0,0,1-.1,5.8,5,5,0,0,1-2.25,2A8.71,8.71,0,0,1,286,71Zm2-12h5.54a4.66,4.66,0,0,0,2.26-.53A3.91,3.91,0,0,0,289.57,57a4.23,4.23,0,0,0,.54-2.14A3.77,3.77,0,0,0,289,52a4.65,4.65,0,0,0-3.37-1.09h-5.36Zm0,10.17H286a5.36,5.36,0,0,0,3.73-1.11A3.68,3.68,0,0,0,291,65.23a4.33,4.33,0,0,0-2.29-3.88,5.39,5.39,0,0,0-2.57-.59h-5.85Z"/><path class="cls-2" d="M303.64,71.29a6.64,6.64,0,0,1-3.75-1.07,7.28,7.28,0,0,1-2.54-3,10,10,0,0,1-.91-4.39,10.13,10.13,0,0,1,.91-4.43,7.22,7.22,0,0,1,2.54-3,7.09,7.09,0,0,1,7.49,0,7.32,7.32,0,0,1,2.54,3,10.09,10.09,0,0,1,.92,4.42,9.88,9.88,0,0,1-.92,4.39,7.21,7.21,0,0,1-2.54,3A6.59,6.59,0,0,1,303.64,71.29Zm0-1.73a4.58,4.58,0,0,0,2.89-.92,5.74,5.74,0,0,0,1.79-2.44,8.84,8.84,0,0,0,.61-3.35,8.94,8.94,0,0,0-.61-3.37A5.87,5.87,0,0,0,306.53,57a4.94,4.94,0,0,0-5.77,0,5.8,5.8,0,0,0-1.8,2.46,9,9,0,0,0-.62,3.37A8.84,8.84,0,0,0,299,66.2a5.66,5.66,0,0,0,1.79,2.44A4.58,4.58,0,0,0,303.64,69.56Z"/><path class="cls-2" d="M316.9,49.14V71H315V49.14Z"/><path class="cls-2" d="M327.8,71.29a5.93,5.93,0,0,1-3.52-1.06,7,7,0,0,1-2.36-3,10.81,10.81,0,0,1-.85-4.45,10.69,10.69,0,0,1,.85-4.42,6.83,6.83,0,0,1,2.37-3,6,6,0,0,1,3.54-1.06,5.31,5.31,0,0,1,2.49.52,4.9,4.9,0,0,1,1.58,1.31,7.63,7.63,0,0,1,.93,1.51H333V49.14h1.91V71h-1.86v-3h-.22a7.63,7.63,0,0,1-.94,1.53,4.86,4.86,0,0,1-1.6,1.31A5.21,5.21,0,0,1,327.8,71.29Zm.23-1.73a4.28,4.28,0,0,0,2.7-.87,5.37,5.37,0,0,0,1.71-2.4,9.78,9.78,0,0,0,.59-3.51,9.6,9.6,0,0,0-.58-3.47A5.38,5.38,0,0,0,330.74,57a4.73,4.73,0,0,0-5.48,0,5.45,5.45,0,0,0-1.7,2.4,9.4,9.4,0,0,0-.59,3.4,9.58,9.58,0,0,0,.59,3.44,5.56,5.56,0,0,0,1.71,2.44A4.28,4.28,0,0,0,328,69.56Z"/></g></svg>