<svg xmlns="http://www.w3.org/2000/svg" viewBox="0 0 648 648"><defs><style>.cls-1{fill:#ff5e3f;}</style></defs><g id="Background"><rect class="cls-1" width="648" height="648"/></g><g id="Layer_1" data-name="Layer 1"><path d="M48.63,492.64V423.55h25.3A27.15,27.15,0,0,1,86.11,426a16.78,16.78,0,0,1,7.22,6.51,17.92,17.92,0,0,1,2.4,9.23A15.17,15.17,0,0,1,94.14,449a13,13,0,0,1-4.23,4.72,18.82,18.82,0,0,1-5.82,2.58V457a14,14,0,0,1,6.73,2.21,16.16,16.16,0,0,1,5.45,5.78,18,18,0,0,1,2.15,9.11,18.36,18.36,0,0,1-2.47,9.5,17,17,0,0,1-7.65,6.64q-5.16,2.46-13.19,2.45Zm10.42-39.2H73a14.48,14.48,0,0,0,6.33-1.35,11.09,11.09,0,0,0,4.48-3.8,9.93,9.93,0,0,0,1.67-5.78,9.61,9.61,0,0,0-3-7.19q-3-2.9-9.21-2.9H59.05Zm0,30.26h15q7.49,0,10.73-2.9a9.34,9.34,0,0,0,3.24-7.25,11.31,11.31,0,0,0-1.66-6,11.85,11.85,0,0,0-4.7-4.35,15.26,15.26,0,0,0-7.24-1.62H59.05Z"/><path d="M131.79,493.69a23.85,23.85,0,0,1-12.72-3.34,22.56,22.56,0,0,1-8.43-9.35,34.37,34.37,0,0,1,0-28.13,22.4,22.4,0,0,1,8.43-9.38,25.89,25.89,0,0,1,25.44,0,22.4,22.4,0,0,1,8.43,9.38,34.47,34.47,0,0,1,0,28.13,22.56,22.56,0,0,1-8.43,9.35A23.85,23.85,0,0,1,131.79,493.69Zm0-8.47a12.07,12.07,0,0,0,7.83-2.5,14.71,14.71,0,0,0,4.6-6.64,28.39,28.39,0,0,0,0-18.27,15,15,0,0,0-4.6-6.7,13.44,13.44,0,0,0-15.7,0,14.86,14.86,0,0,0-4.63,6.7,28.57,28.57,0,0,0,0,18.27,14.62,14.62,0,0,0,4.63,6.64A12.16,12.16,0,0,0,131.82,485.22Z"/><path d="M200,471.15V440.82h10.12v51.82H200.2v-9h-.54a16.15,16.15,0,0,1-5.71,6.9,16.65,16.65,0,0,1-9.77,2.74,17.24,17.24,0,0,1-8.82-2.21,15.11,15.11,0,0,1-6-6.56,23.9,23.9,0,0,1-2.17-10.76v-33h10.08v31.75A11.83,11.83,0,0,0,180.2,481a10,10,0,0,0,7.62,3.14,12.38,12.38,0,0,0,5.65-1.42,11.92,11.92,0,0,0,4.69-4.28A12.9,12.9,0,0,0,200,471.15Z"/><path d="M233.74,461.87v30.77H223.65V440.82h9.68v8.44H234a14.87,14.87,0,0,1,5.62-6.62,17.39,17.39,0,0,1,9.67-2.49,18.7,18.7,0,0,1,9.27,2.21,15,15,0,0,1,6.18,6.56,23.79,23.79,0,0,1,2.19,10.76v33H256.81V460.89q0-5.62-2.93-8.82a10.45,10.45,0,0,0-8.07-3.19,12.54,12.54,0,0,0-6.22,1.52,10.73,10.73,0,0,0-4.28,4.44A14.6,14.6,0,0,0,233.74,461.87Z"/><path d="M299.79,493.65a19.89,19.89,0,0,1-11.18-3.22,21.48,21.48,0,0,1-7.69-9.21,33.86,33.86,0,0,1-2.79-14.39A33.42,33.42,0,0,1,281,452.46a21.41,21.41,0,0,1,7.74-9.14,20.13,20.13,0,0,1,11.17-3.17,16.24,16.24,0,0,1,7.77,1.6,14.21,14.21,0,0,1,4.59,3.73,32.2,32.2,0,0,1,2.55,3.74h.61V423.55h10.08v69.09h-9.85v-8.06h-.84a27.65,27.65,0,0,1-2.62,3.78,14.88,14.88,0,0,1-4.67,3.71A16.36,16.36,0,0,1,299.79,493.65Zm2.23-8.6a11.77,11.77,0,0,0,7.37-2.31,14.27,14.27,0,0,0,4.59-6.43,27,27,0,0,0,1.56-9.58,26.22,26.22,0,0,0-1.55-9.45,13.83,13.83,0,0,0-4.55-6.3,13.35,13.35,0,0,0-15,.1,14.22,14.22,0,0,0-4.57,6.44,25.86,25.86,0,0,0-1.54,9.21,26.69,26.69,0,0,0,1.55,9.35,14.75,14.75,0,0,0,4.61,6.56A11.76,11.76,0,0,0,302,485.05Z"/><path d="M349.92,423.55v69.09H339.83V423.55Z"/><path d="M385.82,493.69a25.3,25.3,0,0,1-13.18-3.29,22,22,0,0,1-8.5-9.28,31.14,31.14,0,0,1-3-14.05,31.46,31.46,0,0,1,3-14,22.32,22.32,0,0,1,21-12.88,25.35,25.35,0,0,1,8.5,1.45,20.58,20.58,0,0,1,7.39,4.55,21.42,21.42,0,0,1,5.16,8.05,33.64,33.64,0,0,1,1.89,12v3.58H366.86v-7.56h31.3a15,15,0,0,0-1.62-7.07,12.29,12.29,0,0,0-4.53-4.87,12.87,12.87,0,0,0-6.84-1.79,13.17,13.17,0,0,0-7.4,2.07,14.18,14.18,0,0,0-4.86,5.4,15.65,15.65,0,0,0-1.7,7.2v5.91a19.41,19.41,0,0,0,1.84,8.84,12.93,12.93,0,0,0,5.14,5.55,15.2,15.2,0,0,0,7.73,1.9,15.81,15.81,0,0,0,5.23-.82,11.17,11.17,0,0,0,4.08-2.48,10.85,10.85,0,0,0,2.63-4.09l9.55,1.73a17.33,17.33,0,0,1-4.1,7.37,19.91,19.91,0,0,1-7.39,4.89A27.53,27.53,0,0,1,385.82,493.69Z"/><path d="M458.11,453.47,449,455.09a11,11,0,0,0-1.81-3.34,9.24,9.24,0,0,0-3.32-2.6,12,12,0,0,0-5.23-1,12.66,12.66,0,0,0-7.15,1.91,5.71,5.71,0,0,0-2.87,4.91,5.14,5.14,0,0,0,1.93,4.18,15.59,15.59,0,0,0,6.2,2.6l8.23,1.89q7.16,1.65,10.67,5.09a12,12,0,0,1,3.5,8.94,13.52,13.52,0,0,1-2.68,8.28,17.75,17.75,0,0,1-7.45,5.69,27.78,27.78,0,0,1-11.05,2.06q-8.71,0-14.21-3.73A15.64,15.64,0,0,1,417,479.35l9.75-1.49a9.24,9.24,0,0,0,3.74,5.76,12.85,12.85,0,0,0,7.39,1.94,13.62,13.62,0,0,0,7.93-2.08,6.06,6.06,0,0,0,3-5.08,5.32,5.32,0,0,0-1.81-4.08,12.14,12.14,0,0,0-5.51-2.5l-8.78-1.92q-7.25-1.65-10.71-5.26a12.7,12.7,0,0,1-3.45-9.14,13.05,13.05,0,0,1,2.56-8,16.85,16.85,0,0,1,7.08-5.38,26,26,0,0,1,10.36-1.94q8.4,0,13.23,3.62A17,17,0,0,1,458.11,453.47Z"/><path d="M509,453.47l-9.14,1.62a11.25,11.25,0,0,0-1.81-3.34,9.33,9.33,0,0,0-3.32-2.6,12.07,12.07,0,0,0-5.23-1,12.64,12.64,0,0,0-7.15,1.91A5.71,5.71,0,0,0,479.5,455a5.16,5.16,0,0,0,1.92,4.18,15.58,15.58,0,0,0,6.21,2.6l8.23,1.89q7.15,1.65,10.66,5.09a12,12,0,0,1,3.51,8.94,13.52,13.52,0,0,1-2.68,8.28,17.78,17.78,0,0,1-7.46,5.69,27.71,27.71,0,0,1-11.05,2.06q-8.7,0-14.2-3.73a15.65,15.65,0,0,1-6.75-10.61l9.75-1.49a9.29,9.29,0,0,0,3.75,5.76,12.85,12.85,0,0,0,7.39,1.94,13.66,13.66,0,0,0,7.93-2.08,6.07,6.07,0,0,0,3-5.08,5.31,5.31,0,0,0-1.8-4.08,12.14,12.14,0,0,0-5.52-2.5l-8.77-1.92q-7.24-1.65-10.71-5.26a12.66,12.66,0,0,1-3.46-9.14,13.06,13.06,0,0,1,2.57-8,16.85,16.85,0,0,1,7.08-5.38,25.94,25.94,0,0,1,10.36-1.94q8.4,0,13.22,3.62A17,17,0,0,1,509,453.47Z"/><path d="M48.63,602.64V533.55h25.3A27.15,27.15,0,0,1,86.11,536a16.78,16.78,0,0,1,7.22,6.51,17.92,17.92,0,0,1,2.4,9.23A15.17,15.17,0,0,1,94.14,559a13,13,0,0,1-4.23,4.72,18.82,18.82,0,0,1-5.82,2.58V567a14,14,0,0,1,6.73,2.21,16.16,16.16,0,0,1,5.45,5.78,18,18,0,0,1,2.15,9.11,18.36,18.36,0,0,1-2.47,9.5,17,17,0,0,1-7.65,6.64q-5.16,2.46-13.19,2.45Zm10.42-39.2H73a14.48,14.48,0,0,0,6.33-1.35,11.09,11.09,0,0,0,4.48-3.8,9.93,9.93,0,0,0,1.67-5.78,9.61,9.61,0,0,0-3-7.19q-3-2.9-9.21-2.9H59.05Zm0,30.26h15q7.49,0,10.73-2.9a9.34,9.34,0,0,0,3.24-7.25,11.31,11.31,0,0,0-1.66-6,11.85,11.85,0,0,0-4.7-4.35,15.26,15.26,0,0,0-7.24-1.62H59.05Z"/><path d="M125,603.79a21.13,21.13,0,0,1-8.91-1.84,14.82,14.82,0,0,1-6.29-5.35,15.31,15.31,0,0,1-2.31-8.6,13.9,13.9,0,0,1,1.69-7.22,12.4,12.4,0,0,1,4.55-4.49,23.9,23.9,0,0,1,6.41-2.49,63.72,63.72,0,0,1,7.22-1.29c3.11-.36,5.63-.65,7.56-.89a11.07,11.07,0,0,0,4.22-1.16,2.87,2.87,0,0,0,1.31-2.64v-.23a9.12,9.12,0,0,0-2.48-6.85q-2.47-2.43-7.37-2.43c-3.39,0-6.07.75-8,2.24a12.15,12.15,0,0,0-4,5l-9.48-2.16a18.26,18.26,0,0,1,4.94-7.64,20.19,20.19,0,0,1,7.51-4.25,29.62,29.62,0,0,1,8.94-1.33,32.68,32.68,0,0,1,6.59.72,19.94,19.94,0,0,1,6.55,2.65,14.73,14.73,0,0,1,5,5.48,19.15,19.15,0,0,1,2,9.23v34.41h-9.85v-7.08h-.4a14.27,14.27,0,0,1-2.94,3.84,15.54,15.54,0,0,1-5,3.14A19.57,19.57,0,0,1,125,603.79Zm2.19-8.1A14.61,14.61,0,0,0,134.4,594,11.72,11.72,0,0,0,139,589.7a11.25,11.25,0,0,0,1.57-5.75v-6.68a5.24,5.24,0,0,1-2.08,1A28.67,28.67,0,0,1,135,579c-1.3.22-2.58.41-3.81.58L128,580a23.89,23.89,0,0,0-5.34,1.25,9.13,9.13,0,0,0-3.85,2.51,6.3,6.3,0,0,0-1.43,4.33,6.41,6.41,0,0,0,2.76,5.65A12.11,12.11,0,0,0,127.23,595.69Z"/><path d="M163,602.64v-6.92L191,560.07v-.48H163.87v-8.77h39.74v7.36l-27,35.22v.47h27.94v8.77Z"/><path d="M231.51,603.79A21.13,21.13,0,0,1,222.6,602a14.82,14.82,0,0,1-6.29-5.35A15.31,15.31,0,0,1,214,588a13.9,13.9,0,0,1,1.69-7.22,12.4,12.4,0,0,1,4.55-4.49,23.77,23.77,0,0,1,6.41-2.49,63.72,63.72,0,0,1,7.22-1.29c3.11-.36,5.62-.65,7.56-.89a11.07,11.07,0,0,0,4.22-1.16,2.87,2.87,0,0,0,1.31-2.64v-.23a9.16,9.16,0,0,0-2.48-6.85q-2.47-2.43-7.37-2.43-5.1,0-8,2.24a12.15,12.15,0,0,0-4,5l-9.48-2.16a18.26,18.26,0,0,1,4.94-7.64,20.19,20.19,0,0,1,7.51-4.25,29.62,29.62,0,0,1,8.94-1.33,32.75,32.75,0,0,1,6.59.72,19.94,19.94,0,0,1,6.55,2.65,14.73,14.73,0,0,1,5,5.48,19.15,19.15,0,0,1,1.95,9.23v34.41h-9.85v-7.08h-.4a14.48,14.48,0,0,1-2.94,3.84,15.54,15.54,0,0,1-5,3.14A19.57,19.57,0,0,1,231.51,603.79Zm2.19-8.1a14.61,14.61,0,0,0,7.17-1.65,11.72,11.72,0,0,0,4.56-4.34A11.25,11.25,0,0,0,247,584v-6.68a5.32,5.32,0,0,1-2.08,1,28.67,28.67,0,0,1-3.49.77c-1.31.22-2.58.41-3.81.58l-3.11.42a23.89,23.89,0,0,0-5.34,1.25,9.13,9.13,0,0,0-3.85,2.51,6.3,6.3,0,0,0-1.43,4.33,6.41,6.41,0,0,0,2.76,5.65A12.11,12.11,0,0,0,233.7,595.69Z"/><path d="M285.59,603.79a21.1,21.1,0,0,1-8.91-1.84,14.82,14.82,0,0,1-6.29-5.35,15.31,15.31,0,0,1-2.31-8.6,13.9,13.9,0,0,1,1.69-7.22,12.4,12.4,0,0,1,4.55-4.49,23.77,23.77,0,0,1,6.41-2.49,63.72,63.72,0,0,1,7.22-1.29c3.1-.36,5.62-.65,7.56-.89a11,11,0,0,0,4.21-1.16,2.86,2.86,0,0,0,1.32-2.64v-.23a9.16,9.16,0,0,0-2.48-6.85q-2.47-2.43-7.37-2.43-5.1,0-8,2.24a12.15,12.15,0,0,0-4,5l-9.48-2.16a18.26,18.26,0,0,1,4.94-7.64,20.23,20.23,0,0,1,7.5-4.25,29.72,29.72,0,0,1,8.94-1.33,32.77,32.77,0,0,1,6.6.72,19.8,19.8,0,0,1,6.54,2.65,14.57,14.57,0,0,1,5,5.48,19,19,0,0,1,2,9.23v34.41h-9.85v-7.08h-.41A14.43,14.43,0,0,1,298,599.4a15.48,15.48,0,0,1-5,3.14A19.48,19.48,0,0,1,285.59,603.79Zm2.19-8.1A14.61,14.61,0,0,0,295,594a11.62,11.62,0,0,0,4.55-4.34,11.15,11.15,0,0,0,1.57-5.75v-6.68a5.19,5.19,0,0,1-2.07,1,29.1,29.1,0,0,1-3.49.77c-1.31.22-2.58.41-3.81.58l-3.11.42a24,24,0,0,0-5.35,1.25,9.1,9.1,0,0,0-3.84,2.51,6.31,6.31,0,0,0-1.44,4.33,6.42,6.42,0,0,0,2.77,5.65A12.09,12.09,0,0,0,287.78,595.69Z"/><path d="M324.59,602.64V550.82h9.75v8.23h.54a12.53,12.53,0,0,1,5-6.59,14.24,14.24,0,0,1,8.14-2.41q.95,0,2.25.06c.86,0,1.54.1,2,.17v9.65a21.69,21.69,0,0,0-2.16-.39,23.2,23.2,0,0,0-3.1-.22,13.16,13.16,0,0,0-6.36,1.5,11.51,11.51,0,0,0-4.41,4.15,11.34,11.34,0,0,0-1.62,6v31.64Z"/><path d="M50.25,49.14V71h-2V49.14Z"/><path d="M73,49.14V71H71.1L58.21,52.68H58V71H56V49.14H58L70.91,67.43h.17V49.14Z"/><path d="M77.51,50.93V49.14H93.33v1.79H86.42V71h-2v-20Z"/><path d="M97.81,71V49.14h12.65v1.79H99.8v8.21h10v1.79h-10v8.23h10.88V71Z"/><path d="M115.61,71V49.14h7a8.1,8.1,0,0,1,3.88.83,5.66,5.66,0,0,1,2.36,2.31,7,7,0,0,1,.79,3.39,6.89,6.89,0,0,1-.79,3.36,5.45,5.45,0,0,1-2.35,2.28,8.17,8.17,0,0,1-3.86.82h-6V60.31h5.95a6.47,6.47,0,0,0,2.84-.56,3.82,3.82,0,0,0,1.69-1.61,5.2,5.2,0,0,0,.56-2.47,5.33,5.33,0,0,0-.56-2.5,3.9,3.9,0,0,0-1.7-1.66,6.22,6.22,0,0,0-2.86-.58h-5V71Zm9.62-9.84L130.6,71h-2.3L123,61.11Z"/><path d="M163.26,54.59a4,4,0,0,0-1.61-2.9,5.84,5.84,0,0,0-3.59-1.07,6.41,6.41,0,0,0-2.68.52,4.43,4.43,0,0,0-1.81,1.44,3.51,3.51,0,0,0-.65,2.1,3,3,0,0,0,.37,1.51,3.64,3.64,0,0,0,1,1.11,7.46,7.46,0,0,0,1.41.8,13.83,13.83,0,0,0,1.56.55l2.3.66a16.74,16.74,0,0,1,2.09.73,8.67,8.67,0,0,1,1.91,1.13,5.18,5.18,0,0,1,1.4,1.65,4.87,4.87,0,0,1,.53,2.34,5.68,5.68,0,0,1-.91,3.14,6.17,6.17,0,0,1-2.6,2.21,9.33,9.33,0,0,1-4.06.82,9.44,9.44,0,0,1-3.87-.74,6.29,6.29,0,0,1-2.57-2,5.79,5.79,0,0,1-1.06-3h2.05a3.75,3.75,0,0,0,.85,2.18A4.64,4.64,0,0,0,155.26,69a7.24,7.24,0,0,0,2.66.46,7.4,7.4,0,0,0,2.91-.54,4.87,4.87,0,0,0,2-1.54,3.77,3.77,0,0,0,.73-2.29,2.93,2.93,0,0,0-.58-1.86,4.62,4.62,0,0,0-1.6-1.27,14.47,14.47,0,0,0-2.38-.9l-2.61-.77a9.78,9.78,0,0,1-4-2.12A4.57,4.57,0,0,1,151,54.76a5.21,5.21,0,0,1,.94-3.09,6.23,6.23,0,0,1,2.56-2.09,8.46,8.46,0,0,1,3.62-.75,8.36,8.36,0,0,1,3.6.74,6.24,6.24,0,0,1,2.49,2,5.33,5.33,0,0,1,1,3Z"/><path d="M176.51,71.29a7.13,7.13,0,0,1-4-1.07,6.93,6.93,0,0,1-2.58-3,10,10,0,0,1-.92-4.38,10.15,10.15,0,0,1,.92-4.4,7.26,7.26,0,0,1,2.52-3,6.49,6.49,0,0,1,3.73-1.09,7,7,0,0,1,2.57.48A6.27,6.27,0,0,1,181,56.33a7,7,0,0,1,1.56,2.51,9.8,9.8,0,0,1,.58,3.56v.94H170.37V61.66h10.84a6.3,6.3,0,0,0-.63-2.84,5.08,5.08,0,0,0-1.76-2,4.92,4.92,0,0,0-5.33.09,5.68,5.68,0,0,0-1.85,2.2,6.76,6.76,0,0,0-.68,3v1a8,8,0,0,0,.68,3.41,5.18,5.18,0,0,0,1.92,2.25,5.38,5.38,0,0,0,2.95.8,5.31,5.31,0,0,0,2-.36,4.45,4.45,0,0,0,1.48-1,4.23,4.23,0,0,0,.91-1.35l1.8.59a5.32,5.32,0,0,1-1.21,1.91,6.33,6.33,0,0,1-2.11,1.4A7.55,7.55,0,0,1,176.51,71.29Z"/><path d="M187.31,71V54.59h1.85V57.1h.17a4,4,0,0,1,1.63-2,5,5,0,0,1,2.76-.73,4.58,4.58,0,0,1,2.78.79,4.78,4.78,0,0,1,1.64,2.18h.14a4.6,4.6,0,0,1,1.8-2.17,5.58,5.58,0,0,1,3-.8,4.64,4.64,0,0,1,3.6,1.43A5.93,5.93,0,0,1,208.05,60V71h-1.9V60a3.91,3.91,0,0,0-1-2.91,3.6,3.6,0,0,0-2.61-1,3.68,3.68,0,0,0-2.89,1.15,4.29,4.29,0,0,0-1,2.92V71h-1.94V59.82a3.82,3.82,0,0,0-.93-2.68,3.3,3.3,0,0,0-2.61-1,3.79,3.79,0,0,0-3.44,2.1,4.71,4.71,0,0,0-.52,2.26V71Z"/><path d="M214,51.78a1.42,1.42,0,0,1-1-.4,1.34,1.34,0,0,1,0-1.93,1.38,1.38,0,0,1,1-.4,1.36,1.36,0,0,1,1,.4,1.32,1.32,0,0,1,0,1.93A1.41,1.41,0,0,1,214,51.78Zm-1,19.17V54.59H215V71Z"/><path d="M228.84,71V49.14h7.36a7.6,7.6,0,0,1,3.56.74,5.06,5.06,0,0,1,2.13,2,5.89,5.89,0,0,1,.72,2.93,5.5,5.5,0,0,1-.46,2.33,4,4,0,0,1-1.25,1.56,5.09,5.09,0,0,1-1.76.87v.17a4.1,4.1,0,0,1,2.05.74,5,5,0,0,1,1.63,1.86,6,6,0,0,1,.64,2.85,5.87,5.87,0,0,1-.74,3,5,5,0,0,1-2.25,2,8.71,8.71,0,0,1-3.86.74Zm2-12h5.55a4.66,4.66,0,0,0,2.26-.53A3.88,3.88,0,0,0,240.15,57a4.13,4.13,0,0,0,.55-2.14A3.77,3.77,0,0,0,239.57,52a4.66,4.66,0,0,0-3.37-1.09h-5.37Zm0,10.17h5.78a5.36,5.36,0,0,0,3.73-1.11,3.68,3.68,0,0,0,1.21-2.82A4.37,4.37,0,0,0,241,63a4.26,4.26,0,0,0-1.7-1.61,5.21,5.21,0,0,0-2.56-.6h-5.86Z"/><path d="M254.23,71.29a6.62,6.62,0,0,1-3.75-1.07,7.28,7.28,0,0,1-2.54-3,10,10,0,0,1-.91-4.39,10.13,10.13,0,0,1,.91-4.43,7.22,7.22,0,0,1,2.54-3,7.09,7.09,0,0,1,7.49,0,7.32,7.32,0,0,1,2.54,3,11,11,0,0,1,0,8.81,7.21,7.21,0,0,1-2.54,3A6.59,6.59,0,0,1,254.23,71.29Zm0-1.73a4.58,4.58,0,0,0,2.89-.92,5.74,5.74,0,0,0,1.79-2.44,8.84,8.84,0,0,0,.61-3.35,8.94,8.94,0,0,0-.61-3.37A5.87,5.87,0,0,0,257.12,57a4.94,4.94,0,0,0-5.77,0,5.72,5.72,0,0,0-1.8,2.46,9,9,0,0,0-.62,3.37,8.84,8.84,0,0,0,.62,3.35,5.66,5.66,0,0,0,1.79,2.44A4.58,4.58,0,0,0,254.23,69.56Z"/><path d="M267.49,49.14V71h-1.9V49.14Z"/><path d="M278.39,71.29a6,6,0,0,1-3.53-1.06,7,7,0,0,1-2.36-3,11,11,0,0,1-.84-4.45,10.86,10.86,0,0,1,.84-4.42,7,7,0,0,1,2.37-3,6,6,0,0,1,3.55-1.06,5.24,5.24,0,0,1,2.48.52,5,5,0,0,1,1.59,1.31,7.63,7.63,0,0,1,.93,1.51h.17V49.14h1.91V71h-1.86v-3h-.22a8.12,8.12,0,0,1-.94,1.53,4.86,4.86,0,0,1-1.6,1.31A5.21,5.21,0,0,1,278.39,71.29Zm.22-1.73a4.29,4.29,0,0,0,2.71-.87,5.53,5.53,0,0,0,1.71-2.4,9.78,9.78,0,0,0,.59-3.51,9.6,9.6,0,0,0-.59-3.47,5.28,5.28,0,0,0-1.7-2.36,4.73,4.73,0,0,0-5.48,0,5.54,5.54,0,0,0-1.71,2.4,10.29,10.29,0,0,0,0,6.84,5.56,5.56,0,0,0,1.71,2.44A4.27,4.27,0,0,0,278.61,69.56Z"/></g></svg>