<svg xmlns="http://www.w3.org/2000/svg" viewBox="0 0 648 648"><defs><style>.cls-1{fill:#991329;}.cls-2{fill:#c6a44f;}.cls-3{fill:#337211;}.cls-4{fill:#1c2575;}.cls-5{fill:#ff7854;}</style></defs><g id="Layer_1" data-name="Layer 1"><path class="cls-1" d="M62.24,329.14a3,3,0,0,1-2.4-1.38,7.48,7.48,0,0,1-1.26-3.89q-.91-13-3.55-36.15t-3.54-30.89q-3.21-25.39-5.27-45.07-.67-5.26,4.69-17.39a115.9,115.9,0,0,1,13.28-22.66q7.89-10.52,14.52-12.58a9.79,9.79,0,0,1,3.44-.69,6.42,6.42,0,0,1,4.34,1.6,72.56,72.56,0,0,1,18.42-24.48q11.32-9.6,24.14-9.61a29.68,29.68,0,0,1,4.35.23q18.07,2.52,25.86,16T167,175.6c0,2.14-.16,5.35-.46,9.61q-3.21,38.91-22,45.77a41.55,41.55,0,0,1-14.41,2.28q-11.44,0-24.94-5a131.76,131.76,0,0,1-27.69-14.64c.31,2.59.57,5.3.8,8.12s.57,5.76,1,8.81q1.6,15.33,2.86,29.17t1.26,23a89.36,89.36,0,0,1-1.14,14.64q-.69,4.13-5.5,12.93T68.19,325C66.21,327.76,64.22,329.14,62.24,329.14Zm83.29-155a29.2,29.2,0,0,0-9.27-7.67,27,27,0,0,0-13.16-3.2,22,22,0,0,0-9.26,1.94,14.67,14.67,0,0,0-6.52,5.61,77.28,77.28,0,0,0,17.5,9.15,50.78,50.78,0,0,0,17.73,3.66,23.11,23.11,0,0,0,7.33-1.14A22.71,22.71,0,0,0,145.53,174.12Z"/><path class="cls-2" d="M318.28,180.41V233h-1.83q-24.26,0-33.64-21.51A97.62,97.62,0,0,1,261.42,232a105.53,105.53,0,0,1-24.83,13.27q-12.34,4.46-20.59,3.77-5-.45-14.87-11a163.84,163.84,0,0,1-16.71-20.82,10,10,0,0,1-1.83-4.81c0-2.29,2-3.5,5.95-3.66q30.21-2.75,47.59-8.92-3.19-14.42-15.55-28.49t-36.39-35.12l19-35.47q2.06-3.89,4.57-3.89c1.53,0,3,1.15,4.35,3.43.46.77,1,1.69,1.6,2.75s1.29,2.29,2.06,3.66Q230.88,132.36,240,150t10.53,27.68a66.62,66.62,0,0,1,.69,8.93,31.32,31.32,0,0,1-.69,6.63q19.68-11.67,19.68-32.95a42.56,42.56,0,0,0-.46-7.09q-2.06-14.42-3.89-24.25-3-15.8-5.49-33.18L292.88,71a6.07,6.07,0,0,1,4.12-1.6,3.44,3.44,0,0,1,2.74,1.37,5.5,5.5,0,0,1,1.15,3.66q0,20.37-2.75,81.69-.22,13,3.55,18.64t15.44,5.61Z"/><path class="cls-3" d="M470.89,146.09a119,119,0,0,1,4.58,33.4,95.92,95.92,0,0,1-2.06,21,42.87,42.87,0,0,1-13,23.23Q450.31,233,435.2,233h-.91a25.85,25.85,0,0,1-15.79-5.27q-7.1-5.25-9.84-16.24-3.21,11-11,16.24T382.35,233h-.46a37.64,37.64,0,0,1-19.34-5.38q-8.35-5.15-11.55-16.13a31.49,31.49,0,0,1-13.73,15.9A37.84,37.84,0,0,1,318.05,233h-1.83V180.41h1.83q12.12,0,18-2.52a16.7,16.7,0,0,0,8.35-7q2.52-4.46,7.78-17.5,2.52-6.18,7.78-6.18a7.25,7.25,0,0,1,5.26,2.29,8,8,0,0,1,2.29,5.95,12.22,12.22,0,0,1-.23,2.74,37.86,37.86,0,0,0-1.14,9.16q0,7.32,4,10.18t12.25,2.86q7.54,0,11.21-2.4a12.24,12.24,0,0,0,5-6.64,162.41,162.41,0,0,0,3.66-15.9,10.83,10.83,0,0,1,3.09-5.61,7.21,7.21,0,0,1,4.92-1.94,7.57,7.57,0,0,1,5.61,2.51A8.84,8.84,0,0,1,418,157.3q-.46,13.27,3.2,18.19t13.27,4.92h.69a31.25,31.25,0,0,0,11.33-1.83,15.79,15.79,0,0,0,7-4.81q-3.21-6.86-19.22-31.11l20.82-19c1.67-1.52,3.05-2.28,4.12-2.28s2.06.76,3,2.28Q466.33,130.31,470.89,146.09Z"/><path class="cls-4" d="M546.63,180.41V233h-1.14q-22.65,0-34.32-12.93T497.44,182q-3-35-8.24-86.26L521.46,71a6.09,6.09,0,0,1,4.12-1.6,3.52,3.52,0,0,1,3,1.6,7.35,7.35,0,0,1,1.14,4.34l-.46,24.94-1.6,62.47q-.23,10.07,3.32,13.84t13.16,3.78Z"/><path class="cls-5" d="M537.48,263.24c0-.92.61-2,1.83-3.2L554,245.16c1.22-1.22,2.14-1.83,2.75-1.83.92,0,1.83.61,2.75,1.83L574.55,260q1.83,1.59,1.83,3c0,.92-.61,2-1.83,3.2L559.9,280.86c-1.07,1.06-1.91,1.6-2.51,1.6s-1.38-.54-2.75-1.6l-15.33-14.65Q537.48,264.38,537.48,263.24Zm59.38-120.36a118.15,118.15,0,0,1,4.92,33.87,86.05,86.05,0,0,1-2.29,20.36Q590.79,233,547.32,233h-2.75V180.41h.92a125.78,125.78,0,0,0,20.48-1.6q9.72-1.6,12.92-4.12-9.15-13.5-24-31.58L580,119.54q3-2.51,4.35-2.51c1.22,0,2.28.84,3.2,2.51Q591.94,126.41,596.86,142.88Z"/><path class="cls-5" d="M54,504.24V490.92c0-5,2.67-7.7,7.7-7.7H78c5,0,7.69,2.66,7.69,7.7V509c0,13.91,4.74,20.43,16.58,20.43,12.14,0,16.87-6.52,16.87-20.43v-4.44c0-9.77-2.37-17.46-8.58-24.27-6.22-7.1-9.47-9.77-19-16.58-9.47-7.1-12.72-9.47-20.72-18.05-10.95-11.84-16-24.87-16.87-48.84v-.6c0-34,16.58-50.91,49.73-50.91,32.86,0,49.43,18.35,49.43,54.76v8c0,5-2.66,7.7-7.69,7.7H129.2c-5,0-7.7-2.66-7.7-7.7V395.31c0-13.92-4.74-20.43-16.58-20.43-12.13,0-16.87,6.51-16.87,20.43v1.77a36,36,0,0,0,4.44,17.76,56.22,56.22,0,0,0,8.88,12.43c3.26,2.67,8,6.52,14.21,11,9.47,7.1,12.73,9.47,20.72,18A62.34,62.34,0,0,1,145.18,469c4.44,8,8,21.31,8,35.82v3.55q0,50.61-49.73,50.62C70.59,559,54,540.64,54,504.24Z"/><path class="cls-4" d="M168,519v-2.37c0-15.39,4.14-26.94,13.62-34.93s14.2-10.06,26.34-15.69c5.33-2.37,9.18-4.14,11.84-5.62,5-2.67,10.95-8.59,10.95-14.8v-1.78c0-12.73-5-19.24-15.39-19.24s-15.69,6.51-15.69,19.24v3.55c0,5-2.66,7.7-7.69,7.7H179.22c-5,0-7.7-2.66-7.7-8,0-32,15.1-48,45-48,29.61,0,44.41,16.28,44.41,48.55v58q0,29.29,1.77,41.73c.89,5.63-1.18,8.29-6.81,8.29H242.27c-5,0-7.7-2.07-8.59-6.51a69.45,69.45,0,0,1-1.77-12.14c-4.74,13-16,21.91-31.08,21.91Q168,559,168,519Zm62.75-6.52V480.26l-6.81,3.26c-8.28,3.84-11.84,5.62-17.76,10.36s-8.28,11.24-8.28,19.83v2.07c0,13.32,5,17.76,14.8,17.76C223.32,533.54,230.72,524.36,230.72,512.52Z"/><path class="cls-3" d="M313.9,548c0,5-2.67,7.7-7.7,7.7H291.4c-5,0-7.7-2.66-7.7-7.7V356.23c0-5,2.67-7.69,7.7-7.69h14.8c5,0,7.7,2.66,7.7,7.69Z"/><path class="cls-2" d="M333.13,519v-2.37c0-15.39,4.15-26.94,13.62-34.93s14.21-10.06,26.34-15.69c5.33-2.37,9.18-4.14,11.84-5.62,5-2.67,11-8.59,11-14.8v-1.78c0-12.73-5-19.24-15.4-19.24s-15.69,6.51-15.69,19.24v3.55c0,5-2.66,7.7-7.69,7.7H344.38c-5,0-7.7-2.66-7.7-8,0-32,15.1-48,45-48,29.6,0,44.4,16.28,44.4,48.55v58q0,29.29,1.77,41.73c.89,5.63-1.18,8.29-6.8,8.29H407.43c-5,0-7.7-2.07-8.58-6.51a70.36,70.36,0,0,1-1.78-12.14c-4.74,13-16,21.91-31.08,21.91Q333.13,559,333.13,519Zm62.76-6.52V480.26l-6.81,3.26c-8.29,3.84-11.84,5.62-17.76,10.36S363,505.12,363,513.71v2.07c0,13.32,5,17.76,14.8,17.76C388.49,533.54,395.89,524.36,395.89,512.52Z"/><path class="cls-1" d="M456.56,555.74c-5,0-7.69-2.66-7.69-7.7V410.11c0-5,2.66-7.7,7.69-7.7h12.73c5,0,7.7,2.66,7.7,7.7v12.72c3.84-13.91,15.39-23.68,31.08-23.68s25.45,7.4,29.3,22.5c4.74-13.32,16-22.5,31.38-22.5q32,0,32,42.63V548c0,5-2.67,7.7-7.7,7.7h-14.8c-5,0-7.7-2.66-7.7-7.7V443.85c0-14.21-4.14-18.94-13.91-18.94-10.36,0-16.87,8.88-16.87,21V548c0,5-2.66,7.7-7.7,7.7h-14.5c-5,0-7.7-2.66-7.7-7.7V443.85c0-14.21-4.14-18.94-13.91-18.94-10.36,0-16.87,8.88-16.87,21V548c0,5-2.66,7.7-7.7,7.7Z"/></g></svg>