<svg xmlns="http://www.w3.org/2000/svg" viewBox="0 0 648 648"><defs><style>.cls-1{fill:#ff5c35;}.cls-2{fill:#fff;}</style></defs><g id="Layer_1" data-name="Layer 1"><g id="Layer_1-2" data-name="Layer 1"><rect class="cls-1" x="74.29" y="96.92" width="499.41" height="178.36" rx="35.67"/><path class="cls-2" d="M202.54,187.52v16.41h-.71a4.83,4.83,0,0,1-2.72-.85,23.82,23.82,0,0,1-3.42,11,20.54,20.54,0,0,1-8.28,7.78,25,25,0,0,1-12.34,2.93q-7,0-11.49-3.14a18.08,18.08,0,0,1-6.49-8.14A28.79,28.79,0,0,1,155,202.43a37.1,37.1,0,0,1,3-14.62,3.12,3.12,0,0,1,1.08-1.43,2.45,2.45,0,0,1,1.42-.5,2.21,2.21,0,0,1,1.64.72,2.45,2.45,0,0,1,.71,1.85,3.59,3.59,0,0,1-.14.86,46.11,46.11,0,0,0-1.42,9.2q0,4.71,3.07,7.13t10.77,2.43a35.18,35.18,0,0,0,7.71-.86,22.93,22.93,0,0,0,6.56-2.28,6.89,6.89,0,0,0,3.5-3.21A134.43,134.43,0,0,0,184.2,186l7.85-7.35a2.73,2.73,0,0,1,1.36-.79c.39,0,.72.26,1,.79a18.89,18.89,0,0,1,1.28,2.64c.9,2,1.55,3.42,1.93,4.13a4.91,4.91,0,0,0,1.57,1.57,6.19,6.19,0,0,0,2.78.5ZM171,178.75a1.62,1.62,0,0,1-.57-.93,1.64,1.64,0,0,1,.57-1l4.58-4.64c.38-.38.66-.57.86-.57a1.15,1.15,0,0,1,.85.57l4.71,4.64a1.34,1.34,0,0,1,.57.93,1.64,1.64,0,0,1-.57,1l-4.56,4.56c-.34.34-.6.5-.79.5a1.87,1.87,0,0,1-.86-.5Zm45.85-10.2a30.73,30.73,0,0,1,2.86,7.27,36.3,36.3,0,0,1,1.57,10.56,27.66,27.66,0,0,1-.71,6.35,17.05,17.05,0,0,1-2.64,5.78,12.52,12.52,0,0,1-5.58,3.92,29.43,29.43,0,0,1-10.41,1.5h-.22l-.07-16.41h.28a58.62,58.62,0,0,0,7.5-.42c2.14-.34,3.54-.79,4.2-1.36q-1.83-2.93-6.13-8.63l-.86-1.22,7.85-7.34a2.73,2.73,0,0,1,1.36-.79C216.23,167.76,216.56,168,216.85,168.55Zm5.64-9.56c.38.33.57.61.57.85a1.62,1.62,0,0,1-.57.93L218.41,165a1.15,1.15,0,0,1-.71.43,2,2,0,0,1-.78-.43l-4.36-4.21-.28-.36-.36.36L207.86,165a1.2,1.2,0,0,1-.72.43,2,2,0,0,1-.78-.43L202,160.77a1.34,1.34,0,0,1-.5-.86,1.39,1.39,0,0,1,.5-.92l4.13-4.14c.39-.38.65-.57.79-.57a1.34,1.34,0,0,1,.78.57l4.21,4.14.36.35.28-.35,4.14-4.14c.39-.38.64-.57.79-.57a1.31,1.31,0,0,1,.78.57Zm23.75,28.53v16.41h-.35q-7,0-10.7-4T230.91,188q-.93-10.91-2.57-26.89l10.06-7.71a1.91,1.91,0,0,1,1.28-.5,1.1,1.1,0,0,1,.93.5,2.25,2.25,0,0,1,.36,1.36l-.15,7.77-.5,19.48c0,2.09.29,3.54,1,4.35s2.14,1.14,4.14,1.14Zm12.79-19a30.11,30.11,0,0,1,2.85,7.27,36,36,0,0,1,1.58,10.56,27.13,27.13,0,0,1-.72,6.35q-2.7,11.2-16.26,11.2h-.86V187.52h.29a38.65,38.65,0,0,0,6.35-.5,9.76,9.76,0,0,0,4.06-1.28q-2.85-4.22-7.49-9.85l7.85-7.34a2.66,2.66,0,0,1,1.35-.79c.38,0,.71.24,1,.79Zm-15,45.73a1.09,1.09,0,0,1-.44-1.49,1,1,0,0,1,.44-.44l4.57-4.64c.38-.38.66-.57.85-.57a1.2,1.2,0,0,1,.86.57l4.71,4.64a1.34,1.34,0,0,1,.57.93,1.64,1.64,0,0,1-.57,1l-4.57,4.56c-.33.34-.59.5-.78.5a1.92,1.92,0,0,1-.86-.5Zm83-26.76V203.9h-.71a4.76,4.76,0,0,1-2.71-.85,24.19,24.19,0,0,1-3.43,11,20.71,20.71,0,0,1-8.27,7.78,25.05,25.05,0,0,1-12.34,2.93c-4.67,0-8.49-1-11.49-3.14a18,18,0,0,1-6.49-8.14,28.48,28.48,0,0,1-2.07-11.06,36.54,36.54,0,0,1,2.92-14.62,3.16,3.16,0,0,1,1.07-1.43,2.53,2.53,0,0,1,1.43-.5,2.24,2.24,0,0,1,1.64.72,2.49,2.49,0,0,1,.71,1.85,4.17,4.17,0,0,1-.14.86,44.71,44.71,0,0,0-1.42,9.2q0,4.71,3.06,7.13t10.78,2.43a35,35,0,0,0,7.7-.86,23,23,0,0,0,6.57-2.28,6.91,6.91,0,0,0,3.49-3.21A134.16,134.16,0,0,0,308.65,186l7.85-7.35a2.66,2.66,0,0,1,1.35-.79c.38,0,.72.26,1,.79a20.07,20.07,0,0,1,1.28,2.64c.9,2,1.55,3.42,1.93,4.13a4.81,4.81,0,0,0,1.57,1.57,6.14,6.14,0,0,0,2.78.5Zm-31.53-8.77a1.52,1.52,0,0,1-.57-.93,1.55,1.55,0,0,1,.57-1l4.57-4.64c.38-.38.66-.57.85-.57a1.2,1.2,0,0,1,.86.57l4.71,4.64a1.34,1.34,0,0,1,.57.93,1.64,1.64,0,0,1-.57,1l-4.58,4.56c-.32.34-.58.5-.78.5a1.94,1.94,0,0,1-.85-.5Zm55.4,8.77V203.9h-.36a12.1,12.1,0,0,1-5.85-1.35,10.48,10.48,0,0,1-4.13-5,9.45,9.45,0,0,1-4.5,4.5c-2.24,1.23-5.46,1.84-9.63,1.85h-.3V187.52h.3a58.49,58.49,0,0,0,6.48-.35,14.22,14.22,0,0,0,4.71-1.29c-.38-1.71-.76-3.77-1.14-6.2l5.14-4.36a.88.88,0,0,1,.65-.28c.28,0,.47.21.57.64l1.07,7.21a5.48,5.48,0,0,0,1.71,3.63c.85.67,2.5,1,4.92,1ZM347,165.41c.38.33.58.62.58.85a1.58,1.58,0,0,1-.58.93l-4.07,4.21a1.1,1.1,0,0,1-.71.43,1.81,1.81,0,0,1-.79-.43l-4.35-4.21-.28-.36-.36.36-4.07,4.21a1.1,1.1,0,0,1-.71.43,1.81,1.81,0,0,1-.79-.43l-4.35-4.21a1.43,1.43,0,0,1-.5-.86,1.48,1.48,0,0,1,.5-.92l4.14-4.14q.58-.57.78-.57c.24,0,.5.19.8.57l4.2,4.14.36.35.28-.35,4.14-4.14c.38-.38.65-.57.78-.57s.5.19.8.57Zm27.1,5.2q5.85.79,8.43,5.21a20.63,20.63,0,0,1,2.64,10.7,24,24,0,0,1-.07,2.5,24.67,24.67,0,0,1-2.5,9.49,9.53,9.53,0,0,1-5,4.78,13.65,13.65,0,0,1-4.43.71,19.88,19.88,0,0,1-7.27-1.49,25.85,25.85,0,0,1-6.92-4.36,13.5,13.5,0,0,1-4.14,4.43,8.12,8.12,0,0,1-4.15,1.35h-.5V187.52h1.15a9.51,9.51,0,0,0,5.07-1.07,11.15,11.15,0,0,0,3.14-4.06A33,33,0,0,1,365.6,174a10.59,10.59,0,0,1,7.43-3.43,6.27,6.27,0,0,1,1.06,0ZM366,184.53a13.28,13.28,0,0,0,4.93,3.14,16.46,16.46,0,0,0,5.56,1,9.68,9.68,0,0,0,3.42-.49,6.17,6.17,0,0,0-1.57-2.57,10,10,0,0,0-3.21-2.43,9,9,0,0,0-4.2-1,6.84,6.84,0,0,0-2.93.64A4.49,4.49,0,0,0,366,184.53Z"/><path class="cls-2" d="M529.11,172.72a20.52,20.52,0,0,0-2.21-8.92l-11.6-20.06a4.7,4.7,0,0,0-4-2.23H457.77a4.7,4.7,0,0,0-4,2.23l-11.6,20.06a20.54,20.54,0,0,0-2.23,8.92,16.76,16.76,0,0,0,8.92,15.16v29.88c0,7.13,5.35,12.93,12.49,12.93h46.37a12.77,12.77,0,0,0,12.49-12.49V188.33A18,18,0,0,0,529.11,172.72Zm-49,49.05V208.39A4.46,4.46,0,1,1,489,208a2.94,2.94,0,0,1,0,.42v13.38Zm31.21-3.57a3.28,3.28,0,0,1-3,3.57,2.91,2.91,0,0,1-.59,0H497.9V208.39a13.38,13.38,0,1,0-26.75-.73v14.11h-9.81a3.53,3.53,0,0,1-3.57-3.47V190.56a16.68,16.68,0,0,0,13.38-6.25,18.19,18.19,0,0,0,13.37,6.25,16.68,16.68,0,0,0,13.38-6.25,18.22,18.22,0,0,0,13.38,6.25Zm0-36.56a9,9,0,0,1-8.92-8.92,4.46,4.46,0,1,0-8.92,0h0a8.92,8.92,0,0,1-17.83.6v-.6a4.46,4.46,0,1,0-8.92,0h0a8.92,8.92,0,0,1-17.84,0,7.63,7.63,0,0,1,1.34-4.46l10.26-17.84H508.6l10.26,17.84a7.56,7.56,0,0,1,1.35,4.46,9,9,0,0,1-8.93,8.92Z"/><rect class="cls-1" x="74.29" y="372.72" width="499.41" height="178.36" rx="35.67"/><path class="cls-2" d="M135.91,490.89a2,2,0,0,0,2.23,2.23h12.75c4.1,0,7.4-.81,9.81-2.5s3.66-5.08,3.66-10V471q0-7.75-4.82-9.9c2.76-1.34,4.19-4.73,4.19-10v-8.2c0-4.91-1.16-8.21-3.48-9.81s-5.44-2.41-9.45-2.41H138.14a2,2,0,0,0-2.23,2.23Zm12.48-49.32h1.7c1.16,0,1.69.62,1.69,1.87v9.81c0,1.25-.53,1.88-1.69,1.88h-1.7Zm1.7,24.44c1.16,0,1.69.62,1.69,1.78v12.4c0,1.33-.53,2.05-1.69,2.05h-1.7V466Zm24.4,28.09a6.89,6.89,0,0,0,7-4.91,19.47,19.47,0,0,0,.35,2.14,2.25,2.25,0,0,0,2.5,1.79h6c1.7,0,2.32-.81,2.06-2.41a64.43,64.43,0,0,1-.45-8.56v-35a2,2,0,0,0-1.73-2.23,2.09,2.09,0,0,0-.5,0H183.3a2,2,0,0,0-2.28,1.67,2.18,2.18,0,0,0,0,.51V483c0,1.16-.53,1.78-1.69,1.78s-1.61-.62-1.61-1.78V447.1a2,2,0,0,0-1.73-2.23,2.09,2.09,0,0,0-.5,0h-6.42a2,2,0,0,0-2.22,1.74,1.35,1.35,0,0,0,0,.49v36.83c0,6.78,2.58,10.17,7.66,10.17Zm30.71-.45a29.64,29.64,0,0,0,4-.27,2,2,0,0,0,1.8-2.18.51.51,0,0,0,0-.13v-4.73a2,2,0,0,0-1.73-2.23,2.09,2.09,0,0,0-.5,0h-.09c-1.16,0-1.69-.62-1.69-1.78V454.14h1.78a1.94,1.94,0,0,0,2.23-1.6,1.62,1.62,0,0,0,0-.62V447.1a2,2,0,0,0-1.73-2.23,2.09,2.09,0,0,0-.5,0H207v-6.6a2,2,0,0,0-1.73-2.23,2.09,2.09,0,0,0-.5,0h-6.42a2,2,0,0,0-2.22,1.74,1.35,1.35,0,0,0,0,.49v6.6h-.28a2,2,0,0,0-2.22,1.74,1.35,1.35,0,0,0,0,.49v4.82a1.94,1.94,0,0,0,1.61,2.22,2.08,2.08,0,0,0,.61,0h.28V484.2c0,6.8,2.65,9.45,9.07,9.45Zm17.68,0a29.64,29.64,0,0,0,4-.27,2,2,0,0,0,1.8-2.18.51.51,0,0,0,0-.13v-4.73a2,2,0,0,0-1.73-2.23,2.09,2.09,0,0,0-.5,0h-.09c-1.16,0-1.69-.62-1.69-1.78V454.14h1.78a1.94,1.94,0,0,0,2.23-1.6,1.62,1.62,0,0,0,0-.62V447.1a2,2,0,0,0-1.73-2.23,2.09,2.09,0,0,0-.5,0h-1.78v-6.6a2,2,0,0,0-1.73-2.23,2.09,2.09,0,0,0-.5,0H216a2,2,0,0,0-2.23,2.23v6.6h-.27a2,2,0,0,0-2.23,2.23v4.82a2,2,0,0,0,1.62,2.22,2.08,2.08,0,0,0,.61,0h.27V484.2c0,6.8,2.69,9.45,9.11,9.45Zm32.31-36.92c0-8.47-4.19-12.75-12.49-12.75s-12.57,4.28-12.57,12.75v24.53q0,12.84,12.57,12.84c8.3,0,12.49-4.28,12.49-12.84ZM244.31,483c0,1.16-.54,1.78-1.61,1.78A1.6,1.6,0,0,1,241,483V455c0-1.16.53-1.7,1.69-1.7s1.61.54,1.61,1.7ZM269,455a1.48,1.48,0,0,1,1.23-1.7,1.29,1.29,0,0,1,.48,0c1.07,0,1.6.54,1.6,1.7v35.85a2,2,0,0,0,1.73,2.23,2.09,2.09,0,0,0,.5,0H281a2,2,0,0,0,2.23-2.23V454.14c0-6.77-2.58-10.16-7.67-10.16-3.74,0-6.15,1.87-7.22,5.71V447.1a2,2,0,0,0-2.23-2.23h-5.71a2,2,0,0,0-2.23,1.74,1.35,1.35,0,0,0,0,.49v43.79a2,2,0,0,0,1.73,2.23,2.09,2.09,0,0,0,.5,0h6.42a2,2,0,0,0,2.23-2.23Zm32.34-24.35a2,2,0,0,0-2.23,2.23v6.42a2,2,0,0,0,2.23,2.23h4.37v49.32a2,2,0,0,0,2.23,2.23h8a2,2,0,0,0,2.24-2.23V441.57h4.37a2,2,0,0,0,2.23-2.23v-6.42a2,2,0,0,0-2.23-2.23Zm34.75,63.41q12,0,12-12.84v-4.11a2,2,0,0,0-1.74-2.23,1.93,1.93,0,0,0-.48,0h-5.62a2,2,0,0,0-2.23,2.23V483c0,1.16-.54,1.78-1.61,1.78a1.57,1.57,0,0,1-1.69-1.78V472h11.15a2,2,0,0,0,2.23-1.61,1.84,1.84,0,0,0,0-.62v-13c0-8.47-4-12.75-12-12.75s-12.22,4.28-12.22,12.75V481.3c0,8.52,4.07,12.8,12.19,12.8ZM334.72,455c0-1.16.53-1.7,1.69-1.7s1.61.54,1.61,1.7v8.56h-3.3Zm22.81,38.08a2.16,2.16,0,0,0,2.4-1.91.66.66,0,0,0,0-.14l.71-4.37q.56-3.09,1.34-11c.27,3.47.62,7.13,1.25,11L364,491a2.17,2.17,0,0,0,2.28,2.06h6.91c1.69,0,2.32-.81,2-2.41l-4.91-22.83,4.55-20.51c.36-1.7-.27-2.5-2-2.5h-5.62a2.16,2.16,0,0,0-2.39,1.91c0,.05,0,.09,0,.14l-.35,2.23a114.06,114.06,0,0,0-1.34,11.5l-1.34-11.5-.35-2.23a2.16,2.16,0,0,0-2.27-2.06h-6.83c-1.7,0-2.32.8-2,2.5l4.55,20.51-5,22.83c-.36,1.6.27,2.41,2,2.41Zm29.87.53a29.64,29.64,0,0,0,4-.27,2,2,0,0,0,1.8-2.18.51.51,0,0,0,0-.13V486.3a2,2,0,0,0-1.73-2.23,2.09,2.09,0,0,0-.5,0h-.08c-1.16,0-1.7-.62-1.7-1.78V454.14H391a1.94,1.94,0,0,0,2.23-1.6,1.84,1.84,0,0,0,0-.62V447.1a2,2,0,0,0-1.74-2.23,2.09,2.09,0,0,0-.5,0h-1.78v-6.6a2,2,0,0,0-1.69-2.26,1.88,1.88,0,0,0-.53,0h-6.42a2,2,0,0,0-2.23,2.23v6.6H378a2,2,0,0,0-2.23,2.23v4.82a2,2,0,0,0,1.76,2.22,1.85,1.85,0,0,0,.47,0h.27v30.1c0,6.8,2.73,9.45,9.13,9.45Z"/><path class="cls-2" d="M529.11,448.53a20.52,20.52,0,0,0-2.21-8.92l-11.6-20.07a4.71,4.71,0,0,0-4-2.23H457.77a4.71,4.71,0,0,0-4,2.23l-11.6,20.07a20.5,20.5,0,0,0-2.23,8.92,16.78,16.78,0,0,0,8.92,15.16v29.87c0,7.14,5.35,12.93,12.49,12.93h46.37A12.77,12.77,0,0,0,520.21,494V464.13A18,18,0,0,0,529.11,448.53Zm-49,49.05V484.2a4.46,4.46,0,1,1,8.91-.42,2.94,2.94,0,0,1,0,.42v13.38ZM511.28,494a3.28,3.28,0,0,1-3,3.57,2.91,2.91,0,0,1-.59,0H497.9V484.2a13.38,13.38,0,1,0-26.75-.73v14.11h-9.81a3.53,3.53,0,0,1-3.57-3.47V466.36a16.72,16.72,0,0,0,13.38-6.24,18.17,18.17,0,0,0,13.37,6.24,16.7,16.7,0,0,0,13.38-6.24,18.17,18.17,0,0,0,13.38,6.24Zm0-36.57a9,9,0,0,1-8.92-8.91,4.46,4.46,0,0,0-8.92,0,8.92,8.92,0,0,1-17.83,0,4.46,4.46,0,0,0-8.92,0,8.92,8.92,0,0,1-17.84,0,7.63,7.63,0,0,1,1.34-4.46l10.26-17.84H508.6l10.26,17.84a7.56,7.56,0,0,1,1.35,4.46,9,9,0,0,1-8.93,8.92Z"/></g></g></svg>