<svg xmlns="http://www.w3.org/2000/svg" viewBox="0 0 648 648"><defs><style>.cls-1{font-size:24px;font-family:Anjoman-Light, Anjoman;font-weight:300;}</style></defs><g id="Layer_1" data-name="Layer 1"><path d="M485.26,57v5.52h-.17a5.92,5.92,0,0,1-3.28-.8A4.91,4.91,0,0,1,480,59.25c-.44.69-.8,1.31-1.11,1.87l-.48,0a5.74,5.74,0,0,1-2.39-.49,4.12,4.12,0,0,1-1.77-1.52,4.56,4.56,0,0,1-.69-2.59,7.58,7.58,0,0,1,.25-1.9q.25-.84,4.94-3.1l-.07-.6,2.73-2.56a.62.62,0,0,1,.44-.22.33.33,0,0,1,.29.16.7.7,0,0,1,.11.44c0,.29,0,1.15.12,2.59l.15,3a12,12,0,0,0,.19,1.82,1.16,1.16,0,0,0,.38.73,1.54,1.54,0,0,0,.84.18l1.2,0Zm-8.82-.8a7.24,7.24,0,0,0,1.81.2c.25,0,.62,0,1.1,0l-.24-1.82c-.86.19-1.53.35-2,.48a11.79,11.79,0,0,0-1.57.57C475.63,55.9,475.93,56.1,476.44,56.24Z"/><path d="M499.8,57v5.52h-.19a3.08,3.08,0,0,1-2.53-1.09,4.38,4.38,0,0,1-.9-2.87,6.67,6.67,0,0,1,0-.7,16.93,16.93,0,0,0-2.62,1.64c-.94.65-1.76,1.18-2.46,1.58a11.1,11.1,0,0,1-2.51,1,12.23,12.23,0,0,1-3.33.42h-.21V57h.21a22.93,22.93,0,0,0,4.33-.35,31.42,31.42,0,0,0,3.71-1l1.8-.5q-2.13-.54-3.66-.84a12.49,12.49,0,0,0-2.34-.32,2.12,2.12,0,0,0-.95.18,2,2,0,0,0-.66.64.92.92,0,0,1-.76.46.67.67,0,0,1-.51-.22.85.85,0,0,1-.19-.6,2,2,0,0,1,.05-.38q1.13-4.56,3.93-4.56a7,7,0,0,1,2,.32c.75.22,1.67.52,2.78.92s1.75.62,2.32.8a11.31,11.31,0,0,0,1.61.36c.29,0,.43.17.43.38a2.34,2.34,0,0,1-.07.34l-1,3.67a.5.5,0,0,0,.16.5,1.4,1.4,0,0,0,.83.17Z"/><path d="M509,62.56a7.39,7.39,0,0,1-4-1.27,8,8,0,0,1-4.39,1.27h-1.06l0-5.52h1.92a5.06,5.06,0,0,1-.29-1.63,5.46,5.46,0,0,1,.49-2.11,5.88,5.88,0,0,1,1.39-2,2.94,2.94,0,0,1,2.08-.85,3,3,0,0,1,1.85.66,4.59,4.59,0,0,1,1.37,1.8,6.34,6.34,0,0,1,.5,2.55,4.61,4.61,0,0,1-.34,1.61h1.64l0,5.52Zm-6-6.47a4.67,4.67,0,0,0,2.22.71,3.18,3.18,0,0,0,2.18-1,1.68,1.68,0,0,0-.4-.56,3.28,3.28,0,0,0-.81-.6,2.82,2.82,0,0,0-1.07-.31l-.43,0a3.08,3.08,0,0,0-1.47.31c-.38.21-.59.42-.64.62S502.75,55.8,503.08,56.09Zm0-8.7a.55.55,0,0,1,.19-.33l1.54-1.56c.13-.13.22-.2.29-.2a.42.42,0,0,1,.29.2L507,47.06a.43.43,0,0,1,.19.31.5.5,0,0,1-.19.33l-1.54,1.54c-.11.11-.2.17-.26.17s-.14-.06-.29-.17L503.3,47.7A.54.54,0,0,1,503.11,47.39Z"/><path d="M527.29,52.07a5.31,5.31,0,0,1,1.05,3.36,8.67,8.67,0,0,1-.38,2.5,6.78,6.78,0,0,1-1,2.16,6.56,6.56,0,0,1-3,2.15,11.88,11.88,0,0,1-4.3.8,8.85,8.85,0,0,1-3.55-.68,4.44,4.44,0,0,1-2.26-2.06A5.11,5.11,0,0,1,512.1,62a3.76,3.76,0,0,1-2,.58h-.21V57h.21a3.08,3.08,0,0,0,1.86-.53,3.6,3.6,0,0,0,1.13-1.27,17.29,17.29,0,0,0,.85-1.9l.32-.76a1.1,1.1,0,0,1,.37-.5.84.84,0,0,1,.47-.15.77.77,0,0,1,.55.24.84.84,0,0,1,.24.62,1.45,1.45,0,0,1,0,.29l-.22.88a5.69,5.69,0,0,0-.16,1.3,1.63,1.63,0,0,0,1,1.71,32.53,32.53,0,0,1,2-2.92,11.42,11.42,0,0,1,2.44-2.29,5.36,5.36,0,0,1,3.15-1A3.8,3.8,0,0,1,527.29,52.07ZM521.09,58a10.38,10.38,0,0,0,2.59-.32,6.72,6.72,0,0,0,2.06-.84,2.32,2.32,0,0,0,1.06-1.17,4.79,4.79,0,0,0-2.86-.79,7.7,7.7,0,0,0-3.91.87,7.4,7.4,0,0,0-2.16,1.77A10.58,10.58,0,0,0,521.09,58Z"/><path d="M547.2,45.42c.27,0,.41.2.41.6,0,2.52-.09,5.59-.28,9.23s-.37,6.25-.56,7.81a7.09,7.09,0,0,1-1,2.93,6.09,6.09,0,0,1-2.15,2.16,5.93,5.93,0,0,1-3.16.82,6.9,6.9,0,0,1-3.81-1,5.6,5.6,0,0,1-2.17-2.55,8.7,8.7,0,0,1-.69-3.52,12,12,0,0,1,1-4.8,1.1,1.1,0,0,1,.37-.5.84.84,0,0,1,.47-.15.77.77,0,0,1,.55.24.84.84,0,0,1,.24.62,1.45,1.45,0,0,1-.05.29c-.18.78-.3,1.41-.38,1.88a8,8,0,0,0-.12,1.31,2.76,2.76,0,0,0,1,2.34,6.09,6.09,0,0,0,3.58.78,14.73,14.73,0,0,0,2.74-.21c.72-.15,1.16-.42,1.32-.82-.19-2.85-.38-5.33-.55-7.44s-.39-4.54-.65-7.3l3.38-2.56A.85.85,0,0,1,547.2,45.42Z"/><path d="M556.55,52.38a7.73,7.73,0,0,1,1.85,3.36,19.7,19.7,0,0,1,.68,5.57,8.32,8.32,0,0,1-1,4.21,8.56,8.56,0,0,1-2.56,2.85,6.57,6.57,0,0,1-2.93,1.2c-.38,0-1.4-.88-3-2.74l-.45-.5a.64.64,0,0,1-.22-.46c0-.25.22-.42.65-.5a18.22,18.22,0,0,0,3-.72,14.76,14.76,0,0,0,2.88-1.25A4,4,0,0,0,557,61.91a4.87,4.87,0,0,1-2.62.65c-3.08,0-4.63-1.66-4.63-5,0-.4,0-.81.07-1.25a8.26,8.26,0,0,1,.6-2.37,5.14,5.14,0,0,1,1.35-1.92,3.06,3.06,0,0,1,2.11-.77A3.75,3.75,0,0,1,556.55,52.38ZM552.48,57a6.75,6.75,0,0,0,1.7.23,6.13,6.13,0,0,0,2.21-.36,3.14,3.14,0,0,0-1.28-1.24,3.87,3.87,0,0,0-1.36-.39,1.6,1.6,0,0,0-.36,0,2.61,2.61,0,0,0-1.28.31,2.27,2.27,0,0,0-.81.75A1.89,1.89,0,0,0,552.48,57Z"/><path d="M564.38,45.4c.29,0,.44.19.44.58q0,1.68-.21,6.84c-.13,3.44-.31,5.88-.51,7.32a5,5,0,0,1-.6,1.34c-.36.61-.68,1.15-1,1.63a.71.71,0,0,1-.55.39.35.35,0,0,1-.28-.15.87.87,0,0,1-.13-.43q-.43-7.12-1-14.76L564,45.57A.65.65,0,0,1,564.38,45.4Z"/><path d="M579.05,57v5.52h-.48a3.53,3.53,0,0,1-1.37-.24,7.49,7.49,0,0,1-1.44,4A8.64,8.64,0,0,1,573,68.79a5.47,5.47,0,0,1-2.28.8c-.27,0-.7-.29-1.28-.87s-1.32-1.38-2.22-2.37a.64.64,0,0,1-.22-.45.45.45,0,0,1,.17-.34.81.81,0,0,1,.48-.17,13.09,13.09,0,0,0,3.19-.8,11.4,11.4,0,0,0,2.68-1.42,3.24,3.24,0,0,0,1.31-1.57c-.72-1.54-1.6-3.22-2.64-5.06l2.64-2.48a1,1,0,0,1,.45-.26c.13,0,.24.09.34.26a3,3,0,0,1,.29.53l.29.55c.32.58.56,1,.72,1.22a1.53,1.53,0,0,0,.57.51,2.26,2.26,0,0,0,1,.17Z"/><path d="M586.08,49.89c0,.08-.06.18-.19.31l-1.37,1.42a.44.44,0,0,1-.24.14.6.6,0,0,1-.26-.14l-1.47-1.42-.09-.12-.12.12L581,51.62a.44.44,0,0,1-.24.14.67.67,0,0,1-.27-.14L579,50.2a.47.47,0,0,1-.17-.29.49.49,0,0,1,.17-.31l1.39-1.39c.13-.13.22-.19.27-.19s.16.06.26.19l1.42,1.39.12.12.09-.12,1.39-1.39c.13-.13.22-.19.27-.19s.17.06.26.19l1.42,1.39A.43.43,0,0,1,586.08,49.89Zm1.1,7.15v5.52h-.12a4,4,0,0,1-2-.47,3.5,3.5,0,0,1-1.4-1.67,3.13,3.13,0,0,1-1.5,1.52,7,7,0,0,1-3.25.62h-.09V57H579a17.41,17.41,0,0,0,2.19-.13,4.71,4.71,0,0,0,1.58-.42c-.13-.58-.26-1.27-.38-2.09l1.72-1.46a.3.3,0,0,1,.22-.1c.1,0,.16.07.19.22l.36,2.42a1.87,1.87,0,0,0,.58,1.22,2.81,2.81,0,0,0,1.65.34Z"/><path d="M592.51,65.56a.43.43,0,0,1-.19.29L591,67.26a.36.36,0,0,1-.24.15c-.05,0-.13,0-.26-.15L589,65.85l-.09-.12-.12.12-1.37,1.41a.41.41,0,0,1-.24.15.47.47,0,0,1-.26-.15l-1.47-1.41a.47.47,0,0,1-.17-.29.46.46,0,0,1,.17-.31l1.39-1.39c.13-.13.22-.2.27-.2s.17.07.26.2l1.42,1.39.12.12.09-.12,1.4-1.39c.12-.13.21-.2.26-.2s.17.07.26.2l1.42,1.39C592.45,65.38,592.51,65.48,592.51,65.56ZM595.3,57v5.52h-.12a4,4,0,0,1-2-.47,3.43,3.43,0,0,1-1.39-1.67,3.13,3.13,0,0,1-1.5,1.52,7,7,0,0,1-3.26.62H587V57h.09a17.3,17.3,0,0,0,2.19-.13,4.71,4.71,0,0,0,1.58-.42c-.13-.58-.25-1.27-.38-2.09l1.73-1.46a.26.26,0,0,1,.21-.1c.1,0,.16.07.19.22l.36,2.42a1.87,1.87,0,0,0,.58,1.22,2.83,2.83,0,0,0,1.66.34Z"/><path d="M602.28,47.73c0,.08-.06.18-.19.31l-1.37,1.42a.44.44,0,0,1-.24.14.6.6,0,0,1-.26-.14L598.75,48l-.09-.12-.12.12-1.37,1.42a.44.44,0,0,1-.24.14.67.67,0,0,1-.27-.14L595.2,48a.47.47,0,0,1-.17-.29.49.49,0,0,1,.17-.31l1.39-1.39c.13-.13.22-.19.27-.19s.16.06.26.19l1.42,1.39.12.12.09-.12,1.39-1.39c.13-.13.22-.19.27-.19s.17.06.26.19l1.42,1.39A.43.43,0,0,1,602.28,47.73Zm-1.12,5.37a12.22,12.22,0,0,1,.52,3.56,9,9,0,0,1-.24,2.13,5.36,5.36,0,0,1-.88,1.93A4.11,4.11,0,0,1,598.68,62a9.53,9.53,0,0,1-3.5.52h-.08l0-5.52h.1a17,17,0,0,0,2.52-.16,3,3,0,0,0,1.41-.44c-.41-.66-1.1-1.62-2.06-2.9l-.29-.41,2.64-2.47a.91.91,0,0,1,.46-.27c.12,0,.24.09.33.27A10.16,10.16,0,0,1,601.16,53.1Z"/><path d="M480.68,98a.43.43,0,0,1,.06.24v.09a.46.46,0,0,1-.06.23.18.18,0,0,1-.15.11h-.22a6.46,6.46,0,0,1-2.05-.3,1.66,1.66,0,0,1-1.14-1.26,1.9,1.9,0,0,1-1.1.5,11.18,11.18,0,0,1-1.9.15,7.57,7.57,0,0,1-1.57-.13,1.3,1.3,0,0,1-.81-.56,2.56,2.56,0,0,1-.26-1.3,3.92,3.92,0,0,1,.68-2.1A5.76,5.76,0,0,1,474,91.92a4.74,4.74,0,0,1,2.42-.77l-.22-1.78.77-.14.51,5.71a10,10,0,0,0,.3,2,1.2,1.2,0,0,0,.74.78,5.51,5.51,0,0,0,1.93.23h.1A.17.17,0,0,1,480.68,98Zm-4.95-1.14a6.06,6.06,0,0,0,1.17-.28L476.47,92a4.49,4.49,0,0,0-2.41.79,4.53,4.53,0,0,0-1.93,3.62l0,.31a1.72,1.72,0,0,0,.66.23,9.4,9.4,0,0,0,1.29.06A14.1,14.1,0,0,0,475.73,96.9Z"/><path d="M495.16,98a.43.43,0,0,1,.06.24v.09a.46.46,0,0,1-.06.23.19.19,0,0,1-.16.11h-1.75a3.63,3.63,0,0,1-2-.43,1.83,1.83,0,0,1-.77-1c-.09-.36-.2-1-.33-2a10.14,10.14,0,0,0-1,.53c-1.11.67-2,1.2-2.74,1.58a12.68,12.68,0,0,1-2.35,1,9.54,9.54,0,0,1-2.71.37h-.84a.21.21,0,0,1-.17-.11.39.39,0,0,1-.07-.23v-.09a.36.36,0,0,1,.07-.24.2.2,0,0,1,.17-.1h1a8.67,8.67,0,0,0,3-.54,23,23,0,0,0,3.54-1.76c.27-.18.81-.5,1.63-1l.58-.34a5,5,0,0,1,1.27-.41l-.51-.16c-1.05-.32-2.17-.72-3.35-1.18-.69-.3-1.34-.56-1.94-.76a4.73,4.73,0,0,0-1.33-.3,1.21,1.21,0,0,0-1,.63,3.81,3.81,0,0,0-.53,1.27l-.55-.1a5.39,5.39,0,0,1,.81-2,1.69,1.69,0,0,1,1.45-.61,4,4,0,0,1,1.21.27c.52.19,1.26.48,2.22.88a17.1,17.1,0,0,0,5.9,1.75l-.12.79a5.27,5.27,0,0,0-.62,0,6.34,6.34,0,0,0-2.43.57c0,.15.06.57.13,1.29a1.8,1.8,0,0,0,.58,1.39,2.78,2.78,0,0,0,1.48.32h2A.18.18,0,0,1,495.16,98Z"/><path d="M505.12,98a.43.43,0,0,1,.06.24v.09a.46.46,0,0,1-.06.23.19.19,0,0,1-.16.11h-.89a12.2,12.2,0,0,1-2.27-.17,4.25,4.25,0,0,1-1.35-.48,10.5,10.5,0,0,1-1.78.45,18,18,0,0,1-2.93.2H495a.22.22,0,0,1-.17-.11.48.48,0,0,1-.07-.23v-.09a.43.43,0,0,1,.07-.24.21.21,0,0,1,.17-.1h2.33a7.27,7.27,0,0,0,2.35-.33,7.83,7.83,0,0,1-1.91-1.52,2.71,2.71,0,0,1-.9-1.75,3.74,3.74,0,0,1,.54-1.49,7,7,0,0,1,1.37-1.78,2.49,2.49,0,0,1,1.72-.78,2.2,2.2,0,0,1,1.52.63,4.28,4.28,0,0,1,1.08,1.75,7.44,7.44,0,0,1,.4,2.54,1.41,1.41,0,0,1-.27.85,2.65,2.65,0,0,1-.7.67c-.3.2-.79.5-1.46.9a3.26,3.26,0,0,0,1.35.31H505A.18.18,0,0,1,505.12,98Zm-6.78-2.31a14.34,14.34,0,0,0,2.11,1.54l2.35-1.61a7.93,7.93,0,0,0-.23-2.09,4.83,4.83,0,0,0-.78-1.76,1.57,1.57,0,0,0-1.29-.71,2,2,0,0,0-1.31.6A5.64,5.64,0,0,0,498,93.08a2.57,2.57,0,0,0-.47,1.17A2,2,0,0,0,498.34,95.73Zm2-8-.92-.79.8-1,1,.82Z"/><path d="M521.22,91.75a5.67,5.67,0,0,1,.88,3.48,10.75,10.75,0,0,1-.07,1.3.85.85,0,0,1-.34.64,8,8,0,0,1-2.86,1.13,20.24,20.24,0,0,1-4.7.48,33.25,33.25,0,0,1-3.48-.2,4,4,0,0,1-2.43-.83,2.62,2.62,0,0,1-1.34.68,7,7,0,0,1-1.92.28.22.22,0,0,1-.17-.11.39.39,0,0,1-.07-.23v-.09a.36.36,0,0,1,.07-.24.21.21,0,0,1,.17-.1,9.23,9.23,0,0,0,1.33-.14,6.42,6.42,0,0,0,1.69-.55V93.53h.75l-.1,3.74a2.34,2.34,0,0,0,1,.38l.36-.4q5.47-6.63,8.47-6.63A3.26,3.26,0,0,1,521.22,91.75Zm.16,4.9a19.66,19.66,0,0,0-.16-2.76,3.18,3.18,0,0,0-.78-1.73,2.46,2.46,0,0,0-1.94-.7,6.51,6.51,0,0,0-3.69,1.78,27.63,27.63,0,0,0-4.4,4.53,24,24,0,0,0,3.86.24A18.49,18.49,0,0,0,521.38,96.65Z"/><path d="M537.42,98a.43.43,0,0,1,.06.24v.09a.46.46,0,0,1-.06.23.18.18,0,0,1-.16.11h-1.77a3.6,3.6,0,0,1-2.76-.86c0,.17,0,.4,0,.67a4.41,4.41,0,0,1-1.73,3.21,16.75,16.75,0,0,1-4.72,2.88l-.32-.69a15.93,15.93,0,0,0,4.12-2.41,6.17,6.17,0,0,0,2-2.63l-.69-6.39.79-.26.26,2.83c0,.23,0,.43,0,.6s0,.33,0,.46a1.8,1.8,0,0,0,1,1.5,4.86,4.86,0,0,0,1.85.32h1.89A.17.17,0,0,1,537.42,98Z"/><path d="M544.91,98a.43.43,0,0,1,.06.24v.09a.46.46,0,0,1-.06.23.18.18,0,0,1-.16.11,8,8,0,0,1-2.52-.32,1.9,1.9,0,0,1-1.17-.88,2.39,2.39,0,0,1-1.41.86,7.89,7.89,0,0,1-2.39.34.19.19,0,0,1-.16-.11.4.4,0,0,1-.08-.23v-.09a.36.36,0,0,1,.08-.24.18.18,0,0,1,.16-.1,7.88,7.88,0,0,0,2.06-.21,4.73,4.73,0,0,0,1.38-.7l-.34-5.16.7,0,.38,5.08a4.37,4.37,0,0,0,3.31,1A.17.17,0,0,1,544.91,98Zm-5.15-8.93-.91-.79.79-.91,1,.76Zm2.35.1-.91-.77.79-1,.94.79Z"/><path d="M552.4,98a.43.43,0,0,1,.06.24v.09a.46.46,0,0,1-.06.23.19.19,0,0,1-.16.11,8,8,0,0,1-2.52-.32,2,2,0,0,1-1.18-.88,2.32,2.32,0,0,1-1.4.86,7.89,7.89,0,0,1-2.39.34.22.22,0,0,1-.17-.11.48.48,0,0,1-.07-.23v-.09a.43.43,0,0,1,.07-.24.21.21,0,0,1,.17-.1,7.74,7.74,0,0,0,2-.21,4.5,4.5,0,0,0,1.38-.7l-.33-5.16.69,0,.39,5.08a4.37,4.37,0,0,0,3.31,1A.18.18,0,0,1,552.4,98Zm-5.44,3.5,1,.82-.82.91-.86-.77Zm2.35.1,1,.79-.81.94-.87-.77Z"/><path d="M557.59,91c0,1.05,0,1.79,0,2.21.05,1.26.07,2.41.07,3.45,0,.48-.33.88-1,1.2a9.49,9.49,0,0,1-4.46.89.22.22,0,0,1-.17-.11.39.39,0,0,1-.07-.23v-.09a.36.36,0,0,1,.07-.24.21.21,0,0,1,.17-.1,14.52,14.52,0,0,0,2.78-.23,5.29,5.29,0,0,0,2.12-.85l-.29-5.66Zm-2.49-3-.89-.79.77-.91,1,.76Zm2.35.1-.91-.77.79-1,.93.79Z"/><path d="M578.35,96.81c0,.52-.4.92-1.2,1.23q-2,.81-7.17.81a14.79,14.79,0,0,1-5.42-.76,2.88,2.88,0,0,1-1.83-2.91,8.37,8.37,0,0,1,.09-1l.63-3.74.65.12-.6,3.69a6.11,6.11,0,0,0-.08.84,2.32,2.32,0,0,0,1.79,2.37,15.75,15.75,0,0,0,4.77.59,39.32,39.32,0,0,0,4.74-.26,8.53,8.53,0,0,0,3.06-.8l-.36-5.9.76-.22C578.29,93.49,578.35,95.45,578.35,96.81Zm-8.21,4.8,1,.82-.84.94-.94-.8Z"/><path d="M587.48,98a.43.43,0,0,1,.06.24v.09a.46.46,0,0,1-.06.23.18.18,0,0,1-.15.11h0a5.12,5.12,0,0,1-3.4-.91,3.42,3.42,0,0,1-1.11-2.64l-.45-12.29.76-.19.41,12.48a2.56,2.56,0,0,0,1,2.18,5.42,5.42,0,0,0,2.88.6h-.07A.17.17,0,0,1,587.48,98Z"/><path d="M600.46,93.57q.12,1.8.12,3.63c0,.56-.34,1-1,1.17a6.57,6.57,0,0,1-2.14.34,2.6,2.6,0,0,1-1.17-.24,1.39,1.39,0,0,1-.68-.67,1.78,1.78,0,0,1-1.1.67,5.54,5.54,0,0,1-1.51.24,3.4,3.4,0,0,1-1.44-.28,1.6,1.6,0,0,1-.82-.63,3.12,3.12,0,0,1-1.37.63,7.33,7.33,0,0,1-2,.28.21.21,0,0,1-.17-.11.39.39,0,0,1-.07-.23v-.09a.36.36,0,0,1,.07-.24.2.2,0,0,1,.17-.1A9.3,9.3,0,0,0,589,97.8a3.87,3.87,0,0,0,1.33-.53l.12-4.25h.74l-.14,3.41c0,.64.16,1,.53,1.24a3.19,3.19,0,0,0,1.41.27,3.07,3.07,0,0,0,2.26-.67l-.17-5.21.77,0,.07,5.25a1.63,1.63,0,0,0,.77.52,3.39,3.39,0,0,0,1,.13,3.33,3.33,0,0,0,2.3-.62l-.46-6.22.82-.14C600.36,91.55,600.39,92.42,600.46,93.57Z"/><text class="cls-1" transform="translate(91.88 241.19)"><tspan xml:space="preserve"> تعنص زا موهفمان یگداس دیلوت اب یگتخاس نتم موسپیا مرول</tspan><tspan x="-32.83" y="30" xml:space="preserve"> هکلب نوتم و اهرگپاچ ،تسا کیفارگ ناحارط زا هدافتسا اب و ،پاچ</tspan><tspan x="-39.4" y="60" xml:space="preserve"> طیارش یارب و ،تسا مزل هک نانچنآرطس و نوتس رد هلجم و همانزور</tspan><tspan x="7.49" y="90" xml:space="preserve"> دوبهب فده اب عونتم یاهدربراک و ،زاین دروم یژولونکت یلعف</tspan><tspan x="-32.37" y="120" xml:space="preserve"> دصرد هس و تصش رد یدایز یاهباتک ،دشاب یم یدربراک یاهرازبا</tspan><tspan x="-15.46" y="150" xml:space="preserve"> یم ار ناصصختم و هعماج ناوارف تخانش ،هدنیآ و لاح هتشذگ</tspan><tspan x="-17.92" y="180" xml:space="preserve"> یا هنایار ناحارط یارب ار یرتشیب تخانش اهرازفا مرن اب ات ،دبلط</tspan><tspan x="-21.77" y="210" xml:space="preserve"> یسراف نابز رد ورشیپ گنهرف و ،یقلخ ناحارط صوصخلا یلع</tspan><tspan x="-23.11" y="240" xml:space="preserve"> یراوشد و مامت هک تشاد دیما ناوت یم تروص نیا رد ،درک داجیا</tspan><tspan x="-42.91" y="270" xml:space="preserve"> نامز و دسر نایاپ هب پیات تخس طیارش و ،اهراکهار هئارا رد دوجوم</tspan><tspan x="12" y="300" xml:space="preserve"> یوگباوج و ،یلصا یاهدرواتسد ینیچفورح لماش زاین دروم</tspan><tspan x="-17.62" y="330" xml:space="preserve"> هدافتسا دروم اساسا یحارط دوجوم یایند لها هتسویپ تلاوس</tspan><tspan x="427.05" y="360">.دریگ رارق</tspan></text></g></svg>