<svg xmlns="http://www.w3.org/2000/svg" viewBox="0 0 648 648"><defs><style>.cls-1{fill:#ff5e3f;}</style></defs><g id="Background"><rect class="cls-1" width="648" height="648"/></g><g id="Layer_1" data-name="Layer 1"><path d="M49.41,492.64V423.55H73.56A25.41,25.41,0,0,1,85.47,426a16.51,16.51,0,0,1,7,6.64,18.84,18.84,0,0,1,2.3,9.23,15.46,15.46,0,0,1-1.57,7.36,12.53,12.53,0,0,1-4.12,4.58,18.81,18.81,0,0,1-5.51,2.5V457a13.43,13.43,0,0,1,6.37,2.22,16.22,16.22,0,0,1,5.37,5.8,20.21,20.21,0,0,1-.21,18.59,16.29,16.29,0,0,1-7.45,6.58q-5.1,2.43-13.26,2.43Zm8.36-38.73H73.29a15.38,15.38,0,0,0,6.83-1.48A12,12,0,0,0,85,448.24a11.16,11.16,0,0,0,1.81-6.34,10.55,10.55,0,0,0-3.18-7.74q-3.17-3.2-10-3.19H57.77Zm0,31.31h16.6q8.2,0,11.66-3.19a10.16,10.16,0,0,0,3.45-7.74,12.44,12.44,0,0,0-1.78-6.5A13.18,13.18,0,0,0,82.6,463a16.1,16.1,0,0,0-7.82-1.8h-17Z"/><path d="M131.18,493.72A21.89,21.89,0,0,1,110.65,481a31.41,31.41,0,0,1-3-14,31.76,31.76,0,0,1,3-14.13,22.71,22.71,0,0,1,41.06,0A31.76,31.76,0,0,1,154.66,467a31.41,31.41,0,0,1-2.95,14,21.89,21.89,0,0,1-20.53,12.69Zm0-7.15a13.62,13.62,0,0,0,8.77-2.74,16.1,16.1,0,0,0,5.1-7.18,29.13,29.13,0,0,0,0-19.33,16.32,16.32,0,0,0-5.1-7.25,15.27,15.27,0,0,0-17.54,0,16.3,16.3,0,0,0-5.09,7.25,29,29,0,0,0,0,19.33,16.08,16.08,0,0,0,5.09,7.18A13.62,13.62,0,0,0,131.18,486.57Z"/><path d="M199.46,471.45V440.82h8v51.82h-8v-8.77h-.54a16.87,16.87,0,0,1-5.67,6.7,16.29,16.29,0,0,1-9.71,2.74,17.19,17.19,0,0,1-8.64-2.14A14.74,14.74,0,0,1,169,484.7a24.63,24.63,0,0,1-2.15-10.95V440.82h8v32.39a12.6,12.6,0,0,0,3.19,9,10.7,10.7,0,0,0,8.14,3.37,13.58,13.58,0,0,0,6.06-1.52,13.23,13.23,0,0,0,5.19-4.65A14,14,0,0,0,199.46,471.45Z"/><path d="M230,461.47v31.17h-8V440.82h7.69v8.1h.67a14.94,14.94,0,0,1,5.54-6.36,17.25,17.25,0,0,1,9.58-2.41,19,19,0,0,1,9.21,2.14,14.67,14.67,0,0,1,6.14,6.48A24.19,24.19,0,0,1,263,459.71v32.93h-8V460.25q0-6.11-3.17-9.53a11.31,11.31,0,0,0-8.71-3.42,13.86,13.86,0,0,0-6.8,1.65,11.77,11.77,0,0,0-4.7,4.83A15.86,15.86,0,0,0,230,461.47Z"/><path d="M297.16,493.72a20.25,20.25,0,0,1-11.44-3.29,22,22,0,0,1-7.76-9.31,33.67,33.67,0,0,1-2.8-14.25A33.32,33.32,0,0,1,278,452.7a21.76,21.76,0,0,1,7.8-9.28,20.57,20.57,0,0,1,11.53-3.27,16.25,16.25,0,0,1,8,1.67,14.2,14.2,0,0,1,4.52,3.78c1,1.4,1.86,2.55,2.44,3.45H313v-25.5h8v69.09h-7.69v-8h-1q-.87,1.41-2.49,3.56a14.46,14.46,0,0,1-4.62,3.81A16.52,16.52,0,0,1,297.16,493.72Zm1.08-7.15a13,13,0,0,0,8.1-2.52,15.44,15.44,0,0,0,5-7,28.62,28.62,0,0,0,1.72-10.34,28.23,28.23,0,0,0-1.68-10.17,15,15,0,0,0-5-6.82,14.95,14.95,0,0,0-16.58.14,15.47,15.47,0,0,0-5,7,27.55,27.55,0,0,0-1.67,9.87,28.13,28.13,0,0,0,1.7,10,16.11,16.11,0,0,0,5.06,7.15A13,13,0,0,0,298.24,486.57Z"/><path d="M344.52,423.55v69.09h-8V423.55Z"/><path d="M380.82,493.72a24.23,24.23,0,0,1-12.9-3.32,21.91,21.91,0,0,1-8.33-9.31,31.48,31.48,0,0,1-2.92-13.95,32.12,32.12,0,0,1,2.92-14.06,22.83,22.83,0,0,1,8.16-9.51A21.94,21.94,0,0,1,380,440.15a24.57,24.57,0,0,1,8,1.35,19.74,19.74,0,0,1,7.18,4.37,21.23,21.23,0,0,1,5.17,8,34,34,0,0,1,1.92,12.22v3.37H362.34v-6.88h31.84a17.24,17.24,0,0,0-1.73-7.83,13.48,13.48,0,0,0-4.93-5.43,13.87,13.87,0,0,0-7.51-2,14.28,14.28,0,0,0-8.21,2.34,15.61,15.61,0,0,0-5.31,6.09,17.84,17.84,0,0,0-1.86,8v4.59a22,22,0,0,0,2,9.94,14.39,14.39,0,0,0,5.69,6.17,16.62,16.62,0,0,0,8.46,2.11,17,17,0,0,0,5.69-.9,11.69,11.69,0,0,0,4.4-2.7,12.09,12.09,0,0,0,2.87-4.5l7.69,2.16a17,17,0,0,1-4.08,6.87,19.78,19.78,0,0,1-7.09,4.58A26,26,0,0,1,380.82,493.72Z"/><path d="M451.13,452.43l-7.15,2a13.82,13.82,0,0,0-2-3.49,9.81,9.81,0,0,0-3.52-2.82,12.8,12.8,0,0,0-5.7-1.11,13.54,13.54,0,0,0-7.91,2.18,6.47,6.47,0,0,0-3.16,5.51,5.68,5.68,0,0,0,2.16,4.69,18.08,18.08,0,0,0,6.75,2.87l7.69,1.89q6.94,1.68,10.36,5.14a12.14,12.14,0,0,1,3.4,8.89,13.25,13.25,0,0,1-2.54,8,17.16,17.16,0,0,1-7.11,5.54,26,26,0,0,1-10.59,2q-7.92,0-13.12-3.44a15.26,15.26,0,0,1-6.58-10l7.56-1.89a10.45,10.45,0,0,0,4.1,6.27,13.57,13.57,0,0,0,7.91,2.09q5.57,0,8.85-2.38a6.92,6.92,0,0,0,3.29-5.71,6.08,6.08,0,0,0-1.89-4.54,12.13,12.13,0,0,0-5.8-2.75l-8.64-2q-7.11-1.68-10.44-5.24a12.59,12.59,0,0,1-3.32-8.92,12.77,12.77,0,0,1,2.48-7.76,16.56,16.56,0,0,1,6.78-5.3,23.73,23.73,0,0,1,9.77-1.92c5.12,0,9.16,1.12,12.09,3.37A18.29,18.29,0,0,1,451.13,452.43Z"/><path d="M500.79,452.43l-7.16,2a13.78,13.78,0,0,0-2-3.49,9.84,9.84,0,0,0-3.53-2.82,12.74,12.74,0,0,0-5.7-1.11,13.56,13.56,0,0,0-7.91,2.18,6.48,6.48,0,0,0-3.15,5.51,5.68,5.68,0,0,0,2.16,4.69,18.08,18.08,0,0,0,6.75,2.87l7.69,1.89q6.94,1.68,10.35,5.14a12.11,12.11,0,0,1,3.41,8.89,13.2,13.2,0,0,1-2.55,8,17.06,17.06,0,0,1-7.1,5.54,26,26,0,0,1-10.59,2q-7.94,0-13.12-3.44a15.26,15.26,0,0,1-6.58-10l7.55-1.89a10.49,10.49,0,0,0,4.1,6.27,13.6,13.6,0,0,0,7.91,2.09q5.58,0,8.86-2.38a6.92,6.92,0,0,0,3.29-5.71,6.08,6.08,0,0,0-1.89-4.54,12.13,12.13,0,0,0-5.8-2.75l-8.64-2q-7.11-1.68-10.44-5.24a12.54,12.54,0,0,1-3.32-8.92,12.7,12.7,0,0,1,2.48-7.76,16.56,16.56,0,0,1,6.78-5.3,23.71,23.71,0,0,1,9.76-1.92q7.69,0,12.1,3.37A18.29,18.29,0,0,1,500.79,452.43Z"/><path d="M49.41,602.64V533.55H73.56A25.41,25.41,0,0,1,85.47,536a16.51,16.51,0,0,1,7,6.64,18.84,18.84,0,0,1,2.3,9.23,15.46,15.46,0,0,1-1.57,7.36,12.53,12.53,0,0,1-4.12,4.58,18.81,18.81,0,0,1-5.51,2.5V567a13.43,13.43,0,0,1,6.37,2.22,16.22,16.22,0,0,1,5.37,5.8,20.21,20.21,0,0,1-.21,18.59,16.29,16.29,0,0,1-7.45,6.58q-5.1,2.43-13.26,2.43Zm8.36-38.73H73.29a15.38,15.38,0,0,0,6.83-1.48A12,12,0,0,0,85,558.24a11.16,11.16,0,0,0,1.81-6.34,10.55,10.55,0,0,0-3.18-7.74q-3.17-3.2-10-3.19H57.77Zm0,31.31h16.6q8.2,0,11.66-3.19a10.16,10.16,0,0,0,3.45-7.74,12.44,12.44,0,0,0-1.78-6.5A13.18,13.18,0,0,0,82.6,573a16.1,16.1,0,0,0-7.82-1.8h-17Z"/><path d="M125.38,603.85a20.83,20.83,0,0,1-8.94-1.87,14.69,14.69,0,0,1-8.74-14.05,13.41,13.41,0,0,1,1.76-7.24,12.35,12.35,0,0,1,4.68-4.36,25.12,25.12,0,0,1,6.5-2.38q3.56-.8,7.17-1.27c3.15-.4,5.7-.71,7.67-.93a11.62,11.62,0,0,0,4.32-1.09,2.85,2.85,0,0,0,1.37-2.7v-.27q0-5-2.72-7.76c-1.81-1.84-4.55-2.77-8.21-2.77s-6.78.84-8.94,2.5a14.84,14.84,0,0,0-4.56,5.33l-7.55-2.7a18.23,18.23,0,0,1,5.41-7.37,20.49,20.49,0,0,1,7.42-3.71,31.05,31.05,0,0,1,8-1.06,32.1,32.1,0,0,1,5.75.59,18.87,18.87,0,0,1,6.31,2.41,14.14,14.14,0,0,1,5.07,5.5q2,3.68,2,9.85v34.14h-8v-7h-.41a13.89,13.89,0,0,1-2.7,3.61,15.61,15.61,0,0,1-5,3.28A19.56,19.56,0,0,1,125.38,603.85Zm1.21-7.15a16,16,0,0,0,8-1.85,12.91,12.91,0,0,0,4.93-4.79,12.37,12.37,0,0,0,1.67-6.18V576.6a4.69,4.69,0,0,1-2.21,1.09,33.43,33.43,0,0,1-3.92.85c-1.47.23-2.9.43-4.28.6l-3.36.42a31.18,31.18,0,0,0-5.78,1.3,10.12,10.12,0,0,0-4.32,2.67,6.81,6.81,0,0,0-1.64,4.81,7.07,7.07,0,0,0,3.09,6.25A13.57,13.57,0,0,0,126.59,596.7Z"/><path d="M162.22,602.64v-6.07l29.41-37.79v-.54H163.16v-7.42h38.73v6.34l-28.61,37.52v.54h29.56v7.42Z"/><path d="M230.36,603.85a20.89,20.89,0,0,1-8.94-1.87,14.7,14.7,0,0,1-8.73-14.05,13.41,13.41,0,0,1,1.75-7.24,12.37,12.37,0,0,1,4.69-4.36,25,25,0,0,1,6.49-2.38c2.38-.53,4.76-1,7.17-1.27q4.72-.6,7.68-.93a11.74,11.74,0,0,0,4.32-1.09,2.85,2.85,0,0,0,1.36-2.7v-.27q0-5-2.71-7.76c-1.82-1.84-4.55-2.77-8.22-2.77s-6.78.84-8.94,2.5a14.7,14.7,0,0,0-4.55,5.33l-7.56-2.7a18.23,18.23,0,0,1,5.41-7.37,20.53,20.53,0,0,1,7.43-3.71,30.92,30.92,0,0,1,7.94-1.06,32,32,0,0,1,5.75.59,18.78,18.78,0,0,1,6.31,2.41,14.09,14.09,0,0,1,5.08,5.5q2,3.68,2,9.85v34.14h-8v-7h-.4a13.89,13.89,0,0,1-2.7,3.61,15.66,15.66,0,0,1-5,3.28A19.53,19.53,0,0,1,230.36,603.85Zm1.22-7.15a16,16,0,0,0,8-1.85,12.82,12.82,0,0,0,4.92-4.79,12.37,12.37,0,0,0,1.67-6.18V576.6a4.64,4.64,0,0,1-2.21,1.09,33.69,33.69,0,0,1-3.91.85c-1.48.23-2.9.43-4.29.6l-3.35.42a31.47,31.47,0,0,0-5.79,1.3,10.12,10.12,0,0,0-4.32,2.67,6.8,6.8,0,0,0-1.63,4.81,7.08,7.08,0,0,0,3.08,6.25A13.61,13.61,0,0,0,231.58,596.7Z"/><path d="M283.94,603.85A20.83,20.83,0,0,1,275,602a14.69,14.69,0,0,1-8.74-14.05,13.41,13.41,0,0,1,1.75-7.24,12.37,12.37,0,0,1,4.69-4.36,25,25,0,0,1,6.5-2.38q3.56-.8,7.16-1.27,4.72-.6,7.68-.93a11.62,11.62,0,0,0,4.32-1.09,2.85,2.85,0,0,0,1.36-2.7v-.27q0-5-2.71-7.76c-1.81-1.84-4.55-2.77-8.22-2.77s-6.78.84-8.94,2.5A14.8,14.8,0,0,0,275.3,565l-7.56-2.7a18.24,18.24,0,0,1,5.42-7.37,20.49,20.49,0,0,1,7.42-3.71,31,31,0,0,1,7.94-1.06,32.12,32.12,0,0,1,5.76.59,18.74,18.74,0,0,1,6.3,2.41,14.09,14.09,0,0,1,5.08,5.5q2,3.68,2,9.85v34.14h-8v-7h-.4a13.89,13.89,0,0,1-2.7,3.61,15.55,15.55,0,0,1-5,3.28A19.51,19.51,0,0,1,283.94,603.85Zm1.21-7.15a16,16,0,0,0,8-1.85,12.82,12.82,0,0,0,4.92-4.79,12.26,12.26,0,0,0,1.67-6.18V576.6a4.59,4.59,0,0,1-2.21,1.09,33.24,33.24,0,0,1-3.91.85c-1.47.23-2.9.43-4.28.6l-3.36.42a31.47,31.47,0,0,0-5.79,1.3,10.15,10.15,0,0,0-4.31,2.67,6.76,6.76,0,0,0-1.64,4.81,7.07,7.07,0,0,0,3.09,6.25A13.55,13.55,0,0,0,285.15,596.7Z"/><path d="M322.26,602.64V550.82H330v7.83h.54a12.39,12.39,0,0,1,5.13-6.24A15,15,0,0,1,344,550c.59,0,1.32,0,2.2,0s1.54.05,2,.1v8.09c-.27-.06-.88-.17-1.84-.32a20.82,20.82,0,0,0-3-.22,14.19,14.19,0,0,0-6.73,1.57,12.06,12.06,0,0,0-4.66,4.32,11.68,11.68,0,0,0-1.7,6.26v32.79Z"/><path d="M50.25,49.14V71h-2V49.14Z"/><path d="M73,49.14V71H71.1L58.21,52.68H58V71H56V49.14H58L70.91,67.43h.17V49.14Z"/><path d="M77.51,50.93V49.14H93.33v1.79H86.42V71h-2v-20Z"/><path d="M97.81,71V49.14h12.65v1.79H99.8v8.21h10v1.79h-10v8.23h10.88V71Z"/><path d="M115.61,71V49.14h7a8.1,8.1,0,0,1,3.88.83,5.66,5.66,0,0,1,2.36,2.31,7,7,0,0,1,.79,3.39,6.89,6.89,0,0,1-.79,3.36,5.45,5.45,0,0,1-2.35,2.28,8.17,8.17,0,0,1-3.86.82h-6V60.31h5.95a6.47,6.47,0,0,0,2.84-.56,3.82,3.82,0,0,0,1.69-1.61,5.2,5.2,0,0,0,.56-2.47,5.33,5.33,0,0,0-.56-2.5,3.9,3.9,0,0,0-1.7-1.66,6.22,6.22,0,0,0-2.86-.58h-5V71Zm9.62-9.84L130.6,71h-2.3L123,61.11Z"/><path d="M151.41,71V49.14h7.05a8.13,8.13,0,0,1,3.88.83,5.63,5.63,0,0,1,2.35,2.31,7,7,0,0,1,.8,3.39,6.9,6.9,0,0,1-.8,3.36,5.45,5.45,0,0,1-2.35,2.28,8.12,8.12,0,0,1-3.85.82h-6V60.31h5.94a6.41,6.41,0,0,0,2.84-.56,3.85,3.85,0,0,0,1.7-1.61,5.75,5.75,0,0,0,0-5,3.85,3.85,0,0,0-1.7-1.66,6.2,6.2,0,0,0-2.86-.58h-5V71ZM161,61.11,166.4,71h-2.3l-5.31-9.84Z"/><path d="M176.39,71.29a7.16,7.16,0,0,1-4-1.07,7.07,7.07,0,0,1-2.58-3,10,10,0,0,1-.91-4.38,10.15,10.15,0,0,1,.91-4.4,7.41,7.41,0,0,1,2.52-3,6.5,6.5,0,0,1,3.74-1.09,7,7,0,0,1,2.56.48,6.4,6.4,0,0,1,2.23,1.48,7.34,7.34,0,0,1,1.56,2.51A10,10,0,0,1,183,62.4v.94H170.25V61.66h10.84a6.3,6.3,0,0,0-.63-2.84,5,5,0,0,0-1.76-2,4.62,4.62,0,0,0-2.59-.74,4.67,4.67,0,0,0-2.74.83,5.68,5.68,0,0,0-1.85,2.2,6.9,6.9,0,0,0-.68,3v1a8,8,0,0,0,.68,3.41,5.18,5.18,0,0,0,1.92,2.25,5.91,5.91,0,0,0,5,.44,4.66,4.66,0,0,0,1.48-1,4.4,4.4,0,0,0,.91-1.35l1.8.59a5.49,5.49,0,0,1-1.22,1.91,6.33,6.33,0,0,1-2.11,1.4A7.52,7.52,0,0,1,176.39,71.29Z"/><path d="M193.44,77.43a9,9,0,0,1-2.93-.43,6.38,6.38,0,0,1-2.12-1.18,5.58,5.58,0,0,1-1.34-1.67l1.55-1a6,6,0,0,0,1,1.21,4.55,4.55,0,0,0,1.54,1,6.23,6.23,0,0,0,2.35.4A5.41,5.41,0,0,0,197,74.64a4.1,4.1,0,0,0,1.34-3.38V67.58h-.17a6.47,6.47,0,0,1-1,1.48,4.64,4.64,0,0,1-1.62,1.23,5.47,5.47,0,0,1-2.46.49,6.29,6.29,0,0,1-3.48-1A6.58,6.58,0,0,1,187.22,67a9.87,9.87,0,0,1-.86-4.31,10.65,10.65,0,0,1,.84-4.37,7,7,0,0,1,2.37-2.94,6.11,6.11,0,0,1,3.55-1.05,5.28,5.28,0,0,1,2.49.52,5.1,5.1,0,0,1,1.6,1.31,8.21,8.21,0,0,1,.94,1.51h.19V54.59h1.85V71.38a6.12,6.12,0,0,1-.88,3.42,5.3,5.3,0,0,1-2.41,2A8.79,8.79,0,0,1,193.44,77.43Zm-.13-8.38a4.48,4.48,0,0,0,4.41-3,8.79,8.79,0,0,0,.6-3.4,9.26,9.26,0,0,0-.59-3.41A5.28,5.28,0,0,0,196,57a4.74,4.74,0,0,0-5.49,0,5.38,5.38,0,0,0-1.7,2.38,9.32,9.32,0,0,0-.58,3.34,8.73,8.73,0,0,0,.59,3.31,5,5,0,0,0,1.71,2.23A4.61,4.61,0,0,0,193.31,69.05Z"/><path d="M215.62,64.7V54.59h1.9V71h-1.9V68.24h-.15a5,5,0,0,1-1.82,2.09,5.34,5.34,0,0,1-3.05.84,5.54,5.54,0,0,1-2.78-.69,4.77,4.77,0,0,1-1.9-2,6.93,6.93,0,0,1-.7-3.27V54.59h1.9V65.07a4.27,4.27,0,0,0,1.13,3.09,3.88,3.88,0,0,0,2.9,1.16,4.54,4.54,0,0,0,2.13-.53A4.32,4.32,0,0,0,215,67.23,4.58,4.58,0,0,0,215.62,64.7Z"/><path d="M224.42,49.14V71h-1.9V49.14Z"/><path d="M234,71.33a6.36,6.36,0,0,1-2.71-.58,4.65,4.65,0,0,1-1.95-1.69,4.79,4.79,0,0,1-.72-2.68,4.1,4.1,0,0,1,.46-2,3.63,3.63,0,0,1,1.3-1.37,7.41,7.41,0,0,1,2-.84,20.37,20.37,0,0,1,2.53-.48l2.33-.29a4.38,4.38,0,0,0,1.45-.41.93.93,0,0,0,.51-.89v-.39a3.5,3.5,0,0,0-1-2.63,3.92,3.92,0,0,0-2.86-1,4.9,4.9,0,0,0-2.88.78,4.27,4.27,0,0,0-1.56,1.83l-1.8-.65a5.46,5.46,0,0,1,1.53-2.15,6.24,6.24,0,0,1,2.19-1.16,9,9,0,0,1,2.47-.35,8.52,8.52,0,0,1,1.95.24,5.56,5.56,0,0,1,1.89.85,4.41,4.41,0,0,1,1.42,1.67,6,6,0,0,1,.54,2.71V71h-1.89V68.36h-.12a5.2,5.2,0,0,1-1,1.41,5.14,5.14,0,0,1-1.69,1.12A5.93,5.93,0,0,1,234,71.33Zm.25-1.74a4.93,4.93,0,0,0,2.62-.67,4.59,4.59,0,0,0,1.71-1.79,5.09,5.09,0,0,0,.61-2.45V62.31a1.93,1.93,0,0,1-.71.37,10.59,10.59,0,0,1-1.14.28l-1.29.21-1.15.15a10.46,10.46,0,0,0-2.36.53,3.34,3.34,0,0,0-1.5,1,2.49,2.49,0,0,0-.53,1.63,2.76,2.76,0,0,0,1.07,2.31A4.28,4.28,0,0,0,234.25,69.59Z"/><path d="M246.12,71V54.59H248V57.1h.14a4.11,4.11,0,0,1,1.71-2,5.1,5.1,0,0,1,2.77-.76h.52l.48,0v1.93l-.45-.07a4.93,4.93,0,0,0-.69,0,4.74,4.74,0,0,0-2.28.54A4,4,0,0,0,248,60.39V71Z"/></g></svg>