<svg xmlns="http://www.w3.org/2000/svg" viewBox="0 0 648 648"><defs><style>.cls-1{fill:#ff5e3f;}</style></defs><g id="Background"><rect class="cls-1" width="648" height="648"/></g><g id="Layer_1" data-name="Layer 1"><path d="M47,492.64V423.55H74.71a31.38,31.38,0,0,1,12.72,2.26,16.89,16.89,0,0,1,7.65,6.26,16.64,16.64,0,0,1,2.57,9.19,14.91,14.91,0,0,1-1.62,7.1,13.77,13.77,0,0,1-4.44,5,18.16,18.16,0,0,1-6.42,2.75v.68a15.43,15.43,0,0,1,7.4,2.23,15.75,15.75,0,0,1,5.62,5.75,17.1,17.1,0,0,1,2.16,8.79,18,18,0,0,1-2.72,9.8,18.48,18.48,0,0,1-8,6.79,30.42,30.42,0,0,1-13.06,2.5Zm14.61-40.18H72.48a12.81,12.81,0,0,0,5.35-1.06,9,9,0,0,0,3.71-3,8,8,0,0,0,1.37-4.69,7.62,7.62,0,0,0-2.65-6q-2.66-2.29-7.51-2.29H61.65Zm0,28.24H73.56q6.1,0,8.91-2.35a7.77,7.77,0,0,0,2.8-6.26A9.24,9.24,0,0,0,83.88,467,9.45,9.45,0,0,0,80,463.59a13.61,13.61,0,0,0-6-1.24H61.65Z"/><path d="M133,493.65a26.42,26.42,0,0,1-13.58-3.35,22.75,22.75,0,0,1-8.82-9.38,33.16,33.16,0,0,1,0-28,22.75,22.75,0,0,1,8.82-9.38A26.42,26.42,0,0,1,133,440.15a26.42,26.42,0,0,1,13.58,3.35,22.75,22.75,0,0,1,8.82,9.38,33.25,33.25,0,0,1,0,28,22.75,22.75,0,0,1-8.82,9.38A26.42,26.42,0,0,1,133,493.65Zm.07-11.13a8.9,8.9,0,0,0,6-2,12.59,12.59,0,0,0,3.62-5.58,26.85,26.85,0,0,0,0-16.13,12.71,12.71,0,0,0-3.62-5.6,8.86,8.86,0,0,0-6-2.06,9.1,9.1,0,0,0-6.06,2.06,12.47,12.47,0,0,0-3.68,5.6,27.06,27.06,0,0,0,0,16.13,12.35,12.35,0,0,0,3.68,5.58A9.14,9.14,0,0,0,133,482.52Z"/><path d="M201.08,470.58V440.82h14.37v51.82h-13.8v-9.41h-.54a15.31,15.31,0,0,1-5.81,7.32,19,19,0,0,1-19.05.4,16.16,16.16,0,0,1-6.16-6.71,23.09,23.09,0,0,1-2.24-10.42v-33h14.37v30.43a10.49,10.49,0,0,0,2.47,7.25,8.36,8.36,0,0,0,6.51,2.67,10.16,10.16,0,0,0,4.85-1.2,9.2,9.2,0,0,0,3.66-3.56A11,11,0,0,0,201.08,470.58Z"/><path d="M241.29,462.68v30H226.92V440.82h13.7V450h.61A14.51,14.51,0,0,1,247,442.8a17.53,17.53,0,0,1,9.82-2.65,18.14,18.14,0,0,1,9.41,2.36,16,16,0,0,1,6.24,6.73,22.59,22.59,0,0,1,2.23,10.41v33H260.32V462.21q0-4.75-2.43-7.44a8.73,8.73,0,0,0-6.78-2.68,10.24,10.24,0,0,0-5.11,1.25,8.6,8.6,0,0,0-3.44,3.62A12.74,12.74,0,0,0,241.29,462.68Z"/><path d="M305.09,493.48a19.35,19.35,0,0,1-10.68-3.05,20.81,20.81,0,0,1-7.56-9,34.48,34.48,0,0,1-2.78-14.62q0-8.91,2.87-14.83a20.65,20.65,0,0,1,7.64-8.87,19.49,19.49,0,0,1,10.47-3,16.2,16.2,0,0,1,7.27,1.46,14.57,14.57,0,0,1,4.73,3.65,19.05,19.05,0,0,1,2.75,4.27h.43v-26h14.34v69.09H320.4v-8.3h-.6a18.65,18.65,0,0,1-2.86,4.27,14.38,14.38,0,0,1-4.75,3.49A16.53,16.53,0,0,1,305.09,493.48Zm4.55-11.43a9.21,9.21,0,0,0,5.89-1.91,12,12,0,0,0,3.71-5.35,25.73,25.73,0,0,0,0-16.09,11.59,11.59,0,0,0-3.72-5.26,9.39,9.39,0,0,0-5.9-1.86,9.28,9.28,0,0,0-6,1.93,11.74,11.74,0,0,0-3.68,5.33,22.92,22.92,0,0,0-1.25,7.89,23.24,23.24,0,0,0,1.27,8,12,12,0,0,0,3.68,5.4A9.19,9.19,0,0,0,309.64,482.05Z"/><path d="M360.72,423.55v69.09H346.34V423.55Z"/><path d="M395.8,493.65a27.5,27.5,0,0,1-13.75-3.25,22,22,0,0,1-8.85-9.25,33.56,33.56,0,0,1,0-28.22,22.92,22.92,0,0,1,8.75-9.41,25.41,25.41,0,0,1,13.28-3.37,27.46,27.46,0,0,1,9.56,1.63,21.59,21.59,0,0,1,7.76,4.91,22.44,22.44,0,0,1,5.18,8.22,32.92,32.92,0,0,1,1.85,11.55v4H375.83V461.5h30.23a11,11,0,0,0-1.35-5.5,9.9,9.9,0,0,0-3.73-3.76,10.91,10.91,0,0,0-5.52-1.36,11,11,0,0,0-5.78,1.5,10.72,10.72,0,0,0-3.93,4A11.37,11.37,0,0,0,384.3,462v8.47a14.37,14.37,0,0,0,1.43,6.65,10.33,10.33,0,0,0,4.06,4.32,12.34,12.34,0,0,0,6.25,1.51,13.59,13.59,0,0,0,4.38-.67,9.25,9.25,0,0,0,3.41-2,9,9,0,0,0,2.16-3.31l13.29.88a18.13,18.13,0,0,1-4.13,8.35,20.85,20.85,0,0,1-8,5.53A30.3,30.3,0,0,1,395.8,493.65Z"/><path d="M472.08,455.6l-13.16.81a7,7,0,0,0-1.45-3.06,8,8,0,0,0-2.92-2.19,10.28,10.28,0,0,0-4.3-.82,10.52,10.52,0,0,0-5.63,1.4,4.22,4.22,0,0,0-2.3,3.72,4,4,0,0,0,1.49,3.14,11.71,11.71,0,0,0,5.09,2.06l9.38,1.89q7.56,1.54,11.27,5a11.76,11.76,0,0,1,3.71,9,14.16,14.16,0,0,1-3,8.94,19.47,19.47,0,0,1-8.16,6,31,31,0,0,1-11.93,2.14q-10.29,0-16.38-4.3a16.58,16.58,0,0,1-7.13-11.72l14.13-.74a7.22,7.22,0,0,0,3.11,4.77,13.15,13.15,0,0,0,12.4.17,4.46,4.46,0,0,0,2.34-3.8,4,4,0,0,0-1.65-3.22,12.12,12.12,0,0,0-5-1.94l-9-1.79q-7.59-1.51-11.28-5.26a13,13,0,0,1-3.7-9.55,13.9,13.9,0,0,1,2.72-8.6,17.26,17.26,0,0,1,7.65-5.57,31.51,31.51,0,0,1,11.59-2q9.83,0,15.47,4.15A16,16,0,0,1,472.08,455.6Z"/><path d="M525.45,455.6l-13.16.81a7,7,0,0,0-1.45-3.06,8,8,0,0,0-2.92-2.19,10.28,10.28,0,0,0-4.3-.82,10.58,10.58,0,0,0-5.64,1.4,4.22,4.22,0,0,0-2.29,3.72,4,4,0,0,0,1.48,3.14,11.76,11.76,0,0,0,5.1,2.06l9.38,1.89q7.56,1.54,11.27,5a11.76,11.76,0,0,1,3.71,9,14.16,14.16,0,0,1-3,8.94,19.47,19.47,0,0,1-8.16,6,31,31,0,0,1-11.93,2.14q-10.29,0-16.38-4.3A16.58,16.58,0,0,1,480,477.63l14.13-.74a7.18,7.18,0,0,0,3.11,4.77,13.13,13.13,0,0,0,12.39.17A4.47,4.47,0,0,0,512,478a4,4,0,0,0-1.65-3.22,12.12,12.12,0,0,0-5-1.94l-9-1.79q-7.59-1.51-11.29-5.26a13,13,0,0,1-3.69-9.55,13.9,13.9,0,0,1,2.72-8.6,17.26,17.26,0,0,1,7.65-5.57,31.51,31.51,0,0,1,11.59-2q9.83,0,15.47,4.15A16,16,0,0,1,525.45,455.6Z"/><path d="M47,602.64V533.55H74.71a31.38,31.38,0,0,1,12.72,2.26,16.89,16.89,0,0,1,7.65,6.26,16.64,16.64,0,0,1,2.57,9.19,14.91,14.91,0,0,1-1.62,7.1,13.77,13.77,0,0,1-4.44,5,18.16,18.16,0,0,1-6.42,2.75v.68a15.43,15.43,0,0,1,7.4,2.23,15.75,15.75,0,0,1,5.62,5.75,17.1,17.1,0,0,1,2.16,8.79,18,18,0,0,1-2.72,9.8,18.48,18.48,0,0,1-8,6.79,30.42,30.42,0,0,1-13.06,2.5Zm14.61-40.18H72.48a12.81,12.81,0,0,0,5.35-1.06,9,9,0,0,0,3.71-3,8,8,0,0,0,1.37-4.69,7.62,7.62,0,0,0-2.65-6q-2.66-2.29-7.51-2.29H61.65Zm0,28.24H73.56q6.1,0,8.91-2.35a7.77,7.77,0,0,0,2.8-6.26A9.24,9.24,0,0,0,83.88,577,9.45,9.45,0,0,0,80,573.59a13.61,13.61,0,0,0-6-1.24H61.65Z"/><path d="M124.33,603.62a21.42,21.42,0,0,1-8.84-1.74,14,14,0,0,1-6.12-5.16,17.45,17.45,0,0,1-.66-15.81,12.91,12.91,0,0,1,4.32-4.72,21,21,0,0,1,6.23-2.7,47.86,47.86,0,0,1,7.33-1.28q4.53-.47,7.29-.89a10.17,10.17,0,0,0,4-1.27,2.8,2.8,0,0,0,1.25-2.5v-.2a6.27,6.27,0,0,0-2-5,8.39,8.39,0,0,0-5.69-1.75,10.15,10.15,0,0,0-6.17,1.7,8,8,0,0,0-3,4.27L109,565.53a18.13,18.13,0,0,1,4-8.18A19.32,19.32,0,0,1,120.6,552a29.39,29.39,0,0,1,10.92-1.87,33.07,33.07,0,0,1,8.28,1,21.72,21.72,0,0,1,7,3.14,15.33,15.33,0,0,1,4.88,5.45,16.54,16.54,0,0,1,1.78,7.94v34.95H139.88v-7.19h-.4a14.38,14.38,0,0,1-3.34,4.27,15,15,0,0,1-5,2.87A20.3,20.3,0,0,1,124.33,603.62Zm4.12-9.92a12,12,0,0,0,5.6-1.26,9.83,9.83,0,0,0,3.81-3.43,8.89,8.89,0,0,0,1.38-4.89v-5.5a7.24,7.24,0,0,1-1.83.79,25.85,25.85,0,0,1-2.62.64c-1,.2-1.93.36-2.9.51l-2.63.39a17.86,17.86,0,0,0-4.42,1.18,7.16,7.16,0,0,0-2.94,2.17,5.5,5.5,0,0,0-1,3.4,5.16,5.16,0,0,0,2.14,4.47A9.14,9.14,0,0,0,128.45,593.7Z"/><path d="M164.41,602.64v-8.57l25.37-31.41v-.37H165.29V550.82h41.8v9.35L183.27,590.8v.37H208v11.47Z"/><path d="M233.77,603.62a21.39,21.39,0,0,1-8.84-1.74,13.94,13.94,0,0,1-6.12-5.16,17.37,17.37,0,0,1-.66-15.81,12.91,12.91,0,0,1,4.32-4.72,21.09,21.09,0,0,1,6.22-2.7,48.21,48.21,0,0,1,7.34-1.28q4.51-.47,7.29-.89a10.17,10.17,0,0,0,4-1.27,2.82,2.82,0,0,0,1.25-2.5v-.2a6.24,6.24,0,0,0-2-5,8.36,8.36,0,0,0-5.68-1.75,10.18,10.18,0,0,0-6.18,1.7,8,8,0,0,0-3,4.27l-13.29-1.08a18.13,18.13,0,0,1,4-8.18A19.25,19.25,0,0,1,230,552,29.39,29.39,0,0,1,241,550.15a33.12,33.12,0,0,1,8.28,1,21.72,21.72,0,0,1,7.05,3.14,15.21,15.21,0,0,1,4.87,5.45,16.42,16.42,0,0,1,1.79,7.94v34.95H249.32v-7.19h-.4a14.54,14.54,0,0,1-3.34,4.27,15.1,15.1,0,0,1-5,2.87A20.39,20.39,0,0,1,233.77,603.62Zm4.12-9.92a12,12,0,0,0,5.6-1.26A9.83,9.83,0,0,0,247.3,589a8.89,8.89,0,0,0,1.38-4.89v-5.5a7.17,7.17,0,0,1-1.84.79,25.62,25.62,0,0,1-2.61.64c-1,.2-1.94.36-2.9.51l-2.63.39a17.86,17.86,0,0,0-4.42,1.18,7.16,7.16,0,0,0-2.94,2.17,5.44,5.44,0,0,0-1,3.4,5.16,5.16,0,0,0,2.14,4.47A9.14,9.14,0,0,0,237.89,593.7Z"/><path d="M288.89,603.62a21.42,21.42,0,0,1-8.84-1.74,14,14,0,0,1-6.12-5.16,17.45,17.45,0,0,1-.66-15.81,12.91,12.91,0,0,1,4.32-4.72,21,21,0,0,1,6.23-2.7,47.86,47.86,0,0,1,7.33-1.28q4.53-.47,7.29-.89a10.29,10.29,0,0,0,4-1.27,2.81,2.81,0,0,0,1.24-2.5v-.2a6.27,6.27,0,0,0-2-5,8.39,8.39,0,0,0-5.69-1.75,10.17,10.17,0,0,0-6.17,1.7,8,8,0,0,0-3,4.27l-13.29-1.08a18.24,18.24,0,0,1,4-8.18,19.28,19.28,0,0,1,7.68-5.33,29.3,29.3,0,0,1,10.91-1.87,33.07,33.07,0,0,1,8.28,1,21.72,21.72,0,0,1,7.05,3.14,15.33,15.33,0,0,1,4.88,5.45,16.54,16.54,0,0,1,1.79,7.94v34.95H304.45v-7.19H304a14.22,14.22,0,0,1-3.34,4.27,15,15,0,0,1-5,2.87A20.3,20.3,0,0,1,288.89,603.62ZM293,593.7a12,12,0,0,0,5.6-1.26,9.83,9.83,0,0,0,3.81-3.43,8.89,8.89,0,0,0,1.38-4.89v-5.5a7.24,7.24,0,0,1-1.83.79,25.85,25.85,0,0,1-2.62.64c-1,.2-1.93.36-2.9.51l-2.63.39a17.86,17.86,0,0,0-4.42,1.18,7.16,7.16,0,0,0-2.94,2.17,5.5,5.5,0,0,0-1,3.4,5.16,5.16,0,0,0,2.14,4.47A9.17,9.17,0,0,0,293,593.7Z"/><path d="M329.24,602.64V550.82h13.93v9h.54a13.48,13.48,0,0,1,4.76-7.3,12.58,12.58,0,0,1,7.69-2.48,21.67,21.67,0,0,1,2.33.13,15.92,15.92,0,0,1,2.19.38v12.75a19.36,19.36,0,0,0-2.8-.54,24.7,24.7,0,0,0-3.27-.24,11.52,11.52,0,0,0-5.65,1.37,10.1,10.1,0,0,0-3.91,3.79,10.78,10.78,0,0,0-1.44,5.6v29.32Z"/><path d="M50.25,49.14V71h-2V49.14Z"/><path d="M73,49.14V71H71.1L58.21,52.68H58V71h-2V49.14H58L70.91,67.43h.17V49.14Z"/><path d="M77.51,50.93V49.14H93.33v1.79H86.42V71h-2v-20Z"/><path d="M97.81,71V49.14h12.65v1.79H99.8v8.21h10v1.79h-10v8.23h10.88V71Z"/><path d="M115.61,71V49.14h7a8.1,8.1,0,0,1,3.88.83,5.66,5.66,0,0,1,2.36,2.31,7,7,0,0,1,.79,3.39,6.89,6.89,0,0,1-.79,3.36,5.45,5.45,0,0,1-2.35,2.28,8.17,8.17,0,0,1-3.86.82h-6V60.31h5.95a6.47,6.47,0,0,0,2.84-.56,3.82,3.82,0,0,0,1.69-1.61,5.2,5.2,0,0,0,.56-2.47,5.33,5.33,0,0,0-.56-2.5,3.9,3.9,0,0,0-1.7-1.66,6.22,6.22,0,0,0-2.86-.58h-5V71Zm9.62-9.84L130.6,71h-2.3L123,61.11Z"/><path d="M151.41,71V49.14h7.36a7.57,7.57,0,0,1,3.56.74,5,5,0,0,1,2.13,2,5.89,5.89,0,0,1,.72,2.93,5.53,5.53,0,0,1-.46,2.33,4,4,0,0,1-1.25,1.56,5.13,5.13,0,0,1-1.75.87v.17a4.1,4.1,0,0,1,2,.74,5,5,0,0,1,1.63,1.86,6.45,6.45,0,0,1-.1,5.8,5,5,0,0,1-2.25,2,8.71,8.71,0,0,1-3.86.74Zm2-12H159a4.62,4.62,0,0,0,2.25-.53A3.91,3.91,0,0,0,162.73,57a4.23,4.23,0,0,0,.54-2.14A3.77,3.77,0,0,0,162.14,52a4.65,4.65,0,0,0-3.37-1.09h-5.36Zm0,10.17h5.77a5.36,5.36,0,0,0,3.73-1.11,3.68,3.68,0,0,0,1.21-2.82,4.33,4.33,0,0,0-2.29-3.88,5.35,5.35,0,0,0-2.56-.59h-5.86Z"/><path d="M176.8,71.29a6.59,6.59,0,0,1-3.74-1.07,7.31,7.31,0,0,1-2.55-3,10,10,0,0,1-.91-4.39,10.13,10.13,0,0,1,.91-4.43,7.24,7.24,0,0,1,2.55-3,6.59,6.59,0,0,1,3.74-1.07,6.66,6.66,0,0,1,3.74,1.07,7.25,7.25,0,0,1,2.54,3,11.06,11.06,0,0,1,0,8.81,7.31,7.31,0,0,1-2.55,3A6.59,6.59,0,0,1,176.8,71.29Zm0-1.73a4.58,4.58,0,0,0,2.89-.92,5.66,5.66,0,0,0,1.79-2.44,8.84,8.84,0,0,0,.61-3.35,8.94,8.94,0,0,0-.61-3.37A5.78,5.78,0,0,0,179.69,57a4.94,4.94,0,0,0-5.77,0,5.8,5.8,0,0,0-1.8,2.46,8.94,8.94,0,0,0-.61,3.37,8.84,8.84,0,0,0,.61,3.35,5.66,5.66,0,0,0,1.79,2.44A4.58,4.58,0,0,0,176.8,69.56Z"/><path d="M190.06,49.14V71h-1.89V49.14Z"/><path d="M201,71.29a5.93,5.93,0,0,1-3.52-1.06,7,7,0,0,1-2.36-3,10.81,10.81,0,0,1-.85-4.45,10.69,10.69,0,0,1,.85-4.42,6.83,6.83,0,0,1,2.37-3A6,6,0,0,1,201,54.37a5.31,5.31,0,0,1,2.49.52,4.8,4.8,0,0,1,1.58,1.31,7.63,7.63,0,0,1,.93,1.51h.17V49.14h1.91V71h-1.86v-3H206a7.63,7.63,0,0,1-.94,1.53,4.86,4.86,0,0,1-1.6,1.31A5.19,5.19,0,0,1,201,71.29Zm.23-1.73a4.26,4.26,0,0,0,2.7-.87,5.37,5.37,0,0,0,1.71-2.4,10.7,10.7,0,0,0,0-7A5.3,5.3,0,0,0,203.9,57a4.73,4.73,0,0,0-5.48,0,5.45,5.45,0,0,0-1.7,2.4,9.4,9.4,0,0,0-.58,3.4,9.59,9.59,0,0,0,.58,3.44,5.56,5.56,0,0,0,1.71,2.44A4.28,4.28,0,0,0,201.19,69.56Z"/></g></svg>