<svg xmlns="http://www.w3.org/2000/svg" viewBox="0 0 648 648"><defs><style>.cls-1{fill:#ed6b47;}.cls-2{fill:#70bfef;}.cls-3{fill:#1c2575;}</style></defs><g id="Layer_1" data-name="Layer 1"><circle class="cls-1" cx="265.18" cy="283.79" r="97.1"/><path class="cls-1" d="M419.05,534.76h0c0-84.63-69.24-153.87-153.87-153.87h0c-84.63,0-153.87,69.24-153.87,153.87H419.05Z"/><path class="cls-2" d="M252.82,534.76h0c0-84.63,69.24-153.87,153.87-153.87h0c84.63,0,153.87,69.24,153.87,153.87H252.82Z"/><path class="cls-3" d="M497.36,119.86a9.23,9.23,0,0,0-.49-1.57c-.11-.25-.22-.49-.35-.73a9.14,9.14,0,0,0-.9-1.33c-.17-.2-.35-.4-.54-.59a8.34,8.34,0,0,0-5.91-2.45A35.2,35.2,0,0,1,454,78a8.36,8.36,0,1,0-16.71,0,35.2,35.2,0,0,1-35.16,35.16,8.34,8.34,0,0,0-5.91,2.45c-.19.19-.37.39-.54.59a9.14,9.14,0,0,0-.9,1.33,7,7,0,0,0-.35.73,8.42,8.42,0,0,0-.49,1.57,8.57,8.57,0,0,0-.17,1.69,8.35,8.35,0,0,0,8.36,8.35,35.2,35.2,0,0,1,35.16,35.16,8.36,8.36,0,1,0,16.71,0,35.2,35.2,0,0,1,35.16-35.16,8.35,8.35,0,0,0,8.36-8.35A8.57,8.57,0,0,0,497.36,119.86Z"/><path class="cls-3" d="M590.83,196.35a35.21,35.21,0,0,1-35.17-35.17,8.36,8.36,0,0,0-16.71,0,35.2,35.2,0,0,1-35.16,35.17,8.36,8.36,0,0,0,0,16.71A35.2,35.2,0,0,1,539,248.22a8.36,8.36,0,0,0,16.71,0,35.2,35.2,0,0,1,35.17-35.16,8.36,8.36,0,0,0,0-16.71Z"/><path class="cls-3" d="M144.21,365.41a35.2,35.2,0,0,1-35.16-35.16,8.36,8.36,0,1,0-16.71,0,35.21,35.21,0,0,1-35.17,35.16,8.36,8.36,0,0,0,0,16.71,35.2,35.2,0,0,1,35.17,35.16,8.36,8.36,0,1,0,16.71,0,35.2,35.2,0,0,1,35.16-35.16,8.36,8.36,0,0,0,0-16.71Z"/><circle class="cls-2" cx="406.69" cy="283.79" r="97.1"/></g></svg>