<svg xmlns="http://www.w3.org/2000/svg" xmlns:xlink="http://www.w3.org/1999/xlink" viewBox="0 0 648 648"><defs><style>.cls-1{fill:#f5f6fc;}.cls-2{clip-path:url(#clip-path);}.cls-3{fill:#ed6b47;}.cls-4{fill:#fff;}.cls-5{fill:#1c2575;}.cls-6{fill:#f5f6fb;}</style><clipPath id="clip-path"><rect class="cls-1" width="648" height="648"/></clipPath></defs><g id="Layer_1" data-name="Layer 1"><rect class="cls-1" width="648" height="648"/><g class="cls-2"><path class="cls-3" d="M500.32,225.4a25.41,25.41,0,0,0-.21,24.88H523.9A24.5,24.5,0,0,0,527.06,238a25.38,25.38,0,0,0-1.93-9.81Z"/><path class="cls-3" d="M558.41,228.11a22.64,22.64,0,0,1,.18,22.17h-21.2a21.78,21.78,0,0,1-2.81-10.92,22.51,22.51,0,0,1,1.72-8.74Z"/><path class="cls-3" d="M263.64,369.52c-7.81-16.08,9.76-28.61,15.66-33,8.82-6.62,28-22.56,28-22.56s7.82,20.22,30.33,20.22c0,0,23.48.92,31.73-15.62,0,0,18-5.87,30.63,13.48s24.87,40.67,24.87,40.67Z"/><path class="cls-4" d="M317,324.69l13.17,47.15,34.47.19,10.9-54.61-5.78.35S347.57,349.28,317,324.69Z"/><rect class="cls-5" x="177.94" y="578.41" width="309.64" height="3.7"/><path class="cls-3" d="M94.65,250.28C85,232.36,97.76,222,97.76,222l-3.11-23.4s18.61-12.57,33.43,2.76l-4.82,22.06s10.34,13.79-3.79,26.88"/><polyline class="cls-3" points="252.68 250.28 245.6 212.36 276.5 212.36 269.73 250.28"/><path class="cls-5" d="M264.85,373.24a1.84,1.84,0,0,1-1.64-1c-9.81-18.66,8.76-32.59,14.86-37.16l.12-.09c8.71-6.54,29.36-22.39,29.57-22.55a1.85,1.85,0,0,1,2.26,2.94c-.21.16-20.88,16-29.61,22.57l-.12.09c-9.5,7.13-21.28,18.26-13.8,32.48a1.86,1.86,0,0,1-.78,2.5A1.91,1.91,0,0,1,264.85,373.24Z"/><rect class="cls-5" x="274.71" y="-12.77" width="120.42" height="4.17" transform="translate(343.09 324.31) rotate(-89.57)"/><path class="cls-5" d="M346.87,74.62H321.44a1.85,1.85,0,1,1,0-3.7h25.43a1.85,1.85,0,1,1,0,3.7Z"/><path class="cls-5" d="M327,72.77A15.84,15.84,0,0,1,324,63.14c0-7.52,4.69-13.61,10.48-13.61s10.48,6.09,10.48,13.61a15.88,15.88,0,0,1-3.07,9.62"/><path class="cls-5" d="M325.39,74a17.87,17.87,0,0,1-3.51-10.9c0-8.66,5.64-15.7,12.57-15.7s12.56,7,12.56,15.7A17.86,17.86,0,0,1,343.51,74l-3.31-2.55a13.67,13.67,0,0,0,2.64-8.34c0-6.36-3.77-11.52-8.39-11.52s-8.4,5.16-8.4,11.52a13.65,13.65,0,0,0,2.65,8.35Z"/><path class="cls-5" d="M334.76,113.39c-8.87,0-15.82-10.2-15.82-23.23,0-7.49,2.45-14.54,6.54-18.87l3,2.87c-3.38,3.57-5.39,9.55-5.39,16,0,10.33,5.33,19,11.64,19s11.65-8.72,11.65-19c0-6.66-2.12-12.75-5.67-16.28l2.95-3c4.31,4.3,6.89,11.49,6.89,19.24C350.58,103.19,343.63,113.39,334.76,113.39Z"/><path class="cls-5" d="M297.37,252.13h-255l-.43-1.24c-.14-.41-14-41.38,9.52-73.49,20.07-27.34,60.45-40.28,120-38.44,53,1.64,98.63,5.24,119.59,32.84,13.25,17.46,15.44,43.27,6.68,78.92ZM45,248.43H294.46c8.08-33.76,6-58.11-6.37-74.39-20-26.3-64.69-29.77-116.76-31.38-58.26-1.79-97.59,10.62-116.9,36.9C34.27,207,43,241.5,45,248.43Z"/><polyline class="cls-5" points="503.06 491.05 503.06 557.69 540.02 557.69 546.79 497.81"/><path class="cls-5" d="M558.77,499.67h-.17L478,492.72,492.9,395a1.85,1.85,0,1,1,3.66.55l-14.28,93.84,76.64,6.6a1.85,1.85,0,0,1-.15,3.7Z"/><path class="cls-5" d="M424.41,373.71a1.86,1.86,0,0,1-1.64-1c-.11-.22-12-22.52-24.3-39.65-9.62-13.43-18.91-13.29-21.92-12.81l-5.39,25.39a1.85,1.85,0,1,1-3.62-.77l5.86-27.59,1-.33c.56-.19,13.94-4.39,27.08,13.95C413.9,348.26,425.92,370.76,426,371a1.85,1.85,0,0,1-1.63,2.72Z"/><rect class="cls-5" x="321.38" y="323.79" width="3.7" height="48.96" transform="translate(-81.77 99.79) rotate(-15.61)"/><path class="cls-5" d="M458.36,196.34c-3.27,0-13.93-.34-13.93-4.74s10.66-4.75,13.93-4.75,13.93.34,13.93,4.75S461.63,196.34,458.36,196.34Zm-9-4.74a39.81,39.81,0,0,0,18.08,0,39.81,39.81,0,0,0-18.08,0Z"/><path class="cls-5" d="M438.74,225.7c-7.28-.72-12.18-3.78-12.18-7.61,0-4.42,6.61-7.76,15.37-7.76V214c-7,0-11.67,2.45-11.67,4.06,0,1.25,3.15,3.36,8.85,3.93Z"/><path class="cls-5" d="M476.55,225.7l-.37-3.69c5.67-.57,8.8-2.68,8.8-3.92,0-1.61-4.65-4.06-11.67-4.06v-3.7c8.77,0,15.38,3.34,15.38,7.76C488.69,222,483.92,225,476.55,225.7Z"/><path class="cls-5" d="M438.78,250.69a71,71,0,0,1-1.72-15.81c0-10.79,2.31-21.08,6.35-28.43-1.27-3.58-1.43-10.13,5.65-14.35l1.9,3.18c-6.63,4-4.12,9.85-3.81,10.51a1.89,1.89,0,0,1-.08,1.73c-4,6.84-6.31,16.81-6.31,27.36a67.32,67.32,0,0,0,1.63,15Z"/><path class="cls-5" d="M477.06,249.82l-3.63-.78a67.71,67.71,0,0,0,1.45-14.16c0-10.29-2.21-20.1-6.05-26.92a1.85,1.85,0,0,1,0-1.78c.14-.26,3.35-6.55-1.81-11.62l2.59-2.64A13.62,13.62,0,0,1,472.52,207c3.86,7.3,6.06,17.39,6.06,27.89A71.74,71.74,0,0,1,477.06,249.82Z"/><path class="cls-5" d="M449,226.54h0a1.84,1.84,0,0,1-1.8-1.89c.22-8.68,7.62-13.63,7.93-13.84a1.86,1.86,0,1,1,2,3.1c-.08.05-6.1,4.14-6.27,10.83A1.84,1.84,0,0,1,449,226.54Z"/><path class="cls-5" d="M120.73,251.64l-2.52-2.72c12.76-11.82,4-23.9,3.57-24.41l-.51-.68,4.79-21.9A21.5,21.5,0,0,0,106.27,196a32.2,32.2,0,0,0-9.62,3.53l3.08,23.23-.81.65c-.46.38-11.41,9.69-2.64,26L93,251.16c-5.33-9.9-4.11-17.67-2.15-22.45a22.9,22.9,0,0,1,4.92-7.43l-3.12-23.59,1-.64c.19-.13,20.08-13.26,35.8,3l.68.72L125.24,223C129,228.61,132.35,240.86,120.73,251.64Z"/><path class="cls-5" d="M113.86,204.51c-13.81,0-20-4.18-20.27-4.41l2.12-3c.1.07,9.61,6.37,32.06,2.46l.63,3.65A84.79,84.79,0,0,1,113.86,204.51Z"/><path class="cls-5" d="M94.65,198.58s9.76,6.89,33.43,2.76C128.08,201.34,116.94,185.49,94.65,198.58Z"/><ellipse class="cls-5" cx="337.56" cy="302.49" rx="2.24" ry="5"/><ellipse class="cls-5" cx="356.15" cy="306.33" rx="2.24" ry="5"/><path class="cls-5" d="M349.13,320.4l-9.73-1.25a1.85,1.85,0,1,1,.47-3.68l5.43.7-.45-14.78a1.85,1.85,0,1,1,3.7-.11Z"/><path class="cls-5" d="M333,295.51a1.92,1.92,0,0,1-1-.3,1.85,1.85,0,0,1-.53-2.56c3.58-5.5,8.75-4.89,11-3.8a1.85,1.85,0,0,1-1.61,3.34c-.38-.18-3.65-1.52-6.26,2.48A1.84,1.84,0,0,1,333,295.51Z"/><path class="cls-5" d="M363.6,302a1.85,1.85,0,0,1-1.85-1.82c-.09-4.73-3.63-5.09-4.34-5.11a1.88,1.88,0,0,1-1.8-1.9,1.85,1.85,0,0,1,1.88-1.81c2.7,0,7.84,1.93,8,8.75a1.85,1.85,0,0,1-1.82,1.89Z"/><path class="cls-5" d="M318.09,290.45h-.22a1.86,1.86,0,0,1-1.63-2.06l1-8.23a1.85,1.85,0,0,1,3.68.43l-1,8.23A1.85,1.85,0,0,1,318.09,290.45Z"/><path class="cls-5" d="M323.26,301h-.07a1.85,1.85,0,0,1-1.78-1.92l.69-17.39a1.85,1.85,0,0,1,3.7.15l-.69,17.38A1.85,1.85,0,0,1,323.26,301Z"/><ellipse class="cls-5" cx="196.58" cy="319.9" rx="1.39" ry="4.37"/><path class="cls-5" d="M185.08,366.61l-2.79-2.44c12.48-14.23,13.83-24.86,13.84-25l3.68.4C199.76,340.08,198.41,351.41,185.08,366.61Z"/><path class="cls-5" d="M194.35,351.67a1.87,1.87,0,0,1-.61-.11,15.42,15.42,0,0,1-9.09-10.29,1.85,1.85,0,0,1,3.58-1,11.66,11.66,0,0,0,6.75,7.76,1.86,1.86,0,0,1-.63,3.6Z"/><path class="cls-5" d="M150.56,251.67c-3.35-2.94-13.55-14.34-3.85-37.26,7.08-16.73-1.2-29.42-1.55-30l-1.93-2.88h36.44a3.26,3.26,0,0,1,1.5,6.15c-7.27,3.78-14.52,11.62-7.78,27.53,9.13,21.58-1.86,35.61-2.34,36.19l-2.88-2.32,1.44,1.16-1.44-1.16c.41-.52,10-13,1.8-32.43-7.68-18.15,1-27.27,8-31.42H149.82a37.07,37.07,0,0,1,.3,30.58c-8.73,20.64,0,30.51,2.89,33Z"/><polygon class="cls-5" points="215.46 250.74 211.87 249.82 220.95 214.21 189.78 214.21 196.42 249.94 192.78 250.62 185.32 210.51 225.71 210.51 215.46 250.74"/><ellipse class="cls-5" cx="414.02" cy="420.07" rx="1.49" ry="3.68" transform="translate(-72.23 86.25) rotate(-10.95)"/><path class="cls-5" d="M426.82,548.29H371.51l-.43-1.26c-7.85-23.3-1.92-48.5,4.44-65.53a163.24,163.24,0,0,1,15.77-31.6l3.07,2.08c-.34.5-33.5,50.16-20.18,92.6h49.74c1.39-6.18,6.44-32.07.17-57.14l3.6-.9c7.38,29.53-.18,59.12-.51,60.36Z"/><path class="cls-5" d="M378.25,539.83c-4.64,0-7.63-.23-7.85-.25l.29-3.69c.39,0,38.53,2.9,56.39-12.91l2.46,2.77c-8,7.12-20.46,11.61-36.92,13.34A138.63,138.63,0,0,1,378.25,539.83Z"/><path class="cls-5" d="M410.4,493.48c-4.49,0-8-1.26-10.4-3.75-5.1-5.25-3.28-13.86-3.2-14.23a1.85,1.85,0,0,1,3.62.79h0c0,.07-1.47,7.06,2.25,10.87,2.48,2.54,6.84,3.23,12.95,2.07,17.74-3.38,27.89-26.41,30.23-32.33L434,449.67c-1.85,4.29-7.75,13.63-26.31,25.05a1.85,1.85,0,1,1-1.94-3.15c23.31-14.35,25.39-24.88,25.41-25A1.85,1.85,0,0,1,434,445.3l15.14,9.24a1.84,1.84,0,0,1,.78,2.18,82.05,82.05,0,0,1-8.17,16.33c-7.27,11.18-16.05,18-25.38,19.82A32.43,32.43,0,0,1,410.4,493.48Z"/><path class="cls-5" d="M490,598.5c-6.37,0-11.15-1.58-14.22-4.71a11.51,11.51,0,0,1-3.34-7.91,1.86,1.86,0,0,1,1.12-1.63l31.82-13.76v-12.8a1.85,1.85,0,1,1,3.7,0v14a1.84,1.84,0,0,1-1.11,1.7l-31.71,13.71a8,8,0,0,0,2.22,4.13c2.46,2.46,6.57,3.65,12.26,3.54,15.77-.33,29-18.52,29.14-18.7a1.85,1.85,0,0,1,1.51-.78h3.58a1.86,1.86,0,0,1,1.86,1.86v15.27h4.28V557.29a1.86,1.86,0,0,1,3.71,0v37a1.85,1.85,0,0,1-1.86,1.85h-8a1.85,1.85,0,0,1-1.85-1.85V579h-.8c-2.86,3.72-15.66,19.15-31.51,19.47Z"/><path class="cls-5" d="M501.43,356.21a1.81,1.81,0,0,1-1.25-.49l-8.61-7.92a1.86,1.86,0,0,1,.29-2.95,13.71,13.71,0,0,0,6.11-11c-2.41,3-6.19,6.48-10.68,6.34a1.85,1.85,0,0,1,.11-3.7c4.41.12,8.78-6.08,10.09-8.49a1.86,1.86,0,0,1,3.41.38,17.35,17.35,0,0,1-5.18,18.23l5.48,5.05a33.91,33.91,0,0,0,5.57-15.44c1.64-14.47-4.87-31-18.83-47.85a1.85,1.85,0,0,1,2.85-2.37c10.26,12.37,22,31.24,19.63,50.9-1.44,12-7.38,18.48-7.63,18.75A1.87,1.87,0,0,1,501.43,356.21Z"/><path class="cls-5" d="M445.32,456.26a1.89,1.89,0,0,1-1.18-.42,1.86,1.86,0,0,1-.25-2.61c2-2.44,5.23-6.5,6.4-8.34l-.32,0a1.85,1.85,0,0,1-1.7-1.14,1.89,1.89,0,0,1,.4-2c5.71-5.74,6.39-7.79,6.44-8.36h0c-2.14,0-9.38,4.26-13.4,8.39-2.07,2.12-2.34,6.38-2.26,7.85a1.85,1.85,0,0,1-3.7.19c0-.28-.33-6.9,3.31-10.63,3.3-3.39,11.87-9.63,16.34-9.49a3.41,3.41,0,0,1,2.57,1.14c2.29,2.69,0,6.53-4.61,11.42a2.89,2.89,0,0,1,.58.67,3,3,0,0,1,.09,2.95c-1,2.11-6.21,8.5-7.25,9.76A1.84,1.84,0,0,1,445.32,456.26Z"/><polygon class="cls-5" points="250.86 250.62 243.37 210.51 278.71 210.51 271.55 250.61 267.9 249.96 274.29 214.21 247.83 214.21 254.5 249.94 250.86 250.62"/><path class="cls-5" d="M284.12,373.24a1.85,1.85,0,0,1-1.86-1.85v-8.53a1.86,1.86,0,0,1,3.71,0v8.53A1.85,1.85,0,0,1,284.12,373.24Z"/><path class="cls-5" d="M347.66,322.25c-5.27,0-12.32-1.3-17.7-7.08l4.52-4.21c7,7.55,18.9,4.49,19,4.45l1.62,6A30.35,30.35,0,0,1,347.66,322.25Z"/><path class="cls-5" d="M373.73,291.92s-17.92-26.15-55-22.09c0,0,12.22-11.4,27.48-6.86S371.47,277.21,373.73,291.92Z"/><path class="cls-5" d="M315.33,311.66c-5.39,0-9.77-5.61-9.77-12.5s4.38-12.5,9.77-12.5,9.78,5.61,9.78,12.5a1.85,1.85,0,1,1-3.7,0c0-4.77-2.78-8.8-6.08-8.8s-6.07,4-6.07,8.8,2.78,8.8,6.07,8.8a1.85,1.85,0,1,1,0,3.7Z"/><path class="cls-5" d="M312.14,291.27a1.58,1.58,0,0,1-.43,0,1.86,1.86,0,0,1-1.38-2.23l1.65-6.92a1.86,1.86,0,0,1,3.61.86l-1.65,6.92A1.85,1.85,0,0,1,312.14,291.27Z"/><path class="cls-5" d="M525,252.13H499l-.53-.92a27.23,27.23,0,0,1,.22-26.78l.62-1,27.06,3.07.43,1A27.46,27.46,0,0,1,528.91,238a26.35,26.35,0,0,1-3.4,13.19Zm-23.76-3.7h21.6A22.91,22.91,0,0,0,525.2,238a23.92,23.92,0,0,0-1.39-8.09l-22.49-2.55A23.15,23.15,0,0,0,498.81,238,22.91,22.91,0,0,0,501.21,248.43Z"/><path class="cls-5" d="M559.66,252.13H536.32l-.53-.92a23.63,23.63,0,0,1-3.06-11.85,24.51,24.51,0,0,1,1.86-9.46l.42-1,24.37-2.77.61,1a24.5,24.5,0,0,1,.2,24.07Zm-21.17-3.7h19a20.22,20.22,0,0,0,2.06-9.07,20.47,20.47,0,0,0-2.15-9.27l-19.78,2.24a21,21,0,0,0-1.19,7A20.22,20.22,0,0,0,538.49,248.43Z"/><rect class="cls-5" x="190.06" y="304.17" width="19.53" height="6.17" transform="translate(-73.5 63.06) rotate(-15.18)"/><polygon class="cls-5" points="570.38 250.58 565.37 219.87 595.9 219.87 591.27 250.56 587.6 250 591.59 223.57 569.73 223.57 574.03 249.98 570.38 250.58"/><rect class="cls-5" x="192.97" y="239.66" width="22.94" height="3.7"/><rect class="cls-5" x="191.28" y="230.58" width="26.93" height="3.7"/><rect class="cls-5" x="189.2" y="219.41" width="31.86" height="3.7"/><circle class="cls-3" cx="112.14" cy="532.34" r="4.97"/><circle class="cls-3" cx="155.01" cy="518.3" r="2.48"/><circle class="cls-3" cx="126.66" cy="497.32" r="5.7"/><circle class="cls-3" cx="172.24" cy="446.53" r="4.41"/><circle class="cls-3" cx="151.67" cy="406.7" r="4.09"/><circle class="cls-3" cx="177.83" cy="408.47" r="5.86"/><circle class="cls-3" cx="140.82" cy="356.66" r="4.26"/><circle class="cls-3" cx="155.69" cy="328.28" r="4.02"/><circle class="cls-3" cx="171.69" cy="298.63" r="3.86"/><circle class="cls-3" cx="162.66" cy="372.3" r="5.17"/><circle class="cls-3" cx="126.53" cy="436.56" r="5.57"/><circle class="cls-3" cx="162.26" cy="477.68" r="6.49"/><circle class="cls-3" cx="196.16" cy="511.8" r="5.34"/><circle class="cls-3" cx="194.4" cy="535.91" r="3.57"/><circle class="cls-3" cx="192.38" cy="448.51" r="1.98"/><circle class="cls-3" cx="203.01" cy="474.44" r="3.25"/><circle class="cls-3" cx="137.67" cy="468.25" r="3.15"/><circle class="cls-3" cx="134.69" cy="420.22" r="2.33"/><circle class="cls-3" cx="173.67" cy="309.47" r="1.98"/><path class="cls-5" d="M490.89,313.18a1.83,1.83,0,0,1-1.42-.67c-4.67-5.61-13.35-3-13.44-3a1.85,1.85,0,0,1-1.11-3.53c.45-.14,11.12-3.4,17.4,4.14a1.86,1.86,0,0,1-1.43,3Z"/><ellipse class="cls-5" cx="483.38" cy="317.42" rx="1.52" ry="3.51"/><path class="cls-5" d="M501.41,366.72c-3.13,0-5.75-.92-7.3-2.6-4.19-4.51-.34-11,2.59-14.14l2.7,2.54-1.35-1.27,1.35,1.26c0,.06-5.43,6-2.58,9.09,1,1,3.07,1.56,5.53,1.38,3.27-.24,6.43-1.66,7.67-3.47a4.38,4.38,0,0,0-.22-4.76,5.28,5.28,0,0,0-5.34-2.57l-.54-3.66a9,9,0,0,1,9,4.27,8.09,8.09,0,0,1,.12,8.82c-1.89,2.76-6,4.74-10.46,5.06C502.2,366.7,501.8,366.72,501.41,366.72Z"/><path class="cls-5" d="M495.63,396.35h-.29c-3.56-.22-5.68-4-6.3-11.33-1.5-18,7.37-22.29,7.75-22.47l1.58,3.35c-.28.14-6.9,3.64-5.63,18.82.51,6.16,2,7.88,2.83,7.93,1.59.1,4.38-3.18,4.92-5.75A24.05,24.05,0,0,1,504.6,378c2.57-3.88,4.27-6.44.52-13.24l3.25-1.79c4.83,8.77,2,13-.68,17.08a20.83,20.83,0,0,0-3.58,7.56C503.37,391.19,499.65,396.35,495.63,396.35Z"/><path class="cls-5" d="M387.2,562.06l4.39,18.2h18.16s-.35-9-10.52-9.47l-2.11-8.73Z"/><polyline class="cls-3" points="524.92 459.61 499.12 450.94 506.01 439.86"/><path class="cls-5" d="M524.92,461.47a1.78,1.78,0,0,1-.59-.1l-28-9.42,8.13-13.07a1.85,1.85,0,1,1,3.14,2l-5.65,9.09,23.58,7.93a1.85,1.85,0,0,1-.59,3.61Z"/><rect class="cls-5" x="433.12" y="498.55" width="3.7" height="14.92" transform="translate(-224.82 605.62) rotate(-57.9)"/><rect class="cls-5" x="439.75" y="476.86" width="3.7" height="28.02" transform="translate(-207.3 368.82) rotate(-37.37)"/><path class="cls-5" d="M440.41,523.2c-.18-.26-4.36-6.43-2.82-12.77.84-3.47,3.18-6.26,7-8.29,11.4-6.11,19.89,1.35,22.78,6.15l-3.17,1.92c-.27-.44-6.75-10.77-17.85-4.81-2.82,1.51-4.54,3.5-5.12,5.9-1.15,4.75,2.24,9.75,2.27,9.8Z"/><path class="cls-5" d="M460.76,547.2a24.35,24.35,0,0,1-7.65-1.23c-12.88-4.23-19.53-17.8-19.8-18.37l-.76-1.58,43.64-24.15,1,1.16c.48.56,11.54,13.84,9.12,26.42-1.13,5.82-4.92,10.49-11.27,13.86A30.33,30.33,0,0,1,460.76,547.2Zm-23.27-19.68c2.05,3.5,7.81,12,16.79,14.93,5.94,1.95,12.34,1.14,19-2.41,5.31-2.82,8.46-6.62,9.37-11.28,1.71-8.87-4.88-18.78-7.38-22.14Z"/><path class="cls-5" d="M110.51,244.38a1.85,1.85,0,0,1-1.86-1.85V210.3a1.86,1.86,0,0,1,3.71,0v32.23A1.85,1.85,0,0,1,110.51,244.38Z"/><path class="cls-5" d="M110.51,238.35a1.85,1.85,0,0,1-1.17-.42L103,232.76a1.86,1.86,0,0,1,2.34-2.88l6.37,5.18a1.85,1.85,0,0,1,.28,2.6A1.88,1.88,0,0,1,110.51,238.35Z"/><path class="cls-5" d="M110.51,224.91a1.81,1.81,0,0,1-1.31-.55,1.84,1.84,0,0,1,0-2.62l8.1-8.1a1.85,1.85,0,0,1,2.62,2.62l-8.1,8.1A1.82,1.82,0,0,1,110.51,224.91Z"/><path class="cls-5" d="M146.12,217.71a10.75,10.75,0,0,1,4.62-20.9l-.44,3.68a7,7,0,0,0-7.83,6.16,7.06,7.06,0,0,0,4.8,7.54Z"/><rect class="cls-5" x="573.12" y="221.57" width="3.7" height="28.87" transform="matrix(0.99, -0.15, 0.15, 0.99, -28.33, 86.63)"/><rect class="cls-5" x="578.79" y="221.72" width="3.71" height="28.56"/><rect class="cls-5" x="571.95" y="234.15" width="28.79" height="3.71" transform="translate(278.5 788.02) rotate(-82.78)"/><path class="cls-5" d="M196.15,394.64l-3.59-.95c3.25-12.25,2.29-21.73.92-27.51a32.07,32.07,0,0,0-3.81-9.74l3.06-2.09C193.15,355,202.82,369.46,196.15,394.64Z"/><rect class="cls-5" x="633.58" y="304.25" width="3.7" height="135.92" transform="translate(262.45 1007.19) rotate(-89.93)"/><rect class="cls-5" x="342.47" y="224.27" width="3.7" height="295.17" transform="translate(-27.96 715.73) rotate(-89.93)"/><rect class="cls-5" x="35.94" y="292.68" width="3.7" height="157.62" transform="translate(-333.74 408.83) rotate(-89.93)"/><path class="cls-5" d="M193.39,354.37s13.5,11.35,9.67,23.09C203.06,377.46,191.85,372.14,193.39,354.37Z"/><path class="cls-5" d="M405.88,457c-13.82,0-25.06-12.54-25.06-27.94s11.24-27.94,25.06-27.94a23.88,23.88,0,0,1,18.7,9.37,6.76,6.76,0,0,1,.89-.33,5.55,5.55,0,0,1,6.91,3.69h0a5.49,5.49,0,0,1-2.77,6.28,30.56,30.56,0,0,1,1.33,8.93v1.22l-15.81,3.54a17.93,17.93,0,0,0,10,9.64l2,.6L426,445.74C421.18,452.87,413.86,457,405.88,457Zm0-52.82c-12.14,0-22,11.16-22,24.88s9.87,24.88,22,24.88a20.82,20.82,0,0,0,16.44-8.35,21.55,21.55,0,0,1-10.72-12.36l-.58-1.63,16.83-3.76a27.55,27.55,0,0,0-1.6-8.13l-.59-1.66,1.72-.35.21,0a2.38,2.38,0,1,0-1.29-4.56,2.66,2.66,0,0,0-1.07.6L424,414.77l-1-1.37C418.77,407.51,412.54,404.14,405.88,404.14Z"/><path class="cls-4" d="M157,550.11V586h36.87s-5.05-11-20.9-11.48V550.11"/><path class="cls-5" d="M196.76,587.81H155.14v-37.7h3.71v34h31.59c-2.45-3-7.74-7.5-17.53-7.78l-1.8-.05V550.11h3.71v22.6c15.4,1.22,20.52,12,20.74,12.47Z"/><path class="cls-5" d="M179.17,568.67H151a23.12,23.12,0,0,1-6.17-18.56h39.26C185.61,560,179.17,568.67,179.17,568.67Z"/><path class="cls-5" d="M51.69,560.64H-10.07a1.85,1.85,0,0,1-1.85-1.85,1.85,1.85,0,0,1,1.85-1.86H51.69a1.86,1.86,0,1,1,0,3.71Z"/><path class="cls-5" d="M356.15,519h0l-113.49-1.31a1.85,1.85,0,1,1,0-3.7l113.49,1.31a1.85,1.85,0,0,1,0,3.7Z"/><path class="cls-5" d="M572.69,562.72a1.85,1.85,0,0,1-.05-3.7l111.77-3.19a1.86,1.86,0,0,1,.1,3.71l-111.77,3.18Z"/><path class="cls-4" d="M145.72,550.11V586h36.87s-5.05-11-20.9-11.48V550.11"/><path class="cls-5" d="M185.48,587.81H143.86v-37.7h3.71v34h31.6c-2.46-3-7.75-7.5-17.54-7.78l-1.8-.05V550.11h3.71v22.6c15.4,1.22,20.52,12,20.74,12.47Z"/><path class="cls-5" d="M167.89,568.67H139.74a23.12,23.12,0,0,1-6.17-18.56h39.26C174.33,560,167.89,568.67,167.89,568.67Z"/><path class="cls-5" d="M222.91,552H92.06l.17-2c.07-.82,7.08-82.48,22.08-175.22,4.38-27.09,16-63.65,46.46-84,18.33-12.22,34.6-12.7,35.28-12.71l1.51,0,.34,1.48c.11.51,1,4.27,2.15,9.59l.12.11a1.89,1.89,0,0,1,.35,2c3,13.51,7.64,34.57,8.52,40.15.74,4.73-1,8.84-4.31,10.21-2.73,1.13-8.61,1.24-17.26-10.68a1.85,1.85,0,0,1,3-2.17c6.06,8.35,10.61,10.34,12.84,9.42,1.68-.69,2.53-3.24,2.07-6.21-.8-5.1-5-24.09-7.95-37.54-14.48,14.55-27.09,37.93-12.07,70.25C212.49,423,222.65,548.7,222.75,550ZM96.1,548.26H218.89C217.47,531.92,207,419.9,182,366.17c-7.8-16.8-9.18-33-4.09-48,3.42-10.13,9.67-19.55,18.57-28-.81-3.63-1.47-6.55-1.85-8.23a72.28,72.28,0,0,0-32,12.11C133.42,313.59,122.22,349,118,375.33,104.29,459.85,97.27,535.15,96.1,548.26Z"/><rect class="cls-5" x="448.25" y="519.55" width="3.7" height="28.33" transform="translate(-225.44 357.38) rotate(-35.23)"/><rect class="cls-5" x="458.43" y="513.89" width="3.7" height="32.31" transform="translate(-199.62 290.59) rotate(-29.09)"/><rect class="cls-5" x="465.44" y="510.41" width="3.7" height="32.77" transform="translate(-177.6 243.97) rotate(-24.75)"/><rect class="cls-5" x="474.43" y="505.72" width="3.7" height="30.35" transform="translate(-162.39 220.44) rotate(-22.37)"/><rect class="cls-5" x="434.7" y="520.57" width="48.47" height="3.7" transform="translate(-190.59 274.09) rotate(-27.78)"/><rect class="cls-5" x="445" y="530.06" width="41.87" height="3.7" transform="translate(-194.28 278.66) rotate(-27.8)"/><rect class="cls-5" x="388.28" y="546.18" width="5.56" height="17.21" transform="translate(-103.19 89.56) rotate(-11.55)"/><path class="cls-5" d="M401.56,562.06l4.39,18.2h18.16s-.35-9-10.52-9.47l-2.07-8.73Z"/><rect class="cls-5" x="402.64" y="546.18" width="5.56" height="17.21" transform="translate(-102.9 92.44) rotate(-11.55)"/><path class="cls-5" d="M339.83,335.82c-14,0-26.43-8.1-32.56-21.13a1.79,1.79,0,1,1,3.24-1.53c5.53,11.77,16.77,19.08,29.32,19.08,18,0,32.64-15.28,32.64-34.06s-14.64-34.05-32.64-34.05c-14.58,0-27.5,10.22-31.43,24.84a1.79,1.79,0,0,1-3.46-.93c4.35-16.18,18.7-27.49,34.89-27.49,20,0,36.22,16.88,36.22,37.63S359.8,335.82,339.83,335.82Z"/><path class="cls-5" d="M524.92,461.47a1.86,1.86,0,0,1-1.33-.57l-22.8-23.81a1.85,1.85,0,0,1-.05-2.51c.22-.25,22-25.12,26.77-65.28,1.09-9.05,7.74-15.67,15.5-15.39,10.57.39,14.87,12.09,15.34,22,.56,11.8-4.65,29.65-15.47,53.06-8,17.33-16.28,31.44-16.36,31.58a1.83,1.83,0,0,1-1.38.9Zm-20.3-25.74,19.93,20.81c5.92-10.44,31.22-56.62,30.1-80.45-.63-13.33-6.5-18.28-11.78-18.47-4.91-.18-10.71,4-11.68,12.12C526.81,406.32,509.27,430,504.62,435.73Z"/><path class="cls-5" d="M605.59,252.13H389.2l-.4-1.32c-.39-1.33-9.45-32.91,9.69-60.09,15.52-22,44.83-34.39,87.11-36.72a236.85,236.85,0,0,1,57.77,4.12c26.85,5.54,46.07,15.71,57.12,30.22,12.21,16,14.07,37.07,5.52,62.53ZM392,248.43H602.91c7.66-23.65,5.86-43.11-5.37-57.84C569.8,154.17,494.32,157.23,485.8,157.7c-41.06,2.26-69.41,14.08-84.25,35.12C385.56,215.48,390.56,242.22,392,248.43Z"/><path class="cls-5" d="M297.16,93.7a1.85,1.85,0,0,1-.57-3.61l16.69-5.35a1.85,1.85,0,1,1,1.13,3.52l-16.69,5.35A1.77,1.77,0,0,1,297.16,93.7Z"/><path class="cls-5" d="M377.11,93.7a2.38,2.38,0,0,1-.45,0L355.21,88.3a1.85,1.85,0,0,1,.89-3.6l21.46,5.35a1.85,1.85,0,0,1-.45,3.65Z"/><path class="cls-5" d="M508.39,480.9a17.19,17.19,0,0,1-6-1.08c-7.05-2.59-11.14-8.85-11.84-18.1a44.48,44.48,0,0,1,1-12.83,1.86,1.86,0,0,1,.91-1.19,1.91,1.91,0,0,1,1.5-.11l37.69,13.28a1.85,1.85,0,0,1,1,2.69,49.13,49.13,0,0,1-8.56,10.3C518.92,478.53,513.59,480.9,508.39,480.9Zm-13.6-29.11c-.91,5.47-2.28,20.44,8.91,24.56a13.59,13.59,0,0,0,4.68.84c9.21,0,16.91-9.47,19.83-13.62Z"/><path class="cls-5" d="M568.13,383.05H556.54a1.86,1.86,0,1,1,0-3.71h9.63c-2.24-35.89-13-61.6-32.11-76.43-21.6-16.79-47.39-14-52.6-13.24-1.91,4.65-10.13,26.51-4.46,45.62.56,1.88,1.25,1.81,1.51,1.78,1.9-.2,5-3.83,5.16-6.06a1.86,1.86,0,0,1,3.7.28c-.29,3.77-4.44,9-8.47,9.47-1.21.12-4.16-.05-5.45-4.42-6.76-22.75,4.53-48,5-49.1a1.87,1.87,0,0,1,1.33-1.05c1.26-.25,31.1-5.95,56.5,13.76C556.62,315.73,568,343,570,381.1a1.83,1.83,0,0,1-.5,1.37A1.86,1.86,0,0,1,568.13,383.05Z"/><path class="cls-5" d="M567.47,499.67a1.85,1.85,0,0,1-1.85-1.78l-4.77-116.62a1.85,1.85,0,0,1,3.7-.15l4.77,116.62a1.86,1.86,0,0,1-1.78,1.93Z"/><rect class="cls-5" x="506.05" y="377.35" width="21.79" height="3.7"/><path class="cls-5" d="M501.43,319.27a1.85,1.85,0,0,1-1.85-1.78c-.44-10.44-15.94-28.7-16.09-28.89a1.85,1.85,0,1,1,2.81-2.4c.68.79,16.49,19.42,17,31.14a1.86,1.86,0,0,1-1.77,1.93Z"/><path class="cls-5" d="M490.89,305.67a1.86,1.86,0,0,1-1.76-1.28c-1.39-4.23-8-12.38-10.38-15.17a1.85,1.85,0,0,1,2.8-2.43c.37.44,9.19,10.64,11.1,16.44a1.85,1.85,0,0,1-1.18,2.34A1.69,1.69,0,0,1,490.89,305.67Z"/><path class="cls-5" d="M435.9,374a1.85,1.85,0,0,1-1.84-1.68c0-.28-2.54-27.5-10.08-39.21-2.92-4.53-3.56-7.79-2-10,1.79-2.45,5.61-2.21,7.79-1.84a7.63,7.63,0,0,1,4.35-3.33,5.71,5.71,0,0,1,4.24.73c1.61-1,4.69-2.57,7.93-2.2a8.14,8.14,0,0,1,4.92,2.37c2.49-.61,8.16-1.66,11.43.38a5.19,5.19,0,0,1,2.43,3.64c.58,3.48-1.56,5.38-3.62,7.22-2.81,2.5-6.31,5.61-6.31,14.63,0,7.74,1.23,26.65,1.24,26.84a1.85,1.85,0,1,1-3.69.24c-.05-.78-1.25-19.22-1.25-27.08,0-10.68,4.54-14.73,7.55-17.4,2-1.8,2.65-2.49,2.42-3.84a1.47,1.47,0,0,0-.73-1.11c-2-1.23-6.91-.45-9.56.34a1.85,1.85,0,0,1-2-.62,4.72,4.72,0,0,0-3.27-1.93c-3.07-.34-6.33,2.19-6.36,2.22a1.85,1.85,0,0,1-2.33,0c-1.26-1-2-.86-2.22-.8-1.26.28-2.32,2-2.6,2.6a1.86,1.86,0,0,1-2.16,1c-2-.54-4.71-.6-5.24.14-.32.44-.24,2.15,2.1,5.78,8,12.47,10.55,39.72,10.65,40.87a1.85,1.85,0,0,1-1.68,2Z"/><path class="cls-5" d="M441.09,364.21a1.85,1.85,0,0,1-1.81-1.46l-4.15-19.06a1.86,1.86,0,0,1,1.42-2.2,1.84,1.84,0,0,1,2.2,1.41L442.9,362a1.86,1.86,0,0,1-1.42,2.21A1.72,1.72,0,0,1,441.09,364.21Z"/><path class="cls-5" d="M447.31,366.72a1.85,1.85,0,0,1-1.85-1.86V342a1.85,1.85,0,0,1,3.7,0v22.82A1.85,1.85,0,0,1,447.31,366.72Z"/><path class="cls-5" d="M405.13,446l-1.42-24.78,22.09-12.08c-2-6.82-12.82-12-23.09-10.34-14.71,2.39-23.87,13.71-23.87,30.2,0,5.73,1.86,18,4.4,22.53Z"/><path class="cls-5" d="M13.28,166.2a2,2,0,0,1-.84-.2,1.86,1.86,0,0,1-.82-2.49C42.69,102,93.33,46.92,158.08,4.26a1.85,1.85,0,1,1,2,3.09C95.91,49.66,45.7,104.23,14.93,165.18A1.85,1.85,0,0,1,13.28,166.2Z"/><path class="cls-5" d="M635.82,166.2a1.84,1.84,0,0,1-1.65-1C603.4,104.23,553.19,49.66,489,7.35a1.85,1.85,0,1,1,2-3.09C555.77,46.92,606.41,102,637.48,163.51a1.86,1.86,0,0,1-.82,2.49A2,2,0,0,1,635.82,166.2Z"/></g><path class="cls-5" d="M630.2,81a1.79,1.79,0,0,1-1.08-.35A1.86,1.86,0,0,1,628.7,78c5.94-8.18,8-15.57,6.14-21.94-2.77-9.49-13.48-13.8-13.58-13.85l-.82-.32-.27-.83c-1.7-5.28-4.54-9-8.43-10.9-6.49-3.25-13.94-.74-14-.72l-1.37.47-.79-1.2c-3.72-5.68-8.23-9-13.42-9.82-9.13-1.46-17.56,5.17-17.65,5.24a1.85,1.85,0,0,1-2.32-2.89c.4-.32,9.76-7.72,20.53-6,5.9.94,11,4.4,15.19,10.32,2.79-.7,9.33-1.77,15.46,1.28,4.63,2.3,8,6.44,10.06,12.29,2.85,1.29,12.12,6.19,15,15.87,2.21,7.54,0,16-6.69,25.19A1.87,1.87,0,0,1,630.2,81Z"/><path class="cls-5" d="M631.13,27.86H631a1.85,1.85,0,0,1-1.66-2c.36-3.67-.37-6.59-2.18-8.68-2.94-3.39-7.73-3.64-7.78-3.64a1.85,1.85,0,0,1,.16-3.7c.26,0,6.45.33,10.42,4.91,2.5,2.9,3.54,6.76,3.06,11.48A1.85,1.85,0,0,1,631.13,27.86Z"/><polygon class="cls-5" points="411.76 455.98 393.86 452.88 389.49 456.96 416.72 465.55 417.06 457.12 422.18 459.53 421.53 449.25 411.76 455.98"/><ellipse class="cls-5" cx="385.73" cy="416.05" rx="11.64" ry="12"/><polygon class="cls-6" points="420.63 414.24 415.63 407.43 418.13 416.05 420.63 414.24"/><path class="cls-5" d="M88.45,51.78a8,8,0,0,1-4-1c-3.09-1.78-4.74-5-6.06-7.55a1.85,1.85,0,1,1,3.29-1.7c1.4,2.73,2.63,4.9,4.62,6a4.38,4.38,0,0,0,3.47.33,2.22,2.22,0,0,0,1.39-1.21c.41-1,0-2.45-.5-3.94-.13-.43-.27-.86-.38-1.28A16,16,0,0,1,94.22,26a14,14,0,0,1,15.8-2.6,1.85,1.85,0,1,1-1.71,3.29,10.31,10.31,0,0,0-11.49,1.95,12.4,12.4,0,0,0-2.95,11.86c.1.38.22.76.35,1.15.6,1.95,1.29,4.15.4,6.41A5.81,5.81,0,0,1,91,51.35,7.7,7.7,0,0,1,88.45,51.78Z"/><path class="cls-5" d="M12.05,75.06A6.58,6.58,0,0,1,8,73.67a7.91,7.91,0,0,1-1.21-11A10.58,10.58,0,0,1,17.49,58.1c4.87.84,9.35,4.67,10.66,9.11a1.85,1.85,0,1,1-3.55,1.05c-.91-3.06-4.3-5.92-7.74-6.51a6.93,6.93,0,0,0-7.11,3.09,4.24,4.24,0,0,0,.48,5.9c1.71,1.32,4,.51,6.22-2.15A1.86,1.86,0,0,1,19.32,71C16.83,74,14.26,75.06,12.05,75.06Z"/><path class="cls-5" d="M22,43.73a1.5,1.5,0,0,1-.37,0,1.85,1.85,0,0,1-1.45-2.18,17.59,17.59,0,0,0-1-10A7.25,7.25,0,0,1,23,22c1.43-.66,3.79-5.16,3.89-6.77a6.07,6.07,0,0,0-1.52.49,7.45,7.45,0,0,0-1.85,1.43c-1.29,1.18-2.89,2.66-5.23,2.31A12.41,12.41,0,0,0,17,19.32a1.85,1.85,0,0,1-3.44-.75,2.55,2.55,0,0,1,.76-2.15c1.17-1.11,3.05-.83,4.42-.62.59.09,1.23-.46,2.21-1.36a10.35,10.35,0,0,1,2.88-2.1c4.48-2,6,.1,6.39,1.08,1.49,3.4-2.88,10.71-5.79,12a3.57,3.57,0,0,0-1.84,4.67,21.32,21.32,0,0,1,1.22,12.17A1.86,1.86,0,0,1,22,43.73Z"/><path class="cls-5" d="M49.45,23C51,20.25,54.06,17.45,57,19.58a4.88,4.88,0,0,1,1.71,5.29,97.85,97.85,0,0,1-6,15.56c4.2.46,8.5.94,12.31,2.78s7.09,5.33,7.5,9.54a2.19,2.19,0,0,1-.59,2A2.38,2.38,0,0,1,70,54.9c-.88-.2-1.75-.44-2.61-.7a4,4,0,0,0-5.08,4.67,23.24,23.24,0,0,1,.55,7.48c-.21,2.4-.9,4.94-3,6.27A3.81,3.81,0,0,1,56.7,73c-1.88-.58-2.25-2.13-2.43-3.61-.6-4.89.21-10.48-3-14.2-4.58,4.46-10,11.62-16.17,10-3.09-.8-2.76-6.08-1.3-8.92A6.92,6.92,0,0,1,41.87,53a21.63,21.63,0,0,1-11.22-9.76,3.87,3.87,0,0,1-.49-2.13c.4-6.17,9.4-.41,12.12-1.23C47.35,38.31,47,27.2,49.45,23Z"/><path class="cls-5" d="M57.77,75.06a5.31,5.31,0,0,1-1.62-.25c-3.21-1-3.58-4-3.72-5.15-.16-1.34-.23-2.71-.29-4-.12-2.74-.24-5.37-1.2-7.46l-.68.69c-4.2,4.36-9.43,9.79-15.66,8.19a4.66,4.66,0,0,1-3.13-2.75c-1.2-2.66-.58-6.45.65-8.82a8.71,8.71,0,0,1,3.74-3.69A23.54,23.54,0,0,1,29,44.07a5.79,5.79,0,0,1-.71-3.13,4.7,4.7,0,0,1,1.88-3.77c2.22-1.57,5.45-.64,8.31.18a12.83,12.83,0,0,0,3.27.7c2.17-.65,3.15-5.26,3.94-9a25.72,25.72,0,0,1,2.14-7h0c.72-1.27,2.74-4.28,5.82-4.95a5.44,5.44,0,0,1,4.42,1,6.69,6.69,0,0,1,2.41,7.31,99.36,99.36,0,0,1-5,13.49,33,33,0,0,1,10.33,2.66c4.84,2.34,8.11,6.56,8.55,11A3.78,3.78,0,0,1,73,56.27a4.08,4.08,0,0,1-3.42.43c-.92-.21-1.84-.45-2.75-.73a2.14,2.14,0,0,0-2.12.5,2.05,2.05,0,0,0-.61,2,25,25,0,0,1,.6,8.07c-.34,3.75-1.62,6.26-3.93,7.68A5.66,5.66,0,0,1,57.77,75.06ZM51.23,53.38h.08a1.87,1.87,0,0,1,1.32.63c2.84,3.24,3,7.42,3.21,11.45.06,1.31.12,2.55.27,3.75.19,1.53.49,1.86,1.14,2.06a2,2,0,0,0,1.6-.23c1.24-.76,1.95-2.35,2.18-4.86a21.64,21.64,0,0,0-.51-6.88,5.7,5.7,0,0,1,1.68-5.54,5.8,5.8,0,0,1,5.74-1.33c.82.25,1.66.47,2.49.66l.27.06a1.77,1.77,0,0,0,0-.22c-.37-3.81-3.59-6.66-6.47-8-3.56-1.72-7.7-2.17-11.7-2.61a1.85,1.85,0,0,1-1.46-2.66,95.62,95.62,0,0,0,5.88-15.26,3,3,0,0,0-1-3.27,1.72,1.72,0,0,0-1.46-.36c-1.1.24-2.43,1.48-3.4,3.17a24.55,24.55,0,0,0-1.73,6c-1,4.9-2.23,10.46-6.52,11.74-1.43.43-3.24-.09-5.33-.69-1.65-.47-4.39-1.26-5.16-.71-.24.16-.3.74-.31,1a2.09,2.09,0,0,0,.26,1.12,19.84,19.84,0,0,0,10.25,8.91,1.85,1.85,0,0,1-1.27,3.48,5.06,5.06,0,0,0-5.84,2.49c-.88,1.7-1.14,4.32-.56,5.61.22.49.46.61.67.67,4.14,1.06,8.35-3.31,12.07-7.17.81-.83,1.59-1.65,2.35-2.38A1.85,1.85,0,0,1,51.23,53.38Z"/><path class="cls-6" d="M47.2,53.25a1.82,1.82,0,0,1-1.27-.51,3.51,3.51,0,0,1-1-3,4.1,4.1,0,0,1,1.94-3,5.19,5.19,0,0,1,5.33.29,1.85,1.85,0,1,1-1.94,3.15,1.67,1.67,0,0,0-1.52-.24.42.42,0,0,0-.12.23,1.85,1.85,0,0,1-1.39,3.08Z"/><path class="cls-5" d="M19.43,115.6a9,9,0,0,1-6.29-2.36c-3.1-3-3.59-8.2-1.31-13.95,3.1-7.83,10.55-16,20-16.49,0-1.62-.05-3.22-.08-4.78a1.85,1.85,0,0,1,1.82-1.89A1.89,1.89,0,0,1,35.42,78c0,1.64.06,3.33.07,5,1.31.2,2.6.49,3.86.78,2.91.66,5.65,1.29,8.15.52a1.85,1.85,0,0,1,1.09,3.54c-3.44,1.06-6.81.29-10.07-.45-1.05-.24-2.06-.47-3.06-.64-.16,6.4-.94,13-3.69,19.06-1.82,4-4.2,6.85-7.1,8.44A10.86,10.86,0,0,1,19.43,115.6ZM31.76,86.51C24.08,87,17.91,94,15.28,100.65c-.64,1.62-2.5,7.1.43,9.92,1.66,1.59,4.74,1.78,7.17.43,2.18-1.2,4-3.47,5.52-6.73C30.89,98.76,31.61,92.57,31.76,86.51Z"/><path class="cls-5" d="M599.44,35.23c5.74,1.26,1.45,14.92-.05,18.56,13.72-4.78,23.11,8.79,20.45,12.8-2.56,3.85-12.39,1.21-15.48-1.88,2.9,3.32,11.26,20.32,1.5,22.44-7.46,1.61-10-14.28-10.08-18.43-6.17,3.15-14.14,1.54-19.32-3.06s-8.7-11.78-7.68-18.64c1.25-8.46,14.41,7.91,20.79,3.23C592.66,48,592.12,33.62,599.44,35.23Z"/><path class="cls-5" d="M604.83,89.11a6.59,6.59,0,0,1-4.1-1.47c-4.23-3.31-6-11.66-6.57-16.26a20,20,0,0,1-18.93-4.33c-6.06-5.39-9.31-13.35-8.29-20.3a4.46,4.46,0,0,1,2.31-3.67c2.47-1.2,5.6.61,9.23,2.71s7.86,4.54,10,3c.59-.44,1.3-3.1,1.77-4.86,1.27-4.73,3.18-11.89,9.58-10.48h0a5,5,0,0,1,3.43,2.66c2,3.84.31,10.91-1,15.08A18.18,18.18,0,0,1,619.35,58c2.75,3.55,3.55,7.32,2,9.6-.7,1.06-2.17,2.39-5.14,2.68a18.44,18.44,0,0,1-7-.89c2.12,4.51,4,10.47,2.54,14.7A7.11,7.11,0,0,1,606.25,89,7,7,0,0,1,604.83,89.11Zm-9.05-22.24a1.81,1.81,0,0,1,1,.26,1.85,1.85,0,0,1,.9,1.54c.1,3.56,1.79,13.23,5.38,16a2.78,2.78,0,0,0,2.46.62,3.48,3.48,0,0,0,2.83-2.4c1.59-4.79-3.29-14.67-5.33-17a1.85,1.85,0,0,1,2.71-2.52c1.73,1.74,6.67,3.56,10.19,3.21a3.32,3.32,0,0,0,2.43-1c.35-.53.17-2.63-1.88-5.27A14.3,14.3,0,0,0,600,55.54a1.85,1.85,0,0,1-2.32-2.45c1.58-3.84,3.87-12.27,2.29-15.29A1.26,1.26,0,0,0,599,37h0c-2.52-.56-3.64,2-5.21,7.82-.82,3-1.52,5.68-3.16,6.89-4.09,3-9.61-.19-14-2.76-1.85-1.06-4.94-2.86-5.76-2.57a2.51,2.51,0,0,0-.25.87c-.85,5.75,1.93,12.41,7.08,17,4.88,4.33,12,5.48,17.25,2.79A1.76,1.76,0,0,1,595.78,66.87Z"/><path class="cls-5" d="M555.26,38.69a1.85,1.85,0,0,1-1.85-1.82c0-1,0-2,.05-3,0-.65,0-1.29.06-1.93l-.23-.13a28.22,28.22,0,0,1-9.46-7.91c-5.94-7.78-5.41-9.54-4.35-10.67a3.59,3.59,0,0,1,2.94-1.13c4.4.24,10.46,7,11.17,7.92a17.31,17.31,0,0,1,3.59,9.79,17.29,17.29,0,0,1,2,1.46,1.86,1.86,0,0,1-2,3.07c0,.85,0,1.67,0,2.49a1.85,1.85,0,0,1-1.82,1.89ZM543,16a42.67,42.67,0,0,0,3.78,5.65,22.71,22.71,0,0,0,6.32,5.75,13.77,13.77,0,0,0-2.48-5.17A23.39,23.39,0,0,0,543,16Z"/><path class="cls-5" d="M633.13,118.84l-.42,0c-2.11-.19-3.83-1.72-5.12-4.55-2.09-4.6-2.07-8.69,0-11.5l.06-.08a11.13,11.13,0,0,0-1.59-.88c-3.69-1.67-8.18-1.29-12.14-1a1.85,1.85,0,1,1-.31-3.69c4.19-.35,9.41-.8,14,1.28a15,15,0,0,1,2.82,1.66l.06,0c2.3-2.07,2.31-4.53,1.61-6A3.67,3.67,0,0,0,628,92a1.85,1.85,0,1,1-.56-3.66,7.3,7.3,0,0,1,8,4.1,8.82,8.82,0,0,1-2.27,10.13,24.59,24.59,0,0,1,3.54,5.13,10.38,10.38,0,0,1,1.49,6.2C637.91,116.37,635.88,118.84,633.13,118.84Zm-2.63-13.71c-1.62,2.37-.22,6.1.47,7.61s1.41,2.33,2.07,2.39,1.41-.81,1.53-1.7a7.13,7.13,0,0,0-1.09-4A22,22,0,0,0,630.5,105.13Z"/><path class="cls-6" d="M593.85,64.57a6.13,6.13,0,0,1-5.56-8.81,1.85,1.85,0,0,1,3.34,1.61,2.44,2.44,0,0,0,2.58,3.47,1.85,1.85,0,1,1,.57,3.66A5.82,5.82,0,0,1,593.85,64.57Z"/></g></svg>