<svg xmlns="http://www.w3.org/2000/svg" viewBox="0 0 648 648"><defs><style>.cls-1{fill:#f5f6fc;}.cls-2{fill:#ed6b47;}.cls-2,.cls-3,.cls-4{stroke:#1c2575;stroke-miterlimit:10;stroke-width:15.08px;}.cls-3{fill:#70bfef;}.cls-3,.cls-4{stroke-linecap:round;}.cls-4{fill:none;}</style></defs><g id="Layer_1" data-name="Layer 1"><rect class="cls-1" width="648" height="648"/><circle class="cls-2" cx="270.9" cy="284.69" r="87.67"/><path class="cls-2" d="M409.82,511.28h0c0-76.41-62.52-138.92-138.92-138.92h0C194.49,372.36,132,434.87,132,511.28H409.82Z"/><circle class="cls-3" cx="398.65" cy="284.69" r="87.67"/><path class="cls-4" d="M225.54,318.39a64.1,64.1,0,0,0,90.71,0"/><path class="cls-3" d="M259.73,511.28h0c0-76.41,62.52-138.92,138.92-138.92h0c76.41,0,138.92,62.51,138.92,138.92H259.73Z"/><line class="cls-4" x1="398.65" y1="413.1" x2="398.65" y2="483.46"/><line class="cls-4" x1="433.84" y1="448.28" x2="363.47" y2="448.28"/><path class="cls-4" d="M433.84,98.92a39.27,39.27,0,0,0,39.29,39.29"/><path class="cls-4" d="M433.84,177.5a39.26,39.26,0,0,1,39.29-39.29"/><path class="cls-4" d="M433.84,177.5a39.27,39.27,0,0,0-39.3-39.29"/><path class="cls-4" d="M433.84,98.92a39.28,39.28,0,0,1-39.3,39.29"/><path class="cls-4" d="M525.61,174a39.28,39.28,0,0,0,39.29,39.29"/><path class="cls-4" d="M525.61,252.58a39.27,39.27,0,0,1,39.29-39.29"/><path class="cls-4" d="M525.61,252.58a39.26,39.26,0,0,0-39.29-39.29"/><path class="cls-4" d="M525.61,174a39.27,39.27,0,0,1-39.29,39.29"/><path class="cls-4" d="M122.39,326.63a39.26,39.26,0,0,0,39.29,39.29"/><path class="cls-4" d="M122.39,405.21a39.27,39.27,0,0,1,39.29-39.29"/><path class="cls-4" d="M122.39,405.21A39.28,39.28,0,0,0,83.1,365.92"/><path class="cls-4" d="M122.39,326.63A39.27,39.27,0,0,1,83.1,365.92"/></g></svg>