<svg xmlns="http://www.w3.org/2000/svg" viewBox="0 0 648 648"><defs><style>.cls-1{fill:#fde5da;}.cls-2{fill:#1c2575;}.cls-3{fill:#ed6b47;}.cls-4{fill:#70bfef;}.cls-5{fill:#fff;}</style></defs><g id="Layer_1" data-name="Layer 1"><rect class="cls-1" width="648" height="648"/></g><g id="Main_Grid" data-name="Main Grid"><path class="cls-2" d="M507.28,437.53a7.7,7.7,0,0,1-3.85-1l-30.7-17.73a7.71,7.71,0,1,1,7.71-13.36l30.7,17.73a7.71,7.71,0,0,1-3.86,14.39Z"/><path class="cls-2" d="M535.64,331.71H500.19a7.71,7.71,0,0,1,0-15.42h35.45a7.71,7.71,0,1,1,0,15.42Z"/><path class="cls-2" d="M476.59,243.62a7.71,7.71,0,0,1-3.86-14.39l30.7-17.73a7.71,7.71,0,1,1,7.71,13.36l-30.7,17.73A7.7,7.7,0,0,1,476.59,243.62Z"/><path class="cls-2" d="M324,543.35a219.33,219.33,0,1,1,155.11-64.24A217.92,217.92,0,0,1,324,543.35Zm0-423.28c-112.45,0-203.93,91.48-203.93,203.93S211.55,527.93,324,527.93,527.93,436.45,527.93,324,436.45,120.07,324,120.07Z"/><circle class="cls-3" cx="324" cy="324" r="176.19"/><path class="cls-2" d="M324,507.9c-101.4,0-183.9-82.5-183.9-183.9S222.6,140.1,324,140.1,507.9,222.6,507.9,324,425.4,507.9,324,507.9Zm0-352.38c-92.9,0-168.48,75.58-168.48,168.48S231.1,492.48,324,492.48,492.48,416.9,492.48,324,416.9,155.52,324,155.52Z"/><circle class="cls-3" cx="324" cy="324" r="176.19"/><path class="cls-2" d="M324,507.9c-101.4,0-183.9-82.5-183.9-183.9S222.6,140.1,324,140.1,507.9,222.6,507.9,324,425.4,507.9,324,507.9Zm0-352.38c-92.9,0-168.48,75.58-168.48,168.48S231.1,492.48,324,492.48,492.48,416.9,492.48,324,416.9,155.52,324,155.52Z"/><path d="M369.6,153.82s70.23,22.39,107,82.09l-97.27,56.15s-7.06-22.33-38.19-31.94Z"/><path class="cls-3" d="M476.58,235.91s33.83,65.49,17.6,133.69L385.7,340.53s10.79-20.79-4.43-49.6Z"/><path class="cls-4" d="M412.09,476.58s-65.49,33.83-133.69,17.6L307.47,385.7s20.79,10.79,49.6-4.43Z"/><path d="M171.42,412.09s-33.83-65.49-17.6-133.69L262.3,307.47s-10.79,20.79,4.43,49.6Z"/><path class="cls-3" d="M153.82,278.4s22.39-70.23,82.09-107l56.15,97.27s-22.33,7.06-31.94,38.19Z"/><path class="cls-4" d="M235.91,171.42s65.49-33.83,133.69-17.6L340.53,262.3s-20.79-10.79-49.6,4.43Z"/><path class="cls-3" d="M494.18,369.6s-22.39,70.23-82.09,107l-56.15-97.27s22.33-7.06,31.94-38.19Z"/><path class="cls-2" d="M283.76,504l-7.7-2.46c-3-.95-73.4-24-111.21-85.39l-4.16-6.76,112.45-64.92,2.9,9.15c.23.69,6.6,18.71,33.12,26.9l7.1,2.19ZM182.33,414.7c28.34,40.92,73.08,62.13,90.81,69.3l24.45-91.25c-17.82-7.24-27.37-18.39-32.12-26.05Z"/><line class="cls-3" x1="324" y1="324" x2="235.91" y2="171.42"/><path class="cls-2" d="M324,331.71a7.71,7.71,0,0,1-6.69-3.85L229.23,175.27a7.71,7.71,0,0,1,13.36-7.71l88.09,152.58A7.71,7.71,0,0,1,324,331.71Z"/><line class="cls-3" x1="324" y1="324" x2="153.82" y2="278.4"/><path class="cls-2" d="M324,331.71a7.68,7.68,0,0,1-2-.26l-170.18-45.6a7.71,7.71,0,0,1,4-14.9L326,316.55a7.71,7.71,0,0,1-2,15.16Z"/><line class="cls-3" x1="324" y1="324" x2="171.42" y2="412.09"/><path class="cls-2" d="M171.42,419.81a7.72,7.72,0,0,1-3.86-14.4l152.58-88.09a7.72,7.72,0,0,1,7.72,13.36L175.27,418.77A7.68,7.68,0,0,1,171.42,419.81Z"/><line class="cls-3" x1="324" y1="324" x2="278.4" y2="494.18"/><path class="cls-2" d="M278.4,501.9a7.73,7.73,0,0,1-7.45-9.71L316.55,322a7.71,7.71,0,1,1,14.9,4l-45.6,170.18A7.71,7.71,0,0,1,278.4,501.9Z"/><line class="cls-3" x1="324" y1="324" x2="412.09" y2="476.58"/><path class="cls-2" d="M412.1,484.3a7.73,7.73,0,0,1-6.69-3.86L317.32,327.86a7.72,7.72,0,1,1,13.36-7.72l88.09,152.59a7.72,7.72,0,0,1-6.67,11.57Z"/><line class="cls-3" x1="324" y1="324" x2="494.18" y2="369.6"/><path class="cls-2" d="M494.19,377.32a7.7,7.7,0,0,1-2-.27L322,331.45a7.71,7.71,0,1,1,4-14.9l170.18,45.6a7.72,7.72,0,0,1-2,15.17Z"/><line class="cls-3" x1="324" y1="324" x2="476.58" y2="235.91"/><path class="cls-2" d="M324,331.71a7.71,7.71,0,0,1-3.87-14.39l152.59-88.09a7.71,7.71,0,0,1,7.71,13.36L327.86,330.68A7.7,7.7,0,0,1,324,331.71Z"/><line class="cls-3" x1="324" y1="324" x2="369.6" y2="153.82"/><path class="cls-2" d="M324,331.71a7.7,7.7,0,0,1-7.45-9.71l45.6-170.18a7.71,7.71,0,0,1,14.9,4L331.45,326A7.71,7.71,0,0,1,324,331.71Z"/><circle class="cls-5" cx="324" cy="324" r="63.88"/><path class="cls-2" d="M324,395.59A71.59,71.59,0,1,1,395.59,324,71.66,71.66,0,0,1,324,395.59Zm0-127.76A56.17,56.17,0,1,0,380.17,324,56.24,56.24,0,0,0,324,267.83Z"/><path class="cls-2" d="M324,507.9c-101.4,0-183.9-82.5-183.9-183.9S222.6,140.1,324,140.1,507.9,222.6,507.9,324,425.4,507.9,324,507.9Zm0-352.38c-92.9,0-168.48,75.58-168.48,168.48S231.1,492.48,324,492.48,492.48,416.9,492.48,324,416.9,155.52,324,155.52Z"/><path class="cls-2" d="M324,155.52a7.71,7.71,0,0,1-7.71-7.71V112.36a7.71,7.71,0,0,1,15.42,0v35.45A7.71,7.71,0,0,1,324,155.52Z"/><path class="cls-2" d="M235.91,179.13a7.7,7.7,0,0,1-6.68-3.86l-17.73-30.7a7.71,7.71,0,1,1,13.36-7.71l17.73,30.7a7.71,7.71,0,0,1-6.68,11.57Z"/><path class="cls-2" d="M171.41,243.62a7.7,7.7,0,0,1-3.85-1l-30.7-17.73a7.71,7.71,0,1,1,7.71-13.36l30.7,17.73a7.71,7.71,0,0,1-3.86,14.39Z"/><path class="cls-2" d="M140.72,437.53a7.71,7.71,0,0,1-3.86-14.39l30.7-17.73a7.71,7.71,0,1,1,7.71,13.36l-30.7,17.73A7.7,7.7,0,0,1,140.72,437.53Z"/><path class="cls-2" d="M218.17,515a7.71,7.71,0,0,1-6.67-11.57l17.73-30.7a7.71,7.71,0,1,1,13.36,7.71l-17.73,30.7A7.7,7.7,0,0,1,218.17,515Z"/><path class="cls-2" d="M324,543.35a7.71,7.71,0,0,1-7.71-7.71V500.19a7.71,7.71,0,0,1,15.42,0v35.45A7.71,7.71,0,0,1,324,543.35Z"/><path class="cls-2" d="M429.83,515a7.7,7.7,0,0,1-6.69-3.86l-17.73-30.7a7.71,7.71,0,1,1,13.36-7.71l17.73,30.7A7.71,7.71,0,0,1,429.83,515Z"/><path class="cls-2" d="M412.09,179.13a7.71,7.71,0,0,1-6.68-11.57l17.73-30.7a7.71,7.71,0,1,1,13.36,7.71l-17.73,30.7A7.7,7.7,0,0,1,412.09,179.13Z"/><path class="cls-2" d="M211.06,223.14l-68.53-56a16.1,16.1,0,1,1,20.37-24.94,17.25,17.25,0,0,1,2.15,2.12l56.85,67.81a7.75,7.75,0,0,1-10.84,11Z"/></g></svg>