<svg xmlns="http://www.w3.org/2000/svg" viewBox="0 0 648 648"><defs><style>.cls-1{fill:#fde5da;}.cls-2{fill:#ed6b47;}.cls-3{fill:#fff;}.cls-4{fill:#1c2575;}</style></defs><g id="Layer_1" data-name="Layer 1"><rect class="cls-1" width="648" height="648"/><path class="cls-2" d="M540.27,442.36C538.14,414,512.6,282.88,512.6,282.88L475,272.13l9.1,102.71c-14.93-17.95-37.21-45.31-48.82-62.28-18.44-26.95-31.92-17.73-31.92-17.73l-63.54,13.88-54.65-7.23s-13.6-7.06-24.17,6c-9.22,11.41-44.44,63.74-53.34,77L139.4,287.7l-30.3,26.86s38.46,84.33,51.65,112.26c7.15,15.13,24,52.58,54.87,25.71,19.3-16.77,32.85-28.79,40.3-35.46V536.88H442.37V414.41c19.7,15.31,58.46,44.53,76.62,52.07C526.41,469.56,542.39,470.74,540.27,442.36Z"/><polygon class="cls-3" points="139.4 287.7 109.1 314.56 122.1 343.01 158.33 314.55 139.4 287.7"/><polygon class="cls-3" points="512.6 282.88 519.06 316.62 478.1 306.98 475.01 272.13 512.6 282.88"/><path class="cls-4" d="M211.11,386.83l-6.88-4.6c1.75-2.62,43-64.22,53.56-77.31,10-12.44,23.56-10.09,29.3-7.12l-3.79,7.36c-1.09-.55-11-5.08-19.07,5C253.89,322.92,211.53,386.19,211.11,386.83Z"/><polyline class="cls-3" points="293.68 282.88 282.32 306.64 326.05 331.09 339.83 308.71"/><path class="cls-4" d="M326.05,335.23a4.09,4.09,0,0,1-2-.53L280.3,310.25a4.14,4.14,0,0,1-1.72-5.4L290,281.09l7.46,3.57-9.69,20.26,36.89,20.62,11.69-19,7.05,4.33-13.78,22.39A4.14,4.14,0,0,1,326.05,335.23Z"/><path class="cls-4" d="M194.91,466.12a24.15,24.15,0,0,1-5-.53c-17.15-3.61-27.12-24.77-32.48-36.14l-.41-.86C144,401,105.72,317.12,105.33,316.28a4.15,4.15,0,0,1,1-4.82l30.31-26.86a4.14,4.14,0,0,1,6.13.72l82.64,117.22a4.14,4.14,0,1,1-6.76,4.77l-80-113.45-24.56,21.77c6.77,14.83,38.69,84.7,50.37,109.43l.41.87c4.74,10.06,13.57,28.8,26.69,31.57,6.42,1.35,13.59-1.37,21.31-8.09,30.51-26.51,46.83-41.34,47-41.49a4.14,4.14,0,1,1,5.57,6.12c-.16.15-16.55,15-47.13,41.62C210.34,462.61,202.48,466.12,194.91,466.12Z"/><path class="cls-4" d="M445.41,552.05a4.13,4.13,0,0,1-4.14-4l-3-133.51a4.15,4.15,0,0,1,4-4.23h.1a4.13,4.13,0,0,1,4.13,4.05l3,133.5a4.12,4.12,0,0,1-4,4.23Z"/><path class="cls-4" d="M254.54,552.05a4.13,4.13,0,0,1-4.13-4.13V418.3a4.14,4.14,0,1,1,8.27,0V547.92A4.13,4.13,0,0,1,254.54,552.05Z"/><path class="cls-4" d="M499.13,396.85A4.13,4.13,0,0,1,496,395.4c-1.86-2.18-45.75-53.67-64.1-80.5-15.57-22.76-25.82-16.86-26.25-16.6l-2.26-3.47L401,291.42c.69-.48,17.12-11.22,37.67,18.81,18.1,26.46,63.11,79.27,63.56,79.8a4.13,4.13,0,0,1-3.14,6.82Z"/><path class="cls-4" d="M526.48,472.15a24.61,24.61,0,0,1-9.08-1.85c-25.18-10.45-87-60-89.67-62.15a4.14,4.14,0,0,1,5.19-6.45c.63.51,63.56,51,87.65,61,3.24,1.34,7.81,2,10.91-.26,3.81-2.76,5.42-9.58,4.66-19.73C534.22,417,512.55,304.4,509,286.16l-29.37-8.39,8.57,96.7a4.14,4.14,0,1,1-8.24.73l-9.1-102.7a4.14,4.14,0,0,1,5.26-4.35l37.59,10.75a4.15,4.15,0,0,1,2.93,3.19c1,5.36,25.6,131.67,27.72,160,1,13.36-1.71,22.46-8.06,27.05A16.49,16.49,0,0,1,526.48,472.15Z"/><path class="cls-4" d="M340.69,244.31a4.14,4.14,0,0,1-1.34-.22l-18.85-6.42,11.38-41a4.14,4.14,0,1,1,8,2.22l-9.28,33.43,11.45,3.9a4.14,4.14,0,0,1-1.33,8.05Z"/><path class="cls-4" d="M315.57,279.08a3.68,3.68,0,0,1-1.29-.24,3.62,3.62,0,0,1-2.1-4.67c2.55-6.76,11.79-18.88,28.44-16.38,15.78,2.37,23.2-5.72,23.51-6.07a3.64,3.64,0,0,1,5.48,4.78c-.41.47-10.17,11.46-30.07,8.48-14.94-2.24-20.35,11.2-20.57,11.77A3.66,3.66,0,0,1,315.57,279.08Z"/><path class="cls-3" d="M294.37,155.56s-26-21.12-36.32,4.05c-6.91,16.89,3.39,37.31,14.93,46.16"/><path class="cls-4" d="M270.47,209.06c-13.59-10.42-23.67-32.89-16.25-51,3.2-7.81,8.12-12.62,14.64-14.28,13.17-3.37,27.51,8.09,28.12,8.58l-5.22,6.43,2.61-3.21-2.6,3.21c-3.24-2.6-13.29-8.94-20.87-7-3.89,1-6.85,4.07-9,9.4-6.28,15.33,3.88,33.84,13.62,41.31Z"/><path class="cls-3" d="M399.84,211.25c42.61-61.82-10.51-94-38.15-96.6-54.49-5.16-67.32,42.19-67.32,42.19s34.78,36.33,104.37,11Z"/><path class="cls-4" d="M396,224.07l-1.27-50.43c-34.35,11.22-59.94,7.46-75.63,2.12-18.14-6.18-27.36-15.66-27.74-16.06L289.76,158l.62-2.25a67.16,67.16,0,0,1,14.13-24.71c9.78-10.92,27.7-23.35,57.57-20.51,15.3,1.45,42.09,12.23,53.18,36,6.29,13.51,9.32,36.1-12,67.05Zm6.71-62,.89,35.05c9.16-17.5,10.55-33.28,4.14-47-8.52-18.26-30.29-29.73-46.46-31.27-44.05-4.17-58.84,27.66-62.17,36.81a71.72,71.72,0,0,0,23.13,12.51c15.17,5.06,40.51,8.46,75.07-4.09Z"/><path class="cls-4" d="M122.1,347.15a4.14,4.14,0,0,1-2.56-7.39l36.23-28.47a4.14,4.14,0,0,1,5.12,6.51l-36.24,28.46A4.06,4.06,0,0,1,122.1,347.15Z"/><path class="cls-4" d="M519.06,320.76a4.47,4.47,0,0,1-.95-.11l-41-9.64A4.13,4.13,0,1,1,479,303l41,9.63a4.14,4.14,0,0,1-.94,8.17Z"/><path class="cls-4" d="M475,276.26a4.12,4.12,0,0,1-4.1-3.67c-1-8.9,3.37-27,26.84-31.87,25.56-5.3,56.6-13.71,56.91-13.79a4.13,4.13,0,0,1,4.66,6.07c-1.73,3-10.67,18-16.61,22a4.14,4.14,0,0,1-4.59-6.89c2-1.31,5.33-5.72,8.54-10.48-11.4,3-30.47,7.75-47.23,11.22-9.23,1.92-15.44,6.28-18.43,13a21.6,21.6,0,0,0-1.86,9.9,4.16,4.16,0,0,1-3.69,4.54Z"/><path class="cls-4" d="M512.6,287a4.14,4.14,0,0,1-3.32-6.61c13.17-17.71,47.89-14.88,70.87-13,3.35.27,7.11.58,10.23.73-23.53-14.71-74.31-12.51-74.84-12.48a4.14,4.14,0,0,1-.39-8.27c2.34-.11,57.52-2.5,82.28,15.53,2.5,1.82,7.16,5.21,5.54,9.58-1.83,4.92-8.17,4.4-23.49,3.15-19.87-1.62-53.13-4.33-63.56,9.7A4.13,4.13,0,0,1,512.6,287Z"/><path class="cls-4" d="M93.39,296.19H93a164.54,164.54,0,0,1-20.55-2.94c-6.33-1.43-12.23-3.43-12.58-8.29-.48-6.54,10.15-9.07,16.49-10.57,35.94-8.54,64.07,9.08,65.25,9.83a4.14,4.14,0,0,1-4.45,7c-.32-.2-26.49-16.45-58.88-8.76a69,69,0,0,0-7,2c4.06,1.18,11.38,2.55,22.47,3.52a4.14,4.14,0,0,1-.35,8.26Z"/><path class="cls-4" d="M45.25,335.33a6.38,6.38,0,0,1-3.44-1c-1.09-.69-3.53-2.79-2.73-7.44,1.57-9.13,18.11-31,59.28-40.38a4.14,4.14,0,0,1,1.84,8.07c-33,7.51-47.95,23.54-51.89,30.85l.09-.06c18.09-12.76,58.77-14.89,60.5-15a4.13,4.13,0,1,1,.4,8.26c-.4,0-40,2.09-56.13,13.47C50.18,334.27,47.52,335.33,45.25,335.33Z"/><path class="cls-4" d="M275.15,249.64a23.36,23.36,0,1,1,0-46.72v8.27a15.09,15.09,0,1,0,0,30.18,14.91,14.91,0,0,0,4.41-.66l2.42,7.91A23.21,23.21,0,0,1,275.15,249.64Z"/><polyline class="cls-3" points="389.97 276.01 405.87 293.78 355.33 331.09 340.69 304.85"/><path class="cls-4" d="M355.33,335.23a3.69,3.69,0,0,1-.87-.1,4.16,4.16,0,0,1-2.74-2l-14.65-26.24a4.14,4.14,0,0,1,7.23-4L356.66,325l43.1-31.82-12.87-14.38a4.14,4.14,0,1,1,6.16-5.52L409,291a4.14,4.14,0,0,1-.63,6.09l-50.54,37.31A4.14,4.14,0,0,1,355.33,335.23Z"/><path class="cls-4" d="M384.55,176.94a4.14,4.14,0,0,1-1.31-8.07A67.49,67.49,0,0,0,401,160.24a4.14,4.14,0,0,1,5,6.59c-.31.23-7.58,5.71-20.13,9.89A4,4,0,0,1,384.55,176.94Z"/><path class="cls-4" d="M373.28,262a3.66,3.66,0,0,1-1.85-.51c-8.77-5.17-8.23-15.77-8.2-16.22a3.64,3.64,0,0,1,7.26.43c0,.31-.24,6.65,4.64,9.53a3.64,3.64,0,0,1-1.85,6.77Z"/><path class="cls-4" d="M340,307.93a55.48,55.48,0,0,1-23.63-5.65l-5.95-2.74c-15.75-7.23-22.94-10.52-27.74-26.2-3.68-12-11.38-61.52-11.69-68.93-1.41-33.19,20-50.14,20.88-50.84l2.86-2.22,2.57,2.54c.15.15,9.42,9.07,26.22,14.74,22.59,7.61,47.38,6.07,73.7-4.58l5.53-2.24.16,6c0,.59,1.61,59.28,1.76,78.77.15,18.56-4.73,24.75-27.52,45.41C365.37,302.6,352.94,307.93,340,307.93ZM294.44,162.37c-5.11,5.14-16.18,19-15.21,41.69.3,7,7.89,55.62,11.34,66.86,3.71,12.12,8.24,14.2,23.27,21.09,1.86.86,3.86,1.77,6,2.78,18.55,8.69,35.46,5.75,51.71-9,22.37-20.28,24.92-24.31,24.81-39.21-.12-15.76-1.2-57.36-1.61-72.76-32.71,11.77-58.32,8-74.36,2.48A87.29,87.29,0,0,1,294.44,162.37Z"/><path class="cls-4" d="M405.25,247.18a20.33,20.33,0,0,1-6.06-.92l2.44-7.9a12.22,12.22,0,1,0-1.13-22.94l-3.23-7.62a20.5,20.5,0,1,1,8,39.38Z"/></g></svg>