<svg xmlns="http://www.w3.org/2000/svg" viewBox="0 0 648 648"><defs><style>.cls-1{fill:#fde5da;}.cls-2{fill:#ed6b47;}.cls-3{fill:#1c2575;}.cls-4{fill:#fff;}.cls-5{fill:#020202;}</style></defs><g id="Layer_1" data-name="Layer 1"><rect class="cls-1" width="648" height="648"/><path class="cls-2" d="M546.16,242.74s-16.69,135.79-23.09,180.94c-9.9,69.78-51.35,93.58-105.05,93.58H208.16a79.26,79.26,0,0,1-78.73-70.14L101.84,242.74"/><path class="cls-3" d="M418,522.62H208.16a84.6,84.6,0,0,1-84-74.83L96.54,243.46,107.15,242l27.6,204.48a73.89,73.89,0,0,0,73.41,65.4H418c58.62,0,91.25-29.1,99.74-89,6.33-44.59,22.91-179.49,23.08-180.84l10.63,1.3c-.16,1.36-16.76,136.36-23.1,181C519.13,489.58,482,522.62,418,522.62Z"/><path class="cls-4" d="M217.94,358.85V342c0-19.46-17.35-35.37-35.37-35.37-20.86,0-35.37,15.91-35.37,35.37v16.88Z"/><path class="cls-3" d="M223.29,364.21H141.84V342c0-23.22,17.51-40.73,40.73-40.73,21.69,0,40.72,19,40.72,40.73ZM152.55,353.5h60V342c0-15.71-14.31-30-30-30-17.11,0-30,12.91-30,30Z"/><path class="cls-4" d="M313.36,358.85V342c0-19.46-13.46-35.37-35.37-35.37-18.67,0-35.37,15.91-35.37,35.37v16.88Z"/><path class="cls-3" d="M319.61,365.1H236.37V342c0-22.56,19.06-41.62,41.62-41.62,24.11,0,41.62,17.5,41.62,41.62Zm-70.74-12.5h58.24V342c0-17.15-12-29.12-29.12-29.12-15.52,0-29.12,13.61-29.12,29.12Z"/><path class="cls-4" d="M408.78,358.85V342c0-19.46-15.93-34.87-35.37-35.37C352.72,306.06,338,322.51,338,342v16.88Z"/><path class="cls-3" d="M415,365.1H331.79V342a42.5,42.5,0,0,1,12.54-30.38,40,40,0,0,1,29.24-11.24C396.82,301,415,319.23,415,342Zm-70.74-12.5h58.24V342c0-15.91-12.86-28.7-29.28-29.12a27.24,27.24,0,0,0-20.2,7.69A30,30,0,0,0,344.29,342Z"/><path class="cls-4" d="M504.2,358.85V342c0-19.46-10-35.6-35.37-35.37A35.58,35.58,0,0,0,433.46,342v16.88Z"/><path class="cls-3" d="M509.55,364.21H428.1V342a41,41,0,0,1,40.68-40.73c12.61-.1,22.61,3.42,29.75,10.5s11,17.6,11,30.23ZM438.81,353.5h60V342c0-6.77-1.36-16.19-7.85-22.62-5-5-12.49-7.49-22.11-7.4a30.28,30.28,0,0,0-30.07,30Z"/><path class="cls-4" d="M433.46,439.31V422.43c0-19.45,17.35-35.37,35.37-35.37,20.85,0,35.37,15.92,35.37,35.37v16.88Z"/><path class="cls-3" d="M509.55,444.67H428.1V422.43c0-21.7,19-40.73,40.73-40.73,23.22,0,40.72,17.51,40.72,40.73ZM438.81,434h60V422.43c0-17.11-12.9-30-30-30-15.71,0-30,14.3-30,30Z"/><path class="cls-4" d="M242.62,439.31V422.43c0-19.45,13.45-35.37,35.37-35.37,18.67,0,35.37,15.92,35.37,35.37v16.88Z"/><path class="cls-3" d="M318.71,444.67H237.26V422.43c0-23.6,17.13-40.73,40.73-40.73,22.07,0,40.72,18.65,40.72,40.73ZM248,434h60V422.43c0-16-14-30-30-30-17.67,0-30,12.34-30,30Z"/><path class="cls-4" d="M147.2,439.31V422.43c0-19.45,10-35.6,35.37-35.37a35.59,35.59,0,0,1,35.37,35.37v16.88Z"/><path class="cls-3" d="M223.29,444.67H141.84V422.43c0-12.63,3.81-23.08,11-30.23s17.17-10.61,29.75-10.5a41,41,0,0,1,40.68,40.73ZM152.55,434h60V422.43a30.26,30.26,0,0,0-30.06-30c-9.61-.09-17.08,2.4-22.12,7.39-6.49,6.43-7.85,15.85-7.85,22.62Z"/><ellipse class="cls-4" cx="324" cy="242.66" rx="222.16" ry="22.92"/><path class="cls-3" d="M324,270.94c-59.52,0-115.5-2.4-157.64-6.75-20.64-2.13-36.9-4.62-48.33-7.41-11.19-2.73-21.54-6.33-21.54-14.12s10.35-11.4,21.54-14.13c11.43-2.78,27.69-5.28,48.33-7.41,42.14-4.35,98.12-6.74,157.64-6.74s115.5,2.39,157.64,6.74c20.64,2.13,36.9,4.63,48.33,7.41,11.19,2.73,21.54,6.33,21.54,14.13S541.16,254.05,530,256.78c-11.43,2.79-27.69,5.28-48.33,7.41C439.5,268.54,383.52,270.94,324,270.94ZM109.1,242.66c5,2.38,20.25,7.29,65,11.54,40.93,3.88,94.16,6,149.89,6s109-2.14,149.89-6c44.76-4.25,60-9.16,65-11.54-5-2.39-20.25-7.29-65-11.54-40.93-3.89-94.16-6-149.89-6s-109,2.14-149.89,6C129.35,235.37,114.11,240.27,109.1,242.66Z"/><path class="cls-3" d="M414.47,262.39H403.76V219.82c0-10.76,0-43.51-62-48.22-43.16-3.28-72.32,1.79-86.65,15.07-7.39,6.86-10.84,15.8-10.84,28.14v47.58H233.53V214.81c0-15.32,4.67-27.09,14.27-36,16.84-15.61,47.83-21.47,94.74-17.91,47.73,3.63,71.93,23.45,71.93,58.91Z"/><path class="cls-3" d="M439.47,223.1H428.76V184.86a38.11,38.11,0,0,0-11.59-27.94c-13.78-13.74-39.25-21-73.73-20.82-49.93.17-74.2,14.94-74.2,45.16V223.1H258.53V181.26c0-16.83,6.19-30.11,18.42-39.48C291,131,313.36,125.49,343.4,125.38h.92c37.42,0,64.47,8.06,80.42,24a49.14,49.14,0,0,1,14.73,35.53Z"/><path class="cls-4" d="M338,439.31V422.43c0-19.45,15.92-34.87,35.37-35.37,20.68-.54,35.37,15.92,35.37,35.37v16.88Z"/><path class="cls-3" d="M414.13,444.67H332.68V422.43c0-22.25,17.83-40.14,40.59-40.73a39.15,39.15,0,0,1,28.6,11,41.64,41.64,0,0,1,12.26,29.74ZM343.39,434h60V422.43a30.86,30.86,0,0,0-9-22.07,28.13,28.13,0,0,0-20.84-7.95c-16.91.44-30.16,13.63-30.16,30Z"/><ellipse class="cls-3" cx="278.82" cy="328.49" rx="10.04" ry="15.16"/><ellipse class="cls-3" cx="374.57" cy="328.49" rx="10.37" ry="15.16"/><path class="cls-5" d="M342.13,332.68s36.65-10.28,63.76,1.85l-15.18-21.4-17.44-3L353,315.3Z"/><path class="cls-5" d="M245.35,333.51s39.53-11.21,65.16,1.89l-12.66-23L279,309.18l-21.9,5.54Z"/><path class="cls-3" d="M414.13,364.21H332.68V342A41.59,41.59,0,0,1,345,312.23a39.05,39.05,0,0,1,28.6-11c22.76.59,40.58,18.48,40.58,40.73ZM343.39,353.5h60V342c0-16.4-13.24-29.58-30.15-30a28.15,28.15,0,0,0-20.85,7.95,30.91,30.91,0,0,0-9,22.07Z"/><path class="cls-3" d="M318.71,364.21H237.26V342c0-22.08,18.65-40.73,40.73-40.73,23.6,0,40.72,17.13,40.72,40.73ZM248,353.5h60V342c0-17.67-12.34-30-30-30-16,0-30,14-30,30Z"/><path class="cls-2" d="M364,495.29c-4.27-17.42-30.29-30.54-55.14-15.8"/><path class="cls-3" d="M364,500.65a5.36,5.36,0,0,1-5.2-4.09c-1.58-6.41-7.25-12.37-14.81-15.55-10.12-4.25-21.93-3.12-32.4,3.09a5.36,5.36,0,1,1-5.47-9.21c13.42-8,28.74-9.33,42-3.76,10.79,4.53,18.66,13.09,21.06,22.88a5.35,5.35,0,0,1-3.93,6.48A5,5,0,0,1,364,500.65Z"/></g></svg>