<svg xmlns="http://www.w3.org/2000/svg" viewBox="0 0 648 648"><defs><style>.cls-1{fill:#f7e436;}.cls-2{fill:none;stroke:#000;stroke-linecap:round;stroke-miterlimit:10;stroke-width:29.14px;}</style></defs><g id="Main_Grid" data-name="Main Grid"><path class="cls-1" d="M323,608.71a183.64,183.64,0,0,1-118.28-42.62,179.06,179.06,0,0,1-65-123.33l-13-179.21c-1.43-20.31,2.7-36,12.28-46.59a37.42,37.42,0,0,1,23.21-12.25,33.32,33.32,0,0,1,3.47-.19,30.26,30.26,0,0,1,19.75,7.4c.34.29.69.58,1,.89l-4.53-64.2c-2.3-32.63,14.8-58.1,40.67-60.56,1.35-.13,2.68-.19,4-.19a36.68,36.68,0,0,1,24.29,9c.4.34.8.7,1.2,1.06C251,68.62,269.63,41.61,292.86,39.48c1.26-.12,2.56-.19,3.82-.19A36.66,36.66,0,0,1,321,48.35c11.27,9.58,18.79,26.56,20.12,45.42l1.4,19.86c7.71-9.34,18-14.63,28.36-15.38,1.1-.08,2.25-.13,3.36-.13a37.81,37.81,0,0,1,25.47,9.42c10.89,9.43,17.91,25.84,19.26,45l8.88,125.84a67.76,67.76,0,0,1,5.9-9.25c7.87-10.38,27.1-27.94,49.29-27.94a40.58,40.58,0,0,1,24.88,8.46c13.53,10.18,21.3,31.75,2.54,61.75-11.29,18-7.51,51.06-4.48,77.58.65,5.67,1.25,10.95,1.68,15.87,10.41,101.37-63.54,192.33-164.92,202.82A190.76,190.76,0,0,1,323,608.71Z"/><path d="M296.68,55a21.12,21.12,0,0,1,14.14,5.33c8,6.8,13.61,20,14.64,34.57l13.6,192.71a7.81,7.81,0,0,0,7.78,7.29l.58,0a7.84,7.84,0,0,0,7.27-8.36l-9-128.76c-1.92-27.11,12.14-42.82,26.33-43.84.76-.06,1.5-.09,2.23-.09a22.3,22.3,0,0,1,15.2,5.59c7.65,6.63,12.84,19.44,13.89,34.27l16.26,230.49.06.88h0a7.81,7.81,0,0,0,7.77,7.28,5.82,5.82,0,0,0,.59,0,7.84,7.84,0,0,0,7.27-8.36l-2.77-39.21c-2-28.75,2.72-51.61,13.72-66.11,5.29-7,20.67-21.73,36.8-21.73a25.14,25.14,0,0,1,15.45,5.3c10.33,7.78,9.83,23.07-1.33,40.92-14.19,22.68-10.07,58.72-6.76,87.67.64,5.56,1.24,10.81,1.65,15.56,9.6,92.82-58.1,176.15-150.92,185.76a174.25,174.25,0,0,1-18.06.94,169.12,169.12,0,0,1-108.3-39,163.53,163.53,0,0,1-59.37-112.6l-13-179c-2.64-37.48,17.53-41.66,21.6-42.11a14.29,14.29,0,0,1,1.72-.1,14.78,14.78,0,0,1,9.71,3.77c7.62,6.34,13.23,20,14.32,34.89l6.74,95.49a7.83,7.83,0,0,0,7.78,7.29l.59,0a7.84,7.84,0,0,0,7.26-8.37L205.36,258c0-.07,0-.15,0-.22l-7.78-110.24c-1.44-20.4,7.21-42,26.51-43.85q1.27-.12,2.49-.12a21.15,21.15,0,0,1,14.15,5.23c7.91,6.7,13.47,20,14.5,34.67l10.56,149.22v.1a7.85,7.85,0,0,0,7.78,7.28c.19,0,.39,0,.59,0a7.84,7.84,0,0,0,7.27-8.37L267.81,98.94c-1.5-21.15,11.38-42.46,26.48-43.85.81-.08,1.61-.12,2.39-.12m0-31.35h0c-1.73,0-3.5.08-5.26.24h0C274.19,25.45,258.36,36.21,248,53.39a80.62,80.62,0,0,0-8.69,20.31,53.25,53.25,0,0,0-12.73-1.52c-1.78,0-3.6.09-5.41.25-19.37,1.85-36,13.27-45.74,31.36-7,13.13-10.29,29.44-9.13,45.93L169.05,189c-1.12-.08-2.24-.12-3.37-.12a46.2,46.2,0,0,0-5.25.3,53.31,53.31,0,0,0-33.07,17.32c-12.55,13.9-18,33.47-16.28,58.16v.07l13,179,0,.22v.22c4.57,52.59,29.66,100.2,70.64,134.06a200.48,200.48,0,0,0,128.28,46.2,208.08,208.08,0,0,0,21.29-1.1c109.93-11.38,190.14-110,178.91-219.91-.45-5.12-1.06-10.49-1.71-16.16-2.47-21.54-6.19-54.09,2.19-67.48,8.53-13.64,13.06-27.05,13.48-39.85.55-17.24-6.69-32.82-19.88-42.75A56.74,56.74,0,0,0,483,225.52c-17,0-31.46,7.27-42.14,15.13l-6.29-89.2C433,128.16,424,107.83,410,95.69a53.8,53.8,0,0,0-35.74-13.25c-1.48,0-3,.06-4.5.17A53,53,0,0,0,356,85.48C353.05,65.36,344,47.36,331.12,36.4a52.56,52.56,0,0,0-34.44-12.78Z"/><circle cx="271.93" cy="378.88" r="15.21" transform="translate(-37.55 30) rotate(-5.91)"/><ellipse cx="373.56" cy="371.57" rx="15.21" ry="22.58" transform="translate(-36.26 40.42) rotate(-5.91)"/><polyline class="cls-2" points="304.43 460.98 338.65 457.59 324.68 394.82"/><line class="cls-2" x1="310.74" y1="524.58" x2="360.29" y2="519.52"/><path class="cls-2" d="M340.05,332.25a40.2,40.2,0,0,1,56-9.87"/><line class="cls-2" x1="295.22" y1="366.36" x2="243.42" y2="340.87"/></g></svg>