<svg xmlns="http://www.w3.org/2000/svg" viewBox="0 0 648 648"><defs><style>.cls-1{fill:#fde5da;}.cls-2{fill:#ed6b47;}.cls-3{fill:#1c2575;}</style></defs><g id="Layer_1" data-name="Layer 1"><rect class="cls-1" width="648" height="648"/></g><g id="Main_Grid" data-name="Main Grid"><line class="cls-2" x1="210.86" y1="432.46" x2="161.3" y2="516.51"/><path class="cls-3" d="M161.3,524.05a7.53,7.53,0,0,1-6.49-11.36l49.55-84.06a7.54,7.54,0,0,1,13,7.66L167.8,520.34A7.55,7.55,0,0,1,161.3,524.05Z"/><line class="cls-2" x1="437.14" y1="432.46" x2="486.7" y2="516.51"/><path class="cls-3" d="M486.7,524.05a7.55,7.55,0,0,1-6.5-3.71l-49.55-84.05a7.54,7.54,0,0,1,13-7.66l49.55,84.06a7.53,7.53,0,0,1-6.49,11.36Z"/><path class="cls-2" d="M510.91,321.34a73.67,73.67,0,0,0-35.17-62.85,73.75,73.75,0,0,0-88.89-88.89,73.74,73.74,0,0,0-125.7,0,73.75,73.75,0,0,0-88.89,88.89,73.74,73.74,0,0,0,0,125.7,73.75,73.75,0,0,0,88.89,88.88,73.73,73.73,0,0,0,125.7,0,73.75,73.75,0,0,0,88.89-88.88A73.68,73.68,0,0,0,510.91,321.34Z"/><path class="cls-3" d="M324,515.78a80.72,80.72,0,0,1-66.33-34.3,81.29,81.29,0,0,1-93.81-93.81,81.27,81.27,0,0,1,0-132.66,81.28,81.28,0,0,1,93.81-93.81,81.27,81.27,0,0,1,132.66,0A81.28,81.28,0,0,1,484.14,255a81.27,81.27,0,0,1,0,132.66,81.34,81.34,0,0,1-79.9,95,81.92,81.92,0,0,1-13.91-1.19A80.72,80.72,0,0,1,324,515.78Zm-59.29-51.3,2.86,4.65a66.21,66.21,0,0,0,112.86,0l2.86-4.65,5.31,1.26a66.21,66.21,0,0,0,79.81-79.8l-1.27-5.31,4.65-2.86a66.21,66.21,0,0,0,0-112.86l-4.65-2.86,1.27-5.31a66.21,66.21,0,0,0-79.81-79.81l-5.31,1.27-2.86-4.65a66.21,66.21,0,0,0-112.86,0l-2.86,4.65-5.31-1.27a66.22,66.22,0,0,0-79.81,79.81l1.27,5.31-4.65,2.86a66.21,66.21,0,0,0,0,112.86l4.65,2.86-1.27,5.31a66.21,66.21,0,0,0,79.81,79.8Z"/><circle cx="279.32" cy="250.78" r="15.92"/><path class="cls-3" d="M279.32,274.24a23.46,23.46,0,1,1,23.47-23.46A23.49,23.49,0,0,1,279.32,274.24Zm0-31.85a8.39,8.39,0,1,0,8.39,8.39A8.4,8.4,0,0,0,279.32,242.39Z"/><circle cx="368.68" cy="348.83" r="15.92"/><path class="cls-3" d="M368.68,372.29a23.47,23.47,0,1,1,23.46-23.46A23.5,23.5,0,0,1,368.68,372.29Zm0-31.85a8.39,8.39,0,1,0,8.38,8.39A8.39,8.39,0,0,0,368.68,340.44Z"/><line class="cls-2" x1="379.47" y1="205.71" x2="268.53" y2="393.9"/><path class="cls-3" d="M268.52,401.44A7.55,7.55,0,0,1,262,390.07L373,201.88a7.54,7.54,0,0,1,13,7.66L275,397.73A7.55,7.55,0,0,1,268.52,401.44Z"/><path class="cls-2" d="M278.67,431.68a64.06,64.06,0,0,0,90.66,0"/><path class="cls-3" d="M324,458A71.38,71.38,0,0,1,273.35,437,7.53,7.53,0,0,1,284,426.35a56.63,56.63,0,0,0,80,0A7.53,7.53,0,1,1,374.65,437,71.38,71.38,0,0,1,324,458Z"/><path class="cls-3" d="M150.92,218.08a7.53,7.53,0,0,1-7.53-7.54A70.59,70.59,0,0,1,213.9,140a7.54,7.54,0,1,1,0,15.07,55.5,55.5,0,0,0-55.44,55.44A7.53,7.53,0,0,1,150.92,218.08Z"/><path class="cls-3" d="M134.84,180.5a7.53,7.53,0,0,1-7.53-7.53,49.07,49.07,0,0,1,49-49,7.54,7.54,0,1,1,0,15.07A34,34,0,0,0,142.38,173,7.53,7.53,0,0,1,134.84,180.5Z"/><path class="cls-3" d="M497.08,218.08a7.53,7.53,0,0,1-7.54-7.54A55.5,55.5,0,0,0,434.1,155.1a7.54,7.54,0,1,1,0-15.07,70.59,70.59,0,0,1,70.51,70.51A7.53,7.53,0,0,1,497.08,218.08Z"/><path class="cls-3" d="M513.16,180.5a7.53,7.53,0,0,1-7.54-7.53A34,34,0,0,0,471.68,139a7.54,7.54,0,1,1,0-15.07,49.07,49.07,0,0,1,49,49A7.53,7.53,0,0,1,513.16,180.5Z"/></g></svg>