<svg xmlns="http://www.w3.org/2000/svg" viewBox="0 0 1152 648"><defs><style>.cls-1,.cls-2{fill:#ed6b47;}.cls-1,.cls-2,.cls-3,.cls-4,.cls-5{stroke:#1c2575;stroke-miterlimit:10;stroke-width:12.54px;}.cls-1,.cls-4,.cls-5{stroke-linecap:round;}.cls-4{fill:none;}.cls-5{fill:#70bfef;}</style></defs><g id="Layer_1" data-name="Layer 1"><line class="cls-1" x1="238.63" y1="412.58" x2="197.4" y2="482.52"/><line class="cls-1" x1="426.93" y1="412.58" x2="468.16" y2="482.52"/><path class="cls-2" d="M488.31,320.11A61.29,61.29,0,0,0,459,267.81a61.36,61.36,0,0,0-74-74,61.37,61.37,0,0,0-104.6,0,61.36,61.36,0,0,0-74,74,61.36,61.36,0,0,0,0,104.6,61.36,61.36,0,0,0,74,74,61.36,61.36,0,0,0,104.6,0,61.36,61.36,0,0,0,74-74A61.32,61.32,0,0,0,488.31,320.11Z"/><circle class="cls-3" cx="295.6" cy="261.4" r="13.25"/><circle class="cls-3" cx="369.95" cy="342.98" r="13.25"/><line class="cls-1" x1="378.94" y1="223.89" x2="286.62" y2="380.49"/><path class="cls-1" d="M295.06,411.93a53.32,53.32,0,0,0,75.43,0"/><path class="cls-4" d="M241.16,175.51a52.37,52.37,0,0,0-52.4,52.4"/><path class="cls-4" d="M209.89,162.13a34.49,34.49,0,0,0-34.51,34.51"/><path class="cls-4" d="M424.39,175.51a52.38,52.38,0,0,1,52.41,52.4"/><path class="cls-4" d="M455.66,162.13a34.5,34.5,0,0,1,34.52,34.51"/><circle class="cls-2" cx="778.25" cy="288.38" r="72.9"/><path class="cls-2" d="M893.76,476.79h0c0-63.53-52-115.51-115.51-115.51h0c-63.53,0-115.51,52-115.51,115.51h231Z"/><circle class="cls-5" cx="884.48" cy="288.38" r="72.9"/><path class="cls-4" d="M740.53,316.4a53.31,53.31,0,0,0,75.44,0"/><path class="cls-5" d="M769,476.79h0c0-63.53,52-115.51,115.51-115.51h0c63.53,0,115.51,52,115.51,115.51H769Z"/><line class="cls-4" x1="884.48" y1="395.16" x2="884.48" y2="453.66"/><line class="cls-4" x1="913.74" y1="424.41" x2="855.23" y2="424.41"/><path class="cls-4" d="M913.74,133.91a32.65,32.65,0,0,0,32.67,32.67"/><path class="cls-4" d="M913.74,199.25a32.65,32.65,0,0,1,32.67-32.67"/><path class="cls-4" d="M913.74,199.25a32.66,32.66,0,0,0-32.67-32.67"/><path class="cls-4" d="M913.74,133.91a32.65,32.65,0,0,1-32.67,32.67"/><path class="cls-4" d="M990.05,196.34A32.65,32.65,0,0,0,1022.72,229"/><path class="cls-4" d="M990.05,261.68A32.65,32.65,0,0,1,1022.72,229"/><path class="cls-4" d="M990.05,261.68A32.65,32.65,0,0,0,957.38,229"/><path class="cls-4" d="M990.05,196.34A32.65,32.65,0,0,1,957.38,229"/><path class="cls-4" d="M654.77,323.26a32.65,32.65,0,0,0,32.67,32.67"/><path class="cls-4" d="M654.77,388.6a32.65,32.65,0,0,1,32.67-32.67"/><path class="cls-4" d="M654.77,388.6a32.65,32.65,0,0,0-32.67-32.67"/><path class="cls-4" d="M654.77,323.26a32.65,32.65,0,0,1-32.67,32.67"/></g></svg>