<svg xmlns="http://www.w3.org/2000/svg" xmlns:xlink="http://www.w3.org/1999/xlink" viewBox="0 0 648 648"><defs><style>.cls-1,.cls-4,.cls-6,.cls-7{fill:none;}.cls-2{fill:#ff5c39;}.cls-3{clip-path:url(#clip-path);}.cls-4,.cls-5,.cls-6{stroke:#de4023;stroke-width:38.09px;}.cls-4,.cls-5,.cls-6,.cls-7{stroke-miterlimit:10;}.cls-5{fill:#ed6b47;}.cls-5,.cls-6{stroke-linecap:round;}.cls-7{stroke:#fff;stroke-width:2px;}</style><clipPath id="clip-path"><rect class="cls-1" width="648" height="648"/></clipPath></defs><g id="Layer_1" data-name="Layer 1"><rect class="cls-2" width="648" height="648"/><g class="cls-3"><path class="cls-4" d="M585,578.58a186.18,186.18,0,0,0-88.88-158.83A186.36,186.36,0,0,0,271.46,195.12a186.36,186.36,0,0,0-317.66,0,186.21,186.21,0,0,0-175.16,49.46,186.21,186.21,0,0,0-49.46,175.17,186.19,186.19,0,0,0-88.89,158.83,186.22,186.22,0,0,0,88.89,158.83,186.19,186.19,0,0,0,49.46,175.16A186.19,186.19,0,0,0-46.2,962a186.34,186.34,0,0,0,317.66,0A186.36,186.36,0,0,0,496.09,737.41,186.21,186.21,0,0,0,585,578.58Z"/><circle class="cls-4" cx="-0.27" cy="400.28" r="40.24"/><circle class="cls-4" cx="225.53" cy="648.04" r="40.24"/><line class="cls-5" x1="252.82" y1="286.37" x2="-27.56" y2="761.95"/><path class="cls-6" d="M390.86,139.44A159.06,159.06,0,0,1,550,298.59"/><path class="cls-6" d="M485.83,98.8A104.77,104.77,0,0,1,590.65,203.63"/><circle class="cls-7" cx="313.35" cy="377.44" r="187.58"/><circle class="cls-7" cx="111.27" cy="293.44" r="187.58"/><circle class="cls-7" cx="391.92" cy="576.5" r="188.72"/><circle class="cls-7" cx="384.05" cy="304.05" r="165.54"/><circle class="cls-7" cx="481.9" cy="204.65" r="110.27"/></g></g></svg>