<svg xmlns="http://www.w3.org/2000/svg" xmlns:xlink="http://www.w3.org/1999/xlink" viewBox="0 0 1152 648"><defs><style>.cls-1,.cls-2,.cls-7{fill:#fde5da;}.cls-1,.cls-5,.cls-6,.cls-7,.cls-8,.cls-9{stroke:#1c2575;stroke-width:9.11px;}.cls-1,.cls-5,.cls-6{stroke-miterlimit:10;}.cls-3{clip-path:url(#clip-path);}.cls-4{fill:#1c2575;}.cls-5,.cls-6,.cls-9{fill:none;}.cls-6,.cls-7,.cls-8,.cls-9{stroke-linecap:round;}.cls-7,.cls-8,.cls-9{stroke-linejoin:round;}.cls-8{fill:#fff;}</style><clipPath id="clip-path"><ellipse class="cls-1" cx="874.43" cy="256.99" rx="54.63" ry="131.01" transform="translate(-10.8 40.09) rotate(-2.61)"/></clipPath></defs><g id="Layer_1" data-name="Layer 1"><rect class="cls-2" width="1152" height="648"/><path class="cls-1" d="M863.22,127,495.66,281.52s-19.22,24.11,2.56,56l382.17,50.33"/><ellipse class="cls-2" cx="874.43" cy="256.99" rx="54.63" ry="131.01" transform="translate(-10.8 40.09) rotate(-2.61)"/><g class="cls-3"><ellipse class="cls-4" cx="821.04" cy="256.99" rx="52.15" ry="74.35" transform="translate(-10.85 37.66) rotate(-2.61)"/></g><ellipse class="cls-5" cx="874.43" cy="256.99" rx="54.63" ry="131.01" transform="translate(-10.8 40.09) rotate(-2.61)"/><path class="cls-1" d="M589,431.87l16.09-39.81s-53.15-45.26,1.44-74c13.81-7.27,26.23-1.06,9.57,15.56-15.65,15.61,3.09,20,13.66,21.24,5.91.72,42.44,5.59,42.44,5.59L636.45,394.6v48.28"/><polyline class="cls-6" points="617.67 573.51 647.6 445.89 574.19 425 535.23 559.96"/><path class="cls-7" d="M329.4,134.75s14.4,40.65,0,66.07,6.82,51.82,11,71.15"/><path class="cls-7" d="M306,354.81l5.59-60s-33-41.57-22-65.23c6-12.82,26.26-18.63,50.82,42.36"/><path class="cls-7" d="M396.32,181.33s-3.18,23.72-30.39,17.79"/><path class="cls-7" d="M419.19,162.7,479.32,244s-4.23,30.5-39,28.8"/><path class="cls-8" d="M376.83,156.77s-15.24,8.34-14.4,20.27"/><path class="cls-9" d="M334.46,148.64s93.2,12.36,140.63-63c0,0-115.2-34.62-174.49,18.26S243,239.78,300.6,344l44,88.09L323.4,460s-82.94,37.27-100.73,113.5"/><path class="cls-5" d="M344.65,432.05s73.12,16.66,111.52-17.78l10.73-80.75s-52.51,29.93-70.66,10.62c-12-12.82,6.29-38.86,65-50.15l-6.77-21.11"/><path class="cls-8" d="M433,181.33s8.8,3.11,16.29-7.62"/><path class="cls-8" d="M429.63,143.78s16.94-.56,22.59,13"/><path class="cls-9" d="M429.63,429.41,413.26,482s-53.79,4-89.86-22"/><polyline class="cls-9" points="429.63 429.41 479.32 452.1 456.17 414.27"/><path class="cls-6" d="M466.9,431.8s50.26,9,68.33,27.08"/><polygon class="cls-4" points="411.29 311.69 419.19 285.86 454.48 272.88 461.25 293.99 411.29 311.69"/></g></svg>