<svg xmlns="http://www.w3.org/2000/svg" xmlns:xlink="http://www.w3.org/1999/xlink" viewBox="0 0 648 648"><defs><style>.cls-1,.cls-2,.cls-3,.cls-4,.cls-5{stroke:#1c2575;stroke-miterlimit:10;stroke-width:16.71px;}.cls-1{fill:url(#linear-gradient);}.cls-2{fill:url(#linear-gradient-2);}.cls-3,.cls-4,.cls-5{stroke-linecap:round;}.cls-3{fill:url(#linear-gradient-3);}.cls-4{fill:none;}.cls-5{fill:url(#linear-gradient-4);}</style><linearGradient id="linear-gradient" x1="168.08" y1="283.79" x2="362.28" y2="283.79" gradientUnits="userSpaceOnUse"><stop offset="0" stop-color="#ff966b"/><stop offset="1" stop-color="#de4023"/></linearGradient><linearGradient id="linear-gradient-2" x1="111.31" y1="457.82" x2="419.05" y2="457.82" xlink:href="#linear-gradient"/><linearGradient id="linear-gradient-3" x1="309.59" y1="283.79" x2="503.79" y2="283.79" gradientUnits="userSpaceOnUse"><stop offset="0" stop-color="#70bfef"/><stop offset="1" stop-color="#1c2575"/></linearGradient><linearGradient id="linear-gradient-4" x1="252.82" y1="457.82" x2="560.56" y2="457.82" xlink:href="#linear-gradient-3"/></defs><g id="Layer_1" data-name="Layer 1"><circle class="cls-1" cx="265.18" cy="283.79" r="97.1"/><path class="cls-2" d="M419.05,534.76h0c0-84.63-69.24-153.87-153.87-153.87h0c-84.63,0-153.87,69.24-153.87,153.87H419.05Z"/><circle class="cls-3" cx="406.69" cy="283.79" r="97.1"/><path class="cls-4" d="M214.94,321.11a71,71,0,0,0,100.48,0"/><path class="cls-5" d="M252.82,534.76h0c0-84.63,69.24-153.87,153.87-153.87h0c84.63,0,153.87,69.24,153.87,153.87H252.82Z"/><line class="cls-4" x1="406.69" y1="426.02" x2="406.69" y2="503.95"/><line class="cls-4" x1="445.65" y1="464.99" x2="367.72" y2="464.99"/><path class="cls-4" d="M445.65,78a43.5,43.5,0,0,0,43.52,43.52"/><path class="cls-4" d="M445.65,165.06a43.49,43.49,0,0,1,43.52-43.51"/><path class="cls-4" d="M445.65,165.06a43.48,43.48,0,0,0-43.51-43.51"/><path class="cls-4" d="M445.65,78a43.49,43.49,0,0,1-43.51,43.52"/><path class="cls-4" d="M547.31,161.18a43.49,43.49,0,0,0,43.52,43.52"/><path class="cls-4" d="M547.31,248.22a43.49,43.49,0,0,1,43.52-43.52"/><path class="cls-4" d="M547.31,248.22a43.5,43.5,0,0,0-43.52-43.52"/><path class="cls-4" d="M547.31,161.18a43.49,43.49,0,0,1-43.52,43.52"/><path class="cls-4" d="M100.69,330.25a43.49,43.49,0,0,0,43.52,43.51"/><path class="cls-4" d="M100.69,417.28a43.5,43.5,0,0,1,43.52-43.52"/><path class="cls-4" d="M100.69,417.28a43.49,43.49,0,0,0-43.52-43.52"/><path class="cls-4" d="M100.69,330.25a43.49,43.49,0,0,1-43.52,43.51"/></g></svg>