<svg xmlns="http://www.w3.org/2000/svg" xmlns:xlink="http://www.w3.org/1999/xlink" viewBox="0 0 1152 648"><defs><style>.cls-1,.cls-2,.cls-7{fill:#fde5da;}.cls-1,.cls-5,.cls-6,.cls-7,.cls-8,.cls-9{stroke:#1c2575;stroke-width:9.22px;}.cls-1,.cls-5,.cls-6{stroke-miterlimit:10;}.cls-3{clip-path:url(#clip-path);}.cls-4{fill:#1c2575;}.cls-5,.cls-6,.cls-9{fill:none;}.cls-6,.cls-7,.cls-8,.cls-9{stroke-linecap:round;}.cls-7,.cls-8,.cls-9{stroke-linejoin:round;}.cls-8{fill:#fff;}</style><clipPath id="clip-path"><ellipse class="cls-1" cx="924.81" cy="259.97" rx="55.29" ry="132.6" transform="translate(-10.88 42.39) rotate(-2.61)"/></clipPath></defs><g id="Layer_1" data-name="Layer 1"><rect class="cls-2" width="1152" height="648"/><path class="cls-1" d="M913.47,128.36l-372,156.43S522,309.19,544,341.49l386.83,50.94"/><ellipse class="cls-2" cx="924.81" cy="259.97" rx="55.29" ry="132.6" transform="translate(-10.88 42.39) rotate(-2.61)"/><g class="cls-3"><ellipse class="cls-4" cx="870.77" cy="259.97" rx="52.79" ry="75.26" transform="translate(-10.94 39.93) rotate(-2.61)"/></g><ellipse class="cls-5" cx="924.81" cy="259.97" rx="55.29" ry="132.6" transform="translate(-10.88 42.39) rotate(-2.61)"/><path class="cls-1" d="M635.93,437l16.28-40.29s-53.79-45.82,1.46-74.91c14-7.35,26.55-1.07,9.69,15.75-15.85,15.81,3.13,20.22,13.82,21.51,6,.72,43,5.66,43,5.66l-36.21,34.56v48.87"/><polyline class="cls-6" points="664.93 580.34 695.23 451.16 620.92 430.01 581.48 566.62"/><path class="cls-7" d="M373.15,136.23s14.57,41.15,0,66.87,6.9,52.46,11.14,72"/><path class="cls-7" d="M349.48,359l5.66-60.7s-33.43-42.07-22.29-66c6-13,26.58-18.86,51.44,42.87"/><path class="cls-7" d="M440.88,183.38s-3.22,24-30.76,18"/><path class="cls-7" d="M464,164.52l60.87,82.31s-4.29,30.86-39.44,29.15"/><path class="cls-8" d="M421.16,158.52S405.73,167,406.58,179"/><path class="cls-9" d="M378.26,150.29S472.6,162.81,520.61,86.5c0,0-116.6-35-176.61,18.49s-58.3,137.55,0,243l44.58,89.17-21.51,28.29s-83.94,37.73-101.95,114.89"/><path class="cls-5" d="M388.58,437.16s74,16.86,112.88-18l10.86-81.73s-53.15,30.29-71.52,10.75c-12.19-13,6.37-39.33,65.81-50.76l-6.86-21.36"/><path class="cls-8" d="M478,183.38s8.91,3.15,16.48-7.71"/><path class="cls-8" d="M474.6,145.37s17.15-.57,22.86,13.15"/><path class="cls-9" d="M474.6,434.48,458,487.74s-54.45,4-91-22.29"/><polyline class="cls-9" points="474.6 434.48 524.9 457.45 501.46 419.15"/><path class="cls-6" d="M512.32,436.9s50.87,9.12,69.16,27.41"/><polygon class="cls-4" points="456.04 315.33 464.03 289.19 499.75 276.05 506.61 297.41 456.04 315.33"/></g></svg>