<svg xmlns="http://www.w3.org/2000/svg" viewBox="0 0 648 648"><defs><style>.cls-1{fill:#fde5da;}.cls-2{fill:#1c2575;}.cls-3{fill:#70bfef;}</style></defs><g id="Layer_1" data-name="Layer 1"><rect class="cls-1" width="648" height="648"/></g><g id="Main_Grid" data-name="Main Grid"><path class="cls-2" d="M355.05,348.32a7.54,7.54,0,0,1-7.54-7.53V155.28a7.54,7.54,0,1,1,15.07,0V340.79A7.53,7.53,0,0,1,355.05,348.32Z"/><path class="cls-2" d="M324,348.32a7.54,7.54,0,0,1-7.54-7.53V155.28a7.54,7.54,0,0,1,15.08,0V340.79A7.54,7.54,0,0,1,324,348.32Z"/><path class="cls-2" d="M293,348.32a7.53,7.53,0,0,1-7.53-7.53V155.28a7.54,7.54,0,1,1,15.07,0V340.79A7.54,7.54,0,0,1,293,348.32Z"/><polygon class="cls-3" points="460.87 305.81 324 442.68 187.13 305.81 460.87 305.81"/><path class="cls-2" d="M324,453.34,168.93,298.27H479.07Zm-118.68-140L324,432,442.68,313.35Z"/><path class="cls-2" d="M416.54,500.26H231.46a7.54,7.54,0,0,1,0-15.08H416.54a7.54,7.54,0,0,1,0,15.08Z"/></g></svg>