<svg xmlns="http://www.w3.org/2000/svg" viewBox="0 0 648 648"><defs><style>.cls-1{isolation:isolate;}.cls-2{fill:#ed6b47;}.cls-2,.cls-3,.cls-4,.cls-6{stroke:#1c2575;stroke-miterlimit:10;stroke-width:16.71px;}.cls-3{fill:#70bfef;}.cls-3,.cls-4,.cls-6{stroke-linecap:round;}.cls-3,.cls-4,.cls-5{mix-blend-mode:overlay;}.cls-4,.cls-6{fill:none;}</style></defs><g class="cls-1"><g id="Layer_1" data-name="Layer 1"><circle class="cls-2" cx="265.18" cy="283.79" r="97.1"/><path class="cls-2" d="M419.05,534.76h0c0-84.63-69.24-153.87-153.87-153.87h0c-84.63,0-153.87,69.24-153.87,153.87H419.05Z"/><circle class="cls-3" cx="406.69" cy="283.79" r="97.1"/><path class="cls-4" d="M214.94,321.11a71,71,0,0,0,100.48,0"/><path class="cls-3" d="M252.82,534.76h0c0-84.63,69.24-153.87,153.87-153.87h0c84.63,0,153.87,69.24,153.87,153.87H252.82Z"/><g class="cls-5"><line class="cls-6" x1="406.69" y1="426.02" x2="406.69" y2="503.95"/><line class="cls-6" x1="445.65" y1="464.99" x2="367.72" y2="464.99"/></g><path class="cls-6" d="M445.65,78a43.5,43.5,0,0,0,43.52,43.52"/><path class="cls-6" d="M445.65,165.06a43.49,43.49,0,0,1,43.52-43.51"/><path class="cls-6" d="M445.65,165.06a43.48,43.48,0,0,0-43.51-43.51"/><path class="cls-6" d="M445.65,78a43.49,43.49,0,0,1-43.51,43.52"/><path class="cls-6" d="M547.31,161.18a43.49,43.49,0,0,0,43.52,43.52"/><path class="cls-6" d="M547.31,248.22a43.49,43.49,0,0,1,43.52-43.52"/><path class="cls-6" d="M547.31,248.22a43.5,43.5,0,0,0-43.52-43.52"/><path class="cls-6" d="M547.31,161.18a43.49,43.49,0,0,1-43.52,43.52"/><path class="cls-6" d="M100.69,330.25a43.49,43.49,0,0,0,43.52,43.51"/><path class="cls-6" d="M100.69,417.28a43.5,43.5,0,0,1,43.52-43.52"/><path class="cls-6" d="M100.69,417.28a43.49,43.49,0,0,0-43.52-43.52"/><path class="cls-6" d="M100.69,330.25a43.49,43.49,0,0,1-43.52,43.51"/></g></g></svg>