<svg xmlns="http://www.w3.org/2000/svg" xmlns:xlink="http://www.w3.org/1999/xlink" viewBox="0 0 648 648"><defs><style>.cls-1,.cls-4,.cls-5,.cls-6{fill:none;}.cls-2{fill:#ff5c39;}.cls-3{clip-path:url(#clip-path);}.cls-4,.cls-5{stroke:#de4023;stroke-width:38.09px;}.cls-4,.cls-5,.cls-6{stroke-miterlimit:10;}.cls-5{stroke-linecap:round;}.cls-6{stroke:#fff;stroke-width:2px;}</style><clipPath id="clip-path"><rect class="cls-1" width="648" height="648"/></clipPath></defs><g id="Layer_1" data-name="Layer 1"><rect class="cls-2" width="648" height="648"/><g class="cls-3"><circle class="cls-4" cx="571.9" cy="110.89" r="215.11"/><path class="cls-4" d="M912.77,666.87h0C912.77,479.39,759.38,326,571.9,326h0C384.43,326,231,479.39,231,666.87H912.77Z"/><path class="cls-5" d="M460.61,193.58a157.32,157.32,0,0,0,222.59,0"/><path class="cls-5" d="M544.52,666.87h0C544.52,479.39,697.91,326,885.38,326h0c187.48,0,340.87,153.39,340.87,340.87H544.52Z"/><path class="cls-5" d="M207.51,213.81a96.35,96.35,0,0,0,96.41,96.41"/><path class="cls-5" d="M207.51,406.62a96.34,96.34,0,0,1,96.41-96.4"/><path class="cls-5" d="M207.51,406.62a96.34,96.34,0,0,0-96.4-96.4"/><path class="cls-5" d="M207.51,213.81a96.35,96.35,0,0,1-96.4,96.41"/></g><circle class="cls-6" cx="207.51" cy="213.81" r="39.05"/><circle class="cls-6" cx="111.13" cy="308.69" r="39.05"/><circle class="cls-6" cx="305.76" cy="308.69" r="39.05"/><circle class="cls-6" cx="456.1" cy="190.94" r="39.05"/><circle class="cls-6" cx="207.51" cy="405.25" r="39.05"/></g></svg>