<svg xmlns="http://www.w3.org/2000/svg" xmlns:xlink="http://www.w3.org/1999/xlink" viewBox="0 0 648 648"><defs><style>.cls-1,.cls-3,.cls-7,.cls-8{fill:none;}.cls-1,.cls-6,.cls-7,.cls-8,.cls-9{stroke:#1d2e72;}.cls-1,.cls-6,.cls-7{stroke-miterlimit:10;}.cls-1,.cls-3,.cls-6,.cls-7,.cls-8,.cls-9{stroke-width:7.18px;}.cls-2,.cls-6{fill:#ffe1d6;}.cls-3{stroke:#000;}.cls-3,.cls-8,.cls-9{stroke-linejoin:round;}.cls-4{clip-path:url(#clip-path);}.cls-5{fill:#1d2e72;}.cls-7,.cls-8,.cls-9{stroke-linecap:round;}.cls-9{fill:#fff;}</style><clipPath id="clip-path"><ellipse class="cls-1" cx="564" cy="285.85" rx="43.08" ry="103.32" transform="translate(-12.43 25.98) rotate(-2.61)"/></clipPath></defs><g id="Graphic"><rect class="cls-2" width="648" height="648"/><path class="cls-1" d="M555.17,183.31,265.3,305.19s-15.16,19,2,44.18l301.39,39.69"/><ellipse class="cls-3" cx="564" cy="285.85" rx="43.08" ry="103.32" transform="translate(-12.43 25.98) rotate(-2.61)"/><g class="cls-4"><ellipse class="cls-5" cx="521.9" cy="285.85" rx="41.13" ry="58.63" transform="matrix(1, -0.05, 0.05, 1, -12.48, 24.07)"/></g><ellipse class="cls-1" cx="564" cy="285.85" rx="43.08" ry="103.32" transform="translate(-12.43 25.98) rotate(-2.61)"/><path class="cls-6" d="M338.92,423.76l12.69-31.39s-41.91-35.7,1.14-58.37c10.89-5.73,20.69-.83,7.55,12.27C348,358.59,362.74,362,371.07,363c4.66.56,33.47,4.41,33.47,4.41l-28.21,26.93v38.07"/><polyline class="cls-7" points="361.52 535.46 385.13 434.81 327.23 418.34 296.5 524.77"/><path class="cls-8" d="M134.18,189.44s11.36,32.06,0,52.1,5.38,40.87,8.69,56.12"/><path class="cls-8" d="M115.75,363l4.41-47.29s-26-32.78-17.37-51.43c4.71-10.11,20.71-14.7,40.08,33.4"/><path class="cls-8" d="M187,226.18s-2.51,18.7-24,14"/><path class="cls-8" d="M205,211.49l47.43,64.12s-3.34,24.05-30.73,22.71"/><path class="cls-9" d="M171.59,206.81s-12,6.58-11.35,16"/><path class="cls-8" d="M138.17,200.4s73.5,9.75,110.91-49.7c0,0-90.85-27.3-137.61,14.4s-45.42,107.17,0,189.33l34.74,69.47L129.45,446S64.05,475.34,50,535.46"/><path class="cls-1" d="M146.21,423.9s57.67,13.14,87.95-14l8.46-63.68s-41.41,23.6-55.72,8.37c-9.5-10.11,4.95-30.64,51.27-39.55l-5.35-16.64"/><path class="cls-9" d="M215.86,226.18s6.94,2.45,12.84-6"/><path class="cls-9" d="M213.23,196.57s13.36-.45,17.81,10.24"/><path class="cls-8" d="M213.23,421.82l-12.91,41.5S157.9,466.43,129.45,446"/><polyline class="cls-8" points="213.23 421.82 252.42 439.71 234.16 409.88"/><path class="cls-7" d="M242.62,423.7s39.64,7.11,53.89,21.36"/><polygon class="cls-5" points="198.77 328.98 204.99 308.62 232.82 298.38 238.17 315.02 198.77 328.98"/></g></svg>