<svg xmlns="http://www.w3.org/2000/svg" xmlns:xlink="http://www.w3.org/1999/xlink" viewBox="0 0 648 1152"><defs><style>.cls-1{isolation:isolate;}.cls-2{fill:#c4a24f;}.cls-11,.cls-3{mix-blend-mode:multiply;}.cls-3{opacity:0.75;fill:url(#linear-gradient);}.cls-4,.cls-5,.cls-8{fill:none;stroke-miterlimit:10;}.cls-4,.cls-5{stroke:#fff;}.cls-4{stroke-width:1.2px;}.cls-5{stroke-width:2.4px;}.cls-6{font-size:24px;}.cls-13,.cls-6{fill:#fff;font-family:Approach-Regular, Approach;}.cls-7{fill:#f3db49;}.cls-8{stroke:#000;stroke-linecap:round;stroke-width:24.05px;}.cls-9{fill:#d75c41;}.cls-10{fill:#d32833;}.cls-11{opacity:0.5;fill:url(#linear-gradient-2);}.cls-12{fill:#ff5c35;}.cls-13{font-size:25.2px;}</style><linearGradient id="linear-gradient" x1="-3347.73" y1="15464.26" x2="-3347.73" y2="15314.26" gradientTransform="translate(3671.73 -14312.26)" gradientUnits="userSpaceOnUse"><stop offset="0" stop-color="#fff" stop-opacity="0"/><stop offset="1"/></linearGradient><linearGradient id="linear-gradient-2" x1="324" y1="115.42" x2="324" y2="0" gradientTransform="matrix(1, 0, 0, 1, 0, 0)" xlink:href="#linear-gradient"/></defs><g class="cls-1"><g id="Graphic"><rect class="cls-2" width="648" height="1152"/><rect class="cls-3" y="1002" width="648" height="150" transform="translate(648 2154) rotate(180)"/><rect class="cls-4" x="24.69" y="1042.83" width="537.52" height="71.28" rx="35.42"/><polygon class="cls-5" points="588.03 1063.53 623.31 1063.53 603.89 1093.65 600.72 1075.82 588.03 1063.53"/><line class="cls-5" x1="600.72" y1="1075.82" x2="623.31" y2="1063.53"/><text class="cls-6" transform="translate(58.35 1086.56)">Send Message</text><path d="M213.26,736.37v17.69h-.93a10.7,10.7,0,0,1-6-1.77,11.85,11.85,0,0,1-4.28-5.07l-.07-.16a15.33,15.33,0,0,1-5.08,5.62,12.69,12.69,0,0,1-7.15,2.07c-5.5,0-9.37-1.71-11.69-5.15a21.7,21.7,0,0,1-3.42-12.31,23.66,23.66,0,0,1,.08-2.38,3.08,3.08,0,0,1,.85-2.09,2.47,2.47,0,0,1,1.76-.77,2.42,2.42,0,0,1,1.42.47,2.6,2.6,0,0,1,1,1.38,3.61,3.61,0,0,0,1.46,2.08,7.18,7.18,0,0,0,2.93.81c1.29.12,3.36.18,6.19.19a60.09,60.09,0,0,0,6.15-.23l-9.23-17.53,6.16-8.77a1.77,1.77,0,0,1,1.61-.84,1.86,1.86,0,0,1,1.85,1.22l10.31,21.31a9.8,9.8,0,0,0,2.31,3.51,5.25,5.25,0,0,0,3.07.73Z"/><path d="M230.41,763.67c0,.27-.2.57-.61,1l-4.38,4.54a1.26,1.26,0,0,1-.77.46,2,2,0,0,1-.85-.46l-4.69-4.54-.31-.38-.38.38L214,769.19a1.24,1.24,0,0,1-.77.46,1.46,1.46,0,0,1-.84-.46l-4.7-4.54a1.45,1.45,0,0,1-.54-1,1.49,1.49,0,0,1,.54-1l4.46-4.47c.41-.41.7-.61.85-.61s.44.2.85.61l4.54,4.47.38.38.31-.38,4.49-4.49c.41-.41.69-.61.84-.61s.54.2.85.61l4.54,4.47A1.63,1.63,0,0,1,230.41,763.67Zm8.93-27.26V754.1H239a12.89,12.89,0,0,1-6.32-1.5,11.26,11.26,0,0,1-4.46-5.34,10,10,0,0,1-4.81,4.86q-3.65,2-10.42,2h-.31V736.37H213a56.74,56.74,0,0,0,7-.43,14.83,14.83,0,0,0,5.06-1.3c-.41-1.84-.82-4.08-1.23-6.69l5.54-4.69A1,1,0,0,1,230,723c.31,0,.51.23.62.69l1.16,7.79a6,6,0,0,0,1.84,3.9q1.4,1.08,5.31,1.08Z"/><path d="M262.87,736.37v17.69h-.32a10.72,10.72,0,0,1-6.34-1.77,12.81,12.81,0,0,1-4.12-5.31,9.73,9.73,0,0,1-4.3,4.93,16.33,16.33,0,0,1-8.85,2.15h-.31V736.37h.31c4.66,0,7.91-.44,9.73-1.31l-1.39-6.92,5.84-4.93a1,1,0,0,1,.7-.31c.31,0,.5.23.61.69l1.3,7.79a14.87,14.87,0,0,0,.81,3.08,2.94,2.94,0,0,0,1.78,1.42,12.78,12.78,0,0,0,4.26.51Zm-22.39-23.15a1.71,1.71,0,0,1,.62-1.08l4.9-5c.41-.41.72-.61,1-.61a1.28,1.28,0,0,1,.93.61l5.07,5a1.43,1.43,0,0,1,.61,1,1.69,1.69,0,0,1-.61,1.08L248,719.05c-.36.36-.64.55-.85.55a2.37,2.37,0,0,1-.91-.55l-5.15-4.86A1.71,1.71,0,0,1,240.48,713.22Z"/><path d="M295.42,698.28a1.33,1.33,0,0,1,1.23.62,2.23,2.23,0,0,1,.23,1.54l-2.46,13.69-15,6a29.29,29.29,0,0,1,4.65,8.67,29,29,0,0,1,1.66,9.5,20,20,0,0,1-.85,6.15,11.09,11.09,0,0,1-7.18,7.69,42.65,42.65,0,0,1-14.13,2h-1.3V736.37h1.54c3.58,0,6.31-.08,8.15-.24a11.16,11.16,0,0,0,4.46-1.15q-2.76-3.69-5.15-6.42T265,721.74l1.53-11.08,27.62-12A2.7,2.7,0,0,1,295.42,698.28Z"/><path d="M359.54,723.41a41.53,41.53,0,0,1,1.5,10.81,19,19,0,0,1-1,6.81,18.2,18.2,0,0,1-10.9,11.14,50.73,50.73,0,0,1-18.58,3.08h-.16q-12.45,0-19.65-4.23t-7.2-14.31a44,44,0,0,1,3-14.73,2.68,2.68,0,0,1,2.54-2.08,2.62,2.62,0,0,1,1.81.77,2.65,2.65,0,0,1,.81,2,4,4,0,0,1-.08.91,17.2,17.2,0,0,0-.54,4.16c0,3.13,1,5.41,3,6.82a13.61,13.61,0,0,0,6.66,2.54q3.64.38,9.57.38h.24c5.27,0,9.92-.18,13.92-.54s6.95-1.2,8.84-2.54q-3-4.38-7.91-10.61l8.38-7.93a2.12,2.12,0,0,1,1.38-.77,1.5,1.5,0,0,1,1.23.77C357.51,717.17,358.54,719.69,359.54,723.41Zm-15.89-6.35a1.68,1.68,0,0,1-.61,1l-4.39,4.54a1.31,1.31,0,0,1-.77.46,2.1,2.1,0,0,1-.84-.46l-4.69-4.48-.31-.39-.34.39-4.4,4.54a1.22,1.22,0,0,1-.77.45,1.86,1.86,0,0,1-.84-.45L321,718.09a1.14,1.14,0,0,1-.38-1.57,1.37,1.37,0,0,1,.38-.38l4.47-4.46c.41-.41.69-.61.85-.61s.54.2.84.61l4.56,4.46.37.39.32-.39,4.46-4.46c.41-.41.69-.61.84-.61s.44.2.85.61l4.5,4.46C343.45,716.49,343.65,716.8,343.65,717.06Z"/><path d="M401.12,754.06h-4.18a25.77,25.77,0,0,1-4.27,11.5,26.82,26.82,0,0,1-7.89,7.74,21,21,0,0,1-8.53,3.23q-1.85.15-9.74-8.77l-1.46-1.61a2,2,0,0,1-.69-1.46c0-.82.69-1.37,2.07-1.62a58.62,58.62,0,0,0,12.82-3.42q6.72-2.58,9.81-5.58h-6.72q-7.8,0-11.36-4.12c-2.38-2.73-3.57-6.68-3.57-11.8a35.62,35.62,0,0,1,.23-4,26.15,26.15,0,0,1,1.95-7.62,16.58,16.58,0,0,1,4.31-6.15,9.79,9.79,0,0,1,6.77-2.47q5.37,0,9.51,4.7T396,736.38h5.07Zm-24.63-18.12a55.37,55.37,0,0,0,7.16.43H389a10.57,10.57,0,0,0-4.24-4.42,12.06,12.06,0,0,0-4.6-1.44,7.58,7.58,0,0,0-1.16-.06,8.08,8.08,0,0,0-4.12,1,7,7,0,0,0-2.57,2.39Q373.35,735.52,376.49,735.94Z"/><path d="M434.92,732.21a1.06,1.06,0,0,1,.89.47,1.3,1.3,0,0,1,.19,1.15q-.84,3.39-1.65,6c-.54,1.77-1.3,4.06-2.27,6.89-.25.83-1.74,1.81-4.46,2.92a56.78,56.78,0,0,1-11,3,83.65,83.65,0,0,1-15.47,1.3H399.3V736.37h4.39a15.57,15.57,0,0,1-1.16-5.47,19.35,19.35,0,0,1,2.2-9.07A18.57,18.57,0,0,1,411,714.9a15.58,15.58,0,0,1,8.76-2.62,11.75,11.75,0,0,1,6.5,1.82,14.59,14.59,0,0,1,4.47,4.38,17,17,0,0,1,2.28,5,6.56,6.56,0,0,1,.15,1.07,2.21,2.21,0,0,1-.54,1.58,1.88,1.88,0,0,1-1.46.58,3.53,3.53,0,0,1-1.47-.31,22.11,22.11,0,0,0-7.84-1.46c-.52,0-1.49,0-2.93.15a25.35,25.35,0,0,0-7.23,1.62,9.16,9.16,0,0,0-3.9,2.54,6.81,6.81,0,0,0,2.16,2.92,12.84,12.84,0,0,0,4.55,2.43,21.59,21.59,0,0,0,6.58,1,29,29,0,0,0,5-.46,36.6,36.6,0,0,0,8.15-2.7A2.68,2.68,0,0,1,434.92,732.21Z"/><path d="M444.4,749.64a21.82,21.82,0,0,1-3.35-12.2,21.47,21.47,0,0,1,.08-2.53,3.12,3.12,0,0,1,.84-2.09,2.49,2.49,0,0,1,1.78-.77,2.42,2.42,0,0,1,1.42.47,2.66,2.66,0,0,1,1,1.38,3.71,3.71,0,0,0,1.4,2.08,6.26,6.26,0,0,0,2.84.81c1.28.12,3.33.19,6.15.19,3.24,0,6-.1,8.27-.31s3.51-.66,3.66-1.38c.26-1.43-1.51-3.24-5.28-5.39a111.29,111.29,0,0,0-14.5-6.69c-.81-.36-1.22-.85-1.22-1.46a2.64,2.64,0,0,1,.22-1l4.93-9.93a2.51,2.51,0,0,1,2.23-1.69c1.33,0,3.35,1,6,2.92a34.43,34.43,0,0,1,7.56,8A26.34,26.34,0,0,1,473,731.12a29.69,29.69,0,0,1,.46,5.07q0,7.54-3.85,12.47a15.42,15.42,0,0,1-5.77,4.5,18.78,18.78,0,0,1-7.92,1.57Q447.76,754.76,444.4,749.64Z"/><path d="M187.52,819.26a3.83,3.83,0,0,1-.55,2,3.88,3.88,0,0,1-1.9,1.44,19.88,19.88,0,0,1-4.76,1.12,52.25,52.25,0,0,1-6.85.39,33.24,33.24,0,0,1-6.6-.55,8.21,8.21,0,0,1-4.15-2,5.63,5.63,0,0,1-1.51-4.19,23.64,23.64,0,0,1,.26-2.52c.19-1.18.45-2.86.8-5l2.34.5a61.85,61.85,0,0,0-.87,6.5,2.72,2.72,0,0,0,.91,2.17,6.07,6.07,0,0,0,3,1.1,37.58,37.58,0,0,0,5.71.34q8.24,0,11.7-1.3l-.72-8.67,2.9-.53C187.4,814.61,187.52,817.71,187.52,819.26Zm-15.6-14,2.6,2.06-2.07,2.6-2.6-2.06Zm4.86,0,2.6,2.06-2.11,2.6-2.6-2.06Z"/><path d="M207.86,820.62a2.94,2.94,0,0,1,.08.72v1.73a2.35,2.35,0,0,1-.08.7c0,.2-.1.29-.18.29h-3.32a12.93,12.93,0,0,1-3.73,6.16,21.18,21.18,0,0,1-6.9,4.31l-2-2.82a23.32,23.32,0,0,0,6.5-3.49,11.2,11.2,0,0,0,3.65-4.5,23.05,23.05,0,0,1-4.07.34,10.41,10.41,0,0,1-2.72-.3,3.24,3.24,0,0,1-1.69-1.17,5,5,0,0,1-.62-1.07,3.81,3.81,0,0,1-.17-1.3,14.31,14.31,0,0,1,.64-4.15,8.86,8.86,0,0,1,2-3.57A4.65,4.65,0,0,1,198.9,811a4.55,4.55,0,0,1,4.36,2.78,16.3,16.3,0,0,1,1.57,6.5h2.9A3.28,3.28,0,0,0,207.86,820.62Zm-9.64.26a15.05,15.05,0,0,0,3.9-.37,10,10,0,0,0-.91-4.83,3,3,0,0,0-2.71-1.58,2.79,2.79,0,0,0-2.48,1.75,9.38,9.38,0,0,0-1,4.54,7.92,7.92,0,0,0,3.12.49Z"/><path d="M224.58,821.91c-2.42.65-4.26,1.12-5.56,1.39a32.35,32.35,0,0,1-4,.59c-1.4.1-3.28.17-5.65.17h-1.69c-.07,0-.14-.09-.19-.29a2.77,2.77,0,0,1-.07-.7v-1.73a3.51,3.51,0,0,1,.07-.72c0-.2.12-.29.19-.29h5.2a10.36,10.36,0,0,1-1.3-4.87,4.56,4.56,0,0,1,1.73-3.74,7.06,7.06,0,0,1,4.53-1.39,16.24,16.24,0,0,1,4.22.61l-.75,2.94a18.34,18.34,0,0,0-3.69-.38,4.76,4.76,0,0,0-3.44,1.17,11.46,11.46,0,0,0,1.55,5.54,73.15,73.15,0,0,0,8.81-1.67Z"/><path d="M243.77,813.18a15.45,15.45,0,0,1,1.62,6.5,3.71,3.71,0,0,1-2.7,3.47,17,17,0,0,1-6.5,1.13,13,13,0,0,1-4-.47,3.11,3.11,0,0,1-1.9-1.56,7.44,7.44,0,0,1-.53-3.13,17.07,17.07,0,0,1,.08-1.89l2.26.2v.69a3.8,3.8,0,0,0,.25,1.67,1.29,1.29,0,0,0,1,.6,19.5,19.5,0,0,0,2.86.13,23.36,23.36,0,0,0,3.73-.3,11.26,11.26,0,0,0,2.9-.75A12.55,12.55,0,0,0,241,814a27.58,27.58,0,0,0-4.7-5.63l1.92-2.45A25.29,25.29,0,0,1,243.77,813.18Z"/><path d="M257.63,830.65a6.41,6.41,0,0,1-2.14-5.28,27.18,27.18,0,0,1,.34-3c.22-1.48.51-3.27.83-5.38.08-.51.15-1,.23-1.49l.23-1.5,2.33.46A99.76,99.76,0,0,0,258,825a3,3,0,0,0,1.75,2.85,10.24,10.24,0,0,0,4.69.88,27.31,27.31,0,0,0,5.78-.5,8.42,8.42,0,0,0,3.9-1.86,6.21,6.21,0,0,0,.37-1.81,2,2,0,0,0-1.76-2.28l-.16,0-1.3-.12c-1.3-.13-2.33-.24-3-.37a3.05,3.05,0,0,1-1.54-.72,2,2,0,0,1-.58-1.55,16.51,16.51,0,0,1,1-5.69,13.19,13.19,0,0,1,2.76-4.64,5.11,5.11,0,0,1,3.72-1.81,4.51,4.51,0,0,1,2.6.85,8.05,8.05,0,0,1,2.14,2.36l-1.58,1.81a4.86,4.86,0,0,0-3.2-1.74,3.12,3.12,0,0,0-2.3,1.08,8.05,8.05,0,0,0-1.72,2.84,14.28,14.28,0,0,0-.84,3.81,30.37,30.37,0,0,1,4.66.64,4.57,4.57,0,0,1,2.6,1.61,5.77,5.77,0,0,1,.93,3.56,6.68,6.68,0,0,1-3.53,6.34,18.73,18.73,0,0,1-9,1.92Q259.75,832.42,257.63,830.65Z"/><path d="M282.34,797.74l2.94-.49.26,26.81-2.49.33Z"/><path d="M302.15,820.62a3,3,0,0,1,.09.72v1.73a2.74,2.74,0,0,1-.09.7.28.28,0,0,1-.17.29h-1.62a5.69,5.69,0,0,1-2.34-.47,4.16,4.16,0,0,1-1.69-1.3v.4a9.65,9.65,0,0,1-2.72,6.44,23.23,23.23,0,0,1-8.11,5.44l-1.93-2.82a26.49,26.49,0,0,0,7-4.12,10.41,10.41,0,0,0,3.18-4.21l-1.21-10.49,2.92-.56.55,5.28c.19,1.8,1.62,2.71,4.31,2.71H302A.43.43,0,0,1,302.15,820.62Z"/><path d="M311.67,819.16a3.82,3.82,0,0,1-.5,1.89,4,4,0,0,1-1.47,1.5,12.56,12.56,0,0,1-3.43,1.13,23.68,23.68,0,0,1-4.29.38c-.08,0-.14-.09-.19-.29a2.35,2.35,0,0,1-.08-.7v-1.73a2.94,2.94,0,0,1,.08-.72c0-.2.11-.29.19-.29a32.62,32.62,0,0,0,4.08-.25,8.28,8.28,0,0,0,3.07-1l-.71-8.6,2.87-.53Q311.67,816.36,311.67,819.16Zm-6.31,8.93,2.84,2.22L306.05,833l-2.83-2.23Z"/><path d="M349.25,820.62a2.94,2.94,0,0,1,.08.72v1.73a2.74,2.74,0,0,1-.08.7c0,.2-.12.29-.18.29h-.81q-4.12,0-5.47-2.46c.16,2.31.23,4.17.23,5.59a3.43,3.43,0,0,1-1.66,2.81,12.11,12.11,0,0,1-4.3,1.78,24.86,24.86,0,0,1-5.5.61q-4.72,0-6.84-1.74a6.37,6.37,0,0,1-2.13-5.28,24.94,24.94,0,0,1,.34-3q.33-2.22.83-5.38c.08-.51.14-1,.22-1.49l.23-1.5,2.33.46A99.76,99.76,0,0,0,325.11,825a3,3,0,0,0,1.75,2.85,10.29,10.29,0,0,0,4.7.88q6.36,0,8.93-2l-1.3-14.3,2.86-.62.53,5.66a3,3,0,0,0,.83,1.95,3.22,3.22,0,0,0,1.76.79,19.92,19.92,0,0,0,3,.17h.95S349.2,820.42,349.25,820.62Zm-17-15.34,2.83,2.23-2.16,2.68L330.06,808Z"/><path d="M363.71,814.06a9.84,9.84,0,0,1,1.41,5.55,12.88,12.88,0,0,1-.57,3.9,3.61,3.61,0,0,1-1.3,1.73,2.75,2.75,0,0,1-1.51.57,2.69,2.69,0,0,1-1-.22l-6.71-3a5.15,5.15,0,0,1-4,1.4h-.86c-.08,0-.14-.09-.19-.28a2.39,2.39,0,0,1-.08-.7v-1.73a2.53,2.53,0,0,1,.08-.72c0-.21.11-.3.19-.3h1.3a5.21,5.21,0,0,0,1.47-.15,1.7,1.7,0,0,0,.83-.59,7,7,0,0,0,.74-1.41,25.48,25.48,0,0,1,2-3.79,5.84,5.84,0,0,1,2-1.9,5.15,5.15,0,0,1,2.47-.57A4.33,4.33,0,0,1,363.71,814.06Zm-1.38,7.2a8.71,8.71,0,0,0,.15-1.69,6.14,6.14,0,0,0-.76-3.25,2.38,2.38,0,0,0-2.1-1.3,2.61,2.61,0,0,0-1.44.4A5.22,5.22,0,0,0,357,816.8a27.08,27.08,0,0,0-1.59,2.89l6.5,2.87A4,4,0,0,0,362.33,821.26Z"/><path d="M385.1,820.62a2.53,2.53,0,0,1,.08.72v1.73a2.35,2.35,0,0,1-.08.7c0,.2-.11.29-.19.29h-3.32a12.86,12.86,0,0,1-3.73,6.16,21.18,21.18,0,0,1-6.9,4.31L369,831.71a23.32,23.32,0,0,0,6.5-3.49,11.2,11.2,0,0,0,3.65-4.5,23.05,23.05,0,0,1-4.07.34,10.34,10.34,0,0,1-2.71-.3,3.29,3.29,0,0,1-1.71-1.17,4.18,4.18,0,0,1-.61-1.07,4.09,4.09,0,0,1-.18-1.3,14.27,14.27,0,0,1,.65-4.15,8.9,8.9,0,0,1,2-3.57,4.68,4.68,0,0,1,3.59-1.48,4.54,4.54,0,0,1,4.35,2.78,16.46,16.46,0,0,1,1.56,6.5H385A.73.73,0,0,1,385.1,820.62Zm-9.64.26a15.05,15.05,0,0,0,3.9-.37,10.05,10.05,0,0,0-.92-4.83,3,3,0,0,0-2.7-1.58,2.81,2.81,0,0,0-2.49,1.75,9.63,9.63,0,0,0-.94,4.54,8.06,8.06,0,0,0,3.15.49Z"/><path d="M394.61,819.16a3.82,3.82,0,0,1-.5,1.89,4,4,0,0,1-1.47,1.5,13.28,13.28,0,0,1-3.43,1.13,23.87,23.87,0,0,1-4.3.38c-.07,0-.13-.09-.18-.29a2.35,2.35,0,0,1-.08-.7v-1.73a2.94,2.94,0,0,1,.08-.72c0-.2.11-.29.18-.29a32.78,32.78,0,0,0,4.09-.25,8.28,8.28,0,0,0,3.07-1l-.71-8.6,2.87-.53Q394.61,816.36,394.61,819.16Zm-4.9-17.62,2.6,2.08-2.08,2.6-2.6-2.07Zm4.86,0,2.6,2.08-2.11,2.6-2.6-2.07Z"/><path d="M400.16,827.59a10.17,10.17,0,0,0,3.18-4.21l-1.19-10.49,2.9-.56c.24,2.46.45,4.56.59,6.32s.24,3.08.24,4a9.65,9.65,0,0,1-2.72,6.44,23,23,0,0,1-8.11,5.44l-1.91-2.82A27.09,27.09,0,0,0,400.16,827.59Z"/><path d="M411.08,797.74l2.94-.49.26,26.81-2.49.33Z"/><path d="M430.89,820.62a2.23,2.23,0,0,1,.09.72v1.73a2.07,2.07,0,0,1-.09.7c0,.2-.12.29-.17.29H429.1a5.66,5.66,0,0,1-2.34-.47,4.25,4.25,0,0,1-1.69-1.3v.4a9.65,9.65,0,0,1-2.72,6.44,23.1,23.1,0,0,1-8.1,5.44l-1.92-2.82a27,27,0,0,0,7-4.12,10.48,10.48,0,0,0,3.18-4.21l-1.2-10.49,2.89-.56.58,5.28c.17,1.8,1.6,2.71,4.29,2.71h1.62A.43.43,0,0,1,430.89,820.62ZM422,803.32l2.84,2.22-2.16,2.68L419.83,806Z"/><path d="M449.87,814.05a6.34,6.34,0,0,1,1.21,3.9,10.25,10.25,0,0,1-.87,4.26,4.2,4.2,0,0,1-1.39,1.51,2.28,2.28,0,0,1-1.37.6,1.58,1.58,0,0,1-.52-.12l-5.57-2.11a5.33,5.33,0,0,1-3.44,1.52,48.07,48.07,0,0,1-7.2.41c-.08,0-.14-.09-.19-.29a2.73,2.73,0,0,1,0-.7V821.3a2.81,2.81,0,0,1,0-.71c0-.21.11-.3.19-.3h2.78a17.33,17.33,0,0,0,4.19-.42,6,6,0,0,1-2.6-1.22,2.78,2.78,0,0,1-1-2.17,6.07,6.07,0,0,1,.78-3,20.84,20.84,0,0,1,2.05-3l-1.84-.87,1.3-2.79,9.72,4.34A9.75,9.75,0,0,1,449.87,814.05Zm-7.08-.82L439,811.62c-1.69,1.88-2.54,3.38-2.54,4.52,0,1.3,1.39,2.13,4.16,2.4Zm5.65,6.61a4.61,4.61,0,0,0,.26-1.48,3.71,3.71,0,0,0-.84-2.39,7.26,7.26,0,0,0-3.05-1.87l-2.14,5.2,5.12,1.92a7.27,7.27,0,0,0,.65-1.38Z"/><path d="M469.94,816.61a51.9,51.9,0,0,0,1,6.69l-2.78,1A63.37,63.37,0,0,1,467,812.75v-.26a19.22,19.22,0,0,1-4.71.63,15.71,15.71,0,0,1-3.68-.33,3.45,3.45,0,0,1-2-1.3A4.22,4.22,0,0,1,456,809a20.76,20.76,0,0,1,.59-4.77,9.9,9.9,0,0,1,2.09-4.26,5,5,0,0,1,4-1.78,5.62,5.62,0,0,1,5.3,3,16.46,16.46,0,0,1,1.68,7.93Q469.67,813.16,469.94,816.61Zm-10-7.35a21.09,21.09,0,0,0,2.38.13,18.44,18.44,0,0,0,2.69-.13,9.31,9.31,0,0,0,2-.36,11.26,11.26,0,0,0-1.13-5.6,3.58,3.58,0,0,0-3.24-1.9,3.53,3.53,0,0,0-3.15,2.05,11,11,0,0,0-1.15,5.45A5.34,5.34,0,0,0,460,809.26Z"/><path d="M477.21,820.91a6.28,6.28,0,0,1-2.33-2.33,6.76,6.76,0,0,1,0-6.5,6.12,6.12,0,0,1,2.33-2.27,6.81,6.81,0,0,1,6.5,0,6,6,0,0,1,2.27,2.27,6.81,6.81,0,0,1,0,6.5,6.05,6.05,0,0,1-2.27,2.33A6.76,6.76,0,0,1,477.21,820.91Zm5.85-3.09a3.32,3.32,0,0,0,1-2.51,3.27,3.27,0,0,0-1.07-2.45,3.72,3.72,0,0,0-5.13,0,3.27,3.27,0,0,0-1.07,2.45,3.4,3.4,0,0,0,1,2.51,3.67,3.67,0,0,0,2.6,1,3.59,3.59,0,0,0,2.6-1Z"/><path d="M236.62,875.89a6.43,6.43,0,0,1-2.13-5.28,24.94,24.94,0,0,1,.34-3q.33-2.22.83-5.38c.08-.51.14-1,.22-1.49l.23-1.5,2.33.46A99.76,99.76,0,0,0,237,870.19a3,3,0,0,0,1.76,2.85,10.37,10.37,0,0,0,4.69.9c4.25,0,7.23-.68,8.93-2l-1.3-14.3L254,857q1,11.7,1,15.43a3.42,3.42,0,0,1-1.67,2.8,12,12,0,0,1-4.3,1.79,24.79,24.79,0,0,1-5.5.61C240.32,877.64,238,877.05,236.62,875.89Zm7.55-25.36,2.84,2.22-2.16,2.68L242,853.22Z"/><path d="M275.31,865.87a2.81,2.81,0,0,1,0,.71v1.73a2.73,2.73,0,0,1,0,.7c0,.2-.12.29-.2.29H271.8a13,13,0,0,1-3.73,6.16,21.42,21.42,0,0,1-6.91,4.32l-2-2.83a23.18,23.18,0,0,0,6.5-3.49,11.25,11.25,0,0,0,3.67-4.5,23.33,23.33,0,0,1-4.08.34,10.34,10.34,0,0,1-2.71-.3,3.17,3.17,0,0,1-1.7-1.17,5.32,5.32,0,0,1-.63-1.05,4.14,4.14,0,0,1-.16-1.3,14.54,14.54,0,0,1,.63-4.15,8.9,8.9,0,0,1,2-3.58,4.76,4.76,0,0,1,3.59-1.48,4.59,4.59,0,0,1,4.36,2.78,16.81,16.81,0,0,1,1.56,6.5h2.9S275.23,865.66,275.31,865.87Zm-9.66.26a15.48,15.48,0,0,0,4-.38,9.76,9.76,0,0,0-.92-4.82,3,3,0,0,0-2.7-1.59,2.8,2.8,0,0,0-2.49,1.75,9.67,9.67,0,0,0-.94,4.55,8.39,8.39,0,0,0,3.06.49Z"/><path d="M287.15,864.4a3.85,3.85,0,0,1-.49,1.88,4,4,0,0,1-1.47,1.51,12.41,12.41,0,0,1-3.9,1.14,42.39,42.39,0,0,1-6.27.37c-.08,0-.13-.09-.18-.29a2.74,2.74,0,0,1-.08-.7v-1.73a2.81,2.81,0,0,1,.08-.71c0-.21.1-.3.18-.3,2,0,4-.07,6-.25a9.37,9.37,0,0,0,3.52-1l-.71-8.59,2.86-.54Q287.15,861.61,287.15,864.4Zm-7.8-18.1,2.6,2.07-2.06,2.6-2.61-2.07Zm4.86,0,2.6,2.07-2.1,2.6-2.6-2.07Z"/><path d="M301.06,865.87a2.81,2.81,0,0,1,.08.71v1.73a2.35,2.35,0,0,1-.08.7c0,.2-.1.29-.18.29h-.75a7.44,7.44,0,0,1-5.41-1.71q-1.73-1.7-1.87-5.69l-.5-18.92,2.95-.49.19,19.38a3.29,3.29,0,0,0,1.17,2.81,5.11,5.11,0,0,0,3.13.89h1.09C301,865.57,301,865.66,301.06,865.87Z"/><path d="M320,859.29a6.34,6.34,0,0,1,1.21,3.9,10.58,10.58,0,0,1-.87,4.26A4.2,4.2,0,0,1,319,869a2.28,2.28,0,0,1-1.37.6,1.58,1.58,0,0,1-.52-.12l-5.59-2.11a5.32,5.32,0,0,1-3.42,1.53,49.51,49.51,0,0,1-7.2.4c-.08,0-.14-.09-.19-.29a2.35,2.35,0,0,1-.08-.7v-1.73a2.42,2.42,0,0,1,.08-.71c0-.21.11-.3.19-.3h2.78a17.33,17.33,0,0,0,4.19-.42,6,6,0,0,1-2.6-1.22,2.71,2.71,0,0,1-1-2.17,6.17,6.17,0,0,1,.77-3,21.68,21.68,0,0,1,2-3l-1.85-.87,1.3-2.79,9.73,4.34A9.85,9.85,0,0,1,320,859.29Zm-7-.87-3.77-1.62q-2.53,2.82-2.54,4.53c0,1.3,1.4,2.13,4.15,2.4Zm5.65,6.61a4.35,4.35,0,0,0,.26-1.48,3.65,3.65,0,0,0-.84-2.39,7.39,7.39,0,0,0-3-1.87l-2.15,5.2,5.12,1.92a7.4,7.4,0,0,0,.59-1.32Z"/><path d="M357.77,865.87a3.36,3.36,0,0,1,.08.71v1.73a2.74,2.74,0,0,1-.08.7c0,.2-.12.29-.2.29a13.1,13.1,0,0,1-4.57-.63,3.28,3.28,0,0,1-2.06-1.67,3.31,3.31,0,0,1-1.09.87,9,9,0,0,1-1.74.6,35.8,35.8,0,0,1-4.24.74,46.21,46.21,0,0,1-5,.27,33.28,33.28,0,0,1-6.61-.55,8.22,8.22,0,0,1-4.14-2,5.59,5.59,0,0,1-1.51-4.19,21.32,21.32,0,0,1,.27-2.52c.17-1.18.45-2.85.8-5l2.32.5a64.58,64.58,0,0,0-.86,6.5,2.63,2.63,0,0,0,1.15,2.34,7,7,0,0,0,3.17,1,43,43,0,0,0,5.2.25,39.06,39.06,0,0,0,11.39-1.3l-.6-6.86,2.78-.3.38,7.42a4.88,4.88,0,0,0,1.92.66,22.91,22.91,0,0,0,3,.17C357.65,865.57,357.72,865.66,357.77,865.87Zm-20.48-15.42,2.6,2.06-2.06,2.6-2.6-2.06Zm4.87,0,2.6,2.06-2.11,2.6-2.6-2.06Z"/><path d="M381.36,864.73a3.89,3.89,0,0,1-1.67,3.45,7,7,0,0,1-3.9,1.12c-2.14,0-3.5-.65-4.07-2a3,3,0,0,1-1.76,1.51,6.58,6.58,0,0,1-2.23.46,5.83,5.83,0,0,1-2.54-.51,3.32,3.32,0,0,1-1.55-1.46,4.37,4.37,0,0,1-2.39,1.5,13.52,13.52,0,0,1-3.64.47.52.52,0,0,1-.18-.29,2.74,2.74,0,0,1-.08-.7v-1.73a2.81,2.81,0,0,1,.08-.71c0-.21.12-.3.18-.3a20,20,0,0,0,2.68-.17,5.49,5.49,0,0,0,2-.74l.08-5.92H365l-.12,4.71c0,1.41.82,2.12,2.53,2.12a6.35,6.35,0,0,0,3.09-.65l-.22-7.61,2.6-.08L373,865a3.26,3.26,0,0,0,2.22.61,7.5,7.5,0,0,0,3.59-.68l-.67-9.1,2.82-.53C381.23,859.47,381.36,862.64,381.36,864.73Z"/><path d="M397.22,859.29a17.11,17.11,0,0,1,1.41,7,12,12,0,0,1-3.06,8,20.2,20.2,0,0,1-8,5.5l-2-2.83a23.46,23.46,0,0,0,6.5-3.49,11.13,11.13,0,0,0,3.65-4.5,23.05,23.05,0,0,1-4.07.34A10.41,10.41,0,0,1,389,869a3.22,3.22,0,0,1-1.7-1.17,4.43,4.43,0,0,1-.61-1.05,3.88,3.88,0,0,1-.17-1.3,14.21,14.21,0,0,1,.64-4.15,8.9,8.9,0,0,1,2-3.58,5,5,0,0,1,7-.06,5,5,0,0,1,1.1,1.62Zm-5.2,6.84a15.51,15.51,0,0,0,3.9-.38,9.65,9.65,0,0,0-.92-4.82,2.93,2.93,0,0,0-2.69-1.59,2.83,2.83,0,0,0-2.5,1.75,9.54,9.54,0,0,0-.93,4.55,8.48,8.48,0,0,0,3.2.49Z"/><path d="M417.82,858.42a15.6,15.6,0,0,1,1.62,6.5,3.71,3.71,0,0,1-2.69,3.45,17,17,0,0,1-6.5,1.14,13.08,13.08,0,0,1-4-.47,3.07,3.07,0,0,1-1.91-1.56,7.5,7.5,0,0,1-.52-3.14c0-.62,0-1.25,0-1.88l2.26.19v.72a4.19,4.19,0,0,0,.25,1.68,1.3,1.3,0,0,0,1,.59,18.21,18.21,0,0,0,2.86.13,24.47,24.47,0,0,0,3.73-.29,11.66,11.66,0,0,0,2.91-.76,12.58,12.58,0,0,0-1.88-5.48,27.73,27.73,0,0,0-4.72-5.63l1.92-2.46A25.17,25.17,0,0,1,417.82,858.42Z"/><path d="M246.9,957.37l-.47,1.78a1.08,1.08,0,0,1-1.15.87h-1.15a.91.91,0,0,1-1-.83.48.48,0,0,1,0-.17V933.31a.93.93,0,0,1,.83-1h2.17a.93.93,0,0,1,1,.84.43.43,0,0,1,0,.16v8.24a4.15,4.15,0,0,1,4-2.5c2.93,0,4.39,1.9,4.4,5.7v10q0,5.7-4.4,5.7A4.27,4.27,0,0,1,246.9,957.37Zm4.6-12.32c0-1.86-.6-2.53-2-2.53a2.57,2.57,0,0,0-2.39,2.73s0,0,0,.08v8.87a2.54,2.54,0,0,0,2.27,2.8h.11c1.38,0,2-.67,2-2.53Z"/><path d="M257.77,955.09v-.31a5.71,5.71,0,0,1,1.82-4.68,12.69,12.69,0,0,1,3.52-2.1c.72-.31,1.23-.55,1.59-.75a2.62,2.62,0,0,0,1.46-2V945c0-1.7-.67-2.57-2.06-2.57s-2.1.87-2.1,2.57v.48a.91.91,0,0,1-.83,1h-1.91a.94.94,0,0,1-1-.86,1.48,1.48,0,0,1,0-.21q0-6.42,6-6.42c4,0,5.94,2.18,5.94,6.5v7.76a43.41,43.41,0,0,0,.24,5.59c.12.75-.16,1.1-.91,1.1h-1.82a1,1,0,0,1-1.14-.83v0a8.8,8.8,0,0,1-.24-1.62,4.3,4.3,0,0,1-4.16,2.93Q257.77,960.45,257.77,955.09Zm8.39-.87v-4.31l-.9.46a9.77,9.77,0,0,0-2.38,1.39,3.1,3.1,0,0,0-1.1,2.65v.28c0,1.78.67,2.37,2,2.37a2.53,2.53,0,0,0,2.39-2.69.76.76,0,0,0,0-.15Z"/><path d="M272.71,954.22a.93.93,0,0,1,.83-1h1.83a.93.93,0,0,1,1,.84.43.43,0,0,1,0,.16v.4c0,1.74.71,2.61,2.1,2.61s2.14-.83,2.14-2.45v-.36c0-1.43-.91-2-3-2.89a10.2,10.2,0,0,1-3.29-2c-1.15-1-1.66-2.5-1.66-4.56v-.08c0-3.92,2.17-5.86,6-5.86s5.94,2,5.94,6a.91.91,0,0,1-.83,1h-1.84a.91.91,0,0,1-1-.83.48.48,0,0,1,0-.17v-.16c0-1.74-.71-2.61-2.1-2.61s-2.13.83-2.13,2.46V945a2.18,2.18,0,0,0,.91,1.87,9.78,9.78,0,0,0,2.1,1.1,10.2,10.2,0,0,1,2.69,1.47c1.47,1,2.14,2.42,2.26,5v.12c0,3.92-2.14,5.9-6,5.9S272.71,958.37,272.71,954.22Z"/><path d="M286.7,955.09v-.31a5.71,5.71,0,0,1,1.82-4.68A12.69,12.69,0,0,1,292,948c.72-.31,1.23-.55,1.59-.75a2.62,2.62,0,0,0,1.46-2V945c0-1.7-.67-2.57-2.06-2.57s-2.1.87-2.1,2.57v.48a.91.91,0,0,1-.83,1h-1.87a.94.94,0,0,1-1-.86,1.48,1.48,0,0,1,0-.21q0-6.42,6-6.42c4,0,5.94,2.18,5.94,6.5v7.76a43.41,43.41,0,0,0,.24,5.59c.12.75-.16,1.1-.91,1.1h-1.82a1,1,0,0,1-1.14-.83v0a8.8,8.8,0,0,1-.24-1.62,4.3,4.3,0,0,1-4.16,2.93Q286.69,960.45,286.7,955.09Zm8.39-.87v-4.31l-.91.43a9.77,9.77,0,0,0-2.38,1.39,3.1,3.1,0,0,0-1.1,2.65v.28c0,1.78.67,2.37,2,2.37a2.54,2.54,0,0,0,2.4-2.69s0-.08,0-.12Z"/><path d="M306.26,959a.91.91,0,0,1-.83,1h-2.17a.91.91,0,0,1-1-.83.48.48,0,0,1,0-.17V933.31a.93.93,0,0,1,.83-1h2.17a.93.93,0,0,1,1,.84.43.43,0,0,1,0,.16Z"/><path d="M308.81,955.09v-.31a5.71,5.71,0,0,1,1.82-4.68,12.94,12.94,0,0,1,3.52-2.1c.72-.31,1.23-.55,1.59-.75a2.63,2.63,0,0,0,1.47-2V945c0-1.7-.68-2.57-2.06-2.57s-2.1.87-2.1,2.57v.48a.91.91,0,0,1-.83,1h-1.88a.94.94,0,0,1-1-.86,1.48,1.48,0,0,1,0-.21q0-6.42,6-6.42c4,0,6,2.18,6,6.5v7.76a45.28,45.28,0,0,0,.23,5.59c.12.75-.16,1.1-.91,1.1h-1.82a1,1,0,0,1-1.14-.83v0a8.8,8.8,0,0,1-.24-1.62,4.28,4.28,0,0,1-4.15,2.93C310.26,960.44,308.81,958.66,308.81,955.09Zm8.4-.87v-4.31l-.95.46a9.9,9.9,0,0,0-2.37,1.39,3.14,3.14,0,0,0-1.11,2.65v.28c0,1.78.67,2.37,2,2.37a2.55,2.55,0,0,0,2.5-2.6c0-.08,0-.16,0-.24Z"/><path d="M325.33,960a.91.91,0,0,1-1-.83.48.48,0,0,1,0-.17V940.52a.93.93,0,0,1,.83-1H327a.93.93,0,0,1,1,.84.43.43,0,0,1,0,.16v1.7a4.21,4.21,0,0,1,4.16-3.17,3.66,3.66,0,0,1,3.92,3,4.32,4.32,0,0,1,4.19-3c2.86,0,4.28,1.9,4.28,5.7V959a.91.91,0,0,1-.83,1h-2.17a.91.91,0,0,1-1-.83.48.48,0,0,1,0-.17V945c0-1.9-.55-2.53-1.86-2.53s-2.26,1.19-2.26,2.81V959a.91.91,0,0,1-.83,1h-2.11a.91.91,0,0,1-1-.83.48.48,0,0,1,0-.17V945c0-1.9-.55-2.53-1.86-2.53s-2.26,1.19-2.26,2.81V959a.91.91,0,0,1-.83,1h-.17Z"/><path d="M348.79,960a.91.91,0,0,1-1-.83.48.48,0,0,1,0-.17v-4a.93.93,0,0,1,.83-1h2.17a.91.91,0,0,1,1,.81.6.6,0,0,1,0,.19v4a.91.91,0,0,1-.81,1h-2.19Z"/><path d="M354.82,945.59q0-6.54,6.06-6.54t6.06,6.54v.83c0,.55-.36.83-1,.83h-1.68a.91.91,0,0,1-1-.83.48.48,0,0,1,0-.17v-1.19c0-1.7-.71-2.53-2.18-2.53s-2.21.83-2.21,2.53v9.43c0,1.7.75,2.53,2.21,2.53s2.18-.83,2.18-2.53v-1.58a.93.93,0,0,1,.83-1h1.84a.93.93,0,0,1,1,.84.43.43,0,0,1,0,.16v1q0,6.54-6.06,6.54t-6.06-6.54Z"/><path d="M369.26,953.9v-8.31c0-4.36,2.06-6.54,6.22-6.54s6.18,2.18,6.18,6.54v8.31q0,6.54-6.18,6.54T369.26,953.9Zm8.4.56V945c0-1.7-.71-2.53-2.18-2.53s-2.22.87-2.22,2.53v9.43c0,1.7.76,2.53,2.22,2.53s2.2-.83,2.2-2.53Z"/><path d="M385.61,960a.91.91,0,0,1-1-.83.48.48,0,0,1,0-.17V940.52a.93.93,0,0,1,.83-1h1.87a.93.93,0,0,1,1,.84.43.43,0,0,1,0,.16v1.7a4.21,4.21,0,0,1,4.16-3.17,3.65,3.65,0,0,1,3.92,3,4.35,4.35,0,0,1,4.2-3c2.85,0,4.27,1.9,4.28,5.7V959a.91.91,0,0,1-.83,1h-2.17a.91.91,0,0,1-1-.83.48.48,0,0,1,0-.17V945c0-1.9-.56-2.53-1.86-2.53s-2.26,1.19-2.26,2.81V959a.91.91,0,0,1-.83,1h-2.11a.91.91,0,0,1-1-.83.48.48,0,0,1,0-.17V945c0-1.9-.55-2.53-1.86-2.53s-2.26,1.19-2.26,2.81V959a.91.91,0,0,1-.83,1h-.17Z"/><g id="Main_Grid" data-name="Main Grid"><path class="cls-7" d="M323.21,632.8a151.6,151.6,0,0,1-97.59-35.16A147.74,147.74,0,0,1,172,495.87L161.22,348c-3.08-43.67,26-48.18,29.28-48.52a24.91,24.91,0,0,1,19.16,5.95l.85.73-3.74-53c-1.91-26.93,12.21-47.94,33.55-50,1.12-.1,2.22-.16,3.28-.16a30.27,30.27,0,0,1,20,7.4q.5.42,1,.87c-.89-24.14,14.51-46.42,33.67-48.19,1.07-.09,2.13-.15,3.2-.15a30.26,30.26,0,0,1,20,7.46c9.3,7.9,15.5,21.91,16.6,37.47l1.16,16.4c6.39-7.71,14.91-12.08,23.44-12.7.91-.06,1.85-.11,2.78-.11a31.22,31.22,0,0,1,20.89,7.76c9,7.79,14.78,21.31,15.89,37.15l7.37,103.8a57.34,57.34,0,0,1,4.87-7.63c6.49-8.53,22.37-23.06,40.68-23.06a33.53,33.53,0,0,1,20.53,7c11.15,8.41,17.57,26.2,2.13,50.95-9.31,14.91-6.2,42.13-3.7,64,.53,4.66,1.07,9,1.39,13.09A152.74,152.74,0,0,1,339.45,632,160.3,160.3,0,0,1,323.21,632.8Z"/><path d="M301.46,175.89a17.33,17.33,0,0,1,11.66,4.39c6.61,5.61,11.24,16.54,12.08,28.52l11.22,159a6.46,6.46,0,0,0,6.39,6h.48a6.44,6.44,0,0,0,6-6.88v0l-7.46-106.25c-1.57-22.37,10-35.32,21.74-36.22.63,0,1.23-.06,1.84-.06A18.41,18.41,0,0,1,378,229c6.33,5.48,10.59,16.14,11.49,28.32l13.42,190.19.06.72h0a6.38,6.38,0,0,0,6.39,6h.54a6.46,6.46,0,0,0,6-6.9L413.56,415c-1.67-23.72,2.24-42.62,11.31-54.54,4.37-5.75,17.05-17.93,30.38-17.93A20.68,20.68,0,0,1,468,346.88c8.53,6.39,8.11,19-1.06,33.76-11.72,18.72-8.31,48.46-5.57,72.34.52,4.58,1.06,8.92,1.35,12.84,7.83,76.57-48,145.34-124.63,153.29a145.88,145.88,0,0,1-14.92.77,139.55,139.55,0,0,1-89.36-32.19,135,135,0,0,1-49-92.92L174.12,347.06c-2.13-30.9,14.46-34.38,17.82-34.76a13.56,13.56,0,0,1,1.43-.07,12.23,12.23,0,0,1,8,3.1c6.28,5.24,10.91,16.52,11.81,28.77l5.57,78.79a6.44,6.44,0,0,0,6.39,6h.49a6.46,6.46,0,0,0,6-6.9l-5.54-78.62a.54.54,0,0,1,0-.18l-6.4-91c-1.18-16.83,5.95-34.66,21.88-36.22.7-.06,1.38-.1,2.05-.1a17.44,17.44,0,0,1,11.72,4.27c6.52,5.53,11.11,16.49,12,28.6L276,371.9V372a6.47,6.47,0,0,0,6.39,6h.49a6.46,6.46,0,0,0,6-6.91h0L277.63,212.17c-1.22-17.45,9.39-35,21.85-36.22.67-.06,1.33-.1,2-.1m0-25.88h0c-1.46,0-2.94.08-4.41.22-14.19,1.32-27.23,10.19-35.77,24.35a67.13,67.13,0,0,0-7.18,16.76,43.71,43.71,0,0,0-10.5-1.25c-1.47,0-3,.07-4.46.21-16,1.52-29.74,11-37.75,25.87-5.82,10.83-8.52,24.29-7.52,37.89l2.28,32.39c-.93-.07-1.86-.1-2.78-.1a39.32,39.32,0,0,0-4.34.24c-16.6,1.86-43.91,17.05-40.72,62.29v.05l10.75,147.74V497a160.56,160.56,0,0,0,58.29,110.61,165.53,165.53,0,0,0,105.86,38.13,175,175,0,0,0,17.58-.9A165.55,165.55,0,0,0,488.41,463.37c-.37-4.21-.88-8.63-1.41-13.3-2-17.81-5.1-44.67,1.8-55.72,7-11.26,10.78-22.32,11.12-32.88.46-14.22-5.52-27.08-16.39-35.27a46.74,46.74,0,0,0-28.31-9.59c-14,0-26,6-34.78,12.49l-5.19-73.62c-1.35-19.17-8.77-36-20.32-46a44.36,44.36,0,0,0-29.49-10.93c-1.24,0-2.51,0-3.77.14a43.59,43.59,0,0,0-11.29,2.36c-2.41-16.6-9.86-31.45-20.5-40.48A43.4,43.4,0,0,0,301.46,150Z"/><polyline class="cls-8" points="307.85 510.9 336.09 508.11 324.56 456.32"/><path class="cls-8" d="M297.63,559.8a54.94,54.94,0,0,0,75.24-19.45l.05-.09"/><path class="cls-9" d="M397.14,405.77A21.8,21.8,0,0,0,366.48,409h0a21.81,21.81,0,1,0-28.14,33.33l.64.52,33.85,27.5,27.5-33.85a21.81,21.81,0,0,0-3.16-30.68Z"/><path class="cls-9" d="M306.5,413.74a21.8,21.8,0,0,0-30.66,3.19h0a21.81,21.81,0,1,0-28.76,32.79c.41.36.83.71,1.27,1l33.85,27.5,27.51-33.9A21.8,21.8,0,0,0,306.5,413.74Z"/><path class="cls-10" d="M397.14,405.77A21.8,21.8,0,0,0,366.48,409h0a21.81,21.81,0,1,0-28.14,33.33l.64.52,33.85,27.5,27.5-33.85a21.81,21.81,0,0,0-3.16-30.68Z"/><path class="cls-10" d="M306.5,413.74a21.8,21.8,0,0,0-30.66,3.19h0a21.81,21.81,0,1,0-28.76,32.79c.41.36.83.71,1.27,1l33.85,27.5,27.51-33.9A21.8,21.8,0,0,0,306.5,413.74Z"/></g><rect class="cls-11" width="648" height="115.42"/><circle class="cls-12" cx="45.57" cy="57.3" r="27.04"/><text class="cls-13" transform="translate(93.59 65.33)"><tspan xml:space="preserve">BASALAM   </tspan><tspan x="135.4" y="0">2</tspan><tspan x="150.06" y="0">h</tspan></text><path d="M57.34,68.26a1.44,1.44,0,0,0-2.57.3,3.48,3.48,0,0,1-1.11,1.3l-.6-1,1.16-.65L50.4,59a5.68,5.68,0,0,0,.57-.53,6.46,6.46,0,0,0,1.41-5.69,3.13,3.13,0,0,1,.16-2.35c.78-1.24.4-2.17-.16-2.59a2.12,2.12,0,0,0-2.82.5l-.27-3.8a2.66,2.66,0,0,0-.79-1.81,1.71,1.71,0,0,0-1.24-.4,1.63,1.63,0,0,0-.77.25v-.15a2.64,2.64,0,0,0-.82-1.83,1.61,1.61,0,0,0-1.21-.38,2.07,2.07,0,0,0-1.69,1.89,1.59,1.59,0,0,0-.84-.14A2.13,2.13,0,0,0,40.2,44.4l.13,1.8a1.32,1.32,0,0,0-.59-.07c-1,.11-1.62,1.06-1.52,2.41l.4,5.67h0v.12s0,0,0,0A7.25,7.25,0,0,0,41,59.52a5.67,5.67,0,0,1-.23,2,5.46,5.46,0,0,1-3.36,3.55l-.46.17-3.31,1,1,3.35,1-.11a4,4,0,0,0-.14,2.88,1.38,1.38,0,0,0,1.92,1c.75-.37,1.15-1.16.45-2.25s-.53-1.68-.31-1.89h.12l.3.92.38,0,.76,0c5.2,0,6.54-3.4,6.59-3.55a.55.55,0,0,0-.32-.72.57.57,0,0,0-.72.33s-1.17,3-5.87,2.83l-.45-1.44-.49-1.55h0a6.53,6.53,0,0,0,4.28-5.87,6.38,6.38,0,0,0,.76.31H43a.56.56,0,0,0,.12-1.1S40,58.6,39.73,54.14l-.41-5.68c0-.12-.06-1.16.54-1.23a.28.28,0,0,1,.21.08,1.63,1.63,0,0,1,.41,1.07l.25,3.43a.56.56,0,0,0,.59.52.57.57,0,0,0,.52-.6l-.2-2.83h0l-.33-4.58c0-.49.13-1.23.71-1.29a.56.56,0,0,1,.4.12,1.65,1.65,0,0,1,.42,1.06h0l.38,5.37a.56.56,0,0,0,.56.52h0a.55.55,0,0,0,.51-.6l-.49-6.94c0-.6.32-1.25.71-1.29a.5.5,0,0,1,.39.13,1.57,1.57,0,0,1,.43,1.05l.49,6.95a.57.57,0,0,0,.6.51.56.56,0,0,0,.51-.59l-.32-4.62v0c0-.48.12-1.25.69-1.29a.57.57,0,0,1,.43.13,1.57,1.57,0,0,1,.41,1l.49,6.92h0l.1,1.41a.13.13,0,0,0,0,.06v0l0,.08h0a.54.54,0,0,0,.41.31h.28l.06,0,0,0,0,0,0,0,0,0,0,0,0-.05s0,0,0,0a.08.08,0,0,0,0,0s0,0,0-.05,0,0,0,0V52.9s0,0,0,0c0-.23-.05-.73-.08-1.1l0-.32h0a3.25,3.25,0,0,1,.44-2.19c.17-.23.92-1,1.49-.54.25.19.21.6-.11,1.11a4.18,4.18,0,0,0-.32,3.13,5.39,5.39,0,0,1-1.13,4.75,4.31,4.31,0,0,1-.69.61l-.11.08a3.67,3.67,0,0,1-2.19.67.56.56,0,0,0-.09,1.11h.26a4.62,4.62,0,0,0,2.12-.57l2.47,6a1.72,1.72,0,0,1-1.32.87.56.56,0,0,0,.11,1.1h.11a3.15,3.15,0,0,0,1.59-.78l.4,1-.32.18h0L51,68.71l-.93.52-5.36-7.16A.55.55,0,0,0,44,62a.57.57,0,0,0-.11.78l5.27,7h0L52,73.61,54.92,72l-.42-.71a5.17,5.17,0,0,0,2-.77C57.61,69.72,57.62,68.74,57.34,68.26Z"/><path d="M43.21,65.43a.66.66,0,0,1-.54.69.56.56,0,0,0-.44.65.54.54,0,0,0,.54.45h.1a1.78,1.78,0,0,0,1.46-1.79.56.56,0,0,0-1.12,0Z"/><path d="M43.58,51.61c-.3.08-.47.5-.39,1s.38.73.67.65.47-.5.39-.94S43.87,51.53,43.58,51.61Z"/><path d="M47.52,53.21c.3-.08.47-.5.39-.94s-.38-.74-.67-.66-.47.5-.39,1S47.23,53.29,47.52,53.21Z"/><path d="M44.34,55.69a.55.55,0,0,0,.55.5h0L46.8,56l-.64-2.87a.55.55,0,0,0-1.08.24L45.44,55l-.61.06A.55.55,0,0,0,44.34,55.69Z"/><path d="M44,57.49a.57.57,0,0,0,.2.76,3,3,0,0,0,1.5.4,3,3,0,0,0,2.55-1.45.54.54,0,0,0-.2-.76.55.55,0,0,0-.76.19,1.84,1.84,0,0,1-2.52.66A.56.56,0,0,0,44,57.49Z"/></g></g></svg>