<svg xmlns="http://www.w3.org/2000/svg" xmlns:xlink="http://www.w3.org/1999/xlink" viewBox="0 0 648 648"><defs><style>.cls-1{fill:none;}.cls-2{fill:#ffdfd4;}.cls-3{fill:#ffdf33;}.cls-4{clip-path:url(#clip-path);}.cls-5{fill:#961e2f;}.cls-6{clip-path:url(#clip-path-2);}</style><clipPath id="clip-path"><path class="cls-1" d="M323.52,491.89a104,104,0,0,1-52.9-14.43,11.63,11.63,0,0,1,11.8-20,81.47,81.47,0,0,0,111.41-28.86,11.63,11.63,0,0,1,15.92-4.12c5.54,3.26,46.17,81,42.91,86.55C433.18,544.08,359.4,491.89,323.52,491.89Z"/></clipPath><clipPath id="clip-path-2"><rect class="cls-1" x="1176" width="648" height="648" rx="324"/></clipPath></defs><g id="Graphic"><rect class="cls-2" width="648" height="648" rx="324"/><path class="cls-3" d="M212.6,247a10.93,10.93,0,0,0-1.27.07c-3,.34-18,3.44-16,31.25L205,411.09a121.34,121.34,0,0,0,44,83.53A126,126,0,0,0,454.69,385.08c-.31-3.53-.75-7.43-1.22-11.55-2.46-21.48-5.51-48.21,5-65,8.28-13.23,8.65-24.58,1-30.35-15.34-11.54-33.58,5.36-38.76,12.19-8.16,10.76-11.68,27.72-10.18,49l2.06,29.08a5.81,5.81,0,0,1-11.6.82h0l-.05-.65-12.06-171c-.78-11-4.63-20.5-10.3-25.42a16.91,16.91,0,0,0-12.93-4.08c-10.53.76-21,12.42-19.54,32.52l6.7,95.51a5.81,5.81,0,1,1-11.59.82L331.13,154c-.76-10.77-4.92-20.6-10.86-25.64A15.79,15.79,0,0,0,308,124.52c-11.21,1-20.75,16.84-19.65,32.53l10.09,143a5.81,5.81,0,0,1-11.6.81v-.07L279,190.06c-.77-10.89-4.89-20.74-10.76-25.71a15.91,15.91,0,0,0-12.34-3.8c-14.32,1.36-20.73,17.4-19.66,32.53L242,274.86a.92.92,0,0,0,0,.16l5,70.68a5.81,5.81,0,0,1-11.6.82l-5-70.84c-.81-11-5-21.18-10.62-25.88A11,11,0,0,0,212.6,247Z"/><path d="M309.78,124.44a15.67,15.67,0,0,1,10.49,3.95c5.94,5,10.1,14.87,10.86,25.64l10.09,143a5.79,5.79,0,0,0,5.77,5.4h.43a5.82,5.82,0,0,0,5.39-6.21l-6.7-95.51c-1.42-20.1,9-31.76,19.54-32.52q.84-.06,1.65-.06a16.57,16.57,0,0,1,11.28,4.14c5.67,4.92,9.52,14.42,10.3,25.42l12.06,171,.05.65h0a5.79,5.79,0,0,0,5.77,5.41l.44,0a5.8,5.8,0,0,0,5.38-6.21l-2.05-29.08c-1.5-21.32,2-38.28,10.18-49,3.92-5.17,15.33-16.12,27.3-16.12a18.64,18.64,0,0,1,11.46,3.94c7.66,5.76,7.29,17.11-1,30.34-10.52,16.83-7.47,43.56-5,65,.47,4.12.91,8,1.22,11.55A125.69,125.69,0,0,1,342.74,522.87a131.45,131.45,0,0,1-13.4.69A125.47,125.47,0,0,1,249,494.62a121.34,121.34,0,0,1-44-83.53l-9.65-132.77c-2-27.81,13-30.91,16-31.25a10.82,10.82,0,0,1,8.48,2.72c5.65,4.71,9.81,14.86,10.62,25.89l5,70.84a5.8,5.8,0,0,0,5.77,5.4h.44A5.83,5.83,0,0,0,247,345.7L242,275a.92.92,0,0,1,0-.16l-5.77-81.78c-1.07-15.13,5.34-31.17,19.66-32.53.63-.06,1.24-.09,1.85-.09a15.67,15.67,0,0,1,10.49,3.89c5.87,5,10,14.82,10.76,25.71l7.83,110.69v.07a5.82,5.82,0,0,0,5.77,5.41l.44,0a5.8,5.8,0,0,0,5.39-6.2l-10.09-143c-1.1-15.69,8.44-31.5,19.65-32.53.6,0,1.19-.08,1.77-.08m0-23.26h0c-1.28,0-2.59.06-3.9.18h0c-12.78,1.17-24.52,9.16-32.22,21.9a59.5,59.5,0,0,0-6.45,15.07,39.47,39.47,0,0,0-9.44-1.13c-1.32,0-2.67.06-4,.19-14.37,1.37-26.72,9.84-33.93,23.26-5.23,9.74-7.63,21.84-6.77,34.07l2.06,29.11c-.83-.06-1.67-.09-2.51-.09a33.82,33.82,0,0,0-3.89.22c-14.93,1.67-39.48,15.34-36.61,56l9.66,132.83v.16l0,.17a144.34,144.34,0,0,0,52.4,99.44,148.72,148.72,0,0,0,95.15,34.27,152.15,152.15,0,0,0,15.8-.82A148.81,148.81,0,0,0,477.85,382.89c-.33-3.8-.79-7.78-1.27-12-1.83-16-4.59-40.14,1.62-50.07,18.11-29,8.76-51.1-4.74-61.27A42.06,42.06,0,0,0,448,251c-12.61,0-23.34,5.39-31.26,11.22L412.08,196c-1.22-17.28-7.88-32.35-18.27-41.36a39.89,39.89,0,0,0-26.51-9.82c-1.11,0-2.25,0-3.39.12a39.39,39.39,0,0,0-10.15,2.13c-2.16-14.93-8.86-28.28-18.43-36.41a39,39,0,0,0-25.55-9.48Z"/><ellipse cx="291.42" cy="359.28" rx="11.28" ry="16.75" transform="translate(-35.43 31.9) rotate(-5.91)"/><ellipse cx="366.81" cy="359.28" rx="11.28" ry="16.75" transform="translate(-35.03 39.66) rotate(-5.91)"/><path d="M315.51,436.42a10.81,10.81,0,0,1-1.05-21.56l13.26-1.32L320,378.88a10.81,10.81,0,0,1,21.1-4.69l13,58.46-37.52,3.72C316.23,436.4,315.87,436.42,315.51,436.42Z"/><g class="cls-4"><path class="cls-5" d="M392.37,495.62a23,23,0,0,1-19.49-10.8,51.51,51.51,0,0,0-46.4-24.13l-1.24,0a23,23,0,0,1-1.21-45.9,97.47,97.47,0,0,1,87.8,45.66,23,23,0,0,1-19.46,35.14Z"/></g><path d="M331.84,484.06A80.92,80.92,0,0,1,262,444a8.85,8.85,0,1,1,15.32-8.88A63,63,0,0,0,394,413a8.85,8.85,0,1,1,17.51,2.62,80.66,80.66,0,0,1-79.67,68.49Z"/><g class="cls-6"><image width="5000" height="3333" transform="translate(492.03) scale(0.38)" xlink:href="../../../../../../../../Volumes/GoogleDrive/My%20Drive/Current%20Projects/BA%20SALAM/Guidline/Photography/shutterstock/shutterstock_327745004.jpg"/></g></g></svg>