<svg xmlns="http://www.w3.org/2000/svg" viewBox="0 0 648 648"><defs><style>.cls-1{fill:#ffdfd4;}.cls-2{fill:#eb6b4c;}.cls-3{fill:#1d2e72;}</style></defs><g id="Graphic"><rect class="cls-1" width="648" height="648" rx="324"/></g><g id="Layer_1" data-name="Layer 1"><line class="cls-2" x1="200.51" y1="442.38" x2="146.43" y2="534.11"/><path class="cls-3" d="M146.42,542.34a8.22,8.22,0,0,1-7.07-12.41l54.08-91.73a8.22,8.22,0,1,1,14.17,8.35l-54.08,91.74A8.24,8.24,0,0,1,146.42,542.34Z"/><line class="cls-2" x1="447.49" y1="442.38" x2="501.57" y2="534.11"/><path class="cls-3" d="M501.58,542.34a8.24,8.24,0,0,1-7.1-4.05L440.4,446.55a8.22,8.22,0,0,1,14.17-8.35l54.08,91.73a8.22,8.22,0,0,1-7.07,12.41Z"/><path class="cls-2" d="M528,321.09a80.43,80.43,0,0,0-38.38-68.59,80.48,80.48,0,0,0-97-97,80.49,80.49,0,0,0-137.2,0,80.48,80.48,0,0,0-97,97,80.49,80.49,0,0,0,0,137.19,80.48,80.48,0,0,0,97,97,80.49,80.49,0,0,0,137.2,0,80.48,80.48,0,0,0,97-97A80.43,80.43,0,0,0,528,321.09Z"/><path class="cls-3" d="M324,533.31a88.13,88.13,0,0,1-72.4-37.44A88.71,88.71,0,0,1,149.22,393.49a88.71,88.71,0,0,1,0-144.79A88.71,88.71,0,0,1,251.6,146.32a88.71,88.71,0,0,1,144.8,0A88.71,88.71,0,0,1,498.78,248.7a88.71,88.71,0,0,1,0,144.79,88.76,88.76,0,0,1-87.2,103.68,89.6,89.6,0,0,1-15.18-1.3A88.13,88.13,0,0,1,324,533.31Zm-64.71-56,3.12,5.07a72.26,72.26,0,0,0,123.18,0l3.12-5.07,5.79,1.38a72.26,72.26,0,0,0,87.1-87.1l-1.38-5.8,5.08-3.12a72.25,72.25,0,0,0,0-123.17l-5.08-3.13,1.38-5.79a72.26,72.26,0,0,0-87.1-87.1l-5.79,1.38-3.12-5.07a72.26,72.26,0,0,0-123.18,0l-3.12,5.07-5.79-1.38a72.26,72.26,0,0,0-87.1,87.1l1.38,5.79-5.08,3.13a72.25,72.25,0,0,0,0,123.17l5.08,3.12-1.38,5.8a72.26,72.26,0,0,0,87.1,87.1Z"/><circle cx="275.24" cy="244.09" r="17.38"/><path class="cls-3" d="M275.24,269.7a25.61,25.61,0,1,1,25.61-25.61A25.64,25.64,0,0,1,275.24,269.7Zm0-34.76a9.15,9.15,0,1,0,9.16,9.15A9.15,9.15,0,0,0,275.24,234.94Z"/><circle cx="372.76" cy="351.09" r="17.38"/><path class="cls-3" d="M372.76,376.7a25.61,25.61,0,1,1,25.61-25.61A25.64,25.64,0,0,1,372.76,376.7Zm0-34.76a9.16,9.16,0,1,0,9.15,9.15A9.17,9.17,0,0,0,372.76,341.94Z"/><line class="cls-2" x1="384.54" y1="194.9" x2="263.46" y2="400.29"/><path class="cls-3" d="M263.45,408.52a8.23,8.23,0,0,1-7.08-12.41L377.46,190.72a8.22,8.22,0,0,1,14.17,8.35L270.54,404.47A8.22,8.22,0,0,1,263.45,408.52Z"/><path class="cls-2" d="M274.53,441.53a69.93,69.93,0,0,0,98.94,0"/><path class="cls-3" d="M324,470.21a78,78,0,0,1-55.29-22.87,8.23,8.23,0,1,1,11.64-11.63,61.8,61.8,0,0,0,87.3,0,8.23,8.23,0,1,1,11.64,11.63A78,78,0,0,1,324,470.21Z"/><path class="cls-3" d="M135.1,208.4a8.22,8.22,0,0,1-8.22-8.23,77,77,0,0,1,77-77,8.23,8.23,0,0,1,0,16.46,60.57,60.57,0,0,0-60.51,60.5A8.22,8.22,0,0,1,135.1,208.4Z"/><path class="cls-3" d="M117.55,167.39a8.23,8.23,0,0,1-8.22-8.23,53.56,53.56,0,0,1,53.49-53.5,8.23,8.23,0,1,1,0,16.45,37.09,37.09,0,0,0-37,37.05A8.23,8.23,0,0,1,117.55,167.39Z"/><path class="cls-3" d="M512.9,208.4a8.22,8.22,0,0,1-8.23-8.23,60.57,60.57,0,0,0-60.51-60.5,8.23,8.23,0,0,1,0-16.46,77,77,0,0,1,77,77A8.22,8.22,0,0,1,512.9,208.4Z"/><path class="cls-3" d="M530.45,167.39a8.23,8.23,0,0,1-8.23-8.23,37.09,37.09,0,0,0-37-37,8.23,8.23,0,1,1,0-16.45,53.56,53.56,0,0,1,53.49,53.5A8.23,8.23,0,0,1,530.45,167.39Z"/></g></svg>