<svg xmlns="http://www.w3.org/2000/svg" xmlns:xlink="http://www.w3.org/1999/xlink" viewBox="0 0 648 1152"><defs><style>.cls-1{isolation:isolate;}.cls-2{fill:#ff5c35;}.cls-3,.cls-7{mix-blend-mode:multiply;}.cls-3{opacity:0.75;fill:url(#linear-gradient);}.cls-4,.cls-5{fill:none;stroke:#fff;stroke-miterlimit:10;}.cls-4{stroke-width:1.2px;}.cls-5{stroke-width:2.4px;}.cls-6{font-size:24px;}.cls-11,.cls-6,.cls-8{fill:#fff;}.cls-6,.cls-8{font-family:Approach-Regular, Approach;}.cls-7{opacity:0.5;fill:url(#linear-gradient-2);}.cls-8{font-size:25.2px;}.cls-9{fill:#fde4d9;}.cls-10,.cls-11,.cls-9{stroke:#000;stroke-linejoin:round;stroke-width:9.01px;}.cls-10{fill:#22346d;}.cls-11{stroke-linecap:round;}</style><linearGradient id="linear-gradient" x1="-8051.73" y1="15464.26" x2="-8051.73" y2="15314.26" gradientTransform="translate(8375.73 -14312.26)" gradientUnits="userSpaceOnUse"><stop offset="0" stop-color="#fff" stop-opacity="0"/><stop offset="1"/></linearGradient><linearGradient id="linear-gradient-2" x1="324" y1="115.42" x2="324" y2="0" gradientTransform="matrix(1, 0, 0, 1, 0, 0)" xlink:href="#linear-gradient"/></defs><g class="cls-1"><g id="Graphic"><rect class="cls-2" width="648" height="1152"/><rect class="cls-3" y="1002" width="648" height="150" transform="translate(648 2154) rotate(180)"/><rect class="cls-4" x="24.69" y="1042.83" width="537.52" height="71.28" rx="35.42"/><polygon class="cls-5" points="588.03 1063.53 623.31 1063.53 603.89 1093.65 600.72 1075.82 588.03 1063.53"/><line class="cls-5" x1="600.72" y1="1075.82" x2="623.31" y2="1063.53"/><text class="cls-6" transform="translate(58.35 1086.56)">Send Message</text><rect class="cls-7" width="648" height="115.42"/><circle class="cls-2" cx="45.57" cy="57.3" r="27.04"/><text class="cls-8" transform="translate(93.59 65.33)"><tspan xml:space="preserve">BASALAM   </tspan><tspan x="135.4" y="0">2</tspan><tspan x="150.06" y="0">h</tspan></text><path d="M57.34,68.26a1.44,1.44,0,0,0-2.57.3,3.48,3.48,0,0,1-1.11,1.3l-.6-1,1.16-.65L50.4,59a5.68,5.68,0,0,0,.57-.53,6.46,6.46,0,0,0,1.41-5.69,3.13,3.13,0,0,1,.16-2.35c.78-1.24.4-2.17-.16-2.59a2.12,2.12,0,0,0-2.82.5l-.27-3.8a2.66,2.66,0,0,0-.79-1.81,1.71,1.71,0,0,0-1.24-.4,1.63,1.63,0,0,0-.77.25v-.15a2.64,2.64,0,0,0-.82-1.83,1.61,1.61,0,0,0-1.21-.38,2.07,2.07,0,0,0-1.69,1.89,1.59,1.59,0,0,0-.84-.14A2.13,2.13,0,0,0,40.2,44.4l.13,1.8a1.32,1.32,0,0,0-.59-.07c-1,.11-1.62,1.06-1.52,2.41l.4,5.67h0v.12s0,0,0,0A7.25,7.25,0,0,0,41,59.52a5.67,5.67,0,0,1-.23,2,5.46,5.46,0,0,1-3.36,3.55l-.46.17-3.31,1,1,3.35,1-.11a4,4,0,0,0-.14,2.88,1.38,1.38,0,0,0,1.92,1c.75-.37,1.15-1.16.45-2.25s-.53-1.68-.31-1.89h.12l.3.92.38,0,.76,0c5.2,0,6.54-3.4,6.59-3.55a.55.55,0,0,0-.32-.72.57.57,0,0,0-.72.33s-1.17,3-5.87,2.83l-.45-1.44-.49-1.55h0a6.53,6.53,0,0,0,4.28-5.87,6.38,6.38,0,0,0,.76.31H43a.56.56,0,0,0,.12-1.1S40,58.6,39.73,54.14l-.41-5.68c0-.12-.06-1.16.54-1.23a.28.28,0,0,1,.21.08,1.63,1.63,0,0,1,.41,1.07l.25,3.43a.56.56,0,0,0,.59.52.57.57,0,0,0,.52-.6l-.2-2.83h0l-.33-4.58c0-.49.13-1.23.71-1.29a.56.56,0,0,1,.4.12,1.65,1.65,0,0,1,.42,1.06h0l.38,5.37a.56.56,0,0,0,.56.52h0a.55.55,0,0,0,.51-.6l-.49-6.94c0-.6.32-1.25.71-1.29a.5.5,0,0,1,.39.13,1.57,1.57,0,0,1,.43,1.05l.49,6.95a.57.57,0,0,0,.6.51.56.56,0,0,0,.51-.59l-.32-4.62v0c0-.48.12-1.25.69-1.29a.57.57,0,0,1,.43.13,1.57,1.57,0,0,1,.41,1l.49,6.92h0l.1,1.41a.13.13,0,0,0,0,.06v0l0,.08h0a.54.54,0,0,0,.41.31h.28l.06,0,0,0,0,0,0,0,0,0,0,0,0-.05s0,0,0,0a.08.08,0,0,0,0,0s0,0,0-.05,0,0,0,0V52.9s0,0,0,0c0-.23-.05-.73-.08-1.1l0-.32h0a3.25,3.25,0,0,1,.44-2.19c.17-.23.92-1,1.49-.54.25.19.21.6-.11,1.11a4.18,4.18,0,0,0-.32,3.13,5.39,5.39,0,0,1-1.13,4.75,4.31,4.31,0,0,1-.69.61l-.11.08a3.67,3.67,0,0,1-2.19.67.56.56,0,0,0-.09,1.11h.26a4.62,4.62,0,0,0,2.12-.57l2.47,6a1.72,1.72,0,0,1-1.32.87.56.56,0,0,0,.11,1.1h.11a3.15,3.15,0,0,0,1.59-.78l.4,1-.32.18h0L51,68.71l-.93.52-5.36-7.16A.55.55,0,0,0,44,62a.57.57,0,0,0-.11.78l5.27,7h0L52,73.61,54.92,72l-.42-.71a5.17,5.17,0,0,0,2-.77C57.61,69.72,57.62,68.74,57.34,68.26Z"/><path d="M43.21,65.43a.66.66,0,0,1-.54.69.56.56,0,0,0-.44.65.54.54,0,0,0,.54.45h.1a1.78,1.78,0,0,0,1.46-1.79.56.56,0,0,0-1.12,0Z"/><path d="M43.58,51.61c-.3.08-.47.5-.39,1s.38.73.67.65.47-.5.39-.94S43.87,51.53,43.58,51.61Z"/><path d="M47.52,53.21c.3-.08.47-.5.39-.94s-.38-.74-.67-.66-.47.5-.39,1S47.23,53.29,47.52,53.21Z"/><path d="M44.34,55.69a.55.55,0,0,0,.55.5h0L46.8,56l-.64-2.87a.55.55,0,0,0-1.08.24L45.44,55l-.61.06A.55.55,0,0,0,44.34,55.69Z"/><path d="M44,57.49a.57.57,0,0,0,.2.76,3,3,0,0,0,1.5.4,3,3,0,0,0,2.55-1.45.54.54,0,0,0-.2-.76.55.55,0,0,0-.76.19,1.84,1.84,0,0,1-2.52.66A.56.56,0,0,0,44,57.49Z"/><ellipse class="cls-9" cx="324" cy="543.31" rx="203.99" ry="295.3"/><polygon class="cls-10" points="221.5 239.03 272.74 213.15 243.64 258.96 305.34 266.9 249.84 288.1 280.48 321 237.72 315.32 254.19 370.43 211.93 330.22 195.19 370.82 182.29 327.11 144.03 356.85 160.15 307.18 107.59 303.13 153.95 278.04 117.34 246.52 166.06 250.82 143.4 196.79 191.86 235.92 218.38 185.62 221.5 239.03"/><polygon class="cls-2" points="207.9 266.17 225.22 257.43 215.39 272.91 236.24 275.59 217.48 282.75 227.83 293.87 213.39 291.95 218.95 310.57 204.67 296.99 199.01 310.7 194.66 295.94 181.73 305.98 187.18 289.2 169.42 287.83 185.08 279.35 172.71 268.7 189.18 270.16 181.52 251.9 197.89 265.12 206.85 248.13 207.9 266.17"/><path d="M144.15,938.39,143,942.55a2.52,2.52,0,0,1-2.68,2h-2.68a2.15,2.15,0,0,1-2.4-2.41V882.3a2.15,2.15,0,0,1,2.4-2.4h4.62a2.15,2.15,0,0,1,2.4,2.4v19.22A9.7,9.7,0,0,1,154,895.7q10.26,0,10.25,13.3v23.29q0,13.31-10.25,13.3A10,10,0,0,1,144.15,938.39Zm10.72-28.74c0-4.34-1.39-5.92-4.62-5.92s-5.55,2.87-5.55,6.57V931c0,3.7,2.32,6.56,5.55,6.56s4.62-1.57,4.62-5.91Z"/><path d="M169.49,933.12v-.74c0-4.8,1.29-8.41,4.25-10.9s4.43-3.15,8.22-4.9c1.67-.74,2.87-1.29,3.7-1.76,1.57-.83,3.42-2.67,3.42-4.61v-.56c0-4-1.57-6-4.81-6s-4.89,2-4.89,6v1.11a2.15,2.15,0,0,1-2.41,2.4h-4a2.17,2.17,0,0,1-2.4-2.49c0-10,4.71-15,14-15s13.86,5.08,13.86,15.15V929a104.67,104.67,0,0,0,.56,13c.27,1.76-.37,2.59-2.13,2.59h-4.25a2.35,2.35,0,0,1-2.68-2,21.55,21.55,0,0,1-.55-3.79,10,10,0,0,1-9.71,6.83Q169.5,945.59,169.49,933.12Zm19.59-2V921L187,922a22.47,22.47,0,0,0-5.54,3.23c-1.85,1.48-2.59,3.52-2.59,6.2v.64c0,4.16,1.57,5.55,4.62,5.55C186.77,937.65,189.08,934.78,189.08,931.09Z"/><path d="M204.34,931.09a2.15,2.15,0,0,1,2.4-2.41h3.88a2.16,2.16,0,0,1,2.41,2.41V932c0,4.07,1.66,6.1,4.89,6.1s5-1.94,5-5.73v-.83c0-3.33-2.12-4.62-7-6.75a24.1,24.1,0,0,1-7.67-4.62c-2.68-2.31-3.88-5.82-3.88-10.62v-.19c0-9.14,5.08-13.67,14-13.67,9.24,0,13.85,4.62,13.85,13.95a2.15,2.15,0,0,1-2.4,2.4H226a2.15,2.15,0,0,1-2.4-2.4v-.37c0-4.07-1.66-6.1-4.9-6.1s-5,1.94-5,5.73v.55a5.14,5.14,0,0,0,2.13,4.35,22.92,22.92,0,0,0,4.9,2.58,23.24,23.24,0,0,1,6.28,3.42c3.42,2.31,5,5.64,5.26,11.74v.27c0,9.15-5,13.77-14,13.77C209,945.59,204.34,940.79,204.34,931.09Z"/><path d="M237,933.12v-.74c0-4.8,1.29-8.41,4.24-10.9s4.44-3.15,8.23-4.9c1.66-.74,2.86-1.29,3.7-1.76,1.57-.83,3.41-2.67,3.41-4.61v-.56c0-4-1.57-6-4.8-6s-4.9,2-4.9,6v1.11a2.15,2.15,0,0,1-2.4,2.4h-4a2.18,2.18,0,0,1-2.41-2.49c0-10,4.72-15,14-15S266,900.78,266,910.85V929a102.71,102.71,0,0,0,.56,13c.27,1.76-.38,2.59-2.13,2.59h-4.25a2.35,2.35,0,0,1-2.68-2,22.48,22.48,0,0,1-.56-3.79,10,10,0,0,1-9.7,6.83Q237,945.59,237,933.12Zm19.58-2V921l-2.12,1a22.73,22.73,0,0,0-5.55,3.23c-1.84,1.48-2.58,3.52-2.58,6.2v.64c0,4.16,1.57,5.55,4.62,5.55C254.26,937.65,256.56,934.78,256.56,931.09Z"/><path d="M282.54,942.17a2.15,2.15,0,0,1-2.4,2.41h-4.62a2.15,2.15,0,0,1-2.4-2.41V882.3a2.15,2.15,0,0,1,2.4-2.4h4.62a2.15,2.15,0,0,1,2.4,2.4Z"/><path d="M288.56,933.12v-.74c0-4.8,1.29-8.41,4.25-10.9s4.44-3.15,8.22-4.9c1.67-.74,2.87-1.29,3.7-1.76,1.57-.83,3.42-2.67,3.42-4.61v-.56c0-4-1.57-6-4.81-6s-4.89,2-4.89,6v1.11a2.15,2.15,0,0,1-2.4,2.4h-4a2.17,2.17,0,0,1-2.4-2.49c0-10,4.71-15,14.05-15s13.85,5.08,13.85,15.15V929a104.67,104.67,0,0,0,.56,13c.28,1.76-.37,2.59-2.12,2.59h-4.26a2.35,2.35,0,0,1-2.68-2,22.53,22.53,0,0,1-.55-3.79,10,10,0,0,1-9.7,6.83Q288.56,945.59,288.56,933.12Zm19.59-2V921L306,922a22.73,22.73,0,0,0-5.55,3.23c-1.85,1.48-2.59,3.52-2.59,6.2v.64c0,4.16,1.57,5.55,4.62,5.55C305.84,937.65,308.15,934.78,308.15,931.09Z"/><path d="M327.11,944.58a2.15,2.15,0,0,1-2.4-2.41v-43a2.15,2.15,0,0,1,2.4-2.4h4a2.15,2.15,0,0,1,2.4,2.4v4a9.79,9.79,0,0,1,9.71-7.39c4.89,0,7.94,2.31,9.14,7a10.1,10.1,0,0,1,9.8-7q10,0,10,13.3v33.17a2.15,2.15,0,0,1-2.4,2.41h-4.62a2.15,2.15,0,0,1-2.41-2.41V909.65c0-4.44-1.3-5.92-4.34-5.92-3.24,0-5.27,2.78-5.27,6.57v31.87a2.15,2.15,0,0,1-2.4,2.41h-4.52a2.15,2.15,0,0,1-2.41-2.41V909.65c0-4.44-1.29-5.92-4.34-5.92-3.23,0-5.27,2.78-5.27,6.57v31.87a2.15,2.15,0,0,1-2.4,2.41Z"/><path d="M381.84,944.58a2.16,2.16,0,0,1-2.41-2.41v-9.24a2.16,2.16,0,0,1,2.41-2.4h4.62a2.15,2.15,0,0,1,2.4,2.4v9.24a2.15,2.15,0,0,1-2.4,2.41Z"/><path d="M395.89,910.94q0-15.24,14.13-15.24t14.14,15.24v1.94c0,1.3-.83,1.94-2.4,1.94h-3.88a2.15,2.15,0,0,1-2.4-2.4v-2.77c0-4-1.66-5.92-5.09-5.92s-5.17,1.95-5.17,5.92v22c0,4,1.76,5.91,5.17,5.91s5.09-1.94,5.09-5.91V928a2.15,2.15,0,0,1,2.4-2.41h3.88a2.15,2.15,0,0,1,2.4,2.41v2.4q0,15.24-14.14,15.24t-14.13-15.24Z"/><path d="M429.63,930.35V910.94c0-10.16,4.81-15.24,14.51-15.24s14.41,5.08,14.41,15.24v19.41q0,15.24-14.41,15.24C434.44,945.59,429.63,940.51,429.63,930.35Zm19.59,1.29v-22c0-4-1.66-5.92-5.08-5.92s-5.17,1.95-5.17,5.92v22c0,4,1.75,5.91,5.17,5.91S449.22,935.61,449.22,931.64Z"/><path d="M467.72,944.58a2.15,2.15,0,0,1-2.4-2.41v-43a2.15,2.15,0,0,1,2.4-2.4h4a2.15,2.15,0,0,1,2.4,2.4v4a9.77,9.77,0,0,1,9.7-7.39c4.9,0,7.95,2.31,9.15,7a10.09,10.09,0,0,1,9.8-7q10,0,10,13.3v33.17a2.15,2.15,0,0,1-2.4,2.41H505.7a2.15,2.15,0,0,1-2.4-2.41V909.65c0-4.44-1.3-5.92-4.35-5.92-3.23,0-5.26,2.78-5.26,6.57v31.87a2.15,2.15,0,0,1-2.4,2.41h-4.53a2.15,2.15,0,0,1-2.4-2.41V909.65c0-4.44-1.3-5.92-4.35-5.92-3.23,0-5.27,2.78-5.27,6.57v31.87a2.14,2.14,0,0,1-2.4,2.41Z"/><path d="M303.49,508.83a5,5,0,0,1-4,5.11,4.14,4.14,0,0,0,.75,8.22,3.88,3.88,0,0,0,.75-.07,13.28,13.28,0,0,0,10.82-13.39,4.08,4.08,0,0,0-4.21-4.08A4.15,4.15,0,0,0,303.49,508.83Z"/><path d="M408.68,529.85c-3.84-6.67-14.09-7-19.14,2.22-2.75,5-5.63,8-8.26,9.7l-4.49-7.52,8.63-4.82L357,460.64a40.56,40.56,0,0,0,4.24-3.95c6.77-7.41,14.09-20.76,10.51-42.36-1.23-6.55-2-12.39,1.21-17.51,5.77-9.22,3-16.14-1.18-19.27-7.59-5.71-16.23-1.29-21.06,3.68l-2-28.23c-.4-5.68-2.54-10.59-5.86-13.47a12.78,12.78,0,0,0-14.94-1.14l-.08-1.16c-.39-5.59-2.68-10.67-6.11-13.59a12,12,0,0,0-9.05-2.86c-6.91.64-11.5,7.16-12.56,14.08a12.14,12.14,0,0,0-6.29-1.05c-9.16.87-13.34,9.93-12.74,18.42l.94,13.39a10,10,0,0,0-4.42-.52c-7.59.85-12,7.9-11.33,17.94l3,42.25h0l.06.85c0,.08,0,.16,0,.25,1.7,20.16,10.08,31.83,17.8,38.39A43.5,43.5,0,0,1,285.43,480c-3.6,12.15-12.05,21-25,26.37l-3.47,1.3-24.6,7.55,7.46,24.93,7-.86c-2.14,4.58-3.82,11.76-1,21.47,2.48,8.64,10,9.64,14.28,7.56,5.61-2.76,8.61-8.62,3.37-16.75-5.61-8.7-3.92-12.51-2.3-14l.94-.11,2.16,6.85,2.84.17c2,.12,3.87.18,5.71.18,38.68,0,48.64-25.32,49.07-26.44a4.14,4.14,0,1,0-7.76-2.91c-.08.22-8.74,22-43.69,21l-3.37-10.69L263.43,514l0,0c26.12-10.75,31.19-32,31.9-43.73a29.94,29.94,0,0,0,5.66,2.3,4.56,4.56,0,0,0,.89.09,4.14,4.14,0,0,0,.89-8.18c-.23-.05-22.95-6.52-25.3-39.79l-3-42.25c-.06-.88-.48-8.62,4-9.13a1.9,1.9,0,0,1,1.53.53c1.6,1.33,2.88,4.61,3.12,8L285,407.4a4.14,4.14,0,1,0,8.26-.58l-1.49-21.11h0l-2.4-34.07c-.26-3.62.93-9.17,5.27-9.58a3.7,3.7,0,0,1,2.95.9c1.69,1.43,2.93,4.52,3.17,7.88a.43.43,0,0,0,0,.05l2.82,40a4.14,4.14,0,0,0,4.13,3.85H308a4.13,4.13,0,0,0,3.84-4.42l-3.64-51.68c-.32-4.48,2.33-9.32,5.25-9.59a3.74,3.74,0,0,1,2.93.92c1.71,1.46,3,4.55,3.21,7.86l3.65,51.69a4.14,4.14,0,1,0,8.26-.58l-2.43-34.4a.66.66,0,0,0,0-.14c-.25-3.54.94-9.27,5.18-9.58a4.15,4.15,0,0,1,3.19,1c1.63,1.42,2.79,4.4,3,7.8l3.63,51.53h0v.06l.74,10.45a3.4,3.4,0,0,0,.07.46c0,.09,0,.19.05.28a3.71,3.71,0,0,0,.24.66.26.26,0,0,0,0,.08,4.12,4.12,0,0,0,3,2.3.75.75,0,0,0,.21,0,3.91,3.91,0,0,0,.48.05h.3l.36-.06.41-.07.37-.14c.13-.05.27-.09.39-.15a3.62,3.62,0,0,0,.33-.2c.12-.07.24-.14.35-.22l.29-.25a4,4,0,0,0,.29-.29,2.17,2.17,0,0,0,.23-.3,4.15,4.15,0,0,0,.24-.34,2.7,2.7,0,0,0,.17-.34,3.17,3.17,0,0,0,.17-.38c0-.12.07-.26.11-.39s.07-.26.09-.39a3.31,3.31,0,0,0,0-.44,2,2,0,0,0,0-.34c-.07-1.71-.35-5.49-.56-8.24l-.18-2.37v0c-.51-7.21.62-12.86,3.26-16.35,1.27-1.67,6.88-7.24,11.16-4,1.84,1.38,1.52,4.47-.85,8.26-5.18,8.27-3.46,17.39-2.34,23.34,3,18.23-2.94,29.28-8.48,35.33a32.31,32.31,0,0,1-5.14,4.54,3.93,3.93,0,0,0-.81.57c-5.72,3.84-11.87,5.36-16.31,5a4.14,4.14,0,0,0-.61,8.26c.63.05,1.27.07,1.91.07A34.52,34.52,0,0,0,350,465.33l18.39,44.47c-.75,1.57-3.15,5.09-9.89,6.45a4.14,4.14,0,0,0,.82,8.2,4.65,4.65,0,0,0,.82-.08A23.49,23.49,0,0,0,372,518.54l3,7.25-2.41,1.34h0l-10.94,6.11-6.91,3.85-39.91-53.31a4.14,4.14,0,0,0-6.63,5l39.24,52.43h0l21.37,28.55,21.91-12.22-3.15-5.28a38,38,0,0,0,14.74-5.74C410.67,540.76,410.75,533.44,408.68,529.85Z"/><path d="M306.19,405.93c-2.19.59-3.49,3.74-2.91,7s2.84,5.46,5,4.87,3.49-3.73,2.9-7S308.38,405.34,306.19,405.93Z"/><path d="M335.56,417.82c2.19-.59,3.5-3.73,2.91-7s-2.83-5.47-5-4.88-3.49,3.74-2.9,7S333.37,418.41,335.56,417.82Z"/><path d="M311.84,436.26A4.14,4.14,0,0,0,316,440l.41,0,13.83-1.37-4.76-21.4a4.14,4.14,0,0,0-8.09,1.8l2.74,12.28-4.53.45A4.14,4.14,0,0,0,311.84,436.26Z"/><path d="M309.07,449.65a4.14,4.14,0,0,0,1.47,5.67,22,22,0,0,0,30.14-7.81,4.14,4.14,0,1,0-7.13-4.2,13.75,13.75,0,0,1-18.81,4.87A4.15,4.15,0,0,0,309.07,449.65Z"/><path d="M352.65,731l-7,1.68-.5,28.6a3.11,3.11,0,0,0,3.05,3.16h.06a3.1,3.1,0,0,0,3.1-3.05l0-2.41,8.08-1.94,1.13,2.13a3.11,3.11,0,0,0,5.49-2.92Zm-1.16,21.57.18-10.18,4.78,9Z"/><path d="M388.7,714.1l-5.37,3.12,3.1,17.74-13.85-11.51-5.37,3.11,14.27,24.63a3.1,3.1,0,0,0,2.69,1.55,3.09,3.09,0,0,0,2.69-4.66L381.61,739l7.3,6.06,5.08-2.94-1.63-9.35,5.24,9.05a3.11,3.11,0,0,0,5.38-3.11Z"/><path d="M327.11,759.68h-9.32V734.84h-6.21v31h15.53a3.11,3.11,0,0,0,0-6.21Z"/><path d="M271.46,752.38a3.11,3.11,0,1,0,5.23,3.35l1.3-2,7.89,2.6-.16,2.4a3.11,3.11,0,0,0,2.9,3.3h.21a3.11,3.11,0,0,0,3.09-2.91l1.86-28.54-6.86-2.26Zm14.84-2.48-4.84-1.59,5.5-8.56Z"/><path d="M263.65,715.7A8.8,8.8,0,0,0,251.41,718l-.88,1.27a8.8,8.8,0,0,0,2.25,12.24,2.6,2.6,0,0,1,.66,3.6l-.88,1.28a2.59,2.59,0,0,1-4.26-2.93,3.11,3.11,0,1,0-5.12-3.53,8.81,8.81,0,0,0,2.26,12.24,8.8,8.8,0,0,0,12.23-2.25l.89-1.28a8.81,8.81,0,0,0-2.26-12.24,2.53,2.53,0,0,1-1.07-1.66,2.57,2.57,0,0,1,.41-1.94l.88-1.28a2.57,2.57,0,0,1,1.67-1.07,2.5,2.5,0,0,1,1.93.41,2.59,2.59,0,0,1,.67,3.6,3.1,3.1,0,1,0,5.11,3.52,8.79,8.79,0,0,0-2.25-12.23Z"/><circle cx="435.81" cy="705.93" r="8.28"/><path d="M442,635.53v26.92a6.21,6.21,0,0,1-12.42,0V602.4h-20.7v60a26.92,26.92,0,0,0,53.84,0V635.53Z"/><path d="M373.69,689.37a27,27,0,0,0,26.92-26.92V635.53h-20.7v26.92a6.22,6.22,0,0,1-12.43,0V635.53h-20.7v26.92a6.22,6.22,0,0,1-12.43,0V635.53h-20.7v11.65a30.85,30.85,0,0,0-3.55-6.68h0l-12.8-18.29,9.82-14-17-11.88-5.5,7.86-9.56-13.65-17,11.88L272,622.21l-12.8,18.29h0a30.9,30.9,0,0,0-4.89,11.17,29,29,0,1,0-54.07,20.56,29,29,0,0,0-15,25.36V708H206V697.59a8.29,8.29,0,0,1,8.28-8.28h11.27c.39,0,.77.06,1.16.06A29,29,0,0,0,254.87,667a31,31,0,0,0,59.33.83,26.86,26.86,0,0,0,42.93,15.75A26.73,26.73,0,0,0,373.69,689.37Zm-147-20.71v-.06h-.58a7.79,7.79,0,1,1,.58.06Zm58,0a10.49,10.49,0,0,1-10.35-10.35,10.36,10.36,0,0,1,1.87-5.94l8.48-12.11,8.48,12.11a10.28,10.28,0,0,1,1.87,5.94A10.49,10.49,0,0,1,284.66,668.66Z"/><line class="cls-11" x1="59.59" y1="416.04" x2="59.59" y2="670.58"/><circle class="cls-10" cx="78.52" cy="543.31" r="18.93"/><line class="cls-11" x1="588.41" y1="416.04" x2="588.41" y2="670.58"/><circle class="cls-10" cx="569.48" cy="543.31" r="18.93"/></g></g></svg>