<svg xmlns="http://www.w3.org/2000/svg" viewBox="0 0 648 648"><defs><style>.cls-1{fill:#ff5c35;}</style></defs><g id="Graphic"><path d="M535.7,603.15H112.3V179.75H535.7Zm-422.38-1H534.68V180.77H113.32Z"/><path d="M318.94,393.88H123.43V198.37H318.94Zm-194.49-1H317.92V199.39H124.45Z"/><path d="M524.57,393.88H329.06V198.37H524.57Zm-194.49-1H523.55V199.39H330.08Z"/></g><g id="Isolation_Mode" data-name="Isolation Mode"><path d="M344.76,517.3l-6.63-12.47-3.46.84-.24,14.11a1.53,1.53,0,0,0,1.5,1.56h0a1.53,1.53,0,0,0,1.53-1.51l0-1.19,4-1,.56,1.05a1.53,1.53,0,1,0,2.7-1.43Zm-7.19-1.82.08-5,2.36,4.43Z"/><path d="M363,508.64l-7.05-12.15L353.28,498l1.52,8.76L348,501.1l-2.65,1.54,7,12.15a1.53,1.53,0,1,0,2.65-1.54l-2.59-4.46,3.61,3,2.5-1.45-.8-4.62,2.59,4.47a1.53,1.53,0,1,0,2.65-1.54Z"/><path d="M325.53,519h-4.59V506.72h-3.07V522h7.66a1.53,1.53,0,1,0,0-3.06Z"/><path d="M305.71,503.5l-7.63,11.87a1.53,1.53,0,1,0,2.57,1.66l.65-1,3.89,1.28-.08,1.19a1.55,1.55,0,0,0,1.43,1.63h.11a1.52,1.52,0,0,0,1.52-1.43l.92-14.09Zm-2.7,9.87,2.71-4.23-.32,5Z"/><path d="M287.69,511.08a4.28,4.28,0,0,1-2.45-.77,4.35,4.35,0,0,1-1.12-6,1.54,1.54,0,0,1,2.53,1.74,1.28,1.28,0,1,0,2.1,1.45l.44-.63a1.29,1.29,0,0,0-.33-1.78,4.26,4.26,0,0,1-1.81-2.78,4.33,4.33,0,0,1,.7-3.26l.43-.63a4.34,4.34,0,1,1,7.15,4.93,1.53,1.53,0,1,1-2.52-1.74,1.28,1.28,0,0,0-2.1-1.45l-.44.63a1.31,1.31,0,0,0-.2,1,1.24,1.24,0,0,0,.53.82,4.35,4.35,0,0,1,1.11,6l-.44.63A4.34,4.34,0,0,1,287.69,511.08Z"/><circle cx="379.17" cy="492.42" r="4.09"/><path d="M382.23,457.68V471a3.07,3.07,0,1,1-6.13,0V441.34H365.88V471a13.28,13.28,0,1,0,26.56,0V457.68Z"/><path d="M351.58,471a3.07,3.07,0,1,1-6.13,0V457.68H335.24V471a3.07,3.07,0,1,1-6.13,0V457.68H318.89v5.84a15.35,15.35,0,0,0-1.75-3.39h0l-6.31-9,4.84-6.93-8.36-5.85-2.72,3.87-4.72-6.73-8.37,5.86,6.85,9.78-6.31,9h0a15.05,15.05,0,0,0-2.39,5.57,14.3,14.3,0,1,0-26.71,10.09,14.31,14.31,0,0,0-7.39,12.51v4.12h10.22V488.3a4.09,4.09,0,0,1,4.08-4.09h5.54c.2,0,.39,0,.59,0a14.31,14.31,0,0,0,13.91-11,15.31,15.31,0,0,0,29.27.42,13.27,13.27,0,0,0,21.19,7.77A13.26,13.26,0,0,0,361.8,471V457.68H351.58ZM276,474v0h-.29a3.85,3.85,0,1,1,.29,0Zm28.61,0a5.18,5.18,0,0,1-5.11-5.11,5.05,5.05,0,0,1,.93-2.93h0l4.18-6,4.18,6h0a5.05,5.05,0,0,1,.93,2.93A5.18,5.18,0,0,1,304.59,474Z"/><rect class="cls-1" x="81.33" y="45.36" width="485.34" height="142.39"/><path d="M560.2,51.83V181.28H87.8V51.83H560.2m6.47-6.47H81.33V187.75H566.67V45.36Z"/><rect x="75.26" y="581.77" width="497.48" height="20.87"/><rect y="602.36" width="648" height="0.56"/><path d="M246.44,110.77a7.59,7.59,0,0,1-2-5.35,15.54,15.54,0,0,1,2.14-7.91,18.72,18.72,0,0,1,5.49-6.09,2.52,2.52,0,0,1,1.47-.49,1.59,1.59,0,0,1,1.16.45,1.51,1.51,0,0,1,.45,1.09,2.42,2.42,0,0,1-.84,1.68,12.65,12.65,0,0,0-2.8,3.64,8.09,8.09,0,0,0-1,3.57h.91a5.53,5.53,0,0,1,4,1.64,5.43,5.43,0,0,1,1.68,4,5.55,5.55,0,0,1-1.68,4,5.38,5.38,0,0,1-4,1.72A6.13,6.13,0,0,1,246.44,110.77Zm.28,16.1a6.39,6.39,0,0,1-1.75-4.58,6,6,0,0,1,1.75-4.41,6.06,6.06,0,0,1,4.48-1.75,6.15,6.15,0,0,1,4.48,1.78,5.91,5.91,0,0,1,1.82,4.38,6.28,6.28,0,0,1-1.82,4.58,6,6,0,0,1-4.48,1.86A5.88,5.88,0,0,1,246.72,126.87Z"/><path d="M269.89,158.69a1.4,1.4,0,0,1-.91.35,1,1,0,0,1-.81-.42,2.38,2.38,0,0,1-.38-1.26q-.77-9.74-3.5-35.84a8.27,8.27,0,0,1,1.29-4.94,13.91,13.91,0,0,1,3.92-4.27,8.21,8.21,0,0,1,4.73-1.71,4.73,4.73,0,0,1,2.66.77q5.6-10.78,12.32-10.78a7,7,0,0,1,1.68.14,9.46,9.46,0,0,1,6.89,4.72,18.24,18.24,0,0,1,2.14,9.07,23.78,23.78,0,0,1-.28,3.92q-1.33,9.16-6.72,10.29a12.25,12.25,0,0,1-2.38.21,22.73,22.73,0,0,1-8.86-2.14,42.91,42.91,0,0,1-10.11-6.4,230.47,230.47,0,0,1,2,24.08,30.43,30.43,0,0,1-.28,4.76,69.72,69.72,0,0,1-2.66,8.47A2.74,2.74,0,0,1,269.89,158.69Zm24.67-44.24a9,9,0,0,0-3-3,8,8,0,0,0-4.37-1.22,7.48,7.48,0,0,0-3.64.91,6.07,6.07,0,0,0-2.59,2.73,24,24,0,0,0,6.16,3.08,20.33,20.33,0,0,0,6.51,1.33,6.53,6.53,0,0,0,2.1-.28A7.43,7.43,0,0,0,294.56,114.45Z"/><path d="M346.82,116.13V128h-.56q-7.08,0-10.08-6.65a30.48,30.48,0,0,1-6.44,6.44,34.06,34.06,0,0,1-7.7,4.34,19.52,19.52,0,0,1-6.93,1.54c-.8,0-2.32-1-4.59-3a32.14,32.14,0,0,1-4.86-5.11,1,1,0,0,1-.28-.77c0-.7.56-1.08,1.68-1.12A50.48,50.48,0,0,0,323,121a21.66,21.66,0,0,0-3.12-7.67,48.93,48.93,0,0,0-5.7-7.31q-3.3-3.51-8.68-8.68l4.76-9.59c.37-.8.81-1.19,1.33-1.19s.93.35,1.4,1q6,9.93,9.1,16a39.55,39.55,0,0,1,4,11.76,12.23,12.23,0,0,1,.14,2.24c0,.88,0,1.54-.07,2a15.48,15.48,0,0,0,5.81-5.18,11.57,11.57,0,0,0,1.61-7.56c-.42-4.53-.8-8-1.12-10.36s-.91-6.33-1.75-11.83l8.54-6.51a2,2,0,0,1,1.26-.56,1,1,0,0,1,.87.42,2.09,2.09,0,0,1,.32,1.26q0,7.49-1.12,27.37c0,.6-.07,1.42-.07,2.45,0,2.56.4,4.4,1.19,5.49s2.38,1.65,4.76,1.65Z"/><path d="M392.84,105.59a37.17,37.17,0,0,1,1,8.44,19.89,19.89,0,0,1-.35,4.06,15.73,15.73,0,0,1-3.43,6.89,9.21,9.21,0,0,1-7.42,3h-.28a7.91,7.91,0,0,1-4.83-1.61,8.48,8.48,0,0,1-3-5,8.74,8.74,0,0,1-3.36,5,8.39,8.39,0,0,1-4.69,1.61h-.14q-7.71,0-9.45-6.58a9.6,9.6,0,0,1-4.2,4.86,11.52,11.52,0,0,1-5.88,1.72h-.56v-11.9h.56a14,14,0,0,0,5.7-.95,7.22,7.22,0,0,0,3.15-2.59,20.88,20.88,0,0,0,2.14-4.72,2.54,2.54,0,0,1,.8-1.19,1.82,1.82,0,0,1,1.16-.42,1.67,1.67,0,0,1,1.22.52,1.86,1.86,0,0,1,.53,1.37,2.37,2.37,0,0,1-.07.63,10.46,10.46,0,0,0-.28,2.45c0,3.26,1.77,4.9,5.32,4.9a6.55,6.55,0,0,0,3.6-.81,4.72,4.72,0,0,0,1.82-2.38,31.56,31.56,0,0,0,1.23-4.72,2.64,2.64,0,0,1,.73-1.4,1.66,1.66,0,0,1,1.16-.49,1.71,1.71,0,0,1,1.33.66,2.26,2.26,0,0,1,.49,1.65,13.93,13.93,0,0,0-.07,1.68q0,5.81,5.67,5.81h.21a14.62,14.62,0,0,0,3.81-.49,3.87,3.87,0,0,0,2.42-1.54,63.7,63.7,0,0,0-5.46-8.33l5.18-6.09a1.65,1.65,0,0,1,1.19-.77c.28,0,.6.25,1,.77A19.3,19.3,0,0,1,392.84,105.59Z"/></g></svg>