<svg xmlns="http://www.w3.org/2000/svg" viewBox="0 0 1152 648"><defs><style>.cls-1{fill:#ff5c35;}</style></defs><g id="Graphic"><path class="cls-1" d="M608.71,160.25c-1.49-2.57-5.43-2.71-7.38.86a10,10,0,0,1-3.18,3.73L596.43,162l3.32-1.86-11-26.49a14.75,14.75,0,0,0,1.63-1.53c2.61-2.85,5.44-8,4.06-16.32-.48-2.52-.77-4.77.46-6.74,2.22-3.55,1.14-6.22-.46-7.43-2.91-2.2-6.24-.5-8.11,1.41l-.76-10.86a7.61,7.61,0,0,0-2.26-5.2,4.76,4.76,0,0,0-3.55-1.15,4.7,4.7,0,0,0-2.2.71l0-.44a7.61,7.61,0,0,0-2.35-5.23,4.66,4.66,0,0,0-3.49-1.11c-2.66.25-4.43,2.76-4.84,5.42a4.7,4.7,0,0,0-2.42-.4c-3.53.34-5.15,3.83-4.91,7.1l.36,5.15a3.89,3.89,0,0,0-1.7-.19c-2.93.32-4.64,3-4.37,6.91L555,120h0l0,.32a.3.3,0,0,1,0,.1c.65,7.77,3.88,12.26,6.86,14.79.19,2.4.19,11.67-10.29,16l-1.34.51-9.48,2.9,2.87,9.62,2.77-.34a11.49,11.49,0,0,0-.45,8.39c.95,3.33,3.86,3.72,5.5,2.91,2.15-1.06,3.31-3.31,1.29-6.45-2.35-3.65-1.37-5.06-.72-5.55l.2,0,.83,2.64,1.1.07c.75,0,1.49.06,2.19.06,14.91,0,18.75-9.75,18.91-10.19a1.6,1.6,0,0,0-3-1.12c0,.09-3.33,8.45-16.83,8.1l-2.69-8.55h0c10.06-4.14,12-12.33,12.29-16.84a12,12,0,0,0,2.18.88,2,2,0,0,0,.34,0,1.6,1.6,0,0,0,.34-3.16c-.09,0-8.83-2.51-9.74-15.32L557,103.48c0-.34-.18-3.32,1.53-3.52a.75.75,0,0,1,.59.21,4.72,4.72,0,0,1,1.2,3.07l0,.58.66,9.26a1.6,1.6,0,1,0,3.19-.22l-.58-8.13h0l-.08-1.13,0-.58h0l-.8-11.42c-.1-1.39.36-3.53,2-3.68a1.41,1.41,0,0,1,1.14.34,4.57,4.57,0,0,1,1.22,3v0l1.09,15.4a1.6,1.6,0,0,0,1.59,1.49h.12a1.59,1.59,0,0,0,1.48-1.7L570,86.59c-.12-1.73.9-3.59,2-3.69a1.44,1.44,0,0,1,1.13.35,4.57,4.57,0,0,1,1.23,3l1.41,19.91A1.6,1.6,0,1,0,579,106L578,92.71s0,0,0,0c-.1-1.36.35-3.57,2-3.69a1.61,1.61,0,0,1,1.22.38,4.55,4.55,0,0,1,1.17,3l1.68,23.9,0,.17s0,.08,0,.12a1,1,0,0,0,.07.18.36.36,0,0,0,0,.11.75.75,0,0,0,.09.15,1.48,1.48,0,0,0,.45.48l0,0,.19.1.08,0,.17.05.13,0,.15,0h.25l.14,0,.16,0,.15-.06.14,0,.14-.09.12-.08a1.27,1.27,0,0,0,.12-.1l.11-.1.09-.13.09-.12s0-.1.07-.14l.06-.14a.94.94,0,0,0,0-.16.74.74,0,0,0,0-.14,1.09,1.09,0,0,0,0-.18s0-.08,0-.13c0-.65-.14-2.1-.22-3.15L587,112c-.2-2.78.24-5,1.26-6.3.48-.64,2.64-2.78,4.29-1.54.7.53.58,1.72-.33,3.18-2,3.18-1.33,6.7-.9,9,1.16,7-1.14,11.27-3.27,13.61a12.67,12.67,0,0,1-2,1.74,1.5,1.5,0,0,0-.33.23,10.5,10.5,0,0,1-6.27,1.93,1.6,1.6,0,0,0-.24,3.19c.25,0,.49,0,.74,0a13.28,13.28,0,0,0,6.09-1.64l7.08,17.13c-.29.6-1.21,2-3.8,2.48a1.6,1.6,0,0,0,.31,3.17,1.22,1.22,0,0,0,.32,0,9,9,0,0,0,4.57-2.24l1.15,2.79-.92.51h0L587.91,163,572.53,142.5a1.6,1.6,0,0,0-2.56,1.92l17,22.77h0l6.24,8.34,8.46-4.71-1.16-1.95a14.62,14.62,0,0,0,5.67-2.21C609.47,164.46,609.5,161.64,608.71,160.25Z"/><path class="cls-1" d="M568.18,152.16a1.9,1.9,0,0,1-1.55,2,1.6,1.6,0,0,0,.28,3.17,1.51,1.51,0,0,0,.3,0,5.13,5.13,0,0,0,4.17-5.17,1.6,1.6,0,1,0-3.2.06Z"/><path class="cls-1" d="M569.22,112.52c-.84.23-1.34,1.44-1.12,2.7s1.1,2.1,1.94,1.88,1.34-1.44,1.12-2.7S570.07,112.29,569.22,112.52Z"/><path class="cls-1" d="M580.54,117.1c.84-.23,1.34-1.44,1.12-2.7s-1.09-2.11-1.94-1.88-1.34,1.44-1.12,2.7S579.7,117.32,580.54,117.1Z"/><path class="cls-1" d="M571.4,124.2a1.59,1.59,0,0,0,1.59,1.44h.16l5.33-.53-1.84-8.25a1.6,1.6,0,1,0-3.12.7l1.05,4.72-1.74.17A1.6,1.6,0,0,0,571.4,124.2Z"/><path class="cls-1" d="M570.33,129.36a1.6,1.6,0,0,0,.57,2.19,8.42,8.42,0,0,0,4.29,1.17,8.72,8.72,0,0,0,2.14-.27,8.45,8.45,0,0,0,5.18-3.91,1.6,1.6,0,1,0-2.75-1.63,5.29,5.29,0,0,1-7.24,1.88A1.6,1.6,0,0,0,570.33,129.36Z"/><path class="cls-1" d="M592.25,247.78,587.06,238l-2.71.65-.19,11a1.2,1.2,0,0,0,1.18,1.22h0a1.2,1.2,0,0,0,1.2-1.17l0-.93,3.12-.75.43.82a1.2,1.2,0,0,0,2.12-1.13Zm-5.63-1.42.07-3.93,1.84,3.47Z"/><path class="cls-1" d="M606.5,241,601,231.5l-2.07,1.2,1.19,6.85-5.35-4.44-2.07,1.2,5.51,9.51a1.2,1.2,0,1,0,2.07-1.2l-2-3.5,2.82,2.34,2-1.13-.63-3.61,2,3.49a1.2,1.2,0,1,0,2.07-1.2Z"/><path class="cls-1" d="M577.2,249.1h-3.6v-9.6h-2.4v12h6a1.2,1.2,0,1,0,0-2.4Z"/><path class="cls-1" d="M561.68,237l-6,9.3a1.2,1.2,0,0,0,2,1.29l.5-.78,3,1-.06.93a1.21,1.21,0,0,0,1.12,1.28h.08a1.2,1.2,0,0,0,1.19-1.12l.72-11Zm-2.11,7.73,2.12-3.31-.25,3.92Z"/><path class="cls-1" d="M547.58,242.91a3.39,3.39,0,0,1-2.79-5.32,1.2,1.2,0,1,1,2,1.36,1,1,0,0,0,1.65,1.13l.34-.49a1,1,0,0,0-.26-1.39,3.37,3.37,0,0,1-1.41-2.18,3.43,3.43,0,0,1,.54-2.55L548,233a3.41,3.41,0,0,1,4.73-.87,3.41,3.41,0,0,1,.87,4.73,1.2,1.2,0,0,1-2-1.36,1,1,0,0,0,.16-.75,1,1,0,0,0-.42-.64.92.92,0,0,0-.75-.16,1,1,0,0,0-.64.41l-.34.49a1,1,0,0,0-.16.75,1,1,0,0,0,.41.64,3.4,3.4,0,0,1,.87,4.73l-.34.5A3.39,3.39,0,0,1,547.58,242.91Z"/><circle class="cls-1" cx="619.18" cy="228.31" r="3.2"/><path class="cls-1" d="M621.58,201.12v10.39a2.4,2.4,0,1,1-4.8,0V188.32h-8v23.19a10.4,10.4,0,1,0,20.79,0V201.12Z"/><path class="cls-1" d="M597.59,211.51a2.4,2.4,0,1,1-4.8,0V201.12h-8v10.39a2.4,2.4,0,1,1-4.8,0V201.12h-8v4.57a12,12,0,0,0-1.37-2.66h0L565.69,196l3.79-5.42L562.93,186l-2.12,3-3.7-5.27-6.55,4.59,5.37,7.65L551,203h0a11.85,11.85,0,0,0-1.87,4.37,11.2,11.2,0,0,0-21.89,3.32,11.09,11.09,0,0,0,1,4.57,11.19,11.19,0,0,0-5.79,9.8v3.22h8v-3.22a3.2,3.2,0,0,1,3.2-3.2H538l.47,0a11.2,11.2,0,0,0,10.88-8.63,12,12,0,0,0,22.91.33,10.42,10.42,0,0,0,10.19,8.3,10.28,10.28,0,0,0,6.39-2.22,10.38,10.38,0,0,0,16.8-8.18V201.12h-8Zm-59.17,2.4v0h-.24a3.06,3.06,0,1,1,.24,0Zm22.39,0a4,4,0,0,1-3.28-6.29h0l3.28-4.68,3.27,4.68h0a4,4,0,0,1-3.27,6.29Z"/><path d="M953.18,603.14H198.82V44.86H953.18Zm-753.36-1H952.18V45.86H199.82Z"/><path d="M662.78,603.14H489.22V429.57H662.78Zm-172.56-1H661.78V430.57H490.22Z"/><path d="M662.78,603.14H489.22V589.08H662.78Zm-172.56-1H661.78V590.08H490.22Z"/><path d="M662.78,590.08H489.22V576H662.78Zm-172.56-1H661.78V577H490.22Z"/><path d="M662.78,577H489.22V563H662.78Zm-172.56-1H661.78V564H490.22Z"/><path d="M630.14,564H521.86V429.57H630.14Zm-107.28-1H629.14V430.57H522.86Z"/><rect x="575.5" y="430.07" width="1" height="133.38"/><path d="M953.18,544.88H661.78V429.57h291.4Zm-290.4-1h289.4V430.57H662.78Z"/><path d="M933,536.93H682v-99.4H933Zm-250-1H932v-97.4H683Z"/><rect x="806.98" y="438.03" width="1" height="98.4"/><path d="M490.22,544.88H198.82V429.57h291.4Zm-290.4-1h289.4V430.57H199.82Z"/><path d="M470,536.93H219v-99.4H470Zm-250-1H469v-97.4H220Z"/><rect x="344.02" y="438.03" width="1" height="98.4"/><path d="M953.18,398.44H661.78V283.13h291.4Zm-290.4-1h289.4V284.13H662.78Z"/><path d="M933,390.48H682V291.09H933Zm-250-1H932V292.09H683Z"/><rect x="806.98" y="291.59" width="1" height="98.4"/><path d="M490.22,398.44H198.82V283.13h291.4Zm-290.4-1h289.4V284.13H199.82Z"/><path d="M470,390.48H219V291.09H470Zm-250-1H469V292.09H220Z"/><rect x="344.02" y="291.59" width="1" height="98.4"/><path d="M953.18,252H661.78V136.69h291.4Zm-290.4-1h289.4V137.69H662.78Z"/><path d="M933,244H682v-99.4H933Zm-250-1H932v-97.4H683Z"/><rect x="806.98" y="145.14" width="1" height="98.4"/><path d="M490.22,252H198.82V136.69h291.4Zm-290.4-1h289.4V137.69H199.82Z"/><path d="M470,244H219v-99.4H470Zm-250-1H469v-97.4H220Z"/><rect x="344.02" y="145.14" width="1" height="98.4"/><rect x="582.32" y="489.83" width="3.96" height="13.87"/><rect x="565.72" y="489.83" width="3.96" height="13.87"/><path d="M630.14,398.44H521.86V283.13H630.14Zm-107.28-1H629.14V284.13H522.86Z"/><rect x="575.5" y="283.63" width="1" height="114.31"/></g></svg>