<svg xmlns="http://www.w3.org/2000/svg" viewBox="0 0 648 648"><defs><style>.cls-1{fill:#ff5c35;}</style></defs><g id="Graphic"><path d="M444,364a20,20,0,0,1-20-20,40,40,0,0,0-40-40,80.09,80.09,0,0,1-80-80,20,20,0,0,1,40,0,40,40,0,0,0,40,40,80.09,80.09,0,0,1,80,80A20,20,0,0,1,444,364Z"/><path d="M384,244a20,20,0,0,1-20-20,40,40,0,0,0-40-40,20,20,0,0,1,0-40,80.09,80.09,0,0,1,80,80A20,20,0,0,1,384,244Z"/><path d="M384,424H204a20,20,0,0,1,0-40H384a20,20,0,0,1,0,40Z"/><circle cx="444" cy="404" r="20"/><rect x="384" y="384" width="20" height="40"/><rect x="424" y="384" width="20" height="40"/><path class="cls-1" d="M324,564a240,240,0,1,1,169.71-70.29A238.43,238.43,0,0,1,324,564Zm0-440c-110.28,0-200,89.72-200,200s89.72,200,200,200,200-89.72,200-200S434.28,124,324,124Z"/><path class="cls-1" d="M168.46,499.54a20,20,0,0,1-14.14-34.14L465.4,154.32a20,20,0,0,1,28.28,28.28L182.6,493.68A19.9,19.9,0,0,1,168.46,499.54Z"/></g></svg>