<svg xmlns="http://www.w3.org/2000/svg" viewBox="0 0 648 648"><defs><style>.cls-1{fill:#ff5c35;}.cls-2{fill:#fff;}</style></defs><g id="Isolation_Mode" data-name="Isolation Mode"><rect y="602.14" width="648" height="1"/><rect x="315.41" y="187.75" width="17.17" height="414.89"/><rect x="245.52" y="45.36" width="156.97" height="261.05"/><path class="cls-1" d="M397.5,50.34v251.1h-147V50.34h147m5-5h-157V306.41h157v-261Z"/><circle class="cls-2" cx="324" cy="118.7" r="44.35"/><path d="M332.06,126.76H307.87V94.5h24.19a16.13,16.13,0,0,1,0,32.26Zm-16.12-8.06h16.12a8.07,8.07,0,1,0,0-16.13H315.94Z"/><path d="M311.9,146.92a4,4,0,0,1-4-4V102.57a4,4,0,0,1,8.07,0v40.32A4,4,0,0,1,311.9,146.92Z"/><path class="cls-2" d="M283.05,193.2V178.94h5.08a5.58,5.58,0,0,1,2.76.61,4,4,0,0,1,1.64,1.65,5.09,5.09,0,0,1,.54,2.36,5,5,0,0,1-.55,2.36,4,4,0,0,1-1.64,1.66,5.58,5.58,0,0,1-2.76.61h-3.49v-1.83h3.3a3.56,3.56,0,0,0,1.71-.36,2.37,2.37,0,0,0,1-1,3.61,3.61,0,0,0,0-2.88,2.29,2.29,0,0,0-1-1,3.59,3.59,0,0,0-1.73-.35h-2.7V193.2Z"/><path class="cls-2" d="M295.27,193.2H293l5.13-14.26h2.48l5.14,14.26h-2.29l-4-11.67h-.11Zm.38-5.58h7.41v1.81h-7.41Z"/><path class="cls-2" d="M307.79,193.2V178.94h5.08a6,6,0,0,1,2.76.57,3.8,3.8,0,0,1,1.64,1.58,4.82,4.82,0,0,1,.54,2.32,4.63,4.63,0,0,1-.55,2.3,3.74,3.74,0,0,1-1.64,1.55,6.2,6.2,0,0,1-2.75.55H309V186h3.65a4.08,4.08,0,0,0,1.7-.3,2,2,0,0,0,1-.87,2.89,2.89,0,0,0,.31-1.37,3.07,3.07,0,0,0-.31-1.4,2.1,2.1,0,0,0-1-.91,4.06,4.06,0,0,0-1.73-.31h-2.7V193.2Zm7-6.43,3.52,6.43H315.9l-3.45-6.43Z"/><path class="cls-2" d="M320.44,193.2V178.94h2.15v6.81h.17l6-6.81h2.71l-5.75,6.42,5.77,7.84h-2.59l-4.61-6.37-1.68,1.94v4.43Z"/><path class="cls-2" d="M335.62,178.94V193.2h-2.15V178.94Z"/><path class="cls-2" d="M350.26,178.94V193.2h-2L341,182.74h-.14V193.2h-2.15V178.94h2L348,189.41h.13V178.94Z"/><path class="cls-2" d="M363.05,183.45a4.62,4.62,0,0,0-.54-1.14,3.7,3.7,0,0,0-.8-.87,3.59,3.59,0,0,0-1.07-.54,4.13,4.13,0,0,0-1.3-.19,4,4,0,0,0-2.18.62,4.21,4.21,0,0,0-1.52,1.81,7.95,7.95,0,0,0,0,5.86,4.14,4.14,0,0,0,1.55,1.81,4,4,0,0,0,2.23.62,4.11,4.11,0,0,0,2-.47,3.35,3.35,0,0,0,1.35-1.34,4.27,4.27,0,0,0,.47-2l.56.1h-4.08V185.9h5.6v1.63a6.08,6.08,0,0,1-.76,3.11,5.28,5.28,0,0,1-2.1,2,6.9,6.9,0,0,1-6.46-.17,6.09,6.09,0,0,1-2.28-2.53,8.76,8.76,0,0,1-.81-3.9,9.47,9.47,0,0,1,.47-3.07,6.75,6.75,0,0,1,1.33-2.3,5.85,5.85,0,0,1,2-1.46,6.31,6.31,0,0,1,2.55-.5,6.61,6.61,0,0,1,2.16.34,5.76,5.76,0,0,1,1.78,1,5.51,5.51,0,0,1,2,3.4Z"/><path class="cls-1" d="M332.67,279.74l-2.77-5.21-1.44.35-.11,5.9a.65.65,0,0,0,.63.65h0a.64.64,0,0,0,.64-.63v-.5l1.67-.4.23.44a.64.64,0,0,0,.87.26A.63.63,0,0,0,332.67,279.74Zm-3-.76,0-2.1,1,1.85Z"/><path class="cls-1" d="M340.28,276.13l-2.95-5.08-1.1.64.64,3.66L334,273l-1.11.65,3,5.07a.63.63,0,0,0,.55.32.72.72,0,0,0,.32-.08.64.64,0,0,0,.23-.88l-1.08-1.86,1.51,1.25,1-.61-.33-1.93,1.08,1.87a.64.64,0,0,0,1.11-.64Z"/><path class="cls-1" d="M324.64,280.44h-1.92v-5.12h-1.28v6.4h3.2a.64.64,0,0,0,.64-.64A.64.64,0,0,0,324.64,280.44Z"/><path class="cls-1" d="M316.36,274l-3.19,5a.64.64,0,0,0,1.08.69l.27-.42,1.62.54,0,.49a.65.65,0,0,0,.6.68h0a.64.64,0,0,0,.64-.6l.38-5.88Zm-1.13,4.12,1.14-1.77-.14,2.1Z"/><path class="cls-1" d="M308.83,277.14a1.76,1.76,0,0,1-1-.32,1.82,1.82,0,0,1-.47-2.52.64.64,0,0,1,.89-.16.63.63,0,0,1,.17.89.53.53,0,0,0,.13.74.54.54,0,0,0,.75-.14l.18-.26a.54.54,0,0,0-.14-.74,1.83,1.83,0,0,1-.46-2.53l.18-.26a1.81,1.81,0,0,1,2.52-.46,1.78,1.78,0,0,1,.76,1.16,1.86,1.86,0,0,1-.29,1.36.64.64,0,0,1-.89.16.63.63,0,0,1-.17-.89.56.56,0,0,0,.09-.4.57.57,0,0,0-.22-.34.52.52,0,0,0-.4-.08.51.51,0,0,0-.35.22l-.18.26a.52.52,0,0,0-.08.4.49.49,0,0,0,.22.34,1.81,1.81,0,0,1,.46,2.52l-.18.27A1.81,1.81,0,0,1,308.83,277.14Z"/><circle class="cls-1" cx="347.04" cy="269.35" r="1.71"/><path class="cls-1" d="M348.32,254.84v5.55a1.28,1.28,0,1,1-2.56,0V248H341.5v12.38a5.55,5.55,0,0,0,11.09,0v-5.55Z"/><path class="cls-1" d="M335.52,260.39a1.28,1.28,0,1,1-2.56,0v-5.55h-4.27v5.55a1.28,1.28,0,1,1-2.56,0v-5.55h-4.26v2.44a6.36,6.36,0,0,0-.73-1.42h0l-2.63-3.77,2-2.89L317,246.75l-1.14,1.62-2-2.81L310.43,248l2.86,4.08-2.64,3.77h0a6.34,6.34,0,0,0-1,2.33A6,6,0,0,0,298,260a5.88,5.88,0,0,0,.53,2.44,6,6,0,0,0-3.09,5.23v1.72h4.27v-1.72a1.71,1.71,0,0,1,1.7-1.71h2.56a6,6,0,0,0,5.81-4.6,6.4,6.4,0,0,0,12.23.17,5.54,5.54,0,0,0,8.85,3.25,5.48,5.48,0,0,0,3.41,1.18,5.55,5.55,0,0,0,5.55-5.54v-5.55h-4.27Zm-31.58,1.28v0h-.12a1.7,1.7,0,0,1,.12-3.4,1.71,1.71,0,1,1,0,3.42Zm11.95,0a2.17,2.17,0,0,1-2.13-2.14,2.12,2.12,0,0,1,.38-1.22h0l1.75-2.5,1.75,2.5h0a2.13,2.13,0,0,1,.39,1.22A2.17,2.17,0,0,1,315.89,261.67Z"/></g></svg>