<svg xmlns="http://www.w3.org/2000/svg" viewBox="0 0 1152 648"><defs><style>.cls-1{fill:#ff5c35;}.cls-2{fill:none;}.cls-3{fill:#b7b7b7;}</style></defs><g id="Graphic"><rect class="cls-1" x="332.42" y="148.45" width="710.32" height="454.19"/><path d="M1028.77,162.42V588.67H346.39V162.42h682.38m14-14H332.42V602.64h710.32V148.45Z"/><rect x="289.65" y="569.25" width="795.86" height="33.39"/><path d="M737.57,352.69c-2.27-3.92-8.3-4.14-11.27,1.31a15.36,15.36,0,0,1-4.86,5.71l-2.64-4.43,5.08-2.83L707.13,312a23.75,23.75,0,0,0,2.49-2.32c4-4.37,8.31-12.23,6.2-25-.73-3.85-1.17-7.29.71-10.3,3.4-5.43,1.75-9.51-.7-11.35-4.46-3.36-9.55-.77-12.39,2.16l-1.18-16.62a11.49,11.49,0,0,0-3.45-7.93,7.3,7.3,0,0,0-5.43-1.76A7.45,7.45,0,0,0,690,240l0-.67a11.66,11.66,0,0,0-3.6-8,7,7,0,0,0-5.33-1.69c-4.07.38-6.78,4.21-7.4,8.29a7.14,7.14,0,0,0-3.7-.62c-5.4.52-7.86,5.85-7.51,10.85L663,256a5.85,5.85,0,0,0-2.6-.3c-4.47.5-7.09,4.65-6.68,10.57l1.76,24.87h0l0,.49,0,.14c1,11.88,5.93,18.75,10.48,22.62.29,3.66.3,17.84-15.73,24.44l-2,.77L633.75,344l4.39,14.7,4.23-.52c-1.3,2.69-2.37,7-.7,12.83,1.46,5.09,5.91,5.68,8.41,4.45,3.3-1.63,5.07-5.07,2-9.86-3.59-5.58-2.09-7.74-1.1-8.48l.3,0,1.27,4,1.68.11c1.16.07,2.28.1,3.36.1,22.78,0,28.64-14.91,28.89-15.57a2.44,2.44,0,1,0-4.57-1.72c0,.13-5.09,12.92-25.72,12.38l-4.12-13.06h0c15.38-6.33,18.37-18.84,18.79-25.75a17.08,17.08,0,0,0,3.32,1.35,2.44,2.44,0,1,0,1.05-4.77c-.13,0-13.5-3.84-14.88-23.42l-1.76-24.88c0-.52-.28-5.07,2.34-5.36a1.1,1.1,0,0,1,.9.3c.94.78,1.69,2.72,1.83,4.7l.06.89,1,14.16a2.45,2.45,0,0,0,4.88-.34l-.88-12.44h0l-.12-1.72-.06-.89h0l-1.23-17.44c-.15-2.13.55-5.4,3.09-5.64a2.22,2.22,0,0,1,1.74.53A7,7,0,0,1,674,247.3s0,0,0,0l1.66,23.54a2.44,2.44,0,0,0,2.43,2.28h.18a2.45,2.45,0,0,0,2.27-2.61L678.4,240.1c-.19-2.64,1.37-5.48,3.09-5.64a2.21,2.21,0,0,1,1.72.54,7,7,0,0,1,1.88,4.63l2.15,30.43a2.45,2.45,0,0,0,4.88-.35l-1.43-20.25v-.08c-.15-2.08.55-5.45,3-5.63a2.47,2.47,0,0,1,1.88.57,7,7,0,0,1,1.78,4.59L700,285.44a2.38,2.38,0,0,0,0,.26,1.21,1.21,0,0,0,.13.46.85.85,0,0,0,.06.17c0,.08.09.15.14.23a2.41,2.41,0,0,0,.69.73s0,0,.07,0l.27.14.14.07.26.07.19.05.24,0,.2,0h.17l.22,0,.24,0,.23-.08a2,2,0,0,0,.22-.09l.21-.12.19-.12.18-.17c.05-.05.11-.09.16-.15s.1-.13.15-.19.09-.12.13-.19l.11-.22a1.76,1.76,0,0,0,.09-.2,2.33,2.33,0,0,0,.07-.25c0-.07,0-.14.05-.22a2.17,2.17,0,0,0,0-.26.67.67,0,0,0,0-.2c0-1-.2-3.21-.33-4.82l-.11-1.44c-.29-4.24.37-7.57,1.93-9.63.74-1,4-4.25,6.56-2.35,1.08.81.89,2.62-.51,4.85-3,4.87-2,10.24-1.38,13.75,1.78,10.73-1.73,17.23-5,20.8a19.59,19.59,0,0,1-3,2.66,2.49,2.49,0,0,0-.5.35,16.11,16.11,0,0,1-9.58,3,2.44,2.44,0,0,0-.37,4.87c.38,0,.75.05,1.13.05a20.36,20.36,0,0,0,9.31-2.51l10.82,26.18c-.44.92-1.86,3-5.82,3.79a2.44,2.44,0,0,0,.48,4.84,2.72,2.72,0,0,0,.49,0,13.85,13.85,0,0,0,7-3.42l1.76,4.25-1.41.78h0L705.78,357l-23.5-31.38a2.44,2.44,0,1,0-3.91,2.92l26.06,34.81h0L714,376.05l12.92-7.21-1.77-3a22.58,22.58,0,0,0,8.67-3.38C738.74,359.12,738.79,354.81,737.57,352.69Z"/><path d="M675.63,340.32a2.91,2.91,0,0,1-2.38,3,2.45,2.45,0,0,0,.44,4.85,2.28,2.28,0,0,0,.45,0,7.81,7.81,0,0,0,6.37-7.89,2.44,2.44,0,1,0-4.88.08Z"/><path d="M677.22,279.73c-1.29.35-2.05,2.2-1.71,4.13s1.67,3.22,3,2.87,2.06-2.19,1.71-4.13S678.51,279.39,677.22,279.73Z"/><path d="M694.52,286.73c1.29-.35,2.05-2.19,1.71-4.13s-1.67-3.21-3-2.87-2.06,2.2-1.71,4.13S693.23,287.08,694.52,286.73Z"/><path d="M680.54,297.59A2.46,2.46,0,0,0,683,299.8l.25,0,8.15-.8-2.81-12.61a2.44,2.44,0,1,0-4.77,1.07l1.61,7.22-2.66.26A2.45,2.45,0,0,0,680.54,297.59Z"/><path d="M678.91,305.47a2.46,2.46,0,0,0,.87,3.35,12.91,12.91,0,0,0,6.56,1.8,13,13,0,0,0,3.27-.42,12.91,12.91,0,0,0,7.93-6,2.45,2.45,0,0,0-4.22-2.48,8.05,8.05,0,0,1-11.06,2.86A2.46,2.46,0,0,0,678.91,305.47Z"/><path d="M712.42,486.47l-7.93-14.9-4.15,1-.29,16.88a1.83,1.83,0,0,0,1.8,1.87h0a1.84,1.84,0,0,0,1.83-1.8l0-1.42,4.77-1.15.67,1.26a1.84,1.84,0,0,0,3.24-1.73Zm-8.61-2.17.1-6,2.82,5.31Z"/><path d="M734.2,476.12l-8.43-14.54-3.17,1.84,1.83,10.47-8.18-6.79-3.17,1.84,8.43,14.54a1.85,1.85,0,0,0,1.59.91,1.76,1.76,0,0,0,.91-.25,1.82,1.82,0,0,0,.67-2.5l-3.1-5.34,4.32,3.58,3-1.74-1-5.52L731,478a1.83,1.83,0,1,0,3.17-1.84Z"/><path d="M689.41,488.49h-5.5V473.82h-3.66v18.33h9.16a1.83,1.83,0,1,0,0-3.66Z"/><path d="M665.69,470l-9.12,14.2a1.83,1.83,0,1,0,3.08,2l.77-1.2,4.66,1.53-.09,1.42a1.83,1.83,0,0,0,1.71,1.95h.12a1.83,1.83,0,0,0,1.82-1.72l1.1-16.85Zm-3.22,11.8,3.24-5-.39,6Z"/><path d="M644.14,479a5.2,5.2,0,0,1-4.27-8.15,1.84,1.84,0,0,1,3,2.09,1.53,1.53,0,0,0,2.52,1.73l.52-.75a1.54,1.54,0,0,0-.39-2.13,5.2,5.2,0,0,1-1.33-7.23l.52-.75a5.19,5.19,0,0,1,8.55,5.9,1.83,1.83,0,0,1-3-2.08,1.52,1.52,0,0,0-.39-2.13,1.48,1.48,0,0,0-1.14-.24,1.51,1.51,0,0,0-1,.63l-.52.76a1.51,1.51,0,0,0,.39,2.12A5.21,5.21,0,0,1,649,476l-.52.75A5.22,5.22,0,0,1,644.14,479Z"/><rect class="cls-2" x="605.69" y="376.04" width="163.78" height="97.78"/><circle cx="753.58" cy="456.71" r="4.89"/><path d="M757.25,415.15V431a3.67,3.67,0,1,1-7.34,0V395.6H737.69V431a15.89,15.89,0,0,0,31.78,0V415.15Z"/><path d="M720.58,431a3.67,3.67,0,1,1-7.33,0V415.15H701V431a3.67,3.67,0,1,1-7.33,0V415.15H681.47v7a18.41,18.41,0,0,0-2.1-4.06h0l-7.55-10.79,5.8-8.28-10-7-3.25,4.64-5.65-8.06-10,7,8.2,11.7-7.56,10.79h0a18.27,18.27,0,0,0-2.86,6.67,17.11,17.11,0,1,0-32,12.06,17.15,17.15,0,0,0-8.84,15v4.92h12.22v-4.92a4.9,4.9,0,0,1,4.89-4.89h6.63l.7,0a17.12,17.12,0,0,0,16.64-13.18,18.32,18.32,0,0,0,35,.49,15.87,15.87,0,0,0,25.35,9.3,15.73,15.73,0,0,0,9.77,3.39A15.91,15.91,0,0,0,732.8,431V415.15H720.58Zm-90.45,3.67v0h-.35a4.56,4.56,0,1,1,.35,0Zm34.23,0a6.12,6.12,0,0,1-5-9.62h0l5-7.15,5,7.15h0a6.07,6.07,0,0,1,1.11,3.51A6.19,6.19,0,0,1,664.36,434.71Z"/><rect class="cls-2" x="605.69" y="376.04" width="163.78" height="97.78"/><rect y="602.14" width="1152" height="1"/></g><g id="Isolation_Mode" data-name="Isolation Mode"><g id="_9o9qek" data-name="9o9qek"><path class="cls-3" d="M186.83,568.52c.29,1.45.58,2.65.76,3.86a28.72,28.72,0,0,0,4.83,12.54c1.54,2.2,2.34,4.92,3.82,7.19a8.33,8.33,0,0,1,.6,7.92,4.83,4.83,0,0,1-3.63,2.45c-8,.24-16,.14-24,.13a10.55,10.55,0,0,1-2.24-.27c-3-.62-3.46-1.44-2.77-4.39a2.43,2.43,0,0,0,.12-1.09,27.93,27.93,0,0,1-.88-2.92,24.86,24.86,0,0,1,0-3.51c-.86,0-1.64,0-2.43,0-4.37,0-8.74,0-13.11-.18s-6.26-1.89-7.15-6.07a26.44,26.44,0,0,1-.23-12c1-4.35,1.14-8.92,1.71-13.87a12,12,0,0,1-2.07,1.25,13.2,13.2,0,0,1-2.28.34c.13-.82,0-1.84.45-2.44a9.61,9.61,0,0,1,2.71-2.31c2-1.22,2-1.78.59-3.55a7.24,7.24,0,0,1-1.47-3c-1.74-8-3.39-15.94-5.07-23.91a3.57,3.57,0,0,0-.36-1.29c-4.21-6.08-5.51-13.31-8.06-20.06-4.26-11.24-7.28-22.81-10.41-34.38-3.34-12.35-3.36-24.9-2.75-37.5.11-2.23,0-4-2-5.55a7.39,7.39,0,0,1-3.1-6.72c1.89-16.61.92-33.33,2-49.94,1-14.65,1.09-29.4,3.6-43.94.44-2.58.23-5.27.48-7.89s-1-4.71-2.63-6.7a130.62,130.62,0,0,1-8-10.29c-1.94-2.83-3.81-5.55-7-7.2a4,4,0,0,1-1.5-2.06A20.27,20.27,0,0,1,94.23,287c-1.51-9-6.77-16.31-10.87-24.14a48.66,48.66,0,0,1-5.25-21.55c-.06-2.26-.14-4.53,0-6.79a4.16,4.16,0,0,1,.89-2.64c1.37-1.29,1.13-2.58.31-3.83-2.27-3.43-1.49-6.36.76-9.54a10.28,10.28,0,0,0,1.45-5.81c-.13-7.81,3.19-14.83,4.72-22.25,1.88-9.08,3.57-18.21,6-27.14,3.49-12.68,6.14-25.73,13.67-36.94,1.2-1.79,2.3-3.66,3.55-5.42,2.08-2.95,5.44-3.91,8.56-5.08a31.39,31.39,0,0,1,7.66-1.91c9.84-1,18.75-4.84,27.66-8.68a5.2,5.2,0,0,0,2.43-2.63c.93-2.37,1.32-5,2.29-7.32a7.12,7.12,0,0,1,2.81-3.43c1.26-.7,1.86-1.35,1.77-2.71-.33-5.41-.6-10.82-1.07-16.22A4.75,4.75,0,0,0,160,70.16c-5-4.33-5.54-10.11-5.34-16.12a4,4,0,0,1,.62-2.37c1.69-1.84,1-4,1.2-6.11.41-4.7.9-9.41,1.44-14.1.47-4.05,3.59-6.56,6.41-8.58,3.33-2.39,6.82-4.79,11-5.93a37.67,37.67,0,0,1,17.84-.39c3.5.73,6.89,2,10.32,3.07,5.47,1.71,7.63,4.7,7.77,10.41a4.44,4.44,0,0,0,1,2.55,11.24,11.24,0,0,1,2.26,11.59c-1.07,3.19-2.37,6.32-3.18,9.57-.75,3-.9,6.21-1.49,9.29s-1.27,6.32-2.13,9.41a112.06,112.06,0,0,1-3.52,11,54.28,54.28,0,0,1-4.14,8,4.53,4.53,0,0,0-.53,4.58,38.78,38.78,0,0,1,1.72,7.24,6,6,0,0,0,3.83,4.79c8.73,3.71,17.46,7.44,26,11.45a72.84,72.84,0,0,1,11.7,6.78c1.77,1.27,2.79,3.67,4,5.67a70.77,70.77,0,0,1,8.77,25.72c1.29,8.32,3.35,16.53,5,24.8,1.47,7.47,2.92,15,4.2,22.46.49,2.88.38,5.86.7,8.78.19,1.73.73,3.43,1,5.16a3.25,3.25,0,0,1-.11,2.11c-1.52,2.22-.82,4.42-.36,6.72a10,10,0,0,1,0,4c-.43,2.09-1,4.06.47,6,.26.35-.17,1.71-.66,2-1.7,1.16-2.38,3.41-.95,4.83,3.43,3.41,3.07,7.33,2.16,11.55-1.25,5.75-4.63,10.18-8.23,14.58a18.46,18.46,0,0,0-4.14,8.37,120,120,0,0,1-3.09,12.74,6.42,6.42,0,0,1-2.94,3.7c-2.54,1.14-3.79,3.32-5.5,5.18-2.89,3.13-5.93,6.13-8.76,9.32a6.11,6.11,0,0,0-1.52,3.39c-.51,9.71-3.18,19-5.36,28.38a229.49,229.49,0,0,0-4.13,24c-2.31,18.86-4.32,37.76-6.39,56.66-.65,6-.9,12-1.72,18-1.63,11.87-4.16,23.65-5.18,35.57-1.18,13.92-2.25,27.85-5,41.53-2,10.18-5.18,20.14-7.8,30.2-1.66,6.34-3.4,12.66-4.78,19.06-.49,2.29-1.17,3-3.35,2.19A16.11,16.11,0,0,0,186.83,568.52Zm-23.3-38.67h1.15c0-4.19-.28-8.41.06-12.57.79-9.62,2.09-19.2,2.8-28.82a470.92,470.92,0,0,1,5.87-47.81c.82-4.65,1.82-9.35,2-14,.26-9.19.06-18.4-.11-27.6-.2-11.23-.4-22.46-.93-33.68-.3-6.32-1.42-12.6-1.85-18.91-.3-4.39-.06-8.81-.06-13.22-.64.14-.8.3-.86.48-.13.44-.21.88-.3,1.32a241.26,241.26,0,0,1-8.91,35.74A65.44,65.44,0,0,0,158.57,392a66.34,66.34,0,0,1-3.63,22.23,20.39,20.39,0,0,0-1.34,8.13c.13,2.69-.35,5.52-2.54,7.23-3,2.36-2.91,4.84-1.29,7.78.25.46.41,1,.68,1.42,2.5,4.15,2.84,8.76,2.25,13.35a22.31,22.31,0,0,0,.73,8.65c1.41,5.47,2.47,11,1.5,16.75-.39,2.29.22,4.75.45,7.13.29,3.14.66,6.26,1,9.39.2,1.94,0,4,.63,5.79,1.08,3.12,1.61,6.09.18,9.21a2.36,2.36,0,0,0,1.31,3.52,8.1,8.1,0,0,1,4.6,6.34,46,46,0,0,1,.43,7C163.57,527.23,163.53,528.54,163.53,529.85ZM123.28,279.17c.75-4.61,1.63-9,2.13-13.4a25.53,25.53,0,0,0-.21-7.71c-.35-1.82-.92-3.44,0-5.21a2.84,2.84,0,0,0,.09-1.31c-.27-8.11-.4-16.22-.88-24.32-.35-6-1.09-12-1.8-17.95-.47-4-1.21-7.87-1.83-11.81l-2-12.63-1.15.14a24.41,24.41,0,0,0,.41,4.86c1.71,6-.56,10.55-4.58,14.71a5,5,0,0,0-1.32,3.06,11.46,11.46,0,0,1-3.12,8c-1.55,1.61-3.15,3.18-4.52,4.56,2,2.63,3.84,5.09,5.72,7.51a7.08,7.08,0,0,1,.79,7.65,16.83,16.83,0,0,0-1.08,8.39c.23,2.47-.34,5-.46,7.5-.13,2.75-.19,5.5-.21,8.25a13.67,13.67,0,0,0,.3,2.16c.93.44,2.12.61,2.46,1.24,1.9,3.48,3.61,7.06,5.35,10.63,1.08,2.2,2.08,4.44,3.14,6.71ZM229.78,195A22.89,22.89,0,0,0,226,208.7,33.48,33.48,0,0,1,223.9,222a16.47,16.47,0,0,0-.73,5.46c-.21,7-.33,14-.45,21a13.61,13.61,0,0,0,.25,2.19c.29,1.92,1.41,4.27.69,5.66-1.12,2.18-.21,3.67.23,5.46.36,1.46.65,2.94.91,4.42.8,4.64,1.57,9.29,2.45,14.49,1-.83,1.94-1.23,2.23-1.9,1.58-3.66,3.15-7.35,4.4-11.14a3.63,3.63,0,0,1,2.16-2.53c.56-.26,1.33-1,1.29-1.48-.2-2-.67-4-1-5.94a17.18,17.18,0,0,1-.56-3.72c.15-3.69.56-7.36.71-11,0-.94-.28-2.48-.88-2.76-1.75-.79-1.64-2.12-1.32-3.4.44-1.73,1.26-3.37,1.83-5.08a11.86,11.86,0,0,0,.45-2.46c.38-3.71-.88-7.54.89-11.17.23-.47-.12-1.38-.45-1.94-1.25-2.14-2.78-4.13-3.89-6.34-1.82-3.64-3.57-7.34-2.5-11.67C230.76,197.31,230.16,196.38,229.78,195ZM142.36,555.75l-.63-.53-3.55,3.54.61.59C140.34,558.5,142.26,558,142.36,555.75Z"/></g></g></svg>