<svg xmlns="http://www.w3.org/2000/svg" viewBox="0 0 648 648"><defs><style>.cls-1{fill:#2e87cc;}</style></defs><g id="Graphic"><rect class="cls-1" x="45.36" y="45.36" width="557.28" height="557.28"/><path d="M592.64,55.36V592.64H55.36V55.36H592.64m10-10H45.36V602.64H602.64V45.36Z"/><rect x="319" y="45.36" width="10" height="557.28"/><rect x="360.03" y="275.96" width="4.57" height="96.08"/><rect x="283.4" y="275.96" width="4.57" height="96.08"/><path d="M191.75,349.36c-1.15-2-4.22-2.1-5.73.67a7.85,7.85,0,0,1-2.47,2.9l-1.34-2.25,2.58-1.44-8.52-20.59a11.83,11.83,0,0,0,1.27-1.18c2-2.22,4.22-6.22,3.15-12.69-.37-2-.6-3.7.36-5.23,1.73-2.77.89-4.84-.35-5.78-2.27-1.7-4.86-.39-6.31,1.1l-.59-8.45a5.83,5.83,0,0,0-1.76-4,3.7,3.7,0,0,0-2.76-.89,3.57,3.57,0,0,0-1.71.55l0-.34a5.91,5.91,0,0,0-1.83-4.07,3.58,3.58,0,0,0-2.71-.86c-2.07.19-3.45,2.14-3.76,4.21a3.64,3.64,0,0,0-1.88-.31c-2.75.26-4,3-3.82,5.51l.28,4a2.93,2.93,0,0,0-1.32-.15c-2.28.25-3.61,2.36-3.39,5.37l.89,12.65h0l0,.25a.17.17,0,0,0,0,.07c.5,6,3,9.54,5.33,11.5a12.17,12.17,0,0,1-8,12.43l-1,.39L139,345l2.24,7.47,2.15-.27a9,9,0,0,0-.36,6.53,3.08,3.08,0,0,0,4.28,2.26c1.68-.83,2.58-2.58,1-5-1.83-2.83-1.07-3.93-.56-4.31h.15l.64,2.05.86.05c.59,0,1.15,0,1.71,0,11.58,0,14.56-7.58,14.69-7.92a1.24,1.24,0,1,0-2.33-.87c0,.07-2.59,6.57-13.07,6.29l-2.1-6.64h0a14.59,14.59,0,0,0,9.55-13.09,10.26,10.26,0,0,0,1.69.69,1.24,1.24,0,0,0,.54-2.43c-.07,0-6.87-1.95-7.57-11.91l-.9-12.65c0-.26-.14-2.57,1.19-2.72a.53.53,0,0,1,.46.15,3.7,3.7,0,0,1,.93,2.39l0,.45.51,7.2a1.25,1.25,0,0,0,1.33,1.15,1.23,1.23,0,0,0,1.15-1.32l-.44-6.32h0l-.07-.88,0-.45h0L156,296c-.08-1.08.28-2.74,1.57-2.87a1.14,1.14,0,0,1,.88.27,3.55,3.55,0,0,1,1,2.36v0l.85,12a1.24,1.24,0,0,0,1.24,1.15h.08a1.24,1.24,0,0,0,1.16-1.33l-1.09-15.47c-.1-1.34.69-2.78,1.57-2.86a1.08,1.08,0,0,1,.87.27,3.57,3.57,0,0,1,1,2.35l1.09,15.47a1.25,1.25,0,0,0,1.33,1.15,1.23,1.23,0,0,0,1.15-1.32l-.73-10.3s0,0,0,0c-.08-1.06.27-2.77,1.54-2.86a1.2,1.2,0,0,1,.95.29,3.49,3.49,0,0,1,.91,2.33l1.31,18.57a.51.51,0,0,0,0,.13s0,.07,0,.1a.78.78,0,0,0,.05.14l0,.08a.47.47,0,0,0,.07.12,1.24,1.24,0,0,0,.35.37l0,0a.61.61,0,0,0,.14.07l.07,0,.13,0,.1,0H174l.11,0,.12,0,.11-.05.12,0,.1-.06.1-.06.09-.09.08-.08.08-.09a.86.86,0,0,0,.07-.1,1.17,1.17,0,0,0,.05-.11l0-.1,0-.13,0-.11v-.13a.41.41,0,0,0,0-.11c0-.5-.11-1.63-.17-2.45l-.05-.73a7.29,7.29,0,0,1,1-4.89c.38-.5,2.06-2.16,3.34-1.2.55.41.45,1.33-.26,2.47-1.55,2.48-1,5.21-.7,7,.91,5.45-.88,8.76-2.53,10.57a10.07,10.07,0,0,1-1.54,1.35,1.14,1.14,0,0,0-.25.18,8.22,8.22,0,0,1-4.87,1.51,1.24,1.24,0,0,0-1.34,1.14,1.26,1.26,0,0,0,1.15,1.34l.58,0a10.34,10.34,0,0,0,4.73-1.28l5.5,13.31a3.89,3.89,0,0,1-3,1.93,1.23,1.23,0,0,0-1,1.46,1.25,1.25,0,0,0,1.22,1l.24,0a7,7,0,0,0,3.55-1.75l.9,2.17-.72.4h0l-5.35,3-11.94-16a1.24,1.24,0,1,0-2,1.49l13.25,17.7h0l4.85,6.48,6.57-3.67-.9-1.51a11.32,11.32,0,0,0,4.4-1.72C192.34,352.63,192.37,350.44,191.75,349.36Z"/><path d="M160.26,343.07a1.49,1.49,0,0,1-1.21,1.53,1.24,1.24,0,0,0,.22,2.46.9.9,0,0,0,.23,0,4,4,0,0,0,3.24-4,1.24,1.24,0,1,0-2.48,0Z"/><path d="M161.07,312.27c-.66.18-1,1.12-.87,2.1s.85,1.64,1.5,1.46,1.05-1.12.87-2.1S161.72,312.09,161.07,312.27Z"/><path d="M169.86,315.83c.66-.18,1-1.12.87-2.1s-.85-1.64-1.5-1.46-1,1.12-.87,2.1S169.2,316,169.86,315.83Z"/><path d="M162.76,321.35a1.24,1.24,0,0,0,1.23,1.12h.13l4.14-.4-1.43-6.41a1.24,1.24,0,1,0-2.42.54l.81,3.67-1.35.13A1.24,1.24,0,0,0,162.76,321.35Z"/><path d="M161.93,325.36a1.24,1.24,0,0,0,.44,1.7,6.59,6.59,0,0,0,3.33.91,6.76,6.76,0,0,0,1.67-.21,6.57,6.57,0,0,0,4-3,1.25,1.25,0,0,0-2.15-1.26,4,4,0,0,1-2.51,1.89,4.08,4.08,0,0,1-3.11-.43A1.24,1.24,0,0,0,161.93,325.36Z"/><path d="M508.7,349.36c-1.15-2-4.22-2.1-5.73.67a7.76,7.76,0,0,1-2.47,2.9l-1.34-2.25,2.58-1.44-8.51-20.59a12.75,12.75,0,0,0,1.26-1.18c2-2.22,4.22-6.22,3.15-12.69-.37-2-.59-3.7.36-5.23,1.73-2.77.89-4.84-.35-5.78-2.27-1.7-4.86-.39-6.3,1.1l-.6-8.45a5.83,5.83,0,0,0-1.76-4,3.68,3.68,0,0,0-2.76-.89,3.57,3.57,0,0,0-1.71.55l0-.34a5.91,5.91,0,0,0-1.83-4.07,3.57,3.57,0,0,0-2.71-.86c-2.07.19-3.44,2.14-3.76,4.21a3.64,3.64,0,0,0-1.88-.31c-2.75.26-4,3-3.82,5.51l.28,4a2.93,2.93,0,0,0-1.32-.15c-2.27.25-3.61,2.36-3.39,5.37l.89,12.65h0l0,.25s0,.05,0,.07c.51,6,3,9.54,5.33,11.5a12.15,12.15,0,0,1-8,12.43l-1,.39L455.92,345l2.23,7.47,2.15-.27a8.93,8.93,0,0,0-.35,6.53,3.07,3.07,0,0,0,4.27,2.26c1.68-.83,2.58-2.58,1-5-1.83-2.83-1.07-3.93-.56-4.31h.15l.65,2.05.85.05c.59,0,1.16,0,1.71,0,11.58,0,14.56-7.58,14.69-7.92a1.24,1.24,0,0,0-2.33-.87c0,.07-2.59,6.57-13.07,6.29l-2.1-6.64h0a14.59,14.59,0,0,0,9.55-13.09,10.26,10.26,0,0,0,1.69.69,1.24,1.24,0,0,0,.54-2.43c-.07,0-6.87-1.95-7.57-11.91l-.89-12.65c0-.26-.15-2.57,1.19-2.72a.52.52,0,0,1,.45.15,3.7,3.7,0,0,1,.93,2.39l0,.45.5,7.2a1.25,1.25,0,0,0,1.33,1.15,1.23,1.23,0,0,0,1.15-1.32l-.44-6.32h0l-.06-.88,0-.45h0L473,296c-.08-1.08.28-2.74,1.57-2.87a1.14,1.14,0,0,1,.88.27,3.55,3.55,0,0,1,.95,2.36v0l.85,12a1.24,1.24,0,0,0,1.24,1.15h.09a1.24,1.24,0,0,0,1.15-1.33l-1.09-15.47c-.1-1.34.7-2.78,1.57-2.86a1.07,1.07,0,0,1,.87.27,3.57,3.57,0,0,1,1,2.35l1.09,15.47a1.25,1.25,0,0,0,1.33,1.15,1.23,1.23,0,0,0,1.15-1.32l-.72-10.3v0c-.08-1.06.28-2.77,1.54-2.86a1.23,1.23,0,0,1,1,.29,3.54,3.54,0,0,1,.9,2.33l1.31,18.57c0,.05,0,.09,0,.13s0,.07,0,.1a.78.78,0,0,0,.05.14l0,.08a1.27,1.27,0,0,0,.07.12,1.24,1.24,0,0,0,.35.37l0,0a.61.61,0,0,0,.14.07l.07,0,.13,0,.1,0h.31l.11,0,.12,0,.12-.05.11,0,.1-.06.1-.06.09-.09.09-.08.07-.09a.86.86,0,0,0,.07-.1,1.17,1.17,0,0,0,.05-.11.47.47,0,0,0,.05-.1l0-.13,0-.11s0-.09,0-.13V315c0-.5-.1-1.63-.17-2.45l-.05-.73a7.29,7.29,0,0,1,1-4.89c.38-.5,2.05-2.16,3.33-1.2.55.41.45,1.33-.25,2.47-1.55,2.48-1,5.21-.71,7,.91,5.45-.88,8.76-2.53,10.57a9.2,9.2,0,0,1-1.54,1.35,1.44,1.44,0,0,0-.25.18,8.2,8.2,0,0,1-4.87,1.51,1.23,1.23,0,0,0-1.33,1.14,1.25,1.25,0,0,0,1.14,1.34l.58,0a10.34,10.34,0,0,0,4.73-1.28l5.5,13.31a3.89,3.89,0,0,1-3,1.93,1.23,1.23,0,0,0-1,1.46,1.25,1.25,0,0,0,1.22,1l.24,0a7,7,0,0,0,3.56-1.75l.89,2.17-.72.4h0l-5.34,3-12-16a1.24,1.24,0,1,0-2,1.49l13.25,17.7h0l4.85,6.48,6.57-3.67-.9-1.51a11.36,11.36,0,0,0,4.41-1.72C509.29,352.63,509.32,350.44,508.7,349.36Z"/><path d="M477.21,343.07A1.49,1.49,0,0,1,476,344.6a1.24,1.24,0,0,0,.23,2.46.82.82,0,0,0,.22,0,4,4,0,0,0,3.24-4,1.24,1.24,0,1,0-2.48,0Z"/><path d="M478,312.27c-.66.18-1,1.12-.87,2.1s.85,1.64,1.5,1.46,1.05-1.12.87-2.1S478.67,312.09,478,312.27Z"/><path d="M486.81,315.83c.66-.18,1.05-1.12.87-2.1s-.85-1.64-1.5-1.46-1.05,1.12-.87,2.1S486.16,316,486.81,315.83Z"/><path d="M479.71,321.35a1.24,1.24,0,0,0,1.23,1.12h.13l4.14-.4-1.43-6.41a1.24,1.24,0,1,0-2.42.54l.82,3.67-1.36.13A1.24,1.24,0,0,0,479.71,321.35Z"/><path d="M478.88,325.36a1.24,1.24,0,0,0,.44,1.7,6.6,6.6,0,0,0,3.34.91,6.74,6.74,0,0,0,1.66-.21,6.57,6.57,0,0,0,4-3,1.24,1.24,0,0,0-2.14-1.26,4.06,4.06,0,0,1-2.51,1.89,4.1,4.1,0,0,1-3.12-.43A1.24,1.24,0,0,0,478.88,325.36Z"/></g></svg>