<svg xmlns="http://www.w3.org/2000/svg" viewBox="0 0 648 648"><g id="Graphic"><path d="M483.46,504H164V401.68A318.67,318.67,0,0,1,186.82,283l3.46-8.68A79.63,79.63,0,0,1,264.58,224H383.12a79.67,79.67,0,0,1,74.18,50l3.2,7.92a318.54,318.54,0,0,1,23.3,121ZM204,464H443.59l.21-61.22a278.81,278.81,0,0,0-20.39-105.85l-3.2-7.92a39.84,39.84,0,0,0-37.09-25H264.58a39.82,39.82,0,0,0-37.15,25.17L224,297.85a278.71,278.71,0,0,0-20,103.83Z"/><path d="M184,544a20,20,0,0,1-20-20V484a20,20,0,0,1,40,0v40A20,20,0,0,1,184,544Z"/><path d="M464,544a20,20,0,0,1-20-20V484a20,20,0,0,1,40,0v40A20,20,0,0,1,464,544Z"/><circle cx="246.11" cy="424" r="20"/><path d="M246.11,445a21,21,0,1,1,21-21A21,21,0,0,1,246.11,445Zm0-40a19,19,0,1,0,19,19A19,19,0,0,0,246.11,405Z"/><ellipse cx="403.95" cy="424" rx="19.86" ry="20"/><path d="M404,445a21,21,0,1,1,20.86-21A20.95,20.95,0,0,1,404,445Zm0-40a19,19,0,1,0,18.86,19A18.94,18.94,0,0,0,404,405Z"/><path d="M543,544h-.12A20,20,0,0,1,523,523.88L524,345c0-110.83-89.51-201-199.48-201S125,234.19,125,345.05v.12l-1,179a20,20,0,1,1-40-.24L85,345a240.29,240.29,0,0,1,70.1-170.34,238.38,238.38,0,0,1,338.77,0A240.29,240.29,0,0,1,564,345.05v.12l-1,179A20,20,0,0,1,543,544Z"/><path d="M484,504H164V424a80.09,80.09,0,0,1,80-80H404a80.09,80.09,0,0,1,80,80ZM204,464H444V424a40,40,0,0,0-40-40H244a40,40,0,0,0-40,40Z"/></g></svg>