<svg xmlns="http://www.w3.org/2000/svg" xmlns:xlink="http://www.w3.org/1999/xlink" viewBox="0 0 648 648"><defs><style>.cls-1{fill:none;}.cls-2{clip-path:url(#clip-path);}.cls-3{fill:#e5e5e5;}.cls-4{fill:#fff;}.cls-5{fill:#fd5d41;}.cls-6{fill:#1c1c1c;}</style><clipPath id="clip-path"><rect class="cls-1" x="0.17" width="647.83" height="647.83"/></clipPath></defs><g id="Isolation_Mode" data-name="Isolation Mode"><path d="M327.43,648h-1V621.74a5.34,5.34,0,0,0-4.22-5,3.41,3.41,0,0,0-2.88.65,3.28,3.28,0,0,0-1.15,2.6v28h-1V620a4.27,4.27,0,0,1,1.51-3.37,4.4,4.4,0,0,1,3.71-.86,6.37,6.37,0,0,1,5,6Z"/><g class="cls-2"><path d="M323.19,70.58a4.73,4.73,0,0,1-1-.1,6.39,6.39,0,0,1-5-6V37a4.27,4.27,0,0,1,1.51-3.37,4.4,4.4,0,0,1,3.71-.86,6.38,6.38,0,0,1,5,6V66.25a4.16,4.16,0,0,1-4.24,4.33Zm-1.76-36.94a3.22,3.22,0,0,0-2.1.72,3.3,3.3,0,0,0-1.15,2.6V64.49a5.35,5.35,0,0,0,4.22,5,3.43,3.43,0,0,0,2.89-.65,3.27,3.27,0,0,0,1.14-2.6V38.73a5.34,5.34,0,0,0-4.22-5A4.11,4.11,0,0,0,321.43,33.64Z"/><path d="M323.19,7.62a4.73,4.73,0,0,1-1-.1,6.38,6.38,0,0,1-5-6V0h1V1.53a5.35,5.35,0,0,0,4.22,5,3.43,3.43,0,0,0,2.89-.65,3.27,3.27,0,0,0,1.14-2.6V0h1V3.29a4.16,4.16,0,0,1-4.24,4.33Z"/><path class="cls-3" d="M352,409.72a113.4,113.4,0,0,0,.68-12.49V279.8L117.82,234.54V352a122.09,122.09,0,0,0,.82,14.06Z"/><polygon class="cls-3" points="117.82 234.54 125.52 231.08 360.37 276.34 352.67 279.8 117.82 234.54"/><rect x="302.16" y="407.34" width="1" height="240.66"/><line class="cls-4" y1="209.27" x2="648" y2="330.62"/><rect x="323.5" y="-59.69" width="1" height="659.26" transform="translate(-0.97 538.73) rotate(-79.39)"/><line class="cls-4" x1="302.66" y1="144.6" x2="648" y2="209.27"/><rect x="474.83" y="1.26" width="1" height="351.35" transform="translate(213.93 611.58) rotate(-79.39)"/><line class="cls-4" x1="648" y1="465.16" y2="343.81"/><rect x="323.5" y="74.85" width="1" height="659.26" transform="translate(-133.21 648.49) rotate(-79.39)"/><line class="cls-4" x1="0.17" y1="213.68" x2="648.17" y2="335.03"/><rect x="323.67" y="-55.27" width="1" height="659.26" transform="translate(-5.17 542.49) rotate(-79.39)"/><rect x="343.12" width="1" height="152.27"/><rect x="343.12" y="408.22" width="1" height="239.79"/><path d="M323.19,133.53a5.5,5.5,0,0,1-1-.09h0a6.39,6.39,0,0,1-5-6V99.92a4.27,4.27,0,0,1,1.51-3.37,4.4,4.4,0,0,1,3.71-.86,6.38,6.38,0,0,1,5,6v27.53a4.15,4.15,0,0,1-4.24,4.32Zm-.79-1.07a3.43,3.43,0,0,0,2.89-.65,3.29,3.29,0,0,0,1.14-2.6V101.68a5.34,5.34,0,0,0-4.22-5,3.41,3.41,0,0,0-2.88.65,3.28,3.28,0,0,0-1.15,2.6v27.53a5.35,5.35,0,0,0,4.22,5Z"/><path d="M323.19,590.63a5.5,5.5,0,0,1-1-.09h0a6.39,6.39,0,0,1-5-6V557a4.27,4.27,0,0,1,1.51-3.37,4.4,4.4,0,0,1,3.71-.86,6.38,6.38,0,0,1,5,6v27.53a4.15,4.15,0,0,1-4.24,4.32Zm-1.76-36.94a3.23,3.23,0,0,0-2.1.73,3.28,3.28,0,0,0-1.15,2.6v27.53a5.35,5.35,0,0,0,4.22,5h0a3.43,3.43,0,0,0,2.89-.65,3.29,3.29,0,0,0,1.14-2.6V558.78a5.34,5.34,0,0,0-4.22-5A4.13,4.13,0,0,0,321.43,553.69Z"/><path d="M323.19,527.68a4.73,4.73,0,0,1-1-.1,6.39,6.39,0,0,1-5-6V494.06a4.27,4.27,0,0,1,1.51-3.37,4.4,4.4,0,0,1,3.71-.86,6.38,6.38,0,0,1,5,6v27.52a4.16,4.16,0,0,1-4.24,4.33Zm-1.76-36.94a3.22,3.22,0,0,0-2.1.72,3.3,3.3,0,0,0-1.15,2.6v27.53a5.35,5.35,0,0,0,4.22,5,3.43,3.43,0,0,0,2.89-.65,3.27,3.27,0,0,0,1.14-2.6V495.83a5.34,5.34,0,0,0-4.22-5A4.11,4.11,0,0,0,321.43,490.74Z"/><path d="M323.19,464.72a4.73,4.73,0,0,1-1-.1h0a6.38,6.38,0,0,1-5-6V431.11a4.29,4.29,0,0,1,1.51-3.38,4.4,4.4,0,0,1,3.71-.86,6.38,6.38,0,0,1,5,6v27.52a4.16,4.16,0,0,1-4.24,4.33Zm-.79-1.08a3.43,3.43,0,0,0,2.89-.65,3.27,3.27,0,0,0,1.14-2.6V432.87a5.36,5.36,0,0,0-4.22-5,3.41,3.41,0,0,0-2.88.65,3.3,3.3,0,0,0-1.15,2.61v27.52a5.35,5.35,0,0,0,4.22,5Z"/><polyline class="cls-4" points="98.65 227.75 302.66 144.15 302.66 0"/><polygon points="98.84 228.21 98.46 227.28 302.16 143.82 302.16 0 303.16 0 303.16 144.49 98.84 228.21"/><polygon points="366.3 266.87 131.23 222.95 131.45 233.04 366.3 277.36 366.3 266.87"/><path class="cls-5" d="M339.67,279.8,104.82,234.54V352c0,64.86,52.57,127.56,117.42,140.06h0c64.86,12.5,117.43-29.94,117.43-94.79Z"/><path d="M116.66,248.87l211.17,40.71V397.23c0,24.3-8.44,46.17-23.78,61.59C289,474,267.84,482.37,244.6,482.37a107.29,107.29,0,0,1-20.12-2c-28.7-5.53-55.76-22-76.2-46.38S116.66,380.55,116.66,352V248.87m-11.84-14.33V352c0,64.86,52.57,127.56,117.42,140.06a118.43,118.43,0,0,0,22.36,2.18c54.16,0,95.07-39.76,95.07-97V279.8L104.82,234.54Z"/><path d="M248.65,393.19a4,4,0,0,1-3.94-3.68l-4.17-59.88c-.25-3.57-1.93-9.75-6.66-10.32a2.68,2.68,0,0,0-2.37.67c-1.27,1.21-2,3.95-1.8,6.81a3.95,3.95,0,1,1-7.88.55c-.37-5.32,1.21-10.22,4.23-13.09a10.52,10.52,0,0,1,8.76-2.79c5.76.7,12.78,5.73,13.61,17.62L252.6,389a4,4,0,0,1-3.67,4.21Z"/><path d="M228.08,364.34a3.94,3.94,0,0,1-3.94-3.67l-3.48-49.89c-.33-4.7-2.75-9.91-6.59-10.3a2.53,2.53,0,0,0-2.13.85,8.82,8.82,0,0,0-2.11,6.62l3.48,49.88a4,4,0,1,1-7.89.55L202,308.5a16.63,16.63,0,0,1,4.49-12.85,10.47,10.47,0,0,1,8.43-3c8.61.87,13.13,9.75,13.68,17.63L232,360.12a4,4,0,0,1-3.67,4.21Z"/><path d="M190.24,354a4,4,0,0,1-3.94-3.68L184,317.44c-.37-5.31,1.14-10,4.13-12.93a10.71,10.71,0,0,1,8.78-2.95c8.62.84,13.14,9.72,13.69,17.62a4,4,0,1,1-7.89.55c-.27-3.91-2.24-9.88-6.57-10.3a2.83,2.83,0,0,0-2.5.75c-1.26,1.23-2,3.86-1.75,6.72l2.29,32.87a4,4,0,0,1-3.67,4.22Z"/><path d="M176.75,389.34a4,4,0,0,1-3.94-3.68l-2.9-41.59c-.22-3.25,0-9.26,3.73-13a9.68,9.68,0,0,1,7.82-2.72c7.42.6,11.87,9.07,12.43,17.12l1.72,24.66a4,4,0,1,1-7.89.55L186,346c-.34-4.93-2.81-9.59-5.17-9.78-1.09-.1-1.46.27-1.63.45-.81.8-1.66,3.06-1.4,6.81l2.9,41.59a4,4,0,0,1-3.67,4.22Z"/><path d="M228.88,443.37h-.23c-25.22-1.45-53.39-22.45-55.9-58.52a4,4,0,0,1,7.89-.55c2.2,31.55,26.61,49.92,48.46,51.17a4,4,0,0,1-.22,7.9Z"/><ellipse cx="208.94" cy="378.29" rx="3.76" ry="5.96" transform="translate(-81.82 58.58) rotate(-13.37)"/><ellipse cx="234.89" cy="383.29" rx="3.76" ry="5.96" transform="translate(-82.27 64.71) rotate(-13.37)"/><path d="M231,408l-14.1-1.32a4,4,0,1,1,.74-7.87l3.38.31-2.44-11.45a4,4,0,0,1,7.73-1.65Z"/><path d="M225.93,425.53a23.48,23.48,0,0,1-14.29-5.17,4,4,0,0,1,4.87-6.23,14.77,14.77,0,0,0,11.27,3.35,9.13,9.13,0,0,0,6.31-4,3.95,3.95,0,1,1,6.58,4.37,17,17,0,0,1-11.63,7.4A20.07,20.07,0,0,1,225.93,425.53Z"/><path d="M231.32,443.47c-.95,0-1.87,0-2.76-.11a4,4,0,0,1,.63-7.88,32.79,32.79,0,0,0,25.74-10.15c7.14-7.72,9.78-18.88,7.63-32.26-1.07-5.91-2.71-14.95,2.37-22.08,2.27-3.21,2.4-6,.35-8a5.91,5.91,0,0,0-4.43-1.82,9.41,9.41,0,0,0-6,3.05c-1.66,1.87-3.52,5.92-2.92,14.58,0,.52.1,1.34.17,2.31.2,2.66.48,6.31.55,7.95a4,4,0,1,1-7.9.32c-.07-1.5-.35-5.22-.53-7.68-.07-1-.14-1.82-.17-2.35-.64-9.15,1-16,4.89-20.38a17.22,17.22,0,0,1,11.6-5.7,13.8,13.8,0,0,1,10.21,4c6,5.7,4.13,13.42.66,18.3-2.91,4.09-2.18,9.74-1,16.16,3.23,20.13-3.45,32.29-9.62,39A40.49,40.49,0,0,1,231.32,443.47Z"/><polygon class="cls-6" points="366.3 266.87 131.23 222.95 104.82 234.54 339.67 279.8 366.3 266.87"/><path class="cls-5" d="M778.94,362.3,544.08,317V434.46c0,64.86,52.58,127.56,117.43,140.06h0c64.85,12.5,117.43-29.94,117.43-94.79Z"/><path d="M555.92,331.37l211.18,40.7V479.73c0,24.3-8.45,46.17-23.78,61.59-15.1,15.19-36.22,23.55-59.46,23.55a107.19,107.19,0,0,1-20.11-2c-28.7-5.53-55.77-22-76.2-46.38s-31.63-53.47-31.63-82.06V331.37M544.08,317V434.46c0,64.86,52.58,127.56,117.43,140.06a118.33,118.33,0,0,0,22.35,2.18c54.17,0,95.08-39.76,95.08-97V362.3L544.08,317Z"/><path d="M667.34,446.84a3.94,3.94,0,0,1-3.94-3.67l-3.47-49.89c-.33-4.7-2.75-9.91-6.59-10.3a2.48,2.48,0,0,0-2.13.85,8.78,8.78,0,0,0-2.11,6.62l3.47,49.88a3.95,3.95,0,1,1-7.88.55L641.21,391a16.63,16.63,0,0,1,4.49-12.85,10.47,10.47,0,0,1,8.43-3c8.62.87,13.14,9.75,13.68,17.63l3.48,49.88a4,4,0,0,1-3.67,4.21Z"/><path d="M629.5,436.5a4,4,0,0,1-3.94-3.68l-2.28-32.88c-.37-5.3,1.13-10,4.12-12.93a10.72,10.72,0,0,1,8.78-2.95c8.63.84,13.15,9.72,13.7,17.62a4,4,0,0,1-7.89.55c-.27-3.91-2.25-9.88-6.58-10.3a2.81,2.81,0,0,0-2.49.75c-1.27,1.23-2,3.86-1.76,6.71l2.29,32.88a4,4,0,0,1-3.67,4.22Z"/><path d="M616,471.84a4,4,0,0,1-3.93-3.68l-2.9-41.59c-.23-3.25,0-9.26,3.72-13a9.69,9.69,0,0,1,7.83-2.72c7.42.6,11.86,9.07,12.42,17.12l1.72,24.66a4,4,0,0,1-7.89.55l-1.71-24.67c-.35-4.92-2.81-9.58-5.18-9.77a1.78,1.78,0,0,0-1.63.45c-.81.8-1.66,3.06-1.39,6.81L620,467.61a4,4,0,0,1-3.67,4.22Z"/><path d="M668.15,525.87h-.23c-25.23-1.45-53.39-22.46-55.9-58.53a4,4,0,0,1,7.89-.54c2.19,31.55,26.6,49.92,48.46,51.17a4,4,0,0,1-.22,7.9Z"/><ellipse cx="648.21" cy="460.79" rx="3.76" ry="5.96" transform="translate(-88.99 162.4) rotate(-13.37)"/><polygon class="cls-6" points="805.57 349.37 570.49 305.45 544.08 317.04 778.94 362.3 805.57 349.37"/></g></g></svg>