<svg xmlns="http://www.w3.org/2000/svg" viewBox="0 0 1152 648"><defs><style>.cls-1{fill:#232323;}.cls-2{fill:#353535;}.cls-3{fill:#ff5c35;}</style></defs><g id="Graphic"><polygon class="cls-1" points="932.59 534.32 262.08 411.86 262.08 439.99 932.59 562.45 932.59 534.32"/><polygon points="899.65 173.21 856.98 194.85 856.98 577.51 899.65 555.87 899.65 173.21"/><polygon class="cls-2" points="899.65 173.21 301.2 63.91 258.53 85.55 856.98 194.85 899.65 173.21"/><polygon class="cls-2" points="262.08 411.86 301.2 418.98 258.53 440.62 219.41 433.5 262.08 411.86"/><polygon class="cls-3" points="856.98 194.85 258.53 85.55 258.53 468.21 856.98 577.51 856.98 194.85"/><path class="cls-1" d="M271.53,101.14,844,205.69V561.92L271.53,457.37V101.14m-13-15.59V468.21L857,577.51V194.85L258.53,85.55Z"/><path class="cls-1" d="M596.78,320c-1.91-3.65-7-4.76-9.49-.63a9.92,9.92,0,0,1-4.1,4.06L581,319.27l4.28-1.61L571.14,281a15.94,15.94,0,0,0,2.1-1.57c3.36-3.07,7-9,5.22-20.07-.62-3.36-1-6.32.59-8.57,2.87-4.05,1.48-7.74-.58-9.67-3.76-3.52-8.05-2.12-10.45-.09l-1-14.18a11.67,11.67,0,0,0-2.9-7.21,7.35,7.35,0,0,0-4.58-2.32,5.49,5.49,0,0,0-2.83.39l0-.57a12,12,0,0,0-3-7.3,7.22,7.22,0,0,0-4.5-2.24c-3.42-.31-5.7,2.51-6.23,5.84a6.82,6.82,0,0,0-3.12-1.08c-4.54-.4-6.62,3.71-6.33,8l.47,6.72a5.39,5.39,0,0,0-2.19-.65c-3.76-.27-6,2.82-5.62,7.88l1.48,21.22h0l0,.42s0,.08,0,.12c.84,10.17,5,16.71,8.83,20.67.25,3.13.25,15.08-13.25,18.17l-1.72.34-12.21,1.51,3.7,13.05,3.57.22c-1.1,2.06-2,5.51-.59,10.7,1.23,4.51,5,5.69,7.08,5,2.78-.86,4.27-3.49,1.67-8-3-5.25-1.77-6.84-.93-7.31h.25l1.07,3.6,1.42.34c1,.24,1.92.44,2.83.6,19.19,3.51,24.13-8.15,24.34-8.67a2.43,2.43,0,0,0-1.2-2.87,1.79,1.79,0,0,0-2.65.72c0,.1-4.29,10.1-21.67,6.47L524.73,299h0c13-3,15.47-13.05,15.83-18.8a19,19,0,0,0,2.8,1.65,2.71,2.71,0,0,0,.44.13,1.67,1.67,0,0,0,2-1.25,2.5,2.5,0,0,0-1.57-2.74c-.11,0-11.38-5.31-12.54-22l-1.48-21.23c0-.45-.24-4.32,2-4.16a1.09,1.09,0,0,1,.76.39,7.4,7.4,0,0,1,1.54,4.24l0,.76.85,12.08a2.61,2.61,0,0,0,2.2,2.32,1.68,1.68,0,0,0,1.91-1.85l-.74-10.61h0l-.11-1.48,0-.75h0l-1-14.89c-.12-1.82.47-4.46,2.61-4.27a2.17,2.17,0,0,1,1.46.71,7,7,0,0,1,1.57,4.19,0,0,0,0,1,0,0l1.4,20.09a2.59,2.59,0,0,0,2,2.29l.15,0a1.68,1.68,0,0,0,1.91-1.86l-1.81-26c-.16-2.25,1.16-4.41,2.6-4.28a2.22,2.22,0,0,1,1.45.72,7.09,7.09,0,0,1,1.59,4.19l1.81,26a2.61,2.61,0,0,0,2.2,2.31,1.67,1.67,0,0,0,1.91-1.85l-1.21-17.28s0,0,0-.07c-.13-1.78.46-4.51,2.56-4.28a2.44,2.44,0,0,1,1.58.78,7,7,0,0,1,1.5,4.13l2.17,31.18a1.66,1.66,0,0,0,0,.22l0,.16a1.83,1.83,0,0,0,.08.25.94.94,0,0,0,.06.15,2.12,2.12,0,0,0,.11.21,2.6,2.6,0,0,0,.59.73l0,.05.24.16.11.08.22.1.16.07.2.06.17.05h.15a1.08,1.08,0,0,0,.18,0,1.34,1.34,0,0,0,.2,0,1.08,1.08,0,0,0,.19,0l.19,0,.17-.07.17-.08.15-.1.14-.11.12-.14a.76.76,0,0,0,.11-.14L569,259c0-.06.06-.11.08-.16a1.46,1.46,0,0,0,0-.2,1,1,0,0,0,.05-.18,1.55,1.55,0,0,0,0-.22s0-.1,0-.16c0-.85-.18-2.74-.28-4.12l-.09-1.22c-.25-3.62.31-6.33,1.62-7.82.63-.71,3.4-3,5.53-1,.91.84.75,2.34-.43,4-2.57,3.64-1.72,8.32-1.16,11.37,1.5,9.31-1.46,14.25-4.2,16.75a12.22,12.22,0,0,1-2.55,1.78,1.78,1.78,0,0,0-.41.22,12.26,12.26,0,0,1-8.08,1,1.68,1.68,0,0,0-2.21,1.5,2.58,2.58,0,0,0,1.9,2.55l1,.21a15.53,15.53,0,0,0,7.83-.68l9.12,23.72c-.37.71-1.56,2.23-4.9,2.3a1.68,1.68,0,0,0-1.61,2.13,2.63,2.63,0,0,0,2,2,1.84,1.84,0,0,0,.41,0,9.59,9.59,0,0,0,5.88-1.81L580,314.9l-1.19.44h0L570,318.67,550.2,288.61a2.25,2.25,0,0,0-2.88-.94,1.93,1.93,0,0,0-.42,2.81l22,33.33h0l8,12.2,10.89-4.08-1.49-2.78a16.26,16.26,0,0,0,7.3-1.51C597.76,325.56,597.81,321.94,596.78,320Z"/><path class="cls-1" d="M544.59,300a2,2,0,0,1-2,2.17,1.69,1.69,0,0,0-1.66,2.1,2.6,2.6,0,0,0,2,2.05,1.64,1.64,0,0,0,.38,0,5.29,5.29,0,0,0,5.37-5.67,2.6,2.6,0,0,0-2.09-2.41A1.67,1.67,0,0,0,544.59,300Z"/><path class="cls-1" d="M545.94,249.22c-1.09.09-1.73,1.53-1.44,3.21s1.4,3,2.49,2.88,1.73-1.54,1.44-3.22S547,249.12,545.94,249.22Z"/><path class="cls-1" d="M560.51,257.78c1.09-.1,1.73-1.54,1.44-3.22s-1.41-3-2.49-2.87-1.73,1.53-1.44,3.21S559.42,257.87,560.51,257.78Z"/><path class="cls-1" d="M548.74,264.78a2.61,2.61,0,0,0,2,2.23l.21,0,6.86.58-2.36-11.05a2.55,2.55,0,0,0-2.46-2,1.68,1.68,0,0,0-1.56,2.17l1.35,6.33-2.24-.19A1.67,1.67,0,0,0,548.74,264.78Z"/><path class="cls-1" d="M547.36,271.16a2.3,2.3,0,0,0,.73,3,13,13,0,0,0,5.53,2.52,10.67,10.67,0,0,0,2.76.15,8.57,8.57,0,0,0,6.67-3.82,2.28,2.28,0,0,0-.73-3,1.91,1.91,0,0,0-2.82.21,5.3,5.3,0,0,1-4.16,2.38,7.55,7.55,0,0,1-5.16-1.66A1.91,1.91,0,0,0,547.36,271.16Z"/><path class="cls-1" d="M575.59,428.81,568.91,415l-3.49.2-.25,14.18a2,2,0,0,0,1.52,1.85h0a1.25,1.25,0,0,0,1.54-1.24l0-1.19,4-.24.56,1.16a1.81,1.81,0,0,0,2.09,1A1.37,1.37,0,0,0,575.59,428.81Zm-7.25-3.15.08-5.05,2.38,4.9Z"/><path class="cls-1" d="M593.94,423.44l-7.1-13.54L584.17,411l1.54,9.1-6.89-7-2.67,1.06,7.1,13.55a2,2,0,0,0,1.34,1,1.35,1.35,0,0,0,.77-.07,1.37,1.37,0,0,0,.56-2l-2.61-5,3.64,3.68,2.52-1-.81-4.8,2.61,5a1.78,1.78,0,0,0,2.11.95A1.38,1.38,0,0,0,593.94,423.44Z"/><path class="cls-1" d="M556.21,427l-4.64-.85V413.77l-3.08-.57v15.45l7.72,1.41a1.25,1.25,0,0,0,1.54-1.26A1.94,1.94,0,0,0,556.21,427Z"/><path class="cls-1" d="M536.22,407.72l-7.69,10.56a1.69,1.69,0,0,0,.47,2.22,1.46,1.46,0,0,0,2.13-.07l.65-.89,3.93,2-.08,1.18a1.92,1.92,0,0,0,1.44,1.9l.1,0a1.24,1.24,0,0,0,1.54-1.16l.92-14Zm-2.72,9.45,2.74-3.76-.33,5Z"/><path class="cls-1" d="M518.07,412a5.25,5.25,0,0,1-2.48-1.22c-2-1.74-2.49-4.56-1.12-6.3a1.49,1.49,0,0,1,2.15,0,1.66,1.66,0,0,1,.39,2.22,1.4,1.4,0,0,0,.33,1.85,1.23,1.23,0,0,0,1.79,0l.44-.56a1.39,1.39,0,0,0-.33-1.85,5.45,5.45,0,0,1-1.82-3.14,3.92,3.92,0,0,1,.7-3.15l.44-.55a3.5,3.5,0,0,1,2.81-1.31,5,5,0,0,1,3.28,1.3,5.48,5.48,0,0,1,1.82,3.14,3.92,3.92,0,0,1-.7,3.15,1.47,1.47,0,0,1-2.15,0,1.67,1.67,0,0,1-.4-2.22,1.12,1.12,0,0,0,.21-.92,1.63,1.63,0,0,0-.53-.93,1.54,1.54,0,0,0-1-.38,1,1,0,0,0-.82.38l-.44.56a1.15,1.15,0,0,0-.21.93,1.57,1.57,0,0,0,.54.92c2,1.73,2.48,4.56,1.12,6.29l-.44.56A3.67,3.67,0,0,1,518.07,412Z"/><ellipse class="cls-1" cx="610.27" cy="410.07" rx="3.76" ry="4.51" transform="translate(-116.92 518.65) rotate(-42.39)"/><path class="cls-1" d="M613.36,375.62V389a2.51,2.51,0,0,1-3.09,2.53,3.89,3.89,0,0,1-3.09-3.66V358l-10.3-1.88V386c0,7.38,6,14.48,13.39,15.83s13.39-3.56,13.39-10.94V377.5Z"/><path class="cls-1" d="M582.47,383.37a2.51,2.51,0,0,1-3.09,2.52,3.87,3.87,0,0,1-3.09-3.65V368.85L566,367v13.39a2.5,2.5,0,0,1-3.09,2.52,3.88,3.88,0,0,1-3.09-3.65V365.84L549.52,364v5.89a19.31,19.31,0,0,0-1.77-3.74h0l-6.37-10.26,4.89-6.08-8.43-7.45-2.74,3.41-4.76-7.66-8.43,4.37,6.9,11.12-6.36,7.93h0a12.42,12.42,0,0,0-2.41,5.18A18.34,18.34,0,0,0,506.27,354c-7.95-1.46-14.42,3.83-14.42,11.78a16,16,0,0,0,1.27,6.12,11.58,11.58,0,0,0-7.45,11.26v4.14l10.3,1.88v-4.14a3.34,3.34,0,0,1,4.12-3.37l5.58,1,.6.14c6.8,1.24,12.51-2.47,14-8.55A19.65,19.65,0,0,0,535.1,388.1c6.86,1.26,12.68-2.18,14.69-8a17,17,0,0,0,13.11,13.08,11.71,11.71,0,0,0,8.24-1.35,16.14,16.14,0,0,0,8.24,4.36c7.38,1.35,13.38-3.56,13.38-10.94V371.86L582.47,370Zm-76.2-10.83v0l-.3-.05a5.18,5.18,0,0,1-3.82-4.79,3.35,3.35,0,0,1,4.12-3.37,5.18,5.18,0,0,1,4.12,4.87A3.34,3.34,0,0,1,506.27,372.54Zm28.83,5.27a6.56,6.56,0,0,1-5.15-6.09,4.36,4.36,0,0,1,.93-2.78h0l4.22-5.25,4.22,6.79h0a5.93,5.93,0,0,1,.93,3.12A4.22,4.22,0,0,1,535.1,377.81Z"/><polygon class="cls-1" points="889.92 555.96 219.41 433.5 219.41 461.63 889.92 584.09 889.92 555.96"/><polygon points="932.59 534.32 889.92 555.96 889.92 584.09 932.59 562.45 932.59 534.32"/><polygon class="cls-2" points="899.65 528.27 932.59 534.32 889.92 555.96 856.98 549.92 899.65 528.27"/></g></svg>