<svg xmlns="http://www.w3.org/2000/svg" viewBox="0 0 1152 648"><defs><style>.cls-1{fill:#ff5c35;}.cls-2{fill:none;}</style></defs><g id="Graphic"><rect class="cls-1" x="181.32" y="97.91" width="789.35" height="504.73"/><path d="M955.15,113.44V587.11H196.85V113.44h758.3m15.53-15.53H181.32V602.64H970.68V97.91Z"/><rect x="133.8" y="565.54" width="884.4" height="37.1"/><path d="M631.55,324.89c-2.52-4.37-9.22-4.6-12.52,1.45a17,17,0,0,1-5.4,6.34l-2.94-4.92,5.65-3.15-18.61-45A28.11,28.11,0,0,0,600.5,277c4.43-4.85,9.23-13.59,6.88-27.73-.81-4.29-1.3-8.1.79-11.45,3.78-6,1.94-10.57-.77-12.61-5-3.74-10.61-.86-13.78,2.39l-1.3-18.46c-.26-3.71-1.66-6.93-3.84-8.82a8.39,8.39,0,0,0-9.77-.75l-.05-.74a13,13,0,0,0-4-8.9,7.85,7.85,0,0,0-5.93-1.87c-4.52.42-7.53,4.68-8.22,9.2a7.92,7.92,0,0,0-4.11-.68c-6,.57-8.74,6.5-8.35,12.06l.62,8.75a6.55,6.55,0,0,0-2.89-.33c-5,.55-7.88,5.16-7.41,11.74l2,27.64h0l0,.55c0,.05,0,.1,0,.16,1.11,13.2,6.6,20.84,11.65,25.13.32,4.07.33,19.83-17.48,27.16l-2.27.85-16.1,4.94,4.88,16.33,4.7-.58c-1.45,3-2.64,7.76-.77,14.26,1.62,5.66,6.56,6.31,9.34,5,3.67-1.81,5.63-5.64,2.2-11-4-6.2-2.33-8.6-1.22-9.42l.33,0,1.41,4.48,1.87.11c1.28.08,2.53.12,3.73.12,25.31,0,31.83-16.57,32.11-17.31a2.72,2.72,0,0,0-5.09-1.91c0,.15-5.65,14.36-28.57,13.76l-4.58-14.52h0c17.09-7,20.41-20.94,20.88-28.61a19,19,0,0,0,3.69,1.49,2.44,2.44,0,0,0,.59.07,2.72,2.72,0,0,0,.58-5.37c-.15,0-15-4.26-16.54-26l-2-27.65c0-.58-.31-5.64,2.61-6a1.2,1.2,0,0,1,1,.34c1,.87,1.88,3,2,5.22l.07,1,1.11,15.73a2.72,2.72,0,1,0,5.42-.38l-1-13.82h0l-.13-1.91-.07-1h0l-1.37-19.38c-.17-2.37.61-6,3.44-6.27a2.47,2.47,0,0,1,1.93.59,7.77,7.77,0,0,1,2.07,5.15s0,0,0,0L562.76,234a2.73,2.73,0,0,0,2.71,2.53h.19a2.71,2.71,0,0,0,2.52-2.9l-2.38-33.82c-.21-2.92,1.52-6.08,3.43-6.26a2.42,2.42,0,0,1,1.91.6,7.79,7.79,0,0,1,2.1,5.14l2.38,33.81a2.74,2.74,0,0,0,2.9,2.52,2.71,2.71,0,0,0,2.52-2.9l-1.58-22.5a.27.27,0,0,1,0-.09c-.17-2.31.61-6.06,3.38-6.26a2.67,2.67,0,0,1,2.08.64,7.73,7.73,0,0,1,2,5.09l2.86,40.6a2.93,2.93,0,0,0,0,.29,1.18,1.18,0,0,0,0,.2,1.6,1.6,0,0,0,.1.31,1.46,1.46,0,0,1,.07.19,2.13,2.13,0,0,0,.16.25,2.71,2.71,0,0,0,.77.81l.07.06.31.16.15.07a1.38,1.38,0,0,0,.29.08,1.41,1.41,0,0,0,.22.06,2.13,2.13,0,0,0,.25,0l.23,0h.19a1.72,1.72,0,0,0,.24,0,1.28,1.28,0,0,0,.27,0,1.06,1.06,0,0,0,.25-.09,2.5,2.5,0,0,0,.25-.09l.23-.14.21-.14a1.12,1.12,0,0,0,.2-.18,1.45,1.45,0,0,0,.18-.17l.17-.21c.05-.07.1-.14.14-.21s.08-.16.12-.24a2.4,2.4,0,0,0,.11-.23,2.68,2.68,0,0,0,.07-.27l.06-.25a2.71,2.71,0,0,0,0-.29,1.64,1.64,0,0,0,0-.22c-.05-1.11-.24-3.57-.37-5.36l-.12-1.6c-.34-4.71.4-8.41,2.13-10.69.83-1.09,4.49-4.73,7.3-2.62,1.19.9,1,2.91-.57,5.39-3.38,5.42-2.26,11.38-1.53,15.28,2,11.92-1.92,19.15-5.54,23.11a21.94,21.94,0,0,1-3.36,3,2.62,2.62,0,0,0-.55.39A17.91,17.91,0,0,1,581.93,280a2.71,2.71,0,1,0-.4,5.41c.41,0,.83,0,1.25,0a22.65,22.65,0,0,0,10.34-2.78l12,29.09c-.49,1-2.06,3.32-6.47,4.21a2.72,2.72,0,0,0,.54,5.38,2.48,2.48,0,0,0,.54-.06,15.34,15.34,0,0,0,7.76-3.8l2,4.72-1.56.88h0l-11.69,6.51-26.11-34.87a2.71,2.71,0,1,0-4.34,3.25l29,38.69h0l10.6,14.17,14.36-8-2-3.31a24.85,24.85,0,0,0,9.64-3.75C632.85,332,632.9,327.23,631.55,324.89Z"/><path d="M562.72,311.13a3.25,3.25,0,0,1-2.64,3.34,2.71,2.71,0,1,0,1,5.34,8.69,8.69,0,0,0,7.09-8.77,2.72,2.72,0,0,0-5.43.09Z"/><path d="M564.49,243.81c-1.43.39-2.28,2.44-1.9,4.59s1.85,3.57,3.29,3.19,2.28-2.45,1.9-4.59S565.92,243.42,564.49,243.81Z"/><path d="M583.71,251.59c1.43-.39,2.28-2.45,1.9-4.59s-1.85-3.58-3.29-3.19-2.28,2.44-1.9,4.59S582.28,252,583.71,251.59Z"/><path d="M568.18,263.65a2.71,2.71,0,0,0,2.7,2.45h.27l9.06-.9-3.12-14a2.71,2.71,0,0,0-5.3,1.18l1.78,8-3,.29A2.72,2.72,0,0,0,568.18,263.65Z"/><path d="M566.37,272.41a2.72,2.72,0,0,0,1,3.72,14.39,14.39,0,0,0,7.29,2,14.54,14.54,0,0,0,3.64-.47,14.33,14.33,0,0,0,8.81-6.64,2.72,2.72,0,0,0-4.69-2.76,9,9,0,0,1-12.29,3.19A2.72,2.72,0,0,0,566.37,272.41Z"/><path d="M603.6,473.55,594.79,457l-4.61,1.11-.32,18.76a2,2,0,0,0,2,2.07h0a2,2,0,0,0,2-2l0-1.58,5.3-1.27.74,1.39a2,2,0,1,0,3.6-1.91ZM594,471.13l.12-6.67,3.14,5.89Z"/><path d="M627.81,462.05l-9.37-16.16-3.52,2,2,11.64L607.86,452l-3.52,2,9.36,16.16a2.06,2.06,0,0,0,1.77,1,2,2,0,0,0,1-.28,2,2,0,0,0,.74-2.78l-3.44-5.94,4.79,4,3.33-1.93-1.07-6.14,3.44,5.94a2,2,0,0,0,3.53-2Z"/><path d="M578,475.79h-6.11v-16.3h-4.08v20.37H578a2,2,0,0,0,0-4.07Z"/><path d="M551.68,455.21,541.54,471A2,2,0,1,0,545,473.2l.86-1.33,5.17,1.7-.1,1.58a2,2,0,0,0,1.9,2.16h.14a2,2,0,0,0,2-1.91l1.22-18.72Zm-3.59,13.12,3.61-5.62-.43,6.66Z"/><path d="M527.73,465.28a5.76,5.76,0,0,1-4.74-9,2,2,0,1,1,3.35,2.31,1.7,1.7,0,0,0,2.8,1.93l.57-.84a1.69,1.69,0,0,0-.43-2.36,5.78,5.78,0,0,1-1.48-8l.58-.84a5.77,5.77,0,0,1,9.51,6.55,2,2,0,0,1-3.36-2.31,1.64,1.64,0,0,0,.27-1.27,1.68,1.68,0,0,0-.7-1.09,1.7,1.7,0,0,0-2.36.43l-.58.84a1.64,1.64,0,0,0-.27,1.27,1.68,1.68,0,0,0,.7,1.09,5.78,5.78,0,0,1,1.48,8l-.58.84A5.77,5.77,0,0,1,527.73,465.28Z"/><rect class="cls-2" x="485" y="350.83" width="182" height="108.66"/><circle cx="649.34" cy="440.47" r="5.43"/><path d="M653.42,394.3V412a4.08,4.08,0,1,1-8.15,0V372.56H631.68V412A17.66,17.66,0,1,0,667,412V394.3Z"/><path d="M612.67,412a4.08,4.08,0,1,1-8.15,0V394.3H590.94V412a4.08,4.08,0,1,1-8.15,0V394.3H569.21v7.76a20.31,20.31,0,0,0-2.33-4.51h0l-8.4-12,6.45-9.21-11.13-7.79-3.61,5.16-6.27-9-11.12,7.79,9.1,13-8.39,12h0a20.07,20.07,0,0,0-3.18,7.41,19,19,0,1,0-35.5,13.41A19,19,0,0,0,485,435v5.47h13.58V435a5.44,5.44,0,0,1,5.43-5.43h7.37c.26,0,.52,0,.78,0A19,19,0,0,0,530.65,415a20.36,20.36,0,0,0,38.92.55,17.62,17.62,0,0,0,28.16,10.33A17.63,17.63,0,0,0,626.25,412V394.3H612.67ZM512.16,416v0h-.39a5.12,5.12,0,1,1,.39,0Zm38,0a6.88,6.88,0,0,1-6.79-6.79,6.81,6.81,0,0,1,1.23-3.9h0l5.56-7.94,5.57,7.94h0a6.81,6.81,0,0,1,1.23,3.9A6.88,6.88,0,0,1,550.19,416Z"/><rect class="cls-2" x="485" y="350.83" width="182" height="108.66"/><rect y="602.14" width="1152" height="1"/></g></svg>