<svg xmlns="http://www.w3.org/2000/svg" viewBox="0 0 648 648"><g id="Graphic"><path d="M358,264a20,20,0,0,1-20-20V184a40,40,0,0,0-40-40,20,20,0,0,1,0-40,80.09,80.09,0,0,1,80,80v60A20,20,0,0,1,358,264Z"/><path d="M298,204a80.09,80.09,0,0,1-80-80V84a20,20,0,1,1,40,0v40a40,40,0,0,0,40,40,20,20,0,0,1,0,40Z"/><path d="M298,544c-88.22,0-160-71.78-160-160V224H458V384C458,472.22,386.26,544,298,544ZM178,264V384a120,120,0,0,0,240,0V264Z"/><path d="M468,404H418V224h50a90,90,0,0,1,0,180Zm-10-40h10a50,50,0,0,0,0-100H458Z"/><path d="M438,544H158a20,20,0,1,1,0-40H438a20,20,0,0,1,0,40Z"/></g></svg>