<svg xmlns="http://www.w3.org/2000/svg" xmlns:xlink="http://www.w3.org/1999/xlink" viewBox="0 0 648 648"><defs><style>.cls-1{fill:none;}.cls-2{clip-path:url(#clip-path);}.cls-3{fill:#fff;}.cls-4{fill:#fd5d41;}</style><clipPath id="clip-path"><rect class="cls-1" width="648.01" height="648.01"/></clipPath></defs><g id="Isolation_Mode" data-name="Isolation Mode"><g class="cls-2"><rect x="302.16" y="407.34" width="1" height="240.66"/><line class="cls-3" y1="209.27" x2="648" y2="330.62"/><rect x="323.5" y="-59.69" width="1" height="659.26" transform="translate(-0.97 538.73) rotate(-79.39)"/><line class="cls-3" x1="302.66" y1="144.6" x2="648" y2="209.27"/><rect x="474.83" y="1.26" width="1" height="351.35" transform="translate(213.93 611.58) rotate(-79.39)"/><line class="cls-3" x1="648" y1="465.16" y2="343.81"/><rect x="323.5" y="74.85" width="1" height="659.26" transform="translate(-133.21 648.49) rotate(-79.39)"/><line class="cls-3" x1="0.17" y1="213.68" x2="648.17" y2="335.03"/><rect x="323.67" y="-55.27" width="1" height="659.26" transform="translate(-5.17 542.49) rotate(-79.39)"/><path class="cls-4" d="M311.74,283.72,76.89,238.46V355.89c0,64.85,52.58,127.55,117.43,140.05h0c64.85,12.5,117.42-29.94,117.42-94.79Z"/><path d="M88.73,252.8l211.18,40.7V401.15c0,24.3-8.45,46.17-23.78,61.6-15.1,15.18-36.22,23.54-59.46,23.54a106.36,106.36,0,0,1-20.11-2c-28.7-5.53-55.77-22-76.2-46.38s-31.63-53.47-31.63-82.05V252.8M76.89,238.46V355.89c0,64.85,52.58,127.55,117.43,140.05h0a117.54,117.54,0,0,0,22.35,2.19c54.16,0,95.08-39.77,95.08-97V283.72L76.89,238.46Z"/><path d="M220.73,397.12a4,4,0,0,1-3.94-3.68l-4.17-59.89c-.25-3.56-1.93-9.74-6.67-10.31a2.66,2.66,0,0,0-2.37.66c-1.27,1.21-2,4-1.79,6.82a4,4,0,0,1-7.89.54c-.37-5.32,1.22-10.21,4.24-13.09a10.46,10.46,0,0,1,8.76-2.78c5.76.69,12.78,5.72,13.6,17.61l4.17,59.89a4,4,0,0,1-3.67,4.22Z"/><path d="M200.15,368.27a4,4,0,0,1-3.94-3.68l-3.47-49.88c-.33-4.71-2.75-9.92-6.59-10.31a2.55,2.55,0,0,0-2.14.85,8.83,8.83,0,0,0-2.1,6.62l3.47,49.88a3.95,3.95,0,1,1-7.88.55L174,312.42a16.63,16.63,0,0,1,4.49-12.85,10.47,10.47,0,0,1,8.43-3c8.62.87,13.14,9.75,13.68,17.63L204.1,364a4,4,0,0,1-3.67,4.22Z"/><path d="M162.31,357.92a4,4,0,0,1-3.94-3.68l-2.29-32.87c-.36-5.31,1.14-10,4.13-12.94a10.75,10.75,0,0,1,8.78-2.95c8.63.84,13.15,9.73,13.7,17.62a4,4,0,1,1-7.89.55c-.27-3.91-2.25-9.88-6.58-10.3a2.82,2.82,0,0,0-2.49.75c-1.27,1.23-2,3.87-1.76,6.72l2.29,32.87a4,4,0,0,1-3.67,4.22Z"/><path d="M148.82,393.26a4,4,0,0,1-3.94-3.68L142,348c-.23-3.25,0-9.26,3.72-13a9.69,9.69,0,0,1,7.83-2.71c7.41.6,11.86,9.06,12.42,17.11l1.72,24.66a4,4,0,1,1-7.89.55L158.08,350c-.35-4.93-2.81-9.59-5.18-9.78a1.8,1.8,0,0,0-1.63.45c-.81.8-1.66,3.06-1.39,6.81L152.77,389a4,4,0,0,1-3.67,4.22Z"/><path d="M201,447.3h-.23c-25.23-1.45-53.39-22.45-55.9-58.52a3.95,3.95,0,1,1,7.88-.55c2.2,31.56,26.61,49.92,48.47,51.18a4,4,0,0,1-.22,7.9Z"/><ellipse cx="181.02" cy="382.21" rx="3.76" ry="5.96" transform="translate(-83.49 52.22) rotate(-13.37)"/><ellipse cx="206.97" cy="387.21" rx="3.76" ry="5.96" transform="translate(-83.94 58.36) rotate(-13.37)"/><path d="M203,411.9l-14.1-1.32a4,4,0,0,1,.74-7.87l3.38.31-2.44-11.45a4,4,0,0,1,7.73-1.65Z"/><path d="M198,429.46a23.45,23.45,0,0,1-14.29-5.17,4,4,0,0,1,4.86-6.24,14.78,14.78,0,0,0,11.27,3.35,9.13,9.13,0,0,0,6.31-4,4,4,0,1,1,6.59,4.37,17.08,17.08,0,0,1-11.63,7.4A20.27,20.27,0,0,1,198,429.46Z"/><path d="M203.39,447.39c-.95,0-1.87,0-2.75-.11a4,4,0,1,1,.63-7.88A32.8,32.8,0,0,0,227,429.26c7.14-7.73,9.78-18.89,7.63-32.27-1.07-5.91-2.71-14.95,2.36-22.08,2.28-3.2,2.4-6,.35-8a5.89,5.89,0,0,0-4.43-1.82,9.5,9.5,0,0,0-6,3.05c-1.66,1.87-3.52,5.92-2.91,14.58,0,.52.1,1.35.17,2.31.2,2.67.47,6.31.54,7.95a4,4,0,0,1-7.9.33c-.06-1.51-.34-5.23-.53-7.68-.07-1-.13-1.83-.17-2.36-.64-9.15,1-16,4.89-20.38a17.25,17.25,0,0,1,11.61-5.7,13.77,13.77,0,0,1,10.2,4c6,5.71,4.13,13.42.66,18.3-2.9,4.09-2.18,9.74-1,16.17,3.23,20.12-3.44,32.29-9.61,39A40.52,40.52,0,0,1,203.39,447.39Z"/><path d="M221.94,208.25H222l-.36-.06-.86-.17-14.55-2.72-.21,0-.21,0h.05a23.82,23.82,0,0,0-4.94-.32c-18.85.75-34.47,23.47-34.9,50.74l15,2.81c.41-26.11,14.75-48,32.51-50.51l-.08,0,.08,0h.08l-.08,0c12.45,6.78,21,24.2,20.72,45l15,2.81C249.69,231.42,237.86,211.71,221.94,208.25Z"/><path class="cls-4" d="M819.1,376.79,584.24,331.53V449c0,64.85,52.58,127.56,117.43,140.05h0c64.85,12.5,117.43-29.94,117.43-94.79Z"/><path d="M596.08,345.87l211.18,40.7V494.22c0,24.3-8.45,46.17-23.78,61.6C768.38,571,747.26,579.36,724,579.36a106.36,106.36,0,0,1-20.11-2c-28.7-5.53-55.77-22-76.2-46.38S596.08,477.55,596.08,449V345.87m-11.84-14.34V449c0,64.85,52.58,127.56,117.43,140.05A117.54,117.54,0,0,0,724,591.2c54.17,0,95.08-39.77,95.08-97V376.79L584.24,331.53Z"/><rect x="343.12" width="1" height="152.27"/><rect x="343.12" y="408.22" width="1" height="239.79"/><path d="M323.19,133.53a5.5,5.5,0,0,1-1-.09h0a6.39,6.39,0,0,1-5-6V99.92a4.27,4.27,0,0,1,1.51-3.37,4.4,4.4,0,0,1,3.71-.86,6.38,6.38,0,0,1,5,6v27.53a4.15,4.15,0,0,1-4.24,4.32Zm-.79-1.07a3.43,3.43,0,0,0,2.89-.65,3.29,3.29,0,0,0,1.14-2.6V101.68a5.34,5.34,0,0,0-4.22-5,3.41,3.41,0,0,0-2.88.65,3.28,3.28,0,0,0-1.15,2.6v27.53a5.35,5.35,0,0,0,4.22,5Z"/><path d="M323.19,70.58a4.73,4.73,0,0,1-1-.1,6.39,6.39,0,0,1-5-6V37a4.27,4.27,0,0,1,1.51-3.37,4.4,4.4,0,0,1,3.71-.86,6.38,6.38,0,0,1,5,6V66.25a4.16,4.16,0,0,1-4.24,4.33Zm-1.76-36.94a3.22,3.22,0,0,0-2.1.72,3.3,3.3,0,0,0-1.15,2.6V64.49a5.35,5.35,0,0,0,4.22,5,3.43,3.43,0,0,0,2.89-.65,3.27,3.27,0,0,0,1.14-2.6V38.73a5.34,5.34,0,0,0-4.22-5A4.11,4.11,0,0,0,321.43,33.64Z"/><path d="M323.19,7.62a4.73,4.73,0,0,1-1-.1,6.38,6.38,0,0,1-5-6V0h1V1.53a5.35,5.35,0,0,0,4.22,5,3.43,3.43,0,0,0,2.89-.65,3.27,3.27,0,0,0,1.14-2.6V0h1V3.29a4.16,4.16,0,0,1-4.24,4.33Z"/><path d="M323.19,590.63a5.5,5.5,0,0,1-1-.09h0a6.39,6.39,0,0,1-5-6V557a4.27,4.27,0,0,1,1.51-3.37,4.4,4.4,0,0,1,3.71-.86,6.38,6.38,0,0,1,5,6v27.53a4.15,4.15,0,0,1-4.24,4.32Zm-1.76-36.94a3.23,3.23,0,0,0-2.1.73,3.28,3.28,0,0,0-1.15,2.6v27.53a5.35,5.35,0,0,0,4.22,5h0a3.43,3.43,0,0,0,2.89-.65,3.29,3.29,0,0,0,1.14-2.6V558.78a5.34,5.34,0,0,0-4.22-5A4.13,4.13,0,0,0,321.43,553.69Z"/><path d="M327.43,648h-1V621.74a5.34,5.34,0,0,0-4.22-5,3.41,3.41,0,0,0-2.88.65,3.28,3.28,0,0,0-1.15,2.6v28h-1V620a4.27,4.27,0,0,1,1.51-3.37,4.4,4.4,0,0,1,3.71-.86,6.37,6.37,0,0,1,5,6Z"/><path d="M323.19,527.68a4.73,4.73,0,0,1-1-.1,6.39,6.39,0,0,1-5-6V494.06a4.27,4.27,0,0,1,1.51-3.37,4.4,4.4,0,0,1,3.71-.86,6.38,6.38,0,0,1,5,6v27.52a4.16,4.16,0,0,1-4.24,4.33Zm-1.76-36.94a3.22,3.22,0,0,0-2.1.72,3.3,3.3,0,0,0-1.15,2.6v27.53a5.35,5.35,0,0,0,4.22,5,3.43,3.43,0,0,0,2.89-.65,3.27,3.27,0,0,0,1.14-2.6V495.83a5.34,5.34,0,0,0-4.22-5A4.11,4.11,0,0,0,321.43,490.74Z"/><path d="M323.19,464.72a4.73,4.73,0,0,1-1-.1h0a6.38,6.38,0,0,1-5-6V431.11a4.29,4.29,0,0,1,1.51-3.38,4.4,4.4,0,0,1,3.71-.86,6.38,6.38,0,0,1,5,6v27.52a4.16,4.16,0,0,1-4.24,4.33Zm-.79-1.08a3.43,3.43,0,0,0,2.89-.65,3.27,3.27,0,0,0,1.14-2.6V432.87a5.36,5.36,0,0,0-4.22-5,3.41,3.41,0,0,0-2.88.65,3.3,3.3,0,0,0-1.15,2.61v27.52a5.35,5.35,0,0,0,4.22,5Z"/></g><polyline class="cls-3" points="98.65 227.75 302.66 144.15 302.66 0"/><polygon points="98.84 228.21 98.46 227.28 302.16 143.82 302.16 0 303.16 0 303.16 144.49 98.84 228.21"/></g></svg>