<svg xmlns="http://www.w3.org/2000/svg" viewBox="0 0 648 648"><defs><style>.cls-1{fill:#ff5c35;}</style></defs><g id="Graphic"><path d="M535.7,603.15H112.3V179.75H535.7Zm-422.38-1H534.68V180.77H113.32Z"/><path d="M318.94,393.88H123.43V198.37H318.94Zm-194.49-1H317.92V199.39H124.45Z"/><path d="M524.57,393.88H329.06V198.37H524.57Zm-194.49-1H523.55V199.39H330.08Z"/></g><g id="Isolation_Mode" data-name="Isolation Mode"><rect x="81.33" y="45.36" width="485.34" height="142.39"/><path class="cls-1" d="M560.2,51.83V181.28H87.8V51.83H560.2m6.47-6.47H81.33V187.75H566.67V45.36Z"/><rect x="75.26" y="581.77" width="497.48" height="20.87"/><rect y="602.36" width="648" height="0.56"/><path class="cls-1" d="M341.6,148.78,336,138.22l-2.94.7-.2,12a1.29,1.29,0,0,0,1.27,1.32h0a1.29,1.29,0,0,0,1.29-1.27l0-1,3.38-.81.47.89a1.3,1.3,0,0,0,2.3-1.22Zm-6.1-1.54.07-4.26,2,3.76Z"/><path class="cls-1" d="M357,141.45l-6-10.31-2.25,1.31,1.3,7.42-5.8-4.82-2.24,1.3,6,10.31a1.3,1.3,0,0,0,1.12.64,1.26,1.26,0,0,0,.65-.17,1.31,1.31,0,0,0,.48-1.78l-2.2-3.78,3.06,2.53,2.12-1.23-.68-3.91,2.19,3.79a1.3,1.3,0,0,0,2.25-1.3Z"/><path class="cls-1" d="M325.3,150.21h-3.9V139.82h-2.6v13h6.5a1.3,1.3,0,1,0,0-2.59Z"/><path class="cls-1" d="M308.49,137.09,302,147.15a1.3,1.3,0,0,0,2.18,1.4l.55-.84,3.3,1.08-.07,1a1.31,1.31,0,0,0,1.21,1.38h.09a1.31,1.31,0,0,0,1.3-1.21l.77-11.94Zm-2.28,8.36,2.3-3.58-.28,4.25Z"/><path class="cls-1" d="M293.23,143.51a3.68,3.68,0,0,1-3-5.77,1.3,1.3,0,0,1,2.14,1.48,1.08,1.08,0,0,0,1.78,1.23l.37-.54a1.08,1.08,0,0,0-.28-1.51,3.66,3.66,0,0,1-1.53-2.36,3.71,3.71,0,0,1,.59-2.75l.37-.54a3.68,3.68,0,1,1,6.06,4.18,1.3,1.3,0,0,1-2.14-1.47,1.08,1.08,0,0,0,.18-.82,1.13,1.13,0,0,0-.45-.69,1.06,1.06,0,0,0-.81-.17,1,1,0,0,0-.7.45l-.37.53a1.11,1.11,0,0,0-.17.81,1.07,1.07,0,0,0,.45.7,3.68,3.68,0,0,1,.94,5.11l-.37.54A3.68,3.68,0,0,1,293.23,143.51Z"/><circle class="cls-1" cx="370.76" cy="127.69" r="3.46"/><path class="cls-1" d="M373.36,98.25v11.26a2.6,2.6,0,0,1-5.2,0V84.4H359.5v25.11a11.26,11.26,0,0,0,22.52,0V98.25Z"/><path class="cls-1" d="M347.38,109.51a2.6,2.6,0,0,1-5.2,0V98.25h-8.65v11.26a2.6,2.6,0,1,1-5.2,0V98.25h-8.66v5a13.09,13.09,0,0,0-1.48-2.88h0l-5.36-7.65,4.11-5.87-7.09-5-2.3,3.28-4-5.71-7.09,5,5.8,8.29-5.35,7.65h0a12.89,12.89,0,0,0-2,4.73,12.12,12.12,0,1,0-22.63,8.55A12.13,12.13,0,0,0,266,124.2v3.49h8.66V124.2a3.47,3.47,0,0,1,3.47-3.46h4.69c.17,0,.33,0,.5,0a12.14,12.14,0,0,0,11.79-9.34,13,13,0,0,0,24.81.35,11.23,11.23,0,0,0,18,6.58A11.24,11.24,0,0,0,356,109.51V98.25h-8.66Zm-64.08,2.6v0h-.25a3.22,3.22,0,1,1,.25,0Zm24.25,0a4.39,4.39,0,0,1-4.33-4.33,4.32,4.32,0,0,1,.78-2.49h0l3.55-5.06,3.54,5.06h0a4.26,4.26,0,0,1,.79,2.49A4.39,4.39,0,0,1,307.55,112.11Z"/></g></svg>