<svg xmlns="http://www.w3.org/2000/svg" viewBox="0 0 1152 648"><defs><style>.cls-1{fill:#ff5c35;}.cls-2{fill:#fff;}</style></defs><g id="Graphic"><rect x="353.39" y="187.75" width="17.17" height="203.45"/><rect x="781.43" y="187.75" width="17.17" height="203.45"/><rect x="144.18" y="256.8" width="863.65" height="134.39"/><path class="cls-1" d="M999.7,264.93V383.07H152.3V264.93H999.7m8.12-8.13H144.18V391.2h863.64V256.8Z"/><circle class="cls-2" cx="927.41" cy="324" r="36.36"/><path d="M934,330.61H914.19V304.17H934a13.22,13.22,0,1,1,0,26.44ZM920.8,324H934a6.61,6.61,0,1,0,0-13.22H920.8Z"/><path d="M917.49,347.14a3.31,3.31,0,0,1-3.3-3.31V310.78a3.31,3.31,0,1,1,6.61,0v33.05A3.31,3.31,0,0,1,917.49,347.14Z"/><path class="cls-2" d="M607.75,343.83V302.05h14.89a16.58,16.58,0,0,1,8.08,1.77,11.54,11.54,0,0,1,4.79,4.85,15.7,15.7,0,0,1,0,13.83,11.61,11.61,0,0,1-4.81,4.86,16.45,16.45,0,0,1-8.07,1.78H612.38V323.8h9.67a10.27,10.27,0,0,0,5-1.07,6.62,6.62,0,0,0,2.81-2.93,9.59,9.59,0,0,0,.9-4.23,9.46,9.46,0,0,0-.9-4.2,6.53,6.53,0,0,0-2.82-2.88,10.74,10.74,0,0,0-5.07-1h-7.92v36.38Z"/><path class="cls-2" d="M643.55,343.83h-6.69l15-41.78h7.28l15,41.78h-6.69l-11.82-34.19h-.32Zm1.13-16.36h21.7v5.3h-21.7Z"/><path class="cls-2" d="M680.24,343.83V302.05h14.89a17.43,17.43,0,0,1,8.07,1.67,11.17,11.17,0,0,1,4.8,4.62,14,14,0,0,1,1.6,6.81,13.74,13.74,0,0,1-1.61,6.74,10.88,10.88,0,0,1-4.81,4.52,18,18,0,0,1-8.07,1.61H683.83v-5.43h10.71a12.24,12.24,0,0,0,5-.87,5.88,5.88,0,0,0,2.82-2.55,8.4,8.4,0,0,0,.9-4,8.64,8.64,0,0,0-.91-4.1,6,6,0,0,0-2.83-2.67,11.71,11.71,0,0,0-5-.93h-7.92v36.38ZM700.86,325l10.33,18.85H704L693.89,325Z"/><path class="cls-2" d="M717.29,343.83V302.05h6.3V322h.51l17.53-19.95h7.93l-16.85,18.81,16.92,23H742l-13.51-18.67-4.94,5.68v13Z"/><path class="cls-2" d="M761.76,302.05v41.78h-6.3V302.05Z"/><path class="cls-2" d="M804.67,302.05v41.78h-5.79l-21.24-30.64h-.39v30.64H771V302.05h5.83L798,332.73h.39V302.05Z"/><path class="cls-2" d="M842.13,315.25a13,13,0,0,0-1.58-3.34,10.74,10.74,0,0,0-2.36-2.53,10.07,10.07,0,0,0-3.11-1.6,12.55,12.55,0,0,0-3.82-.55,11.56,11.56,0,0,0-6.37,1.82,12.37,12.37,0,0,0-4.48,5.31,23.17,23.17,0,0,0,0,17.15,12.23,12.23,0,0,0,4.53,5.32,12,12,0,0,0,6.55,1.82,12.19,12.19,0,0,0,6-1.39,9.78,9.78,0,0,0,3.94-3.92,12.27,12.27,0,0,0,1.39-6l1.64.3h-12v-5.2h16.42v4.75a17.9,17.9,0,0,1-2.23,9.13,15.32,15.32,0,0,1-6.16,6,20.28,20.28,0,0,1-18.94-.51,17.65,17.65,0,0,1-6.66-7.41A25.45,25.45,0,0,1,812.51,323a27.35,27.35,0,0,1,1.38-9,19.64,19.64,0,0,1,3.91-6.76,16.93,16.93,0,0,1,5.94-4.26,18.55,18.55,0,0,1,7.47-1.48,19.34,19.34,0,0,1,6.32,1,17.1,17.1,0,0,1,5.22,2.83,16,16,0,0,1,5.85,9.94Z"/><path class="cls-2" d="M242.32,321.13h-37.8L222.63,303a2.87,2.87,0,0,0-4.06-4.06l-25,25,25,25a2.87,2.87,0,0,0,4.06-4.06l-18.11-18.11h37.8a2.87,2.87,0,0,0,0-5.74Z"/></g></svg>