<svg xmlns="http://www.w3.org/2000/svg" viewBox="0 0 648 648"><defs><style>.cls-1{fill:#ccc;}.cls-2{fill:none;}</style></defs><g id="Graphic"><rect class="cls-1" x="113.3" y="45.36" width="421.4" height="557.28"/><path d="M394.09,312.55c-3.17-5.5-11.63-5.8-15.8,1.84-2.27,4.16-4.65,6.59-6.81,8l-3.71-6.21,7.13-4-23.48-56.79a34.53,34.53,0,0,0,3.49-3.25c5.59-6.12,11.64-17.15,8.68-35-1-5.4-1.64-10.22,1-14.44,4.77-7.62,2.45-13.34-1-15.92-6.25-4.71-13.38-1.08-17.38,3l-1.64-23.29c-.33-4.69-2.1-8.74-4.84-11.12a10.56,10.56,0,0,0-12.33-1l-.07-.94c-.32-4.62-2.21-8.82-5-11.23a9.94,9.94,0,0,0-7.48-2.36c-5.7.53-9.5,5.91-10.38,11.61a10,10,0,0,0-5.18-.85c-7.57.72-11,8.19-10.53,15.21l.78,11a8.31,8.31,0,0,0-3.65-.42c-6.27.7-9.94,6.52-9.36,14.82L279,226.23h0l0,.69a1.52,1.52,0,0,0,0,.21c1.4,16.65,8.32,26.29,14.7,31.7.4,5.14.42,25-22.06,34.28l-2.86,1.07-20.32,6.23,6.16,20.6,5.94-.73c-1.83,3.78-3.33,9.79-1,18,2,7.13,8.28,8,11.78,6.24,4.63-2.28,7.11-7.11,2.78-13.83-5-7.82-2.94-10.85-1.54-11.89l.41-.05,1.79,5.66,2.35.14c1.63.1,3.19.14,4.71.14,31.94,0,40.17-20.9,40.52-21.83a3.43,3.43,0,0,0-6.42-2.41c-.07.19-7.14,18.12-36.06,17.36l-5.77-18.32h0c21.56-8.87,25.76-26.41,26.35-36.09a24.84,24.84,0,0,0,4.66,1.89,3.72,3.72,0,0,0,.74.08,3.43,3.43,0,0,0,.73-6.78c-.19,0-18.94-5.38-20.87-32.83l-2.47-34.89c-.05-.72-.39-7.11,3.28-7.52a1.54,1.54,0,0,1,1.26.43c1.32,1.1,2.38,3.81,2.57,6.59l.09,1.25,1.4,19.85a3.43,3.43,0,0,0,6.84-.48l-1.23-17.44h0l-.17-2.41-.09-1.25h0l-1.73-24.45c-.21-3,.78-7.57,4.35-7.91a3.08,3.08,0,0,1,2.43.74c1.39,1.18,2.42,3.73,2.61,6.5,0,0,0,0,0,0l2.33,33a3.43,3.43,0,0,0,3.42,3.19H311a3.43,3.43,0,0,0,3.18-3.66l-3-42.67c-.26-3.69,1.92-7.68,4.33-7.9a3,3,0,0,1,2.41.76c1.41,1.2,2.45,3.74,2.64,6.48l3,42.67a3.42,3.42,0,0,0,6.83-.49l-2-28.39a.4.4,0,0,0,0-.11c-.2-2.92.77-7.65,4.27-7.9a3.39,3.39,0,0,1,2.63.81c1.34,1.16,2.29,3.62,2.49,6.42l3.61,51.23c0,.12,0,.24.06.36s0,.17.05.26a2.46,2.46,0,0,0,.14.38c0,.08.05.17.08.24a3.45,3.45,0,0,0,.2.32,3.41,3.41,0,0,0,1,1l.09.07.39.19.19.1.36.1.28.08.32,0a2.85,2.85,0,0,0,.29,0H345a2.84,2.84,0,0,0,.31-.06,1.88,1.88,0,0,0,.33,0,3,3,0,0,0,.32-.12,2.85,2.85,0,0,0,.31-.12l.29-.17.27-.17a2.73,2.73,0,0,0,.25-.23,2.39,2.39,0,0,0,.23-.22,2.78,2.78,0,0,0,.21-.27,2.4,2.4,0,0,0,.18-.26,2.1,2.1,0,0,0,.15-.3,2.75,2.75,0,0,0,.14-.3,3.37,3.37,0,0,0,.09-.34c0-.1,0-.2.07-.31a2.23,2.23,0,0,0,0-.37,2.45,2.45,0,0,0,0-.27c-.06-1.41-.3-4.5-.47-6.77l-.15-2c-.42-5.95.51-10.62,2.7-13.5,1-1.37,5.66-6,9.2-3.3,1.51,1.13,1.24,3.68-.71,6.8-4.28,6.84-2.86,14.37-1.94,19.28,2.5,15.05-2.42,24.16-7,29.16a27.07,27.07,0,0,1-4.23,3.73,3.51,3.51,0,0,0-.7.49c-4.71,3.16-9.77,4.42-13.44,4.15a3.43,3.43,0,0,0-.51,6.84c.53,0,1,.06,1.59.06a28.47,28.47,0,0,0,13-3.51L360.78,296c-.62,1.29-2.6,4.19-8.16,5.31a3.43,3.43,0,0,0,.68,6.79A3.21,3.21,0,0,0,354,308a19.32,19.32,0,0,0,9.79-4.8l2.46,6-2,1.1h0l-14.75,8.23-32.94-44a3.42,3.42,0,1,0-5.48,4.1l36.53,48.81h0L361,345.29l18.12-10.1L376.63,331a31.36,31.36,0,0,0,12.16-4.74C395.73,321.56,395.8,315.52,394.09,312.55Z"/><path d="M307.24,295.2a4.08,4.08,0,0,1-3.32,4.21,3.43,3.43,0,0,0,.61,6.8,3.26,3.26,0,0,0,.62-.06,11,11,0,0,0,8.94-11.06,3.43,3.43,0,0,0-6.85.11Z"/><path d="M309.48,210.25c-1.81.49-2.89,3.08-2.4,5.79s2.34,4.52,4.15,4,2.88-3.08,2.4-5.79S311.29,209.77,309.48,210.25Z"/><path d="M333.73,220.07c1.81-.49,2.88-3.08,2.4-5.79s-2.34-4.51-4.15-4-2.88,3.08-2.4,5.79S331.92,220.56,333.73,220.07Z"/><path d="M314.14,235.29a3.42,3.42,0,0,0,3.4,3.09h.34l11.43-1.13-3.93-17.68a3.43,3.43,0,0,0-6.69,1.49l2.25,10.13-3.73.37A3.42,3.42,0,0,0,314.14,235.29Z"/><path d="M311.85,246.34a3.43,3.43,0,0,0,1.22,4.69,18,18,0,0,0,9.19,2.53,18.47,18.47,0,0,0,4.59-.59A18.07,18.07,0,0,0,338,244.58a3.43,3.43,0,1,0-5.91-3.47,11.33,11.33,0,0,1-15.51,4A3.42,3.42,0,0,0,311.85,246.34Z"/><path d="M358.82,500.13l-11.11-20.9-5.81,1.39-.41,23.67a2.57,2.57,0,0,0,2.52,2.62h.05a2.57,2.57,0,0,0,2.57-2.53l0-2,6.69-1.61.94,1.76a2.57,2.57,0,1,0,4.53-2.41Zm-12.06-3.05.14-8.42,4,7.43Z"/><path d="M389.37,485.62l-11.82-20.39-4.44,2.57,2.56,14.69L364.2,473l-4.44,2.58,11.81,20.39a2.58,2.58,0,0,0,2.23,1.28,2.53,2.53,0,0,0,1.29-.35,2.57,2.57,0,0,0,.93-3.51l-4.34-7.49,6,5,4.21-2.44-1.35-7.74,4.34,7.49a2.57,2.57,0,1,0,4.45-2.57Z"/><path d="M326.57,503h-7.71V482.39h-5.14v25.7h12.85a2.57,2.57,0,1,0,0-5.14Z"/><path d="M293.31,477l-12.8,19.91a2.57,2.57,0,0,0,4.33,2.78l1.08-1.67,6.53,2.15-.13,2a2.57,2.57,0,0,0,2.4,2.73h.17a2.57,2.57,0,0,0,2.56-2.4L299,478.86Zm-4.52,16.55,4.55-7.09-.55,8.41Z"/><path d="M263.1,489.7a7.28,7.28,0,0,1-6-11.42,2.57,2.57,0,0,1,4.23,2.92,2.14,2.14,0,1,0,3.53,2.43l.73-1.06a2.14,2.14,0,0,0-.55-3,7.29,7.29,0,0,1-1.86-10.14l.73-1a7.28,7.28,0,1,1,12,8.26,2.57,2.57,0,1,1-4.23-2.91,2.13,2.13,0,0,0,.34-1.61,2.15,2.15,0,0,0-2.49-1.72,2.13,2.13,0,0,0-1.38.9l-.73,1.05a2.13,2.13,0,0,0-.34,1.61,2.1,2.1,0,0,0,.89,1.37,7.29,7.29,0,0,1,1.86,10.13l-.73,1.06A7.27,7.27,0,0,1,263.1,489.7Z"/><rect class="cls-2" x="209.18" y="345.29" width="229.64" height="137.1"/><circle cx="416.54" cy="458.4" r="6.85"/><path d="M421.68,400.13v22.28a5.14,5.14,0,1,1-10.28,0v-49.7H394.26v49.7a22.28,22.28,0,1,0,44.56,0V400.13Z"/><path d="M370.27,422.41a5.14,5.14,0,0,1-10.28,0V400.13H342.85v22.28a5.14,5.14,0,1,1-10.28,0V400.13H315.43v9.8a25.84,25.84,0,0,0-2.93-5.7h0L301.9,389.1,310,377.49l-14-9.83-4.55,6.51-7.91-11.3-14,9.82L281,389.1l-10.6,15.13h0a25.66,25.66,0,0,0-4,9.36,24,24,0,1,0-44.79,16.91,24,24,0,0,0-12.4,21v6.91h17.14v-6.91a6.85,6.85,0,0,1,6.85-6.85h9.29c.34,0,.66.05,1,.05a24,24,0,0,0,23.32-18.49,25.69,25.69,0,0,0,49.11.69,22.23,22.23,0,0,0,35.53,13,22.24,22.24,0,0,0,36-17.52V400.13H370.27Zm-126.81,5.14v-.05H243a6.47,6.47,0,1,1,.5.05Zm48,0a8.68,8.68,0,0,1-8.57-8.57,8.52,8.52,0,0,1,1.55-4.91h0l7-10,7,10h0A8.52,8.52,0,0,1,300,419,8.68,8.68,0,0,1,291.44,427.55Z"/><rect class="cls-2" x="209.18" y="345.29" width="229.64" height="137.1"/><circle cx="493.45" cy="86.61" r="6.66"/><circle cx="154.55" cy="86.61" r="6.66"/><circle cx="154.55" cy="561.39" r="6.66"/><circle cx="493.45" cy="561.39" r="6.66"/></g></svg>