<svg xmlns="http://www.w3.org/2000/svg" viewBox="0 0 648 648"><defs><style>.cls-1{fill:#ff5c35;}.cls-2{fill:#fff;}.cls-3{fill:none;}</style></defs><g id="Graphic"><rect x="445.44" y="187.75" width="17.17" height="414.89"/><rect class="cls-1" x="375.54" y="45.36" width="156.97" height="261.05"/><path d="M527.53,50.34v251.1h-147V50.34h147m5-5h-157V306.41h157v-261Z"/><circle class="cls-2" cx="454.02" cy="124.37" r="44.35"/><path d="M462.09,132.44h-24.2V100.18h24.2a16.13,16.13,0,1,1,0,32.26ZM446,124.37h16.13a8.06,8.06,0,0,0,0-16.12H446Z"/><path d="M441.93,152.6a4,4,0,0,1-4-4V108.25a4,4,0,1,1,8.07,0v40.32A4,4,0,0,1,441.93,152.6Z"/><path d="M413.07,198.88V184.62h5.08a5.7,5.7,0,0,1,2.76.6,4,4,0,0,1,1.64,1.66,5.43,5.43,0,0,1,0,4.72,4.06,4.06,0,0,1-1.65,1.66,5.68,5.68,0,0,1-2.75.61h-3.5V192H418a3.56,3.56,0,0,0,1.71-.36,2.31,2.31,0,0,0,1-1,3.38,3.38,0,0,0,.31-1.44,3.31,3.31,0,0,0-.31-1.44,2.22,2.22,0,0,0-1-1,3.63,3.63,0,0,0-1.74-.36h-2.7v12.42Z"/><path d="M425.29,198.88H423l5.13-14.26h2.49l5.13,14.26h-2.28l-4-11.67h-.11Zm.39-5.58h7.41v1.81h-7.41Z"/><path d="M437.81,198.88V184.62h5.09a5.93,5.93,0,0,1,2.75.57,3.8,3.8,0,0,1,1.64,1.58,4.82,4.82,0,0,1,.54,2.32,4.74,4.74,0,0,1-.54,2.3,3.69,3.69,0,0,1-1.65,1.54,6,6,0,0,1-2.75.55H439v-1.85h3.66a4.14,4.14,0,0,0,1.7-.3,2,2,0,0,0,1-.87,2.8,2.8,0,0,0,.31-1.37,2.92,2.92,0,0,0-.31-1.4,2,2,0,0,0-1-.91,4,4,0,0,0-1.72-.32H440v12.42Zm7-6.43,3.53,6.43h-2.45l-3.46-6.43Z"/><path d="M450.46,198.88V184.62h2.15v6.81h.18l6-6.81h2.71L455.72,191l5.78,7.84h-2.59l-4.61-6.37-1.69,1.93v4.44Z"/><path d="M465.64,184.62v14.26h-2.15V184.62Z"/><path d="M480.29,184.62v14.26h-2l-7.25-10.46h-.13v10.46h-2.15V184.62h2L478,195.09h.14V184.62Z"/><path d="M493.07,189.12a4.07,4.07,0,0,0-.54-1.13,3.5,3.5,0,0,0-.8-.87,3.56,3.56,0,0,0-1.06-.55,4.56,4.56,0,0,0-1.31-.18,3.87,3.87,0,0,0-2.17.62,4.1,4.1,0,0,0-1.53,1.81,7.92,7.92,0,0,0,0,5.85,4.17,4.17,0,0,0,1.55,1.82,4,4,0,0,0,2.23.62,4.2,4.2,0,0,0,2-.47,3.35,3.35,0,0,0,1.35-1.34,4.17,4.17,0,0,0,.48-2.05l.55.11h-4.08v-1.78h5.61v1.62a6.12,6.12,0,0,1-.77,3.12,5.16,5.16,0,0,1-2.1,2,6.87,6.87,0,0,1-6.46-.18,6,6,0,0,1-2.27-2.53,8.55,8.55,0,0,1-.82-3.89,9.47,9.47,0,0,1,.47-3.07,6.75,6.75,0,0,1,1.34-2.31,5.79,5.79,0,0,1,2-1.45,6.33,6.33,0,0,1,2.56-.51,6.78,6.78,0,0,1,2.15.34,5.78,5.78,0,0,1,1.78,1,5.44,5.44,0,0,1,1.3,1.49,5.36,5.36,0,0,1,.7,1.9Z"/><rect class="cls-3" x="427.52" y="219.75" width="53.01" height="53.01"/><path d="M471.69,249.05H442.6l13.94-13.93a2.21,2.21,0,0,0-3.13-3.13l-19.27,19.27,19.27,19.27a2.21,2.21,0,0,0,1.56.65,2.24,2.24,0,0,0,1.57-.65,2.21,2.21,0,0,0,0-3.12L442.6,253.47h29.09a2.21,2.21,0,0,0,0-4.42Z"/><rect x="185.39" y="187.75" width="17.17" height="414.89"/><rect x="115.49" y="45.36" width="156.97" height="261.05"/><path class="cls-1" d="M267.48,50.34v251.1h-147V50.34h147m5-5h-157V306.41h157v-261Z"/><circle class="cls-2" cx="193.98" cy="157.68" r="44.35"/><path d="M202,165.74H177.85V133.48H202a16.13,16.13,0,0,1,0,32.26Zm-16.13-8.06H202a8.07,8.07,0,1,0,0-16.13H185.91Z"/><path d="M181.88,185.9a4,4,0,0,1-4-4V141.55a4,4,0,0,1,8.06,0v40.32A4,4,0,0,1,181.88,185.9Z"/><path class="cls-2" d="M153,232.18V217.92h5.09a5.58,5.58,0,0,1,2.76.61,3.93,3.93,0,0,1,1.63,1.65,5.34,5.34,0,0,1,0,4.72,4,4,0,0,1-1.64,1.66,5.61,5.61,0,0,1-2.76.61h-3.5v-1.83h3.31a3.49,3.49,0,0,0,1.7-.36,2.21,2.21,0,0,0,1-1,3.5,3.5,0,0,0,0-2.88,2.21,2.21,0,0,0-1-1,3.74,3.74,0,0,0-1.73-.35h-2.7v12.41Z"/><path class="cls-2" d="M165.25,232.18H163l5.13-14.26h2.49l5.13,14.26h-2.28l-4-11.67h-.12Zm.38-5.58H173v1.81h-7.41Z"/><path class="cls-2" d="M177.77,232.18V217.92h5.08a5.9,5.9,0,0,1,2.75.57,3.75,3.75,0,0,1,1.64,1.58,4.71,4.71,0,0,1,.55,2.32,4.61,4.61,0,0,1-.55,2.3,3.68,3.68,0,0,1-1.64,1.55,6.22,6.22,0,0,1-2.76.55H179v-1.86h3.66a4.14,4.14,0,0,0,1.7-.3,2,2,0,0,0,1-.87,2.89,2.89,0,0,0,.3-1.37,3,3,0,0,0-.31-1.4,2,2,0,0,0-1-.91,4,4,0,0,0-1.72-.31h-2.7v12.41Zm7-6.43,3.52,6.43h-2.45l-3.45-6.43Z"/><path class="cls-2" d="M190.41,232.18V217.92h2.16v6.81h.17l6-6.81h2.71l-5.75,6.42,5.77,7.84h-2.59l-4.61-6.37-1.68,1.94v4.43Z"/><path class="cls-2" d="M205.59,217.92v14.26h-2.15V217.92Z"/><path class="cls-2" d="M220.24,217.92v14.26h-2L211,221.72h-.13v10.46h-2.15V217.92h2L218,228.4h.13V217.92Z"/><path class="cls-2" d="M233,222.43a4.62,4.62,0,0,0-.54-1.14,3.74,3.74,0,0,0-.81-.87,3.42,3.42,0,0,0-1.06-.54,4.19,4.19,0,0,0-1.31-.19,4,4,0,0,0-2.17.62,4.3,4.3,0,0,0-1.53,1.81,6.93,6.93,0,0,0-.56,2.93,6.8,6.8,0,0,0,.57,2.93,4.12,4.12,0,0,0,1.54,1.81,4.06,4.06,0,0,0,2.24.62,4.14,4.14,0,0,0,2-.47,3.26,3.26,0,0,0,1.34-1.34,4.16,4.16,0,0,0,.48-2l.56.1h-4.09v-1.77h5.61v1.62a6.08,6.08,0,0,1-.76,3.11,5.28,5.28,0,0,1-2.1,2,6.92,6.92,0,0,1-6.47-.17,6.07,6.07,0,0,1-2.27-2.53,8.76,8.76,0,0,1-.82-3.9,9.1,9.1,0,0,1,.48-3.06,6.55,6.55,0,0,1,1.33-2.31,5.76,5.76,0,0,1,2-1.46,6.31,6.31,0,0,1,2.55-.5,6.61,6.61,0,0,1,2.16.34,5.69,5.69,0,0,1,1.78,1,5.38,5.38,0,0,1,2,3.39Z"/></g><g id="Isolation_Mode" data-name="Isolation Mode"><rect y="602.14" width="648" height="1"/></g></svg>