<svg xmlns="http://www.w3.org/2000/svg" viewBox="0 0 648 648"><defs><style>.cls-1{fill:#fff;}.cls-2{fill:#fd5d41;}</style></defs><g id="Isolation_Mode" data-name="Isolation Mode"><path d="M231.38,326.08H83.45V169.59H231.38Zm-146.93-1H230.38V170.59H84.45Z"/><path d="M564.55,326.08H416.62V169.59H564.55Zm-146.93-1H563.55V170.59H417.62Z"/><path d="M399.35,326.08H251.42V139.25H399.35Zm-146.93-1H398.35V140.25H252.42Z"/><path d="M231.38,588.81H83.45V432.32H231.38Zm-146.93-1H230.38V433.32H84.45Z"/><path d="M564.55,588.81H455.45V432.32h109.1Zm-108.1-1h107.1V433.32H456.45Z"/><path d="M440.53,588.81H331.43V461.42h109.1Zm-108.1-1h107.1V462.42H332.43Z"/><path d="M310.13,588.81H251.42V402h58.71Zm-57.71-1h56.71V403H252.42Z"/><path d="M598.24,653.11H563.55V44.86h34.69Zm-33.69-1h32.69V45.86H564.55Z"/><path d="M84.45,653.11H49.76V44.86H84.45Zm-33.69-1H83.45V45.86H50.76Z"/><rect class="cls-1" x="50.26" y="45.36" width="547.48" height="33.69"/><path d="M598.24,79.55H49.76V44.86H598.24Zm-547.48-1H597.24V45.86H50.76Z"/><rect class="cls-2" x="50.26" y="568.95" width="547.48" height="33.69"/><path d="M598.1,603H49.9V568.59H598.1Zm-547.48-.72H597.38v-33H50.62Z"/><rect class="cls-2" x="50.26" y="307.08" width="547.48" height="33.69"/><path d="M598.1,341.12H49.9v-34.4H598.1ZM50.62,340.4H597.38v-33H50.62Z"/><path d="M67.1,131.77A5.15,5.15,0,0,1,62,126.63v-21.1a5.14,5.14,0,0,1,10.28,0v21.1A5.14,5.14,0,0,1,67.1,131.77Zm0-30.38A4.14,4.14,0,0,0,63,105.53v21.1a4.14,4.14,0,0,0,8.28,0v-21.1A4.14,4.14,0,0,0,67.1,101.39Z"/><path d="M67.1,182.47A5.15,5.15,0,0,1,62,177.33V156.22a5.14,5.14,0,0,1,10.28,0v21.11A5.14,5.14,0,0,1,67.1,182.47Zm0-30.39A4.15,4.15,0,0,0,63,156.22v21.11a4.14,4.14,0,0,0,8.28,0V156.22A4.15,4.15,0,0,0,67.1,152.08Z"/><path d="M67.1,233.17A5.15,5.15,0,0,1,62,228v-21.1a5.14,5.14,0,0,1,10.28,0V228A5.15,5.15,0,0,1,67.1,233.17Zm0-30.39A4.15,4.15,0,0,0,63,206.92V228a4.14,4.14,0,1,0,8.28,0v-21.1A4.15,4.15,0,0,0,67.1,202.78Z"/><path d="M67.1,283.86A5.14,5.14,0,0,1,62,278.72v-21.1a5.14,5.14,0,0,1,10.28,0v21.1A5.14,5.14,0,0,1,67.1,283.86Zm0-30.38A4.15,4.15,0,0,0,63,257.62v21.1a4.14,4.14,0,0,0,8.28,0v-21.1A4.15,4.15,0,0,0,67.1,253.48Z"/><path d="M67.1,394.5A5.14,5.14,0,0,1,62,389.36v-21.1a5.14,5.14,0,0,1,10.28,0v21.1A5.14,5.14,0,0,1,67.1,394.5Zm0-30.38A4.15,4.15,0,0,0,63,368.26v21.1a4.14,4.14,0,0,0,8.28,0v-21.1A4.15,4.15,0,0,0,67.1,364.12Z"/><path d="M67.1,445.2A5.14,5.14,0,0,1,62,440.06V419a5.14,5.14,0,0,1,10.28,0v21.1A5.14,5.14,0,0,1,67.1,445.2Zm0-30.38A4.14,4.14,0,0,0,63,419v21.1a4.14,4.14,0,0,0,8.28,0V419A4.14,4.14,0,0,0,67.1,414.82Z"/><path d="M67.1,495.9A5.15,5.15,0,0,1,62,490.76v-21.1a5.14,5.14,0,1,1,10.28,0v21.1A5.14,5.14,0,0,1,67.1,495.9Zm0-30.39A4.15,4.15,0,0,0,63,469.66v21.1a4.14,4.14,0,0,0,8.28,0v-21.1A4.15,4.15,0,0,0,67.1,465.51Z"/><path d="M67.1,546.6A5.15,5.15,0,0,1,62,541.46V520.35a5.14,5.14,0,0,1,10.28,0v21.11A5.14,5.14,0,0,1,67.1,546.6Zm0-30.39A4.15,4.15,0,0,0,63,520.35v21.11a4.14,4.14,0,0,0,8.28,0V520.35A4.15,4.15,0,0,0,67.1,516.21Z"/><path d="M580.9,131.77a5.14,5.14,0,0,1-5.14-5.14v-21.1a5.14,5.14,0,0,1,10.28,0v21.1A5.15,5.15,0,0,1,580.9,131.77Zm0-30.38a4.14,4.14,0,0,0-4.14,4.14v21.1a4.14,4.14,0,0,0,8.28,0v-21.1A4.14,4.14,0,0,0,580.9,101.39Z"/><path d="M580.9,182.47a5.14,5.14,0,0,1-5.14-5.14V156.22a5.14,5.14,0,0,1,10.28,0v21.11A5.15,5.15,0,0,1,580.9,182.47Zm0-30.39a4.15,4.15,0,0,0-4.14,4.14v21.11a4.14,4.14,0,0,0,8.28,0V156.22A4.15,4.15,0,0,0,580.9,152.08Z"/><path d="M580.9,233.17a5.15,5.15,0,0,1-5.14-5.15v-21.1a5.14,5.14,0,0,1,10.28,0V228A5.15,5.15,0,0,1,580.9,233.17Zm0-30.39a4.15,4.15,0,0,0-4.14,4.14V228a4.14,4.14,0,1,0,8.28,0v-21.1A4.15,4.15,0,0,0,580.9,202.78Z"/><path d="M580.9,283.86a5.14,5.14,0,0,1-5.14-5.14v-21.1a5.14,5.14,0,0,1,10.28,0v21.1A5.14,5.14,0,0,1,580.9,283.86Zm0-30.38a4.15,4.15,0,0,0-4.14,4.14v21.1a4.14,4.14,0,0,0,8.28,0v-21.1A4.15,4.15,0,0,0,580.9,253.48Z"/><path d="M580.9,394.5a5.14,5.14,0,0,1-5.14-5.14v-21.1a5.14,5.14,0,0,1,10.28,0v21.1A5.14,5.14,0,0,1,580.9,394.5Zm0-30.38a4.15,4.15,0,0,0-4.14,4.14v21.1a4.14,4.14,0,0,0,8.28,0v-21.1A4.15,4.15,0,0,0,580.9,364.12Z"/><path d="M580.9,445.2a5.14,5.14,0,0,1-5.14-5.14V419A5.14,5.14,0,0,1,586,419v21.1A5.14,5.14,0,0,1,580.9,445.2Zm0-30.38a4.14,4.14,0,0,0-4.14,4.14v21.1a4.14,4.14,0,0,0,8.28,0V419A4.14,4.14,0,0,0,580.9,414.82Z"/><path d="M580.9,495.9a5.14,5.14,0,0,1-5.14-5.14v-21.1a5.14,5.14,0,1,1,10.28,0v21.1A5.15,5.15,0,0,1,580.9,495.9Zm0-30.39a4.15,4.15,0,0,0-4.14,4.15v21.1a4.14,4.14,0,0,0,8.28,0v-21.1A4.15,4.15,0,0,0,580.9,465.51Z"/><path d="M580.9,546.6a5.14,5.14,0,0,1-5.14-5.14V520.35a5.14,5.14,0,0,1,10.28,0v21.11A5.15,5.15,0,0,1,580.9,546.6Zm0-30.39a4.15,4.15,0,0,0-4.14,4.14v21.11a4.14,4.14,0,0,0,8.28,0V520.35A4.15,4.15,0,0,0,580.9,516.21Z"/><path d="M87.47,332.4a1.11,1.11,0,0,0-2,.23,2.69,2.69,0,0,1-.86,1l-.46-.78.89-.49-2.94-7.11a3.44,3.44,0,0,0,.44-.41,5,5,0,0,0,1.09-4.37,2.42,2.42,0,0,1,.12-1.81c.6-1,.31-1.67-.12-2a1.63,1.63,0,0,0-2.17.38l-.21-2.92a2,2,0,0,0-.61-1.39,1.25,1.25,0,0,0-1-.31,1.42,1.42,0,0,0-.59.19v-.12a2,2,0,0,0-.63-1.4,1.22,1.22,0,0,0-.93-.3,1.6,1.6,0,0,0-1.3,1.46,1.2,1.2,0,0,0-.65-.11,1.63,1.63,0,0,0-1.32,1.9l.1,1.38a1,1,0,0,0-.46-.05c-.78.09-1.24.82-1.17,1.85l.31,4.37h0v.11a5.58,5.58,0,0,0,1.84,4A4.2,4.2,0,0,1,72.16,330l-.36.13-2.54.78.77,2.58.74-.09a3.09,3.09,0,0,0-.12,2.25,1.06,1.06,0,0,0,1.48.78c.57-.29.88-.89.34-1.73s-.36-1.36-.19-1.49h0l.23.7.29,0,.59,0c4,0,5-2.62,5.07-2.73a.43.43,0,0,0-.25-.55.41.41,0,0,0-.55.25s-.9,2.26-4.52,2.17l-.72-2.29h0a5,5,0,0,0,3.3-4.52,3.16,3.16,0,0,0,.58.23l.1,0a.45.45,0,0,0,.42-.34.43.43,0,0,0-.33-.51s-2.37-.68-2.61-4.11l-.31-4.37c0-.09-.05-.89.41-.94a.21.21,0,0,1,.16.06,1.3,1.3,0,0,1,.32.82v.16l.17,2.48a.44.44,0,0,0,.46.4.43.43,0,0,0,.4-.46l-.15-2.18h0l0-.3v-.16h0L75.15,314c0-.37.09-.95.54-1a.42.42,0,0,1,.31.09,1.24,1.24,0,0,1,.32.82h0l.29,4.13a.43.43,0,0,0,.43.4h0a.42.42,0,0,0,.4-.46l-.38-5.33c0-.47.24-1,.55-1a.41.41,0,0,1,.3.09,1.29,1.29,0,0,1,.33.81l.38,5.34a.43.43,0,1,0,.85-.06l-.25-3.55v0c0-.36.1-.95.53-1a.41.41,0,0,1,.33.1,1.16,1.16,0,0,1,.31.8l.46,6.41v0a0,0,0,0,1,0,0s0,0,0,.05a0,0,0,0,0,0,0s0,0,0,0a.46.46,0,0,0,.12.12h0l0,0h.37l0,0,0,0,0,0,0,0,0,0,0,0,0,0,0,0s0,0,0-.05,0,0,0,0v-.08c0-.17,0-.56,0-.84l0-.26a2.49,2.49,0,0,1,.33-1.68c.13-.18.71-.75,1.16-.42.18.14.15.46-.09.85a3.26,3.26,0,0,0-.25,2.42,4.1,4.1,0,0,1-.87,3.64,3.25,3.25,0,0,1-.53.47l-.09.06a2.74,2.74,0,0,1-1.68.52.43.43,0,0,0-.46.4.43.43,0,0,0,.4.46h.2a3.67,3.67,0,0,0,1.63-.43l1.9,4.59a1.36,1.36,0,0,1-1,.66.43.43,0,0,0,.08.85h.09a2.32,2.32,0,0,0,1.22-.6L84,332l-.25.14h0l-1.84,1-4.12-5.51a.44.44,0,0,0-.61-.09.44.44,0,0,0-.08.6l4.57,6.11h0l1.67,2.24,2.27-1.27-.31-.52a3.86,3.86,0,0,0,1.52-.59C87.68,333.53,87.69,332.77,87.47,332.4Z"/><path d="M76.61,330.23a.52.52,0,0,1-.42.53.41.41,0,0,0-.34.49.43.43,0,0,0,.42.36h.08a1.37,1.37,0,0,0,1.12-1.39.44.44,0,0,0-.44-.42A.43.43,0,0,0,76.61,330.23Z"/><path d="M76.89,319.6c-.23.06-.36.38-.3.72s.29.57.52.51.36-.39.3-.73S77.11,319.54,76.89,319.6Z"/><path d="M79.92,320.83c.23-.06.36-.39.3-.73s-.29-.56-.52-.5-.36.38-.3.72S79.7,320.89,79.92,320.83Z"/><path d="M77.47,322.73a.43.43,0,0,0,.43.39h0l1.43-.14-.49-2.22a.43.43,0,0,0-.52-.32A.43.43,0,0,0,78,321l.28,1.27-.47,0A.44.44,0,0,0,77.47,322.73Z"/><path d="M77.18,324.11a.43.43,0,0,0,.16.59,2.27,2.27,0,0,0,3.11-.81.42.42,0,0,0-.15-.58.44.44,0,0,0-.59.15,1.37,1.37,0,0,1-.86.65,1.41,1.41,0,0,1-1.08-.15A.44.44,0,0,0,77.18,324.11Z"/><path d="M143.81,331.54l-1.27-2.39-.67.16-.05,2.71a.31.31,0,0,0,.29.3h0a.29.29,0,0,0,.29-.29v-.23l.76-.18.11.2a.3.3,0,0,0,.52-.28Zm-1.38-.35v-1l.46.85Z"/><path d="M147.31,329.88,146,327.54l-.5.3.29,1.68-1.31-1.09-.51.29,1.35,2.34a.3.3,0,0,0,.26.15.33.33,0,0,0,.14,0,.31.31,0,0,0,.11-.41l-.5-.86.69.58.49-.28-.16-.89.5.86a.29.29,0,0,0,.51-.29Z"/><path d="M140.11,331.86h-.88v-2.35h-.59v2.94h1.47a.29.29,0,0,0,.3-.29A.3.3,0,0,0,140.11,331.86Z"/><path d="M136.3,328.89l-1.46,2.28a.3.3,0,0,0,.08.41.29.29,0,0,0,.41-.09l.13-.19.74.24v.23a.29.29,0,0,0,.27.31h0a.3.3,0,0,0,.3-.28l.17-2.71Zm-.52,1.9.53-.82-.07,1Z"/><path d="M132.84,330.35a.82.82,0,0,1-.47-.15.84.84,0,0,1-.22-1.16.3.3,0,0,1,.49.33.24.24,0,1,0,.4.28l.09-.12a.24.24,0,0,0-.07-.34.85.85,0,0,1-.34-.54.8.8,0,0,1,.13-.62l.08-.12a.82.82,0,0,1,.54-.35.88.88,0,0,1,.63.13.85.85,0,0,1,.34.54.8.8,0,0,1-.13.62.29.29,0,0,1-.41.08.3.3,0,0,1-.08-.41.22.22,0,0,0,0-.19.2.2,0,0,0-.1-.15.23.23,0,0,0-.18,0,.25.25,0,0,0-.16.1l-.08.12a.24.24,0,0,0,0,.18.2.2,0,0,0,.1.16.83.83,0,0,1,.21,1.16l-.08.12A.82.82,0,0,1,132.84,330.35Z"/><circle cx="150.42" cy="326.76" r="0.79"/><path d="M151,320.08v2.55a.58.58,0,0,1-.59.59.59.59,0,0,1-.59-.59v-5.69h-2v5.69a2.55,2.55,0,1,0,5.1,0v-2.55Z"/><path d="M145.12,322.63a.58.58,0,0,1-.59.59.59.59,0,0,1-.59-.59v-2.55h-2v2.55a.59.59,0,0,1-.59.59.58.58,0,0,1-.59-.59v-2.55h-2v1.12a3.67,3.67,0,0,0-.34-.65h0l-1.21-1.73.93-1.33-1.61-1.13-.52.75-.91-1.3-1.61,1.13,1.32,1.88-1.21,1.73h0a2.9,2.9,0,0,0-.46,1.07,2.75,2.75,0,1,0-5.14,1.94,2.76,2.76,0,0,0-1.42,2.41v.79h2V326a.78.78,0,0,1,.78-.79h1.18a2.75,2.75,0,0,0,2.67-2.12,2.95,2.95,0,0,0,5.63.08,2.54,2.54,0,0,0,4.07,1.49,2.54,2.54,0,0,0,4.12-2v-2.55h-2Zm-14.53.59h-.06a.82.82,0,1,1,.06,0Zm5.5,0a1,1,0,0,1-.81-1.54h0l.81-1.15.8,1.15h0a.94.94,0,0,1,.18.56A1,1,0,0,1,136.09,323.22Z"/><path d="M210.26,332.4a1.11,1.11,0,0,0-2,.23,2.68,2.68,0,0,1-.85,1l-.46-.78.89-.49-2.94-7.11a4.27,4.27,0,0,0,.44-.41,5,5,0,0,0,1.09-4.37,2.42,2.42,0,0,1,.12-1.81c.6-1,.31-1.67-.12-2a1.64,1.64,0,0,0-2.18.38l-.2-2.92a2,2,0,0,0-.61-1.39,1.25,1.25,0,0,0-1-.31,1.37,1.37,0,0,0-.59.19v-.12a2,2,0,0,0-.63-1.4,1.24,1.24,0,0,0-.94-.3,1.6,1.6,0,0,0-1.29,1.46,1.2,1.2,0,0,0-.65-.11,1.63,1.63,0,0,0-1.32,1.9l.1,1.38a1,1,0,0,0-.46-.05c-.78.09-1.24.82-1.17,1.85l.31,4.37h0v.09s0,0,0,0a5.55,5.55,0,0,0,1.84,4A4.2,4.2,0,0,1,195,330l-.36.13-2.54.78.77,2.58.74-.09a3,3,0,0,0-.12,2.25,1.05,1.05,0,0,0,1.47.78c.58-.29.89-.89.35-1.73s-.37-1.36-.19-1.49h.05l.22.7.3,0,.59,0c4,0,5-2.62,5.07-2.73a.43.43,0,0,0-.25-.55.42.42,0,0,0-.56.25s-.89,2.26-4.51,2.17l-.72-2.29h0a5.06,5.06,0,0,0,3.3-4.52,2.87,2.87,0,0,0,.58.23l.09,0a.43.43,0,0,0,.1-.85s-2.37-.68-2.62-4.11l-.3-4.37c0-.09,0-.89.41-.94a.18.18,0,0,1,.15.06,1.25,1.25,0,0,1,.33.82v.16l.17,2.48a.43.43,0,1,0,.86-.06l-.16-2.18h0l0-.3v-.16h0l-.21-3.06c0-.37.09-.95.54-1a.4.4,0,0,1,.3.09,1.2,1.2,0,0,1,.33.82h0l.29,4.13a.43.43,0,0,0,.43.4h0a.43.43,0,0,0,.4-.46l-.38-5.33c0-.47.24-1,.54-1a.39.39,0,0,1,.3.09,1.24,1.24,0,0,1,.34.81l.37,5.34a.44.44,0,0,0,.46.4.43.43,0,0,0,.4-.46l-.25-3.55v0c0-.36.09-.95.53-1a.41.41,0,0,1,.33.1,1.16,1.16,0,0,1,.31.8l.45,6.41a.09.09,0,0,1,0,0,0,0,0,0,0,0,0s0,0,0,.05l0,0,0,0a.34.34,0,0,0,.12.12h0l0,0h.37l0,0,0,0,0,0,0,0,0,0,0,0,0,0,0,0a.09.09,0,0,1,0-.05.08.08,0,0,1,0,0v-.08c0-.17,0-.56-.06-.84l0-.26a2.55,2.55,0,0,1,.34-1.68c.13-.18.71-.75,1.15-.42.19.14.16.46-.09.85a3.3,3.3,0,0,0-.24,2.42,4.13,4.13,0,0,1-.87,3.64,3.25,3.25,0,0,1-.53.47l-.09.06a2.74,2.74,0,0,1-1.68.52.43.43,0,0,0-.46.4.43.43,0,0,0,.39.46h.2a3.61,3.61,0,0,0,1.63-.43l1.9,4.59a1.31,1.31,0,0,1-1,.66.43.43,0,0,0,.09.85h.08a2.36,2.36,0,0,0,1.23-.6l.31.75-.25.14h0l-1.85,1-4.12-5.51a.43.43,0,0,0-.6-.09.42.42,0,0,0-.08.6l4.57,6.11h0l1.67,2.24,2.27-1.27-.31-.52a3.92,3.92,0,0,0,1.52-.59C210.47,333.53,210.48,332.77,210.26,332.4Z"/><path d="M199.39,330.23a.51.51,0,0,1-.41.53.43.43,0,0,0-.35.49.44.44,0,0,0,.43.36h.07a1.37,1.37,0,0,0,1.12-1.39.42.42,0,0,0-.43-.42A.44.44,0,0,0,199.39,330.23Z"/><path d="M199.67,319.6c-.22.06-.36.38-.3.72s.3.57.52.51.36-.39.3-.73S199.9,319.54,199.67,319.6Z"/><path d="M202.71,320.83c.23-.06.36-.39.3-.73s-.29-.56-.52-.5-.36.38-.3.72S202.48,320.89,202.71,320.83Z"/><path d="M200.26,322.73a.43.43,0,0,0,.42.39h0l1.43-.14-.5-2.22a.43.43,0,0,0-.83.19l.28,1.27-.47,0A.43.43,0,0,0,200.26,322.73Z"/><path d="M200,324.11a.43.43,0,0,0,.15.59,2.2,2.2,0,0,0,1.73.24,2.23,2.23,0,0,0,1.39-1.05.42.42,0,0,0-.15-.58.43.43,0,0,0-.59.15,1.37,1.37,0,0,1-.87.65,1.39,1.39,0,0,1-1.07-.15A.43.43,0,0,0,200,324.11Z"/><path d="M266.6,331.54l-1.28-2.39-.66.16-.05,2.71a.31.31,0,0,0,.29.3h0a.29.29,0,0,0,.3-.29v-.23l.77-.18.11.2a.28.28,0,0,0,.39.12A.3.3,0,0,0,266.6,331.54Zm-1.39-.35,0-1,.45.85Z"/><path d="M270.1,329.88l-1.36-2.34-.51.3.3,1.68-1.32-1.09-.51.29,1.36,2.34a.29.29,0,0,0,.25.15.42.42,0,0,0,.15,0,.31.31,0,0,0,.11-.41l-.5-.86.69.58.48-.28-.15-.89.5.86a.29.29,0,0,0,.51-.29Z"/><path d="M262.9,331.86H262v-2.35h-.59v2.94h1.47a.3.3,0,0,0,.3-.29A.31.31,0,0,0,262.9,331.86Z"/><path d="M259.09,328.89l-1.47,2.28a.31.31,0,0,0,.09.41.29.29,0,0,0,.41-.09l.12-.19.75.24v.23a.29.29,0,0,0,.27.31h0a.29.29,0,0,0,.29-.28l.18-2.71Zm-.52,1.9.52-.82-.06,1Z"/><path d="M255.63,330.35a.8.8,0,0,1-.47-.15.84.84,0,0,1-.22-1.16.3.3,0,0,1,.49.33.24.24,0,1,0,.4.28l.08-.12a.24.24,0,0,0-.06-.34.9.9,0,0,1-.35-.54.8.8,0,0,1,.14-.62l.08-.12a.82.82,0,0,1,.54-.35.84.84,0,0,1,.62.13.82.82,0,0,1,.35.54.84.84,0,0,1-.13.62.3.3,0,1,1-.49-.33.26.26,0,0,0,0-.19.23.23,0,0,0-.1-.15.26.26,0,0,0-.19,0,.23.23,0,0,0-.15.1l-.09.12a.3.3,0,0,0,0,.18.24.24,0,0,0,.11.16.83.83,0,0,1,.21,1.16l-.08.12A.85.85,0,0,1,255.63,330.35Z"/><circle cx="273.21" cy="326.76" r="0.79"/><path d="M273.8,320.08v2.55a.59.59,0,0,1-.59.59.58.58,0,0,1-.59-.59v-5.69h-2v5.69a2.55,2.55,0,1,0,5.1,0v-2.55Z"/><path d="M267.91,322.63a.59.59,0,0,1-.59.59.58.58,0,0,1-.59-.59v-2.55h-2v2.55a.59.59,0,0,1-.59.59.58.58,0,0,1-.59-.59v-2.55h-2v1.12a3.06,3.06,0,0,0-.33-.65h0l-1.22-1.73.94-1.33-1.61-1.13-.52.75-.91-1.3-1.61,1.13,1.32,1.88-1.22,1.73h0a3.08,3.08,0,0,0-.46,1.07,2.75,2.75,0,0,0-5.37.82,2.78,2.78,0,0,0,.24,1.12,2.76,2.76,0,0,0-1.42,2.41v.79h2V326a.79.79,0,0,1,.79-.79h1.18a2.75,2.75,0,0,0,2.67-2.12,2.95,2.95,0,0,0,5.63.08,2.54,2.54,0,0,0,4.07,1.49,2.54,2.54,0,0,0,4.12-2v-2.55h-2Zm-14.53.59h-.06a.81.81,0,1,1,.06,0Zm5.5,0a1,1,0,0,1-1-1,1,1,0,0,1,.18-.56h0l.81-1.15.8,1.15h0a.94.94,0,0,1,.18.56A1,1,0,0,1,258.88,323.22Z"/><path d="M333.05,332.4a1.11,1.11,0,0,0-2,.23,2.68,2.68,0,0,1-.85,1l-.46-.78.89-.49-2.94-7.11a5.62,5.62,0,0,0,.44-.41,5,5,0,0,0,1.08-4.37,2.47,2.47,0,0,1,.13-1.81,1.42,1.42,0,0,0-.12-2,1.64,1.64,0,0,0-2.18.38l-.2-2.92a2.07,2.07,0,0,0-.61-1.39,1.25,1.25,0,0,0-.95-.31,1.37,1.37,0,0,0-.59.19v-.12a2,2,0,0,0-.63-1.4,1.24,1.24,0,0,0-.94-.3,1.61,1.61,0,0,0-1.3,1.46,1.2,1.2,0,0,0-.65-.11,1.63,1.63,0,0,0-1.31,1.9l.09,1.38a1,1,0,0,0-.45-.05c-.79.09-1.25.82-1.17,1.85l.31,4.37h0v.11a5.55,5.55,0,0,0,1.84,4,4.2,4.2,0,0,1-2.76,4.29l-.36.13-2.55.78.78,2.58.74-.09a3,3,0,0,0-.12,2.25,1.05,1.05,0,0,0,1.47.78c.58-.29.89-.89.35-1.73s-.37-1.36-.2-1.49h.06l.22.7.29,0,.59,0c4,0,5-2.62,5.07-2.73a.42.42,0,0,0-.25-.55.41.41,0,0,0-.55.25s-.89,2.26-4.51,2.17l-.72-2.29h0a5.06,5.06,0,0,0,3.3-4.52,2.87,2.87,0,0,0,.58.23l.09,0a.43.43,0,0,0,.09-.85s-2.37-.68-2.61-4.11l-.31-4.37c0-.09-.05-.89.41-.94a.21.21,0,0,1,.16.06,1.2,1.2,0,0,1,.32.82v.16l.18,2.48a.43.43,0,0,0,.46.4.43.43,0,0,0,.39-.46l-.15-2.18h0l0-.3v-.16h0l-.22-3.06c0-.37.1-.95.55-1a.4.4,0,0,1,.3.09,1.3,1.3,0,0,1,.33.82h0l.29,4.13a.43.43,0,0,0,.43.4h0a.44.44,0,0,0,.4-.46l-.38-5.33c0-.47.24-1,.54-1a.4.4,0,0,1,.3.09,1.19,1.19,0,0,1,.33.81l.38,5.34a.43.43,0,0,0,.46.4.44.44,0,0,0,.4-.46l-.26-3.55s0,0,0,0c0-.36.09-.95.53-1a.42.42,0,0,1,.33.1,1.21,1.21,0,0,1,.31.8l.45,6.41s0,0,0,0v0s0,0,0,.05a0,0,0,0,1,0,0l0,0a.34.34,0,0,0,.12.12h0l.05,0h.37l0,0,0,0,0,0,0,0,0,0,0,0a.08.08,0,0,1,0,0v0a.09.09,0,0,0,0-.05s0,0,0,0a.06.06,0,0,0,0,0v0c0-.17,0-.56-.06-.84l0-.26a2.55,2.55,0,0,1,.34-1.68c.13-.18.71-.75,1.15-.42.19.14.16.46-.09.85a3.25,3.25,0,0,0-.24,2.42,4.09,4.09,0,0,1-.88,3.64,2.59,2.59,0,0,1-.53.47l-.08.06a2.76,2.76,0,0,1-1.68.52.42.42,0,0,0-.46.4.43.43,0,0,0,.39.46h.2a3.67,3.67,0,0,0,1.63-.43l1.9,4.59a1.33,1.33,0,0,1-1,.66.45.45,0,0,0-.34.51.44.44,0,0,0,.42.34H328a2.36,2.36,0,0,0,1.23-.6l.3.75-.24.14h0l-1.85,1-4.12-5.51a.43.43,0,0,0-.69.51l4.57,6.11h0l1.68,2.24,2.27-1.27-.32-.52a3.9,3.9,0,0,0,1.53-.59A1.35,1.35,0,0,0,333.05,332.4Z"/><path d="M322.18,330.23a.51.51,0,0,1-.41.53.42.42,0,0,0-.35.49.44.44,0,0,0,.42.36h.08a1.37,1.37,0,0,0,1.12-1.39.43.43,0,0,0-.44-.42A.44.44,0,0,0,322.18,330.23Z"/><path d="M322.46,319.6c-.22.06-.36.38-.3.72s.29.57.52.51.36-.39.3-.73S322.69,319.54,322.46,319.6Z"/><path d="M325.5,320.83c.22-.06.36-.39.3-.73s-.3-.56-.52-.5-.36.38-.3.72S325.27,320.89,325.5,320.83Z"/><path d="M323,322.73a.44.44,0,0,0,.43.39h0l1.43-.14-.49-2.22a.43.43,0,0,0-.51-.32.43.43,0,0,0-.33.51l.29,1.27-.47,0A.44.44,0,0,0,323,322.73Z"/><path d="M322.76,324.11a.43.43,0,0,0,.15.59,2.27,2.27,0,0,0,1.15.32,2.32,2.32,0,0,0,.58-.08,2.26,2.26,0,0,0,1.39-1.05.42.42,0,0,0-.16-.58.42.42,0,0,0-.58.15,1.39,1.39,0,0,1-.87.65,1.38,1.38,0,0,1-1.07-.15A.43.43,0,0,0,322.76,324.11Z"/><path d="M389.38,331.54l-1.27-2.39-.67.16,0,2.71a.29.29,0,0,0,.29.3h0a.31.31,0,0,0,.3-.29v-.23l.77-.18.1.2a.3.3,0,0,0,.4.12A.29.29,0,0,0,389.38,331.54Zm-1.38-.35,0-1,.45.85Z"/><path d="M392.88,329.88l-1.35-2.34-.51.3.29,1.68L390,328.43l-.51.29,1.35,2.34a.32.32,0,0,0,.26.15.42.42,0,0,0,.15,0,.3.3,0,0,0,.1-.41l-.49-.86.69.58.48-.28-.15-.89.49.86a.31.31,0,0,0,.41.11A.29.29,0,0,0,392.88,329.88Z"/><path d="M385.69,331.86h-.89v-2.35h-.58v2.94h1.47a.29.29,0,0,0,.29-.29A.3.3,0,0,0,385.69,331.86Z"/><path d="M381.88,328.89l-1.47,2.28a.3.3,0,0,0,.5.32l.12-.19.75.24,0,.23a.3.3,0,0,0,.28.31h0a.29.29,0,0,0,.29-.28l.18-2.71Zm-.52,1.9.52-.82-.06,1Z"/><path d="M378.42,330.35a.85.85,0,0,1-.48-.15.83.83,0,0,1-.21-1.16.29.29,0,1,1,.48.33.25.25,0,0,0,.07.34.24.24,0,0,0,.34-.06l.08-.12a.24.24,0,0,0-.06-.34.86.86,0,0,1-.35-.54.8.8,0,0,1,.14-.62l.08-.12a.82.82,0,0,1,.54-.35.83.83,0,0,1,1,.67.8.8,0,0,1-.14.62.29.29,0,0,1-.41.08.3.3,0,0,1-.07-.41.26.26,0,0,0,0-.19.23.23,0,0,0-.1-.15.26.26,0,0,0-.19,0,.27.27,0,0,0-.16.1l-.08.12a.24.24,0,0,0,0,.18.23.23,0,0,0,.1.16.84.84,0,0,1,.22,1.16l-.09.12A.82.82,0,0,1,378.42,330.35Z"/><circle cx="396" cy="326.76" r="0.79"/><path d="M396.59,320.08v2.55a.59.59,0,0,1-.59.59.58.58,0,0,1-.59-.59v-5.69h-2v5.69a2.56,2.56,0,1,0,5.11,0v-2.55Z"/><path d="M390.7,322.63a.59.59,0,0,1-.59.59.58.58,0,0,1-.59-.59v-2.55h-2v2.55a.59.59,0,1,1-1.17,0v-2.55h-2v1.12a3.06,3.06,0,0,0-.33-.65h0l-1.22-1.73.93-1.33-1.61-1.13-.52.75-.9-1.3-1.61,1.13,1.31,1.88-1.21,1.73h0a2.9,2.9,0,0,0-.46,1.07,2.75,2.75,0,0,0-5.37.82,2.62,2.62,0,0,0,.24,1.12,2.74,2.74,0,0,0-1.42,2.41v.79h2V326a.79.79,0,0,1,.79-.79h1.17a2.77,2.77,0,0,0,2.68-2.12,2.94,2.94,0,0,0,5.62.08,2.55,2.55,0,0,0,4.08,1.49,2.52,2.52,0,0,0,1.57.55,2.56,2.56,0,0,0,2.55-2.56v-2.55h-2Zm-14.54.59h-.05a.82.82,0,1,1,.05,0Zm5.5,0a1,1,0,0,1-1-1,.94.94,0,0,1,.18-.56h0l.8-1.15.81,1.15h0a1,1,0,0,1,.17.56A1,1,0,0,1,381.66,323.22Z"/><path d="M455.84,332.4a1.11,1.11,0,0,0-2,.23,2.77,2.77,0,0,1-.85,1l-.47-.78.9-.49-2.94-7.11a4.17,4.17,0,0,0,.43-.41,5,5,0,0,0,1.09-4.37,2.42,2.42,0,0,1,.13-1.81,1.41,1.41,0,0,0-.13-2,1.63,1.63,0,0,0-2.17.38l-.21-2.92a2,2,0,0,0-.6-1.39,1.28,1.28,0,0,0-1-.31,1.42,1.42,0,0,0-.59.19v-.12a2,2,0,0,0-.64-1.4,1.21,1.21,0,0,0-.93-.3,1.61,1.61,0,0,0-1.3,1.46,1.2,1.2,0,0,0-.65-.11,1.64,1.64,0,0,0-1.32,1.9l.1,1.38a1,1,0,0,0-.45-.05c-.79.09-1.25.82-1.17,1.85l.3,4.37h0v.11a5.58,5.58,0,0,0,1.84,4,4.19,4.19,0,0,1-2.76,4.29l-.36.13-2.54.78.77,2.58.75-.09a3.09,3.09,0,0,0-.13,2.25,1.06,1.06,0,0,0,1.48.78c.58-.29.89-.89.35-1.73s-.37-1.36-.2-1.49h.05l.23.7.29,0,.59,0c4,0,5-2.62,5.07-2.73a.43.43,0,0,0-.25-.55.41.41,0,0,0-.55.25s-.9,2.26-4.51,2.17l-.73-2.29h0a5,5,0,0,0,3.29-4.52,2.82,2.82,0,0,0,.59.23l.09,0a.44.44,0,0,0,.42-.34.43.43,0,0,0-.33-.51s-2.37-.68-2.61-4.11l-.31-4.37c0-.09-.05-.89.41-.94a.21.21,0,0,1,.16.06,1.25,1.25,0,0,1,.32.82v.16l.18,2.48a.43.43,0,1,0,.85-.06l-.15-2.18h0l0-.3v-.16h0l-.22-3.06c0-.37.1-.95.54-1a.42.42,0,0,1,.31.09,1.24,1.24,0,0,1,.32.82h0L445,318a.42.42,0,0,0,.42.4h0a.42.42,0,0,0,.4-.46l-.37-5.33c0-.47.24-1,.54-1a.41.41,0,0,1,.3.09,1.19,1.19,0,0,1,.33.81l.38,5.34a.43.43,0,1,0,.85-.06l-.25-3.55v0c0-.36.1-.95.54-1a.4.4,0,0,1,.32.1,1.21,1.21,0,0,1,.32.8l.45,6.41a.09.09,0,0,0,0,0v0l0,.05v0a.05.05,0,0,1,0,0,.49.49,0,0,0,.13.12h0l.05,0h.37l0,0,0,0,0,0,0,0s0,0,0,0l0,0,0,0,0,0a.09.09,0,0,0,0-.05s0,0,0,0v-.08c0-.17,0-.56-.06-.84l0-.26a2.49,2.49,0,0,1,.34-1.68c.13-.18.7-.75,1.15-.42.19.14.15.46-.09.85a3.21,3.21,0,0,0-.24,2.42,4.12,4.12,0,0,1-.88,3.64,2.88,2.88,0,0,1-.53.47l-.09.06a2.74,2.74,0,0,1-1.68.52.43.43,0,0,0-.46.4.44.44,0,0,0,.4.46h.2a3.67,3.67,0,0,0,1.63-.43l1.9,4.59a1.36,1.36,0,0,1-1,.66.45.45,0,0,0-.34.51.43.43,0,0,0,.42.34h.09a2.32,2.32,0,0,0,1.22-.6l.31.75-.25.14h0l-1.84,1-4.12-5.51a.43.43,0,1,0-.69.51l4.57,6.11h0l1.68,2.24,2.26-1.27-.31-.52a3.86,3.86,0,0,0,1.52-.59C456,333.53,456.05,332.77,455.84,332.4Z"/><path d="M445,330.23a.52.52,0,0,1-.42.53.42.42,0,0,0-.34.49.44.44,0,0,0,.42.36h.08a1.37,1.37,0,0,0,1.12-1.39.44.44,0,0,0-.44-.42A.43.43,0,0,0,445,330.23Z"/><path d="M445.25,319.6c-.23.06-.36.38-.3.72s.29.57.52.51.36-.39.3-.73S445.48,319.54,445.25,319.6Z"/><path d="M448.28,320.83c.23-.06.36-.39.3-.73s-.29-.56-.52-.5-.36.38-.3.72S448.06,320.89,448.28,320.83Z"/><path d="M445.83,322.73a.43.43,0,0,0,.43.39h0l1.43-.14-.49-2.22a.43.43,0,0,0-.51-.32.43.43,0,0,0-.33.51l.28,1.27-.46,0A.44.44,0,0,0,445.83,322.73Z"/><path d="M445.55,324.11a.43.43,0,0,0,.15.59,2.27,2.27,0,0,0,3.11-.81.42.42,0,0,0-.15-.58.44.44,0,0,0-.59.15,1.37,1.37,0,0,1-.86.65,1.41,1.41,0,0,1-1.08-.15A.42.42,0,0,0,445.55,324.11Z"/><path d="M512.17,331.54l-1.27-2.39-.67.16-.05,2.71a.31.31,0,0,0,.29.3h0a.29.29,0,0,0,.29-.29v-.23l.76-.18.11.2a.3.3,0,1,0,.52-.28Zm-1.38-.35,0-1,.45.85Z"/><path d="M515.67,329.88l-1.35-2.34-.51.3.29,1.68-1.31-1.09-.51.29,1.35,2.34a.29.29,0,0,0,.4.11.3.3,0,0,0,.11-.41l-.5-.86.7.58.48-.28-.16-.89.5.86a.29.29,0,1,0,.51-.29Z"/><path d="M508.48,331.86h-.89v-2.35H507v2.94h1.48a.29.29,0,0,0,.29-.29A.3.3,0,0,0,508.48,331.86Z"/><path d="M504.66,328.89l-1.46,2.28a.29.29,0,0,0,.09.41.28.28,0,0,0,.4-.09l.13-.19.75.24,0,.23a.29.29,0,0,0,.28.31h0a.29.29,0,0,0,.29-.28l.18-2.71Zm-.51,1.9.52-.82-.06,1Z"/><path d="M501.2,330.35a.82.82,0,0,1-.47-.15.83.83,0,0,1-.21-1.16.29.29,0,0,1,.41-.08.3.3,0,0,1,.07.41.24.24,0,0,0,.06.34.25.25,0,0,0,.35-.06l.08-.12a.24.24,0,0,0-.06-.34.82.82,0,0,1-.35-.54.84.84,0,0,1,.13-.62l.09-.12a.78.78,0,0,1,.53-.35.88.88,0,0,1,.63.13.85.85,0,0,1,.34.54.76.76,0,0,1-.13.62.29.29,0,1,1-.48-.33.31.31,0,0,0,0-.19.24.24,0,0,0-.11-.15.23.23,0,0,0-.18,0,.27.27,0,0,0-.16.1l-.08.12a.24.24,0,0,0,0,.18.23.23,0,0,0,.1.16.82.82,0,0,1,.21,1.16l-.08.12A.82.82,0,0,1,501.2,330.35Z"/><circle cx="518.78" cy="326.76" r="0.79"/><path d="M519.37,320.08v2.55a.59.59,0,1,1-1.17,0v-5.69h-2v5.69a2.56,2.56,0,1,0,5.11,0v-2.55Z"/><path d="M513.48,322.63a.58.58,0,0,1-.59.59.59.59,0,0,1-.59-.59v-2.55h-2v2.55a.58.58,0,0,1-.59.59.59.59,0,0,1-.59-.59v-2.55h-2v1.12a3.11,3.11,0,0,0-.34-.65h0l-1.21-1.73.93-1.33L505,316.36l-.52.75-.91-1.3-1.6,1.13,1.31,1.88L502,320.55h0a2.9,2.9,0,0,0-.46,1.07,2.75,2.75,0,0,0-5.38.82,2.63,2.63,0,0,0,.25,1.12A2.74,2.74,0,0,0,495,326v.79h2V326a.78.78,0,0,1,.78-.79H499a2.77,2.77,0,0,0,2.68-2.12,2.94,2.94,0,0,0,5.62.08,4.54,4.54,0,0,0,8.2-.52v-2.55h-2Zm-14.53.59h-.05a.82.82,0,1,1,.05,0Zm5.5,0a1,1,0,0,1-1-1,.94.94,0,0,1,.18-.56h0l.8-1.15.8,1.15h0a.94.94,0,0,1,.18.56A1,1,0,0,1,504.45,323.22Z"/><path d="M578.62,332.4a1.11,1.11,0,0,0-2,.23,2.69,2.69,0,0,1-.86,1l-.46-.78.89-.49-2.94-7.11a3.44,3.44,0,0,0,.44-.41,5,5,0,0,0,1.09-4.37,2.42,2.42,0,0,1,.12-1.81c.6-1,.31-1.67-.12-2a1.63,1.63,0,0,0-2.17.38l-.21-2.92a2,2,0,0,0-.61-1.39,1.25,1.25,0,0,0-1-.31,1.42,1.42,0,0,0-.59.19v-.12a2,2,0,0,0-.63-1.4,1.22,1.22,0,0,0-.93-.3,1.6,1.6,0,0,0-1.3,1.46,1.2,1.2,0,0,0-.65-.11,1.63,1.63,0,0,0-1.32,1.9l.1,1.38a1,1,0,0,0-.46-.05c-.78.09-1.24.82-1.17,1.85l.31,4.37h0v.11a5.58,5.58,0,0,0,1.84,4,4.2,4.2,0,0,1-2.76,4.29l-.36.13-2.54.78.77,2.58.74-.09a3.09,3.09,0,0,0-.12,2.25,1.06,1.06,0,0,0,1.48.78c.57-.29.88-.89.34-1.73s-.37-1.36-.19-1.49h.05l.22.7.3,0,.59,0c4,0,5-2.62,5.07-2.73a.43.43,0,0,0-.25-.55.41.41,0,0,0-.55.25s-.9,2.26-4.52,2.17l-.72-2.29h0a5,5,0,0,0,3.3-4.52,3.16,3.16,0,0,0,.58.23l.1,0a.43.43,0,0,0,.41-.34.42.42,0,0,0-.32-.51s-2.37-.68-2.61-4.11l-.31-4.37c0-.09,0-.89.41-.94a.21.21,0,0,1,.16.06,1.3,1.3,0,0,1,.32.82v.16l.17,2.48a.44.44,0,0,0,.46.4.43.43,0,0,0,.4-.46l-.15-2.18h0l0-.3v-.16h0L566.3,314c0-.37.09-.95.54-1a.39.39,0,0,1,.3.09,1.2,1.2,0,0,1,.33.82h0l.29,4.13a.43.43,0,0,0,.43.4h0a.42.42,0,0,0,.4-.46l-.38-5.33c0-.47.24-1,.55-1a.41.41,0,0,1,.3.09,1.29,1.29,0,0,1,.33.81l.37,5.34a.44.44,0,0,0,.46.4.43.43,0,0,0,.4-.46l-.25-3.55v0c0-.36.1-.95.53-1a.41.41,0,0,1,.33.1,1.16,1.16,0,0,1,.31.8l.46,6.41v0a0,0,0,0,1,0,0s0,0,0,.05a0,0,0,0,0,0,0l0,0a.34.34,0,0,0,.12.12h0l0,0h.37l0,0,0,0,0,0,0,0,0,0,0,0,0,0,0,0s0,0,0-.05,0,0,0,0v-.08c0-.17,0-.56-.06-.84v-.26a2.49,2.49,0,0,1,.33-1.68c.13-.18.71-.75,1.15-.42.19.14.16.46-.08.85a3.26,3.26,0,0,0-.25,2.42,4.1,4.1,0,0,1-.87,3.64,3.25,3.25,0,0,1-.53.47l-.09.06a2.74,2.74,0,0,1-1.68.52.43.43,0,0,0-.46.4.43.43,0,0,0,.4.46h.19a3.68,3.68,0,0,0,1.64-.43l1.9,4.59a1.36,1.36,0,0,1-1,.66.43.43,0,0,0,.08.85h.08a2.36,2.36,0,0,0,1.23-.6l.31.75-.25.14h0l-1.84,1-4.13-5.51a.43.43,0,1,0-.68.51l4.57,6.11h0l1.67,2.24,2.27-1.27-.31-.52a3.86,3.86,0,0,0,1.52-.59C578.83,333.53,578.84,332.77,578.62,332.4Z"/><path d="M567.76,330.23a.53.53,0,0,1-.42.53.41.41,0,0,0-.34.49.42.42,0,0,0,.42.36h.08a1.36,1.36,0,0,0,1.11-1.39.43.43,0,1,0-.85,0Z"/><path d="M568,319.6c-.23.06-.36.38-.3.72s.29.57.52.51.36-.39.3-.73S568.26,319.54,568,319.6Z"/><path d="M571.07,320.83c.23-.06.36-.39.3-.73s-.29-.56-.52-.5-.36.38-.3.72S570.84,320.89,571.07,320.83Z"/><path d="M568.62,322.73a.43.43,0,0,0,.43.39h0l1.43-.14-.49-2.22a.44.44,0,0,0-.52-.32.43.43,0,0,0-.32.51l.28,1.27-.47,0A.44.44,0,0,0,568.62,322.73Z"/><path d="M568.33,324.11a.43.43,0,0,0,.16.59,2.27,2.27,0,0,0,3.11-.81.42.42,0,0,0-.15-.58.43.43,0,0,0-.59.15,1.37,1.37,0,0,1-.86.65,1.41,1.41,0,0,1-1.08-.15A.44.44,0,0,0,568.33,324.11Z"/><path d="M87.47,594.55a1.11,1.11,0,0,0-2,.23,2.69,2.69,0,0,1-.86,1l-.46-.78.89-.49-2.94-7.11a3.44,3.44,0,0,0,.44-.41,5,5,0,0,0,1.09-4.37,2.42,2.42,0,0,1,.12-1.81c.6-1,.31-1.67-.12-2a1.64,1.64,0,0,0-2.17.37l-.21-2.91a2,2,0,0,0-.61-1.39,1.25,1.25,0,0,0-1-.31,1.29,1.29,0,0,0-.59.19v-.12a2,2,0,0,0-.63-1.4,1.22,1.22,0,0,0-.93-.3,1.6,1.6,0,0,0-1.3,1.46,1.2,1.2,0,0,0-.65-.11,1.63,1.63,0,0,0-1.32,1.9l.1,1.38a1,1,0,0,0-.46-.05c-.78.09-1.24.82-1.17,1.85l.31,4.37h0v.11a5.58,5.58,0,0,0,1.84,4,4.2,4.2,0,0,1-2.76,4.29l-.36.13-2.54.78.77,2.58.74-.09a3.09,3.09,0,0,0-.12,2.25,1.07,1.07,0,0,0,1.48.78c.57-.29.88-.89.34-1.73s-.36-1.36-.19-1.49h0l.23.7.29,0,.59,0c4,0,5-2.62,5.07-2.73a.44.44,0,0,0-.25-.56.43.43,0,0,0-.55.26s-.9,2.26-4.52,2.17l-.72-2.29h0a5,5,0,0,0,3.3-4.51,3.16,3.16,0,0,0,.58.23h.1a.42.42,0,0,0,.09-.84s-2.37-.68-2.61-4.11l-.31-4.37c0-.09-.05-.89.41-.94a.21.21,0,0,1,.16.06,1.3,1.3,0,0,1,.32.82v.16l.17,2.48a.44.44,0,0,0,.46.4.43.43,0,0,0,.4-.46l-.15-2.18h0l0-.3v-.16h0l-.21-3.06c0-.37.09-.95.54-1a.42.42,0,0,1,.31.09,1.24,1.24,0,0,1,.32.82h0l.29,4.13a.43.43,0,0,0,.43.4h0a.42.42,0,0,0,.4-.46l-.38-5.33c0-.47.24-1,.55-1a.41.41,0,0,1,.3.09,1.29,1.29,0,0,1,.33.81l.38,5.34a.43.43,0,1,0,.85-.06l-.25-3.55v0c0-.36.1-.95.53-1a.41.41,0,0,1,.33.1,1.16,1.16,0,0,1,.31.8l.46,6.41v0a0,0,0,0,1,0,0l0,0a0,0,0,0,0,0,0s0,0,0,0a.46.46,0,0,0,.12.12h0l0,0h.33l0,0,0,0,0,0,0,0,0,0,0,0,0,0,0,0,0,0s0,0,0,0,0,0,0,0v-.08c0-.17,0-.56,0-.84l0-.26a2.49,2.49,0,0,1,.33-1.68c.13-.18.71-.75,1.16-.42.18.14.15.46-.09.85a3.24,3.24,0,0,0-.25,2.41,4.11,4.11,0,0,1-.87,3.65,3.25,3.25,0,0,1-.53.47l-.09.06a2.81,2.81,0,0,1-1.68.52.43.43,0,0,0-.46.4.43.43,0,0,0,.4.46h.2a3.67,3.67,0,0,0,1.63-.43l1.9,4.59a1.36,1.36,0,0,1-1,.66.43.43,0,0,0,.08.85h.09a2.32,2.32,0,0,0,1.22-.6l.31.75-.25.14h0l-1.84,1-4.12-5.51a.44.44,0,0,0-.61-.09.44.44,0,0,0-.08.6l4.57,6.11h0l1.67,2.24,2.27-1.27-.31-.52a3.86,3.86,0,0,0,1.52-.59C87.68,595.68,87.69,594.92,87.47,594.55Z"/><path d="M76.61,592.38a.5.5,0,0,1-.42.52.43.43,0,0,0,.08.86h.08a1.38,1.38,0,0,0,1.12-1.39.44.44,0,0,0-.44-.42A.43.43,0,0,0,76.61,592.38Z"/><path d="M76.89,581.75c-.23.06-.36.38-.3.72s.29.57.52.51.36-.39.3-.73S77.11,581.69,76.89,581.75Z"/><path d="M79.92,583c.23-.06.36-.39.3-.73s-.29-.56-.52-.5-.36.38-.3.72S79.7,583,79.92,583Z"/><path d="M77.47,584.88a.43.43,0,0,0,.43.39h0l1.43-.15-.49-2.21a.43.43,0,0,0-.52-.32.43.43,0,0,0-.32.51l.28,1.27-.47,0A.44.44,0,0,0,77.47,584.88Z"/><path d="M77.18,586.26a.43.43,0,0,0,.16.59,2.27,2.27,0,0,0,3.11-.81.42.42,0,0,0-.15-.58.44.44,0,0,0-.59.15,1.37,1.37,0,0,1-.86.65,1.41,1.41,0,0,1-1.08-.15A.44.44,0,0,0,77.18,586.26Z"/><path d="M143.81,593.69l-1.27-2.4-.67.16-.05,2.72a.31.31,0,0,0,.29.3h0a.29.29,0,0,0,.29-.29V594l.76-.19.11.21a.3.3,0,0,0,.4.12A.3.3,0,0,0,143.81,593.69Zm-1.38-.35v-1l.46.85Z"/><path d="M147.31,592,146,589.69l-.5.3.29,1.68-1.31-1.09-.51.29,1.35,2.34a.3.3,0,0,0,.26.15.33.33,0,0,0,.14,0,.31.31,0,0,0,.11-.41l-.5-.86.69.58.49-.28-.16-.89.5.86a.29.29,0,1,0,.51-.29Z"/><path d="M140.11,594h-.88v-2.35h-.59v2.94h1.47a.29.29,0,0,0,.3-.29A.3.3,0,0,0,140.11,594Z"/><path d="M136.3,591l-1.46,2.28a.3.3,0,0,0,.08.41.29.29,0,0,0,.41-.09l.13-.19.74.24v.23a.29.29,0,0,0,.27.31h0a.3.3,0,0,0,.3-.27l.17-2.71Zm-.52,1.89.53-.81-.07,1Z"/><path d="M132.84,592.49a.81.81,0,0,1-.47-.14.84.84,0,0,1-.22-1.16.3.3,0,0,1,.49.33.24.24,0,1,0,.4.28l.09-.12a.24.24,0,0,0-.07-.34.85.85,0,0,1-.34-.54.8.8,0,0,1,.13-.62l.08-.13a.85.85,0,0,1,.54-.34.88.88,0,0,1,.63.13.85.85,0,0,1,.34.54.8.8,0,0,1-.13.62.29.29,0,0,1-.41.08.3.3,0,0,1-.08-.41.22.22,0,0,0,0-.19.24.24,0,0,0-.28-.19.25.25,0,0,0-.16.1l-.08.12a.23.23,0,0,0,0,.18.21.21,0,0,0,.1.16.83.83,0,0,1,.21,1.16l-.08.12A.82.82,0,0,1,132.84,592.49Z"/><circle cx="150.42" cy="588.91" r="0.79"/><path d="M151,582.23v2.55a.58.58,0,0,1-.59.59.59.59,0,0,1-.59-.59v-5.69h-2v5.69a2.55,2.55,0,1,0,5.1,0v-2.55Z"/><path d="M145.12,584.78a.58.58,0,0,1-.59.59.59.59,0,0,1-.59-.59v-2.55h-2v2.55a.59.59,0,0,1-.59.59.58.58,0,0,1-.59-.59v-2.55h-2v1.12a3.67,3.67,0,0,0-.34-.65h0L137.29,581l.93-1.33-1.61-1.13-.52.75-.91-1.3-1.61,1.13,1.32,1.88-1.21,1.73h0a2.9,2.9,0,0,0-.46,1.07,6.28,6.28,0,0,0-6.56,4.35v.79h2v-.79a.78.78,0,0,1,.78-.79h1.18a2.75,2.75,0,0,0,2.67-2.12,2.95,2.95,0,0,0,5.63.08,2.54,2.54,0,0,0,4.07,1.49,2.54,2.54,0,0,0,4.12-2v-2.55h-2Zm-14.53.59h-.06a.82.82,0,1,1,.06,0Zm5.5,0a1,1,0,0,1-.81-1.54h0l.81-1.15.8,1.15h0a.94.94,0,0,1,.18.56A1,1,0,0,1,136.09,585.37Z"/><path d="M210.26,594.55a1.11,1.11,0,0,0-2,.23,2.68,2.68,0,0,1-.85,1L207,595l.89-.49-2.94-7.11a4.27,4.27,0,0,0,.44-.41,5,5,0,0,0,1.09-4.37,2.42,2.42,0,0,1,.12-1.81c.6-1,.31-1.67-.12-2a1.65,1.65,0,0,0-2.18.37l-.2-2.91a2,2,0,0,0-.61-1.39,1.32,1.32,0,0,0-1.54-.12v-.12a2,2,0,0,0-.63-1.4,1.24,1.24,0,0,0-.94-.3,1.6,1.6,0,0,0-1.29,1.46,1.2,1.2,0,0,0-.65-.11,1.63,1.63,0,0,0-1.32,1.9l.1,1.38a1,1,0,0,0-.46-.05c-.78.09-1.24.82-1.17,1.85l.31,4.37h0v.09s0,0,0,0a5.55,5.55,0,0,0,1.84,4,4.2,4.2,0,0,1-2.76,4.29l-.36.13-2.54.78.77,2.58.74-.09a3,3,0,0,0-.12,2.25,1.06,1.06,0,0,0,1.47.78c.58-.29.89-.89.35-1.73s-.37-1.36-.19-1.49h.05l.22.7.3,0,.59,0c4,0,5-2.62,5.07-2.73a.44.44,0,0,0-.25-.56.44.44,0,0,0-.56.26s-.89,2.26-4.51,2.17l-.72-2.29h0a5,5,0,0,0,3.3-4.51,2.87,2.87,0,0,0,.58.23h.09a.42.42,0,0,0,.42-.33.43.43,0,0,0-.32-.51s-2.37-.68-2.62-4.11l-.3-4.37c0-.09,0-.89.41-.94a.18.18,0,0,1,.15.06,1.25,1.25,0,0,1,.33.82v.16l.17,2.48a.43.43,0,1,0,.86-.06l-.16-2.18h0l0-.3v-.16h0l-.21-3.06c0-.37.09-.95.54-1a.4.4,0,0,1,.3.09,1.2,1.2,0,0,1,.33.82h0l.29,4.13a.43.43,0,0,0,.43.4h0a.43.43,0,0,0,.4-.46l-.38-5.33c0-.47.24-1,.54-1a.39.39,0,0,1,.3.09,1.24,1.24,0,0,1,.34.81l.37,5.34a.44.44,0,0,0,.46.4.43.43,0,0,0,.4-.46l-.25-3.55v0c0-.36.09-.95.53-1a.41.41,0,0,1,.33.1,1.16,1.16,0,0,1,.31.8l.45,6.41a.09.09,0,0,1,0,0,0,0,0,0,0,0,0,.43.43,0,0,1,0,0l0,0,0,0a.34.34,0,0,0,.12.12h0l0,0h.33l0,0,0,0,0,0,0,0,0,0,0,0,0,0s0,0,0,0l0,0a.08.08,0,0,1,0,0,.08.08,0,0,1,0,0v-.08c0-.17,0-.56-.06-.84l0-.26a2.55,2.55,0,0,1,.34-1.68c.13-.18.71-.75,1.15-.42.19.14.16.46-.09.85a3.28,3.28,0,0,0-.24,2.41,4.14,4.14,0,0,1-.87,3.65,3.25,3.25,0,0,1-.53.47l-.09.06a2.81,2.81,0,0,1-1.68.52.43.43,0,0,0-.46.4.43.43,0,0,0,.39.46h.2a3.61,3.61,0,0,0,1.63-.43l1.9,4.59a1.31,1.31,0,0,1-1,.66.43.43,0,0,0,.09.85h.08a2.36,2.36,0,0,0,1.23-.6l.31.75-.25.14h0l-1.85,1-4.12-5.51a.43.43,0,0,0-.6-.09.42.42,0,0,0-.08.6l4.57,6.11h0l1.67,2.24,2.27-1.27-.31-.52a3.92,3.92,0,0,0,1.52-.59C210.47,595.68,210.48,594.92,210.26,594.55Z"/><path d="M199.39,592.38a.49.49,0,0,1-.41.52.44.44,0,0,0-.35.5.44.44,0,0,0,.43.36h.07a1.38,1.38,0,0,0,1.12-1.39.42.42,0,0,0-.43-.42A.44.44,0,0,0,199.39,592.38Z"/><path d="M199.67,581.75c-.22.06-.36.38-.3.72s.3.57.52.51.36-.39.3-.73S199.9,581.69,199.67,581.75Z"/><path d="M202.71,583c.23-.06.36-.39.3-.73s-.29-.56-.52-.5-.36.38-.3.72S202.48,583,202.71,583Z"/><path d="M200.26,584.88a.43.43,0,0,0,.42.39h0l1.43-.15-.5-2.21a.43.43,0,1,0-.83.19l.28,1.27-.47,0A.43.43,0,0,0,200.26,584.88Z"/><path d="M200,586.26a.43.43,0,0,0,.15.59,2.2,2.2,0,0,0,1.73.24,2.23,2.23,0,0,0,1.39-1.05.42.42,0,0,0-.15-.58.43.43,0,0,0-.59.15,1.37,1.37,0,0,1-.87.65,1.39,1.39,0,0,1-1.07-.15A.43.43,0,0,0,200,586.26Z"/><path d="M266.6,593.69l-1.28-2.4-.66.16-.05,2.72a.31.31,0,0,0,.29.3h0a.29.29,0,0,0,.3-.29V594l.77-.19.11.21a.29.29,0,0,0,.39.12A.3.3,0,0,0,266.6,593.69Zm-1.39-.35,0-1,.45.85Z"/><path d="M270.1,592l-1.36-2.34-.51.3.3,1.68-1.32-1.09-.51.29,1.36,2.34a.29.29,0,0,0,.25.15.42.42,0,0,0,.15,0,.31.31,0,0,0,.11-.41l-.5-.86.69.58.48-.28-.15-.89.5.86a.29.29,0,1,0,.51-.29Z"/><path d="M262.9,594H262v-2.35h-.59v2.94h1.47a.3.3,0,0,0,.3-.29A.31.31,0,0,0,262.9,594Z"/><path d="M259.09,591l-1.47,2.28a.31.31,0,0,0,.09.41.29.29,0,0,0,.41-.09l.12-.19.75.24v.23a.29.29,0,0,0,.27.31h0a.29.29,0,0,0,.29-.27l.18-2.71Zm-.52,1.89.52-.81-.06,1Z"/><path d="M255.63,592.49a.79.79,0,0,1-.47-.14.84.84,0,0,1-.22-1.16.3.3,0,0,1,.49.33.24.24,0,1,0,.4.28l.08-.12a.24.24,0,0,0-.06-.34.9.9,0,0,1-.35-.54.8.8,0,0,1,.14-.62l.08-.13a.85.85,0,0,1,1.16-.21.82.82,0,0,1,.35.54.84.84,0,0,1-.13.62.3.3,0,0,1-.49-.33.26.26,0,0,0,0-.19.23.23,0,0,0-.1-.15.22.22,0,0,0-.19,0,.23.23,0,0,0-.15.1l-.09.12a.28.28,0,0,0,0,.18.26.26,0,0,0,.11.16.83.83,0,0,1,.21,1.16l-.08.12A.84.84,0,0,1,255.63,592.49Z"/><circle cx="273.21" cy="588.91" r="0.79"/><path d="M273.8,582.23v2.55a.59.59,0,0,1-.59.59.58.58,0,0,1-.59-.59v-5.69h-2v5.69a2.55,2.55,0,1,0,5.1,0v-2.55Z"/><path d="M267.91,584.78a.59.59,0,0,1-.59.59.58.58,0,0,1-.59-.59v-2.55h-2v2.55a.59.59,0,0,1-.59.59.58.58,0,0,1-.59-.59v-2.55h-2v1.12a3.06,3.06,0,0,0-.33-.65h0L260.07,581l.94-1.33-1.61-1.13-.52.75L258,578l-1.61,1.13,1.32,1.88-1.22,1.73h0a3.08,3.08,0,0,0-.46,1.07,2.75,2.75,0,0,0-5.37.82,2.75,2.75,0,0,1-1.18,3.53v.79h2v-.79a.79.79,0,0,1,.79-.79h1.18a2.75,2.75,0,0,0,2.67-2.12,2.95,2.95,0,0,0,5.63.08,2.54,2.54,0,0,0,4.07,1.49,2.54,2.54,0,0,0,4.12-2v-2.55h-2Zm-14.53.59h-.06a.81.81,0,1,1,.06,0Zm5.5,0a1,1,0,0,1-1-1,1,1,0,0,1,.18-.56h0l.81-1.15.8,1.15h0a.94.94,0,0,1,.18.56A1,1,0,0,1,258.88,585.37Z"/><path d="M333.05,594.55a1.11,1.11,0,0,0-2,.23,2.68,2.68,0,0,1-.85,1l-.46-.78.89-.49-2.94-7.11a5.62,5.62,0,0,0,.44-.41,5,5,0,0,0,1.08-4.37,2.47,2.47,0,0,1,.13-1.81c.59-1,.3-1.67-.12-2a1.65,1.65,0,0,0-2.18.37l-.2-2.91a2.07,2.07,0,0,0-.61-1.39,1.32,1.32,0,0,0-1.54-.12v-.12a2,2,0,0,0-.63-1.4,1.24,1.24,0,0,0-.94-.3,1.61,1.61,0,0,0-1.3,1.46,1.2,1.2,0,0,0-.65-.11,1.63,1.63,0,0,0-1.31,1.9l.09,1.38a1,1,0,0,0-.45-.05c-.79.09-1.25.82-1.17,1.85l.31,4.37h0v.11a5.55,5.55,0,0,0,1.84,4,4.2,4.2,0,0,1-2.76,4.29l-.36.13-2.55.78.78,2.58.74-.09a3,3,0,0,0-.12,2.25,1.06,1.06,0,0,0,1.47.78c.58-.29.89-.89.35-1.73s-.37-1.36-.2-1.49h.06l.22.7.29,0,.59,0c4,0,5-2.62,5.07-2.73a.44.44,0,0,0-.25-.56.43.43,0,0,0-.55.26s-.89,2.26-4.51,2.17l-.72-2.29h0a5,5,0,0,0,3.3-4.51,2.87,2.87,0,0,0,.58.23H322a.42.42,0,0,0,.42-.33.43.43,0,0,0-.33-.51s-2.37-.68-2.61-4.11l-.31-4.37c0-.09-.05-.89.41-.94a.21.21,0,0,1,.16.06,1.2,1.2,0,0,1,.32.82v.16l.18,2.48a.43.43,0,0,0,.46.4.43.43,0,0,0,.39-.46l-.15-2.18h0l0-.3v-.16h0l-.22-3.06c0-.37.1-.95.55-1a.4.4,0,0,1,.3.09,1.3,1.3,0,0,1,.33.82h0l.29,4.13a.43.43,0,0,0,.43.4h0a.44.44,0,0,0,.4-.46l-.38-5.33c0-.47.24-1,.54-1a.4.4,0,0,1,.3.09,1.19,1.19,0,0,1,.33.81l.38,5.34a.43.43,0,0,0,.46.4.44.44,0,0,0,.4-.46l-.26-3.55s0,0,0,0c0-.36.09-.95.53-1a.42.42,0,0,1,.33.1,1.21,1.21,0,0,1,.31.8l.45,6.41s0,0,0,0v0a.08.08,0,0,1,0,0,0,0,0,0,1,0,0l0,0a.34.34,0,0,0,.12.12h0l.05,0H327l0,0,0,0a.05.05,0,0,0,0,0l0,0,0,0,0,0,0,0a.08.08,0,0,1,0,0s0,0,0,0,0,0,0,0,0,0,0,0a.06.06,0,0,0,0,0v0c0-.17,0-.56-.06-.84l0-.26a2.55,2.55,0,0,1,.34-1.68c.13-.18.71-.75,1.15-.42.19.14.16.46-.09.85a3.23,3.23,0,0,0-.24,2.41,4.11,4.11,0,0,1-.88,3.65,2.59,2.59,0,0,1-.53.47l-.08.06a2.83,2.83,0,0,1-1.68.52.42.42,0,0,0-.46.4.43.43,0,0,0,.39.46h.2a3.67,3.67,0,0,0,1.63-.43l1.9,4.59a1.33,1.33,0,0,1-1,.66.45.45,0,0,0-.34.51.44.44,0,0,0,.42.34H328a2.36,2.36,0,0,0,1.23-.6l.3.75-.24.14h0l-1.85,1-4.12-5.51a.43.43,0,0,0-.69.51l4.57,6.11h0l1.68,2.24,2.27-1.27-.32-.52a3.9,3.9,0,0,0,1.53-.59A1.35,1.35,0,0,0,333.05,594.55Z"/><path d="M322.18,592.38a.49.49,0,0,1-.41.52.43.43,0,0,0,.07.86h.08a1.38,1.38,0,0,0,1.12-1.39.43.43,0,0,0-.44-.42A.44.44,0,0,0,322.18,592.38Z"/><path d="M322.46,581.75c-.22.06-.36.38-.3.72s.29.57.52.51.36-.39.3-.73S322.69,581.69,322.46,581.75Z"/><path d="M325.5,583c.22-.06.36-.39.3-.73s-.3-.56-.52-.5-.36.38-.3.72S325.27,583,325.5,583Z"/><path d="M323,584.88a.44.44,0,0,0,.43.39h0l1.43-.15-.49-2.21a.43.43,0,0,0-.51-.32.43.43,0,0,0-.33.51l.29,1.27-.47,0A.44.44,0,0,0,323,584.88Z"/><path d="M322.76,586.26a.43.43,0,0,0,.15.59,2.27,2.27,0,0,0,1.15.32,2.32,2.32,0,0,0,.58-.08A2.26,2.26,0,0,0,326,586a.42.42,0,0,0-.16-.58.42.42,0,0,0-.58.15,1.39,1.39,0,0,1-.87.65,1.38,1.38,0,0,1-1.07-.15A.43.43,0,0,0,322.76,586.26Z"/><path d="M389.38,593.69l-1.27-2.4-.67.16,0,2.72a.29.29,0,0,0,.29.3h0a.31.31,0,0,0,.3-.29V594l.77-.19.1.21a.31.31,0,0,0,.4.12A.29.29,0,0,0,389.38,593.69Zm-1.38-.35,0-1,.45.85Z"/><path d="M392.88,592l-1.35-2.34-.51.3.29,1.68L390,590.58l-.51.29,1.35,2.34a.32.32,0,0,0,.26.15.42.42,0,0,0,.15,0,.3.3,0,0,0,.1-.41l-.49-.86.69.58.48-.28-.15-.89.49.86a.31.31,0,0,0,.41.11A.29.29,0,0,0,392.88,592Z"/><path d="M385.69,594h-.89v-2.35h-.58v2.94h1.47a.29.29,0,0,0,.29-.29A.3.3,0,0,0,385.69,594Z"/><path d="M381.88,591l-1.47,2.28a.3.3,0,1,0,.5.32l.12-.19.75.24,0,.23a.3.3,0,0,0,.28.31h0a.29.29,0,0,0,.29-.27l.18-2.71Zm-.52,1.89.52-.81-.06,1Z"/><path d="M378.42,592.49a.82.82,0,0,1-.69-1.3.29.29,0,1,1,.48.33.25.25,0,0,0,.07.34.24.24,0,0,0,.34-.06l.08-.12a.24.24,0,0,0-.06-.34.86.86,0,0,1-.35-.54.8.8,0,0,1,.14-.62l.08-.13a.85.85,0,0,1,1.16-.21.86.86,0,0,1,.35.54.8.8,0,0,1-.14.62.29.29,0,0,1-.41.08.3.3,0,0,1-.07-.41.26.26,0,0,0,0-.19.23.23,0,0,0-.1-.15.22.22,0,0,0-.19,0,.27.27,0,0,0-.16.1l-.08.12a.23.23,0,0,0,0,.18.25.25,0,0,0,.1.16.84.84,0,0,1,.22,1.16l-.09.12A.81.81,0,0,1,378.42,592.49Z"/><circle cx="396" cy="588.91" r="0.79"/><path d="M396.59,582.23v2.55a.59.59,0,0,1-.59.59.58.58,0,0,1-.59-.59v-5.69h-2v5.69a2.56,2.56,0,1,0,5.11,0v-2.55Z"/><path d="M390.7,584.78a.59.59,0,0,1-.59.59.58.58,0,0,1-.59-.59v-2.55h-2v2.55a.59.59,0,1,1-1.17,0v-2.55h-2v1.12a3.06,3.06,0,0,0-.33-.65h0L382.86,581l.93-1.33-1.61-1.13-.52.75-.9-1.3-1.61,1.13,1.31,1.88-1.21,1.73h0a2.9,2.9,0,0,0-.46,1.07,2.75,2.75,0,0,0-5.37.82,2.62,2.62,0,0,0,.24,1.12,2.74,2.74,0,0,0-1.42,2.41v.79h2v-.79a.79.79,0,0,1,.79-.79h1.17a2.77,2.77,0,0,0,2.68-2.12,2.94,2.94,0,0,0,5.62.08,2.55,2.55,0,0,0,4.08,1.49,2.52,2.52,0,0,0,1.57.55,2.56,2.56,0,0,0,2.55-2.56v-2.55h-2Zm-14.54.59h-.05a.82.82,0,1,1,.05,0Zm5.5,0a1,1,0,0,1-1-1,.94.94,0,0,1,.18-.56h0l.8-1.15.81,1.15h0a1,1,0,0,1,.17.56A1,1,0,0,1,381.66,585.37Z"/><path d="M455.84,594.55a1.11,1.11,0,0,0-2,.23,2.77,2.77,0,0,1-.85,1l-.47-.78.9-.49-2.94-7.11a4.17,4.17,0,0,0,.43-.41,5,5,0,0,0,1.09-4.37,2.42,2.42,0,0,1,.13-1.81c.59-1,.3-1.67-.13-2a1.64,1.64,0,0,0-2.17.37l-.21-2.91a2,2,0,0,0-.6-1.39,1.33,1.33,0,0,0-1.55-.12v-.12a2,2,0,0,0-.64-1.4,1.21,1.21,0,0,0-.93-.3,1.61,1.61,0,0,0-1.3,1.46,1.2,1.2,0,0,0-.65-.11,1.64,1.64,0,0,0-1.32,1.9l.1,1.38a1,1,0,0,0-.45-.05c-.79.09-1.25.82-1.17,1.85l.3,4.37h0v.11a5.58,5.58,0,0,0,1.84,4,4.19,4.19,0,0,1-2.76,4.29l-.36.13-2.54.78.77,2.58.75-.09a3.09,3.09,0,0,0-.13,2.25,1.07,1.07,0,0,0,1.48.78c.58-.29.89-.89.35-1.73s-.37-1.36-.2-1.49h.05l.23.7.29,0,.59,0c4,0,5-2.62,5.07-2.73a.44.44,0,0,0-.25-.56.43.43,0,0,0-.55.26s-.9,2.26-4.51,2.17l-.73-2.29h0a5,5,0,0,0,3.29-4.51,2.82,2.82,0,0,0,.59.23h.09a.43.43,0,0,0,.42-.33.43.43,0,0,0-.33-.51s-2.37-.68-2.61-4.11l-.31-4.37c0-.09-.05-.89.41-.94a.21.21,0,0,1,.16.06,1.25,1.25,0,0,1,.32.82v.16l.18,2.48a.43.43,0,1,0,.85-.06l-.15-2.18h0l0-.3v-.16h0l-.22-3.06c0-.37.1-.95.54-1a.42.42,0,0,1,.31.09,1.24,1.24,0,0,1,.32.82h0l.29,4.13a.42.42,0,0,0,.42.4h0a.42.42,0,0,0,.4-.46l-.37-5.33c0-.47.24-1,.54-1a.41.41,0,0,1,.3.09,1.19,1.19,0,0,1,.33.81l.38,5.34a.43.43,0,1,0,.85-.06l-.25-3.55v0c0-.36.1-.95.54-1a.4.4,0,0,1,.32.1,1.21,1.21,0,0,1,.32.8l.45,6.41a.09.09,0,0,0,0,0v0s0,0,0,0v0a.05.05,0,0,1,0,0,.49.49,0,0,0,.13.12h0l.05,0h.33l0,0,0,0,0,0,0,0,0,0,0,0,0,0,0,0a.05.05,0,0,0,0,0s0,0,0,0,0,0,0,0v-.08c0-.17,0-.56-.06-.84l0-.26a2.49,2.49,0,0,1,.34-1.68c.13-.18.7-.75,1.15-.42.19.14.15.46-.09.85a3.19,3.19,0,0,0-.24,2.41,4.14,4.14,0,0,1-.88,3.65,2.88,2.88,0,0,1-.53.47l-.09.06a2.81,2.81,0,0,1-1.68.52.43.43,0,0,0-.46.4.44.44,0,0,0,.4.46h.2a3.67,3.67,0,0,0,1.63-.43l1.9,4.59a1.36,1.36,0,0,1-1,.66.45.45,0,0,0-.34.51.43.43,0,0,0,.42.34h.09a2.32,2.32,0,0,0,1.22-.6l.31.75-.25.14h0l-1.84,1-4.12-5.51a.43.43,0,0,0-.69.51l4.57,6.11h0l1.68,2.24,2.26-1.27-.31-.52a3.86,3.86,0,0,0,1.52-.59C456,595.68,456.05,594.92,455.84,594.55Z"/><path d="M445,592.38a.5.5,0,0,1-.42.52.43.43,0,0,0,.08.86h.08a1.38,1.38,0,0,0,1.12-1.39.44.44,0,0,0-.44-.42A.43.43,0,0,0,445,592.38Z"/><path d="M445.25,581.75c-.23.06-.36.38-.3.72s.29.57.52.51.36-.39.3-.73S445.48,581.69,445.25,581.75Z"/><path d="M448.28,583c.23-.06.36-.39.3-.73s-.29-.56-.52-.5-.36.38-.3.72S448.06,583,448.28,583Z"/><path d="M445.83,584.88a.43.43,0,0,0,.43.39h0l1.43-.15-.49-2.21a.43.43,0,0,0-.51-.32.43.43,0,0,0-.33.51l.28,1.27-.46,0A.44.44,0,0,0,445.83,584.88Z"/><path d="M445.55,586.26a.43.43,0,0,0,.15.59,2.27,2.27,0,0,0,3.11-.81.42.42,0,0,0-.15-.58.44.44,0,0,0-.59.15,1.37,1.37,0,0,1-.86.65,1.41,1.41,0,0,1-1.08-.15A.42.42,0,0,0,445.55,586.26Z"/><path d="M512.17,593.69l-1.27-2.4-.67.16-.05,2.72a.31.31,0,0,0,.29.3h0a.29.29,0,0,0,.29-.29V594l.76-.19.11.21a.31.31,0,0,0,.4.12A.3.3,0,0,0,512.17,593.69Zm-1.38-.35,0-1,.45.85Z"/><path d="M515.67,592l-1.35-2.34-.51.3.29,1.68-1.31-1.09-.51.29,1.35,2.34a.29.29,0,0,0,.4.11.3.3,0,0,0,.11-.41l-.5-.86.7.58.48-.28-.16-.89.5.86a.29.29,0,0,0,.51-.29Z"/><path d="M508.48,594h-.89v-2.35H507v2.94h1.48a.29.29,0,0,0,.29-.29A.3.3,0,0,0,508.48,594Z"/><path d="M504.66,591l-1.46,2.28a.29.29,0,0,0,.09.41.28.28,0,0,0,.4-.09l.13-.19.75.24,0,.23a.29.29,0,0,0,.28.31h0a.29.29,0,0,0,.29-.27l.18-2.71Zm-.51,1.89.52-.81-.06,1Z"/><path d="M501.2,592.49a.81.81,0,0,1-.47-.14.83.83,0,0,1-.21-1.16.29.29,0,0,1,.41-.08.3.3,0,0,1,.07.41.24.24,0,0,0,.06.34.25.25,0,0,0,.35-.06l.08-.12a.24.24,0,0,0-.06-.34.82.82,0,0,1-.35-.54.84.84,0,0,1,.13-.62l.09-.13a.8.8,0,0,1,.53-.34.88.88,0,0,1,.63.13.85.85,0,0,1,.34.54.76.76,0,0,1-.13.62.29.29,0,1,1-.48-.33.31.31,0,0,0,0-.19.24.24,0,0,0-.11-.15.2.2,0,0,0-.18,0,.27.27,0,0,0-.16.1l-.08.12a.23.23,0,0,0,0,.18.25.25,0,0,0,.1.16A.82.82,0,0,1,502,592l-.08.12A.82.82,0,0,1,501.2,592.49Z"/><circle cx="518.78" cy="588.91" r="0.79"/><path d="M519.37,582.23v2.55a.59.59,0,1,1-1.17,0v-5.69h-2v5.69a2.56,2.56,0,1,0,5.11,0v-2.55Z"/><path d="M513.48,584.78a.58.58,0,0,1-.59.59.59.59,0,0,1-.59-.59v-2.55h-2v2.55a.58.58,0,0,1-.59.59.59.59,0,0,1-.59-.59v-2.55h-2v1.12a3.11,3.11,0,0,0-.34-.65h0L505.65,581l.93-1.33L505,578.51l-.52.75-.91-1.3-1.6,1.13,1.31,1.88L502,582.7h0a2.9,2.9,0,0,0-.46,1.07,2.75,2.75,0,0,0-5.38.82,2.63,2.63,0,0,0,.25,1.12,2.74,2.74,0,0,0-1.42,2.41v.79h2v-.79a.78.78,0,0,1,.78-.79H499a2.77,2.77,0,0,0,2.68-2.12,2.94,2.94,0,0,0,5.62.08,4.54,4.54,0,0,0,8.2-.52v-2.55h-2Zm-14.53.59h-.05a.82.82,0,1,1,.05,0Zm5.5,0a1,1,0,0,1-1-1,.94.94,0,0,1,.18-.56h0l.8-1.15.8,1.15h0a.94.94,0,0,1,.18.56A1,1,0,0,1,504.45,585.37Z"/><path d="M578.62,594.55a1.11,1.11,0,0,0-2,.23,2.69,2.69,0,0,1-.86,1l-.46-.78.89-.49-2.94-7.11a3.44,3.44,0,0,0,.44-.41,5,5,0,0,0,1.09-4.37,2.42,2.42,0,0,1,.12-1.81c.6-1,.31-1.67-.12-2a1.64,1.64,0,0,0-2.17.37l-.21-2.91a2,2,0,0,0-.61-1.39,1.25,1.25,0,0,0-1-.31,1.29,1.29,0,0,0-.59.19v-.12a2,2,0,0,0-.63-1.4,1.22,1.22,0,0,0-.93-.3,1.6,1.6,0,0,0-1.3,1.46,1.2,1.2,0,0,0-.65-.11,1.63,1.63,0,0,0-1.32,1.9l.1,1.38a1,1,0,0,0-.46-.05c-.78.09-1.24.82-1.17,1.85l.31,4.37h0v.11a5.58,5.58,0,0,0,1.84,4,4.2,4.2,0,0,1-2.76,4.29l-.36.13-2.54.78.77,2.58.74-.09a3.09,3.09,0,0,0-.12,2.25,1.07,1.07,0,0,0,1.48.78c.57-.29.88-.89.34-1.73s-.37-1.36-.19-1.49h.05l.22.7.3,0,.59,0c4,0,5-2.62,5.07-2.73a.44.44,0,0,0-.25-.56.42.42,0,0,0-.55.26s-.9,2.26-4.52,2.17l-.72-2.29h0a5,5,0,0,0,3.3-4.51,3.16,3.16,0,0,0,.58.23h.1a.43.43,0,0,0,.09-.84s-2.37-.68-2.61-4.11l-.31-4.37c0-.09,0-.89.41-.94a.21.21,0,0,1,.16.06,1.3,1.3,0,0,1,.32.82v.16l.17,2.48a.44.44,0,0,0,.46.4.43.43,0,0,0,.4-.46l-.15-2.18h0l0-.3v-.16h0l-.21-3.06c0-.37.09-.95.54-1a.39.39,0,0,1,.3.09,1.2,1.2,0,0,1,.33.82h0l.29,4.13a.43.43,0,0,0,.43.4h0a.42.42,0,0,0,.4-.46l-.38-5.33c0-.47.24-1,.55-1a.41.41,0,0,1,.3.09,1.29,1.29,0,0,1,.33.81l.37,5.34a.44.44,0,0,0,.46.4.43.43,0,0,0,.4-.46l-.25-3.55v0c0-.36.1-.95.53-1a.41.41,0,0,1,.33.1,1.16,1.16,0,0,1,.31.8l.46,6.41v0a0,0,0,0,1,0,0l0,0a0,0,0,0,0,0,0l0,0a.34.34,0,0,0,.12.12h0l0,0h.33l0,0,0,0,0,0,0,0,0,0,0,0,0,0s0,0,0,0l0,0s0,0,0,0,0,0,0,0v-.08c0-.17,0-.56-.06-.84v-.26a2.49,2.49,0,0,1,.33-1.68c.13-.18.71-.75,1.15-.42.19.14.16.46-.08.85a3.24,3.24,0,0,0-.25,2.41,4.11,4.11,0,0,1-.87,3.65,3.25,3.25,0,0,1-.53.47l-.09.06a2.81,2.81,0,0,1-1.68.52.43.43,0,0,0-.46.4.43.43,0,0,0,.4.46h.19a3.68,3.68,0,0,0,1.64-.43l1.9,4.59a1.36,1.36,0,0,1-1,.66.43.43,0,0,0,.08.85h.08a2.36,2.36,0,0,0,1.23-.6l.31.75-.25.14h0l-1.84,1-4.13-5.51a.43.43,0,1,0-.68.51l4.57,6.11h0l1.67,2.24,2.27-1.27-.31-.52a3.86,3.86,0,0,0,1.52-.59C578.83,595.68,578.84,594.92,578.62,594.55Z"/><path d="M567.76,592.38a.51.51,0,0,1-.42.52.43.43,0,0,0-.34.5.42.42,0,0,0,.42.36h.08a1.36,1.36,0,0,0,1.11-1.39.43.43,0,1,0-.85,0Z"/><path d="M568,581.75c-.23.06-.36.38-.3.72s.29.57.52.51.36-.39.3-.73S568.26,581.69,568,581.75Z"/><path d="M571.07,583c.23-.06.36-.39.3-.73s-.29-.56-.52-.5-.36.38-.3.72S570.84,583,571.07,583Z"/><path d="M568.62,584.88a.43.43,0,0,0,.43.39h0l1.43-.15-.49-2.21a.44.44,0,0,0-.52-.32.43.43,0,0,0-.32.51l.28,1.27-.47,0A.44.44,0,0,0,568.62,584.88Z"/><path d="M568.33,586.26a.43.43,0,0,0,.16.59,2.27,2.27,0,0,0,3.11-.81.42.42,0,0,0-.15-.58.43.43,0,0,0-.59.15,1.37,1.37,0,0,1-.86.65,1.41,1.41,0,0,1-1.08-.15A.44.44,0,0,0,568.33,586.26Z"/></g></svg>