<svg xmlns="http://www.w3.org/2000/svg" viewBox="0 0 1152 648"><defs><style>.cls-1{fill:#ff5c35;}.cls-2{fill:#fff;}</style></defs><g id="Graphic"><rect x="160.28" y="45.36" width="831.45" height="557.28"/><path class="cls-1" d="M974.05,63V585H178V63h796.1m17.67-17.68H160.28V602.64H991.72V45.36Z"/><path class="cls-1" d="M932,543c-1.75-3-6.4-3.19-8.69,1a11.84,11.84,0,0,1-3.75,4.4l-2-3.41,3.92-2.19-12.92-31.24a18,18,0,0,0,1.92-1.79c3.08-3.37,6.41-9.43,4.78-19.25-.56-3-.9-5.62.55-7.95,2.62-4.19,1.35-7.33-.54-8.75-3.44-2.6-7.37-.6-9.56,1.66l-.91-12.82a8.88,8.88,0,0,0-2.66-6.12,5.84,5.84,0,0,0-6.78-.52l0-.52a9,9,0,0,0-2.78-6.17,5.43,5.43,0,0,0-4.11-1.3c-3.14.29-5.23,3.25-5.71,6.39a5.4,5.4,0,0,0-2.85-.47c-4.17.39-6.07,4.51-5.8,8.37l.43,6.07a4.5,4.5,0,0,0-2-.23c-3.45.39-5.47,3.59-5.15,8.15l1.35,19.19h0l0,.39a.52.52,0,0,0,0,.11c.77,9.16,4.58,14.46,8.09,17.44.22,2.83.23,13.77-12.14,18.86l-1.57.59-11.18,3.43,3.39,11.33,3.26-.4a13.56,13.56,0,0,0-.54,9.9c1.13,3.93,4.56,4.38,6.49,3.44,2.54-1.26,3.91-3.92,1.53-7.61-2.78-4.31-1.62-6-.85-6.54l.23,0,1,3.11,1.29.08c.9,0,1.76.08,2.59.08,17.58,0,22.1-11.5,22.29-12a1.89,1.89,0,0,0-3.53-1.33c0,.1-3.92,10-19.83,9.55L866,535.81h0c11.86-4.88,14.17-14.54,14.5-19.86a13.79,13.79,0,0,0,2.56,1,1.89,1.89,0,0,0,.81-3.69c-.1,0-10.42-2.95-11.48-18.06l-1.36-19.19c0-.4-.22-3.92,1.81-4.14a.84.84,0,0,1,.69.23,5.7,5.7,0,0,1,1.41,3.63l0,.69.77,10.92a1.88,1.88,0,1,0,3.76-.27l-.67-9.59h0l-.1-1.33,0-.68h0l-1-13.46c-.12-1.65.42-4.16,2.38-4.35a1.69,1.69,0,0,1,1.34.41,5.39,5.39,0,0,1,1.44,3.58v0l1.29,18.16a1.88,1.88,0,0,0,1.88,1.76h.13a1.88,1.88,0,0,0,1.75-2l-1.66-23.48c-.14-2,1.06-4.22,2.39-4.35a1.72,1.72,0,0,1,1.32.42,5.39,5.39,0,0,1,1.46,3.57l1.65,23.47a1.9,1.9,0,0,0,2,1.75,1.88,1.88,0,0,0,1.75-2l-1.11-15.62s0,0,0-.07c-.12-1.6.42-4.2,2.34-4.34a1.9,1.9,0,0,1,1.45.44,5.36,5.36,0,0,1,1.37,3.54l2,28.18a1.38,1.38,0,0,0,0,.2.58.58,0,0,0,0,.14,1.42,1.42,0,0,0,.07.22s0,.09,0,.13a1,1,0,0,0,.11.17,1.93,1.93,0,0,0,.53.57.1.1,0,0,1,.05,0l.22.1.1.06.2.05.15,0,.18,0,.16,0H905a1,1,0,0,0,.17,0l.18,0,.18-.06.17-.07.16-.09.15-.1.14-.12.12-.12a1.58,1.58,0,0,0,.12-.15l.1-.14c0-.06,0-.12.08-.17l.07-.16a.67.67,0,0,0,0-.19,1,1,0,0,0,0-.17c0-.07,0-.14,0-.2a.85.85,0,0,0,0-.16c0-.77-.16-2.47-.25-3.72l-.09-1.11c-.23-3.27.29-5.84,1.49-7.42.57-.76,3.11-3.28,5.06-1.82.83.62.69,2-.39,3.74-2.35,3.76-1.57,7.91-1.06,10.61,1.37,8.28-1.34,13.29-3.85,16a14.84,14.84,0,0,1-2.33,2.06,1.46,1.46,0,0,0-.38.27,12.39,12.39,0,0,1-7.4,2.28,1.89,1.89,0,1,0-.28,3.76l.87,0a15.62,15.62,0,0,0,7.18-1.93l8.35,20.2c-.34.71-1.43,2.3-4.49,2.92a1.88,1.88,0,0,0,.37,3.73,2.43,2.43,0,0,0,.38,0,10.73,10.73,0,0,0,5.39-2.64l1.35,3.28-1.08.6h0l-8.12,4.53-18.12-24.21a1.89,1.89,0,0,0-3,2.26l20.1,26.85h0l7.36,9.83,10-5.56-1.37-2.3a17.26,17.26,0,0,0,6.69-2.6C932.89,548,932.93,544.62,932,543Z"/><path class="cls-1" d="M884.2,533.45a2.24,2.24,0,0,1-1.83,2.31,1.89,1.89,0,0,0,.34,3.74,2.07,2.07,0,0,0,.35,0,6,6,0,0,0,4.91-6.09,1.87,1.87,0,0,0-1.91-1.85A1.9,1.9,0,0,0,884.2,533.45Z"/><path class="cls-1" d="M885.43,486.71c-1,.27-1.58,1.69-1.32,3.18s1.29,2.49,2.29,2.22,1.58-1.7,1.32-3.19S886.43,486.44,885.43,486.71Z"/><path class="cls-1" d="M898.78,492.11c1-.27,1.58-1.7,1.32-3.19s-1.29-2.48-2.29-2.21-1.58,1.69-1.32,3.18S897.78,492.38,898.78,492.11Z"/><path class="cls-1" d="M888,500.49a1.88,1.88,0,0,0,1.87,1.7h.19l6.29-.62-2.17-9.73a1.89,1.89,0,1,0-3.68.82l1.24,5.57-2,.2A1.89,1.89,0,0,0,888,500.49Z"/><path class="cls-1" d="M886.74,506.56a1.89,1.89,0,0,0,.67,2.59,10,10,0,0,0,5.06,1.38,9.84,9.84,0,0,0,2.52-.32,10,10,0,0,0,6.12-4.61,1.89,1.89,0,0,0-3.25-1.92,6.24,6.24,0,0,1-8.54,2.22A1.89,1.89,0,0,0,886.74,506.56Z"/><rect class="cls-2" x="207.53" y="92.63" width="338.2" height="457.1"/><path d="M355.2,348.18h-4.66L361,319.09h5.07l10.47,29.09h-4.66l-8.22-23.81h-.23Zm.78-11.39H371.1v3.69H356Z"/><path d="M379.73,342.5V339l12.57-19.86h2.8v5.23h-1.77l-9,14.23v.23h17.23v3.72Zm13.79,5.68v-6.76l0-1.62V319.09h4.16v29.09Z"/><rect class="cls-2" x="576" y="92.63" width="169.1" height="228.55"/><path d="M639.8,225.32h-4.66l10.47-29.09h5.07l10.47,29.09h-4.66l-8.22-23.81H648Zm.78-11.39H655.7v3.69H640.58Z"/><path d="M674.55,225.72a11,11,0,0,1-4.8-1,8.64,8.64,0,0,1-3.38-2.84,7.37,7.37,0,0,1-1.35-4.12h4.26a4.28,4.28,0,0,0,1.66,3.09,6.07,6.07,0,0,0,6.58.43,5.55,5.55,0,0,0,2.05-2.14,6.33,6.33,0,0,0,.75-3.11,6.5,6.5,0,0,0-.77-3.17,5.74,5.74,0,0,0-2.11-2.18,6,6,0,0,0-3.08-.81,8.24,8.24,0,0,0-2.65.45,6.17,6.17,0,0,0-2.16,1.19l-4-.59,1.63-14.66h16V200H670.81l-.92,8.14h.17a6.79,6.79,0,0,1,2.26-1.38,8.29,8.29,0,0,1,3-.55,8.92,8.92,0,0,1,4.73,1.26,9.09,9.09,0,0,1,3.29,3.45,10.08,10.08,0,0,1,1.18,5,9.74,9.74,0,0,1-1.27,5,9.3,9.3,0,0,1-3.55,3.49A10.5,10.5,0,0,1,674.55,225.72Z"/><rect class="cls-2" x="576" y="435.45" width="84.55" height="114.27"/><path d="M597.22,507h-4.66L603,477.87h5.07L618.57,507h-4.66l-8.23-23.81h-.23Zm.78-11.39h15.11v3.69H598Z"/><path d="M632.51,507.36a11.78,11.78,0,0,1-3.82-.71,9,9,0,0,1-3.42-2.28,11.32,11.32,0,0,1-2.45-4.27,21.06,21.06,0,0,1-.92-6.71,27.59,27.59,0,0,1,.76-6.76,15.15,15.15,0,0,1,2.2-5,9.43,9.43,0,0,1,8-4.17,10.07,10.07,0,0,1,4.62,1,8.8,8.8,0,0,1,3.27,2.83,9.38,9.38,0,0,1,1.6,4.11H638a5.54,5.54,0,0,0-1.75-3,4.94,4.94,0,0,0-3.41-1.15,5.57,5.57,0,0,0-5,2.78,14.38,14.38,0,0,0-1.8,7.74h.21a8,8,0,0,1,1.85-2.11,8.51,8.51,0,0,1,2.48-1.35,8.89,8.89,0,0,1,2.89-.47,8.76,8.76,0,0,1,4.58,1.23,8.93,8.93,0,0,1,3.27,3.38,9.82,9.82,0,0,1,1.22,4.95,10.29,10.29,0,0,1-1.25,5,9.31,9.31,0,0,1-3.53,3.57A10.21,10.21,0,0,1,632.51,507.36Zm0-3.7a5.54,5.54,0,0,0,3-.82,6,6,0,0,0,2.09-2.22,6.31,6.31,0,0,0,.76-3.11,6.4,6.4,0,0,0-.74-3.05,5.76,5.76,0,0,0-2.05-2.19,5.48,5.48,0,0,0-3-.81,5.55,5.55,0,0,0-2.34.49,5.9,5.9,0,0,0-1.88,1.33,6.5,6.5,0,0,0-1.27,2,5.94,5.94,0,0,0-.46,2.33,6.16,6.16,0,0,0,.76,3,5.92,5.92,0,0,0,2.09,2.24A5.47,5.47,0,0,0,632.5,503.66Z"/><rect class="cls-2" x="772.84" y="94.37" width="169.1" height="228.55"/><path d="M836.65,227.06H832L842.46,198h5.07L858,227.06h-4.66l-8.23-23.81h-.22Zm.78-11.4h15.11v3.7H837.43Z"/><path d="M871.39,227.45a10.77,10.77,0,0,1-4.79-1,8.57,8.57,0,0,1-3.39-2.83,7.55,7.55,0,0,1-1.35-4.12h4.26a4.28,4.28,0,0,0,1.66,3.08,5.58,5.58,0,0,0,3.61,1.21,5.78,5.78,0,0,0,3-.77,5.53,5.53,0,0,0,2-2.14,6.36,6.36,0,0,0,.75-3.11,6.47,6.47,0,0,0-.77-3.17,5.63,5.63,0,0,0-2.11-2.19,6,6,0,0,0-3.07-.81,8.05,8.05,0,0,0-2.66.46,6.17,6.17,0,0,0-2.16,1.19l-4-.6L864,198h16v3.76H867.66l-.93,8.14h.17a6.84,6.84,0,0,1,2.27-1.38,8.2,8.2,0,0,1,3-.55,8.88,8.88,0,0,1,8,4.71,10.08,10.08,0,0,1,1.19,5,9.75,9.75,0,0,1-1.28,5,9.27,9.27,0,0,1-3.55,3.48A10.39,10.39,0,0,1,871.39,227.45Z"/></g></svg>