<svg xmlns="http://www.w3.org/2000/svg" viewBox="0 0 648 648"><defs><style>.cls-1{fill:#ff5c35;}.cls-2{fill:#fff;}</style></defs><g id="Graphic"><rect x="156.46" y="45.36" width="335.08" height="557.28"/><path class="cls-1" d="M480.91,56V592H167.09V56H480.91m10.63-10.63H156.46V602.64H491.54V45.36Z"/><rect class="cls-2" x="188.36" y="77.26" width="271.29" height="390.6"/><path class="cls-1" d="M238.22,559.18c-1.09-1.89-4-2-5.44.63a7.33,7.33,0,0,1-2.35,2.76l-1.27-2.14,2.45-1.37-8.08-19.54a12.72,12.72,0,0,0,1.2-1.12c1.93-2.11,4-5.9,3-12-.35-1.86-.56-3.51.34-5,1.64-2.62.85-4.59-.33-5.48-2.16-1.62-4.61-.37-6,1l-.56-8a5.56,5.56,0,0,0-1.67-3.83,3.48,3.48,0,0,0-2.62-.85,3.41,3.41,0,0,0-1.62.52l0-.32a5.71,5.71,0,0,0-1.74-3.87,3.4,3.4,0,0,0-2.57-.81c-2,.18-3.27,2-3.58,4a3.45,3.45,0,0,0-1.78-.3c-2.61.25-3.8,2.82-3.63,5.24l.27,3.8a2.93,2.93,0,0,0-1.25-.15c-2.16.25-3.42,2.25-3.22,5.11l.84,12h0l0,.24s0,0,0,.07c.48,5.73,2.87,9.05,5.06,10.91a11.52,11.52,0,0,1-7.59,11.8l-1,.37-7,2.15,2.12,7.09,2-.25a8.48,8.48,0,0,0-.33,6.19,2.9,2.9,0,0,0,4.05,2.15c1.6-.78,2.45-2.45,1-4.76-1.74-2.69-1-3.74-.53-4.09l.14,0,.62,1.95.81.05c.56,0,1.09,0,1.62,0,11,0,13.82-7.2,13.94-7.52a1.18,1.18,0,0,0-2.21-.83c0,.07-2.45,6.24-12.41,6l-2-6.31h0A13.87,13.87,0,0,0,206,542.26a7.77,7.77,0,0,0,1.61.65,1.07,1.07,0,0,0,.25,0,1.18,1.18,0,0,0,.25-2.33c-.06,0-6.51-1.85-7.18-11.3l-.85-12c0-.25-.14-2.45,1.13-2.59a.55.55,0,0,1,.43.15,3.48,3.48,0,0,1,.89,2.27l0,.43.48,6.83a1.18,1.18,0,0,0,1.26,1.09,1.17,1.17,0,0,0,1.09-1.26l-.42-6h0l-.06-.83,0-.43h0l-.59-8.42c-.08-1,.26-2.6,1.49-2.72a1.06,1.06,0,0,1,.84.26,3.36,3.36,0,0,1,.9,2.23v0l.8,11.36a1.19,1.19,0,0,0,1.18,1.1h.08a1.19,1.19,0,0,0,1.1-1.26l-1-14.69c-.09-1.27.66-2.64,1.49-2.72a1,1,0,0,1,.83.26,3.33,3.33,0,0,1,.91,2.23l1,14.69a1.18,1.18,0,0,0,2.35-.17l-.69-9.77v0c-.07-1,.27-2.63,1.47-2.72a1.19,1.19,0,0,1,.91.28,3.32,3.32,0,0,1,.85,2.21l1.25,17.64a.5.5,0,0,0,0,.12s0,.06,0,.09l0,.13,0,.08.07.11a1.29,1.29,0,0,0,.34.36l0,0,.13.07.07,0,.12,0,.09,0h.3l.1,0,.12,0,.11,0,.1,0,.1-.06.1-.06.08-.08a.27.27,0,0,0,.08-.07l.07-.09.07-.09.05-.11a.93.93,0,0,0,.05-.1l0-.12a.36.36,0,0,0,0-.1.62.62,0,0,0,0-.13.33.33,0,0,0,0-.1c0-.48-.1-1.55-.16-2.32l0-.7a7,7,0,0,1,.93-4.64c.36-.48,2-2.06,3.17-1.14.52.39.43,1.27-.25,2.34-1.47,2.35-1,5-.66,6.64.86,5.18-.84,8.31-2.41,10a8.72,8.72,0,0,1-1.46,1.29,1.77,1.77,0,0,0-.24.17,7.75,7.75,0,0,1-4.62,1.43,1.18,1.18,0,1,0-.18,2.35l.55,0a9.79,9.79,0,0,0,4.49-1.21l5.22,12.64a3.66,3.66,0,0,1-2.81,1.82,1.18,1.18,0,0,0,.24,2.34l.23,0a6.6,6.6,0,0,0,3.37-1.66l.85,2.06-.68.38h0l-5.08,2.83-11.33-15.15a1.19,1.19,0,0,0-1.66-.24,1.18,1.18,0,0,0-.23,1.65l12.57,16.8h0l4.61,6.15,6.23-3.48-.85-1.43a10.7,10.7,0,0,0,4.18-1.63C238.78,562.28,238.81,560.2,238.22,559.18Z"/><path class="cls-1" d="M208.32,553.21a1.4,1.4,0,0,1-1.14,1.45,1.18,1.18,0,0,0,.21,2.34l.21,0a3.77,3.77,0,0,0,3.08-3.81,1.18,1.18,0,0,0-2.36,0Z"/><path class="cls-1" d="M209.09,524c-.62.17-1,1.06-.82,2s.8,1.56,1.43,1.39,1-1.06.82-2S209.72,523.8,209.09,524Z"/><path class="cls-1" d="M217.44,527.35c.62-.17,1-1.06.83-2s-.81-1.55-1.43-1.38-1,1.06-.83,2S216.82,527.52,217.44,527.35Z"/><path class="cls-1" d="M210.7,532.59a1.17,1.17,0,0,0,1.17,1.06H212l3.93-.39-1.35-6.09a1.18,1.18,0,0,0-2.31.52l.78,3.48-1.29.13A1.17,1.17,0,0,0,210.7,532.59Z"/><path class="cls-1" d="M209.91,536.39a1.19,1.19,0,0,0,.42,1.62,6.24,6.24,0,0,0,3.16.87,6.07,6.07,0,0,0,1.58-.21,6.23,6.23,0,0,0,3.83-2.88,1.18,1.18,0,0,0-2-1.2,3.83,3.83,0,0,1-2.38,1.8,3.88,3.88,0,0,1-3-.42A1.18,1.18,0,0,0,209.91,536.39Z"/><rect x="216.94" y="104.36" width="214.12" height="0.97"/><rect x="216.94" y="130.31" width="214.12" height="0.97"/><rect x="216.94" y="156.26" width="214.12" height="0.97"/><rect x="216.94" y="182.21" width="214.12" height="0.97"/><rect x="216.94" y="208.16" width="214.12" height="0.97"/><rect x="216.94" y="234.1" width="214.12" height="0.97"/><rect x="216.94" y="260.05" width="214.12" height="0.97"/><rect x="216.94" y="286" width="214.12" height="0.97"/><rect x="216.94" y="311.95" width="214.12" height="0.97"/><rect x="216.94" y="337.9" width="214.12" height="0.97"/><rect x="216.94" y="363.84" width="214.12" height="0.97"/><rect x="216.94" y="389.79" width="214.12" height="0.97"/><rect x="216.94" y="415.74" width="214.12" height="0.97"/><rect x="216.94" y="441.69" width="214.12" height="0.97"/></g></svg>