<svg xmlns="http://www.w3.org/2000/svg" viewBox="0 0 648 648"><defs><style>.cls-1{fill:#ff5c35;}.cls-2{fill:#fd5d41;}.cls-3{fill:#fff;}</style></defs><g id="Graphic"><circle cx="172.29" cy="237.96" r="51.55"/><path class="cls-1" d="M172.29,191.17A46.79,46.79,0,1,1,125.49,238a46.84,46.84,0,0,1,46.8-46.79m0-4.76A51.55,51.55,0,1,0,223.84,238a51.55,51.55,0,0,0-51.55-51.55Z"/><path class="cls-2" d="M178,229.32a2.47,2.47,0,0,1-2.47-2.47v-7.41a5,5,0,0,0-4.94-4.94,2.47,2.47,0,1,1,0-4.94,9.89,9.89,0,0,1,9.88,9.88v7.41A2.48,2.48,0,0,1,178,229.32Z"/><path class="cls-2" d="M170.56,221.91a9.89,9.89,0,0,1-9.88-9.88v-4.94a2.47,2.47,0,0,1,4.94,0V212a4.94,4.94,0,0,0,4.94,4.94,2.47,2.47,0,0,1,0,4.94Z"/><path class="cls-2" d="M170.56,263.9a19.78,19.78,0,0,1-19.76-19.76V224.38h39.52v19.76A19.79,19.79,0,0,1,170.56,263.9Zm-14.82-34.58v14.82a14.82,14.82,0,0,0,29.64,0V229.32Z"/><path class="cls-2" d="M191.55,246.61h-6.17V224.38h6.17a11.12,11.12,0,0,1,0,22.23Zm-1.23-4.94h1.23a6.18,6.18,0,0,0,0-12.35h-1.23Z"/><path class="cls-2" d="M187.85,263.9H153.27a2.47,2.47,0,0,1,0-4.94h34.58a2.47,2.47,0,0,1,0,4.94Z"/><rect x="350.16" width="1" height="648"/><path d="M419,463.42a15,15,0,0,1-15-15V371.33a15,15,0,0,1,30.06,0v77.06A15,15,0,0,1,419,463.42Zm0-106.12a14,14,0,0,0-14,14v77.06a14,14,0,0,0,28.06,0V371.33A14,14,0,0,0,419,357.3Z"/><rect class="cls-3" x="412.44" y="403.09" width="71.67" height="13.55" rx="6.15"/><path d="M478,417.13H418.59a6.65,6.65,0,0,1-6.65-6.65v-1.24a6.65,6.65,0,0,1,6.65-6.65H478a6.65,6.65,0,0,1,6.65,6.65v1.24A6.65,6.65,0,0,1,478,417.13Zm-59.37-13.54a5.66,5.66,0,0,0-5.65,5.65v1.24a5.66,5.66,0,0,0,5.65,5.65H478a5.65,5.65,0,0,0,5.65-5.65v-1.24a5.65,5.65,0,0,0-5.65-5.65Z"/></g></svg>