<svg xmlns="http://www.w3.org/2000/svg" viewBox="0 0 648 648"><defs><style>.cls-1{fill:#ff5c35;}.cls-2{fill:#fff;}.cls-3{fill:none;}</style></defs><g id="Graphic"><rect x="419.63" y="580.49" width="162.94" height="22.15"/><rect class="cls-1" x="398.67" y="45.36" width="203.97" height="535.13"/><path d="M594.51,53.49V572.36H406.79V53.49H594.51m8.13-8.13h-204V580.48h204V45.36Z"/><circle class="cls-2" cx="500.65" cy="148.04" r="57.64"/><path d="M511.13,158.52H479.7V116.6h31.43a21,21,0,1,1,0,41.92Zm-21-10.48h21a10.48,10.48,0,1,0,0-21h-21Z"/><path d="M484.93,184.72a5.24,5.24,0,0,1-5.23-5.24v-52.4a5.24,5.24,0,1,1,10.47,0v52.4A5.24,5.24,0,0,1,484.93,184.72Z"/><path d="M447.44,244.85V226.32H454a7.28,7.28,0,0,1,3.59.79,5.11,5.11,0,0,1,2.12,2.15,7,7,0,0,1,0,6.13,5.18,5.18,0,0,1-2.14,2.16,7.27,7.27,0,0,1-3.58.79h-4.54V236h4.29a4.51,4.51,0,0,0,2.22-.48,2.9,2.9,0,0,0,1.25-1.3,4.28,4.28,0,0,0,.4-1.87,4.24,4.24,0,0,0-.4-1.86,2.88,2.88,0,0,0-1.26-1.28,4.69,4.69,0,0,0-2.24-.46h-3.52v16.13Z"/><path d="M463.32,244.85h-3L467,226.32h3.23l6.67,18.53h-3l-5.24-15.16h-.14Zm.5-7.25h9.63V240h-9.63Z"/><path d="M479.59,244.85V226.32h6.61a7.78,7.78,0,0,1,3.58.74,5,5,0,0,1,2.13,2.05,6.26,6.26,0,0,1,.7,3,6,6,0,0,1-.71,3,4.83,4.83,0,0,1-2.13,2,8.07,8.07,0,0,1-3.58.71h-5v-2.41h4.75a5.39,5.39,0,0,0,2.22-.39,2.52,2.52,0,0,0,1.25-1.13,3.66,3.66,0,0,0,.4-1.78,3.85,3.85,0,0,0-.41-1.82,2.66,2.66,0,0,0-1.25-1.18,5.27,5.27,0,0,0-2.24-.41h-3.51v16.13Zm9.15-8.36,4.58,8.36h-3.19l-4.49-8.36Z"/><path d="M496,244.85V226.32h2.8v8.85h.23l7.77-8.85h3.52l-7.47,8.34,7.5,10.19H507l-6-8.28-2.19,2.52v5.76Z"/><path d="M515.75,226.32v18.53H513V226.32Z"/><path d="M534.78,226.32v18.53h-2.57l-9.42-13.59h-.17v13.59h-2.8V226.32h2.59l9.43,13.61H532V226.32Z"/><path d="M551.4,232.18a6,6,0,0,0-.7-1.48,5.15,5.15,0,0,0-1.05-1.13,4.51,4.51,0,0,0-1.38-.71,5.72,5.72,0,0,0-1.7-.24,5.1,5.1,0,0,0-2.82.81,5.46,5.46,0,0,0-2,2.35,9,9,0,0,0-.72,3.8,8.9,8.9,0,0,0,.73,3.81,5.46,5.46,0,0,0,2,2.36,5.3,5.3,0,0,0,2.9.81,5.42,5.42,0,0,0,2.64-.62,4.37,4.37,0,0,0,1.75-1.74,5.47,5.47,0,0,0,.62-2.66l.72.14h-5.3v-2.31h7.28v2.11a7.94,7.94,0,0,1-1,4.05,6.89,6.89,0,0,1-2.73,2.65,9,9,0,0,1-8.4-.23,7.81,7.81,0,0,1-2.95-3.29,11.21,11.21,0,0,1-1.06-5.06,12,12,0,0,1,.61-4,8.53,8.53,0,0,1,1.74-3,7.49,7.49,0,0,1,2.63-1.9,8.37,8.37,0,0,1,3.32-.65,8.79,8.79,0,0,1,2.8.44,7.83,7.83,0,0,1,2.31,1.26,7.25,7.25,0,0,1,1.69,1.93,7.17,7.17,0,0,1,.91,2.48Z"/><rect class="cls-3" x="466.21" y="271.97" width="68.89" height="68.89"/><path d="M523.62,310.05H485.81l18.11-18.11a2.87,2.87,0,0,0-4.06-4.06l-25,25,25,25a2.87,2.87,0,0,0,4.06-4.06l-18.11-18.11h37.81a2.87,2.87,0,1,0,0-5.74Z"/><path d="M530.27,515c-1.28-2.22-4.69-2.34-6.37.74a8.63,8.63,0,0,1-2.75,3.23l-1.49-2.51,2.87-1.6L513.06,492a12.43,12.43,0,0,0,1.41-1.31c2.26-2.47,4.7-6.91,3.5-14.11-.41-2.18-.66-4.12.41-5.83,1.92-3.07,1-5.38-.4-6.42-2.52-1.9-5.4-.43-7,1.22l-.66-9.39a6.53,6.53,0,0,0-2-4.49,4.12,4.12,0,0,0-3.07-1,4.19,4.19,0,0,0-1.9.62l0-.38a6.59,6.59,0,0,0-2-4.53,4,4,0,0,0-3-.95c-2.3.21-3.83,2.38-4.18,4.68a4.1,4.1,0,0,0-2.09-.35c-3.06.29-4.45,3.31-4.25,6.14l.31,4.46a3.32,3.32,0,0,0-1.47-.18c-2.53.29-4,2.63-3.77,6l1,14.07h0l0,.28s0,.06,0,.08c.57,6.72,3.36,10.61,5.93,12.79.17,2.08.17,10.1-8.89,13.83l-1.16.43-8.19,2.52,2.48,8.31,2.39-.3a10,10,0,0,0-.39,7.26,3.41,3.41,0,0,0,4.75,2.52c1.87-.92,2.87-2.87,1.12-5.58-2-3.16-1.18-4.38-.62-4.8l.17,0,.72,2.28.95.06c.65,0,1.29.06,1.9.06,12.88,0,16.2-8.43,16.34-8.81a1.38,1.38,0,0,0-2.59-1c0,.08-2.88,7.31-14.54,7l-2.33-7.38h0c8.69-3.58,10.39-10.65,10.62-14.56a9.28,9.28,0,0,0,1.89.76,1,1,0,0,0,.29,0,1.39,1.39,0,0,0,.3-2.74c-.08,0-7.64-2.17-8.42-13.24l-1-14.07c0-.3-.16-2.87,1.32-3a.66.66,0,0,1,.51.18,4.11,4.11,0,0,1,1,2.65l0,.51.56,8a1.4,1.4,0,0,0,1.48,1.29,1.39,1.39,0,0,0,1.28-1.48l-.49-7h0l-.07-1,0-.5h0l-.69-9.86c-.09-1.21.31-3.06,1.75-3.19a1.21,1.21,0,0,1,1,.3,4,4,0,0,1,1.05,2.62v0l.94,13.31a1.38,1.38,0,0,0,1.37,1.29h.1a1.39,1.39,0,0,0,1.28-1.48l-1.21-17.21c-.11-1.49.78-3.1,1.75-3.19a1.24,1.24,0,0,1,1,.31,3.94,3.94,0,0,1,1.07,2.61l1.21,17.21a1.39,1.39,0,0,0,1.48,1.28,1.38,1.38,0,0,0,1.28-1.47l-.81-11.46v0c-.08-1.18.31-3.09,1.72-3.19a1.35,1.35,0,0,1,1.06.33,3.93,3.93,0,0,1,1,2.59L509,477a.77.77,0,0,0,0,.15s0,.07,0,.1a.75.75,0,0,0,.05.16,1,1,0,0,1,0,.1l.08.12a1.31,1.31,0,0,0,.39.42l0,0,.15.08.08,0,.15.05.11,0h.34l.12,0,.14,0,.13-.05.12,0,.12-.07.11-.07.1-.09.09-.09.09-.11.07-.11.06-.12.06-.12,0-.14,0-.12a.76.76,0,0,0,0-.15s0-.07,0-.11c0-.57-.12-1.82-.19-2.73l-.06-.81c-.17-2.4.2-4.28,1.09-5.45.42-.55,2.28-2.4,3.71-1.33.61.46.5,1.49-.29,2.75-1.72,2.75-1.15,5.79-.78,7.77,1,6.07-1,9.75-2.82,11.77a10.82,10.82,0,0,1-1.71,1.5,1.42,1.42,0,0,0-.28.2,9.1,9.1,0,0,1-5.42,1.67,1.38,1.38,0,0,0-.21,2.76c.22,0,.43,0,.64,0a11.43,11.43,0,0,0,5.26-1.41l6.13,14.8a4.34,4.34,0,0,1-3.29,2.15,1.38,1.38,0,0,0,.27,2.73l.27,0a7.84,7.84,0,0,0,3.95-1.94l1,2.4-.8.45h0l-6,3.32L499,499.7a1.38,1.38,0,0,0-2.22,1.65L511.53,521h0l5.39,7.21,7.31-4.08-1-1.68a12.87,12.87,0,0,0,4.91-1.91C530.94,518.67,531,516.23,530.27,515Z"/><path d="M495.24,508a1.65,1.65,0,0,1-1.34,1.7,1.38,1.38,0,0,0,.25,2.74l.25,0A4.44,4.44,0,0,0,498,508a1.39,1.39,0,0,0-2.77.05Z"/><path d="M496.14,473.77c-.73.2-1.16,1.25-1,2.34s.94,1.82,1.67,1.62,1.16-1.24,1-2.33S496.87,473.58,496.14,473.77Z"/><path d="M505.93,477.73c.73-.19,1.16-1.24,1-2.33s-.94-1.82-1.67-1.63-1.16,1.25-1,2.34S505.2,477.93,505.93,477.73Z"/><path d="M498,483.88a1.38,1.38,0,0,0,1.38,1.24h.13l4.61-.45-1.58-7.13a1.4,1.4,0,0,0-1.65-1,1.38,1.38,0,0,0-1.05,1.65l.91,4.08-1.51.15A1.4,1.4,0,0,0,498,483.88Z"/><path d="M497.1,488.33a1.37,1.37,0,0,0,.49,1.89,7.33,7.33,0,0,0,10-2.6,1.38,1.38,0,0,0-2.38-1.4,4.56,4.56,0,0,1-6.26,1.62A1.38,1.38,0,0,0,497.1,488.33Z"/><rect x="66.1" y="580.49" width="162.94" height="22.15"/><rect x="45.13" y="45.36" width="203.97" height="535.13"/><path class="cls-1" d="M241,53.49V572.36H53.26V53.49H241m8.13-8.13h-204V580.48h204V45.36Z"/><circle class="cls-2" cx="147.12" cy="148.04" r="57.64"/><path d="M157.6,158.52H126.16V116.6H157.6a21,21,0,0,1,0,41.92Zm-21-10.48h21a10.48,10.48,0,1,0,0-21h-21Z"/><path d="M131.4,184.72a5.25,5.25,0,0,1-5.24-5.24v-52.4a5.24,5.24,0,1,1,10.48,0v52.4A5.25,5.25,0,0,1,131.4,184.72Z"/><path class="cls-2" d="M93.9,244.85V226.32h6.61a7.24,7.24,0,0,1,3.58.79,5.07,5.07,0,0,1,2.13,2.15,6.57,6.57,0,0,1,.71,3.06,6.44,6.44,0,0,1-.72,3.07,5.15,5.15,0,0,1-2.13,2.16,7.27,7.27,0,0,1-3.58.79H96V236h4.29a4.44,4.44,0,0,0,2.21-.48,2.85,2.85,0,0,0,1.25-1.3,4.15,4.15,0,0,0,.4-1.87,4.1,4.1,0,0,0-.4-1.86,2.81,2.81,0,0,0-1.25-1.28,4.71,4.71,0,0,0-2.25-.46H96.7v16.13Z"/><path class="cls-2" d="M109.79,244.85h-3l6.67-18.53h3.23l6.67,18.53h-3l-5.24-15.16H115Zm.49-7.25h9.63V240h-9.63Z"/><path class="cls-2" d="M126.06,244.85V226.32h6.6a7.76,7.76,0,0,1,3.58.74,5,5,0,0,1,2.13,2.05,6.27,6.27,0,0,1,.71,3,6.12,6.12,0,0,1-.71,3,4.91,4.91,0,0,1-2.14,2,8,8,0,0,1-3.58.71h-5v-2.41h4.75a5.37,5.37,0,0,0,2.21-.39,2.54,2.54,0,0,0,1.26-1.13,3.77,3.77,0,0,0,.39-1.78,3.85,3.85,0,0,0-.4-1.82,2.73,2.73,0,0,0-1.26-1.18,5.24,5.24,0,0,0-2.24-.41h-3.51v16.13Zm9.15-8.36,4.57,8.36H136.6l-4.49-8.36Z"/><path class="cls-2" d="M142.49,244.85V226.32h2.8v8.85h.22l7.78-8.85h3.52l-7.48,8.34,7.5,10.19h-3.36l-6-8.28-2.19,2.52v5.76Z"/><path class="cls-2" d="M162.22,226.32v18.53h-2.8V226.32Z"/><path class="cls-2" d="M181.25,226.32v18.53h-2.57l-9.42-13.59h-.18v13.59h-2.79V226.32h2.59l9.43,13.61h.17V226.32Z"/><path class="cls-2" d="M197.86,232.18a5.62,5.62,0,0,0-.7-1.48,4.88,4.88,0,0,0-1-1.13,4.75,4.75,0,0,0-1.38-.71,5.72,5.72,0,0,0-1.7-.24,5.08,5.08,0,0,0-2.82.81,5.39,5.39,0,0,0-2,2.35,8.85,8.85,0,0,0-.73,3.8,9.05,9.05,0,0,0,.73,3.81,5.46,5.46,0,0,0,2,2.36,5.31,5.31,0,0,0,2.91.81,5.42,5.42,0,0,0,2.64-.62,4.29,4.29,0,0,0,1.74-1.74,5.36,5.36,0,0,0,.62-2.66l.73.14h-5.31v-2.31h7.29v2.11a7.94,7.94,0,0,1-1,4.05,6.85,6.85,0,0,1-2.74,2.65,9,9,0,0,1-8.39-.23,7.83,7.83,0,0,1-3-3.29,11.34,11.34,0,0,1-1.06-5.06,12,12,0,0,1,.62-4,8.66,8.66,0,0,1,1.73-3,7.52,7.52,0,0,1,2.64-1.9,8.32,8.32,0,0,1,3.31-.65,8.74,8.74,0,0,1,2.8.44,7.76,7.76,0,0,1,2.32,1.26,7.25,7.25,0,0,1,1.69,1.93,7.36,7.36,0,0,1,.9,2.48Z"/><path class="cls-2" d="M160.32,518.65l-4.22-7.92-2.2.53-.15,9a1,1,0,0,0,.95,1h0a1,1,0,0,0,1-1l0-.75,2.53-.61.36.67a1,1,0,0,0,1.72-.92Zm-4.58-1.15.06-3.2,1.5,2.82Z"/><path class="cls-2" d="M171.89,513.15l-4.48-7.72-1.68,1,1,5.57-4.35-3.61-1.68,1,4.48,7.73a1,1,0,0,0,.84.49,1,1,0,0,0,.49-.14,1,1,0,0,0,.35-1.33l-1.64-2.84,2.29,1.91,1.59-.93-.51-2.93,1.64,2.84a1,1,0,0,0,1.69-1Z"/><path class="cls-2" d="M148.09,519.72h-2.92v-7.79h-1.95v9.74h4.87a1,1,0,1,0,0-1.95Z"/><path class="cls-2" d="M135.49,509.88l-4.85,7.55a1,1,0,0,0,.3,1.35,1,1,0,0,0,1.34-.3l.41-.63,2.48.81,0,.76a1,1,0,0,0,.91,1h.06a1,1,0,0,0,1-.91l.58-8.95Zm-1.71,6.27,1.72-2.68-.2,3.18Z"/><path class="cls-2" d="M124,514.7a2.76,2.76,0,0,1-2.26-4.33,1,1,0,0,1,1.35-.24,1,1,0,0,1,.25,1.35.81.81,0,0,0,.21,1.13.82.82,0,0,0,1.13-.21l.27-.4a.81.81,0,0,0-.21-1.13,2.75,2.75,0,0,1-1.14-1.77,2.71,2.71,0,0,1,.44-2.07l.27-.4a2.8,2.8,0,0,1,1.78-1.15,2.74,2.74,0,0,1,2.06.45,2.68,2.68,0,0,1,1.15,1.77,2.73,2.73,0,0,1-.44,2.06,1,1,0,1,1-1.6-1.1.88.88,0,0,0,.13-.61.8.8,0,0,0-.34-.52.83.83,0,0,0-.61-.13.8.8,0,0,0-.52.34l-.28.4a.82.82,0,0,0-.13.61.83.83,0,0,0,.34.52,2.77,2.77,0,0,1,.71,3.84l-.28.4A2.78,2.78,0,0,1,124,514.7Z"/><circle class="cls-2" cx="182.18" cy="502.84" r="2.6"/><path class="cls-2" d="M184.13,480.76v8.44a1.95,1.95,0,1,1-3.89,0V470.37h-6.49V489.2a8.45,8.45,0,0,0,16.89,0v-8.44Z"/><path class="cls-2" d="M164.65,489.2a1.95,1.95,0,1,1-3.89,0v-8.44h-6.5v8.44a1.95,1.95,0,1,1-3.89,0v-8.44h-6.5v3.71a9.53,9.53,0,0,0-1.11-2.15h0l-4-5.74,3.08-4.4-5.32-3.72-1.73,2.46-3-4.28-5.31,3.73,4.35,6.21-4,5.74h0a9.68,9.68,0,0,0-1.52,3.54,9.09,9.09,0,1,0-17,6.41,9.11,9.11,0,0,0-4.7,8v2.62h6.5v-2.62a2.59,2.59,0,0,1,2.6-2.59h3.89a9.1,9.1,0,0,0,8.84-7,9.74,9.74,0,0,0,18.61.26,8.43,8.43,0,0,0,13.46,4.94,8.33,8.33,0,0,0,5.19,1.8,8.45,8.45,0,0,0,8.45-8.44v-8.44h-6.5Zm-48.05,1.95v0h-.19a2.44,2.44,0,1,1,.19,0Zm18.18,0a3.29,3.29,0,0,1-3.24-3.25,3.25,3.25,0,0,1,.58-1.86h0l2.66-3.8,2.66,3.8h0a3.19,3.19,0,0,1,.59,1.86A3.3,3.3,0,0,1,134.78,491.15Z"/></g><g id="Isolation_Mode" data-name="Isolation Mode"><rect y="602.36" width="648" height="0.56"/></g></svg>