<svg xmlns="http://www.w3.org/2000/svg" viewBox="0 0 648 648"><defs><style>.cls-1{fill:#ff5c35;}.cls-2{fill:#fd5d41;}.cls-3{fill:#fff;}</style></defs><g id="Graphic"><circle cx="172.29" cy="237.96" r="84.1"/><path class="cls-1" d="M172.29,161.62A76.34,76.34,0,1,1,95.94,238a76.43,76.43,0,0,1,76.35-76.34m0-7.76a84.1,84.1,0,1,0,84.1,84.1,84.1,84.1,0,0,0-84.1-84.1Z"/><path class="cls-2" d="M181.55,223.87a4,4,0,0,1-4-4V207.75a8.07,8.07,0,0,0-8.06-8.06,4,4,0,0,1,0-8.06,16.13,16.13,0,0,1,16.11,16.12v12.09A4,4,0,0,1,181.55,223.87Z"/><path class="cls-2" d="M169.47,211.78a16.14,16.14,0,0,1-16.12-16.12V187.6a4,4,0,1,1,8.06,0v8.06a8.06,8.06,0,0,0,8.06,8.06,4,4,0,1,1,0,8.06Z"/><path class="cls-2" d="M169.47,280.27A32.27,32.27,0,0,1,137.23,248V215.81H201.7V248A32.27,32.27,0,0,1,169.47,280.27Zm-24.18-56.4V248a24.18,24.18,0,0,0,48.35,0V223.87Z"/><path class="cls-2" d="M203.71,252.07H193.64V215.81h10.07a18.13,18.13,0,0,1,0,36.26Zm-2-8.06h2a10.07,10.07,0,1,0,0-20.14h-2Z"/><path class="cls-2" d="M197.67,280.27H141.26a4,4,0,0,1,0-8.06h56.41a4,4,0,1,1,0,8.06Z"/><rect x="350.16" width="1" height="648"/><path d="M419,463.42a15,15,0,0,1-15-15V371.33a15,15,0,0,1,30.06,0v77.06A15,15,0,0,1,419,463.42Zm0-106.12a14,14,0,0,0-14,14v77.06a14,14,0,0,0,28.06,0V371.33A14,14,0,0,0,419,357.3Z"/><rect class="cls-3" x="412.44" y="403.09" width="71.67" height="13.55" rx="6.15"/><path d="M478,417.13H418.59a6.65,6.65,0,0,1-6.65-6.65v-1.24a6.65,6.65,0,0,1,6.65-6.65H478a6.65,6.65,0,0,1,6.65,6.65v1.24A6.65,6.65,0,0,1,478,417.13Zm-59.37-13.54a5.66,5.66,0,0,0-5.65,5.65v1.24a5.66,5.66,0,0,0,5.65,5.65H478a5.65,5.65,0,0,0,5.65-5.65v-1.24a5.65,5.65,0,0,0-5.65-5.65Z"/></g></svg>