<svg xmlns="http://www.w3.org/2000/svg" viewBox="0 0 1152 648"><defs><style>.cls-1{fill:#ff5c35;}.cls-2{fill:#fff;}</style></defs><g id="Graphic"><rect x="353.39" y="187.75" width="17.17" height="203.45"/><rect x="781.43" y="187.75" width="17.17" height="203.45"/><rect x="144.18" y="256.8" width="863.65" height="134.39"/><path class="cls-1" d="M999.7,264.93V383.07H152.3V264.93H999.7m8.12-8.13H144.18V391.2h863.64V256.8Z"/><path class="cls-2" d="M456,347V305.18h14.9A16.46,16.46,0,0,1,479,307a11.57,11.57,0,0,1,4.79,4.84,15.81,15.81,0,0,1,0,13.84,11.7,11.7,0,0,1-4.81,4.85,16.5,16.5,0,0,1-8.07,1.79H460.65v-5.35h9.68a10.09,10.09,0,0,0,5-1.07,6.59,6.59,0,0,0,2.82-2.93,9.52,9.52,0,0,0,.9-4.22,9.4,9.4,0,0,0-.9-4.2,6.4,6.4,0,0,0-2.83-2.88,10.68,10.68,0,0,0-5.07-1h-7.91V347Z"/><path class="cls-2" d="M491.83,347h-6.69l15-41.79h7.29l15,41.79H515.8L504,312.77h-.33ZM493,330.6h21.71v5.31H493Z"/><path class="cls-2" d="M528.51,347V305.18h14.9a17.35,17.35,0,0,1,8.07,1.68,11.06,11.06,0,0,1,4.8,4.62,14.08,14.08,0,0,1,1.59,6.8,13.68,13.68,0,0,1-1.6,6.74,10.88,10.88,0,0,1-4.81,4.52,17.9,17.9,0,0,1-8.07,1.62H532.1v-5.43h10.72a12,12,0,0,0,5-.88,5.76,5.76,0,0,0,2.83-2.55,8.35,8.35,0,0,0,.9-4,8.79,8.79,0,0,0-.91-4.1,6,6,0,0,0-2.84-2.66,11.68,11.68,0,0,0-5-.93h-7.91V347Zm20.63-18.85L559.46,347h-7.18l-10.12-18.85Z"/><path class="cls-2" d="M565.56,347V305.18h6.31v20h.51l17.52-20h7.94L581,324l16.91,23h-7.59l-13.5-18.67L571.87,334v13Z"/><path class="cls-2" d="M610,305.18V347h-6.3V305.18Z"/><path class="cls-2" d="M653,305.18V347h-5.8l-21.24-30.65h-.38V347h-6.31V305.18h5.84l21.26,30.69h.39V305.18Z"/><path class="cls-2" d="M690.41,318.38a13.3,13.3,0,0,0-1.58-3.33,10.55,10.55,0,0,0-2.36-2.53,9.86,9.86,0,0,0-3.11-1.6,12.57,12.57,0,0,0-3.83-.55,11.54,11.54,0,0,0-6.36,1.81,12.27,12.27,0,0,0-4.48,5.32,23.15,23.15,0,0,0,0,17.14,12.26,12.26,0,0,0,4.53,5.33,12,12,0,0,0,6.55,1.82,12.24,12.24,0,0,0,5.94-1.39,9.74,9.74,0,0,0,3.94-3.93,12.25,12.25,0,0,0,1.4-6l1.63.31h-12v-5.2h16.42v4.75a17.93,17.93,0,0,1-2.23,9.13,15.35,15.35,0,0,1-6.17,6,20.26,20.26,0,0,1-18.93-.51,17.68,17.68,0,0,1-6.66-7.42,25.4,25.4,0,0,1-2.39-11.41,27,27,0,0,1,1.39-9,19.39,19.39,0,0,1,3.91-6.76,17.14,17.14,0,0,1,5.93-4.27,18.56,18.56,0,0,1,7.48-1.48,19.65,19.65,0,0,1,6.32,1,17.12,17.12,0,0,1,5.22,2.84,16,16,0,0,1,5.84,9.93Z"/><path class="cls-2" d="M242.32,321.13h-37.8L222.63,303a2.87,2.87,0,0,0-4.06-4.06l-25,25,25,25a2.87,2.87,0,0,0,4.06-4.06l-18.11-18.11h37.8a2.87,2.87,0,0,0,0-5.74Z"/><path class="cls-1" d="M970.5,348.86c-1.22-2.13-4.49-2.25-6.1.7a8.21,8.21,0,0,1-2.63,3.09l-1.43-2.39,2.75-1.54L954,326.8a12.26,12.26,0,0,0,1.34-1.26c2.16-2.36,4.5-6.61,3.36-13.5-.39-2.09-.64-4,.38-5.58,1.84-2.94.95-5.15-.37-6.14-2.42-1.82-5.17-.42-6.71,1.16l-.64-9a6.24,6.24,0,0,0-1.87-4.29,3.89,3.89,0,0,0-2.94-.95,4,4,0,0,0-1.82.58l0-.36a6.33,6.33,0,0,0-2-4.33,3.86,3.86,0,0,0-2.89-.92c-2.2.21-3.66,2.28-4,4.49a3.77,3.77,0,0,0-2-.33c-2.93.27-4.26,3.16-4.07,5.87l.3,4.26a3.19,3.19,0,0,0-1.41-.16c-2.42.27-3.83,2.51-3.61,5.72l.95,13.46h0l0,.27s0,.05,0,.08c.54,6.43,3.22,10.15,5.68,12.24.16,2,.16,9.66-8.52,13.23l-1.1.42-7.84,2.4,2.37,8,2.29-.29a9.55,9.55,0,0,0-.37,7,3.26,3.26,0,0,0,4.55,2.41c1.78-.88,2.74-2.75,1.07-5.34-2-3-1.14-4.19-.6-4.59l.16,0,.69,2.18.91.06c.63,0,1.23.06,1.82.06,12.33,0,15.5-8.07,15.64-8.43a1.32,1.32,0,1,0-2.48-.93c0,.07-2.75,7-13.92,6.7l-2.23-7.07h0c8.33-3.42,9.95-10.19,10.17-13.93a10.68,10.68,0,0,0,1.8.73,1.43,1.43,0,0,0,.29,0,1.33,1.33,0,0,0,.28-2.62c-.07,0-7.31-2.07-8.06-12.67l-1-13.47c0-.28-.15-2.74,1.27-2.9a.58.58,0,0,1,.49.16,4,4,0,0,1,1,2.55l0,.48.54,7.66a1.32,1.32,0,1,0,2.64-.18l-.47-6.73h0l-.07-.94,0-.48h0l-.67-9.44c-.08-1.15.3-2.92,1.68-3.05a1.15,1.15,0,0,1,.93.29,3.74,3.74,0,0,1,1,2.51h0l.9,12.75a1.33,1.33,0,0,0,1.31,1.23h.1a1.32,1.32,0,0,0,1.23-1.41l-1.17-16.47c-.1-1.43.75-3,1.68-3.05a1.21,1.21,0,0,1,.93.29,3.85,3.85,0,0,1,1,2.5l1.16,16.48a1.32,1.32,0,0,0,2.64-.19l-.77-11v-.05c-.08-1.12.29-2.95,1.64-3a1.28,1.28,0,0,1,1,.31,3.72,3.72,0,0,1,1,2.48l1.4,19.77a.59.59,0,0,0,0,.14s0,.07,0,.1a.88.88,0,0,0,0,.15l0,.09.08.13a1.28,1.28,0,0,0,.38.39l0,0,.15.08.07,0,.14,0,.11,0h.33l.12,0,.12,0,.13-.05.12,0,.11-.07.11-.07.09-.08.09-.09.08-.1a.86.86,0,0,1,.07-.1l.06-.12a.54.54,0,0,0,.05-.11c0-.05,0-.09,0-.14a.43.43,0,0,0,0-.11.76.76,0,0,0,0-.15s0-.07,0-.1c0-.55-.11-1.74-.18-2.62l-.06-.77c-.16-2.3.2-4.1,1-5.21.4-.53,2.19-2.31,3.55-1.28.59.44.48,1.42-.27,2.63-1.65,2.64-1.1,5.54-.75,7.44,1,5.81-.93,9.33-2.7,11.26a10.39,10.39,0,0,1-1.63,1.44,1,1,0,0,0-.27.19,8.72,8.72,0,0,1-5.19,1.6,1.32,1.32,0,0,0-1.42,1.22,1.34,1.34,0,0,0,1.23,1.42l.61,0a11,11,0,0,0,5-1.35l5.86,14.16a4.14,4.14,0,0,1-3.15,2.06,1.32,1.32,0,0,0,.26,2.62l.27,0a7.51,7.51,0,0,0,3.78-1.85l1,2.3L959,348h0l-5.7,3.18-12.71-17a1.33,1.33,0,1,0-2.12,1.59l14.1,18.84h0l5.17,6.89,7-3.9-1-1.61a12,12,0,0,0,4.69-1.83C971.13,352.33,971.16,350,970.5,348.86Z"/><path class="cls-1" d="M937,342.16a1.56,1.56,0,0,1-1.28,1.62,1.33,1.33,0,0,0,.24,2.63l.24,0a4.24,4.24,0,0,0,3.45-4.27,1.33,1.33,0,0,0-2.65.05Z"/><path class="cls-1" d="M937.84,309.36c-.7.19-1.12,1.19-.93,2.24s.9,1.74,1.6,1.55,1.12-1.19.93-2.23S938.53,309.17,937.84,309.36Z"/><path class="cls-1" d="M947.2,313.15c.7-.19,1.11-1.19.93-2.23s-.91-1.75-1.61-1.56-1.11,1.19-.92,2.24S946.5,313.34,947.2,313.15Z"/><path class="cls-1" d="M939.64,319a1.31,1.31,0,0,0,1.31,1.19h.13l4.41-.44L944,313a1.32,1.32,0,1,0-2.58.57l.87,3.91-1.44.14A1.31,1.31,0,0,0,939.64,319Z"/><path class="cls-1" d="M938.75,323.29a1.33,1.33,0,0,0,.47,1.82,7,7,0,0,0,5.32.74,7,7,0,0,0,4.29-3.23,1.34,1.34,0,0,0-.47-1.82,1.32,1.32,0,0,0-1.81.47,4.32,4.32,0,0,1-2.67,2,4.38,4.38,0,0,1-3.32-.46A1.33,1.33,0,0,0,938.75,323.29Z"/></g><g id="Isolation_Mode" data-name="Isolation Mode"><rect y="187.25" width="1152" height="1"/></g></svg>