<svg xmlns="http://www.w3.org/2000/svg" viewBox="0 0 648 648"><defs><style>.cls-1{fill:#ff5c35;}</style></defs><g id="Graphic"><rect class="cls-1" x="108.46" y="71.91" width="494.18" height="494.18"/><path d="M576.93,97.62V540.38H134.17V97.62H576.93m25.71-25.71H108.46V566.09H602.64V71.91Z"/><path d="M256.65,241.87a38.56,38.56,0,1,1,38.56-38.56A38.61,38.61,0,0,1,256.65,241.87Zm0-51.41a12.85,12.85,0,1,0,12.85,12.85A12.87,12.87,0,0,0,256.65,190.46Z"/><path d="M308.06,370.42a12.85,12.85,0,0,1-12.85-12.86V319a38.57,38.57,0,0,0-77.13,0v38.56a12.86,12.86,0,1,1-25.71,0V319a64.28,64.28,0,0,1,128.55,0v38.56A12.86,12.86,0,0,1,308.06,370.42Z"/><path d="M275.93,473.25a12.85,12.85,0,0,1-12.86-12.85V357.6a12.86,12.86,0,0,1,25.71,0V460.4A12.85,12.85,0,0,1,275.93,473.25Z"/><path d="M237.37,473.25a12.85,12.85,0,0,1-12.86-12.85V357.6a12.86,12.86,0,0,1,25.71,0V460.4A12.85,12.85,0,0,1,237.37,473.25Z"/><path d="M453.35,241.87a38.56,38.56,0,1,1,38.56-38.56A38.6,38.6,0,0,1,453.35,241.87Zm0-51.41a12.85,12.85,0,1,0,12.85,12.85A12.87,12.87,0,0,0,453.35,190.46Z"/><path d="M453.35,473.25a12.85,12.85,0,0,1-12.86-12.85V396.13a12.86,12.86,0,1,1,25.71,0V460.4A12.85,12.85,0,0,1,453.35,473.25Z"/><path d="M403.69,318.55a12.86,12.86,0,0,1-12.42-16.18,64.27,64.27,0,0,1,124.16,0A12.85,12.85,0,1,1,490.6,309a38.57,38.57,0,0,0-74.5,0A12.86,12.86,0,0,1,403.69,318.55Z"/><path d="M389.72,370.68a13.19,13.19,0,0,1-3.33-.44,12.86,12.86,0,0,1-9.09-15.75l14-52.13A12.85,12.85,0,0,1,416.1,309l-14,52.13A12.86,12.86,0,0,1,389.72,370.68Z"/><path d="M516.91,370.45a12.87,12.87,0,0,1-12.41-9.53L490.6,309a12.85,12.85,0,1,1,24.83-6.65l13.91,51.89a12.9,12.9,0,0,1-12.43,16.19Z"/><path d="M508.67,409H398l18.24-68.08a12.86,12.86,0,0,1,24.84,6.66l-9.57,35.71h43.62l-9.57-35.71a12.85,12.85,0,1,1,24.83-6.66Z"/><rect x="45.36" y="136.6" width="63.1" height="374.8"/><rect x="44.81" width="1.1" height="648"/></g></svg>