<svg xmlns="http://www.w3.org/2000/svg" viewBox="0 0 1152 648"><defs><style>.cls-1{fill:#fd5d41;}.cls-2{fill:#ff5c35;}.cls-3{fill:#fff;}</style></defs><g id="Graphic"><rect x="884.81" y="586.28" width="120.31" height="16.36"/><rect class="cls-1" x="869.33" y="45.36" width="150.6" height="540.92"/><path d="M1013.93,51.36V580.28H875.33V51.36h138.6m6-6H869.33V586.28h150.6V45.36Z"/><path d="M969,146.53c-1.1-1.92-4-2-5.48.63a7.44,7.44,0,0,1-2.37,2.78l-1.28-2.16,2.47-1.37-8.15-19.72a11.73,11.73,0,0,0,1.21-1.13c1.94-2.12,4-6,3-12.14-.36-1.88-.57-3.55.34-5,1.66-2.65.85-4.63-.34-5.53-2.17-1.64-4.64-.37-6,1.05l-.57-8.09A5.67,5.67,0,0,0,950.1,92a3.54,3.54,0,0,0-2.64-.85,3.49,3.49,0,0,0-1.64.52l0-.32a5.69,5.69,0,0,0-1.76-3.9,3.44,3.44,0,0,0-2.59-.82c-2,.18-3.3,2-3.6,4a3.54,3.54,0,0,0-1.8-.3c-2.63.25-3.83,2.85-3.66,5.28l.27,3.84a2.81,2.81,0,0,0-1.26-.15c-2.18.25-3.45,2.26-3.25,5.14l.85,12.11h0l0,.24s0,0,0,.07c.49,5.79,2.89,9.13,5.11,11a11.65,11.65,0,0,1-7.66,11.9l-1,.37-7.06,2.16,2.14,7.16,2.06-.26a8.57,8.57,0,0,0-.34,6.25,2.93,2.93,0,0,0,4.09,2.16c1.61-.79,2.47-2.46,1-4.8-1.75-2.71-1-3.76-.54-4.12l.14,0,.62,2,.82.05c.56,0,1.11.05,1.64.05,11.08,0,13.94-7.25,14.06-7.58a1.19,1.19,0,1,0-2.23-.83c0,.06-2.48,6.29-12.51,6l-2-6.36h0a14,14,0,0,0,9.14-12.53,9.72,9.72,0,0,0,1.62.66,1.15,1.15,0,0,0,.26,0,1.19,1.19,0,0,0,.25-2.36c-.06,0-6.57-1.86-7.24-11.39l-.86-12.11c0-.25-.13-2.47,1.14-2.61a.5.5,0,0,1,.44.15,3.54,3.54,0,0,1,.89,2.28l0,.44.49,6.89a1.19,1.19,0,0,0,2.37-.17l-.43-6h0l-.06-.84,0-.43h0l-.59-8.49c-.08-1,.26-2.63,1.5-2.75a1.09,1.09,0,0,1,.85.26,3.4,3.4,0,0,1,.9,2.26h0l.81,11.46a1.18,1.18,0,0,0,1.18,1.11h.09a1.2,1.2,0,0,0,1.1-1.28l-1.05-14.81c-.09-1.28.67-2.66,1.51-2.74a1,1,0,0,1,.83.26,3.37,3.37,0,0,1,.92,2.25l1.05,14.81a1.19,1.19,0,1,0,2.37-.16l-.69-9.86v0c-.08-1,.26-2.65,1.48-2.74a1.15,1.15,0,0,1,.91.28,3.41,3.41,0,0,1,.87,2.23l1.25,17.78a.51.51,0,0,0,0,.13s0,.06,0,.09l0,.13,0,.08.07.12a1.14,1.14,0,0,0,.34.35l0,0,.14.06.06,0,.13,0,.09,0h.3l.11,0,.11,0,.11,0,.11,0,.1-.06.09-.06.09-.08a.6.6,0,0,0,.08-.08l.07-.09.07-.09,0-.11a.93.93,0,0,0,.05-.1l0-.12a.36.36,0,0,0,0-.11.49.49,0,0,0,0-.12s0-.07,0-.1c0-.49-.11-1.56-.17-2.35l0-.7a7,7,0,0,1,.94-4.68c.36-.48,2-2.07,3.19-1.15.53.4.43,1.28-.24,2.36-1.49,2.38-1,5-.68,6.69.87,5.23-.84,8.39-2.43,10.13a9.19,9.19,0,0,1-1.46,1.29,1.46,1.46,0,0,0-.24.17,7.78,7.78,0,0,1-4.67,1.44,1.19,1.19,0,0,0-.18,2.38l.55,0a9.93,9.93,0,0,0,4.53-1.22l5.27,12.74a3.71,3.71,0,0,1-2.83,1.84,1.19,1.19,0,0,0,.23,2.36l.24,0a6.8,6.8,0,0,0,3.4-1.67l.85,2.07-.68.38h0l-5.12,2.86-11.44-15.28a1.18,1.18,0,0,0-1.66-.24,1.19,1.19,0,0,0-.24,1.67l12.68,16.94h0l4.64,6.2,6.29-3.51-.86-1.44a11.14,11.14,0,0,0,4.22-1.65C969.53,149.65,969.55,147.55,969,146.53Z"/><path d="M938.81,140.5a1.4,1.4,0,0,1-1.15,1.46,1.19,1.19,0,0,0,.21,2.36.78.78,0,0,0,.22,0,3.8,3.8,0,0,0,3.1-3.84,1.19,1.19,0,0,0-2.38,0Z"/><path d="M939.59,111c-.63.17-1,1.07-.83,2s.81,1.57,1.44,1.4,1-1.07.83-2S940.22,110.85,939.59,111Z"/><path d="M948,114.42c.63-.17,1-1.07.83-2s-.81-1.56-1.44-1.4-1,1.07-.83,2S947.38,114.59,948,114.42Z"/><path d="M941.21,119.71a1.19,1.19,0,0,0,1.18,1.07h.12l4-.39-1.37-6.13a1.19,1.19,0,1,0-2.32.51l.78,3.52-1.3.13A1.18,1.18,0,0,0,941.21,119.71Z"/><path d="M940.42,123.54a1.18,1.18,0,0,0,.42,1.63,6.31,6.31,0,0,0,8.64-2.24,1.19,1.19,0,1,0-2.05-1.21,3.93,3.93,0,0,1-5.39,1.4A1.19,1.19,0,0,0,940.42,123.54Z"/><path d="M956.72,211.64l-3.86-7.26-2,.49-.14,8.21a.9.9,0,0,0,.88.91h0a.9.9,0,0,0,.89-.88v-.69l2.32-.56.33.61a.89.89,0,0,0,1.57-.83Zm-4.19-1.06.05-2.93,1.37,2.59Z"/><path d="M967.32,206.6l-4.1-7.08-1.54.9.89,5.09-4-3.3-1.55.89,4.11,7.08a.89.89,0,0,0,.77.44,1,1,0,0,0,.45-.12.89.89,0,0,0,.32-1.22l-1.51-2.6,2.1,1.74,1.46-.84-.47-2.69,1.51,2.6a.89.89,0,1,0,1.54-.89Z"/><path d="M945.52,212.62h-2.67v-7.14h-1.79v8.92h4.46a.89.89,0,1,0,0-1.78Z"/><path d="M934,203.6l-4.44,6.92a.89.89,0,1,0,1.5,1l.37-.58,2.27.75,0,.69a.89.89,0,0,0,.83.95h.06a.9.9,0,0,0,.89-.84l.53-8.2Zm-1.57,5.75,1.58-2.46-.19,2.92Z"/><path d="M923.49,208a2.54,2.54,0,0,1-2.08-4,.89.89,0,0,1,1.47,1,.74.74,0,0,0,1.23.84l.25-.37a.74.74,0,0,0-.19-1,2.48,2.48,0,0,1-1-1.63,2.54,2.54,0,0,1,.4-1.89l.26-.36a2.51,2.51,0,0,1,3.51-.65,2.53,2.53,0,0,1,.65,3.51.89.89,0,0,1-1.47-1,.72.72,0,0,0,.12-.55.76.76,0,0,0-.31-.48.73.73,0,0,0-.56-.12.69.69,0,0,0-.47.31L925,202a.76.76,0,0,0-.12.55.76.76,0,0,0,.31.48,2.53,2.53,0,0,1,.65,3.52l-.25.36A2.54,2.54,0,0,1,923.49,208Z"/><circle cx="976.76" cy="197.15" r="2.38"/><path d="M978.54,176.92v7.74a1.79,1.79,0,0,1-3.57,0V167.41h-6v17.25a7.74,7.74,0,0,0,15.47,0v-7.74Z"/><path d="M960.69,184.66a1.79,1.79,0,0,1-3.57,0v-7.74h-5.94v7.74a1.79,1.79,0,0,1-3.57,0v-7.74h-6v3.41a8.84,8.84,0,0,0-1-2h0L937,173.1l2.82-4-4.87-3.42-1.58,2.26L930.58,164l-4.87,3.41,4,5.7L926,178.35h0a8.92,8.92,0,0,0-1.39,3.25,8.33,8.33,0,0,0-16.28,2.46,8.24,8.24,0,0,0,.73,3.41,8.33,8.33,0,0,0-4.3,7.28v2.4h5.94v-2.4a2.39,2.39,0,0,1,2.38-2.38h3.23l.34,0a8.33,8.33,0,0,0,8.1-6.42,8.92,8.92,0,0,0,17.05.25,13.74,13.74,0,0,0,24.82-1.56v-7.74h-5.95Zm-44,1.78h-.17a2.33,2.33,0,1,1,.17,0Zm16.66,0a3,3,0,0,1-3-3,3,3,0,0,1,.53-1.71h0l2.44-3.48,2.44,3.48h0a3,3,0,0,1,.53,1.71A3,3,0,0,1,933.33,186.44Z"/><rect x="393.3" y="586.28" width="120.31" height="16.36"/><rect x="377.82" y="45.36" width="150.6" height="540.92"/><path class="cls-1" d="M522.43,51.36V580.28H383.82V51.36H522.43m6-6H377.82V586.28H528.43V45.36Z"/><path class="cls-2" d="M477.45,146.53c-1.1-1.92-4-2-5.48.63a7.44,7.44,0,0,1-2.37,2.78l-1.28-2.16,2.47-1.37-8.15-19.72a10.79,10.79,0,0,0,1.21-1.13c1.94-2.12,4-6,3-12.14-.36-1.88-.57-3.55.34-5,1.66-2.65.85-4.63-.34-5.53-2.17-1.64-4.64-.37-6,1.05l-.57-8.09A5.67,5.67,0,0,0,458.59,92a3.54,3.54,0,0,0-2.64-.85,3.49,3.49,0,0,0-1.64.52l0-.32a5.69,5.69,0,0,0-1.76-3.9,3.44,3.44,0,0,0-2.59-.82c-2,.18-3.3,2-3.6,4a3.52,3.52,0,0,0-1.8-.3c-2.63.25-3.83,2.85-3.66,5.28l.27,3.84a2.81,2.81,0,0,0-1.26-.15c-2.18.25-3.45,2.26-3.25,5.14l.85,12.11h0l0,.24s0,0,0,.07c.49,5.79,2.89,9.13,5.11,11a11.65,11.65,0,0,1-7.66,11.9l-1,.37-7.06,2.16,2.14,7.16,2.06-.26a8.57,8.57,0,0,0-.34,6.25,2.93,2.93,0,0,0,4.09,2.16c1.61-.79,2.47-2.46,1-4.8-1.75-2.71-1-3.76-.54-4.12l.15,0,.61,2,.82.05c.56,0,1.11.05,1.64.05,11.08,0,13.94-7.25,14.06-7.58a1.19,1.19,0,1,0-2.23-.83c0,.06-2.48,6.29-12.51,6l-2-6.36h0A14,14,0,0,0,445,129.46a9.72,9.72,0,0,0,1.62.66,1.15,1.15,0,0,0,.26,0,1.19,1.19,0,0,0,.25-2.36c-.06,0-6.57-1.86-7.24-11.39L439,104.29c0-.25-.13-2.47,1.14-2.61a.5.5,0,0,1,.44.15,3.54,3.54,0,0,1,.89,2.28l0,.44.49,6.89a1.19,1.19,0,1,0,2.37-.17l-.43-6h0l-.05-.84,0-.43h0l-.59-8.49c-.08-1,.26-2.63,1.5-2.75a1.09,1.09,0,0,1,.85.26,3.4,3.4,0,0,1,.9,2.26h0l.81,11.46a1.18,1.18,0,0,0,1.18,1.11h.09a1.2,1.2,0,0,0,1.1-1.28l-1.05-14.81c-.09-1.28.67-2.66,1.51-2.74a1,1,0,0,1,.83.26,3.37,3.37,0,0,1,.92,2.25l1,14.81a1.19,1.19,0,1,0,2.37-.16l-.69-9.86v0c-.07-1,.26-2.65,1.48-2.74a1.15,1.15,0,0,1,.91.28A3.36,3.36,0,0,1,457.9,96l1.25,17.78a.51.51,0,0,0,0,.13s0,.06,0,.09l0,.13,0,.08.07.12a1.14,1.14,0,0,0,.34.35l0,0,.14.06.06,0,.13,0,.09,0h.3l.11,0,.11,0,.11,0,.11,0,.1-.06.1-.06.08-.08.08-.08.07-.09.07-.09.05-.11a.93.93,0,0,0,0-.1l0-.12a.36.36,0,0,0,0-.11.49.49,0,0,0,0-.12s0-.07,0-.1c0-.49-.11-1.56-.17-2.35l-.05-.7a7,7,0,0,1,.94-4.68c.36-.48,2-2.07,3.19-1.15.53.4.43,1.28-.24,2.36-1.49,2.38-1,5-.68,6.69.87,5.23-.84,8.39-2.42,10.13a9.71,9.71,0,0,1-1.47,1.29,1.46,1.46,0,0,0-.24.17,7.78,7.78,0,0,1-4.67,1.44,1.19,1.19,0,0,0-.18,2.38l.55,0a9.93,9.93,0,0,0,4.53-1.22l5.27,12.74a3.71,3.71,0,0,1-2.83,1.84,1.19,1.19,0,0,0,.23,2.36l.24,0a6.8,6.8,0,0,0,3.4-1.67l.85,2.07-.68.38h0L462,148.6l-11.44-15.28a1.18,1.18,0,0,0-1.66-.24,1.19,1.19,0,0,0-.24,1.67l12.68,16.94h0l4.64,6.2,6.29-3.51-.86-1.44a11.14,11.14,0,0,0,4.22-1.65C478,149.65,478.05,147.55,477.45,146.53Z"/><path class="cls-2" d="M447.31,140.5a1.42,1.42,0,0,1-1.16,1.46,1.19,1.19,0,0,0,.21,2.36.78.78,0,0,0,.22,0,3.8,3.8,0,0,0,3.1-3.84,1.2,1.2,0,0,0-1.2-1.17A1.18,1.18,0,0,0,447.31,140.5Z"/><path class="cls-2" d="M448.08,111c-.63.17-1,1.07-.83,2s.81,1.57,1.44,1.4,1-1.07.83-2S448.71,110.85,448.08,111Z"/><path class="cls-2" d="M456.5,114.42c.63-.17,1-1.07.83-2s-.81-1.56-1.44-1.4-1,1.07-.83,2S455.87,114.59,456.5,114.42Z"/><path class="cls-2" d="M449.7,119.71a1.19,1.19,0,0,0,1.18,1.07H451l4-.39-1.37-6.13a1.19,1.19,0,1,0-2.32.51l.78,3.52-1.29.13A1.18,1.18,0,0,0,449.7,119.71Z"/><path class="cls-2" d="M448.91,123.54a1.18,1.18,0,0,0,.42,1.63,6.31,6.31,0,0,0,8.64-2.24,1.19,1.19,0,1,0-2.05-1.21,3.93,3.93,0,0,1-5.39,1.4A1.19,1.19,0,0,0,448.91,123.54Z"/><path class="cls-2" d="M465.21,211.64l-3.86-7.26-2,.49-.15,8.21a.9.9,0,0,0,.88.91h0a.9.9,0,0,0,.89-.88v-.69l2.32-.56.33.61a.89.89,0,1,0,1.57-.83ZM461,210.58l.05-2.93,1.38,2.59Z"/><path class="cls-2" d="M475.81,206.6l-4.1-7.08-1.54.9.89,5.09-4-3.3-1.54.89,4.1,7.08a.89.89,0,0,0,.77.44.92.92,0,0,0,.45-.12.89.89,0,0,0,.32-1.22l-1.51-2.6,2.1,1.74,1.46-.84-.47-2.69,1.51,2.6a.89.89,0,1,0,1.54-.89Z"/><path class="cls-2" d="M454,212.62h-2.67v-7.14h-1.79v8.92H454a.89.89,0,1,0,0-1.78Z"/><path class="cls-2" d="M442.47,203.6,438,210.52a.89.89,0,0,0,1.5,1l.37-.58,2.27.75,0,.69a.89.89,0,0,0,.83.95H443a.9.9,0,0,0,.89-.84l.53-8.2Zm-1.57,5.75,1.58-2.46-.19,2.92Z"/><path class="cls-2" d="M432,208a2.54,2.54,0,0,1-2.08-4,.89.89,0,0,1,1.47,1,.74.74,0,0,0,1.23.84l.25-.37a.74.74,0,0,0-.19-1,2.48,2.48,0,0,1-1.05-1.63A2.54,2.54,0,0,1,432,201l.26-.36a2.51,2.51,0,0,1,3.51-.65,2.53,2.53,0,0,1,.65,3.51.89.89,0,1,1-1.47-1,.72.72,0,0,0,.12-.55.76.76,0,0,0-.31-.48.73.73,0,0,0-.56-.12.69.69,0,0,0-.47.31l-.26.37a.76.76,0,0,0-.12.55.76.76,0,0,0,.31.48,2.53,2.53,0,0,1,.65,3.52l-.25.36A2.54,2.54,0,0,1,432,208Z"/><circle class="cls-2" cx="485.25" cy="197.15" r="2.38"/><path class="cls-2" d="M487,176.92v7.74a1.79,1.79,0,0,1-3.57,0V167.41h-5.95v17.25a7.74,7.74,0,0,0,15.47,0v-7.74Z"/><path class="cls-2" d="M469.18,184.66a1.79,1.79,0,0,1-3.57,0v-7.74h-5.94v7.74a1.79,1.79,0,0,1-3.57,0v-7.74h-6v3.41a8.84,8.84,0,0,0-1-2h0l-3.68-5.25,2.82-4-4.87-3.42-1.58,2.26L439.07,164l-4.87,3.41,4,5.7-3.68,5.25h0a8.92,8.92,0,0,0-1.39,3.25,8.33,8.33,0,0,0-16.28,2.46,8.24,8.24,0,0,0,.73,3.41,8.33,8.33,0,0,0-4.3,7.28v2.4h6v-2.4a2.38,2.38,0,0,1,2.37-2.38h3.23l.34,0a8.33,8.33,0,0,0,8.1-6.42,8.92,8.92,0,0,0,17.05.25,7.72,7.72,0,0,0,12.33,4.52,7.72,7.72,0,0,0,12.49-6.08v-7.74h-5.95Zm-44,1.78H425a2.33,2.33,0,1,1,.17,0Zm16.66,0a3,3,0,0,1-3-3,3,3,0,0,1,.53-1.71h0l2.44-3.48,2.44,3.48h0a3,3,0,0,1,.53,1.71A3,3,0,0,1,441.82,186.44Z"/><rect x="639.05" y="586.28" width="120.31" height="16.36"/><rect class="cls-2" x="623.57" y="45.36" width="150.6" height="540.92"/><path d="M768.18,51.36V580.28H629.57V51.36H768.18m6-6H623.57V586.28H774.18V45.36Z"/><path d="M754.75,124.28c-1-1.83-3.86-1.93-5.25.61a7.13,7.13,0,0,1-2.27,2.66L746,125.49l2.37-1.32-7.8-18.88a13.13,13.13,0,0,0,1.16-1.08c1.86-2,3.87-5.7,2.88-11.63-.33-1.8-.54-3.4.34-4.81,1.58-2.53.81-4.43-.33-5.29-2.08-1.57-4.45-.36-5.78,1l-.54-7.75a5.41,5.41,0,0,0-1.61-3.7,3.5,3.5,0,0,0-4.1-.31l0-.31a5.44,5.44,0,0,0-1.67-3.74,3.36,3.36,0,0,0-2.49-.78c-1.89.17-3.16,2-3.45,3.86a3.44,3.44,0,0,0-1.72-.29c-2.52.24-3.67,2.73-3.5,5.06L720,79.2a3,3,0,0,0-1.22-.14c-2.08.24-3.3,2.17-3.11,4.93l.82,11.6h0l0,.23s0,0,0,.07c.46,5.53,2.77,8.74,4.89,10.54a11.14,11.14,0,0,1-7.34,11.39l-.95.36-6.75,2.07,2,6.85,2-.24a8.18,8.18,0,0,0-.33,6,2.81,2.81,0,0,0,3.92,2.07c1.54-.75,2.36-2.36.92-4.59-1.67-2.6-1-3.61-.51-4h.14l.59,1.88.78,0c.54,0,1.07,0,1.57,0,10.62,0,13.35-6.95,13.47-7.26a1.14,1.14,0,0,0-2.13-.8c0,.07-2.38,6-12,5.77L714.89,120h0a13.4,13.4,0,0,0,8.76-12,8.48,8.48,0,0,0,1.55.63,1,1,0,0,0,.24,0,1.14,1.14,0,0,0,.25-2.26c-.07,0-6.3-1.78-6.94-10.91l-.82-11.6c0-.24-.13-2.36,1.09-2.5a.51.51,0,0,1,.42.14,3.44,3.44,0,0,1,.85,2.19l0,.42.47,6.6a1.14,1.14,0,0,0,2.27-.16l-.41-5.8h0l-.06-.8,0-.42h0L722,75.37c-.07-1,.26-2.51,1.44-2.63a1,1,0,0,1,.81.25,3.25,3.25,0,0,1,.87,2.16v0l.78,11A1.14,1.14,0,0,0,727,87.2h.09a1.14,1.14,0,0,0,1-1.22l-1-14.18c-.09-1.23.64-2.56,1.44-2.63a1,1,0,0,1,.8.25,3.25,3.25,0,0,1,.88,2.16l1,14.18a1.14,1.14,0,1,0,2.28-.16l-.67-9.44v0c-.07-1,.26-2.54,1.42-2.62a1.1,1.1,0,0,1,.87.27A3.16,3.16,0,0,1,736,75.9l1.2,17a.5.5,0,0,1,0,.12s0,.06,0,.09l0,.13,0,.08.07.1a1,1,0,0,0,.32.34l0,0,.13.06s0,0,.06,0l.12,0,.1,0h.28l.1,0,.11,0,.11,0,.1,0,.1-.06.09-.06.08-.07a.6.6,0,0,0,.08-.08l.07-.09.06-.08,0-.1a1,1,0,0,1,0-.1.53.53,0,0,0,0-.12l0-.1V92.9s0-.06,0-.09c0-.47-.1-1.5-.16-2.25l-.05-.67a6.72,6.72,0,0,1,.9-4.49c.35-.46,1.88-2,3.06-1.1.5.38.41,1.23-.24,2.27-1.42,2.27-1,4.77-.64,6.4.83,5-.81,8-2.33,9.7a9,9,0,0,1-1.4,1.24,1.34,1.34,0,0,0-.23.16,7.5,7.5,0,0,1-4.47,1.38,1.14,1.14,0,0,0-.17,2.28h.53a9.43,9.43,0,0,0,4.33-1.16l5,12.2a3.59,3.59,0,0,1-2.71,1.77,1.14,1.14,0,0,0,.22,2.25.93.93,0,0,0,.23,0,6.34,6.34,0,0,0,3.25-1.6l.82,2-.65.36h0l-4.91,2.74L729,111.64a1.14,1.14,0,1,0-1.82,1.36l12.14,16.23h0l4.45,5.94,6-3.36-.83-1.39a10.5,10.5,0,0,0,4-1.57C755.3,127.28,755.32,125.27,754.75,124.28Z"/><path d="M725.88,118.51a1.36,1.36,0,0,1-1.11,1.4,1.15,1.15,0,0,0,.21,2.27l.2,0a3.65,3.65,0,0,0,3-3.68,1.14,1.14,0,0,0-2.28,0Z"/><path d="M726.62,90.27c-.6.16-1,1-.8,1.93s.78,1.5,1.38,1.33,1-1,.8-1.92S727.22,90.11,726.62,90.27Z"/><path d="M734.68,93.53c.61-.16,1-1,.8-1.92s-.78-1.5-1.38-1.34-1,1-.79,1.93S734.08,93.7,734.68,93.53Z"/><path d="M728.17,98.6a1.13,1.13,0,0,0,1.13,1h.12l3.8-.38-1.31-5.87a1.14,1.14,0,1,0-2.23.49l.75,3.37-1.24.12A1.14,1.14,0,0,0,728.17,98.6Z"/><path d="M727.41,102.27a1.13,1.13,0,0,0,.41,1.56,5.94,5.94,0,0,0,3,.84,6.18,6.18,0,0,0,1.53-.2,6,6,0,0,0,3.69-2.78,1.14,1.14,0,0,0-2-1.16,3.77,3.77,0,0,1-5.16,1.34A1.14,1.14,0,0,0,727.41,102.27Z"/><path d="M649.7,200h-8.07l3.86-3.87a.62.62,0,0,0,0-.87.6.6,0,0,0-.86,0l-5.35,5.35,5.35,5.35a.6.6,0,0,0,.86,0,.62.62,0,0,0,0-.87l-3.86-3.87h8.07a.61.61,0,0,0,0-1.22Z"/><rect x="663.13" y="195.1" width="91.93" height="11.05"/><path d="M649.7,222.15h-8.07l3.86-3.87a.62.62,0,0,0,0-.87.6.6,0,0,0-.86,0l-5.35,5.35,5.35,5.35a.6.6,0,0,0,.86,0,.62.62,0,0,0,0-.87l-3.86-3.87h8.07a.61.61,0,0,0,0-1.22Z"/><rect x="663.13" y="217.23" width="91.93" height="11.05"/><path d="M639.89,245.5H648l-3.87,3.87a.6.6,0,0,0,0,.86.62.62,0,0,0,.87,0l5.34-5.34L645,239.54a.62.62,0,0,0-.87.87l3.87,3.86h-8.08a.61.61,0,0,0-.61.62A.61.61,0,0,0,639.89,245.5Z"/><rect x="663.13" y="239.36" width="91.93" height="11.05"/><path d="M645.41,271.92v-8.07l3.87,3.86a.61.61,0,1,0,.86-.86l-5.34-5.35-5.35,5.35a.6.6,0,0,0,0,.86.62.62,0,0,0,.87,0l3.86-3.86v8.07a.61.61,0,0,0,.62.61A.61.61,0,0,0,645.41,271.92Z"/><rect x="663.13" y="261.49" width="91.93" height="11.05"/><path d="M645.41,294.05V286l3.87,3.87a.6.6,0,0,0,.86,0,.62.62,0,0,0,0-.87l-5.34-5.34L639.45,289a.62.62,0,1,0,.87.87l3.86-3.87v8.08a.61.61,0,0,0,.62.61A.61.61,0,0,0,645.41,294.05Z"/><rect x="663.13" y="283.62" width="91.93" height="11.05"/><rect x="147.54" y="586.28" width="120.31" height="16.36"/><rect x="132.07" y="45.36" width="150.6" height="540.92"/><path class="cls-1" d="M276.67,51.36V580.28H138.07V51.36h138.6m6-6H132.07V586.28h150.6V45.36Z"/><path class="cls-1" d="M260.35,124.28c-1.06-1.83-3.87-1.93-5.26.61a7,7,0,0,1-2.26,2.66l-1.23-2.06,2.36-1.32-7.8-18.88a11.86,11.86,0,0,0,1.16-1.08c1.86-2,3.87-5.7,2.89-11.63-.34-1.8-.55-3.4.33-4.81,1.58-2.53.81-4.43-.33-5.29-2.08-1.57-4.45-.36-5.78,1l-.54-7.75a5.41,5.41,0,0,0-1.61-3.7,3.43,3.43,0,0,0-2.53-.82,3.47,3.47,0,0,0-1.57.51l0-.31a5.49,5.49,0,0,0-1.68-3.74A3.34,3.34,0,0,0,234,66.9c-1.89.17-3.15,2-3.45,3.86a3.44,3.44,0,0,0-1.72-.29c-2.52.24-3.67,2.73-3.5,5.06l.26,3.67a2.9,2.9,0,0,0-1.21-.14c-2.09.24-3.31,2.17-3.11,4.93l.81,11.6h0l0,.23s0,0,0,.07c.47,5.53,2.77,8.74,4.89,10.54a11.14,11.14,0,0,1-7.34,11.39l-1,.36L212,120.25,214,127.1l2-.24a8.18,8.18,0,0,0-.33,6,2.81,2.81,0,0,0,3.92,2.07c1.54-.75,2.36-2.36.93-4.59-1.68-2.6-1-3.61-.52-4h.14l.59,1.88.79,0c.54,0,1.06,0,1.56,0,10.62,0,13.36-6.95,13.47-7.26a1.14,1.14,0,0,0-2.13-.8c0,.07-2.37,6-12,5.77L220.48,120h0a13.39,13.39,0,0,0,8.76-12,8.81,8.81,0,0,0,1.55.63,1,1,0,0,0,.24,0,1.14,1.14,0,0,0,.25-2.26c-.07,0-6.3-1.78-6.94-10.91l-.82-11.6c0-.24-.13-2.36,1.09-2.5a.51.51,0,0,1,.42.14,3.38,3.38,0,0,1,.85,2.19l0,.42.47,6.6a1.14,1.14,0,0,0,2.27-.16l-.41-5.8h0l-.05-.8,0-.42h0l-.58-8.13c-.07-1,.26-2.51,1.45-2.63a1,1,0,0,1,.8.25,3.2,3.2,0,0,1,.87,2.16v0l.77,11a1.14,1.14,0,0,0,1.14,1.06h.08a1.14,1.14,0,0,0,1-1.22l-1-14.18c-.08-1.23.64-2.56,1.44-2.63a1,1,0,0,1,.8.25,3.25,3.25,0,0,1,.88,2.16l1,14.18a1.16,1.16,0,0,0,1.22,1.06,1.15,1.15,0,0,0,1.06-1.22l-.67-9.44v0c-.07-1,.26-2.54,1.42-2.62a1.09,1.09,0,0,1,.87.27,3.16,3.16,0,0,1,.83,2.13l1.21,17a.5.5,0,0,0,0,.12.28.28,0,0,0,0,.09.69.69,0,0,0,.05.13.41.41,0,0,0,0,.08.53.53,0,0,0,.06.1,1,1,0,0,0,.32.34l0,0,.13.06a.15.15,0,0,0,.07,0,.42.42,0,0,0,.12,0l.09,0H244l.1,0,.11,0,.11,0,.1,0,.1-.06.09-.06.08-.07.08-.08.07-.09.06-.08,0-.1a1,1,0,0,1,0-.1.53.53,0,0,0,0-.12l0-.1a.49.49,0,0,1,0-.12v-.09c0-.47-.1-1.5-.15-2.25l-.05-.67a6.78,6.78,0,0,1,.89-4.49c.35-.46,1.89-2,3.06-1.1.5.38.42,1.23-.23,2.27-1.43,2.27-1,4.77-.65,6.4.83,5-.8,8-2.32,9.7a9.49,9.49,0,0,1-1.41,1.24,1.88,1.88,0,0,0-.23.16,7.5,7.5,0,0,1-4.47,1.38,1.14,1.14,0,0,0-.17,2.28h.53a9.43,9.43,0,0,0,4.33-1.16l5.05,12.2a3.59,3.59,0,0,1-2.71,1.77,1.14,1.14,0,0,0,.22,2.25.9.9,0,0,0,.23,0,6.34,6.34,0,0,0,3.25-1.6l.82,2-.65.36h0l-4.9,2.74-11-14.63a1.14,1.14,0,1,0-1.82,1.36l12.15,16.23h0l4.44,5.94,6-3.36-.83-1.39a10.5,10.5,0,0,0,4-1.57C260.89,127.28,260.91,125.27,260.35,124.28Z"/><path class="cls-1" d="M231.47,118.51a1.35,1.35,0,0,1-1.11,1.4,1.15,1.15,0,0,0,.21,2.27l.21,0a3.65,3.65,0,0,0,3-3.68,1.14,1.14,0,0,0-2.28,0Z"/><path class="cls-1" d="M232.21,90.27c-.6.16-1,1-.79,1.93s.77,1.5,1.38,1.33.95-1,.79-1.92S232.82,90.11,232.21,90.27Z"/><path class="cls-1" d="M240.28,93.53c.6-.16,1-1,.79-1.92s-.77-1.5-1.37-1.34-1,1-.8,1.93S239.68,93.7,240.28,93.53Z"/><path class="cls-1" d="M233.76,98.6a1.14,1.14,0,0,0,1.14,1H235l3.8-.38-1.31-5.87a1.14,1.14,0,1,0-2.22.49l.74,3.37-1.24.12A1.14,1.14,0,0,0,233.76,98.6Z"/><path class="cls-1" d="M233,102.27a1.14,1.14,0,0,0,.41,1.56,6,6,0,0,0,3.06.84,6.1,6.1,0,0,0,1.52-.2,6,6,0,0,0,3.69-2.78,1.14,1.14,0,0,0-2-1.16,3.77,3.77,0,0,1-5.16,1.34A1.14,1.14,0,0,0,233,102.27Z"/><path class="cls-3" d="M158.19,200h-8.07l3.87-3.87a.63.63,0,0,0,0-.87.62.62,0,0,0-.87,0l-5.35,5.35,5.35,5.35a.6.6,0,0,0,.43.18A.62.62,0,0,0,154,206a.63.63,0,0,0,0-.87l-3.87-3.87h8.07a.61.61,0,0,0,0-1.22Z"/><rect class="cls-3" x="171.62" y="195.1" width="91.93" height="11.05"/><path class="cls-3" d="M158.19,222.15h-8.07l3.87-3.87a.63.63,0,0,0,0-.87.62.62,0,0,0-.87,0l-5.35,5.35,5.35,5.35a.6.6,0,0,0,.43.18.62.62,0,0,0,.44-.18.63.63,0,0,0,0-.87l-3.87-3.87h8.07a.61.61,0,0,0,0-1.22Z"/><rect class="cls-3" x="171.62" y="217.23" width="91.93" height="11.05"/><path class="cls-3" d="M148.38,245.5h8.08l-3.87,3.87a.6.6,0,0,0,0,.86.62.62,0,0,0,.87,0l5.34-5.34-5.34-5.35a.62.62,0,0,0-.87.87l3.87,3.86h-8.08a.62.62,0,0,0-.61.62A.61.61,0,0,0,148.38,245.5Z"/><rect class="cls-3" x="171.62" y="239.36" width="91.93" height="11.05"/><path class="cls-3" d="M153.9,271.92v-8.07l3.87,3.86a.61.61,0,0,0,.86-.86l-5.34-5.35-5.35,5.35a.6.6,0,0,0,0,.86.62.62,0,0,0,.87,0l3.86-3.86v8.07a.61.61,0,0,0,.62.61A.61.61,0,0,0,153.9,271.92Z"/><rect class="cls-3" x="171.62" y="261.49" width="91.93" height="11.05"/><path class="cls-3" d="M153.9,294.05V286l3.87,3.87a.6.6,0,0,0,.86,0,.62.62,0,0,0,0-.87l-5.34-5.34L147.94,289a.62.62,0,0,0,.87.87l3.86-3.87v8.08a.61.61,0,0,0,.62.61A.61.61,0,0,0,153.9,294.05Z"/><rect class="cls-3" x="171.62" y="283.62" width="91.93" height="11.05"/></g><g id="Isolation_Mode" data-name="Isolation Mode"><rect y="602.36" width="1152" height="0.56"/></g></svg>