<svg id="Background" xmlns="http://www.w3.org/2000/svg" viewBox="0 0 648 648"><defs><style>.cls-1{fill:#fde9e1;}.cls-2{fill:#ff5c35;}.cls-3{fill:#2e87cc;}</style></defs><rect class="cls-1" width="648" height="648"/><path d="M557.37,562.37H90.72a5,5,0,0,1-5-5V90.72a5,5,0,0,1,5-5H557.37a5,5,0,0,1,5,5V557.37A5,5,0,0,1,557.37,562.37Zm-461.65-10H552.37V95.72H95.72Z"/><circle class="cls-2" cx="221.42" cy="271.52" r="63.41"/><circle class="cls-3" cx="380.73" cy="206.7" r="31.71"/><circle class="cls-3" cx="235.56" cy="415.37" r="31.71"/><circle class="cls-3" cx="402.02" cy="478.78" r="17.27"/><circle class="cls-2" cx="341.31" cy="388.52" r="30.13"/><circle class="cls-2" cx="492.68" cy="155.46" r="6.08"/><circle class="cls-3" cx="470.75" cy="285.66" r="11.82"/><circle class="cls-3" cx="168" cy="149.38" r="10"/><circle class="cls-3" cx="168" cy="491.83" r="10"/><circle class="cls-3" cx="480.75" cy="422.8" r="20.13"/><circle class="cls-3" cx="284.83" cy="165" r="18.65"/></svg>