<svg xmlns="http://www.w3.org/2000/svg" viewBox="0 0 1152 648"><defs><style>.cls-1{fill:#ff5c35;}</style></defs><g id="Graphic"><rect width="1152" height="648"/><path class="cls-1" d="M445.08,310.57V324h-.55a9.1,9.1,0,0,1-3.32-.55c0,.68-.06,1.66-.16,2.92a24.44,24.44,0,0,1-3.16,10.07,20.36,20.36,0,0,1-8,7.67,26.4,26.4,0,0,1-13,3q-11.14,0-16.2-5.57t-5.06-14.42a42.76,42.76,0,0,1,3.4-16,2.58,2.58,0,0,1,.87-1.18,2,2,0,0,1,1.19-.4,1.6,1.6,0,0,1,1.18.48,1.78,1.78,0,0,1,.47,1.34l-.15,1a31.85,31.85,0,0,0-1.82,9.64,10.71,10.71,0,0,0,3.71,8.65q3.72,3.12,12.41,3.12,8.13,0,12.75-2.25t5.65-5.18a124.71,124.71,0,0,0-9.4-18.72l6.8-7.35c.63-.63,1.13-.95,1.5-.95s.84.35,1.26,1a37.62,37.62,0,0,1,2.53,5.69,9.4,9.4,0,0,0,2.41,3.71,6.75,6.75,0,0,0,4.07.95Zm-34-7.58a1.49,1.49,0,0,1,.55-.95l4.58-4.66c.37-.37.66-.56.87-.56a1.25,1.25,0,0,1,.87.56l4.74,4.66c.42.42.63.74.63.95s-.21.52-.63.94l-4.58,4.66a1.3,1.3,0,0,1-.79.48,1.33,1.33,0,0,1-.87-.48l-4.82-4.66A1.28,1.28,0,0,1,411.11,303Z"/><path class="cls-1" d="M503.22,310.57V324h-.31a7.86,7.86,0,0,1-5.1-1.82,9.71,9.71,0,0,1-3.12-5.61,10,10,0,0,1-4,5.57,9.82,9.82,0,0,1-5.41,1.86h-.16a9.28,9.28,0,0,1-5.41-1.86,9.42,9.42,0,0,1-3.36-5.57,9.77,9.77,0,0,1-3.79,5.61,9.35,9.35,0,0,1-5.29,1.82h-.16a10.81,10.81,0,0,1-6-1.58q-2.41-1.57-4.63-5.85a10.79,10.79,0,0,1-4.74,5.49,13,13,0,0,1-6.63,1.94h-.63V310.57h.63a15.84,15.84,0,0,0,6.44-1.07,8.22,8.22,0,0,0,3.55-2.92,23.87,23.87,0,0,0,2.41-5.33,2.88,2.88,0,0,1,.91-1.34,2,2,0,0,1,1.3-.48,1.93,1.93,0,0,1,1.39.59,2.11,2.11,0,0,1,.59,1.54,2.54,2.54,0,0,1-.08.72,12,12,0,0,0-.32,2.76q0,5.54,6,5.53a7.44,7.44,0,0,0,4.07-.91,5.36,5.36,0,0,0,2-2.68,35.91,35.91,0,0,0,1.38-5.34,3.1,3.1,0,0,1,.83-1.58,2,2,0,0,1,1.38-.55,1.86,1.86,0,0,1,1.47.71A2.5,2.5,0,0,1,479,302a19.82,19.82,0,0,0-.16,2q0,6.48,6.48,6.48a7.64,7.64,0,0,0,4.11-.91,5.26,5.26,0,0,0,2.09-2.68,20.09,20.09,0,0,0,1-4.94,2.94,2.94,0,0,1,.67-1.9,1.82,1.82,0,0,1,1.38-.63,1.87,1.87,0,0,1,1.42.71,2.61,2.61,0,0,1,.64,1.82c-.06,3,.46,5.17,1.54,6.52a5.77,5.77,0,0,0,4.78,2Zm-37.52-22.2a1.31,1.31,0,0,1,.47-.87l3.87-3.95a1.33,1.33,0,0,1,.79-.47.88.88,0,0,1,.71.47l4,3.95a1.3,1.3,0,0,1,.48.79,1.28,1.28,0,0,1-.48.79L471.7,293a.83.83,0,0,1-1.42,0l-4.11-3.95A1,1,0,0,1,465.7,288.37Zm6.71-7.42c0-.16.13-.37.4-.64l3.55-3.63a2.11,2.11,0,0,1,.71-.4c.16,0,.37.14.64.4l3.63,3.55a.93.93,0,0,1,.39.72.85.85,0,0,1-.39.63l-3.71,3.71a.89.89,0,0,1-.52.32c-.13,0-.3-.11-.51-.32l-3.79-3.71C472.54,281.31,472.41,281.1,472.41,281Zm5.61,7.42a1.33,1.33,0,0,1,.48-.87l3.87-3.95a1.28,1.28,0,0,1,.79-.47.89.89,0,0,1,.71.47l4,3.95a1.33,1.33,0,0,1,.47.79,1.3,1.3,0,0,1-.47.79L484,293a1.06,1.06,0,0,1-.71.4,1.09,1.09,0,0,1-.71-.4l-4.1-3.95C478.18,288.82,478,288.58,478,288.37Z"/><path class="cls-1" d="M497.53,334.43a1.31,1.31,0,0,1,.48-.87l4.18-4.27a1.33,1.33,0,0,1,.79-.47,1.07,1.07,0,0,1,.79.47l4.27,4.27c.42.32.63.6.63.87s-.21.45-.63.87l-4.11,4.18c-.31.32-.55.48-.71.48a1.3,1.3,0,0,1-.79-.48L498,335.3A1.33,1.33,0,0,1,497.53,334.43ZM530,310.57V324h-.39a14.33,14.33,0,0,1-7.23-1.54,10.67,10.67,0,0,1-4.23-5A16.18,16.18,0,0,1,512,322a21,21,0,0,1-9.08,2h-.32V310.57h.32a56.18,56.18,0,0,0,7.38-.47,14.91,14.91,0,0,0,5.18-1.43l-.71-3.47-.72-3.32,5.69-4.82a.9.9,0,0,1,.63-.31c.37,0,.61.23.72.71l1.18,8a6.16,6.16,0,0,0,1.9,4q1.41,1.11,5.45,1.11Zm-20.77,23.86a1.29,1.29,0,0,1,.47-.87l4.19-4.27a1.3,1.3,0,0,1,.79-.47,1.11,1.11,0,0,1,.79.47l4.26,4.27c.42.32.63.6.63.87s-.21.45-.63.87l-4.11,4.18c-.31.32-.55.48-.71.48a1.3,1.3,0,0,1-.79-.48l-4.42-4.18A1.31,1.31,0,0,1,509.23,334.43Z"/><path class="cls-1" d="M556.7,310.57V324h-.39a14.33,14.33,0,0,1-7.23-1.54,10.73,10.73,0,0,1-4.23-5,16.1,16.1,0,0,1-6.16,4.55,21,21,0,0,1-9.08,2h-.32V310.57h.32a56.18,56.18,0,0,0,7.38-.47,14.84,14.84,0,0,0,5.18-1.43l-.71-3.47-.71-3.32,5.68-4.82a.9.9,0,0,1,.64-.31c.36,0,.6.23.71.71l1.18,8a6.16,6.16,0,0,0,1.9,4c.95.74,2.76,1.11,5.45,1.11Zm-26.93-23.86a1.31,1.31,0,0,1,.47-.87l4.19-4.26a1.28,1.28,0,0,1,.79-.48,1.09,1.09,0,0,1,.79.48l4.26,4.26q.63.48.63.87t-.63.87l-4.11,4.19c-.31.31-.55.47-.71.47a1.33,1.33,0,0,1-.79-.47l-4.42-4.19A1.27,1.27,0,0,1,529.77,286.71Zm11.69,0a1.35,1.35,0,0,1,.47-.87l4.19-4.26a1.28,1.28,0,0,1,.79-.48,1.09,1.09,0,0,1,.79.48l4.26,4.26c.43.32.64.61.64.87s-.21.45-.64.87l-4.1,4.19c-.32.31-.56.47-.71.47a1.28,1.28,0,0,1-.79-.47l-4.43-4.19A1.31,1.31,0,0,1,541.46,286.71Z"/><path class="cls-1" d="M573.22,296.78a48.27,48.27,0,0,1,1.18,10.31,27.78,27.78,0,0,1-.39,4.51,15.06,15.06,0,0,1-5.26,8.85Q564.52,324,556.94,324h-1V310.57h.32a52.1,52.1,0,0,0,7.86-.51c2.18-.35,3.65-.83,4.38-1.47q-2.84-5-7.18-11.69l6.87-7.34a2.38,2.38,0,0,1,1.5-.87q.63,0,1.11.87Q572,291.38,573.22,296.78Zm-15.41-18.44a1.51,1.51,0,0,1,.55-.95l4.59-4.66c.36-.37.65-.55.86-.55a1.24,1.24,0,0,1,.87.55l4.74,4.66c.42.42.64.74.64.95s-.22.53-.64,1L564.84,284a1.3,1.3,0,0,1-.79.47,1.35,1.35,0,0,1-.87-.47l-4.82-4.66A1.31,1.31,0,0,1,557.81,278.34Z"/><path class="cls-1" d="M597.11,309.78a51.19,51.19,0,0,1,1.78,13.35c0,.74,0,1.79-.16,3.16a20.52,20.52,0,0,1-4.22,11.1,27.42,27.42,0,0,1-8.14,7.19q-4.47,2.49-6.91,2.49c-1.06,0-2.86-.83-5.42-2.49a39.23,39.23,0,0,1-6.43-5.1,1.34,1.34,0,0,1-.48-.94,1.12,1.12,0,0,1,.48-.87,2.18,2.18,0,0,1,1.26-.48,52.46,52.46,0,0,0,10.78-2.64,43.83,43.83,0,0,0,8.61-4.11,14.49,14.49,0,0,0,4.7-4.23q-2.84-6.79-8.84-18.72l6.87-7.35c.63-.63,1.13-.95,1.5-.95s.76.35,1.19,1A44.1,44.1,0,0,1,597.11,309.78ZM584.43,286.4a1.51,1.51,0,0,1,.56-.95l4.58-4.66c.37-.37.66-.56.87-.56a1.29,1.29,0,0,1,.87.56l4.74,4.66c.42.42.63.74.63.95s-.21.52-.63.94L591.46,292a1.3,1.3,0,0,1-.79.47,1.35,1.35,0,0,1-.87-.47L585,287.34A1.3,1.3,0,0,1,584.43,286.4Z"/><path class="cls-1" d="M637.12,310.57V324h-.31a9.93,9.93,0,0,1-4-.79c0,.69,0,1.71-.16,3.08a20.52,20.52,0,0,1-4.22,11.1,27.42,27.42,0,0,1-8.14,7.19q-4.47,2.49-6.91,2.49c-1.06,0-2.86-.83-5.42-2.49a39.23,39.23,0,0,1-6.43-5.1,1.34,1.34,0,0,1-.48-.94,1.12,1.12,0,0,1,.48-.87,2.18,2.18,0,0,1,1.26-.48,52.46,52.46,0,0,0,10.78-2.64,43.83,43.83,0,0,0,8.61-4.11,14.49,14.49,0,0,0,4.7-4.23Q624,319.42,618,307.49l6.87-7.35c.63-.63,1.13-.95,1.5-.95s.76.35,1.19,1a12.39,12.39,0,0,1,1.1,2.37l.08.16,1,2.13a28.51,28.51,0,0,0,1.85,3.79,3.8,3.8,0,0,0,1.7,1.47,9,9,0,0,0,3.24.43Z"/><path class="cls-1" d="M660.82,296.71A47.1,47.1,0,0,1,662,306.94a27.68,27.68,0,0,1-.4,4.66q-2.28,12.4-20.3,12.4h-4.82V310.57h4.74q5.85,0,9.36-.36a13,13,0,0,0,5.57-1.62q-2.83-5-7.19-11.69l6.88-7.34a2.37,2.37,0,0,1,1.42-.87,1.37,1.37,0,0,1,1.18.87Q659.64,291.38,660.82,296.71ZM648,334.27a1.3,1.3,0,0,1-.48.79L643.6,339a.83.83,0,0,1-1.42,0l-4.11-3.95a.89.89,0,0,1-.47-.71,1.33,1.33,0,0,1,.47-.87l3.87-4a1.28,1.28,0,0,1,.79-.47.85.85,0,0,1,.71.47l4,4A1.3,1.3,0,0,1,648,334.27Zm5.29,6.56a1.09,1.09,0,0,1,.39.71.85.85,0,0,1-.39.63l-3.71,3.71a.89.89,0,0,1-.52.32c-.13,0-.3-.11-.51-.32l-3.79-3.71c-.27-.26-.4-.47-.4-.63a2.34,2.34,0,0,1,.4-.63l3.55-3.64A1.2,1.2,0,0,1,649,337a.94.94,0,0,1,.64.31Zm6.56-7.35a.9.9,0,0,1,0,1.58L655.93,339a.94.94,0,0,1-.72.4.92.92,0,0,1-.71-.4l-4.1-3.95a.88.88,0,0,1-.48-.71,1.31,1.31,0,0,1,.48-.87l3.87-4a1.25,1.25,0,0,1,.79-.47.87.87,0,0,1,.71.47Z"/><path class="cls-1" d="M698.11,310.57V324h-.32a9.91,9.91,0,0,1-4-.79c0,.69-.06,1.71-.16,3.08a20.45,20.45,0,0,1-4.23,11.1,27.3,27.3,0,0,1-8.14,7.19c-3,1.66-5.28,2.49-6.91,2.49-1.05,0-2.86-.83-5.41-2.49a39.77,39.77,0,0,1-6.44-5.1,1.37,1.37,0,0,1-.47-.94,1.13,1.13,0,0,1,.47-.87,2.24,2.24,0,0,1,1.27-.48,52.62,52.62,0,0,0,10.78-2.64,43.83,43.83,0,0,0,8.61-4.11,14.6,14.6,0,0,0,4.7-4.23Q685,319.42,679,307.49l6.88-7.35c.63-.63,1.13-.95,1.5-.95s.76.35,1.18,1a13,13,0,0,1,1.11,2.37l.08.16,1,2.13a27.29,27.29,0,0,0,1.85,3.79,3.75,3.75,0,0,0,1.7,1.47,8.87,8.87,0,0,0,3.24.43Z"/><path class="cls-1" d="M724.89,310.57V324h-.39a14.33,14.33,0,0,1-7.23-1.54,10.62,10.62,0,0,1-4.23-5,16.18,16.18,0,0,1-6.16,4.55,21,21,0,0,1-9.09,2h-.31V310.57h.31a56.34,56.34,0,0,0,7.39-.47,14.77,14.77,0,0,0,5.17-1.43l-.71-3.47-.71-3.32,5.69-4.82a.9.9,0,0,1,.63-.31c.37,0,.61.23.71.71l1.19,8a6.16,6.16,0,0,0,1.89,4q1.43,1.11,5.46,1.11ZM698,286.71a1.33,1.33,0,0,1,.48-.87l4.18-4.26a1.3,1.3,0,0,1,.79-.48,1.06,1.06,0,0,1,.79.48l4.27,4.26q.63.48.63.87t-.63.87l-4.11,4.19c-.31.31-.55.47-.71.47a1.33,1.33,0,0,1-.79-.47l-4.42-4.19A1.29,1.29,0,0,1,698,286.71Zm11.69,0a1.33,1.33,0,0,1,.48-.87l4.19-4.26a1.25,1.25,0,0,1,.79-.48,1.09,1.09,0,0,1,.79.48l4.26,4.26q.63.48.63.87t-.63.87L716,291.77c-.31.31-.55.47-.71.47a1.33,1.33,0,0,1-.79-.47l-4.42-4.19A1.29,1.29,0,0,1,709.64,286.71Z"/><path class="cls-1" d="M719.12,334.43a1.31,1.31,0,0,1,.48-.87l4.18-4.27a1.33,1.33,0,0,1,.79-.47,1.07,1.07,0,0,1,.79.47l4.27,4.27c.42.32.63.6.63.87s-.21.45-.63.87l-4.11,4.18c-.31.32-.55.48-.71.48a1.3,1.3,0,0,1-.79-.48l-4.42-4.18A1.33,1.33,0,0,1,719.12,334.43Zm32.47-23.86V324h-.39a14.33,14.33,0,0,1-7.23-1.54,10.67,10.67,0,0,1-4.23-5,16.18,16.18,0,0,1-6.16,4.55,21,21,0,0,1-9.08,2h-.32V310.57h.32a56.18,56.18,0,0,0,7.38-.47,14.84,14.84,0,0,0,5.18-1.43l-.71-3.47-.72-3.32,5.69-4.82a.9.9,0,0,1,.63-.31c.37,0,.61.23.72.71l1.18,8a6.16,6.16,0,0,0,1.9,4q1.41,1.11,5.45,1.11Zm-20.77,23.86a1.29,1.29,0,0,1,.47-.87l4.19-4.27a1.3,1.3,0,0,1,.79-.47,1.11,1.11,0,0,1,.79.47l4.26,4.27c.42.32.63.6.63.87s-.21.45-.63.87l-4.11,4.18c-.31.32-.55.48-.71.48a1.3,1.3,0,0,1-.79-.48l-4.42-4.18A1.31,1.31,0,0,1,730.82,334.43Z"/><path class="cls-1" d="M770.79,296.71A47.07,47.07,0,0,1,772,306.94a28.73,28.73,0,0,1-.39,4.66Q769.28,324,751.2,324H751l-.08-13.43h.32q5.84,0,9.36-.36a13,13,0,0,0,5.57-1.62q-2.85-5-7.19-11.69l6.87-7.34a2.39,2.39,0,0,1,1.42-.87,1.38,1.38,0,0,1,1.19.87Q769.61,291.38,770.79,296.71Zm-19.51-17.19a1.31,1.31,0,0,1,.47-.87l4.19-4.26a1.28,1.28,0,0,1,.79-.48,1.09,1.09,0,0,1,.79.48l4.26,4.26c.42.32.64.61.64.87s-.22.45-.64.87l-4.1,4.19c-.32.32-.56.47-.72.47a1.28,1.28,0,0,1-.79-.47l-4.42-4.19A1.27,1.27,0,0,1,751.28,279.52Zm11.69,0a1.35,1.35,0,0,1,.47-.87l4.19-4.26a1.3,1.3,0,0,1,.79-.48,1.08,1.08,0,0,1,.79.48l4.27,4.26q.63.48.63.87t-.63.87l-4.11,4.19c-.32.32-.56.47-.71.47a1.25,1.25,0,0,1-.79-.47l-4.43-4.19A1.31,1.31,0,0,1,763,279.52Z"/><path class="cls-1" d="M364.39,400a11.18,11.18,0,0,1,1.31,4.9,4.55,4.55,0,0,1-.21,1.44,2.87,2.87,0,0,1-.69,1.12,5.61,5.61,0,0,1-2.47,1.24,15.27,15.27,0,0,1-3.91.44,9.92,9.92,0,0,1-3.18-.39,2.57,2.57,0,0,1-1.52-1.32,6.48,6.48,0,0,1-.44-2.67c0-.48,0-.86,0-1.13l2.09.11v.44a2.22,2.22,0,0,0,.23,1.16,1.14,1.14,0,0,0,.84.43,16.57,16.57,0,0,0,2.09.09c.76,0,1.62,0,2.58-.13a8.18,8.18,0,0,0,2.29-.48,7.77,7.77,0,0,0-1.32-4.22,21.62,21.62,0,0,0-3.78-4.3l1.74-2.3A21.25,21.25,0,0,1,364.39,400Z"/><path class="cls-1" d="M378.54,405.86a3.67,3.67,0,0,1,.09.9v.78a3.75,3.75,0,0,1-.09.89c-.06.24-.12.36-.2.36h-.81a4.41,4.41,0,0,1-3.63-1.36v.11a7.53,7.53,0,0,1-2,5.08,19.69,19.69,0,0,1-6.34,4.35L364,414.39a25.27,25.27,0,0,0,5.17-3,8,8,0,0,0,2.45-3l-.95-8.49,2.58-.64.4,3.94a2.58,2.58,0,0,0,.6,1.54,2.12,2.12,0,0,0,1.23.61,16.7,16.7,0,0,0,2.17.11h.73C378.42,405.51,378.48,405.63,378.54,405.86Z"/><path class="cls-1" d="M389.24,405.86a3.67,3.67,0,0,1,.09.9v.78a3.75,3.75,0,0,1-.09.89c-.05.24-.12.36-.2.36a10.7,10.7,0,0,1-3.67-.46,2.35,2.35,0,0,1-1.49-1.54,3.36,3.36,0,0,1-1.94,1.54,11.46,11.46,0,0,1-3.6.46c-.08,0-.15-.12-.22-.36a3.26,3.26,0,0,1-.1-.89v-.78a3.67,3.67,0,0,1,.09-.88c.06-.25.13-.37.23-.37a9.62,9.62,0,0,0,4.32-.75l-.55-5.77,2.61-.23.35,6.17a3.5,3.5,0,0,0,1.39.45,18.37,18.37,0,0,0,2.58.13C389.12,405.51,389.19,405.63,389.24,405.86Zm-8.64,6.38,2.26,1.89L381,416.39l-2.2-1.89Zm4.38,0,2.26,1.89-1.91,2.23-2.23-1.88Z"/><path class="cls-1" d="M397.86,399.26a13,13,0,0,1,1.33,5.85c0,1.33-.83,2.28-2.48,2.84a25.73,25.73,0,0,1-7.67.84c-.08,0-.15-.12-.22-.36a3.7,3.7,0,0,1-.1-.89v-.78a3.67,3.67,0,0,1,.09-.88c.06-.25.13-.37.23-.37,1.62,0,3.18-.07,4.65-.21a13.39,13.39,0,0,0,3.33-.66,9.54,9.54,0,0,0-2-5.35,23.74,23.74,0,0,0-5.44-4.85l.12-2.73a63,63,0,0,1,9.74-4.35l.35,2.75c-2.69,1-5.13,2.05-7.34,3.14l.79.58A17.55,17.55,0,0,1,397.86,399.26Zm-2.41-11.61q-2.76,1.19-5.8,2.81l.09-2.26q2.77-1.45,5.54-2.61Z"/><path class="cls-1" d="M422.48,405.86a4.33,4.33,0,0,1,.08.9v.78a4.44,4.44,0,0,1-.08.89q-.09.36-.21.36H421.2a4.24,4.24,0,0,1,.12,1.1,5.13,5.13,0,0,1-2.56,4.64q-2.55,1.61-7.36,1.6-4.12,0-5.61-1.64a5.31,5.31,0,0,1-1.5-3.67q0-1.36,1.4-9.28l2,.46q-.9,5-1.14,7.95a2.06,2.06,0,0,0,1.48,2.32,10.87,10.87,0,0,0,3.69.58,19.58,19.58,0,0,0,4.17-.39,6.87,6.87,0,0,0,3-1.41,2.54,2.54,0,0,0-.28-1.61,1.7,1.7,0,0,0-1.23-.55c-.6-.07-1.72-.1-3.36-.1H414l.67-3.28h7.62C422.35,405.51,422.42,405.63,422.48,405.86Z"/><path class="cls-1" d="M434,400.7a8,8,0,0,1,1.14,4.38,11.26,11.26,0,0,1-.38,2.93,2.75,2.75,0,0,1-.37.79,4.16,4.16,0,0,1-.82.8,2.05,2.05,0,0,1-1.3.64,1.67,1.67,0,0,1-.7-.17l-5.39-2.5a3.23,3.23,0,0,1-1.26.9,5.5,5.5,0,0,1-2,.32h-.58c-.07,0-.15-.12-.21-.36a3.22,3.22,0,0,1-.11-.89v-.78a3.67,3.67,0,0,1,.09-.88c.06-.25.14-.37.23-.37h1a5.12,5.12,0,0,0,1.23-.11,1.51,1.51,0,0,0,.73-.57,8.16,8.16,0,0,0,.79-1.55,12.12,12.12,0,0,1,1.93-3.19,3.48,3.48,0,0,1,2.71-1.19A3.7,3.7,0,0,1,434,400.7Zm-1,4.67a4.71,4.71,0,0,0-.65-2.54,2.19,2.19,0,0,0-2-1.06,2,2,0,0,0-1.5.86,9.77,9.77,0,0,0-1.37,2.51l5.17,2.32A5.69,5.69,0,0,0,433,405.37Z"/><path class="cls-1" d="M438.05,414.39a25.39,25.39,0,0,0,5.18-3,8.22,8.22,0,0,0,2.45-3l-1-8.49,2.58-.64q.12,1.19.15,1.53c.15,1.51.28,2.85.39,4s.16,2.06.16,2.69a7.54,7.54,0,0,1-2,5.08,19.58,19.58,0,0,1-6.34,4.35Z"/><path class="cls-1" d="M454,387.71l.23,21.08-2.26.32-.58-20.76Z"/><path class="cls-1" d="M467.69,405.86a3.74,3.74,0,0,1,.08.9v.78a3.81,3.81,0,0,1-.08.89q-.09.36-.21.36h-.81a4.38,4.38,0,0,1-3.62-1.36v.11a7.49,7.49,0,0,1-2,5.08A19.52,19.52,0,0,1,454.7,417l-1.6-2.58a25.39,25.39,0,0,0,5.18-3,8.12,8.12,0,0,0,2.45-3l-1-8.49,2.58-.64.41,3.94a2.51,2.51,0,0,0,.59,1.54,2.12,2.12,0,0,0,1.23.61,16.88,16.88,0,0,0,2.18.11h.72C467.56,405.51,467.63,405.63,467.69,405.86Z"/><path class="cls-1" d="M478.72,404.6a5.4,5.4,0,0,1-.56,2.09,3.27,3.27,0,0,1-1.4,1.26,6.71,6.71,0,0,1-2.53.68c-1.06.11-2.41.16-4.05.16h-2.7c-.07,0-.15-.12-.21-.36a3.26,3.26,0,0,1-.1-.89v-.78a3.72,3.72,0,0,1,.08-.88c.06-.25.14-.37.23-.37q4.09,0,6-.13a11.8,11.8,0,0,0,2.9-.45c.05-.33.1-.94.14-1.85a16.29,16.29,0,0,1-3.28.32,13.77,13.77,0,0,1-2-.15,1.73,1.73,0,0,1-.79-.35,3.29,3.29,0,0,1-.71-.81,6,6,0,0,1-.5-1,2.09,2.09,0,0,1-.11-.83,13.32,13.32,0,0,1,1.29-5.2,3.69,3.69,0,0,1,3.52-2.28,3.78,3.78,0,0,1,3.83,2.47,14.21,14.21,0,0,1,1,5.42A37.61,37.61,0,0,1,478.72,404.6Zm-7.61-15.09-2.26-1.89,1.88-2.23,2.26,1.85Zm2.52,10.93a18.08,18.08,0,0,0,3-.23,6.58,6.58,0,0,0-.68-3.45,2.29,2.29,0,0,0-2.05-1.05,2.07,2.07,0,0,0-1.88,1.16,7,7,0,0,0-.7,3.37A11,11,0,0,0,473.63,400.44Zm1.83-11-2.23-1.89,1.88-2.23,2.26,1.88Z"/><path class="cls-1" d="M492.63,405.86a3.74,3.74,0,0,1,.08.9v.78a3.81,3.81,0,0,1-.08.89q-.09.36-.21.36h-.69a5.72,5.72,0,0,1-4.18-1.3c-.87-.87-1.33-2.37-1.39-4.5l-.43-14.64,2.63-.64L488.6,403a2.61,2.61,0,0,0,.69,1.83,2.53,2.53,0,0,0,1.86.66h1.27C492.5,405.51,492.57,405.63,492.63,405.86Z"/><path class="cls-1" d="M513.07,405.86a3.67,3.67,0,0,1,.09.9v.78a3.75,3.75,0,0,1-.09.89c-.06.24-.12.36-.2.36h-4.15c-2.76,0-4.45-1.11-5-3.33-1.18.69-2.24,1.27-3.18,1.72a16.91,16.91,0,0,1-3.23,1.15,16.4,16.4,0,0,1-4,.46h-.82c-.07,0-.15-.12-.21-.36a3.22,3.22,0,0,1-.11-.89v-.78a3.67,3.67,0,0,1,.09-.88c.06-.25.14-.37.23-.37h.82A14.26,14.26,0,0,0,497,405a37.13,37.13,0,0,0,4-1.36c.6-.25,1.36-.61,2.29-1.07s1.63-.76,1.83-.82l.58-.2h-.18a20.22,20.22,0,0,1-3.77-1.19,11.76,11.76,0,0,0-3.48-.93,1.14,1.14,0,0,0-1.07.54,5,5,0,0,0-.52,1.41l-2-.35a7.88,7.88,0,0,1,1.18-3.26,2.79,2.79,0,0,1,2.41-1.12,7,7,0,0,1,1.83.32c.73.21,1.67.53,2.81,1,1.63.59,3.06,1.07,4.31,1.42a13.36,13.36,0,0,0,3.49.52l-.64,2.9a8.2,8.2,0,0,0-2.27.51,17,17,0,0,0-2.39,1.14,2.27,2.27,0,0,0,1.55.9,17.54,17.54,0,0,0,3.14.2h2.76C513,405.51,513,405.63,513.07,405.86Zm-11.66,5.69,2.5,2.08-2.09,2.47L499.38,414Z"/><path class="cls-1" d="M523.77,405.86a3.67,3.67,0,0,1,.09.9v.78a3.75,3.75,0,0,1-.09.89c-.06.24-.12.36-.2.36a10.7,10.7,0,0,1-3.67-.46,2.35,2.35,0,0,1-1.49-1.54,3.35,3.35,0,0,1-1.95,1.54,11.34,11.34,0,0,1-3.59.46c-.08,0-.15-.12-.22-.36a3.26,3.26,0,0,1-.1-.89v-.78a3.67,3.67,0,0,1,.09-.88c.05-.25.13-.37.23-.37a9.62,9.62,0,0,0,4.32-.75l-.55-5.77,2.61-.23.35,6.17a3.44,3.44,0,0,0,1.39.45,18.37,18.37,0,0,0,2.58.13C523.65,405.51,523.71,405.63,523.77,405.86Zm-6-10.21-2.46-2.08,2.05-2.47,2.5,2.09Z"/><path class="cls-1" d="M525,412.24l2.26,1.89-1.91,2.26-2.21-1.89Zm-1.61-3.81a3.26,3.26,0,0,1-.1-.89v-.78a3.67,3.67,0,0,1,.09-.88c.06-.25.13-.37.23-.37a19.67,19.67,0,0,0,3.09-.2,6.9,6.9,0,0,0,2.22-.7l-.67-6.64,2.64-.43.06.87q.17,3.76.17,6.12a3.34,3.34,0,0,1-1.77,3,8.6,8.6,0,0,1-2.68.95,16.42,16.42,0,0,1-3.06.3C523.49,408.79,523.42,408.67,523.35,408.43Zm8.25,5.67-1.91,2.23-2.23-1.88,1.88-2.24Z"/><path class="cls-1" d="M537.37,387.71l.23,21.08-2.26.32-.58-20.76Z"/><path class="cls-1" d="M540.53,414.39a25.11,25.11,0,0,0,5.18-3,8,8,0,0,0,2.45-3l-1-8.49,2.58-.64q.12,1.19.15,1.53c.15,1.51.28,2.85.39,4s.16,2.06.16,2.69a7.49,7.49,0,0,1-2,5.08,19.52,19.52,0,0,1-6.33,4.35Z"/><path class="cls-1" d="M565.39,400a11.16,11.16,0,0,1,1.3,4.9,4.86,4.86,0,0,1-.2,1.44,2.89,2.89,0,0,1-.7,1.12,5.57,5.57,0,0,1-2.46,1.24,15.35,15.35,0,0,1-3.92.44,9.85,9.85,0,0,1-3.17-.39,2.56,2.56,0,0,1-1.53-1.32,6.5,6.5,0,0,1-.43-2.67c0-.48,0-.86,0-1.13l2.09.11v.44a2.12,2.12,0,0,0,.23,1.16,1.1,1.1,0,0,0,.84.43,16.46,16.46,0,0,0,2.09.09c.75,0,1.61,0,2.58-.13a8.26,8.26,0,0,0,2.29-.48,7.77,7.77,0,0,0-1.32-4.22,21.62,21.62,0,0,0-3.78-4.3l1.74-2.3A21.25,21.25,0,0,1,565.39,400Z"/><path class="cls-1" d="M594.71,405.86a4.33,4.33,0,0,1,.08.9v.78a4.44,4.44,0,0,1-.08.89q-.09.36-.21.36h-.67a6.79,6.79,0,0,1-2.56-.42,2.71,2.71,0,0,1-1.5-1.49l.18,3.33a3.9,3.9,0,0,1-2.51,3.8,14.79,14.79,0,0,1-6.54,1.28c-2.73,0-4.59-.55-5.6-1.66a5.35,5.35,0,0,1-1.5-3.68,25.05,25.05,0,0,1,.37-3.28q.38-2.37,1-6l2,.46q-.9,5-1.13,7.95a2.06,2.06,0,0,0,1.46,2.31,10.42,10.42,0,0,0,3.58.59,20.52,20.52,0,0,0,3.66-.32,8.31,8.31,0,0,0,2.9-1l-1.11-11.08,2.61-.58.38,4.2a2.45,2.45,0,0,0,.57,1.54,2.33,2.33,0,0,0,1.29.64,13.76,13.76,0,0,0,2.32.14h.75C594.58,405.51,594.65,405.63,594.71,405.86Zm-12.79-8.12-2.47-2.09,2.06-2.46,2.49,2.06Z"/><path class="cls-1" d="M618.8,405.86a3.67,3.67,0,0,1,.09.9v.78a3.75,3.75,0,0,1-.09.89c0,.24-.12.36-.2.36h-1.42a5,5,0,0,1-2.18-.45,2.82,2.82,0,0,1-1.33-1.26,3.69,3.69,0,0,1-1.77,1.29,7.07,7.07,0,0,1-2.49.42c-1.61,0-2.66-.57-3.16-1.71a3.24,3.24,0,0,1-1.6,1.28,5.58,5.58,0,0,1-2.12.43,3,3,0,0,1-3.07-1.74c-.79,1.16-2.45,1.74-5,1.74-.08,0-.15-.12-.22-.36a3.7,3.7,0,0,1-.1-.89v-.78a3.67,3.67,0,0,1,.09-.88c.06-.25.14-.37.23-.37a8.54,8.54,0,0,0,3.8-.69l.06-4.47,2.38.06-.09,3.48c0,.7.15,1.14.52,1.33a3.93,3.93,0,0,0,1.77.29,3.18,3.18,0,0,0,2.2-.61l-.11-5.68,2.41-.06.11,5.89a2.52,2.52,0,0,0,1.65.46,6.14,6.14,0,0,0,2.9-.61l-.63-6.93,2.61-.46.32,5.8a3.05,3.05,0,0,0,.33,1.42,1.3,1.3,0,0,0,.77.61,5.74,5.74,0,0,0,1.39.17h1.71C618.68,405.51,618.75,405.63,618.8,405.86ZM604,395.94l-2.2-1.85,1.85-2.24,2.24,1.86Zm2.06-4.14L603.93,390l1.85-2.23,2.21,1.88Zm.06,2.23,1.86-2.2,2.2,1.85-1.86,2.21Z"/><path class="cls-1" d="M629.5,405.86a3.67,3.67,0,0,1,.09.9v.78a3.75,3.75,0,0,1-.09.89c0,.24-.12.36-.2.36a10.74,10.74,0,0,1-3.67-.46,2.35,2.35,0,0,1-1.49-1.54,3.36,3.36,0,0,1-1.94,1.54,11.46,11.46,0,0,1-3.6.46c-.08,0-.15-.12-.22-.36a3.7,3.7,0,0,1-.1-.89v-.78a3.67,3.67,0,0,1,.09-.88c.06-.25.13-.37.23-.37a9.62,9.62,0,0,0,4.32-.75l-.55-5.77,2.61-.23.35,6.17a3.5,3.5,0,0,0,1.39.45,18.37,18.37,0,0,0,2.58.13C629.38,405.51,629.45,405.63,629.5,405.86Zm-8.64,6.38,2.26,1.89-1.91,2.26L619,414.5Zm4.38,0,2.26,1.89-1.91,2.23-2.23-1.88Z"/><path class="cls-1" d="M640.21,405.86a4.33,4.33,0,0,1,.08.9v.78a4.44,4.44,0,0,1-.08.89q-.09.36-.21.36a10.74,10.74,0,0,1-3.67-.46,2.35,2.35,0,0,1-1.49-1.54,3.33,3.33,0,0,1-1.94,1.54,11.46,11.46,0,0,1-3.6.46c-.08,0-.15-.12-.22-.36a3.7,3.7,0,0,1-.1-.89v-.78a3.67,3.67,0,0,1,.09-.88c.06-.25.13-.37.23-.37a9.62,9.62,0,0,0,4.32-.75l-.55-5.77,2.61-.23.35,6.17a3.5,3.5,0,0,0,1.39.45,18.37,18.37,0,0,0,2.58.13C640.08,405.51,640.15,405.63,640.21,405.86Zm-8.27-10.64-2.26-1.92,1.88-2.23,2.27,1.89Zm4.35-.06-2.23-1.88,1.88-2.24,2.24,1.86Z"/><path class="cls-1" d="M647.28,397.54l.06.87q.17,3.76.17,6.12a3.34,3.34,0,0,1-1.77,3,8.6,8.6,0,0,1-2.68.95,16.34,16.34,0,0,1-3.06.3c-.08,0-.15-.12-.22-.36a3.7,3.7,0,0,1-.1-.89v-.78a3.67,3.67,0,0,1,.09-.88c.06-.25.14-.37.23-.37a19.67,19.67,0,0,0,3.09-.2,6.9,6.9,0,0,0,2.22-.7l-.67-6.64Zm-1.77-3-2.46-2.09,2.06-2.46,2.49,2.06Z"/><path class="cls-1" d="M646.09,414.39a25.39,25.39,0,0,0,5.18-3,8.12,8.12,0,0,0,2.45-3l-1-8.49,2.58-.64q.12,1.19.15,1.53c.15,1.51.28,2.85.39,4s.16,2.06.16,2.69a7.49,7.49,0,0,1-2,5.08,19.52,19.52,0,0,1-6.33,4.35Zm9-21.17-2.06,2.49-2.46-2.09,2.06-2.46Z"/><path class="cls-1" d="M669.81,405.86a3.67,3.67,0,0,1,.09.9v.78a3.75,3.75,0,0,1-.09.89c0,.24-.12.36-.2.36h-.84c-1.88,0-3.14-.48-3.8-1.45v.2a8,8,0,0,1-1.78,5,17.31,17.31,0,0,1-5.32,4.26l-1.57-2.58q5-2.76,6.35-5.83l-1-8.49,2.61-.64.43,3.94a2.4,2.4,0,0,0,.58,1.54,2.21,2.21,0,0,0,1.28.61,18.62,18.62,0,0,0,2.32.11h.75C669.69,405.51,669.76,405.63,669.81,405.86Z"/><path class="cls-1" d="M671.18,416,669,414.18l1.86-2.23,2.23,1.89Zm-1.79-7.61a3.7,3.7,0,0,1-.1-.89v-.78a3.67,3.67,0,0,1,.09-.88c.06-.25.13-.37.23-.37a19.67,19.67,0,0,0,3.09-.2,6.9,6.9,0,0,0,2.22-.7l-.67-6.64,2.64-.43.06.87q.16,3.76.17,6.12a3.34,3.34,0,0,1-1.77,3,8.6,8.6,0,0,1-2.68.95,16.34,16.34,0,0,1-3.06.3C669.53,408.79,669.46,408.67,669.39,408.43ZM673,416l2.24,1.86-1.86,2.2-2.2-1.86Zm4.38-2.26L675.5,416l-2.21-1.85,1.86-2.24Z"/><path class="cls-1" d="M704.87,405.86a3.67,3.67,0,0,1,.09.9v.78a3.75,3.75,0,0,1-.09.89c0,.24-.12.36-.2.36h-1.25a3.88,3.88,0,0,1-3.5-1.62l.05,3a3.94,3.94,0,0,1-2.38,3.81,14,14,0,0,1-6.49,1.27q-4,0-5.41-1.64a5.46,5.46,0,0,1-1.44-3.7,20.41,20.41,0,0,1,.29-2.48c.2-1.23.4-2.49.61-3.78l.5-3,2,.46q-1,5.52-1.13,7.95a2,2,0,0,0,1.37,2.32,9.46,9.46,0,0,0,3.41.58,19.76,19.76,0,0,0,3.57-.33,8.89,8.89,0,0,0,2.87-1l-.84-22.35,2.61-.64.29,15a2.63,2.63,0,0,0,.91,2.23,4.33,4.33,0,0,0,2.45.58h1.48C704.75,405.51,704.82,405.63,704.87,405.86Z"/><path class="cls-1" d="M715.57,405.86a3.67,3.67,0,0,1,.09.9v.78a3.75,3.75,0,0,1-.09.89c-.05.24-.12.36-.2.36a10.74,10.74,0,0,1-3.67-.46,2.35,2.35,0,0,1-1.49-1.54,3.33,3.33,0,0,1-1.94,1.54,11.46,11.46,0,0,1-3.6.46c-.08,0-.15-.12-.22-.36a3.7,3.7,0,0,1-.1-.89v-.78a3.67,3.67,0,0,1,.09-.88c.06-.25.13-.37.23-.37a9.62,9.62,0,0,0,4.32-.75l-.55-5.77,2.61-.23.35,6.17a3.5,3.5,0,0,0,1.39.45,18.37,18.37,0,0,0,2.58.13C715.45,405.51,715.52,405.63,715.57,405.86Zm-8.26-10.64-2.26-1.92,1.88-2.23,2.26,1.89Zm4.35-.06-2.23-1.88,1.88-2.24,2.23,1.86Z"/><path class="cls-1" d="M716.76,412.24l2.27,1.89-1.92,2.26-2.2-1.89Zm-1.61-3.81a3.7,3.7,0,0,1-.1-.89v-.78a3.67,3.67,0,0,1,.09-.88c.06-.25.13-.37.23-.37a19.67,19.67,0,0,0,3.09-.2,6.9,6.9,0,0,0,2.22-.7L720,398l2.64-.43.06.87q.16,3.76.17,6.12a3.34,3.34,0,0,1-1.77,3,8.6,8.6,0,0,1-2.68.95,16.34,16.34,0,0,1-3.06.3C715.29,408.79,715.22,408.67,715.15,408.43Zm8.25,5.67-1.91,2.23-2.23-1.88,1.88-2.24Z"/><path class="cls-1" d="M734,405.86a3.67,3.67,0,0,1,.09.9v.78a3.75,3.75,0,0,1-.09.89c-.06.24-.13.36-.2.36h-.7a5.71,5.71,0,0,1-4.17-1.3c-.87-.87-1.34-2.37-1.4-4.5l-.43-14.64,2.64-.64.23,15.31a2.57,2.57,0,0,0,.7,1.83,2.51,2.51,0,0,0,1.85.66h1.28C733.83,405.51,733.9,405.63,734,405.86Z"/><path class="cls-1" d="M741,397.54l.05.87q.18,3.76.18,6.12a3.34,3.34,0,0,1-1.77,3,8.7,8.7,0,0,1-2.68.95,16.5,16.5,0,0,1-3.06.3c-.08,0-.15-.12-.22-.36a3.26,3.26,0,0,1-.1-.89v-.78a3.67,3.67,0,0,1,.09-.88c.05-.25.13-.37.23-.37a19.67,19.67,0,0,0,3.09-.2,6.76,6.76,0,0,0,2.21-.7L738.4,398Zm-4.59-4.06-2.23-1.89,1.89-2.23,2.26,1.86Zm4.38-.06-2.23-1.88,1.86-2.24,2.26,1.89Z"/><path class="cls-1" d="M767.46,404.41a4.19,4.19,0,0,1-.45,2,3.23,3.23,0,0,1-1.5,1.29,11.58,11.58,0,0,1-3.52.93,45.15,45.15,0,0,1-5.55.29,24.84,24.84,0,0,1-5.3-.47,6.11,6.11,0,0,1-3.19-1.65,4.62,4.62,0,0,1-1.11-3.28,11.61,11.61,0,0,1,.14-1.65l.75-4.5,2,.44-.66,4a5.58,5.58,0,0,0-.09.93,2.29,2.29,0,0,0,.81,1.93,4.59,4.59,0,0,0,2.21.8,35.13,35.13,0,0,0,3.91.17q3.6,0,5.73-.15a15.23,15.23,0,0,0,3.52-.58l-.64-6.84,2.56-.55C767.34,400,767.46,402.27,767.46,404.41Zm-10.79,7.8,2.49,2.09-2.09,2.47-2.43-2.06Z"/><path class="cls-1" d="M778.59,405.86a3.67,3.67,0,0,1,.09.9v.78a3.75,3.75,0,0,1-.09.89c-.06.24-.13.36-.2.36h-.7a5.71,5.71,0,0,1-4.17-1.3c-.87-.87-1.34-2.37-1.4-4.5l-.43-14.64,2.64-.64.23,15.31a2.57,2.57,0,0,0,.7,1.83,2.51,2.51,0,0,0,1.85.66h1.28C778.46,405.51,778.53,405.63,778.59,405.86Z"/><path class="cls-1" d="M798.17,405a3.22,3.22,0,0,1-1.41,2.9,6.15,6.15,0,0,1-3.47.93,3.1,3.1,0,0,1-3.16-1.71,3.26,3.26,0,0,1-1.59,1.28,5.61,5.61,0,0,1-2.12.43,3,3,0,0,1-3.07-1.74q-1.2,1.74-5,1.74c-.08,0-.15-.12-.22-.36a3.26,3.26,0,0,1-.1-.89v-.78a3.67,3.67,0,0,1,.09-.88c.05-.25.13-.37.23-.37a8.57,8.57,0,0,0,3.8-.69l0-4.47,2.38.06-.08,3.48c0,.7.15,1.14.52,1.33a3.88,3.88,0,0,0,1.77.29,3.2,3.2,0,0,0,2.2-.61l-.12-5.68,2.41-.06.12,5.89a2.5,2.5,0,0,0,1.65.46,6.14,6.14,0,0,0,2.9-.61l-.64-6.93,2.61-.46Q798.17,401.52,798.17,405Z"/><path class="cls-1" d="M612.12,182.93c-1.58-2.75-5.81-2.9-7.89.91a10.66,10.66,0,0,1-3.41,4l-1.85-3.1,3.56-2L590.8,154.39a16.81,16.81,0,0,0,1.75-1.63c2.79-3.06,5.81-8.56,4.33-17.47-.5-2.7-.82-5.11.5-7.22,2.38-3.8,1.23-6.65-.48-7.94-3.13-2.36-6.69-.54-8.69,1.51L587.39,110a8,8,0,0,0-2.42-5.55,5.08,5.08,0,0,0-3.8-1.23,5,5,0,0,0-2.35.76l0-.48a8.11,8.11,0,0,0-2.52-5.6,4.91,4.91,0,0,0-3.73-1.18c-2.85.26-4.74,3-5.18,5.8a4.92,4.92,0,0,0-2.59-.43c-3.78.36-5.5,4.09-5.26,7.59l.39,5.53a4,4,0,0,0-1.82-.22c-3.13.35-5,3.26-4.67,7.4l1.23,17.42h0l0,.35a.3.3,0,0,0,0,.1c.7,8.32,4.15,13.13,7.34,15.83a17.89,17.89,0,0,1-.71,6.26c-1.49,5-5,8.67-10.31,10.87l-1.43.54-10.14,3.11,3.07,10.28,2.9-.35a12.35,12.35,0,0,0-.43,8.85c1,3.57,4.14,4,5.89,3.12,2.31-1.14,3.55-3.55,1.39-6.91-2.32-3.59-1.62-5.16-1-5.79l.39,0,.89,2.83,1.17.07c.81.05,1.6.07,2.35.07,16,0,20.06-10.44,20.24-10.9a1.71,1.71,0,0,0-3.2-1.2c0,.09-3.61,9.09-18,8.67l-1.39-4.4-1.49-4.75h0c10.77-4.43,12.86-13.2,13.16-18a11.9,11.9,0,0,0,2.33.94,1.55,1.55,0,0,0,.37,0,1.7,1.7,0,0,0,.36-3.37c-.09,0-9.46-2.69-10.43-16.41l-1.23-17.42c0-.36-.19-3.56,1.65-3.76a.77.77,0,0,1,.63.21,5.09,5.09,0,0,1,1.28,3.3l.75,10.54a1.7,1.7,0,0,0,3.4-.24l-.61-8.71h0l-1-14c-.11-1.49.38-3.78,2.17-4a1.52,1.52,0,0,1,1.22.37,4.91,4.91,0,0,1,1.31,3.25v0l1.16,16.49a1.72,1.72,0,0,0,1.71,1.59h.12a1.71,1.71,0,0,0,1.58-1.83l-1.5-21.31c-.13-1.85,1-3.84,2.16-3.95a1.53,1.53,0,0,1,1.21.38,4.83,4.83,0,0,1,1.32,3.24l1.51,21.31a1.71,1.71,0,1,0,3.41-.24l-1-14.18s0,0,0-.06c-.11-1.46.38-3.82,2.13-3.95a1.7,1.7,0,0,1,1.32.41,4.81,4.81,0,0,1,1.24,3.21l1.5,21.25h0v0l.3,4.31a1.48,1.48,0,0,0,0,.19s0,.08,0,.11a2.31,2.31,0,0,0,.1.28v0a1.74,1.74,0,0,0,1.26.95h.08l.2,0h.12l.15,0,.17,0,.16-.06.16-.06.13-.08.15-.09.11-.11a1.42,1.42,0,0,0,.13-.12l.09-.12.1-.14a.91.91,0,0,0,.07-.14c0-.05.05-.1.07-.16a.94.94,0,0,0,0-.16.94.94,0,0,0,0-.16,1.09,1.09,0,0,0,0-.18c0-.05,0-.09,0-.14,0-.71-.15-2.26-.23-3.4l-.08-1h0c-.21-3,.26-5.3,1.35-6.74.52-.69,2.83-3,4.6-1.65.76.56.63,1.84-.35,3.4-2.14,3.41-1.43,7.17-1,9.63,1.25,7.51-1.21,12.07-3.49,14.57a14.65,14.65,0,0,1-2.12,1.87,1.36,1.36,0,0,0-.34.23,11.32,11.32,0,0,1-6.72,2.08,1.71,1.71,0,0,0-.26,3.41l.79,0a14.15,14.15,0,0,0,6.52-1.76l7.59,18.34c-.31.65-1.3,2.1-4.08,2.66a1.71,1.71,0,0,0,.33,3.38,1.87,1.87,0,0,0,.34,0,9.72,9.72,0,0,0,4.9-2.4l1.23,3-1,.56h0l-4.51,2.51-2.85,1.59-16.46-22a1.71,1.71,0,0,0-2.74,2l16.19,21.61h0l8.81,11.78,9-5-1.3-2.18a15.65,15.65,0,0,0,6.08-2.36C612.94,187.43,613,184.41,612.12,182.93Z"/><path class="cls-1" d="M568.74,174.26a2,2,0,0,1-1.66,2.11,1.71,1.71,0,0,0,.31,3.39l.31,0a5.49,5.49,0,0,0,4.46-5.52,1.69,1.69,0,0,0-1.74-1.69A1.72,1.72,0,0,0,568.74,174.26Z"/><path class="cls-1" d="M569.86,131.83c-.91.24-1.44,1.54-1.2,2.89s1.17,2.26,2.07,2,1.44-1.54,1.2-2.89S570.76,131.59,569.86,131.83Z"/><path class="cls-1" d="M582,136.73c.9-.24,1.44-1.54,1.2-2.89s-1.17-2.25-2.07-2-1.44,1.54-1.2,2.89S581.07,137,582,136.73Z"/><path class="cls-1" d="M572.19,144.34a1.71,1.71,0,0,0,1.7,1.54h.17l5.7-.57-2-8.82a1.71,1.71,0,0,0-3.33.74l1.13,5.06-1.87.19A1.71,1.71,0,0,0,572.19,144.34Z"/><path class="cls-1" d="M571.05,149.86a1.71,1.71,0,0,0,.6,2.34A9.09,9.09,0,0,0,584.08,149a1.71,1.71,0,0,0-2.94-1.74,5.66,5.66,0,0,1-7.76,2A1.7,1.7,0,0,0,571.05,149.86Z"/><path class="cls-1" d="M519.65,600.7l-.34,1.3a.79.79,0,0,1-.84.64h-.85a.67.67,0,0,1-.75-.75v-18.8a.67.67,0,0,1,.75-.75h1.45a.67.67,0,0,1,.76.75v6a3,3,0,0,1,2.93-1.82q3.22,0,3.22,4.17v7.31q0,4.19-3.22,4.18A3.15,3.15,0,0,1,519.65,600.7Zm3.37-9c0-1.37-.44-1.86-1.45-1.86a1.87,1.87,0,0,0-1.74,2.06v6.5a1.87,1.87,0,0,0,1.74,2.06c1,0,1.45-.5,1.45-1.86Z"/><path class="cls-1" d="M527.6,599v-.23a4.19,4.19,0,0,1,1.33-3.42,9.21,9.21,0,0,1,2.59-1.54c.52-.23.9-.41,1.16-.55a1.91,1.91,0,0,0,1.07-1.45v-.17c0-1.25-.49-1.89-1.51-1.89s-1.54.64-1.54,1.89V592a.67.67,0,0,1-.75.76H528.7c-.49,0-.75-.26-.75-.79,0-3.13,1.48-4.69,4.41-4.69s4.35,1.59,4.35,4.75v5.69a34.49,34.49,0,0,0,.17,4.09c.09.55-.11.81-.66.81h-1.34A.74.74,0,0,1,534,602a5.87,5.87,0,0,1-.17-1.19,3.16,3.16,0,0,1-3,2.15Q527.59,603,527.6,599Zm6.15-.63v-3.17l-.67.32a7,7,0,0,0-1.74,1,2.29,2.29,0,0,0-.81,1.94v.2c0,1.31.49,1.74,1.45,1.74A1.87,1.87,0,0,0,533.75,598.41Z"/><path class="cls-1" d="M538.53,598.41a.68.68,0,0,1,.76-.76h1.22a.67.67,0,0,1,.75.76v.29c0,1.27.52,1.91,1.54,1.91s1.56-.61,1.56-1.8v-.26c0-1-.66-1.45-2.2-2.12a7.48,7.48,0,0,1-2.41-1.45,4.13,4.13,0,0,1-1.22-3.33v-.06c0-2.87,1.6-4.29,4.41-4.29s4.35,1.45,4.35,4.38a.67.67,0,0,1-.75.75h-1.22a.67.67,0,0,1-.75-.75v-.12c0-1.28-.53-1.92-1.54-1.92s-1.57.61-1.57,1.8v.18a1.62,1.62,0,0,0,.67,1.36,7.16,7.16,0,0,0,1.54.81,7.33,7.33,0,0,1,2,1.08c1.07.72,1.57,1.77,1.65,3.68v.09c0,2.87-1.56,4.32-4.38,4.32S538.53,601.45,538.53,598.41Z"/><path class="cls-1" d="M548.77,599v-.23a4.19,4.19,0,0,1,1.33-3.42,9.21,9.21,0,0,1,2.59-1.54c.52-.23.89-.41,1.16-.55a1.91,1.91,0,0,0,1.07-1.45v-.17c0-1.25-.49-1.89-1.51-1.89s-1.54.64-1.54,1.89V592a.67.67,0,0,1-.75.76h-1.25c-.49,0-.75-.26-.75-.79,0-3.13,1.48-4.69,4.41-4.69s4.35,1.59,4.35,4.75v5.69a34.49,34.49,0,0,0,.17,4.09c.09.55-.11.81-.67.81h-1.33a.74.74,0,0,1-.84-.64,5.87,5.87,0,0,1-.17-1.19,3.16,3.16,0,0,1-3,2.15Q548.77,603,548.77,599Zm6.15-.63v-3.17l-.67.32a7,7,0,0,0-1.74,1,2.29,2.29,0,0,0-.81,1.94v.2c0,1.31.49,1.74,1.45,1.74A1.87,1.87,0,0,0,554.92,598.41Z"/><path class="cls-1" d="M563.07,601.89a.67.67,0,0,1-.76.75h-1.45a.67.67,0,0,1-.75-.75v-18.8a.67.67,0,0,1,.75-.75h1.45a.67.67,0,0,1,.76.75Z"/><path class="cls-1" d="M565,599v-.23a4.17,4.17,0,0,1,1.34-3.42,9,9,0,0,1,2.58-1.54c.52-.23.9-.41,1.16-.55a1.91,1.91,0,0,0,1.07-1.45v-.17c0-1.25-.49-1.89-1.51-1.89s-1.54.64-1.54,1.89V592a.67.67,0,0,1-.75.76h-1.25c-.49,0-.75-.26-.75-.79,0-3.13,1.48-4.69,4.41-4.69s4.35,1.59,4.35,4.75v5.69a34.49,34.49,0,0,0,.17,4.09c.09.55-.11.81-.66.81h-1.34a.74.74,0,0,1-.84-.64,6.67,6.67,0,0,1-.17-1.19,3.16,3.16,0,0,1-3.05,2.15Q564.94,603,565,599Zm6.15-.63v-3.17l-.67.32a7,7,0,0,0-1.74,1,2.29,2.29,0,0,0-.81,1.94v.2c0,1.31.49,1.74,1.45,1.74A1.86,1.86,0,0,0,571.1,598.41Z"/><path class="cls-1" d="M577,602.64a.67.67,0,0,1-.75-.75V588.37a.68.68,0,0,1,.75-.76h1.25a.69.69,0,0,1,.76.76v1.25a3,3,0,0,1,3-2.32,2.66,2.66,0,0,1,2.87,2.2,3.17,3.17,0,0,1,3.08-2.2q3.13,0,3.13,4.17v10.42a.67.67,0,0,1-.75.75H589a.67.67,0,0,1-.76-.75V591.68c0-1.4-.4-1.86-1.36-1.86s-1.65.87-1.65,2.06v10a.68.68,0,0,1-.76.75H583a.67.67,0,0,1-.75-.75V591.68c0-1.4-.41-1.86-1.37-1.86s-1.65.87-1.65,2.06v10a.67.67,0,0,1-.76.75Z"/><path class="cls-1" d="M594.21,602.64a.67.67,0,0,1-.75-.75V599a.67.67,0,0,1,.75-.76h1.45a.68.68,0,0,1,.76.76v2.9a.67.67,0,0,1-.76.75Z"/><path class="cls-1" d="M598.62,592.08q0-4.79,4.44-4.78t4.44,4.78v.61c0,.41-.27.61-.76.61h-1.22a.67.67,0,0,1-.75-.75v-.87c0-1.25-.52-1.86-1.6-1.86s-1.62.61-1.62,1.86v6.9c0,1.25.55,1.86,1.62,1.86s1.6-.61,1.6-1.86v-1.16a.68.68,0,0,1,.75-.76h1.22a.69.69,0,0,1,.76.76v.75q0,4.79-4.44,4.79t-4.44-4.79Z"/><path class="cls-1" d="M609.2,598.17v-6.09c0-3.19,1.51-4.78,4.56-4.78s4.52,1.59,4.52,4.78v6.09q0,4.79-4.52,4.79C610.71,603,609.2,601.36,609.2,598.17Zm6.15.41v-6.9c0-1.25-.52-1.86-1.59-1.86s-1.63.61-1.63,1.86v6.9c0,1.25.56,1.86,1.63,1.86S615.35,599.83,615.35,598.58Z"/><path class="cls-1" d="M621.15,602.64a.67.67,0,0,1-.75-.75V588.37a.68.68,0,0,1,.75-.76h1.25a.68.68,0,0,1,.75.76v1.25a3.07,3.07,0,0,1,3.05-2.32,2.67,2.67,0,0,1,2.87,2.2,3.17,3.17,0,0,1,3.08-2.2c2.08,0,3.13,1.39,3.13,4.17v10.42a.67.67,0,0,1-.76.75h-1.45a.67.67,0,0,1-.75-.75V591.68c0-1.4-.41-1.86-1.36-1.86s-1.66.87-1.66,2.06v10a.67.67,0,0,1-.75.75h-1.42a.67.67,0,0,1-.76-.75V591.68c0-1.4-.4-1.86-1.36-1.86s-1.65.87-1.65,2.06v10a.67.67,0,0,1-.76.75Z"/></g></svg>