<svg id="Background" xmlns="http://www.w3.org/2000/svg" viewBox="0 0 648 648"><defs><style>.cls-1{fill:#fde9e1;}.cls-2{fill:#2e87cc;}.cls-3{fill:#c4a055;}.cls-4{fill:#22346d;}.cls-5{fill:#007a57;}.cls-6{fill:#ff5c35;}</style></defs><rect class="cls-1" width="648" height="648"/><polygon class="cls-2" points="557.28 164.19 544.43 225.68 527.26 139.26 512.73 246.11 479.04 109.66 469.79 136.89 455.26 109.66 422.89 129.18 386.56 90.72 361.46 109.66 344.29 227.6 324 215.03 291.44 125.05 275.59 216.7 247.19 90.72 221.42 164.19 197.64 138.43 187.08 167.67 169.9 139.26 152.73 205.56 139.52 139.26 124.98 218.97 90.72 139.26 90.72 557.28 557.28 557.28 557.28 164.19"/><polygon class="cls-3" points="557.28 255.35 544.43 281.92 527.26 264.9 512.73 285.94 479.04 264.9 469.79 270.26 455.26 260.76 422.89 268.75 386.56 261.17 361.46 264.9 344.29 257.21 318.52 274.87 291.44 262.11 275.59 270.5 247.19 263.27 221.42 279.9 197.64 258.14 187.08 270.5 169.9 269.07 152.73 277.96 139.52 264.9 119.04 278.93 90.72 264.9 90.72 557.28 557.28 557.28 557.28 255.35"/><polygon class="cls-4" points="557.28 270.64 544.43 345.74 527.26 297.65 512.73 357.1 479.04 297.65 469.79 312.8 455.26 285.94 422.89 308.51 386.56 287.11 361.46 297.65 344.29 275.91 318.52 325.83 291.44 289.75 275.59 313.46 247.19 293.04 221.42 340.04 197.64 278.55 187.08 313.46 169.9 309.44 152.73 334.54 139.52 297.65 119.04 337.3 90.72 297.65 90.72 530.23 557.28 530.23 557.28 270.64"/><polygon class="cls-5" points="557.28 297.69 544.43 372.78 527.26 324.7 512.73 384.15 479.04 324.7 469.79 339.85 455.26 312.99 422.89 335.55 386.56 314.16 361.46 324.7 344.29 302.96 318.52 352.88 291.44 316.79 275.59 340.5 247.19 320.09 221.42 367.08 197.64 305.59 187.08 340.5 169.9 336.48 152.73 361.58 139.52 324.7 119.04 364.35 90.72 324.7 90.72 557.28 557.28 557.28 557.28 297.69"/><polygon class="cls-6" points="557.28 341.95 544.43 404.24 527.26 364.35 512.73 413.67 479.04 364.35 469.79 376.92 455.26 364.35 422.89 373.36 386.56 355.61 361.46 364.35 344.29 346.32 324 399.32 291.44 357.79 275.59 377.46 247.19 360.52 221.42 401.69 197.64 348.5 187.08 377.46 169.9 364.35 152.73 394.95 139.52 364.35 124.98 401.14 90.72 364.35 90.72 557.28 557.28 557.28 557.28 341.95"/></svg>