<svg id="Background" xmlns="http://www.w3.org/2000/svg" viewBox="0 0 1152 648"><defs><style>.cls-1{fill:#fde9e1;}.cls-2{fill:#fff;}.cls-3{fill:#ff5c35;}</style></defs><rect class="cls-1" width="1152" height="648"/><ellipse class="cls-2" cx="556.97" cy="287.35" rx="207.37" ry="82.14" transform="translate(-59.4 173.92) rotate(-16.86)"/><path d="M455.62,388.85c-7.71,0-15.17-.3-22.33-.89-43.08-3.58-70.48-17.69-77.16-39.74s8.27-49,42.11-75.88c33.23-26.4,80.88-49.84,134.18-66s106-23.12,148.24-19.6c43.07,3.57,70.48,17.68,77.16,39.73s-8.28,49-42.12,75.89c-33.22,26.4-80.87,49.83-134.17,66C537.25,381.77,493.43,388.85,455.62,388.85Zm202.68-198c-37.31,0-80.61,7-124.43,20.29-52.71,16-99.77,39.1-132.52,65.12-32.12,25.53-46.48,50.57-40.44,70.52s31.9,32.81,72.79,36.2c41.67,3.47,93.66-3.43,146.38-19.41s99.77-39.1,132.51-65.12c32.13-25.53,46.49-50.57,40.44-70.52s-31.89-32.81-72.78-36.2C673.21,191.13,665.87,190.84,658.3,190.84Z"/><ellipse class="cls-3" cx="569.28" cy="348.16" rx="207.37" ry="82.14" transform="translate(-29.77 54.16) rotate(-5.31)"/><path d="M529.14,434.7c-37.55,0-72.42-4.33-101.19-12.74-41.49-12.13-65.51-31.45-67.64-54.39s17.92-46.34,56.46-65.91C454.61,282.45,506,269,561.45,263.88s108.43-1.43,149.16,10.48c41.48,12.13,65.5,31.44,67.63,54.38s-17.92,46.35-56.46,65.92c-37.83,19.21-89.21,32.62-144.67,37.78C560.82,434,544.75,434.7,529.14,434.7Zm80.3-168.08c-15.46,0-31.38.74-47.53,2.24C507.06,274,456.32,287.19,419,306.12c-36.58,18.57-55.67,40.24-53.74,61s24.68,38.53,64.06,50.05c40.14,11.74,92.45,15.4,147.29,10.3s105.59-18.33,142.88-37.26c36.59-18.58,55.67-40.24,53.75-61s-24.68-38.52-64.07-50C680.88,270.88,646.5,266.62,609.44,266.62Z"/><path d="M468.33,328.81v6.12h-.18a7,7,0,0,1-3.78-.9,5.33,5.33,0,0,1-2.08-2.64,16.66,16.66,0,0,1-.94-4.49l-1.33-14,4.35-3.34a1.21,1.21,0,0,1,.69-.26c.41,0,.61.29.61.87s-.14,3.32-.43,8.67l-.36,7.24a2.69,2.69,0,0,0,.59,2.16,3.72,3.72,0,0,0,2.47.61Z"/><path d="M490.15,328.81v6.12h-.29a5.3,5.3,0,0,1-3.72-1.19,5.56,5.56,0,0,1-1.53-3.85l-2.13,1c-1.94.89-3.59,1.6-4.93,2.13a33.42,33.42,0,0,1-4.45,1.37,21.39,21.39,0,0,1-4.91.57H468v-6.12h.18a35.18,35.18,0,0,0,6.61-.52,50.48,50.48,0,0,0,5.63-1.46c1-.31,1.92-.56,2.66-.75l-.79-.18q-3.09-.72-5-1.08a16.66,16.66,0,0,0-3-.36,4.24,4.24,0,0,0-1.35.18,2.37,2.37,0,0,0-.77.39c-.17.15-.44.41-.8.79a.85.85,0,0,1-.64.29,1,1,0,0,1-.74-.32.91.91,0,0,1-.24-.79c.58-3.7,2.16-5.75,4.76-6.16a5.63,5.63,0,0,1,.82-.07,10.51,10.51,0,0,1,2.94.47c1.09.31,2.44.75,4,1.33s2.64.9,3.4,1.13a17.56,17.56,0,0,0,2.21.52c.44.08.65.27.65.58a2.67,2.67,0,0,1-.11.5l-1.15,4.43,0,.36a.58.58,0,0,0,.36.54,3.74,3.74,0,0,0,1.44.18Zm-15.55,10.3a.65.65,0,0,1,.25-.43l2.09-2.13c.17-.17.3-.25.39-.25a.57.57,0,0,1,.4.25l2.16,2.13c.19.19.29.33.29.43s-.1.24-.29.43l-2.09,2.12a.55.55,0,0,1-.36.22.56.56,0,0,1-.39-.22l-2.2-2.12A.58.58,0,0,1,474.6,339.11Z"/><path d="M501.2,328.81v6.12h-.14a6.69,6.69,0,0,1-3.22-.65,4.8,4.8,0,0,1-2-2.08,4.82,4.82,0,0,1-2.12,1.94,8,8,0,0,1-3.74.79h-.15v-6.12H490a11,11,0,0,0,4.57-.65l-.69-3.2,2.74-2.3a.41.41,0,0,1,.29-.15c.16,0,.27.11.32.33l.61,3.63a8.94,8.94,0,0,0,.4,1.46,1.32,1.32,0,0,0,.81.65,6.43,6.43,0,0,0,2,.23Zm-10.44-11.09a.73.73,0,0,1,.25-.43l2.09-2.12c.17-.17.3-.25.4-.25a.55.55,0,0,1,.39.25l2.16,2.12c.2.19.29.34.29.43s-.09.24-.29.44L494,320.28a.66.66,0,0,1-.36.22.62.62,0,0,1-.4-.22l-2.2-2.12A.63.63,0,0,1,490.76,317.72Z"/><path d="M498.93,339.68a.61.61,0,0,1,.22-.39l1.91-2a.57.57,0,0,1,.36-.21.49.49,0,0,1,.36.21l1.94,2c.19.14.29.27.29.39s-.1.21-.29.4L501.85,342c-.14.14-.25.21-.32.21a.57.57,0,0,1-.36-.21l-2-1.91A.62.62,0,0,1,498.93,339.68ZM510,322.49a21.55,21.55,0,0,1,.54,4.67,14.11,14.11,0,0,1-.18,2.12q-1.05,5.66-9.29,5.65H501l0-6.12h.15c1.77,0,3.19-.05,4.26-.16a5.93,5.93,0,0,0,2.54-.74q-1.29-2.27-3.27-5.33l3.13-3.34a1.05,1.05,0,0,1,.65-.4.64.64,0,0,1,.54.4A11.08,11.08,0,0,1,510,322.49Zm-5.73,17.19a.56.56,0,0,1,.22-.39l1.91-2a.57.57,0,0,1,.36-.21.49.49,0,0,1,.36.21l1.94,2c.19.14.29.27.29.39s-.1.21-.29.4L507.18,342c-.15.14-.25.21-.33.21a.63.63,0,0,1-.36-.21l-2-1.91A.58.58,0,0,1,504.26,339.68Z"/><path d="M518.16,309.26c.43,0,.65.29.65.87,0,2.23-.08,5.78-.22,10.64a104.14,104.14,0,0,1-.68,10.53,38.31,38.31,0,0,1-1.37,4.35,1,1,0,0,1-.34.51.77.77,0,0,1-.45.18.57.57,0,0,1-.44-.22,1.11,1.11,0,0,1-.21-.65q-.18-2.73-.83-9.57-.9-10-1.12-13l4.36-3.34A1,1,0,0,1,518.16,309.26Z"/><path d="M535.24,328.45a23.49,23.49,0,0,1,.81,6.09c0,.33,0,.81-.07,1.44a9.28,9.28,0,0,1-1.93,5,12.47,12.47,0,0,1-3.71,3.28,7.14,7.14,0,0,1-3.15,1.13,5.69,5.69,0,0,1-2.46-1.13,18,18,0,0,1-2.94-2.32.64.64,0,0,1-.21-.43.52.52,0,0,1,.21-.4,1.12,1.12,0,0,1,.58-.22,24.15,24.15,0,0,0,4.91-1.2,20.63,20.63,0,0,0,3.93-1.87,6.81,6.81,0,0,0,2.14-1.93q-1.3-3.09-4-8.53l3.13-3.35c.29-.29.51-.43.68-.43s.35.15.54.47A19.52,19.52,0,0,1,535.24,328.45Z"/><path d="M539.85,333.06A8.15,8.15,0,0,1,538.6,328a1.18,1.18,0,0,1,.29-.73.79.79,0,0,1,1.1-.09,1,1,0,0,1,.34.5,1.9,1.9,0,0,0,1.39,1.1,15.77,15.77,0,0,0,4,.34,24,24,0,0,0,3.6-.22c1-.14,1.44-.48,1.44-1s-.39-1-1.17-1.79a21.55,21.55,0,0,0-3.09-2.39,33,33,0,0,0-4.09-2.27c-.38-.17-.58-.39-.58-.68a1.23,1.23,0,0,1,.11-.47l1.84-3.46a1.19,1.19,0,0,1,1.08-.75,6.22,6.22,0,0,1,2.93,1.53,15.43,15.43,0,0,1,3.64,4,9.34,9.34,0,0,1,1.6,5.22,9.78,9.78,0,0,1-1.62,6q-1.9,2.42-6,2.42C542.66,335.26,540.79,334.52,539.85,333.06Z"/><path d="M584,328.81v6.12h-.15a7.13,7.13,0,0,1-3.56-.79c0,.55-.11,1.49-.25,2.81a10.08,10.08,0,0,1-1.44,4.26,8.88,8.88,0,0,1-3.24,3.08,9.56,9.56,0,0,1-4.76,1.15q-5,0-7.34-2.52a9.3,9.3,0,0,1-2.3-6.55,19.7,19.7,0,0,1,1.54-7.34,1.2,1.2,0,0,1,.4-.54.92.92,0,0,1,.54-.18.73.73,0,0,1,.54.21.87.87,0,0,1,.22.62l-.08.43a15.1,15.1,0,0,0-.83,4.46,4.8,4.8,0,0,0,1.68,3.91q1.66,1.38,5.63,1.38a11.75,11.75,0,0,0,4.56-.73,5.47,5.47,0,0,0,2.36-1.68q-.59-6.12-.73-8.35c0-.65-.21-2.5-.48-5.54s-.64-6.44-1.1-10.16l4.39-3.34a1.19,1.19,0,0,1,.69-.29c.41,0,.61.3.61.9-.05,6.57-.15,12-.29,16.23a3.94,3.94,0,0,0,.24,1.59,1.27,1.27,0,0,0,.86.68,7.58,7.58,0,0,0,1.93.18Z"/><path d="M612.15,328.81v6.12h-2.63a19.15,19.15,0,0,1-5.14-.5,17.77,17.77,0,0,1-6.3,1.11,13.67,13.67,0,0,1-5.32-1,6.51,6.51,0,0,1-3.4-3,7.89,7.89,0,0,1-2.53,2.52,5.78,5.78,0,0,1-2.94.86h-.32v-6.12h.32a5.09,5.09,0,0,0,3.22-1,7,7,0,0,0,2-2.36,22.14,22.14,0,0,0,1.32-3.24,1.23,1.23,0,0,1,.39-.59.86.86,0,0,1,1.16.05,1,1,0,0,1,.25.69,2,2,0,0,1-.08.43,9.22,9.22,0,0,0-.46,2.77,4.28,4.28,0,0,0,.41,1.95,2.41,2.41,0,0,0,1.31,1.18,52,52,0,0,1,3-4.37,17.08,17.08,0,0,1,3.67-3.44,8.05,8.05,0,0,1,4.72-1.55,5.68,5.68,0,0,1,4.57,1.75,6.54,6.54,0,0,1,1.47,4.37,10.67,10.67,0,0,1-.57,3.35Zm-12.35,1.33a14.38,14.38,0,0,0,4-.54,10.74,10.74,0,0,0,3.16-1.42,4.12,4.12,0,0,0,1.64-1.89,3.39,3.39,0,0,0-1.38-1,6.25,6.25,0,0,0-2.58-.48,10.8,10.8,0,0,0-9.11,4.68A13.88,13.88,0,0,0,599.8,330.14Z"/><path d="M624.5,317q1.62,3.25,1.62,9.19,0,5.4-4,7a22.62,22.62,0,0,1-8.08,1.71h-2.16v-6.12h1.83a44.54,44.54,0,0,0,7.58-.48q2.58-.49,2.79-2.07a7.25,7.25,0,0,1-4.14,1.15,6.86,6.86,0,0,1-4.27-1.28A5,5,0,0,1,614,321.9a12.27,12.27,0,0,1,.61-3.83,7.45,7.45,0,0,1,1.89-3.12,4.39,4.39,0,0,1,3.15-1.22A5.2,5.2,0,0,1,624.5,317Zm-4.32,4.91a9,9,0,0,0,3.09-.43,4.35,4.35,0,0,0-2-2.14,5.26,5.26,0,0,0-2.36-.6,3,3,0,0,0-1.76.56,2.46,2.46,0,0,0-1,1.31C616.71,321.47,618,321.9,620.18,321.9Zm-3.53-12.78a.68.68,0,0,1,.25-.43l2.09-2.13c.17-.16.3-.25.4-.25a.59.59,0,0,1,.39.25l2.16,2.13c.19.19.29.33.29.43s-.1.24-.29.43l-2.09,2.13a.57.57,0,0,1-.36.21.59.59,0,0,1-.39-.21l-2.2-2.13A.58.58,0,0,1,616.65,309.12Z"/><path d="M645.34,328.81v6.12h-.14a4.58,4.58,0,0,1-1.84-.36c0,.31,0,.78-.07,1.41a9.28,9.28,0,0,1-1.93,5,12.44,12.44,0,0,1-3.7,3.28,7.22,7.22,0,0,1-3.15,1.13,5.71,5.71,0,0,1-2.47-1.13,18.38,18.38,0,0,1-2.93-2.32.62.62,0,0,1-.22-.43.5.5,0,0,1,.22-.4,1.05,1.05,0,0,1,.57-.22,24.24,24.24,0,0,0,4.92-1.2,20.81,20.81,0,0,0,3.92-1.87,6.7,6.7,0,0,0,2.14-1.93q-1.29-3.09-4-8.53l3.13-3.35a1.18,1.18,0,0,1,.69-.43c.16,0,.34.15.54.47a5.41,5.41,0,0,1,.5,1.08l0,.07.43,1a13.46,13.46,0,0,0,.84,1.73,1.76,1.76,0,0,0,.78.66,3.84,3.84,0,0,0,1.47.2Z"/><path d="M657.55,328.81v6.12h-.18a6.55,6.55,0,0,1-3.3-.7,4.87,4.87,0,0,1-1.92-2.29,7.41,7.41,0,0,1-2.81,2.07,9.49,9.49,0,0,1-4.14.92h-.15v-6.12h.15a25.79,25.79,0,0,0,3.36-.21,6.86,6.86,0,0,0,2.36-.65l-.32-1.59-.33-1.51,2.6-2.19a.39.39,0,0,1,.28-.15q.26,0,.33.33l.54,3.63a2.82,2.82,0,0,0,.86,1.84,4.37,4.37,0,0,0,2.49.5Zm-12.28-10.87a.6.6,0,0,1,.22-.4l1.9-1.94a.66.66,0,0,1,.36-.22.51.51,0,0,1,.36.22l1.95,1.94c.19.15.29.28.29.4s-.1.2-.29.4l-1.87,1.9c-.15.15-.26.22-.33.22a.6.6,0,0,1-.36-.22l-2-1.9A.6.6,0,0,1,645.27,317.94Zm5.33,0a.63.63,0,0,1,.21-.4l1.91-1.94a.66.66,0,0,1,.36-.22.51.51,0,0,1,.36.22l1.95,1.94c.19.15.28.28.28.4s-.09.2-.28.4l-1.88,1.9c-.14.15-.25.22-.32.22a.55.55,0,0,1-.36-.22l-2-1.9A.63.63,0,0,1,650.6,317.94Z"/><path d="M654.92,339.68a.59.59,0,0,1,.21-.39l1.91-2a.63.63,0,0,1,.36-.21.49.49,0,0,1,.36.21l2,2c.19.14.28.27.28.39s-.09.21-.28.4L657.83,342c-.14.14-.25.21-.32.21a.57.57,0,0,1-.36-.21l-2-1.91A.6.6,0,0,1,654.92,339.68Zm14.79-10.87v6.12h-.18a6.51,6.51,0,0,1-3.29-.7,4.88,4.88,0,0,1-1.93-2.29,7.29,7.29,0,0,1-2.8,2.07,9.49,9.49,0,0,1-4.14.92h-.15v-6.12h.15a25.9,25.9,0,0,0,3.36-.21,6.86,6.86,0,0,0,2.36-.65l-.32-1.59-.33-1.51,2.59-2.19a.43.43,0,0,1,.29-.15q.25,0,.33.33l.54,3.63a2.82,2.82,0,0,0,.86,1.84,4.35,4.35,0,0,0,2.48.5Zm-9.46,10.87a.59.59,0,0,1,.21-.39l1.91-2a.57.57,0,0,1,.36-.21.49.49,0,0,1,.36.21l1.94,2c.2.14.29.27.29.39s-.09.21-.29.4L663.16,342c-.14.14-.25.21-.32.21a.57.57,0,0,1-.36-.21l-2-1.91A.6.6,0,0,1,660.25,339.68Z"/><path d="M678.46,322.49a21.55,21.55,0,0,1,.54,4.67,12.91,12.91,0,0,1-.18,2.12q-1,5.66-9.29,5.65h-.1l0-6.12h.14c1.78,0,3.2-.05,4.27-.16a6,6,0,0,0,2.54-.74q-1.3-2.27-3.28-5.33l3.13-3.34c.27-.27.48-.4.65-.4a.61.61,0,0,1,.54.4A11.08,11.08,0,0,1,678.46,322.49Zm-8.89-7.83a.56.56,0,0,1,.22-.39l1.9-1.95a.63.63,0,0,1,.36-.21.49.49,0,0,1,.36.21l2,1.95c.19.14.29.27.29.39s-.1.21-.29.4L672.49,317q-.22.21-.33.21a.63.63,0,0,1-.36-.21l-2-1.91A.58.58,0,0,1,669.57,314.66Zm5.33,0a.59.59,0,0,1,.21-.39l1.91-1.95a.63.63,0,0,1,.36-.21.49.49,0,0,1,.36.21l2,1.95c.19.14.28.27.28.39s-.09.21-.28.4L677.81,317c-.14.14-.25.21-.32.21a.57.57,0,0,1-.36-.21l-2-1.91A.6.6,0,0,1,674.9,314.66Z"/><path d="M499.46,376.26a8.15,8.15,0,0,1-1.25-5.08,1.18,1.18,0,0,1,.29-.73.79.79,0,0,1,1.1-.09,1,1,0,0,1,.34.5,1.9,1.9,0,0,0,1.39,1.1,15.77,15.77,0,0,0,4,.34,24,24,0,0,0,3.6-.22c1-.14,1.44-.48,1.44-1s-.39-1-1.17-1.79a21.55,21.55,0,0,0-3.09-2.39,33,33,0,0,0-4.09-2.27c-.38-.17-.58-.39-.58-.68a1.23,1.23,0,0,1,.11-.47L503.4,360a1.19,1.19,0,0,1,1.08-.75,6.22,6.22,0,0,1,2.93,1.53,15.43,15.43,0,0,1,3.64,4,9.34,9.34,0,0,1,1.6,5.22,9.78,9.78,0,0,1-1.62,6q-1.9,2.41-6,2.42C502.27,378.46,500.4,377.72,499.46,376.26Z"/><path d="M524.71,372v6.12h-.14a4.54,4.54,0,0,1-1.84-.36c0,.31,0,.78-.07,1.41a9.28,9.28,0,0,1-1.93,5.05,12.35,12.35,0,0,1-3.71,3.28,7.14,7.14,0,0,1-3.15,1.13,5.69,5.69,0,0,1-2.46-1.13,18.49,18.49,0,0,1-2.94-2.32.64.64,0,0,1-.21-.43.52.52,0,0,1,.21-.4,1.12,1.12,0,0,1,.58-.22,24,24,0,0,0,4.91-1.2,20.63,20.63,0,0,0,3.93-1.87,6.7,6.7,0,0,0,2.14-1.93q-1.29-3.09-4-8.53l3.13-3.35c.29-.29.52-.43.68-.43s.35.15.54.47a5.42,5.42,0,0,1,.51,1.08l0,.07.44,1a13.46,13.46,0,0,0,.84,1.73,1.71,1.71,0,0,0,.78.66,3.84,3.84,0,0,0,1.47.2Z"/><path d="M536.91,372v6.12h-.18a6.51,6.51,0,0,1-3.29-.7,4.83,4.83,0,0,1-1.93-2.29,7.29,7.29,0,0,1-2.8,2.07,9.49,9.49,0,0,1-4.14.92h-.15V372h.15a25.9,25.9,0,0,0,3.36-.21,6.86,6.86,0,0,0,2.36-.65l-.32-1.59-.33-1.51,2.59-2.19a.43.43,0,0,1,.29-.15q.26,0,.33.33l.54,3.63a2.82,2.82,0,0,0,.86,1.84,4.35,4.35,0,0,0,2.48.5Zm-12.2,10.91a.6.6,0,0,1,.22-.4l1.9-1.94a.66.66,0,0,1,.36-.22.51.51,0,0,1,.36.22l2,1.94c.19.15.29.28.29.4s-.1.2-.29.4l-1.87,1.9c-.15.15-.26.22-.33.22a.6.6,0,0,1-.36-.22l-2-1.9A.6.6,0,0,1,524.71,382.92Zm5.33,0a.63.63,0,0,1,.21-.4l1.91-1.94a.66.66,0,0,1,.36-.22.51.51,0,0,1,.36.22l2,1.94c.19.15.28.28.28.4s-.09.2-.28.4l-1.88,1.9c-.14.15-.25.22-.32.22a.55.55,0,0,1-.36-.22l-2-1.9A.63.63,0,0,1,530,382.92Z"/><path d="M552.14,353.08a.67.67,0,0,1,.51.19.77.77,0,0,1,.18.53,1,1,0,0,1,0,.28l-.94,4.65-8.53,3.42a21.72,21.72,0,0,1,3,4.41,10.09,10.09,0,0,1,1.28,4.7,5.77,5.77,0,0,1-.47,2.37,6.21,6.21,0,0,1-3.6,3.57,18.4,18.4,0,0,1-6.37.93h-.61V372h.72a48.58,48.58,0,0,0,5.13-.23c1.38-.16,2.24-.54,2.57-1.14a10.3,10.3,0,0,0-2.77-3.29,49.56,49.56,0,0,0-4.35-3.29l.72-5.22,12.92-5.62A1.3,1.3,0,0,1,552.14,353.08Zm-13,1.76,11.2-4.86a.89.89,0,0,1,.39-.11q.4,0,.33.54l-.25,2-12.1,5.33Z"/><path d="M573.74,379.48a2.83,2.83,0,0,1,.36,1.42,6,6,0,0,1-1.26,3.28,10.38,10.38,0,0,1-3.67,3.15,11.76,11.76,0,0,1-5.72,1.31q-5.06,0-7.33-2.52a9.34,9.34,0,0,1-2.29-6.55,19.13,19.13,0,0,1,1.55-7.34,1.2,1.2,0,0,1,.4-.54.83.83,0,0,1,.5-.18.79.79,0,0,1,.56.23.85.85,0,0,1,.23.63,1.82,1.82,0,0,1-.07.4,16.93,16.93,0,0,0-.83,4.5,4.77,4.77,0,0,0,1.66,3.87q1.65,1.38,5.62,1.38a18.07,18.07,0,0,0,4.39-.54,10.34,10.34,0,0,0,3.31-1.33q-1.67-1.8-7.27-4l1.26-4.9a1.32,1.32,0,0,1,.3-.63.72.72,0,0,1,.52-.2,1.45,1.45,0,0,1,.4,0,38.87,38.87,0,0,0,4.52.86,28.5,28.5,0,0,0,3,.18v6.12h-.36a4.66,4.66,0,0,1-.91-.11A8.66,8.66,0,0,1,573.74,379.48Z"/><path d="M589.09,366.52a9.31,9.31,0,0,1,1.1,4.66,13.24,13.24,0,0,1-.14,2,8.79,8.79,0,0,1-1.23,3.65,3.57,3.57,0,0,1-2.3,1.64,6.12,6.12,0,0,1-1.44.15,8.72,8.72,0,0,1-3.53-.8,11.47,11.47,0,0,1-3.34-2.26,5.81,5.81,0,0,1-1.91,2.05,4.75,4.75,0,0,1-2.24.5h-.25V372h.58a4.91,4.91,0,0,0,1.89-.3,3.16,3.16,0,0,0,1.22-1,16.7,16.7,0,0,0,1.35-2.14q2.6-4.57,5.8-4.57a3.94,3.94,0,0,1,.9.07A4.85,4.85,0,0,1,589.09,366.52Zm-6.12,6.1a8.8,8.8,0,0,0,3.3.69A3.5,3.5,0,0,0,588,373a4,4,0,0,0-.65-1.8,4.91,4.91,0,0,0-1.54-1.57,4,4,0,0,0-2.2-.63,4,4,0,0,0-1.89.47,3.1,3.1,0,0,0-1.35,1.4A5.87,5.87,0,0,0,583,372.62Z"/><path d="M605.94,371.65a23.49,23.49,0,0,1,.81,6.09c0,.33,0,.81-.07,1.44a9.28,9.28,0,0,1-1.93,5.05,12.44,12.44,0,0,1-3.7,3.28,7.22,7.22,0,0,1-3.15,1.13,5.71,5.71,0,0,1-2.47-1.13,18.38,18.38,0,0,1-2.93-2.32.62.62,0,0,1-.22-.43.5.5,0,0,1,.22-.4,1.05,1.05,0,0,1,.57-.22,24.24,24.24,0,0,0,4.92-1.2,20.81,20.81,0,0,0,3.92-1.87,6.7,6.7,0,0,0,2.14-1.93q-1.29-3.09-4-8.53l3.13-3.35a1.18,1.18,0,0,1,.69-.43c.16,0,.34.15.54.47A20.14,20.14,0,0,1,605.94,371.65Z"/><path d="M614.28,352.46c.43,0,.64.29.64.87q0,3.35-.21,10.64T614,374.5a35.6,35.6,0,0,1-1.36,4.35,1.11,1.11,0,0,1-.35.51.72.72,0,0,1-.45.18.57.57,0,0,1-.43-.22,1.11,1.11,0,0,1-.21-.65q-.18-2.73-.83-9.57-.9-10-1.12-13l4.36-3.34A1,1,0,0,1,614.28,352.46Z"/><path d="M627,372v6.12h-.15a4.53,4.53,0,0,1-1.83-.36c0,.31,0,.78-.07,1.41a9.28,9.28,0,0,1-1.93,5.05,12.47,12.47,0,0,1-3.71,3.28,7.14,7.14,0,0,1-3.15,1.13,5.69,5.69,0,0,1-2.46-1.13,18,18,0,0,1-2.94-2.32.64.64,0,0,1-.21-.43.52.52,0,0,1,.21-.4,1.12,1.12,0,0,1,.58-.22,24.15,24.15,0,0,0,4.91-1.2,20.63,20.63,0,0,0,3.93-1.87,6.81,6.81,0,0,0,2.14-1.93q-1.31-3.09-4-8.53l3.13-3.35c.29-.29.51-.43.68-.43s.35.15.54.47a6,6,0,0,1,.51,1.08l0,.07.43,1a13.14,13.14,0,0,0,.85,1.73,1.68,1.68,0,0,0,.77.66,3.93,3.93,0,0,0,1.48.2Z"/><path d="M639.33,360.19q1.62,3.26,1.62,9.19,0,5.4-4.05,7a22.57,22.57,0,0,1-8.08,1.71h-2.16V372h1.84a44.41,44.41,0,0,0,7.57-.48q2.58-.5,2.79-2.07a7.25,7.25,0,0,1-4.14,1.15,6.83,6.83,0,0,1-4.26-1.28,5,5,0,0,1-1.68-4.23,12.28,12.28,0,0,1,.62-3.83,7.25,7.25,0,0,1,1.89-3.12,4.39,4.39,0,0,1,3.15-1.22A5.2,5.2,0,0,1,639.33,360.19Zm-9.93-6.86a.63.63,0,0,1,.21-.4l1.91-1.94a.55.55,0,0,1,.36-.22.48.48,0,0,1,.36.22l1.94,1.94c.2.15.29.28.29.4s-.09.2-.29.39l-1.87,1.91c-.14.15-.25.22-.32.22a.55.55,0,0,1-.36-.22l-2-1.91A.59.59,0,0,1,629.4,353.33ZM635,365.1a9,9,0,0,0,3.1-.43,4.44,4.44,0,0,0-2-2.14,5.33,5.33,0,0,0-2.36-.6,3,3,0,0,0-1.77.56,2.51,2.51,0,0,0-1,1.31C631.54,364.67,632.87,365.1,635,365.1Zm-.29-11.77a.6.6,0,0,1,.22-.4l1.91-1.94a.55.55,0,0,1,.36-.22.48.48,0,0,1,.36.22l1.94,1.94c.19.15.29.28.29.4s-.1.2-.29.39l-1.87,1.91c-.14.15-.25.22-.33.22a.56.56,0,0,1-.35-.22l-2-1.91A.56.56,0,0,1,634.72,353.33Z"/><path d="M648,242.05a4,4,0,0,1-1.22-3.16,28.43,28.43,0,0,1,.46-3.4l.5-3.22,2,.44a53.86,53.86,0,0,0-.78,5.68,1.11,1.11,0,0,0,.9,1.08,6.73,6.73,0,0,0,2.12.3,16.4,16.4,0,0,0,2.38-.16,6.21,6.21,0,0,0,1.78-.54l-.66-15.48,2.64-.44.3,16.58a2.22,2.22,0,0,1-1.05,1.94,7.19,7.19,0,0,1-2.59,1.1,13.25,13.25,0,0,1-2.8.34A6.16,6.16,0,0,1,648,242.05Z"/><path d="M666.54,231.09a4.85,4.85,0,0,1,1.27,2.11,9.06,9.06,0,0,1,.44,2.93,8.75,8.75,0,0,1-1.48,5,10.14,10.14,0,0,1-4.86,3.59l-1.74-2.54a12.35,12.35,0,0,0,3.25-1.69,8.68,8.68,0,0,0,2.15-2.13,14.17,14.17,0,0,1-1.6.1,10.38,10.38,0,0,1-1.32-.07,1.82,1.82,0,0,1-.74-.28,3.2,3.2,0,0,1-.64-.67,4.33,4.33,0,0,1-.45-.78,2.57,2.57,0,0,1-.11-.82,8.41,8.41,0,0,1,.42-2.71,4.5,4.5,0,0,1,1.28-2,3.12,3.12,0,0,1,2.14-.76A2.79,2.79,0,0,1,666.54,231.09Zm-2.07,4.58a8.31,8.31,0,0,0,1.58-.12,3.13,3.13,0,0,0-.46-1.87,1.43,1.43,0,0,0-1.22-.63,1.25,1.25,0,0,0-1.1.65,3.35,3.35,0,0,0-.42,1.83A11.81,11.81,0,0,0,664.47,235.67Z"/><path d="M670.45,223.59l2.64-.44,0,15.26-2.2.28Z"/><path d="M692.13,235.32a2.32,2.32,0,0,1,.06.55v1.74a2.34,2.34,0,0,1-.06.56q-.06.24-.12.24h-.52a2.89,2.89,0,0,1-2.34-1.06l0,2.38a2.22,2.22,0,0,1-1.05,1.94,7.19,7.19,0,0,1-2.59,1.1,13.25,13.25,0,0,1-2.8.34,6.16,6.16,0,0,1-4-1.06,4,4,0,0,1-1.22-3.16,28.43,28.43,0,0,1,.46-3.4l.5-3.22,2,.44a53.86,53.86,0,0,0-.78,5.68,1.11,1.11,0,0,0,.9,1.08,6.73,6.73,0,0,0,2.12.3,16.4,16.4,0,0,0,2.38-.16,6.21,6.21,0,0,0,1.78-.54l-.66-15.48,2.64-.44.2,10.7a1.65,1.65,0,0,0,.39.84,1.18,1.18,0,0,0,.6.32,5,5,0,0,0,.85.06H692S692.09,235.15,692.13,235.32Z"/><path d="M711,235.31a2.33,2.33,0,0,1,0,.56v1.74a2.42,2.42,0,0,1,0,.57c0,.15-.07.23-.13.23a5.82,5.82,0,0,1-2.13-.32,2.7,2.7,0,0,1-1.25-1.1,7.15,7.15,0,0,1-2.55,1.06,16.21,16.21,0,0,1-3.61.36q-3.84,0-5.4-1.4a3.15,3.15,0,0,1-1.65,1.08,8,8,0,0,1-2.27.32s-.09-.08-.13-.23a3.1,3.1,0,0,1,0-.57v-1.74a3,3,0,0,1,0-.56c0-.16.08-.24.13-.24q1,0,1.53-.06a3.53,3.53,0,0,0,1.05-.28l-.08-3.44h2.3l-.1,3.24a1.62,1.62,0,0,0,.36.15l.48.09a19.63,19.63,0,0,1,1.8-2.5,14.22,14.22,0,0,1,2.55-2.42,4.58,4.58,0,0,1,2.71-1,3.86,3.86,0,0,1,3.21,1.33,6.1,6.1,0,0,1,1.07,3.93,4.13,4.13,0,0,1,0,.56,1.41,1.41,0,0,0,.65.33,6.34,6.34,0,0,0,1.35.11C710.93,235.07,711,235.15,711,235.31Zm-7.09-.38a17,17,0,0,0,2.68-.54,3.46,3.46,0,0,0-.5-2.06,1.61,1.61,0,0,0-1.4-.7,4,4,0,0,0-2.25.91,14.14,14.14,0,0,0-2.59,2.49c.43,0,.84,0,1.24,0A27.14,27.14,0,0,0,703.91,234.93Z"/><path d="M719.17,234.81a5.3,5.3,0,0,1-.51,1.86,2.59,2.59,0,0,1-1.07,1.08,4.09,4.09,0,0,1-1.26.45,14.51,14.51,0,0,1-1.85.17c-.76,0-2,0-3.61,0,0,0-.09-.08-.13-.23a3.1,3.1,0,0,1,0-.57v-1.74a3,3,0,0,1,0-.56c0-.16.08-.24.13-.24,2.18,0,3.66,0,4.46,0a8.09,8.09,0,0,0,1.64-.15l.08-1A12.5,12.5,0,0,1,715,234a10.14,10.14,0,0,1-1.3-.07,1.92,1.92,0,0,1-.75-.28,3,3,0,0,1-.63-.67,4,4,0,0,1-.45-.77,2.69,2.69,0,0,1-.11-.83,8.7,8.7,0,0,1,.41-2.71,4.49,4.49,0,0,1,1.27-2,3.12,3.12,0,0,1,2.14-.76,2.83,2.83,0,0,1,2,.78,4.87,4.87,0,0,1,1.28,2.11,9.06,9.06,0,0,1,.44,2.93A22.42,22.42,0,0,1,719.17,234.81ZM715,220.13l2.24,1.8L715.49,224l-2.24-1.8Zm.52,11.14a8.31,8.31,0,0,0,1.58-.12,3.13,3.13,0,0,0-.46-1.87,1.43,1.43,0,0,0-1.22-.63,1.25,1.25,0,0,0-1.08.64,3.34,3.34,0,0,0-.42,1.84A11.68,11.68,0,0,0,715.49,231.27Z"/></svg>