<svg id="Background" xmlns="http://www.w3.org/2000/svg" viewBox="0 0 648 648"><defs><style>.cls-1{fill:#fde9e1;}.cls-2{fill:#ff5c35;}.cls-3{fill:#007a57;}.cls-4{fill:#22346d;}.cls-5{fill:#c4a055;}.cls-6{fill:#961e2f;}.cls-7{fill:#2e87cc;}</style></defs><rect class="cls-1" width="648" height="648"/><path class="cls-2" d="M324,90.72v94.53A138.75,138.75,0,1,1,270.21,452l-36.63,87.13A232.58,232.58,0,0,0,324,557.28c128.84,0,233.28-104.44,233.28-233.28S452.84,90.72,324,90.72Z"/><path class="cls-3" d="M270.21,452l-36.63,87.13a234.09,234.09,0,0,1-122.5-119.66l86.25-38.67A139.77,139.77,0,0,0,270.21,452Z"/><path class="cls-4" d="M197.33,380.78l-86.25,38.67A234.37,234.37,0,0,1,95.56,276.52l92.55,19.24A140.11,140.11,0,0,0,185.25,324,138.17,138.17,0,0,0,197.33,380.78Z"/><path class="cls-5" d="M203.41,255.25a137.09,137.09,0,0,0-15.3,40.51L95.56,276.52a231.57,231.57,0,0,1,25.75-68.09Z"/><path class="cls-6" d="M217.71,234.79a138.66,138.66,0,0,0-14.3,20.46l-82.1-46.82a234.58,234.58,0,0,1,24-34.41Z"/><path class="cls-7" d="M188.13,134.35A234.87,234.87,0,0,0,145.32,174l72.39,60.77q3.87-4.59,8.18-8.9a140.26,140.26,0,0,1,17.28-14.7A137.71,137.71,0,0,1,324,185.25V90.72A232.23,232.23,0,0,0,188.13,134.35Z"/></svg>