<svg xmlns="http://www.w3.org/2000/svg" xmlns:xlink="http://www.w3.org/1999/xlink" viewBox="0 0 1152 648"><defs><style>.cls-1{fill:none;}.cls-2{fill:#1d2e72;}.cls-3{fill:#fff;}.cls-4{clip-path:url(#clip-path);}</style><clipPath id="clip-path"><rect class="cls-1" x="1221.36" y="45.36" width="530.64" height="557.28"/></clipPath></defs><g id="Graphic"><rect class="cls-2" width="1152" height="648"/><path class="cls-3" d="M501.1,555.9a1.14,1.14,0,0,1,0,.28v.69a1.14,1.14,0,0,1,0,.28c0,.07,0,.11-.07.11h-.33a2.27,2.27,0,0,1-2.18-1q.09,1.38.09,2.22a1.34,1.34,0,0,1-.66,1.11,4.64,4.64,0,0,1-1.71.72,9.8,9.8,0,0,1-2.19.24,4.31,4.31,0,0,1-2.72-.69,2.56,2.56,0,0,1-.85-2.1,10.25,10.25,0,0,1,.14-1.19l.33-2.14.09-.6.09-.59.93.18a39.07,39.07,0,0,0-.57,4.17,1.17,1.17,0,0,0,.7,1.13,4,4,0,0,0,1.86.36,6,6,0,0,0,3.56-.8l-.53-5.7,1.14-.24.21,2.25a1.18,1.18,0,0,0,.33.77,1.34,1.34,0,0,0,.7.32,8.81,8.81,0,0,0,1.19.07H501S501.08,555.82,501.1,555.9Zm-6.76-6.11,1.12.89-.85,1.06-1.13-.88Z"/><path class="cls-3" d="M506.32,555.9a1.14,1.14,0,0,1,0,.28v.69a1.14,1.14,0,0,1,0,.28c0,.07-.05.11-.07.11a5.09,5.09,0,0,1-1.74-.23,1.31,1.31,0,0,1-.78-.71,1.58,1.58,0,0,1-.93.72,5.66,5.66,0,0,1-1.77.22s-.06,0-.08-.11a1.14,1.14,0,0,1,0-.28v-.69a1.14,1.14,0,0,1,0-.28c0-.08.05-.12.08-.12a7.52,7.52,0,0,0,1.27-.1,2.89,2.89,0,0,0,.93-.35l-.3-3,1.13-.12.19,3.12a3.71,3.71,0,0,0,2,.41S506.29,555.82,506.32,555.9Zm-3.9,3,1,.82-.82,1-1-.83Zm1.94,0,1,.82-.84,1-1-.83Z"/><path class="cls-3" d="M517.93,555.9a1.14,1.14,0,0,1,0,.28v.69a1.14,1.14,0,0,1,0,.28c0,.07,0,.11-.07.11h-.77a2.08,2.08,0,0,1-1-.23,1.35,1.35,0,0,1-.6-.67,1.61,1.61,0,0,1-.83.68,3,3,0,0,1-1.16.22q-1.28,0-1.62-.78a1.2,1.2,0,0,1-.7.6,2.56,2.56,0,0,1-.89.18,2.39,2.39,0,0,1-1-.2,1.32,1.32,0,0,1-.61-.58,1.71,1.71,0,0,1-.95.59,5.09,5.09,0,0,1-1.45.19s-.06,0-.08-.11a1.14,1.14,0,0,1,0-.28v-.69a1.14,1.14,0,0,1,0-.28c0-.08.05-.12.08-.12a7.71,7.71,0,0,0,1.06-.07,2.19,2.19,0,0,0,.8-.29l0-2.36h1.05l-.05,1.88c0,.56.33.84,1,.84a2.5,2.5,0,0,0,1.23-.26l-.09-3,1.05,0,.06,3.08a1.27,1.27,0,0,0,.88.24,2.94,2.94,0,0,0,1.43-.27l-.27-3.65,1.12-.21.18,3a1.25,1.25,0,0,0,.32.9,1.5,1.5,0,0,0,1,.27h.77S517.9,555.82,517.93,555.9Zm-7.42-6.8,1,.81-.79,1-1-.81Zm.91-2,1,.79-.81,1-1-.8Zm1,2,1,.81-.79,1-1-.81Z"/><path class="cls-3" d="M523.15,555.9a1.14,1.14,0,0,1,0,.28v.69a1.14,1.14,0,0,1,0,.28c0,.07,0,.11-.07.11a5.09,5.09,0,0,1-1.74-.23,1.31,1.31,0,0,1-.78-.71,1.58,1.58,0,0,1-.93.72,5.66,5.66,0,0,1-1.77.22s-.06,0-.08-.11a1.14,1.14,0,0,1,0-.28v-.69a1.14,1.14,0,0,1,0-.28c0-.08.05-.12.08-.12a7.52,7.52,0,0,0,1.27-.1,2.89,2.89,0,0,0,.93-.35l-.3-3,1.13-.12.19,3.12a3.71,3.71,0,0,0,2,.41S523.12,555.82,523.15,555.9Zm-3.9,3,1,.82-.82,1-1-.83Zm1.94,0,1,.82-.84,1-1-.83Z"/><path class="cls-3" d="M528.37,555.9a1.14,1.14,0,0,1,0,.28v.69a1.14,1.14,0,0,1,0,.28c0,.07,0,.11-.07.11a5.09,5.09,0,0,1-1.74-.23,1.31,1.31,0,0,1-.78-.71,1.58,1.58,0,0,1-.93.72,5.66,5.66,0,0,1-1.77.22s-.06,0-.08-.11a1.14,1.14,0,0,1,0-.28v-.69a1.14,1.14,0,0,1,0-.28c0-.08,0-.12.08-.12a7.52,7.52,0,0,0,1.27-.1,2.89,2.89,0,0,0,.93-.35l-.3-3,1.13-.12.19,3.12a3.71,3.71,0,0,0,2,.41S528.34,555.82,528.37,555.9Zm-4-7.07,1,.83-.83,1-1-.82Zm1.93,0,1,.83-.84,1-1-.82Z"/><path class="cls-3" d="M532.15,555.31a1.56,1.56,0,0,1-.19.76,1.67,1.67,0,0,1-.59.59,4.83,4.83,0,0,1-1.36.45,9.22,9.22,0,0,1-1.71.15s-.06,0-.08-.11a1.14,1.14,0,0,1,0-.28v-.69a1.14,1.14,0,0,1,0-.28c0-.08,0-.12.08-.12a13.07,13.07,0,0,0,1.63-.1,3.37,3.37,0,0,0,1.22-.4l-.29-3.42,1.14-.21Q532.15,554.2,532.15,555.31Zm-1-7.09,1.13.88-.86,1.07-1.12-.89Z"/><path class="cls-3" d="M534.12,558.67a4.1,4.1,0,0,0,1.27-1.68l-.48-4.17,1.15-.22c.1,1,.18,1.81.24,2.51s.09,1.23.09,1.6a3.8,3.8,0,0,1-1.08,2.55,9.09,9.09,0,0,1-3.22,2.17l-.77-1.12A10.7,10.7,0,0,0,534.12,558.67Zm1-9.66,1.13.89-.86,1.06-1.12-.88Z"/><path class="cls-3" d="M543,555.9a1.14,1.14,0,0,1,0,.28v.69a1.14,1.14,0,0,1,0,.28c0,.07-.05.11-.08.11h-.55a2,2,0,0,1-1.7-.72v.17a4.18,4.18,0,0,1-.93,2.55,8,8,0,0,1-2.71,2.17l-.77-1.12a8.3,8.3,0,0,0,2.28-1.59,4.71,4.71,0,0,0,1.13-1.73l-.48-4.17,1.15-.22.05.46.07.69.09,1c.08.72.65,1.08,1.7,1.08h.67S542.93,555.82,543,555.9Z"/><path class="cls-3" d="M543.32,558.87l1,.81-.8,1-1-.81Zm3.41-3.56a1.57,1.57,0,0,1-.2.76,1.63,1.63,0,0,1-.58.59,4.9,4.9,0,0,1-1.37.45,9.22,9.22,0,0,1-1.71.15s0,0-.07-.11a1.14,1.14,0,0,1,0-.28v-.69a1.14,1.14,0,0,1,0-.28c0-.08,0-.12.07-.12a13.07,13.07,0,0,0,1.63-.1,3.37,3.37,0,0,0,1.22-.4l-.28-3.42,1.14-.21Q546.73,554.2,546.73,555.31Zm-2.43,5.6,1,.81-.79,1-1-.8Zm.91-2,1,.81-.8,1-1-.81Z"/><path class="cls-3" d="M558.39,555.9a1.14,1.14,0,0,1,0,.28v.69a1.14,1.14,0,0,1,0,.28c0,.07,0,.11-.07.11h-.8a4.5,4.5,0,0,1-1.76-.28,2,2,0,0,1-1-.9,5.74,5.74,0,0,1-.58-1.71,10.3,10.3,0,0,0-2.51,1.38,4.58,4.58,0,0,0-1.56,1.89,4.72,4.72,0,0,0-.18,1.2,2.39,2.39,0,0,0,1,2.06,4.79,4.79,0,0,0,2.81.7,9.16,9.16,0,0,0,3-.48l-.2,1.45a7.39,7.39,0,0,1-2.8.51,5.26,5.26,0,0,1-3.54-1.09,3.79,3.79,0,0,1-1.28-3,4.91,4.91,0,0,1,.6-2.31,6.24,6.24,0,0,1,1.83-2.09,9.67,9.67,0,0,1,3.14-1.52,12.68,12.68,0,0,1-1.83-.65l-1.23-.45a2.28,2.28,0,0,0-.71-.13.66.66,0,0,0-.58.26,1.89,1.89,0,0,0-.29.83l-.9-.16a4.26,4.26,0,0,1,.6-1.65,1.32,1.32,0,0,1,1.17-.57,3.31,3.31,0,0,1,1,.18c.38.13.88.33,1.51.6.82.35,1.52.61,2.1.8a5.77,5.77,0,0,0,1.71.28l-.23,1.38a7.89,7.89,0,0,0-1.77.34,2.92,2.92,0,0,0,.44,1.07,1.36,1.36,0,0,0,.69.49,3.83,3.83,0,0,0,1.14.14h1.05S558.36,555.82,558.39,555.9Zm-5.89-8.49,1.12.88-.85,1.07-1.13-.89Z"/><path class="cls-3" d="M558.74,559.06l1,.83-.83,1-1-.82Zm4.38-3.75a1.56,1.56,0,0,1-.2.75,1.58,1.58,0,0,1-.58.6,5,5,0,0,1-1.53.46,18,18,0,0,1-2.49.14s-.06,0-.08-.11a1.14,1.14,0,0,1,0-.28v-.69a1.14,1.14,0,0,1,0-.28c0-.08,0-.12.08-.12,1,0,1.81,0,2.39-.1a3.7,3.7,0,0,0,1.4-.4l-.28-3.42,1.14-.21Q563.12,554.2,563.12,555.31Zm-2.45,3.75,1,.83-.84,1-1-.82Z"/><path class="cls-3" d="M565.07,558.67a4.1,4.1,0,0,0,1.27-1.68l-.48-4.17,1.16-.22c.1,1,.18,1.81.23,2.51s.1,1.23.1,1.6a3.8,3.8,0,0,1-1.08,2.55,9.24,9.24,0,0,1-3.23,2.17l-.76-1.12A10.62,10.62,0,0,0,565.07,558.67Z"/><path class="cls-3" d="M572.64,555.9a1.14,1.14,0,0,1,0,.28v.69a1.14,1.14,0,0,1,0,.28c0,.07,0,.11-.08.11h-.3a3,3,0,0,1-2.15-.67,3.28,3.28,0,0,1-.74-2.27l-.2-7.53,1.17-.19.08,7.71a1.29,1.29,0,0,0,.46,1.11,2,2,0,0,0,1.25.36h.43S572.62,555.82,572.64,555.9Z"/><path class="cls-3" d="M576.42,555.31a1.57,1.57,0,0,1-.2.76,1.63,1.63,0,0,1-.58.59,4.9,4.9,0,0,1-1.37.45,9.22,9.22,0,0,1-1.71.15s0,0-.07-.11a1.14,1.14,0,0,1,0-.28v-.69a1.14,1.14,0,0,1,0-.28c0-.08,0-.12.07-.12a13.07,13.07,0,0,0,1.63-.1,3.37,3.37,0,0,0,1.22-.4l-.28-3.42,1.14-.21Q576.42,554.2,576.42,555.31Zm-1.95-7,1,.82-.83,1-1-.83Zm1.93,0,1,.82-.84,1-1-.83Z"/><path class="cls-3" d="M349.35,255.17v9.18H349a6.32,6.32,0,0,1-2.27-.37c0,.46,0,1.13-.11,2a16.5,16.5,0,0,1-2.16,6.89A13.91,13.91,0,0,1,339,278.1a18,18,0,0,1-8.91,2q-7.62,0-11.07-3.8a14.14,14.14,0,0,1-3.46-9.86,29.13,29.13,0,0,1,2.33-11,1.75,1.75,0,0,1,.59-.81,1.36,1.36,0,0,1,.81-.27,1.13,1.13,0,0,1,.81.32,1.24,1.24,0,0,1,.32.92l-.1.65a21.94,21.94,0,0,0-1.25,6.59,7.3,7.3,0,0,0,2.54,5.91q2.54,2.13,8.48,2.13a20.16,20.16,0,0,0,8.72-1.54c2.11-1,3.39-2.2,3.86-3.53a86,86,0,0,0-6.42-12.8l4.64-5c.43-.44.77-.65,1-.65s.57.23.86.7a25.91,25.91,0,0,1,1.73,3.89,6.5,6.5,0,0,0,1.65,2.54,4.61,4.61,0,0,0,2.78.64ZM326.13,250a1,1,0,0,1,.38-.65l3.13-3.18c.25-.25.45-.38.59-.38a.9.9,0,0,1,.6.38l3.24,3.18c.28.29.43.51.43.65s-.15.36-.43.65l-3.14,3.18a.85.85,0,0,1-.54.33.9.9,0,0,1-.59-.33l-3.29-3.18A.87.87,0,0,1,326.13,250Z"/><path class="cls-3" d="M389.09,255.17v9.18h-.21a5.4,5.4,0,0,1-3.49-1.24,6.65,6.65,0,0,1-2.13-3.83,6.91,6.91,0,0,1-2.73,3.81,6.76,6.76,0,0,1-3.7,1.26h-.1a6.3,6.3,0,0,1-3.7-1.26,6.46,6.46,0,0,1-2.3-3.81,6.63,6.63,0,0,1-2.59,3.83,6.42,6.42,0,0,1-3.62,1.24h-.11a7.32,7.32,0,0,1-4.13-1.08,10.33,10.33,0,0,1-3.16-4,7.34,7.34,0,0,1-3.24,3.75,8.93,8.93,0,0,1-4.53,1.32h-.43v-9.18h.43a10.92,10.92,0,0,0,4.4-.72,5.72,5.72,0,0,0,2.43-2,16.36,16.36,0,0,0,1.65-3.65,2.06,2.06,0,0,1,.62-.92,1.41,1.41,0,0,1,.89-.32,1.29,1.29,0,0,1,.94.41,1.65,1.65,0,0,1,.35,1.53,8.55,8.55,0,0,0-.21,1.89c0,2.53,1.37,3.78,4.1,3.78a5,5,0,0,0,2.78-.62,3.66,3.66,0,0,0,1.41-1.83,25.32,25.32,0,0,0,.94-3.65,2.15,2.15,0,0,1,.57-1.08,1.34,1.34,0,0,1,.94-.38,1.26,1.26,0,0,1,1,.49,1.65,1.65,0,0,1,.35,1.24c-.07.65-.1,1.12-.1,1.41q0,4.42,4.42,4.42a5.18,5.18,0,0,0,2.81-.62,3.54,3.54,0,0,0,1.43-1.83,13.92,13.92,0,0,0,.68-3.38,2,2,0,0,1,.46-1.29,1.25,1.25,0,0,1,.94-.44,1.28,1.28,0,0,1,1,.49,1.79,1.79,0,0,1,.44,1.24,6.92,6.92,0,0,0,1.05,4.46,3.94,3.94,0,0,0,3.27,1.37ZM363.44,240a.87.87,0,0,1,.33-.59l2.64-2.7a.9.9,0,0,1,.54-.33.61.61,0,0,1,.49.33l2.75,2.7a.85.85,0,0,1,.33.54.9.9,0,0,1-.33.54l-2.64,2.7a.58.58,0,0,1-1,0l-2.8-2.7C363.55,240.31,363.44,240.15,363.44,240Zm4.59-5.08a.76.76,0,0,1,.27-.43l2.43-2.48a1.33,1.33,0,0,1,.49-.27c.11,0,.25.09.43.27l2.48,2.43a.62.62,0,0,1,.27.48.6.6,0,0,1-.27.44l-2.53,2.53a.61.61,0,0,1-.35.22.6.6,0,0,1-.36-.22l-2.59-2.53A.75.75,0,0,1,368,234.92Zm3.84,5.08a.86.86,0,0,1,.32-.59l2.65-2.7a.85.85,0,0,1,.54-.33.59.59,0,0,1,.48.33l2.76,2.7a.87.87,0,0,1,.32.54.93.93,0,0,1-.32.54l-2.65,2.7a.57.57,0,0,1-1,0l-2.81-2.7A.69.69,0,0,1,371.87,240Z"/><path class="cls-3" d="M385.2,271.48a.87.87,0,0,1,.33-.59l2.86-2.92a.93.93,0,0,1,.54-.32.75.75,0,0,1,.54.32l2.92,2.92c.28.21.43.41.43.59s-.15.31-.43.6l-2.81,2.86c-.22.21-.38.32-.49.32a.93.93,0,0,1-.54-.32l-3-2.86A.91.91,0,0,1,385.2,271.48Zm22.2-16.31v9.18h-.27a9.83,9.83,0,0,1-4.94-1.05,7.22,7.22,0,0,1-2.89-3.43,11.06,11.06,0,0,1-4.21,3.11,14.37,14.37,0,0,1-6.21,1.37h-.22v-9.18h.22a37,37,0,0,0,5-.32,10.27,10.27,0,0,0,3.54-1L397,251.5l-.49-2.27,3.89-3.29a.64.64,0,0,1,.43-.22c.25,0,.41.17.49.49l.81,5.45a4.17,4.17,0,0,0,1.29,2.76,6.51,6.51,0,0,0,3.73.75Zm-14.2,16.31a.86.86,0,0,1,.32-.59l2.86-2.92a.93.93,0,0,1,.54-.32.75.75,0,0,1,.54.32l2.92,2.92c.29.21.43.41.43.59s-.14.31-.43.6l-2.81,2.86c-.22.21-.38.32-.49.32a.93.93,0,0,1-.54-.32l-3-2.86A.89.89,0,0,1,393.2,271.48Z"/><path class="cls-3" d="M425.65,255.17v9.18h-.27a9.83,9.83,0,0,1-4.94-1.05,7.22,7.22,0,0,1-2.89-3.43,11,11,0,0,1-4.21,3.11,14.37,14.37,0,0,1-6.21,1.37h-.22v-9.18h.22a37.29,37.29,0,0,0,5.05-.32,10.27,10.27,0,0,0,3.53-1l-.48-2.38-.49-2.27,3.89-3.29a.64.64,0,0,1,.43-.22c.25,0,.42.17.49.49l.81,5.45a4.21,4.21,0,0,0,1.29,2.76,6.51,6.51,0,0,0,3.73.75Zm-18.41-16.3a.89.89,0,0,1,.32-.6l2.86-2.91A.9.9,0,0,1,411,235a.73.73,0,0,1,.54.33l2.92,2.91c.29.22.43.42.43.6s-.14.3-.43.59l-2.81,2.86c-.22.22-.38.33-.49.33a.9.9,0,0,1-.54-.33l-3-2.86A.87.87,0,0,1,407.24,238.87Zm8,0a.94.94,0,0,1,.32-.6l2.86-2.91A.9.9,0,0,1,419,235a.73.73,0,0,1,.54.33l2.92,2.91c.29.22.43.42.43.6s-.14.3-.43.59l-2.81,2.86c-.21.22-.38.33-.48.33a.85.85,0,0,1-.54-.33l-3-2.86A.92.92,0,0,1,415.23,238.87Z"/><path class="cls-3" d="M436.94,245.75a33,33,0,0,1,.81,7.05,18.79,18.79,0,0,1-.27,3.08,10.25,10.25,0,0,1-3.6,6q-2.88,2.43-8.07,2.43h-.65v-9.18h.22a34.48,34.48,0,0,0,5.37-.35,6.29,6.29,0,0,0,3-1q-2-3.39-4.91-8l4.69-5a1.66,1.66,0,0,1,1-.59c.29,0,.54.2.76.59A17,17,0,0,1,436.94,245.75Zm-10.53-12.61a1,1,0,0,1,.37-.65l3.14-3.18c.25-.25.45-.38.59-.38a.86.86,0,0,1,.59.38l3.24,3.18c.29.29.44.51.44.65s-.15.36-.44.65L431.21,237a.87.87,0,0,1-.54.32.9.9,0,0,1-.59-.32l-3.3-3.19A.89.89,0,0,1,426.41,233.14Z"/><path class="cls-3" d="M453.27,254.63a35.2,35.2,0,0,1,1.22,9.13c0,.51,0,1.22-.11,2.16a14.08,14.08,0,0,1-2.89,7.59,18.7,18.7,0,0,1-5.56,4.91,10.82,10.82,0,0,1-4.73,1.7c-.72,0-1.95-.56-3.7-1.7a27,27,0,0,1-4.4-3.48.92.92,0,0,1-.32-.65.74.74,0,0,1,.32-.59,1.59,1.59,0,0,1,.86-.33,35.72,35.72,0,0,0,7.38-1.81,29.91,29.91,0,0,0,5.88-2.8,10.09,10.09,0,0,0,3.22-2.89q-1.95-4.65-6.05-12.8l4.69-5c.44-.44.78-.65,1-.65s.52.23.81.7A29.75,29.75,0,0,1,453.27,254.63Zm-8.67-16A1.07,1.07,0,0,1,445,238l3.13-3.18c.25-.25.45-.38.6-.38s.37.13.59.38l3.24,3.18c.29.29.43.51.43.65s-.14.36-.43.65l-3.13,3.18a.9.9,0,0,1-.54.33.87.87,0,0,1-.59-.33L445,239.3A.9.9,0,0,1,444.6,238.65Z"/><path class="cls-3" d="M480.62,255.17v9.18h-.22a6.68,6.68,0,0,1-2.75-.54c0,.47,0,1.17-.11,2.11a13.92,13.92,0,0,1-2.89,7.59,18.58,18.58,0,0,1-5.56,4.91,10.79,10.79,0,0,1-4.72,1.7c-.72,0-2-.56-3.7-1.7a26.18,26.18,0,0,1-4.4-3.48.93.93,0,0,1-.33-.65.76.76,0,0,1,.33-.59,1.56,1.56,0,0,1,.86-.33,35.63,35.63,0,0,0,7.37-1.81,30,30,0,0,0,5.89-2.8,10,10,0,0,0,3.21-2.89q-2-4.65-6.05-12.8l4.7-5c.43-.44.77-.65,1-.65s.52.23.81.7a8.69,8.69,0,0,1,.75,1.62l.06.11.64,1.46a20,20,0,0,0,1.27,2.59,2.64,2.64,0,0,0,1.16,1,6.1,6.1,0,0,0,2.22.29Z"/><path class="cls-3" d="M496.82,245.7a32.22,32.22,0,0,1,.81,7,19.35,19.35,0,0,1-.27,3.19q-1.56,8.47-13.88,8.47h-3.29v-9.18h3.24q4,0,6.4-.24a8.86,8.86,0,0,0,3.8-1.11q-1.94-3.39-4.91-8l4.7-5a1.63,1.63,0,0,1,1-.59,1,1,0,0,1,.81.59A16.82,16.82,0,0,1,496.82,245.7ZM488,271.37a.85.85,0,0,1-.33.54l-2.64,2.7a.63.63,0,0,1-.49.27.6.6,0,0,1-.48-.27l-2.81-2.7a.59.59,0,0,1-.33-.48.91.91,0,0,1,.33-.6l2.64-2.7a.93.93,0,0,1,.54-.32.61.61,0,0,1,.49.32l2.75,2.7A.9.9,0,0,1,488,271.37Zm3.62,4.49a.74.74,0,0,1,.27.48.57.57,0,0,1-.27.43l-2.54,2.54c-.15.15-.26.22-.35.22a.56.56,0,0,1-.35-.22l-2.6-2.54c-.18-.18-.27-.32-.27-.43a2,2,0,0,1,.27-.43l2.43-2.48a.81.81,0,0,1,.49-.22.6.6,0,0,1,.43.22Zm4.48-5a.93.93,0,0,1,.32.54.87.87,0,0,1-.32.54l-2.65,2.7a.6.6,0,0,1-.48.27.62.62,0,0,1-.49-.27l-2.81-2.7a.59.59,0,0,1-.32-.48.94.94,0,0,1,.32-.6l2.65-2.7a.87.87,0,0,1,.54-.32.59.59,0,0,1,.48.32Z"/><path class="cls-3" d="M522.31,255.17v9.18h-.22a6.65,6.65,0,0,1-2.75-.54c0,.47,0,1.17-.11,2.11a14,14,0,0,1-2.89,7.59,18.58,18.58,0,0,1-5.56,4.91,10.82,10.82,0,0,1-4.73,1.7c-.72,0-1.95-.56-3.7-1.7a27,27,0,0,1-4.4-3.48,1,1,0,0,1-.32-.65.77.77,0,0,1,.32-.59,1.63,1.63,0,0,1,.87-.33,35.63,35.63,0,0,0,7.37-1.81,29.91,29.91,0,0,0,5.88-2.8,10,10,0,0,0,3.22-2.89q-1.95-4.65-6-12.8l4.7-5c.43-.44.77-.65,1-.65s.52.23.81.7a8.7,8.7,0,0,1,.76,1.62l.05.11.65,1.46a18.79,18.79,0,0,0,1.27,2.59,2.59,2.59,0,0,0,1.16,1,6.1,6.1,0,0,0,2.22.29Z"/><path class="cls-3" d="M540.61,255.17v9.18h-.27a9.85,9.85,0,0,1-4.94-1.05,7.28,7.28,0,0,1-2.89-3.43A10.9,10.9,0,0,1,528.3,263a14.3,14.3,0,0,1-6.21,1.37h-.21v-9.18h.21a37.19,37.19,0,0,0,5-.32,10.41,10.41,0,0,0,3.54-1l-.49-2.38-.48-2.27,3.88-3.29a.66.66,0,0,1,.43-.22c.26,0,.42.17.49.49l.81,5.45a4.22,4.22,0,0,0,1.3,2.76,6.47,6.47,0,0,0,3.72.75Zm-18.41-16.3a.94.94,0,0,1,.32-.6l2.86-2.91a.9.9,0,0,1,.54-.33.73.73,0,0,1,.54.33l2.92,2.91c.29.22.43.42.43.6s-.14.3-.43.59l-2.81,2.86c-.21.22-.38.33-.48.33a.85.85,0,0,1-.54-.33l-3-2.86A.92.92,0,0,1,522.2,238.87Zm8,0a.94.94,0,0,1,.32-.6l2.87-2.91a.85.85,0,0,1,.54-.33.73.73,0,0,1,.54.33l2.91,2.91c.29.22.43.42.43.6s-.14.3-.43.59l-2.81,2.86q-.31.33-.48.33a.85.85,0,0,1-.54-.33l-3-2.86A.92.92,0,0,1,530.19,238.87Z"/><path class="cls-3" d="M536.67,271.48a.9.9,0,0,1,.32-.59l2.87-2.92a.87.87,0,0,1,.54-.32.75.75,0,0,1,.54.32l2.91,2.92c.29.21.43.41.43.59s-.14.31-.43.6L541,274.94c-.21.21-.37.32-.48.32a.87.87,0,0,1-.54-.32l-3-2.86A.94.94,0,0,1,536.67,271.48Zm22.19-16.31v9.18h-.27a9.88,9.88,0,0,1-4.94-1.05,7.28,7.28,0,0,1-2.89-3.43,10.9,10.9,0,0,1-4.21,3.11,14.3,14.3,0,0,1-6.21,1.37h-.21v-9.18h.21a37.08,37.08,0,0,0,5-.32,10.41,10.41,0,0,0,3.54-1l-.49-2.38-.48-2.27,3.88-3.29a.66.66,0,0,1,.44-.22c.25,0,.41.17.48.49l.81,5.45a4.22,4.22,0,0,0,1.3,2.76,6.49,6.49,0,0,0,3.72.75Zm-14.2,16.31a.87.87,0,0,1,.33-.59l2.86-2.92a.87.87,0,0,1,.54-.32.75.75,0,0,1,.54.32l2.91,2.92c.29.21.44.41.44.59s-.15.31-.44.6l-2.8,2.86c-.22.21-.38.32-.49.32a.93.93,0,0,1-.54-.32l-3-2.86A.91.91,0,0,1,544.66,271.48Z"/><path class="cls-3" d="M572,245.7a32.22,32.22,0,0,1,.81,7,19.35,19.35,0,0,1-.27,3.19q-1.57,8.47-13.94,8.47h-.16l0-9.18h.21q4,0,6.4-.24a9,9,0,0,0,3.81-1.11q-1.95-3.39-4.91-8l4.69-5a1.65,1.65,0,0,1,1-.59,1,1,0,0,1,.81.59A16.82,16.82,0,0,1,572,245.7ZM558.65,234a.9.9,0,0,1,.32-.59l2.86-2.92a.93.93,0,0,1,.54-.32.75.75,0,0,1,.54.32l2.92,2.92c.29.21.43.41.43.59s-.14.31-.43.6L563,237.41c-.21.21-.38.32-.48.32a.87.87,0,0,1-.54-.32l-3-2.86A.94.94,0,0,1,558.65,234Zm8,0a.9.9,0,0,1,.32-.59l2.87-2.92a.87.87,0,0,1,.54-.32.75.75,0,0,1,.54.32l2.91,2.92c.29.21.43.41.43.59s-.14.31-.43.6L571,237.41c-.21.21-.37.32-.48.32a.87.87,0,0,1-.54-.32l-3-2.86A.94.94,0,0,1,566.64,234Z"/><path class="cls-3" d="M139.22,315.24a11.16,11.16,0,0,1,1.3,4.9,4.86,4.86,0,0,1-.2,1.44,2.79,2.79,0,0,1-.7,1.11,5.47,5.47,0,0,1-2.46,1.25,15.35,15.35,0,0,1-3.92.44,9.85,9.85,0,0,1-3.17-.39,2.6,2.6,0,0,1-1.53-1.32,6.5,6.5,0,0,1-.43-2.67c0-.49,0-.86,0-1.13l2.09.11v.44a2.12,2.12,0,0,0,.23,1.16,1.14,1.14,0,0,0,.84.43,16.46,16.46,0,0,0,2.09.09c.75,0,1.61,0,2.58-.13a8.18,8.18,0,0,0,2.29-.48,7.77,7.77,0,0,0-1.32-4.22,21.93,21.93,0,0,0-3.78-4.31l1.74-2.29A21.25,21.25,0,0,1,139.22,315.24Z"/><path class="cls-3" d="M153.37,321.07a3.67,3.67,0,0,1,.09.9v.78a3.75,3.75,0,0,1-.09.89c-.06.24-.13.36-.2.36h-.82a4.38,4.38,0,0,1-3.62-1.36v.11a7.49,7.49,0,0,1-2,5.08,19.83,19.83,0,0,1-6.33,4.35l-1.6-2.58a24.9,24.9,0,0,0,5.18-3,8,8,0,0,0,2.45-3l-1-8.49,2.58-.64.41,3.94A2.58,2.58,0,0,0,149,320a2.12,2.12,0,0,0,1.24.61,16.59,16.59,0,0,0,2.17.11h.73C153.24,320.72,153.31,320.84,153.37,321.07Z"/><path class="cls-3" d="M164.07,321.07a3.67,3.67,0,0,1,.09.9v.78a3.75,3.75,0,0,1-.09.89c-.06.24-.13.36-.2.36a10.67,10.67,0,0,1-3.67-.46,2.39,2.39,0,0,1-1.5-1.54,3.29,3.29,0,0,1-1.94,1.54,11.43,11.43,0,0,1-3.59.46c-.08,0-.15-.12-.22-.36a3.26,3.26,0,0,1-.1-.89V322a4.33,4.33,0,0,1,.08-.88c.06-.25.14-.37.24-.37a9.62,9.62,0,0,0,4.32-.75l-.55-5.77,2.61-.23.34,6.17a3.55,3.55,0,0,0,1.4.45,18.37,18.37,0,0,0,2.58.13C163.94,320.72,164,320.84,164.07,321.07Zm-8.64,6.38,2.26,1.89-1.91,2.26-2.21-1.89Zm4.38,0,2.26,1.89-1.92,2.23-2.23-1.88Z"/><path class="cls-3" d="M172.68,314.47a13,13,0,0,1,1.34,5.85c0,1.33-.83,2.28-2.48,2.84a25.77,25.77,0,0,1-7.67.84c-.08,0-.15-.12-.22-.36a3.26,3.26,0,0,1-.1-.89V322a4.33,4.33,0,0,1,.08-.88c.06-.25.14-.37.24-.37q2.43,0,4.65-.21a13.19,13.19,0,0,0,3.32-.66,9.53,9.53,0,0,0-2-5.35,23.74,23.74,0,0,0-5.44-4.85l.12-2.73a63,63,0,0,1,9.74-4.35l.35,2.75a79.71,79.71,0,0,0-7.34,3.14l.78.58A17.42,17.42,0,0,1,172.68,314.47Zm-2.4-11.61q-2.76,1.18-5.8,2.81l.08-2.26c1.86-1,3.7-1.84,5.54-2.61Z"/><path class="cls-3" d="M197.3,321.07a3.67,3.67,0,0,1,.09.9v.78a3.75,3.75,0,0,1-.09.89c-.05.24-.12.36-.2.36H196a4.79,4.79,0,0,1,.11,1.1,5.14,5.14,0,0,1-2.55,4.64c-1.7,1.06-4.16,1.6-7.36,1.6q-4.12,0-5.62-1.64a5.34,5.34,0,0,1-1.49-3.67q0-1.36,1.39-9.28l2,.46c-.6,3.31-1,6-1.13,8a2.06,2.06,0,0,0,1.48,2.32,10.81,10.81,0,0,0,3.68.58,19.61,19.61,0,0,0,4.18-.39,6.92,6.92,0,0,0,3-1.41,2.69,2.69,0,0,0-.28-1.61,1.7,1.7,0,0,0-1.23-.55c-.6-.07-1.72-.1-3.37-.1h-.05l.66-3.28h7.63C197.18,320.72,197.25,320.84,197.3,321.07Z"/><path class="cls-3" d="M208.8,315.91a8,8,0,0,1,1.15,4.38,11.26,11.26,0,0,1-.38,2.93,2.76,2.76,0,0,1-.38.79,3.8,3.8,0,0,1-.81.8,2.07,2.07,0,0,1-1.3.64,1.6,1.6,0,0,1-.7-.17l-5.39-2.5a3.19,3.19,0,0,1-1.27.9,5.45,5.45,0,0,1-2,.32h-.58c-.08,0-.15-.12-.22-.36a3.26,3.26,0,0,1-.1-.89V322a3.67,3.67,0,0,1,.09-.88c.06-.25.13-.37.23-.37h1a5.16,5.16,0,0,0,1.24-.11,1.45,1.45,0,0,0,.72-.57,8.39,8.39,0,0,0,.8-1.55,11.86,11.86,0,0,1,1.93-3.19,3.47,3.47,0,0,1,2.71-1.19A3.67,3.67,0,0,1,208.8,315.91Zm-1,4.67a4.8,4.8,0,0,0-.65-2.54,2.18,2.18,0,0,0-2-1.06,2,2,0,0,0-1.51.86,9.79,9.79,0,0,0-1.36,2.51l5.16,2.32A5.68,5.68,0,0,0,207.83,320.58Z"/><path class="cls-3" d="M212.88,329.6a24.78,24.78,0,0,0,5.17-3,7.92,7.92,0,0,0,2.45-3l-.95-8.49,2.58-.64c.07.79.12,1.3.14,1.53.16,1.51.29,2.85.39,4s.16,2.05.16,2.69a7.53,7.53,0,0,1-2,5.08,20,20,0,0,1-6.34,4.35Z"/><path class="cls-3" d="M228.8,302.92,229,324l-2.26.32-.58-20.77Z"/><path class="cls-3" d="M242.51,321.07a3.67,3.67,0,0,1,.09.9v.78a3.75,3.75,0,0,1-.09.89c0,.24-.12.36-.2.36h-.81a4.41,4.41,0,0,1-3.63-1.36v.11a7.53,7.53,0,0,1-2,5.08,20,20,0,0,1-6.34,4.35l-1.59-2.58a24.78,24.78,0,0,0,5.17-3,7.92,7.92,0,0,0,2.45-3l-1-8.49,2.58-.64.4,3.94a2.58,2.58,0,0,0,.6,1.54,2.12,2.12,0,0,0,1.23.61,16.77,16.77,0,0,0,2.18.11h.72C242.39,320.72,242.46,320.84,242.51,321.07Z"/><path class="cls-3" d="M253.55,319.81a5.38,5.38,0,0,1-.57,2.09,3.24,3.24,0,0,1-1.39,1.26,6.77,6.77,0,0,1-2.54.68c-1.05.11-2.4.16-4,.16h-2.7c-.08,0-.15-.12-.22-.36a3.7,3.7,0,0,1-.1-.89V322a3.67,3.67,0,0,1,.09-.88c.06-.25.13-.37.23-.37q4.09,0,6-.13a11.72,11.72,0,0,0,2.9-.45,16.27,16.27,0,0,0,.15-1.85,16.37,16.37,0,0,1-3.28.32,13.67,13.67,0,0,1-2-.15,1.77,1.77,0,0,1-.8-.35,3.51,3.51,0,0,1-.71-.81,6.77,6.77,0,0,1-.49-1,1.93,1.93,0,0,1-.12-.83,13.68,13.68,0,0,1,1.29-5.2,3.7,3.7,0,0,1,3.53-2.28,3.77,3.77,0,0,1,3.82,2.47,14,14,0,0,1,1,5.42C253.67,317.63,253.63,318.93,253.55,319.81Zm-7.61-15.1-2.27-1.88,1.89-2.23,2.26,1.85Zm2.52,10.94a18.08,18.08,0,0,0,3-.23,6.53,6.53,0,0,0-.69-3.46,2.27,2.27,0,0,0-2-1,2.1,2.1,0,0,0-1.89,1.16,7.12,7.12,0,0,0-.69,3.36A10.24,10.24,0,0,0,248.46,315.65Zm1.83-11-2.24-1.89,1.89-2.23,2.26,1.88Z"/><path class="cls-3" d="M267.45,321.07a3.67,3.67,0,0,1,.09.9v.78a3.75,3.75,0,0,1-.09.89c-.05.24-.12.36-.2.36h-.7a5.71,5.71,0,0,1-4.17-1.31c-.87-.87-1.34-2.36-1.39-4.49l-.44-14.65,2.64-.63.23,15.31a2.57,2.57,0,0,0,.7,1.83,2.51,2.51,0,0,0,1.85.66h1.28C267.33,320.72,267.4,320.84,267.45,321.07Z"/><path class="cls-3" d="M287.9,321.07a3.74,3.74,0,0,1,.08.9v.78a3.81,3.81,0,0,1-.08.89q-.09.36-.21.36h-4.14q-4.16,0-5.05-3.33c-1.18.69-2.24,1.27-3.17,1.72a17.47,17.47,0,0,1-3.24,1.15,16.29,16.29,0,0,1-4,.46h-.81c-.08,0-.15-.12-.22-.36a3.26,3.26,0,0,1-.1-.89V322a3.67,3.67,0,0,1,.09-.88c.06-.25.13-.37.23-.37h.81a14.15,14.15,0,0,0,3.77-.52,36.41,36.41,0,0,0,4-1.36c.6-.25,1.37-.61,2.29-1.08s1.64-.75,1.83-.81l.58-.2h-.17a21,21,0,0,1-3.77-1.19,11.91,11.91,0,0,0-3.48-.93,1.16,1.16,0,0,0-1.08.54,5.29,5.29,0,0,0-.52,1.41l-2-.35A7.87,7.87,0,0,1,270.7,313a2.77,2.77,0,0,1,2.41-1.12,6.9,6.9,0,0,1,1.82.32c.74.21,1.68.53,2.82.95,1.62.6,3.06,1.08,4.3,1.43a13.44,13.44,0,0,0,3.5.52l-.64,2.9a8.35,8.35,0,0,0-2.28.51,17.53,17.53,0,0,0-2.39,1.14,2.35,2.35,0,0,0,1.55.9,17.74,17.74,0,0,0,3.15.2h2.75C287.77,320.72,287.84,320.84,287.9,321.07Zm-11.66,5.68,2.49,2.09-2.08,2.47-2.44-2.06Z"/><path class="cls-3" d="M298.6,321.07a3.67,3.67,0,0,1,.09.9v.78a3.75,3.75,0,0,1-.09.89c-.06.24-.13.36-.2.36a10.67,10.67,0,0,1-3.67-.46,2.37,2.37,0,0,1-1.5-1.54,3.29,3.29,0,0,1-1.94,1.54,11.46,11.46,0,0,1-3.6.46c-.07,0-.15-.12-.21-.36a3.26,3.26,0,0,1-.1-.89V322a3.72,3.72,0,0,1,.08-.88c.06-.25.14-.37.23-.37A9.63,9.63,0,0,0,292,320l-.56-5.77,2.61-.23.35,6.17a3.5,3.5,0,0,0,1.39.45,18.44,18.44,0,0,0,2.59.13C298.47,320.72,298.54,320.84,298.6,321.07Zm-6-10.21-2.47-2.09,2.06-2.46,2.49,2.09Z"/><path class="cls-3" d="M299.79,327.45l2.26,1.89-1.92,2.26-2.2-1.89Zm-1.61-3.81a3.26,3.26,0,0,1-.1-.89V322a3.72,3.72,0,0,1,.08-.88c.06-.25.14-.37.24-.37a19.62,19.62,0,0,0,3.08-.2,6.9,6.9,0,0,0,2.22-.7l-.66-6.64,2.63-.43.06.87q.18,3.76.18,6.12a3.34,3.34,0,0,1-1.77,3,8.67,8.67,0,0,1-2.69.95,16.32,16.32,0,0,1-3.05.3C298.32,324,298.25,323.88,298.18,323.64Zm8.25,5.67-1.92,2.23-2.23-1.88,1.89-2.24Z"/><path class="cls-3" d="M312.2,302.92l.23,21.08-2.26.32-.58-20.77Z"/><path class="cls-3" d="M315.36,329.6a24.9,24.9,0,0,0,5.18-3,8,8,0,0,0,2.45-3l-1-8.49,2.58-.64q.12,1.19.15,1.53c.15,1.51.28,2.85.39,4s.16,2.05.16,2.69a7.54,7.54,0,0,1-2,5.08,19.89,19.89,0,0,1-6.34,4.35Z"/><path class="cls-3" d="M340.21,315.24a11.18,11.18,0,0,1,1.31,4.9,4.55,4.55,0,0,1-.21,1.44,2.66,2.66,0,0,1-.69,1.11,5.46,5.46,0,0,1-2.47,1.25,15.21,15.21,0,0,1-3.91.44,10,10,0,0,1-3.18-.39,2.61,2.61,0,0,1-1.52-1.32,6.5,6.5,0,0,1-.43-2.67c0-.49,0-.86,0-1.13l2.09.11v.44a2.11,2.11,0,0,0,.24,1.16,1.14,1.14,0,0,0,.84.43,16.28,16.28,0,0,0,2.08.09c.76,0,1.62,0,2.58-.13a8.26,8.26,0,0,0,2.3-.48,7.77,7.77,0,0,0-1.32-4.22,22,22,0,0,0-3.79-4.31l1.74-2.29A21.25,21.25,0,0,1,340.21,315.24Z"/><path class="cls-3" d="M369.53,321.07a3.67,3.67,0,0,1,.09.9v.78a3.75,3.75,0,0,1-.09.89c-.06.24-.12.36-.2.36h-.67a6.88,6.88,0,0,1-2.57-.42,2.72,2.72,0,0,1-1.49-1.49l.18,3.33a3.92,3.92,0,0,1-2.51,3.8,14.79,14.79,0,0,1-6.54,1.28c-2.73,0-4.59-.56-5.6-1.66a5.31,5.31,0,0,1-1.51-3.68,25.64,25.64,0,0,1,.38-3.28q.38-2.37,1-6l2,.46c-.6,3.31-1,6-1.13,7.95a2,2,0,0,0,1.47,2.3,10.15,10.15,0,0,0,3.58.6,20.4,20.4,0,0,0,3.65-.32,8.24,8.24,0,0,0,2.9-1l-1.1-11.08,2.61-.58.38,4.2a2.45,2.45,0,0,0,.56,1.54,2.33,2.33,0,0,0,1.29.64,15,15,0,0,0,2.32.14h.76C369.41,320.72,369.47,320.84,369.53,321.07ZM356.74,313l-2.46-2.09,2.06-2.46,2.49,2.06Z"/><path class="cls-3" d="M393.63,321.07a3.67,3.67,0,0,1,.09.9v.78a3.75,3.75,0,0,1-.09.89c-.06.24-.13.36-.2.36H392a4.93,4.93,0,0,1-2.18-.45,2.77,2.77,0,0,1-1.33-1.26,3.79,3.79,0,0,1-1.77,1.29,7.17,7.17,0,0,1-2.5.42,3.1,3.1,0,0,1-3.16-1.71,3.25,3.25,0,0,1-1.59,1.27,5.63,5.63,0,0,1-2.12.44,3,3,0,0,1-3.07-1.74q-1.2,1.74-5,1.74c-.08,0-.15-.12-.22-.36a3.26,3.26,0,0,1-.1-.89V322a3.67,3.67,0,0,1,.09-.88c0-.25.13-.37.23-.37a8.57,8.57,0,0,0,3.8-.69l.05-4.47,2.38.06-.08,3.48c0,.69.15,1.14.52,1.33a3.93,3.93,0,0,0,1.77.29,3.2,3.2,0,0,0,2.2-.61l-.12-5.68,2.41-.06.12,5.89a2.52,2.52,0,0,0,1.65.46,6.14,6.14,0,0,0,2.9-.61l-.64-6.93,2.61-.46.32,5.8a3.17,3.17,0,0,0,.34,1.42,1.31,1.31,0,0,0,.76.61,5.83,5.83,0,0,0,1.4.17h1.71C393.5,320.72,393.57,320.84,393.63,321.07Zm-14.76-9.92-2.2-1.85,1.85-2.24,2.23,1.86Zm2.06-4.14-2.18-1.83,1.86-2.23,2.2,1.88Zm.06,2.23,1.85-2.21,2.21,1.86-1.86,2.2Z"/><path class="cls-3" d="M404.33,321.07a3.67,3.67,0,0,1,.09.9v.78a3.75,3.75,0,0,1-.09.89c-.06.24-.12.36-.2.36a10.67,10.67,0,0,1-3.67-.46A2.35,2.35,0,0,1,399,322a3.35,3.35,0,0,1-2,1.54,11.39,11.39,0,0,1-3.59.46c-.08,0-.15-.12-.22-.36a3.26,3.26,0,0,1-.1-.89V322a4.33,4.33,0,0,1,.08-.88c.06-.25.14-.37.24-.37a9.62,9.62,0,0,0,4.32-.75l-.55-5.77,2.61-.23.34,6.17a3.55,3.55,0,0,0,1.4.45,18.37,18.37,0,0,0,2.58.13C404.21,320.72,404.27,320.84,404.33,321.07Zm-8.64,6.38,2.26,1.89L396,331.6l-2.21-1.89Zm4.38,0,2.26,1.89-1.91,2.23-2.24-1.88Z"/><path class="cls-3" d="M415,321.07a3.67,3.67,0,0,1,.09.9v.78a3.75,3.75,0,0,1-.09.89c-.06.24-.12.36-.2.36a10.7,10.7,0,0,1-3.67-.46,2.35,2.35,0,0,1-1.49-1.54,3.35,3.35,0,0,1-1.95,1.54,11.39,11.39,0,0,1-3.59.46c-.08,0-.15-.12-.22-.36a3.26,3.26,0,0,1-.1-.89V322a3.67,3.67,0,0,1,.09-.88c.05-.25.13-.37.23-.37a9.62,9.62,0,0,0,4.32-.75l-.55-5.77,2.61-.23.35,6.17a3.44,3.44,0,0,0,1.39.45,18.37,18.37,0,0,0,2.58.13C414.91,320.72,415,320.84,415,321.07Zm-8.26-10.64-2.27-1.92,1.89-2.23,2.26,1.89Zm4.35-.06-2.24-1.89,1.89-2.23,2.23,1.86Z"/><path class="cls-3" d="M422.11,312.75l.06.87q.16,3.76.17,6.12a3.34,3.34,0,0,1-1.77,3,8.7,8.7,0,0,1-2.68.95,16.5,16.5,0,0,1-3.06.3c-.08,0-.15-.12-.22-.36a3.26,3.26,0,0,1-.1-.89V322a3.67,3.67,0,0,1,.09-.88c0-.25.13-.37.23-.37a19.67,19.67,0,0,0,3.09-.2,6.76,6.76,0,0,0,2.21-.7l-.66-6.64Zm-1.77-3-2.47-2.09,2.06-2.46,2.5,2.06Z"/><path class="cls-3" d="M420.92,329.6a24.52,24.52,0,0,0,5.17-3,7.92,7.92,0,0,0,2.45-3l-1-8.49,2.58-.64c.08.79.12,1.3.14,1.53.16,1.51.29,2.85.4,4s.16,2.05.16,2.69a7.54,7.54,0,0,1-2,5.08,19.89,19.89,0,0,1-6.34,4.35Zm9-21.17-2.06,2.49-2.47-2.09,2.06-2.46Z"/><path class="cls-3" d="M444.64,321.07a3.67,3.67,0,0,1,.09.9v.78a3.75,3.75,0,0,1-.09.89c-.06.24-.13.36-.2.36h-.84c-1.88,0-3.15-.48-3.8-1.45v.2A8,8,0,0,1,438,327.8a17.19,17.19,0,0,1-5.32,4.26l-1.56-2.58q5-2.76,6.35-5.83l-1-8.49,2.61-.64.44,3.94a2.35,2.35,0,0,0,.58,1.54,2.21,2.21,0,0,0,1.27.61,18.74,18.74,0,0,0,2.32.11h.76C444.51,320.72,444.58,320.84,444.64,321.07Z"/><path class="cls-3" d="M446,331.25l-2.2-1.86,1.85-2.23,2.24,1.89Zm-1.78-7.61a3.26,3.26,0,0,1-.1-.89V322a3.67,3.67,0,0,1,.09-.88c.05-.25.13-.37.23-.37a19.67,19.67,0,0,0,3.09-.2,6.84,6.84,0,0,0,2.21-.7l-.66-6.64,2.64-.43,0,.87q.18,3.76.18,6.12a3.34,3.34,0,0,1-1.77,3,8.7,8.7,0,0,1-2.68.95,16.5,16.5,0,0,1-3.06.3C444.36,324,444.29,323.88,444.22,323.64Zm3.58,7.61,2.23,1.86-1.85,2.2L446,333.45Zm4.38-2.26-1.86,2.23-2.2-1.86,1.86-2.23Z"/><path class="cls-3" d="M479.7,321.07a3.67,3.67,0,0,1,.09.9v.78a3.75,3.75,0,0,1-.09.89c-.06.24-.13.36-.2.36h-1.25a3.91,3.91,0,0,1-3.51-1.62l.06,3a4,4,0,0,1-2.38,3.81,14.07,14.07,0,0,1-6.5,1.27c-2.64,0-4.45-.55-5.4-1.64a5.48,5.48,0,0,1-1.44-3.7,20.41,20.41,0,0,1,.29-2.48c.19-1.23.4-2.49.61-3.78l.49-3,2,.46c-.63,3.68-1,6.32-1.13,7.95a2.05,2.05,0,0,0,1.38,2.32,9.42,9.42,0,0,0,3.41.58,19.57,19.57,0,0,0,3.56-.33,9,9,0,0,0,2.88-1l-.85-22.36,2.61-.63.29,15a2.63,2.63,0,0,0,.92,2.23,4.31,4.31,0,0,0,2.45.58h1.48C479.57,320.72,479.64,320.84,479.7,321.07Z"/><path class="cls-3" d="M490.4,321.07a3.67,3.67,0,0,1,.09.9v.78a3.75,3.75,0,0,1-.09.89c-.06.24-.12.36-.2.36a10.7,10.7,0,0,1-3.67-.46A2.35,2.35,0,0,1,485,322a3.35,3.35,0,0,1-2,1.54,11.39,11.39,0,0,1-3.59.46c-.08,0-.15-.12-.22-.36a3.26,3.26,0,0,1-.1-.89V322a3.67,3.67,0,0,1,.09-.88c.05-.25.13-.37.23-.37a9.62,9.62,0,0,0,4.32-.75l-.55-5.77,2.61-.23.35,6.17a3.44,3.44,0,0,0,1.39.45,18.37,18.37,0,0,0,2.58.13C490.28,320.72,490.34,320.84,490.4,321.07Zm-8.26-10.64-2.27-1.92,1.89-2.23,2.26,1.89Zm4.35-.06-2.24-1.89,1.89-2.23,2.23,1.86Z"/><path class="cls-3" d="M491.59,327.45l2.26,1.89-1.91,2.26-2.21-1.89ZM490,323.64a3.26,3.26,0,0,1-.1-.89V322a3.67,3.67,0,0,1,.09-.88c0-.25.13-.37.23-.37a19.67,19.67,0,0,0,3.09-.2,6.76,6.76,0,0,0,2.21-.7l-.66-6.64,2.64-.43,0,.87q.18,3.76.18,6.12a3.34,3.34,0,0,1-1.77,3,8.6,8.6,0,0,1-2.68.95,16.5,16.5,0,0,1-3.06.3C490.12,324,490.05,323.88,490,323.64Zm8.25,5.67-1.91,2.23-2.24-1.88,1.89-2.24Z"/><path class="cls-3" d="M508.79,321.07a4.33,4.33,0,0,1,.08.9v.78a4.44,4.44,0,0,1-.08.89q-.09.36-.21.36h-.69a5.72,5.72,0,0,1-4.18-1.31c-.87-.87-1.33-2.36-1.39-4.49l-.44-14.65,2.64-.63.24,15.31a2.56,2.56,0,0,0,.69,1.83,2.53,2.53,0,0,0,1.86.66h1.27C508.66,320.72,508.73,320.84,508.79,321.07Z"/><path class="cls-3" d="M515.86,312.75l.06.87c.12,2.51.17,4.55.17,6.12a3.35,3.35,0,0,1-1.76,3,8.67,8.67,0,0,1-2.69.95,16.34,16.34,0,0,1-3.06.3c-.07,0-.15-.12-.21-.36a3.22,3.22,0,0,1-.11-.89V322a3.67,3.67,0,0,1,.09-.88c.06-.25.14-.37.23-.37a19.67,19.67,0,0,0,3.09-.2,6.9,6.9,0,0,0,2.22-.7l-.67-6.64Zm-4.58-4.06-2.23-1.89,1.88-2.23,2.26,1.86Zm4.38-.06-2.23-1.89,1.85-2.23,2.26,1.89Z"/><path class="cls-3" d="M542.28,319.62a4.11,4.11,0,0,1-.45,2,3.25,3.25,0,0,1-1.49,1.29,11.39,11.39,0,0,1-3.53.92,42.92,42.92,0,0,1-5.55.3,24.81,24.81,0,0,1-5.29-.47,6.07,6.07,0,0,1-3.19-1.65,4.58,4.58,0,0,1-1.12-3.28,11.74,11.74,0,0,1,.15-1.65l.75-4.5,2,.44-.67,4a6.74,6.74,0,0,0-.08.93,2.29,2.29,0,0,0,.81,1.93,4.55,4.55,0,0,0,2.2.8,35.34,35.34,0,0,0,3.92.17c2.4,0,4.3,0,5.73-.15a15.23,15.23,0,0,0,3.52-.58l-.64-6.84,2.55-.55C542.17,315.17,542.28,317.47,542.28,319.62Zm-10.79,7.8,2.5,2.09L531.9,332l-2.44-2.05Z"/><path class="cls-3" d="M553.42,321.07a3.74,3.74,0,0,1,.08.9v.78a3.81,3.81,0,0,1-.08.89q-.09.36-.21.36h-.69a5.72,5.72,0,0,1-4.18-1.31c-.87-.87-1.33-2.36-1.39-4.49l-.43-14.65,2.63-.63.24,15.31a2.61,2.61,0,0,0,.69,1.83,2.55,2.55,0,0,0,1.86.66h1.27C553.29,320.72,553.36,320.84,553.42,321.07Z"/><path class="cls-3" d="M573,320.17a3.23,3.23,0,0,1-1.4,2.9,6.17,6.17,0,0,1-3.47.93c-1.61,0-2.66-.57-3.16-1.71a3.23,3.23,0,0,1-1.6,1.27,5.58,5.58,0,0,1-2.11.44,3,3,0,0,1-3.08-1.74q-1.18,1.74-5,1.74c-.07,0-.15-.12-.21-.36a3.22,3.22,0,0,1-.11-.89V322a3.67,3.67,0,0,1,.09-.88c.06-.25.14-.37.23-.37A8.54,8.54,0,0,0,557,320l.06-4.47,2.38.06-.09,3.48c0,.69.16,1.14.52,1.33a3.93,3.93,0,0,0,1.77.29,3.23,3.23,0,0,0,2.21-.61l-.12-5.68,2.41-.06.11,5.89a2.53,2.53,0,0,0,1.66.46,6.16,6.16,0,0,0,2.9-.61l-.64-6.93,2.61-.46Q573,316.72,573,320.17Z"/><path class="cls-3" d="M1039.46,318.45c-1.59-2.75-5.81-2.9-7.89.92a10.7,10.7,0,0,1-3.41,4l-1.85-3.1,3.56-2-11.73-28.37a16.71,16.71,0,0,0,1.74-1.63c2.8-3,5.82-8.56,4.34-17.47-.51-2.7-.82-5.11.5-7.22,2.38-3.8,1.22-6.65-.49-7.94-3.13-2.36-6.69-.53-8.68,1.52l-.82-11.65a8.09,8.09,0,0,0-2.42-5.55,5.28,5.28,0,0,0-6.16-.47l0-.48a8.17,8.17,0,0,0-2.52-5.6,4.93,4.93,0,0,0-3.73-1.18c-2.85.26-4.75,2.95-5.18,5.8a5.06,5.06,0,0,0-2.6-.43c-3.77.36-5.5,4.09-5.25,7.59l.39,5.53a4,4,0,0,0-1.83-.22c-3.13.36-5,3.26-4.67,7.4L982,275.33h0l0,.35a.3.3,0,0,0,0,.1c.69,8.32,4.15,13.13,7.33,15.84a18,18,0,0,1-.7,6.25c-1.49,5-5,8.68-10.31,10.87l-1.43.54-10.15,3.11,3.08,10.29,2.9-.36a12.3,12.3,0,0,0-.43,8.85c1,3.57,4.14,4,5.89,3.12,2.31-1.14,3.54-3.55,1.38-6.91-2.31-3.58-1.61-5.15-.94-5.79l.38,0,.89,2.82,1.18.07c.81.05,1.59.07,2.35.07,16,0,20.06-10.43,20.23-10.9a1.71,1.71,0,0,0-3.2-1.2c0,.09-3.6,9.09-18,8.67l-1.39-4.4-1.5-4.75h0c10.77-4.43,12.86-13.2,13.15-18a12.33,12.33,0,0,0,2.34.95,2.21,2.21,0,0,0,.37,0,1.71,1.71,0,0,0,.36-3.38c-.09,0-9.46-2.69-10.43-16.41l-1.23-17.42c0-.36-.2-3.55,1.64-3.76a.79.79,0,0,1,.64.21,5.19,5.19,0,0,1,1.28,3.3l.74,10.54a1.71,1.71,0,0,0,3.41-.24l-.61-8.71h0l-1-14c-.11-1.49.38-3.78,2.17-4a1.5,1.5,0,0,1,1.21.37,4.86,4.86,0,0,1,1.31,3.25v0l1.16,16.49a1.7,1.7,0,0,0,1.7,1.58h.12a1.71,1.71,0,0,0,1.59-1.82L998,239.59c-.13-1.84,1-3.84,2.17-4a1.53,1.53,0,0,1,1.21.38,4.93,4.93,0,0,1,1.32,3.24l1.51,21.31a1.7,1.7,0,1,0,3.4-.24l-1-14.18v-.06c-.1-1.46.39-3.82,2.14-4a1.7,1.7,0,0,1,1.31.41,4.86,4.86,0,0,1,1.25,3.21l1.5,21.25h0v0l.31,4.31a1.25,1.25,0,0,0,0,.19s0,.08,0,.12a1.48,1.48,0,0,0,.1.27,0,0,0,0,0,0,0,1.68,1.68,0,0,0,1.25,1h.09l.2,0h.12l.15,0,.17,0,.15-.06a.76.76,0,0,0,.16-.06l.14-.08.14-.09.12-.11.12-.11a1.13,1.13,0,0,0,.1-.13l.1-.14.07-.14s0-.1.07-.16,0-.1,0-.16,0-.1,0-.16a1.09,1.09,0,0,0,0-.18c0-.05,0-.09,0-.14,0-.71-.15-2.26-.24-3.4l-.07-1h0c-.21-3,.25-5.3,1.35-6.74.52-.69,2.83-3,4.6-1.65.75.57.62,1.84-.36,3.4-2.13,3.41-1.42,7.17-1,9.63,1.24,7.52-1.21,12.07-3.5,14.57a13.16,13.16,0,0,1-2.12,1.87,1.5,1.5,0,0,0-.33.23,11.25,11.25,0,0,1-6.72,2.08,1.71,1.71,0,0,0-.26,3.41c.26,0,.52,0,.79,0a14.15,14.15,0,0,0,6.52-1.76l7.58,18.34c-.31.65-1.3,2.1-4.08,2.66a1.71,1.71,0,0,0,.34,3.38,2,2,0,0,0,.34,0,9.68,9.68,0,0,0,4.89-2.4l1.24,3-1,.56h0l-4.52,2.52-2.85,1.59-16.45-22A1.71,1.71,0,0,0,998,301.5l16.18,21.61h0l8.82,11.77,9-5-1.3-2.18a15.65,15.65,0,0,0,6.08-2.36C1040.28,323,1040.31,319.93,1039.46,318.45Z"/><path class="cls-3" d="M996.08,309.78a2,2,0,0,1-1.66,2.11,1.71,1.71,0,0,0,.3,3.39,1.55,1.55,0,0,0,.31,0,5.49,5.49,0,0,0,4.47-5.52,1.68,1.68,0,0,0-1.74-1.68A1.71,1.71,0,0,0,996.08,309.78Z"/><path class="cls-3" d="M997.19,267.35c-.9.24-1.44,1.54-1.19,2.89s1.16,2.26,2.07,2,1.44-1.54,1.2-2.89S998.1,267.11,997.19,267.35Z"/><path class="cls-3" d="M1009.31,272.25c.9-.24,1.44-1.54,1.2-2.89s-1.17-2.25-2.08-2-1.44,1.54-1.19,2.89S1008.4,272.5,1009.31,272.25Z"/><path class="cls-3" d="M999.53,279.86a1.7,1.7,0,0,0,1.69,1.54h.17l5.71-.56-2-8.83a1.71,1.71,0,0,0-3.33.74l1.12,5.07-1.86.18A1.7,1.7,0,0,0,999.53,279.86Z"/><path class="cls-3" d="M998.38,285.38a1.72,1.72,0,0,0,.61,2.34,9,9,0,0,0,4.59,1.25,9.09,9.09,0,0,0,7.84-4.47,1.71,1.71,0,0,0-2.94-1.74,5.67,5.67,0,0,1-7.76,2A1.72,1.72,0,0,0,998.38,285.38Z"/><path class="cls-3" d="M1021.89,411.81l-5.54-10.41-2.89.7-.21,11.79a1.28,1.28,0,0,0,1.26,1.3h0a1.28,1.28,0,0,0,1.28-1.26l0-1,3.33-.8.47.88a1.28,1.28,0,1,0,2.26-1.21Zm-6-1.51.07-4.2,2,3.7Z"/><path class="cls-3" d="M1037.11,404.58l-5.89-10.15-2.21,1.28,1.27,7.32-5.71-4.75-2.22,1.28,5.89,10.16a1.29,1.29,0,0,0,1.11.64,1.33,1.33,0,0,0,.64-.17,1.29,1.29,0,0,0,.47-1.75l-2.17-3.74,3,2.51,2.09-1.22-.67-3.85,2.16,3.73a1.28,1.28,0,0,0,2.22-1.29Z"/><path class="cls-3" d="M1005.82,413.22H1002V403h-2.56v12.8h6.4a1.28,1.28,0,1,0,0-2.56Z"/><path class="cls-3" d="M989.25,400.29l-6.38,9.92a1.28,1.28,0,0,0,2.16,1.38l.54-.83,3.25,1.07-.06,1a1.27,1.27,0,0,0,1.19,1.36H990a1.28,1.28,0,0,0,1.27-1.19l.77-11.77ZM987,408.53l2.26-3.53-.27,4.19Z"/><path class="cls-3" d="M974.2,406.62a3.63,3.63,0,0,1-3-5.69,1.28,1.28,0,1,1,2.11,1.46,1.07,1.07,0,0,0,1.76,1.21l.36-.53a1.06,1.06,0,0,0-.27-1.48,3.64,3.64,0,0,1-.93-5l.37-.53a3.63,3.63,0,0,1,6,4.12,1.28,1.28,0,0,1-2.11-1.45A1.07,1.07,0,0,0,977.4,397a1.1,1.1,0,0,0-.69.44l-.36.53a1.08,1.08,0,0,0-.17.8,1.1,1.1,0,0,0,.44.69,3.62,3.62,0,0,1,.93,5l-.36.53A3.63,3.63,0,0,1,974.2,406.62Z"/><circle class="cls-3" cx="1050.64" cy="391.06" r="3.42"/><path class="cls-3" d="M1053.21,362v11.1a2.57,2.57,0,0,1-5.13,0V348.37h-8.54v24.76a11.1,11.1,0,1,0,22.2,0V362Z"/><path class="cls-3" d="M1027.59,373.13a2.56,2.56,0,0,1-5.12,0V362h-8.54v11.1a2.56,2.56,0,1,1-5.12,0V362h-8.54v4.8a13,13,0,0,0-1.46-2.76h0l-5.28-7.54,4.05-5.78-7-4.9-2.27,3.24-4-5.63-7,4.9,5.73,8.17-5.28,7.54h0a12.91,12.91,0,0,0-2,4.61,11.95,11.95,0,1,0-22.3,8.48,12,12,0,0,0-6.18,10.46v4.27h8.54v-4.27a3.42,3.42,0,0,1,3.42-3.42h4.64l.48,0A12,12,0,0,0,976,375a12.8,12.8,0,0,0,24.47.34,11.07,11.07,0,0,0,17.7,6.5,11.08,11.08,0,0,0,17.93-8.73V362h-8.54Zm-63.18,2.56v0h-.24a3.16,3.16,0,1,1,.24,0Zm23.91,0a4.33,4.33,0,0,1-4.27-4.27,4.21,4.21,0,0,1,.77-2.45l3.5-5,3.49,5a4.22,4.22,0,0,1,.78,2.45A4.33,4.33,0,0,1,988.32,375.69Z"/><path class="cls-3" d="M459,414.94l-.35,1.3a.79.79,0,0,1-.84.64h-.84a.67.67,0,0,1-.76-.75v-18.8a.67.67,0,0,1,.76-.75h1.45a.67.67,0,0,1,.75.75v6a3,3,0,0,1,2.93-1.82q3.23,0,3.22,4.17V413q0,4.19-3.22,4.18A3.13,3.13,0,0,1,459,414.94Zm3.36-9c0-1.37-.43-1.86-1.45-1.86a1.87,1.87,0,0,0-1.74,2.06v6.5a1.87,1.87,0,0,0,1.74,2.06c1,0,1.45-.5,1.45-1.86Z"/><path class="cls-3" d="M466.91,413.28v-.23a4.17,4.17,0,0,1,1.34-3.42,9,9,0,0,1,2.58-1.54c.52-.23.9-.41,1.16-.55a1.91,1.91,0,0,0,1.07-1.45v-.17c0-1.25-.49-1.89-1.51-1.89s-1.54.64-1.54,1.89v.34a.67.67,0,0,1-.75.76H468c-.49,0-.75-.26-.75-.79,0-3.13,1.48-4.69,4.41-4.69s4.35,1.59,4.35,4.75V412a34.49,34.49,0,0,0,.17,4.09c.09.55-.11.81-.66.81h-1.34a.74.74,0,0,1-.84-.64,6.67,6.67,0,0,1-.17-1.19,3.16,3.16,0,0,1-3.05,2.15Q466.91,417.2,466.91,413.28Zm6.15-.63v-3.17l-.67.32a7,7,0,0,0-1.74,1,2.29,2.29,0,0,0-.81,1.94v.2c0,1.31.49,1.74,1.45,1.74A1.87,1.87,0,0,0,473.06,412.65Z"/><path class="cls-3" d="M477.84,412.65a.68.68,0,0,1,.76-.76h1.22a.67.67,0,0,1,.75.76v.29c0,1.27.52,1.91,1.54,1.91s1.56-.61,1.56-1.8v-.26c0-1-.66-1.45-2.2-2.12a7.48,7.48,0,0,1-2.41-1.45,4.13,4.13,0,0,1-1.22-3.33v-.06c0-2.87,1.6-4.29,4.41-4.29s4.35,1.45,4.35,4.38a.67.67,0,0,1-.75.75h-1.22a.67.67,0,0,1-.75-.75v-.12c0-1.28-.53-1.92-1.54-1.92s-1.57.61-1.57,1.8v.18a1.62,1.62,0,0,0,.67,1.36A7.16,7.16,0,0,0,483,408a7.18,7.18,0,0,1,2,1.08c1.07.72,1.57,1.77,1.65,3.68v.09c0,2.87-1.56,4.32-4.38,4.32S477.84,415.69,477.84,412.65Z"/><path class="cls-3" d="M488.08,413.28v-.23a4.19,4.19,0,0,1,1.33-3.42,9.21,9.21,0,0,1,2.59-1.54c.52-.23.9-.41,1.16-.55a1.91,1.91,0,0,0,1.07-1.45v-.17c0-1.25-.49-1.89-1.51-1.89s-1.54.64-1.54,1.89v.34a.67.67,0,0,1-.75.76h-1.25c-.49,0-.75-.26-.75-.79,0-3.13,1.48-4.69,4.41-4.69s4.35,1.59,4.35,4.75V412a34.49,34.49,0,0,0,.17,4.09c.09.55-.11.81-.66.81h-1.34a.74.74,0,0,1-.84-.64,6.67,6.67,0,0,1-.17-1.19,3.16,3.16,0,0,1-3.05,2.15Q488.07,417.2,488.08,413.28Zm6.15-.63v-3.17l-.67.32a7,7,0,0,0-1.74,1,2.29,2.29,0,0,0-.81,1.94v.2c0,1.31.49,1.74,1.45,1.74A1.87,1.87,0,0,0,494.23,412.65Z"/><path class="cls-3" d="M502.38,416.13a.67.67,0,0,1-.76.75h-1.45a.67.67,0,0,1-.75-.75v-18.8a.67.67,0,0,1,.75-.75h1.45a.67.67,0,0,1,.76.75Z"/><path class="cls-3" d="M504.26,413.28v-.23a4.17,4.17,0,0,1,1.34-3.42,9,9,0,0,1,2.58-1.54c.52-.23.9-.41,1.16-.55a1.91,1.91,0,0,0,1.07-1.45v-.17c0-1.25-.49-1.89-1.51-1.89s-1.53.64-1.53,1.89v.34a.68.68,0,0,1-.76.76h-1.25c-.49,0-.75-.26-.75-.79,0-3.13,1.48-4.69,4.41-4.69s4.35,1.59,4.35,4.75V412a34.49,34.49,0,0,0,.17,4.09c.09.55-.11.81-.66.81h-1.34a.74.74,0,0,1-.84-.64,6.67,6.67,0,0,1-.17-1.19,3.16,3.16,0,0,1-3,2.15Q504.26,417.2,504.26,413.28Zm6.15-.63v-3.17l-.67.32a7,7,0,0,0-1.74,1,2.29,2.29,0,0,0-.81,1.94v.2c0,1.31.49,1.74,1.45,1.74A1.86,1.86,0,0,0,510.41,412.65Z"/><path class="cls-3" d="M516.35,416.88a.67.67,0,0,1-.75-.75V402.61a.68.68,0,0,1,.75-.76h1.25a.69.69,0,0,1,.76.76v1.25a3,3,0,0,1,3-2.32,2.66,2.66,0,0,1,2.87,2.2,3.17,3.17,0,0,1,3.08-2.2q3.14,0,3.13,4.17v10.42a.67.67,0,0,1-.75.75h-1.45a.67.67,0,0,1-.76-.75V405.92c0-1.4-.4-1.86-1.36-1.86s-1.65.87-1.65,2.06v10a.68.68,0,0,1-.76.75h-1.42a.67.67,0,0,1-.75-.75V405.92c0-1.4-.41-1.86-1.37-1.86s-1.65.87-1.65,2.06v10a.67.67,0,0,1-.76.75Z"/><path class="cls-3" d="M533.52,416.88a.67.67,0,0,1-.75-.75v-2.9a.67.67,0,0,1,.75-.76H535a.68.68,0,0,1,.76.76v2.9a.67.67,0,0,1-.76.75Z"/><path class="cls-3" d="M537.93,406.32q0-4.79,4.44-4.78t4.44,4.78v.61c0,.41-.27.61-.76.61h-1.22a.67.67,0,0,1-.75-.75v-.87c0-1.25-.52-1.86-1.6-1.86s-1.62.61-1.62,1.86v6.9c0,1.25.55,1.86,1.62,1.86s1.6-.61,1.6-1.86v-1.16a.68.68,0,0,1,.75-.76h1.22a.69.69,0,0,1,.76.76v.75q0,4.79-4.44,4.79t-4.44-4.79Z"/><path class="cls-3" d="M548.51,412.41v-6.09c0-3.19,1.51-4.78,4.56-4.78s4.52,1.59,4.52,4.78v6.09c0,3.19-1.5,4.79-4.52,4.79S548.51,415.6,548.51,412.41Zm6.15.41v-6.9c0-1.25-.52-1.86-1.59-1.86s-1.63.61-1.63,1.86v6.9c0,1.25.56,1.86,1.63,1.86S554.66,414.07,554.66,412.82Z"/><path class="cls-3" d="M560.46,416.88a.67.67,0,0,1-.75-.75V402.61a.68.68,0,0,1,.75-.76h1.25a.68.68,0,0,1,.75.76v1.25a3.07,3.07,0,0,1,3-2.32,2.67,2.67,0,0,1,2.87,2.2,3.17,3.17,0,0,1,3.08-2.2q3.13,0,3.13,4.17v10.42a.67.67,0,0,1-.75.75h-1.46a.67.67,0,0,1-.75-.75V405.92c0-1.4-.41-1.86-1.36-1.86s-1.66.87-1.66,2.06v10a.67.67,0,0,1-.75.75h-1.42a.68.68,0,0,1-.76-.75V405.92c0-1.4-.4-1.86-1.36-1.86s-1.65.87-1.65,2.06v10a.67.67,0,0,1-.76.75Z"/></g><g id="Layer_1" data-name="Layer 1"><g class="cls-4"><image width="1080" height="720" transform="translate(994.35 45.36) scale(0.77)" xlink:href="../../../../../../../Users/shizaru/Documents/GitHub/BASALAM-Visual-Guideline/photography/asset/photography/photography-5.jpg"/></g></g></svg>