<svg xmlns="http://www.w3.org/2000/svg" viewBox="0 0 1152 648"><defs><style>.cls-1{fill:#fff;}</style></defs><g id="Graphic"><rect width="1152" height="648"/><path class="cls-1" d="M423.78,314.82V324h-.27a10.39,10.39,0,0,1-5.67-1.35,8,8,0,0,1-3.13-4A24.68,24.68,0,0,1,413.3,312l-2-21.06,6.54-5a1.75,1.75,0,0,1,1-.38c.61,0,.92.43.92,1.29q0,1-.65,13l-.54,10.85a4,4,0,0,0,.89,3.24c.67.61,1.9.92,3.7.92Z"/><path class="cls-1" d="M456.5,314.82V324h-.43a8,8,0,0,1-5.59-1.78q-2-1.79-2.3-5.78L445,317.9c-2.92,1.33-5.38,2.39-7.4,3.18a49,49,0,0,1-6.67,2.06,32.19,32.19,0,0,1-7.37.86h-.27v-9.18h.27a53.18,53.18,0,0,0,9.91-.78,75,75,0,0,0,8.45-2.19c1.55-.47,2.88-.85,4-1.13l-1.19-.27q-4.65-1.08-7.45-1.62a25.33,25.33,0,0,0-4.54-.54,6.28,6.28,0,0,0-2,.27,3.61,3.61,0,0,0-1.17.59c-.25.22-.64.61-1.18,1.19a1.35,1.35,0,0,1-1,.43,1.43,1.43,0,0,1-1.1-.49,1.3,1.3,0,0,1-.35-1.18q1.29-8.33,7.12-9.24a9.62,9.62,0,0,1,1.25-.11,16.22,16.22,0,0,1,4.4.71c1.64.46,3.66,1.13,6.07,2s4,1.36,5.11,1.71a26.88,26.88,0,0,0,3.32.78c.64.11,1,.39,1,.86a7.39,7.39,0,0,1-.16.76l-1.73,6.64-.06.54a.86.86,0,0,0,.54.81,5.62,5.62,0,0,0,2.16.27Zm-23.33,15.44a1,1,0,0,1,.38-.64l3.13-3.19c.25-.25.45-.38.6-.38s.37.13.59.38l3.24,3.19c.29.28.43.5.43.64s-.14.36-.43.65L438,334.1a.93.93,0,0,1-.54.32.94.94,0,0,1-.6-.32l-3.29-3.19A.89.89,0,0,1,433.17,330.26Z"/><path class="cls-1" d="M473.08,314.82V324h-.22a10.23,10.23,0,0,1-4.83-1,7.17,7.17,0,0,1-2.94-3.13,7.3,7.3,0,0,1-3.19,2.91,12,12,0,0,1-5.62,1.19h-.21v-9.18h.21c3.32,0,5.6-.32,6.86-1l-1-4.81,4.1-3.45a.6.6,0,0,1,.43-.22c.25,0,.42.16.49.49l.92,5.45a12.47,12.47,0,0,0,.59,2.19,2,2,0,0,0,1.22,1,9.37,9.37,0,0,0,3,.35Zm-15.66-16.63a1,1,0,0,1,.38-.65l3.13-3.19a1,1,0,0,1,.59-.37.88.88,0,0,1,.6.37l3.24,3.19c.28.29.43.5.43.65s-.15.36-.43.65L462.22,302a.85.85,0,0,1-.54.33.9.9,0,0,1-.59-.33l-3.29-3.18A.89.89,0,0,1,457.42,298.19Z"/><path class="cls-1" d="M469.68,331.13a.89.89,0,0,1,.32-.6l2.86-2.91a.9.9,0,0,1,.54-.33.73.73,0,0,1,.54.33l2.92,2.91c.29.22.43.42.43.6s-.14.3-.43.59l-2.81,2.86c-.22.22-.38.33-.49.33a.9.9,0,0,1-.54-.33l-3-2.86A.86.86,0,0,1,469.68,331.13Zm16.57-25.79a32.24,32.24,0,0,1,.81,7,19.32,19.32,0,0,1-.27,3.18Q485.23,324,472.86,324h-.16l-.05-9.18h.21q4,0,6.4-.24a9,9,0,0,0,3.81-1.11q-1.95-3.41-4.92-8l4.7-5a1.63,1.63,0,0,1,1-.6.93.93,0,0,1,.81.6A16.62,16.62,0,0,1,486.25,305.34Zm-8.58,25.79a.94.94,0,0,1,.32-.6l2.86-2.91a.9.9,0,0,1,.54-.33.73.73,0,0,1,.54.33l2.92,2.91c.29.22.43.42.43.6s-.14.3-.43.59L482,334.58c-.21.22-.38.33-.48.33a.85.85,0,0,1-.54-.33l-3-2.86A.9.9,0,0,1,477.67,331.13Z"/><path class="cls-1" d="M498.51,285.5c.65,0,1,.43,1,1.29q0,5-.32,16a157.1,157.1,0,0,1-1,15.8,52,52,0,0,1-2.05,6.53,1.6,1.6,0,0,1-.51.76,1.14,1.14,0,0,1-.68.27.8.8,0,0,1-.64-.33,1.74,1.74,0,0,1-.33-1q-.27-4.11-1.24-14.36-1.35-15-1.67-19.55l6.53-5A1.4,1.4,0,0,1,498.51,285.5Z"/><path class="cls-1" d="M524.13,314.28a35.15,35.15,0,0,1,1.22,9.13c0,.5,0,1.22-.11,2.16a13.92,13.92,0,0,1-2.89,7.58,18.76,18.76,0,0,1-5.56,4.92,10.93,10.93,0,0,1-4.72,1.7c-.73,0-2-.57-3.7-1.7a27.25,27.25,0,0,1-4.41-3.49.94.94,0,0,1-.32-.64.79.79,0,0,1,.32-.6,1.54,1.54,0,0,1,.87-.32,36.28,36.28,0,0,0,7.37-1.81,30.28,30.28,0,0,0,5.89-2.81,9.92,9.92,0,0,0,3.21-2.89q-1.95-4.63-6-12.8l4.7-5c.43-.43.77-.65,1-.65s.52.24.81.71A30.38,30.38,0,0,1,524.13,314.28Z"/><path class="cls-1" d="M531.05,321.19a12.16,12.16,0,0,1-1.87-7.61,1.8,1.8,0,0,1,.43-1.11,1.22,1.22,0,0,1,.92-.4,1.18,1.18,0,0,1,.73.27,1.45,1.45,0,0,1,.51.75,2.83,2.83,0,0,0,2.08,1.65,24,24,0,0,0,6,.51,38.35,38.35,0,0,0,5.4-.32c1.44-.22,2.16-.72,2.16-1.51s-.58-1.54-1.75-2.68a32,32,0,0,0-4.64-3.59,49.66,49.66,0,0,0-6.13-3.4c-.58-.25-.87-.59-.87-1a2,2,0,0,1,.16-.7l2.76-5.18a1.79,1.79,0,0,1,1.62-1.14q1.35,0,4.4,2.3a23.37,23.37,0,0,1,5.45,6,14,14,0,0,1,2.41,7.83q0,5.88-2.43,9.07-2.86,3.61-9,3.62Q533.18,324.49,531.05,321.19Z"/><path class="cls-1" d="M597.33,314.82V324h-.22a10.77,10.77,0,0,1-5.34-1.19c0,.83-.17,2.23-.38,4.21a15,15,0,0,1-2.16,6.4,13.16,13.16,0,0,1-4.86,4.62,14.34,14.34,0,0,1-7.13,1.73q-7.56,0-11-3.78a14,14,0,0,1-3.46-9.83,29.56,29.56,0,0,1,2.32-11,1.7,1.7,0,0,1,.6-.81,1.36,1.36,0,0,1,.81-.27,1.06,1.06,0,0,1,.8.33,1.22,1.22,0,0,1,.33.92l-.11.64a22.57,22.57,0,0,0-1.24,6.7,7.2,7.2,0,0,0,2.51,5.86c1.67,1.38,4.49,2.08,8.45,2.08a17.48,17.48,0,0,0,6.83-1.11,8.1,8.1,0,0,0,3.54-2.51q-.87-9.18-1.08-12.53c-.07-1-.32-3.74-.73-8.31s-1-9.65-1.65-15.23l6.59-5a1.88,1.88,0,0,1,1-.44c.61,0,.92.45.92,1.35q-.12,14.81-.44,24.36a6,6,0,0,0,.35,2.37,1.92,1.92,0,0,0,1.3,1,11.35,11.35,0,0,0,2.89.27Z"/><path class="cls-1" d="M639.5,314.82V324h-3.94a28.09,28.09,0,0,1-7.72-.76,26.4,26.4,0,0,1-9.45,1.68,20.44,20.44,0,0,1-8-1.49,9.68,9.68,0,0,1-5.1-4.51,11.63,11.63,0,0,1-3.81,3.78,8.47,8.47,0,0,1-4.4,1.3h-.48v-9.18h.48a7.61,7.61,0,0,0,4.84-1.49,10.56,10.56,0,0,0,3-3.53,34.91,34.91,0,0,0,2-4.86,1.91,1.91,0,0,1,.59-.89,1.28,1.28,0,0,1,1.73.08,1.38,1.38,0,0,1,.38,1,3.09,3.09,0,0,1-.11.65,13.73,13.73,0,0,0-.7,4.16,6.38,6.38,0,0,0,.62,2.92,3.63,3.63,0,0,0,2,1.78,76.86,76.86,0,0,1,4.53-6.56,26,26,0,0,1,5.51-5.16,12.06,12.06,0,0,1,7.08-2.32c3.09,0,5.38.87,6.85,2.62a9.78,9.78,0,0,1,2.22,6.56,15.74,15.74,0,0,1-.87,5Zm-18.52,2a21.41,21.41,0,0,0,5.91-.81,16.25,16.25,0,0,0,4.76-2.13A6.2,6.2,0,0,0,634.1,311a4.82,4.82,0,0,0-2.08-1.48,9.17,9.17,0,0,0-3.86-.73,16.19,16.19,0,0,0-13.66,7A21,21,0,0,0,621,316.82Z"/><path class="cls-1" d="M658,297.08q2.43,4.89,2.43,13.8,0,8.1-6.07,10.56A33.87,33.87,0,0,1,642.26,324H639v-9.18h2.75a65.66,65.66,0,0,0,11.37-.73c2.57-.49,4-1.52,4.18-3.1a10.78,10.78,0,0,1-6.21,1.72,10.25,10.25,0,0,1-6.4-1.91q-2.51-1.92-2.51-6.35a18.64,18.64,0,0,1,.92-5.75A11,11,0,0,1,646,294a6.57,6.57,0,0,1,4.72-1.84Q655.6,292.19,658,297.08Zm-6.48,7.37a13.37,13.37,0,0,0,4.65-.65,6.73,6.73,0,0,0-2.94-3.21,8.06,8.06,0,0,0-3.54-.89,4.49,4.49,0,0,0-2.65.84,3.67,3.67,0,0,0-1.51,2Q646.74,304.45,651.54,304.45Zm-5.29-19.17a1.07,1.07,0,0,1,.38-.65l3.13-3.18c.25-.25.45-.38.6-.38s.37.13.59.38l3.24,3.18c.29.29.43.51.43.65s-.14.36-.43.65l-3.13,3.19a.93.93,0,0,1-.54.32.94.94,0,0,1-.6-.32l-3.29-3.19A.9.9,0,0,1,646.25,285.28Z"/><path class="cls-1" d="M689.29,314.82V324h-.22a6.85,6.85,0,0,1-2.75-.54c0,.47,0,1.17-.11,2.11a13.92,13.92,0,0,1-2.89,7.58,18.76,18.76,0,0,1-5.56,4.92,10.93,10.93,0,0,1-4.72,1.7c-.72,0-2-.57-3.7-1.7a26.72,26.72,0,0,1-4.4-3.49.91.91,0,0,1-.33-.64.77.77,0,0,1,.33-.6,1.48,1.48,0,0,1,.86-.32,36.28,36.28,0,0,0,7.37-1.81,30,30,0,0,0,5.89-2.81,9.92,9.92,0,0,0,3.21-2.89q-1.95-4.63-6-12.8l4.7-5c.43-.43.77-.65,1-.65s.52.24.81.71a8.13,8.13,0,0,1,.75,1.62l.06.1.64,1.46a19.38,19.38,0,0,0,1.27,2.59,2.58,2.58,0,0,0,1.16,1,6.06,6.06,0,0,0,2.22.3Z"/><path class="cls-1" d="M707.6,314.82V324h-.27a9.9,9.9,0,0,1-5-1.05,7.31,7.31,0,0,1-2.88-3.43,11.12,11.12,0,0,1-4.22,3.1,14.31,14.31,0,0,1-6.21,1.38h-.21v-9.18h.21a38.76,38.76,0,0,0,5-.32,10.16,10.16,0,0,0,3.54-1l-.49-2.37-.48-2.27,3.89-3.29a.58.58,0,0,1,.43-.22c.25,0,.41.16.48.49l.81,5.45a4.21,4.21,0,0,0,1.3,2.75c.65.51,1.89.76,3.73.76Zm-18.42-16.31a.9.9,0,0,1,.32-.59l2.87-2.92a.87.87,0,0,1,.54-.32.75.75,0,0,1,.54.32l2.91,2.92c.29.21.43.41.43.59s-.14.31-.43.6l-2.8,2.86c-.22.21-.38.32-.49.32a.9.9,0,0,1-.54-.32l-3-2.86A.94.94,0,0,1,689.18,298.51Zm8,0a.87.87,0,0,1,.33-.59l2.86-2.92a.9.9,0,0,1,.54-.32.75.75,0,0,1,.54.32l2.92,2.92c.28.21.43.41.43.59s-.15.31-.43.6L701.55,302c-.22.21-.38.32-.49.32a.93.93,0,0,1-.54-.32l-3-2.86A.91.91,0,0,1,697.17,298.51Z"/><path class="cls-1" d="M703.65,331.13a.91.91,0,0,1,.33-.6l2.86-2.91a.9.9,0,0,1,.54-.33.73.73,0,0,1,.54.33l2.91,2.91c.29.22.44.42.44.6s-.15.3-.44.59l-2.8,2.86c-.22.22-.38.33-.49.33a.9.9,0,0,1-.54-.33l-3-2.86A.87.87,0,0,1,703.65,331.13Zm22.2-16.31V324h-.27a9.83,9.83,0,0,1-4.94-1.05,7.32,7.32,0,0,1-2.89-3.43,11.15,11.15,0,0,1-4.21,3.1,14.38,14.38,0,0,1-6.21,1.38h-.22v-9.18h.22a38.72,38.72,0,0,0,5-.32,10,10,0,0,0,3.54-1l-.48-2.37-.49-2.27,3.89-3.29a.6.6,0,0,1,.43-.22c.25,0,.41.16.49.49l.81,5.45a4.16,4.16,0,0,0,1.29,2.75c.65.51,1.89.76,3.73.76Zm-14.2,16.31a.89.89,0,0,1,.32-.6l2.86-2.91a.9.9,0,0,1,.54-.33.73.73,0,0,1,.54.33l2.92,2.91c.29.22.43.42.43.6s-.14.3-.43.59L716,334.58c-.22.22-.38.33-.49.33a.9.9,0,0,1-.54-.33l-3-2.86A.86.86,0,0,1,711.65,331.13Z"/><path class="cls-1" d="M739,305.34a32.24,32.24,0,0,1,.81,7,19.32,19.32,0,0,1-.27,3.18Q737.94,324,725.58,324h-.16l-.06-9.18h.22q4,0,6.4-.24a8.86,8.86,0,0,0,3.8-1.11q-1.93-3.41-4.91-8l4.7-5a1.61,1.61,0,0,1,1-.6,1,1,0,0,1,.81.6A16.62,16.62,0,0,1,739,305.34ZM725.63,293.6a.91.91,0,0,1,.33-.6l2.86-2.91a.85.85,0,0,1,.54-.33.73.73,0,0,1,.54.33l2.91,2.91c.29.22.44.42.44.6s-.15.3-.44.59L730,297.05q-.32.33-.48.33c-.15,0-.32-.11-.54-.33l-3-2.86A.87.87,0,0,1,725.63,293.6Zm8,0a.91.91,0,0,1,.33-.6l2.86-2.91a.9.9,0,0,1,.54-.33.73.73,0,0,1,.54.33l2.92,2.91c.28.22.43.42.43.6s-.15.3-.43.59L738,297.05c-.22.22-.38.33-.49.33a.9.9,0,0,1-.54-.33l-3-2.86A.87.87,0,0,1,733.62,293.6Z"/><path class="cls-1" d="M470.46,386a12.22,12.22,0,0,1-1.86-7.61,1.75,1.75,0,0,1,.43-1.11,1.2,1.2,0,0,1,1.65-.13,1.57,1.57,0,0,1,.51.75,2.79,2.79,0,0,0,2.08,1.65,24,24,0,0,0,6,.51,38.35,38.35,0,0,0,5.4-.32c1.44-.22,2.16-.72,2.16-1.51s-.59-1.54-1.76-2.68a32,32,0,0,0-4.64-3.59,49.66,49.66,0,0,0-6.13-3.4c-.58-.25-.86-.59-.86-1a1.76,1.76,0,0,1,.16-.7l2.75-5.18A1.81,1.81,0,0,1,478,360.5q1.35,0,4.4,2.3a23.22,23.22,0,0,1,5.46,6,14,14,0,0,1,2.4,7.83q0,5.88-2.43,9.07-2.86,3.61-9,3.62Q472.59,389.29,470.46,386Z"/><path class="cls-1" d="M508.34,379.62v9.18h-.22a6.85,6.85,0,0,1-2.75-.54c0,.47,0,1.17-.11,2.11a13.92,13.92,0,0,1-2.89,7.58,18.76,18.76,0,0,1-5.56,4.92,10.93,10.93,0,0,1-4.72,1.7c-.72,0-2-.57-3.7-1.7a26.72,26.72,0,0,1-4.4-3.49.91.91,0,0,1-.33-.64.77.77,0,0,1,.33-.6,1.48,1.48,0,0,1,.86-.32,36.28,36.28,0,0,0,7.37-1.81,30,30,0,0,0,5.89-2.81,9.92,9.92,0,0,0,3.21-2.89q-1.95-4.63-6.05-12.8l4.7-5c.43-.43.77-.65,1-.65s.52.24.81.71a8.13,8.13,0,0,1,.75,1.62l.06.1.64,1.46a19.38,19.38,0,0,0,1.27,2.59,2.58,2.58,0,0,0,1.16,1,6.06,6.06,0,0,0,2.22.3Z"/><path class="cls-1" d="M526.65,379.62v9.18h-.27a9.83,9.83,0,0,1-4.94-1.05,7.27,7.27,0,0,1-2.89-3.43,11,11,0,0,1-4.22,3.1,14.31,14.31,0,0,1-6.21,1.38h-.21v-9.18h.21a38.76,38.76,0,0,0,5-.32,10.16,10.16,0,0,0,3.54-1l-.49-2.37-.48-2.27,3.89-3.29a.58.58,0,0,1,.43-.22c.25,0,.41.16.48.49l.81,5.45a4.21,4.21,0,0,0,1.3,2.75c.65.51,1.89.76,3.73.76ZM508.34,396a.9.9,0,0,1,.32-.59l2.87-2.92a.87.87,0,0,1,.54-.32.75.75,0,0,1,.54.32l2.91,2.92c.29.21.43.41.43.59s-.14.31-.43.6l-2.81,2.86c-.21.21-.37.32-.48.32a.87.87,0,0,1-.54-.32l-3-2.86A.94.94,0,0,1,508.34,396Zm8,0a.87.87,0,0,1,.33-.59l2.86-2.92a.87.87,0,0,1,.54-.32.75.75,0,0,1,.54.32l2.91,2.92c.29.21.44.41.44.59s-.15.31-.44.6l-2.8,2.86c-.22.21-.38.32-.49.32a.93.93,0,0,1-.54-.32l-3-2.86A.91.91,0,0,1,516.33,396Z"/><path class="cls-1" d="M549.49,351.22a1,1,0,0,1,.75.29,1.13,1.13,0,0,1,.27.79,1.3,1.3,0,0,1,0,.43l-1.4,7-12.8,5.13a33.23,33.23,0,0,1,4.56,6.62,15.1,15.1,0,0,1,1.92,7.05,9,9,0,0,1-.7,3.56,9.33,9.33,0,0,1-5.4,5.35,27.66,27.66,0,0,1-9.56,1.4h-.92v-9.18h1.08a71.29,71.29,0,0,0,7.69-.35c2.07-.23,3.36-.8,3.87-1.7a15.5,15.5,0,0,0-4.16-4.94,69.11,69.11,0,0,0-6.54-4.94l1.08-7.83,19.39-8.43A2.07,2.07,0,0,1,549.49,351.22Zm-19.44,2.64,16.79-7.29a1.32,1.32,0,0,1,.6-.16q.59,0,.48.81l-.38,3-18.14,8Z"/><path class="cls-1" d="M581.89,390.83a4.19,4.19,0,0,1,.54,2.13,9,9,0,0,1-1.89,4.91A15.54,15.54,0,0,1,575,402.6a17.75,17.75,0,0,1-8.59,2q-7.56,0-11-3.78A14.09,14.09,0,0,1,552,391a28.7,28.7,0,0,1,2.32-11,1.75,1.75,0,0,1,.59-.81,1.28,1.28,0,0,1,.76-.27,1.11,1.11,0,0,1,.83.36,1.23,1.23,0,0,1,.35.94,2.8,2.8,0,0,1-.1.59,25.21,25.21,0,0,0-1.24,6.75,7.15,7.15,0,0,0,2.48,5.81c1.65,1.38,4.46,2.08,8.42,2.08a27.09,27.09,0,0,0,6.59-.81,15.61,15.61,0,0,0,5-2q-2.49-2.7-10.91-6l1.89-7.35a2,2,0,0,1,.46-.94,1.06,1.06,0,0,1,.78-.3,3.12,3.12,0,0,1,.6.05,55.55,55.55,0,0,0,6.77,1.3,42.74,42.74,0,0,0,4.51.27v9.18h-.54a7.67,7.67,0,0,1-1.35-.16A12.48,12.48,0,0,1,581.89,390.83Z"/><path class="cls-1" d="M604.92,371.39a14.06,14.06,0,0,1,1.64,7,19.06,19.06,0,0,1-.21,3,13.21,13.21,0,0,1-1.84,5.48,5.4,5.4,0,0,1-3.45,2.46,9.84,9.84,0,0,1-2.16.22,13.15,13.15,0,0,1-5.3-1.19,17.55,17.55,0,0,1-5-3.4,8.51,8.51,0,0,1-2.86,3.07,6.91,6.91,0,0,1-3.35.76H582v-9.18h.87a7.11,7.11,0,0,0,2.83-.46,4.58,4.58,0,0,0,1.84-1.46,25.51,25.51,0,0,0,2-3.21c2.6-4.57,5.49-6.86,8.7-6.86a6.21,6.21,0,0,1,1.35.11A7.3,7.3,0,0,1,604.92,371.39Zm-9.18,9.15a13.32,13.32,0,0,0,4.94,1,5.26,5.26,0,0,0,2.64-.54,6.12,6.12,0,0,0-1-2.7A7.4,7.4,0,0,0,600,376a6.14,6.14,0,0,0-6.13-.25,4.64,4.64,0,0,0-2,2.11A9,9,0,0,0,595.74,380.54Z"/><path class="cls-1" d="M630.19,379.08a35.13,35.13,0,0,1,1.21,9.13c0,.5,0,1.22-.1,2.16a14.07,14.07,0,0,1-2.89,7.58,18.79,18.79,0,0,1-5.57,4.92,10.89,10.89,0,0,1-4.72,1.7c-.72,0-2-.57-3.7-1.7a27.15,27.15,0,0,1-4.4-3.49.9.9,0,0,1-.32-.64.76.76,0,0,1,.32-.6,1.51,1.51,0,0,1,.86-.32,36.11,36.11,0,0,0,7.37-1.81,29.73,29.73,0,0,0,5.89-2.81,9.92,9.92,0,0,0,3.21-2.89q-1.94-4.63-6-12.8l4.69-5c.44-.43.78-.65,1-.65s.52.24.81.71A29.75,29.75,0,0,1,630.19,379.08Z"/><path class="cls-1" d="M642.69,350.3c.65,0,1,.43,1,1.29q0,5-.32,16a157.1,157.1,0,0,1-1,15.8,53.77,53.77,0,0,1-2,6.53,1.6,1.6,0,0,1-.51.76,1.14,1.14,0,0,1-.68.27.82.82,0,0,1-.65-.33,1.66,1.66,0,0,1-.32-1q-.27-4.11-1.24-14.36-1.35-15-1.68-19.55l6.54-5A1.38,1.38,0,0,1,642.69,350.3Z"/><path class="cls-1" d="M661.7,379.62v9.18h-.22a6.78,6.78,0,0,1-2.75-.54c0,.47,0,1.17-.11,2.11a14,14,0,0,1-2.89,7.58,18.76,18.76,0,0,1-5.56,4.92,11,11,0,0,1-4.73,1.7c-.72,0-2-.57-3.7-1.7a27.59,27.59,0,0,1-4.4-3.49.94.94,0,0,1-.32-.64.79.79,0,0,1,.32-.6,1.54,1.54,0,0,1,.87-.32,36.28,36.28,0,0,0,7.37-1.81,29.9,29.9,0,0,0,5.88-2.81,9.87,9.87,0,0,0,3.22-2.89q-1.95-4.63-6-12.8l4.7-5c.43-.43.77-.65,1-.65s.52.24.81.71a8.13,8.13,0,0,1,.76,1.62l.05.1.65,1.46a18.2,18.2,0,0,0,1.27,2.59,2.53,2.53,0,0,0,1.16,1,6,6,0,0,0,2.21.3Z"/><path class="cls-1" d="M680.27,361.88q2.43,4.89,2.43,13.8,0,8.1-6.07,10.56a33.88,33.88,0,0,1-12.13,2.56h-3.24v-9.18H664a65.66,65.66,0,0,0,11.37-.73c2.57-.48,4-1.52,4.18-3.1a10.78,10.78,0,0,1-6.21,1.72,10.25,10.25,0,0,1-6.4-1.91q-2.51-1.92-2.51-6.35a18.64,18.64,0,0,1,.92-5.75,11,11,0,0,1,2.83-4.67,6.61,6.61,0,0,1,4.73-1.84Q677.84,357,680.27,361.88Zm-14.9-10.29a.92.92,0,0,1,.32-.59l2.86-2.92a.93.93,0,0,1,.54-.32.75.75,0,0,1,.54.32l2.92,2.92c.29.22.43.41.43.59s-.14.31-.43.6l-2.81,2.86c-.21.22-.38.32-.48.32a.83.83,0,0,1-.54-.32l-3-2.86A.94.94,0,0,1,665.37,351.59Zm8.42,17.66a13.41,13.41,0,0,0,4.65-.65,6.7,6.7,0,0,0-3-3.21,8,8,0,0,0-3.53-.89,4.47,4.47,0,0,0-2.65.84,3.63,3.63,0,0,0-1.51,2Q669,369.25,673.79,369.25Zm-.43-17.66a.92.92,0,0,1,.32-.59l2.87-2.92a.87.87,0,0,1,.54-.32.75.75,0,0,1,.54.32l2.91,2.92c.29.22.43.41.43.59s-.14.31-.43.6l-2.81,2.86c-.21.22-.37.32-.48.32a.83.83,0,0,1-.54-.32l-3-2.86A.94.94,0,0,1,673.36,351.59Z"/><path class="cls-1" d="M531.51,228.19a3.67,3.67,0,0,1,.09.9v.78a3.75,3.75,0,0,1-.09.89c0,.24-.12.36-.2.36h-1.25a3.88,3.88,0,0,1-3.5-1.62l.05,3a4,4,0,0,1-2.37,3.81,14.1,14.1,0,0,1-6.5,1.27q-4,0-5.41-1.64a5.45,5.45,0,0,1-1.43-3.7,18.49,18.49,0,0,1,.29-2.48q.29-1.85.6-3.78l.5-3,2,.46c-.64,3.68-1,6.32-1.13,7.95a2,2,0,0,0,1.37,2.32,9.46,9.46,0,0,0,3.41.58,19.76,19.76,0,0,0,3.57-.33,8.89,8.89,0,0,0,2.87-1l-.84-22.35,2.61-.64.29,15a2.63,2.63,0,0,0,.91,2.23,4.33,4.33,0,0,0,2.45.58h1.48C531.39,227.84,531.46,228,531.51,228.19Z"/><path class="cls-1" d="M557.18,228.19a3.67,3.67,0,0,1,.09.9v.78a3.75,3.75,0,0,1-.09.89c-.06.24-.13.36-.2.36a6.85,6.85,0,0,1-2.67-.44,3.57,3.57,0,0,1-1.68-1.53,9.88,9.88,0,0,1-3.59,1.52,22,22,0,0,1-5.14.54q-5.43,0-7.54-1.63a7.06,7.06,0,0,1-2.37,1.13,9.65,9.65,0,0,1-2.68.41c-.08,0-.15-.12-.22-.36a3.7,3.7,0,0,1-.1-.89v-.78a3.67,3.67,0,0,1,.09-.88c.06-.25.13-.37.23-.37a9.08,9.08,0,0,0,3.74-.69v-4.7l2.32,0-.11,4.67a2.59,2.59,0,0,0,1.16.43,40.32,40.32,0,0,1,5-5.8q2.94-2.86,5.7-2.87a4.59,4.59,0,0,1,3.91,1.73,8.4,8.4,0,0,1,1.31,5.12,7.21,7.21,0,0,1-.15,1.45,2.13,2.13,0,0,0,1.06.53,7.76,7.76,0,0,0,1.76.16C557.05,227.84,557.12,228,557.18,228.19ZM551.47,223a2.49,2.49,0,0,0-2.35-1.32,7,7,0,0,0-3.92,1.67,22.84,22.84,0,0,0-4.35,4.42c.91.08,1.91.12,3,.12a26.13,26.13,0,0,0,8.29-1.25A7.28,7.28,0,0,0,551.47,223Z"/><path class="cls-1" d="M568.21,226.93a5.23,5.23,0,0,1-.56,2.09,3.3,3.3,0,0,1-1.39,1.26,6.82,6.82,0,0,1-2.54.68,40.52,40.52,0,0,1-4.05.16H557c-.08,0-.15-.12-.22-.36a3.26,3.26,0,0,1-.1-.89v-.78a4.33,4.33,0,0,1,.08-.88c.06-.25.14-.37.24-.37q4.08,0,6-.13a11.8,11.8,0,0,0,2.9-.45,17,17,0,0,0,.14-1.85,16.19,16.19,0,0,1-3.27.32,13.57,13.57,0,0,1-2-.15,1.77,1.77,0,0,1-.8-.35,3.51,3.51,0,0,1-.71-.81,7,7,0,0,1-.5-1,2.09,2.09,0,0,1-.11-.83,13.32,13.32,0,0,1,1.29-5.2,3.69,3.69,0,0,1,3.52-2.28,3.78,3.78,0,0,1,3.83,2.47,14,14,0,0,1,1,5.42C568.33,224.75,568.3,226.05,568.21,226.93Zm-5.32-15-2.46-2.09,2.06-2.46,2.49,2.06Zm.23,10.79a18,18,0,0,0,3-.23,6.64,6.64,0,0,0-.68-3.46,2.29,2.29,0,0,0-2-1,2.09,2.09,0,0,0-1.89,1.16,7.1,7.1,0,0,0-.7,3.36A10.3,10.3,0,0,0,563.12,222.77Z"/><path class="cls-1" d="M576.22,230.45a3.48,3.48,0,0,1-1.24-2.93q0-2.62,3.14-6.23l-1.19-.84,1.53-2.29a15.87,15.87,0,0,1,4.94,4.51A10.73,10.73,0,0,1,585,228a2.25,2.25,0,0,1-.1.88,4.32,4.32,0,0,1-.48.92,6.12,6.12,0,0,1-.52.69,1.29,1.29,0,0,1-.44.35,11.54,11.54,0,0,1-4,.58A5.06,5.06,0,0,1,576.22,230.45Zm6.62-2.55a6.89,6.89,0,0,0-3-5.36,9.83,9.83,0,0,0-1.81,2.33,4.72,4.72,0,0,0-.8,2.16,1,1,0,0,0,.52,1,6.1,6.1,0,0,0,2.06.23A12.92,12.92,0,0,0,582.84,227.9Z"/><path class="cls-1" d="M583.42,236.72a24.63,24.63,0,0,0,5.18-3,7.92,7.92,0,0,0,2.45-3l-1-8.49,2.59-.64c.07.79.12,1.3.14,1.53.15,1.51.29,2.85.39,4s.16,2,.16,2.69a7.53,7.53,0,0,1-2,5.08A19.85,19.85,0,0,1,585,239.3Z"/><path class="cls-1" d="M604.13,228.19a3.67,3.67,0,0,1,.09.9v.78a3.75,3.75,0,0,1-.09.89c-.06.24-.13.36-.2.36h-.7a5.71,5.71,0,0,1-4.17-1.31c-.87-.87-1.34-2.36-1.4-4.49l-.43-14.64,2.64-.64.23,15.31a2.57,2.57,0,0,0,.7,1.83,2.51,2.51,0,0,0,1.85.66h1.28C604,227.84,604.07,228,604.13,228.19Z"/><path class="cls-1" d="M621,228.19a3.67,3.67,0,0,1,.09.9v.78a3.75,3.75,0,0,1-.09.89c-.06.24-.13.36-.2.36a7,7,0,0,1-2.72-.45,3.21,3.21,0,0,1-1.6-1.46l-.21,1a2.33,2.33,0,0,1-.32.86,4,4,0,0,1-.81.85,2,2,0,0,1-1.3.61,1.55,1.55,0,0,1-.67-.17l-5.31-2.5a3.59,3.59,0,0,1-1.22.9,4.35,4.35,0,0,1-1.79.32h-.9c-.08,0-.15-.12-.22-.36a3.26,3.26,0,0,1-.1-.89v-.78a3.67,3.67,0,0,1,.09-.88c0-.25.13-.37.23-.37h1a5.12,5.12,0,0,0,1.23-.11,1.35,1.35,0,0,0,.71-.57,9.55,9.55,0,0,0,.82-1.55,11.86,11.86,0,0,1,1.93-3.19,3.47,3.47,0,0,1,2.71-1.19,3.7,3.7,0,0,1,2.65,1,5.19,5.19,0,0,1,1.44,2.42,9.33,9.33,0,0,0,.82,2.08,2.13,2.13,0,0,0,1.16.88,7.72,7.72,0,0,0,2.37.26C620.85,227.84,620.92,228,621,228.19Zm-6.32-.49a4.71,4.71,0,0,0-.66-2.54,2.15,2.15,0,0,0-2-1.06,2,2,0,0,0-1.51.86,9.79,9.79,0,0,0-1.36,2.51l5.16,2.32A5.68,5.68,0,0,0,614.66,227.7Z"/><path class="cls-1" d="M640.55,227.29a3.23,3.23,0,0,1-1.4,2.9,6.17,6.17,0,0,1-3.47.93,3.09,3.09,0,0,1-3.16-1.71,3.19,3.19,0,0,1-1.59,1.27,5.67,5.67,0,0,1-2.12.44,3,3,0,0,1-3.08-1.74q-1.18,1.74-5,1.74c-.08,0-.15-.12-.22-.36a3.26,3.26,0,0,1-.1-.89v-.78a4.33,4.33,0,0,1,.08-.88c.06-.25.14-.37.24-.37a8.57,8.57,0,0,0,3.8-.69l0-4.47,2.38.06-.09,3.48c0,.7.16,1.14.53,1.33a3.86,3.86,0,0,0,1.76.29,3.23,3.23,0,0,0,2.21-.61l-.12-5.68,2.41-.06.12,5.89a2.48,2.48,0,0,0,1.65.46,6.14,6.14,0,0,0,2.9-.61l-.64-6.93,2.61-.46C640.49,222.51,640.55,225,640.55,227.29Zm-10.23-9-2.21-1.85,1.86-2.24L632.2,216Zm2.06-4.14-2.18-1.83,1.86-2.23,2.2,1.88Zm0,2.23,1.86-2.2,2.2,1.85-1.85,2.2Z"/></g><g id="Isolation_Mode" data-name="Isolation Mode"><path class="cls-1" d="M1106.43,586.2c-1.58-2.75-5.81-2.9-7.89.92a10.61,10.61,0,0,1-3.41,4l-1.85-3.1,3.56-2-11.73-28.37a15.86,15.86,0,0,0,1.75-1.63c2.79-3,5.81-8.56,4.34-17.47-.51-2.7-.83-5.11.49-7.21,2.38-3.81,1.23-6.66-.48-8-3.13-2.36-6.69-.53-8.69,1.52l-.82-11.65a8,8,0,0,0-2.42-5.55,5.05,5.05,0,0,0-3.8-1.23,5,5,0,0,0-2.35.76l0-.48a8.13,8.13,0,0,0-2.52-5.6,5,5,0,0,0-3.73-1.18c-2.85.26-4.74,2.95-5.18,5.8a5.13,5.13,0,0,0-2.59-.43c-3.78.36-5.5,4.09-5.26,7.6l.39,5.52a4,4,0,0,0-1.82-.21c-3.13.35-5,3.25-4.67,7.39l1.23,17.42h0l0,.35a.43.43,0,0,0,0,.11c.7,8.31,4.15,13.12,7.34,15.83a17.84,17.84,0,0,1-.71,6.25c-1.49,5-5,8.68-10.31,10.88l-1.43.53-10.14,3.12,3.07,10.28,2.9-.36a12.38,12.38,0,0,0-.43,8.86c1,3.56,4.14,4,5.89,3.11,2.31-1.14,3.55-3.55,1.39-6.91-2.31-3.58-1.62-5.15-1-5.79l.39,0,.89,2.82,1.17.07c.81,0,1.6.08,2.35.08,16,0,20.06-10.44,20.24-10.91a1.71,1.71,0,1,0-3.2-1.2c0,.09-3.6,9.09-18,8.68l-1.39-4.41-1.49-4.75h0c10.77-4.43,12.87-13.2,13.16-18a12.41,12.41,0,0,0,2.33,1,2.33,2.33,0,0,0,.37,0,1.73,1.73,0,0,0,1.67-1.34,1.71,1.71,0,0,0-1.31-2c-.09,0-9.46-2.68-10.43-16.41l-1.23-17.42c0-.36-.19-3.55,1.65-3.76a.75.75,0,0,1,.63.22,5,5,0,0,1,1.28,3.29l.75,10.54a1.71,1.71,0,0,0,3.41-.24l-.62-8.71h0l-1-14c-.11-1.5.39-3.79,2.17-4a1.52,1.52,0,0,1,1.22.37,4.91,4.91,0,0,1,1.31,3.25v0l1.17,16.49a1.7,1.7,0,0,0,1.7,1.58h.12a1.7,1.7,0,0,0,1.58-1.82l-1.5-21.32c-.13-1.84,1-3.84,2.16-3.95a1.56,1.56,0,0,1,1.21.38,4.91,4.91,0,0,1,1.33,3.24l1.5,21.31a1.71,1.71,0,1,0,3.41-.24l-1-14.18s0,0,0,0c-.11-1.46.38-3.83,2.13-4a1.74,1.74,0,0,1,1.32.41,4.81,4.81,0,0,1,1.24,3.21l1.5,21.25h0v0l.3,4.31,0,.19s0,.08,0,.12.06.18.1.27,0,0,0,0a1.71,1.71,0,0,0,1.26.95h.08l.2,0h.12l.15,0,.17,0,.16-.06.16-.06.13-.08.15-.09a1.14,1.14,0,0,0,.11-.11l.13-.11.09-.13.1-.14a.61.61,0,0,0,.07-.14l.07-.15a1,1,0,0,0,0-.17.75.75,0,0,0,0-.16,1.09,1.09,0,0,0,0-.18s0-.09,0-.14c0-.7-.15-2.26-.23-3.4l-.08-1v0c-.21-3,.26-5.3,1.35-6.74.52-.69,2.83-3,4.6-1.65.76.57.63,1.84-.35,3.4-2.14,3.41-1.43,7.18-1,9.63,1.25,7.52-1.21,12.07-3.49,14.57a13.6,13.6,0,0,1-2.12,1.87,1.56,1.56,0,0,0-.34.23,11.25,11.25,0,0,1-6.72,2.08,1.71,1.71,0,0,0-.25,3.41l.78,0a14.15,14.15,0,0,0,6.52-1.76l7.59,18.34c-.31.65-1.3,2.1-4.08,2.66a1.71,1.71,0,0,0,.34,3.38l.33,0a9.72,9.72,0,0,0,4.9-2.4l1.23,3-1,.56h0L1087,587.6l-2.85,1.59-16.46-22a1.72,1.72,0,0,0-2.39-.34,1.7,1.7,0,0,0-.34,2.39l16.18,21.62h0l8.81,11.77,9-5-1.29-2.17a15.86,15.86,0,0,0,6.07-2.37C1107.25,590.7,1107.29,587.68,1106.43,586.2Z"/><path class="cls-1" d="M1063.06,577.53a2,2,0,0,1-1.67,2.11,1.71,1.71,0,0,0,.31,3.39l.31,0a5.48,5.48,0,0,0,4.46-5.52,1.71,1.71,0,1,0-3.41,0Z"/><path class="cls-1" d="M1064.17,535.1c-.91.25-1.44,1.54-1.2,2.89s1.17,2.26,2.07,2,1.44-1.54,1.2-2.89S1065.07,534.86,1064.17,535.1Z"/><path class="cls-1" d="M1076.28,540c.9-.24,1.44-1.54,1.2-2.89s-1.17-2.25-2.07-2-1.44,1.54-1.2,2.89S1075.38,540.25,1076.28,540Z"/><path class="cls-1" d="M1066.5,547.61a1.71,1.71,0,0,0,1.7,1.54h.17l5.7-.56-2-8.83a1.71,1.71,0,0,0-3.34.75l1.13,5.06-1.87.18A1.71,1.71,0,0,0,1066.5,547.61Z"/><path class="cls-1" d="M1065.36,553.13a1.71,1.71,0,0,0,.6,2.34,9.09,9.09,0,0,0,12.43-3.22,1.71,1.71,0,1,0-2.94-1.73,5.66,5.66,0,0,1-7.75,2A1.72,1.72,0,0,0,1065.36,553.13Z"/></g></svg>