<svg id="Background" xmlns="http://www.w3.org/2000/svg" viewBox="0 0 1152 648"><defs><style>.cls-1{fill:#fde9e1;}.cls-2{fill:#ff5c35;}.cls-3{fill:none;}</style></defs><rect class="cls-1" width="1152" height="648"/><path class="cls-2" d="M835.77,314.84V324h-.38a6.31,6.31,0,0,1-2.27-.38c0,.47,0,1.13-.11,2a16.5,16.5,0,0,1-2.16,6.88,13.91,13.91,0,0,1-5.45,5.24,18,18,0,0,1-8.91,2c-5.07,0-8.77-1.27-11.07-3.8a14.14,14.14,0,0,1-3.46-9.86,29.13,29.13,0,0,1,2.33-11,1.75,1.75,0,0,1,.59-.81,1.36,1.36,0,0,1,.81-.27,1.12,1.12,0,0,1,.81.32,1.24,1.24,0,0,1,.32.92l-.1.65a21.94,21.94,0,0,0-1.25,6.59,7.3,7.3,0,0,0,2.54,5.91q2.54,2.13,8.48,2.13a20.16,20.16,0,0,0,8.72-1.54c2.11-1,3.39-2.2,3.86-3.53a86,86,0,0,0-6.42-12.8l4.64-5c.43-.43.77-.65,1-.65s.57.23.86.7a25.91,25.91,0,0,1,1.73,3.89,6.43,6.43,0,0,0,1.65,2.54,4.6,4.6,0,0,0,2.78.65Zm-23.22-5.19a1,1,0,0,1,.38-.65l3.13-3.18c.25-.25.45-.38.59-.38a.9.9,0,0,1,.6.38l3.24,3.18c.28.29.43.51.43.65s-.15.36-.43.65l-3.14,3.19a.87.87,0,0,1-.54.32.92.92,0,0,1-.59-.32l-3.29-3.19A.87.87,0,0,1,812.55,309.65Z"/><path class="cls-2" d="M875.51,314.84V324h-.21a5.41,5.41,0,0,1-3.49-1.25,6.65,6.65,0,0,1-2.13-3.83,6.91,6.91,0,0,1-2.73,3.81,6.75,6.75,0,0,1-3.7,1.27h-.1a6.38,6.38,0,0,1-3.7-1.27,6.46,6.46,0,0,1-2.3-3.81,6.63,6.63,0,0,1-2.59,3.83,6.43,6.43,0,0,1-3.62,1.25h-.11a7.4,7.4,0,0,1-4.13-1.08,10.45,10.45,0,0,1-3.16-4,7.34,7.34,0,0,1-3.24,3.75,8.85,8.85,0,0,1-4.53,1.33h-.43v-9.18h.43a10.9,10.9,0,0,0,4.4-.73,5.65,5.65,0,0,0,2.43-2,16.36,16.36,0,0,0,1.65-3.65,2,2,0,0,1,.62-.91,1.36,1.36,0,0,1,.89-.33,1.29,1.29,0,0,1,.94.41,1.42,1.42,0,0,1,.41,1.05,1.5,1.5,0,0,1-.06.49,8.42,8.42,0,0,0-.21,1.89q0,3.78,4.1,3.78a5,5,0,0,0,2.78-.63,3.66,3.66,0,0,0,1.41-1.83,25.32,25.32,0,0,0,.94-3.65,2.15,2.15,0,0,1,.57-1.08,1.33,1.33,0,0,1,.94-.37,1.25,1.25,0,0,1,1,.48,1.67,1.67,0,0,1,.35,1.24c-.07.65-.1,1.12-.1,1.41q0,4.43,4.42,4.43a5.18,5.18,0,0,0,2.81-.63,3.54,3.54,0,0,0,1.43-1.83,13.92,13.92,0,0,0,.68-3.38,2,2,0,0,1,.46-1.29,1.24,1.24,0,0,1,.94-.43,1.27,1.27,0,0,1,1,.48A1.81,1.81,0,0,1,871,309a6.9,6.9,0,0,0,1,4.46,4,4,0,0,0,3.27,1.38Zm-25.65-15.18a.87.87,0,0,1,.33-.59l2.64-2.7a.9.9,0,0,1,.54-.33.61.61,0,0,1,.49.33l2.75,2.7a.85.85,0,0,1,.33.54.9.9,0,0,1-.33.54l-2.64,2.7a.58.58,0,0,1-1,0l-2.8-2.7C850,300,849.86,299.81,849.86,299.66Zm4.59-5.07a.75.75,0,0,1,.27-.44l2.43-2.48a1.33,1.33,0,0,1,.49-.27c.11,0,.25.09.43.27l2.48,2.43a.62.62,0,0,1,.27.49.6.6,0,0,1-.27.43L858,297.56a.64.64,0,0,1-.35.21.63.63,0,0,1-.36-.21L854.72,295A.76.76,0,0,1,854.45,294.59Zm3.84,5.07a.86.86,0,0,1,.32-.59l2.65-2.7a.85.85,0,0,1,.54-.33.59.59,0,0,1,.48.33l2.76,2.7a.87.87,0,0,1,.32.54.93.93,0,0,1-.32.54l-2.65,2.7a.57.57,0,0,1-1,0l-2.81-2.7A.69.69,0,0,1,858.29,299.66Z"/><path class="cls-2" d="M871.62,331.14a.9.9,0,0,1,.33-.59l2.86-2.92a.93.93,0,0,1,.54-.32.75.75,0,0,1,.54.32l2.92,2.92c.28.22.43.41.43.59s-.15.31-.43.6L876,334.6c-.22.22-.38.32-.49.32a.87.87,0,0,1-.54-.32l-3-2.86A.91.91,0,0,1,871.62,331.14Zm22.2-16.3V324h-.27a9.72,9.72,0,0,1-4.94-1.06,7.22,7.22,0,0,1-2.89-3.43,11.06,11.06,0,0,1-4.21,3.11A14.38,14.38,0,0,1,875.3,324h-.22v-9.18h.22a37.26,37.26,0,0,0,5.05-.33,10.05,10.05,0,0,0,3.53-1l-.48-2.38-.49-2.26,3.89-3.3a.63.63,0,0,1,.43-.21c.25,0,.41.16.49.48l.81,5.46a4.16,4.16,0,0,0,1.29,2.75,6.49,6.49,0,0,0,3.73.76Zm-14.2,16.3a.87.87,0,0,1,.32-.59l2.86-2.92a.93.93,0,0,1,.54-.32.75.75,0,0,1,.54.32l2.92,2.92c.29.22.43.41.43.59s-.14.31-.43.6L884,334.6c-.22.22-.38.32-.49.32a.87.87,0,0,1-.54-.32l-3-2.86A.89.89,0,0,1,879.62,331.14Z"/><path class="cls-2" d="M912.07,314.84V324h-.27a9.72,9.72,0,0,1-4.94-1.06,7.22,7.22,0,0,1-2.89-3.43,11,11,0,0,1-4.21,3.11,14.38,14.38,0,0,1-6.21,1.38h-.22v-9.18h.22a37.26,37.26,0,0,0,5.05-.33,10.05,10.05,0,0,0,3.53-1l-.48-2.38-.49-2.26,3.89-3.3a.63.63,0,0,1,.43-.21c.25,0,.42.16.49.48l.81,5.46a4.21,4.21,0,0,0,1.29,2.75,6.49,6.49,0,0,0,3.73.76Zm-18.41-16.31a.89.89,0,0,1,.32-.6l2.86-2.91a.9.9,0,0,1,.54-.33.73.73,0,0,1,.54.33l2.92,2.91c.29.22.43.42.43.6s-.14.3-.43.59L898,302c-.22.22-.38.33-.49.33A.9.9,0,0,1,897,302l-3-2.86A.86.86,0,0,1,893.66,298.53Zm8,0a.94.94,0,0,1,.32-.6l2.86-2.91a.9.9,0,0,1,.54-.33.73.73,0,0,1,.54.33l2.92,2.91c.29.22.43.42.43.6s-.14.3-.43.59L906,302c-.21.22-.38.33-.48.33A.85.85,0,0,1,905,302l-3-2.86A.9.9,0,0,1,901.65,298.53Z"/><path class="cls-2" d="M923.36,305.41a33,33,0,0,1,.81,7,18.79,18.79,0,0,1-.27,3.08,10.27,10.27,0,0,1-3.6,6q-2.88,2.43-8.07,2.43h-.65v-9.18h.22a34.36,34.36,0,0,0,5.37-.36,6.42,6.42,0,0,0,3-1q-1.95-3.4-4.91-8l4.69-5a1.66,1.66,0,0,1,1-.59c.29,0,.54.2.76.59A17,17,0,0,1,923.36,305.41ZM912.83,292.8a1,1,0,0,1,.37-.64l3.14-3.19c.25-.25.45-.38.59-.38a.86.86,0,0,1,.59.38l3.24,3.19c.29.28.44.5.44.64s-.15.36-.44.65l-3.13,3.19a.87.87,0,0,1-.54.32.9.9,0,0,1-.59-.32l-3.3-3.19A.87.87,0,0,1,912.83,292.8Z"/><path class="cls-2" d="M939.69,314.3a35.07,35.07,0,0,1,1.22,9.12c0,.51,0,1.23-.11,2.16a14.08,14.08,0,0,1-2.89,7.59,18.7,18.7,0,0,1-5.56,4.91,10.82,10.82,0,0,1-4.73,1.7c-.72,0-2-.56-3.7-1.7a27,27,0,0,1-4.4-3.48,1,1,0,0,1-.32-.65.79.79,0,0,1,.32-.59,1.59,1.59,0,0,1,.87-.33,35.79,35.79,0,0,0,7.37-1.81,29.91,29.91,0,0,0,5.88-2.8,10.09,10.09,0,0,0,3.22-2.89q-2-4.65-6.05-12.8l4.7-5c.43-.43.77-.65,1-.65s.52.23.81.7A29.68,29.68,0,0,1,939.69,314.3Zm-8.67-16a1.07,1.07,0,0,1,.38-.65l3.13-3.18c.25-.25.45-.38.6-.38a.86.86,0,0,1,.59.38l3.24,3.18c.29.29.43.51.43.65s-.14.36-.43.65l-3.13,3.19a.93.93,0,0,1-.54.32.9.9,0,0,1-.59-.32L931.4,299A.9.9,0,0,1,931,298.31Z"/><path class="cls-2" d="M967,314.84V324h-.22a6.85,6.85,0,0,1-2.75-.54c0,.46,0,1.17-.11,2.1a13.92,13.92,0,0,1-2.89,7.59,18.58,18.58,0,0,1-5.56,4.91,10.79,10.79,0,0,1-4.72,1.7c-.72,0-2-.56-3.7-1.7a26.18,26.18,0,0,1-4.4-3.48.93.93,0,0,1-.33-.65.77.77,0,0,1,.33-.59,1.56,1.56,0,0,1,.86-.33,35.63,35.63,0,0,0,7.37-1.81,30,30,0,0,0,5.89-2.8,10,10,0,0,0,3.21-2.89q-1.95-4.65-6-12.8l4.7-5c.43-.43.77-.65,1-.65s.52.23.81.7a8.69,8.69,0,0,1,.75,1.62l.06.11L962,311a20,20,0,0,0,1.27,2.59,2.64,2.64,0,0,0,1.16,1,6.06,6.06,0,0,0,2.22.3Z"/><path class="cls-2" d="M983.24,305.36a32.22,32.22,0,0,1,.81,7,19.35,19.35,0,0,1-.27,3.19Q982.22,324,969.9,324h-3.29v-9.18h3.24c2.66,0,4.79-.09,6.4-.25a9,9,0,0,0,3.8-1.1q-1.93-3.4-4.91-8l4.7-5a1.63,1.63,0,0,1,1-.59,1,1,0,0,1,.81.59A16.82,16.82,0,0,1,983.24,305.36ZM974.44,331a.9.9,0,0,1-.33.54l-2.64,2.7a.63.63,0,0,1-.49.27.6.6,0,0,1-.48-.27l-2.81-2.7a.61.61,0,0,1-.33-.49.87.87,0,0,1,.33-.59l2.64-2.7a.9.9,0,0,1,.54-.33.6.6,0,0,1,.49.33l2.75,2.7A.85.85,0,0,1,974.44,331Zm3.62,4.48a.74.74,0,0,1,.27.48.6.6,0,0,1-.27.44L975.52,339c-.15.15-.26.22-.35.22a.56.56,0,0,1-.35-.22l-2.6-2.53A.75.75,0,0,1,972,336a2,2,0,0,1,.27-.43l2.43-2.48a.81.81,0,0,1,.49-.22.6.6,0,0,1,.43.22Zm4.48-5a.87.87,0,0,1,.32.54.93.93,0,0,1-.32.54l-2.65,2.7a.6.6,0,0,1-.48.27.62.62,0,0,1-.49-.27l-2.81-2.7a.62.62,0,0,1-.32-.49.9.9,0,0,1,.32-.59l2.65-2.7a.85.85,0,0,1,.54-.33.59.59,0,0,1,.48.33Z"/><path class="cls-2" d="M1008.73,314.84V324h-.22a6.78,6.78,0,0,1-2.75-.54c0,.46,0,1.17-.11,2.1a14,14,0,0,1-2.89,7.59,18.58,18.58,0,0,1-5.56,4.91,10.82,10.82,0,0,1-4.73,1.7c-.72,0-2-.56-3.7-1.7a27,27,0,0,1-4.4-3.48,1,1,0,0,1-.32-.65.79.79,0,0,1,.32-.59,1.63,1.63,0,0,1,.87-.33,35.63,35.63,0,0,0,7.37-1.81,29.91,29.91,0,0,0,5.88-2.8,10,10,0,0,0,3.22-2.89q-2-4.65-6.05-12.8l4.7-5c.43-.43.77-.65,1-.65s.53.23.81.7a8.7,8.7,0,0,1,.76,1.62l0,.11.65,1.46a18.79,18.79,0,0,0,1.27,2.59,2.59,2.59,0,0,0,1.16,1,6.06,6.06,0,0,0,2.22.3Z"/><path class="cls-2" d="M1027,314.84V324h-.27a9.74,9.74,0,0,1-4.94-1.06,7.28,7.28,0,0,1-2.89-3.43,10.9,10.9,0,0,1-4.21,3.11,14.31,14.31,0,0,1-6.21,1.38h-.22v-9.18h.22a37.15,37.15,0,0,0,5-.33,10.18,10.18,0,0,0,3.54-1l-.49-2.38-.49-2.26,3.89-3.3a.65.65,0,0,1,.44-.21q.38,0,.48.48l.81,5.46a4.21,4.21,0,0,0,1.3,2.75,6.48,6.48,0,0,0,3.72.76Zm-18.41-16.31a.94.94,0,0,1,.32-.6l2.86-2.91a.9.9,0,0,1,.54-.33.73.73,0,0,1,.54.33l2.92,2.91c.29.22.43.42.43.6s-.14.3-.43.59L1013,302q-.32.33-.48.33a.85.85,0,0,1-.54-.33l-3-2.86A.9.9,0,0,1,1008.62,298.53Zm8,0a.91.91,0,0,1,.33-.6l2.86-2.91a.85.85,0,0,1,.54-.33.73.73,0,0,1,.54.33l2.91,2.91c.29.22.44.42.44.6s-.15.3-.44.59L1021,302c-.22.22-.38.33-.49.33a.85.85,0,0,1-.54-.33l-3-2.86A.87.87,0,0,1,1016.61,298.53Z"/><path class="cls-2" d="M1023.09,331.14a.9.9,0,0,1,.33-.59l2.86-2.92a.87.87,0,0,1,.54-.32.75.75,0,0,1,.54.32l2.91,2.92c.29.22.43.41.43.59s-.14.31-.43.6l-2.81,2.86c-.21.22-.37.32-.48.32a.83.83,0,0,1-.54-.32l-3-2.86A.91.91,0,0,1,1023.09,331.14Zm22.19-16.3V324H1045a9.77,9.77,0,0,1-4.94-1.06,7.28,7.28,0,0,1-2.89-3.43,10.9,10.9,0,0,1-4.21,3.11,14.31,14.31,0,0,1-6.21,1.38h-.21v-9.18h.21a37,37,0,0,0,5-.33,10.18,10.18,0,0,0,3.54-1l-.49-2.38-.48-2.26,3.88-3.3a.65.65,0,0,1,.44-.21q.38,0,.48.48l.81,5.46a4.21,4.21,0,0,0,1.3,2.75,6.48,6.48,0,0,0,3.72.76Zm-14.2,16.3a.9.9,0,0,1,.33-.59l2.86-2.92a.87.87,0,0,1,.54-.32.75.75,0,0,1,.54.32l2.91,2.92c.29.22.44.41.44.59s-.15.31-.44.6l-2.8,2.86c-.22.22-.38.32-.49.32a.87.87,0,0,1-.54-.32l-3-2.86A.91.91,0,0,1,1031.08,331.14Z"/><path class="cls-2" d="M1058.41,305.36a32.22,32.22,0,0,1,.81,7,19.35,19.35,0,0,1-.27,3.19Q1057.38,324,1045,324h-.16l0-9.18h.21c2.67,0,4.8-.09,6.4-.25a9.06,9.06,0,0,0,3.81-1.1q-2-3.4-4.91-8l4.69-5a1.65,1.65,0,0,1,1-.59,1,1,0,0,1,.81.59A16.82,16.82,0,0,1,1058.41,305.36Zm-13.34-11.75a.92.92,0,0,1,.32-.59l2.86-2.92a.93.93,0,0,1,.54-.32.75.75,0,0,1,.54.32l2.92,2.92c.29.22.43.41.43.59s-.14.31-.43.6l-2.81,2.86c-.21.22-.38.32-.48.32a.83.83,0,0,1-.54-.32l-3-2.86A.94.94,0,0,1,1045.07,293.61Zm8,0a.92.92,0,0,1,.32-.59l2.87-2.92a.87.87,0,0,1,.54-.32.75.75,0,0,1,.54.32l2.91,2.92c.29.22.43.41.43.59s-.14.31-.43.6l-2.81,2.86c-.21.22-.37.32-.48.32a.83.83,0,0,1-.54-.32l-3-2.86A.94.94,0,0,1,1053.06,293.61Z"/><path class="cls-2" d="M625.64,374.9a11.16,11.16,0,0,1,1.3,4.9,4.82,4.82,0,0,1-.2,1.44,2.82,2.82,0,0,1-.7,1.12,5.57,5.57,0,0,1-2.46,1.24,15.3,15.3,0,0,1-3.92.44,9.85,9.85,0,0,1-3.17-.39,2.53,2.53,0,0,1-1.53-1.32,6.5,6.5,0,0,1-.43-2.67c0-.48,0-.86,0-1.13l2.09.11v.44a2.12,2.12,0,0,0,.23,1.16,1.1,1.1,0,0,0,.84.43,16.46,16.46,0,0,0,2.09.09c.75,0,1.61,0,2.58-.13a8.18,8.18,0,0,0,2.29-.48,7.77,7.77,0,0,0-1.32-4.22,21.62,21.62,0,0,0-3.78-4.3l1.74-2.3A21.25,21.25,0,0,1,625.64,374.9Z"/><path class="cls-2" d="M639.79,380.73a3.67,3.67,0,0,1,.09.9v.78a3.75,3.75,0,0,1-.09.89c-.06.24-.13.36-.2.36h-.82a4.38,4.38,0,0,1-3.62-1.36v.11a7.49,7.49,0,0,1-2,5.08,19.52,19.52,0,0,1-6.33,4.35l-1.6-2.58a25.39,25.39,0,0,0,5.18-3,8.12,8.12,0,0,0,2.45-3l-1-8.49,2.58-.64.41,3.94a2.58,2.58,0,0,0,.59,1.54,2.12,2.12,0,0,0,1.24.61,15,15,0,0,0,2.17.11h.73C639.66,380.38,639.73,380.5,639.79,380.73Z"/><path class="cls-2" d="M650.49,380.73a3.67,3.67,0,0,1,.09.9v.78a3.75,3.75,0,0,1-.09.89c-.06.24-.13.36-.2.36a10.67,10.67,0,0,1-3.67-.46,2.37,2.37,0,0,1-1.5-1.54,3.26,3.26,0,0,1-1.94,1.54,11.43,11.43,0,0,1-3.59.46c-.08,0-.15-.12-.22-.36a3.26,3.26,0,0,1-.1-.89v-.78a4.33,4.33,0,0,1,.08-.88c.06-.24.14-.37.24-.37a9.62,9.62,0,0,0,4.32-.75l-.55-5.77,2.61-.23.34,6.17a3.55,3.55,0,0,0,1.4.45,18.37,18.37,0,0,0,2.58.13C650.36,380.38,650.43,380.5,650.49,380.73Zm-8.64,6.38,2.26,1.89-1.91,2.26L640,389.37Zm4.38,0,2.26,1.89-1.91,2.23-2.24-1.88Z"/><path class="cls-2" d="M659.1,374.13a13,13,0,0,1,1.34,5.85c0,1.33-.83,2.28-2.48,2.84a25.77,25.77,0,0,1-7.67.84c-.08,0-.15-.12-.22-.36a3.26,3.26,0,0,1-.1-.89v-.78a4.33,4.33,0,0,1,.08-.88c.06-.24.14-.37.24-.37q2.43,0,4.65-.21a13.19,13.19,0,0,0,3.32-.66,9.53,9.53,0,0,0-2-5.35,23.74,23.74,0,0,0-5.44-4.85l.12-2.73a63,63,0,0,1,9.74-4.35L661,365a77.12,77.12,0,0,0-7.34,3.13l.78.58A17.42,17.42,0,0,1,659.1,374.13Zm-2.4-11.61q-2.76,1.19-5.8,2.81l.08-2.26c1.86-1,3.7-1.84,5.54-2.61Z"/><path class="cls-2" d="M683.72,380.73a3.67,3.67,0,0,1,.09.9v.78a3.75,3.75,0,0,1-.09.89c-.05.24-.12.36-.2.36h-1.07a4.79,4.79,0,0,1,.11,1.1A5.14,5.14,0,0,1,680,389.4c-1.7,1.07-4.16,1.6-7.36,1.6q-4.12,0-5.62-1.64a5.34,5.34,0,0,1-1.49-3.67q0-1.37,1.39-9.28l2,.47c-.6,3.3-1,5.95-1.13,7.94a2.06,2.06,0,0,0,1.48,2.32,10.81,10.81,0,0,0,3.68.58,19.61,19.61,0,0,0,4.18-.39,6.92,6.92,0,0,0,3-1.41,2.69,2.69,0,0,0-.28-1.61,1.7,1.7,0,0,0-1.23-.55c-.6-.07-1.72-.1-3.37-.1h0l.66-3.28h7.63C683.6,380.38,683.67,380.5,683.72,380.73Z"/><path class="cls-2" d="M695.22,375.57a8,8,0,0,1,1.15,4.38,11.26,11.26,0,0,1-.38,2.93,3,3,0,0,1-.38.8,4.06,4.06,0,0,1-.81.79,2.07,2.07,0,0,1-1.3.64,1.6,1.6,0,0,1-.7-.17l-5.39-2.5a3.19,3.19,0,0,1-1.27.9,5.45,5.45,0,0,1-2,.32h-.58c-.08,0-.15-.12-.22-.36a3.26,3.26,0,0,1-.1-.89v-.78a3.67,3.67,0,0,1,.09-.88c.06-.24.13-.37.23-.37h1a4.65,4.65,0,0,0,1.23-.11,1.45,1.45,0,0,0,.72-.57,8.06,8.06,0,0,0,.8-1.55,11.86,11.86,0,0,1,1.93-3.19,3.47,3.47,0,0,1,2.71-1.19A3.67,3.67,0,0,1,695.22,375.57Zm-1,4.67a4.8,4.8,0,0,0-.65-2.54,2.2,2.2,0,0,0-2-1.06,2,2,0,0,0-1.51.86,10,10,0,0,0-1.36,2.51l5.16,2.32A5.68,5.68,0,0,0,694.25,380.24Z"/><path class="cls-2" d="M699.3,389.26a25.27,25.27,0,0,0,5.17-3,8,8,0,0,0,2.45-3l-.95-8.49,2.58-.64c.07.79.12,1.3.14,1.54.16,1.5.29,2.84.39,4s.16,2.06.16,2.69a7.53,7.53,0,0,1-2,5.08,19.69,19.69,0,0,1-6.34,4.35Z"/><path class="cls-2" d="M715.22,362.58l.23,21.08-2.26.32-.58-20.76Z"/><path class="cls-2" d="M728.93,380.73a3.67,3.67,0,0,1,.09.9v.78a3.75,3.75,0,0,1-.09.89c0,.24-.12.36-.2.36h-.81a4.41,4.41,0,0,1-3.63-1.36v.11a7.53,7.53,0,0,1-2,5.08,19.69,19.69,0,0,1-6.34,4.35l-1.59-2.58a25.27,25.27,0,0,0,5.17-3,8,8,0,0,0,2.45-3l-1-8.49,2.58-.64.4,3.94a2.58,2.58,0,0,0,.6,1.54,2.12,2.12,0,0,0,1.23.61,15.14,15.14,0,0,0,2.18.11h.72C728.81,380.38,728.88,380.5,728.93,380.73Z"/><path class="cls-2" d="M740,379.47a5.38,5.38,0,0,1-.57,2.09,3.24,3.24,0,0,1-1.39,1.26,6.59,6.59,0,0,1-2.54.68c-1.05.11-2.4.16-4,.16h-2.7c-.08,0-.15-.12-.22-.36a3.7,3.7,0,0,1-.1-.89v-.78a3.67,3.67,0,0,1,.09-.88c.06-.24.13-.37.23-.37q4.1,0,6-.13a11.72,11.72,0,0,0,2.9-.45,16,16,0,0,0,.15-1.85,16.37,16.37,0,0,1-3.28.32,13.67,13.67,0,0,1-2-.15,1.77,1.77,0,0,1-.8-.35A3.51,3.51,0,0,1,731,377a5.49,5.49,0,0,1-.49-1,1.93,1.93,0,0,1-.12-.83,13.68,13.68,0,0,1,1.29-5.2,3.7,3.7,0,0,1,3.53-2.28,3.77,3.77,0,0,1,3.82,2.47,14,14,0,0,1,1,5.42A37.61,37.61,0,0,1,740,379.47Zm-7.61-15.09-2.27-1.89,1.89-2.23,2.26,1.85Zm2.52,10.93a18.08,18.08,0,0,0,3-.23,6.46,6.46,0,0,0-.69-3.45,2.26,2.26,0,0,0-2-1.05,2.1,2.1,0,0,0-1.89,1.16,7.16,7.16,0,0,0-.69,3.37A11,11,0,0,0,734.88,375.31Zm1.83-11-2.24-1.89,1.89-2.23,2.26,1.88Z"/><path class="cls-2" d="M753.87,380.73a3.67,3.67,0,0,1,.09.9v.78a3.75,3.75,0,0,1-.09.89c0,.24-.12.36-.2.36H753a5.71,5.71,0,0,1-4.17-1.3c-.87-.87-1.34-2.37-1.39-4.5L747,363.22l2.64-.64.23,15.31a2.57,2.57,0,0,0,.7,1.83,2.51,2.51,0,0,0,1.85.66h1.28C753.75,380.38,753.82,380.5,753.87,380.73Z"/><path class="cls-2" d="M774.32,380.73a3.67,3.67,0,0,1,.09.9v.78a3.75,3.75,0,0,1-.09.89c-.06.24-.13.36-.2.36H770q-4.15,0-5.05-3.33c-1.18.69-2.24,1.27-3.17,1.72a16.77,16.77,0,0,1-3.24,1.15,16.34,16.34,0,0,1-4,.46h-.81c-.08,0-.15-.12-.22-.36a3.26,3.26,0,0,1-.1-.89v-.78a3.67,3.67,0,0,1,.09-.88c.06-.24.13-.37.23-.37h.81a14.15,14.15,0,0,0,3.77-.52,36.41,36.41,0,0,0,4-1.36c.6-.25,1.37-.61,2.29-1.07s1.64-.76,1.83-.82l.58-.2h-.17a20.22,20.22,0,0,1-3.77-1.19,11.91,11.91,0,0,0-3.48-.93,1.13,1.13,0,0,0-1.07.54,5,5,0,0,0-.53,1.41l-2-.35a7.87,7.87,0,0,1,1.19-3.26,2.77,2.77,0,0,1,2.41-1.12,6.9,6.9,0,0,1,1.82.32q1.11.32,2.82,1c1.62.6,3.06,1.07,4.3,1.42a13,13,0,0,0,3.5.52l-.64,2.9a8.35,8.35,0,0,0-2.28.51,17.53,17.53,0,0,0-2.39,1.14,2.31,2.31,0,0,0,1.55.9,17.74,17.74,0,0,0,3.15.2h2.76C774.19,380.38,774.26,380.5,774.32,380.73Zm-11.66,5.69,2.49,2.08L763.07,391l-2.44-2.06Z"/><path class="cls-2" d="M785,380.73a3.67,3.67,0,0,1,.09.9v.78a3.75,3.75,0,0,1-.09.89c-.06.24-.13.36-.2.36a10.67,10.67,0,0,1-3.67-.46,2.35,2.35,0,0,1-1.5-1.54,3.26,3.26,0,0,1-1.94,1.54,11.46,11.46,0,0,1-3.6.46c-.07,0-.15-.12-.21-.36a3.26,3.26,0,0,1-.1-.89v-.78a3.72,3.72,0,0,1,.08-.88c.06-.24.14-.37.23-.37a9.63,9.63,0,0,0,4.33-.75l-.56-5.77,2.61-.23.35,6.17a3.5,3.5,0,0,0,1.39.45,18.44,18.44,0,0,0,2.59.13C784.89,380.38,785,380.5,785,380.73Zm-6-10.21-2.47-2.08,2.06-2.47,2.49,2.09Z"/><path class="cls-2" d="M786.21,387.11l2.26,1.89-1.91,2.26-2.21-1.89Zm-1.61-3.81a3.26,3.26,0,0,1-.1-.89v-.78a4.33,4.33,0,0,1,.08-.88c.06-.24.14-.37.24-.37a19.62,19.62,0,0,0,3.08-.2,7.16,7.16,0,0,0,2.22-.69l-.66-6.65,2.63-.43.06.87q.18,3.77.18,6.12a3.34,3.34,0,0,1-1.77,3,8.7,8.7,0,0,1-2.68.95,16.5,16.5,0,0,1-3.06.3C784.74,383.66,784.67,383.54,784.6,383.3Zm8.25,5.67-1.92,2.23-2.23-1.88,1.89-2.24Z"/><path class="cls-2" d="M798.62,362.58l.23,21.08-2.26.32L796,363.22Z"/><path class="cls-2" d="M801.78,389.26a25.39,25.39,0,0,0,5.18-3,8.12,8.12,0,0,0,2.45-3l-1-8.49,2.58-.64c.08.79.13,1.3.15,1.54.15,1.5.28,2.84.39,4s.16,2.06.16,2.69a7.54,7.54,0,0,1-2,5.08,19.63,19.63,0,0,1-6.33,4.35Z"/><path class="cls-2" d="M826.63,374.9a11.18,11.18,0,0,1,1.31,4.9,4.82,4.82,0,0,1-.2,1.44,2.82,2.82,0,0,1-.7,1.12,5.56,5.56,0,0,1-2.47,1.24,15.21,15.21,0,0,1-3.91.44,10,10,0,0,1-3.18-.39,2.54,2.54,0,0,1-1.52-1.32,6.5,6.5,0,0,1-.43-2.67c0-.48,0-.86,0-1.13l2.08.11v.44a2.11,2.11,0,0,0,.24,1.16,1.1,1.1,0,0,0,.84.43,16.28,16.28,0,0,0,2.08.09c.76,0,1.62,0,2.59-.13a8.26,8.26,0,0,0,2.29-.48,7.77,7.77,0,0,0-1.32-4.22,21.38,21.38,0,0,0-3.79-4.3l1.74-2.3A21.25,21.25,0,0,1,826.63,374.9Z"/><path class="cls-2" d="M856,380.73a3.67,3.67,0,0,1,.09.9v.78a3.75,3.75,0,0,1-.09.89c-.06.24-.12.36-.2.36h-.67a6.88,6.88,0,0,1-2.57-.42,2.72,2.72,0,0,1-1.49-1.49l.18,3.33a3.92,3.92,0,0,1-2.51,3.8,14.79,14.79,0,0,1-6.54,1.28c-2.73,0-4.59-.55-5.6-1.66a5.31,5.31,0,0,1-1.51-3.68,25.64,25.64,0,0,1,.38-3.28q.38-2.37,1-6l2,.46c-.6,3.31-1,6-1.13,8a2.06,2.06,0,0,0,1.47,2.31,10.38,10.38,0,0,0,3.58.59,20.4,20.4,0,0,0,3.65-.32,8.24,8.24,0,0,0,2.9-1l-1.1-11.08,2.61-.58.38,4.2a2.45,2.45,0,0,0,.56,1.54,2.33,2.33,0,0,0,1.29.64,13.92,13.92,0,0,0,2.32.14h.76C855.83,380.38,855.89,380.5,856,380.73Zm-12.79-8.12-2.46-2.09,2.06-2.46,2.49,2.06Z"/><path class="cls-2" d="M880.05,380.73a3.67,3.67,0,0,1,.09.9v.78a3.75,3.75,0,0,1-.09.89c-.06.24-.13.36-.2.36h-1.42a4.93,4.93,0,0,1-2.18-.45,2.77,2.77,0,0,1-1.33-1.26,3.79,3.79,0,0,1-1.77,1.29,7.17,7.17,0,0,1-2.5.42,3.1,3.1,0,0,1-3.16-1.71,3.22,3.22,0,0,1-1.59,1.28,5.61,5.61,0,0,1-2.12.43,3,3,0,0,1-3.07-1.74q-1.2,1.74-5,1.74c-.08,0-.15-.12-.22-.36a3.26,3.26,0,0,1-.1-.89v-.78a3.67,3.67,0,0,1,.09-.88c.05-.24.13-.37.23-.37a8.57,8.57,0,0,0,3.8-.69l.05-4.47,2.38.06-.08,3.48c0,.7.15,1.14.52,1.33a3.93,3.93,0,0,0,1.77.29,3.25,3.25,0,0,0,2.2-.6l-.11-5.69,2.4-.06.12,5.89a2.52,2.52,0,0,0,1.65.46,6.26,6.26,0,0,0,2.9-.6l-.64-6.94,2.61-.46.32,5.8a3.17,3.17,0,0,0,.34,1.42,1.31,1.31,0,0,0,.76.61,5.83,5.83,0,0,0,1.4.17h1.71C879.92,380.38,880,380.5,880.05,380.73Zm-14.76-9.92L863.08,369l1.86-2.23,2.23,1.85Zm2.06-4.14-2.18-1.83,1.86-2.23,2.2,1.88Zm.06,2.23,1.85-2.2,2.21,1.85-1.86,2.21Z"/><path class="cls-2" d="M890.75,380.73a3.67,3.67,0,0,1,.09.9v.78a3.75,3.75,0,0,1-.09.89c-.06.24-.13.36-.2.36a10.67,10.67,0,0,1-3.67-.46,2.33,2.33,0,0,1-1.49-1.54,3.31,3.31,0,0,1-1.95,1.54,11.39,11.39,0,0,1-3.59.46c-.08,0-.15-.12-.22-.36a3.26,3.26,0,0,1-.1-.89v-.78a3.67,3.67,0,0,1,.09-.88c0-.24.13-.37.23-.37a9.62,9.62,0,0,0,4.32-.75l-.55-5.77,2.61-.23.35,6.17a3.44,3.44,0,0,0,1.39.45,18.37,18.37,0,0,0,2.58.13C890.62,380.38,890.69,380.5,890.75,380.73Zm-8.64,6.38,2.26,1.89-1.91,2.26-2.21-1.89Zm4.38,0,2.26,1.89-1.91,2.23-2.24-1.88Z"/><path class="cls-2" d="M901.45,380.73a3.67,3.67,0,0,1,.09.9v.78a3.75,3.75,0,0,1-.09.89c-.06.24-.12.36-.2.36a10.7,10.7,0,0,1-3.67-.46,2.33,2.33,0,0,1-1.49-1.54,3.31,3.31,0,0,1-2,1.54,11.39,11.39,0,0,1-3.59.46c-.08,0-.15-.12-.22-.36a3.26,3.26,0,0,1-.1-.89v-.78a3.67,3.67,0,0,1,.09-.88c0-.24.13-.37.23-.37a9.62,9.62,0,0,0,4.32-.75l-.55-5.77,2.61-.23.35,6.17a3.44,3.44,0,0,0,1.39.45,18.37,18.37,0,0,0,2.58.13C901.33,380.38,901.39,380.5,901.45,380.73Zm-8.26-10.64-2.27-1.91,1.89-2.24,2.26,1.89Zm4.35-.06-2.24-1.88,1.89-2.24,2.23,1.86Z"/><path class="cls-2" d="M908.53,372.41l.05.87q.18,3.77.18,6.12a3.34,3.34,0,0,1-1.77,3,8.7,8.7,0,0,1-2.68.95,16.5,16.5,0,0,1-3.06.3c-.08,0-.15-.12-.22-.36a3.26,3.26,0,0,1-.1-.89v-.78a3.67,3.67,0,0,1,.09-.88c.05-.24.13-.37.23-.37a19.67,19.67,0,0,0,3.09-.2,7,7,0,0,0,2.21-.69l-.66-6.65Zm-1.77-3-2.47-2.09,2.06-2.46,2.5,2.06Z"/><path class="cls-2" d="M907.34,389.26a25,25,0,0,0,5.17-3,8,8,0,0,0,2.45-3l-1-8.49,2.58-.64c.08.79.12,1.3.14,1.54.16,1.5.29,2.84.4,4s.16,2.06.16,2.69a7.54,7.54,0,0,1-2,5.08,19.58,19.58,0,0,1-6.34,4.35Zm9-21.17-2.06,2.49-2.47-2.09,2.06-2.46Z"/><path class="cls-2" d="M931.06,380.73a3.67,3.67,0,0,1,.09.9v.78a3.75,3.75,0,0,1-.09.89c-.06.24-.13.36-.2.36H930c-1.88,0-3.15-.48-3.8-1.45v.2a8,8,0,0,1-1.79,5,17.19,17.19,0,0,1-5.32,4.26l-1.56-2.58q5-2.75,6.35-5.83l-1-8.49,2.61-.64.44,3.94a2.4,2.4,0,0,0,.58,1.54,2.21,2.21,0,0,0,1.27.61,17,17,0,0,0,2.32.11h.76C930.93,380.38,931,380.5,931.06,380.73Z"/><path class="cls-2" d="M932.42,390.91l-2.2-1.85,1.86-2.24,2.23,1.89Zm-1.78-7.61a3.26,3.26,0,0,1-.1-.89v-.78a4.33,4.33,0,0,1,.08-.88c.06-.24.14-.37.24-.37a19.76,19.76,0,0,0,3.09-.2,7.09,7.09,0,0,0,2.21-.69l-.66-6.65,2.64-.43.05.87q.18,3.77.18,6.12a3.34,3.34,0,0,1-1.77,3,8.7,8.7,0,0,1-2.68.95,16.5,16.5,0,0,1-3.06.3C930.78,383.66,930.71,383.54,930.64,383.3Zm3.58,7.61,2.23,1.86L934.6,395l-2.21-1.86Zm4.38-2.26-1.86,2.23-2.2-1.85,1.86-2.24Z"/><path class="cls-2" d="M966.12,380.73a3.67,3.67,0,0,1,.09.9v.78a3.75,3.75,0,0,1-.09.89c-.06.24-.13.36-.2.36h-1.25a3.91,3.91,0,0,1-3.51-1.62l.06,3a4,4,0,0,1-2.38,3.82,14.19,14.19,0,0,1-6.49,1.26c-2.65,0-4.46-.55-5.41-1.64a5.46,5.46,0,0,1-1.44-3.7,20.63,20.63,0,0,1,.29-2.48c.19-1.23.4-2.49.61-3.78l.49-3,2,.46q-.95,5.52-1.13,8a2.05,2.05,0,0,0,1.38,2.32,9.42,9.42,0,0,0,3.41.58,19.57,19.57,0,0,0,3.56-.33,9,9,0,0,0,2.88-1l-.85-22.35,2.61-.64.29,15a2.63,2.63,0,0,0,.92,2.23,4.33,4.33,0,0,0,2.45.58h1.48C966,380.38,966.06,380.5,966.12,380.73Z"/><path class="cls-2" d="M976.82,380.73a3.67,3.67,0,0,1,.09.9v.78a3.75,3.75,0,0,1-.09.89c-.06.24-.12.36-.2.36a10.7,10.7,0,0,1-3.67-.46,2.33,2.33,0,0,1-1.49-1.54,3.31,3.31,0,0,1-2,1.54,11.39,11.39,0,0,1-3.59.46c-.08,0-.15-.12-.22-.36a3.26,3.26,0,0,1-.1-.89v-.78a3.67,3.67,0,0,1,.09-.88c0-.24.13-.37.23-.37a9.62,9.62,0,0,0,4.32-.75l-.55-5.77,2.61-.23.35,6.17a3.44,3.44,0,0,0,1.39.45,18.37,18.37,0,0,0,2.58.13C976.7,380.38,976.76,380.5,976.82,380.73Zm-8.26-10.64-2.27-1.91,1.89-2.24,2.26,1.89Zm4.35-.06-2.24-1.88,1.89-2.24,2.23,1.86Z"/><path class="cls-2" d="M978,387.11l2.26,1.89-1.91,2.26-2.21-1.89Zm-1.61-3.81a3.26,3.26,0,0,1-.1-.89v-.78a3.67,3.67,0,0,1,.09-.88c.05-.24.13-.37.23-.37a19.67,19.67,0,0,0,3.09-.2,7,7,0,0,0,2.21-.69l-.66-6.65,2.64-.43.06.87q.16,3.77.17,6.12a3.34,3.34,0,0,1-1.77,3,8.7,8.7,0,0,1-2.68.95,16.5,16.5,0,0,1-3.06.3C976.54,383.66,976.47,383.54,976.4,383.3Zm8.25,5.67-1.91,2.23-2.24-1.88,1.89-2.24Z"/><path class="cls-2" d="M995.21,380.73a4.33,4.33,0,0,1,.08.9v.78a4.44,4.44,0,0,1-.08.89q-.09.36-.21.36h-.69a5.72,5.72,0,0,1-4.18-1.3c-.87-.87-1.33-2.37-1.39-4.5l-.44-14.64,2.64-.64.24,15.31a2.56,2.56,0,0,0,.69,1.83,2.53,2.53,0,0,0,1.86.66H995C995.08,380.38,995.15,380.5,995.21,380.73Z"/><path class="cls-2" d="M1002.28,372.41l.06.87c.12,2.51.17,4.55.17,6.12a3.35,3.35,0,0,1-1.76,3,8.67,8.67,0,0,1-2.69.95,16.34,16.34,0,0,1-3.06.3c-.07,0-.15-.12-.21-.36a3.22,3.22,0,0,1-.11-.89v-.78a3.67,3.67,0,0,1,.09-.88c.06-.24.14-.37.23-.37a19.67,19.67,0,0,0,3.09-.2,7.16,7.16,0,0,0,2.22-.69l-.67-6.65Zm-4.58-4.06-2.23-1.89,1.88-2.23,2.26,1.86Zm4.38-.06-2.23-1.88,1.85-2.24,2.26,1.89Z"/><path class="cls-2" d="M1028.7,379.28a4.08,4.08,0,0,1-.45,2,3.25,3.25,0,0,1-1.49,1.29,11.65,11.65,0,0,1-3.53.93,44.92,44.92,0,0,1-5.55.29,24.81,24.81,0,0,1-5.29-.47,6.07,6.07,0,0,1-3.19-1.65,4.58,4.58,0,0,1-1.12-3.28,11.87,11.87,0,0,1,.15-1.65l.75-4.5,2,.44-.67,4a6.74,6.74,0,0,0-.08.93,2.29,2.29,0,0,0,.81,1.93,4.58,4.58,0,0,0,2.2.8,35.34,35.34,0,0,0,3.92.17q3.6,0,5.73-.15a15.28,15.28,0,0,0,3.52-.57l-.64-6.85,2.55-.55Q1028.7,376.07,1028.7,379.28Zm-10.79,7.8,2.5,2.09-2.09,2.47-2.44-2.06Z"/><path class="cls-2" d="M1039.84,380.73a3.74,3.74,0,0,1,.08.9v.78a3.81,3.81,0,0,1-.08.89q-.09.36-.21.36h-.69a5.72,5.72,0,0,1-4.18-1.3c-.87-.87-1.33-2.37-1.39-4.5l-.43-14.64,2.63-.64.24,15.31a2.61,2.61,0,0,0,.69,1.83,2.55,2.55,0,0,0,1.86.66h1.27C1039.71,380.38,1039.78,380.5,1039.84,380.73Z"/><path class="cls-2" d="M1059.41,379.83a3.23,3.23,0,0,1-1.4,2.9,6.17,6.17,0,0,1-3.47.93,3.09,3.09,0,0,1-3.16-1.71,3.24,3.24,0,0,1-1.6,1.28,5.57,5.57,0,0,1-2.11.43,3,3,0,0,1-3.08-1.74q-1.18,1.74-5,1.74c-.07,0-.15-.12-.21-.36a3.22,3.22,0,0,1-.11-.89v-.78a3.67,3.67,0,0,1,.09-.88c.06-.24.14-.37.23-.37a8.54,8.54,0,0,0,3.8-.69l.06-4.47,2.38.06-.09,3.48c0,.7.16,1.14.52,1.33a3.93,3.93,0,0,0,1.77.29,3.28,3.28,0,0,0,2.21-.6l-.12-5.69,2.41-.06.11,5.89a2.53,2.53,0,0,0,1.66.46,6.29,6.29,0,0,0,2.9-.6l-.64-6.94,2.61-.46Q1059.4,376.39,1059.41,379.83Z"/><path class="cls-2" d="M182.84,318.45c-1.58-2.75-5.81-2.9-7.89.92a10.61,10.61,0,0,1-3.41,4l-1.85-3.1,3.56-2-11.73-28.37a15.86,15.86,0,0,0,1.75-1.63c2.79-3,5.81-8.56,4.34-17.47-.51-2.7-.82-5.11.49-7.22,2.38-3.8,1.23-6.65-.48-7.94-3.13-2.36-6.69-.53-8.69,1.52l-.82-11.65A8,8,0,0,0,155.7,240a5.08,5.08,0,0,0-3.8-1.23,5,5,0,0,0-2.36.76l0-.48a8.13,8.13,0,0,0-2.52-5.6,4.91,4.91,0,0,0-3.73-1.18c-2.85.26-4.74,2.95-5.18,5.8a5,5,0,0,0-2.59-.43c-3.78.36-5.5,4.09-5.26,7.59l.39,5.53a4,4,0,0,0-1.82-.22c-3.13.36-5,3.26-4.67,7.4l1.23,17.42h0l0,.35a.44.44,0,0,1,0,.1c.7,8.32,4.15,13.13,7.34,15.84a17.84,17.84,0,0,1-.71,6.25c-1.49,5-5,8.68-10.31,10.87l-1.43.54-10.14,3.11,3.07,10.29,2.9-.36a12.41,12.41,0,0,0-.43,8.85c1,3.57,4.14,4,5.89,3.12,2.31-1.14,3.55-3.55,1.39-6.91-2.31-3.58-1.62-5.15-.95-5.79l.39,0,.89,2.82,1.17.07c.81.05,1.6.07,2.36.07,16,0,20.05-10.43,20.23-10.9a1.71,1.71,0,0,0-3.2-1.2c0,.09-3.6,9.09-18,8.67l-1.39-4.4L123,311.93h0c10.77-4.43,12.87-13.2,13.16-18a12.41,12.41,0,0,0,2.33.95,2.46,2.46,0,0,0,.37,0,1.73,1.73,0,0,0,1.67-1.35,1.7,1.7,0,0,0-1.3-2c-.1,0-9.47-2.69-10.43-16.41l-1.23-17.42c0-.36-.2-3.55,1.64-3.76a.77.77,0,0,1,.63.21,5.14,5.14,0,0,1,1.29,3.3l.74,10.54a1.71,1.71,0,0,0,3.41-.24l-.62-8.71h0l-1-14c-.1-1.49.39-3.78,2.17-4a1.52,1.52,0,0,1,1.22.37,4.91,4.91,0,0,1,1.31,3.25v0l1.17,16.49a1.7,1.7,0,0,0,1.7,1.58h.12a1.7,1.7,0,0,0,1.58-1.82l-1.5-21.32c-.13-1.84,1-3.84,2.17-4a1.51,1.51,0,0,1,1.2.38,4.89,4.89,0,0,1,1.33,3.24l1.5,21.31a1.71,1.71,0,1,0,3.41-.24l-1-14.18v-.06c-.1-1.46.38-3.82,2.13-4a1.73,1.73,0,0,1,1.32.41,4.86,4.86,0,0,1,1.25,3.21l1.5,21.25h0v0l.3,4.31,0,.19s0,.08,0,.12.06.18.1.27a0,0,0,0,1,0,0,1.71,1.71,0,0,0,1.26,1H158l.19,0h.12l.15,0,.17,0,.16-.06a1,1,0,0,0,.16-.06.57.57,0,0,0,.13-.08l.15-.09.11-.11.13-.11.09-.13.1-.14a.61.61,0,0,0,.07-.14.77.77,0,0,0,.07-.16,2055142501981.79,2055142501981.79,0,0,0,.08-.32,1.09,1.09,0,0,0,0-.18c0-.05,0-.09,0-.14,0-.71-.15-2.26-.23-3.4l-.08-1h0c-.21-3,.26-5.3,1.35-6.74.52-.69,2.83-3,4.6-1.65.76.57.63,1.84-.35,3.4-2.13,3.41-1.43,7.17-1,9.63,1.25,7.52-1.21,12.07-3.49,14.57a13.6,13.6,0,0,1-2.12,1.87,1.56,1.56,0,0,0-.34.23,11.23,11.23,0,0,1-6.72,2.08,1.71,1.71,0,1,0-.25,3.41c.26,0,.52,0,.79,0a14.14,14.14,0,0,0,6.51-1.76l7.59,18.34c-.31.65-1.3,2.1-4.08,2.66a1.71,1.71,0,0,0,.34,3.38l.34,0a9.72,9.72,0,0,0,4.89-2.4l1.23,3-1,.56h0l-4.51,2.52-2.85,1.59-16.46-22a1.72,1.72,0,0,0-2.39-.34,1.7,1.7,0,0,0-.34,2.39l16.18,21.61h0l8.81,11.77,9-5-1.3-2.18a15.55,15.55,0,0,0,6.07-2.36C183.66,323,183.7,319.93,182.84,318.45Z"/><path class="cls-2" d="M139.47,309.78a2,2,0,0,1-1.67,2.11,1.71,1.71,0,0,0,.31,3.39l.31,0a5.47,5.47,0,0,0,4.46-5.52,1.67,1.67,0,0,0-1.73-1.68A1.69,1.69,0,0,0,139.47,309.78Z"/><path class="cls-2" d="M140.58,267.35c-.9.24-1.44,1.54-1.2,2.89s1.17,2.26,2.07,2,1.44-1.54,1.2-2.89S141.48,267.11,140.58,267.35Z"/><path class="cls-2" d="M152.69,272.25c.91-.24,1.44-1.54,1.2-2.89s-1.17-2.25-2.07-2-1.44,1.54-1.2,2.89S151.79,272.5,152.69,272.25Z"/><path class="cls-2" d="M142.91,279.86a1.71,1.71,0,0,0,1.7,1.54h.17l5.7-.56-2-8.83a1.71,1.71,0,0,0-3.34.74l1.13,5.07-1.87.18A1.71,1.71,0,0,0,142.91,279.86Z"/><path class="cls-2" d="M141.77,285.38a1.71,1.71,0,0,0,.6,2.34,9.09,9.09,0,0,0,12.43-3.22,1.71,1.71,0,1,0-2.94-1.74,5.65,5.65,0,0,1-7.75,2A1.72,1.72,0,0,0,141.77,285.38Z"/><path class="cls-2" d="M165.27,411.81l-5.53-10.41-2.9.7-.2,11.79a1.27,1.27,0,0,0,1.26,1.3h0a1.28,1.28,0,0,0,1.28-1.26l0-1,3.33-.8.46.88a1.28,1.28,0,1,0,2.26-1.21Zm-6-1.51.07-4.2,2,3.7Z"/><path class="cls-2" d="M180.49,404.58l-5.89-10.15-2.21,1.28,1.28,7.32L168,398.28l-2.21,1.28,5.89,10.16a1.26,1.26,0,0,0,1.11.64,1.39,1.39,0,0,0,.64-.17,1.28,1.28,0,0,0,.46-1.75l-2.16-3.74,3,2.51,2.09-1.22-.67-3.85,2.16,3.73a1.28,1.28,0,0,0,2.22-1.29Z"/><path class="cls-2" d="M149.21,413.22h-3.85V403H142.8v12.8h6.41a1.28,1.28,0,1,0,0-2.56Z"/><path class="cls-2" d="M132.64,400.29l-6.38,9.92a1.28,1.28,0,1,0,2.15,1.38l.54-.83,3.26,1.07-.07,1a1.27,1.27,0,0,0,1.2,1.36h.08A1.29,1.29,0,0,0,134.7,413l.76-11.77Zm-2.26,8.24,2.27-3.53-.27,4.19Z"/><path class="cls-2" d="M117.58,406.62a3.63,3.63,0,0,1-3-5.69,1.28,1.28,0,1,1,2.11,1.46,1.06,1.06,0,0,0,1.75,1.21l.37-.53a1.07,1.07,0,0,0-.27-1.48,3.64,3.64,0,0,1-.93-5L118,396a3.63,3.63,0,0,1,6,4.12,1.28,1.28,0,1,1-2.11-1.45,1.08,1.08,0,0,0,.17-.8,1.07,1.07,0,0,0-1.93-.42l-.36.53a1,1,0,0,0-.17.8,1.06,1.06,0,0,0,.44.69,3.63,3.63,0,0,1,.93,5l-.37.53A3.61,3.61,0,0,1,117.58,406.62Z"/><rect class="cls-3" x="90.72" y="334.71" width="114.41" height="68.3"/><circle class="cls-2" cx="194.03" cy="391.06" r="3.42"/><path class="cls-2" d="M196.59,362v11.1a2.56,2.56,0,0,1-5.12,0V348.37h-8.54v24.76a11.1,11.1,0,0,0,22.2,0V362Z"/><path class="cls-2" d="M171,373.13a2.57,2.57,0,0,1-5.13,0V362h-8.53v11.1a2.57,2.57,0,0,1-5.13,0V362h-8.53v4.8a13.08,13.08,0,0,0-1.47-2.76h0l-5.28-7.54,4.05-5.78-7-4.9-2.27,3.24-3.94-5.63-7,4.9,5.72,8.17-5.28,7.54h0a12.91,12.91,0,0,0-2,4.61,11.95,11.95,0,1,0-22.29,8.48,12,12,0,0,0-6.18,10.46v4.27h8.54v-4.27a3.42,3.42,0,0,1,3.41-3.42h4.65c.16,0,.31,0,.48,0A12,12,0,0,0,119.42,375a12.79,12.79,0,0,0,24.46.34,11.08,11.08,0,0,0,17.71,6.5,11.07,11.07,0,0,0,17.92-8.73V362H171Zm-63.18,2.56v0h-.24a3.15,3.15,0,1,1,.24,0Zm23.9,0a4.33,4.33,0,0,1-4.27-4.27,4.29,4.29,0,0,1,.77-2.45l3.5-5,3.5,5a4.27,4.27,0,0,1-3.5,6.72Z"/><path class="cls-2" d="M945.39,555.42l-.35,1.31a.8.8,0,0,1-.84.64h-.84a.68.68,0,0,1-.76-.76V537.82a.68.68,0,0,1,.76-.76h1.45a.67.67,0,0,1,.75.76v6a3,3,0,0,1,2.93-1.83q3.22,0,3.22,4.18v7.31c0,2.78-1.07,4.18-3.22,4.18A3.12,3.12,0,0,1,945.39,555.42Zm3.36-9c0-1.36-.43-1.85-1.45-1.85a1.87,1.87,0,0,0-1.74,2.06v6.49a1.87,1.87,0,0,0,1.74,2.06c1,0,1.45-.49,1.45-1.85Z"/><path class="cls-2" d="M953.33,553.77v-.23a4.17,4.17,0,0,1,1.34-3.42,8.79,8.79,0,0,1,2.58-1.54c.52-.23.9-.41,1.16-.55a1.91,1.91,0,0,0,1.07-1.45v-.18c0-1.24-.49-1.88-1.51-1.88s-1.54.64-1.54,1.88v.35a.67.67,0,0,1-.75.75h-1.25a.68.68,0,0,1-.75-.78c0-3.13,1.48-4.7,4.41-4.7s4.35,1.6,4.35,4.76v5.68a34.37,34.37,0,0,0,.17,4.09c.09.56-.11.82-.66.82h-1.34a.74.74,0,0,1-.84-.64,6.81,6.81,0,0,1-.17-1.19,3.16,3.16,0,0,1-3.05,2.15Q953.33,557.69,953.33,553.77Zm6.15-.64V550l-.67.32a7.32,7.32,0,0,0-1.74,1,2.32,2.32,0,0,0-.81,2v.2c0,1.31.49,1.74,1.45,1.74A1.88,1.88,0,0,0,959.48,553.13Z"/><path class="cls-2" d="M964.26,553.13a.67.67,0,0,1,.76-.75h1.22a.67.67,0,0,1,.75.75v.29c0,1.28.52,1.92,1.54,1.92s1.56-.61,1.56-1.8v-.26c0-1-.66-1.45-2.2-2.12a7.66,7.66,0,0,1-2.41-1.45,4.16,4.16,0,0,1-1.22-3.34v0c0-2.88,1.6-4.3,4.41-4.3s4.35,1.45,4.35,4.38a.67.67,0,0,1-.75.76h-1.22a.67.67,0,0,1-.75-.76v-.11c0-1.28-.53-1.92-1.54-1.92s-1.57.61-1.57,1.8v.17a1.64,1.64,0,0,0,.67,1.37,7.16,7.16,0,0,0,1.54.81,7.16,7.16,0,0,1,2,1.07c1.07.73,1.57,1.77,1.65,3.69v.08c0,2.88-1.56,4.33-4.38,4.33S964.26,556.18,964.26,553.13Z"/><path class="cls-2" d="M974.5,553.77v-.23a4.19,4.19,0,0,1,1.33-3.42,9,9,0,0,1,2.59-1.54c.52-.23.9-.41,1.16-.55a1.91,1.91,0,0,0,1.07-1.45v-.18c0-1.24-.49-1.88-1.51-1.88s-1.54.64-1.54,1.88v.35a.67.67,0,0,1-.75.75H975.6a.68.68,0,0,1-.75-.78c0-3.13,1.48-4.7,4.41-4.7s4.35,1.6,4.35,4.76v5.68a34.37,34.37,0,0,0,.17,4.09c.09.56-.11.82-.66.82h-1.34a.74.74,0,0,1-.84-.64,6,6,0,0,1-.17-1.19,3.16,3.16,0,0,1-3,2.15Q974.5,557.69,974.5,553.77Zm6.15-.64V550l-.67.32a7.32,7.32,0,0,0-1.74,1,2.32,2.32,0,0,0-.81,2v.2c0,1.31.49,1.74,1.45,1.74A1.88,1.88,0,0,0,980.65,553.13Z"/><path class="cls-2" d="M988.8,556.61a.68.68,0,0,1-.76.76h-1.45a.67.67,0,0,1-.75-.76V537.82a.67.67,0,0,1,.75-.76H988a.68.68,0,0,1,.76.76Z"/><path class="cls-2" d="M990.68,553.77v-.23a4.17,4.17,0,0,1,1.34-3.42,8.79,8.79,0,0,1,2.58-1.54c.52-.23.9-.41,1.16-.55a1.91,1.91,0,0,0,1.07-1.45v-.18c0-1.24-.49-1.88-1.51-1.88s-1.53.64-1.53,1.88v.35a.68.68,0,0,1-.76.75h-1.25a.68.68,0,0,1-.75-.78c0-3.13,1.48-4.7,4.41-4.7s4.35,1.6,4.35,4.76v5.68a34.37,34.37,0,0,0,.17,4.09c.09.56-.11.82-.66.82H998a.74.74,0,0,1-.84-.64,6.81,6.81,0,0,1-.17-1.19,3.16,3.16,0,0,1-3.05,2.15Q990.68,557.69,990.68,553.77Zm6.15-.64V550l-.67.32a7.32,7.32,0,0,0-1.74,1,2.32,2.32,0,0,0-.81,2v.2c0,1.31.49,1.74,1.45,1.74A1.87,1.87,0,0,0,996.83,553.13Z"/><path class="cls-2" d="M1002.77,557.37a.67.67,0,0,1-.75-.76V543.1a.67.67,0,0,1,.75-.76H1004a.68.68,0,0,1,.76.76v1.24a3.06,3.06,0,0,1,3-2.32,2.67,2.67,0,0,1,2.87,2.21,3.18,3.18,0,0,1,3.08-2.21q3.13,0,3.13,4.18v10.41a.67.67,0,0,1-.75.76h-1.45a.68.68,0,0,1-.76-.76V546.4c0-1.39-.4-1.85-1.36-1.85s-1.65.87-1.65,2.06v10a.68.68,0,0,1-.76.76h-1.42a.67.67,0,0,1-.75-.76V546.4c0-1.39-.41-1.85-1.37-1.85s-1.65.87-1.65,2.06v10a.67.67,0,0,1-.75.76Z"/><path class="cls-2" d="M1019.94,557.37a.67.67,0,0,1-.75-.76v-2.9a.67.67,0,0,1,.75-.75h1.45a.67.67,0,0,1,.76.75v2.9a.68.68,0,0,1-.76.76Z"/><path class="cls-2" d="M1024.35,546.81q0-4.78,4.44-4.79t4.44,4.79v.61c0,.4-.26.61-.76.61h-1.22a.67.67,0,0,1-.75-.76v-.87c0-1.24-.52-1.85-1.6-1.85s-1.62.61-1.62,1.85v6.91c0,1.24.55,1.85,1.62,1.85s1.6-.61,1.6-1.85v-1.16a.67.67,0,0,1,.75-.76h1.22a.68.68,0,0,1,.76.76v.75q0,4.79-4.44,4.79t-4.44-4.79Z"/><path class="cls-2" d="M1034.94,552.9v-6.09c0-3.19,1.5-4.79,4.55-4.79s4.52,1.6,4.52,4.79v6.09c0,3.19-1.5,4.79-4.52,4.79S1034.94,556.09,1034.94,552.9Zm6.14.41V546.4c0-1.24-.52-1.85-1.59-1.85s-1.63.61-1.63,1.85v6.91c0,1.24.56,1.85,1.63,1.85S1041.08,554.55,1041.08,553.31Z"/><path class="cls-2" d="M1046.88,557.37a.67.67,0,0,1-.75-.76V543.1a.67.67,0,0,1,.75-.76h1.25a.67.67,0,0,1,.75.76v1.24a3.08,3.08,0,0,1,3-2.32,2.67,2.67,0,0,1,2.87,2.21,3.18,3.18,0,0,1,3.08-2.21q3.13,0,3.13,4.18v10.41a.67.67,0,0,1-.75.76h-1.45a.68.68,0,0,1-.76-.76V546.4c0-1.39-.4-1.85-1.36-1.85s-1.66.87-1.66,2.06v10a.67.67,0,0,1-.75.76h-1.42a.68.68,0,0,1-.76-.76V546.4c0-1.39-.4-1.85-1.36-1.85s-1.65.87-1.65,2.06v10a.68.68,0,0,1-.76.76Z"/></svg>