<svg id="Background" xmlns="http://www.w3.org/2000/svg" viewBox="0 0 648 648"><defs><style>.cls-1{fill:#fde9e1;}.cls-2{fill:#007a57;}.cls-3{fill:#961e2f;}</style></defs><rect class="cls-1" width="648" height="648"/><path d="M557.28,562.37H85.72V90.81a5,5,0,0,1,10,0V552.37H557.28a5,5,0,0,1,0,10Z"/><path d="M176.05,562.37a5,5,0,0,1-5-5V90.81a5,5,0,0,1,10,0V557.37A5,5,0,0,1,176.05,562.37Z"/><rect class="cls-2" x="154.26" y="178.37" width="43.6" height="136.43"/><rect class="cls-3" x="154.26" y="314.8" width="43.6" height="54.83"/><path d="M282.62,562.37a5,5,0,0,1-5-5v-381a5,5,0,0,1,10,0v381A5,5,0,0,1,282.62,562.37Z"/><rect class="cls-2" x="260.82" y="270.5" width="43.6" height="64.44"/><rect class="cls-3" x="260.82" y="334.93" width="43.6" height="126.82"/><path d="M389.19,537.71a5,5,0,0,1-5-5v-381a5,5,0,0,1,10,0v381A5,5,0,0,1,389.19,537.71Z"/><rect class="cls-2" x="367.39" y="245.84" width="43.6" height="64.44"/><rect class="cls-3" x="367.39" y="310.28" width="43.6" height="126.82"/><path d="M495.76,486.4a5,5,0,0,1-5-5v-381a5,5,0,1,1,10,0v381A5,5,0,0,1,495.76,486.4Z"/><rect class="cls-2" x="473.96" y="194.53" width="43.6" height="64.44"/><rect class="cls-3" x="473.96" y="258.97" width="43.6" height="14.87"/></svg>