<svg id="Background" xmlns="http://www.w3.org/2000/svg" viewBox="0 0 648 648"><defs><style>.cls-1{fill:#fde9e1;}.cls-2{fill:#ff5c35;}.cls-3{fill:#22346d;}.cls-4{fill:#2e87cc;}.cls-5{fill:#961e2f;}</style></defs><rect class="cls-1" width="648" height="648"/><path class="cls-2" d="M90.72,562.37a5,5,0,0,1-2.7-9.21l124.64-80.08a5,5,0,0,1,4.78-.34l59.45,27.11H395.28l159.64-81.51a5,5,0,0,1,4.55,8.91L398.75,509.3a5,5,0,0,1-2.27.55H275.8a5.11,5.11,0,0,1-2.07-.45l-58-26.43L93.42,561.57A4.94,4.94,0,0,1,90.72,562.37Z"/><path d="M557.28,562.37H85.72V90.81a5,5,0,0,1,10,0V552.37H557.28a5,5,0,0,1,0,10Z"/><path class="cls-3" d="M90.72,562.37a5,5,0,0,1-3.78-8.28L211.59,410.34a5,5,0,0,1,6.94-.59l57.23,46.84,114.48-96.08a5.2,5.2,0,0,1,1.79-1L555.78,311a5,5,0,0,1,2.84,9.59L395.87,368.84,279,466.91a5,5,0,0,1-6.38,0L216,420.56,94.5,560.64A5,5,0,0,1,90.72,562.37Z"/><path class="cls-4" d="M90.72,562.37a5,5,0,0,1-3.34-8.73L212,441.86a4.87,4.87,0,0,1,1.76-1l59.12-19.58,116.74-137a5.08,5.08,0,0,1,1.89-1.38l163.74-67.86a5,5,0,1,1,3.83,9.24L396.48,291.7,279.61,428.81a5,5,0,0,1-2.23,1.51L217.93,450,94.06,561.09A5,5,0,0,1,90.72,562.37Z"/><path class="cls-5" d="M90.72,562.37a5,5,0,0,1-4.56-7L210.8,277.69a5,5,0,0,1,8.79-.62l59,93.2h115L552.84,88.35a5,5,0,1,1,8.71,4.92L400.83,377.73a5,5,0,0,1-4.35,2.54H275.8a5,5,0,0,1-4.22-2.32l-55.47-87.67L95.28,559.42A5,5,0,0,1,90.72,562.37Z"/></svg>