<svg xmlns="http://www.w3.org/2000/svg" viewBox="0 0 1080 672"><g id="Layer_1" data-name="Layer 1"><path d="M393.71,269.88H362.33L331.2,390.25A13.5,13.5,0,0,0,357.34,397L360,386.88h36.12L398.7,397a13.5,13.5,0,0,0,13.06,10.11,13.64,13.64,0,0,0,3.39-.43,13.5,13.5,0,0,0,9.69-16.45Zm-26.77,90L378,317.06l11.08,42.82Z"/><path d="M672.71,269.88H641.33L610.2,390.25A13.5,13.5,0,0,0,636.34,397L639,386.88h36.12L677.7,397a13.5,13.5,0,0,0,13.06,10.11,13.64,13.64,0,0,0,3.39-.43,13.5,13.5,0,0,0,9.69-16.45Zm-26.77,90L657,317.06l11.08,42.82Z"/><path d="M843.79,269.88l-27,73.46-27-73.46h-27V393.63a13.5,13.5,0,1,0,27,0V348.15L804,386.88h25.5l14.25-38.73v45.48a13.5,13.5,0,1,0,27,0V269.88Z"/><path d="M243,294.63a11.26,11.26,0,0,1,11.25,11.25,13.5,13.5,0,0,0,27,0,38.25,38.25,0,1,0-76.5,0v6.75A38.29,38.29,0,0,0,243,350.88a11.26,11.26,0,0,1,11.25,11.25v6.75a11.25,11.25,0,0,1-22.5,0,13.5,13.5,0,0,0-27,0,38.25,38.25,0,1,0,76.5,0v-6.75A38.29,38.29,0,0,0,243,323.88a11.26,11.26,0,0,1-11.25-11.25v-6.75A11.27,11.27,0,0,1,243,294.63Z"/><path d="M551.27,377.88h-40.5v-108h-27v135h67.5a13.5,13.5,0,0,0,0-27Z"/></g></svg>