<svg xmlns="http://www.w3.org/2000/svg" viewBox="0 0 134 215"><defs><style>.cls-1{fill:none;}</style></defs><g id="Isolation_Mode" data-name="Isolation Mode"><path d="M109.31,101c-1.86-3.22-6.81-3.4-9.25,1.07a12.44,12.44,0,0,1-4,4.68l-2.17-3.63,4.17-2.32L84.34,67.57a20.31,20.31,0,0,0,2-1.9c3.27-3.58,6.81-10,5.08-20.46-.59-3.17-1-6,.58-8.46,2.79-4.45,1.44-7.8-.57-9.31-3.66-2.75-7.83-.62-10.17,1.78l-1-13.64a9.4,9.4,0,0,0-2.83-6.5,6.18,6.18,0,0,0-7.21-.55l0-.56a9.59,9.59,0,0,0-3-6.56A5.76,5.76,0,0,0,62.94,0c-3.34.3-5.56,3.45-6.07,6.79a5.88,5.88,0,0,0-3-.5c-4.42.42-6.44,4.79-6.15,8.89l.45,6.47A4.78,4.78,0,0,0,46,21.43c-3.67.41-5.82,3.81-5.47,8.67L42,50.5h0l0,.41A.5.5,0,0,0,42,51c.81,9.74,4.86,15.37,8.59,18.54a21.09,21.09,0,0,1-.83,7.33C48,82.77,44,87.06,37.71,89.63L36,90.26,24.15,93.91l3.6,12,3.4-.42a14.42,14.42,0,0,0-.5,10.37c1.19,4.18,4.84,4.66,6.89,3.65,2.71-1.33,4.16-4.16,1.63-8.09-2.71-4.2-1.89-6-1.11-6.78l.45-.06,1.05,3.31,1.37.09c1,0,1.87.08,2.76.08,18.68,0,23.49-12.22,23.69-12.77a2,2,0,1,0-3.74-1.4c0,.11-4.22,10.64-21.1,10.15l-1.63-5.16-1.76-5.56h0c12.62-5.19,15.07-15.46,15.41-21.12a14.22,14.22,0,0,0,2.74,1.11,2,2,0,0,0,2.38-1.52,2,2,0,0,0-1.53-2.38c-.11,0-11.08-3.15-12.21-19.22L44.52,29.81c0-.42-.23-4.16,1.92-4.4a.87.87,0,0,1,.74.25,6,6,0,0,1,1.51,3.86l.87,12.34a2,2,0,1,0,4-.28l-.72-10.2h0L51.67,14.93c-.13-1.75.45-4.43,2.54-4.63a1.87,1.87,0,0,1,1.43.43,5.79,5.79,0,0,1,1.53,3.81v0l1.37,19.31a2,2,0,0,0,2,1.86h.14a2,2,0,0,0,1.86-2.14l-1.76-25C60.61,6.48,61.89,4.14,63.3,4a1.83,1.83,0,0,1,1.42.44,5.78,5.78,0,0,1,1.55,3.8l1.76,25a2,2,0,1,0,4-.28L70.85,16.32v-.07c-.12-1.71.45-4.47,2.5-4.62a2,2,0,0,1,1.54.47,5.64,5.64,0,0,1,1.46,3.77l1.76,24.88h0v0l.36,5a1.46,1.46,0,0,0,0,.22l0,.14a1.21,1.21,0,0,0,.11.32s0,0,0,0a2,2,0,0,0,1.47,1.11h.1l.23,0h.14l.18,0,.19,0a1.06,1.06,0,0,0,.19-.06l.18-.07.16-.1.17-.11a1.49,1.49,0,0,0,.14-.12L82,47a.76.76,0,0,0,.11-.14l.12-.17.08-.16a1.42,1.42,0,0,0,.08-.18,1.8,1.8,0,0,0,0-.19,1.8,1.8,0,0,0,0-.19,1.55,1.55,0,0,0,0-.22c0-.05,0-.1,0-.16,0-.82-.17-2.65-.27-4l-.09-1.14v0c-.25-3.48.3-6.21,1.58-7.89.61-.81,3.32-3.5,5.39-1.94.88.67.73,2.16-.42,4-2.5,4-1.67,8.4-1.13,11.27C89,54.71,86.1,60,83.43,63A16.23,16.23,0,0,1,81,65.16a1.87,1.87,0,0,0-.4.27,13.21,13.21,0,0,1-7.87,2.44,2,2,0,0,0-.3,4c.31,0,.61,0,.93,0a16.69,16.69,0,0,0,7.63-2l8.88,21.48c-.36.75-1.52,2.45-4.77,3.11a2,2,0,0,0,.39,4,1.87,1.87,0,0,0,.4,0,11.37,11.37,0,0,0,5.73-2.81L93,99l-1.17.64h0l-5.28,2.95-3.34,1.87L64,78.75a2,2,0,0,0-3.2,2.4l19,25.31h0L90,120.25l10.58-5.9-1.52-2.55A18.29,18.29,0,0,0,106.2,109C110.27,106.27,110.31,102.73,109.31,101Z"/><path d="M58.5,90.85a2.4,2.4,0,0,1-2,2.47,2,2,0,0,0,.36,4l.37,0a6.42,6.42,0,0,0,5.22-6.47,2,2,0,0,0-2-2A2,2,0,0,0,58.5,90.85Z"/><path d="M59.81,41.15c-1.06.29-1.69,1.8-1.41,3.39s1.37,2.64,2.43,2.35,1.69-1.8,1.4-3.39S60.86,40.87,59.81,41.15Z"/><path d="M74,46.89c1.06-.28,1.69-1.8,1.41-3.39S74,40.87,73,41.15s-1.69,1.8-1.4,3.39S72.94,47.18,74,46.89Z"/><path d="M62.54,55.8a2,2,0,0,0,2,1.8h.2l6.68-.66L69.1,46.6a2,2,0,1,0-3.9.87l1.32,5.93-2.19.21A2,2,0,0,0,62.54,55.8Z"/><path d="M61.2,62.27A2,2,0,0,0,61.91,65a10.5,10.5,0,0,0,5.37,1.47,10.64,10.64,0,0,0,9.19-5.24,2,2,0,1,0-3.45-2,6.64,6.64,0,0,1-9.08,2.36A2,2,0,0,0,61.2,62.27Z"/><path d="M88.73,210.35l-6.49-12.19-3.39.81-.24,13.81a1.51,1.51,0,0,0,1.48,1.53h0a1.5,1.5,0,0,0,1.5-1.48l0-1.16,3.91-.94.54,1a1.5,1.5,0,0,0,2.65-1.41Zm-7-1.78.08-4.91L84.08,208Z"/><path d="M106.55,201.88,99.66,190l-2.6,1.5,1.5,8.57-6.69-5.56L89.28,196l6.89,11.9a1.5,1.5,0,0,0,1.3.75,1.59,1.59,0,0,0,.75-.2,1.51,1.51,0,0,0,.55-2L96.23,202,99.76,205l2.45-1.42-.79-4.51,2.54,4.37a1.5,1.5,0,0,0,2.59-1.51Z"/><path d="M69.91,212h-4.5V200h-3v15h7.5a1.5,1.5,0,0,0,0-3Z"/><path d="M50.5,196.85,43,208.47a1.5,1.5,0,0,0,2.53,1.62l.63-1L50,210.37l-.08,1.16a1.5,1.5,0,0,0,1.4,1.59h.1a1.51,1.51,0,0,0,1.5-1.41l.89-13.78Zm-2.64,9.66,2.66-4.14-.32,4.91Z"/><path d="M32.87,204.27a4.31,4.31,0,0,1-2.41-.75,4.25,4.25,0,0,1-1.08-5.91,1.5,1.5,0,1,1,2.47,1.7,1.25,1.25,0,1,0,2,1.42l.43-.62a1.25,1.25,0,0,0-.32-1.74,4.25,4.25,0,0,1-1.09-5.91l.43-.62a4.25,4.25,0,0,1,7,4.83A1.5,1.5,0,0,1,37.88,195a1.22,1.22,0,0,0,.2-.93,1.25,1.25,0,0,0-.52-.8,1.21,1.21,0,0,0-.94-.2,1.2,1.2,0,0,0-.8.51l-.43.62a1.25,1.25,0,0,0,.32,1.74,4.25,4.25,0,0,1,1.09,5.91l-.43.62A4.25,4.25,0,0,1,32.87,204.27Z"/><rect class="cls-1" y="120" width="134" height="80"/><circle cx="121" cy="186" r="4"/><path d="M124,152v13a3,3,0,0,1-6,0V136H108v29a13,13,0,0,0,26,0V152Z"/><path d="M94,165a3,3,0,0,1-6,0V152H78v13a3,3,0,0,1-6,0V152H62v5.72a15.43,15.43,0,0,0-1.71-3.33h0l-6.19-8.83,4.75-6.78-8.19-5.74L48,136.85l-4.62-6.59L35.19,136l6.71,9.58-6.19,8.83h0a15,15,0,0,0-2.34,5.46A14,14,0,0,0,6,164a13.85,13.85,0,0,0,1.24,5.72A14,14,0,0,0,0,182v4H10v-4a4,4,0,0,1,4-4h5.42c.19,0,.38,0,.58,0a14,14,0,0,0,13.61-10.79,15,15,0,0,0,28.66.41A13,13,0,0,0,83,175.23,13,13,0,0,0,104,165V152H94Zm-74,3v0h-.29a3.77,3.77,0,1,1,.29,0Zm28,0a5.07,5.07,0,0,1-5-5,5,5,0,0,1,.9-2.87h0l4.1-5.85,4.1,5.85h0A5,5,0,0,1,53,163,5.07,5.07,0,0,1,48,168Z"/><rect class="cls-1" y="120" width="134" height="80"/></g></svg>