<svg xmlns="http://www.w3.org/2000/svg" viewBox="0 0 672 672"><g id="Isolation_Mode" data-name="Isolation Mode"><path d="M417.5,319.72v37.5a7.5,7.5,0,0,1-15,0v-37.5h-30v37.5a7.5,7.5,0,0,1-15,0v-37.5h-30v37.5a37.43,37.43,0,0,0,60,29.93,37.43,37.43,0,0,0,60-29.93v-37.5Z"/><path d="M157.5,314.72A39.94,39.94,0,0,0,121,371a40,40,0,0,0-18.51,33.69v10h30v-10a10,10,0,0,1,10-10h15a40,40,0,0,0,0-80Zm0,50h0a10,10,0,1,1,10-10A10,10,0,0,1,157.49,364.72Z"/><path d="M262.5,394.72a42.5,42.5,0,0,1-34.82-66.87l16.51-23.58-20.77-29.65L248,257.41l14.5,20.71,8.43-12,24.58,17.21-14.7,21,16.5,23.57a42.5,42.5,0,0,1-34.81,66.88Zm0-64.29-10.24,14.62a12.42,12.42,0,0,0-2.26,7.17,12.5,12.5,0,0,0,25,0,12.42,12.42,0,0,0-2.26-7.17Z"/><path d="M527.5,319.72v37.5a7.5,7.5,0,0,1-15,0v-82.5h-30v82.5a37.5,37.5,0,0,0,75,0v-37.5Z"/><circle cx="520" cy="414.83" r="10"/></g></svg>