<svg xmlns="http://www.w3.org/2000/svg" viewBox="0 0 85 119.27"><g id="Isolation_Mode" data-name="Isolation Mode"><path d="M84.46,100.18c-1.84-3.2-6.75-3.37-9.17,1.06a12.39,12.39,0,0,1-4,4.64l-2.15-3.6L73.32,100,59.69,67a17.28,17.28,0,0,0,2-1.89c3.25-3.55,6.76-9.95,5-20.29-.59-3.14-1-5.94.58-8.39,2.76-4.42,1.42-7.73-.57-9.23C63.14,24.48,59,26.6,56.69,29l-1-13.52A9.35,9.35,0,0,0,52.92,9a6.11,6.11,0,0,0-7.15-.54l0-.56A9.49,9.49,0,0,0,42.8,1.39,5.72,5.72,0,0,0,38.47,0c-3.31.3-5.51,3.42-6,6.74a5.77,5.77,0,0,0-3-.5c-4.39.41-6.39,4.75-6.11,8.82l.46,6.41a4.75,4.75,0,0,0-2.12-.24c-3.64.4-5.77,3.78-5.43,8.59l1.43,20.24h0l0,.4a.5.5,0,0,0,0,.12c.81,9.66,4.83,15.25,8.53,18.39a21,21,0,0,1-.83,7.27c-1.72,5.82-5.77,10.08-12,12.63l-1.66.63L0,93.14l3.57,11.94,3.37-.41A14.36,14.36,0,0,0,6.44,115c1.19,4.14,4.81,4.62,6.84,3.62,2.69-1.32,4.13-4.13,1.61-8-2.68-4.17-1.87-6-1.1-6.72l.45-.06,1,3.28,1.36.09c.94,0,1.86.08,2.74.08,18.53,0,23.3-12.13,23.5-12.67a2,2,0,0,0-3.72-1.39c0,.11-4.18,10.56-20.92,10.08l-1.62-5.12L14.88,92.6h0c12.51-5.15,14.94-15.33,15.28-21a14.48,14.48,0,0,0,2.71,1.1,1.63,1.63,0,0,0,.43.05,2,2,0,0,0,.43-3.92c-.11,0-11-3.12-12.12-19.06L20.2,29.57c0-.42-.23-4.13,1.91-4.37a.89.89,0,0,1,.73.25,6,6,0,0,1,1.5,3.83l.86,12.24a2,2,0,0,0,4-.28l-.72-10.11h0L27.29,14.81c-.12-1.74.45-4.4,2.53-4.59a1.75,1.75,0,0,1,1.41.43,5.65,5.65,0,0,1,1.52,3.77v0l1.36,19.16a2,2,0,0,0,2,1.84h.14a2,2,0,0,0,1.84-2.12L36.32,8.57C36.17,6.42,37.44,4.1,38.83,4a1.77,1.77,0,0,1,1.41.44,5.68,5.68,0,0,1,1.53,3.76l1.75,24.76a2,2,0,1,0,4-.28L46.32,16.19v-.07c-.12-1.7.45-4.44,2.48-4.59a2,2,0,0,1,1.53.47,5.7,5.7,0,0,1,1.45,3.74l1.74,24.68h0v0l.35,5c0,.08,0,.15,0,.22s0,.09,0,.14a2,2,0,0,0,.12.31.06.06,0,0,0,0,0,2,2,0,0,0,1.46,1.1h.1l.23,0H56l.17,0,.2,0,.18-.07a1,1,0,0,0,.18-.07l.17-.1.16-.1.14-.13a.86.86,0,0,0,.14-.13l.11-.15a.91.91,0,0,0,.11-.16,1.29,1.29,0,0,0,.09-.16c0-.06.06-.12.08-.18s0-.13.05-.19,0-.12,0-.19a1.48,1.48,0,0,0,0-.21.43.43,0,0,0,0-.16c0-.82-.17-2.63-.27-4l-.08-1.13v0c-.25-3.45.29-6.16,1.56-7.83.61-.8,3.29-3.47,5.35-1.92.88.66.72,2.14-.41,4-2.48,4-1.66,8.33-1.13,11.18,1.45,8.73-1.4,14-4.05,16.92a15.49,15.49,0,0,1-2.47,2.17,2.14,2.14,0,0,0-.39.28,13.13,13.13,0,0,1-7.81,2.42,2,2,0,1,0-.29,4c.3,0,.61,0,.91,0a16.59,16.59,0,0,0,7.58-2l8.81,21.3c-.36.75-1.51,2.44-4.74,3.09a2,2,0,0,0,.39,3.93,2.58,2.58,0,0,0,.39,0,11.29,11.29,0,0,0,5.69-2.79l1.43,3.47-1.15.64h0l-5.24,2.93-3.31,1.84L39.48,78.11a2,2,0,0,0-3.18,2.37l18.8,25.11h0l10.24,13.68,10.49-5.85-1.51-2.53a18.07,18.07,0,0,0,7.06-2.75C85.41,105.4,85.45,101.89,84.46,100.18Z"/><path d="M34.07,90.11a2.36,2.36,0,0,1-1.93,2.44,2,2,0,0,0,.35,3.94,2.19,2.19,0,0,0,.36,0A6.36,6.36,0,0,0,38,90a2,2,0,0,0-2-2A2,2,0,0,0,34.07,90.11Z"/><path d="M35.36,40.81c-1,.29-1.67,1.79-1.39,3.36s1.36,2.62,2.41,2.34,1.67-1.79,1.39-3.36S36.41,40.53,35.36,40.81Z"/><path d="M49.44,46.51c1.05-.28,1.67-1.79,1.39-3.36s-1.36-2.62-2.41-2.34S46.75,42.6,47,44.17,48.39,46.79,49.44,46.51Z"/><path d="M38.07,55.34a2,2,0,0,0,2,1.79h.2l6.63-.65L44.59,46.22a2,2,0,1,0-3.88.86L42,53l-2.17.21A2,2,0,0,0,38.07,55.34Z"/><path d="M36.75,61.76a2,2,0,0,0,.7,2.71,10.54,10.54,0,0,0,14.44-3.74,2,2,0,0,0-3.42-2,6.58,6.58,0,0,1-9,2.33A2,2,0,0,0,36.75,61.76Z"/></g></svg>