<svg xmlns="http://www.w3.org/2000/svg" viewBox="0 0 134 185"><defs><style>.cls-1{fill:none;}</style></defs><g id="Isolation_Mode" data-name="Isolation Mode"><path d="M97.63,75.75c-1.39-2.42-5.1-2.55-6.93.8a9.46,9.46,0,0,1-3,3.52l-1.63-2.73,3.13-1.74L78.9,50.68a14.82,14.82,0,0,0,1.54-1.43c2.45-2.68,5.1-7.52,3.81-15.35-.45-2.37-.72-4.48.43-6.34,2.1-3.34,1.08-5.84-.42-7-2.75-2.07-5.88-.46-7.63,1.34l-.72-10.23a7.08,7.08,0,0,0-2.13-4.88,4.46,4.46,0,0,0-3.33-1.08,4.53,4.53,0,0,0-2.08.67l0-.42a7.14,7.14,0,0,0-2.21-4.93,4.37,4.37,0,0,0-3.27-1c-2.51.23-4.18,2.6-4.56,5.11A4.36,4.36,0,0,0,56,4.74c-3.32.31-4.84,3.59-4.62,6.67l.34,4.85a3.61,3.61,0,0,0-1.6-.19c-2.75.31-4.36,2.86-4.1,6.5l1.1,15.61v0c.6,7.34,3.65,11.58,6.45,14,.18,2.26.19,11-9.68,15l-1.25.47-8.92,2.74,2.71,9L39,79.15a10.89,10.89,0,0,0-.37,7.78c.89,3.13,3.63,3.49,5.17,2.73,2-1,3.12-3.12,1.22-6.06-2-3.16-1.42-4.53-.83-5.09l.34,0L45.32,81l1,.06c.71,0,1.4.07,2.07.07,14,0,17.62-9.17,17.77-9.58a1.5,1.5,0,0,0-2.81-1.06c-.13.33-3.24,8-15.83,7.62l-1.95-6.2L45,70h0c9.46-3.9,11.3-11.6,11.56-15.85a10.6,10.6,0,0,0,2,.84L59,55a1.5,1.5,0,0,0,.32-3c-.08,0-8.31-2.36-9.16-14.42h0L49,22.36c0-.32-.17-3.12,1.44-3.31a.73.73,0,0,1,.56.19,4.52,4.52,0,0,1,1.13,2.9l.11,1.61h0l.54,7.65a1.52,1.52,0,0,0,1.6,1.39,1.5,1.5,0,0,0,1.39-1.61l-.65-9.25h0L54.4,11.2c-.09-1.32.34-3.32,1.91-3.47a1.37,1.37,0,0,1,1.07.32,4.35,4.35,0,0,1,1.15,2.86h0l1,14.49a1.51,1.51,0,0,0,1.5,1.4h.11a1.5,1.5,0,0,0,1.39-1.6L61.23,6.48c-.12-1.62.84-3.38,1.9-3.47a1.32,1.32,0,0,1,1.06.33,4.29,4.29,0,0,1,1.16,2.85l1.32,18.72a1.5,1.5,0,0,0,3-.21l-.88-12.45v-.06c-.09-1.28.34-3.36,1.87-3.47a1.46,1.46,0,0,1,1.16.36,4.28,4.28,0,0,1,1.1,2.82L74.5,34.38v0a1.48,1.48,0,0,0,.14.52v0a1.51,1.51,0,0,0,.32.43h0a1.56,1.56,0,0,0,.46.29h0a1.35,1.35,0,0,0,.53.1h.13l.12,0,.16,0,.13,0,.15-.06.11-.06.13-.09a.87.87,0,0,0,.11-.09l.11-.1.08-.11.09-.12.06-.13.06-.14,0-.13a.83.83,0,0,0,0-.15.66.66,0,0,0,0-.14c0-.05,0-.09,0-.14,0-.6-.13-2-.21-2.95l-.06-.9c-.19-2.62.22-4.66,1.18-5.93.46-.6,2.49-2.62,4-1.45.67.5.55,1.62-.31,3-1.87,3-1.25,6.3-.85,8.46,1.1,6.6-1.06,10.6-3.07,12.8a12.35,12.35,0,0,1-1.86,1.64,1.61,1.61,0,0,0-.3.21,9.86,9.86,0,0,1-5.9,1.82,1.52,1.52,0,0,0-1.61,1.39,1.5,1.5,0,0,0,1.39,1.6l.69,0a12.5,12.5,0,0,0,5.73-1.54L83,68.49c-.27.56-1.14,1.84-3.58,2.33a1.5,1.5,0,0,0,.29,3,1.53,1.53,0,0,0,.3,0,8.44,8.44,0,0,0,4.3-2.11l1.08,2.63-7.23,4-.11.06L63.62,59.06a1.5,1.5,0,0,0-2.41,1.8l16,21.41h0l5.93,7.92,7.94-4.42L90,83.85a13.72,13.72,0,0,0,5.34-2.08C98.35,79.7,98.38,77.05,97.63,75.75Z"/><path d="M61,66.61a1.5,1.5,0,0,0-1.47,1.52A1.8,1.8,0,0,1,58.07,70a1.5,1.5,0,0,0,.26,3,1.32,1.32,0,0,0,.28,0,4.82,4.82,0,0,0,3.92-4.85A1.51,1.51,0,0,0,61,66.61Z"/><path d="M60.51,30.86c-.8.22-1.27,1.35-1.06,2.54s1,2,1.82,1.77,1.27-1.35,1.06-2.54S61.3,30.65,60.51,30.86Z"/><path d="M71.15,35.17c.79-.22,1.26-1.35,1-2.54s-1-2-1.82-1.77-1.27,1.35-1,2.54S70.35,35.38,71.15,35.17Z"/><path d="M62.55,41.85A1.5,1.5,0,0,0,64,43.2h.15l5-.5L67.48,35a1.5,1.5,0,0,0-2.93.65l1,4.45-1.64.16A1.51,1.51,0,0,0,62.55,41.85Z"/><path d="M61.55,46.7a1.5,1.5,0,0,0,.53,2,8,8,0,0,0,4,1.11,8.15,8.15,0,0,0,2-.26A7.9,7.9,0,0,0,73,45.92a1.5,1.5,0,1,0-2.58-1.52,5,5,0,0,1-6.82,1.77A1.5,1.5,0,0,0,61.55,46.7Z"/><path d="M87.32,180.35l-6.49-12.19-3.39.81-.24,13.81a1.51,1.51,0,0,0,1.48,1.53h0a1.5,1.5,0,0,0,1.49-1.48l0-1.16,3.91-.94.54,1a1.5,1.5,0,0,0,2.65-1.41Zm-7-1.78.08-4.91L82.67,178Z"/><path d="M105.14,171.88,98.25,160l-2.59,1.5,1.49,8.57-6.69-5.56L87.87,166l6.89,11.9a1.5,1.5,0,0,0,1.3.75,1.56,1.56,0,0,0,.75-.2,1.51,1.51,0,0,0,.55-2L94.82,172,98.35,175l2.45-1.42L100,169l2.54,4.37a1.5,1.5,0,0,0,2.59-1.51Z"/><path d="M68.5,182H64V170H61v15h7.5a1.5,1.5,0,0,0,0-3Z"/><path d="M49.09,166.85l-7.47,11.62a1.5,1.5,0,0,0,2.53,1.62l.63-1,3.81,1.26-.08,1.16a1.5,1.5,0,0,0,1.4,1.59H50a1.5,1.5,0,0,0,1.5-1.41l.89-13.78Zm-2.64,9.66,2.66-4.14-.32,4.91Z"/><path d="M31.46,174.27A4.25,4.25,0,0,1,28,167.61a1.5,1.5,0,1,1,2.47,1.7,1.25,1.25,0,1,0,2.06,1.42l.42-.62a1.25,1.25,0,0,0-.32-1.74,4.23,4.23,0,0,1-1.08-5.91l.42-.62a4.25,4.25,0,0,1,7,4.83A1.5,1.5,0,0,1,36.47,165a1.22,1.22,0,0,0,.2-.93,1.25,1.25,0,0,0-.52-.8,1.26,1.26,0,0,0-1.74.31l-.43.62a1.3,1.3,0,0,0-.2.94,1.25,1.25,0,0,0,.52.8,4.25,4.25,0,0,1,1.09,5.91l-.42.62A4.28,4.28,0,0,1,31.46,174.27Z"/><rect class="cls-1" y="90" width="134" height="80"/><circle cx="121" cy="156" r="4"/><path d="M124,122v13a3,3,0,0,1-6,0V106H108v29a13,13,0,0,0,26,0V122Z"/><path d="M94,135a3,3,0,0,1-6,0V122H78v13a3,3,0,0,1-6,0V122H62v5.72a15.43,15.43,0,0,0-1.71-3.33h0l-6.19-8.83,4.75-6.78-8.19-5.74L48,106.85l-4.62-6.59L35.19,106l6.71,9.58-6.19,8.83h0a15,15,0,0,0-2.34,5.46A14,14,0,0,0,6,134a13.85,13.85,0,0,0,1.24,5.72A14,14,0,0,0,0,152v4H10v-4a4,4,0,0,1,4-4h5.42c.19,0,.38,0,.58,0a14,14,0,0,0,13.61-10.79,15,15,0,0,0,28.66.41A13,13,0,0,0,83,145.23,13,13,0,0,0,104,135V122H94Zm-74,3v0h-.29a3.77,3.77,0,1,1,.29,0Zm28,0a5.07,5.07,0,0,1-5-5,5,5,0,0,1,.9-2.87h0l4.1-5.85,4.1,5.85h0A5,5,0,0,1,53,133,5.07,5.07,0,0,1,48,138Z"/><rect class="cls-1" y="90" width="134" height="80"/></g></svg>