<svg xmlns="http://www.w3.org/2000/svg" viewBox="0 0 672 672"><defs><style>.cls-1{fill:none;stroke:#ff5d3e;stroke-miterlimit:10;}</style></defs><g id="Layer_1" data-name="Layer 1"><rect class="cls-1" x="145.88" y="201.57" width="380.24" height="268.86"/></g><g id="Isolation_Mode" data-name="Isolation Mode"><circle cx="417" cy="374.81" r="6"/><path d="M421.5,323.81v19.5a4.5,4.5,0,0,1-9,0v-43.5h-15v43.5a19.5,19.5,0,0,0,39,0v-19.5Z"/><path d="M376.5,343.31a4.5,4.5,0,0,1-9,0v-19.5h-15v19.5a4.5,4.5,0,0,1-9,0v-19.5h-15v8.44a22.57,22.57,0,0,0-2.57-4.85h0l-9.27-13.24L323.77,304l-12.28-8.6-4,5.69-6.93-9.89-12.28,8.6,10,14.37-9.27,13.24h0a22.54,22.54,0,0,0-3.54,8.1,21,21,0,1,0-39.18,14.89,21,21,0,0,0-10.85,18.38v7.5h15v-7.5a6,6,0,0,1,6-6h8.16c.28,0,.56,0,.84,0a21,21,0,0,0,20.42-16.18,22.49,22.49,0,0,0,43,.61A19.47,19.47,0,0,0,360,358.65a19.47,19.47,0,0,0,31.5-15.34v-19.5h-15Zm-111,4.5v0h-.42a5.68,5.68,0,1,1,.42,0Zm42,0a7.6,7.6,0,0,1-7.5-7.5,7.44,7.44,0,0,1,1.36-4.3l6.14-8.78,6.14,8.78a7.44,7.44,0,0,1,1.36,4.3A7.6,7.6,0,0,1,307.5,347.81Z"/></g></svg>