<svg xmlns="http://www.w3.org/2000/svg" viewBox="0 0 134 84.75"><defs><style>.cls-1{fill:none;}</style></defs><g id="Isolation_Mode" data-name="Isolation Mode"><path d="M87.32,80.1,80.83,67.9l-3.39.82L77.2,82.53a1.5,1.5,0,0,0,1.48,1.52h0a1.49,1.49,0,0,0,1.49-1.47l0-1.16,3.91-.94.54,1a1.5,1.5,0,1,0,2.65-1.41Zm-7-1.78.08-4.92,2.31,4.34Z"/><path d="M105.14,71.63l-6.89-11.9-2.59,1.51,1.49,8.56-6.69-5.55-2.59,1.5,6.89,11.9a1.49,1.49,0,0,0,1.3.74,1.46,1.46,0,0,0,.75-.2,1.5,1.5,0,0,0,.55-2l-2.54-4.37,3.53,2.93,2.45-1.42L100,68.76l2.54,4.37a1.5,1.5,0,1,0,2.59-1.5Z"/><path d="M68.5,81.75H64v-12H61v15h7.5a1.5,1.5,0,0,0,0-3Z"/><path d="M49.09,66.59,41.62,78.22a1.5,1.5,0,0,0,2.53,1.62l.63-1,3.81,1.26-.08,1.16a1.51,1.51,0,0,0,1.4,1.59H50a1.5,1.5,0,0,0,1.5-1.4l.89-13.79Zm-2.64,9.66,2.66-4.13L48.79,77Z"/><path d="M31.46,74a4.18,4.18,0,0,1-2.4-.75A4.25,4.25,0,0,1,28,67.35a1.5,1.5,0,0,1,2.47,1.7,1.25,1.25,0,1,0,2.06,1.42l.42-.61a1.25,1.25,0,0,0-.32-1.74,4.29,4.29,0,0,1-1.77-2.73,4.22,4.22,0,0,1,.69-3.18l.42-.62a4.2,4.2,0,0,1,2.73-1.77,4.25,4.25,0,0,1,3.18.68,4.25,4.25,0,0,1,1.09,5.91,1.5,1.5,0,1,1-2.47-1.7,1.25,1.25,0,0,0,.2-.94,1.28,1.28,0,0,0-.52-.8,1.26,1.26,0,0,0-.94-.2,1.28,1.28,0,0,0-.8.52l-.43.62a1.25,1.25,0,0,0,.32,1.74,4.25,4.25,0,0,1,1.09,5.91l-.42.62A4.27,4.27,0,0,1,31.46,74Z"/><rect class="cls-1" y="-10.25" width="134" height="80"/><circle cx="121" cy="55.75" r="4"/><path d="M124,21.75v13a3,3,0,0,1-6,0v-29H108v29a13,13,0,0,0,26,0v-13Z"/><path d="M94,34.75a3,3,0,0,1-6,0v-13H78v13a3,3,0,0,1-6,0v-13H62v5.71a15.36,15.36,0,0,0-1.71-3.32h0L54.1,15.31l4.75-6.77L50.66,2.8,48,6.6,43.38,0,35.19,5.74l6.71,9.57-6.19,8.83h0a15,15,0,0,0-2.34,5.46A14,14,0,0,0,6,33.75a13.85,13.85,0,0,0,1.24,5.72A14,14,0,0,0,0,51.72v4H10v-4a4,4,0,0,1,4-4h5.42c.19,0,.38,0,.58,0A14,14,0,0,0,33.61,37a15,15,0,0,0,28.66.4A13,13,0,0,0,83,45a13,13,0,0,0,21-10.22v-13H94Zm-74,3v0h-.29a3.77,3.77,0,1,1,.29,0Zm28,0a5.07,5.07,0,0,1-5-5,5,5,0,0,1,.9-2.87h0L48,24l4.1,5.85h0a5,5,0,0,1,.9,2.87A5.07,5.07,0,0,1,48,37.75Z"/><rect class="cls-1" y="-10.25" width="134" height="80"/></g></svg>