<svg xmlns="http://www.w3.org/2000/svg" viewBox="0 0 672 672"><defs><style>.cls-1{fill:#ff5d3e;}.cls-2{fill:#e6452d;}.cls-3{fill:#ff8863;}.cls-4,.cls-5{fill:none;stroke:#ff8863;stroke-miterlimit:10;}.cls-5{stroke-dasharray:6 5;}.cls-6{fill:#fff;}</style></defs><g id="Layer_3" data-name="Layer 3"><rect class="cls-1" width="672" height="672"/><rect class="cls-1" width="672" height="672"/></g><g id="Layer_1" data-name="Layer 1"><rect class="cls-2" x="145.88" y="201.57" width="380.24" height="268.86"/><circle class="cls-3" cx="417" cy="464.43" r="6"/><path class="cls-3" d="M421.5,413.43v19.5a4.5,4.5,0,1,1-9,0v-43.5h-15v43.5a19.5,19.5,0,1,0,39,0v-19.5Z"/><path class="cls-3" d="M376.5,432.93a4.5,4.5,0,1,1-9,0v-19.5h-15v19.5a4.5,4.5,0,1,1-9,0v-19.5h-15v8.44a22.57,22.57,0,0,0-2.57-4.85h0l-9.27-13.24,7.11-10.17L311.49,385l-4,5.69-6.93-9.89-12.28,8.6,10,14.37L289.07,417h0a22.54,22.54,0,0,0-3.54,8.1A21,21,0,1,0,246.35,440a21,21,0,0,0-10.85,18.38v7.5h15v-7.5a6,6,0,0,1,6-6h8.16c.28,0,.56,0,.84,0a21,21,0,0,0,20.42-16.18,22.49,22.49,0,0,0,43,.61A19.47,19.47,0,0,0,360,448.27a19.47,19.47,0,0,0,31.5-15.34v-19.5h-15Zm-111,4.5v0h-.42a5.68,5.68,0,1,1,.42,0Zm42,0a7.6,7.6,0,0,1-7.5-7.5,7.44,7.44,0,0,1,1.36-4.3l6.14-8.78,6.14,8.78a7.44,7.44,0,0,1,1.36,4.3A7.6,7.6,0,0,1,307.5,437.43Z"/><circle class="cls-3" cx="255" cy="207.57" r="6"/><path class="cls-3" d="M250.5,258.57v-19.5a4.5,4.5,0,0,1,9,0v43.5h15v-43.5a19.5,19.5,0,0,0-39,0v19.5Z"/><path class="cls-3" d="M295.5,239.07a4.5,4.5,0,1,1,9,0v19.5h15v-19.5a4.5,4.5,0,1,1,9,0v19.5h15v-8.44a22.57,22.57,0,0,0,2.57,4.85h0l9.27,13.24-7.11,10.17,12.28,8.6,4-5.69,6.93,9.89,12.28-8.6-10-14.37L382.93,255h0a22.54,22.54,0,0,0,3.54-8.1A21,21,0,1,0,425.65,232a21,21,0,0,0,10.85-18.38v-7.5h-15v7.5a6,6,0,0,1-6,6h-8.16c-.28,0-.56,0-.84,0a21,21,0,0,0-20.42,16.18,22.49,22.49,0,0,0-43-.61A19.47,19.47,0,0,0,312,223.73a19.47,19.47,0,0,0-31.5,15.34v19.5h15Zm111-4.5v0h.42a5.68,5.68,0,1,1-.42,0Zm-42,0a7.6,7.6,0,0,1,7.5,7.5,7.44,7.44,0,0,1-1.36,4.3l-6.14,8.78-6.14-8.78a7.44,7.44,0,0,1-1.36-4.3A7.6,7.6,0,0,1,364.5,234.57Z"/><circle class="cls-3" cx="520.12" cy="255" r="6"/><path class="cls-3" d="M469.12,250.5h19.5a4.5,4.5,0,0,1,0,9h-43.5v15h43.5a19.5,19.5,0,0,0,0-39h-19.5Z"/><path class="cls-3" d="M488.62,295.5a4.5,4.5,0,0,1,0,9h-19.5v15h19.5a4.5,4.5,0,0,1,0,9h-19.5v15h8.44a22.57,22.57,0,0,0-4.85,2.57h0l-13.24,9.27-10.17-7.11-8.6,12.28,5.69,4-9.89,6.93,8.6,12.28,14.37-10,13.24,9.27h0a22.54,22.54,0,0,0,8.1,3.54,21,21,0,1,0,14.89,39.18,21,21,0,0,0,18.38,10.85h7.5v-15h-7.5a6,6,0,0,1-6-6v-8.16c0-.28,0-.56,0-.84a21,21,0,0,0-16.18-20.42,22.49,22.49,0,0,0,.61-43A19.47,19.47,0,0,0,504,312a19.47,19.47,0,0,0-15.34-31.5h-19.5v15Zm4.5,111h0v.42a5.68,5.68,0,1,1,0-.42Zm0-42a7.6,7.6,0,0,1-7.5,7.5,7.44,7.44,0,0,1-4.3-1.36l-8.78-6.14,8.78-6.14a7.44,7.44,0,0,1,4.3-1.36A7.6,7.6,0,0,1,493.12,364.5Z"/><circle class="cls-3" cx="151.88" cy="417" r="6"/><path class="cls-3" d="M202.88,421.5h-19.5a4.5,4.5,0,0,1,0-9h43.5v-15h-43.5a19.5,19.5,0,0,0,0,39h19.5Z"/><path class="cls-3" d="M183.38,376.5a4.5,4.5,0,0,1,0-9h19.5v-15h-19.5a4.5,4.5,0,0,1,0-9h19.5v-15h-8.44a22.57,22.57,0,0,0,4.85-2.57h0l13.24-9.27,10.17,7.11,8.6-12.28-5.69-4,9.89-6.93-8.6-12.28-14.37,10-13.24-9.27h0a22.54,22.54,0,0,0-8.1-3.54,21,21,0,1,0-14.89-39.18,21,21,0,0,0-18.38-10.85h-7.5v15h7.5a6,6,0,0,1,6,6v8.16c0,.28,0,.56,0,.84a21,21,0,0,0,16.18,20.42,22.49,22.49,0,0,0-.61,43A19.47,19.47,0,0,0,168,360a19.47,19.47,0,0,0,15.34,31.5h19.5v-15Zm-4.5-111h0v-.42a5.68,5.68,0,1,1,0,.42Zm0,42a7.6,7.6,0,0,1,7.5-7.5,7.44,7.44,0,0,1,4.3,1.36l8.78,6.14-8.78,6.14a7.44,7.44,0,0,1-4.3,1.36A7.6,7.6,0,0,1,178.88,307.5Z"/><line class="cls-4" x1="672" y1="201.57" y2="201.57"/><line class="cls-4" x1="672" y1="470.43" y2="470.43"/><line class="cls-4" x1="526.12" y1="672" x2="526.12"/><line class="cls-4" x1="145.88" y1="672" x2="145.88"/><line class="cls-5" x1="672" y1="291.19" y2="291.19"/><line class="cls-5" x1="672" y1="380.81" y2="380.81"/><line class="cls-5" x1="436.5" y1="672" x2="436.5"/><line class="cls-5" x1="235.5" y1="672" x2="235.5"/><circle class="cls-6" cx="417" cy="374.81" r="6"/><path class="cls-6" d="M421.5,323.81v19.5a4.5,4.5,0,0,1-9,0v-43.5h-15v43.5a19.5,19.5,0,0,0,39,0v-19.5Z"/><path class="cls-6" d="M376.5,343.31a4.5,4.5,0,0,1-9,0v-19.5h-15v19.5a4.5,4.5,0,0,1-9,0v-19.5h-15v8.44a22.57,22.57,0,0,0-2.57-4.85h0l-9.27-13.24L323.77,304l-12.28-8.6-4,5.69-6.93-9.89-12.28,8.6,10,14.37-9.27,13.24h0a22.54,22.54,0,0,0-3.54,8.1,21,21,0,1,0-39.18,14.89,21,21,0,0,0-10.85,18.38v7.5h15v-7.5a6,6,0,0,1,6-6h8.16c.28,0,.56,0,.84,0a21,21,0,0,0,20.42-16.18,22.49,22.49,0,0,0,43,.61A19.47,19.47,0,0,0,360,358.65a19.47,19.47,0,0,0,31.5-15.34v-19.5h-15Zm-111,4.5v0h-.42a5.68,5.68,0,1,1,.42,0Zm42,0a7.6,7.6,0,0,1-7.5-7.5,7.44,7.44,0,0,1,1.36-4.3l6.14-8.78,6.14,8.78a7.44,7.44,0,0,1,1.36,4.3A7.6,7.6,0,0,1,307.5,347.81Z"/></g></svg>