<svg xmlns="http://www.w3.org/2000/svg" viewBox="0 0 1080 672"><defs><style>.cls-1{fill:#ff5d3e;}.cls-2{fill:#fff;}.cls-3,.cls-4,.cls-5{fill:none;}.cls-4,.cls-5{stroke:#ff8863;stroke-miterlimit:10;}.cls-5{stroke-dasharray:6 5;}</style></defs><g id="Layer_3" data-name="Layer 3"><rect class="cls-1" width="1080" height="672"/><path class="cls-2" d="M642.25,319.75c-4.65-8.06-17-8.49-23.11,2.68-3.33,6.1-6.81,9.64-10,11.71l-5.42-9.09,10.42-5.81-34.34-83.05a50.12,50.12,0,0,0,5.11-4.78c8.18-8.95,17-25.06,12.7-51.15-1.49-7.91-2.4-15,1.46-21.13,7-11.14,3.58-19.5-1.43-23.27-9.16-6.9-19.59-1.56-25.42,4.44l-2.41-34.09c-.48-6.86-3.06-12.79-7.08-16.26a15.43,15.43,0,0,0-18-1.38l-.1-1.4c-.47-6.75-3.23-12.88-7.37-16.4a14.49,14.49,0,0,0-10.93-3.45c-8.34.76-13.89,8.64-15.17,17a14.51,14.51,0,0,0-7.59-1.26c-11.06,1-16.11,12-15.39,22.23l1.14,16.17a12,12,0,0,0-5.34-.62c-9.16,1-14.53,9.53-13.67,21.66l3.6,51h0l.07,1a1.57,1.57,0,0,0,0,.3c2,24.35,12.16,38.44,21.49,46.35a52.7,52.7,0,0,1-2.08,18.32c-4.35,14.67-14.56,25.4-30.18,31.84l-4.19,1.58L429.35,302l9,30.1,8.49-1c-2.59,5.54-4.61,14.2-1.25,25.93,3,10.43,12.11,11.64,17.23,9.12,6.77-3.33,10.4-10.4,4.07-20.22-6.77-10.51-4.73-15.1-2.77-17l1.13-.14,2.61,8.27,3.43.21c2.38.14,4.67.22,6.89.22,46.71,0,58.73-30.57,59.24-31.93a5,5,0,1,0-9.36-3.51c-.1.27-10.55,26.61-52.75,25.39l-4.07-12.9-4.39-13.91h.05c31.54-13,37.67-38.66,38.52-52.81a35.5,35.5,0,0,0,6.84,2.77,4.94,4.94,0,0,0,1.07.12,5,5,0,0,0,1.07-9.88c-.27-.06-27.7-7.87-30.54-48l-3.6-51c-.07-1.07-.58-10.42,4.81-11a2.25,2.25,0,0,1,1.85.63c1.93,1.6,3.48,5.57,3.76,9.65l2.18,30.85a5,5,0,1,0,10-.7l-1.8-25.49h0l-2.9-41.12c-.31-4.38,1.13-11.08,6.36-11.58a4.48,4.48,0,0,1,3.56,1.09c2,1.73,3.55,5.46,3.83,9.52,0,0,0,0,0,.06L515.32,152a5,5,0,0,0,5,4.64h.36a5,5,0,0,0,4.64-5.34l-4.41-62.4c-.38-5.41,2.82-11.25,6.35-11.58a4.47,4.47,0,0,1,3.53,1.12c2.07,1.76,3.6,5.48,3.88,9.49l4.4,62.4a5,5,0,0,0,10-.7l-2.93-41.53c0-.06,0-.11,0-.17-.3-4.27,1.13-11.19,6.25-11.56a5,5,0,0,1,3.85,1.18c2,1.7,3.37,5.31,3.66,9.41l4.39,62.22h0v.07l.89,12.62a5.48,5.48,0,0,0,.1.56c0,.11,0,.23,0,.34a6.14,6.14,0,0,0,.29.79.3.3,0,0,0,0,.1,5,5,0,0,0,3.68,2.78,1.9,1.9,0,0,0,.25,0,5.44,5.44,0,0,0,.58,0h.35a3.39,3.39,0,0,0,.44-.08,3.85,3.85,0,0,0,.49-.08c.16,0,.31-.11.46-.16s.31-.11.46-.18a4.5,4.5,0,0,0,.41-.25,3.54,3.54,0,0,0,.41-.26c.13-.1.23-.21.35-.31s.25-.22.36-.34.18-.24.27-.37a3.69,3.69,0,0,0,.29-.4c.08-.14.14-.28.21-.42a4.43,4.43,0,0,0,.2-.45,4.27,4.27,0,0,0,.13-.48,4,4,0,0,0,.11-.47,3.2,3.2,0,0,0,0-.53c0-.14,0-.27,0-.41-.09-2.07-.44-6.63-.69-9.95l-.21-2.86v0c-.61-8.7.76-15.53,3.95-19.74,1.53-2,8.3-8.75,13.48-4.84,2.21,1.67,1.82,5.4-1,10-6.25,10-4.18,21-2.83,28.19,3.65,22-3.55,35.34-10.23,42.66a40.26,40.26,0,0,1-6.2,5.47,4.61,4.61,0,0,0-1,.69c-6.9,4.63-14.32,6.47-19.68,6.09a5,5,0,0,0-.75,10c.77.06,1.53.09,2.31.09a41.71,41.71,0,0,0,19.09-5.14l22.21,53.7c-.91,1.89-3.81,6.14-11.94,7.78a5,5,0,0,0,1,9.9,4.75,4.75,0,0,0,1-.1,28.28,28.28,0,0,0,14.33-7l3.62,8.75-2.91,1.62h0l-13.21,7.37-8.35,4.66-48.19-64.37a5,5,0,1,0-8,6l47.38,63.3h0l25.81,34.47,26.45-14.74-3.81-6.38a46,46,0,0,0,17.8-6.93C644.64,332.92,644.74,324.08,642.25,319.75Z"/><path class="cls-2" d="M515.23,294.37a6,6,0,0,1-4.87,6.17,5,5,0,0,0,.9,9.92,4.76,4.76,0,0,0,.91-.09,16,16,0,0,0,13.06-16.17,4.9,4.9,0,0,0-5.08-4.91A5,5,0,0,0,515.23,294.37Z"/><path class="cls-2" d="M518.49,170.13c-2.64.71-4.21,4.5-3.51,8.47s3.43,6.59,6.07,5.88,4.22-4.51,3.51-8.47S521.14,169.41,518.49,170.13Z"/><path class="cls-2" d="M554,184.48c2.65-.72,4.22-4.51,3.51-8.47s-3.42-6.6-6.07-5.88-4.21,4.5-3.51,8.47S551.32,185.19,554,184.48Z"/><path class="cls-2" d="M525.32,206.75a5,5,0,0,0,5,4.51l.5,0,16.69-1.65-5.75-25.83a5,5,0,1,0-9.76,2.17l3.3,14.82-5.47.54A5,5,0,0,0,525.32,206.75Z"/><path class="cls-2" d="M522,222.91a5,5,0,0,0,1.77,6.85,26.59,26.59,0,0,0,36.39-9.43,5,5,0,1,0-8.62-5.07,16.6,16.6,0,0,1-22.7,5.88A5,5,0,0,0,522,222.91Z"/><path class="cls-2" d="M590.8,593.13l-16.21-30.49-8.48,2-.6,34.53A3.76,3.76,0,0,0,569.2,603h.06a3.76,3.76,0,0,0,3.75-3.69l0-2.9,9.76-2.35,1.36,2.57a3.75,3.75,0,1,0,6.62-3.52Zm-17.6-4.45.21-12.29,5.77,10.86Z"/><path class="cls-2" d="M635.36,572l-17.24-29.74L611.64,546l3.74,21.42L598.65,553.5l-6.48,3.76L609.4,587a3.75,3.75,0,1,0,6.49-3.76l-6.33-10.93,8.81,7.32,6.13-3.55-2-11.29,6.34,10.93a3.75,3.75,0,0,0,6.49-3.76Z"/><path class="cls-2" d="M543.75,597.25H532.5v-30H525v37.5h18.75a3.75,3.75,0,0,0,0-7.5Z"/><path class="cls-2" d="M495.23,559.37l-18.67,29.06a3.75,3.75,0,1,0,6.31,4.05l1.57-2.45,9.53,3.14-.19,2.9a3.76,3.76,0,0,0,3.5,4h.25a3.76,3.76,0,0,0,3.74-3.51l2.24-34.46Zm-6.6,24.15,6.64-10.34-.79,12.26Z"/><path class="cls-2" d="M451.15,577.92a10.63,10.63,0,0,1-8.73-16.66,3.75,3.75,0,1,1,6.17,4.26,3.13,3.13,0,1,0,5.15,3.55l1.06-1.55a3.12,3.12,0,0,0-.8-4.34,10.62,10.62,0,0,1-2.71-14.78l1.06-1.55a10.63,10.63,0,0,1,17.5,12.06,3.75,3.75,0,1,1-6.18-4.25,3.12,3.12,0,1,0-5.14-3.55l-1.07,1.54A3.13,3.13,0,0,0,457,555a3.06,3.06,0,0,0,1.3,2A10.65,10.65,0,0,1,461,571.78l-1.07,1.54A10.6,10.6,0,0,1,451.15,577.92Z"/><rect class="cls-3" x="372.5" y="367.35" width="335" height="200"/><circle class="cls-2" cx="675" cy="532.35" r="10"/><path class="cls-2" d="M682.5,447.35v32.5a7.5,7.5,0,0,1-15,0v-72.5h-25v72.5a32.5,32.5,0,0,0,65,0v-32.5Z"/><path class="cls-2" d="M607.5,479.85a7.5,7.5,0,0,1-15,0v-32.5h-25v32.5a7.5,7.5,0,0,1-15,0v-32.5h-25v14.06a37.66,37.66,0,0,0-4.28-8.07h0l-15.46-22.08,11.86-16.94L499.14,400l-6.64,9.49L481,393l-20.48,14.34,16.76,23.93-15.46,22.08h0a37.46,37.46,0,0,0-5.9,13.49,35,35,0,1,0-65.29,24.83,35,35,0,0,0-18.09,30.62v12.5h25v-12.5a10,10,0,0,1,10-10h13.6c.47,0,.93.07,1.4.07a35,35,0,0,0,34-27,37.47,37.47,0,0,0,71.63,1,32.44,32.44,0,0,0,51.84,19,32.45,32.45,0,0,0,52.5-25.56v-32.5h-25Zm-185,7.5v-.07h-.7a9.43,9.43,0,1,1,.7.07Zm70,0a12.66,12.66,0,0,1-12.5-12.5,12.42,12.42,0,0,1,2.26-7.17l10.24-14.62,10.24,14.62a12.42,12.42,0,0,1,2.26,7.17A12.66,12.66,0,0,1,492.5,487.35Z"/></g><g id="Layer_1" data-name="Layer 1"><circle class="cls-4" cx="540" cy="437.25" r="167.5"/><circle class="cls-4" cx="613.92" cy="564.88" r="20"/><line class="cls-4" x1="539.96" y1="437.26" x2="603.89" y2="547.57"/><circle class="cls-4" cx="574.44" cy="580.67" r="20"/><line class="cls-4" x1="539.98" y1="437.25" x2="569.76" y2="561.22"/><circle class="cls-4" cx="540" cy="584.75" r="20"/><line class="cls-4" x1="540" y1="437.25" x2="540" y2="564.75"/><circle class="cls-4" cx="493.9" cy="577.36" r="20"/><line class="cls-4" x1="540.02" y1="437.25" x2="500.15" y2="558.36"/><circle class="cls-4" cx="456.33" cy="558.71" r="20"/><line class="cls-4" x1="540.04" y1="437.26" x2="467.68" y2="542.24"/><line class="cls-5" y1="407.25" x2="1080" y2="407.25"/><line class="cls-5" x1="1080" y1="367.25" y2="367.25"/><line class="cls-5" y1="447.25" x2="1080" y2="447.25"/><line class="cls-5" y1="487.25" x2="1080" y2="487.25"/><line class="cls-4" x1="540" y1="672" x2="540"/></g></svg>