<svg id="Layer_3" data-name="Layer 3" xmlns="http://www.w3.org/2000/svg" viewBox="0 0 1080 672"><defs><style>.cls-1{fill:#ff5d3e;}.cls-2{fill:#fff;}.cls-3,.cls-4{fill:none;}.cls-4{stroke:#ff8863;stroke-miterlimit:10;}</style></defs><rect class="cls-1" width="1080" height="672"/><path class="cls-2" d="M621.29,507.41l-25.95-48.79-13.56,3.26-1,55.24a6,6,0,0,0,5.89,6.11h.11a6,6,0,0,0,6-5.89l.08-4.66,15.61-3.75,2.18,4.11a6,6,0,0,0,10.6-5.63Zm-28.18-7.12.34-19.66L602.69,498Z"/><path class="cls-2" d="M692.57,473.54,665,426l-10.38,6,6,34.27L633.84,444l-10.37,6L651,497.6a6,6,0,0,0,10.39-6L651.29,474.1l14.11,11.71,9.81-5.68-3.16-18.07,10.14,17.49a6,6,0,0,0,10.38-6Z"/><path class="cls-2" d="M546,514H528V466H516v60h30a6,6,0,0,0,0-12Z"/><path class="cls-2" d="M468.37,453.39,438.5,499.88a6,6,0,0,0,10.09,6.49l2.52-3.91,15.25,5-.31,4.64a6,6,0,0,0,5.6,6.38h.4a6,6,0,0,0,6-5.61l3.59-55.14ZM457.81,492l10.63-16.54-1.28,19.62Z"/><path class="cls-2" d="M397.84,483.07a17,17,0,0,1-14-26.65,6,6,0,0,1,9.88,6.81,5,5,0,1,0,8.23,5.68l1.71-2.47a5,5,0,0,0-1.28-7,17,17,0,0,1-4.35-23.64l1.7-2.47a17,17,0,0,1,28,19.29,6,6,0,1,1-9.88-6.8,5,5,0,0,0,.8-3.75,5,5,0,0,0-9-1.93l-1.7,2.47a5,5,0,0,0,1.28,7,17,17,0,0,1,4.35,23.65l-1.71,2.47A17,17,0,0,1,397.84,483.07Z"/><rect class="cls-3" x="272" y="146" width="536" height="320"/><circle class="cls-2" cx="756" cy="410" r="16"/><path class="cls-2" d="M768,274v52a12,12,0,0,1-24,0V210H704V326a52,52,0,0,0,104,0V274Z"/><path class="cls-2" d="M648,326a12,12,0,0,1-24,0V274H584v52a12,12,0,0,1-24,0V274H520v22.5a60.16,60.16,0,0,0-6.85-12.91h0l-24.73-35.33,19-27.1-32.76-22.95L464,213.39,445.53,187,412.77,210l26.81,38.3-24.73,35.33h0a59.68,59.68,0,0,0-9.45,21.57,56,56,0,1,0-104.46,39.73,56,56,0,0,0-28.94,49v20h40v-20a16,16,0,0,1,16-16h21.76c.75,0,1.48.11,2.24.11a56,56,0,0,0,54.45-43.15,60,60,0,0,0,114.61,1.62A51.91,51.91,0,0,0,604,366.9,51.92,51.92,0,0,0,688,326V274H648ZM352,338v-.11h-1.12A15.11,15.11,0,1,1,352,338Zm112,0a20.27,20.27,0,0,1-20-20,19.86,19.86,0,0,1,3.62-11.47L464,283.13l16.38,23.4A19.86,19.86,0,0,1,484,318,20.27,20.27,0,0,1,464,338Z"/><path class="cls-4" d="M808,258c0,148-120,268-268,268S272,406,272,258"/><circle class="cls-4" cx="658.27" cy="462.21" r="32"/><line class="cls-4" x1="539.94" y1="258.02" x2="642.23" y2="434.52"/><circle class="cls-4" cx="595.1" cy="487.48" r="32"/><line class="cls-4" x1="539.97" y1="258" x2="587.62" y2="456.36"/><circle class="cls-4" cx="540" cy="494" r="32"/><line class="cls-4" x1="540" y1="258" x2="540" y2="462"/><circle class="cls-4" cx="466.24" cy="482.17" r="32"/><line class="cls-4" x1="540.04" y1="258.01" x2="476.24" y2="451.78"/><circle class="cls-4" cx="406.13" cy="452.33" r="32"/><line class="cls-4" x1="540.07" y1="258.02" x2="424.29" y2="425.98"/><line class="cls-4" x1="808" x2="808" y2="672"/><line class="cls-4" x1="272" x2="272" y2="672"/></svg>