<svg xmlns="http://www.w3.org/2000/svg" viewBox="0 0 672 672"><defs><style>.cls-1{fill:#ff5d3e;}.cls-2{fill:#e6452d;}.cls-3,.cls-4,.cls-6{fill:none;}.cls-3,.cls-4{stroke:#ff8863;stroke-miterlimit:10;}.cls-3{stroke-dasharray:7.35 6.12;}.cls-5{fill:#fff;}.cls-7{fill:#ff8863;}</style></defs><g id="Layer_3" data-name="Layer 3"><rect class="cls-1" width="672" height="672"/></g><g id="Layer_1" data-name="Layer 1"><rect class="cls-2" x="145.88" y="190.51" width="380.24" height="306.36"/><line class="cls-3" x1="235.5" y1="0.75" x2="235.5" y2="672.75"/><line class="cls-4" x1="145.88" x2="145.88" y2="672"/><line class="cls-4" x1="526.12" x2="526.12" y2="672"/><line class="cls-3" x1="436.5" x2="436.5" y2="672"/><line class="cls-3" x1="672" y1="407.25" y2="407.25"/><line class="cls-4" x1="672" y1="496.87" y2="496.87"/><line class="cls-4" x1="672" y1="190.51" y2="190.51"/><line class="cls-3" x1="672" y1="280.13" x2="2.2" y2="280.13"/><path class="cls-5" d="M366.48,400.28,356.75,382l-5.08,1.22-.36,20.72a2.25,2.25,0,0,0,2.21,2.29h0a2.26,2.26,0,0,0,2.25-2.21l0-1.74,5.85-1.41.82,1.54a2.25,2.25,0,0,0,4-2.11Zm-10.56-2.67.12-7.37,3.47,6.51Z"/><path class="cls-5" d="M393.21,387.58l-10.34-17.85L379,372l2.25,12.86-10-8.34-3.89,2.26,10.34,17.84a2.25,2.25,0,0,0,1.95,1.12,2.33,2.33,0,0,0,1.13-.3,2.25,2.25,0,0,0,.81-3.08l-3.8-6.55,5.29,4.39,3.68-2.13-1.18-6.78,3.8,6.56a2.25,2.25,0,1,0,3.89-2.25Z"/><path class="cls-5" d="M338.25,402.75H331.5v-18H327v22.5h11.25a2.25,2.25,0,0,0,0-4.5Z"/><path class="cls-5" d="M309.14,380l-11.2,17.44a2.25,2.25,0,0,0,3.78,2.43l.95-1.47,5.71,1.88-.11,1.74a2.26,2.26,0,0,0,2.1,2.4h.15a2.25,2.25,0,0,0,2.24-2.1l1.35-20.68Zm-4,14.49,4-6.2-.47,7.36Z"/><path class="cls-5" d="M282.69,391.15a6.37,6.37,0,0,1-5.24-10,2.25,2.25,0,0,1,3.71,2.55,1.87,1.87,0,1,0,3.08,2.13l.64-.93a1.87,1.87,0,0,0-.48-2.6,6.38,6.38,0,0,1-1.63-8.87l.64-.93a6.38,6.38,0,0,1,10.5,7.24,2.25,2.25,0,1,1-3.71-2.55,1.87,1.87,0,0,0,.3-1.41,1.82,1.82,0,0,0-.78-1.2,1.79,1.79,0,0,0-1.4-.3,1.82,1.82,0,0,0-1.2.78l-.64.92a1.86,1.86,0,0,0-.3,1.41,1.82,1.82,0,0,0,.78,1.2,6.39,6.39,0,0,1,1.63,8.87l-.64.92A6.36,6.36,0,0,1,282.69,391.15Z"/><rect class="cls-6" x="235.5" y="264.75" width="201" height="120"/><circle class="cls-5" cx="417" cy="363.75" r="6"/><path class="cls-5" d="M421.5,312.75v19.5a4.5,4.5,0,0,1-9,0v-43.5h-15v43.5a19.5,19.5,0,0,0,39,0v-19.5Z"/><path class="cls-5" d="M376.5,332.25a4.5,4.5,0,0,1-9,0v-19.5h-15v19.5a4.5,4.5,0,0,1-9,0v-19.5h-15v8.44a22.27,22.27,0,0,0-2.57-4.84h0l-9.27-13.24,7.11-10.17-12.28-8.6-4,5.69-6.93-9.89-12.28,8.61,10,14.36-9.27,13.24h0a22.42,22.42,0,0,0-3.54,8.09,21,21,0,1,0-39.18,14.89,21,21,0,0,0-10.85,18.38v7.5h15v-7.5a6,6,0,0,1,6-6h8.16c.28,0,.56,0,.84,0a21,21,0,0,0,20.42-16.18,22.49,22.49,0,0,0,43,.61A19.47,19.47,0,0,0,360,347.59a19.47,19.47,0,0,0,31.5-15.34v-19.5h-15Zm-111,4.5v0h-.42a5.68,5.68,0,1,1,.42,0Zm42,0a7.6,7.6,0,0,1-7.5-7.5,7.44,7.44,0,0,1,1.36-4.3l6.14-8.78,6.14,8.78a7.44,7.44,0,0,1,1.36,4.3A7.6,7.6,0,0,1,307.5,336.75Z"/><circle class="cls-7" cx="151.88" cy="417" r="6"/><path class="cls-7" d="M202.88,421.5h-19.5a4.5,4.5,0,0,1,0-9h43.5v-15h-43.5a19.5,19.5,0,0,0,0,39h19.5Z"/><path class="cls-7" d="M183.38,376.5a4.5,4.5,0,0,1,0-9h19.5v-15h-19.5a4.5,4.5,0,0,1,0-9h19.5v-15h-8.44a22.57,22.57,0,0,0,4.85-2.57h0l13.24-9.27,10.17,7.11,8.6-12.28-5.69-4,9.89-6.93-8.6-12.28-14.37,10-13.24-9.27h0a22.54,22.54,0,0,0-8.1-3.54,21,21,0,1,0-14.89-39.18,21,21,0,0,0-18.38-10.85h-7.5v15h7.5a6,6,0,0,1,6,6v8.16c0,.28,0,.56,0,.84a21,21,0,0,0,16.18,20.42,22.49,22.49,0,0,0-.61,43A19.47,19.47,0,0,0,168,360a19.47,19.47,0,0,0,15.34,31.5h19.5v-15Zm-4.5-111h0v-.42a5.68,5.68,0,1,1,0,.42Zm0,42a7.6,7.6,0,0,1,7.5-7.5,7.44,7.44,0,0,1,4.3,1.36l8.78,6.14-8.78,6.14a7.44,7.44,0,0,1-4.3,1.36A7.6,7.6,0,0,1,178.88,307.5Z"/><circle class="cls-7" cx="520.12" cy="255" r="6"/><path class="cls-7" d="M469.12,250.5h19.5a4.5,4.5,0,0,1,0,9h-43.5v15h43.5a19.5,19.5,0,0,0,0-39h-19.5Z"/><path class="cls-7" d="M488.62,295.5a4.5,4.5,0,0,1,0,9h-19.5v15h19.5a4.5,4.5,0,0,1,0,9h-19.5v15h8.44a22.57,22.57,0,0,0-4.85,2.57h0l-13.24,9.27-10.17-7.11-8.6,12.28,5.69,4-9.89,6.93,8.6,12.28,14.37-10,13.24,9.27h0a22.54,22.54,0,0,0,8.1,3.54,21,21,0,1,0,14.89,39.18,21,21,0,0,0,18.38,10.85h7.5v-15h-7.5a6,6,0,0,1-6-6v-8.16c0-.28,0-.56,0-.84a21,21,0,0,0-16.18-20.42,22.49,22.49,0,0,0,.61-43A19.47,19.47,0,0,0,504,312a19.47,19.47,0,0,0-15.34-31.5h-19.5v15Zm4.5,111h0v.42a5.68,5.68,0,1,1,0-.42Zm0-42a7.6,7.6,0,0,1-7.5,7.5,7.44,7.44,0,0,1-4.3-1.36l-8.78-6.14,8.78-6.14a7.44,7.44,0,0,1,4.3-1.36A7.6,7.6,0,0,1,493.12,364.5Z"/><circle class="cls-7" cx="255" cy="196.51" r="6"/><path class="cls-7" d="M250.5,247.51V228a4.5,4.5,0,0,1,9,0v43.5h15V228a19.5,19.5,0,0,0-39,0v19.5Z"/><path class="cls-7" d="M295.5,228a4.5,4.5,0,0,1,9,0v19.5h15V228a4.5,4.5,0,0,1,9,0v19.5h15v-8.44a22.57,22.57,0,0,0,2.57,4.85h0l9.27,13.24-7.11,10.17,12.28,8.6,4-5.69,6.93,9.89,12.28-8.6-10-14.37,9.27-13.24h0a22.57,22.57,0,0,0,3.54-8.09,21,21,0,1,0,39.18-14.9,21,21,0,0,0,10.85-18.38v-7.5h-15v7.5a6,6,0,0,1-6,6h-8.16c-.28,0-.56,0-.84,0a21,21,0,0,0-20.42,16.18,22.49,22.49,0,0,0-43-.61A19.47,19.47,0,0,0,312,212.67,19.47,19.47,0,0,0,280.5,228v19.5h15Zm111-4.5v0h.42a5.68,5.68,0,1,1-.42,0Zm-42,0A7.6,7.6,0,0,1,372,231a7.42,7.42,0,0,1-1.36,4.3l-6.14,8.78-6.14-8.78A7.42,7.42,0,0,1,357,231,7.6,7.6,0,0,1,364.5,223.51Z"/><circle class="cls-7" cx="417" cy="490.87" r="6"/><path class="cls-7" d="M421.5,439.87v19.5a4.5,4.5,0,0,1-9,0v-43.5h-15v43.5a19.5,19.5,0,0,0,39,0v-19.5Z"/><path class="cls-7" d="M376.5,459.37a4.5,4.5,0,0,1-9,0v-19.5h-15v19.5a4.5,4.5,0,0,1-9,0v-19.5h-15v8.44a22.57,22.57,0,0,0-2.57-4.85h0l-9.27-13.24,7.11-10.17-12.28-8.6-4,5.69-6.93-9.89-12.28,8.6,10,14.37-9.27,13.24h0a22.54,22.54,0,0,0-3.54,8.1,21,21,0,1,0-39.18,14.89,21,21,0,0,0-10.85,18.38v7.5h15v-7.5a6,6,0,0,1,6-6h8.16c.28,0,.56,0,.84,0a21,21,0,0,0,20.42-16.18,22.49,22.49,0,0,0,43,.61A19.47,19.47,0,0,0,360,474.71a19.47,19.47,0,0,0,31.5-15.34v-19.5h-15Zm-111,4.5v0h-.42a5.68,5.68,0,1,1,.42,0Zm42,0a7.6,7.6,0,0,1-7.5-7.5,7.44,7.44,0,0,1,1.36-4.3l6.14-8.78,6.14,8.78a7.44,7.44,0,0,1,1.36,4.3A7.6,7.6,0,0,1,307.5,463.87Z"/></g></svg>