<svg xmlns="http://www.w3.org/2000/svg" viewBox="0 0 1080 672"><defs><style>.cls-1{fill:#ff5d3e;}.cls-2{fill:#fff;}.cls-3,.cls-5{fill:none;}.cls-4{fill:#ff8863;}.cls-5{stroke:#ff8863;stroke-miterlimit:10;}</style></defs><g id="Layer_3" data-name="Layer 3"><rect class="cls-1" width="1080" height="672"/><path class="cls-2" d="M324.52,421.71l-13-24.4-6.78,1.63-.48,27.62a3,3,0,0,0,3,3.06h0a3,3,0,0,0,3-2.95l0-2.33,7.81-1.87,1.09,2a3,3,0,0,0,5.3-2.81Zm-14.09-3.56.17-9.83,4.62,8.68Z"/><path class="cls-2" d="M360.16,404.77,346.37,381l-5.18,3,3,17.14L330.79,390l-5.18,3L339.4,416.8a3,3,0,1,0,5.19-3l-5.07-8.74,7.05,5.86,4.91-2.84-1.58-9,5.07,8.75a3,3,0,0,0,5.19-3Z"/><path class="cls-2" d="M286.87,425h-9V401h-6v30h15a3,3,0,0,0,0-6Z"/><path class="cls-2" d="M248.06,394.7l-14.94,23.24a3,3,0,1,0,5,3.24l1.26-1.95,7.62,2.51-.15,2.32a3,3,0,0,0,2.8,3.19h.2a3,3,0,0,0,3-2.8l1.79-27.57ZM242.78,414l5.31-8.27-.64,9.81Z"/><path class="cls-2" d="M212.8,409.53a8.49,8.49,0,0,1-7-13.32,3,3,0,1,1,4.94,3.41,2.5,2.5,0,0,0,4.12,2.84l.85-1.24a2.51,2.51,0,0,0-.64-3.48,8.49,8.49,0,0,1-2.18-11.82l.86-1.24a8.5,8.5,0,0,1,14,9.65,3,3,0,1,1-4.94-3.4,2.5,2.5,0,0,0-.64-3.48,2.49,2.49,0,0,0-3.47.64l-.86,1.23a2.56,2.56,0,0,0-.4,1.88,2.49,2.49,0,0,0,1,1.6,8.51,8.51,0,0,1,2.18,11.82l-.85,1.24A8.5,8.5,0,0,1,212.8,409.53Z"/><rect class="cls-3" x="149.87" y="241" width="268" height="160"/><circle class="cls-2" cx="391.87" cy="373" r="8"/><path class="cls-2" d="M397.87,305v26a6,6,0,0,1-12,0V273h-20v58a26,26,0,0,0,52,0V305Z"/><path class="cls-2" d="M337.87,331a6,6,0,0,1-12,0V305h-20v26a6,6,0,0,1-12,0V305h-20v11.25a30.11,30.11,0,0,0-3.42-6.46h0l-12.37-17.66,9.49-13.55-16.38-11.47-5.32,7.59-9.23-13.19L220.26,273l13.41,19.15L221.3,309.79h0a29.89,29.89,0,0,0-4.72,10.79A28,28,0,0,0,161.87,329a27.67,27.67,0,0,0,2.48,11.44,28,28,0,0,0-14.48,24.5v10h20v-10a8,8,0,0,1,8-8h10.89c.37,0,.74.06,1.11.06a28,28,0,0,0,27.23-21.57,30,30,0,0,0,57.3.81,26,26,0,0,0,41.47,15.21,26,26,0,0,0,42-20.45V305h-20Zm-148,6v-.06h-.56a7.5,7.5,0,1,1,.56.06Zm56,0a10.13,10.13,0,0,1-10-10,10,10,0,0,1,1.81-5.73l8.19-11.7,8.2,11.7a10,10,0,0,1,1.8,5.73A10.13,10.13,0,0,1,245.87,337Z"/><circle class="cls-4" cx="425.87" cy="444" r="8"/><path class="cls-4" d="M493.87,450h-26a6,6,0,1,1,0-12h58V418h-58a26,26,0,0,0,0,52h26Z"/><path class="cls-4" d="M467.87,390a6,6,0,0,1,0-12h26V358h-26a6,6,0,0,1,0-12h26V326H482.62a29.68,29.68,0,0,0,6.46-3.43h0l17.66-12.36,13.56,9.49,11.47-16.39L524.18,298l13.19-9.23-11.48-16.39-19.15,13.41-17.66-12.36h0a29.84,29.84,0,0,0-10.79-4.73,28,28,0,1,0-19.86-52.23A28,28,0,0,0,433.93,202h-10v20h10a8,8,0,0,1,8,8v10.88c0,.38-.06.74-.06,1.12a28,28,0,0,0,21.58,27.23,30,30,0,0,0-.81,57.3A26,26,0,0,0,447.42,368a26,26,0,0,0,20.45,42h26V390Zm-6-148h.06v-.56a7.5,7.5,0,1,1-.06.56Zm0,56a10.13,10.13,0,0,1,10-10,9.9,9.9,0,0,1,5.74,1.81l11.7,8.19-11.7,8.19a10,10,0,0,1-5.74,1.81A10.13,10.13,0,0,1,461.87,298Z"/><circle class="cls-4" cx="550.77" cy="444" r="8"/><path class="cls-4" d="M618.77,450h-26a6,6,0,1,1,0-12h58V418h-58a26,26,0,0,0,0,52h26Z"/><path class="cls-4" d="M592.77,390a6,6,0,0,1,0-12h26V358h-26a6,6,0,0,1,0-12h26V326H607.52a29.68,29.68,0,0,0,6.46-3.43h0l17.66-12.36,13.56,9.49,11.47-16.39L649.08,298l13.19-9.23-11.48-16.39-19.15,13.41L614,273.43h0a29.84,29.84,0,0,0-10.79-4.73,28,28,0,1,0-19.86-52.23A28,28,0,0,0,558.83,202h-10v20h10a8,8,0,0,1,8,8v10.88c0,.38-.06.74-.06,1.12a28,28,0,0,0,21.58,27.23,30,30,0,0,0-.81,57.3A26,26,0,0,0,572.32,368a26,26,0,0,0,20.45,42h26V390Zm-6-148h.06v-.56a7.5,7.5,0,1,1-.06.56Zm0,56a10.13,10.13,0,0,1,10-10,9.9,9.9,0,0,1,5.74,1.81l11.7,8.19-11.7,8.19a10,10,0,0,1-5.74,1.81A10.13,10.13,0,0,1,586.77,298Z"/></g><g id="Layer_1" data-name="Layer 1"><rect class="cls-2" x="537.34" y="261.51" width="5.46" height="169.49"/><path class="cls-2" d="M735.22,325.57c.07-2.79,0-5.57,0-8.36.07-3.61,0-7.25.37-10.82.62-5.27,4-7.85,9.37-7.55,4.36.25,6.69,3,6.93,8.28,0,.54,0,1.07,0,1.6v26.87h6.13c6.73,0,11-4.25,11-11,0-6.34,0-12.69,0-19a38.71,38.71,0,0,0-.49-6.37c-1.22-6.93-4.78-12-12-13.63a32.85,32.85,0,0,0-8.12-.53A15.21,15.21,0,0,0,737,290.81l-1.77,2.13v-6.32H718.14v49c2.47,0,4.77.05,7.06,0A10.22,10.22,0,0,0,735.22,325.57Z"/><path class="cls-2" d="M706.31,391a7.92,7.92,0,0,1-1-.37c6.21-5.75,7.73-9.16,7.39-16.45-.41-8.84-4.87-14.53-13-16.39a32.27,32.27,0,0,0-6.87-.75c-8.6-.08-17.2,0-25.79,0-.58,0-1.16.05-1.83.08v72.08h2c6.64,0,13.29.05,19.93,0,4.44,0,8.91,0,13.32-.41,11-1.1,18-7.86,18.9-18.49C720.19,400.63,716.4,393.43,706.31,391Zm-22.67-12.56v-6.59c2.62,0,4.22.06,6.5.06,3.25,0,5.52,3,5.54,6.37s-1.46,6.29-4.66,7c-2.31.53-4.85.23-7.38.23Zm16.75,30.81a5.64,5.64,0,0,1-4.55,4.26c-3.93.67-7.92.25-12.07.25V400c3.84,0,7.67.14,11.1.14C699.7,400.12,701.7,404.85,700.39,409.29Z"/><path class="cls-2" d="M767.67,382.52c-10.16-5.72-20.8-5.9-31.21-.75-16.84,8.33-17.44,28-8.76,38.87,6,7.51,14.1,10.23,23.35,10.36a33,33,0,0,0,13.37-2.52c9.4-4.05,15-11.14,15.89-21.37C781.23,396.41,777.14,387.85,767.67,382.52Zm-16.34,33.23a11.16,11.16,0,0,1-11-11.33,11.31,11.31,0,0,1,11.09-11.13,11.15,11.15,0,0,1,11,11.19A11,11,0,0,1,751.33,415.75Z"/><path class="cls-2" d="M780.61,330.71c6.32,5.93,13.83,7.74,22.22,5.59a17.68,17.68,0,0,0,8.92-5.78v5.07h6.09c6.7,0,11-4.32,11-11q0-18.06,0-36.12v-1.85H811.76V291a4,4,0,0,1-.74-.43c-6.86-7.2-20.21-7.53-28.73-.82C769.88,299.49,769,319.81,780.61,330.71ZM801.33,300c6.42.05,10.85,4.6,10.83,11.11S807.79,322,801.22,322s-11.1-4.44-11.05-11S794.81,300,801.33,300Z"/><path class="cls-2" d="M693.5,319a10.67,10.67,0,0,1-4.88,2.28c-4.92.9-9.35-.77-13.45-3.38-1.73-1.1-3.34-2.4-5.12-3.69l-7.78,14.93c8,6.5,21.73,9.77,31.89,7.66,6.13-1.27,11.63-3.73,15.67-8.71,3.44-4.22,4.52-9.28,4.9-14.58.68-9.31-2.84-15.67-11.34-19.56-3.26-1.49-6.82-2.34-10.19-3.62a31.63,31.63,0,0,1-6.58-3c-3.33-2.25-3.07-6.36.35-8.51a6.67,6.67,0,0,1,3.09-1.23,43.08,43.08,0,0,1,7.53.52c3.78.64,7.27.09,9.74-2.87,1.88-2.27,3.13-5.06,4.64-7.59-6.42-4.09-18.25-6.82-25.27-6a24.38,24.38,0,0,0-13.21,5.18c-7.18,5.94-9.14,13.83-8.25,22.69.66,6.66,4.28,11.18,10.43,13.62,3.13,1.24,6.41,2.1,9.57,3.29a41,41,0,0,1,7.74,3.41A5.69,5.69,0,0,1,693.5,319Z"/><path class="cls-2" d="M830.46,391.41l10.12-11.31c-7.47,0-14.47,0-21.46,0a2.65,2.65,0,0,0-1.7,1c-2.56,3-5,6-7.66,9.1-2.55-3.08-5-6.07-7.47-9a3,3,0,0,0-1.83-1.09c-6.94-.08-13.88,0-21.35,0l19.61,22.49-24,26.45a4.86,4.86,0,0,0,.77.16c6.88,0,13.77,0,20.65,0a3,3,0,0,0,1.88-1c3.44-3.92,6.8-7.91,10.2-11.87.45-.52.92-1,1.45-1.61,3.91,4.6,7.64,9.06,11.46,13.43a3.28,3.28,0,0,0,2.2,1c6.59.08,13.17,0,19.76,0a13.05,13.05,0,0,0,1.48-.16l-24.13-26.45C823.83,398.82,827.14,395.11,830.46,391.41Z"/><path class="cls-2" d="M987.07,263.48c-5.28,0-10.56,0-15.84,0-1.19,0-1.29.72-1.5,1.55q-5.47,21.52-11,43c-.14.54-.2,1.1-.33,1.79,3.21,0,6.23,0,9.25,0,5.51-.09,9.27-3.08,10.64-8.44q3-12,6.07-23.94c1.16-4.57,2.33-9.14,3.51-13.78A4.54,4.54,0,0,0,987.07,263.48Z"/><path class="cls-2" d="M921.18,285.42a17.77,17.77,0,0,0-10.25,6.15v-5H893.84v69.71H900c6.57,0,10.93-4.33,11-10.88,0-4.15,0-8.3,0-12.45,0-.49.07-1,.13-1.63,8.83,8.87,26,7.93,34.38-4.37,6.92-10.14,6.24-24.68-1.88-33.89C937.65,286.25,930,283.75,921.18,285.42Zm.13,36.62c-6.53,0-11-4.51-10.95-11a10.66,10.66,0,0,1,11.16-11c6.48,0,11,4.66,10.91,11.25S927.9,322.09,921.31,322Z"/><path class="cls-2" d="M879.33,288.93c-8.18-5.89-21.55-5.66-27.56,2.53,0,.06-.21,0-.5,0v-4.92h-17v69.69h6.16c6.52,0,10.82-4.25,10.89-10.76.05-4.21,0-8.42,0-12.63,0-.49.07-1,.11-1.61,8.48,8.25,21.36,6.95,28.52,1.68a24.8,24.8,0,0,0,10.26-17.63C891.49,304.56,888.36,295.43,879.33,288.93ZM861.68,322c-6.56,0-10.91-4.39-10.9-11S855.31,300,861.84,300s10.89,4.56,10.91,11.05S868.34,322.07,861.68,322Z"/><path class="cls-2" d="M964.23,315c-6.45,0-11,4.65-11.05,11.18s4.35,10.89,11,10.94,11.09-4.29,11.11-10.95S970.7,315,964.23,315Z"/><line class="cls-5" x1="662.27" x2="662.27" y2="672"/><line class="cls-5" x1="542.77" x2="542.77" y2="672"/><line class="cls-5" x1="537.37" x2="537.37" y2="672"/><line class="cls-5" x1="417.87" x2="417.87" y2="672"/></g></svg>