<svg xmlns="http://www.w3.org/2000/svg" viewBox="0 0 672 672"><g id="Layer_1" data-name="Layer 1"><path d="M552.38,428c-4.18-7.25-15.31-7.64-20.8,2.42-3,5.49-6.12,8.68-9,10.53l-4.88-8.17,9.38-5.24-30.91-74.74a43.55,43.55,0,0,0,4.61-4.3c7.36-8,15.32-22.56,11.43-46-1.34-7.12-2.17-13.47,1.31-19,6.27-10,3.23-17.54-1.28-20.94-8.25-6.2-17.64-1.4-22.89,4l-2.16-30.68c-.44-6.17-2.76-11.51-6.37-14.64a13.93,13.93,0,0,0-16.23-1.24l-.09-1.25c-.43-6.08-2.91-11.6-6.64-14.77a13,13,0,0,0-9.83-3.11c-7.51.69-12.5,7.78-13.65,15.3a13.18,13.18,0,0,0-6.84-1.14c-9.95.95-14.5,10.78-13.85,20l1,14.55a11,11,0,0,0-4.81-.56c-8.25.93-13.08,8.58-12.3,19.5l3.24,45.91h0l.06.92a2.56,2.56,0,0,0,.05.27c1.84,21.91,10.94,34.59,19.34,41.72a47.5,47.5,0,0,1-1.87,16.48c-3.92,13.21-13.1,22.86-27.17,28.66l-3.77,1.42L360.78,412l8.1,27.09,7.64-.94c-2.33,5-4.15,12.78-1.12,23.34,2.68,9.38,10.9,10.48,15.51,8.21,6.09-3,9.35-9.36,3.66-18.2-6.1-9.46-4.26-13.6-2.5-15.26l1-.13,2.35,7.44,3.09.19q3.21.19,6.2.19c42,0,52.86-27.51,53.32-28.73a4.5,4.5,0,1,0-8.43-3.16c-.09.24-9.49,23.95-47.47,22.85l-3.67-11.61-3.94-12.51,0,0c28.38-11.69,33.9-34.79,34.67-47.52a32.47,32.47,0,0,0,6.15,2.49,4,4,0,0,0,1,.11,4.5,4.5,0,0,0,1-8.9c-.25-.05-24.93-7.08-27.49-43.23L406.6,267.8c-.06-1-.52-9.38,4.33-9.92a2,2,0,0,1,1.67.57c1.73,1.44,3.13,5,3.38,8.68l2,27.77a4.5,4.5,0,0,0,9-.63l-1.62-22.95h0l-2.61-37c-.28-3.94,1-10,5.73-10.42a4,4,0,0,1,3.2,1c1.84,1.55,3.19,4.92,3.45,8.56,0,0,0,0,0,.06L438.15,277a4.5,4.5,0,0,0,4.48,4.18H443a4.5,4.5,0,0,0,4.18-4.8l-4-56.17c-.34-4.87,2.54-10.12,5.71-10.41a4,4,0,0,1,3.18,1c1.87,1.58,3.24,4.94,3.49,8.54l4,56.16a4.5,4.5,0,1,0,9-.63l-2.63-37.38a.66.66,0,0,1,0-.14c-.27-3.85,1-10.08,5.62-10.42a4.49,4.49,0,0,1,3.47,1.07c1.77,1.53,3,4.78,3.29,8.47l3.95,56h0v.06l.8,11.36a4.33,4.33,0,0,0,.08.5c0,.1,0,.21.05.31a5.44,5.44,0,0,0,.26.71l0,.09a4.51,4.51,0,0,0,3.32,2.5l.22,0a4.57,4.57,0,0,0,.52,0h.32a2.57,2.57,0,0,0,.4-.07,3.11,3.11,0,0,0,.44-.07c.14,0,.27-.1.41-.15s.29-.1.42-.16a2.67,2.67,0,0,0,.36-.22c.13-.08.26-.15.38-.24a2.7,2.7,0,0,0,.31-.28c.11-.1.22-.19.32-.3l.25-.33c.09-.12.18-.24.26-.37s.13-.25.19-.37.13-.27.18-.41a3.39,3.39,0,0,0,.11-.43,3,3,0,0,0,.1-.43,2.42,2.42,0,0,0,0-.47,2.36,2.36,0,0,0,0-.37c-.07-1.86-.39-6-.61-9l-.2-2.57v0c-.55-7.83.68-14,3.55-17.77,1.38-1.81,7.47-7.87,12.13-4.36,2,1.5,1.65,4.86-.93,9-5.62,9-3.76,18.9-2.55,25.36,3.29,19.82-3.19,31.82-9.2,38.4a35.85,35.85,0,0,1-5.59,4.92,5.1,5.1,0,0,0-.89.63c-6.21,4.17-12.89,5.82-17.71,5.48a4.5,4.5,0,1,0-.67,9c.69.06,1.38.08,2.08.08a37.48,37.48,0,0,0,17.18-4.63l20,48.33c-.81,1.71-3.42,5.53-10.74,7a4.5,4.5,0,0,0,.88,8.91,4.58,4.58,0,0,0,.9-.09,25.47,25.47,0,0,0,12.89-6.33l3.26,7.88L513.11,425h0l-11.89,6.64-7.52,4.19L450.33,377.9a4.5,4.5,0,1,0-7.2,5.39l42.64,57h0l23.23,31L532.81,458l-3.43-5.74a41.19,41.19,0,0,0,16-6.24C554.54,439.82,554.63,431.86,552.38,428Z"/><path d="M438.07,405.12a5.41,5.41,0,0,1-4.39,5.56,4.5,4.5,0,0,0,.81,8.92,4.62,4.62,0,0,0,.82-.07A14.44,14.44,0,0,0,447.07,405a4.42,4.42,0,0,0-4.57-4.42A4.5,4.5,0,0,0,438.07,405.12Z"/><path d="M441,293.3c-2.38.65-3.79,4.06-3.16,7.63s3.09,5.93,5.47,5.29,3.79-4.06,3.15-7.62S443.38,292.66,441,293.3Z"/><path d="M472.93,306.22c2.38-.64,3.79-4.06,3.15-7.62s-3.08-5.94-5.46-5.3-3.79,4.06-3.16,7.63S470.54,306.86,472.93,306.22Z"/><path d="M447.15,326.26a4.49,4.49,0,0,0,4.47,4.06l.45,0,15-1.49-5.18-23.25a4.5,4.5,0,0,0-8.79,2l3,13.33-4.92.49A4.5,4.5,0,0,0,447.15,326.26Z"/><path d="M444.14,340.81a4.5,4.5,0,0,0,1.59,6.16,24,24,0,0,0,32.76-8.48,4.5,4.5,0,0,0-7.76-4.57,14.94,14.94,0,0,1-20.43,5.3A4.5,4.5,0,0,0,444.14,340.81Z"/><path d="M311.52,450.71,306,420.13l-7.82-.58-10,29.43a3.39,3.39,0,0,0,2.11,4.29h.06a3.37,3.37,0,0,0,4.22-2.13l.84-2.48,9,.67.46,2.58a3.37,3.37,0,1,0,6.64-1.21Zm-13.87-8.64,3.55-10.47,2,10.88Z"/><path d="M355.52,444.78l-6.62-30.22L342.31,416l-2.67,19.39-10.53-16.5-6.58,1.45,6.62,30.22a3.38,3.38,0,0,0,2.27,2.49,3.44,3.44,0,0,0,1.75.08,3.37,3.37,0,0,0,2.57-4L333.31,438l5.55,8.69,6.23-1.36,1.4-10.22,2.44,11.1a3.37,3.37,0,1,0,6.59-1.44Z"/><path d="M270.06,441.34l-9.64-3.08,8.22-25.72-6.43-2.05-10.28,32.14L268,447.77a3.38,3.38,0,1,0,2.06-6.43Z"/><path d="M238.85,395.57l-24,19.79a3.38,3.38,0,0,0,4.3,5.21l2-1.67,7.31,5.3-1,2.44a3.38,3.38,0,0,0,1.91,4.38l.21.07a3.37,3.37,0,0,0,4.16-2l11.37-28.93Zm-12.28,18.89,8.53-7-4,10.3Z"/><path d="M196,399.39a9.56,9.56,0,0,1-2.92-16.67,3.38,3.38,0,1,1,4.13,5.34,2.81,2.81,0,1,0,3.43,4.45l1.34-1a2.83,2.83,0,0,0,.51-4,9.55,9.55,0,0,1,1.72-13.41l1.34-1a9.56,9.56,0,1,1,11.69,15.13,3.38,3.38,0,1,1-4.13-5.34,2.82,2.82,0,0,0,1.07-1.87,2.82,2.82,0,0,0-4.51-2.58l-1.33,1a2.82,2.82,0,0,0-.51,4,9.57,9.57,0,0,1-1.72,13.41l-1.34,1A9.56,9.56,0,0,1,196,399.39Z"/><circle cx="312.8" cy="397.01" r="9"/><path d="M356.46,333.83,342,359.26a6.75,6.75,0,1,1-11.74-6.67l32.22-56.74-19.56-11.11-32.22,56.74a29.25,29.25,0,1,0,50.86,28.9L376,344.94Z"/><path d="M283.32,325.92a6.75,6.75,0,1,1-11.74-6.67L286,293.82l-19.57-11.11L252,308.14a6.75,6.75,0,0,1-11.74-6.67L254.72,276l-19.56-11.12-6.25,11a33.68,33.68,0,0,0,.24-8.22h0l-2.29-24.15,16.82-8L234,215.25l-9.42,4.47-1.7-18-22.4,2.12L203,230,181.07,240.4h0a33.57,33.57,0,0,0-10.62,7.93,31.5,31.5,0,0,0-58.18-22.17,31.21,31.21,0,0,0-3.94,12.57,31.51,31.51,0,0,0-27.77,15.93L75,264.44l19.56,11.11,5.56-9.78a9,9,0,0,1,12.27-3.38L123,268.44c.35.22.69.46,1.06.67a31.53,31.53,0,0,0,38.62-6,33.72,33.72,0,0,0,55.6,32.63,29.2,29.2,0,0,0,32.11,37.93A29.2,29.2,0,0,0,302.88,337l14.45-25.43-19.57-11.11ZM135.21,249.55l0-.06-.54-.31a8.4,8.4,0,1,1,.51.37ZM190,280.67a11.4,11.4,0,0,1-4.22-15.34,11.15,11.15,0,0,1,4.95-4.61l14.51-6.89,1.52,16a11.29,11.29,0,0,1-1.42,6.61A11.41,11.41,0,0,1,190,280.67Z"/></g></svg>