<svg xmlns="http://www.w3.org/2000/svg" viewBox="0 0 672 672"><defs><style>.cls-1{fill:#5656ef;}.cls-2{fill:#ea5149;}.cls-3{fill:#f9842d;}.cls-4{fill:#ffd731;}.cls-5{fill:#8fe044;}.cls-6{fill:none;}.cls-7{fill:#ff5d3e;}</style></defs><g id="Layer_1" data-name="Layer 1"><path class="cls-1" d="M429,321.06c-4.27-7.41-15.63-7.81-21.24,2.46-3.06,5.61-6.26,8.87-9.17,10.76l-5-8.35,9.58-5.34-31.57-76.33a45.32,45.32,0,0,0,4.7-4.39c7.52-8.22,15.65-23,11.67-47-1.36-7.28-2.2-13.76,1.35-19.43,6.4-10.23,3.29-17.92-1.32-21.38-8.41-6.34-18-1.44-23.36,4.08l-2.21-31.34c-.45-6.3-2.82-11.74-6.51-14.94a14.22,14.22,0,0,0-16.57-1.27l-.09-1.28c-.44-6.2-3-11.84-6.78-15.08a13.29,13.29,0,0,0-10-3.17c-7.67.7-12.77,7.94-13.94,15.62a13.39,13.39,0,0,0-7-1.16c-10.16,1-14.81,11-14.14,20.43l1,14.86a11.09,11.09,0,0,0-4.91-.57c-8.42.94-13.35,8.76-12.56,19.91L274.25,205h0l.06.94c0,.09,0,.18.05.27,1.88,22.38,11.18,35.33,19.75,42.6a48.31,48.31,0,0,1-1.91,16.84c-4,13.48-13.38,23.34-27.74,29.26l-3.85,1.45-27.3,8.37,8.28,27.67,7.8-1c-2.38,5.09-4.24,13-1.15,23.83,2.74,9.59,11.13,10.7,15.84,8.38,6.22-3.06,9.55-9.55,3.74-18.58-6.23-9.66-4.35-13.88-2.55-15.59l1-.12,2.4,7.6,3.15.19q3.28.19,6.34.2c42.92,0,54-28.09,54.44-29.35a4.59,4.59,0,1,0-8.6-3.22c-.1.25-9.7,24.46-48.49,23.34l-3.74-11.86-4-12.78.05,0c29-11.93,34.61-35.52,35.4-48.53a32.46,32.46,0,0,0,6.28,2.55,4.77,4.77,0,0,0,1,.11,4.59,4.59,0,0,0,1-9.08c-.25-.06-25.46-7.23-28.07-44.16l-3.3-46.88c-.07-1-.54-9.57,4.42-10.13a2.08,2.08,0,0,1,1.7.58c1.77,1.48,3.19,5.13,3.46,8.87l2,28.36a4.59,4.59,0,1,0,9.16-.65L299.2,161.1h0l-2.67-37.8c-.28-4,1-10.18,5.85-10.63a4.12,4.12,0,0,1,3.27,1c1.88,1.59,3.26,5,3.53,8.75a.13.13,0,0,0,0,.06l3.13,44.38a4.6,4.6,0,0,0,4.58,4.27h.33a4.61,4.61,0,0,0,4.26-4.91l-4.05-57.35c-.35-5,2.59-10.34,5.83-10.64a4.14,4.14,0,0,1,3.25,1c1.9,1.62,3.3,5,3.56,8.73l4.05,57.35a4.6,4.6,0,0,0,9.17-.65l-2.7-38.16c0-.06,0-.1,0-.16-.28-3.92,1-10.29,5.74-10.63a4.63,4.63,0,0,1,3.54,1.09c1.81,1.57,3.09,4.88,3.36,8.65l4,57.18h0v.07l.82,11.6a4,4,0,0,0,.08.5,3,3,0,0,0,.06.32,3.51,3.51,0,0,0,.26.73l0,.09a4.64,4.64,0,0,0,3.38,2.56l.23,0a4.93,4.93,0,0,0,.54.05H363c.13,0,.26,0,.4-.07s.3,0,.45-.08l.42-.15c.14-.05.29-.1.42-.16s.25-.15.38-.23.26-.15.38-.24l.32-.29.33-.31a3,3,0,0,0,.25-.34c.09-.12.19-.24.27-.37s.12-.25.19-.38.13-.27.18-.42a3.17,3.17,0,0,0,.12-.44,3,3,0,0,0,.1-.43,3.91,3.91,0,0,0,0-.49,2.42,2.42,0,0,0,0-.38c-.08-1.89-.4-6.08-.63-9.14l-.2-2.63v0c-.56-8,.69-14.27,3.63-18.14,1.41-1.86,7.63-8,12.38-4.45,2,1.53,1.68,5-.95,9.17-5.74,9.17-3.84,19.29-2.6,25.89,3.36,20.24-3.26,32.49-9.4,39.21a36.39,36.39,0,0,1-5.7,5,4.51,4.51,0,0,0-.91.64c-6.34,4.26-13.16,5.95-18.09,5.6a4.59,4.59,0,1,0-.68,9.16c.7.05,1.41.08,2.12.08a38.26,38.26,0,0,0,17.54-4.73l20.41,49.36c-.83,1.74-3.49,5.64-11,7.15a4.6,4.6,0,0,0,.9,9.1,4.86,4.86,0,0,0,.92-.09,26.12,26.12,0,0,0,13.17-6.46l3.32,8L388.87,318h0l-12.15,6.77-7.67,4.28-44.29-59.16a4.59,4.59,0,1,0-7.35,5.51L361,333.61h0l23.72,31.69L409,351.74l-3.5-5.86a42.19,42.19,0,0,0,16.36-6.37C431.17,333.16,431.26,325,429,321.06Z"/><path class="cls-1" d="M312.24,297.73a5.52,5.52,0,0,1-4.48,5.67,4.6,4.6,0,0,0,.82,9.12,4.78,4.78,0,0,0,.84-.08,14.73,14.73,0,0,0,12-14.86,4.52,4.52,0,0,0-4.67-4.52A4.59,4.59,0,0,0,312.24,297.73Z"/><path class="cls-2" d="M315.23,183.55c-2.43.65-3.87,4.14-3.22,7.78s3.14,6.06,5.57,5.41,3.88-4.14,3.23-7.79S317.66,182.89,315.23,183.55Z"/><path class="cls-3" d="M347.83,196.74c2.43-.66,3.88-4.14,3.23-7.79s-3.15-6.06-5.58-5.4-3.88,4.14-3.23,7.78S345.4,197.39,347.83,196.74Z"/><path class="cls-4" d="M321.51,217.21a4.59,4.59,0,0,0,4.56,4.14,3.44,3.44,0,0,0,.46,0l15.35-1.51-5.29-23.75a4.6,4.6,0,0,0-9,2l3,13.62-5,.5A4.59,4.59,0,0,0,321.51,217.21Z"/><path class="cls-5" d="M318.43,232.06a4.6,4.6,0,0,0,1.63,6.29,24.45,24.45,0,0,0,33.45-8.66,4.6,4.6,0,0,0-7.92-4.67,15.25,15.25,0,0,1-20.87,5.41A4.61,4.61,0,0,0,318.43,232.06Z"/><path class="cls-4" d="M381.69,572.31l-14.91-28L359,546.16l-.55,31.73a3.45,3.45,0,0,0,3.38,3.51h.06a3.46,3.46,0,0,0,3.45-3.39l0-2.67,9-2.16,1.25,2.36a3.45,3.45,0,1,0,6.09-3.23Zm-16.18-4.09.19-11.29,5.31,10Z"/><path class="cls-2" d="M422.64,552.85,406.8,525.52l-6,3.45,3.43,19.68L388.9,535.89l-6,3.45,15.84,27.33a3.45,3.45,0,0,0,6-3.45l-5.83-10.05L407,559.9l5.63-3.26-1.81-10.38,5.82,10a3.45,3.45,0,0,0,6-3.46Z"/><path class="cls-5" d="M338.45,576.09H328.11V548.52h-6.9V583h17.24a3.45,3.45,0,0,0,0-6.9Z"/><path class="cls-1" d="M293.86,541.28,276.7,568a3.45,3.45,0,1,0,5.8,3.73l1.44-2.25,8.76,2.89-.18,2.66a3.46,3.46,0,0,0,3.22,3.67H296a3.44,3.44,0,0,0,3.43-3.22l2.06-31.67Zm-6.07,22.19,6.1-9.5-.73,11.27Z"/><path class="cls-3" d="M253.34,558.33a9.65,9.65,0,0,1-5.52-1.73,9.76,9.76,0,0,1-2.5-13.58,3.44,3.44,0,0,1,5.67,3.91,2.87,2.87,0,1,0,4.73,3.26l1-1.42a2.87,2.87,0,0,0-.73-4,9.75,9.75,0,0,1-2.5-13.58l1-1.42a9.76,9.76,0,0,1,16.08,11.08,3.45,3.45,0,1,1-5.68-3.91,2.87,2.87,0,0,0-.73-4,2.79,2.79,0,0,0-2.15-.46,2.83,2.83,0,0,0-1.85,1.19l-1,1.42a2.86,2.86,0,0,0,.74,4,9.78,9.78,0,0,1,2.5,13.58l-1,1.42A9.76,9.76,0,0,1,253.34,558.33Z"/><rect class="cls-6" x="181.06" y="364.81" width="307.88" height="183.81"/><circle class="cls-7" cx="459.07" cy="516.45" r="9.19"/><path class="cls-7" d="M466,438.33V468.2a6.89,6.89,0,0,1-13.78,0V401.57h-23V468.2a29.87,29.87,0,0,0,59.74,0V438.33Z"/><path class="cls-7" d="M397,468.2a6.9,6.9,0,0,1-13.79,0V438.33h-23V468.2a6.89,6.89,0,0,1-13.78,0V438.33h-23v12.92a34.67,34.67,0,0,0-3.93-7.41h0l-14.21-20.29L316.27,408,297.45,394.8l-6.11,8.72-10.6-15.15-18.82,13.18,15.4,22-14.21,20.29h0a34.21,34.21,0,0,0-5.42,12.39,32.16,32.16,0,1,0-60,22.82,32.18,32.18,0,0,0-16.62,28.14v11.49h23V507.19a9.2,9.2,0,0,1,9.19-9.19h12.5c.43,0,.85.07,1.28.07a32.2,32.2,0,0,0,31.28-24.79,34.44,34.44,0,0,0,65.83.93,29.81,29.81,0,0,0,47.64,17.48A29.82,29.82,0,0,0,420,468.2V438.33H397Zm-170,6.89V475h-.64a8.71,8.71,0,1,1,.64.06Zm64.33,0a11.64,11.64,0,0,1-11.48-11.49,11.39,11.39,0,0,1,2.07-6.58l9.41-13.44L300.76,457a11.46,11.46,0,0,1,2.07,6.58A11.64,11.64,0,0,1,291.34,475.09Z"/></g></svg>