<svg xmlns="http://www.w3.org/2000/svg" viewBox="0 0 672 672"><defs><style>.cls-1{fill:#ff5c35;}</style></defs><g id="Layer_1" data-name="Layer 1"><rect class="cls-1" x="60" y="60" width="552" height="552" rx="276"/><path d="M452.57,448.62c-5.11-8.88-18.74-9.36-25.47,3-3.67,6.72-7.5,10.63-11,12.9l-6-10,11.49-6.41-37.85-91.54a54.89,54.89,0,0,0,5.64-5.26c9-9.86,18.76-27.63,14-56.37-1.64-8.73-2.65-16.5,1.61-23.3,7.67-12.27,3.95-21.49-1.57-25.65-10.1-7.6-21.6-1.72-28,4.9l-2.65-37.58c-.53-7.55-3.37-14.09-7.8-17.92a17,17,0,0,0-19.87-1.52l-.11-1.54c-.53-7.44-3.57-14.2-8.13-18.08a15.94,15.94,0,0,0-12-3.8c-9.2.84-15.31,9.52-16.72,18.72a16.2,16.2,0,0,0-8.37-1.39c-12.19,1.16-17.76,13.21-17,24.51L284,230.06a13.3,13.3,0,0,0-5.89-.68c-10.1,1.13-16,10.5-15.07,23.87l4,56.22h0l.08,1.13c0,.11,0,.22.06.33,2.25,26.84,13.4,42.36,23.69,51.09a58.34,58.34,0,0,1-2.29,20.19c-4.8,16.17-16.05,28-33.27,35.09L250.67,419l-32.74,10,9.93,33.18,9.35-1.15c-2.85,6.1-5.08,15.65-1.38,28.58,3.29,11.49,13.36,12.83,19,10.05,7.46-3.67,11.46-11.46,4.48-22.29-7.46-11.58-5.21-16.64-3.06-18.69l1.25-.15,2.88,9.12,3.78.23q3.93.23,7.6.23c51.48,0,64.73-33.69,65.29-35.19a5.51,5.51,0,0,0-10.32-3.87c-.11.3-11.63,29.34-58.14,28l-4.48-14.22-4.84-15.33h.05c34.76-14.32,41.52-42.61,42.46-58.2a39.1,39.1,0,0,0,7.53,3.05,5.42,5.42,0,0,0,1.19.13,5.51,5.51,0,0,0,1.18-10.89c-.3-.07-30.54-8.67-33.66-52.95l-4-56.22c-.08-1.18-.64-11.48,5.3-12.15a2.49,2.49,0,0,1,2,.7c2.12,1.77,3.82,6.14,4.14,10.63l2.4,34a5.51,5.51,0,1,0,11-.78l-2-28.09h0l-3.2-45.32c-.34-4.83,1.25-12.22,7-12.76a5,5,0,0,1,3.93,1.19c2.25,1.91,3.91,6,4.22,10.49a.24.24,0,0,0,0,.08l3.75,53.22a5.52,5.52,0,0,0,5.49,5.12h.4a5.52,5.52,0,0,0,5.11-5.89l-4.86-68.78c-.42-6,3.11-12.4,7-12.76a5,5,0,0,1,3.89,1.23c2.28,1.94,4,6.05,4.27,10.46l4.86,68.78a5.51,5.51,0,1,0,11-.78l-3.23-45.77c0-.06,0-.12,0-.18-.34-4.71,1.24-12.34,6.88-12.75a5.5,5.5,0,0,1,4.25,1.31c2.17,1.87,3.71,5.85,4,10.37l4.84,68.57v.1l1,13.91a5.78,5.78,0,0,0,.11.6c0,.13,0,.26.06.38a6.09,6.09,0,0,0,.31.88,1.17,1.17,0,0,1,.05.11,5.51,5.51,0,0,0,4.05,3.06,2.66,2.66,0,0,0,.28,0c.21,0,.42.06.64.06h.39c.17,0,.32-.06.48-.09a4.68,4.68,0,0,0,.54-.09c.18-.05.34-.12.51-.18a5.38,5.38,0,0,0,.51-.2c.15-.08.3-.18.44-.27a3.58,3.58,0,0,0,.46-.29,3.07,3.07,0,0,0,.38-.34,3.59,3.59,0,0,0,.4-.38,4.17,4.17,0,0,0,.3-.4,4.6,4.6,0,0,0,.32-.45,4.93,4.93,0,0,0,.23-.46c.08-.16.16-.32.23-.5s.09-.35.14-.52.09-.34.12-.52a5.68,5.68,0,0,0,0-.59c0-.15,0-.3,0-.45-.1-2.27-.48-7.3-.76-11l-.24-3.15v0c-.67-9.59.83-17.11,4.35-21.76,1.69-2.22,9.15-9.63,14.85-5.33,2.45,1.84,2,5.95-1.14,11-6.88,11-4.6,23.15-3.11,31.06,4,24.27-3.92,39-11.28,47a44,44,0,0,1-6.84,6,4.88,4.88,0,0,0-1.08.76c-7.61,5.11-15.79,7.13-21.7,6.71a5.51,5.51,0,1,0-.82,11c.84.07,1.69.1,2.55.1a45.87,45.87,0,0,0,21-5.67l24.48,59.19c-1,2.08-4.19,6.77-13.16,8.57a5.51,5.51,0,0,0,1.08,10.92,6,6,0,0,0,1.1-.11c7.48-1.51,12.46-4.58,15.79-7.75l4,9.64L404.48,445h0l-14.56,8.13-9.2,5.13L327.6,387.31a5.51,5.51,0,0,0-8.82,6.6L371,463.68h0l28.45,38,29.15-16.25-4.19-7A50.59,50.59,0,0,0,444,470.75C455.22,463.14,455.33,453.4,452.57,448.62Z"/><path d="M316.18,283.71c-2.92.79-4.65,5-3.87,9.34s3.77,7.27,6.69,6.48,4.64-5,3.86-9.33S319.09,282.92,316.18,283.71Z"/><path d="M355.27,299.53c2.91-.79,4.65-5,3.87-9.33s-3.78-7.28-6.69-6.49-4.65,5-3.87,9.34S352.36,300.32,355.27,299.53Z"/><path d="M323.7,324.08a5.51,5.51,0,0,0,5.48,5,5.15,5.15,0,0,0,.55,0l18.4-1.82-6.34-28.48a5.51,5.51,0,0,0-10.76,2.4l3.64,16.33-6,.6A5.51,5.51,0,0,0,323.7,324.08Z"/><path d="M320,341.89a5.51,5.51,0,0,0,2,7.55,29.32,29.32,0,0,0,40.11-10.39,5.51,5.51,0,1,0-9.5-5.6,18.29,18.29,0,0,1-25,6.49A5.51,5.51,0,0,0,320,341.89Z"/></g></svg>