<svg id="Layer_3" data-name="Layer 3" xmlns="http://www.w3.org/2000/svg" viewBox="0 0 1080 672"><defs><style>.cls-1{fill:#ff5d3e;}.cls-2{fill:#fff;}.cls-3,.cls-4,.cls-5{fill:none;}.cls-4,.cls-5{stroke:#ff8863;stroke-miterlimit:10;}.cls-5{stroke-dasharray:6 5;}</style></defs><rect class="cls-1" width="1080" height="672"/><path class="cls-2" d="M619.33,294.12c-3.49-6-12.76-6.37-17.34,2-2.49,4.58-5.1,7.24-7.48,8.78l-4.06-6.81,7.81-4.36L572.5,231.45a37.08,37.08,0,0,0,3.84-3.58c6.13-6.71,12.77-18.8,9.53-38.36-1.12-5.93-1.81-11.22,1.09-15.85,5.22-8.35,2.69-14.62-1.07-17.45C579,151,571.2,155,566.82,159.54L565,134c-.37-5.14-2.3-9.59-5.31-12.2a11.6,11.6,0,0,0-13.53-1l-.07-1c-.36-5.06-2.43-9.66-5.53-12.3a10.9,10.9,0,0,0-8.2-2.59c-6.27.57-10.43,6.5-11.38,12.78a10.85,10.85,0,0,0-5.69-1c-8.29.79-12.08,9-11.54,16.67l.86,12.13a8.9,8.9,0,0,0-4-.47c-6.87.77-10.9,7.15-10.26,16.25l2.76,39s0,.06,0,.1c1.51,18.35,9.13,28.95,16.14,34.9.44,5.64.46,27.45-24.2,37.61L482,274l-22.29,6.84,6.75,22.57,6.37-.78c-1.94,4.15-3.46,10.65-.94,19.45,2.24,7.82,9.09,8.73,12.93,6.84,5.07-2.5,7.79-7.8,3.05-15.17-5.08-7.88-3.55-11.32-2.08-12.72l.85-.1,2,6.2,2.58.16c1.78.11,3.5.16,5.17.16,35,0,44-22.92,44.43-23.95a3.75,3.75,0,0,0-7-2.65c-.32.84-8.11,20-39.57,19.07l-4.89-15.52-1.45-4.59h0c23.65-9.74,28.25-29,28.89-39.6a26.19,26.19,0,0,0,5.13,2.07,3.75,3.75,0,1,0,1.61-7.32c-.21-.05-20.78-5.89-22.91-36h0l-2.7-38.26c0-.8-.43-7.81,3.61-8.26a1.68,1.68,0,0,1,1.39.47c1.45,1.2,2.6,4.18,2.82,7.23l.29,4h0l1.35,19.12a3.75,3.75,0,0,0,7.48-.53l-1.64-23.14h0l-1.89-26.83c-.23-3.28.85-8.3,4.77-8.68a3.46,3.46,0,0,1,2.68.82c1.53,1.29,2.65,4.09,2.87,7.14a.08.08,0,0,0,0,0l2.55,36.22a3.75,3.75,0,0,0,3.74,3.49h.27a3.75,3.75,0,0,0,3.47-4l-3.3-46.8c-.29-4.06,2.12-8.44,4.76-8.68a3.34,3.34,0,0,1,2.65.83c1.55,1.32,2.69,4.12,2.91,7.12l3.3,46.8a3.75,3.75,0,1,0,7.48-.53l-2.2-31.12c0-.05,0-.1,0-.15-.23-3.2.84-8.39,4.69-8.67a3.69,3.69,0,0,1,2.88.89c1.48,1.28,2.53,4,2.75,7.06l4,56.19s0,0,0,.07a3.67,3.67,0,0,0,.34,1.29s0,0,0,0a4.18,4.18,0,0,0,.79,1.07h0a3.79,3.79,0,0,0,1.15.72h0a3.81,3.81,0,0,0,1.31.25l.08,0h.26l.28,0a3,3,0,0,0,.43-.08,2.33,2.33,0,0,0,.31-.11,2.79,2.79,0,0,0,.37-.14,2,2,0,0,0,.29-.18l.33-.2a2.73,2.73,0,0,0,.25-.23l.28-.26.2-.27a2.18,2.18,0,0,0,.22-.31,3,3,0,0,0,.15-.31,1.87,1.87,0,0,0,.16-.35,3.18,3.18,0,0,0,.09-.33c0-.13.07-.25.09-.38s0-.23,0-.34,0-.24,0-.36c-.07-1.49-.32-4.88-.51-7.36l-.17-2.27c-.46-6.53.56-11.65,3-14.81,1.15-1.51,6.23-6.55,10.11-3.63,1.66,1.25,1.37,4.05-.78,7.48-4.69,7.49-3.13,15.75-2.12,21.14,2.74,16.51-2.66,26.51-7.68,32a29.48,29.48,0,0,1-4.64,4.11,3.14,3.14,0,0,0-.76.53c-5.17,3.47-10.73,4.86-14.75,4.55a3.75,3.75,0,1,0-.56,7.48c.57,0,1.15.07,1.74.07a31.21,31.21,0,0,0,14.31-3.86L582.8,276c-.69,1.42-2.86,4.61-9,5.84a3.75,3.75,0,0,0,.73,7.43,3.82,3.82,0,0,0,.75-.08,21.19,21.19,0,0,0,10.75-5.27l2.71,6.56-18.07,10.08-.28.16L534.29,252.4a3.75,3.75,0,0,0-6,4.49l40.07,53.54h0l14.83,19.8L603,319.16l-2.85-4.78a34.41,34.41,0,0,0,13.35-5.2C621.12,304,621.2,297.37,619.33,294.12Z"/><path class="cls-2" d="M527.76,271.27a3.75,3.75,0,0,0-3.69,3.82,4.51,4.51,0,0,1-3.66,4.63,3.75,3.75,0,0,0,.67,7.44,3.08,3.08,0,0,0,.68-.07A12,12,0,0,0,531.57,275a3.76,3.76,0,0,0-3.75-3.69Z"/><path class="cls-2" d="M526.51,181.91c-2,.53-3.16,3.38-2.63,6.35s2.57,5,4.55,4.41,3.16-3.38,2.63-6.35S528.49,181.37,526.51,181.91Z"/><path class="cls-2" d="M553.11,192.67c2-.53,3.16-3.38,2.63-6.35s-2.56-4.95-4.55-4.41-3.16,3.38-2.63,6.35S551.13,193.21,553.11,192.67Z"/><path class="cls-2" d="M531.63,209.37a3.74,3.74,0,0,0,3.73,3.38h.37l12.53-1.24-4.32-19.38a3.75,3.75,0,0,0-7.32,1.63l2.48,11.12-4.11.4A3.75,3.75,0,0,0,531.63,209.37Z"/><path class="cls-2" d="M529.12,221.5a3.75,3.75,0,0,0,1.33,5.13,19.86,19.86,0,0,0,10.09,2.77,20.19,20.19,0,0,0,5-.65,19.79,19.79,0,0,0,12.18-9.19,3.75,3.75,0,1,0-6.47-3.81,12.42,12.42,0,0,1-17,4.42A3.75,3.75,0,0,0,529.12,221.5Z"/><path class="cls-2" d="M590.8,555.63l-16.21-30.49-8.48,2-.6,34.53a3.77,3.77,0,0,0,3.69,3.82h.06a3.76,3.76,0,0,0,3.75-3.69l0-2.9,9.76-2.35,1.36,2.57a3.75,3.75,0,1,0,6.62-3.52Zm-17.6-4.45.21-12.29,5.77,10.85Z"/><path class="cls-2" d="M635.36,534.46l-17.24-29.74-6.48,3.75,3.74,21.42L598.65,516l-6.48,3.76L609.4,549.5a3.76,3.76,0,0,0,3.25,1.87,3.67,3.67,0,0,0,1.88-.51,3.74,3.74,0,0,0,1.36-5.12l-6.33-10.93,8.81,7.32,6.13-3.55-2-11.29,6.34,10.93a3.75,3.75,0,0,0,6.49-3.76Z"/><path class="cls-2" d="M543.75,559.75H532.5v-30H525v37.5h18.75a3.75,3.75,0,0,0,0-7.5Z"/><path class="cls-2" d="M495.23,521.87l-18.67,29.06a3.75,3.75,0,1,0,6.31,4.05l1.57-2.45,9.53,3.14-.19,2.9a3.76,3.76,0,0,0,3.5,4h.25a3.76,3.76,0,0,0,3.74-3.51l2.24-34.46ZM488.63,546l6.64-10.34-.79,12.26Z"/><path class="cls-2" d="M451.15,540.42a10.63,10.63,0,0,1-8.73-16.66,3.75,3.75,0,1,1,6.17,4.26,3.13,3.13,0,1,0,5.15,3.55L454.8,530a3.12,3.12,0,0,0-.8-4.34,10.62,10.62,0,0,1-2.71-14.78l1.06-1.55a10.62,10.62,0,0,1,14.78-2.71,10.62,10.62,0,0,1,2.72,14.77,3.75,3.75,0,1,1-6.18-4.25,3.12,3.12,0,1,0-5.14-3.55l-1.07,1.54a3.13,3.13,0,0,0-.5,2.34,3.06,3.06,0,0,0,1.3,2A10.65,10.65,0,0,1,461,534.28l-1.07,1.54A10.6,10.6,0,0,1,451.15,540.42Z"/><rect class="cls-3" x="372.5" y="329.75" width="335" height="200"/><circle class="cls-2" cx="675" cy="494.75" r="10"/><path class="cls-2" d="M682.5,409.75v32.5a7.5,7.5,0,0,1-15,0v-72.5h-25v72.5a32.5,32.5,0,0,0,65,0v-32.5Z"/><path class="cls-2" d="M607.5,442.25a7.5,7.5,0,0,1-15,0v-32.5h-25v32.5a7.5,7.5,0,0,1-15,0v-32.5h-25v14.06a37.66,37.66,0,0,0-4.28-8.07h0l-15.46-22.08,11.86-16.94-20.48-14.34-6.64,9.49L481,355.38l-20.48,14.34,16.76,23.94-15.46,22.08h0a37.39,37.39,0,0,0-5.9,13.49,35,35,0,0,0-68.38,10.52,34.69,34.69,0,0,0,3.09,14.3,35,35,0,0,0-18.09,30.63v12.5h25v-12.5a10,10,0,0,1,10-10h13.6c.47,0,.93.07,1.4.07a35,35,0,0,0,34-27,37.47,37.47,0,0,0,71.63,1,32.44,32.44,0,0,0,51.84,19,32.45,32.45,0,0,0,52.5-25.56v-32.5h-25Zm-185,7.5v-.07h-.7a9.43,9.43,0,1,1,.7.07Zm70,0a12.67,12.67,0,0,1-12.5-12.5,12.42,12.42,0,0,1,2.26-7.17l10.24-14.62,10.24,14.62a12.42,12.42,0,0,1,2.26,7.17A12.67,12.67,0,0,1,492.5,449.75Z"/><circle class="cls-4" cx="540" cy="399.75" r="167.5"/><circle class="cls-4" cx="613.92" cy="527.38" r="20"/><line class="cls-4" x1="539.96" y1="399.76" x2="603.89" y2="510.07"/><circle class="cls-4" cx="574.43" cy="543.17" r="20"/><line class="cls-4" x1="539.98" y1="399.75" x2="569.76" y2="523.72"/><circle class="cls-4" cx="540" cy="547.25" r="20"/><line class="cls-4" x1="540" y1="399.75" x2="540" y2="527.25"/><circle class="cls-4" cx="493.89" cy="539.85" r="20"/><line class="cls-4" x1="540.02" y1="399.75" x2="500.15" y2="520.86"/><circle class="cls-4" cx="456.32" cy="521.2" r="20"/><line class="cls-4" x1="540.04" y1="399.76" x2="467.68" y2="504.74"/><line class="cls-5" y1="369.75" x2="1080" y2="369.75"/><line class="cls-5" x1="1080" y1="329.75" y2="329.75"/><line class="cls-5" y1="409.75" x2="1080" y2="409.75"/><line class="cls-5" y1="449.75" x2="1080" y2="449.75"/></svg>