<svg xmlns="http://www.w3.org/2000/svg" viewBox="0 0 1080 672"><defs><style>.cls-1{fill:#ff5d3e;}.cls-2{fill:#fff;}.cls-3,.cls-4,.cls-5,.cls-6,.cls-7,.cls-8{fill:none;stroke:#ff8863;stroke-miterlimit:10;}.cls-4{stroke-dasharray:6.4 5.33;}.cls-5{stroke-width:1.12px;stroke-dasharray:7.2 6;}.cls-6,.cls-7{stroke-width:1.25px;}.cls-6{stroke-dasharray:7.99 6.66;}.cls-7{stroke-dasharray:7.78 6.48;}.cls-8{stroke-dasharray:6.22 5.19;}</style></defs><g id="Layer_3" data-name="Layer 3"><rect class="cls-1" width="1080" height="672"/><circle class="cls-2" cx="729" cy="437.5" r="14"/><path class="cls-2" d="M739.5,318.5V364a10.5,10.5,0,0,1-21,0V262.5h-35V364a45.5,45.5,0,0,0,91,0V318.5Z"/><path class="cls-2" d="M634.5,364a10.5,10.5,0,0,1-21,0V318.5h-35V364a10.5,10.5,0,0,1-21,0V318.5h-35v19.64a52.7,52.7,0,0,0-6-11.25h0L494.86,296l16.61-23.72L482.8,252.19l-9.3,13.28-16.16-23.08-28.67,20.07L452.14,296l-21.65,30.91h0a52.32,52.32,0,0,0-8.27,18.84,49,49,0,1,0-91.42,34.8,49,49,0,0,0-25.3,42.87v17.5h35V423.4a14,14,0,0,1,14-14h18c1,.06,2,.1,3,.1a49.08,49.08,0,0,0,47.66-37.64,52.48,52.48,0,0,0,100.27,1.33A45.46,45.46,0,0,0,596,399.82,45.46,45.46,0,0,0,669.5,364V318.5h-35Zm-259,10.5v-.1h-1.61a13.94,13.94,0,1,1,1.61.1Zm98,0A17.73,17.73,0,0,1,456,357a17.43,17.43,0,0,1,3.16-10h0l14.33-20.47L487.83,347h0A17.43,17.43,0,0,1,491,357,17.73,17.73,0,0,1,473.5,374.5Z"/></g><g id="Layer_1" data-name="Layer 1"><line class="cls-3" x1="1079.01" y1="262.5" x2="-0.99" y2="262.5"/><line class="cls-3" x1="1079.75" y1="318.5" x2="-0.25" y2="318.5"/><line class="cls-3" x1="1081.1" y1="409.92" x2="1.1" y2="409.92"/><circle class="cls-4" cx="729" cy="364" r="28"/><circle class="cls-4" cx="624" cy="364" r="28"/><circle class="cls-4" cx="568" cy="364" r="28"/><circle class="cls-5" cx="375.5" cy="360.5" r="31.5"/><circle class="cls-6" cx="473.5" cy="357" r="35"/><line class="cls-7" x1="266.25" x2="736.49" y2="671.56"/><line class="cls-8" x1="680.64" y1="0.16" x2="210.51" y2="671.56"/></g></svg>