<svg xmlns="http://www.w3.org/2000/svg" viewBox="0 0 672 672"><defs><style>.cls-1{fill:#ff5d3e;}.cls-2{fill:#e6452d;}.cls-3,.cls-4{fill:none;stroke:#ff8863;stroke-miterlimit:10;}.cls-4{stroke-dasharray:6 5;}.cls-5{fill:#fff;}.cls-6{fill:#ff8863;}</style></defs><g id="Layer_3" data-name="Layer 3"><rect class="cls-1" width="672" height="672"/><rect class="cls-1" width="672" height="672"/></g><g id="Layer_1" data-name="Layer 1"><rect class="cls-2" x="75" y="221" width="522" height="230"/><line class="cls-3" x1="672" y1="221" y2="221"/><line class="cls-3" x1="672" y1="451" y2="451"/><line class="cls-3" x1="596.34" y1="672" x2="596.33"/><line class="cls-3" x1="74.75" y1="672" x2="74.75"/><line class="cls-4" x1="672" y1="297.25" y2="297.25"/><line class="cls-4" x1="672" y1="374.75" y2="374.75"/><line class="cls-4" x1="521.34" y1="672" x2="521.34"/><line class="cls-4" x1="151" y1="672" x2="151"/><path class="cls-5" d="M256,298.5H238.53l-17.29,66.87a7.5,7.5,0,1,0,14.52,3.76l1.46-5.63h20.06l1.46,5.63a7.5,7.5,0,0,0,7.26,5.62,7.63,7.63,0,0,0,1.88-.24,7.49,7.49,0,0,0,5.38-9.14Zm-14.87,50,6.15-23.79,6.15,23.79Z"/><path class="cls-5" d="M411,298.5H393.53l-17.29,66.87a7.5,7.5,0,1,0,14.52,3.76l1.46-5.63h20.06l1.46,5.63a7.5,7.5,0,0,0,7.26,5.62,7.63,7.63,0,0,0,1.88-.24,7.49,7.49,0,0,0,5.38-9.14Zm-14.87,50,6.15-23.79,6.15,23.79Z"/><path class="cls-5" d="M506,298.5l-15,40.81L476,298.5H461v68.75a7.5,7.5,0,0,0,15,0V342l7.92,21.52h14.16L506,342v25.27a7.5,7.5,0,0,0,15,0V298.5Z"/><path class="cls-5" d="M172.25,312.25a6.25,6.25,0,0,1,6.25,6.25,7.5,7.5,0,0,0,15,0,21.25,21.25,0,0,0-42.5,0v3.75a21.27,21.27,0,0,0,21.25,21.25,6.25,6.25,0,0,1,6.25,6.25v3.75a6.25,6.25,0,0,1-12.5,0,7.5,7.5,0,0,0-15,0,21.25,21.25,0,0,0,42.5,0v-3.75a21.27,21.27,0,0,0-21.25-21.25,6.25,6.25,0,0,1-6.25-6.25V318.5A6.25,6.25,0,0,1,172.25,312.25Z"/><path class="cls-5" d="M343.5,358.5H321v-60H306v75h37.5a7.5,7.5,0,0,0,0-15Z"/><path class="cls-6" d="M256,221H238.53l-17.29,66.87a7.5,7.5,0,1,0,14.52,3.76l1.46-5.63h20.06l1.46,5.63a7.5,7.5,0,0,0,7.26,5.62,7.63,7.63,0,0,0,1.88-.24,7.49,7.49,0,0,0,5.38-9.14ZM241.1,271l6.15-23.79L253.4,271Z"/><path class="cls-6" d="M411,221H393.53l-17.29,66.87a7.5,7.5,0,1,0,14.52,3.76l1.46-5.63h20.06l1.46,5.63a7.5,7.5,0,0,0,7.26,5.62,7.63,7.63,0,0,0,1.88-.24,7.49,7.49,0,0,0,5.38-9.14ZM396.1,271l6.15-23.79L408.4,271Z"/><path class="cls-6" d="M506,221l-15,40.81L476,221H461v68.75a7.5,7.5,0,0,0,15,0V264.48L483.92,286h14.16L506,264.48v25.27a7.5,7.5,0,0,0,15,0V221Z"/><path class="cls-6" d="M172.25,234.75A6.25,6.25,0,0,1,178.5,241a7.5,7.5,0,0,0,15,0,21.25,21.25,0,0,0-42.5,0v3.75A21.27,21.27,0,0,0,172.25,266a6.25,6.25,0,0,1,6.25,6.25V276a6.25,6.25,0,0,1-12.5,0,7.5,7.5,0,0,0-15,0,21.25,21.25,0,0,0,42.5,0v-3.75A21.27,21.27,0,0,0,172.25,251a6.25,6.25,0,0,1-6.25-6.25V241A6.25,6.25,0,0,1,172.25,234.75Z"/><path class="cls-6" d="M343.5,281H321V221H306v75h37.5a7.5,7.5,0,0,0,0-15Z"/><path class="cls-6" d="M256,376H238.53l-17.29,66.87a7.5,7.5,0,1,0,14.52,3.76l1.46-5.63h20.06l1.46,5.63a7.5,7.5,0,0,0,7.26,5.62,7.63,7.63,0,0,0,1.88-.24,7.49,7.49,0,0,0,5.38-9.14ZM241.1,426l6.15-23.79L253.4,426Z"/><path class="cls-6" d="M411,376H393.53l-17.29,66.87a7.5,7.5,0,1,0,14.52,3.76l1.46-5.63h20.06l1.46,5.63a7.5,7.5,0,0,0,7.26,5.62,7.63,7.63,0,0,0,1.88-.24,7.49,7.49,0,0,0,5.38-9.14ZM396.1,426l6.15-23.79L408.4,426Z"/><path class="cls-6" d="M506,376l-15,40.81L476,376H461v68.75a7.5,7.5,0,0,0,15,0V419.48L483.92,441h14.16L506,419.48v25.27a7.5,7.5,0,0,0,15,0V376Z"/><path class="cls-6" d="M172.25,389.75A6.25,6.25,0,0,1,178.5,396a7.5,7.5,0,0,0,15,0,21.25,21.25,0,0,0-42.5,0v3.75A21.27,21.27,0,0,0,172.25,421a6.25,6.25,0,0,1,6.25,6.25V431a6.25,6.25,0,0,1-12.5,0,7.5,7.5,0,0,0-15,0,21.25,21.25,0,0,0,42.5,0v-3.75A21.27,21.27,0,0,0,172.25,406a6.25,6.25,0,0,1-6.25-6.25V396A6.25,6.25,0,0,1,172.25,389.75Z"/><path class="cls-6" d="M343.5,436H321V376H306v75h37.5a7.5,7.5,0,0,0,0-15Z"/><path class="cls-6" d="M74.75,416v17.44l66.87,17.29a7.5,7.5,0,1,0,3.76-14.52l-5.63-1.46V414.72l5.63-1.46A7.5,7.5,0,0,0,151,406a7.63,7.63,0,0,0-.24-1.88,7.49,7.49,0,0,0-9.14-5.38Zm50,14.87L101,424.75l23.79-6.15Z"/><path class="cls-6" d="M74.75,261v17.44l66.87,17.29a7.5,7.5,0,1,0,3.76-14.52l-5.63-1.46V259.72l5.63-1.46A7.5,7.5,0,0,0,151,251a7.63,7.63,0,0,0-.24-1.88,7.49,7.49,0,0,0-9.14-5.38Zm50,14.87L101,269.75l23.79-6.15Z"/><path class="cls-6" d="M74.75,166l40.81,15L74.75,196v15H143.5a7.5,7.5,0,0,0,0-15H118.23l21.52-7.92V173.92L118.23,166H143.5a7.5,7.5,0,0,0,0-15H74.75Z"/><path class="cls-6" d="M88.5,499.75a6.25,6.25,0,0,1,6.25-6.25,7.5,7.5,0,0,0,0-15,21.25,21.25,0,0,0,0,42.5H98.5a21.27,21.27,0,0,0,21.25-21.25A6.25,6.25,0,0,1,126,493.5h3.75a6.25,6.25,0,0,1,0,12.5,7.5,7.5,0,0,0,0,15,21.25,21.25,0,0,0,0-42.5H126a21.27,21.27,0,0,0-21.25,21.25A6.25,6.25,0,0,1,98.5,506H94.75A6.25,6.25,0,0,1,88.5,499.75Z"/><path class="cls-6" d="M134.75,328.5V351h-60v15h75V328.5a7.5,7.5,0,0,0-15,0Z"/><path class="cls-6" d="M521.25,416v17.44l66.87,17.29a7.5,7.5,0,1,0,3.76-14.52l-5.63-1.46V414.72l5.63-1.46A7.5,7.5,0,0,0,597.5,406a7.63,7.63,0,0,0-.24-1.88,7.49,7.49,0,0,0-9.14-5.38Zm50,14.87-23.79-6.15,23.79-6.15Z"/><path class="cls-6" d="M521.25,261v17.44l66.87,17.29a7.5,7.5,0,1,0,3.76-14.52l-5.63-1.46V259.72l5.63-1.46A7.5,7.5,0,0,0,597.5,251a7.63,7.63,0,0,0-.24-1.88,7.49,7.49,0,0,0-9.14-5.38Zm50,14.87-23.79-6.15,23.79-6.15Z"/><path class="cls-6" d="M521.25,166l40.81,15-40.81,15v15H590a7.5,7.5,0,0,0,0-15H564.73l21.52-7.92V173.92L564.73,166H590a7.5,7.5,0,0,0,0-15H521.25Z"/><path class="cls-6" d="M535,499.75a6.25,6.25,0,0,1,6.25-6.25,7.5,7.5,0,0,0,0-15,21.25,21.25,0,0,0,0,42.5H545a21.27,21.27,0,0,0,21.25-21.25,6.25,6.25,0,0,1,6.25-6.25h3.75a6.25,6.25,0,0,1,0,12.5,7.5,7.5,0,0,0,0,15,21.25,21.25,0,0,0,0-42.5H572.5a21.27,21.27,0,0,0-21.25,21.25A6.25,6.25,0,0,1,545,506h-3.75A6.25,6.25,0,0,1,535,499.75Z"/><path class="cls-6" d="M581.25,328.5V351h-60v15h75V328.5a7.5,7.5,0,0,0-15,0Z"/></g></svg>