<svg id="Layer_3" data-name="Layer 3" xmlns="http://www.w3.org/2000/svg" viewBox="0 0 672 672"><defs><style>.cls-1{fill:none;}</style></defs><path d="M419.79,396.81c2.41-9-6-18-18.24-14.45-6.66,2-11.63,2-15.33,1.22l2.59-10.25,11.48,3.26,34.44-83a49.54,49.54,0,0,0,7,.25c12.11-.55,29.76-5.69,45.14-27.19,4.55-6.65,8.88-12.28,16-13.92,12.8-2.94,16.32-11.24,15.44-17.46-1.6-11.35-12.74-14.95-21.11-14.83l22.4-25.81c4.51-5.19,6.87-11.21,6.5-16.51a15.46,15.46,0,0,0-11.78-13.72l.92-1.06c4.43-5.11,6.82-11.4,6.38-16.82a14.53,14.53,0,0,0-5.28-10.16c-6.44-5.36-15.94-3.71-22.74,1.29a14.66,14.66,0,0,0-4.48-6.26c-8.57-7.08-19.87-2.92-26.6,4.84l-10.63,12.24a12,12,0,0,0-3.34-4.22c-7.21-5.75-17-3.54-25,5.65L390,188.49h0l-.67.78a2.15,2.15,0,0,0-.18.24c-15.77,18.67-18.58,35.79-17.58,48A52.62,52.62,0,0,1,357.17,249c-13.45,7.3-28.25,7.67-43.86,1.17l-4.07-1.85-27.45-14.56-14.92,27.66,6.74,5.26c-5.75,2.09-13.3,6.78-19.22,17.45-5.26,9.49.34,16.8,5.74,18.64,7.14,2.43,14.7,0,17.17-11.42,2.65-12.22,7.34-14,10-14l.9.71-4,7.69,2.28,2.57c1.58,1.79,3.15,3.46,4.72,5,33,33,63.14,19.91,64.47,19.31a5,5,0,0,0-4.14-9.1c-.27.12-26.28,11.36-55.26-19.34l6.25-12,6.73-12.93,0,0c31.49,13.12,54-.7,64.58-10.1a36.24,36.24,0,0,0,2.87,6.79,4.79,4.79,0,0,0,.68.85,5,5,0,0,0,7.75-6.23c-.16-.24-14-25.16,12.37-55.57l33.53-38.62c.69-.8,6.95-7.77,11.19-4.39a2.26,2.26,0,0,1,.86,1.76c.23,2.5-1.48,6.4-4.16,9.48l-20.28,23.36a5,5,0,1,0,7.55,6.56L443,173.9h0l27-31.14c2.88-3.31,8.63-7,12.68-3.68a4.48,4.48,0,0,1,1.75,3.28c.22,2.67-1.36,6.38-4,9.44,0,0,0,0,0,.06l-31.73,36.55a5,5,0,0,0,.23,6.81l.27.24a5,5,0,0,0,7.05-.49l41-47.24c3.56-4.1,9.95-6,12.67-3.7a4.47,4.47,0,0,1,1.71,3.28c.22,2.71-1.33,6.43-4,9.46l-41,47.24a5,5,0,1,0,7.55,6.55l27.3-31.44a1.31,1.31,0,0,1,.12-.11c2.81-3.23,8.71-7.12,12.59-3.76a5,5,0,0,1,1.89,3.56c.19,2.6-1.37,6.14-4.07,9.24l-40.89,47.1h0l-.05.05-8.29,9.56a4.6,4.6,0,0,0-.32.45c-.07.1-.15.19-.21.29a5.28,5.28,0,0,0-.36.76,1,1,0,0,0,0,.1,5,5,0,0,0,.64,4.56c0,.07.11.13.16.2a5.19,5.19,0,0,0,.37.45l.14.13v0h0l.09.08c.11.1.24.17.36.26s.27.2.41.28a3.55,3.55,0,0,0,.44.21,4.43,4.43,0,0,0,.45.2c.15,0,.31.08.46.12a4.1,4.1,0,0,0,.48.1,3.67,3.67,0,0,0,.46,0,4.17,4.17,0,0,0,.5,0c.15,0,.3,0,.45-.06s.33,0,.5-.08.29-.1.44-.15.31-.11.46-.18a3.7,3.7,0,0,0,.43-.25,3.45,3.45,0,0,0,.41-.25,4.48,4.48,0,0,0,.4-.36c.1-.09.21-.17.31-.27,1.39-1.52,4.37-5,6.55-7.52l1.86-2.17,0,0c5.72-6.59,11.51-10.45,16.75-11.17,2.51-.34,12.05-.31,12.95,6.11.39,2.74-2.52,5.11-7.79,6.32-11.47,2.64-17.8,11.89-21.92,17.93-13,18.14-27.51,22.48-37.4,22.93a39.74,39.74,0,0,1-8.26-.52,4.88,4.88,0,0,0-1.18-.21c-8.16-1.6-14.71-5.55-18.23-9.61A5,5,0,0,0,406,280c.5.59,1,1.15,1.57,1.7a41.64,41.64,0,0,0,17.14,9.86l-22.27,53.68c-2,.69-7,1.65-14-2.95a5,5,0,0,0-6.3,7.7,4.32,4.32,0,0,0,.77.63,28.39,28.39,0,0,0,15.1,5.17l-3.63,8.74-3.2-.91h0L376.7,359.5l-9.19-2.61L379,277.3a5,5,0,0,0-9.9-1.43L357.8,354.13h0l-6.13,42.63L380.8,405l1.82-7.2a45.94,45.94,0,0,0,17.49,7.68C412.17,407.81,418.49,401.64,419.79,396.81Z"/><path d="M347.93,289.05a6,6,0,0,1-7.82.92,5,5,0,0,0-6.37,7.64,4.46,4.46,0,0,0,.7.59,16,16,0,0,0,20.67-2.2,4.93,4.93,0,0,0-.11-7.07A5,5,0,0,0,347.93,289.05Z"/><path d="M438.08,203.5c-2.37-1.36-6.16.21-8.47,3.51s-2.24,7.08.13,8.45,6.17-.21,8.47-3.51S440.46,204.87,438.08,203.5Z"/><path d="M453,238.73c2.38,1.37,6.17-.2,8.47-3.51s2.25-7.08-.13-8.45-6.16.21-8.47,3.51S450.64,237.37,453,238.73Z"/><path d="M417,234.22a5,5,0,0,0,.33,6.71l.37.33,13,10.64,14.21-22.33a5,5,0,1,0-8.44-5.37L428.3,237l-4.25-3.48A5,5,0,0,0,417,234.22Z"/><path d="M403.22,243.29a5,5,0,0,0-3.59,6.09A26.59,26.59,0,0,0,432,268.45a5,5,0,1,0-2.5-9.68,16.6,16.6,0,0,1-20.22-11.89A5,5,0,0,0,403.22,243.29Z"/><path d="M190.1,553.74l10.1-33-7.43-4.55-24.84,24a3.77,3.77,0,0,0-.1,5.31l0,0a3.75,3.75,0,0,0,5.26,0l2.09-2,8.55,5.24-.85,2.78a3.75,3.75,0,1,0,7.17,2.19Zm-9.3-15.59,8.84-8.54-3.59,11.75Z"/><path d="M236.58,570.28l8.84-33.22-7.24-1.93-12.5,17.79-2-21.65-7.24-1.93-8.84,33.22a3.75,3.75,0,1,0,7.25,1.93l3.25-12.21,1,11.41,6.85,1.83,6.59-9.38-3.25,12.21a3.75,3.75,0,0,0,7.25,1.93Z"/><path d="M153.92,523.38l-7.95-8,21.21-21.22-5.3-5.3-26.52,26.52,13.26,13.26a3.75,3.75,0,1,0,5.3-5.31Z"/><path d="M146.4,462.29l-33.75,7.35a3.75,3.75,0,1,0,1.6,7.32l2.83-.62,4.53,9-2.19,1.92a3.74,3.74,0,0,0-.34,5.29,1.45,1.45,0,0,0,.17.18,3.74,3.74,0,0,0,5.12.17l25.95-22.79ZM124.65,474.7l12-2.62-9.23,8.11Z"/><path d="M102.11,444.24a10.63,10.63,0,0,1,5.61-17.95,3.75,3.75,0,1,1,1.35,7.37,3.13,3.13,0,1,0,1.13,6.15l1.85-.34a3.12,3.12,0,0,0,2.5-3.64,10.64,10.64,0,0,1,8.53-12.37l1.85-.34a10.62,10.62,0,1,1,3.84,20.9,3.75,3.75,0,0,1-1.36-7.38,3.12,3.12,0,0,0,2.51-3.63,3.12,3.12,0,0,0-3.64-2.51l-1.84.33a3.17,3.17,0,0,0-2,1.3,3.13,3.13,0,0,0-.5,2.34,10.64,10.64,0,0,1-8.53,12.37l-1.84.34A10.64,10.64,0,0,1,102.11,444.24Z"/><rect class="cls-1" x="75.62" y="328.88" width="335" height="200" transform="translate(374.47 -46.3) rotate(45)"/><circle cx="292.62" cy="570.3" r="10"/><path d="M358,515.5l-23,23a7.5,7.5,0,0,1-10.61-10.61L375.7,476.6,358,458.93,306.76,510.2a32.5,32.5,0,0,0,46,46l23-23Z"/><path d="M282,485.45a7.5,7.5,0,0,1-10.6-10.61l23-23-17.68-17.68-23,23a7.5,7.5,0,0,1-10.61-10.6l23-23L248.42,405.9l-9.94,9.94a37.76,37.76,0,0,0,2.68-8.73h0l4.68-26.55L266.21,377l-4.34-24.62-11.41,2,3.5-19.82-24.63-4.34L224.26,359l-26.54,4.68h0A37.25,37.25,0,0,0,184,369a35,35,0,0,0-55.79-40.91,34.58,34.58,0,0,0-7.93,12.3,35,35,0,0,0-34.45,8.86L77,358.12,94.68,375.8l8.84-8.84a10,10,0,0,1,14.14,0l9.62,9.61c.32.35.6.71.94,1a35,35,0,0,0,43.13,5A37.47,37.47,0,0,0,221.28,434a32.44,32.44,0,0,0,23.21,50.1,32.45,32.45,0,0,0,55.2,19.05l23-23L305,462.47ZM145.89,359.94l.05-.05-.49-.5a9.35,9.35,0,1,1,.44.55Zm49.5,49.49a12.66,12.66,0,0,1,0-17.67,12.41,12.41,0,0,1,6.67-3.48l17.58-3.09-3.1,17.58a12.44,12.44,0,0,1-3.47,6.66A12.67,12.67,0,0,1,195.39,409.43Z"/></svg>