<svg xmlns="http://www.w3.org/2000/svg" viewBox="0 0 1080 672"><defs><style>.cls-1{fill:#ff5d3e;}.cls-2{fill:#fff;}</style></defs><g id="Layer_1" data-name="Layer 1"><rect class="cls-1" width="1080" height="672"/><path class="cls-2" d="M688.08,479.05c-6.51-11.28-23.82-11.88-32.36,3.76-4.66,8.54-9.53,13.5-14,16.38l-7.58-12.71,14.59-8.14L600.67,362.07a69.69,69.69,0,0,0,7.17-6.69c11.45-12.52,23.83-35.09,17.77-71.6-2.08-11.08-3.36-20.95,2-29.6,9.75-15.58,5-27.29-2-32.57-12.82-9.66-27.43-2.19-35.6,6.22L586.7,180.1c-.68-9.6-4.29-17.9-9.91-22.77a21.67,21.67,0,0,0-25.25-1.93l-.14-2c-.66-9.45-4.52-18-10.32-23a20.33,20.33,0,0,0-15.3-4.83c-11.68,1.07-19.45,12.09-21.23,23.79a20.41,20.41,0,0,0-10.63-1.77c-15.49,1.47-22.56,16.77-21.55,31.13l1.6,22.63a16.84,16.84,0,0,0-7.48-.86c-12.83,1.43-20.35,13.34-19.15,30.32l5,71.41h0l.11,1.43c0,.15.05.28.07.42,2.86,34.1,17,53.82,30.08,64.9a74,74,0,0,1-2.9,25.65c-6.1,20.53-20.38,35.56-42.26,44.57l-5.87,2.2L390,454.23l12.6,42.15,11.89-1.47c-3.63,7.76-6.46,19.89-1.76,36.31,4.19,14.6,17,16.3,24.14,12.77,9.47-4.67,14.55-14.56,5.69-28.31-9.48-14.71-6.63-21.15-3.88-23.74l1.58-.2L444,503.32l4.8.29c3.33.2,6.54.3,9.65.3,65.39,0,82.22-42.79,82.94-44.7a7,7,0,0,0-13.11-4.91c-.14.38-14.77,37.26-73.85,35.55l-5.7-18.06-6.14-19.47.06,0c44.16-18.18,52.74-54.12,53.93-73.93a50.09,50.09,0,0,0,9.57,3.88,7.13,7.13,0,0,0,1.51.17,7,7,0,0,0,1.5-13.84c-.39-.09-38.79-11-42.76-67.26l-5-71.41c-.11-1.49-.81-14.59,6.74-15.43a3.14,3.14,0,0,1,2.59.88c2.7,2.25,4.86,7.81,5.26,13.51l3.05,43.2a7,7,0,0,0,14-1l-2.52-35.69h0l-4.06-57.58c-.44-6.13,1.58-15.51,8.9-16.2a6.28,6.28,0,0,1,5,1.51c2.86,2.43,5,7.66,5.36,13.33a.36.36,0,0,1,0,.1l4.77,67.59a7,7,0,0,0,7,6.51h.5a7,7,0,0,0,6.49-7.48l-6.17-87.37c-.53-7.57,4-15.75,8.88-16.2a6.26,6.26,0,0,1,5,1.56c2.9,2.46,5,7.68,5.43,13.28l6.16,87.37a7,7,0,0,0,14-1l-4.1-58.15c0-.07,0-.15,0-.23-.42-6,1.58-15.67,8.75-16.19a7,7,0,0,1,5.4,1.66c2.75,2.38,4.71,7.43,5.11,13.17l6.15,87.11h0v.11L580.13,286c0,.27.09.52.13.78s0,.32.08.48a7.35,7.35,0,0,0,.4,1.11s0,.09,0,.14a7,7,0,0,0,5.15,3.89l.36,0a5.42,5.42,0,0,0,.81.08h.5c.21,0,.4-.07.61-.1s.46-.06.69-.12.42-.15.64-.23.44-.15.65-.25a6.42,6.42,0,0,0,.56-.34c.2-.12.4-.23.59-.37s.32-.29.48-.44a5.56,5.56,0,0,0,.5-.47c.14-.16.26-.34.39-.52a5.66,5.66,0,0,0,.4-.56,4.6,4.6,0,0,0,.29-.59c.1-.21.21-.41.29-.63s.12-.45.18-.67.12-.43.15-.66a6,6,0,0,0,0-.74,5.65,5.65,0,0,0,0-.58c-.12-2.89-.61-9.27-1-13.93l-.3-4v-.05c-.85-12.18,1.06-21.74,5.53-27.64,2.14-2.82,11.62-12.24,18.86-6.78,3.11,2.34,2.56,7.56-1.44,14-8.75,14-5.85,29.4-4,39.45,5.11,30.82-5,49.49-14.33,59.73a55.5,55.5,0,0,1-8.68,7.66,6.46,6.46,0,0,0-1.38,1c-9.67,6.49-20.06,9.06-27.56,8.53a7,7,0,1,0-1,14c1.06.08,2.14.12,3.23.12,8.76,0,18.06-2.63,26.73-7.2l31.09,75.18c-1.28,2.65-5.33,8.6-16.73,10.89a7,7,0,0,0,1.38,13.87,7.28,7.28,0,0,0,1.39-.14c9.5-1.92,15.83-5.81,20.07-9.84l5.06,12.24L627,474.45h0l-18.5,10.32-11.69,6.52-67.46-90.11a7,7,0,1,0-11.21,8.38l66.33,88.62h0l36.14,48.26,37-20.64-5.33-8.93a64.32,64.32,0,0,0,24.92-9.71C691.43,497.49,691.57,485.12,688.08,479.05Z"/><path class="cls-2" d="M510.26,443.52a8.39,8.39,0,0,1-6.83,8.64,7,7,0,0,0,1.26,13.89,6.83,6.83,0,0,0,1.27-.12,22.46,22.46,0,0,0,18.3-22.64,6.89,6.89,0,0,0-7.12-6.88A7,7,0,0,0,510.26,443.52Z"/><path class="cls-2" d="M514.82,269.58c-3.7,1-5.9,6.31-4.91,11.86s4.79,9.24,8.49,8.24,5.9-6.31,4.92-11.86S518.52,268.58,514.82,269.58Z"/><path class="cls-2" d="M564.48,289.68c3.7-1,5.9-6.31,4.91-11.86s-4.79-9.24-8.5-8.24-5.9,6.31-4.91,11.86S560.77,290.68,564.48,289.68Z"/><path class="cls-2" d="M524.38,320.85a7,7,0,0,0,7,6.31c.23,0,.47,0,.7,0l23.38-2.31-8-36.17a7,7,0,0,0-13.67,3l4.62,20.75-7.66.76A7,7,0,0,0,524.38,320.85Z"/><path class="cls-2" d="M519.7,343.48a7,7,0,0,0,2.48,9.59,37.25,37.25,0,0,0,51-13.2,7,7,0,1,0-12.06-7.1A23.24,23.24,0,0,1,529.28,341,7,7,0,0,0,519.7,343.48Z"/></g></svg>