<svg xmlns="http://www.w3.org/2000/svg" viewBox="0 0 1080 672"><defs><style>.cls-1{fill:#ff5c35;}.cls-2{fill:#fff;}.cls-3{fill:#ff8863;}</style></defs><g id="Layer_3" data-name="Layer 3"><rect class="cls-1" width="1080" height="672"/><circle class="cls-2" cx="729" cy="437.5" r="14"/><path class="cls-2" d="M739.5,318.5V364a10.5,10.5,0,0,1-21,0V262.5h-35V364a45.5,45.5,0,0,0,91,0V318.5Z"/><path class="cls-2" d="M634.5,364a10.5,10.5,0,0,1-21,0V318.5h-35V364a10.5,10.5,0,0,1-21,0V318.5h-35v19.64a52.7,52.7,0,0,0-6-11.25h0L494.86,296l16.61-23.72L482.8,252.19l-9.3,13.28-16.16-23.08-28.67,20.07L452.14,296l-21.65,30.91h0a52.32,52.32,0,0,0-8.27,18.84,49,49,0,1,0-91.42,34.8,49,49,0,0,0-25.3,42.87v17.5h35V423.4a14,14,0,0,1,14-14h18c1,.06,2,.1,3,.1a49.08,49.08,0,0,0,47.66-37.64,52.48,52.48,0,0,0,100.27,1.33A45.46,45.46,0,0,0,596,399.82,45.46,45.46,0,0,0,669.5,364V318.5h-35Zm-259,10.5v-.1h-1.61a13.94,13.94,0,1,1,1.61.1Zm98,0A17.73,17.73,0,0,1,456,357a17.43,17.43,0,0,1,3.16-10h0l14.33-20.47L487.83,347h0A17.43,17.43,0,0,1,491,357,17.73,17.73,0,0,1,473.5,374.5Z"/></g><g id="Layer_1" data-name="Layer 1"><rect class="cls-3" x="-0.99" y="262" width="1080" height="1"/><rect class="cls-3" x="-0.25" y="318" width="1080" height="1"/><rect class="cls-3" x="1.1" y="409.42" width="1080" height="1"/><path class="cls-3" d="M729,392.5c-1,0-2-.06-3.06-.16l.1-1a28,28,0,0,0,6.27,0l.12,1A28,28,0,0,1,729,392.5Zm-8.37-1.25a28.34,28.34,0,0,1-6-2.6l.51-.87a26.88,26.88,0,0,0,5.74,2.51Zm17.09-.11-.31-.95a27.2,27.2,0,0,0,5.71-2.59l.52.86A28.39,28.39,0,0,1,737.72,391.14Zm-27.44-5.65a29.25,29.25,0,0,1-4.38-4.79l.81-.59a28.13,28.13,0,0,0,4.23,4.63Zm37.72-.24-.67-.75a28.1,28.1,0,0,0,4.17-4.68l.81.58A28.78,28.78,0,0,1,748,385.25ZM703.16,376a28.5,28.5,0,0,1-2.06-6.17l1-.2a27.72,27.72,0,0,0,2,5.95Zm51.84-.34-.91-.41a27.3,27.3,0,0,0,1.9-6l1,.19A28.6,28.6,0,0,1,755,375.69Zm-54.5-11.21V364a28.44,28.44,0,0,1,.63-6l1,.21a27.11,27.11,0,0,0-.61,5.77v.47Zm57-.36h-1V364a27.69,27.69,0,0,0-.71-6.23l1-.22a29,29,0,0,1,.73,6.45Zm-53.82-10.87-.92-.39a28.39,28.39,0,0,1,3.21-5.65l.8.59A27.92,27.92,0,0,0,703.68,353.25Zm50.45-.43a27.2,27.2,0,0,0-3.19-5.4l.8-.6a28.87,28.87,0,0,1,3.31,5.59Zm-43.89-8.93-.68-.73a29.05,29.05,0,0,1,5.22-3.87l.5.87A27.85,27.85,0,0,0,710.24,343.89Zm37.17-.32a27.35,27.35,0,0,0-5.1-3.64l.49-.87a28.36,28.36,0,0,1,5.28,3.77ZM720,338l-.32-.94a28.08,28.08,0,0,1,6.34-1.4l.11,1A27.86,27.86,0,0,0,720,338Zm17.49-.15a27.76,27.76,0,0,0-6.14-1.24l.09-1a28.72,28.72,0,0,1,6.36,1.29Z"/><path class="cls-3" d="M624,392.5c-1,0-2-.06-3.06-.16l.1-1a28,28,0,0,0,6.27,0l.12,1A28,28,0,0,1,624,392.5Zm-8.37-1.25a28.34,28.34,0,0,1-6-2.6l.51-.87a26.88,26.88,0,0,0,5.74,2.51Zm17.09-.11-.31-.95a27.2,27.2,0,0,0,5.71-2.59l.52.86A28.39,28.39,0,0,1,632.72,391.14Zm-27.44-5.65a29.25,29.25,0,0,1-4.38-4.79l.81-.59a28.13,28.13,0,0,0,4.23,4.63Zm37.72-.24-.67-.75a28.1,28.1,0,0,0,4.17-4.68l.81.58A28.78,28.78,0,0,1,643,385.25ZM598.16,376a28.5,28.5,0,0,1-2.06-6.17l1-.2a27.72,27.72,0,0,0,2,5.95Zm51.84-.34-.91-.41a27.3,27.3,0,0,0,1.9-6l1,.19A28.6,28.6,0,0,1,650,375.69Zm-54.5-11.21V364a28.44,28.44,0,0,1,.63-6l1,.21a27.11,27.11,0,0,0-.61,5.77v.47Zm57-.37h-1V364a27.69,27.69,0,0,0-.71-6.23l1-.22a29,29,0,0,1,.73,6.45Zm-53.82-10.86-.92-.39a28.39,28.39,0,0,1,3.21-5.65l.8.59A27.92,27.92,0,0,0,598.68,353.25Zm50.45-.43a27.2,27.2,0,0,0-3.19-5.4l.8-.6a28.87,28.87,0,0,1,3.31,5.59Zm-43.89-8.93-.68-.73a29.05,29.05,0,0,1,5.22-3.87l.5.87A27.85,27.85,0,0,0,605.24,343.89Zm37.17-.32a27.35,27.35,0,0,0-5.1-3.64l.49-.87a28.36,28.36,0,0,1,5.28,3.77ZM615,338l-.32-.94a28.08,28.08,0,0,1,6.34-1.4l.11,1A27.86,27.86,0,0,0,615,338Zm17.49-.15a27.76,27.76,0,0,0-6.14-1.24l.09-1a28.72,28.72,0,0,1,6.36,1.29Z"/><path class="cls-3" d="M568,392.5c-1,0-2-.06-3.06-.16l.1-1a28,28,0,0,0,6.27,0l.12,1A28,28,0,0,1,568,392.5Zm-8.37-1.25a28.34,28.34,0,0,1-6-2.6l.51-.87a26.88,26.88,0,0,0,5.74,2.51Zm17.09-.11-.31-.95a27.2,27.2,0,0,0,5.71-2.59l.52.86A28.39,28.39,0,0,1,576.72,391.14Zm-27.44-5.65a29.25,29.25,0,0,1-4.38-4.79l.81-.59a28.13,28.13,0,0,0,4.23,4.63Zm37.72-.24-.67-.75a28.1,28.1,0,0,0,4.17-4.68l.81.58A28.78,28.78,0,0,1,587,385.25ZM542.16,376a28.5,28.5,0,0,1-2.06-6.17l1-.2a27.72,27.72,0,0,0,2,5.95Zm51.84-.34-.91-.41a27.3,27.3,0,0,0,1.9-6l1,.19A28.6,28.6,0,0,1,594,375.69Zm-54.5-11.21V364a28.44,28.44,0,0,1,.63-6l1,.21a27.11,27.11,0,0,0-.61,5.77v.47Zm57-.37h-1V364a27.69,27.69,0,0,0-.71-6.23l1-.22a29,29,0,0,1,.73,6.45Zm-53.82-10.86-.92-.39a28.39,28.39,0,0,1,3.21-5.65l.8.59A27.92,27.92,0,0,0,542.68,353.25Zm50.45-.43a27.2,27.2,0,0,0-3.19-5.4l.8-.6a28.87,28.87,0,0,1,3.31,5.59Zm-43.89-8.93-.68-.73a29.05,29.05,0,0,1,5.22-3.87l.5.87A27.85,27.85,0,0,0,549.24,343.89Zm37.17-.32a27.35,27.35,0,0,0-5.1-3.64l.49-.87a28.36,28.36,0,0,1,5.28,3.77ZM559,338l-.32-.94a28.08,28.08,0,0,1,6.34-1.4l.11,1A27.86,27.86,0,0,0,559,338Zm17.49-.15a27.76,27.76,0,0,0-6.14-1.24l.09-1a28.72,28.72,0,0,1,6.36,1.29Z"/><path class="cls-3" d="M375.5,392.56a33.08,33.08,0,0,1-3.45-.18l.12-1.12a31.36,31.36,0,0,0,7.05-.05l.14,1.12A33.05,33.05,0,0,1,375.5,392.56Zm-9.41-1.4a32.2,32.2,0,0,1-6.7-2.93l.57-1a31.17,31.17,0,0,0,6.46,2.82Zm19.22-.13L385,390a30.93,30.93,0,0,0,6.42-2.91l.58,1A32.17,32.17,0,0,1,385.31,391Zm-30.87-6.35a32.37,32.37,0,0,1-4.93-5.4l.91-.66a31,31,0,0,0,4.76,5.21Zm42.43-.28-.75-.84a31.25,31.25,0,0,0,4.69-5.26l.92.64A32.35,32.35,0,0,1,396.87,384.4ZM346.42,374a32,32,0,0,1-2.3-6.93l1.1-.23a31.09,31.09,0,0,0,2.22,6.69Zm58.33-.38-1-.46a30.33,30.33,0,0,0,2.14-6.71l1.1.21A31.34,31.34,0,0,1,404.75,373.65ZM343.44,361v-.54a32.92,32.92,0,0,1,.7-6.73l1.1.24a31.29,31.29,0,0,0-.68,6.49V361Zm64.12-.41h-1.12v-.13a31.08,31.08,0,0,0-.8-7l1.1-.25a32.72,32.72,0,0,1,.82,7.26ZM347,348.4l-1-.44a31.9,31.9,0,0,1,3.61-6.35l.91.67A30.86,30.86,0,0,0,347,348.4Zm56.75-.48a30.64,30.64,0,0,0-3.58-6.07l.89-.68a31.94,31.94,0,0,1,3.72,6.29Zm-49.37-10-.77-.83a32.28,32.28,0,0,1,5.87-4.34l.56,1A31.34,31.34,0,0,0,354.4,337.88Zm41.81-.36a31.18,31.18,0,0,0-5.73-4.1l.54-1a32.67,32.67,0,0,1,6,4.24Zm-30.8-6.28-.36-1.06a32.06,32.06,0,0,1,7.14-1.57l.11,1.11A31.77,31.77,0,0,0,365.41,331.24Zm19.68-.16a30.71,30.71,0,0,0-6.91-1.4l.1-1.13a31.84,31.84,0,0,1,7.16,1.46Z"/><path class="cls-3" d="M473.5,392.62a34.84,34.84,0,0,1-3.83-.2l.13-1.24a35.43,35.43,0,0,0,7.84-.05l.15,1.24A36.18,36.18,0,0,1,473.5,392.62ZM463,391.06a35.65,35.65,0,0,1-7.44-3.25l.63-1.08a34.23,34.23,0,0,0,7.18,3.14Zm21.36-.13-.38-1.19a34,34,0,0,0,7.13-3.24l.65,1.07A35.49,35.49,0,0,1,484.4,390.93Zm-34.3-7.07a35.75,35.75,0,0,1-5.47-6l1-.73a34.47,34.47,0,0,0,5.28,5.78Zm47.15-.3-.84-.93a35,35,0,0,0,5.21-5.86l1,.72A35.76,35.76,0,0,1,497.25,383.56ZM441.19,372a35.89,35.89,0,0,1-2.56-7.7l1.22-.26a34.41,34.41,0,0,0,2.48,7.44Zm64.81-.41-1.14-.52a34.11,34.11,0,0,0,2.37-7.46l1.23.24A35.76,35.76,0,0,1,506,371.62Zm-68.12-14V357a35.38,35.38,0,0,1,.78-7.48l1.22.27a34.75,34.75,0,0,0-.76,7.21v.58Zm71.24-.46h-1.25V357a34.32,34.32,0,0,0-.89-7.78l1.22-.29a35.79,35.79,0,0,1,.91,8.07Zm-67.27-13.58-1.15-.49a36,36,0,0,1,4-7.06l1,.74A34.25,34.25,0,0,0,441.85,343.56Zm63.07-.54a35,35,0,0,0-4-6.74l1-.76a35.7,35.7,0,0,1,4.13,7Zm-54.87-11.16-.85-.91a35.47,35.47,0,0,1,6.53-4.83l.62,1.08A34.92,34.92,0,0,0,450.05,331.86Zm46.46-.4a34.84,34.84,0,0,0-6.37-4.55l.61-1.09a35.6,35.6,0,0,1,6.6,4.72Zm-34.22-7-.4-1.18a35.67,35.67,0,0,1,7.93-1.75l.12,1.25A34,34,0,0,0,462.29,324.49Zm21.86-.18a34.47,34.47,0,0,0-7.67-1.56l.1-1.24a35.26,35.26,0,0,1,8,1.61Z"/><path class="cls-3" d="M736,671.92l-4.05-5.77,1-.72,4,5.77Zm-7.77-11.08-4.46-6.37,1-.72,4.46,6.37ZM720,649.16l-4.46-6.38,1-.71,4.46,6.37Zm-8.17-11.68-4.47-6.38,1-.71,4.46,6.37Zm-8.18-11.68-4.46-6.38,1-.71,4.46,6.37Zm-8.18-11.69L691,607.74l1-.71,4.46,6.37Zm-8.18-11.68-4.46-6.37,1-.71,4.46,6.37Zm-8.18-11.68-4.46-6.37,1-.71,4.46,6.37ZM671,579.07l-4.46-6.37,1-.71,4.47,6.37Zm-8.18-11.68L658.32,561l1-.72,4.46,6.38Zm-8.18-11.68-4.46-6.37,1-.72,4.46,6.38ZM646.43,544,642,537.66l1-.72,4.46,6.37Zm-8.18-11.68L633.79,526l1-.72,4.46,6.37Zm-8.18-11.68-4.46-6.37,1-.72,4.46,6.37ZM621.89,509l-4.46-6.37,1-.72,4.46,6.37Zm-8.18-11.68-4.46-6.37,1-.72,4.46,6.37Zm-8.18-11.68-4.46-6.37,1-.72,4.47,6.37ZM597.35,474l-4.46-6.37,1-.72,4.46,6.37Zm-8.18-11.68-4.46-6.37,1-.72,4.46,6.37ZM581,450.59l-4.47-6.37,1-.72,4.46,6.37Zm-8.18-11.68-4.46-6.37,1-.72,4.46,6.37Zm-8.18-11.68-4.46-6.37,1-.72,4.46,6.37Zm-8.18-11.68L552,409.18l1-.72,4.46,6.37Zm-8.18-11.68-4.46-6.37,1-.72,4.46,6.37Zm-8.18-11.68-4.46-6.38,1-.71,4.47,6.37Zm-8.18-11.68-4.46-6.38,1-.71,4.46,6.37Zm-8.18-11.69-4.46-6.37,1-.71,4.46,6.37Zm-8.17-11.68-4.47-6.37,1-.71,4.46,6.37Zm-8.18-11.68-4.46-6.37,1-.71,4.46,6.37Zm-8.18-11.68-4.46-6.37,1-.71,4.46,6.37ZM491,322.1l-4.46-6.37,1-.72,4.46,6.38Zm-8.18-11.68-4.46-6.37,1-.72,4.46,6.38Zm-8.18-11.68-4.46-6.37,1-.72L475.7,298Zm-8.18-11.68L462,280.69l1-.72,4.46,6.37Zm-8.18-11.68L453.85,269l1-.72,4.46,6.37Zm-8.17-11.68-4.47-6.37,1-.72,4.46,6.37ZM442,252l-4.46-6.37,1-.72L443,251.3Zm-8.18-11.68L429.32,234l1-.72,4.46,6.37Zm-8.18-11.68-4.46-6.37,1-.72,4.46,6.37ZM417.42,217,413,210.61l1-.72,4.46,6.37Zm-8.18-11.68-4.46-6.37,1-.72,4.47,6.37Zm-8.18-11.68-4.46-6.37,1-.72,4.46,6.37Zm-8.18-11.68-4.46-6.37,1-.72,4.46,6.37Zm-8.17-11.68-4.47-6.37,1-.72,4.46,6.37Zm-8.18-11.68-4.46-6.38,1-.71,4.46,6.37Zm-8.18-11.68-4.46-6.38,1-.71,4.46,6.37Zm-8.18-11.69-4.46-6.37,1-.71,4.46,6.37ZM352,123.53l-4.46-6.37,1-.71,4.46,6.37Zm-8.18-11.68-4.46-6.37,1-.71,4.47,6.37Zm-8.18-11.68-4.46-6.37,1-.71,4.46,6.37Zm-8.18-11.68L323,82.12l1-.72,4.46,6.38Zm-8.17-11.68-4.47-6.37,1-.72,4.46,6.38ZM311.1,65.13l-4.46-6.37,1-.72,4.46,6.38Zm-8.18-11.68-4.46-6.37,1-.72,4.46,6.37Zm-8.18-11.68-4.46-6.37,1-.72,4.46,6.37Zm-8.18-11.68-4.46-6.37,1-.72,4.46,6.37Zm-8.18-11.68L273.92,12l1-.72,4.47,6.37ZM270.2,6.73,265.74.36l1-.72L271.23,6Z"/><path class="cls-3" d="M212.92,669l-.82-.57,3.57-5.1.82.58Zm6.54-9.34-.81-.57,3.56-5.1.82.57Zm6.55-9.34-.82-.58,3.57-5.09.82.57Zm6.54-9.35-.82-.57,3.57-5.1.82.57Zm6.54-9.34-.82-.58,3.57-5.09.82.57Zm6.55-9.35-.82-.57,3.57-5.1.82.58Zm6.54-9.34-.82-.58,3.57-5.09.82.57Zm6.54-9.35-.82-.57,3.57-5.1.82.58Zm6.55-9.34-.82-.57,3.57-5.1.81.57Zm6.54-9.34-.82-.58,3.57-5.1.82.58Zm6.54-9.35-.82-.57,3.57-5.1.82.57Zm6.54-9.34-.81-.58,3.56-5.09.82.57Zm6.55-9.35-.82-.57,3.57-5.1.82.57Zm6.54-9.34-.82-.58,3.57-5.09.82.57Zm6.54-9.35-.82-.57,3.57-5.1.82.58Zm6.55-9.34-.82-.57,3.57-5.1.82.57Zm6.54-9.35-.82-.57,3.57-5.1.82.58Zm6.54-9.34-.82-.57,3.57-5.1.82.57Zm6.55-9.34-.82-.58,3.57-5.1.82.58Zm6.54-9.35-.82-.57,3.57-5.1.82.57Zm6.54-9.34-.82-.58,3.57-5.09.82.57Zm6.55-9.35-.82-.57,3.56-5.1.82.58Zm6.54-9.34-.82-.58,3.57-5.09.82.57Zm6.54-9.35-.82-.57,3.57-5.1.82.58Zm6.54-9.34-.81-.57,3.56-5.1.82.57Zm6.55-9.35-.82-.57,3.57-5.1.82.58ZM383,426l-.82-.57,3.57-5.1.82.57Zm6.54-9.34-.82-.58,3.57-5.09.82.57Zm6.55-9.35-.82-.57,3.57-5.1.82.57Zm6.54-9.34-.82-.58,3.57-5.09.82.57Zm6.54-9.35-.82-.57L412,383l.82.58Zm6.55-9.34-.82-.58,3.57-5.09.81.57ZM422.3,370l-.82-.57,3.57-5.1.82.58Zm6.54-9.34-.82-.57,3.57-5.1.82.57Zm6.54-9.34-.81-.58,3.56-5.1.82.58Zm6.55-9.35-.82-.57,3.57-5.1.82.57Zm6.54-9.34-.82-.58,3.57-5.09.82.57Zm6.54-9.35-.82-.57,3.57-5.1.82.57Zm6.55-9.34-.82-.58,3.57-5.09.82.57Zm6.54-9.35-.82-.57,3.57-5.1.82.58Zm6.54-9.34-.82-.57,3.57-5.1.82.57Zm6.55-9.35-.82-.57,3.57-5.1.81.58Zm6.54-9.34-.82-.57,3.57-5.1.82.57Zm6.54-9.34-.82-.58,3.57-5.1.82.58Zm6.54-9.35-.81-.57,3.56-5.1.82.57Zm6.55-9.34-.82-.58,3.57-5.09.82.57Zm6.54-9.35-.82-.57,3.57-5.1.82.58Zm6.54-9.34-.82-.58,3.57-5.09.82.57Zm6.55-9.35-.82-.57,3.57-5.1.82.58Zm6.54-9.34-.82-.57,3.57-5.1.82.57Zm6.54-9.35-.82-.57,3.57-5.1.82.58Zm6.55-9.34-.82-.57,3.57-5.1.81.57Zm6.54-9.34-.82-.58,3.57-5.09.82.57Zm6.54-9.35-.82-.57,3.57-5.1.82.57Zm6.54-9.34-.81-.58,3.56-5.09.82.57Zm6.55-9.35-.82-.57,3.57-5.1.82.58Zm6.54-9.34-.82-.58,3.57-5.09.82.57Zm6.54-9.35-.82-.57,3.57-5.1.82.58Zm6.55-9.34-.82-.57,3.57-5.1.82.57Zm6.54-9.34-.82-.58,3.57-5.1.82.58Zm6.54-9.35-.82-.57,3.57-5.1.82.57ZM612.05,99l-.82-.58,3.57-5.09.81.57Zm6.54-9.35-.82-.57,3.57-5.1.82.58Zm6.54-9.34-.82-.58,3.57-5.09.82.57ZM631.67,71l-.81-.57,3.56-5.1.82.58Zm6.55-9.34L637.4,61l3.57-5.1.82.57Zm6.54-9.35-.82-.57,3.57-5.1.82.58Zm6.54-9.34-.82-.57,3.57-5.1.82.57Zm6.55-9.34L657,33l3.57-5.09.82.57Zm6.54-9.35-.82-.57,3.57-5.1.82.57Zm6.54-9.34-.82-.58,3.57-5.09.82.57Zm6.55-9.35L676.66,5l3.57-5.1.82.58Z"/></g></svg>