<svg xmlns="http://www.w3.org/2000/svg" viewBox="0 0 672 672"><defs><style>.cls-1{fill:none;stroke:#000;stroke-miterlimit:10;}</style></defs><g id="Layer_1" data-name="Layer 1"><path class="cls-1" d="M428,321.37c-4.18-7.25-15.31-7.64-20.8,2.42-3,5.49-6.12,8.68-9,10.53l-4.87-8.17,9.38-5.23-30.92-74.75a43.55,43.55,0,0,0,4.61-4.3c7.36-8.05,15.32-22.56,11.43-46-1.34-7.12-2.17-13.47,1.31-19,6.27-10,3.23-17.54-1.28-20.94-8.25-6.2-17.64-1.4-22.89,4l-2.16-30.68c-.44-6.17-2.76-11.51-6.37-14.64a13.93,13.93,0,0,0-16.23-1.24l-.09-1.25c-.43-6.08-2.91-11.6-6.64-14.77a13.06,13.06,0,0,0-9.83-3.11c-7.51.69-12.5,7.78-13.65,15.3a13.16,13.16,0,0,0-6.84-1.14c-9.95,1-14.5,10.78-13.85,20l1,14.55a10.82,10.82,0,0,0-4.81-.55c-8.24.92-13.08,8.57-12.3,19.49l3.24,45.91h0l.06.92a2.56,2.56,0,0,0,.05.27c1.84,21.92,10.94,34.59,19.34,41.72a47.5,47.5,0,0,1-1.87,16.48C290.17,280.35,281,290,266.92,295.8l-3.77,1.42-26.73,8.2,8.1,27.09,7.64-.94c-2.33,5-4.15,12.78-1.12,23.34,2.69,9.38,10.9,10.48,15.51,8.21,6.09-3,9.35-9.36,3.66-18.2-6.1-9.46-4.26-13.59-2.5-15.26l1-.13,2.35,7.44,3.09.19q3.21.19,6.2.2c42,0,52.86-27.51,53.32-28.74a4.5,4.5,0,0,0-8.43-3.16c-.09.24-9.49,24-47.47,22.86l-3.67-11.62-3.94-12.51,0,0c28.38-11.68,33.9-34.78,34.67-47.52a31.65,31.65,0,0,0,6.15,2.49,4,4,0,0,0,1,.11,4.5,4.5,0,0,0,1-8.9c-.25,0-24.93-7.08-27.49-43.23l-3.24-45.91c-.06-1-.52-9.38,4.33-9.92a2,2,0,0,1,1.67.57c1.73,1.44,3.13,5,3.39,8.68l2,27.77a4.5,4.5,0,0,0,9-.63l-1.62-22.94h0l-2.61-37c-.28-3.94,1-10,5.73-10.42a4,4,0,0,1,3.2,1c1.84,1.55,3.19,4.92,3.45,8.56,0,0,0,0,0,.06l3.07,43.46a4.5,4.5,0,0,0,4.48,4.18h.32a4.5,4.5,0,0,0,4.18-4.8l-4-56.17c-.34-4.86,2.54-10.12,5.71-10.41a4,4,0,0,1,3.18,1c1.87,1.58,3.24,4.94,3.49,8.54l4,56.16a4.5,4.5,0,1,0,9-.63l-2.63-37.38a.66.66,0,0,1,0-.14c-.27-3.85,1-10.08,5.62-10.41a4.49,4.49,0,0,1,3.47,1.06c1.77,1.53,3,4.78,3.29,8.47l3.95,56h0v.06l.8,11.36a4.33,4.33,0,0,0,.08.5c0,.1,0,.21.06.31a4.26,4.26,0,0,0,.25.71l0,.09a4.51,4.51,0,0,0,3.32,2.5,1.64,1.64,0,0,0,.22,0,4.8,4.8,0,0,0,.52.05h.33l.39-.06c.15,0,.3,0,.44-.08s.27-.1.41-.15a3,3,0,0,0,.42-.16,2.67,2.67,0,0,0,.36-.22c.13-.08.26-.15.38-.24a2.7,2.7,0,0,0,.31-.28c.11-.1.22-.19.32-.3l.25-.33c.09-.12.18-.24.26-.37s.13-.25.19-.37.13-.27.18-.41a3.39,3.39,0,0,0,.11-.43,3.2,3.2,0,0,0,.1-.42,2.58,2.58,0,0,0,0-.48,2.36,2.36,0,0,0,0-.37c-.07-1.86-.39-6-.61-9l-.2-2.57v0c-.55-7.83.68-14,3.55-17.77,1.38-1.81,7.47-7.87,12.13-4.36,2,1.5,1.65,4.86-.93,9-5.62,9-3.76,18.9-2.55,25.36,3.29,19.82-3.19,31.82-9.2,38.4a36.46,36.46,0,0,1-5.59,4.93,4.23,4.23,0,0,0-.88.62c-6.22,4.17-12.9,5.82-17.72,5.48a4.5,4.5,0,1,0-.67,9c.69.06,1.38.08,2.08.08a37.48,37.48,0,0,0,17.18-4.63l20,48.34c-.81,1.7-3.42,5.52-10.74,7a4.5,4.5,0,0,0,.88,8.91,4.58,4.58,0,0,0,.9-.09,25.47,25.47,0,0,0,12.89-6.33l3.26,7.88-2.62,1.46h0l-11.89,6.64-7.52,4.19L326,271.31a4.5,4.5,0,1,0-7.2,5.39l42.64,57h0l23.23,31,23.81-13.28L405,345.68a41.19,41.19,0,0,0,16-6.24C430.18,333.23,430.27,325.27,428,321.37Z"/><path class="cls-1" d="M313.71,298.53a5.41,5.41,0,0,1-4.39,5.56,4.5,4.5,0,0,0,.81,8.92,4.62,4.62,0,0,0,.82-.07,14.44,14.44,0,0,0,11.76-14.56,4.42,4.42,0,0,0-4.57-4.42A4.5,4.5,0,0,0,313.71,298.53Z"/><path class="cls-1" d="M316.64,186.71c-2.38.65-3.79,4.06-3.16,7.63s3.09,5.93,5.47,5.29,3.79-4,3.15-7.62S319,186.07,316.64,186.71Z"/><path class="cls-1" d="M348.57,199.63c2.38-.64,3.79-4,3.15-7.62s-3.08-5.94-5.46-5.3-3.79,4.06-3.16,7.63S346.19,200.27,348.57,199.63Z"/><path class="cls-1" d="M322.79,219.67a4.49,4.49,0,0,0,4.47,4.06l.45,0,15-1.49L337.56,199a4.5,4.5,0,1,0-8.78,2l3,13.33-4.92.49A4.5,4.5,0,0,0,322.79,219.67Z"/><path class="cls-1" d="M319.78,234.22a4.5,4.5,0,0,0,1.59,6.16,24,24,0,0,0,32.76-8.48,4.5,4.5,0,0,0-7.76-4.57,14.94,14.94,0,0,1-20.43,5.3A4.5,4.5,0,0,0,319.78,234.22Z"/><path class="cls-1" d="M381.72,567.42,367.13,540l-7.63,1.84L359,572.88a3.38,3.38,0,0,0,3.32,3.44h.06a3.38,3.38,0,0,0,3.37-3.32l.05-2.62,8.77-2.11,1.23,2.32a3.38,3.38,0,0,0,6-3.17Zm-15.84-4,.19-11.06,5.19,9.76Z"/><path class="cls-1" d="M421.82,548.36,406.31,521.6,400.48,525l3.36,19.27-15.06-12.5L383,535.13l15.51,26.77a3.38,3.38,0,0,0,2.93,1.68,3.31,3.31,0,0,0,1.68-.45,3.36,3.36,0,0,0,1.23-4.61l-5.7-9.84,7.94,6.59,5.51-3.2-1.77-10.16,5.7,9.84a3.38,3.38,0,0,0,5.84-3.39Z"/><path class="cls-1" d="M339.38,571.12H329.25v-27H322.5v33.75h16.88a3.38,3.38,0,0,0,0-6.75Z"/><path class="cls-1" d="M295.71,537l-16.8,26.15a3.37,3.37,0,1,0,5.67,3.65l1.42-2.2,8.58,2.83-.17,2.61a3.36,3.36,0,0,0,3.15,3.58h.22a3.37,3.37,0,0,0,3.36-3.16l2-31Zm-5.94,21.74,6-9.31-.72,11Z"/><path class="cls-1" d="M256,553.72a9.55,9.55,0,0,1-7.86-15,3.37,3.37,0,1,1,5.55,3.83,2.82,2.82,0,0,0,4.64,3.19l.95-1.39a2.81,2.81,0,0,0-.72-3.91,9.57,9.57,0,0,1-2.44-13.3l1-1.39a9.56,9.56,0,0,1,15.74,10.85,3.37,3.37,0,1,1-5.56-3.82,2.82,2.82,0,0,0,.46-2.11,2.86,2.86,0,0,0-1.17-1.81,2.82,2.82,0,0,0-3.92.72l-.95,1.39a2.76,2.76,0,0,0-.45,2.1,2.8,2.8,0,0,0,1.16,1.81,9.57,9.57,0,0,1,2.45,13.3l-1,1.39A9.54,9.54,0,0,1,256,553.72Z"/><circle class="cls-1" cx="457.5" cy="512.62" r="9"/><path class="cls-1" d="M464.25,436.12v29.25a6.75,6.75,0,0,1-13.5,0V400.12h-22.5v65.24a29.25,29.25,0,0,0,58.5,0V436.12Z"/><path class="cls-1" d="M396.75,465.37a6.75,6.75,0,0,1-13.5,0V436.12h-22.5v29.25a6.75,6.75,0,0,1-13.5,0V436.12h-22.5v12.66a33.72,33.72,0,0,0-3.85-7.26h0L307,421.65l10.68-15.25-18.43-12.91-6,8.54L282.86,387.2l-18.43,12.9,15.09,21.55L265.6,441.52h0a33.56,33.56,0,0,0-5.31,12.13A31.49,31.49,0,1,0,201.53,476a31.51,31.51,0,0,0-16.28,27.56v11.25h22.5V503.56a9,9,0,0,1,9-9H229c.42,0,.84.06,1.26.06a31.52,31.52,0,0,0,30.63-24.26,33.73,33.73,0,0,0,64.47.9A29.2,29.2,0,0,0,372,488.38a29.21,29.21,0,0,0,47.25-23V436.12h-22.5Zm-166.5,6.75v-.06h-.63a8.52,8.52,0,1,1,.63.06Zm63,0A11.4,11.4,0,0,1,282,460.87a11.19,11.19,0,0,1,2-6.45l9.22-13.16,9.22,13.16a11.19,11.19,0,0,1,2,6.45A11.4,11.4,0,0,1,293.25,472.12Z"/></g></svg>