<svg xmlns="http://www.w3.org/2000/svg" viewBox="0 0 74 15.5"><g id="Isolation_Mode" data-name="Isolation Mode"><path d="M21,.25H17.51L14.05,13.62a1.5,1.5,0,0,0,2.9.76l.29-1.13h4l.29,1.13A1.5,1.5,0,0,0,23,15.5a1.73,1.73,0,0,0,.38-.05,1.49,1.49,0,0,0,1.07-1.83Zm-3,10,1.23-4.76,1.23,4.76Z"/><path d="M52,.25H48.51L45.05,13.62a1.5,1.5,0,1,0,2.9.76l.29-1.13h4l.29,1.13A1.5,1.5,0,0,0,54,15.5a1.73,1.73,0,0,0,.38-.05,1.49,1.49,0,0,0,1.07-1.83Zm-3,10,1.23-4.76,1.23,4.76Z"/><path d="M71,.25,68,8.41,65,.25H62V14a1.5,1.5,0,0,0,3,0V9l1.58,4.3h2.84L71,9V14a1.5,1.5,0,0,0,3,0V.25Z"/><path d="M4.25,3A1.25,1.25,0,0,1,5.5,4.25a1.5,1.5,0,0,0,3,0,4.25,4.25,0,0,0-8.5,0V5A4.26,4.26,0,0,0,4.25,9.25,1.25,1.25,0,0,1,5.5,10.5v.75a1.25,1.25,0,0,1-2.5,0,1.5,1.5,0,0,0-3,0,4.25,4.25,0,0,0,8.5,0V10.5A4.26,4.26,0,0,0,4.25,6.25,1.25,1.25,0,0,1,3,5V4.25A1.25,1.25,0,0,1,4.25,3Z"/><path d="M38.5,12.25H34V.25H31v15h7.5a1.5,1.5,0,0,0,0-3Z"/></g></svg>