<svg xmlns="http://www.w3.org/2000/svg" viewBox="0 0 67 29.94"><g id="Isolation_Mode" data-name="Isolation Mode"><circle cx="60.5" cy="27.97" r="2"/><path d="M62,11v6.5a1.5,1.5,0,0,1-3,0V3H54v14.5a6.5,6.5,0,0,0,13,0V11Z"/><path d="M47,17.47a1.5,1.5,0,0,1-3,0V11H39v6.5a1.5,1.5,0,0,1-3,0V11H31v2.86a7.08,7.08,0,0,0-.86-1.66h0L27.05,7.75l2.37-3.39L25.33,1.5,24,3.39,21.69.1,17.6,3,21,7.75l-3.09,4.42h0a7.23,7.23,0,0,0-1.17,2.72A7,7,0,0,0,3,17a6.87,6.87,0,0,0,.62,2.86A7,7,0,0,0,0,26v2H5V26a2,2,0,0,1,2-2H9.71L10,24a7,7,0,0,0,6.81-5.4,7.49,7.49,0,0,0,14.32.21A6.51,6.51,0,0,0,37.5,24a6.43,6.43,0,0,0,4-1.39,6.43,6.43,0,0,0,4,1.39,6.51,6.51,0,0,0,6.5-6.5V11H47ZM10,19v0H9.86A1.82,1.82,0,1,1,10,19Zm14,0A2.51,2.51,0,0,1,22,15h0L24,12.11,26.05,15h0A2.51,2.51,0,0,1,24,19Z"/></g></svg>