<svg xmlns="http://www.w3.org/2000/svg" viewBox="0 0 1080 672"><defs><style>.cls-1{fill:#ff5d3e;}.cls-2{fill:#fff;}.cls-3,.cls-4{fill:none;stroke:#ff8863;stroke-miterlimit:10;}.cls-4{stroke-width:1.01px;stroke-dasharray:6.07 5.06;}</style></defs><g id="Layer_3" data-name="Layer 3"><rect class="cls-1" width="1080" height="672"/></g><g id="Layer_1" data-name="Layer 1"><path class="cls-2" d="M393.71,269.88H362.33L331.2,390.25A13.5,13.5,0,0,0,357.34,397L360,386.88h36.12L398.7,397a13.5,13.5,0,0,0,13.06,10.11,13.64,13.64,0,0,0,3.39-.43,13.5,13.5,0,0,0,9.69-16.45Zm-26.77,90L378,317.06l11.08,42.82Z"/><path class="cls-2" d="M672.71,269.88H641.33L610.2,390.25A13.5,13.5,0,0,0,636.34,397L639,386.88h36.12L677.7,397a13.5,13.5,0,0,0,13.06,10.11,13.64,13.64,0,0,0,3.39-.43,13.5,13.5,0,0,0,9.69-16.45Zm-26.77,90L657,317.06l11.08,42.82Z"/><path class="cls-2" d="M843.79,269.88l-27,73.46-27-73.46h-27V393.63a13.5,13.5,0,1,0,27,0V348.15L804,386.88h25.5l14.25-38.73v45.48a13.5,13.5,0,1,0,27,0V269.88Z"/><path class="cls-2" d="M243,294.63a11.26,11.26,0,0,1,11.25,11.25,13.5,13.5,0,0,0,27,0,38.25,38.25,0,1,0-76.5,0v6.75A38.29,38.29,0,0,0,243,350.88a11.26,11.26,0,0,1,11.25,11.25v6.75a11.25,11.25,0,0,1-22.5,0,13.5,13.5,0,0,0-27,0,38.25,38.25,0,1,0,76.5,0v-6.75A38.29,38.29,0,0,0,243,323.88a11.26,11.26,0,0,1-11.25-11.25v-6.75A11.27,11.27,0,0,1,243,294.63Z"/><path class="cls-2" d="M551.27,377.88h-40.5v-108h-27v135h67.5a13.5,13.5,0,0,0,0-27Z"/><line class="cls-3" x1="1079.01" y1="269.88" x2="-0.99" y2="269.88"/><line class="cls-3" x1="1080" y1="404.88" y2="404.88"/><circle class="cls-4" cx="242.95" cy="305.92" r="24.75"/><circle class="cls-4" cx="242.95" cy="368.92" r="24.75"/><line class="cls-4" x1="309.89" x2="483.69" y2="672"/><line class="cls-4" x1="272.22" y1="672" x2="446.02"/><line class="cls-4" x1="588.89" x2="762.69" y2="672"/><line class="cls-4" x1="551.22" y1="672" x2="725.02"/><line class="cls-4" x1="710.2" y1="672" x2="957.41"/><line class="cls-3" y1="373.42" x2="1079.01" y2="373.42"/><line class="cls-4" x1="776.2" x2="776.2" y2="672"/><line class="cls-4" x1="497.2" x2="497.2" y2="672"/><line class="cls-4" x1="857.2" x2="857.2" y2="672"/><line class="cls-4" x1="676" x2="923.05" y2="671.55"/></g></svg>