<svg xmlns="http://www.w3.org/2000/svg" viewBox="0 0 672 672"><defs><style>.cls-1{fill:#ff5d3e;}.cls-2{fill:#e6452d;}.cls-3,.cls-4,.cls-7{fill:none;}.cls-3,.cls-4{stroke:#ff8863;stroke-miterlimit:10;}.cls-3{stroke-dasharray:7.35 6.12;}.cls-5{fill:#ff8863;}.cls-6{fill:#fff;}</style></defs><g id="Layer_3" data-name="Layer 3"><rect class="cls-1" width="672" height="672"/></g><g id="Layer_1" data-name="Layer 1"><rect class="cls-2" x="132.19" y="107.63" width="407.43" height="456.74"/><line class="cls-3" x1="222" x2="222" y2="672"/><line class="cls-4" x1="132.19" x2="132.19" y2="672"/><line class="cls-4" x1="539.62" x2="539.62" y2="672"/><line class="cls-3" x1="450" x2="450" y2="672"/><line class="cls-3" x1="672" y1="474.75" y2="474.75"/><line class="cls-4" x1="672" y1="564.37" y2="564.37"/><line class="cls-4" x1="672" y1="107.63" y2="107.63"/><line class="cls-3" x1="672" y1="197.25" y2="197.25"/><circle class="cls-5" cx="138.19" cy="417" r="6"/><path class="cls-5" d="M189.19,421.5h-19.5a4.5,4.5,0,0,1,0-9h43.5v-15h-43.5a19.5,19.5,0,0,0,0,39h19.5Z"/><path class="cls-5" d="M169.69,376.5a4.5,4.5,0,0,1,0-9h19.5v-15h-19.5a4.5,4.5,0,0,1,0-9h19.5v-15h-8.44a22.57,22.57,0,0,0,4.85-2.57h0l13.24-9.27L209,323.77l8.6-12.28-5.69-4,9.89-6.93-8.6-12.28-14.37,10-13.24-9.27h0a22.49,22.49,0,0,0-8.09-3.54,21,21,0,1,0-14.9-39.18,21,21,0,0,0-18.37-10.85h-7.5v15h7.5a6,6,0,0,1,6,6v8.16c0,.28-.05.56-.05.84a21,21,0,0,0,16.18,20.42,22.48,22.48,0,0,0-.6,43A19.46,19.46,0,0,0,154.35,360a19.47,19.47,0,0,0,15.34,31.5h19.5v-15Zm-4.5-111h.05v-.42a5.57,5.57,0,1,1-.05.42Zm0,42a7.6,7.6,0,0,1,7.5-7.5,7.42,7.42,0,0,1,4.3,1.36l8.78,6.14L177,313.64a7.42,7.42,0,0,1-4.3,1.36A7.6,7.6,0,0,1,165.19,307.5Z"/><circle class="cls-5" cx="533.62" cy="255" r="6"/><path class="cls-5" d="M482.62,250.5h19.5a4.5,4.5,0,0,1,0,9h-43.5v15h43.5a19.5,19.5,0,0,0,0-39h-19.5Z"/><path class="cls-5" d="M502.12,295.5a4.5,4.5,0,0,1,0,9h-19.5v15h19.5a4.5,4.5,0,0,1,0,9h-19.5v15h8.44a22.57,22.57,0,0,0-4.85,2.57h0L473,355.34l-10.17-7.11-8.6,12.28,5.69,4L450,371.43l8.6,12.28,14.37-10,13.24,9.27h0a22.54,22.54,0,0,0,8.1,3.54,21,21,0,1,0,14.89,39.18,21,21,0,0,0,18.38,10.85h7.5v-15h-7.5a6,6,0,0,1-6-6v-8.16c0-.28,0-.56,0-.84a21,21,0,0,0-16.18-20.42,22.49,22.49,0,0,0,.61-43A19.47,19.47,0,0,0,517.46,312a19.47,19.47,0,0,0-15.34-31.5h-19.5v15Zm4.5,111h0v.42a5.68,5.68,0,1,1,0-.42Zm0-42a7.6,7.6,0,0,1-7.5,7.5,7.44,7.44,0,0,1-4.3-1.36L486,364.5l8.78-6.14a7.44,7.44,0,0,1,4.3-1.36A7.6,7.6,0,0,1,506.62,364.5Z"/><path class="cls-6" d="M383.6,310.87c-2.09-3.62-7.66-3.82-10.4,1.21a14.15,14.15,0,0,1-4.49,5.27l-2.44-4.09,4.69-2.62L355.5,273.27a21.22,21.22,0,0,0,2.3-2.15c3.68-4,7.66-11.28,5.72-23-.67-3.56-1.08-6.74.65-9.52,3.14-5,1.62-8.77-.64-10.46-4.12-3.11-8.81-.71-11.44,2L351,214.78a10.65,10.65,0,0,0-3.19-7.32,7,7,0,0,0-8.11-.62l0-.62a10.77,10.77,0,0,0-3.31-7.39,6.58,6.58,0,0,0-4.92-1.55c-3.76.34-6.26,3.9-6.83,7.67a6.47,6.47,0,0,0-3.41-.59c-5,.47-7.25,5.39-6.93,10l.52,7.28a5.31,5.31,0,0,0-2.41-.28c-4.12.46-6.54,4.29-6.15,9.75l1.65,23.41a.14.14,0,0,0,0,.06c.9,11,5.47,17.37,9.68,20.94.26,3.38.27,16.47-14.52,22.57l-1.88.7-13.38,4.11,4.06,13.54,3.82-.47c-1.17,2.49-2.08,6.39-.57,11.67,1.35,4.69,5.46,5.24,7.76,4.11,3.05-1.5,4.68-4.68,1.83-9.1-3.05-4.73-2.13-6.8-1.25-7.64L304,315l1.18,3.72,1.54.1c1.07.06,2.1.09,3.1.09,21,0,26.43-13.75,26.66-14.36a2.25,2.25,0,0,0-4.21-1.6c-.19.51-4.86,12-23.74,11.45L305.54,305l-.87-2.75h0c14.19-5.84,16.95-17.39,17.34-23.76a15.76,15.76,0,0,0,3.08,1.25,2.61,2.61,0,0,0,.48.05,2.25,2.25,0,0,0,.48-4.45c-.13,0-12.47-3.53-13.74-21.61h0l-1.62-23c0-.48-.26-4.69,2.16-5a1,1,0,0,1,.84.29,6.76,6.76,0,0,1,1.69,4.34l.17,2.41h0l.81,11.47a2.25,2.25,0,0,0,4.49-.31l-1-13.89h0l-1.14-16.09c-.14-2,.51-5,2.86-5.21a2,2,0,0,1,1.61.49,6.42,6.42,0,0,1,1.72,4.28s0,0,0,0l1.53,21.74a2.25,2.25,0,0,0,2.24,2.09h.16a2.24,2.24,0,0,0,2.09-2.4L329,207c-.18-2.44,1.27-5.06,2.85-5.21a2,2,0,0,1,1.59.5,6.47,6.47,0,0,1,1.75,4.27l2,28.08a2.25,2.25,0,0,0,4.49-.31l-1.32-18.68v-.09c-.14-1.92.51-5,2.81-5.2a2.27,2.27,0,0,1,1.74.53,6.44,6.44,0,0,1,1.64,4.24l2.38,33.71s0,0,0,0a2.25,2.25,0,0,0,.21.78l0,0a2.3,2.3,0,0,0,.47.64h0a2.35,2.35,0,0,0,.69.43h0a2.58,2.58,0,0,0,.79.15h.2a1,1,0,0,0,.17,0l.25,0,.19-.07.23-.09.17-.1.19-.13.16-.13.16-.16a1.67,1.67,0,0,0,.12-.16,1.33,1.33,0,0,0,.14-.19l.09-.18a1.89,1.89,0,0,0,.09-.21,1.17,1.17,0,0,0,.05-.2,2,2,0,0,0,.06-.23,1.41,1.41,0,0,0,0-.2,1.7,1.7,0,0,0,0-.22c0-.89-.19-2.93-.3-4.41l-.1-1.37c-.28-3.91.33-7,1.77-8.88.69-.91,3.74-3.93,6.07-2.18,1,.75.82,2.43-.47,4.49-2.81,4.49-1.88,9.45-1.27,12.68,1.64,9.91-1.6,15.91-4.61,19.2a17.7,17.7,0,0,1-2.79,2.46,2,2,0,0,0-.45.32,14.82,14.82,0,0,1-8.85,2.73,2.25,2.25,0,1,0-.33,4.49c.34,0,.68,0,1,0a18.78,18.78,0,0,0,8.59-2.32l10,24.17c-.41.85-1.71,2.76-5.38,3.5a2.25,2.25,0,0,0,.44,4.46,2.3,2.3,0,0,0,.45-.05,12.71,12.71,0,0,0,6.45-3.16l1.63,3.93-10.85,6-.16.1-21.69-29a2.25,2.25,0,0,0-3.6,2.7l24,32.12h0l8.9,11.88,11.9-6.63L372.1,323a20.81,20.81,0,0,0,8-3.12C384.67,316.8,384.72,312.82,383.6,310.87Z"/><path class="cls-6" d="M328.65,297.16a2.26,2.26,0,0,0-2.21,2.29,2.7,2.7,0,0,1-2.19,2.78,2.25,2.25,0,0,0,.4,4.46l.41,0a7.22,7.22,0,0,0,5.88-7.28,2.25,2.25,0,0,0-2.25-2.22Z"/><path class="cls-6" d="M327.91,243.54c-1.19.33-1.9,2-1.58,3.81s1.54,3,2.73,2.65,1.9-2,1.58-3.81S329.1,243.22,327.91,243.54Z"/><path class="cls-6" d="M343.87,250c1.19-.32,1.89-2,1.58-3.81s-1.54-3-2.73-2.65-1.9,2-1.58,3.81S342.68,250.32,343.87,250Z"/><path class="cls-6" d="M331,260a2.24,2.24,0,0,0,2.23,2h.23l7.51-.74-2.58-11.63a2.25,2.25,0,0,0-4.4,1l1.49,6.67-2.46.24A2.26,2.26,0,0,0,331,260Z"/><path class="cls-6" d="M329.47,267.3a2.25,2.25,0,0,0,.8,3.08,12,12,0,0,0,16.38-4.24,2.25,2.25,0,1,0-3.88-2.29,7.45,7.45,0,0,1-10.22,2.65A2.25,2.25,0,0,0,329.47,267.3Z"/><path class="cls-6" d="M366.48,467.78l-9.73-18.3-5.08,1.22-.36,20.72a2.25,2.25,0,0,0,2.21,2.29h0a2.26,2.26,0,0,0,2.25-2.21l0-1.74,5.85-1.41.82,1.54a2.25,2.25,0,0,0,4-2.11Zm-10.56-2.67.12-7.37,3.47,6.51Z"/><path class="cls-6" d="M393.21,455.07l-10.34-17.84L379,439.48l2.25,12.86-10-8.34-3.89,2.26,10.34,17.84a2.25,2.25,0,0,0,1.95,1.12,2.33,2.33,0,0,0,1.13-.3,2.25,2.25,0,0,0,.81-3.08l-3.8-6.55,5.29,4.39,3.68-2.13-1.18-6.78,3.8,6.56a2.25,2.25,0,1,0,3.89-2.26Z"/><path class="cls-6" d="M338.25,470.25H331.5v-18H327v22.5h11.25a2.25,2.25,0,0,0,0-4.5Z"/><path class="cls-6" d="M309.14,447.52,297.94,465a2.25,2.25,0,0,0,3.78,2.43l.95-1.47,5.71,1.88-.11,1.74a2.26,2.26,0,0,0,2.1,2.4h.15a2.25,2.25,0,0,0,2.24-2.1l1.35-20.68Zm-4,14.49,4-6.2-.47,7.35Z"/><path class="cls-6" d="M282.69,458.65a6.37,6.37,0,0,1-5.24-10,2.25,2.25,0,0,1,3.71,2.55,1.87,1.87,0,1,0,3.08,2.13l.64-.93a1.87,1.87,0,0,0-.48-2.6,6.38,6.38,0,0,1-1.63-8.87l.64-.93a6.38,6.38,0,0,1,10.5,7.24,2.25,2.25,0,1,1-3.71-2.55,1.87,1.87,0,0,0,.3-1.41,1.82,1.82,0,0,0-.78-1.2,1.79,1.79,0,0,0-1.4-.3,1.82,1.82,0,0,0-1.2.78l-.64.92a1.86,1.86,0,0,0-.3,1.41,1.82,1.82,0,0,0,.78,1.2,6.39,6.39,0,0,1,1.63,8.87l-.64.92A6.36,6.36,0,0,1,282.69,458.65Z"/><rect class="cls-7" x="235.5" y="332.25" width="201" height="120"/><circle class="cls-6" cx="417" cy="431.25" r="6"/><path class="cls-6" d="M421.5,380.25v19.5a4.5,4.5,0,0,1-9,0v-43.5h-15v43.5a19.5,19.5,0,0,0,39,0v-19.5Z"/><path class="cls-6" d="M376.5,399.75a4.5,4.5,0,0,1-9,0v-19.5h-15v19.5a4.5,4.5,0,0,1-9,0v-19.5h-15v8.44a22.57,22.57,0,0,0-2.57-4.85h0l-9.27-13.24,7.11-10.17-12.28-8.6-4,5.69-6.93-9.89-12.28,8.6,10,14.37-9.27,13.24h0a22.54,22.54,0,0,0-3.54,8.1,21,21,0,1,0-39.18,14.89,21,21,0,0,0-10.85,18.38v7.5h15v-7.5a6,6,0,0,1,6-6h8.16c.28,0,.56,0,.84,0a21,21,0,0,0,20.42-16.18,22.49,22.49,0,0,0,43,.61A19.47,19.47,0,0,0,360,415.09a19.47,19.47,0,0,0,31.5-15.34v-19.5h-15Zm-111,4.5v0h-.42a5.68,5.68,0,1,1,.42,0Zm42,0a7.6,7.6,0,0,1-7.5-7.5,7.44,7.44,0,0,1,1.36-4.3l6.14-8.78,6.14,8.78a7.44,7.44,0,0,1,1.36,4.3A7.6,7.6,0,0,1,307.5,404.25Z"/><circle class="cls-5" cx="416.91" cy="558.37" r="6"/><path class="cls-5" d="M421.41,507.37v19.5a4.5,4.5,0,0,1-9,0v-43.5h-15v43.5a19.5,19.5,0,0,0,39,0v-19.5Z"/><path class="cls-5" d="M376.41,526.87a4.5,4.5,0,0,1-9,0v-19.5h-15v19.5a4.5,4.5,0,0,1-9,0v-19.5h-15v8.44a23,23,0,0,0-2.57-4.85h0l-9.28-13.24,7.12-10.17L311.39,479l-4,5.69-6.93-9.89-12.29,8.6,10.06,14.37L289,511h0a22.42,22.42,0,0,0-3.55,8.09A21,21,0,1,0,246.26,534a21,21,0,0,0-10.85,18.38v7.5h15v-7.5a6,6,0,0,1,6-6h8.16c.28,0,.55,0,.84,0a21,21,0,0,0,20.42-16.18,22.48,22.48,0,0,0,43,.61,19.48,19.48,0,0,0,31.11,11.41,19.47,19.47,0,0,0,31.5-15.34v-19.5h-15Zm-111,4.5v0H265a5.68,5.68,0,1,1,.42,0Zm42,0a7.6,7.6,0,0,1-7.5-7.5,7.48,7.48,0,0,1,1.35-4.3l6.15-8.78,6.14,8.78a7.42,7.42,0,0,1,1.36,4.3A7.61,7.61,0,0,1,307.41,531.37Z"/><circle class="cls-5" cx="254.91" cy="113.63" r="6"/><path class="cls-5" d="M250.41,164.63v-19.5a4.5,4.5,0,0,1,9,0v43.5h15v-43.5a19.5,19.5,0,0,0-39,0v19.5Z"/><path class="cls-5" d="M295.41,145.13a4.5,4.5,0,0,1,9,0v19.5h15v-19.5a4.5,4.5,0,0,1,9,0v19.5h15v-8.44A22.14,22.14,0,0,0,346,161h0l9.27,13.24-7.12,10.17,12.29,8.6,4-5.69,6.92,9.89,12.29-8.6-10.06-14.37L382.84,161h0a22.57,22.57,0,0,0,3.54-8.09,21,21,0,1,0,39.17-14.9,21,21,0,0,0,10.86-18.38v-7.5h-15v7.5a6,6,0,0,1-6,6h-8.16c-.29,0-.56,0-.84,0A21,21,0,0,0,386,141.81a22.49,22.49,0,0,0-43-.61,19.47,19.47,0,0,0-31.1-11.41,19.47,19.47,0,0,0-31.5,15.34v19.5h15Zm111-4.5v0h.42a5.68,5.68,0,1,1-.42,0Zm-42,0a7.61,7.61,0,0,1,7.5,7.5,7.42,7.42,0,0,1-1.36,4.3l-6.14,8.78-6.15-8.78a7.48,7.48,0,0,1-1.35-4.3A7.6,7.6,0,0,1,364.41,140.63Z"/></g></svg>