<svg xmlns="http://www.w3.org/2000/svg" viewBox="0 0 672 672"><defs><style>.cls-1{fill:#ff5c35;}</style></defs><g id="Layer_1" data-name="Layer 1"><path d="M256,298.5H238.53l-17.29,66.87a7.5,7.5,0,1,0,14.52,3.76l1.46-5.63h20.06l1.46,5.63a7.5,7.5,0,0,0,7.26,5.62,7.63,7.63,0,0,0,1.88-.24,7.49,7.49,0,0,0,5.38-9.14Zm-14.87,50,6.15-23.79,6.15,23.79Z"/><path d="M411,298.5H393.53l-17.29,66.87a7.5,7.5,0,1,0,14.52,3.76l1.46-5.63h20.06l1.46,5.63a7.5,7.5,0,0,0,7.26,5.62,7.63,7.63,0,0,0,1.88-.24,7.49,7.49,0,0,0,5.38-9.14Zm-14.87,50,6.15-23.79,6.15,23.79Z"/><path d="M506,298.5l-15,40.81L476,298.5H461v68.75a7.5,7.5,0,0,0,15,0V342l7.92,21.52h14.16L506,342v25.27a7.5,7.5,0,0,0,15,0V298.5Z"/><path d="M172.25,312.25a6.25,6.25,0,0,1,6.25,6.25,7.5,7.5,0,0,0,15,0,21.25,21.25,0,0,0-42.5,0v3.75a21.27,21.27,0,0,0,21.25,21.25,6.25,6.25,0,0,1,6.25,6.25v3.75a6.25,6.25,0,0,1-12.5,0,7.5,7.5,0,0,0-15,0,21.25,21.25,0,0,0,42.5,0v-3.75a21.27,21.27,0,0,0-21.25-21.25,6.25,6.25,0,0,1-6.25-6.25V318.5A6.25,6.25,0,0,1,172.25,312.25Z"/><path d="M343.5,358.5H321v-60H306v75h37.5a7.5,7.5,0,0,0,0-15Z"/><path class="cls-1" d="M599,451.5H73v-231H599Zm-525-1H598v-229H74Z"/></g></svg>