<svg xmlns="http://www.w3.org/2000/svg" viewBox="0 0 1080 672"><g id="Layer_1" data-name="Layer 1"><circle cx="729" cy="437.5" r="14"/><path d="M739.5,318.5V364a10.5,10.5,0,0,1-21,0V262.5h-35V364a45.5,45.5,0,0,0,91,0V318.5Z"/><path d="M634.5,364a10.5,10.5,0,0,1-21,0V318.5h-35V364a10.5,10.5,0,0,1-21,0V318.5h-35v19.64a52.7,52.7,0,0,0-6-11.25h0L494.86,296l16.61-23.72L482.8,252.19l-9.3,13.28-16.16-23.08-28.67,20.07L452.14,296l-21.65,30.91h0a52.32,52.32,0,0,0-8.27,18.84,49,49,0,1,0-91.42,34.8,49,49,0,0,0-25.3,42.87v17.5h35V423.4a14,14,0,0,1,14-14h18c1,.06,2,.1,3,.1a49.08,49.08,0,0,0,47.66-37.64,52.48,52.48,0,0,0,100.27,1.33A45.46,45.46,0,0,0,596,399.82,45.46,45.46,0,0,0,669.5,364V318.5h-35Zm-259,10.5v-.1h-1.61a13.94,13.94,0,1,1,1.61.1Zm98,0A17.73,17.73,0,0,1,456,357a17.43,17.43,0,0,1,3.16-10h0l14.33-20.47L487.83,347h0A17.43,17.43,0,0,1,491,357,17.73,17.73,0,0,1,473.5,374.5Z"/></g></svg>