<svg xmlns="http://www.w3.org/2000/svg" viewBox="0 0 672 672"><g id="Layer_1" data-name="Layer 1"><path d="M463.47,321.37c-5.78-7.25-21.2-7.64-28.81,2.42a33.41,33.41,0,0,1-12.44,10.53l-6.75-8.17,13-5.23-42.82-74.75a57.82,57.82,0,0,0,6.38-4.3c10.19-8.05,21.22-22.56,15.83-46-1.85-7.12-3-13.47,1.82-19,8.68-10,4.47-17.54-1.78-20.94-11.42-6.2-24.42-1.4-31.7,4l-3-30.68a19.24,19.24,0,0,0-8.82-14.64,25.47,25.47,0,0,0-22.48-1.24l-.13-1.25a19.63,19.63,0,0,0-9.19-14.77A23,23,0,0,0,319,94.18c-10.4.69-17.32,7.78-18.91,15.3a24.53,24.53,0,0,0-9.47-1.14c-13.79,1-20.09,10.78-19.19,20l1.43,14.55a20.5,20.5,0,0,0-6.67-.55c-11.42.92-18.11,8.57-17,19.49l4.48,45.91h0l.09.92a2.68,2.68,0,0,0,.07.27c2.55,21.92,15.16,34.59,26.79,41.72a35,35,0,0,1-2.59,16.48c-5.42,13.21-18.15,22.86-37.63,28.66l-5.22,1.42-37,8.2,11.23,27.09,10.59-.94c-3.23,5-5.76,12.78-1.57,23.34,3.73,9.38,15.11,10.48,21.49,8.21,8.44-3,13-9.36,5.07-18.2-8.44-9.46-5.9-13.59-3.46-15.26l1.42-.13,3.25,7.44,4.28.19q4.44.19,8.59.2c58.23,0,73.22-27.51,73.86-28.74,1.21-2.33-.43-4.92-3.65-5.79s-6.82.3-8,2.63c-.13.24-13.16,24-65.77,22.86l-5.07-11.62-5.47-12.51.05,0c39.32-11.68,47-34.78,48-47.52a55.13,55.13,0,0,0,8.52,2.49,7.68,7.68,0,0,0,1.35.11c2.86,0,5.44-1.43,6.08-3.53.74-2.43-1.39-4.83-4.75-5.37-.35,0-34.54-7.08-38.08-43.23l-4.49-45.91c-.09-1-.72-9.38,6-9.92a3.58,3.58,0,0,1,2.31.57c2.4,1.44,4.33,5,4.69,8.68l2.71,27.77c.25,2.48,3.21,4.31,6.66,4.17s6-2.32,5.78-4.8l-2.24-22.94h0l-3.62-37c-.38-3.94,1.41-10,7.93-10.42a7.15,7.15,0,0,1,4.44,1c2.55,1.55,4.42,4.92,4.78,8.56,0,0,0,0,0,.06l4.25,43.46c.23,2.37,3,4.18,6.21,4.18h.45c3.43-.17,6-2.32,5.78-4.8l-5.49-56.17c-.48-4.86,3.51-10.12,7.91-10.41a7.06,7.06,0,0,1,4.4,1c2.59,1.58,4.48,4.94,4.84,8.54l5.49,56.16c.24,2.48,3.2,4.32,6.65,4.18s6-2.33,5.78-4.81l-3.65-37.38c0-.05,0-.09,0-.14-.38-3.85,1.4-10.08,7.79-10.41a7.9,7.9,0,0,1,4.8,1.06c2.45,1.53,4.2,4.78,4.56,8.47l5.47,56h0v.06l1.11,11.36a3,3,0,0,0,.11.5c0,.1,0,.21.08.31a3.34,3.34,0,0,0,.35.71l.05.09a6.34,6.34,0,0,0,4.58,2.5c.11,0,.21,0,.32,0s.47.05.72.05H374c.19,0,.37,0,.55-.06s.41,0,.61-.08.38-.1.57-.15a4.91,4.91,0,0,0,.58-.16,3.78,3.78,0,0,0,.5-.22c.18-.08.36-.15.52-.24a3.18,3.18,0,0,0,.43-.28,5,5,0,0,0,.45-.3c.13-.11.23-.22.35-.33s.25-.24.36-.37a4,4,0,0,0,.25-.37,4.65,4.65,0,0,0,.26-.41,3.75,3.75,0,0,0,.16-.43,3.45,3.45,0,0,0,.14-.42,2.58,2.58,0,0,0,0-.48,2.4,2.4,0,0,0,0-.37c-.1-1.86-.54-6-.85-9l-.27-2.57v0c-.77-7.83.93-14,4.92-17.77,1.91-1.81,10.35-7.87,16.8-4.36,2.76,1.5,2.28,4.86-1.29,9-7.79,9-5.21,18.9-3.53,25.36,4.55,19.82-4.42,31.82-12.75,38.4a48.65,48.65,0,0,1-7.74,4.93,6.43,6.43,0,0,0-1.23.62c-8.6,4.17-17.86,5.82-24.54,5.48-3.46-.19-6.42,1.67-6.68,4.15s2.32,4.64,5.75,4.82c.95.06,1.91.08,2.88.08a68,68,0,0,0,23.8-4.63l27.69,48.34c-1.14,1.7-4.74,5.52-14.89,7-3.38.49-5.56,2.86-4.88,5.3.6,2.13,3.2,3.61,6.11,3.61a8.59,8.59,0,0,0,1.23-.09c8.46-1.23,14.1-3.74,17.87-6.33L412.7,317l-3.63,1.46h0l-16.47,6.64-10.41,4.19-60.08-57.93c-2.06-2-6-2.39-8.72-.91s-3.32,4.31-1.26,6.3l59.08,57h0l32.18,31,33-13.28-4.74-5.74a71.4,71.4,0,0,0,22.18-6.24C466.46,333.23,466.59,325.27,463.47,321.37Z"/><path d="M305.12,298.53c.08,3.25-3.1,5.16-6.07,5.56-3.39.44-5.63,2.79-5,5.23.55,2.17,3.17,3.69,6.12,3.69a8.72,8.72,0,0,0,1.14-.07c9.6-1.28,16.45-7.4,16.29-14.56-.06-2.48-2.78-4.5-6.34-4.42S305.07,296.05,305.12,298.53Z"/><path d="M309.19,186.71c-3.3.65-5.26,4.06-4.38,7.63s4.27,5.93,7.57,5.29,5.25-4,4.37-7.62S312.48,186.07,309.19,186.71Z"/><path d="M353.41,199.63c3.29-.64,5.25-4,4.37-7.62s-4.27-5.94-7.56-5.3-5.26,4.06-4.38,7.63S350.11,200.27,353.41,199.63Z"/><path d="M317.7,219.67c.31,2.33,3,4.06,6.19,4.06l.62,0,20.82-1.49L338.16,199c-.75-2.42-4.08-3.95-7.44-3.41s-5.48,2.94-4.73,5.37l4.12,13.33-6.82.49C319.86,215,317.36,217.2,317.7,219.67Z"/><path d="M313.53,234.22c-1.75,2.14-.76,4.9,2.21,6.16a43,43,0,0,0,16.75,3.3c11.37,0,22.45-4.22,28.62-11.78,1.75-2.14.76-4.9-2.21-6.16s-6.79-.55-8.53,1.59c-5.78,7.1-18.48,9.47-28.31,5.3C319.1,231.37,315.27,232.08,313.53,234.22Z"/><path d="M399.34,567.42,379.12,540l-10.57,1.84-.74,31.07c-.05,1.87,2,3.4,4.59,3.44h.08c2.55,0,4.63-1.48,4.68-3.32l.06-2.62,12.16-2.11,1.7,2.32c1.22,1.64,4.05,2.27,6.33,1.39S400.55,569.06,399.34,567.42Zm-21.95-4,.26-11.06,7.2,9.76Z"/><path d="M454.89,548.36,433.4,521.6,425.32,525,430,544.25l-20.85-12.5L401,535.13l21.49,26.77a5.2,5.2,0,0,0,4.05,1.68,6.09,6.09,0,0,0,2.34-.45c2.23-.94,3-3,1.7-4.61l-7.9-9.84,11,6.59,7.65-3.2-2.46-10.16,7.9,9.84c1.29,1.61,4.15,2.15,6.38,1.22S456.18,550,454.89,548.36Z"/><path d="M340.68,571.12h-14v-27H317.3v33.75h23.38c2.58,0,4.67-1.51,4.67-3.37S343.26,571.12,340.68,571.12Z"/><path d="M280.19,537l-23.28,26.15c-1.4,1.57-.77,3.66,1.4,4.67a5.85,5.85,0,0,0,6.46-1l2-2.2,11.89,2.83-.24,2.61c-.17,1.86,1.79,3.46,4.36,3.58h.31c2.45,0,4.5-1.37,4.66-3.16l2.8-31ZM272,558.77l8.29-9.31-1,11Z"/><path d="M225.23,553.72a16.94,16.94,0,0,1-7.5-1.68c-6-3-7.53-9-3.39-13.3a5.91,5.91,0,0,1,6.51-.87c2.12,1.06,2.66,3.16,1.19,4.7-1.22,1.28-.77,3,1,3.91a4.9,4.9,0,0,0,5.41-.72l1.33-1.39c1.22-1.28.77-3-1-3.91a9.82,9.82,0,0,1-5.51-6.14,7.48,7.48,0,0,1,2.12-7.16l1.33-1.39a14.29,14.29,0,0,1,8.5-4,17.3,17.3,0,0,1,9.92,1.54,9.83,9.83,0,0,1,5.51,6.14,7.47,7.47,0,0,1-2.12,7.15,5.87,5.87,0,0,1-6.5.87c-2.13-1.06-2.67-3.16-1.2-4.69a2.21,2.21,0,0,0,.62-2.11,2.88,2.88,0,0,0-1.62-1.81,5.09,5.09,0,0,0-2.91-.45,4.22,4.22,0,0,0-2.51,1.17L233.1,531a2.2,2.2,0,0,0-.63,2.1,2.94,2.94,0,0,0,1.62,1.81c6,3,7.54,9,3.39,13.3l-1.33,1.39C233.59,552.28,229.44,553.72,225.23,553.72Z"/><ellipse cx="504.31" cy="512.62" rx="12.47" ry="9"/><path d="M513.66,436.12v29.25c0,3.73-4.19,6.75-9.35,6.75s-9.35-3-9.35-6.75V400.12H463.78v65.24c0,16.13,18.18,29.25,40.52,29.25s40.52-13.12,40.52-29.25V436.12Z"/><path d="M420.16,465.37c0,3.73-4.2,6.75-9.36,6.75s-9.35-3-9.35-6.75V436.12H370.29v29.25c0,3.73-4.2,6.75-9.36,6.75s-9.35-3-9.35-6.75V436.12H320.42v12.66a32.27,32.27,0,0,0-5.34-7.26h0L295.8,421.65l14.79-15.25-25.53-12.91L276.78,402,262.39,387.2l-25.53,12.9,20.89,21.55-19.27,19.87h0a29.92,29.92,0,0,0-7.36,12.13c-5.58-12.75-22.12-22-41.61-22-24.06,0-43.64,14.14-43.64,31.5A24.25,24.25,0,0,0,149.72,476c-13.43,5.38-22.55,15.71-22.55,27.56v11.25h31.17V503.56c0-5,5.59-9,12.47-9h16.95c.59,0,1.16.06,1.75.06,20.61,0,37.88-10.37,42.43-24.26,5.69,14,23.62,24.26,44.84,24.26,20.76,0,38.37-9.82,44.46-23.36,3.79,13.32,20.15,23.36,39.69,23.36a50.83,50.83,0,0,0,24.94-6.24,50.82,50.82,0,0,0,24.93,6.24c22.35,0,40.52-13.12,40.52-29.25V436.12H420.16Zm-230.65,6.75v-.06h-.88c-6.46-.33-11.59-4.19-11.59-8.94,0-5,5.59-9,12.47-9s12.47,4,12.47,9S196.38,472.12,189.51,472.12Zm87.27,0c-8.45,0-15.58-5.15-15.58-11.25a9.23,9.23,0,0,1,2.81-6.45l12.77-13.16,12.77,13.16a9.23,9.23,0,0,1,2.81,6.45C292.36,467,285.23,472.12,276.78,472.12Z"/></g></svg>